solid OpenSCAD_Model
  facet normal -1 0 0
    outer loop
      vertex 0 4.5 0
      vertex 0 3.5 1
      vertex 0 4.5 8.33333
    endloop
  endfacet
  facet normal -1 0 0
    outer loop
      vertex 0 4.5 0
      vertex 0 1 1
      vertex 0 3.5 1
    endloop
  endfacet
  facet normal -1 0 0
    outer loop
      vertex 0 0 0
      vertex 0 1 1
      vertex 0 4.5 0
    endloop
  endfacet
  facet normal -1 0 0
    outer loop
      vertex 0 0 8.33333
      vertex 0 1 1
      vertex 0 0 0
    endloop
  endfacet
  facet normal -1 0 0
    outer loop
      vertex 0 1 1
      vertex 0 0 8.33333
      vertex 0 1 8.33333
    endloop
  endfacet
  facet normal -1 -0 0
    outer loop
      vertex 0 4.5 8.33333
      vertex 0 3.5 1
      vertex 0 3.5 8.33333
    endloop
  endfacet
  facet normal -0 0 1
    outer loop
      vertex 0 3.5 1
      vertex 2 1 1
      vertex 2 3.5 1
    endloop
  endfacet
  facet normal 0 0 1
    outer loop
      vertex 2 1 1
      vertex 0 3.5 1
      vertex 0 1 1
    endloop
  endfacet
  facet normal -0 0 1
    outer loop
      vertex 14 3.5 1
      vertex 16 1 1
      vertex 16 3.5 1
    endloop
  endfacet
  facet normal 0 0 1
    outer loop
      vertex 16 1 1
      vertex 14 3.5 1
      vertex 14 1 1
    endloop
  endfacet
  facet normal 0 0 1
    outer loop
      vertex 2 3.5 1
      vertex 14 3.5 1
      vertex 14 4.5 1
    endloop
  endfacet
  facet normal 0 0 1
    outer loop
      vertex 14 3.5 1
      vertex 2 3.5 1
      vertex 14 1 1
    endloop
  endfacet
  facet normal 0 0 1
    outer loop
      vertex 2 3.5 1
      vertex 14 4.5 1
      vertex 2 4.5 1
    endloop
  endfacet
  facet normal 0 0 1
    outer loop
      vertex 2 1 1
      vertex 14 1 1
      vertex 2 3.5 1
    endloop
  endfacet
  facet normal 0 0 1
    outer loop
      vertex 14 1 1
      vertex 2 1 1
      vertex 14 0 1
    endloop
  endfacet
  facet normal 0 0 1
    outer loop
      vertex 14 0 1
      vertex 2 1 1
      vertex 2 0 1
    endloop
  endfacet
  facet normal 1 0 0
    outer loop
      vertex 16 1 8.33333
      vertex 16 0 8.33333
      vertex 16 1 1
    endloop
  endfacet
  facet normal 1 0 0
    outer loop
      vertex 16 3.5 1
      vertex 16 4.5 8.33333
      vertex 16 3.5 8.33333
    endloop
  endfacet
  facet normal 1 0 0
    outer loop
      vertex 16 4.5 8.33333
      vertex 16 3.5 1
      vertex 16 4.5 0
    endloop
  endfacet
  facet normal 1 -0 0
    outer loop
      vertex 16 1 1
      vertex 16 4.5 0
      vertex 16 3.5 1
    endloop
  endfacet
  facet normal 1 0 0
    outer loop
      vertex 16 1 1
      vertex 16 0 0
      vertex 16 4.5 0
    endloop
  endfacet
  facet normal 1 0 0
    outer loop
      vertex 16 0 0
      vertex 16 1 1
      vertex 16 0 8.33333
    endloop
  endfacet
  facet normal 0 1 0
    outer loop
      vertex 16 4.5 8.33333
      vertex 14 4.5 1
      vertex 14 4.5 8.33333
    endloop
  endfacet
  facet normal 0 1 0
    outer loop
      vertex 14 4.5 1
      vertex 16 4.5 0
      vertex 2 4.5 1
    endloop
  endfacet
  facet normal 0 1 -0
    outer loop
      vertex 16 4.5 0
      vertex 14 4.5 1
      vertex 16 4.5 8.33333
    endloop
  endfacet
  facet normal 0 1 -0
    outer loop
      vertex 2 4.5 1
      vertex 0 4.5 8.33333
      vertex 2 4.5 8.33333
    endloop
  endfacet
  facet normal 0 1 0
    outer loop
      vertex 2 4.5 1
      vertex 0 4.5 0
      vertex 0 4.5 8.33333
    endloop
  endfacet
  facet normal 0 1 0
    outer loop
      vertex 0 4.5 0
      vertex 2 4.5 1
      vertex 16 4.5 0
    endloop
  endfacet
  facet normal 0 0 -1
    outer loop
      vertex 0 0 0
      vertex 16 4.5 0
      vertex 16 0 0
    endloop
  endfacet
  facet normal -0 0 -1
    outer loop
      vertex 16 4.5 0
      vertex 0 0 0
      vertex 0 4.5 0
    endloop
  endfacet
  facet normal 0 -1 0
    outer loop
      vertex 0 0 8.33333
      vertex 2 0 1
      vertex 2 0 8.33333
    endloop
  endfacet
  facet normal 0 -1 -0
    outer loop
      vertex 2 0 1
      vertex 0 0 0
      vertex 14 0 1
    endloop
  endfacet
  facet normal 0 -1 0
    outer loop
      vertex 0 0 0
      vertex 2 0 1
      vertex 0 0 8.33333
    endloop
  endfacet
  facet normal 0 -1 0
    outer loop
      vertex 14 0 1
      vertex 16 0 8.33333
      vertex 14 0 8.33333
    endloop
  endfacet
  facet normal 0 -1 0
    outer loop
      vertex 14 0 1
      vertex 16 0 0
      vertex 16 0 8.33333
    endloop
  endfacet
  facet normal 0 -1 0
    outer loop
      vertex 16 0 0
      vertex 14 0 1
      vertex 0 0 0
    endloop
  endfacet
  facet normal -0 0 1
    outer loop
      vertex 0 1 8.33333
      vertex 2 0 8.33333
      vertex 2 1 8.33333
    endloop
  endfacet
  facet normal 0 0 1
    outer loop
      vertex 2 0 8.33333
      vertex 0 1 8.33333
      vertex 0 0 8.33333
    endloop
  endfacet
  facet normal -0 0 1
    outer loop
      vertex 14 1 8.33333
      vertex 16 0 8.33333
      vertex 16 1 8.33333
    endloop
  endfacet
  facet normal 0 0 1
    outer loop
      vertex 16 0 8.33333
      vertex 14 1 8.33333
      vertex 14 0 8.33333
    endloop
  endfacet
  facet normal 0 1 -0
    outer loop
      vertex 16 1 1
      vertex 14 1 8.33333
      vertex 16 1 8.33333
    endloop
  endfacet
  facet normal 0 1 0
    outer loop
      vertex 14 1 8.33333
      vertex 16 1 1
      vertex 14 1 1
    endloop
  endfacet
  facet normal 0 1 -0
    outer loop
      vertex 2 1 1
      vertex 0 1 8.33333
      vertex 2 1 8.33333
    endloop
  endfacet
  facet normal 0 1 0
    outer loop
      vertex 0 1 8.33333
      vertex 2 1 1
      vertex 0 1 1
    endloop
  endfacet
  facet normal -0 0 1
    outer loop
      vertex 0 4.5 8.33333
      vertex 2 3.5 8.33333
      vertex 2 4.5 8.33333
    endloop
  endfacet
  facet normal 0 0 1
    outer loop
      vertex 2 3.5 8.33333
      vertex 0 4.5 8.33333
      vertex 0 3.5 8.33333
    endloop
  endfacet
  facet normal -0 0 1
    outer loop
      vertex 14 4.5 8.33333
      vertex 16 3.5 8.33333
      vertex 16 4.5 8.33333
    endloop
  endfacet
  facet normal 0 0 1
    outer loop
      vertex 16 3.5 8.33333
      vertex 14 4.5 8.33333
      vertex 14 3.5 8.33333
    endloop
  endfacet
  facet normal 0 -1 0
    outer loop
      vertex 0 3.5 1
      vertex 2 3.5 8.33333
      vertex 0 3.5 8.33333
    endloop
  endfacet
  facet normal 0 -1 -0
    outer loop
      vertex 2 3.5 8.33333
      vertex 0 3.5 1
      vertex 2 3.5 1
    endloop
  endfacet
  facet normal 0 -1 0
    outer loop
      vertex 14 3.5 1
      vertex 16 3.5 8.33333
      vertex 14 3.5 8.33333
    endloop
  endfacet
  facet normal 0 -1 -0
    outer loop
      vertex 16 3.5 8.33333
      vertex 14 3.5 1
      vertex 16 3.5 1
    endloop
  endfacet
  facet normal 1 -0 0
    outer loop
      vertex 2 3.5 8.33333
      vertex 2 4.5 1
      vertex 2 4.5 8.33333
    endloop
  endfacet
  facet normal 1 0 0
    outer loop
      vertex 2 4.5 1
      vertex 2 3.5 8.33333
      vertex 2 3.5 1
    endloop
  endfacet
  facet normal 1 -0 0
    outer loop
      vertex 2 0 8.33333
      vertex 2 1 1
      vertex 2 1 8.33333
    endloop
  endfacet
  facet normal 1 0 0
    outer loop
      vertex 2 1 1
      vertex 2 0 8.33333
      vertex 2 0 1
    endloop
  endfacet
  facet normal -1 0 0
    outer loop
      vertex 14 0 1
      vertex 14 1 8.33333
      vertex 14 1 1
    endloop
  endfacet
  facet normal -1 -0 0
    outer loop
      vertex 14 1 8.33333
      vertex 14 0 1
      vertex 14 0 8.33333
    endloop
  endfacet
  facet normal -1 0 0
    outer loop
      vertex 14 3.5 1
      vertex 14 4.5 8.33333
      vertex 14 4.5 1
    endloop
  endfacet
  facet normal -1 -0 0
    outer loop
      vertex 14 4.5 8.33333
      vertex 14 3.5 1
      vertex 14 3.5 8.33333
    endloop
  endfacet
endsolid OpenSCAD_Model
