solid OpenSCAD_Model
  facet normal -1 0 0
    outer loop
      vertex 0 8.5 0
      vertex 0 5.5 3
      vertex 0 8.5 25
    endloop
  endfacet
  facet normal -1 0 0
    outer loop
      vertex 0 8.5 0
      vertex 0 3 3
      vertex 0 5.5 3
    endloop
  endfacet
  facet normal -1 0 0
    outer loop
      vertex 0 0 0
      vertex 0 3 3
      vertex 0 8.5 0
    endloop
  endfacet
  facet normal -1 0 0
    outer loop
      vertex 0 0 25
      vertex 0 3 3
      vertex 0 0 0
    endloop
  endfacet
  facet normal -1 0 0
    outer loop
      vertex 0 3 3
      vertex 0 0 25
      vertex 0 3 25
    endloop
  endfacet
  facet normal -1 -0 0
    outer loop
      vertex 0 8.5 25
      vertex 0 5.5 3
      vertex 0 5.5 25
    endloop
  endfacet
  facet normal 0 0 1
    outer loop
      vertex 2 5.5 3
      vertex 46 8.5 3
      vertex 2 8.5 3
    endloop
  endfacet
  facet normal 0 0 1
    outer loop
      vertex 46 8.5 3
      vertex 2 5.5 3
      vertex 46 0 3
    endloop
  endfacet
  facet normal -0 0 1
    outer loop
      vertex 2 3 3
      vertex 46 0 3
      vertex 2 5.5 3
    endloop
  endfacet
  facet normal 0 0 1
    outer loop
      vertex 46 0 3
      vertex 2 3 3
      vertex 2 0 3
    endloop
  endfacet
  facet normal -0 0 1
    outer loop
      vertex 0 5.5 3
      vertex 2 3 3
      vertex 2 5.5 3
    endloop
  endfacet
  facet normal 0 0 1
    outer loop
      vertex 2 3 3
      vertex 0 5.5 3
      vertex 0 3 3
    endloop
  endfacet
  facet normal 1 -0 0
    outer loop
      vertex 46 0 3
      vertex 46 8.5 0
      vertex 46 8.5 3
    endloop
  endfacet
  facet normal 1 0 0
    outer loop
      vertex 46 8.5 0
      vertex 46 0 3
      vertex 46 0 0
    endloop
  endfacet
  facet normal 0 0 -1
    outer loop
      vertex 0 0 0
      vertex 46 8.5 0
      vertex 46 0 0
    endloop
  endfacet
  facet normal -0 0 -1
    outer loop
      vertex 46 8.5 0
      vertex 0 0 0
      vertex 0 8.5 0
    endloop
  endfacet
  facet normal 0 -1 0
    outer loop
      vertex 0 0 25
      vertex 2 0 3
      vertex 2 0 25
    endloop
  endfacet
  facet normal 0 -1 0
    outer loop
      vertex 0 0 0
      vertex 2 0 3
      vertex 0 0 25
    endloop
  endfacet
  facet normal 0 -1 0
    outer loop
      vertex 46 0 0
      vertex 2 0 3
      vertex 0 0 0
    endloop
  endfacet
  facet normal 0 -1 0
    outer loop
      vertex 2 0 3
      vertex 46 0 0
      vertex 46 0 3
    endloop
  endfacet
  facet normal 0 1 0
    outer loop
      vertex 46 8.5 3
      vertex 46 8.5 0
      vertex 2 8.5 3
    endloop
  endfacet
  facet normal 0 1 -0
    outer loop
      vertex 2 8.5 3
      vertex 0 8.5 25
      vertex 2 8.5 25
    endloop
  endfacet
  facet normal 0 1 0
    outer loop
      vertex 2 8.5 3
      vertex 0 8.5 0
      vertex 0 8.5 25
    endloop
  endfacet
  facet normal 0 1 0
    outer loop
      vertex 0 8.5 0
      vertex 2 8.5 3
      vertex 46 8.5 0
    endloop
  endfacet
  facet normal -0 0 1
    outer loop
      vertex 0 3 25
      vertex 2 0 25
      vertex 2 3 25
    endloop
  endfacet
  facet normal 0 0 1
    outer loop
      vertex 2 0 25
      vertex 0 3 25
      vertex 0 0 25
    endloop
  endfacet
  facet normal 0 1 -0
    outer loop
      vertex 2 3 3
      vertex 0 3 25
      vertex 2 3 25
    endloop
  endfacet
  facet normal 0 1 0
    outer loop
      vertex 0 3 25
      vertex 2 3 3
      vertex 0 3 3
    endloop
  endfacet
  facet normal -0 0 1
    outer loop
      vertex 0 8.5 25
      vertex 2 5.5 25
      vertex 2 8.5 25
    endloop
  endfacet
  facet normal 0 0 1
    outer loop
      vertex 2 5.5 25
      vertex 0 8.5 25
      vertex 0 5.5 25
    endloop
  endfacet
  facet normal 0 -1 0
    outer loop
      vertex 0 5.5 3
      vertex 2 5.5 25
      vertex 0 5.5 25
    endloop
  endfacet
  facet normal 0 -1 -0
    outer loop
      vertex 2 5.5 25
      vertex 0 5.5 3
      vertex 2 5.5 3
    endloop
  endfacet
  facet normal 1 -0 0
    outer loop
      vertex 2 5.5 25
      vertex 2 8.5 3
      vertex 2 8.5 25
    endloop
  endfacet
  facet normal 1 0 0
    outer loop
      vertex 2 8.5 3
      vertex 2 5.5 25
      vertex 2 5.5 3
    endloop
  endfacet
  facet normal 1 -0 0
    outer loop
      vertex 2 0 25
      vertex 2 3 3
      vertex 2 3 25
    endloop
  endfacet
  facet normal 1 0 0
    outer loop
      vertex 2 3 3
      vertex 2 0 25
      vertex 2 0 3
    endloop
  endfacet
endsolid OpenSCAD_Model
