solid OpenSCAD_Model
  facet normal -1 0 0
    outer loop
      vertex -25 -25 -1
      vertex -25 25 23.2
      vertex -25 25 -1
    endloop
  endfacet
  facet normal -1 -0 0
    outer loop
      vertex -25 25 23.2
      vertex -25 -25 -1
      vertex -25 -25 23.2
    endloop
  endfacet
  facet normal -1.46443e-24 1.22465e-16 1
    outer loop
      vertex 24 24 -2.93915e-15
      vertex 4.54623 15.1972 -1.86112e-15
      vertex 24 -24 2.93915e-15
    endloop
  endfacet
  facet normal -7.39228e-23 1.22465e-16 1
    outer loop
      vertex 24 24 -2.93915e-15
      vertex 4.52324 15.8775 -1.94443e-15
      vertex 4.54623 15.1972 -1.86112e-15
    endloop
  endfacet
  facet normal 1.34912e-21 1.22461e-16 1
    outer loop
      vertex 24 24 -2.93915e-15
      vertex 4.52087 15.9151 -1.94904e-15
      vertex 4.52324 15.8775 -1.94443e-15
    endloop
  endfacet
  facet normal -7.5627e-23 1.22465e-16 1
    outer loop
      vertex 24 24 -2.93915e-15
      vertex 4.45187 16.5444 -2.0261e-15
      vertex 4.52087 15.9151 -1.94904e-15
    endloop
  endfacet
  facet normal 7.43894e-23 1.22464e-16 1
    outer loop
      vertex 24 24 -2.93915e-15
      vertex 4.32982 17.1598 -2.10146e-15
      vertex 4.45187 16.5444 -2.0261e-15
    endloop
  endfacet
  facet normal -4.39332e-24 1.22465e-16 1
    outer loop
      vertex 24 24 -2.93915e-15
      vertex 4.15718 17.723 -2.17044e-15
      vertex 4.32982 17.1598 -2.10146e-15
    endloop
  endfacet
  facet normal -3.52046e-24 1.22465e-16 1
    outer loop
      vertex 24 24 -2.93915e-15
      vertex 3.95018 18.1995 -2.2288e-15
      vertex 4.15718 17.723 -2.17044e-15
    endloop
  endfacet
  facet normal -7.11583e-23 1.22465e-16 1
    outer loop
      vertex 24 24 -2.93915e-15
      vertex 3.93413 18.2336 -2.23297e-15
      vertex 3.95018 18.1995 -2.2288e-15
    endloop
  endfacet
  facet normal -3.02928e-23 1.22465e-16 1
    outer loop
      vertex 24 24 -2.93915e-15
      vertex 3.68112 18.6591 -2.28509e-15
      vertex 3.93413 18.2336 -2.23297e-15
    endloop
  endfacet
  facet normal 1.51921e-22 1.22464e-16 1
    outer loop
      vertex 24 24 -2.93915e-15
      vertex 3.66093 18.691 -2.28898e-15
      vertex 3.68112 18.6591 -2.28509e-15
    endloop
  endfacet
  facet normal -9.01288e-24 1.22465e-16 1
    outer loop
      vertex 24 24 -2.93915e-15
      vertex 3.33794 19.0946 -2.33841e-15
      vertex 3.66093 18.691 -2.28898e-15
    endloop
  endfacet
  facet normal -2.907e-23 1.22465e-16 1
    outer loop
      vertex 24 24 -2.93915e-15
      vertex 2.97435 19.4443 -2.38124e-15
      vertex 3.33794 19.0946 -2.33841e-15
    endloop
  endfacet
  facet normal 7.83115e-23 1.22464e-16 1
    outer loop
      vertex 24 24 -2.93915e-15
      vertex 2.5795 19.7406 -2.41752e-15
      vertex 2.97435 19.4443 -2.38124e-15
    endloop
  endfacet
  facet normal -1.06256e-22 1.22465e-16 1
    outer loop
      vertex 24 24 -2.93915e-15
      vertex 2.15387 19.983 -2.44721e-15
      vertex 2.5795 19.7406 -2.41752e-15
    endloop
  endfacet
  facet normal 6.03286e-23 1.22464e-16 1
    outer loop
      vertex 24 24 -2.93915e-15
      vertex 1.69798 20.1713 -2.47027e-15
      vertex 2.15387 19.983 -2.44721e-15
    endloop
  endfacet
  facet normal 3.17711e-23 1.22464e-16 1
    outer loop
      vertex 24 24 -2.93915e-15
      vertex 1.2124 20.3053 -2.48668e-15
      vertex 1.69798 20.1713 -2.47027e-15
    endloop
  endfacet
  facet normal -1.63841e-22 1.22466e-16 1
    outer loop
      vertex 24 24 -2.93915e-15
      vertex 0.735046 20.38 -2.49583e-15
      vertex 1.2124 20.3053 -2.48668e-15
    endloop
  endfacet
  facet normal 1.8654e-21 1.22453e-16 1
    outer loop
      vertex 24 24 -2.93915e-15
      vertex 0.697662 20.3847 -2.49641e-15
      vertex 0.735046 20.38 -2.49583e-15
    endloop
  endfacet
  facet normal -1.83164e-22 1.22466e-16 1
    outer loop
      vertex 24 24 -2.93915e-15
      vertex 0.192078 20.4097 -2.49946e-15
      vertex 0.697662 20.3847 -2.49641e-15
    endloop
  endfacet
  facet normal 0 1.22465e-16 1
    outer loop
      vertex 24 24 -2.93915e-15
      vertex 0.154419 20.4097 -2.49946e-15
      vertex 0.192078 20.4097 -2.49946e-15
    endloop
  endfacet
  facet normal -0 1.22465e-16 1
    outer loop
      vertex -24 24 -2.93915e-15
      vertex 0.154419 20.4097 -2.49946e-15
      vertex 24 24 -2.93915e-15
    endloop
  endfacet
  facet normal -2.7676e-23 1.22464e-16 1
    outer loop
      vertex 0.154419 20.4097 -2.49946e-15
      vertex -24 24 -2.93915e-15
      vertex -0.329407 20.3844 -2.49637e-15
    endloop
  endfacet
  facet normal 1.43287e-24 1.22465e-16 1
    outer loop
      vertex -24 -24 2.93915e-15
      vertex -4.11772 15.1972 -1.86112e-15
      vertex -24 24 -2.93915e-15
    endloop
  endfacet
  facet normal 2.89702e-23 1.22465e-16 1
    outer loop
      vertex -4.09473 15.8706 -1.94359e-15
      vertex -24 24 -2.93915e-15
      vertex -4.11772 15.1972 -1.86112e-15
    endloop
  endfacet
  facet normal 9.17369e-22 1.22467e-16 1
    outer loop
      vertex -4.09236 15.9082 -1.94819e-15
      vertex -24 24 -2.93915e-15
      vertex -4.09473 15.8706 -1.94359e-15
    endloop
  endfacet
  facet normal 9.81264e-24 1.22465e-16 1
    outer loop
      vertex -4.02336 16.5322 -2.02461e-15
      vertex -24 24 -2.93915e-15
      vertex -4.09236 15.9082 -1.94819e-15
    endloop
  endfacet
  facet normal -4.40365e-23 1.22465e-16 1
    outer loop
      vertex -3.90131 17.144 -2.09953e-15
      vertex -24 24 -2.93915e-15
      vertex -4.02336 16.5322 -2.02461e-15
    endloop
  endfacet
  facet normal -1.13426e-23 1.22465e-16 1
    outer loop
      vertex -3.72867 17.7052 -2.16826e-15
      vertex -24 24 -2.93915e-15
      vertex -3.90131 17.144 -2.09953e-15
    endloop
  endfacet
  facet normal 9.2143e-25 1.22465e-16 1
    outer loop
      vertex -3.52167 18.1814 -2.22657e-15
      vertex -24 24 -2.93915e-15
      vertex -3.72867 17.7052 -2.16826e-15
    endloop
  endfacet
  facet normal 7.1558e-23 1.22465e-16 1
    outer loop
      vertex -3.50562 18.2154 -2.23075e-15
      vertex -24 24 -2.93915e-15
      vertex -3.52167 18.1814 -2.22657e-15
    endloop
  endfacet
  facet normal -4.19252e-23 1.22465e-16 1
    outer loop
      vertex -3.25261 18.6422 -2.28302e-15
      vertex -24 24 -2.93915e-15
      vertex -3.50562 18.2154 -2.23075e-15
    endloop
  endfacet
  facet normal 1.32331e-21 1.2247e-16 1
    outer loop
      vertex -3.23242 18.6741 -2.28691e-15
      vertex -24 24 -2.93915e-15
      vertex -3.25261 18.6422 -2.28302e-15
    endloop
  endfacet
  facet normal -3.98667e-23 1.22464e-16 1
    outer loop
      vertex -2.90942 19.0806 -2.3367e-15
      vertex -24 24 -2.93915e-15
      vertex -3.23242 18.6741 -2.28691e-15
    endloop
  endfacet
  facet normal -1.10764e-23 1.22465e-16 1
    outer loop
      vertex -2.54752 19.434 -2.37998e-15
      vertex -24 24 -2.93915e-15
      vertex -2.90942 19.0806 -2.3367e-15
    endloop
  endfacet
  facet normal 3.60308e-23 1.22465e-16 1
    outer loop
      vertex -2.15768 19.7334 -2.41665e-15
      vertex -24 24 -2.93915e-15
      vertex -2.54752 19.434 -2.37998e-15
    endloop
  endfacet
  facet normal -1.87704e-23 1.22465e-16 1
    outer loop
      vertex -1.77344 19.9603 -2.44443e-15
      vertex -24 24 -2.93915e-15
      vertex -2.15768 19.7334 -2.41665e-15
    endloop
  endfacet
  facet normal -5.43184e-22 1.22462e-16 1
    outer loop
      vertex -1.74043 19.9784 -2.44665e-15
      vertex -24 24 -2.93915e-15
      vertex -1.77344 19.9603 -2.44443e-15
    endloop
  endfacet
  facet normal 2.93759e-23 1.22465e-16 1
    outer loop
      vertex -1.33128 20.1548 -2.46826e-15
      vertex -24 24 -2.93915e-15
      vertex -1.74043 19.9784 -2.44665e-15
    endloop
  endfacet
  facet normal 9.44916e-22 1.2247e-16 1
    outer loop
      vertex -1.29625 20.1687 -2.46996e-15
      vertex -24 24 -2.93915e-15
      vertex -1.33128 20.1548 -2.46826e-15
    endloop
  endfacet
  facet normal -1.08256e-22 1.22464e-16 1
    outer loop
      vertex -0.862213 20.2947 -2.48539e-15
      vertex -24 24 -2.93915e-15
      vertex -1.29625 20.1687 -2.46996e-15
    endloop
  endfacet
  facet normal -5.54764e-22 1.22461e-16 1
    outer loop
      vertex -0.825729 20.3041 -2.48654e-15
      vertex -24 24 -2.93915e-15
      vertex -0.862213 20.2947 -2.48539e-15
    endloop
  endfacet
  facet normal 1.24872e-22 1.22465e-16 1
    outer loop
      vertex -0.366791 20.3797 -2.4958e-15
      vertex -24 24 -2.93915e-15
      vertex -0.825729 20.3041 -2.48654e-15
    endloop
  endfacet
  facet normal 1.24843e-21 1.22473e-16 1
    outer loop
      vertex -0.329407 20.3844 -2.49637e-15
      vertex -24 24 -2.93915e-15
      vertex -0.366791 20.3797 -2.4958e-15
    endloop
  endfacet
  facet normal -1.07988e-24 1.22465e-16 1
    outer loop
      vertex 4.54623 -16.1557 1.97851e-15
      vertex 24 -24 2.93915e-15
      vertex 4.54623 15.1972 -1.86112e-15
    endloop
  endfacet
  facet normal 2.21639e-23 1.22465e-16 1
    outer loop
      vertex 4.52324 -16.8357 2.06178e-15
      vertex 24 -24 2.93915e-15
      vertex 4.54623 -16.1557 1.97851e-15
    endloop
  endfacet
  facet normal 8.26035e-22 1.22467e-16 1
    outer loop
      vertex 4.52087 -16.8733 2.06638e-15
      vertex 24 -24 2.93915e-15
      vertex 4.52324 -16.8357 2.06178e-15
    endloop
  endfacet
  facet normal -2.64506e-23 1.22465e-16 1
    outer loop
      vertex 4.45187 -17.5018 2.14335e-15
      vertex 24 -24 2.93915e-15
      vertex 4.52087 -16.8733 2.06638e-15
    endloop
  endfacet
  facet normal -1.466e-23 1.22465e-16 1
    outer loop
      vertex 4.32982 -18.1157 2.21853e-15
      vertex 24 -24 2.93915e-15
      vertex 4.45187 -17.5018 2.14335e-15
    endloop
  endfacet
  facet normal -1.22271e-23 1.22465e-16 1
    outer loop
      vertex 4.15718 -18.6769 2.28727e-15
      vertex 24 -24 2.93915e-15
      vertex 4.32982 -18.1157 2.21853e-15
    endloop
  endfacet
  facet normal 5.85218e-23 1.22465e-16 1
    outer loop
      vertex 3.93413 -19.185 2.34948e-15
      vertex 24 -24 2.93915e-15
      vertex 4.15718 -18.6769 2.28727e-15
    endloop
  endfacet
  facet normal 3.74488e-24 1.22465e-16 1
    outer loop
      vertex 3.66093 -19.6392 2.40511e-15
      vertex 24 -24 2.93915e-15
      vertex 3.93413 -19.185 2.34948e-15
    endloop
  endfacet
  facet normal -5.16088e-23 1.22464e-16 1
    outer loop
      vertex 3.33794 -20.0391 2.45408e-15
      vertex 24 -24 2.93915e-15
      vertex 3.66093 -19.6392 2.40511e-15
    endloop
  endfacet
  facet normal 5.52443e-23 1.22465e-16 1
    outer loop
      vertex 2.97435 -20.3854 2.49649e-15
      vertex 24 -24 2.93915e-15
      vertex 3.33794 -20.0391 2.45408e-15
    endloop
  endfacet
  facet normal -3.40288e-23 1.22464e-16 1
    outer loop
      vertex 2.5795 -20.6787 2.53241e-15
      vertex 24 -24 2.93915e-15
      vertex 2.97435 -20.3854 2.49649e-15
    endloop
  endfacet
  facet normal 5.02298e-23 1.22465e-16 1
    outer loop
      vertex 2.15387 -20.9187 2.56181e-15
      vertex 24 -24 2.93915e-15
      vertex 2.5795 -20.6787 2.53241e-15
    endloop
  endfacet
  facet normal -7.75714e-23 1.22464e-16 1
    outer loop
      vertex 1.69798 -21.1052 2.58464e-15
      vertex 24 -24 2.93915e-15
      vertex 2.15387 -20.9187 2.56181e-15
    endloop
  endfacet
  facet normal 4.98949e-23 1.22465e-16 1
    outer loop
      vertex 1.2124 -21.2378 2.60088e-15
      vertex 24 -24 2.93915e-15
      vertex 1.69798 -21.1052 2.58464e-15
    endloop
  endfacet
  facet normal 1.76988e-24 1.22465e-16 1
    outer loop
      vertex 0.697662 -21.3165 2.61052e-15
      vertex 24 -24 2.93915e-15
      vertex 1.2124 -21.2378 2.60088e-15
    endloop
  endfacet
  facet normal -1.19347e-22 1.22464e-16 1
    outer loop
      vertex 0.192078 -21.3412 2.61354e-15
      vertex 24 -24 2.93915e-15
      vertex 0.697662 -21.3165 2.61052e-15
    endloop
  endfacet
  facet normal -0 1.22465e-16 1
    outer loop
      vertex 0.154419 -21.3412 2.61354e-15
      vertex 24 -24 2.93915e-15
      vertex 0.192078 -21.3412 2.61354e-15
    endloop
  endfacet
  facet normal 2.21592e-23 1.22464e-16 1
    outer loop
      vertex -24 -24 2.93915e-15
      vertex 0.154419 -21.3412 2.61354e-15
      vertex -0.336548 -21.3162 2.61048e-15
    endloop
  endfacet
  facet normal 1.05661e-24 1.22465e-16 1
    outer loop
      vertex -4.11772 15.1972 -1.86112e-15
      vertex -24 -24 2.93915e-15
      vertex -4.11772 -16.1557 1.97851e-15
    endloop
  endfacet
  facet normal -8.35452e-23 1.22465e-16 1
    outer loop
      vertex -4.11772 -16.1557 1.97851e-15
      vertex -24 -24 2.93915e-15
      vertex -4.09502 -16.8288 2.06093e-15
    endloop
  endfacet
  facet normal 1.16951e-21 1.22461e-16 1
    outer loop
      vertex -4.09502 -16.8288 2.06093e-15
      vertex -24 -24 2.93915e-15
      vertex -4.09265 -16.8664 2.06554e-15
    endloop
  endfacet
  facet normal -2.21376e-23 1.22465e-16 1
    outer loop
      vertex -4.09265 -16.8664 2.06554e-15
      vertex -24 -24 2.93915e-15
      vertex -4.02451 -17.4896 2.14186e-15
    endloop
  endfacet
  facet normal -2.85288e-23 1.22465e-16 1
    outer loop
      vertex -4.02451 -17.4896 2.14186e-15
      vertex -24 -24 2.93915e-15
      vertex -3.90388 -18.0999 2.2166e-15
    endloop
  endfacet
  facet normal 7.41488e-24 1.22465e-16 1
    outer loop
      vertex -3.90388 -18.0999 2.2166e-15
      vertex -24 -24 2.93915e-15
      vertex -3.73325 -18.6591 2.28509e-15
    endloop
  endfacet
  facet normal -3.83434e-23 1.22465e-16 1
    outer loop
      vertex -3.73325 -18.6591 2.28509e-15
      vertex -24 -24 2.93915e-15
      vertex -3.52881 -19.1327 2.34308e-15
    endloop
  endfacet
  facet normal 0 1.22465e-16 1
    outer loop
      vertex 0.154419 -21.3412 2.61354e-15
      vertex -24 -24 2.93915e-15
      vertex 24 -24 2.93915e-15
    endloop
  endfacet
  facet normal 1.60163e-21 1.22451e-16 1
    outer loop
      vertex -0.373932 -21.3115 2.6099e-15
      vertex -24 -24 2.93915e-15
      vertex -0.336548 -21.3162 2.61048e-15
    endloop
  endfacet
  facet normal -8.35244e-23 1.22465e-16 1
    outer loop
      vertex -0.838303 -21.2367 2.60074e-15
      vertex -24 -24 2.93915e-15
      vertex -0.373932 -21.3115 2.6099e-15
    endloop
  endfacet
  facet normal 1.8477e-23 1.22465e-16 1
    outer loop
      vertex -1.31253 -21.1026 2.58432e-15
      vertex -24 -24 2.93915e-15
      vertex -0.838303 -21.2367 2.60074e-15
    endloop
  endfacet
  facet normal -3.50627e-23 1.22465e-16 1
    outer loop
      vertex -1.75871 -20.9142 2.56125e-15
      vertex -24 -24 2.93915e-15
      vertex -1.31253 -21.1026 2.58432e-15
    endloop
  endfacet
  facet normal 6.20724e-24 1.22465e-16 1
    outer loop
      vertex -2.17625 -20.6716 2.53154e-15
      vertex -24 -24 2.93915e-15
      vertex -1.75871 -20.9142 2.56125e-15
    endloop
  endfacet
  facet normal 2.06948e-23 1.22465e-16 1
    outer loop
      vertex -2.56465 -20.3751 2.49523e-15
      vertex -24 -24 2.93915e-15
      vertex -2.17625 -20.6716 2.53154e-15
    endloop
  endfacet
  facet normal -2.07319e-23 1.22465e-16 1
    outer loop
      vertex -2.92343 -20.0251 2.45237e-15
      vertex -24 -24 2.93915e-15
      vertex -2.56465 -20.3751 2.49523e-15
    endloop
  endfacet
  facet normal 2.03893e-23 1.22465e-16 1
    outer loop
      vertex -3.24272 -19.6223 2.40304e-15
      vertex -24 -24 2.93915e-15
      vertex -2.92343 -20.0251 2.45237e-15
    endloop
  endfacet
  facet normal 1.25526e-22 1.22464e-16 1
    outer loop
      vertex -3.26291 -19.5905 2.39914e-15
      vertex -24 -24 2.93915e-15
      vertex -3.24272 -19.6223 2.40304e-15
    endloop
  endfacet
  facet normal 2.91614e-23 1.22465e-16 1
    outer loop
      vertex -3.51276 -19.1668 2.34726e-15
      vertex -24 -24 2.93915e-15
      vertex -3.26291 -19.5905 2.39914e-15
    endloop
  endfacet
  facet normal -6.55849e-23 1.22465e-16 1
    outer loop
      vertex -3.52881 -19.1327 2.34308e-15
      vertex -24 -24 2.93915e-15
      vertex -3.51276 -19.1668 2.34726e-15
    endloop
  endfacet
  facet normal 1 0 0
    outer loop
      vertex 25 -25 23.2
      vertex 25 25 -1
      vertex 25 25 23.2
    endloop
  endfacet
  facet normal 1 0 0
    outer loop
      vertex 25 25 -1
      vertex 25 -25 23.2
      vertex 25 -25 -1
    endloop
  endfacet
  facet normal 0 -1 0
    outer loop
      vertex -25 -25 -1
      vertex 25 -25 23.2
      vertex -25 -25 23.2
    endloop
  endfacet
  facet normal 0 -1 -0
    outer loop
      vertex 25 -25 23.2
      vertex -25 -25 -1
      vertex 25 -25 -1
    endloop
  endfacet
  facet normal 0 1 -0
    outer loop
      vertex 25 25 -1
      vertex -25 25 23.2
      vertex 25 25 23.2
    endloop
  endfacet
  facet normal 0 1 0
    outer loop
      vertex -25 25 23.2
      vertex 25 25 -1
      vertex -25 25 -1
    endloop
  endfacet
  facet normal 1 0 0
    outer loop
      vertex -24 -24 23.2
      vertex -24 24 -2.93915e-15
      vertex -24 24 23.2
    endloop
  endfacet
  facet normal 1 0 0
    outer loop
      vertex -24 24 -2.93915e-15
      vertex -24 -24 23.2
      vertex -24 -24 2.93915e-15
    endloop
  endfacet
  facet normal -1 0 0
    outer loop
      vertex 24 -24 2.93915e-15
      vertex 24 24 23.2
      vertex 24 24 -2.93915e-15
    endloop
  endfacet
  facet normal -1 -0 0
    outer loop
      vertex 24 24 23.2
      vertex 24 -24 2.93915e-15
      vertex 24 -24 23.2
    endloop
  endfacet
  facet normal 0 1 -0
    outer loop
      vertex 24 -24 2.93915e-15
      vertex -24 -24 23.2
      vertex 24 -24 23.2
    endloop
  endfacet
  facet normal 0 1 0
    outer loop
      vertex -24 -24 23.2
      vertex 24 -24 2.93915e-15
      vertex -24 -24 2.93915e-15
    endloop
  endfacet
  facet normal 0 -1 0
    outer loop
      vertex -24 24 -2.93915e-15
      vertex 24 24 23.2
      vertex -24 24 23.2
    endloop
  endfacet
  facet normal 0 -1 -0
    outer loop
      vertex 24 24 23.2
      vertex -24 24 -2.93915e-15
      vertex 24 24 -2.93915e-15
    endloop
  endfacet
  facet normal 0 0 -1
    outer loop
      vertex 4.54623 15.1972 -1
      vertex 25 -25 -1
      vertex 4.54623 -16.1557 -1
    endloop
  endfacet
  facet normal 0 0 -1
    outer loop
      vertex 25 -25 -1
      vertex 4.52324 -16.8357 -1
      vertex 4.54623 -16.1557 -1
    endloop
  endfacet
  facet normal 0 0 -1
    outer loop
      vertex 25 -25 -1
      vertex 4.52087 -16.8733 -1
      vertex 4.52324 -16.8357 -1
    endloop
  endfacet
  facet normal 0 0 -1
    outer loop
      vertex 25 -25 -1
      vertex 4.45187 -17.5018 -1
      vertex 4.52087 -16.8733 -1
    endloop
  endfacet
  facet normal 0 0 -1
    outer loop
      vertex 25 -25 -1
      vertex 4.32982 -18.1157 -1
      vertex 4.45187 -17.5018 -1
    endloop
  endfacet
  facet normal 0 0 -1
    outer loop
      vertex 25 -25 -1
      vertex 4.15718 -18.6769 -1
      vertex 4.32982 -18.1157 -1
    endloop
  endfacet
  facet normal 0 0 -1
    outer loop
      vertex 25 -25 -1
      vertex 3.93413 -19.185 -1
      vertex 4.15718 -18.6769 -1
    endloop
  endfacet
  facet normal 0 0 -1
    outer loop
      vertex 25 -25 -1
      vertex 3.66093 -19.6392 -1
      vertex 3.93413 -19.185 -1
    endloop
  endfacet
  facet normal 0 0 -1
    outer loop
      vertex 25 -25 -1
      vertex 3.33794 -20.0391 -1
      vertex 3.66093 -19.6392 -1
    endloop
  endfacet
  facet normal 0 0 -1
    outer loop
      vertex 25 -25 -1
      vertex 2.97435 -20.3854 -1
      vertex 3.33794 -20.0391 -1
    endloop
  endfacet
  facet normal 0 0 -1
    outer loop
      vertex 25 -25 -1
      vertex 2.5795 -20.6787 -1
      vertex 2.97435 -20.3854 -1
    endloop
  endfacet
  facet normal 0 0 -1
    outer loop
      vertex 25 -25 -1
      vertex 2.15387 -20.9187 -1
      vertex 2.5795 -20.6787 -1
    endloop
  endfacet
  facet normal 0 0 -1
    outer loop
      vertex 25 -25 -1
      vertex 1.69798 -21.1052 -1
      vertex 2.15387 -20.9187 -1
    endloop
  endfacet
  facet normal 0 0 -1
    outer loop
      vertex 25 -25 -1
      vertex 1.2124 -21.2378 -1
      vertex 1.69798 -21.1052 -1
    endloop
  endfacet
  facet normal 0 0 -1
    outer loop
      vertex 25 -25 -1
      vertex 0.697662 -21.3165 -1
      vertex 1.2124 -21.2378 -1
    endloop
  endfacet
  facet normal 0 0 -1
    outer loop
      vertex 25 -25 -1
      vertex 0.192078 -21.3412 -1
      vertex 0.697662 -21.3165 -1
    endloop
  endfacet
  facet normal 0 0 -1
    outer loop
      vertex 25 -25 -1
      vertex 0.154419 -21.3412 -1
      vertex 0.192078 -21.3412 -1
    endloop
  endfacet
  facet normal 0 0 -1
    outer loop
      vertex -25 -25 -1
      vertex 0.154419 -21.3412 -1
      vertex 25 -25 -1
    endloop
  endfacet
  facet normal -0 0 -1
    outer loop
      vertex 0.154419 -21.3412 -1
      vertex -25 -25 -1
      vertex -0.336548 -21.3162 -1
    endloop
  endfacet
  facet normal -0 0 -1
    outer loop
      vertex -4.11772 -16.1557 -1
      vertex -25 -25 -1
      vertex -4.11772 15.1972 -1
    endloop
  endfacet
  facet normal -0 0 -1
    outer loop
      vertex -4.09502 -16.8288 -1
      vertex -25 -25 -1
      vertex -4.11772 -16.1557 -1
    endloop
  endfacet
  facet normal -0 0 -1
    outer loop
      vertex -4.09265 -16.8664 -1
      vertex -25 -25 -1
      vertex -4.09502 -16.8288 -1
    endloop
  endfacet
  facet normal -0 0 -1
    outer loop
      vertex -4.02451 -17.4896 -1
      vertex -25 -25 -1
      vertex -4.09265 -16.8664 -1
    endloop
  endfacet
  facet normal -0 0 -1
    outer loop
      vertex -3.90388 -18.0999 -1
      vertex -25 -25 -1
      vertex -4.02451 -17.4896 -1
    endloop
  endfacet
  facet normal -0 0 -1
    outer loop
      vertex -3.73325 -18.6591 -1
      vertex -25 -25 -1
      vertex -3.90388 -18.0999 -1
    endloop
  endfacet
  facet normal -0 0 -1
    outer loop
      vertex -3.52881 -19.1327 -1
      vertex -25 -25 -1
      vertex -3.73325 -18.6591 -1
    endloop
  endfacet
  facet normal -0 0 -1
    outer loop
      vertex -3.51276 -19.1668 -1
      vertex -25 -25 -1
      vertex -3.52881 -19.1327 -1
    endloop
  endfacet
  facet normal -0 0 -1
    outer loop
      vertex -3.26291 -19.5905 -1
      vertex -25 -25 -1
      vertex -3.51276 -19.1668 -1
    endloop
  endfacet
  facet normal -0 0 -1
    outer loop
      vertex -3.24272 -19.6223 -1
      vertex -25 -25 -1
      vertex -3.26291 -19.5905 -1
    endloop
  endfacet
  facet normal -0 0 -1
    outer loop
      vertex -2.92343 -20.0251 -1
      vertex -25 -25 -1
      vertex -3.24272 -19.6223 -1
    endloop
  endfacet
  facet normal -0 0 -1
    outer loop
      vertex -2.56465 -20.3751 -1
      vertex -25 -25 -1
      vertex -2.92343 -20.0251 -1
    endloop
  endfacet
  facet normal -0 0 -1
    outer loop
      vertex -2.17625 -20.6716 -1
      vertex -25 -25 -1
      vertex -2.56465 -20.3751 -1
    endloop
  endfacet
  facet normal -0 0 -1
    outer loop
      vertex -1.75871 -20.9142 -1
      vertex -25 -25 -1
      vertex -2.17625 -20.6716 -1
    endloop
  endfacet
  facet normal -0 0 -1
    outer loop
      vertex -1.31253 -21.1026 -1
      vertex -25 -25 -1
      vertex -1.75871 -20.9142 -1
    endloop
  endfacet
  facet normal -0 0 -1
    outer loop
      vertex -0.838303 -21.2367 -1
      vertex -25 -25 -1
      vertex -1.31253 -21.1026 -1
    endloop
  endfacet
  facet normal -0 0 -1
    outer loop
      vertex -0.373932 -21.3115 -1
      vertex -25 -25 -1
      vertex -0.838303 -21.2367 -1
    endloop
  endfacet
  facet normal -0 0 -1
    outer loop
      vertex -0.336548 -21.3162 -1
      vertex -25 -25 -1
      vertex -0.373932 -21.3115 -1
    endloop
  endfacet
  facet normal 0 0 -1
    outer loop
      vertex 25 -25 -1
      vertex 4.54623 15.1972 -1
      vertex 25 25 -1
    endloop
  endfacet
  facet normal 0 0 -1
    outer loop
      vertex 4.52324 15.8775 -1
      vertex 25 25 -1
      vertex 4.54623 15.1972 -1
    endloop
  endfacet
  facet normal 0 0 -1
    outer loop
      vertex 4.52087 15.9151 -1
      vertex 25 25 -1
      vertex 4.52324 15.8775 -1
    endloop
  endfacet
  facet normal 0 0 -1
    outer loop
      vertex 4.45187 16.5444 -1
      vertex 25 25 -1
      vertex 4.52087 15.9151 -1
    endloop
  endfacet
  facet normal 0 0 -1
    outer loop
      vertex 4.32982 17.1598 -1
      vertex 25 25 -1
      vertex 4.45187 16.5444 -1
    endloop
  endfacet
  facet normal 0 0 -1
    outer loop
      vertex 4.15718 17.723 -1
      vertex 25 25 -1
      vertex 4.32982 17.1598 -1
    endloop
  endfacet
  facet normal 0 0 -1
    outer loop
      vertex 3.95018 18.1995 -1
      vertex 25 25 -1
      vertex 4.15718 17.723 -1
    endloop
  endfacet
  facet normal 0 0 -1
    outer loop
      vertex 3.93413 18.2336 -1
      vertex 25 25 -1
      vertex 3.95018 18.1995 -1
    endloop
  endfacet
  facet normal 0 0 -1
    outer loop
      vertex 3.68112 18.6591 -1
      vertex 25 25 -1
      vertex 3.93413 18.2336 -1
    endloop
  endfacet
  facet normal 0 0 -1
    outer loop
      vertex 3.66093 18.691 -1
      vertex 25 25 -1
      vertex 3.68112 18.6591 -1
    endloop
  endfacet
  facet normal 0 0 -1
    outer loop
      vertex 3.33794 19.0946 -1
      vertex 25 25 -1
      vertex 3.66093 18.691 -1
    endloop
  endfacet
  facet normal 0 0 -1
    outer loop
      vertex 2.97435 19.4443 -1
      vertex 25 25 -1
      vertex 3.33794 19.0946 -1
    endloop
  endfacet
  facet normal 0 0 -1
    outer loop
      vertex 2.5795 19.7406 -1
      vertex 25 25 -1
      vertex 2.97435 19.4443 -1
    endloop
  endfacet
  facet normal 0 0 -1
    outer loop
      vertex 2.15387 19.983 -1
      vertex 25 25 -1
      vertex 2.5795 19.7406 -1
    endloop
  endfacet
  facet normal 0 0 -1
    outer loop
      vertex 1.69798 20.1713 -1
      vertex 25 25 -1
      vertex 2.15387 19.983 -1
    endloop
  endfacet
  facet normal 0 0 -1
    outer loop
      vertex 1.2124 20.3053 -1
      vertex 25 25 -1
      vertex 1.69798 20.1713 -1
    endloop
  endfacet
  facet normal 0 0 -1
    outer loop
      vertex 0.735046 20.38 -1
      vertex 25 25 -1
      vertex 1.2124 20.3053 -1
    endloop
  endfacet
  facet normal 0 0 -1
    outer loop
      vertex 0.697662 20.3847 -1
      vertex 25 25 -1
      vertex 0.735046 20.38 -1
    endloop
  endfacet
  facet normal 0 0 -1
    outer loop
      vertex 0.192078 20.4097 -1
      vertex 25 25 -1
      vertex 0.697662 20.3847 -1
    endloop
  endfacet
  facet normal 0 0 -1
    outer loop
      vertex 0.154419 20.4097 -1
      vertex 25 25 -1
      vertex 0.192078 20.4097 -1
    endloop
  endfacet
  facet normal 0 0 -1
    outer loop
      vertex -25 25 -1
      vertex 0.154419 20.4097 -1
      vertex -0.329407 20.3844 -1
    endloop
  endfacet
  facet normal 0 0 -1
    outer loop
      vertex -25 25 -1
      vertex -0.329407 20.3844 -1
      vertex -0.366791 20.3797 -1
    endloop
  endfacet
  facet normal 0 0 -1
    outer loop
      vertex -25 25 -1
      vertex -0.366791 20.3797 -1
      vertex -0.825729 20.3041 -1
    endloop
  endfacet
  facet normal 0 0 -1
    outer loop
      vertex -25 25 -1
      vertex -4.11772 15.1972 -1
      vertex -25 -25 -1
    endloop
  endfacet
  facet normal 0 0 -1
    outer loop
      vertex -4.11772 15.1972 -1
      vertex -25 25 -1
      vertex -4.09473 15.8706 -1
    endloop
  endfacet
  facet normal 0 0 -1
    outer loop
      vertex -4.09473 15.8706 -1
      vertex -25 25 -1
      vertex -4.09236 15.9082 -1
    endloop
  endfacet
  facet normal 0 0 -1
    outer loop
      vertex -4.09236 15.9082 -1
      vertex -25 25 -1
      vertex -4.02336 16.5322 -1
    endloop
  endfacet
  facet normal 0 0 -1
    outer loop
      vertex -4.02336 16.5322 -1
      vertex -25 25 -1
      vertex -3.90131 17.144 -1
    endloop
  endfacet
  facet normal 0 0 -1
    outer loop
      vertex -3.90131 17.144 -1
      vertex -25 25 -1
      vertex -3.72867 17.7052 -1
    endloop
  endfacet
  facet normal 0 0 -1
    outer loop
      vertex -3.72867 17.7052 -1
      vertex -25 25 -1
      vertex -3.52167 18.1814 -1
    endloop
  endfacet
  facet normal 0 0 -1
    outer loop
      vertex 0.154419 20.4097 -1
      vertex -25 25 -1
      vertex 25 25 -1
    endloop
  endfacet
  facet normal 0 0 -1
    outer loop
      vertex -0.862213 20.2947 -1
      vertex -25 25 -1
      vertex -0.825729 20.3041 -1
    endloop
  endfacet
  facet normal 0 0 -1
    outer loop
      vertex -1.29625 20.1687 -1
      vertex -25 25 -1
      vertex -0.862213 20.2947 -1
    endloop
  endfacet
  facet normal 0 0 -1
    outer loop
      vertex -1.33128 20.1548 -1
      vertex -25 25 -1
      vertex -1.29625 20.1687 -1
    endloop
  endfacet
  facet normal 0 0 -1
    outer loop
      vertex -1.74043 19.9784 -1
      vertex -25 25 -1
      vertex -1.33128 20.1548 -1
    endloop
  endfacet
  facet normal 0 0 -1
    outer loop
      vertex -1.77344 19.9603 -1
      vertex -25 25 -1
      vertex -1.74043 19.9784 -1
    endloop
  endfacet
  facet normal 0 0 -1
    outer loop
      vertex -2.15768 19.7334 -1
      vertex -25 25 -1
      vertex -1.77344 19.9603 -1
    endloop
  endfacet
  facet normal 0 0 -1
    outer loop
      vertex -2.54752 19.434 -1
      vertex -25 25 -1
      vertex -2.15768 19.7334 -1
    endloop
  endfacet
  facet normal 0 0 -1
    outer loop
      vertex -2.90942 19.0806 -1
      vertex -25 25 -1
      vertex -2.54752 19.434 -1
    endloop
  endfacet
  facet normal 0 0 -1
    outer loop
      vertex -3.23242 18.6741 -1
      vertex -25 25 -1
      vertex -2.90942 19.0806 -1
    endloop
  endfacet
  facet normal 0 0 -1
    outer loop
      vertex -3.25261 18.6422 -1
      vertex -25 25 -1
      vertex -3.23242 18.6741 -1
    endloop
  endfacet
  facet normal 0 0 -1
    outer loop
      vertex -3.50562 18.2154 -1
      vertex -25 25 -1
      vertex -3.25261 18.6422 -1
    endloop
  endfacet
  facet normal 0 0 -1
    outer loop
      vertex -3.52167 18.1814 -1
      vertex -25 25 -1
      vertex -3.50562 18.2154 -1
    endloop
  endfacet
  facet normal 0.0520298 -0.998646 0
    outer loop
      vertex -0.329407 20.3844 -1
      vertex 0.154419 20.4097 -2.49946e-15
      vertex -0.329407 20.3844 -2.49637e-15
    endloop
  endfacet
  facet normal 0.0520298 -0.998646 0
    outer loop
      vertex 0.154419 20.4097 -2.49946e-15
      vertex -0.329407 20.3844 -1
      vertex 0.154419 20.4097 -1
    endloop
  endfacet
  facet normal 0.12553 -0.99209 0
    outer loop
      vertex -0.366791 20.3797 -1
      vertex -0.329407 20.3844 -2.49637e-15
      vertex -0.366791 20.3797 -2.4958e-15
    endloop
  endfacet
  facet normal 0.12553 -0.99209 0
    outer loop
      vertex -0.329407 20.3844 -2.49637e-15
      vertex -0.366791 20.3797 -1
      vertex -0.329407 20.3844 -1
    endloop
  endfacet
  facet normal 0.162553 -0.9867 0
    outer loop
      vertex -0.825729 20.3041 -1
      vertex -0.366791 20.3797 -2.4958e-15
      vertex -0.825729 20.3041 -2.48654e-15
    endloop
  endfacet
  facet normal 0.162553 -0.9867 0
    outer loop
      vertex -0.366791 20.3797 -2.4958e-15
      vertex -0.825729 20.3041 -1
      vertex -0.366791 20.3797 -1
    endloop
  endfacet
  facet normal 0.248726 -0.968574 0
    outer loop
      vertex -0.862213 20.2947 -1
      vertex -0.825729 20.3041 -2.48654e-15
      vertex -0.862213 20.2947 -2.48539e-15
    endloop
  endfacet
  facet normal 0.248726 -0.968574 0
    outer loop
      vertex -0.825729 20.3041 -2.48654e-15
      vertex -0.862213 20.2947 -1
      vertex -0.825729 20.3041 -1
    endloop
  endfacet
  facet normal 0.278834 -0.960339 0
    outer loop
      vertex -1.29625 20.1687 -1
      vertex -0.862213 20.2947 -2.48539e-15
      vertex -1.29625 20.1687 -2.46996e-15
    endloop
  endfacet
  facet normal 0.278834 -0.960339 0
    outer loop
      vertex -0.862213 20.2947 -2.48539e-15
      vertex -1.29625 20.1687 -1
      vertex -0.862213 20.2947 -1
    endloop
  endfacet
  facet normal 0.368107 -0.929784 0
    outer loop
      vertex -1.33128 20.1548 -1
      vertex -1.29625 20.1687 -2.46996e-15
      vertex -1.33128 20.1548 -2.46826e-15
    endloop
  endfacet
  facet normal 0.368107 -0.929784 0
    outer loop
      vertex -1.29625 20.1687 -2.46996e-15
      vertex -1.33128 20.1548 -1
      vertex -1.29625 20.1687 -1
    endloop
  endfacet
  facet normal 0.395981 -0.918259 0
    outer loop
      vertex -1.74043 19.9784 -1
      vertex -1.33128 20.1548 -2.46826e-15
      vertex -1.74043 19.9784 -2.44665e-15
    endloop
  endfacet
  facet normal 0.395981 -0.918259 0
    outer loop
      vertex -1.33128 20.1548 -2.46826e-15
      vertex -1.74043 19.9784 -1
      vertex -1.33128 20.1548 -1
    endloop
  endfacet
  facet normal 0.481717 -0.876327 0
    outer loop
      vertex -1.77344 19.9603 -1
      vertex -1.74043 19.9784 -2.44665e-15
      vertex -1.77344 19.9603 -2.44443e-15
    endloop
  endfacet
  facet normal 0.481717 -0.876327 0
    outer loop
      vertex -1.74043 19.9784 -2.44665e-15
      vertex -1.77344 19.9603 -1
      vertex -1.74043 19.9784 -1
    endloop
  endfacet
  facet normal 0.508368 -0.86114 0
    outer loop
      vertex -2.15768 19.7334 -1
      vertex -1.77344 19.9603 -2.44443e-15
      vertex -2.15768 19.7334 -2.41665e-15
    endloop
  endfacet
  facet normal 0.508368 -0.86114 0
    outer loop
      vertex -1.77344 19.9603 -2.44443e-15
      vertex -2.15768 19.7334 -1
      vertex -1.77344 19.9603 -1
    endloop
  endfacet
  facet normal 0.6091 -0.793093 0
    outer loop
      vertex -2.54752 19.434 -1
      vertex -2.15768 19.7334 -2.41665e-15
      vertex -2.54752 19.434 -2.37998e-15
    endloop
  endfacet
  facet normal 0.6091 -0.793093 0
    outer loop
      vertex -2.15768 19.7334 -2.41665e-15
      vertex -2.54752 19.434 -1
      vertex -2.15768 19.7334 -1
    endloop
  endfacet
  facet normal 0.698687 -0.715428 0
    outer loop
      vertex -2.90942 19.0806 -1
      vertex -2.54752 19.434 -2.37998e-15
      vertex -2.90942 19.0806 -2.3367e-15
    endloop
  endfacet
  facet normal 0.698687 -0.715428 0
    outer loop
      vertex -2.54752 19.434 -2.37998e-15
      vertex -2.90942 19.0806 -1
      vertex -2.54752 19.434 -1
    endloop
  endfacet
  facet normal 0.782963 -0.622068 0
    outer loop
      vertex -3.23242 18.6741 -2.28691e-15
      vertex -2.90942 19.0806 -1
      vertex -2.90942 19.0806 -2.3367e-15
    endloop
  endfacet
  facet normal 0.782963 -0.622068 0
    outer loop
      vertex -2.90942 19.0806 -1
      vertex -3.23242 18.6741 -2.28691e-15
      vertex -3.23242 18.6741 -1
    endloop
  endfacet
  facet normal 0.844361 -0.535774 0
    outer loop
      vertex -3.25261 18.6422 -2.28302e-15
      vertex -3.23242 18.6741 -1
      vertex -3.23242 18.6741 -2.28691e-15
    endloop
  endfacet
  facet normal 0.844361 -0.535774 0
    outer loop
      vertex -3.23242 18.6741 -1
      vertex -3.25261 18.6422 -2.28302e-15
      vertex -3.25261 18.6422 -1
    endloop
  endfacet
  facet normal 0.860216 -0.50993 0
    outer loop
      vertex -3.50562 18.2154 -2.23075e-15
      vertex -3.25261 18.6422 -1
      vertex -3.25261 18.6422 -2.28302e-15
    endloop
  endfacet
  facet normal 0.860216 -0.50993 0
    outer loop
      vertex -3.25261 18.6422 -1
      vertex -3.50562 18.2154 -2.23075e-15
      vertex -3.50562 18.2154 -1
    endloop
  endfacet
  facet normal 0.904709 -0.426031 0
    outer loop
      vertex -3.52167 18.1814 -2.22657e-15
      vertex -3.50562 18.2154 -1
      vertex -3.50562 18.2154 -2.23075e-15
    endloop
  endfacet
  facet normal 0.904709 -0.426031 0
    outer loop
      vertex -3.50562 18.2154 -1
      vertex -3.52167 18.1814 -2.22657e-15
      vertex -3.52167 18.1814 -1
    endloop
  endfacet
  facet normal 0.91708 -0.398702 0
    outer loop
      vertex -3.72867 17.7052 -2.16826e-15
      vertex -3.52167 18.1814 -1
      vertex -3.52167 18.1814 -2.22657e-15
    endloop
  endfacet
  facet normal 0.91708 -0.398702 0
    outer loop
      vertex -3.52167 18.1814 -1
      vertex -3.72867 17.7052 -2.16826e-15
      vertex -3.72867 17.7052 -1
    endloop
  endfacet
  facet normal 0.955805 -0.294002 0
    outer loop
      vertex -3.90131 17.144 -2.09953e-15
      vertex -3.72867 17.7052 -1
      vertex -3.72867 17.7052 -2.16826e-15
    endloop
  endfacet
  facet normal 0.955805 -0.294002 0
    outer loop
      vertex -3.72867 17.7052 -1
      vertex -3.90131 17.144 -2.09953e-15
      vertex -3.90131 17.144 -1
    endloop
  endfacet
  facet normal 0.980671 -0.195665 0
    outer loop
      vertex -4.02336 16.5322 -2.02461e-15
      vertex -3.90131 17.144 -1
      vertex -3.90131 17.144 -2.09953e-15
    endloop
  endfacet
  facet normal 0.980671 -0.195665 0
    outer loop
      vertex -3.90131 17.144 -1
      vertex -4.02336 16.5322 -2.02461e-15
      vertex -4.02336 16.5322 -1
    endloop
  endfacet
  facet normal 0.993943 -0.109901 0
    outer loop
      vertex -4.09236 15.9082 -1.94819e-15
      vertex -4.02336 16.5322 -1
      vertex -4.02336 16.5322 -2.02461e-15
    endloop
  endfacet
  facet normal 0.993943 -0.109901 0
    outer loop
      vertex -4.02336 16.5322 -1
      vertex -4.09236 15.9082 -1.94819e-15
      vertex -4.09236 15.9082 -1
    endloop
  endfacet
  facet normal 0.998027 -0.0627817 0
    outer loop
      vertex -4.09473 15.8706 -1.94359e-15
      vertex -4.09236 15.9082 -1
      vertex -4.09236 15.9082 -1.94819e-15
    endloop
  endfacet
  facet normal 0.998027 -0.0627817 0
    outer loop
      vertex -4.09236 15.9082 -1
      vertex -4.09473 15.8706 -1.94359e-15
      vertex -4.09473 15.8706 -1
    endloop
  endfacet
  facet normal 0.999417 -0.03413 0
    outer loop
      vertex -4.11772 15.1972 -1.86112e-15
      vertex -4.09473 15.8706 -1
      vertex -4.09473 15.8706 -1.94359e-15
    endloop
  endfacet
  facet normal 0.999417 -0.03413 0
    outer loop
      vertex -4.09473 15.8706 -1
      vertex -4.11772 15.1972 -1.86112e-15
      vertex -4.11772 15.1972 -1
    endloop
  endfacet
  facet normal 1 0 0
    outer loop
      vertex -4.11772 -16.1557 1.97851e-15
      vertex -4.11772 15.1972 -1
      vertex -4.11772 15.1972 -1.86112e-15
    endloop
  endfacet
  facet normal 1 0 0
    outer loop
      vertex -4.11772 15.1972 -1
      vertex -4.11772 -16.1557 1.97851e-15
      vertex -4.11772 -16.1557 -1
    endloop
  endfacet
  facet normal 0.999431 0.0337154 0
    outer loop
      vertex -4.09502 -16.8288 2.06093e-15
      vertex -4.11772 -16.1557 -1
      vertex -4.11772 -16.1557 1.97851e-15
    endloop
  endfacet
  facet normal 0.999431 0.0337154 0
    outer loop
      vertex -4.11772 -16.1557 -1
      vertex -4.09502 -16.8288 2.06093e-15
      vertex -4.09502 -16.8288 -1
    endloop
  endfacet
  facet normal 0.998027 0.0627817 0
    outer loop
      vertex -4.09265 -16.8664 2.06554e-15
      vertex -4.09502 -16.8288 -1
      vertex -4.09502 -16.8288 2.06093e-15
    endloop
  endfacet
  facet normal 0.998027 0.0627817 0
    outer loop
      vertex -4.09502 -16.8288 -1
      vertex -4.09265 -16.8664 2.06554e-15
      vertex -4.09265 -16.8664 -1
    endloop
  endfacet
  facet normal 0.994074 0.108703 0
    outer loop
      vertex -4.02451 -17.4896 2.14186e-15
      vertex -4.09265 -16.8664 -1
      vertex -4.09265 -16.8664 2.06554e-15
    endloop
  endfacet
  facet normal 0.994074 0.108703 0
    outer loop
      vertex -4.09265 -16.8664 -1
      vertex -4.02451 -17.4896 2.14186e-15
      vertex -4.02451 -17.4896 -1
    endloop
  endfacet
  facet normal 0.981024 0.193885 0
    outer loop
      vertex -3.90388 -18.0999 2.2166e-15
      vertex -4.02451 -17.4896 -1
      vertex -4.02451 -17.4896 2.14186e-15
    endloop
  endfacet
  facet normal 0.981024 0.193885 0
    outer loop
      vertex -4.02451 -17.4896 -1
      vertex -3.90388 -18.0999 2.2166e-15
      vertex -3.90388 -18.0999 -1
    endloop
  endfacet
  facet normal 0.956468 0.291839 0
    outer loop
      vertex -3.73325 -18.6591 2.28509e-15
      vertex -3.90388 -18.0999 -1
      vertex -3.90388 -18.0999 2.2166e-15
    endloop
  endfacet
  facet normal 0.956468 0.291839 0
    outer loop
      vertex -3.90388 -18.0999 -1
      vertex -3.73325 -18.6591 2.28509e-15
      vertex -3.73325 -18.6591 -1
    endloop
  endfacet
  facet normal 0.9181 0.396349 0
    outer loop
      vertex -3.52881 -19.1327 2.34308e-15
      vertex -3.73325 -18.6591 -1
      vertex -3.73325 -18.6591 2.28509e-15
    endloop
  endfacet
  facet normal 0.9181 0.396349 0
    outer loop
      vertex -3.73325 -18.6591 -1
      vertex -3.52881 -19.1327 2.34308e-15
      vertex -3.52881 -19.1327 -1
    endloop
  endfacet
  facet normal 0.904709 0.426031 0
    outer loop
      vertex -3.51276 -19.1668 2.34726e-15
      vertex -3.52881 -19.1327 -1
      vertex -3.52881 -19.1327 2.34308e-15
    endloop
  endfacet
  facet normal 0.904709 0.426031 0
    outer loop
      vertex -3.52881 -19.1327 -1
      vertex -3.51276 -19.1668 2.34726e-15
      vertex -3.51276 -19.1668 -1
    endloop
  endfacet
  facet normal 0.861377 0.507966 0
    outer loop
      vertex -3.26291 -19.5905 2.39914e-15
      vertex -3.51276 -19.1668 -1
      vertex -3.51276 -19.1668 2.34726e-15
    endloop
  endfacet
  facet normal 0.861377 0.507966 0
    outer loop
      vertex -3.51276 -19.1668 -1
      vertex -3.26291 -19.5905 2.39914e-15
      vertex -3.26291 -19.5905 -1
    endloop
  endfacet
  facet normal 0.844361 0.535774 0
    outer loop
      vertex -3.24272 -19.6223 2.40304e-15
      vertex -3.26291 -19.5905 -1
      vertex -3.26291 -19.5905 2.39914e-15
    endloop
  endfacet
  facet normal 0.844361 0.535774 0
    outer loop
      vertex -3.26291 -19.5905 -1
      vertex -3.24272 -19.6223 2.40304e-15
      vertex -3.24272 -19.6223 -1
    endloop
  endfacet
  facet normal 0.783673 0.621173 0
    outer loop
      vertex -2.92343 -20.0251 2.45237e-15
      vertex -3.24272 -19.6223 -1
      vertex -3.24272 -19.6223 2.40304e-15
    endloop
  endfacet
  facet normal 0.783673 0.621173 0
    outer loop
      vertex -3.24272 -19.6223 -1
      vertex -2.92343 -20.0251 2.45237e-15
      vertex -2.92343 -20.0251 -1
    endloop
  endfacet
  facet normal 0.698285 0.71582 -0
    outer loop
      vertex -2.56465 -20.3751 -1
      vertex -2.92343 -20.0251 2.45237e-15
      vertex -2.56465 -20.3751 2.49523e-15
    endloop
  endfacet
  facet normal 0.698285 0.71582 0
    outer loop
      vertex -2.92343 -20.0251 2.45237e-15
      vertex -2.56465 -20.3751 -1
      vertex -2.92343 -20.0251 -1
    endloop
  endfacet
  facet normal 0.606764 0.794882 -0
    outer loop
      vertex -2.17625 -20.6716 -1
      vertex -2.56465 -20.3751 2.49523e-15
      vertex -2.17625 -20.6716 2.53154e-15
    endloop
  endfacet
  facet normal 0.606764 0.794882 0
    outer loop
      vertex -2.56465 -20.3751 2.49523e-15
      vertex -2.17625 -20.6716 -1
      vertex -2.56465 -20.3751 -1
    endloop
  endfacet
  facet normal 0.502354 0.864662 -0
    outer loop
      vertex -1.75871 -20.9142 -1
      vertex -2.17625 -20.6716 2.53154e-15
      vertex -1.75871 -20.9142 2.56125e-15
    endloop
  endfacet
  facet normal 0.502354 0.864662 0
    outer loop
      vertex -2.17625 -20.6716 2.53154e-15
      vertex -1.75871 -20.9142 -1
      vertex -2.17625 -20.6716 -1
    endloop
  endfacet
  facet normal 0.389074 0.921207 -0
    outer loop
      vertex -1.31253 -21.1026 -1
      vertex -1.75871 -20.9142 2.56125e-15
      vertex -1.31253 -21.1026 2.58432e-15
    endloop
  endfacet
  facet normal 0.389074 0.921207 0
    outer loop
      vertex -1.75871 -20.9142 2.56125e-15
      vertex -1.31253 -21.1026 -1
      vertex -1.75871 -20.9142 -1
    endloop
  endfacet
  facet normal 0.272037 0.962287 -0
    outer loop
      vertex -0.838303 -21.2367 -1
      vertex -1.31253 -21.1026 2.58432e-15
      vertex -0.838303 -21.2367 2.60074e-15
    endloop
  endfacet
  facet normal 0.272037 0.962287 0
    outer loop
      vertex -1.31253 -21.1026 2.58432e-15
      vertex -0.838303 -21.2367 -1
      vertex -1.31253 -21.1026 -1
    endloop
  endfacet
  facet normal 0.159057 0.987269 -0
    outer loop
      vertex -0.373932 -21.3115 -1
      vertex -0.838303 -21.2367 2.60074e-15
      vertex -0.373932 -21.3115 2.6099e-15
    endloop
  endfacet
  facet normal 0.159057 0.987269 0
    outer loop
      vertex -0.838303 -21.2367 2.60074e-15
      vertex -0.373932 -21.3115 -1
      vertex -0.838303 -21.2367 -1
    endloop
  endfacet
  facet normal 0.12553 0.99209 -0
    outer loop
      vertex -0.336548 -21.3162 -1
      vertex -0.373932 -21.3115 2.6099e-15
      vertex -0.336548 -21.3162 2.61048e-15
    endloop
  endfacet
  facet normal 0.12553 0.99209 0
    outer loop
      vertex -0.373932 -21.3115 2.6099e-15
      vertex -0.336548 -21.3162 -1
      vertex -0.373932 -21.3115 -1
    endloop
  endfacet
  facet normal 0.0507488 0.998711 -0
    outer loop
      vertex 0.154419 -21.3412 -1
      vertex -0.336548 -21.3162 2.61048e-15
      vertex 0.154419 -21.3412 2.61354e-15
    endloop
  endfacet
  facet normal 0.0507488 0.998711 0
    outer loop
      vertex -0.336548 -21.3162 2.61048e-15
      vertex 0.154419 -21.3412 -1
      vertex -0.336548 -21.3162 -1
    endloop
  endfacet
  facet normal 0 1 -0
    outer loop
      vertex 0.192078 -21.3412 -1
      vertex 0.154419 -21.3412 2.61354e-15
      vertex 0.192078 -21.3412 2.61354e-15
    endloop
  endfacet
  facet normal 0 1 0
    outer loop
      vertex 0.154419 -21.3412 2.61354e-15
      vertex 0.192078 -21.3412 -1
      vertex 0.154419 -21.3412 -1
    endloop
  endfacet
  facet normal -0.0487138 0.998813 0
    outer loop
      vertex 0.697662 -21.3165 -1
      vertex 0.192078 -21.3412 2.61354e-15
      vertex 0.697662 -21.3165 2.61052e-15
    endloop
  endfacet
  facet normal -0.0487138 0.998813 0
    outer loop
      vertex 0.192078 -21.3412 2.61354e-15
      vertex 0.697662 -21.3165 -1
      vertex 0.192078 -21.3412 -1
    endloop
  endfacet
  facet normal -0.151117 0.988516 0
    outer loop
      vertex 1.2124 -21.2378 -1
      vertex 0.697662 -21.3165 2.61052e-15
      vertex 1.2124 -21.2378 2.60088e-15
    endloop
  endfacet
  facet normal -0.151117 0.988516 0
    outer loop
      vertex 0.697662 -21.3165 2.61052e-15
      vertex 1.2124 -21.2378 -1
      vertex 0.697662 -21.3165 -1
    endloop
  endfacet
  facet normal -0.263484 0.964664 0
    outer loop
      vertex 1.69798 -21.1052 -1
      vertex 1.2124 -21.2378 2.60088e-15
      vertex 1.69798 -21.1052 2.58464e-15
    endloop
  endfacet
  facet normal -0.263484 0.964664 0
    outer loop
      vertex 1.2124 -21.2378 2.60088e-15
      vertex 1.69798 -21.1052 -1
      vertex 1.2124 -21.2378 -1
    endloop
  endfacet
  facet normal -0.378542 0.925584 0
    outer loop
      vertex 2.15387 -20.9187 -1
      vertex 1.69798 -21.1052 2.58464e-15
      vertex 2.15387 -20.9187 2.56181e-15
    endloop
  endfacet
  facet normal -0.378542 0.925584 0
    outer loop
      vertex 1.69798 -21.1052 2.58464e-15
      vertex 2.15387 -20.9187 -1
      vertex 1.69798 -21.1052 -1
    endloop
  endfacet
  facet normal -0.491201 0.871046 0
    outer loop
      vertex 2.5795 -20.6787 -1
      vertex 2.15387 -20.9187 2.56181e-15
      vertex 2.5795 -20.6787 2.53241e-15
    endloop
  endfacet
  facet normal -0.491201 0.871046 0
    outer loop
      vertex 2.15387 -20.9187 2.56181e-15
      vertex 2.5795 -20.6787 -1
      vertex 2.15387 -20.9187 -1
    endloop
  endfacet
  facet normal -0.596346 0.802728 0
    outer loop
      vertex 2.97435 -20.3854 -1
      vertex 2.5795 -20.6787 2.53241e-15
      vertex 2.97435 -20.3854 2.49649e-15
    endloop
  endfacet
  facet normal -0.596346 0.802728 0
    outer loop
      vertex 2.5795 -20.6787 2.53241e-15
      vertex 2.97435 -20.3854 -1
      vertex 2.5795 -20.6787 -1
    endloop
  endfacet
  facet normal -0.689666 0.724128 0
    outer loop
      vertex 3.33794 -20.0391 -1
      vertex 2.97435 -20.3854 2.49649e-15
      vertex 3.33794 -20.0391 2.45408e-15
    endloop
  endfacet
  facet normal -0.689666 0.724128 0
    outer loop
      vertex 2.97435 -20.3854 2.49649e-15
      vertex 3.33794 -20.0391 -1
      vertex 2.97435 -20.3854 -1
    endloop
  endfacet
  facet normal -0.777953 0.628323 0
    outer loop
      vertex 3.33794 -20.0391 -1
      vertex 3.66093 -19.6392 2.40511e-15
      vertex 3.66093 -19.6392 -1
    endloop
  endfacet
  facet normal -0.777953 0.628323 0
    outer loop
      vertex 3.66093 -19.6392 2.40511e-15
      vertex 3.33794 -20.0391 -1
      vertex 3.33794 -20.0391 2.45408e-15
    endloop
  endfacet
  facet normal -0.856944 0.51541 0
    outer loop
      vertex 3.66093 -19.6392 -1
      vertex 3.93413 -19.185 2.34948e-15
      vertex 3.93413 -19.185 -1
    endloop
  endfacet
  facet normal -0.856944 0.51541 0
    outer loop
      vertex 3.93413 -19.185 2.34948e-15
      vertex 3.66093 -19.6392 -1
      vertex 3.66093 -19.6392 2.40511e-15
    endloop
  endfacet
  facet normal -0.915628 0.402026 0
    outer loop
      vertex 3.93413 -19.185 -1
      vertex 4.15718 -18.6769 2.28727e-15
      vertex 4.15718 -18.6769 -1
    endloop
  endfacet
  facet normal -0.915628 0.402026 0
    outer loop
      vertex 4.15718 -18.6769 2.28727e-15
      vertex 3.93413 -19.185 -1
      vertex 3.93413 -19.185 2.34948e-15
    endloop
  endfacet
  facet normal -0.955805 0.294002 0
    outer loop
      vertex 4.15718 -18.6769 -1
      vertex 4.32982 -18.1157 2.21853e-15
      vertex 4.32982 -18.1157 -1
    endloop
  endfacet
  facet normal -0.955805 0.294002 0
    outer loop
      vertex 4.32982 -18.1157 2.21853e-15
      vertex 4.15718 -18.6769 -1
      vertex 4.15718 -18.6769 2.28727e-15
    endloop
  endfacet
  facet normal -0.980805 0.194991 0
    outer loop
      vertex 4.32982 -18.1157 -1
      vertex 4.45187 -17.5018 2.14335e-15
      vertex 4.45187 -17.5018 -1
    endloop
  endfacet
  facet normal -0.980805 0.194991 0
    outer loop
      vertex 4.45187 -17.5018 2.14335e-15
      vertex 4.32982 -18.1157 -1
      vertex 4.32982 -18.1157 2.21853e-15
    endloop
  endfacet
  facet normal -0.994027 0.109139 0
    outer loop
      vertex 4.45187 -17.5018 -1
      vertex 4.52087 -16.8733 2.06638e-15
      vertex 4.52087 -16.8733 -1
    endloop
  endfacet
  facet normal -0.994027 0.109139 0
    outer loop
      vertex 4.52087 -16.8733 2.06638e-15
      vertex 4.45187 -17.5018 -1
      vertex 4.45187 -17.5018 2.14335e-15
    endloop
  endfacet
  facet normal -0.998027 0.0627817 0
    outer loop
      vertex 4.52087 -16.8733 -1
      vertex 4.52324 -16.8357 2.06178e-15
      vertex 4.52324 -16.8357 -1
    endloop
  endfacet
  facet normal -0.998027 0.0627817 0
    outer loop
      vertex 4.52324 -16.8357 2.06178e-15
      vertex 4.52087 -16.8733 -1
      vertex 4.52087 -16.8733 2.06638e-15
    endloop
  endfacet
  facet normal -0.999429 0.0337987 0
    outer loop
      vertex 4.52324 -16.8357 -1
      vertex 4.54623 -16.1557 1.97851e-15
      vertex 4.54623 -16.1557 -1
    endloop
  endfacet
  facet normal -0.999429 0.0337987 0
    outer loop
      vertex 4.54623 -16.1557 1.97851e-15
      vertex 4.52324 -16.8357 -1
      vertex 4.52324 -16.8357 2.06178e-15
    endloop
  endfacet
  facet normal -1 0 0
    outer loop
      vertex 4.54623 -16.1557 -1
      vertex 4.54623 15.1972 -1.86112e-15
      vertex 4.54623 15.1972 -1
    endloop
  endfacet
  facet normal -1 -0 0
    outer loop
      vertex 4.54623 15.1972 -1.86112e-15
      vertex 4.54623 -16.1557 -1
      vertex 4.54623 -16.1557 1.97851e-15
    endloop
  endfacet
  facet normal -0.999429 -0.0337843 0
    outer loop
      vertex 4.54623 15.1972 -1
      vertex 4.52324 15.8775 -1.94443e-15
      vertex 4.52324 15.8775 -1
    endloop
  endfacet
  facet normal -0.999429 -0.0337843 0
    outer loop
      vertex 4.52324 15.8775 -1.94443e-15
      vertex 4.54623 15.1972 -1
      vertex 4.54623 15.1972 -1.86112e-15
    endloop
  endfacet
  facet normal -0.998027 -0.0627817 0
    outer loop
      vertex 4.52324 15.8775 -1
      vertex 4.52087 15.9151 -1.94904e-15
      vertex 4.52087 15.9151 -1
    endloop
  endfacet
  facet normal -0.998027 -0.0627817 0
    outer loop
      vertex 4.52087 15.9151 -1.94904e-15
      vertex 4.52324 15.8775 -1
      vertex 4.52324 15.8775 -1.94443e-15
    endloop
  endfacet
  facet normal -0.994043 -0.108992 0
    outer loop
      vertex 4.52087 15.9151 -1
      vertex 4.45187 16.5444 -2.0261e-15
      vertex 4.45187 16.5444 -1
    endloop
  endfacet
  facet normal -0.994043 -0.108992 0
    outer loop
      vertex 4.45187 16.5444 -2.0261e-15
      vertex 4.52087 15.9151 -1
      vertex 4.52087 15.9151 -1.94904e-15
    endloop
  endfacet
  facet normal -0.980892 -0.194554 0
    outer loop
      vertex 4.45187 16.5444 -1
      vertex 4.32982 17.1598 -2.10146e-15
      vertex 4.32982 17.1598 -1
    endloop
  endfacet
  facet normal -0.980892 -0.194554 0
    outer loop
      vertex 4.32982 17.1598 -2.10146e-15
      vertex 4.45187 16.5444 -1
      vertex 4.45187 16.5444 -2.0261e-15
    endloop
  endfacet
  facet normal -0.9561 -0.293041 0
    outer loop
      vertex 4.32982 17.1598 -1
      vertex 4.15718 17.723 -2.17044e-15
      vertex 4.15718 17.723 -1
    endloop
  endfacet
  facet normal -0.9561 -0.293041 0
    outer loop
      vertex 4.15718 17.723 -2.17044e-15
      vertex 4.32982 17.1598 -1
      vertex 4.32982 17.1598 -2.10146e-15
    endloop
  endfacet
  facet normal -0.917188 -0.398455 0
    outer loop
      vertex 4.15718 17.723 -1
      vertex 3.95018 18.1995 -2.2288e-15
      vertex 3.95018 18.1995 -1
    endloop
  endfacet
  facet normal -0.917188 -0.398455 0
    outer loop
      vertex 3.95018 18.1995 -2.2288e-15
      vertex 4.15718 17.723 -1
      vertex 4.15718 17.723 -2.17044e-15
    endloop
  endfacet
  facet normal -0.904709 -0.426031 0
    outer loop
      vertex 3.95018 18.1995 -1
      vertex 3.93413 18.2336 -2.23297e-15
      vertex 3.93413 18.2336 -1
    endloop
  endfacet
  facet normal -0.904709 -0.426031 0
    outer loop
      vertex 3.93413 18.2336 -2.23297e-15
      vertex 3.95018 18.1995 -1
      vertex 3.95018 18.1995 -2.2288e-15
    endloop
  endfacet
  facet normal -0.859558 -0.511038 0
    outer loop
      vertex 3.93413 18.2336 -1
      vertex 3.68112 18.6591 -2.28509e-15
      vertex 3.68112 18.6591 -1
    endloop
  endfacet
  facet normal -0.859558 -0.511038 0
    outer loop
      vertex 3.68112 18.6591 -2.28509e-15
      vertex 3.93413 18.2336 -1
      vertex 3.93413 18.2336 -2.23297e-15
    endloop
  endfacet
  facet normal -0.844361 -0.535774 0
    outer loop
      vertex 3.68112 18.6591 -1
      vertex 3.66093 18.691 -2.28898e-15
      vertex 3.66093 18.691 -1
    endloop
  endfacet
  facet normal -0.844361 -0.535774 0
    outer loop
      vertex 3.66093 18.691 -2.28898e-15
      vertex 3.68112 18.6591 -1
      vertex 3.68112 18.6591 -2.28509e-15
    endloop
  endfacet
  facet normal -0.780777 -0.62481 0
    outer loop
      vertex 3.66093 18.691 -1
      vertex 3.33794 19.0946 -2.33841e-15
      vertex 3.33794 19.0946 -1
    endloop
  endfacet
  facet normal -0.780777 -0.62481 0
    outer loop
      vertex 3.33794 19.0946 -2.33841e-15
      vertex 3.66093 18.691 -1
      vertex 3.66093 18.691 -2.28898e-15
    endloop
  endfacet
  facet normal -0.693242 -0.720705 0
    outer loop
      vertex 2.97435 19.4443 -1
      vertex 3.33794 19.0946 -2.33841e-15
      vertex 2.97435 19.4443 -2.38124e-15
    endloop
  endfacet
  facet normal -0.693242 -0.720705 -0
    outer loop
      vertex 3.33794 19.0946 -2.33841e-15
      vertex 2.97435 19.4443 -1
      vertex 3.33794 19.0946 -1
    endloop
  endfacet
  facet normal -0.600163 -0.799878 0
    outer loop
      vertex 2.5795 19.7406 -1
      vertex 2.97435 19.4443 -2.38124e-15
      vertex 2.5795 19.7406 -2.41752e-15
    endloop
  endfacet
  facet normal -0.600163 -0.799878 -0
    outer loop
      vertex 2.97435 19.4443 -2.38124e-15
      vertex 2.5795 19.7406 -1
      vertex 2.97435 19.4443 -1
    endloop
  endfacet
  facet normal -0.494884 -0.868959 0
    outer loop
      vertex 2.15387 19.983 -1
      vertex 2.5795 19.7406 -2.41752e-15
      vertex 2.15387 19.983 -2.44721e-15
    endloop
  endfacet
  facet normal -0.494884 -0.868959 -0
    outer loop
      vertex 2.5795 19.7406 -2.41752e-15
      vertex 2.15387 19.983 -1
      vertex 2.5795 19.7406 -1
    endloop
  endfacet
  facet normal -0.381747 -0.924267 0
    outer loop
      vertex 1.69798 20.1713 -1
      vertex 2.15387 19.983 -2.44721e-15
      vertex 1.69798 20.1713 -2.47027e-15
    endloop
  endfacet
  facet normal -0.381747 -0.924267 -0
    outer loop
      vertex 2.15387 19.983 -2.44721e-15
      vertex 1.69798 20.1713 -1
      vertex 2.15387 19.983 -1
    endloop
  endfacet
  facet normal -0.265964 -0.963983 0
    outer loop
      vertex 1.2124 20.3053 -1
      vertex 1.69798 20.1713 -2.47027e-15
      vertex 1.2124 20.3053 -2.48668e-15
    endloop
  endfacet
  facet normal -0.265964 -0.963983 -0
    outer loop
      vertex 1.69798 20.1713 -2.47027e-15
      vertex 1.2124 20.3053 -1
      vertex 1.69798 20.1713 -1
    endloop
  endfacet
  facet normal -0.154712 -0.98796 0
    outer loop
      vertex 0.735046 20.38 -1
      vertex 1.2124 20.3053 -2.48668e-15
      vertex 0.735046 20.38 -2.49583e-15
    endloop
  endfacet
  facet normal -0.154712 -0.98796 -0
    outer loop
      vertex 1.2124 20.3053 -2.48668e-15
      vertex 0.735046 20.38 -1
      vertex 1.2124 20.3053 -1
    endloop
  endfacet
  facet normal -0.12553 -0.99209 0
    outer loop
      vertex 0.697662 20.3847 -1
      vertex 0.735046 20.38 -2.49583e-15
      vertex 0.697662 20.3847 -2.49641e-15
    endloop
  endfacet
  facet normal -0.12553 -0.99209 -0
    outer loop
      vertex 0.735046 20.38 -2.49583e-15
      vertex 0.697662 20.3847 -1
      vertex 0.735046 20.38 -1
    endloop
  endfacet
  facet normal -0.049225 -0.998788 0
    outer loop
      vertex 0.192078 20.4097 -1
      vertex 0.697662 20.3847 -2.49641e-15
      vertex 0.192078 20.4097 -2.49946e-15
    endloop
  endfacet
  facet normal -0.049225 -0.998788 -0
    outer loop
      vertex 0.697662 20.3847 -2.49641e-15
      vertex 0.192078 20.4097 -1
      vertex 0.697662 20.3847 -1
    endloop
  endfacet
  facet normal 0 -1 0
    outer loop
      vertex 0.154419 20.4097 -1
      vertex 0.192078 20.4097 -2.49946e-15
      vertex 0.154419 20.4097 -2.49946e-15
    endloop
  endfacet
  facet normal 0 -1 -0
    outer loop
      vertex 0.192078 20.4097 -2.49946e-15
      vertex 0.154419 20.4097 -1
      vertex 0.192078 20.4097 -1
    endloop
  endfacet
  facet normal -3.8147e-08 3.8147e-08 1
    outer loop
      vertex 25 25 23.2
      vertex 24 24 23.2
      vertex 25 -25 23.2
    endloop
  endfacet
  facet normal 0 0 1
    outer loop
      vertex 25 25 23.2
      vertex -24 24 23.2
      vertex 24 24 23.2
    endloop
  endfacet
  facet normal 3.97364e-08 3.97364e-08 1
    outer loop
      vertex -24 24 23.2
      vertex -25 25 23.2
      vertex -24 -24 23.2
    endloop
  endfacet
  facet normal -0 0 1
    outer loop
      vertex -25 25 23.2
      vertex -24 24 23.2
      vertex 25 25 23.2
    endloop
  endfacet
  facet normal 3.97364e-08 3.97364e-08 1
    outer loop
      vertex 24 -24 23.2
      vertex 25 -25 23.2
      vertex 24 24 23.2
    endloop
  endfacet
  facet normal -0 0 1
    outer loop
      vertex -24 -24 23.2
      vertex 25 -25 23.2
      vertex 24 -24 23.2
    endloop
  endfacet
  facet normal 0 0 1
    outer loop
      vertex -24 -24 23.2
      vertex -25 -25 23.2
      vertex 25 -25 23.2
    endloop
  endfacet
  facet normal -3.8147e-08 3.8147e-08 1
    outer loop
      vertex -25 -25 23.2
      vertex -24 -24 23.2
      vertex -25 25 23.2
    endloop
  endfacet
endsolid OpenSCAD_Model
