solid OpenSCAD_Model
  facet normal -1 0 0
    outer loop
      vertex -22.5 -22.5 0.5
      vertex -22.5 22.5 1.5
      vertex -22.5 22.5 0.5
    endloop
  endfacet
  facet normal -1 -0 0
    outer loop
      vertex -22.5 22.5 1.5
      vertex -22.5 -22.5 0.5
      vertex -22.5 -22.5 1.5
    endloop
  endfacet
  facet normal -0 0 1
    outer loop
      vertex 18.2683 -13.7009 1.5
      vertex 22.5 -22.5 1.5
      vertex 22.5 22.5 1.5
    endloop
  endfacet
  facet normal 0 0 1
    outer loop
      vertex 22.5 -22.5 1.5
      vertex 18.8658 -16.0056 1.5
      vertex 18.8907 -16.4182 1.5
    endloop
  endfacet
  facet normal 0 0 1
    outer loop
      vertex 22.5 -22.5 1.5
      vertex 18.7911 -15.5275 1.5
      vertex 18.8658 -16.0056 1.5
    endloop
  endfacet
  facet normal 0 0 1
    outer loop
      vertex 22.5 -22.5 1.5
      vertex 18.6666 -14.984 1.5
      vertex 18.7911 -15.5275 1.5
    endloop
  endfacet
  facet normal 0 0 1
    outer loop
      vertex 22.5 -22.5 1.5
      vertex 18.4923 -14.3751 1.5
      vertex 18.6666 -14.984 1.5
    endloop
  endfacet
  facet normal 0 0 1
    outer loop
      vertex 22.5 -22.5 1.5
      vertex 18.2683 -13.7009 1.5
      vertex 18.4923 -14.3751 1.5
    endloop
  endfacet
  facet normal 0 0 1
    outer loop
      vertex 22.5 22.5 1.5
      vertex 17.9944 -12.9613 1.5
      vertex 18.2683 -13.7009 1.5
    endloop
  endfacet
  facet normal 0 0 1
    outer loop
      vertex 22.5 22.5 1.5
      vertex 17.6707 -12.1562 1.5
      vertex 17.9944 -12.9613 1.5
    endloop
  endfacet
  facet normal 0 0 1
    outer loop
      vertex 22.5 22.5 1.5
      vertex 7.28972 13.5227 1.5
      vertex 17.6707 -12.1562 1.5
    endloop
  endfacet
  facet normal 0 0 1
    outer loop
      vertex 22.5 22.5 1.5
      vertex 6.89241 14.5607 1.5
      vertex 7.28972 13.5227 1.5
    endloop
  endfacet
  facet normal 0 0 1
    outer loop
      vertex 22.5 22.5 1.5
      vertex 6.53706 15.4723 1.5
      vertex 6.89241 14.5607 1.5
    endloop
  endfacet
  facet normal 0 0 1
    outer loop
      vertex 22.5 22.5 1.5
      vertex 6.22368 16.2575 1.5
      vertex 6.53706 15.4723 1.5
    endloop
  endfacet
  facet normal 0 0 1
    outer loop
      vertex 22.5 22.5 1.5
      vertex 6.08272 16.6027 1.5
      vertex 6.22368 16.2575 1.5
    endloop
  endfacet
  facet normal 0 0 1
    outer loop
      vertex 22.5 22.5 1.5
      vertex 5.94286 16.9294 1.5
      vertex 6.08272 16.6027 1.5
    endloop
  endfacet
  facet normal 0 0 1
    outer loop
      vertex 22.5 22.5 1.5
      vertex 5.79414 17.2499 1.5
      vertex 5.94286 16.9294 1.5
    endloop
  endfacet
  facet normal 0 0 1
    outer loop
      vertex 22.5 22.5 1.5
      vertex 5.63657 17.5643 1.5
      vertex 5.79414 17.2499 1.5
    endloop
  endfacet
  facet normal 0 0 1
    outer loop
      vertex 22.5 22.5 1.5
      vertex 5.47014 17.8726 1.5
      vertex 5.63657 17.5643 1.5
    endloop
  endfacet
  facet normal 0 0 1
    outer loop
      vertex 22.5 22.5 1.5
      vertex 5.29486 18.1748 1.5
      vertex 5.47014 17.8726 1.5
    endloop
  endfacet
  facet normal 0 0 1
    outer loop
      vertex 22.5 22.5 1.5
      vertex 5.11072 18.4708 1.5
      vertex 5.29486 18.1748 1.5
    endloop
  endfacet
  facet normal 0 0 1
    outer loop
      vertex 22.5 22.5 1.5
      vertex 4.91771 18.7607 1.5
      vertex 5.11072 18.4708 1.5
    endloop
  endfacet
  facet normal 0 0 1
    outer loop
      vertex 22.5 22.5 1.5
      vertex 4.71143 19.0404 1.5
      vertex 4.91771 18.7607 1.5
    endloop
  endfacet
  facet normal 0 0 1
    outer loop
      vertex 22.5 22.5 1.5
      vertex 4.48743 19.3051 1.5
      vertex 4.71143 19.0404 1.5
    endloop
  endfacet
  facet normal 0 0 1
    outer loop
      vertex 22.5 22.5 1.5
      vertex 4.24571 19.5548 1.5
      vertex 4.48743 19.3051 1.5
    endloop
  endfacet
  facet normal 0 0 1
    outer loop
      vertex 22.5 22.5 1.5
      vertex 3.98628 19.7895 1.5
      vertex 4.24571 19.5548 1.5
    endloop
  endfacet
  facet normal 0 0 1
    outer loop
      vertex 22.5 22.5 1.5
      vertex 3.70914 20.0092 1.5
      vertex 3.98628 19.7895 1.5
    endloop
  endfacet
  facet normal 0 0 1
    outer loop
      vertex 22.5 22.5 1.5
      vertex 3.41429 20.214 1.5
      vertex 3.70914 20.0092 1.5
    endloop
  endfacet
  facet normal 0 0 1
    outer loop
      vertex 22.5 22.5 1.5
      vertex 3.10172 20.4037 1.5
      vertex 3.41429 20.214 1.5
    endloop
  endfacet
  facet normal 0 0 1
    outer loop
      vertex 22.5 22.5 1.5
      vertex 2.76894 20.573 1.5
      vertex 3.10172 20.4037 1.5
    endloop
  endfacet
  facet normal 0 0 1
    outer loop
      vertex 22.5 22.5 1.5
      vertex 2.41347 20.7162 1.5
      vertex 2.76894 20.573 1.5
    endloop
  endfacet
  facet normal 0 0 1
    outer loop
      vertex 22.5 22.5 1.5
      vertex 2.03531 20.8334 1.5
      vertex 2.41347 20.7162 1.5
    endloop
  endfacet
  facet normal 0 0 1
    outer loop
      vertex 22.5 22.5 1.5
      vertex 1.63445 20.9246 1.5
      vertex 2.03531 20.8334 1.5
    endloop
  endfacet
  facet normal 0 0 1
    outer loop
      vertex 22.5 22.5 1.5
      vertex 1.21089 20.9897 1.5
      vertex 1.63445 20.9246 1.5
    endloop
  endfacet
  facet normal 0 0 1
    outer loop
      vertex 22.5 22.5 1.5
      vertex 0.764648 21.0287 1.5
      vertex 1.21089 20.9897 1.5
    endloop
  endfacet
  facet normal 0 0 1
    outer loop
      vertex 22.5 22.5 1.5
      vertex 0.295715 21.0417 1.5
      vertex 0.764648 21.0287 1.5
    endloop
  endfacet
  facet normal -0 0 1
    outer loop
      vertex -22.5 22.5 1.5
      vertex 0.295715 21.0417 1.5
      vertex 22.5 22.5 1.5
    endloop
  endfacet
  facet normal 0 0 1
    outer loop
      vertex -22.5 22.5 1.5
      vertex -6.64326 13.4688 1.5
      vertex -5.59927 16.1417 1.5
    endloop
  endfacet
  facet normal 0 0 1
    outer loop
      vertex -6.64326 13.4688 1.5
      vertex -22.5 22.5 1.5
      vertex -16.8073 -12.3742 1.5
    endloop
  endfacet
  facet normal 0 0 1
    outer loop
      vertex -17.9511 -16.0032 1.5
      vertex -22.5 -22.5 1.5
      vertex -17.9677 -16.2393 1.5
    endloop
  endfacet
  facet normal 0 0 1
    outer loop
      vertex -17.9235 -15.7649 1.5
      vertex -22.5 -22.5 1.5
      vertex -17.9511 -16.0032 1.5
    endloop
  endfacet
  facet normal 0 0 1
    outer loop
      vertex -17.8848 -15.5245 1.5
      vertex -22.5 -22.5 1.5
      vertex -17.9235 -15.7649 1.5
    endloop
  endfacet
  facet normal 0 0 1
    outer loop
      vertex -17.835 -15.2819 1.5
      vertex -22.5 -22.5 1.5
      vertex -17.8848 -15.5245 1.5
    endloop
  endfacet
  facet normal 0 0 1
    outer loop
      vertex -17.7742 -15.0372 1.5
      vertex -22.5 -22.5 1.5
      vertex -17.835 -15.2819 1.5
    endloop
  endfacet
  facet normal 0 0 1
    outer loop
      vertex -17.7023 -14.7902 1.5
      vertex -22.5 -22.5 1.5
      vertex -17.7742 -15.0372 1.5
    endloop
  endfacet
  facet normal 0 0 1
    outer loop
      vertex -17.6176 -14.5281 1.5
      vertex -22.5 -22.5 1.5
      vertex -17.7023 -14.7902 1.5
    endloop
  endfacet
  facet normal 0 0 1
    outer loop
      vertex -17.5186 -14.2383 1.5
      vertex -22.5 -22.5 1.5
      vertex -17.6176 -14.5281 1.5
    endloop
  endfacet
  facet normal 0 0 1
    outer loop
      vertex -17.4052 -13.9209 1.5
      vertex -22.5 -22.5 1.5
      vertex -17.5186 -14.2383 1.5
    endloop
  endfacet
  facet normal 0 0 1
    outer loop
      vertex -17.2773 -13.5757 1.5
      vertex -22.5 -22.5 1.5
      vertex -17.4052 -13.9209 1.5
    endloop
  endfacet
  facet normal 0 0 1
    outer loop
      vertex -17.135 -13.2029 1.5
      vertex -22.5 -22.5 1.5
      vertex -17.2773 -13.5757 1.5
    endloop
  endfacet
  facet normal 0 0 1
    outer loop
      vertex -22.5 -22.5 1.5
      vertex -17.135 -13.2029 1.5
      vertex -22.5 22.5 1.5
    endloop
  endfacet
  facet normal 0 0 1
    outer loop
      vertex -16.9783 -12.8024 1.5
      vertex -22.5 22.5 1.5
      vertex -17.135 -13.2029 1.5
    endloop
  endfacet
  facet normal 0 0 1
    outer loop
      vertex -16.8073 -12.3742 1.5
      vertex -22.5 22.5 1.5
      vertex -16.9783 -12.8024 1.5
    endloop
  endfacet
  facet normal 0 0 1
    outer loop
      vertex -5.42332 16.5769 1.5
      vertex -22.5 22.5 1.5
      vertex -5.59927 16.1417 1.5
    endloop
  endfacet
  facet normal 0 0 1
    outer loop
      vertex -5.24408 16.9905 1.5
      vertex -22.5 22.5 1.5
      vertex -5.42332 16.5769 1.5
    endloop
  endfacet
  facet normal 0 0 1
    outer loop
      vertex -5.06154 17.3824 1.5
      vertex -22.5 22.5 1.5
      vertex -5.24408 16.9905 1.5
    endloop
  endfacet
  facet normal 0 0 1
    outer loop
      vertex -4.87567 17.7527 1.5
      vertex -22.5 22.5 1.5
      vertex -5.06154 17.3824 1.5
    endloop
  endfacet
  facet normal 0 0 1
    outer loop
      vertex -4.68651 18.1013 1.5
      vertex -22.5 22.5 1.5
      vertex -4.87567 17.7527 1.5
    endloop
  endfacet
  facet normal 0 0 1
    outer loop
      vertex -4.49405 18.4284 1.5
      vertex -22.5 22.5 1.5
      vertex -4.68651 18.1013 1.5
    endloop
  endfacet
  facet normal 0 0 1
    outer loop
      vertex -4.29826 18.7337 1.5
      vertex -22.5 22.5 1.5
      vertex -4.49405 18.4284 1.5
    endloop
  endfacet
  facet normal 0 0 1
    outer loop
      vertex -4.09198 19.0206 1.5
      vertex -22.5 22.5 1.5
      vertex -4.29826 18.7337 1.5
    endloop
  endfacet
  facet normal 0 0 1
    outer loop
      vertex -3.86798 19.2913 1.5
      vertex -22.5 22.5 1.5
      vertex -4.09198 19.0206 1.5
    endloop
  endfacet
  facet normal 0 0 1
    outer loop
      vertex -3.62627 19.5459 1.5
      vertex -22.5 22.5 1.5
      vertex -3.86798 19.2913 1.5
    endloop
  endfacet
  facet normal 0 0 1
    outer loop
      vertex -3.36684 19.7845 1.5
      vertex -22.5 22.5 1.5
      vertex -3.62627 19.5459 1.5
    endloop
  endfacet
  facet normal 0 0 1
    outer loop
      vertex -3.08969 20.007 1.5
      vertex -22.5 22.5 1.5
      vertex -3.36684 19.7845 1.5
    endloop
  endfacet
  facet normal 0 0 1
    outer loop
      vertex -2.79485 20.2134 1.5
      vertex -22.5 22.5 1.5
      vertex -3.08969 20.007 1.5
    endloop
  endfacet
  facet normal 0 0 1
    outer loop
      vertex -2.48227 20.4037 1.5
      vertex -22.5 22.5 1.5
      vertex -2.79485 20.2134 1.5
    endloop
  endfacet
  facet normal 0 0 1
    outer loop
      vertex -2.15007 20.573 1.5
      vertex -22.5 22.5 1.5
      vertex -2.48227 20.4037 1.5
    endloop
  endfacet
  facet normal 0 0 1
    outer loop
      vertex -1.79631 20.7162 1.5
      vertex -22.5 22.5 1.5
      vertex -2.15007 20.573 1.5
    endloop
  endfacet
  facet normal 0 0 1
    outer loop
      vertex -1.42101 20.8334 1.5
      vertex -22.5 22.5 1.5
      vertex -1.79631 20.7162 1.5
    endloop
  endfacet
  facet normal 0 0 1
    outer loop
      vertex -1.02415 20.9246 1.5
      vertex -22.5 22.5 1.5
      vertex -1.42101 20.8334 1.5
    endloop
  endfacet
  facet normal 0 0 1
    outer loop
      vertex -0.605743 20.9897 1.5
      vertex -22.5 22.5 1.5
      vertex -1.02415 20.9246 1.5
    endloop
  endfacet
  facet normal 0 0 1
    outer loop
      vertex -0.165787 21.0287 1.5
      vertex -22.5 22.5 1.5
      vertex -0.605743 20.9897 1.5
    endloop
  endfacet
  facet normal 0 0 1
    outer loop
      vertex 0.295715 21.0417 1.5
      vertex -22.5 22.5 1.5
      vertex -0.165787 21.0287 1.5
    endloop
  endfacet
  facet normal -0 0 1
    outer loop
      vertex 18.8672 -16.8092 1.5
      vertex 22.5 -22.5 1.5
      vertex 18.8907 -16.4182 1.5
    endloop
  endfacet
  facet normal -0 0 1
    outer loop
      vertex 18.7967 -17.1908 1.5
      vertex 22.5 -22.5 1.5
      vertex 18.8672 -16.8092 1.5
    endloop
  endfacet
  facet normal -0 0 1
    outer loop
      vertex 18.6791 -17.563 1.5
      vertex 22.5 -22.5 1.5
      vertex 18.7967 -17.1908 1.5
    endloop
  endfacet
  facet normal -0 0 1
    outer loop
      vertex 18.5146 -17.9257 1.5
      vertex 22.5 -22.5 1.5
      vertex 18.6791 -17.563 1.5
    endloop
  endfacet
  facet normal -0 0 1
    outer loop
      vertex 18.303 -18.279 1.5
      vertex 22.5 -22.5 1.5
      vertex 18.5146 -17.9257 1.5
    endloop
  endfacet
  facet normal -0 0 1
    outer loop
      vertex 18.0443 -18.6228 1.5
      vertex 22.5 -22.5 1.5
      vertex 18.303 -18.279 1.5
    endloop
  endfacet
  facet normal -0 0 1
    outer loop
      vertex 17.7387 -18.9572 1.5
      vertex 22.5 -22.5 1.5
      vertex 18.0443 -18.6228 1.5
    endloop
  endfacet
  facet normal -0 0 1
    outer loop
      vertex 17.3999 -19.2631 1.5
      vertex 22.5 -22.5 1.5
      vertex 17.7387 -18.9572 1.5
    endloop
  endfacet
  facet normal -0 0 1
    outer loop
      vertex 17.0417 -19.522 1.5
      vertex 22.5 -22.5 1.5
      vertex 17.3999 -19.2631 1.5
    endloop
  endfacet
  facet normal -0 0 1
    outer loop
      vertex 16.6642 -19.7337 1.5
      vertex 22.5 -22.5 1.5
      vertex 17.0417 -19.522 1.5
    endloop
  endfacet
  facet normal -0 0 1
    outer loop
      vertex 16.2674 -19.8985 1.5
      vertex 22.5 -22.5 1.5
      vertex 16.6642 -19.7337 1.5
    endloop
  endfacet
  facet normal -0 0 1
    outer loop
      vertex 15.8512 -20.0161 1.5
      vertex 22.5 -22.5 1.5
      vertex 16.2674 -19.8985 1.5
    endloop
  endfacet
  facet normal -0 0 1
    outer loop
      vertex 15.4156 -20.0867 1.5
      vertex 22.5 -22.5 1.5
      vertex 15.8512 -20.0161 1.5
    endloop
  endfacet
  facet normal -0 0 1
    outer loop
      vertex 14.9607 -20.1102 1.5
      vertex 22.5 -22.5 1.5
      vertex 15.4156 -20.0867 1.5
    endloop
  endfacet
  facet normal 0 0 1
    outer loop
      vertex 14.6951 -20.1033 1.5
      vertex 22.5 -22.5 1.5
      vertex 14.9607 -20.1102 1.5
    endloop
  endfacet
  facet normal 0 0 1
    outer loop
      vertex 14.4406 -20.0823 1.5
      vertex 22.5 -22.5 1.5
      vertex 14.6951 -20.1033 1.5
    endloop
  endfacet
  facet normal 0 0 1
    outer loop
      vertex 14.1971 -20.0474 1.5
      vertex 22.5 -22.5 1.5
      vertex 14.4406 -20.0823 1.5
    endloop
  endfacet
  facet normal 0 0 1
    outer loop
      vertex 13.9646 -19.9986 1.5
      vertex 22.5 -22.5 1.5
      vertex 14.1971 -20.0474 1.5
    endloop
  endfacet
  facet normal 0 0 1
    outer loop
      vertex -12.7751 -19.9172 1.5
      vertex 13.9646 -19.9986 1.5
      vertex 13.7433 -19.9357 1.5
    endloop
  endfacet
  facet normal -0 0 1
    outer loop
      vertex -7.75427 -9.87024 1.5
      vertex 10.2977 -14.8942 1.5
      vertex 8.40071 -9.87024 1.5
    endloop
  endfacet
  facet normal 0 0 1
    outer loop
      vertex -9.65128 -15.0042 1.5
      vertex 10.2977 -14.8942 1.5
      vertex -7.75427 -9.87024 1.5
    endloop
  endfacet
  facet normal 0 0 1
    outer loop
      vertex 10.2977 -14.8942 1.5
      vertex -9.65128 -15.0042 1.5
      vertex 10.5269 -15.4484 1.5
    endloop
  endfacet
  facet normal 0 0 1
    outer loop
      vertex -9.96233 -15.8224 1.5
      vertex 10.5269 -15.4484 1.5
      vertex -9.65128 -15.0042 1.5
    endloop
  endfacet
  facet normal 0 0 1
    outer loop
      vertex 10.5269 -15.4484 1.5
      vertex -9.96233 -15.8224 1.5
      vertex 10.7803 -16.0493 1.5
    endloop
  endfacet
  facet normal 0 0 1
    outer loop
      vertex -10.2601 -16.561 1.5
      vertex 10.7803 -16.0493 1.5
      vertex -9.96233 -15.8224 1.5
    endloop
  endfacet
  facet normal 0 0 1
    outer loop
      vertex 10.7803 -16.0493 1.5
      vertex -10.2601 -16.561 1.5
      vertex 11.2057 -17.0382 1.5
    endloop
  endfacet
  facet normal 0 0 1
    outer loop
      vertex -10.5445 -17.2199 1.5
      vertex 11.2057 -17.0382 1.5
      vertex -10.2601 -16.561 1.5
    endloop
  endfacet
  facet normal 0 0 1
    outer loop
      vertex 11.2057 -17.0382 1.5
      vertex -10.5445 -17.2199 1.5
      vertex 11.3555 -17.3726 1.5
    endloop
  endfacet
  facet normal 0 0 1
    outer loop
      vertex 11.3555 -17.3726 1.5
      vertex -10.5445 -17.2199 1.5
      vertex 11.5025 -17.6813 1.5
    endloop
  endfacet
  facet normal 0 0 1
    outer loop
      vertex -10.8157 -17.7992 1.5
      vertex 11.5025 -17.6813 1.5
      vertex -10.5445 -17.2199 1.5
    endloop
  endfacet
  facet normal 0 0 1
    outer loop
      vertex 11.5025 -17.6813 1.5
      vertex -10.8157 -17.7992 1.5
      vertex 11.6467 -17.9643 1.5
    endloop
  endfacet
  facet normal 0 0 1
    outer loop
      vertex -11.0735 -18.2988 1.5
      vertex 11.6467 -17.9643 1.5
      vertex -10.8157 -17.7992 1.5
    endloop
  endfacet
  facet normal 0 0 1
    outer loop
      vertex 11.6467 -17.9643 1.5
      vertex -11.0735 -18.2988 1.5
      vertex 11.7881 -18.2218 1.5
    endloop
  endfacet
  facet normal 0 0 1
    outer loop
      vertex 11.7881 -18.2218 1.5
      vertex -11.0735 -18.2988 1.5
      vertex 11.9267 -18.4536 1.5
    endloop
  endfacet
  facet normal 0 0 1
    outer loop
      vertex -11.318 -18.7189 1.5
      vertex 11.9267 -18.4536 1.5
      vertex -11.0735 -18.2988 1.5
    endloop
  endfacet
  facet normal 0 0 1
    outer loop
      vertex 11.9267 -18.4536 1.5
      vertex -11.318 -18.7189 1.5
      vertex 12.0626 -18.6597 1.5
    endloop
  endfacet
  facet normal 0 0 1
    outer loop
      vertex -11.5493 -19.0592 1.5
      vertex 12.0626 -18.6597 1.5
      vertex -11.318 -18.7189 1.5
    endloop
  endfacet
  facet normal 0 0 1
    outer loop
      vertex 12.0626 -18.6597 1.5
      vertex -11.5493 -19.0592 1.5
      vertex 12.1957 -18.8402 1.5
    endloop
  endfacet
  facet normal 0 0 1
    outer loop
      vertex 12.1957 -18.8402 1.5
      vertex -11.5493 -19.0592 1.5
      vertex 12.3318 -19.0029 1.5
    endloop
  endfacet
  facet normal 0 0 1
    outer loop
      vertex -11.7943 -19.3381 1.5
      vertex 12.3318 -19.0029 1.5
      vertex -11.5493 -19.0592 1.5
    endloop
  endfacet
  facet normal 0 0 1
    outer loop
      vertex 12.3318 -19.0029 1.5
      vertex -11.7943 -19.3381 1.5
      vertex 12.4768 -19.1556 1.5
    endloop
  endfacet
  facet normal 0 0 1
    outer loop
      vertex 12.4768 -19.1556 1.5
      vertex -11.7943 -19.3381 1.5
      vertex 12.6305 -19.2982 1.5
    endloop
  endfacet
  facet normal 0 0 1
    outer loop
      vertex 12.6305 -19.2982 1.5
      vertex -11.7943 -19.3381 1.5
      vertex 12.7931 -19.4308 1.5
    endloop
  endfacet
  facet normal 0 0 1
    outer loop
      vertex -12.0803 -19.574 1.5
      vertex 12.7931 -19.4308 1.5
      vertex -11.7943 -19.3381 1.5
    endloop
  endfacet
  facet normal 0 0 1
    outer loop
      vertex 12.7931 -19.4308 1.5
      vertex -12.0803 -19.574 1.5
      vertex 12.9645 -19.5533 1.5
    endloop
  endfacet
  facet normal 0 0 1
    outer loop
      vertex 12.9645 -19.5533 1.5
      vertex -12.0803 -19.574 1.5
      vertex 13.1447 -19.6658 1.5
    endloop
  endfacet
  facet normal 0 0 1
    outer loop
      vertex -12.4072 -19.7671 1.5
      vertex 13.1447 -19.6658 1.5
      vertex -12.0803 -19.574 1.5
    endloop
  endfacet
  facet normal 0 0 1
    outer loop
      vertex 13.1447 -19.6658 1.5
      vertex -12.4072 -19.7671 1.5
      vertex 13.3337 -19.7682 1.5
    endloop
  endfacet
  facet normal 0 0 1
    outer loop
      vertex 13.3337 -19.7682 1.5
      vertex -12.4072 -19.7671 1.5
      vertex 13.533 -19.859 1.5
    endloop
  endfacet
  facet normal 0 0 1
    outer loop
      vertex -12.7751 -19.9172 1.5
      vertex 13.533 -19.859 1.5
      vertex -12.4072 -19.7671 1.5
    endloop
  endfacet
  facet normal 0 0 1
    outer loop
      vertex 13.533 -19.859 1.5
      vertex -12.7751 -19.9172 1.5
      vertex 13.7433 -19.9357 1.5
    endloop
  endfacet
  facet normal 0 0 1
    outer loop
      vertex 13.9646 -19.9986 1.5
      vertex -12.7751 -19.9172 1.5
      vertex -13.1839 -20.0244 1.5
    endloop
  endfacet
  facet normal 0 0 1
    outer loop
      vertex 13.9646 -19.9986 1.5
      vertex -13.1839 -20.0244 1.5
      vertex 22.5 -22.5 1.5
    endloop
  endfacet
  facet normal 0 0 1
    outer loop
      vertex -22.5 -22.5 1.5
      vertex -13.1839 -20.0244 1.5
      vertex -13.6336 -20.0888 1.5
    endloop
  endfacet
  facet normal 0 0 1
    outer loop
      vertex -22.5 -22.5 1.5
      vertex -13.6336 -20.0888 1.5
      vertex -14.1243 -20.1102 1.5
    endloop
  endfacet
  facet normal 0 0 1
    outer loop
      vertex -22.5 -22.5 1.5
      vertex -14.1243 -20.1102 1.5
      vertex -14.5508 -20.0875 1.5
    endloop
  endfacet
  facet normal 0 0 1
    outer loop
      vertex -17.9677 -16.2393 1.5
      vertex -22.5 -22.5 1.5
      vertex -17.9733 -16.4732 1.5
    endloop
  endfacet
  facet normal 0 0 1
    outer loop
      vertex -13.1839 -20.0244 1.5
      vertex -22.5 -22.5 1.5
      vertex 22.5 -22.5 1.5
    endloop
  endfacet
  facet normal 0 0 1
    outer loop
      vertex -14.963 -20.0194 1.5
      vertex -22.5 -22.5 1.5
      vertex -14.5508 -20.0875 1.5
    endloop
  endfacet
  facet normal 0 0 1
    outer loop
      vertex -15.3608 -19.9058 1.5
      vertex -22.5 -22.5 1.5
      vertex -14.963 -20.0194 1.5
    endloop
  endfacet
  facet normal 0 0 1
    outer loop
      vertex -15.7442 -19.7468 1.5
      vertex -22.5 -22.5 1.5
      vertex -15.3608 -19.9058 1.5
    endloop
  endfacet
  facet normal 0 0 1
    outer loop
      vertex -16.1133 -19.5424 1.5
      vertex -22.5 -22.5 1.5
      vertex -15.7442 -19.7468 1.5
    endloop
  endfacet
  facet normal 0 0 1
    outer loop
      vertex -16.4679 -19.2925 1.5
      vertex -22.5 -22.5 1.5
      vertex -16.1133 -19.5424 1.5
    endloop
  endfacet
  facet normal 0 0 1
    outer loop
      vertex -16.8083 -18.9972 1.5
      vertex -22.5 -22.5 1.5
      vertex -16.4679 -19.2925 1.5
    endloop
  endfacet
  facet normal 0 0 1
    outer loop
      vertex -17.1174 -18.6732 1.5
      vertex -22.5 -22.5 1.5
      vertex -16.8083 -18.9972 1.5
    endloop
  endfacet
  facet normal 0 0 1
    outer loop
      vertex -17.3789 -18.3369 1.5
      vertex -22.5 -22.5 1.5
      vertex -17.1174 -18.6732 1.5
    endloop
  endfacet
  facet normal 0 0 1
    outer loop
      vertex -17.5929 -17.9885 1.5
      vertex -22.5 -22.5 1.5
      vertex -17.3789 -18.3369 1.5
    endloop
  endfacet
  facet normal 0 0 1
    outer loop
      vertex -17.7593 -17.6279 1.5
      vertex -22.5 -22.5 1.5
      vertex -17.5929 -17.9885 1.5
    endloop
  endfacet
  facet normal 0 0 1
    outer loop
      vertex -17.8782 -17.2552 1.5
      vertex -22.5 -22.5 1.5
      vertex -17.7593 -17.6279 1.5
    endloop
  endfacet
  facet normal 0 0 1
    outer loop
      vertex -17.9495 -16.8703 1.5
      vertex -22.5 -22.5 1.5
      vertex -17.8782 -17.2552 1.5
    endloop
  endfacet
  facet normal 0 0 1
    outer loop
      vertex -17.9733 -16.4732 1.5
      vertex -22.5 -22.5 1.5
      vertex -17.9495 -16.8703 1.5
    endloop
  endfacet
  facet normal 0 0 1
    outer loop
      vertex 0.241714 12.5297 1.5
      vertex -5.64027 -3.85425 1.5
      vertex 6.23271 -3.85425 1.5
    endloop
  endfacet
  facet normal 1 -0 0
    outer loop
      vertex 22.5 -22.5 1.5
      vertex 22.5 22.5 0.5
      vertex 22.5 22.5 1.5
    endloop
  endfacet
  facet normal 1 0 0
    outer loop
      vertex 22.5 22.5 0.5
      vertex 22.5 -22.5 1.5
      vertex 22.5 -22.5 0.5
    endloop
  endfacet
  facet normal 0 1 -0
    outer loop
      vertex 22.5 22.5 0.5
      vertex -22.5 22.5 1.5
      vertex 22.5 22.5 1.5
    endloop
  endfacet
  facet normal 0 1 0
    outer loop
      vertex -22.5 22.5 1.5
      vertex 22.5 22.5 0.5
      vertex -22.5 22.5 0.5
    endloop
  endfacet
  facet normal 0 0 -1
    outer loop
      vertex -22.5 -22.5 0.5
      vertex 22.5 22.5 0.5
      vertex 22.5 -22.5 0.5
    endloop
  endfacet
  facet normal -0 0 -1
    outer loop
      vertex 22.5 22.5 0.5
      vertex -22.5 -22.5 0.5
      vertex -22.5 22.5 0.5
    endloop
  endfacet
  facet normal 0 -1 0
    outer loop
      vertex -22.5 -22.5 0.5
      vertex 22.5 -22.5 1.5
      vertex -22.5 -22.5 1.5
    endloop
  endfacet
  facet normal 0 -1 -0
    outer loop
      vertex 22.5 -22.5 1.5
      vertex -22.5 -22.5 0.5
      vertex 22.5 -22.5 0.5
    endloop
  endfacet
  facet normal 0 0 1
    outer loop
      vertex 0.241714 12.5297 3
      vertex 6.53706 15.4723 3
      vertex 6.22368 16.2575 3
    endloop
  endfacet
  facet normal 0 0 1
    outer loop
      vertex 0.241714 12.5297 3
      vertex 6.22368 16.2575 3
      vertex 6.08272 16.6027 3
    endloop
  endfacet
  facet normal 0 0 1
    outer loop
      vertex 0.241714 12.5297 3
      vertex 6.08272 16.6027 3
      vertex 5.94286 16.9294 3
    endloop
  endfacet
  facet normal 0 0 1
    outer loop
      vertex 0.241714 12.5297 3
      vertex 5.94286 16.9294 3
      vertex 5.79414 17.2499 3
    endloop
  endfacet
  facet normal 0 0 1
    outer loop
      vertex 0.241714 12.5297 3
      vertex 5.79414 17.2499 3
      vertex 5.63657 17.5643 3
    endloop
  endfacet
  facet normal 0 0 1
    outer loop
      vertex 0.241714 12.5297 3
      vertex 5.63657 17.5643 3
      vertex 5.47014 17.8726 3
    endloop
  endfacet
  facet normal 0 0 1
    outer loop
      vertex 0.241714 12.5297 3
      vertex 5.47014 17.8726 3
      vertex 5.29486 18.1748 3
    endloop
  endfacet
  facet normal 0 0 1
    outer loop
      vertex 0.241714 12.5297 3
      vertex 5.29486 18.1748 3
      vertex 5.11072 18.4708 3
    endloop
  endfacet
  facet normal 0 0 1
    outer loop
      vertex 0.241714 12.5297 3
      vertex 5.11072 18.4708 3
      vertex 4.91771 18.7607 3
    endloop
  endfacet
  facet normal 0 0 1
    outer loop
      vertex 0.241714 12.5297 3
      vertex 4.91771 18.7607 3
      vertex 4.71143 19.0404 3
    endloop
  endfacet
  facet normal 0 0 1
    outer loop
      vertex 0.241714 12.5297 3
      vertex 4.71143 19.0404 3
      vertex 4.48743 19.3051 3
    endloop
  endfacet
  facet normal 0 0 1
    outer loop
      vertex 0.241714 12.5297 3
      vertex 4.48743 19.3051 3
      vertex 4.24571 19.5548 3
    endloop
  endfacet
  facet normal 0 0 1
    outer loop
      vertex 0.241714 12.5297 3
      vertex 4.24571 19.5548 3
      vertex 3.98628 19.7895 3
    endloop
  endfacet
  facet normal 0 0 1
    outer loop
      vertex 0.241714 12.5297 3
      vertex 3.98628 19.7895 3
      vertex 3.70914 20.0092 3
    endloop
  endfacet
  facet normal 0 0 1
    outer loop
      vertex 0.241714 12.5297 3
      vertex 3.70914 20.0092 3
      vertex 3.41429 20.214 3
    endloop
  endfacet
  facet normal 0 0 1
    outer loop
      vertex 0.241714 12.5297 3
      vertex 3.41429 20.214 3
      vertex 3.10172 20.4037 3
    endloop
  endfacet
  facet normal 0 0 1
    outer loop
      vertex 0.241714 12.5297 3
      vertex 3.10172 20.4037 3
      vertex 2.76894 20.573 3
    endloop
  endfacet
  facet normal 0 0 1
    outer loop
      vertex 0.241714 12.5297 3
      vertex 2.76894 20.573 3
      vertex 2.41347 20.7162 3
    endloop
  endfacet
  facet normal 0 0 1
    outer loop
      vertex 0.241714 12.5297 3
      vertex 2.41347 20.7162 3
      vertex 2.03531 20.8334 3
    endloop
  endfacet
  facet normal 0 0 1
    outer loop
      vertex 0.241714 12.5297 3
      vertex 2.03531 20.8334 3
      vertex 1.63445 20.9246 3
    endloop
  endfacet
  facet normal 0 0 1
    outer loop
      vertex 0.241714 12.5297 3
      vertex 1.63445 20.9246 3
      vertex 1.21089 20.9897 3
    endloop
  endfacet
  facet normal 0 0 1
    outer loop
      vertex 0.241714 12.5297 3
      vertex 1.21089 20.9897 3
      vertex 0.764648 21.0287 3
    endloop
  endfacet
  facet normal 0 0 1
    outer loop
      vertex 0.241714 12.5297 3
      vertex 0.764648 21.0287 3
      vertex 0.295715 21.0417 3
    endloop
  endfacet
  facet normal 0 0 1
    outer loop
      vertex 6.53706 15.4723 3
      vertex 0.241714 12.5297 3
      vertex 6.23271 -3.85425 3
    endloop
  endfacet
  facet normal -0 0 1
    outer loop
      vertex -0.165787 21.0287 3
      vertex 0.241714 12.5297 3
      vertex 0.295715 21.0417 3
    endloop
  endfacet
  facet normal -0 0 1
    outer loop
      vertex -0.605743 20.9897 3
      vertex 0.241714 12.5297 3
      vertex -0.165787 21.0287 3
    endloop
  endfacet
  facet normal -0 0 1
    outer loop
      vertex -1.02415 20.9246 3
      vertex 0.241714 12.5297 3
      vertex -0.605743 20.9897 3
    endloop
  endfacet
  facet normal -0 0 1
    outer loop
      vertex -1.42101 20.8334 3
      vertex 0.241714 12.5297 3
      vertex -1.02415 20.9246 3
    endloop
  endfacet
  facet normal -0 0 1
    outer loop
      vertex -1.79631 20.7162 3
      vertex 0.241714 12.5297 3
      vertex -1.42101 20.8334 3
    endloop
  endfacet
  facet normal -0 0 1
    outer loop
      vertex -2.15007 20.573 3
      vertex 0.241714 12.5297 3
      vertex -1.79631 20.7162 3
    endloop
  endfacet
  facet normal -0 0 1
    outer loop
      vertex -2.48227 20.4037 3
      vertex 0.241714 12.5297 3
      vertex -2.15007 20.573 3
    endloop
  endfacet
  facet normal -0 0 1
    outer loop
      vertex -2.79485 20.2134 3
      vertex 0.241714 12.5297 3
      vertex -2.48227 20.4037 3
    endloop
  endfacet
  facet normal -0 0 1
    outer loop
      vertex -3.08969 20.007 3
      vertex 0.241714 12.5297 3
      vertex -2.79485 20.2134 3
    endloop
  endfacet
  facet normal -0 0 1
    outer loop
      vertex -3.36684 19.7845 3
      vertex 0.241714 12.5297 3
      vertex -3.08969 20.007 3
    endloop
  endfacet
  facet normal -0 0 1
    outer loop
      vertex -3.62627 19.5459 3
      vertex 0.241714 12.5297 3
      vertex -3.36684 19.7845 3
    endloop
  endfacet
  facet normal -0 0 1
    outer loop
      vertex -3.86798 19.2913 3
      vertex 0.241714 12.5297 3
      vertex -3.62627 19.5459 3
    endloop
  endfacet
  facet normal -0 0 1
    outer loop
      vertex -4.09198 19.0206 3
      vertex 0.241714 12.5297 3
      vertex -3.86798 19.2913 3
    endloop
  endfacet
  facet normal -0 0 1
    outer loop
      vertex -4.29826 18.7337 3
      vertex 0.241714 12.5297 3
      vertex -4.09198 19.0206 3
    endloop
  endfacet
  facet normal -0 0 1
    outer loop
      vertex -4.49405 18.4284 3
      vertex 0.241714 12.5297 3
      vertex -4.29826 18.7337 3
    endloop
  endfacet
  facet normal -0 0 1
    outer loop
      vertex -4.68651 18.1013 3
      vertex 0.241714 12.5297 3
      vertex -4.49405 18.4284 3
    endloop
  endfacet
  facet normal -0 0 1
    outer loop
      vertex -4.87567 17.7527 3
      vertex 0.241714 12.5297 3
      vertex -4.68651 18.1013 3
    endloop
  endfacet
  facet normal -0 0 1
    outer loop
      vertex -5.06154 17.3824 3
      vertex 0.241714 12.5297 3
      vertex -4.87567 17.7527 3
    endloop
  endfacet
  facet normal -0 0 1
    outer loop
      vertex -5.24408 16.9905 3
      vertex 0.241714 12.5297 3
      vertex -5.06154 17.3824 3
    endloop
  endfacet
  facet normal -0 0 1
    outer loop
      vertex -5.42332 16.5769 3
      vertex 0.241714 12.5297 3
      vertex -5.24408 16.9905 3
    endloop
  endfacet
  facet normal -0 0 1
    outer loop
      vertex -5.59927 16.1417 3
      vertex 0.241714 12.5297 3
      vertex -5.42332 16.5769 3
    endloop
  endfacet
  facet normal -0 0 1
    outer loop
      vertex -6.64326 13.4688 3
      vertex 0.241714 12.5297 3
      vertex -5.59927 16.1417 3
    endloop
  endfacet
  facet normal 0 0 1
    outer loop
      vertex 0.241714 12.5297 3
      vertex -6.64326 13.4688 3
      vertex -5.64027 -3.85425 3
    endloop
  endfacet
  facet normal 0 0 1
    outer loop
      vertex 18.8658 -16.0056 3
      vertex 18.8672 -16.8092 3
      vertex 18.8907 -16.4182 3
    endloop
  endfacet
  facet normal 0 0 1
    outer loop
      vertex 18.8658 -16.0056 3
      vertex 18.7967 -17.1908 3
      vertex 18.8672 -16.8092 3
    endloop
  endfacet
  facet normal 0 0 1
    outer loop
      vertex 18.0443 -18.6228 3
      vertex 18.8658 -16.0056 3
      vertex 18.7911 -15.5275 3
    endloop
  endfacet
  facet normal 0 0 1
    outer loop
      vertex 18.8658 -16.0056 3
      vertex 18.6791 -17.563 3
      vertex 18.7967 -17.1908 3
    endloop
  endfacet
  facet normal 0 0 1
    outer loop
      vertex 11.6467 -17.9643 3
      vertex 18.7911 -15.5275 3
      vertex 18.6666 -14.984 3
    endloop
  endfacet
  facet normal 0 0 1
    outer loop
      vertex 18.8658 -16.0056 3
      vertex 18.5146 -17.9257 3
      vertex 18.6791 -17.563 3
    endloop
  endfacet
  facet normal 0 0 1
    outer loop
      vertex 11.3555 -17.3726 3
      vertex 18.6666 -14.984 3
      vertex 18.4923 -14.3751 3
    endloop
  endfacet
  facet normal 0 0 1
    outer loop
      vertex 18.8658 -16.0056 3
      vertex 18.303 -18.279 3
      vertex 18.5146 -17.9257 3
    endloop
  endfacet
  facet normal 0 0 1
    outer loop
      vertex 11.2057 -17.0382 3
      vertex 18.4923 -14.3751 3
      vertex 18.2683 -13.7009 3
    endloop
  endfacet
  facet normal 0 0 1
    outer loop
      vertex 18.6666 -14.984 3
      vertex 11.5025 -17.6813 3
      vertex 11.6467 -17.9643 3
    endloop
  endfacet
  facet normal 0 0 1
    outer loop
      vertex 10.7803 -16.0493 3
      vertex 18.2683 -13.7009 3
      vertex 17.9944 -12.9613 3
    endloop
  endfacet
  facet normal 0 -0 1
    outer loop
      vertex 17.7387 -18.9572 3
      vertex 18.7911 -15.5275 3
      vertex 11.6467 -17.9643 3
    endloop
  endfacet
  facet normal 0 0 1
    outer loop
      vertex 10.5269 -15.4484 3
      vertex 17.9944 -12.9613 3
      vertex 17.6707 -12.1562 3
    endloop
  endfacet
  facet normal 0 0 1
    outer loop
      vertex 18.6666 -14.984 3
      vertex 11.3555 -17.3726 3
      vertex 11.5025 -17.6813 3
    endloop
  endfacet
  facet normal 0 0 1
    outer loop
      vertex 18.8658 -16.0056 3
      vertex 18.0443 -18.6228 3
      vertex 18.303 -18.279 3
    endloop
  endfacet
  facet normal 0 0 1
    outer loop
      vertex 18.7911 -15.5275 3
      vertex 17.7387 -18.9572 3
      vertex 18.0443 -18.6228 3
    endloop
  endfacet
  facet normal 0 0 1
    outer loop
      vertex 17.7387 -18.9572 3
      vertex 11.7881 -18.2218 3
      vertex 17.3999 -19.2631 3
    endloop
  endfacet
  facet normal 0 0 1
    outer loop
      vertex 17.3999 -19.2631 3
      vertex 11.7881 -18.2218 3
      vertex 17.0417 -19.522 3
    endloop
  endfacet
  facet normal 0 0 1
    outer loop
      vertex 17.0417 -19.522 3
      vertex 11.7881 -18.2218 3
      vertex 16.6642 -19.7337 3
    endloop
  endfacet
  facet normal 0 0 1
    outer loop
      vertex 16.6642 -19.7337 3
      vertex 11.7881 -18.2218 3
      vertex 16.2674 -19.8985 3
    endloop
  endfacet
  facet normal 0 0 1
    outer loop
      vertex 16.2674 -19.8985 3
      vertex 11.7881 -18.2218 3
      vertex 15.8512 -20.0161 3
    endloop
  endfacet
  facet normal 0 0 1
    outer loop
      vertex 15.4156 -20.0867 3
      vertex 11.7881 -18.2218 3
      vertex 14.9607 -20.1102 3
    endloop
  endfacet
  facet normal -0 -0 1
    outer loop
      vertex 11.9267 -18.4536 3
      vertex 14.9607 -20.1102 3
      vertex 11.7881 -18.2218 3
    endloop
  endfacet
  facet normal 0 0 1
    outer loop
      vertex 14.9607 -20.1102 3
      vertex 11.9267 -18.4536 3
      vertex 14.6951 -20.1033 3
    endloop
  endfacet
  facet normal 0 0 1
    outer loop
      vertex 14.6951 -20.1033 3
      vertex 11.9267 -18.4536 3
      vertex 14.4406 -20.0823 3
    endloop
  endfacet
  facet normal -0 -0 1
    outer loop
      vertex 12.0626 -18.6597 3
      vertex 14.4406 -20.0823 3
      vertex 11.9267 -18.4536 3
    endloop
  endfacet
  facet normal 0 0 1
    outer loop
      vertex 14.1971 -20.0474 3
      vertex 12.0626 -18.6597 3
      vertex 13.9646 -19.9986 3
    endloop
  endfacet
  facet normal 0 0 1
    outer loop
      vertex 13.9646 -19.9986 3
      vertex 12.0626 -18.6597 3
      vertex 13.7433 -19.9357 3
    endloop
  endfacet
  facet normal 0 0 1
    outer loop
      vertex 13.7433 -19.9357 3
      vertex 12.0626 -18.6597 3
      vertex 13.533 -19.859 3
    endloop
  endfacet
  facet normal 0 0 1
    outer loop
      vertex 13.533 -19.859 3
      vertex 12.0626 -18.6597 3
      vertex 13.3337 -19.7682 3
    endloop
  endfacet
  facet normal 0 0 1
    outer loop
      vertex 13.1447 -19.6658 3
      vertex 12.0626 -18.6597 3
      vertex 12.9645 -19.5533 3
    endloop
  endfacet
  facet normal 0 0 1
    outer loop
      vertex 12.9645 -19.5533 3
      vertex 12.0626 -18.6597 3
      vertex 12.7931 -19.4308 3
    endloop
  endfacet
  facet normal 0 0 1
    outer loop
      vertex 12.7931 -19.4308 3
      vertex 12.0626 -18.6597 3
      vertex 12.6305 -19.2982 3
    endloop
  endfacet
  facet normal 0 0 1
    outer loop
      vertex 12.4768 -19.1556 3
      vertex 12.0626 -18.6597 3
      vertex 12.3318 -19.0029 3
    endloop
  endfacet
  facet normal 0 0 1
    outer loop
      vertex 12.3318 -19.0029 3
      vertex 12.0626 -18.6597 3
      vertex 12.1957 -18.8402 3
    endloop
  endfacet
  facet normal 0 0 1
    outer loop
      vertex 12.6305 -19.2982 3
      vertex 12.0626 -18.6597 3
      vertex 12.4768 -19.1556 3
    endloop
  endfacet
  facet normal 0 0 1
    outer loop
      vertex 13.3337 -19.7682 3
      vertex 12.0626 -18.6597 3
      vertex 13.1447 -19.6658 3
    endloop
  endfacet
  facet normal 0 0 1
    outer loop
      vertex 14.4406 -20.0823 3
      vertex 12.0626 -18.6597 3
      vertex 14.1971 -20.0474 3
    endloop
  endfacet
  facet normal 0 0 1
    outer loop
      vertex 15.8512 -20.0161 3
      vertex 11.7881 -18.2218 3
      vertex 15.4156 -20.0867 3
    endloop
  endfacet
  facet normal -0 -0 1
    outer loop
      vertex 11.7881 -18.2218 3
      vertex 17.7387 -18.9572 3
      vertex 11.6467 -17.9643 3
    endloop
  endfacet
  facet normal 0 0 1
    outer loop
      vertex 18.4923 -14.3751 3
      vertex 11.2057 -17.0382 3
      vertex 11.3555 -17.3726 3
    endloop
  endfacet
  facet normal 0 0 1
    outer loop
      vertex 18.2683 -13.7009 3
      vertex 10.7803 -16.0493 3
      vertex 11.2057 -17.0382 3
    endloop
  endfacet
  facet normal 0 0 1
    outer loop
      vertex 17.9944 -12.9613 3
      vertex 10.5269 -15.4484 3
      vertex 10.7803 -16.0493 3
    endloop
  endfacet
  facet normal 0 0 1
    outer loop
      vertex 17.6707 -12.1562 3
      vertex 10.2977 -14.8942 3
      vertex 10.5269 -15.4484 3
    endloop
  endfacet
  facet normal 0 0 1
    outer loop
      vertex 17.6707 -12.1562 3
      vertex 8.40071 -9.87024 3
      vertex 10.2977 -14.8942 3
    endloop
  endfacet
  facet normal -0 0 1
    outer loop
      vertex 6.23271 -3.85425 3
      vertex 17.6707 -12.1562 3
      vertex 7.28972 13.5227 3
    endloop
  endfacet
  facet normal 0 0 1
    outer loop
      vertex 6.23271 -3.85425 3
      vertex 7.28972 13.5227 3
      vertex 6.89241 14.5607 3
    endloop
  endfacet
  facet normal 0 0 1
    outer loop
      vertex 6.23271 -3.85425 3
      vertex 6.89241 14.5607 3
      vertex 6.53706 15.4723 3
    endloop
  endfacet
  facet normal 0 0 1
    outer loop
      vertex 17.6707 -12.1562 3
      vertex 6.23271 -3.85425 3
      vertex 8.40071 -9.87024 3
    endloop
  endfacet
  facet normal -0 0 1
    outer loop
      vertex -5.64027 -3.85425 3
      vertex 8.40071 -9.87024 3
      vertex 6.23271 -3.85425 3
    endloop
  endfacet
  facet normal 0 0 1
    outer loop
      vertex -5.64027 -3.85425 3
      vertex -7.75427 -9.87024 3
      vertex 8.40071 -9.87024 3
    endloop
  endfacet
  facet normal 0 0 1
    outer loop
      vertex -16.8073 -12.3742 3
      vertex -5.64027 -3.85425 3
      vertex -6.64326 13.4688 3
    endloop
  endfacet
  facet normal 0 0 1
    outer loop
      vertex -5.64027 -3.85425 3
      vertex -16.8073 -12.3742 3
      vertex -7.75427 -9.87024 3
    endloop
  endfacet
  facet normal 0 0 1
    outer loop
      vertex -7.75427 -9.87024 3
      vertex -16.8073 -12.3742 3
      vertex -9.65128 -15.0042 3
    endloop
  endfacet
  facet normal -0 0 1
    outer loop
      vertex -16.9783 -12.8024 3
      vertex -9.65128 -15.0042 3
      vertex -16.8073 -12.3742 3
    endloop
  endfacet
  facet normal 0 0 1
    outer loop
      vertex -9.65128 -15.0042 3
      vertex -16.9783 -12.8024 3
      vertex -9.96233 -15.8224 3
    endloop
  endfacet
  facet normal -0 0 1
    outer loop
      vertex -17.135 -13.2029 3
      vertex -9.96233 -15.8224 3
      vertex -16.9783 -12.8024 3
    endloop
  endfacet
  facet normal 0 0 1
    outer loop
      vertex -9.96233 -15.8224 3
      vertex -17.135 -13.2029 3
      vertex -10.2601 -16.561 3
    endloop
  endfacet
  facet normal -0 0 1
    outer loop
      vertex -17.2773 -13.5757 3
      vertex -10.2601 -16.561 3
      vertex -17.135 -13.2029 3
    endloop
  endfacet
  facet normal -0 0 1
    outer loop
      vertex -17.4052 -13.9209 3
      vertex -10.2601 -16.561 3
      vertex -17.2773 -13.5757 3
    endloop
  endfacet
  facet normal 0 0 1
    outer loop
      vertex -10.2601 -16.561 3
      vertex -17.4052 -13.9209 3
      vertex -10.5445 -17.2199 3
    endloop
  endfacet
  facet normal -0 0 1
    outer loop
      vertex -17.5186 -14.2383 3
      vertex -10.5445 -17.2199 3
      vertex -17.4052 -13.9209 3
    endloop
  endfacet
  facet normal -0 0 1
    outer loop
      vertex -17.6176 -14.5281 3
      vertex -10.5445 -17.2199 3
      vertex -17.5186 -14.2383 3
    endloop
  endfacet
  facet normal -0 0 1
    outer loop
      vertex -17.7023 -14.7902 3
      vertex -10.5445 -17.2199 3
      vertex -17.6176 -14.5281 3
    endloop
  endfacet
  facet normal 0 0 1
    outer loop
      vertex -10.5445 -17.2199 3
      vertex -17.7023 -14.7902 3
      vertex -10.8157 -17.7992 3
    endloop
  endfacet
  facet normal -0 0 1
    outer loop
      vertex -17.7742 -15.0372 3
      vertex -10.8157 -17.7992 3
      vertex -17.7023 -14.7902 3
    endloop
  endfacet
  facet normal -0 0 1
    outer loop
      vertex -17.835 -15.2819 3
      vertex -10.8157 -17.7992 3
      vertex -17.7742 -15.0372 3
    endloop
  endfacet
  facet normal -0 0 1
    outer loop
      vertex -17.8848 -15.5245 3
      vertex -10.8157 -17.7992 3
      vertex -17.835 -15.2819 3
    endloop
  endfacet
  facet normal -0 0 1
    outer loop
      vertex -17.9235 -15.7649 3
      vertex -10.8157 -17.7992 3
      vertex -17.8848 -15.5245 3
    endloop
  endfacet
  facet normal 0 -0 1
    outer loop
      vertex -16.8083 -18.9972 3
      vertex -10.8157 -17.7992 3
      vertex -17.9235 -15.7649 3
    endloop
  endfacet
  facet normal 0 -0 1
    outer loop
      vertex -13.6336 -20.0888 3
      vertex -11.0735 -18.2988 3
      vertex -14.1243 -20.1102 3
    endloop
  endfacet
  facet normal 0 -0 1
    outer loop
      vertex -13.1839 -20.0244 3
      vertex -11.318 -18.7189 3
      vertex -13.6336 -20.0888 3
    endloop
  endfacet
  facet normal 0 -0 1
    outer loop
      vertex -12.7751 -19.9172 3
      vertex -11.5493 -19.0592 3
      vertex -13.1839 -20.0244 3
    endloop
  endfacet
  facet normal 0 0 1
    outer loop
      vertex -11.7943 -19.3381 3
      vertex -12.4072 -19.7671 3
      vertex -12.0803 -19.574 3
    endloop
  endfacet
  facet normal 0 0 1
    outer loop
      vertex -11.5493 -19.0592 3
      vertex -12.4072 -19.7671 3
      vertex -11.7943 -19.3381 3
    endloop
  endfacet
  facet normal 0 -0 1
    outer loop
      vertex -12.4072 -19.7671 3
      vertex -11.5493 -19.0592 3
      vertex -12.7751 -19.9172 3
    endloop
  endfacet
  facet normal 0 0 1
    outer loop
      vertex -11.318 -18.7189 3
      vertex -13.1839 -20.0244 3
      vertex -11.5493 -19.0592 3
    endloop
  endfacet
  facet normal 0 0 1
    outer loop
      vertex -11.0735 -18.2988 3
      vertex -13.6336 -20.0888 3
      vertex -11.318 -18.7189 3
    endloop
  endfacet
  facet normal 0 -0 1
    outer loop
      vertex -14.1243 -20.1102 3
      vertex -11.0735 -18.2988 3
      vertex -14.5508 -20.0875 3
    endloop
  endfacet
  facet normal 0 -0 1
    outer loop
      vertex -14.5508 -20.0875 3
      vertex -11.0735 -18.2988 3
      vertex -14.963 -20.0194 3
    endloop
  endfacet
  facet normal 0 -0 1
    outer loop
      vertex -14.963 -20.0194 3
      vertex -11.0735 -18.2988 3
      vertex -15.3608 -19.9058 3
    endloop
  endfacet
  facet normal 0 -0 1
    outer loop
      vertex -15.3608 -19.9058 3
      vertex -11.0735 -18.2988 3
      vertex -15.7442 -19.7468 3
    endloop
  endfacet
  facet normal 0 -0 1
    outer loop
      vertex -16.1133 -19.5424 3
      vertex -11.0735 -18.2988 3
      vertex -16.4679 -19.2925 3
    endloop
  endfacet
  facet normal 0 -0 1
    outer loop
      vertex -15.7442 -19.7468 3
      vertex -11.0735 -18.2988 3
      vertex -16.1133 -19.5424 3
    endloop
  endfacet
  facet normal 0 0 1
    outer loop
      vertex -11.0735 -18.2988 3
      vertex -16.8083 -18.9972 3
      vertex -16.4679 -19.2925 3
    endloop
  endfacet
  facet normal 0 0 1
    outer loop
      vertex -10.8157 -17.7992 3
      vertex -16.8083 -18.9972 3
      vertex -11.0735 -18.2988 3
    endloop
  endfacet
  facet normal -0 0 1
    outer loop
      vertex -17.9511 -16.0032 3
      vertex -16.8083 -18.9972 3
      vertex -17.9235 -15.7649 3
    endloop
  endfacet
  facet normal 0 0 1
    outer loop
      vertex -16.8083 -18.9972 3
      vertex -17.9511 -16.0032 3
      vertex -17.1174 -18.6732 3
    endloop
  endfacet
  facet normal -0 0 1
    outer loop
      vertex -17.9677 -16.2393 3
      vertex -17.1174 -18.6732 3
      vertex -17.9511 -16.0032 3
    endloop
  endfacet
  facet normal 0 0 1
    outer loop
      vertex -17.1174 -18.6732 3
      vertex -17.9677 -16.2393 3
      vertex -17.3789 -18.3369 3
    endloop
  endfacet
  facet normal 0 0 1
    outer loop
      vertex -17.3789 -18.3369 3
      vertex -17.9677 -16.2393 3
      vertex -17.5929 -17.9885 3
    endloop
  endfacet
  facet normal -0 0 1
    outer loop
      vertex -17.9733 -16.4732 3
      vertex -17.5929 -17.9885 3
      vertex -17.9677 -16.2393 3
    endloop
  endfacet
  facet normal 0 0 1
    outer loop
      vertex -17.5929 -17.9885 3
      vertex -17.9733 -16.4732 3
      vertex -17.7593 -17.6279 3
    endloop
  endfacet
  facet normal 0 0 1
    outer loop
      vertex -17.7593 -17.6279 3
      vertex -17.9733 -16.4732 3
      vertex -17.8782 -17.2552 3
    endloop
  endfacet
  facet normal 0 0 1
    outer loop
      vertex -17.8782 -17.2552 3
      vertex -17.9733 -16.4732 3
      vertex -17.9495 -16.8703 3
    endloop
  endfacet
  facet normal 0.160012 -0.987115 0
    outer loop
      vertex 15.4156 -20.0867 1.5
      vertex 15.8512 -20.0161 3
      vertex 15.4156 -20.0867 3
    endloop
  endfacet
  facet normal 0.160012 -0.987115 0
    outer loop
      vertex 15.8512 -20.0161 3
      vertex 15.4156 -20.0867 1.5
      vertex 15.8512 -20.0161 1.5
    endloop
  endfacet
  facet normal 0.272008 -0.962295 0
    outer loop
      vertex 15.8512 -20.0161 1.5
      vertex 16.2674 -19.8985 3
      vertex 15.8512 -20.0161 3
    endloop
  endfacet
  facet normal 0.272008 -0.962295 0
    outer loop
      vertex 16.2674 -19.8985 3
      vertex 15.8512 -20.0161 1.5
      vertex 16.2674 -19.8985 1.5
    endloop
  endfacet
  facet normal 0.383342 -0.923607 0
    outer loop
      vertex 16.2674 -19.8985 1.5
      vertex 16.6642 -19.7337 3
      vertex 16.2674 -19.8985 3
    endloop
  endfacet
  facet normal 0.383342 -0.923607 0
    outer loop
      vertex 16.6642 -19.7337 3
      vertex 16.2674 -19.8985 1.5
      vertex 16.6642 -19.7337 1.5
    endloop
  endfacet
  facet normal 0.489263 -0.872136 0
    outer loop
      vertex 16.6642 -19.7337 1.5
      vertex 17.0417 -19.522 3
      vertex 16.6642 -19.7337 3
    endloop
  endfacet
  facet normal 0.489263 -0.872136 0
    outer loop
      vertex 17.0417 -19.522 3
      vertex 16.6642 -19.7337 1.5
      vertex 17.0417 -19.522 1.5
    endloop
  endfacet
  facet normal 0.585724 -0.810511 0
    outer loop
      vertex 17.0417 -19.522 1.5
      vertex 17.3999 -19.2631 3
      vertex 17.0417 -19.522 3
    endloop
  endfacet
  facet normal 0.585724 -0.810511 0
    outer loop
      vertex 17.3999 -19.2631 3
      vertex 17.0417 -19.522 1.5
      vertex 17.3999 -19.2631 1.5
    endloop
  endfacet
  facet normal 0.670135 -0.742239 0
    outer loop
      vertex 17.3999 -19.2631 1.5
      vertex 17.7387 -18.9572 3
      vertex 17.3999 -19.2631 3
    endloop
  endfacet
  facet normal 0.670135 -0.742239 0
    outer loop
      vertex 17.7387 -18.9572 3
      vertex 17.3999 -19.2631 1.5
      vertex 17.7387 -18.9572 1.5
    endloop
  endfacet
  facet normal 0.73817 -0.674615 0
    outer loop
      vertex 17.7387 -18.9572 3
      vertex 18.0443 -18.6228 1.5
      vertex 18.0443 -18.6228 3
    endloop
  endfacet
  facet normal 0.73817 -0.674615 0
    outer loop
      vertex 18.0443 -18.6228 1.5
      vertex 17.7387 -18.9572 3
      vertex 17.7387 -18.9572 1.5
    endloop
  endfacet
  facet normal 0.799186 -0.601083 0
    outer loop
      vertex 18.0443 -18.6228 3
      vertex 18.303 -18.279 1.5
      vertex 18.303 -18.279 3
    endloop
  endfacet
  facet normal 0.799186 -0.601083 0
    outer loop
      vertex 18.303 -18.279 1.5
      vertex 18.0443 -18.6228 3
      vertex 18.0443 -18.6228 1.5
    endloop
  endfacet
  facet normal 0.857898 -0.51382 0
    outer loop
      vertex 18.303 -18.279 3
      vertex 18.5146 -17.9257 1.5
      vertex 18.5146 -17.9257 3
    endloop
  endfacet
  facet normal 0.857898 -0.51382 0
    outer loop
      vertex 18.5146 -17.9257 1.5
      vertex 18.303 -18.279 3
      vertex 18.303 -18.279 1.5
    endloop
  endfacet
  facet normal 0.910655 -0.413168 0
    outer loop
      vertex 18.5146 -17.9257 3
      vertex 18.6791 -17.563 1.5
      vertex 18.6791 -17.563 3
    endloop
  endfacet
  facet normal 0.910655 -0.413168 0
    outer loop
      vertex 18.6791 -17.563 1.5
      vertex 18.5146 -17.9257 3
      vertex 18.5146 -17.9257 1.5
    endloop
  endfacet
  facet normal 0.953558 -0.30121 0
    outer loop
      vertex 18.6791 -17.563 3
      vertex 18.7967 -17.1908 1.5
      vertex 18.7967 -17.1908 3
    endloop
  endfacet
  facet normal 0.953558 -0.30121 0
    outer loop
      vertex 18.7967 -17.1908 1.5
      vertex 18.6791 -17.563 3
      vertex 18.6791 -17.563 1.5
    endloop
  endfacet
  facet normal 0.983343 -0.181757 0
    outer loop
      vertex 18.7967 -17.1908 3
      vertex 18.8672 -16.8092 1.5
      vertex 18.8672 -16.8092 3
    endloop
  endfacet
  facet normal 0.983343 -0.181757 0
    outer loop
      vertex 18.8672 -16.8092 1.5
      vertex 18.7967 -17.1908 3
      vertex 18.7967 -17.1908 1.5
    endloop
  endfacet
  facet normal 0.998197 -0.0600281 0
    outer loop
      vertex 18.8672 -16.8092 3
      vertex 18.8907 -16.4182 1.5
      vertex 18.8907 -16.4182 3
    endloop
  endfacet
  facet normal 0.998197 -0.0600281 0
    outer loop
      vertex 18.8907 -16.4182 1.5
      vertex 18.8672 -16.8092 3
      vertex 18.8672 -16.8092 1.5
    endloop
  endfacet
  facet normal 0.998184 0.0602321 0
    outer loop
      vertex 18.8907 -16.4182 3
      vertex 18.8658 -16.0056 1.5
      vertex 18.8658 -16.0056 3
    endloop
  endfacet
  facet normal 0.998184 0.0602321 0
    outer loop
      vertex 18.8658 -16.0056 1.5
      vertex 18.8907 -16.4182 3
      vertex 18.8907 -16.4182 1.5
    endloop
  endfacet
  facet normal 0.988015 0.154358 0
    outer loop
      vertex 18.8658 -16.0056 3
      vertex 18.7911 -15.5275 1.5
      vertex 18.7911 -15.5275 3
    endloop
  endfacet
  facet normal 0.988015 0.154358 0
    outer loop
      vertex 18.7911 -15.5275 1.5
      vertex 18.8658 -16.0056 3
      vertex 18.8658 -16.0056 1.5
    endloop
  endfacet
  facet normal 0.974752 0.223292 0
    outer loop
      vertex 18.7911 -15.5275 3
      vertex 18.6666 -14.984 1.5
      vertex 18.6666 -14.984 3
    endloop
  endfacet
  facet normal 0.974752 0.223292 0
    outer loop
      vertex 18.6666 -14.984 1.5
      vertex 18.7911 -15.5275 3
      vertex 18.7911 -15.5275 1.5
    endloop
  endfacet
  facet normal 0.961387 0.275198 0
    outer loop
      vertex 18.6666 -14.984 3
      vertex 18.4923 -14.3751 1.5
      vertex 18.4923 -14.3751 3
    endloop
  endfacet
  facet normal 0.961387 0.275198 0
    outer loop
      vertex 18.4923 -14.3751 1.5
      vertex 18.6666 -14.984 3
      vertex 18.6666 -14.984 1.5
    endloop
  endfacet
  facet normal 0.948966 0.315377 0
    outer loop
      vertex 18.4923 -14.3751 3
      vertex 18.2683 -13.7009 1.5
      vertex 18.2683 -13.7009 3
    endloop
  endfacet
  facet normal 0.948966 0.315377 0
    outer loop
      vertex 18.2683 -13.7009 1.5
      vertex 18.4923 -14.3751 3
      vertex 18.4923 -14.3751 1.5
    endloop
  endfacet
  facet normal 0.937774 0.347247 0
    outer loop
      vertex 18.2683 -13.7009 3
      vertex 17.9944 -12.9613 1.5
      vertex 17.9944 -12.9613 3
    endloop
  endfacet
  facet normal 0.937774 0.347247 0
    outer loop
      vertex 17.9944 -12.9613 1.5
      vertex 18.2683 -13.7009 3
      vertex 18.2683 -13.7009 1.5
    endloop
  endfacet
  facet normal 0.927813 0.373046 0
    outer loop
      vertex 17.9944 -12.9613 3
      vertex 17.6707 -12.1562 1.5
      vertex 17.6707 -12.1562 3
    endloop
  endfacet
  facet normal 0.927813 0.373046 0
    outer loop
      vertex 17.6707 -12.1562 1.5
      vertex 17.9944 -12.9613 3
      vertex 17.9944 -12.9613 1.5
    endloop
  endfacet
  facet normal 0.927108 0.374793 0
    outer loop
      vertex 17.6707 -12.1562 3
      vertex 7.28972 13.5227 1.5
      vertex 7.28972 13.5227 3
    endloop
  endfacet
  facet normal 0.927108 0.374793 0
    outer loop
      vertex 7.28972 13.5227 1.5
      vertex 17.6707 -12.1562 3
      vertex 17.6707 -12.1562 1.5
    endloop
  endfacet
  facet normal 0.93392 0.357483 0
    outer loop
      vertex 7.28972 13.5227 3
      vertex 6.89241 14.5607 1.5
      vertex 6.89241 14.5607 3
    endloop
  endfacet
  facet normal 0.93392 0.357483 0
    outer loop
      vertex 6.89241 14.5607 1.5
      vertex 7.28972 13.5227 3
      vertex 7.28972 13.5227 1.5
    endloop
  endfacet
  facet normal 0.931715 0.363191 0
    outer loop
      vertex 6.89241 14.5607 3
      vertex 6.53706 15.4723 1.5
      vertex 6.53706 15.4723 3
    endloop
  endfacet
  facet normal 0.931715 0.363191 0
    outer loop
      vertex 6.53706 15.4723 1.5
      vertex 6.89241 14.5607 3
      vertex 6.89241 14.5607 1.5
    endloop
  endfacet
  facet normal 0.928765 0.370669 0
    outer loop
      vertex 6.53706 15.4723 3
      vertex 6.22368 16.2575 1.5
      vertex 6.22368 16.2575 3
    endloop
  endfacet
  facet normal 0.928765 0.370669 0
    outer loop
      vertex 6.22368 16.2575 1.5
      vertex 6.53706 15.4723 3
      vertex 6.53706 15.4723 1.5
    endloop
  endfacet
  facet normal 0.925794 0.378027 0
    outer loop
      vertex 6.22368 16.2575 3
      vertex 6.08272 16.6027 1.5
      vertex 6.08272 16.6027 3
    endloop
  endfacet
  facet normal 0.925794 0.378027 0
    outer loop
      vertex 6.08272 16.6027 1.5
      vertex 6.22368 16.2575 3
      vertex 6.22368 16.2575 1.5
    endloop
  endfacet
  facet normal 0.919283 0.393598 0
    outer loop
      vertex 6.08272 16.6027 3
      vertex 5.94286 16.9294 1.5
      vertex 5.94286 16.9294 3
    endloop
  endfacet
  facet normal 0.919283 0.393598 0
    outer loop
      vertex 5.94286 16.9294 1.5
      vertex 6.08272 16.6027 3
      vertex 6.08272 16.6027 1.5
    endloop
  endfacet
  facet normal 0.907121 0.42087 0
    outer loop
      vertex 5.94286 16.9294 3
      vertex 5.79414 17.2499 1.5
      vertex 5.79414 17.2499 3
    endloop
  endfacet
  facet normal 0.907121 0.42087 0
    outer loop
      vertex 5.79414 17.2499 1.5
      vertex 5.94286 16.9294 3
      vertex 5.94286 16.9294 1.5
    endloop
  endfacet
  facet normal 0.894002 0.448064 0
    outer loop
      vertex 5.79414 17.2499 3
      vertex 5.63657 17.5643 1.5
      vertex 5.63657 17.5643 3
    endloop
  endfacet
  facet normal 0.894002 0.448064 0
    outer loop
      vertex 5.63657 17.5643 1.5
      vertex 5.79414 17.2499 3
      vertex 5.79414 17.2499 1.5
    endloop
  endfacet
  facet normal 0.879963 0.475042 0
    outer loop
      vertex 5.63657 17.5643 3
      vertex 5.47014 17.8726 1.5
      vertex 5.47014 17.8726 3
    endloop
  endfacet
  facet normal 0.879963 0.475042 0
    outer loop
      vertex 5.47014 17.8726 1.5
      vertex 5.63657 17.5643 3
      vertex 5.63657 17.5643 1.5
    endloop
  endfacet
  facet normal 0.865007 0.501759 0
    outer loop
      vertex 5.47014 17.8726 3
      vertex 5.29486 18.1748 1.5
      vertex 5.29486 18.1748 3
    endloop
  endfacet
  facet normal 0.865007 0.501759 0
    outer loop
      vertex 5.29486 18.1748 1.5
      vertex 5.47014 17.8726 3
      vertex 5.47014 17.8726 1.5
    endloop
  endfacet
  facet normal 0.84913 0.528184 0
    outer loop
      vertex 5.29486 18.1748 3
      vertex 5.11072 18.4708 1.5
      vertex 5.11072 18.4708 3
    endloop
  endfacet
  facet normal 0.84913 0.528184 0
    outer loop
      vertex 5.11072 18.4708 1.5
      vertex 5.29486 18.1748 3
      vertex 5.29486 18.1748 1.5
    endloop
  endfacet
  facet normal 0.832407 0.554164 0
    outer loop
      vertex 5.11072 18.4708 3
      vertex 4.91771 18.7607 1.5
      vertex 4.91771 18.7607 3
    endloop
  endfacet
  facet normal 0.832407 0.554164 0
    outer loop
      vertex 4.91771 18.7607 1.5
      vertex 5.11072 18.4708 3
      vertex 5.11072 18.4708 1.5
    endloop
  endfacet
  facet normal 0.804743 0.593623 0
    outer loop
      vertex 4.91771 18.7607 3
      vertex 4.71143 19.0404 1.5
      vertex 4.71143 19.0404 3
    endloop
  endfacet
  facet normal 0.804743 0.593623 0
    outer loop
      vertex 4.71143 19.0404 1.5
      vertex 4.91771 18.7607 3
      vertex 4.91771 18.7607 1.5
    endloop
  endfacet
  facet normal 0.76333 0.646009 0
    outer loop
      vertex 4.71143 19.0404 3
      vertex 4.48743 19.3051 1.5
      vertex 4.48743 19.3051 3
    endloop
  endfacet
  facet normal 0.76333 0.646009 0
    outer loop
      vertex 4.48743 19.3051 1.5
      vertex 4.71143 19.0404 3
      vertex 4.71143 19.0404 1.5
    endloop
  endfacet
  facet normal 0.718495 0.695532 0
    outer loop
      vertex 4.48743 19.3051 3
      vertex 4.24571 19.5548 1.5
      vertex 4.24571 19.5548 3
    endloop
  endfacet
  facet normal 0.718495 0.695532 0
    outer loop
      vertex 4.24571 19.5548 1.5
      vertex 4.48743 19.3051 3
      vertex 4.48743 19.3051 1.5
    endloop
  endfacet
  facet normal 0.670895 0.741552 -0
    outer loop
      vertex 4.24571 19.5548 1.5
      vertex 3.98628 19.7895 3
      vertex 4.24571 19.5548 3
    endloop
  endfacet
  facet normal 0.670895 0.741552 0
    outer loop
      vertex 3.98628 19.7895 3
      vertex 4.24571 19.5548 1.5
      vertex 3.98628 19.7895 1.5
    endloop
  endfacet
  facet normal 0.621285 0.783585 -0
    outer loop
      vertex 3.98628 19.7895 1.5
      vertex 3.70914 20.0092 3
      vertex 3.98628 19.7895 3
    endloop
  endfacet
  facet normal 0.621285 0.783585 0
    outer loop
      vertex 3.70914 20.0092 3
      vertex 3.98628 19.7895 1.5
      vertex 3.70914 20.0092 1.5
    endloop
  endfacet
  facet normal 0.570403 0.821365 -0
    outer loop
      vertex 3.70914 20.0092 1.5
      vertex 3.41429 20.214 3
      vertex 3.70914 20.0092 3
    endloop
  endfacet
  facet normal 0.570403 0.821365 0
    outer loop
      vertex 3.41429 20.214 3
      vertex 3.70914 20.0092 1.5
      vertex 3.41429 20.214 1.5
    endloop
  endfacet
  facet normal 0.518968 0.854793 -0
    outer loop
      vertex 3.41429 20.214 1.5
      vertex 3.10172 20.4037 3
      vertex 3.41429 20.214 3
    endloop
  endfacet
  facet normal 0.518968 0.854793 0
    outer loop
      vertex 3.10172 20.4037 3
      vertex 3.41429 20.214 1.5
      vertex 3.10172 20.4037 1.5
    endloop
  endfacet
  facet normal 0.453366 0.891324 -0
    outer loop
      vertex 3.10172 20.4037 1.5
      vertex 2.76894 20.573 3
      vertex 3.10172 20.4037 3
    endloop
  endfacet
  facet normal 0.453366 0.891324 0
    outer loop
      vertex 2.76894 20.573 3
      vertex 3.10172 20.4037 1.5
      vertex 2.76894 20.573 1.5
    endloop
  endfacet
  facet normal 0.37371 0.927546 -0
    outer loop
      vertex 2.76894 20.573 1.5
      vertex 2.41347 20.7162 3
      vertex 2.76894 20.573 3
    endloop
  endfacet
  facet normal 0.37371 0.927546 0
    outer loop
      vertex 2.41347 20.7162 3
      vertex 2.76894 20.573 1.5
      vertex 2.41347 20.7162 1.5
    endloop
  endfacet
  facet normal 0.296003 0.955187 -0
    outer loop
      vertex 2.41347 20.7162 1.5
      vertex 2.03531 20.8334 3
      vertex 2.41347 20.7162 3
    endloop
  endfacet
  facet normal 0.296003 0.955187 0
    outer loop
      vertex 2.03531 20.8334 3
      vertex 2.41347 20.7162 1.5
      vertex 2.03531 20.8334 1.5
    endloop
  endfacet
  facet normal 0.221703 0.975114 -0
    outer loop
      vertex 2.03531 20.8334 1.5
      vertex 1.63445 20.9246 3
      vertex 2.03531 20.8334 3
    endloop
  endfacet
  facet normal 0.221703 0.975114 0
    outer loop
      vertex 1.63445 20.9246 3
      vertex 2.03531 20.8334 1.5
      vertex 1.63445 20.9246 1.5
    endloop
  endfacet
  facet normal 0.151902 0.988396 -0
    outer loop
      vertex 1.63445 20.9246 1.5
      vertex 1.21089 20.9897 3
      vertex 1.63445 20.9246 3
    endloop
  endfacet
  facet normal 0.151902 0.988396 0
    outer loop
      vertex 1.21089 20.9897 3
      vertex 1.63445 20.9246 1.5
      vertex 1.21089 20.9897 1.5
    endloop
  endfacet
  facet normal 0.0872029 0.996191 -0
    outer loop
      vertex 1.21089 20.9897 1.5
      vertex 0.764648 21.0287 3
      vertex 1.21089 20.9897 3
    endloop
  endfacet
  facet normal 0.0872029 0.996191 0
    outer loop
      vertex 0.764648 21.0287 3
      vertex 1.21089 20.9897 1.5
      vertex 0.764648 21.0287 1.5
    endloop
  endfacet
  facet normal 0.0277779 0.999614 -0
    outer loop
      vertex 0.764648 21.0287 1.5
      vertex 0.295715 21.0417 3
      vertex 0.764648 21.0287 3
    endloop
  endfacet
  facet normal 0.0277779 0.999614 0
    outer loop
      vertex 0.295715 21.0417 3
      vertex 0.764648 21.0287 1.5
      vertex 0.295715 21.0417 1.5
    endloop
  endfacet
  facet normal -0.0282248 0.999602 0
    outer loop
      vertex 0.295715 21.0417 1.5
      vertex -0.165787 21.0287 3
      vertex 0.295715 21.0417 3
    endloop
  endfacet
  facet normal -0.0282248 0.999602 0
    outer loop
      vertex -0.165787 21.0287 3
      vertex 0.295715 21.0417 1.5
      vertex -0.165787 21.0287 1.5
    endloop
  endfacet
  facet normal -0.0884392 0.996082 0
    outer loop
      vertex -0.165787 21.0287 1.5
      vertex -0.605743 20.9897 3
      vertex -0.165787 21.0287 3
    endloop
  endfacet
  facet normal -0.0884392 0.996082 0
    outer loop
      vertex -0.605743 20.9897 3
      vertex -0.165787 21.0287 1.5
      vertex -0.605743 20.9897 1.5
    endloop
  endfacet
  facet normal -0.153725 0.988114 0
    outer loop
      vertex -0.605743 20.9897 1.5
      vertex -1.02415 20.9246 3
      vertex -0.605743 20.9897 3
    endloop
  endfacet
  facet normal -0.153725 0.988114 0
    outer loop
      vertex -1.02415 20.9246 3
      vertex -0.605743 20.9897 1.5
      vertex -1.02415 20.9246 1.5
    endloop
  endfacet
  facet normal -0.223833 0.974628 0
    outer loop
      vertex -1.02415 20.9246 1.5
      vertex -1.42101 20.8334 3
      vertex -1.02415 20.9246 3
    endloop
  endfacet
  facet normal -0.223833 0.974628 0
    outer loop
      vertex -1.42101 20.8334 3
      vertex -1.02415 20.9246 1.5
      vertex -1.42101 20.8334 1.5
    endloop
  endfacet
  facet normal -0.298054 0.954549 0
    outer loop
      vertex -1.42101 20.8334 1.5
      vertex -1.79631 20.7162 3
      vertex -1.42101 20.8334 3
    endloop
  endfacet
  facet normal -0.298054 0.954549 0
    outer loop
      vertex -1.79631 20.7162 3
      vertex -1.42101 20.8334 1.5
      vertex -1.79631 20.7162 1.5
    endloop
  endfacet
  facet normal -0.375261 0.926919 0
    outer loop
      vertex -1.79631 20.7162 1.5
      vertex -2.15007 20.573 3
      vertex -1.79631 20.7162 3
    endloop
  endfacet
  facet normal -0.375261 0.926919 0
    outer loop
      vertex -2.15007 20.573 3
      vertex -1.79631 20.7162 1.5
      vertex -2.15007 20.573 1.5
    endloop
  endfacet
  facet normal -0.453994 0.891005 0
    outer loop
      vertex -2.15007 20.573 1.5
      vertex -2.48227 20.4037 3
      vertex -2.15007 20.573 3
    endloop
  endfacet
  facet normal -0.453994 0.891005 0
    outer loop
      vertex -2.48227 20.4037 3
      vertex -2.15007 20.573 1.5
      vertex -2.48227 20.4037 1.5
    endloop
  endfacet
  facet normal -0.520095 0.854108 0
    outer loop
      vertex -2.48227 20.4037 1.5
      vertex -2.79485 20.2134 3
      vertex -2.48227 20.4037 3
    endloop
  endfacet
  facet normal -0.520095 0.854108 0
    outer loop
      vertex -2.79485 20.2134 3
      vertex -2.48227 20.4037 1.5
      vertex -2.79485 20.2134 1.5
    endloop
  endfacet
  facet normal -0.573488 0.819214 0
    outer loop
      vertex -2.79485 20.2134 1.5
      vertex -3.08969 20.007 3
      vertex -2.79485 20.2134 3
    endloop
  endfacet
  facet normal -0.573488 0.819214 0
    outer loop
      vertex -3.08969 20.007 3
      vertex -2.79485 20.2134 1.5
      vertex -3.08969 20.007 1.5
    endloop
  endfacet
  facet normal -0.626019 0.779808 0
    outer loop
      vertex -3.08969 20.007 1.5
      vertex -3.36684 19.7845 3
      vertex -3.08969 20.007 3
    endloop
  endfacet
  facet normal -0.626019 0.779808 0
    outer loop
      vertex -3.36684 19.7845 3
      vertex -3.08969 20.007 1.5
      vertex -3.36684 19.7845 1.5
    endloop
  endfacet
  facet normal -0.676896 0.736079 0
    outer loop
      vertex -3.36684 19.7845 1.5
      vertex -3.62627 19.5459 3
      vertex -3.36684 19.7845 3
    endloop
  endfacet
  facet normal -0.676896 0.736079 0
    outer loop
      vertex -3.62627 19.5459 3
      vertex -3.36684 19.7845 1.5
      vertex -3.62627 19.5459 1.5
    endloop
  endfacet
  facet normal -0.725293 0.68844 0
    outer loop
      vertex -3.86798 19.2913 1.5
      vertex -3.62627 19.5459 3
      vertex -3.62627 19.5459 1.5
    endloop
  endfacet
  facet normal -0.725293 0.68844 0
    outer loop
      vertex -3.62627 19.5459 3
      vertex -3.86798 19.2913 1.5
      vertex -3.86798 19.2913 3
    endloop
  endfacet
  facet normal -0.770477 0.637468 0
    outer loop
      vertex -4.09198 19.0206 1.5
      vertex -3.86798 19.2913 3
      vertex -3.86798 19.2913 1.5
    endloop
  endfacet
  facet normal -0.770477 0.637468 0
    outer loop
      vertex -3.86798 19.2913 3
      vertex -4.09198 19.0206 1.5
      vertex -4.09198 19.0206 3
    endloop
  endfacet
  facet normal -0.811823 0.583903 0
    outer loop
      vertex -4.29826 18.7337 1.5
      vertex -4.09198 19.0206 3
      vertex -4.09198 19.0206 1.5
    endloop
  endfacet
  facet normal -0.811823 0.583903 0
    outer loop
      vertex -4.09198 19.0206 3
      vertex -4.29826 18.7337 1.5
      vertex -4.29826 18.7337 3
    endloop
  endfacet
  facet normal -0.84185 0.539711 0
    outer loop
      vertex -4.49405 18.4284 1.5
      vertex -4.29826 18.7337 3
      vertex -4.29826 18.7337 1.5
    endloop
  endfacet
  facet normal -0.84185 0.539711 0
    outer loop
      vertex -4.29826 18.7337 3
      vertex -4.49405 18.4284 1.5
      vertex -4.49405 18.4284 3
    endloop
  endfacet
  facet normal -0.86183 0.507198 0
    outer loop
      vertex -4.68651 18.1013 1.5
      vertex -4.49405 18.4284 3
      vertex -4.49405 18.4284 1.5
    endloop
  endfacet
  facet normal -0.86183 0.507198 0
    outer loop
      vertex -4.49405 18.4284 3
      vertex -4.68651 18.1013 1.5
      vertex -4.68651 18.1013 3
    endloop
  endfacet
  facet normal -0.878962 0.476892 0
    outer loop
      vertex -4.87567 17.7527 1.5
      vertex -4.68651 18.1013 3
      vertex -4.68651 18.1013 1.5
    endloop
  endfacet
  facet normal -0.878962 0.476892 0
    outer loop
      vertex -4.68651 18.1013 3
      vertex -4.87567 17.7527 1.5
      vertex -4.87567 17.7527 3
    endloop
  endfacet
  facet normal -0.893726 0.448613 0
    outer loop
      vertex -5.06154 17.3824 1.5
      vertex -4.87567 17.7527 3
      vertex -4.87567 17.7527 1.5
    endloop
  endfacet
  facet normal -0.893726 0.448613 0
    outer loop
      vertex -4.87567 17.7527 3
      vertex -5.06154 17.3824 1.5
      vertex -5.06154 17.3824 3
    endloop
  endfacet
  facet normal -0.906498 0.422209 0
    outer loop
      vertex -5.24408 16.9905 1.5
      vertex -5.06154 17.3824 3
      vertex -5.06154 17.3824 1.5
    endloop
  endfacet
  facet normal -0.906498 0.422209 0
    outer loop
      vertex -5.06154 17.3824 3
      vertex -5.24408 16.9905 1.5
      vertex -5.24408 16.9905 3
    endloop
  endfacet
  facet normal -0.917526 0.397675 0
    outer loop
      vertex -5.42332 16.5769 1.5
      vertex -5.24408 16.9905 3
      vertex -5.24408 16.9905 1.5
    endloop
  endfacet
  facet normal -0.917526 0.397675 0
    outer loop
      vertex -5.24408 16.9905 3
      vertex -5.42332 16.5769 1.5
      vertex -5.42332 16.5769 3
    endloop
  endfacet
  facet normal -0.927092 0.374835 0
    outer loop
      vertex -5.59927 16.1417 1.5
      vertex -5.42332 16.5769 3
      vertex -5.42332 16.5769 1.5
    endloop
  endfacet
  facet normal -0.927092 0.374835 0
    outer loop
      vertex -5.42332 16.5769 3
      vertex -5.59927 16.1417 1.5
      vertex -5.59927 16.1417 3
    endloop
  endfacet
  facet normal -0.931474 0.363807 0
    outer loop
      vertex -6.64326 13.4688 1.5
      vertex -5.59927 16.1417 3
      vertex -5.59927 16.1417 1.5
    endloop
  endfacet
  facet normal -0.931474 0.363807 0
    outer loop
      vertex -5.59927 16.1417 3
      vertex -6.64326 13.4688 1.5
      vertex -6.64326 13.4688 3
    endloop
  endfacet
  facet normal -0.930612 0.366008 0
    outer loop
      vertex -16.8073 -12.3742 1.5
      vertex -6.64326 13.4688 3
      vertex -6.64326 13.4688 1.5
    endloop
  endfacet
  facet normal -0.930612 0.366008 0
    outer loop
      vertex -6.64326 13.4688 3
      vertex -16.8073 -12.3742 1.5
      vertex -16.8073 -12.3742 3
    endloop
  endfacet
  facet normal -0.928614 0.371048 0
    outer loop
      vertex -16.9783 -12.8024 1.5
      vertex -16.8073 -12.3742 3
      vertex -16.8073 -12.3742 1.5
    endloop
  endfacet
  facet normal -0.928614 0.371048 0
    outer loop
      vertex -16.8073 -12.3742 3
      vertex -16.9783 -12.8024 1.5
      vertex -16.9783 -12.8024 3
    endloop
  endfacet
  facet normal -0.931274 0.36432 0
    outer loop
      vertex -17.135 -13.2029 1.5
      vertex -16.9783 -12.8024 3
      vertex -16.9783 -12.8024 1.5
    endloop
  endfacet
  facet normal -0.931274 0.36432 0
    outer loop
      vertex -16.9783 -12.8024 3
      vertex -17.135 -13.2029 1.5
      vertex -17.135 -13.2029 3
    endloop
  endfacet
  facet normal -0.934294 0.356503 0
    outer loop
      vertex -17.2773 -13.5757 1.5
      vertex -17.135 -13.2029 3
      vertex -17.135 -13.2029 1.5
    endloop
  endfacet
  facet normal -0.934294 0.356503 0
    outer loop
      vertex -17.135 -13.2029 3
      vertex -17.2773 -13.5757 1.5
      vertex -17.2773 -13.5757 3
    endloop
  endfacet
  facet normal -0.937714 0.347409 0
    outer loop
      vertex -17.4052 -13.9209 1.5
      vertex -17.2773 -13.5757 3
      vertex -17.2773 -13.5757 1.5
    endloop
  endfacet
  facet normal -0.937714 0.347409 0
    outer loop
      vertex -17.2773 -13.5757 3
      vertex -17.4052 -13.9209 1.5
      vertex -17.4052 -13.9209 3
    endloop
  endfacet
  facet normal -0.94168 0.336508 0
    outer loop
      vertex -17.5186 -14.2383 1.5
      vertex -17.4052 -13.9209 3
      vertex -17.4052 -13.9209 1.5
    endloop
  endfacet
  facet normal -0.94168 0.336508 0
    outer loop
      vertex -17.4052 -13.9209 3
      vertex -17.5186 -14.2383 1.5
      vertex -17.5186 -14.2383 3
    endloop
  endfacet
  facet normal -0.946275 0.323364 0
    outer loop
      vertex -17.6176 -14.5281 1.5
      vertex -17.5186 -14.2383 3
      vertex -17.5186 -14.2383 1.5
    endloop
  endfacet
  facet normal -0.946275 0.323364 0
    outer loop
      vertex -17.5186 -14.2383 3
      vertex -17.6176 -14.5281 1.5
      vertex -17.6176 -14.5281 3
    endloop
  endfacet
  facet normal -0.951616 0.307289 0
    outer loop
      vertex -17.7023 -14.7902 1.5
      vertex -17.6176 -14.5281 3
      vertex -17.6176 -14.5281 1.5
    endloop
  endfacet
  facet normal -0.951616 0.307289 0
    outer loop
      vertex -17.6176 -14.5281 3
      vertex -17.7023 -14.7902 1.5
      vertex -17.7023 -14.7902 3
    endloop
  endfacet
  facet normal -0.960124 0.279576 0
    outer loop
      vertex -17.7742 -15.0372 1.5
      vertex -17.7023 -14.7902 3
      vertex -17.7023 -14.7902 1.5
    endloop
  endfacet
  facet normal -0.960124 0.279576 0
    outer loop
      vertex -17.7023 -14.7902 3
      vertex -17.7742 -15.0372 1.5
      vertex -17.7742 -15.0372 3
    endloop
  endfacet
  facet normal -0.970473 0.241212 0
    outer loop
      vertex -17.835 -15.2819 1.5
      vertex -17.7742 -15.0372 3
      vertex -17.7742 -15.0372 1.5
    endloop
  endfacet
  facet normal -0.970473 0.241212 0
    outer loop
      vertex -17.7742 -15.0372 3
      vertex -17.835 -15.2819 1.5
      vertex -17.835 -15.2819 3
    endloop
  endfacet
  facet normal -0.979592 0.200996 0
    outer loop
      vertex -17.8848 -15.5245 1.5
      vertex -17.835 -15.2819 3
      vertex -17.835 -15.2819 1.5
    endloop
  endfacet
  facet normal -0.979592 0.200996 0
    outer loop
      vertex -17.835 -15.2819 3
      vertex -17.8848 -15.5245 1.5
      vertex -17.8848 -15.5245 3
    endloop
  endfacet
  facet normal -0.987285 0.158961 0
    outer loop
      vertex -17.9235 -15.7649 1.5
      vertex -17.8848 -15.5245 3
      vertex -17.8848 -15.5245 1.5
    endloop
  endfacet
  facet normal -0.987285 0.158961 0
    outer loop
      vertex -17.8848 -15.5245 3
      vertex -17.9235 -15.7649 1.5
      vertex -17.9235 -15.7649 3
    endloop
  endfacet
  facet normal -0.993334 0.115269 0
    outer loop
      vertex -17.9511 -16.0032 1.5
      vertex -17.9235 -15.7649 3
      vertex -17.9235 -15.7649 1.5
    endloop
  endfacet
  facet normal -0.993334 0.115269 0
    outer loop
      vertex -17.9235 -15.7649 3
      vertex -17.9511 -16.0032 1.5
      vertex -17.9511 -16.0032 3
    endloop
  endfacet
  facet normal -0.997537 0.0701428 0
    outer loop
      vertex -17.9677 -16.2393 1.5
      vertex -17.9511 -16.0032 3
      vertex -17.9511 -16.0032 1.5
    endloop
  endfacet
  facet normal -0.997537 0.0701428 0
    outer loop
      vertex -17.9511 -16.0032 3
      vertex -17.9677 -16.2393 1.5
      vertex -17.9677 -16.2393 3
    endloop
  endfacet
  facet normal -0.999721 0.0236057 0
    outer loop
      vertex -17.9733 -16.4732 1.5
      vertex -17.9677 -16.2393 3
      vertex -17.9677 -16.2393 1.5
    endloop
  endfacet
  facet normal -0.999721 0.0236057 0
    outer loop
      vertex -17.9677 -16.2393 3
      vertex -17.9733 -16.4732 1.5
      vertex -17.9733 -16.4732 3
    endloop
  endfacet
  facet normal -0.998212 -0.0597654 0
    outer loop
      vertex -17.9495 -16.8703 1.5
      vertex -17.9733 -16.4732 3
      vertex -17.9733 -16.4732 1.5
    endloop
  endfacet
  facet normal -0.998212 -0.0597654 0
    outer loop
      vertex -17.9733 -16.4732 3
      vertex -17.9495 -16.8703 1.5
      vertex -17.9495 -16.8703 3
    endloop
  endfacet
  facet normal -0.983263 -0.182191 0
    outer loop
      vertex -17.8782 -17.2552 1.5
      vertex -17.9495 -16.8703 3
      vertex -17.9495 -16.8703 1.5
    endloop
  endfacet
  facet normal -0.983263 -0.182191 0
    outer loop
      vertex -17.9495 -16.8703 3
      vertex -17.8782 -17.2552 1.5
      vertex -17.8782 -17.2552 3
    endloop
  endfacet
  facet normal -0.952714 -0.303868 0
    outer loop
      vertex -17.7593 -17.6279 1.5
      vertex -17.8782 -17.2552 3
      vertex -17.8782 -17.2552 1.5
    endloop
  endfacet
  facet normal -0.952714 -0.303868 0
    outer loop
      vertex -17.8782 -17.2552 3
      vertex -17.7593 -17.6279 1.5
      vertex -17.7593 -17.6279 3
    endloop
  endfacet
  facet normal -0.907954 -0.41907 0
    outer loop
      vertex -17.5929 -17.9885 1.5
      vertex -17.7593 -17.6279 3
      vertex -17.7593 -17.6279 1.5
    endloop
  endfacet
  facet normal -0.907954 -0.41907 0
    outer loop
      vertex -17.7593 -17.6279 3
      vertex -17.5929 -17.9885 1.5
      vertex -17.5929 -17.9885 3
    endloop
  endfacet
  facet normal -0.852109 -0.523364 0
    outer loop
      vertex -17.3789 -18.3369 1.5
      vertex -17.5929 -17.9885 3
      vertex -17.5929 -17.9885 1.5
    endloop
  endfacet
  facet normal -0.852109 -0.523364 0
    outer loop
      vertex -17.5929 -17.9885 3
      vertex -17.3789 -18.3369 1.5
      vertex -17.3789 -18.3369 3
    endloop
  endfacet
  facet normal -0.789354 -0.613938 0
    outer loop
      vertex -17.1174 -18.6732 1.5
      vertex -17.3789 -18.3369 3
      vertex -17.3789 -18.3369 1.5
    endloop
  endfacet
  facet normal -0.789354 -0.613938 0
    outer loop
      vertex -17.3789 -18.3369 3
      vertex -17.1174 -18.6732 1.5
      vertex -17.1174 -18.6732 3
    endloop
  endfacet
  facet normal -0.723655 -0.690162 0
    outer loop
      vertex -16.8083 -18.9972 1.5
      vertex -17.1174 -18.6732 3
      vertex -17.1174 -18.6732 1.5
    endloop
  endfacet
  facet normal -0.723655 -0.690162 0
    outer loop
      vertex -17.1174 -18.6732 3
      vertex -16.8083 -18.9972 1.5
      vertex -16.8083 -18.9972 3
    endloop
  endfacet
  facet normal -0.655353 -0.755322 0
    outer loop
      vertex -16.8083 -18.9972 1.5
      vertex -16.4679 -19.2925 3
      vertex -16.8083 -18.9972 3
    endloop
  endfacet
  facet normal -0.655353 -0.755322 -0
    outer loop
      vertex -16.4679 -19.2925 3
      vertex -16.8083 -18.9972 1.5
      vertex -16.4679 -19.2925 1.5
    endloop
  endfacet
  facet normal -0.575903 -0.817518 0
    outer loop
      vertex -16.4679 -19.2925 1.5
      vertex -16.1133 -19.5424 3
      vertex -16.4679 -19.2925 3
    endloop
  endfacet
  facet normal -0.575903 -0.817518 -0
    outer loop
      vertex -16.1133 -19.5424 3
      vertex -16.4679 -19.2925 1.5
      vertex -16.1133 -19.5424 1.5
    endloop
  endfacet
  facet normal -0.484531 -0.874774 0
    outer loop
      vertex -16.1133 -19.5424 1.5
      vertex -15.7442 -19.7468 3
      vertex -16.1133 -19.5424 3
    endloop
  endfacet
  facet normal -0.484531 -0.874774 -0
    outer loop
      vertex -15.7442 -19.7468 3
      vertex -16.1133 -19.5424 1.5
      vertex -15.7442 -19.7468 1.5
    endloop
  endfacet
  facet normal -0.383049 -0.923728 0
    outer loop
      vertex -15.7442 -19.7468 1.5
      vertex -15.3608 -19.9058 3
      vertex -15.7442 -19.7468 3
    endloop
  endfacet
  facet normal -0.383049 -0.923728 -0
    outer loop
      vertex -15.3608 -19.9058 3
      vertex -15.7442 -19.7468 1.5
      vertex -15.3608 -19.9058 1.5
    endloop
  endfacet
  facet normal -0.274531 -0.961578 0
    outer loop
      vertex -15.3608 -19.9058 1.5
      vertex -14.963 -20.0194 3
      vertex -15.3608 -19.9058 3
    endloop
  endfacet
  facet normal -0.274531 -0.961578 -0
    outer loop
      vertex -14.963 -20.0194 3
      vertex -15.3608 -19.9058 1.5
      vertex -14.963 -20.0194 1.5
    endloop
  endfacet
  facet normal -0.163119 -0.986606 0
    outer loop
      vertex -14.963 -20.0194 1.5
      vertex -14.5508 -20.0875 3
      vertex -14.963 -20.0194 3
    endloop
  endfacet
  facet normal -0.163119 -0.986606 -0
    outer loop
      vertex -14.5508 -20.0875 3
      vertex -14.963 -20.0194 1.5
      vertex -14.5508 -20.0875 1.5
    endloop
  endfacet
  facet normal -0.0531926 -0.998584 0
    outer loop
      vertex -14.5508 -20.0875 1.5
      vertex -14.1243 -20.1102 3
      vertex -14.5508 -20.0875 3
    endloop
  endfacet
  facet normal -0.0531926 -0.998584 -0
    outer loop
      vertex -14.1243 -20.1102 3
      vertex -14.5508 -20.0875 1.5
      vertex -14.1243 -20.1102 1.5
    endloop
  endfacet
  facet normal 0.0436813 -0.999046 0
    outer loop
      vertex -14.1243 -20.1102 1.5
      vertex -13.6336 -20.0888 3
      vertex -14.1243 -20.1102 3
    endloop
  endfacet
  facet normal 0.0436813 -0.999046 0
    outer loop
      vertex -13.6336 -20.0888 3
      vertex -14.1243 -20.1102 1.5
      vertex -13.6336 -20.0888 1.5
    endloop
  endfacet
  facet normal 0.141638 -0.989919 0
    outer loop
      vertex -13.6336 -20.0888 1.5
      vertex -13.1839 -20.0244 3
      vertex -13.6336 -20.0888 3
    endloop
  endfacet
  facet normal 0.141638 -0.989919 0
    outer loop
      vertex -13.1839 -20.0244 3
      vertex -13.6336 -20.0888 1.5
      vertex -13.1839 -20.0244 1.5
    endloop
  endfacet
  facet normal 0.253741 -0.967272 0
    outer loop
      vertex -13.1839 -20.0244 1.5
      vertex -12.7751 -19.9172 3
      vertex -13.1839 -20.0244 3
    endloop
  endfacet
  facet normal 0.253741 -0.967272 0
    outer loop
      vertex -12.7751 -19.9172 3
      vertex -13.1839 -20.0244 1.5
      vertex -12.7751 -19.9172 1.5
    endloop
  endfacet
  facet normal 0.377897 -0.925848 0
    outer loop
      vertex -12.7751 -19.9172 1.5
      vertex -12.4072 -19.7671 3
      vertex -12.7751 -19.9172 3
    endloop
  endfacet
  facet normal 0.377897 -0.925848 0
    outer loop
      vertex -12.4072 -19.7671 3
      vertex -12.7751 -19.9172 1.5
      vertex -12.4072 -19.7671 1.5
    endloop
  endfacet
  facet normal 0.508454 -0.861089 0
    outer loop
      vertex -12.4072 -19.7671 1.5
      vertex -12.0803 -19.574 3
      vertex -12.4072 -19.7671 3
    endloop
  endfacet
  facet normal 0.508454 -0.861089 0
    outer loop
      vertex -12.0803 -19.574 3
      vertex -12.4072 -19.7671 1.5
      vertex -12.0803 -19.574 1.5
    endloop
  endfacet
  facet normal 0.636404 -0.771356 0
    outer loop
      vertex -12.0803 -19.574 1.5
      vertex -11.7943 -19.3381 3
      vertex -12.0803 -19.574 3
    endloop
  endfacet
  facet normal 0.636404 -0.771356 0
    outer loop
      vertex -11.7943 -19.3381 3
      vertex -12.0803 -19.574 1.5
      vertex -11.7943 -19.3381 1.5
    endloop
  endfacet
  facet normal 0.751146 -0.660136 0
    outer loop
      vertex -11.7943 -19.3381 3
      vertex -11.5493 -19.0592 1.5
      vertex -11.5493 -19.0592 3
    endloop
  endfacet
  facet normal 0.751146 -0.660136 0
    outer loop
      vertex -11.5493 -19.0592 1.5
      vertex -11.7943 -19.3381 3
      vertex -11.7943 -19.3381 1.5
    endloop
  endfacet
  facet normal 0.827193 -0.561918 0
    outer loop
      vertex -11.5493 -19.0592 3
      vertex -11.318 -18.7189 1.5
      vertex -11.318 -18.7189 3
    endloop
  endfacet
  facet normal 0.827193 -0.561918 0
    outer loop
      vertex -11.318 -18.7189 1.5
      vertex -11.5493 -19.0592 3
      vertex -11.5493 -19.0592 1.5
    endloop
  endfacet
  facet normal 0.864222 -0.503111 0
    outer loop
      vertex -11.318 -18.7189 3
      vertex -11.0735 -18.2988 1.5
      vertex -11.0735 -18.2988 3
    endloop
  endfacet
  facet normal 0.864222 -0.503111 0
    outer loop
      vertex -11.0735 -18.2988 1.5
      vertex -11.318 -18.7189 3
      vertex -11.318 -18.7189 1.5
    endloop
  endfacet
  facet normal 0.88865 -0.458586 0
    outer loop
      vertex -11.0735 -18.2988 3
      vertex -10.8157 -17.7992 1.5
      vertex -10.8157 -17.7992 3
    endloop
  endfacet
  facet normal 0.88865 -0.458586 0
    outer loop
      vertex -10.8157 -17.7992 1.5
      vertex -11.0735 -18.2988 3
      vertex -11.0735 -18.2988 1.5
    endloop
  endfacet
  facet normal 0.905703 -0.423913 0
    outer loop
      vertex -10.8157 -17.7992 3
      vertex -10.5445 -17.2199 1.5
      vertex -10.5445 -17.2199 3
    endloop
  endfacet
  facet normal 0.905703 -0.423913 0
    outer loop
      vertex -10.5445 -17.2199 1.5
      vertex -10.8157 -17.7992 3
      vertex -10.8157 -17.7992 1.5
    endloop
  endfacet
  facet normal 0.918103 -0.396343 0
    outer loop
      vertex -10.5445 -17.2199 3
      vertex -10.2601 -16.561 1.5
      vertex -10.2601 -16.561 3
    endloop
  endfacet
  facet normal 0.918103 -0.396343 0
    outer loop
      vertex -10.2601 -16.561 1.5
      vertex -10.5445 -17.2199 3
      vertex -10.5445 -17.2199 1.5
    endloop
  endfacet
  facet normal 0.927458 -0.373927 0
    outer loop
      vertex -10.2601 -16.561 3
      vertex -9.96233 -15.8224 1.5
      vertex -9.96233 -15.8224 3
    endloop
  endfacet
  facet normal 0.927458 -0.373927 0
    outer loop
      vertex -9.96233 -15.8224 1.5
      vertex -10.2601 -16.561 3
      vertex -10.2601 -16.561 1.5
    endloop
  endfacet
  facet normal 0.934731 -0.355355 0
    outer loop
      vertex -9.96233 -15.8224 3
      vertex -9.65128 -15.0042 1.5
      vertex -9.65128 -15.0042 3
    endloop
  endfacet
  facet normal 0.934731 -0.355355 0
    outer loop
      vertex -9.65128 -15.0042 1.5
      vertex -9.96233 -15.8224 3
      vertex -9.96233 -15.8224 1.5
    endloop
  endfacet
  facet normal 0.938015 -0.346595 0
    outer loop
      vertex -9.65128 -15.0042 3
      vertex -7.75427 -9.87024 1.5
      vertex -7.75427 -9.87024 3
    endloop
  endfacet
  facet normal 0.938015 -0.346595 0
    outer loop
      vertex -7.75427 -9.87024 1.5
      vertex -9.65128 -15.0042 3
      vertex -9.65128 -15.0042 1.5
    endloop
  endfacet
  facet normal 0 -1 0
    outer loop
      vertex -7.75427 -9.87024 1.5
      vertex 8.40071 -9.87024 3
      vertex -7.75427 -9.87024 3
    endloop
  endfacet
  facet normal 0 -1 -0
    outer loop
      vertex 8.40071 -9.87024 3
      vertex -7.75427 -9.87024 1.5
      vertex 8.40071 -9.87024 1.5
    endloop
  endfacet
  facet normal -0.935531 -0.353245 0
    outer loop
      vertex 10.2977 -14.8942 1.5
      vertex 8.40071 -9.87024 3
      vertex 8.40071 -9.87024 1.5
    endloop
  endfacet
  facet normal -0.935531 -0.353245 0
    outer loop
      vertex 8.40071 -9.87024 3
      vertex 10.2977 -14.8942 1.5
      vertex 10.2977 -14.8942 3
    endloop
  endfacet
  facet normal -0.92407 -0.382222 0
    outer loop
      vertex 10.5269 -15.4484 1.5
      vertex 10.2977 -14.8942 3
      vertex 10.2977 -14.8942 1.5
    endloop
  endfacet
  facet normal -0.92407 -0.382222 0
    outer loop
      vertex 10.2977 -14.8942 3
      vertex 10.5269 -15.4484 1.5
      vertex 10.5269 -15.4484 3
    endloop
  endfacet
  facet normal -0.92143 -0.388544 0
    outer loop
      vertex 10.7803 -16.0493 1.5
      vertex 10.5269 -15.4484 3
      vertex 10.5269 -15.4484 1.5
    endloop
  endfacet
  facet normal -0.92143 -0.388544 0
    outer loop
      vertex 10.5269 -15.4484 3
      vertex 10.7803 -16.0493 1.5
      vertex 10.7803 -16.0493 3
    endloop
  endfacet
  facet normal -0.918615 -0.395154 0
    outer loop
      vertex 11.2057 -17.0382 1.5
      vertex 10.7803 -16.0493 3
      vertex 10.7803 -16.0493 1.5
    endloop
  endfacet
  facet normal -0.918615 -0.395154 0
    outer loop
      vertex 10.7803 -16.0493 3
      vertex 11.2057 -17.0382 1.5
      vertex 11.2057 -17.0382 3
    endloop
  endfacet
  facet normal -0.912636 -0.408772 0
    outer loop
      vertex 11.3555 -17.3726 1.5
      vertex 11.2057 -17.0382 3
      vertex 11.2057 -17.0382 1.5
    endloop
  endfacet
  facet normal -0.912636 -0.408772 0
    outer loop
      vertex 11.2057 -17.0382 3
      vertex 11.3555 -17.3726 1.5
      vertex 11.3555 -17.3726 3
    endloop
  endfacet
  facet normal -0.902866 -0.429921 0
    outer loop
      vertex 11.5025 -17.6813 1.5
      vertex 11.3555 -17.3726 3
      vertex 11.3555 -17.3726 1.5
    endloop
  endfacet
  facet normal -0.902866 -0.429921 0
    outer loop
      vertex 11.3555 -17.3726 3
      vertex 11.5025 -17.6813 1.5
      vertex 11.5025 -17.6813 3
    endloop
  endfacet
  facet normal -0.891049 -0.453906 0
    outer loop
      vertex 11.6467 -17.9643 1.5
      vertex 11.5025 -17.6813 3
      vertex 11.5025 -17.6813 1.5
    endloop
  endfacet
  facet normal -0.891049 -0.453906 0
    outer loop
      vertex 11.5025 -17.6813 3
      vertex 11.6467 -17.9643 1.5
      vertex 11.6467 -17.9643 3
    endloop
  endfacet
  facet normal -0.876436 -0.481518 0
    outer loop
      vertex 11.7881 -18.2218 1.5
      vertex 11.6467 -17.9643 3
      vertex 11.6467 -17.9643 1.5
    endloop
  endfacet
  facet normal -0.876436 -0.481518 0
    outer loop
      vertex 11.6467 -17.9643 3
      vertex 11.7881 -18.2218 1.5
      vertex 11.7881 -18.2218 3
    endloop
  endfacet
  facet normal -0.85818 -0.513349 0
    outer loop
      vertex 11.9267 -18.4536 1.5
      vertex 11.7881 -18.2218 3
      vertex 11.7881 -18.2218 1.5
    endloop
  endfacet
  facet normal -0.85818 -0.513349 0
    outer loop
      vertex 11.7881 -18.2218 3
      vertex 11.9267 -18.4536 1.5
      vertex 11.9267 -18.4536 3
    endloop
  endfacet
  facet normal -0.834986 -0.550271 0
    outer loop
      vertex 12.0626 -18.6597 1.5
      vertex 11.9267 -18.4536 3
      vertex 11.9267 -18.4536 1.5
    endloop
  endfacet
  facet normal -0.834986 -0.550271 0
    outer loop
      vertex 11.9267 -18.4536 3
      vertex 12.0626 -18.6597 1.5
      vertex 12.0626 -18.6597 3
    endloop
  endfacet
  facet normal -0.80488 -0.593438 0
    outer loop
      vertex 12.1957 -18.8402 1.5
      vertex 12.0626 -18.6597 3
      vertex 12.0626 -18.6597 1.5
    endloop
  endfacet
  facet normal -0.80488 -0.593438 0
    outer loop
      vertex 12.0626 -18.6597 3
      vertex 12.1957 -18.8402 1.5
      vertex 12.1957 -18.8402 3
    endloop
  endfacet
  facet normal -0.766946 -0.641711 0
    outer loop
      vertex 12.3318 -19.0029 1.5
      vertex 12.1957 -18.8402 3
      vertex 12.1957 -18.8402 1.5
    endloop
  endfacet
  facet normal -0.766946 -0.641711 0
    outer loop
      vertex 12.1957 -18.8402 3
      vertex 12.3318 -19.0029 1.5
      vertex 12.3318 -19.0029 3
    endloop
  endfacet
  facet normal -0.725208 -0.68853 0
    outer loop
      vertex 12.4768 -19.1556 1.5
      vertex 12.3318 -19.0029 3
      vertex 12.3318 -19.0029 1.5
    endloop
  endfacet
  facet normal -0.725208 -0.68853 0
    outer loop
      vertex 12.3318 -19.0029 3
      vertex 12.4768 -19.1556 1.5
      vertex 12.4768 -19.1556 3
    endloop
  endfacet
  facet normal -0.680013 -0.7332 0
    outer loop
      vertex 12.4768 -19.1556 1.5
      vertex 12.6305 -19.2982 3
      vertex 12.4768 -19.1556 3
    endloop
  endfacet
  facet normal -0.680013 -0.7332 -0
    outer loop
      vertex 12.6305 -19.2982 3
      vertex 12.4768 -19.1556 1.5
      vertex 12.6305 -19.2982 1.5
    endloop
  endfacet
  facet normal -0.631977 -0.774987 0
    outer loop
      vertex 12.6305 -19.2982 1.5
      vertex 12.7931 -19.4308 3
      vertex 12.6305 -19.2982 3
    endloop
  endfacet
  facet normal -0.631977 -0.774987 -0
    outer loop
      vertex 12.7931 -19.4308 3
      vertex 12.6305 -19.2982 1.5
      vertex 12.7931 -19.4308 1.5
    endloop
  endfacet
  facet normal -0.581581 -0.813489 0
    outer loop
      vertex 12.7931 -19.4308 1.5
      vertex 12.9645 -19.5533 3
      vertex 12.7931 -19.4308 3
    endloop
  endfacet
  facet normal -0.581581 -0.813489 -0
    outer loop
      vertex 12.9645 -19.5533 3
      vertex 12.7931 -19.4308 1.5
      vertex 12.9645 -19.5533 1.5
    endloop
  endfacet
  facet normal -0.529521 -0.848297 0
    outer loop
      vertex 12.9645 -19.5533 1.5
      vertex 13.1447 -19.6658 3
      vertex 12.9645 -19.5533 3
    endloop
  endfacet
  facet normal -0.529521 -0.848297 -0
    outer loop
      vertex 13.1447 -19.6658 3
      vertex 12.9645 -19.5533 1.5
      vertex 13.1447 -19.6658 1.5
    endloop
  endfacet
  facet normal -0.476578 -0.879132 0
    outer loop
      vertex 13.1447 -19.6658 1.5
      vertex 13.3337 -19.7682 3
      vertex 13.1447 -19.6658 3
    endloop
  endfacet
  facet normal -0.476578 -0.879132 -0
    outer loop
      vertex 13.3337 -19.7682 3
      vertex 13.1447 -19.6658 1.5
      vertex 13.3337 -19.7682 1.5
    endloop
  endfacet
  facet normal -0.414412 -0.910089 0
    outer loop
      vertex 13.3337 -19.7682 1.5
      vertex 13.533 -19.859 3
      vertex 13.3337 -19.7682 3
    endloop
  endfacet
  facet normal -0.414412 -0.910089 -0
    outer loop
      vertex 13.533 -19.859 3
      vertex 13.3337 -19.7682 1.5
      vertex 13.533 -19.859 1.5
    endloop
  endfacet
  facet normal -0.342887 -0.939377 0
    outer loop
      vertex 13.533 -19.859 1.5
      vertex 13.7433 -19.9357 3
      vertex 13.533 -19.859 3
    endloop
  endfacet
  facet normal -0.342887 -0.939377 -0
    outer loop
      vertex 13.7433 -19.9357 3
      vertex 13.533 -19.859 1.5
      vertex 13.7433 -19.9357 1.5
    endloop
  endfacet
  facet normal -0.273013 -0.96201 0
    outer loop
      vertex 13.7433 -19.9357 1.5
      vertex 13.9646 -19.9986 3
      vertex 13.7433 -19.9357 3
    endloop
  endfacet
  facet normal -0.273013 -0.96201 -0
    outer loop
      vertex 13.9646 -19.9986 3
      vertex 13.7433 -19.9357 1.5
      vertex 13.9646 -19.9986 1.5
    endloop
  endfacet
  facet normal -0.205706 -0.978614 0
    outer loop
      vertex 13.9646 -19.9986 1.5
      vertex 14.1971 -20.0474 3
      vertex 13.9646 -19.9986 3
    endloop
  endfacet
  facet normal -0.205706 -0.978614 -0
    outer loop
      vertex 14.1971 -20.0474 3
      vertex 13.9646 -19.9986 1.5
      vertex 14.1971 -20.0474 1.5
    endloop
  endfacet
  facet normal -0.141873 -0.989885 0
    outer loop
      vertex 14.1971 -20.0474 1.5
      vertex 14.4406 -20.0823 3
      vertex 14.1971 -20.0474 3
    endloop
  endfacet
  facet normal -0.141873 -0.989885 -0
    outer loop
      vertex 14.4406 -20.0823 3
      vertex 14.1971 -20.0474 1.5
      vertex 14.4406 -20.0823 1.5
    endloop
  endfacet
  facet normal -0.0819676 -0.996635 0
    outer loop
      vertex 14.4406 -20.0823 1.5
      vertex 14.6951 -20.1033 3
      vertex 14.4406 -20.0823 3
    endloop
  endfacet
  facet normal -0.0819676 -0.996635 -0
    outer loop
      vertex 14.6951 -20.1033 3
      vertex 14.4406 -20.0823 1.5
      vertex 14.6951 -20.1033 1.5
    endloop
  endfacet
  facet normal -0.0263022 -0.999654 0
    outer loop
      vertex 14.6951 -20.1033 1.5
      vertex 14.9607 -20.1102 3
      vertex 14.6951 -20.1033 3
    endloop
  endfacet
  facet normal -0.0263022 -0.999654 -0
    outer loop
      vertex 14.9607 -20.1102 3
      vertex 14.6951 -20.1033 1.5
      vertex 14.9607 -20.1102 1.5
    endloop
  endfacet
  facet normal 0.0516534 -0.998665 0
    outer loop
      vertex 14.9607 -20.1102 1.5
      vertex 15.4156 -20.0867 3
      vertex 14.9607 -20.1102 3
    endloop
  endfacet
  facet normal 0.0516534 -0.998665 0
    outer loop
      vertex 15.4156 -20.0867 3
      vertex 14.9607 -20.1102 1.5
      vertex 15.4156 -20.0867 1.5
    endloop
  endfacet
  facet normal 0.941184 -0.337893 0
    outer loop
      vertex -5.64027 -3.85425 3
      vertex 0.241714 12.5297 1.5
      vertex 0.241714 12.5297 3
    endloop
  endfacet
  facet normal 0.941184 -0.337893 0
    outer loop
      vertex 0.241714 12.5297 1.5
      vertex -5.64027 -3.85425 3
      vertex -5.64027 -3.85425 1.5
    endloop
  endfacet
  facet normal -0.939181 -0.343423 0
    outer loop
      vertex 6.23271 -3.85425 1.5
      vertex 0.241714 12.5297 3
      vertex 0.241714 12.5297 1.5
    endloop
  endfacet
  facet normal -0.939181 -0.343423 0
    outer loop
      vertex 0.241714 12.5297 3
      vertex 6.23271 -3.85425 1.5
      vertex 6.23271 -3.85425 3
    endloop
  endfacet
  facet normal 0 1 -0
    outer loop
      vertex 6.23271 -3.85425 1.5
      vertex -5.64027 -3.85425 3
      vertex 6.23271 -3.85425 3
    endloop
  endfacet
  facet normal 0 1 0
    outer loop
      vertex -5.64027 -3.85425 3
      vertex 6.23271 -3.85425 1.5
      vertex -5.64027 -3.85425 1.5
    endloop
  endfacet
endsolid OpenSCAD_Model
