solid OpenSCAD_Model
  facet normal -1 0 0
    outer loop
      vertex -25 -25 -1
      vertex -25 25 23.2
      vertex -25 25 -1
    endloop
  endfacet
  facet normal -1 -0 0
    outer loop
      vertex -25 25 23.2
      vertex -25 -25 -1
      vertex -25 -25 23.2
    endloop
  endfacet
  facet normal 3.38507e-24 1.22465e-16 1
    outer loop
      vertex 17.2601 -15.6782 1.92003e-15
      vertex 24 -24 2.93915e-15
      vertex 24 24 -2.93915e-15
    endloop
  endfacet
  facet normal -2.52095e-22 1.22464e-16 1
    outer loop
      vertex 24 -24 2.93915e-15
      vertex 17.6104 -16.887 2.06806e-15
      vertex 17.6339 -17.3395 2.12348e-15
    endloop
  endfacet
  facet normal 5.10474e-22 1.22465e-16 1
    outer loop
      vertex 24 -24 2.93915e-15
      vertex 17.5403 -16.4588 2.01563e-15
      vertex 17.6104 -16.887 2.06806e-15
    endloop
  endfacet
  facet normal -1.39637e-22 1.22465e-16 1
    outer loop
      vertex 24 -24 2.93915e-15
      vertex 17.4351 -16.0916 1.97065e-15
      vertex 17.5403 -16.4588 2.01563e-15
    endloop
  endfacet
  facet normal 5.90555e-22 1.22465e-16 1
    outer loop
      vertex 24 -24 2.93915e-15
      vertex 17.4234 -16.0558 1.96626e-15
      vertex 17.4351 -16.0916 1.97065e-15
    endloop
  endfacet
  facet normal -3.85138e-22 1.22464e-16 1
    outer loop
      vertex 24 -24 2.93915e-15
      vertex 17.2761 -15.7123 1.9242e-15
      vertex 17.4234 -16.0558 1.96626e-15
    endloop
  endfacet
  facet normal 8.2896e-22 1.22465e-16 1
    outer loop
      vertex 24 -24 2.93915e-15
      vertex 17.2601 -15.6782 1.92003e-15
      vertex 17.2761 -15.7123 1.9242e-15
    endloop
  endfacet
  facet normal 3.1421e-22 1.22465e-16 1
    outer loop
      vertex 24 24 -2.93915e-15
      vertex 17.0707 -15.3586 1.88089e-15
      vertex 17.2601 -15.6782 1.92003e-15
    endloop
  endfacet
  facet normal 8.507e-22 1.22465e-16 1
    outer loop
      vertex 24 24 -2.93915e-15
      vertex 17.0505 -15.3268 1.877e-15
      vertex 17.0707 -15.3586 1.88089e-15
    endloop
  endfacet
  facet normal -8.51177e-23 1.22465e-16 1
    outer loop
      vertex 24 24 -2.93915e-15
      vertex 16.7951 -15.0021 1.83722e-15
      vertex 17.0505 -15.3268 1.877e-15
    endloop
  endfacet
  facet normal 9.98063e-24 1.22465e-16 1
    outer loop
      vertex 24 24 -2.93915e-15
      vertex 16.4941 -14.7043 1.80076e-15
      vertex 16.7951 -15.0021 1.83722e-15
    endloop
  endfacet
  facet normal -2.19904e-22 1.22465e-16 1
    outer loop
      vertex 24 24 -2.93915e-15
      vertex 16.1483 -14.4408 1.76848e-15
      vertex 16.4941 -14.7043 1.80076e-15
    endloop
  endfacet
  facet normal 1.85378e-22 1.22465e-16 1
    outer loop
      vertex 24 24 -2.93915e-15
      vertex 15.7578 -14.2183 1.74124e-15
      vertex 16.1483 -14.4408 1.76848e-15
    endloop
  endfacet
  facet normal -1.50483e-22 1.22465e-16 1
    outer loop
      vertex 24 24 -2.93915e-15
      vertex 15.3232 -14.0373 1.71908e-15
      vertex 15.7578 -14.2183 1.74124e-15
    endloop
  endfacet
  facet normal 1.62553e-24 1.22465e-16 1
    outer loop
      vertex 4.72285 14.8575 -1.81952e-15
      vertex 15.3232 -14.0373 1.71908e-15
      vertex 24 24 -2.93915e-15
    endloop
  endfacet
  facet normal -7.88974e-26 1.22465e-16 1
    outer loop
      vertex 15.3232 -14.0373 1.71908e-15
      vertex 4.72285 14.8575 -1.81952e-15
      vertex 14.8814 -13.9073 1.70316e-15
    endloop
  endfacet
  facet normal 1.58989e-21 1.22465e-16 1
    outer loop
      vertex 14.8814 -13.9073 1.70316e-15
      vertex 4.72285 14.8575 -1.81952e-15
      vertex 14.845 -13.898 1.70201e-15
    endloop
  endfacet
  facet normal -1.49889e-23 1.22465e-16 1
    outer loop
      vertex 14.845 -13.898 1.70201e-15
      vertex 4.72285 14.8575 -1.81952e-15
      vertex 14.3611 -13.8051 1.69064e-15
    endloop
  endfacet
  facet normal -4.51673e-23 1.22465e-16 1
    outer loop
      vertex 14.3611 -13.8051 1.69064e-15
      vertex 4.72285 14.8575 -1.81952e-15
      vertex 13.7978 -13.7447 1.68324e-15
    endloop
  endfacet
  facet normal -2.68881e-23 1.22465e-16 1
    outer loop
      vertex 13.7978 -13.7447 1.68324e-15
      vertex 4.72285 14.8575 -1.81952e-15
      vertex 13.2297 -13.7261 1.68096e-15
    endloop
  endfacet
  facet normal -2.36096e-23 1.22465e-16 1
    outer loop
      vertex 24 24 -2.93915e-15
      vertex 4.70024 15.5441 -1.9036e-15
      vertex 4.72285 14.8575 -1.81952e-15
    endloop
  endfacet
  facet normal -9.78888e-22 1.22467e-16 1
    outer loop
      vertex 24 24 -2.93915e-15
      vertex 4.69788 15.5817 -1.9082e-15
      vertex 4.70024 15.5441 -1.9036e-15
    endloop
  endfacet
  facet normal 4.94735e-23 1.22465e-16 1
    outer loop
      vertex 24 24 -2.93915e-15
      vertex 4.63004 16.2157 -1.98585e-15
      vertex 4.69788 15.5817 -1.9082e-15
    endloop
  endfacet
  facet normal -5.61813e-23 1.22465e-16 1
    outer loop
      vertex 24 24 -2.93915e-15
      vertex 4.50993 16.8341 -2.06158e-15
      vertex 4.63004 16.2157 -1.98585e-15
    endloop
  endfacet
  facet normal 7.46688e-23 1.22464e-16 1
    outer loop
      vertex 24 24 -2.93915e-15
      vertex 4.34 17.3988 -2.13074e-15
      vertex 4.50993 16.8341 -2.06158e-15
    endloop
  endfacet
  facet normal -9.5993e-23 1.22465e-16 1
    outer loop
      vertex 24 24 -2.93915e-15
      vertex 4.13649 17.8751 -2.18906e-15
      vertex 4.34 17.3988 -2.13074e-15
    endloop
  endfacet
  facet normal -8.03971e-23 1.22465e-16 1
    outer loop
      vertex 24 24 -2.93915e-15
      vertex 4.12044 17.9091 -2.19324e-15
      vertex 4.13649 17.8751 -2.18906e-15
    endloop
  endfacet
  facet normal 1.00254e-22 1.22464e-16 1
    outer loop
      vertex 24 24 -2.93915e-15
      vertex 3.8717 18.3329 -2.24513e-15
      vertex 4.12044 17.9091 -2.19324e-15
    endloop
  endfacet
  facet normal -1.42419e-21 1.2247e-16 1
    outer loop
      vertex 24 24 -2.93915e-15
      vertex 3.85152 18.3647 -2.24903e-15
      vertex 3.8717 18.3329 -2.24513e-15
    endloop
  endfacet
  facet normal 8.74966e-23 1.22464e-16 1
    outer loop
      vertex 24 24 -2.93915e-15
      vertex 3.53355 18.7648 -2.29803e-15
      vertex 3.85152 18.3647 -2.24903e-15
    endloop
  endfacet
  facet normal -5.06026e-23 1.22465e-16 1
    outer loop
      vertex 24 24 -2.93915e-15
      vertex 3.17627 19.1109 -2.3404e-15
      vertex 3.53355 18.7648 -2.29803e-15
    endloop
  endfacet
  facet normal -2.39803e-23 1.22465e-16 1
    outer loop
      vertex 24 24 -2.93915e-15
      vertex 2.78947 19.404 -2.3763e-15
      vertex 3.17627 19.1109 -2.3404e-15
    endloop
  endfacet
  facet normal 8.62655e-23 1.22464e-16 1
    outer loop
      vertex 24 24 -2.93915e-15
      vertex 2.37369 19.6438 -2.40567e-15
      vertex 2.78947 19.404 -2.3763e-15
    endloop
  endfacet
  facet normal -8.54577e-23 1.22465e-16 1
    outer loop
      vertex 24 24 -2.93915e-15
      vertex 1.92937 19.8301 -2.42849e-15
      vertex 2.37369 19.6438 -2.40567e-15
    endloop
  endfacet
  facet normal -5.77754e-23 1.22465e-16 1
    outer loop
      vertex 24 24 -2.93915e-15
      vertex 1.45711 19.9626 -2.44472e-15
      vertex 1.92937 19.8301 -2.42849e-15
    endloop
  endfacet
  facet normal 2.1349e-23 1.22465e-16 1
    outer loop
      vertex 24 24 -2.93915e-15
      vertex 0.994843 20.0365 -2.45377e-15
      vertex 1.45711 19.9626 -2.44472e-15
    endloop
  endfacet
  facet normal 1.95079e-21 1.22453e-16 1
    outer loop
      vertex 24 24 -2.93915e-15
      vertex 0.957458 20.0413 -2.45435e-15
      vertex 0.994843 20.0365 -2.45377e-15
    endloop
  endfacet
  facet normal -8.07933e-23 1.22465e-16 1
    outer loop
      vertex 24 24 -2.93915e-15
      vertex 0.468704 20.0659 -2.45736e-15
      vertex 0.957458 20.0413 -2.45435e-15
    endloop
  endfacet
  facet normal 0 1.22465e-16 1
    outer loop
      vertex 24 24 -2.93915e-15
      vertex 0.431046 20.0659 -2.45736e-15
      vertex 0.468704 20.0659 -2.45736e-15
    endloop
  endfacet
  facet normal -0 1.22465e-16 1
    outer loop
      vertex -24 24 -2.93915e-15
      vertex 0.431046 20.0659 -2.45736e-15
      vertex 24 24 -2.93915e-15
    endloop
  endfacet
  facet normal 1.30638e-22 1.22465e-16 1
    outer loop
      vertex 0.431046 20.0659 -2.45736e-15
      vertex -24 24 -2.93915e-15
      vertex -0.065155 20.041 -2.45431e-15
    endloop
  endfacet
  facet normal -1.91994e-21 1.22453e-16 1
    outer loop
      vertex -0.065155 20.041 -2.45431e-15
      vertex -24 24 -2.93915e-15
      vertex -0.102539 20.0363 -2.45374e-15
    endloop
  endfacet
  facet normal 0 1.22465e-16 1
    outer loop
      vertex -3.87711 14.8575 -1.81952e-15
      vertex -12.3849 -13.7261 1.68096e-15
      vertex -3.87711 -13.7261 1.68096e-15
    endloop
  endfacet
  facet normal 2.51231e-24 1.22465e-16 1
    outer loop
      vertex -24 24 -2.93915e-15
      vertex -3.87711 14.8575 -1.81952e-15
      vertex -3.85423 15.5372 -1.90276e-15
    endloop
  endfacet
  facet normal 9.38087e-22 1.22467e-16 1
    outer loop
      vertex -24 24 -2.93915e-15
      vertex -3.85423 15.5372 -1.90276e-15
      vertex -3.85187 15.5748 -1.90736e-15
    endloop
  endfacet
  facet normal -2.81175e-23 1.22465e-16 1
    outer loop
      vertex -24 24 -2.93915e-15
      vertex -3.85187 15.5748 -1.90736e-15
      vertex -3.78323 16.2036 -1.98437e-15
    endloop
  endfacet
  facet normal -1.19904e-23 1.22465e-16 1
    outer loop
      vertex -24 24 -2.93915e-15
      vertex -3.78323 16.2036 -1.98437e-15
      vertex -3.66179 16.8185 -2.05967e-15
    endloop
  endfacet
  facet normal 2.69261e-23 1.22465e-16 1
    outer loop
      vertex -3.87711 14.8575 -1.81952e-15
      vertex -12.9522 -13.7447 1.68324e-15
      vertex -12.3849 -13.7261 1.68096e-15
    endloop
  endfacet
  facet normal 4.53185e-23 1.22465e-16 1
    outer loop
      vertex -3.87711 14.8575 -1.81952e-15
      vertex -13.5138 -13.8051 1.69064e-15
      vertex -12.9522 -13.7447 1.68324e-15
    endloop
  endfacet
  facet normal -6.323e-24 1.22465e-16 1
    outer loop
      vertex -24 24 -2.93915e-15
      vertex -3.66179 16.8185 -2.05967e-15
      vertex -3.49001 17.3813 -2.1286e-15
    endloop
  endfacet
  facet normal 1.50833e-23 1.22465e-16 1
    outer loop
      vertex -3.87711 14.8575 -1.81952e-15
      vertex -13.9948 -13.898 1.70201e-15
      vertex -13.5138 -13.8051 1.69064e-15
    endloop
  endfacet
  facet normal -1.58982e-21 1.22465e-16 1
    outer loop
      vertex -3.87711 14.8575 -1.81952e-15
      vertex -14.0312 -13.9073 1.70316e-15
      vertex -13.9948 -13.898 1.70201e-15
    endloop
  endfacet
  facet normal -1.56715e-24 1.22465e-16 1
    outer loop
      vertex -3.87711 14.8575 -1.81952e-15
      vertex -24 24 -2.93915e-15
      vertex -14.4691 -14.0373 1.71908e-15
    endloop
  endfacet
  facet normal 7.96705e-26 1.22465e-16 1
    outer loop
      vertex -3.87711 14.8575 -1.81952e-15
      vertex -14.4691 -14.0373 1.71908e-15
      vertex -14.0312 -13.9073 1.70316e-15
    endloop
  endfacet
  facet normal 1.50742e-22 1.22465e-16 1
    outer loop
      vertex -14.4691 -14.0373 1.71908e-15
      vertex -24 24 -2.93915e-15
      vertex -14.8988 -14.2183 1.74124e-15
    endloop
  endfacet
  facet normal -1.85756e-22 1.22465e-16 1
    outer loop
      vertex -14.8988 -14.2183 1.74124e-15
      vertex -24 24 -2.93915e-15
      vertex -15.2834 -14.4408 1.76848e-15
    endloop
  endfacet
  facet normal 1.85781e-21 1.22465e-16 1
    outer loop
      vertex -15.2834 -14.4408 1.76848e-15
      vertex -24 24 -2.93915e-15
      vertex -15.3139 -14.4629 1.7712e-15
    endloop
  endfacet
  facet normal 5.92486e-23 1.22465e-16 1
    outer loop
      vertex -15.3139 -14.4629 1.7712e-15
      vertex -24 24 -2.93915e-15
      vertex -15.6223 -14.7043 1.80076e-15
    endloop
  endfacet
  facet normal -2.70468e-21 1.22464e-16 1
    outer loop
      vertex -15.6223 -14.7043 1.80076e-15
      vertex -24 24 -2.93915e-15
      vertex -15.6498 -14.7301 1.80392e-15
    endloop
  endfacet
  facet normal 2.65951e-22 1.22465e-16 1
    outer loop
      vertex -15.6498 -14.7301 1.80392e-15
      vertex -24 24 -2.93915e-15
      vertex -15.9162 -15.0021 1.83722e-15
    endloop
  endfacet
  facet normal -1.53952e-21 1.22464e-16 1
    outer loop
      vertex -15.9162 -15.0021 1.83722e-15
      vertex -24 24 -2.93915e-15
      vertex -15.9402 -15.0311 1.84078e-15
    endloop
  endfacet
  facet normal 2.56275e-22 1.22465e-16 1
    outer loop
      vertex -15.9402 -15.0311 1.84078e-15
      vertex -24 24 -2.93915e-15
      vertex -16.1656 -15.3268 1.877e-15
    endloop
  endfacet
  facet normal -8.27739e-22 1.22465e-16 1
    outer loop
      vertex -16.1656 -15.3268 1.877e-15
      vertex -24 24 -2.93915e-15
      vertex -16.1857 -15.3586 1.88089e-15
    endloop
  endfacet
  facet normal -1.26933e-23 1.22465e-16 1
    outer loop
      vertex -24 -24 2.93915e-15
      vertex -16.1857 -15.3586 1.88089e-15
      vertex -24 24 -2.93915e-15
    endloop
  endfacet
  facet normal 6.95158e-22 1.22464e-16 1
    outer loop
      vertex -16.1857 -15.3586 1.88089e-15
      vertex -24 -24 2.93915e-15
      vertex -16.3702 -15.6782 1.92003e-15
    endloop
  endfacet
  facet normal -1.1963e-22 1.22465e-16 1
    outer loop
      vertex -16.6508 -16.4958 2.02016e-15
      vertex -24 -24 2.93915e-15
      vertex -16.7122 -16.887 2.06806e-15
    endloop
  endfacet
  facet normal -4.10132e-21 1.22469e-16 1
    outer loop
      vertex -16.6437 -16.4588 2.01563e-15
      vertex -24 -24 2.93915e-15
      vertex -16.6508 -16.4958 2.02016e-15
    endloop
  endfacet
  facet normal 1.14302e-22 1.22465e-16 1
    outer loop
      vertex -16.5413 -16.0916 1.97065e-15
      vertex -24 -24 2.93915e-15
      vertex -16.6437 -16.4588 2.01563e-15
    endloop
  endfacet
  facet normal -4.82587e-22 1.22465e-16 1
    outer loop
      vertex -16.5296 -16.0558 1.96626e-15
      vertex -24 -24 2.93915e-15
      vertex -16.5413 -16.0916 1.97065e-15
    endloop
  endfacet
  facet normal 2.93932e-22 1.22464e-16 1
    outer loop
      vertex -16.3862 -15.7123 1.9242e-15
      vertex -24 -24 2.93915e-15
      vertex -16.5296 -16.0558 1.96626e-15
    endloop
  endfacet
  facet normal -6.30174e-22 1.22465e-16 1
    outer loop
      vertex -16.3702 -15.6782 1.92003e-15
      vertex -24 -24 2.93915e-15
      vertex -16.3862 -15.7123 1.9242e-15
    endloop
  endfacet
  facet normal 7.98572e-23 1.22465e-16 1
    outer loop
      vertex -3.2841 17.8574 -2.1869e-15
      vertex -24 24 -2.93915e-15
      vertex -3.49001 17.3813 -2.1286e-15
    endloop
  endfacet
  facet normal 7.72974e-23 1.22465e-16 1
    outer loop
      vertex -3.26805 17.8915 -2.19108e-15
      vertex -24 24 -2.93915e-15
      vertex -3.2841 17.8574 -2.1869e-15
    endloop
  endfacet
  facet normal 3.0879e-23 1.22465e-16 1
    outer loop
      vertex -3.0164 18.3167 -2.24315e-15
      vertex -24 24 -2.93915e-15
      vertex -3.26805 17.8915 -2.19108e-15
    endloop
  endfacet
  facet normal -1.51936e-22 1.22464e-16 1
    outer loop
      vertex -2.99622 18.3485 -2.24704e-15
      vertex -24 24 -2.93915e-15
      vertex -3.0164 18.3167 -2.24315e-15
    endloop
  endfacet
  facet normal -2.57947e-23 1.22465e-16 1
    outer loop
      vertex -2.6748 18.7518 -2.29644e-15
      vertex -24 24 -2.93915e-15
      vertex -2.99622 18.3485 -2.24704e-15
    endloop
  endfacet
  facet normal 1.20615e-23 1.22465e-16 1
    outer loop
      vertex -2.31326 19.1013 -2.33924e-15
      vertex -24 24 -2.93915e-15
      vertex -2.6748 18.7518 -2.29644e-15
    endloop
  endfacet
  facet normal -3.57536e-23 1.22464e-16 1
    outer loop
      vertex -1.92168 19.3973 -2.37549e-15
      vertex -24 24 -2.93915e-15
      vertex -2.31326 19.1013 -2.33924e-15
    endloop
  endfacet
  facet normal -3.49678e-23 1.22465e-16 1
    outer loop
      vertex -1.50055 19.6396 -2.40515e-15
      vertex -24 24 -2.93915e-15
      vertex -1.92168 19.3973 -2.37549e-15
    endloop
  endfacet
  facet normal -5.37365e-24 1.22465e-16 1
    outer loop
      vertex -1.05037 19.8277 -2.42819e-15
      vertex -24 24 -2.93915e-15
      vertex -1.50055 19.6396 -2.40515e-15
    endloop
  endfacet
  facet normal 9.93974e-23 1.22465e-16 1
    outer loop
      vertex -0.571716 19.9616 -2.44459e-15
      vertex -24 24 -2.93915e-15
      vertex -1.05037 19.8277 -2.42819e-15
    endloop
  endfacet
  facet normal 7.54637e-24 1.22465e-16 1
    outer loop
      vertex -0.102539 20.0363 -2.45374e-15
      vertex -24 24 -2.93915e-15
      vertex -0.571716 19.9616 -2.44459e-15
    endloop
  endfacet
  facet normal 3.04112e-22 1.22465e-16 1
    outer loop
      vertex 17.6107 -17.7926 2.17896e-15
      vertex 24 -24 2.93915e-15
      vertex 17.6339 -17.3395 2.12348e-15
    endloop
  endfacet
  facet normal -9.60857e-23 1.22465e-16 1
    outer loop
      vertex 17.5485 -18.1847 2.22698e-15
      vertex 24 -24 2.93915e-15
      vertex 17.6107 -17.7926 2.17896e-15
    endloop
  endfacet
  facet normal -1.90933e-21 1.22463e-16 1
    outer loop
      vertex 17.5414 -18.2217 2.23151e-15
      vertex 24 -24 2.93915e-15
      vertex 17.5485 -18.1847 2.22698e-15
    endloop
  endfacet
  facet normal 1.00572e-22 1.22465e-16 1
    outer loop
      vertex 17.4376 -18.5905 2.27667e-15
      vertex 24 -24 2.93915e-15
      vertex 17.5414 -18.2217 2.23151e-15
    endloop
  endfacet
  facet normal 2.01397e-22 1.22465e-16 1
    outer loop
      vertex 17.426 -18.6263 2.28106e-15
      vertex 24 -24 2.93915e-15
      vertex 17.4376 -18.5905 2.27667e-15
    endloop
  endfacet
  facet normal -8.79305e-23 1.22465e-16 1
    outer loop
      vertex 17.2807 -18.9717 2.32336e-15
      vertex 24 -24 2.93915e-15
      vertex 17.426 -18.6263 2.28106e-15
    endloop
  endfacet
  facet normal 1.5534e-22 1.22465e-16 1
    outer loop
      vertex 17.2647 -19.0058 2.32754e-15
      vertex 24 -24 2.93915e-15
      vertex 17.2807 -18.9717 2.32336e-15
    endloop
  endfacet
  facet normal 8.55163e-23 1.22465e-16 1
    outer loop
      vertex 17.0779 -19.3279 2.36698e-15
      vertex 24 -24 2.93915e-15
      vertex 17.2647 -19.0058 2.32754e-15
    endloop
  endfacet
  facet normal -3.17239e-22 1.22464e-16 1
    outer loop
      vertex 17.0577 -19.3597 2.37088e-15
      vertex 24 -24 2.93915e-15
      vertex 17.0779 -19.3279 2.36698e-15
    endloop
  endfacet
  facet normal -7.52263e-23 1.22465e-16 1
    outer loop
      vertex 16.8294 -19.6584 2.40746e-15
      vertex 24 -24 2.93915e-15
      vertex 17.0577 -19.3597 2.37088e-15
    endloop
  endfacet
  facet normal 2.30204e-21 1.22468e-16 1
    outer loop
      vertex 16.8054 -19.6875 2.41102e-15
      vertex 24 -24 2.93915e-15
      vertex 16.8294 -19.6584 2.40746e-15
    endloop
  endfacet
  facet normal -2.05056e-22 1.22464e-16 1
    outer loop
      vertex 16.5356 -19.9628 2.44474e-15
      vertex 24 -24 2.93915e-15
      vertex 16.8054 -19.6875 2.41102e-15
    endloop
  endfacet
  facet normal 1.62965e-21 1.22468e-16 1
    outer loop
      vertex 16.5081 -19.9886 2.4479e-15
      vertex 24 -24 2.93915e-15
      vertex 16.5356 -19.9628 2.44474e-15
    endloop
  endfacet
  facet normal -1.48564e-22 1.22464e-16 1
    outer loop
      vertex 16.1956 -20.2338 2.47792e-15
      vertex 24 -24 2.93915e-15
      vertex 16.5081 -19.9886 2.4479e-15
    endloop
  endfacet
  facet normal 2.24975e-21 1.22469e-16 1
    outer loop
      vertex 16.1652 -20.2559 2.48064e-15
      vertex 24 -24 2.93915e-15
      vertex 16.1956 -20.2338 2.47792e-15
    endloop
  endfacet
  facet normal -1.67324e-22 1.22464e-16 1
    outer loop
      vertex 15.7759 -20.4815 2.50826e-15
      vertex 24 -24 2.93915e-15
      vertex 16.1652 -20.2559 2.48064e-15
    endloop
  endfacet
  facet normal 7.98993e-23 1.22465e-16 1
    outer loop
      vertex 15.341 -20.6651 2.53074e-15
      vertex 24 -24 2.93915e-15
      vertex 15.7759 -20.4815 2.50826e-15
    endloop
  endfacet
  facet normal 4.87593e-23 1.22465e-16 1
    outer loop
      vertex 14.8972 -20.7971 2.54691e-15
      vertex 24 -24 2.93915e-15
      vertex 15.341 -20.6651 2.53074e-15
    endloop
  endfacet
  facet normal -8.30104e-22 1.22462e-16 1
    outer loop
      vertex 14.8607 -20.8065 2.54806e-15
      vertex 24 -24 2.93915e-15
      vertex 14.8972 -20.7971 2.54691e-15
    endloop
  endfacet
  facet normal 1.01493e-22 1.22465e-16 1
    outer loop
      vertex 14.3733 -20.9007 2.5596e-15
      vertex 24 -24 2.93915e-15
      vertex 14.8607 -20.8065 2.54806e-15
    endloop
  endfacet
  facet normal -1.19502e-23 1.22465e-16 1
    outer loop
      vertex 13.8047 -20.962 2.56711e-15
      vertex 24 -24 2.93915e-15
      vertex 14.3733 -20.9007 2.5596e-15
    endloop
  endfacet
  facet normal -2.99812e-23 1.22465e-16 1
    outer loop
      vertex 13.2297 -20.9809 2.56942e-15
      vertex 24 -24 2.93915e-15
      vertex 13.8047 -20.962 2.56711e-15
    endloop
  endfacet
  facet normal -0 1.22465e-16 1
    outer loop
      vertex -12.3849 -20.9809 2.56942e-15
      vertex 24 -24 2.93915e-15
      vertex 13.2297 -20.9809 2.56942e-15
    endloop
  endfacet
  facet normal -1.42713e-22 1.22465e-16 1
    outer loop
      vertex -24 -24 2.93915e-15
      vertex -12.3849 -20.9809 2.56942e-15
      vertex -12.9316 -20.9626 2.56718e-15
    endloop
  endfacet
  facet normal 2.19099e-22 1.22464e-16 1
    outer loop
      vertex -16.7122 -16.887 2.06806e-15
      vertex -24 -24 2.93915e-15
      vertex -16.7351 -17.3395 2.12348e-15
    endloop
  endfacet
  facet normal -4.87818e-23 1.22465e-16 1
    outer loop
      vertex -16.7351 -17.3395 2.12348e-15
      vertex -24 -24 2.93915e-15
      vertex -16.7114 -17.8063 2.18065e-15
    endloop
  endfacet
  facet normal 0 1.22465e-16 1
    outer loop
      vertex -12.3849 -20.9809 2.56942e-15
      vertex -24 -24 2.93915e-15
      vertex 24 -24 2.93915e-15
    endloop
  endfacet
  facet normal -4.67686e-23 1.22465e-16 1
    outer loop
      vertex -13.4774 -20.9029 2.55987e-15
      vertex -24 -24 2.93915e-15
      vertex -12.9316 -20.9626 2.56718e-15
    endloop
  endfacet
  facet normal 1.11633e-22 1.22464e-16 1
    outer loop
      vertex -13.9477 -20.8114 2.54866e-15
      vertex -24 -24 2.93915e-15
      vertex -13.4774 -20.9029 2.55987e-15
    endloop
  endfacet
  facet normal 7.95521e-22 1.22462e-16 1
    outer loop
      vertex -13.9842 -20.802 2.54752e-15
      vertex -24 -24 2.93915e-15
      vertex -13.9477 -20.8114 2.54866e-15
    endloop
  endfacet
  facet normal -2.00782e-22 1.22465e-16 1
    outer loop
      vertex -14.4164 -20.6739 2.53182e-15
      vertex -24 -24 2.93915e-15
      vertex -13.9842 -20.802 2.54752e-15
    endloop
  endfacet
  facet normal 1.61856e-22 1.22464e-16 1
    outer loop
      vertex -14.8454 -20.4953 2.50995e-15
      vertex -24 -24 2.93915e-15
      vertex -14.4164 -20.6739 2.53182e-15
    endloop
  endfacet
  facet normal -1.39841e-22 1.22465e-16 1
    outer loop
      vertex -15.2342 -20.2758 2.48307e-15
      vertex -24 -24 2.93915e-15
      vertex -14.8454 -20.4953 2.50995e-15
    endloop
  endfacet
  facet normal 1.59566e-23 1.22465e-16 1
    outer loop
      vertex -15.5823 -20.0156 2.45121e-15
      vertex -24 -24 2.93915e-15
      vertex -15.2342 -20.2758 2.48307e-15
    endloop
  endfacet
  facet normal 4.47474e-24 1.22465e-16 1
    outer loop
      vertex -15.8868 -19.7205 2.41507e-15
      vertex -24 -24 2.93915e-15
      vertex -15.5823 -20.0156 2.45121e-15
    endloop
  endfacet
  facet normal 5.63767e-23 1.22465e-16 1
    outer loop
      vertex -16.1452 -19.3955 2.37527e-15
      vertex -24 -24 2.93915e-15
      vertex -15.8868 -19.7205 2.41507e-15
    endloop
  endfacet
  facet normal -1.24812e-22 1.22465e-16 1
    outer loop
      vertex -16.3571 -19.0411 2.33186e-15
      vertex -24 -24 2.93915e-15
      vertex -16.1452 -19.3955 2.37527e-15
    endloop
  endfacet
  facet normal 2.95247e-21 1.2246e-16 1
    outer loop
      vertex -16.3732 -19.007 2.32768e-15
      vertex -24 -24 2.93915e-15
      vertex -16.3571 -19.0411 2.33186e-15
    endloop
  endfacet
  facet normal -6.15222e-23 1.22465e-16 1
    outer loop
      vertex -16.5223 -18.6577 2.28491e-15
      vertex -24 -24 2.93915e-15
      vertex -16.3732 -19.007 2.32768e-15
    endloop
  endfacet
  facet normal -1.88522e-22 1.22465e-16 1
    outer loop
      vertex -16.5339 -18.6219 2.28052e-15
      vertex -24 -24 2.93915e-15
      vertex -16.5223 -18.6577 2.28491e-15
    endloop
  endfacet
  facet normal -2.58078e-22 1.22465e-16 1
    outer loop
      vertex -16.6405 -18.2459 2.23448e-15
      vertex -24 -24 2.93915e-15
      vertex -16.5339 -18.6219 2.28052e-15
    endloop
  endfacet
  facet normal 1.70343e-21 1.22463e-16 1
    outer loop
      vertex -16.6475 -18.2089 2.22995e-15
      vertex -24 -24 2.93915e-15
      vertex -16.6405 -18.2459 2.23448e-15
    endloop
  endfacet
  facet normal -5.57246e-23 1.22465e-16 1
    outer loop
      vertex -16.7114 -17.8063 2.18065e-15
      vertex -24 -24 2.93915e-15
      vertex -16.6475 -18.2089 2.22995e-15
    endloop
  endfacet
  facet normal 0 1.22465e-16 1
    outer loop
      vertex 13.2297 -13.7261 1.68096e-15
      vertex 4.72285 14.8575 -1.81952e-15
      vertex 4.72285 -13.7261 1.68096e-15
    endloop
  endfacet
  facet normal 1 0 0
    outer loop
      vertex 25 -25 23.2
      vertex 25 25 -1
      vertex 25 25 23.2
    endloop
  endfacet
  facet normal 1 0 0
    outer loop
      vertex 25 25 -1
      vertex 25 -25 23.2
      vertex 25 -25 -1
    endloop
  endfacet
  facet normal 0 -1 0
    outer loop
      vertex -25 -25 -1
      vertex 25 -25 23.2
      vertex -25 -25 23.2
    endloop
  endfacet
  facet normal 0 -1 -0
    outer loop
      vertex 25 -25 23.2
      vertex -25 -25 -1
      vertex 25 -25 -1
    endloop
  endfacet
  facet normal 0 1 -0
    outer loop
      vertex 25 25 -1
      vertex -25 25 23.2
      vertex 25 25 23.2
    endloop
  endfacet
  facet normal 0 1 0
    outer loop
      vertex -25 25 23.2
      vertex 25 25 -1
      vertex -25 25 -1
    endloop
  endfacet
  facet normal 1 0 0
    outer loop
      vertex -24 -24 23.2
      vertex -24 24 -2.93915e-15
      vertex -24 24 23.2
    endloop
  endfacet
  facet normal 1 0 0
    outer loop
      vertex -24 24 -2.93915e-15
      vertex -24 -24 23.2
      vertex -24 -24 2.93915e-15
    endloop
  endfacet
  facet normal -1 0 0
    outer loop
      vertex 24 -24 2.93915e-15
      vertex 24 24 23.2
      vertex 24 24 -2.93915e-15
    endloop
  endfacet
  facet normal -1 -0 0
    outer loop
      vertex 24 24 23.2
      vertex 24 -24 2.93915e-15
      vertex 24 -24 23.2
    endloop
  endfacet
  facet normal 0 1 -0
    outer loop
      vertex 24 -24 2.93915e-15
      vertex -24 -24 23.2
      vertex 24 -24 23.2
    endloop
  endfacet
  facet normal 0 1 0
    outer loop
      vertex -24 -24 23.2
      vertex 24 -24 2.93915e-15
      vertex -24 -24 2.93915e-15
    endloop
  endfacet
  facet normal 0 -1 0
    outer loop
      vertex -24 24 -2.93915e-15
      vertex 24 24 23.2
      vertex -24 24 23.2
    endloop
  endfacet
  facet normal 0 -1 -0
    outer loop
      vertex 24 24 23.2
      vertex -24 24 -2.93915e-15
      vertex 24 24 -2.93915e-15
    endloop
  endfacet
  facet normal 0 0 -1
    outer loop
      vertex -3.87711 -13.7261 -1
      vertex -12.3849 -13.7261 -1
      vertex -3.87711 14.8575 -1
    endloop
  endfacet
  facet normal 0 0 -1
    outer loop
      vertex 17.6104 -16.887 -1
      vertex 25 -25 -1
      vertex 17.6339 -17.3395 -1
    endloop
  endfacet
  facet normal 0 0 -1
    outer loop
      vertex 25 -25 -1
      vertex 17.6107 -17.7926 -1
      vertex 17.6339 -17.3395 -1
    endloop
  endfacet
  facet normal 0 0 -1
    outer loop
      vertex 25 -25 -1
      vertex 17.5485 -18.1847 -1
      vertex 17.6107 -17.7926 -1
    endloop
  endfacet
  facet normal 0 0 -1
    outer loop
      vertex 25 -25 -1
      vertex 17.5414 -18.2217 -1
      vertex 17.5485 -18.1847 -1
    endloop
  endfacet
  facet normal 0 0 -1
    outer loop
      vertex 25 -25 -1
      vertex 17.4376 -18.5905 -1
      vertex 17.5414 -18.2217 -1
    endloop
  endfacet
  facet normal 0 0 -1
    outer loop
      vertex 25 -25 -1
      vertex 17.426 -18.6263 -1
      vertex 17.4376 -18.5905 -1
    endloop
  endfacet
  facet normal 0 0 -1
    outer loop
      vertex 25 -25 -1
      vertex 17.2807 -18.9717 -1
      vertex 17.426 -18.6263 -1
    endloop
  endfacet
  facet normal 0 0 -1
    outer loop
      vertex 25 -25 -1
      vertex 17.2647 -19.0058 -1
      vertex 17.2807 -18.9717 -1
    endloop
  endfacet
  facet normal 0 0 -1
    outer loop
      vertex 25 -25 -1
      vertex 17.0779 -19.3279 -1
      vertex 17.2647 -19.0058 -1
    endloop
  endfacet
  facet normal 0 0 -1
    outer loop
      vertex 25 -25 -1
      vertex 17.0577 -19.3597 -1
      vertex 17.0779 -19.3279 -1
    endloop
  endfacet
  facet normal 0 0 -1
    outer loop
      vertex 25 -25 -1
      vertex 16.8294 -19.6584 -1
      vertex 17.0577 -19.3597 -1
    endloop
  endfacet
  facet normal 0 0 -1
    outer loop
      vertex 25 -25 -1
      vertex 16.8054 -19.6875 -1
      vertex 16.8294 -19.6584 -1
    endloop
  endfacet
  facet normal 0 0 -1
    outer loop
      vertex 25 -25 -1
      vertex 16.5356 -19.9628 -1
      vertex 16.8054 -19.6875 -1
    endloop
  endfacet
  facet normal 0 0 -1
    outer loop
      vertex 25 -25 -1
      vertex 16.5081 -19.9886 -1
      vertex 16.5356 -19.9628 -1
    endloop
  endfacet
  facet normal 0 0 -1
    outer loop
      vertex 25 -25 -1
      vertex 16.1956 -20.2338 -1
      vertex 16.5081 -19.9886 -1
    endloop
  endfacet
  facet normal 0 0 -1
    outer loop
      vertex 25 -25 -1
      vertex 16.1652 -20.2559 -1
      vertex 16.1956 -20.2338 -1
    endloop
  endfacet
  facet normal 0 0 -1
    outer loop
      vertex 25 -25 -1
      vertex 15.7759 -20.4815 -1
      vertex 16.1652 -20.2559 -1
    endloop
  endfacet
  facet normal 0 0 -1
    outer loop
      vertex 25 -25 -1
      vertex 15.341 -20.6651 -1
      vertex 15.7759 -20.4815 -1
    endloop
  endfacet
  facet normal 0 0 -1
    outer loop
      vertex 25 -25 -1
      vertex 14.8972 -20.7971 -1
      vertex 15.341 -20.6651 -1
    endloop
  endfacet
  facet normal 0 0 -1
    outer loop
      vertex 25 -25 -1
      vertex 14.8607 -20.8065 -1
      vertex 14.8972 -20.7971 -1
    endloop
  endfacet
  facet normal 0 0 -1
    outer loop
      vertex 25 -25 -1
      vertex 14.3733 -20.9007 -1
      vertex 14.8607 -20.8065 -1
    endloop
  endfacet
  facet normal 0 0 -1
    outer loop
      vertex 25 -25 -1
      vertex 13.8047 -20.962 -1
      vertex 14.3733 -20.9007 -1
    endloop
  endfacet
  facet normal 0 0 -1
    outer loop
      vertex 25 -25 -1
      vertex 13.2297 -20.9809 -1
      vertex 13.8047 -20.962 -1
    endloop
  endfacet
  facet normal 0 0 -1
    outer loop
      vertex 25 -25 -1
      vertex -12.3849 -20.9809 -1
      vertex 13.2297 -20.9809 -1
    endloop
  endfacet
  facet normal 0 0 -1
    outer loop
      vertex -25 -25 -1
      vertex -12.3849 -20.9809 -1
      vertex 25 -25 -1
    endloop
  endfacet
  facet normal -0 0 -1
    outer loop
      vertex -16.7114 -17.8063 -1
      vertex -25 -25 -1
      vertex -16.7351 -17.3395 -1
    endloop
  endfacet
  facet normal -0 0 -1
    outer loop
      vertex -16.6475 -18.2089 -1
      vertex -25 -25 -1
      vertex -16.7114 -17.8063 -1
    endloop
  endfacet
  facet normal -0 0 -1
    outer loop
      vertex -16.6405 -18.2459 -1
      vertex -25 -25 -1
      vertex -16.6475 -18.2089 -1
    endloop
  endfacet
  facet normal -0 0 -1
    outer loop
      vertex -16.5339 -18.6219 -1
      vertex -25 -25 -1
      vertex -16.6405 -18.2459 -1
    endloop
  endfacet
  facet normal -0 0 -1
    outer loop
      vertex -16.5223 -18.6577 -1
      vertex -25 -25 -1
      vertex -16.5339 -18.6219 -1
    endloop
  endfacet
  facet normal -0 0 -1
    outer loop
      vertex -16.3732 -19.007 -1
      vertex -25 -25 -1
      vertex -16.5223 -18.6577 -1
    endloop
  endfacet
  facet normal -0 0 -1
    outer loop
      vertex -16.3571 -19.0411 -1
      vertex -25 -25 -1
      vertex -16.3732 -19.007 -1
    endloop
  endfacet
  facet normal -0 0 -1
    outer loop
      vertex -16.1452 -19.3955 -1
      vertex -25 -25 -1
      vertex -16.3571 -19.0411 -1
    endloop
  endfacet
  facet normal -0 0 -1
    outer loop
      vertex -15.8868 -19.7205 -1
      vertex -25 -25 -1
      vertex -16.1452 -19.3955 -1
    endloop
  endfacet
  facet normal -0 0 -1
    outer loop
      vertex -15.5823 -20.0156 -1
      vertex -25 -25 -1
      vertex -15.8868 -19.7205 -1
    endloop
  endfacet
  facet normal -0 0 -1
    outer loop
      vertex -15.2342 -20.2758 -1
      vertex -25 -25 -1
      vertex -15.5823 -20.0156 -1
    endloop
  endfacet
  facet normal -0 0 -1
    outer loop
      vertex -14.8454 -20.4953 -1
      vertex -25 -25 -1
      vertex -15.2342 -20.2758 -1
    endloop
  endfacet
  facet normal -0 0 -1
    outer loop
      vertex -14.4164 -20.6739 -1
      vertex -25 -25 -1
      vertex -14.8454 -20.4953 -1
    endloop
  endfacet
  facet normal -0 0 -1
    outer loop
      vertex -13.9842 -20.802 -1
      vertex -25 -25 -1
      vertex -14.4164 -20.6739 -1
    endloop
  endfacet
  facet normal -0 0 -1
    outer loop
      vertex -13.9477 -20.8114 -1
      vertex -25 -25 -1
      vertex -13.9842 -20.802 -1
    endloop
  endfacet
  facet normal -0 0 -1
    outer loop
      vertex -13.4774 -20.9029 -1
      vertex -25 -25 -1
      vertex -13.9477 -20.8114 -1
    endloop
  endfacet
  facet normal -0 0 -1
    outer loop
      vertex -12.9316 -20.9626 -1
      vertex -25 -25 -1
      vertex -13.4774 -20.9029 -1
    endloop
  endfacet
  facet normal -0 0 -1
    outer loop
      vertex -12.3849 -20.9809 -1
      vertex -25 -25 -1
      vertex -12.9316 -20.9626 -1
    endloop
  endfacet
  facet normal 0 0 -1
    outer loop
      vertex 17.5403 -16.4588 -1
      vertex 25 -25 -1
      vertex 17.6104 -16.887 -1
    endloop
  endfacet
  facet normal 0 0 -1
    outer loop
      vertex 17.4351 -16.0916 -1
      vertex 25 -25 -1
      vertex 17.5403 -16.4588 -1
    endloop
  endfacet
  facet normal 0 0 -1
    outer loop
      vertex 17.4234 -16.0558 -1
      vertex 25 -25 -1
      vertex 17.4351 -16.0916 -1
    endloop
  endfacet
  facet normal 0 0 -1
    outer loop
      vertex 17.2761 -15.7123 -1
      vertex 25 -25 -1
      vertex 17.4234 -16.0558 -1
    endloop
  endfacet
  facet normal 0 0 -1
    outer loop
      vertex 17.2601 -15.6782 -1
      vertex 25 -25 -1
      vertex 17.2761 -15.7123 -1
    endloop
  endfacet
  facet normal 0 0 -1
    outer loop
      vertex 25 -25 -1
      vertex 17.2601 -15.6782 -1
      vertex 25 25 -1
    endloop
  endfacet
  facet normal 0 0 -1
    outer loop
      vertex 17.0707 -15.3586 -1
      vertex 25 25 -1
      vertex 17.2601 -15.6782 -1
    endloop
  endfacet
  facet normal 0 0 -1
    outer loop
      vertex 17.0505 -15.3268 -1
      vertex 25 25 -1
      vertex 17.0707 -15.3586 -1
    endloop
  endfacet
  facet normal 0 0 -1
    outer loop
      vertex 16.7951 -15.0021 -1
      vertex 25 25 -1
      vertex 17.0505 -15.3268 -1
    endloop
  endfacet
  facet normal 0 0 -1
    outer loop
      vertex 16.4941 -14.7043 -1
      vertex 25 25 -1
      vertex 16.7951 -15.0021 -1
    endloop
  endfacet
  facet normal 0 0 -1
    outer loop
      vertex 16.1483 -14.4408 -1
      vertex 25 25 -1
      vertex 16.4941 -14.7043 -1
    endloop
  endfacet
  facet normal 0 0 -1
    outer loop
      vertex 15.7578 -14.2183 -1
      vertex 25 25 -1
      vertex 16.1483 -14.4408 -1
    endloop
  endfacet
  facet normal 0 0 -1
    outer loop
      vertex 15.3232 -14.0373 -1
      vertex 25 25 -1
      vertex 15.7578 -14.2183 -1
    endloop
  endfacet
  facet normal 0 0 -1
    outer loop
      vertex 4.72285 14.8575 -1
      vertex 15.3232 -14.0373 -1
      vertex 14.8814 -13.9073 -1
    endloop
  endfacet
  facet normal 0 0 -1
    outer loop
      vertex 4.72285 14.8575 -1
      vertex 14.8814 -13.9073 -1
      vertex 14.845 -13.898 -1
    endloop
  endfacet
  facet normal 0 0 -1
    outer loop
      vertex 4.72285 14.8575 -1
      vertex 14.845 -13.898 -1
      vertex 14.3611 -13.8051 -1
    endloop
  endfacet
  facet normal 0 0 -1
    outer loop
      vertex 4.72285 14.8575 -1
      vertex 14.3611 -13.8051 -1
      vertex 13.7978 -13.7447 -1
    endloop
  endfacet
  facet normal 0 0 -1
    outer loop
      vertex 4.72285 14.8575 -1
      vertex 13.7978 -13.7447 -1
      vertex 13.2297 -13.7261 -1
    endloop
  endfacet
  facet normal 0 0 -1
    outer loop
      vertex 4.72285 14.8575 -1
      vertex 13.2297 -13.7261 -1
      vertex 4.72285 -13.7261 -1
    endloop
  endfacet
  facet normal 0 0 -1
    outer loop
      vertex 15.3232 -14.0373 -1
      vertex 4.72285 14.8575 -1
      vertex 25 25 -1
    endloop
  endfacet
  facet normal 0 0 -1
    outer loop
      vertex 4.70024 15.5441 -1
      vertex 25 25 -1
      vertex 4.72285 14.8575 -1
    endloop
  endfacet
  facet normal 0 0 -1
    outer loop
      vertex 4.69788 15.5817 -1
      vertex 25 25 -1
      vertex 4.70024 15.5441 -1
    endloop
  endfacet
  facet normal 0 0 -1
    outer loop
      vertex 4.63004 16.2157 -1
      vertex 25 25 -1
      vertex 4.69788 15.5817 -1
    endloop
  endfacet
  facet normal 0 0 -1
    outer loop
      vertex 4.50993 16.8341 -1
      vertex 25 25 -1
      vertex 4.63004 16.2157 -1
    endloop
  endfacet
  facet normal 0 0 -1
    outer loop
      vertex 4.34 17.3988 -1
      vertex 25 25 -1
      vertex 4.50993 16.8341 -1
    endloop
  endfacet
  facet normal 0 0 -1
    outer loop
      vertex 4.13649 17.8751 -1
      vertex 25 25 -1
      vertex 4.34 17.3988 -1
    endloop
  endfacet
  facet normal 0 0 -1
    outer loop
      vertex 4.12044 17.9091 -1
      vertex 25 25 -1
      vertex 4.13649 17.8751 -1
    endloop
  endfacet
  facet normal 0 0 -1
    outer loop
      vertex 3.8717 18.3329 -1
      vertex 25 25 -1
      vertex 4.12044 17.9091 -1
    endloop
  endfacet
  facet normal 0 0 -1
    outer loop
      vertex 3.85152 18.3647 -1
      vertex 25 25 -1
      vertex 3.8717 18.3329 -1
    endloop
  endfacet
  facet normal 0 0 -1
    outer loop
      vertex 3.53355 18.7648 -1
      vertex 25 25 -1
      vertex 3.85152 18.3647 -1
    endloop
  endfacet
  facet normal 0 0 -1
    outer loop
      vertex 3.17627 19.1109 -1
      vertex 25 25 -1
      vertex 3.53355 18.7648 -1
    endloop
  endfacet
  facet normal 0 0 -1
    outer loop
      vertex 2.78947 19.404 -1
      vertex 25 25 -1
      vertex 3.17627 19.1109 -1
    endloop
  endfacet
  facet normal 0 0 -1
    outer loop
      vertex 2.37369 19.6438 -1
      vertex 25 25 -1
      vertex 2.78947 19.404 -1
    endloop
  endfacet
  facet normal 0 0 -1
    outer loop
      vertex 1.92937 19.8301 -1
      vertex 25 25 -1
      vertex 2.37369 19.6438 -1
    endloop
  endfacet
  facet normal 0 0 -1
    outer loop
      vertex 1.45711 19.9626 -1
      vertex 25 25 -1
      vertex 1.92937 19.8301 -1
    endloop
  endfacet
  facet normal 0 0 -1
    outer loop
      vertex 0.994843 20.0365 -1
      vertex 25 25 -1
      vertex 1.45711 19.9626 -1
    endloop
  endfacet
  facet normal 0 0 -1
    outer loop
      vertex 0.957458 20.0413 -1
      vertex 25 25 -1
      vertex 0.994843 20.0365 -1
    endloop
  endfacet
  facet normal 0 0 -1
    outer loop
      vertex 0.468704 20.0659 -1
      vertex 25 25 -1
      vertex 0.957458 20.0413 -1
    endloop
  endfacet
  facet normal 0 0 -1
    outer loop
      vertex 0.431046 20.0659 -1
      vertex 25 25 -1
      vertex 0.468704 20.0659 -1
    endloop
  endfacet
  facet normal 0 0 -1
    outer loop
      vertex -25 25 -1
      vertex 0.431046 20.0659 -1
      vertex -0.065155 20.041 -1
    endloop
  endfacet
  facet normal 0 0 -1
    outer loop
      vertex -25 25 -1
      vertex -0.065155 20.041 -1
      vertex -0.102539 20.0363 -1
    endloop
  endfacet
  facet normal 0 0 -1
    outer loop
      vertex -25 25 -1
      vertex -0.102539 20.0363 -1
      vertex -0.571716 19.9616 -1
    endloop
  endfacet
  facet normal 0 0 -1
    outer loop
      vertex -12.9522 -13.7447 -1
      vertex -3.87711 14.8575 -1
      vertex -12.3849 -13.7261 -1
    endloop
  endfacet
  facet normal 0 0 -1
    outer loop
      vertex -13.5138 -13.8051 -1
      vertex -3.87711 14.8575 -1
      vertex -12.9522 -13.7447 -1
    endloop
  endfacet
  facet normal 0 0 -1
    outer loop
      vertex -13.9948 -13.898 -1
      vertex -3.87711 14.8575 -1
      vertex -13.5138 -13.8051 -1
    endloop
  endfacet
  facet normal 0 0 -1
    outer loop
      vertex -14.0312 -13.9073 -1
      vertex -3.87711 14.8575 -1
      vertex -13.9948 -13.898 -1
    endloop
  endfacet
  facet normal 0 0 -1
    outer loop
      vertex -14.4691 -14.0373 -1
      vertex -3.87711 14.8575 -1
      vertex -14.0312 -13.9073 -1
    endloop
  endfacet
  facet normal 0 0 -1
    outer loop
      vertex -25 25 -1
      vertex -3.87711 14.8575 -1
      vertex -14.4691 -14.0373 -1
    endloop
  endfacet
  facet normal 0 0 -1
    outer loop
      vertex -3.87711 14.8575 -1
      vertex -25 25 -1
      vertex -3.85423 15.5372 -1
    endloop
  endfacet
  facet normal 0 0 -1
    outer loop
      vertex -3.85423 15.5372 -1
      vertex -25 25 -1
      vertex -3.85187 15.5748 -1
    endloop
  endfacet
  facet normal 0 0 -1
    outer loop
      vertex -3.85187 15.5748 -1
      vertex -25 25 -1
      vertex -3.78323 16.2036 -1
    endloop
  endfacet
  facet normal 0 0 -1
    outer loop
      vertex -3.78323 16.2036 -1
      vertex -25 25 -1
      vertex -3.66179 16.8185 -1
    endloop
  endfacet
  facet normal 0 0 -1
    outer loop
      vertex -25 25 -1
      vertex -14.4691 -14.0373 -1
      vertex -14.8988 -14.2183 -1
    endloop
  endfacet
  facet normal 0 0 -1
    outer loop
      vertex -25 25 -1
      vertex -14.8988 -14.2183 -1
      vertex -15.2834 -14.4408 -1
    endloop
  endfacet
  facet normal 0 0 -1
    outer loop
      vertex -25 25 -1
      vertex -15.2834 -14.4408 -1
      vertex -15.3139 -14.4629 -1
    endloop
  endfacet
  facet normal 0 0 -1
    outer loop
      vertex -25 25 -1
      vertex -15.3139 -14.4629 -1
      vertex -15.6223 -14.7043 -1
    endloop
  endfacet
  facet normal 0 0 -1
    outer loop
      vertex -25 25 -1
      vertex -15.6223 -14.7043 -1
      vertex -15.6498 -14.7301 -1
    endloop
  endfacet
  facet normal 0 0 -1
    outer loop
      vertex -25 25 -1
      vertex -15.6498 -14.7301 -1
      vertex -15.9162 -15.0021 -1
    endloop
  endfacet
  facet normal 0 0 -1
    outer loop
      vertex -25 25 -1
      vertex -15.9162 -15.0021 -1
      vertex -15.9402 -15.0311 -1
    endloop
  endfacet
  facet normal 0 0 -1
    outer loop
      vertex -25 25 -1
      vertex -15.9402 -15.0311 -1
      vertex -16.1656 -15.3268 -1
    endloop
  endfacet
  facet normal 0 0 -1
    outer loop
      vertex -25 25 -1
      vertex -16.1656 -15.3268 -1
      vertex -16.1857 -15.3586 -1
    endloop
  endfacet
  facet normal 0 0 -1
    outer loop
      vertex -25 25 -1
      vertex -16.1857 -15.3586 -1
      vertex -16.3702 -15.6782 -1
    endloop
  endfacet
  facet normal 0 0 -1
    outer loop
      vertex -25 -25 -1
      vertex -16.3702 -15.6782 -1
      vertex -16.3862 -15.7123 -1
    endloop
  endfacet
  facet normal 0 0 -1
    outer loop
      vertex -25 -25 -1
      vertex -16.3862 -15.7123 -1
      vertex -16.5296 -16.0558 -1
    endloop
  endfacet
  facet normal 0 0 -1
    outer loop
      vertex -25 -25 -1
      vertex -16.7122 -16.887 -1
      vertex -16.7351 -17.3395 -1
    endloop
  endfacet
  facet normal 0 0 -1
    outer loop
      vertex -25 -25 -1
      vertex -16.6508 -16.4958 -1
      vertex -16.7122 -16.887 -1
    endloop
  endfacet
  facet normal 0 0 -1
    outer loop
      vertex -25 -25 -1
      vertex -16.6437 -16.4588 -1
      vertex -16.6508 -16.4958 -1
    endloop
  endfacet
  facet normal 0 0 -1
    outer loop
      vertex -25 -25 -1
      vertex -16.5413 -16.0916 -1
      vertex -16.6437 -16.4588 -1
    endloop
  endfacet
  facet normal 0 0 -1
    outer loop
      vertex -25 -25 -1
      vertex -16.5296 -16.0558 -1
      vertex -16.5413 -16.0916 -1
    endloop
  endfacet
  facet normal -0 0 -1
    outer loop
      vertex -16.3702 -15.6782 -1
      vertex -25 -25 -1
      vertex -25 25 -1
    endloop
  endfacet
  facet normal 0 0 -1
    outer loop
      vertex -3.66179 16.8185 -1
      vertex -25 25 -1
      vertex -3.49001 17.3813 -1
    endloop
  endfacet
  facet normal 0 0 -1
    outer loop
      vertex -3.49001 17.3813 -1
      vertex -25 25 -1
      vertex -3.2841 17.8574 -1
    endloop
  endfacet
  facet normal 0 0 -1
    outer loop
      vertex 0.431046 20.0659 -1
      vertex -25 25 -1
      vertex 25 25 -1
    endloop
  endfacet
  facet normal 0 0 -1
    outer loop
      vertex -1.05037 19.8277 -1
      vertex -25 25 -1
      vertex -0.571716 19.9616 -1
    endloop
  endfacet
  facet normal 0 0 -1
    outer loop
      vertex -1.50055 19.6396 -1
      vertex -25 25 -1
      vertex -1.05037 19.8277 -1
    endloop
  endfacet
  facet normal 0 0 -1
    outer loop
      vertex -1.92168 19.3973 -1
      vertex -25 25 -1
      vertex -1.50055 19.6396 -1
    endloop
  endfacet
  facet normal 0 0 -1
    outer loop
      vertex -2.31326 19.1013 -1
      vertex -25 25 -1
      vertex -1.92168 19.3973 -1
    endloop
  endfacet
  facet normal 0 0 -1
    outer loop
      vertex -2.6748 18.7518 -1
      vertex -25 25 -1
      vertex -2.31326 19.1013 -1
    endloop
  endfacet
  facet normal 0 0 -1
    outer loop
      vertex -2.99622 18.3485 -1
      vertex -25 25 -1
      vertex -2.6748 18.7518 -1
    endloop
  endfacet
  facet normal 0 0 -1
    outer loop
      vertex -3.0164 18.3167 -1
      vertex -25 25 -1
      vertex -2.99622 18.3485 -1
    endloop
  endfacet
  facet normal 0 0 -1
    outer loop
      vertex -3.26805 17.8915 -1
      vertex -25 25 -1
      vertex -3.0164 18.3167 -1
    endloop
  endfacet
  facet normal 0 0 -1
    outer loop
      vertex -3.2841 17.8574 -1
      vertex -25 25 -1
      vertex -3.26805 17.8915 -1
    endloop
  endfacet
  facet normal 0.050123 -0.998743 0
    outer loop
      vertex -0.065155 20.041 -1
      vertex 0.431046 20.0659 -2.45736e-15
      vertex -0.065155 20.041 -2.45431e-15
    endloop
  endfacet
  facet normal 0.050123 -0.998743 0
    outer loop
      vertex 0.431046 20.0659 -2.45736e-15
      vertex -0.065155 20.041 -1
      vertex 0.431046 20.0659 -1
    endloop
  endfacet
  facet normal 0.12553 -0.99209 0
    outer loop
      vertex -0.102539 20.0363 -1
      vertex -0.065155 20.041 -2.45431e-15
      vertex -0.102539 20.0363 -2.45374e-15
    endloop
  endfacet
  facet normal 0.12553 -0.99209 0
    outer loop
      vertex -0.065155 20.041 -2.45431e-15
      vertex -0.102539 20.0363 -1
      vertex -0.065155 20.041 -1
    endloop
  endfacet
  facet normal 0.157218 -0.987564 0
    outer loop
      vertex -0.571716 19.9616 -1
      vertex -0.102539 20.0363 -2.45374e-15
      vertex -0.571716 19.9616 -2.44459e-15
    endloop
  endfacet
  facet normal 0.157218 -0.987564 0
    outer loop
      vertex -0.102539 20.0363 -2.45374e-15
      vertex -0.571716 19.9616 -1
      vertex -0.102539 20.0363 -1
    endloop
  endfacet
  facet normal 0.269336 -0.963046 0
    outer loop
      vertex -1.05037 19.8277 -1
      vertex -0.571716 19.9616 -2.44459e-15
      vertex -1.05037 19.8277 -2.42819e-15
    endloop
  endfacet
  facet normal 0.269336 -0.963046 0
    outer loop
      vertex -0.571716 19.9616 -2.44459e-15
      vertex -1.05037 19.8277 -1
      vertex -0.571716 19.9616 -1
    endloop
  endfacet
  facet normal 0.38563 -0.922654 0
    outer loop
      vertex -1.50055 19.6396 -1
      vertex -1.05037 19.8277 -2.42819e-15
      vertex -1.50055 19.6396 -2.40515e-15
    endloop
  endfacet
  facet normal 0.38563 -0.922654 0
    outer loop
      vertex -1.05037 19.8277 -2.42819e-15
      vertex -1.50055 19.6396 -1
      vertex -1.05037 19.8277 -1
    endloop
  endfacet
  facet normal 0.498579 -0.866844 0
    outer loop
      vertex -1.92168 19.3973 -1
      vertex -1.50055 19.6396 -2.40515e-15
      vertex -1.92168 19.3973 -2.37549e-15
    endloop
  endfacet
  facet normal 0.498579 -0.866844 0
    outer loop
      vertex -1.50055 19.6396 -2.40515e-15
      vertex -1.92168 19.3973 -1
      vertex -1.50055 19.6396 -1
    endloop
  endfacet
  facet normal 0.603054 -0.7977 0
    outer loop
      vertex -2.31326 19.1013 -1
      vertex -1.92168 19.3973 -2.37549e-15
      vertex -2.31326 19.1013 -2.33924e-15
    endloop
  endfacet
  facet normal 0.603054 -0.7977 0
    outer loop
      vertex -1.92168 19.3973 -2.37549e-15
      vertex -2.31326 19.1013 -1
      vertex -1.92168 19.3973 -1
    endloop
  endfacet
  facet normal 0.694988 -0.719022 0
    outer loop
      vertex -2.6748 18.7518 -1
      vertex -2.31326 19.1013 -2.33924e-15
      vertex -2.6748 18.7518 -2.29644e-15
    endloop
  endfacet
  facet normal 0.694988 -0.719022 0
    outer loop
      vertex -2.31326 19.1013 -2.33924e-15
      vertex -2.6748 18.7518 -1
      vertex -2.31326 19.1013 -1
    endloop
  endfacet
  facet normal 0.782057 -0.623207 0
    outer loop
      vertex -2.99622 18.3485 -2.24704e-15
      vertex -2.6748 18.7518 -1
      vertex -2.6748 18.7518 -2.29644e-15
    endloop
  endfacet
  facet normal 0.782057 -0.623207 0
    outer loop
      vertex -2.6748 18.7518 -1
      vertex -2.99622 18.3485 -2.24704e-15
      vertex -2.99622 18.3485 -1
    endloop
  endfacet
  facet normal 0.844361 -0.535774 0
    outer loop
      vertex -3.0164 18.3167 -2.24315e-15
      vertex -2.99622 18.3485 -1
      vertex -2.99622 18.3485 -2.24704e-15
    endloop
  endfacet
  facet normal 0.844361 -0.535774 0
    outer loop
      vertex -2.99622 18.3485 -1
      vertex -3.0164 18.3167 -2.24315e-15
      vertex -3.0164 18.3167 -1
    endloop
  endfacet
  facet normal 0.860578 -0.509318 0
    outer loop
      vertex -3.26805 17.8915 -2.19108e-15
      vertex -3.0164 18.3167 -1
      vertex -3.0164 18.3167 -2.24315e-15
    endloop
  endfacet
  facet normal 0.860578 -0.509318 0
    outer loop
      vertex -3.0164 18.3167 -1
      vertex -3.26805 17.8915 -2.19108e-15
      vertex -3.26805 17.8915 -1
    endloop
  endfacet
  facet normal 0.904709 -0.426031 0
    outer loop
      vertex -3.2841 17.8574 -2.1869e-15
      vertex -3.26805 17.8915 -1
      vertex -3.26805 17.8915 -2.19108e-15
    endloop
  endfacet
  facet normal 0.904709 -0.426031 0
    outer loop
      vertex -3.26805 17.8915 -1
      vertex -3.2841 17.8574 -2.1869e-15
      vertex -3.2841 17.8574 -1
    endloop
  endfacet
  facet normal 0.917844 -0.396942 0
    outer loop
      vertex -3.49001 17.3813 -2.1286e-15
      vertex -3.2841 17.8574 -1
      vertex -3.2841 17.8574 -2.1869e-15
    endloop
  endfacet
  facet normal 0.917844 -0.396942 0
    outer loop
      vertex -3.2841 17.8574 -1
      vertex -3.49001 17.3813 -2.1286e-15
      vertex -3.49001 17.3813 -1
    endloop
  endfacet
  facet normal 0.956442 -0.291924 0
    outer loop
      vertex -3.66179 16.8185 -2.05967e-15
      vertex -3.49001 17.3813 -1
      vertex -3.49001 17.3813 -2.1286e-15
    endloop
  endfacet
  facet normal 0.956442 -0.291924 0
    outer loop
      vertex -3.49001 17.3813 -1
      vertex -3.66179 16.8185 -2.05967e-15
      vertex -3.66179 16.8185 -1
    endloop
  endfacet
  facet normal 0.981049 -0.193761 0
    outer loop
      vertex -3.78323 16.2036 -1.98437e-15
      vertex -3.66179 16.8185 -1
      vertex -3.66179 16.8185 -2.05967e-15
    endloop
  endfacet
  facet normal 0.981049 -0.193761 0
    outer loop
      vertex -3.66179 16.8185 -1
      vertex -3.78323 16.2036 -1.98437e-15
      vertex -3.78323 16.2036 -1
    endloop
  endfacet
  facet normal 0.994096 -0.108506 0
    outer loop
      vertex -3.85187 15.5748 -1.90736e-15
      vertex -3.78323 16.2036 -1
      vertex -3.78323 16.2036 -1.98437e-15
    endloop
  endfacet
  facet normal 0.994096 -0.108506 0
    outer loop
      vertex -3.78323 16.2036 -1
      vertex -3.85187 15.5748 -1.90736e-15
      vertex -3.85187 15.5748 -1
    endloop
  endfacet
  facet normal 0.998027 -0.0627817 0
    outer loop
      vertex -3.85423 15.5372 -1.90276e-15
      vertex -3.85187 15.5748 -1
      vertex -3.85187 15.5748 -1.90736e-15
    endloop
  endfacet
  facet normal 0.998027 -0.0627817 0
    outer loop
      vertex -3.85187 15.5748 -1
      vertex -3.85423 15.5372 -1.90276e-15
      vertex -3.85423 15.5372 -1
    endloop
  endfacet
  facet normal 0.999434 -0.0336331 0
    outer loop
      vertex -3.87711 14.8575 -1.81952e-15
      vertex -3.85423 15.5372 -1
      vertex -3.85423 15.5372 -1.90276e-15
    endloop
  endfacet
  facet normal 0.999434 -0.0336331 0
    outer loop
      vertex -3.85423 15.5372 -1
      vertex -3.87711 14.8575 -1.81952e-15
      vertex -3.87711 14.8575 -1
    endloop
  endfacet
  facet normal 1 0 0
    outer loop
      vertex -3.87711 -13.7261 1.68096e-15
      vertex -3.87711 14.8575 -1
      vertex -3.87711 14.8575 -1.81952e-15
    endloop
  endfacet
  facet normal 1 0 0
    outer loop
      vertex -3.87711 14.8575 -1
      vertex -3.87711 -13.7261 1.68096e-15
      vertex -3.87711 -13.7261 -1
    endloop
  endfacet
  facet normal 0 -1 0
    outer loop
      vertex -12.3849 -13.7261 -1
      vertex -3.87711 -13.7261 1.68096e-15
      vertex -12.3849 -13.7261 1.68096e-15
    endloop
  endfacet
  facet normal 0 -1 -0
    outer loop
      vertex -3.87711 -13.7261 1.68096e-15
      vertex -12.3849 -13.7261 -1
      vertex -3.87711 -13.7261 -1
    endloop
  endfacet
  facet normal 0.0327169 -0.999465 0
    outer loop
      vertex -12.9522 -13.7447 -1
      vertex -12.3849 -13.7261 1.68096e-15
      vertex -12.9522 -13.7447 1.68324e-15
    endloop
  endfacet
  facet normal 0.0327169 -0.999465 0
    outer loop
      vertex -12.3849 -13.7261 1.68096e-15
      vertex -12.9522 -13.7447 -1
      vertex -12.3849 -13.7261 -1
    endloop
  endfacet
  facet normal 0.107018 -0.994257 0
    outer loop
      vertex -13.5138 -13.8051 -1
      vertex -12.9522 -13.7447 1.68324e-15
      vertex -13.5138 -13.8051 1.69064e-15
    endloop
  endfacet
  facet normal 0.107018 -0.994257 0
    outer loop
      vertex -12.9522 -13.7447 1.68324e-15
      vertex -13.5138 -13.8051 -1
      vertex -12.9522 -13.7447 -1
    endloop
  endfacet
  facet normal 0.189565 -0.981868 0
    outer loop
      vertex -13.9948 -13.898 -1
      vertex -13.5138 -13.8051 1.69064e-15
      vertex -13.9948 -13.898 1.70201e-15
    endloop
  endfacet
  facet normal 0.189565 -0.981868 0
    outer loop
      vertex -13.5138 -13.8051 1.69064e-15
      vertex -13.9948 -13.898 -1
      vertex -13.5138 -13.8051 -1
    endloop
  endfacet
  facet normal 0.248726 -0.968574 0
    outer loop
      vertex -14.0312 -13.9073 -1
      vertex -13.9948 -13.898 1.70201e-15
      vertex -14.0312 -13.9073 1.70316e-15
    endloop
  endfacet
  facet normal 0.248726 -0.968574 0
    outer loop
      vertex -13.9948 -13.898 1.70201e-15
      vertex -14.0312 -13.9073 -1
      vertex -13.9948 -13.898 -1
    endloop
  endfacet
  facet normal 0.284604 -0.958645 0
    outer loop
      vertex -14.4691 -14.0373 -1
      vertex -14.0312 -13.9073 1.70316e-15
      vertex -14.4691 -14.0373 1.71908e-15
    endloop
  endfacet
  facet normal 0.284604 -0.958645 0
    outer loop
      vertex -14.0312 -13.9073 1.70316e-15
      vertex -14.4691 -14.0373 -1
      vertex -14.0312 -13.9073 -1
    endloop
  endfacet
  facet normal 0.388181 -0.921583 0
    outer loop
      vertex -14.8988 -14.2183 -1
      vertex -14.4691 -14.0373 1.71908e-15
      vertex -14.8988 -14.2183 1.74124e-15
    endloop
  endfacet
  facet normal 0.388181 -0.921583 0
    outer loop
      vertex -14.4691 -14.0373 1.71908e-15
      vertex -14.8988 -14.2183 -1
      vertex -14.4691 -14.0373 -1
    endloop
  endfacet
  facet normal 0.500656 -0.865646 0
    outer loop
      vertex -15.2834 -14.4408 -1
      vertex -14.8988 -14.2183 1.74124e-15
      vertex -15.2834 -14.4408 1.76848e-15
    endloop
  endfacet
  facet normal 0.500656 -0.865646 0
    outer loop
      vertex -14.8988 -14.2183 1.74124e-15
      vertex -15.2834 -14.4408 -1
      vertex -14.8988 -14.2183 -1
    endloop
  endfacet
  facet normal 0.587883 -0.808946 0
    outer loop
      vertex -15.3139 -14.4629 -1
      vertex -15.2834 -14.4408 1.76848e-15
      vertex -15.3139 -14.4629 1.7712e-15
    endloop
  endfacet
  facet normal 0.587883 -0.808946 0
    outer loop
      vertex -15.2834 -14.4408 1.76848e-15
      vertex -15.3139 -14.4629 -1
      vertex -15.2834 -14.4408 -1
    endloop
  endfacet
  facet normal 0.616384 -0.787446 0
    outer loop
      vertex -15.6223 -14.7043 -1
      vertex -15.3139 -14.4629 1.7712e-15
      vertex -15.6223 -14.7043 1.80076e-15
    endloop
  endfacet
  facet normal 0.616384 -0.787446 0
    outer loop
      vertex -15.3139 -14.4629 1.7712e-15
      vertex -15.6223 -14.7043 -1
      vertex -15.3139 -14.4629 -1
    endloop
  endfacet
  facet normal 0.68448 -0.729032 0
    outer loop
      vertex -15.6498 -14.7301 -1
      vertex -15.6223 -14.7043 1.80076e-15
      vertex -15.6498 -14.7301 1.80392e-15
    endloop
  endfacet
  facet normal 0.68448 -0.729032 0
    outer loop
      vertex -15.6223 -14.7043 1.80076e-15
      vertex -15.6498 -14.7301 -1
      vertex -15.6223 -14.7043 -1
    endloop
  endfacet
  facet normal 0.714385 -0.699753 0
    outer loop
      vertex -15.9162 -15.0021 1.83722e-15
      vertex -15.6498 -14.7301 -1
      vertex -15.6498 -14.7301 1.80392e-15
    endloop
  endfacet
  facet normal 0.714385 -0.699753 0
    outer loop
      vertex -15.6498 -14.7301 -1
      vertex -15.9162 -15.0021 1.83722e-15
      vertex -15.9162 -15.0021 -1
    endloop
  endfacet
  facet normal 0.770607 -0.637311 0
    outer loop
      vertex -15.9402 -15.0311 1.84078e-15
      vertex -15.9162 -15.0021 -1
      vertex -15.9162 -15.0021 1.83722e-15
    endloop
  endfacet
  facet normal 0.770607 -0.637311 0
    outer loop
      vertex -15.9162 -15.0021 -1
      vertex -15.9402 -15.0311 1.84078e-15
      vertex -15.9402 -15.0311 -1
    endloop
  endfacet
  facet normal 0.795357 -0.606141 0
    outer loop
      vertex -16.1656 -15.3268 1.877e-15
      vertex -15.9402 -15.0311 -1
      vertex -15.9402 -15.0311 1.84078e-15
    endloop
  endfacet
  facet normal 0.795357 -0.606141 0
    outer loop
      vertex -15.9402 -15.0311 -1
      vertex -16.1656 -15.3268 1.877e-15
      vertex -16.1656 -15.3268 -1
    endloop
  endfacet
  facet normal 0.844361 -0.535774 0
    outer loop
      vertex -16.1857 -15.3586 1.88089e-15
      vertex -16.1656 -15.3268 -1
      vertex -16.1656 -15.3268 1.877e-15
    endloop
  endfacet
  facet normal 0.844361 -0.535774 0
    outer loop
      vertex -16.1656 -15.3268 -1
      vertex -16.1857 -15.3586 1.88089e-15
      vertex -16.1857 -15.3586 -1
    endloop
  endfacet
  facet normal 0.866144 -0.499795 0
    outer loop
      vertex -16.3702 -15.6782 1.92003e-15
      vertex -16.1857 -15.3586 -1
      vertex -16.1857 -15.3586 1.88089e-15
    endloop
  endfacet
  facet normal 0.866144 -0.499795 0
    outer loop
      vertex -16.1857 -15.3586 -1
      vertex -16.3702 -15.6782 1.92003e-15
      vertex -16.3702 -15.6782 -1
    endloop
  endfacet
  facet normal 0.904709 -0.426031 0
    outer loop
      vertex -16.3862 -15.7123 1.9242e-15
      vertex -16.3702 -15.6782 -1
      vertex -16.3702 -15.6782 1.92003e-15
    endloop
  endfacet
  facet normal 0.904709 -0.426031 0
    outer loop
      vertex -16.3702 -15.6782 -1
      vertex -16.3862 -15.7123 1.9242e-15
      vertex -16.3862 -15.7123 -1
    endloop
  endfacet
  facet normal 0.92277 -0.385352 0
    outer loop
      vertex -16.5296 -16.0558 1.96626e-15
      vertex -16.3862 -15.7123 -1
      vertex -16.3862 -15.7123 1.9242e-15
    endloop
  endfacet
  facet normal 0.92277 -0.385352 0
    outer loop
      vertex -16.3862 -15.7123 -1
      vertex -16.5296 -16.0558 1.96626e-15
      vertex -16.5296 -16.0558 -1
    endloop
  endfacet
  facet normal 0.951046 -0.309049 0
    outer loop
      vertex -16.5413 -16.0916 1.97065e-15
      vertex -16.5296 -16.0558 -1
      vertex -16.5296 -16.0558 1.96626e-15
    endloop
  endfacet
  facet normal 0.951046 -0.309049 0
    outer loop
      vertex -16.5296 -16.0558 -1
      vertex -16.5413 -16.0916 1.97065e-15
      vertex -16.5413 -16.0916 -1
    endloop
  endfacet
  facet normal 0.963216 -0.268727 0
    outer loop
      vertex -16.6437 -16.4588 2.01563e-15
      vertex -16.5413 -16.0916 -1
      vertex -16.5413 -16.0916 1.97065e-15
    endloop
  endfacet
  facet normal 0.963216 -0.268727 0
    outer loop
      vertex -16.5413 -16.0916 -1
      vertex -16.6437 -16.4588 2.01563e-15
      vertex -16.6437 -16.4588 -1
    endloop
  endfacet
  facet normal 0.982331 -0.187149 0
    outer loop
      vertex -16.6508 -16.4958 2.02016e-15
      vertex -16.6437 -16.4588 -1
      vertex -16.6437 -16.4588 2.01563e-15
    endloop
  endfacet
  facet normal 0.982331 -0.187149 0
    outer loop
      vertex -16.6437 -16.4588 -1
      vertex -16.6508 -16.4958 2.02016e-15
      vertex -16.6508 -16.4958 -1
    endloop
  endfacet
  facet normal 0.987876 -0.155242 0
    outer loop
      vertex -16.7122 -16.887 2.06806e-15
      vertex -16.6508 -16.4958 -1
      vertex -16.6508 -16.4958 2.02016e-15
    endloop
  endfacet
  facet normal 0.987876 -0.155242 0
    outer loop
      vertex -16.6508 -16.4958 -1
      vertex -16.7122 -16.887 2.06806e-15
      vertex -16.7122 -16.887 -1
    endloop
  endfacet
  facet normal 0.998727 -0.0504465 0
    outer loop
      vertex -16.7351 -17.3395 2.12348e-15
      vertex -16.7122 -16.887 -1
      vertex -16.7122 -16.887 2.06806e-15
    endloop
  endfacet
  facet normal 0.998727 -0.0504465 0
    outer loop
      vertex -16.7122 -16.887 -1
      vertex -16.7351 -17.3395 2.12348e-15
      vertex -16.7351 -17.3395 -1
    endloop
  endfacet
  facet normal 0.998718 0.0506295 0
    outer loop
      vertex -16.7114 -17.8063 2.18065e-15
      vertex -16.7351 -17.3395 -1
      vertex -16.7351 -17.3395 2.12348e-15
    endloop
  endfacet
  facet normal 0.998718 0.0506295 0
    outer loop
      vertex -16.7351 -17.3395 -1
      vertex -16.7114 -17.8063 2.18065e-15
      vertex -16.7114 -17.8063 -1
    endloop
  endfacet
  facet normal 0.987629 0.156806 0
    outer loop
      vertex -16.6475 -18.2089 2.22995e-15
      vertex -16.7114 -17.8063 -1
      vertex -16.7114 -17.8063 2.18065e-15
    endloop
  endfacet
  facet normal 0.987629 0.156806 0
    outer loop
      vertex -16.7114 -17.8063 -1
      vertex -16.6475 -18.2089 2.22995e-15
      vertex -16.6475 -18.2089 -1
    endloop
  endfacet
  facet normal 0.982331 0.187149 0
    outer loop
      vertex -16.6405 -18.2459 2.23448e-15
      vertex -16.6475 -18.2089 -1
      vertex -16.6475 -18.2089 2.22995e-15
    endloop
  endfacet
  facet normal 0.982331 0.187149 0
    outer loop
      vertex -16.6475 -18.2089 -1
      vertex -16.6405 -18.2459 2.23448e-15
      vertex -16.6405 -18.2459 -1
    endloop
  endfacet
  facet normal 0.962114 0.272647 0
    outer loop
      vertex -16.5339 -18.6219 2.28052e-15
      vertex -16.6405 -18.2459 -1
      vertex -16.6405 -18.2459 2.23448e-15
    endloop
  endfacet
  facet normal 0.962114 0.272647 0
    outer loop
      vertex -16.6405 -18.2459 -1
      vertex -16.5339 -18.6219 2.28052e-15
      vertex -16.5339 -18.6219 -1
    endloop
  endfacet
  facet normal 0.951046 0.309049 0
    outer loop
      vertex -16.5223 -18.6577 2.28491e-15
      vertex -16.5339 -18.6219 -1
      vertex -16.5339 -18.6219 2.28052e-15
    endloop
  endfacet
  facet normal 0.951046 0.309049 0
    outer loop
      vertex -16.5339 -18.6219 -1
      vertex -16.5223 -18.6577 2.28491e-15
      vertex -16.5223 -18.6577 -1
    endloop
  endfacet
  facet normal 0.919674 0.392682 0
    outer loop
      vertex -16.3732 -19.007 2.32768e-15
      vertex -16.5223 -18.6577 -1
      vertex -16.5223 -18.6577 2.28491e-15
    endloop
  endfacet
  facet normal 0.919674 0.392682 0
    outer loop
      vertex -16.5223 -18.6577 -1
      vertex -16.3732 -19.007 2.32768e-15
      vertex -16.3732 -19.007 -1
    endloop
  endfacet
  facet normal 0.904709 0.426031 0
    outer loop
      vertex -16.3571 -19.0411 2.33186e-15
      vertex -16.3732 -19.007 -1
      vertex -16.3732 -19.007 2.32768e-15
    endloop
  endfacet
  facet normal 0.904709 0.426031 0
    outer loop
      vertex -16.3732 -19.007 -1
      vertex -16.3571 -19.0411 2.33186e-15
      vertex -16.3571 -19.0411 -1
    endloop
  endfacet
  facet normal 0.858265 0.513207 0
    outer loop
      vertex -16.1452 -19.3955 2.37527e-15
      vertex -16.3571 -19.0411 -1
      vertex -16.3571 -19.0411 2.33186e-15
    endloop
  endfacet
  facet normal 0.858265 0.513207 0
    outer loop
      vertex -16.3571 -19.0411 -1
      vertex -16.1452 -19.3955 2.37527e-15
      vertex -16.1452 -19.3955 -1
    endloop
  endfacet
  facet normal 0.782769 0.622312 0
    outer loop
      vertex -15.8868 -19.7205 2.41507e-15
      vertex -16.1452 -19.3955 -1
      vertex -16.1452 -19.3955 2.37527e-15
    endloop
  endfacet
  facet normal 0.782769 0.622312 0
    outer loop
      vertex -16.1452 -19.3955 -1
      vertex -15.8868 -19.7205 2.41507e-15
      vertex -15.8868 -19.7205 -1
    endloop
  endfacet
  facet normal 0.696009 0.718033 -0
    outer loop
      vertex -15.5823 -20.0156 -1
      vertex -15.8868 -19.7205 2.41507e-15
      vertex -15.5823 -20.0156 2.45121e-15
    endloop
  endfacet
  facet normal 0.696009 0.718033 0
    outer loop
      vertex -15.8868 -19.7205 2.41507e-15
      vertex -15.5823 -20.0156 -1
      vertex -15.8868 -19.7205 -1
    endloop
  endfacet
  facet normal 0.5986 0.801048 -0
    outer loop
      vertex -15.2342 -20.2758 -1
      vertex -15.5823 -20.0156 2.45121e-15
      vertex -15.2342 -20.2758 2.48307e-15
    endloop
  endfacet
  facet normal 0.5986 0.801048 0
    outer loop
      vertex -15.5823 -20.0156 2.45121e-15
      vertex -15.2342 -20.2758 -1
      vertex -15.5823 -20.0156 -1
    endloop
  endfacet
  facet normal 0.49162 0.87081 -0
    outer loop
      vertex -14.8454 -20.4953 -1
      vertex -15.2342 -20.2758 2.48307e-15
      vertex -14.8454 -20.4953 2.50995e-15
    endloop
  endfacet
  facet normal 0.49162 0.87081 0
    outer loop
      vertex -15.2342 -20.2758 2.48307e-15
      vertex -14.8454 -20.4953 -1
      vertex -15.2342 -20.2758 -1
    endloop
  endfacet
  facet normal 0.384364 0.923182 -0
    outer loop
      vertex -14.4164 -20.6739 -1
      vertex -14.8454 -20.4953 2.50995e-15
      vertex -14.4164 -20.6739 2.53182e-15
    endloop
  endfacet
  facet normal 0.384364 0.923182 0
    outer loop
      vertex -14.8454 -20.4953 2.50995e-15
      vertex -14.4164 -20.6739 -1
      vertex -14.8454 -20.4953 -1
    endloop
  endfacet
  facet normal 0.284293 0.958737 -0
    outer loop
      vertex -13.9842 -20.802 -1
      vertex -14.4164 -20.6739 2.53182e-15
      vertex -13.9842 -20.802 2.54752e-15
    endloop
  endfacet
  facet normal 0.284293 0.958737 0
    outer loop
      vertex -14.4164 -20.6739 2.53182e-15
      vertex -13.9842 -20.802 -1
      vertex -14.4164 -20.6739 -1
    endloop
  endfacet
  facet normal 0.248726 0.968574 -0
    outer loop
      vertex -13.9477 -20.8114 -1
      vertex -13.9842 -20.802 2.54752e-15
      vertex -13.9477 -20.8114 2.54866e-15
    endloop
  endfacet
  facet normal 0.248726 0.968574 0
    outer loop
      vertex -13.9842 -20.802 2.54752e-15
      vertex -13.9477 -20.8114 -1
      vertex -13.9842 -20.802 -1
    endloop
  endfacet
  facet normal 0.191018 0.981587 -0
    outer loop
      vertex -13.4774 -20.9029 -1
      vertex -13.9477 -20.8114 2.54866e-15
      vertex -13.4774 -20.9029 2.55987e-15
    endloop
  endfacet
  facet normal 0.191018 0.981587 0
    outer loop
      vertex -13.9477 -20.8114 2.54866e-15
      vertex -13.4774 -20.9029 -1
      vertex -13.9477 -20.8114 -1
    endloop
  endfacet
  facet normal 0.108653 0.99408 -0
    outer loop
      vertex -12.9316 -20.9626 -1
      vertex -13.4774 -20.9029 2.55987e-15
      vertex -12.9316 -20.9626 2.56718e-15
    endloop
  endfacet
  facet normal 0.108653 0.99408 0
    outer loop
      vertex -13.4774 -20.9029 2.55987e-15
      vertex -12.9316 -20.9626 -1
      vertex -13.4774 -20.9029 -1
    endloop
  endfacet
  facet normal 0.0334505 0.99944 -0
    outer loop
      vertex -12.3849 -20.9809 -1
      vertex -12.9316 -20.9626 2.56718e-15
      vertex -12.3849 -20.9809 2.56942e-15
    endloop
  endfacet
  facet normal 0.0334505 0.99944 0
    outer loop
      vertex -12.9316 -20.9626 2.56718e-15
      vertex -12.3849 -20.9809 -1
      vertex -12.9316 -20.9626 -1
    endloop
  endfacet
  facet normal 0 1 -0
    outer loop
      vertex 13.2297 -20.9809 -1
      vertex -12.3849 -20.9809 2.56942e-15
      vertex 13.2297 -20.9809 2.56942e-15
    endloop
  endfacet
  facet normal 0 1 0
    outer loop
      vertex -12.3849 -20.9809 2.56942e-15
      vertex 13.2297 -20.9809 -1
      vertex -12.3849 -20.9809 -1
    endloop
  endfacet
  facet normal -0.0327832 0.999462 0
    outer loop
      vertex 13.8047 -20.962 -1
      vertex 13.2297 -20.9809 2.56942e-15
      vertex 13.8047 -20.962 2.56711e-15
    endloop
  endfacet
  facet normal -0.0327832 0.999462 0
    outer loop
      vertex 13.2297 -20.9809 2.56942e-15
      vertex 13.8047 -20.962 -1
      vertex 13.2297 -20.9809 -1
    endloop
  endfacet
  facet normal -0.107175 0.99424 0
    outer loop
      vertex 14.3733 -20.9007 -1
      vertex 13.8047 -20.962 2.56711e-15
      vertex 14.3733 -20.9007 2.5596e-15
    endloop
  endfacet
  facet normal -0.107175 0.99424 0
    outer loop
      vertex 13.8047 -20.962 2.56711e-15
      vertex 14.3733 -20.9007 -1
      vertex 13.8047 -20.962 -1
    endloop
  endfacet
  facet normal -0.189901 0.981803 0
    outer loop
      vertex 14.8607 -20.8065 -1
      vertex 14.3733 -20.9007 2.5596e-15
      vertex 14.8607 -20.8065 2.54806e-15
    endloop
  endfacet
  facet normal -0.189901 0.981803 0
    outer loop
      vertex 14.3733 -20.9007 2.5596e-15
      vertex 14.8607 -20.8065 -1
      vertex 14.3733 -20.9007 -1
    endloop
  endfacet
  facet normal -0.248726 0.968574 0
    outer loop
      vertex 14.8972 -20.7971 -1
      vertex 14.8607 -20.8065 2.54806e-15
      vertex 14.8972 -20.7971 2.54691e-15
    endloop
  endfacet
  facet normal -0.248726 0.968574 0
    outer loop
      vertex 14.8607 -20.8065 2.54806e-15
      vertex 14.8972 -20.7971 -1
      vertex 14.8607 -20.8065 -1
    endloop
  endfacet
  facet normal -0.28514 0.958486 0
    outer loop
      vertex 15.341 -20.6651 -1
      vertex 14.8972 -20.7971 2.54691e-15
      vertex 15.341 -20.6651 2.53074e-15
    endloop
  endfacet
  facet normal -0.28514 0.958486 0
    outer loop
      vertex 14.8972 -20.7971 2.54691e-15
      vertex 15.341 -20.6651 -1
      vertex 14.8972 -20.7971 -1
    endloop
  endfacet
  facet normal -0.388827 0.921311 0
    outer loop
      vertex 15.7759 -20.4815 -1
      vertex 15.341 -20.6651 2.53074e-15
      vertex 15.7759 -20.4815 2.50826e-15
    endloop
  endfacet
  facet normal -0.388827 0.921311 0
    outer loop
      vertex 15.341 -20.6651 2.53074e-15
      vertex 15.7759 -20.4815 -1
      vertex 15.341 -20.6651 -1
    endloop
  endfacet
  facet normal -0.501423 0.865202 0
    outer loop
      vertex 16.1652 -20.2559 -1
      vertex 15.7759 -20.4815 2.50826e-15
      vertex 16.1652 -20.2559 2.48064e-15
    endloop
  endfacet
  facet normal -0.501423 0.865202 0
    outer loop
      vertex 15.7759 -20.4815 2.50826e-15
      vertex 16.1652 -20.2559 -1
      vertex 15.7759 -20.4815 -1
    endloop
  endfacet
  facet normal -0.587883 0.808946 0
    outer loop
      vertex 16.1956 -20.2338 -1
      vertex 16.1652 -20.2559 2.48064e-15
      vertex 16.1956 -20.2338 2.47792e-15
    endloop
  endfacet
  facet normal -0.587883 0.808946 0
    outer loop
      vertex 16.1652 -20.2559 2.48064e-15
      vertex 16.1956 -20.2338 -1
      vertex 16.1652 -20.2559 -1
    endloop
  endfacet
  facet normal -0.617292 0.786734 0
    outer loop
      vertex 16.5081 -19.9886 -1
      vertex 16.1956 -20.2338 2.47792e-15
      vertex 16.5081 -19.9886 2.4479e-15
    endloop
  endfacet
  facet normal -0.617292 0.786734 0
    outer loop
      vertex 16.1956 -20.2338 2.47792e-15
      vertex 16.5081 -19.9886 -1
      vertex 16.1956 -20.2338 -1
    endloop
  endfacet
  facet normal -0.68448 0.729032 0
    outer loop
      vertex 16.5356 -19.9628 -1
      vertex 16.5081 -19.9886 2.4479e-15
      vertex 16.5356 -19.9628 2.44474e-15
    endloop
  endfacet
  facet normal -0.68448 0.729032 0
    outer loop
      vertex 16.5081 -19.9886 2.4479e-15
      vertex 16.5356 -19.9628 -1
      vertex 16.5081 -19.9886 -1
    endloop
  endfacet
  facet normal -0.714293 0.699847 0
    outer loop
      vertex 16.5356 -19.9628 -1
      vertex 16.8054 -19.6875 2.41102e-15
      vertex 16.8054 -19.6875 -1
    endloop
  endfacet
  facet normal -0.714293 0.699847 0
    outer loop
      vertex 16.8054 -19.6875 2.41102e-15
      vertex 16.5356 -19.9628 -1
      vertex 16.5356 -19.9628 2.44474e-15
    endloop
  endfacet
  facet normal -0.770607 0.637311 0
    outer loop
      vertex 16.8054 -19.6875 -1
      vertex 16.8294 -19.6584 2.40746e-15
      vertex 16.8294 -19.6584 -1
    endloop
  endfacet
  facet normal -0.770607 0.637311 0
    outer loop
      vertex 16.8294 -19.6584 2.40746e-15
      vertex 16.8054 -19.6875 -1
      vertex 16.8054 -19.6875 2.41102e-15
    endloop
  endfacet
  facet normal -0.794542 0.607209 0
    outer loop
      vertex 16.8294 -19.6584 -1
      vertex 17.0577 -19.3597 2.37088e-15
      vertex 17.0577 -19.3597 -1
    endloop
  endfacet
  facet normal -0.794542 0.607209 0
    outer loop
      vertex 17.0577 -19.3597 2.37088e-15
      vertex 16.8294 -19.6584 -1
      vertex 16.8294 -19.6584 2.40746e-15
    endloop
  endfacet
  facet normal -0.844361 0.535774 0
    outer loop
      vertex 17.0577 -19.3597 -1
      vertex 17.0779 -19.3279 2.36698e-15
      vertex 17.0779 -19.3279 -1
    endloop
  endfacet
  facet normal -0.844361 0.535774 0
    outer loop
      vertex 17.0779 -19.3279 2.36698e-15
      vertex 17.0577 -19.3597 -1
      vertex 17.0577 -19.3597 2.37088e-15
    endloop
  endfacet
  facet normal -0.865043 0.501698 0
    outer loop
      vertex 17.0779 -19.3279 -1
      vertex 17.2647 -19.0058 2.32754e-15
      vertex 17.2647 -19.0058 -1
    endloop
  endfacet
  facet normal -0.865043 0.501698 0
    outer loop
      vertex 17.2647 -19.0058 2.32754e-15
      vertex 17.0779 -19.3279 -1
      vertex 17.0779 -19.3279 2.36698e-15
    endloop
  endfacet
  facet normal -0.904709 0.426031 0
    outer loop
      vertex 17.2647 -19.0058 -1
      vertex 17.2807 -18.9717 2.32336e-15
      vertex 17.2807 -18.9717 -1
    endloop
  endfacet
  facet normal -0.904709 0.426031 0
    outer loop
      vertex 17.2807 -18.9717 2.32336e-15
      vertex 17.2647 -19.0058 -1
      vertex 17.2647 -19.0058 2.32754e-15
    endloop
  endfacet
  facet normal -0.921792 0.387684 0
    outer loop
      vertex 17.2807 -18.9717 -1
      vertex 17.426 -18.6263 2.28106e-15
      vertex 17.426 -18.6263 -1
    endloop
  endfacet
  facet normal -0.921792 0.387684 0
    outer loop
      vertex 17.426 -18.6263 2.28106e-15
      vertex 17.2807 -18.9717 -1
      vertex 17.2807 -18.9717 2.32336e-15
    endloop
  endfacet
  facet normal -0.951046 0.309049 0
    outer loop
      vertex 17.426 -18.6263 -1
      vertex 17.4376 -18.5905 2.27667e-15
      vertex 17.4376 -18.5905 -1
    endloop
  endfacet
  facet normal -0.951046 0.309049 0
    outer loop
      vertex 17.4376 -18.5905 2.27667e-15
      vertex 17.426 -18.6263 -1
      vertex 17.426 -18.6263 2.28106e-15
    endloop
  endfacet
  facet normal -0.962602 0.270921 0
    outer loop
      vertex 17.4376 -18.5905 -1
      vertex 17.5414 -18.2217 2.23151e-15
      vertex 17.5414 -18.2217 -1
    endloop
  endfacet
  facet normal -0.962602 0.270921 0
    outer loop
      vertex 17.5414 -18.2217 2.23151e-15
      vertex 17.4376 -18.5905 -1
      vertex 17.4376 -18.5905 2.27667e-15
    endloop
  endfacet
  facet normal -0.982331 0.187149 0
    outer loop
      vertex 17.5414 -18.2217 -1
      vertex 17.5485 -18.1847 2.22698e-15
      vertex 17.5485 -18.1847 -1
    endloop
  endfacet
  facet normal -0.982331 0.187149 0
    outer loop
      vertex 17.5485 -18.1847 2.22698e-15
      vertex 17.5414 -18.2217 -1
      vertex 17.5414 -18.2217 2.23151e-15
    endloop
  endfacet
  facet normal -0.98763 0.156803 0
    outer loop
      vertex 17.5485 -18.1847 -1
      vertex 17.6107 -17.7926 2.17896e-15
      vertex 17.6107 -17.7926 -1
    endloop
  endfacet
  facet normal -0.98763 0.156803 0
    outer loop
      vertex 17.6107 -17.7926 2.17896e-15
      vertex 17.5485 -18.1847 -1
      vertex 17.5485 -18.1847 2.22698e-15
    endloop
  endfacet
  facet normal -0.998701 0.0509576 0
    outer loop
      vertex 17.6107 -17.7926 -1
      vertex 17.6339 -17.3395 2.12348e-15
      vertex 17.6339 -17.3395 -1
    endloop
  endfacet
  facet normal -0.998701 0.0509576 0
    outer loop
      vertex 17.6339 -17.3395 2.12348e-15
      vertex 17.6107 -17.7926 -1
      vertex 17.6107 -17.7926 2.17896e-15
    endloop
  endfacet
  facet normal -0.998665 -0.0516557 0
    outer loop
      vertex 17.6339 -17.3395 -1
      vertex 17.6104 -16.887 2.06806e-15
      vertex 17.6104 -16.887 -1
    endloop
  endfacet
  facet normal -0.998665 -0.0516557 0
    outer loop
      vertex 17.6104 -16.887 2.06806e-15
      vertex 17.6339 -17.3395 -1
      vertex 17.6339 -17.3395 2.12348e-15
    endloop
  endfacet
  facet normal -0.986836 -0.161723 0
    outer loop
      vertex 17.6104 -16.887 -1
      vertex 17.5403 -16.4588 2.01563e-15
      vertex 17.5403 -16.4588 -1
    endloop
  endfacet
  facet normal -0.986836 -0.161723 0
    outer loop
      vertex 17.5403 -16.4588 2.01563e-15
      vertex 17.6104 -16.887 -1
      vertex 17.6104 -16.887 2.06806e-15
    endloop
  endfacet
  facet normal -0.961332 -0.275391 0
    outer loop
      vertex 17.5403 -16.4588 -1
      vertex 17.4351 -16.0916 1.97065e-15
      vertex 17.4351 -16.0916 -1
    endloop
  endfacet
  facet normal -0.961332 -0.275391 0
    outer loop
      vertex 17.4351 -16.0916 1.97065e-15
      vertex 17.5403 -16.4588 -1
      vertex 17.5403 -16.4588 2.01563e-15
    endloop
  endfacet
  facet normal -0.951046 -0.309049 0
    outer loop
      vertex 17.4351 -16.0916 -1
      vertex 17.4234 -16.0558 1.96626e-15
      vertex 17.4234 -16.0558 -1
    endloop
  endfacet
  facet normal -0.951046 -0.309049 0
    outer loop
      vertex 17.4234 -16.0558 1.96626e-15
      vertex 17.4351 -16.0916 -1
      vertex 17.4351 -16.0916 1.97065e-15
    endloop
  endfacet
  facet normal -0.919039 -0.394166 0
    outer loop
      vertex 17.4234 -16.0558 -1
      vertex 17.2761 -15.7123 1.9242e-15
      vertex 17.2761 -15.7123 -1
    endloop
  endfacet
  facet normal -0.919039 -0.394166 0
    outer loop
      vertex 17.2761 -15.7123 1.9242e-15
      vertex 17.4234 -16.0558 -1
      vertex 17.4234 -16.0558 1.96626e-15
    endloop
  endfacet
  facet normal -0.904709 -0.426031 0
    outer loop
      vertex 17.2761 -15.7123 -1
      vertex 17.2601 -15.6782 1.92003e-15
      vertex 17.2601 -15.6782 -1
    endloop
  endfacet
  facet normal -0.904709 -0.426031 0
    outer loop
      vertex 17.2601 -15.6782 1.92003e-15
      vertex 17.2761 -15.7123 -1
      vertex 17.2761 -15.7123 1.9242e-15
    endloop
  endfacet
  facet normal -0.860325 -0.509746 0
    outer loop
      vertex 17.2601 -15.6782 -1
      vertex 17.0707 -15.3586 1.88089e-15
      vertex 17.0707 -15.3586 -1
    endloop
  endfacet
  facet normal -0.860325 -0.509746 0
    outer loop
      vertex 17.0707 -15.3586 1.88089e-15
      vertex 17.2601 -15.6782 -1
      vertex 17.2601 -15.6782 1.92003e-15
    endloop
  endfacet
  facet normal -0.844361 -0.535774 0
    outer loop
      vertex 17.0707 -15.3586 -1
      vertex 17.0505 -15.3268 1.877e-15
      vertex 17.0505 -15.3268 -1
    endloop
  endfacet
  facet normal -0.844361 -0.535774 0
    outer loop
      vertex 17.0505 -15.3268 1.877e-15
      vertex 17.0707 -15.3586 -1
      vertex 17.0707 -15.3586 1.88089e-15
    endloop
  endfacet
  facet normal -0.785998 -0.618229 0
    outer loop
      vertex 17.0505 -15.3268 -1
      vertex 16.7951 -15.0021 1.83722e-15
      vertex 16.7951 -15.0021 -1
    endloop
  endfacet
  facet normal -0.785998 -0.618229 0
    outer loop
      vertex 16.7951 -15.0021 1.83722e-15
      vertex 17.0505 -15.3268 -1
      vertex 17.0505 -15.3268 1.877e-15
    endloop
  endfacet
  facet normal -0.703222 -0.710971 0
    outer loop
      vertex 16.4941 -14.7043 -1
      vertex 16.7951 -15.0021 1.83722e-15
      vertex 16.4941 -14.7043 1.80076e-15
    endloop
  endfacet
  facet normal -0.703222 -0.710971 -0
    outer loop
      vertex 16.7951 -15.0021 1.83722e-15
      vertex 16.4941 -14.7043 -1
      vertex 16.7951 -15.0021 -1
    endloop
  endfacet
  facet normal -0.606164 -0.79534 0
    outer loop
      vertex 16.1483 -14.4408 -1
      vertex 16.4941 -14.7043 1.80076e-15
      vertex 16.1483 -14.4408 1.76848e-15
    endloop
  endfacet
  facet normal -0.606164 -0.79534 -0
    outer loop
      vertex 16.4941 -14.7043 1.80076e-15
      vertex 16.1483 -14.4408 -1
      vertex 16.4941 -14.7043 -1
    endloop
  endfacet
  facet normal -0.494965 -0.868913 0
    outer loop
      vertex 15.7578 -14.2183 -1
      vertex 16.1483 -14.4408 1.76848e-15
      vertex 15.7578 -14.2183 1.74124e-15
    endloop
  endfacet
  facet normal -0.494965 -0.868913 -0
    outer loop
      vertex 16.1483 -14.4408 1.76848e-15
      vertex 15.7578 -14.2183 -1
      vertex 16.1483 -14.4408 -1
    endloop
  endfacet
  facet normal -0.384468 -0.923138 0
    outer loop
      vertex 15.3232 -14.0373 -1
      vertex 15.7578 -14.2183 1.74124e-15
      vertex 15.3232 -14.0373 1.71908e-15
    endloop
  endfacet
  facet normal -0.384468 -0.923138 -0
    outer loop
      vertex 15.7578 -14.2183 1.74124e-15
      vertex 15.3232 -14.0373 -1
      vertex 15.7578 -14.2183 -1
    endloop
  endfacet
  facet normal -0.282315 -0.959322 0
    outer loop
      vertex 14.8814 -13.9073 -1
      vertex 15.3232 -14.0373 1.71908e-15
      vertex 14.8814 -13.9073 1.70316e-15
    endloop
  endfacet
  facet normal -0.282315 -0.959322 -0
    outer loop
      vertex 15.3232 -14.0373 1.71908e-15
      vertex 14.8814 -13.9073 -1
      vertex 15.3232 -14.0373 -1
    endloop
  endfacet
  facet normal -0.248726 -0.968574 0
    outer loop
      vertex 14.845 -13.898 -1
      vertex 14.8814 -13.9073 1.70316e-15
      vertex 14.845 -13.898 1.70201e-15
    endloop
  endfacet
  facet normal -0.248726 -0.968574 -0
    outer loop
      vertex 14.8814 -13.9073 1.70316e-15
      vertex 14.845 -13.898 -1
      vertex 14.8814 -13.9073 -1
    endloop
  endfacet
  facet normal -0.188492 -0.982075 0
    outer loop
      vertex 14.3611 -13.8051 -1
      vertex 14.845 -13.898 1.70201e-15
      vertex 14.3611 -13.8051 1.69064e-15
    endloop
  endfacet
  facet normal -0.188492 -0.982075 -0
    outer loop
      vertex 14.845 -13.898 1.70201e-15
      vertex 14.3611 -13.8051 -1
      vertex 14.845 -13.898 -1
    endloop
  endfacet
  facet normal -0.106677 -0.994294 0
    outer loop
      vertex 13.7978 -13.7447 -1
      vertex 14.3611 -13.8051 1.69064e-15
      vertex 13.7978 -13.7447 1.68324e-15
    endloop
  endfacet
  facet normal -0.106677 -0.994294 -0
    outer loop
      vertex 14.3611 -13.8051 1.69064e-15
      vertex 13.7978 -13.7447 -1
      vertex 14.3611 -13.8051 -1
    endloop
  endfacet
  facet normal -0.0326712 -0.999466 0
    outer loop
      vertex 13.2297 -13.7261 -1
      vertex 13.7978 -13.7447 1.68324e-15
      vertex 13.2297 -13.7261 1.68096e-15
    endloop
  endfacet
  facet normal -0.0326712 -0.999466 -0
    outer loop
      vertex 13.7978 -13.7447 1.68324e-15
      vertex 13.2297 -13.7261 -1
      vertex 13.7978 -13.7447 -1
    endloop
  endfacet
  facet normal 0 -1 0
    outer loop
      vertex 4.72285 -13.7261 -1
      vertex 13.2297 -13.7261 1.68096e-15
      vertex 4.72285 -13.7261 1.68096e-15
    endloop
  endfacet
  facet normal 0 -1 -0
    outer loop
      vertex 13.2297 -13.7261 1.68096e-15
      vertex 4.72285 -13.7261 -1
      vertex 13.2297 -13.7261 -1
    endloop
  endfacet
  facet normal -1 0 0
    outer loop
      vertex 4.72285 -13.7261 -1
      vertex 4.72285 14.8575 -1.81952e-15
      vertex 4.72285 14.8575 -1
    endloop
  endfacet
  facet normal -1 -0 0
    outer loop
      vertex 4.72285 14.8575 -1.81952e-15
      vertex 4.72285 -13.7261 -1
      vertex 4.72285 -13.7261 1.68096e-15
    endloop
  endfacet
  facet normal -0.999458 -0.0329191 0
    outer loop
      vertex 4.72285 14.8575 -1
      vertex 4.70024 15.5441 -1.9036e-15
      vertex 4.70024 15.5441 -1
    endloop
  endfacet
  facet normal -0.999458 -0.0329191 0
    outer loop
      vertex 4.70024 15.5441 -1.9036e-15
      vertex 4.72285 14.8575 -1
      vertex 4.72285 14.8575 -1.81952e-15
    endloop
  endfacet
  facet normal -0.998027 -0.0627817 0
    outer loop
      vertex 4.70024 15.5441 -1
      vertex 4.69788 15.5817 -1.9082e-15
      vertex 4.69788 15.5817 -1
    endloop
  endfacet
  facet normal -0.998027 -0.0627817 0
    outer loop
      vertex 4.69788 15.5817 -1.9082e-15
      vertex 4.70024 15.5441 -1
      vertex 4.70024 15.5441 -1.9036e-15
    endloop
  endfacet
  facet normal -0.994324 -0.106396 0
    outer loop
      vertex 4.69788 15.5817 -1
      vertex 4.63004 16.2157 -1.98585e-15
      vertex 4.63004 16.2157 -1
    endloop
  endfacet
  facet normal -0.994324 -0.106396 0
    outer loop
      vertex 4.63004 16.2157 -1.98585e-15
      vertex 4.69788 15.5817 -1
      vertex 4.69788 15.5817 -1.9082e-15
    endloop
  endfacet
  facet normal -0.981659 -0.190645 0
    outer loop
      vertex 4.63004 16.2157 -1
      vertex 4.50993 16.8341 -2.06158e-15
      vertex 4.50993 16.8341 -1
    endloop
  endfacet
  facet normal -0.981659 -0.190645 0
    outer loop
      vertex 4.50993 16.8341 -2.06158e-15
      vertex 4.63004 16.2157 -1
      vertex 4.63004 16.2157 -1.98585e-15
    endloop
  endfacet
  facet normal -0.957577 -0.288176 0
    outer loop
      vertex 4.50993 16.8341 -1
      vertex 4.34 17.3988 -2.13074e-15
      vertex 4.34 17.3988 -1
    endloop
  endfacet
  facet normal -0.957577 -0.288176 0
    outer loop
      vertex 4.34 17.3988 -2.13074e-15
      vertex 4.50993 16.8341 -1
      vertex 4.50993 16.8341 -2.06158e-15
    endloop
  endfacet
  facet normal -0.919576 -0.392913 0
    outer loop
      vertex 4.34 17.3988 -1
      vertex 4.13649 17.8751 -2.18906e-15
      vertex 4.13649 17.8751 -1
    endloop
  endfacet
  facet normal -0.919576 -0.392913 0
    outer loop
      vertex 4.13649 17.8751 -2.18906e-15
      vertex 4.34 17.3988 -1
      vertex 4.34 17.3988 -2.13074e-15
    endloop
  endfacet
  facet normal -0.904709 -0.426031 0
    outer loop
      vertex 4.13649 17.8751 -1
      vertex 4.12044 17.9091 -2.19324e-15
      vertex 4.12044 17.9091 -1
    endloop
  endfacet
  facet normal -0.904709 -0.426031 0
    outer loop
      vertex 4.12044 17.9091 -2.19324e-15
      vertex 4.13649 17.8751 -1
      vertex 4.13649 17.8751 -2.18906e-15
    endloop
  endfacet
  facet normal -0.862391 -0.506242 0
    outer loop
      vertex 4.12044 17.9091 -1
      vertex 3.8717 18.3329 -2.24513e-15
      vertex 3.8717 18.3329 -1
    endloop
  endfacet
  facet normal -0.862391 -0.506242 0
    outer loop
      vertex 3.8717 18.3329 -2.24513e-15
      vertex 4.12044 17.9091 -1
      vertex 4.12044 17.9091 -2.19324e-15
    endloop
  endfacet
  facet normal -0.844361 -0.535774 0
    outer loop
      vertex 3.8717 18.3329 -1
      vertex 3.85152 18.3647 -2.24903e-15
      vertex 3.85152 18.3647 -1
    endloop
  endfacet
  facet normal -0.844361 -0.535774 0
    outer loop
      vertex 3.85152 18.3647 -2.24903e-15
      vertex 3.8717 18.3329 -1
      vertex 3.8717 18.3329 -2.24513e-15
    endloop
  endfacet
  facet normal -0.782932 -0.622107 0
    outer loop
      vertex 3.85152 18.3647 -1
      vertex 3.53355 18.7648 -2.29803e-15
      vertex 3.53355 18.7648 -1
    endloop
  endfacet
  facet normal -0.782932 -0.622107 0
    outer loop
      vertex 3.53355 18.7648 -2.29803e-15
      vertex 3.85152 18.3647 -1
      vertex 3.85152 18.3647 -2.24903e-15
    endloop
  endfacet
  facet normal -0.69568 -0.718352 0
    outer loop
      vertex 3.17627 19.1109 -1
      vertex 3.53355 18.7648 -2.29803e-15
      vertex 3.17627 19.1109 -2.3404e-15
    endloop
  endfacet
  facet normal -0.69568 -0.718352 -0
    outer loop
      vertex 3.53355 18.7648 -2.29803e-15
      vertex 3.17627 19.1109 -1
      vertex 3.53355 18.7648 -1
    endloop
  endfacet
  facet normal -0.603982 -0.796998 0
    outer loop
      vertex 2.78947 19.404 -1
      vertex 3.17627 19.1109 -2.3404e-15
      vertex 2.78947 19.404 -2.3763e-15
    endloop
  endfacet
  facet normal -0.603982 -0.796998 -0
    outer loop
      vertex 3.17627 19.1109 -2.3404e-15
      vertex 2.78947 19.404 -1
      vertex 3.17627 19.1109 -1
    endloop
  endfacet
  facet normal -0.499661 -0.866221 0
    outer loop
      vertex 2.37369 19.6438 -1
      vertex 2.78947 19.404 -2.3763e-15
      vertex 2.37369 19.6438 -2.40567e-15
    endloop
  endfacet
  facet normal -0.499661 -0.866221 -0
    outer loop
      vertex 2.78947 19.404 -2.3763e-15
      vertex 2.37369 19.6438 -1
      vertex 2.78947 19.404 -1
    endloop
  endfacet
  facet normal -0.386668 -0.922219 0
    outer loop
      vertex 1.92937 19.8301 -1
      vertex 2.37369 19.6438 -2.40567e-15
      vertex 1.92937 19.8301 -2.42849e-15
    endloop
  endfacet
  facet normal -0.386668 -0.922219 -0
    outer loop
      vertex 2.37369 19.6438 -2.40567e-15
      vertex 1.92937 19.8301 -1
      vertex 2.37369 19.6438 -1
    endloop
  endfacet
  facet normal -0.270207 -0.962802 0
    outer loop
      vertex 1.45711 19.9626 -1
      vertex 1.92937 19.8301 -2.42849e-15
      vertex 1.45711 19.9626 -2.44472e-15
    endloop
  endfacet
  facet normal -0.270207 -0.962802 -0
    outer loop
      vertex 1.92937 19.8301 -2.42849e-15
      vertex 1.45711 19.9626 -1
      vertex 1.92937 19.8301 -1
    endloop
  endfacet
  facet normal -0.157857 -0.987462 0
    outer loop
      vertex 0.994843 20.0365 -1
      vertex 1.45711 19.9626 -2.44472e-15
      vertex 0.994843 20.0365 -2.45377e-15
    endloop
  endfacet
  facet normal -0.157857 -0.987462 -0
    outer loop
      vertex 1.45711 19.9626 -2.44472e-15
      vertex 0.994843 20.0365 -1
      vertex 1.45711 19.9626 -1
    endloop
  endfacet
  facet normal -0.12553 -0.99209 0
    outer loop
      vertex 0.957458 20.0413 -1
      vertex 0.994843 20.0365 -2.45377e-15
      vertex 0.957458 20.0413 -2.45435e-15
    endloop
  endfacet
  facet normal -0.12553 -0.99209 -0
    outer loop
      vertex 0.994843 20.0365 -2.45377e-15
      vertex 0.957458 20.0413 -1
      vertex 0.994843 20.0365 -1
    endloop
  endfacet
  facet normal -0.0503248 -0.998733 0
    outer loop
      vertex 0.468704 20.0659 -1
      vertex 0.957458 20.0413 -2.45435e-15
      vertex 0.468704 20.0659 -2.45736e-15
    endloop
  endfacet
  facet normal -0.0503248 -0.998733 -0
    outer loop
      vertex 0.957458 20.0413 -2.45435e-15
      vertex 0.468704 20.0659 -1
      vertex 0.957458 20.0413 -1
    endloop
  endfacet
  facet normal 0 -1 0
    outer loop
      vertex 0.431046 20.0659 -1
      vertex 0.468704 20.0659 -2.45736e-15
      vertex 0.431046 20.0659 -2.45736e-15
    endloop
  endfacet
  facet normal 0 -1 -0
    outer loop
      vertex 0.468704 20.0659 -2.45736e-15
      vertex 0.431046 20.0659 -1
      vertex 0.468704 20.0659 -1
    endloop
  endfacet
  facet normal -3.8147e-08 3.8147e-08 1
    outer loop
      vertex 25 25 23.2
      vertex 24 24 23.2
      vertex 25 -25 23.2
    endloop
  endfacet
  facet normal 0 0 1
    outer loop
      vertex 25 25 23.2
      vertex -24 24 23.2
      vertex 24 24 23.2
    endloop
  endfacet
  facet normal 3.97364e-08 3.97364e-08 1
    outer loop
      vertex -24 24 23.2
      vertex -25 25 23.2
      vertex -24 -24 23.2
    endloop
  endfacet
  facet normal -0 0 1
    outer loop
      vertex -25 25 23.2
      vertex -24 24 23.2
      vertex 25 25 23.2
    endloop
  endfacet
  facet normal 3.97364e-08 3.97364e-08 1
    outer loop
      vertex 24 -24 23.2
      vertex 25 -25 23.2
      vertex 24 24 23.2
    endloop
  endfacet
  facet normal -0 0 1
    outer loop
      vertex -24 -24 23.2
      vertex 25 -25 23.2
      vertex 24 -24 23.2
    endloop
  endfacet
  facet normal 0 0 1
    outer loop
      vertex -24 -24 23.2
      vertex -25 -25 23.2
      vertex 25 -25 23.2
    endloop
  endfacet
  facet normal -3.8147e-08 3.8147e-08 1
    outer loop
      vertex -25 -25 23.2
      vertex -24 -24 23.2
      vertex -25 25 23.2
    endloop
  endfacet
endsolid OpenSCAD_Model
