solid OpenSCAD_Model
  facet normal -1 0 0
    outer loop
      vertex -22.5 -22.5 0.5
      vertex -22.5 22.5 1.5
      vertex -22.5 22.5 0.5
    endloop
  endfacet
  facet normal -1 -0 0
    outer loop
      vertex -22.5 22.5 1.5
      vertex -22.5 -22.5 0.5
      vertex -22.5 -22.5 1.5
    endloop
  endfacet
  facet normal 0 0 1
    outer loop
      vertex 22.5 22.5 1.5
      vertex 14.6762 1.76566 1.5
      vertex 14.6947 1.38875 1.5
    endloop
  endfacet
  facet normal 0 0 1
    outer loop
      vertex 15.0443 14.7572 1.5
      vertex 14.6205 2.12099 1.5
      vertex 14.6762 1.76566 1.5
    endloop
  endfacet
  facet normal 0 0 1
    outer loop
      vertex 15.0443 14.7572 1.5
      vertex 14.5277 2.45473 1.5
      vertex 14.6205 2.12099 1.5
    endloop
  endfacet
  facet normal 0 0 1
    outer loop
      vertex 15.0443 14.7572 1.5
      vertex 14.3979 2.76686 1.5
      vertex 14.5277 2.45473 1.5
    endloop
  endfacet
  facet normal 0 0 1
    outer loop
      vertex 13.5072 3.79341 1.5
      vertex 14.7165 14.5655 1.5
      vertex 14.3483 14.4086 1.5
    endloop
  endfacet
  facet normal 0 0 1
    outer loop
      vertex 15.0443 14.7572 1.5
      vertex 14.2309 3.05742 1.5
      vertex 14.3979 2.76686 1.5
    endloop
  endfacet
  facet normal 0 0 1
    outer loop
      vertex 15.0443 14.7572 1.5
      vertex 14.0269 3.32637 1.5
      vertex 14.2309 3.05742 1.5
    endloop
  endfacet
  facet normal 0 0 1
    outer loop
      vertex 13.1904 3.97929 1.5
      vertex 14.3483 14.4086 1.5
      vertex 13.9395 14.2866 1.5
    endloop
  endfacet
  facet normal 0 0 1
    outer loop
      vertex 15.0443 14.7572 1.5
      vertex 13.7857 3.57375 1.5
      vertex 14.0269 3.32637 1.5
    endloop
  endfacet
  facet normal 0 0 1
    outer loop
      vertex 14.7165 14.5655 1.5
      vertex 13.5072 3.79341 1.5
      vertex 13.7857 3.57375 1.5
    endloop
  endfacet
  facet normal 0 0 1
    outer loop
      vertex 12.8353 4.13138 1.5
      vertex 13.9395 14.2866 1.5
      vertex 13.4904 14.1995 1.5
    endloop
  endfacet
  facet normal 0 0 1
    outer loop
      vertex 14.3483 14.4086 1.5
      vertex 13.1904 3.97929 1.5
      vertex 13.5072 3.79341 1.5
    endloop
  endfacet
  facet normal 0 0 1
    outer loop
      vertex 12.442 4.24966 1.5
      vertex 13.4904 14.1995 1.5
      vertex 13.0008 14.1472 1.5
    endloop
  endfacet
  facet normal 0 0 1
    outer loop
      vertex 13.9395 14.2866 1.5
      vertex 12.8353 4.13138 1.5
      vertex 13.1904 3.97929 1.5
    endloop
  endfacet
  facet normal 0 0 1
    outer loop
      vertex 12.0105 4.33415 1.5
      vertex 13.0008 14.1472 1.5
      vertex 12.4707 14.1297 1.5
    endloop
  endfacet
  facet normal 0 0 1
    outer loop
      vertex 13.4904 14.1995 1.5
      vertex 12.442 4.24966 1.5
      vertex 12.8353 4.13138 1.5
    endloop
  endfacet
  facet normal 0 0 1
    outer loop
      vertex 13.0008 14.1472 1.5
      vertex 12.0105 4.33415 1.5
      vertex 12.442 4.24966 1.5
    endloop
  endfacet
  facet normal 0 0 1
    outer loop
      vertex 12.4707 14.1297 1.5
      vertex 11.5407 4.38484 1.5
      vertex 12.0105 4.33415 1.5
    endloop
  endfacet
  facet normal 0 0 1
    outer loop
      vertex 12.4707 14.1297 1.5
      vertex 11.0327 4.40175 1.5
      vertex 11.5407 4.38484 1.5
    endloop
  endfacet
  facet normal -0 0 1
    outer loop
      vertex -5.67628 14.1297 1.5
      vertex 11.0327 4.40175 1.5
      vertex 12.4707 14.1297 1.5
    endloop
  endfacet
  facet normal 0 0 1
    outer loop
      vertex 11.0327 4.40175 1.5
      vertex -5.67628 14.1297 1.5
      vertex -5.67628 4.40175 1.5
    endloop
  endfacet
  facet normal -0 0 1
    outer loop
      vertex 14.6947 1.38875 1.5
      vertex 22.5 -22.5 1.5
      vertex 22.5 22.5 1.5
    endloop
  endfacet
  facet normal 0 0 1
    outer loop
      vertex 22.5 -22.5 1.5
      vertex 16.899 -15.8269 1.5
      vertex 16.9187 -16.2332 1.5
    endloop
  endfacet
  facet normal 0 0 1
    outer loop
      vertex 22.5 -22.5 1.5
      vertex 16.8401 -15.4443 1.5
      vertex 16.899 -15.8269 1.5
    endloop
  endfacet
  facet normal 0 0 1
    outer loop
      vertex 22.5 -22.5 1.5
      vertex 16.7418 -15.0855 1.5
      vertex 16.8401 -15.4443 1.5
    endloop
  endfacet
  facet normal -0 0 1
    outer loop
      vertex 14.6216 0.654297 1.5
      vertex 22.5 -22.5 1.5
      vertex 14.6764 1.01128 1.5
    endloop
  endfacet
  facet normal 0 0 1
    outer loop
      vertex 22.5 -22.5 1.5
      vertex 16.6043 -14.7505 1.5
      vertex 16.7418 -15.0855 1.5
    endloop
  endfacet
  facet normal 0 0 1
    outer loop
      vertex 16.2486 16.8562 1.5
      vertex 22.5 22.5 1.5
      vertex 16.2677 17.2477 1.5
    endloop
  endfacet
  facet normal 0 0 1
    outer loop
      vertex 22.5 22.5 1.5
      vertex 16.2486 17.6318 1.5
      vertex 16.2677 17.2477 1.5
    endloop
  endfacet
  facet normal 0 0 1
    outer loop
      vertex 22.5 22.5 1.5
      vertex 16.1913 17.9944 1.5
      vertex 16.2486 17.6318 1.5
    endloop
  endfacet
  facet normal 0 0 1
    outer loop
      vertex 22.5 22.5 1.5
      vertex 16.0958 18.3353 1.5
      vertex 16.1913 17.9944 1.5
    endloop
  endfacet
  facet normal 0 0 1
    outer loop
      vertex 22.5 22.5 1.5
      vertex 15.9621 18.6548 1.5
      vertex 16.0958 18.3353 1.5
    endloop
  endfacet
  facet normal 0 0 1
    outer loop
      vertex 22.5 22.5 1.5
      vertex 15.7902 18.9526 1.5
      vertex 15.9621 18.6548 1.5
    endloop
  endfacet
  facet normal 0 0 1
    outer loop
      vertex 22.5 22.5 1.5
      vertex 15.58 19.229 1.5
      vertex 15.7902 18.9526 1.5
    endloop
  endfacet
  facet normal 0 0 1
    outer loop
      vertex 22.5 22.5 1.5
      vertex 15.3317 19.4837 1.5
      vertex 15.58 19.229 1.5
    endloop
  endfacet
  facet normal 0 0 1
    outer loop
      vertex 22.5 22.5 1.5
      vertex 15.0443 19.7103 1.5
      vertex 15.3317 19.4837 1.5
    endloop
  endfacet
  facet normal 0 0 1
    outer loop
      vertex 22.5 22.5 1.5
      vertex 14.7165 19.902 1.5
      vertex 15.0443 19.7103 1.5
    endloop
  endfacet
  facet normal 0 0 1
    outer loop
      vertex 22.5 22.5 1.5
      vertex 14.3483 20.0589 1.5
      vertex 14.7165 19.902 1.5
    endloop
  endfacet
  facet normal 0 0 1
    outer loop
      vertex 22.5 22.5 1.5
      vertex 13.9395 20.1809 1.5
      vertex 14.3483 20.0589 1.5
    endloop
  endfacet
  facet normal 0 0 1
    outer loop
      vertex 22.5 22.5 1.5
      vertex 13.4904 20.268 1.5
      vertex 13.9395 20.1809 1.5
    endloop
  endfacet
  facet normal 0 0 1
    outer loop
      vertex 22.5 22.5 1.5
      vertex 13.0008 20.3203 1.5
      vertex 13.4904 20.268 1.5
    endloop
  endfacet
  facet normal 0 0 1
    outer loop
      vertex 22.5 22.5 1.5
      vertex 12.4707 20.3377 1.5
      vertex 13.0008 20.3203 1.5
    endloop
  endfacet
  facet normal 0 0 1
    outer loop
      vertex 22.5 22.5 1.5
      vertex -8.79828 20.3377 1.5
      vertex 12.4707 20.3377 1.5
    endloop
  endfacet
  facet normal -0 0 1
    outer loop
      vertex -22.5 22.5 1.5
      vertex -8.79828 20.3377 1.5
      vertex 22.5 22.5 1.5
    endloop
  endfacet
  facet normal 0 0 1
    outer loop
      vertex -8.79828 20.3377 1.5
      vertex -22.5 22.5 1.5
      vertex -9.27466 20.3275 1.5
    endloop
  endfacet
  facet normal 0 0 1
    outer loop
      vertex -13.7403 15.4037 1.5
      vertex -22.5 22.5 1.5
      vertex -13.7403 -14.4722 1.5
    endloop
  endfacet
  facet normal 0 0 1
    outer loop
      vertex -13.7298 15.8865 1.5
      vertex -22.5 22.5 1.5
      vertex -13.7403 15.4037 1.5
    endloop
  endfacet
  facet normal 0 0 1
    outer loop
      vertex -13.6982 16.3432 1.5
      vertex -22.5 22.5 1.5
      vertex -13.7298 15.8865 1.5
    endloop
  endfacet
  facet normal 0 0 1
    outer loop
      vertex -13.6455 16.7739 1.5
      vertex -22.5 22.5 1.5
      vertex -13.6982 16.3432 1.5
    endloop
  endfacet
  facet normal 0 0 1
    outer loop
      vertex -13.5718 17.1786 1.5
      vertex -22.5 22.5 1.5
      vertex -13.6455 16.7739 1.5
    endloop
  endfacet
  facet normal 0 0 1
    outer loop
      vertex -13.477 17.5573 1.5
      vertex -22.5 22.5 1.5
      vertex -13.5718 17.1786 1.5
    endloop
  endfacet
  facet normal 0 0 1
    outer loop
      vertex -13.3612 17.91 1.5
      vertex -22.5 22.5 1.5
      vertex -13.477 17.5573 1.5
    endloop
  endfacet
  facet normal 0 0 1
    outer loop
      vertex -13.2243 18.2367 1.5
      vertex -22.5 22.5 1.5
      vertex -13.3612 17.91 1.5
    endloop
  endfacet
  facet normal 0 0 1
    outer loop
      vertex -13.065 18.5383 1.5
      vertex -22.5 22.5 1.5
      vertex -13.2243 18.2367 1.5
    endloop
  endfacet
  facet normal 0 0 1
    outer loop
      vertex -12.8818 18.8154 1.5
      vertex -22.5 22.5 1.5
      vertex -13.065 18.5383 1.5
    endloop
  endfacet
  facet normal 0 0 1
    outer loop
      vertex -12.6749 19.0682 1.5
      vertex -22.5 22.5 1.5
      vertex -12.8818 18.8154 1.5
    endloop
  endfacet
  facet normal 0 0 1
    outer loop
      vertex -12.4442 19.2967 1.5
      vertex -22.5 22.5 1.5
      vertex -12.6749 19.0682 1.5
    endloop
  endfacet
  facet normal 0 0 1
    outer loop
      vertex -12.1897 19.5007 1.5
      vertex -22.5 22.5 1.5
      vertex -12.4442 19.2967 1.5
    endloop
  endfacet
  facet normal 0 0 1
    outer loop
      vertex -11.9114 19.6804 1.5
      vertex -22.5 22.5 1.5
      vertex -12.1897 19.5007 1.5
    endloop
  endfacet
  facet normal 0 0 1
    outer loop
      vertex -11.6093 19.8357 1.5
      vertex -22.5 22.5 1.5
      vertex -11.9114 19.6804 1.5
    endloop
  endfacet
  facet normal 0 0 1
    outer loop
      vertex -11.2825 19.9689 1.5
      vertex -22.5 22.5 1.5
      vertex -11.6093 19.8357 1.5
    endloop
  endfacet
  facet normal 0 0 1
    outer loop
      vertex -10.9308 20.0816 1.5
      vertex -22.5 22.5 1.5
      vertex -11.2825 19.9689 1.5
    endloop
  endfacet
  facet normal 0 0 1
    outer loop
      vertex -10.5542 20.1738 1.5
      vertex -22.5 22.5 1.5
      vertex -10.9308 20.0816 1.5
    endloop
  endfacet
  facet normal 0 0 1
    outer loop
      vertex -10.1526 20.2455 1.5
      vertex -22.5 22.5 1.5
      vertex -10.5542 20.1738 1.5
    endloop
  endfacet
  facet normal 0 0 1
    outer loop
      vertex -9.72612 20.2968 1.5
      vertex -22.5 22.5 1.5
      vertex -10.1526 20.2455 1.5
    endloop
  endfacet
  facet normal 0 0 1
    outer loop
      vertex -9.27466 20.3275 1.5
      vertex -22.5 22.5 1.5
      vertex -9.72612 20.2968 1.5
    endloop
  endfacet
  facet normal -0 0 1
    outer loop
      vertex 16.899 -16.6253 1.5
      vertex 22.5 -22.5 1.5
      vertex 16.9187 -16.2332 1.5
    endloop
  endfacet
  facet normal -0 0 1
    outer loop
      vertex 16.8401 -16.9958 1.5
      vertex 22.5 -22.5 1.5
      vertex 16.899 -16.6253 1.5
    endloop
  endfacet
  facet normal -0 0 1
    outer loop
      vertex 16.7418 -17.3448 1.5
      vertex 22.5 -22.5 1.5
      vertex 16.8401 -16.9958 1.5
    endloop
  endfacet
  facet normal -0 0 1
    outer loop
      vertex 16.6043 -17.6723 1.5
      vertex 22.5 -22.5 1.5
      vertex 16.7418 -17.3448 1.5
    endloop
  endfacet
  facet normal -0 0 1
    outer loop
      vertex 16.4274 -17.9781 1.5
      vertex 22.5 -22.5 1.5
      vertex 16.6043 -17.6723 1.5
    endloop
  endfacet
  facet normal -0 0 1
    outer loop
      vertex 16.2112 -18.2625 1.5
      vertex 22.5 -22.5 1.5
      vertex 16.4274 -17.9781 1.5
    endloop
  endfacet
  facet normal -0 0 1
    outer loop
      vertex 15.9557 -18.5252 1.5
      vertex 22.5 -22.5 1.5
      vertex 16.2112 -18.2625 1.5
    endloop
  endfacet
  facet normal -0 0 1
    outer loop
      vertex 15.6615 -18.759 1.5
      vertex 22.5 -22.5 1.5
      vertex 15.9557 -18.5252 1.5
    endloop
  endfacet
  facet normal -0 0 1
    outer loop
      vertex 15.3291 -18.9568 1.5
      vertex 22.5 -22.5 1.5
      vertex 15.6615 -18.759 1.5
    endloop
  endfacet
  facet normal -0 0 1
    outer loop
      vertex 14.9585 -19.1186 1.5
      vertex 22.5 -22.5 1.5
      vertex 15.3291 -18.9568 1.5
    endloop
  endfacet
  facet normal -0 0 1
    outer loop
      vertex 14.5498 -19.2444 1.5
      vertex 22.5 -22.5 1.5
      vertex 14.9585 -19.1186 1.5
    endloop
  endfacet
  facet normal -0 0 1
    outer loop
      vertex 14.103 -19.3343 1.5
      vertex 22.5 -22.5 1.5
      vertex 14.5498 -19.2444 1.5
    endloop
  endfacet
  facet normal -0 0 1
    outer loop
      vertex 13.6179 -19.3883 1.5
      vertex 22.5 -22.5 1.5
      vertex 14.103 -19.3343 1.5
    endloop
  endfacet
  facet normal -0 0 1
    outer loop
      vertex 13.0947 -19.4062 1.5
      vertex 22.5 -22.5 1.5
      vertex 13.6179 -19.3883 1.5
    endloop
  endfacet
  facet normal -0 0 1
    outer loop
      vertex -8.79828 -19.4062 1.5
      vertex 22.5 -22.5 1.5
      vertex 13.0947 -19.4062 1.5
    endloop
  endfacet
  facet normal 0 0 1
    outer loop
      vertex -22.5 -22.5 1.5
      vertex -8.79828 -19.4062 1.5
      vertex -9.52065 -19.3824 1.5
    endloop
  endfacet
  facet normal 0 0 1
    outer loop
      vertex -22.5 -22.5 1.5
      vertex -13.7403 -14.4722 1.5
      vertex -22.5 22.5 1.5
    endloop
  endfacet
  facet normal 0 0 1
    outer loop
      vertex -13.7403 -14.4722 1.5
      vertex -22.5 -22.5 1.5
      vertex -13.7167 -15.1864 1.5
    endloop
  endfacet
  facet normal 0 0 1
    outer loop
      vertex -13.7167 -15.1864 1.5
      vertex -22.5 -22.5 1.5
      vertex -13.6461 -15.8419 1.5
    endloop
  endfacet
  facet normal 0 0 1
    outer loop
      vertex -8.79828 -19.4062 1.5
      vertex -22.5 -22.5 1.5
      vertex 22.5 -22.5 1.5
    endloop
  endfacet
  facet normal 0 0 1
    outer loop
      vertex -10.1826 -19.3111 1.5
      vertex -22.5 -22.5 1.5
      vertex -9.52065 -19.3824 1.5
    endloop
  endfacet
  facet normal 0 0 1
    outer loop
      vertex -10.7841 -19.1921 1.5
      vertex -22.5 -22.5 1.5
      vertex -10.1826 -19.3111 1.5
    endloop
  endfacet
  facet normal 0 0 1
    outer loop
      vertex -11.3253 -19.0255 1.5
      vertex -22.5 -22.5 1.5
      vertex -10.7841 -19.1921 1.5
    endloop
  endfacet
  facet normal 0 0 1
    outer loop
      vertex -11.806 -18.8113 1.5
      vertex -22.5 -22.5 1.5
      vertex -11.3253 -19.0255 1.5
    endloop
  endfacet
  facet normal 0 0 1
    outer loop
      vertex -12.2264 -18.5496 1.5
      vertex -22.5 -22.5 1.5
      vertex -11.806 -18.8113 1.5
    endloop
  endfacet
  facet normal 0 0 1
    outer loop
      vertex -12.5863 -18.2402 1.5
      vertex -22.5 -22.5 1.5
      vertex -12.2264 -18.5496 1.5
    endloop
  endfacet
  facet normal 0 0 1
    outer loop
      vertex -12.8924 -17.8778 1.5
      vertex -22.5 -22.5 1.5
      vertex -12.5863 -18.2402 1.5
    endloop
  endfacet
  facet normal 0 0 1
    outer loop
      vertex -13.1515 -17.4567 1.5
      vertex -22.5 -22.5 1.5
      vertex -12.8924 -17.8778 1.5
    endloop
  endfacet
  facet normal 0 0 1
    outer loop
      vertex -13.3635 -16.9771 1.5
      vertex -22.5 -22.5 1.5
      vertex -13.1515 -17.4567 1.5
    endloop
  endfacet
  facet normal 0 0 1
    outer loop
      vertex -13.5283 -16.4388 1.5
      vertex -22.5 -22.5 1.5
      vertex -13.3635 -16.9771 1.5
    endloop
  endfacet
  facet normal 0 0 1
    outer loop
      vertex -13.6461 -15.8419 1.5
      vertex -22.5 -22.5 1.5
      vertex -13.5283 -16.4388 1.5
    endloop
  endfacet
  facet normal 0 0 1
    outer loop
      vertex 16.1913 16.4874 1.5
      vertex 22.5 22.5 1.5
      vertex 16.2486 16.8562 1.5
    endloop
  endfacet
  facet normal 0 0 1
    outer loop
      vertex 16.0958 16.1413 1.5
      vertex 22.5 22.5 1.5
      vertex 16.1913 16.4874 1.5
    endloop
  endfacet
  facet normal 0 0 1
    outer loop
      vertex 22.5 -22.5 1.5
      vertex 14.6947 1.38875 1.5
      vertex 14.6764 1.01128 1.5
    endloop
  endfacet
  facet normal 0 0 1
    outer loop
      vertex 15.9621 15.8179 1.5
      vertex 22.5 22.5 1.5
      vertex 16.0958 16.1413 1.5
    endloop
  endfacet
  facet normal 0 0 1
    outer loop
      vertex 14.6762 1.76566 1.5
      vertex 22.5 22.5 1.5
      vertex 15.9621 15.8179 1.5
    endloop
  endfacet
  facet normal 0 0 1
    outer loop
      vertex 22.5 -22.5 1.5
      vertex 14.6216 0.654297 1.5
      vertex 16.6043 -14.7505 1.5
    endloop
  endfacet
  facet normal 0 0 1
    outer loop
      vertex 14.6762 1.76566 1.5
      vertex 15.9621 15.8179 1.5
      vertex 15.7902 15.5171 1.5
    endloop
  endfacet
  facet normal 0 0 1
    outer loop
      vertex 16.6043 -14.7505 1.5
      vertex 14.6216 0.654297 1.5
      vertex 16.4274 -14.4393 1.5
    endloop
  endfacet
  facet normal 0 0 1
    outer loop
      vertex 14.6762 1.76566 1.5
      vertex 15.7902 15.5171 1.5
      vertex 15.58 15.2391 1.5
    endloop
  endfacet
  facet normal 0 0 1
    outer loop
      vertex 14.6762 1.76566 1.5
      vertex 15.58 15.2391 1.5
      vertex 15.3317 14.9837 1.5
    endloop
  endfacet
  facet normal -0 0 1
    outer loop
      vertex 14.5303 0.31781 1.5
      vertex 16.4274 -14.4393 1.5
      vertex 14.6216 0.654297 1.5
    endloop
  endfacet
  facet normal 0 0 1
    outer loop
      vertex 14.6762 1.76566 1.5
      vertex 15.3317 14.9837 1.5
      vertex 15.0443 14.7572 1.5
    endloop
  endfacet
  facet normal 0 0 1
    outer loop
      vertex 16.4274 -14.4393 1.5
      vertex 14.5303 0.31781 1.5
      vertex 16.2112 -14.1519 1.5
    endloop
  endfacet
  facet normal 0 0 1
    outer loop
      vertex 13.7857 3.57375 1.5
      vertex 15.0443 14.7572 1.5
      vertex 14.7165 14.5655 1.5
    endloop
  endfacet
  facet normal -0 0 1
    outer loop
      vertex 14.4025 0.00180054 1.5
      vertex 16.2112 -14.1519 1.5
      vertex 14.5303 0.31781 1.5
    endloop
  endfacet
  facet normal 0 0 1
    outer loop
      vertex 16.2112 -14.1519 1.5
      vertex 14.4025 0.00180054 1.5
      vertex 15.9557 -13.8882 1.5
    endloop
  endfacet
  facet normal -0 0 1
    outer loop
      vertex 14.2381 -0.293686 1.5
      vertex 15.9557 -13.8882 1.5
      vertex 14.4025 0.00180054 1.5
    endloop
  endfacet
  facet normal -0 0 1
    outer loop
      vertex 14.0372 -0.56871 1.5
      vertex 15.9557 -13.8882 1.5
      vertex 14.2381 -0.293686 1.5
    endloop
  endfacet
  facet normal 0 0 1
    outer loop
      vertex 15.9557 -13.8882 1.5
      vertex 14.0372 -0.56871 1.5
      vertex 15.6615 -13.6542 1.5
    endloop
  endfacet
  facet normal -0 0 1
    outer loop
      vertex 13.7997 -0.823242 1.5
      vertex 15.6615 -13.6542 1.5
      vertex 14.0372 -0.56871 1.5
    endloop
  endfacet
  facet normal 0 0 1
    outer loop
      vertex 15.6615 -13.6542 1.5
      vertex 13.7997 -0.823242 1.5
      vertex 15.3291 -13.4562 1.5
    endloop
  endfacet
  facet normal -0 0 1
    outer loop
      vertex 13.524 -1.05008 1.5
      vertex 15.3291 -13.4562 1.5
      vertex 13.7997 -0.823242 1.5
    endloop
  endfacet
  facet normal 0 0 1
    outer loop
      vertex 15.3291 -13.4562 1.5
      vertex 13.524 -1.05008 1.5
      vertex 14.9585 -13.2942 1.5
    endloop
  endfacet
  facet normal -0 0 1
    outer loop
      vertex 13.2085 -1.24202 1.5
      vertex 14.9585 -13.2942 1.5
      vertex 13.524 -1.05008 1.5
    endloop
  endfacet
  facet normal 0 0 1
    outer loop
      vertex 14.9585 -13.2942 1.5
      vertex 13.2085 -1.24202 1.5
      vertex 14.5498 -13.1682 1.5
    endloop
  endfacet
  facet normal 0 0 1
    outer loop
      vertex 14.5498 -13.1682 1.5
      vertex 13.2085 -1.24202 1.5
      vertex 14.103 -13.0782 1.5
    endloop
  endfacet
  facet normal -0 0 1
    outer loop
      vertex 12.8531 -1.39906 1.5
      vertex 14.103 -13.0782 1.5
      vertex 13.2085 -1.24202 1.5
    endloop
  endfacet
  facet normal 0 0 1
    outer loop
      vertex 14.103 -13.0782 1.5
      vertex 12.8531 -1.39906 1.5
      vertex 13.6179 -13.0242 1.5
    endloop
  endfacet
  facet normal -0 0 1
    outer loop
      vertex 12.4578 -1.52119 1.5
      vertex 13.6179 -13.0242 1.5
      vertex 12.8531 -1.39906 1.5
    endloop
  endfacet
  facet normal 0 0 1
    outer loop
      vertex 13.6179 -13.0242 1.5
      vertex 12.4578 -1.52119 1.5
      vertex 13.0947 -13.0062 1.5
    endloop
  endfacet
  facet normal -0 0 1
    outer loop
      vertex 12.0227 -1.60844 1.5
      vertex 13.0947 -13.0062 1.5
      vertex 12.4578 -1.52119 1.5
    endloop
  endfacet
  facet normal -0 0 1
    outer loop
      vertex 11.5476 -1.6608 1.5
      vertex 13.0947 -13.0062 1.5
      vertex 12.0227 -1.60844 1.5
    endloop
  endfacet
  facet normal -0 0 1
    outer loop
      vertex 11.0327 -1.67824 1.5
      vertex 13.0947 -13.0062 1.5
      vertex 11.5476 -1.6608 1.5
    endloop
  endfacet
  facet normal 0 0 1
    outer loop
      vertex -5.67628 -13.0062 1.5
      vertex 11.0327 -1.67824 1.5
      vertex -5.67628 -1.67824 1.5
    endloop
  endfacet
  facet normal 0 0 1
    outer loop
      vertex 11.0327 -1.67824 1.5
      vertex -5.67628 -13.0062 1.5
      vertex 13.0947 -13.0062 1.5
    endloop
  endfacet
  facet normal 1 -0 0
    outer loop
      vertex 22.5 -22.5 1.5
      vertex 22.5 22.5 0.5
      vertex 22.5 22.5 1.5
    endloop
  endfacet
  facet normal 1 0 0
    outer loop
      vertex 22.5 22.5 0.5
      vertex 22.5 -22.5 1.5
      vertex 22.5 -22.5 0.5
    endloop
  endfacet
  facet normal 0 1 -0
    outer loop
      vertex 22.5 22.5 0.5
      vertex -22.5 22.5 1.5
      vertex 22.5 22.5 1.5
    endloop
  endfacet
  facet normal 0 1 0
    outer loop
      vertex -22.5 22.5 1.5
      vertex 22.5 22.5 0.5
      vertex -22.5 22.5 0.5
    endloop
  endfacet
  facet normal 0 0 -1
    outer loop
      vertex -22.5 -22.5 0.5
      vertex 22.5 22.5 0.5
      vertex 22.5 -22.5 0.5
    endloop
  endfacet
  facet normal -0 0 -1
    outer loop
      vertex 22.5 22.5 0.5
      vertex -22.5 -22.5 0.5
      vertex -22.5 22.5 0.5
    endloop
  endfacet
  facet normal 0 -1 0
    outer loop
      vertex -22.5 -22.5 0.5
      vertex 22.5 -22.5 1.5
      vertex -22.5 -22.5 1.5
    endloop
  endfacet
  facet normal 0 -1 -0
    outer loop
      vertex 22.5 -22.5 1.5
      vertex -22.5 -22.5 0.5
      vertex 22.5 -22.5 0.5
    endloop
  endfacet
  facet normal 0 0 1
    outer loop
      vertex 14.3483 20.0589 3
      vertex 16.2677 17.2477 3
      vertex 16.2486 17.6318 3
    endloop
  endfacet
  facet normal 0 0 1
    outer loop
      vertex 14.3483 20.0589 3
      vertex 16.2486 17.6318 3
      vertex 16.1913 17.9944 3
    endloop
  endfacet
  facet normal 0 0 1
    outer loop
      vertex 13.9395 20.1809 3
      vertex 16.2677 17.2477 3
      vertex 14.3483 20.0589 3
    endloop
  endfacet
  facet normal 0 0 1
    outer loop
      vertex 14.3483 20.0589 3
      vertex 16.1913 17.9944 3
      vertex 16.0958 18.3353 3
    endloop
  endfacet
  facet normal 0 0 1
    outer loop
      vertex 13.9395 14.2866 3
      vertex 16.2677 17.2477 3
      vertex 13.9395 20.1809 3
    endloop
  endfacet
  facet normal 0 0 1
    outer loop
      vertex 14.3483 20.0589 3
      vertex 16.0958 18.3353 3
      vertex 15.9621 18.6548 3
    endloop
  endfacet
  facet normal 0 0 1
    outer loop
      vertex 16.2486 16.8562 3
      vertex 14.3483 14.4086 3
      vertex 16.1913 16.4874 3
    endloop
  endfacet
  facet normal 0 0 1
    outer loop
      vertex 14.3483 20.0589 3
      vertex 15.9621 18.6548 3
      vertex 15.7902 18.9526 3
    endloop
  endfacet
  facet normal 0 0 1
    outer loop
      vertex 16.1913 16.4874 3
      vertex 14.3483 14.4086 3
      vertex 16.0958 16.1413 3
    endloop
  endfacet
  facet normal 0 0 1
    outer loop
      vertex 14.7165 19.902 3
      vertex 15.7902 18.9526 3
      vertex 15.58 19.229 3
    endloop
  endfacet
  facet normal 0 0 1
    outer loop
      vertex 14.3483 20.0589 3
      vertex 15.7902 18.9526 3
      vertex 14.7165 19.902 3
    endloop
  endfacet
  facet normal 0 0 1
    outer loop
      vertex 14.7165 19.902 3
      vertex 15.58 19.229 3
      vertex 15.3317 19.4837 3
    endloop
  endfacet
  facet normal 0 -0 1
    outer loop
      vertex 14.7165 14.5655 3
      vertex 16.0958 16.1413 3
      vertex 14.3483 14.4086 3
    endloop
  endfacet
  facet normal 0 0 1
    outer loop
      vertex 14.7165 19.902 3
      vertex 15.3317 19.4837 3
      vertex 15.0443 19.7103 3
    endloop
  endfacet
  facet normal 0 0 1
    outer loop
      vertex 15.7902 15.5171 3
      vertex 14.7165 14.5655 3
      vertex 15.58 15.2391 3
    endloop
  endfacet
  facet normal 0 0 1
    outer loop
      vertex 15.58 15.2391 3
      vertex 14.7165 14.5655 3
      vertex 15.3317 14.9837 3
    endloop
  endfacet
  facet normal 0 0 1
    outer loop
      vertex 15.3317 14.9837 3
      vertex 14.7165 14.5655 3
      vertex 15.0443 14.7572 3
    endloop
  endfacet
  facet normal 0 0 1
    outer loop
      vertex 16.0958 16.1413 3
      vertex 14.7165 14.5655 3
      vertex 15.9621 15.8179 3
    endloop
  endfacet
  facet normal 0 0 1
    outer loop
      vertex 15.9621 15.8179 3
      vertex 14.7165 14.5655 3
      vertex 15.7902 15.5171 3
    endloop
  endfacet
  facet normal 0 0 1
    outer loop
      vertex 16.2677 17.2477 3
      vertex 13.9395 14.2866 3
      vertex 16.2486 16.8562 3
    endloop
  endfacet
  facet normal 0 0 1
    outer loop
      vertex 16.2486 16.8562 3
      vertex 13.9395 14.2866 3
      vertex 14.3483 14.4086 3
    endloop
  endfacet
  facet normal 0 0 1
    outer loop
      vertex 13.4904 20.268 3
      vertex 13.9395 14.2866 3
      vertex 13.9395 20.1809 3
    endloop
  endfacet
  facet normal 0 0 1
    outer loop
      vertex 13.4904 20.268 3
      vertex 13.4904 14.1995 3
      vertex 13.9395 14.2866 3
    endloop
  endfacet
  facet normal 0 0 1
    outer loop
      vertex 13.0008 20.3203 3
      vertex 13.4904 14.1995 3
      vertex 13.4904 20.268 3
    endloop
  endfacet
  facet normal 0 0 1
    outer loop
      vertex 13.0008 20.3203 3
      vertex 13.0008 14.1472 3
      vertex 13.4904 14.1995 3
    endloop
  endfacet
  facet normal 0 0 1
    outer loop
      vertex 12.4707 20.3377 3
      vertex 13.0008 14.1472 3
      vertex 13.0008 20.3203 3
    endloop
  endfacet
  facet normal 0 0 1
    outer loop
      vertex 12.4707 20.3377 3
      vertex 12.4707 14.1297 3
      vertex 13.0008 14.1472 3
    endloop
  endfacet
  facet normal 0 0 1
    outer loop
      vertex 12.4707 20.3377 3
      vertex -5.67628 14.1297 3
      vertex 12.4707 14.1297 3
    endloop
  endfacet
  facet normal 0 0 1
    outer loop
      vertex -13.7403 15.4037 3
      vertex -5.67628 4.40175 3
      vertex -5.67628 14.1297 3
    endloop
  endfacet
  facet normal 0 0 1
    outer loop
      vertex -5.67628 4.40175 3
      vertex -13.7403 15.4037 3
      vertex -5.67628 -1.67824 3
    endloop
  endfacet
  facet normal -0 0 1
    outer loop
      vertex -9.27466 20.3275 3
      vertex -5.67628 14.1297 3
      vertex -8.79828 20.3377 3
    endloop
  endfacet
  facet normal -0 0 1
    outer loop
      vertex -8.79828 20.3377 3
      vertex -5.67628 14.1297 3
      vertex 12.4707 20.3377 3
    endloop
  endfacet
  facet normal 0 0 1
    outer loop
      vertex 12.442 4.24966 3
      vertex 14.6947 1.38875 3
      vertex 14.6762 1.76566 3
    endloop
  endfacet
  facet normal 0 0 1
    outer loop
      vertex 14.6947 1.38875 3
      vertex 12.442 4.24966 3
      vertex 14.6764 1.01128 3
    endloop
  endfacet
  facet normal 0 0 1
    outer loop
      vertex 12.8353 4.13138 3
      vertex 14.6762 1.76566 3
      vertex 14.6205 2.12099 3
    endloop
  endfacet
  facet normal 0 -0 1
    outer loop
      vertex 12.4578 -1.52119 3
      vertex 14.6764 1.01128 3
      vertex 12.442 4.24966 3
    endloop
  endfacet
  facet normal 0 0 1
    outer loop
      vertex 12.8353 4.13138 3
      vertex 14.6205 2.12099 3
      vertex 14.5277 2.45473 3
    endloop
  endfacet
  facet normal 0 0 1
    outer loop
      vertex 14.6762 1.76566 3
      vertex 12.8353 4.13138 3
      vertex 12.442 4.24966 3
    endloop
  endfacet
  facet normal 0 0 1
    outer loop
      vertex 12.8353 4.13138 3
      vertex 14.5277 2.45473 3
      vertex 14.3979 2.76686 3
    endloop
  endfacet
  facet normal 0 0 1
    outer loop
      vertex 14.6764 1.01128 3
      vertex 12.4578 -1.52119 3
      vertex 14.6216 0.654297 3
    endloop
  endfacet
  facet normal 0 0 1
    outer loop
      vertex 12.8353 4.13138 3
      vertex 14.3979 2.76686 3
      vertex 14.2309 3.05742 3
    endloop
  endfacet
  facet normal 0 0 1
    outer loop
      vertex 14.5303 0.31781 3
      vertex 12.8531 -1.39906 3
      vertex 14.4025 0.00180054 3
    endloop
  endfacet
  facet normal 0 0 1
    outer loop
      vertex 12.8353 4.13138 3
      vertex 14.2309 3.05742 3
      vertex 14.0269 3.32637 3
    endloop
  endfacet
  facet normal 0 0 1
    outer loop
      vertex 14.4025 0.00180054 3
      vertex 12.8531 -1.39906 3
      vertex 14.2381 -0.293686 3
    endloop
  endfacet
  facet normal 0 0 1
    outer loop
      vertex 13.1904 3.97929 3
      vertex 14.0269 3.32637 3
      vertex 13.7857 3.57375 3
    endloop
  endfacet
  facet normal 0 0 1
    outer loop
      vertex 13.1904 3.97929 3
      vertex 13.7857 3.57375 3
      vertex 13.5072 3.79341 3
    endloop
  endfacet
  facet normal 0 0 1
    outer loop
      vertex 12.8353 4.13138 3
      vertex 14.0269 3.32637 3
      vertex 13.1904 3.97929 3
    endloop
  endfacet
  facet normal 0 0 1
    outer loop
      vertex 13.7997 -0.823242 3
      vertex 13.2085 -1.24202 3
      vertex 13.524 -1.05008 3
    endloop
  endfacet
  facet normal 0 0 1
    outer loop
      vertex 14.2381 -0.293686 3
      vertex 12.8531 -1.39906 3
      vertex 14.0372 -0.56871 3
    endloop
  endfacet
  facet normal 0 0 1
    outer loop
      vertex 13.7997 -0.823242 3
      vertex 12.8531 -1.39906 3
      vertex 13.2085 -1.24202 3
    endloop
  endfacet
  facet normal 0 0 1
    outer loop
      vertex 14.0372 -0.56871 3
      vertex 12.8531 -1.39906 3
      vertex 13.7997 -0.823242 3
    endloop
  endfacet
  facet normal 0 0 1
    outer loop
      vertex 14.6216 0.654297 3
      vertex 12.8531 -1.39906 3
      vertex 14.5303 0.31781 3
    endloop
  endfacet
  facet normal 0 -0 1
    outer loop
      vertex 12.8531 -1.39906 3
      vertex 14.6216 0.654297 3
      vertex 12.4578 -1.52119 3
    endloop
  endfacet
  facet normal 0 0 1
    outer loop
      vertex 12.442 4.24966 3
      vertex 12.0227 -1.60844 3
      vertex 12.4578 -1.52119 3
    endloop
  endfacet
  facet normal 0 0 1
    outer loop
      vertex 12.0105 4.33415 3
      vertex 12.0227 -1.60844 3
      vertex 12.442 4.24966 3
    endloop
  endfacet
  facet normal 0 0 1
    outer loop
      vertex 12.0105 4.33415 3
      vertex 11.5476 -1.6608 3
      vertex 12.0227 -1.60844 3
    endloop
  endfacet
  facet normal 0 0 1
    outer loop
      vertex 11.5407 4.38484 3
      vertex 11.5476 -1.6608 3
      vertex 12.0105 4.33415 3
    endloop
  endfacet
  facet normal 0 0 1
    outer loop
      vertex 11.0327 4.40175 3
      vertex 11.5476 -1.6608 3
      vertex 11.5407 4.38484 3
    endloop
  endfacet
  facet normal 0 0 1
    outer loop
      vertex 11.0327 4.40175 3
      vertex 11.0327 -1.67824 3
      vertex 11.5476 -1.6608 3
    endloop
  endfacet
  facet normal -0 0 1
    outer loop
      vertex -5.67628 4.40175 3
      vertex 11.0327 -1.67824 3
      vertex 11.0327 4.40175 3
    endloop
  endfacet
  facet normal 0 0 1
    outer loop
      vertex 11.0327 -1.67824 3
      vertex -5.67628 4.40175 3
      vertex -5.67628 -1.67824 3
    endloop
  endfacet
  facet normal 0 0 1
    outer loop
      vertex 14.5498 -13.1682 3
      vertex 16.9187 -16.2332 3
      vertex 16.899 -15.8269 3
    endloop
  endfacet
  facet normal 0 0 1
    outer loop
      vertex 14.9585 -13.2942 3
      vertex 16.899 -15.8269 3
      vertex 16.8401 -15.4443 3
    endloop
  endfacet
  facet normal 0 0 1
    outer loop
      vertex 14.5498 -13.1682 3
      vertex 16.899 -15.8269 3
      vertex 14.9585 -13.2942 3
    endloop
  endfacet
  facet normal 0 0 1
    outer loop
      vertex 14.9585 -13.2942 3
      vertex 16.8401 -15.4443 3
      vertex 16.7418 -15.0855 3
    endloop
  endfacet
  facet normal 0 0 1
    outer loop
      vertex 14.5498 -19.2444 3
      vertex 16.9187 -16.2332 3
      vertex 14.5498 -13.1682 3
    endloop
  endfacet
  facet normal 0 0 1
    outer loop
      vertex 15.3291 -13.4562 3
      vertex 16.7418 -15.0855 3
      vertex 16.6043 -14.7505 3
    endloop
  endfacet
  facet normal 0 0 1
    outer loop
      vertex 16.899 -16.6253 3
      vertex 14.9585 -19.1186 3
      vertex 16.8401 -16.9958 3
    endloop
  endfacet
  facet normal 0 0 1
    outer loop
      vertex 15.3291 -13.4562 3
      vertex 16.6043 -14.7505 3
      vertex 16.4274 -14.4393 3
    endloop
  endfacet
  facet normal 0 0 1
    outer loop
      vertex 16.8401 -16.9958 3
      vertex 14.9585 -19.1186 3
      vertex 16.7418 -17.3448 3
    endloop
  endfacet
  facet normal 0 0 1
    outer loop
      vertex 15.3291 -13.4562 3
      vertex 16.4274 -14.4393 3
      vertex 16.2112 -14.1519 3
    endloop
  endfacet
  facet normal 0 0 1
    outer loop
      vertex 16.7418 -15.0855 3
      vertex 15.3291 -13.4562 3
      vertex 14.9585 -13.2942 3
    endloop
  endfacet
  facet normal 0 0 1
    outer loop
      vertex 15.3291 -13.4562 3
      vertex 16.2112 -14.1519 3
      vertex 15.9557 -13.8882 3
    endloop
  endfacet
  facet normal 0 0 1
    outer loop
      vertex 16.7418 -17.3448 3
      vertex 14.9585 -19.1186 3
      vertex 16.6043 -17.6723 3
    endloop
  endfacet
  facet normal 0 0 1
    outer loop
      vertex 15.3291 -13.4562 3
      vertex 15.9557 -13.8882 3
      vertex 15.6615 -13.6542 3
    endloop
  endfacet
  facet normal 0 0 1
    outer loop
      vertex 16.4274 -17.9781 3
      vertex 15.3291 -18.9568 3
      vertex 16.2112 -18.2625 3
    endloop
  endfacet
  facet normal 0 0 1
    outer loop
      vertex 16.2112 -18.2625 3
      vertex 15.3291 -18.9568 3
      vertex 15.9557 -18.5252 3
    endloop
  endfacet
  facet normal 0 0 1
    outer loop
      vertex 15.9557 -18.5252 3
      vertex 15.3291 -18.9568 3
      vertex 15.6615 -18.759 3
    endloop
  endfacet
  facet normal 0 0 1
    outer loop
      vertex 16.6043 -17.6723 3
      vertex 14.9585 -19.1186 3
      vertex 16.4274 -17.9781 3
    endloop
  endfacet
  facet normal 0 0 1
    outer loop
      vertex 16.4274 -17.9781 3
      vertex 14.9585 -19.1186 3
      vertex 15.3291 -18.9568 3
    endloop
  endfacet
  facet normal 0 0 1
    outer loop
      vertex 16.9187 -16.2332 3
      vertex 14.5498 -19.2444 3
      vertex 16.899 -16.6253 3
    endloop
  endfacet
  facet normal 0 0 1
    outer loop
      vertex 16.899 -16.6253 3
      vertex 14.5498 -19.2444 3
      vertex 14.9585 -19.1186 3
    endloop
  endfacet
  facet normal 0 0 1
    outer loop
      vertex 14.103 -13.0782 3
      vertex 14.5498 -19.2444 3
      vertex 14.5498 -13.1682 3
    endloop
  endfacet
  facet normal 0 0 1
    outer loop
      vertex 14.103 -13.0782 3
      vertex 14.103 -19.3343 3
      vertex 14.5498 -19.2444 3
    endloop
  endfacet
  facet normal 0 0 1
    outer loop
      vertex 13.6179 -13.0242 3
      vertex 14.103 -19.3343 3
      vertex 14.103 -13.0782 3
    endloop
  endfacet
  facet normal 0 0 1
    outer loop
      vertex 13.6179 -13.0242 3
      vertex 13.6179 -19.3883 3
      vertex 14.103 -19.3343 3
    endloop
  endfacet
  facet normal 0 0 1
    outer loop
      vertex 13.0947 -13.0062 3
      vertex 13.6179 -19.3883 3
      vertex 13.6179 -13.0242 3
    endloop
  endfacet
  facet normal 0 0 1
    outer loop
      vertex 13.0947 -13.0062 3
      vertex 13.0947 -19.4062 3
      vertex 13.6179 -19.3883 3
    endloop
  endfacet
  facet normal -0 0 1
    outer loop
      vertex -5.67628 -13.0062 3
      vertex 13.0947 -19.4062 3
      vertex 13.0947 -13.0062 3
    endloop
  endfacet
  facet normal 0 0 1
    outer loop
      vertex -5.67628 -13.0062 3
      vertex -8.79828 -19.4062 3
      vertex 13.0947 -19.4062 3
    endloop
  endfacet
  facet normal 0 0 1
    outer loop
      vertex -13.7403 -14.4722 3
      vertex -5.67628 -1.67824 3
      vertex -13.7403 15.4037 3
    endloop
  endfacet
  facet normal -0 0 1
    outer loop
      vertex -9.72612 20.2968 3
      vertex -5.67628 14.1297 3
      vertex -9.27466 20.3275 3
    endloop
  endfacet
  facet normal 0 0 1
    outer loop
      vertex -5.67628 -1.67824 3
      vertex -13.7403 -14.4722 3
      vertex -5.67628 -13.0062 3
    endloop
  endfacet
  facet normal -0 0 1
    outer loop
      vertex -13.6982 16.3432 3
      vertex -5.67628 14.1297 3
      vertex -9.72612 20.2968 3
    endloop
  endfacet
  facet normal 0 0 1
    outer loop
      vertex -13.6982 16.3432 3
      vertex -9.72612 20.2968 3
      vertex -10.1526 20.2455 3
    endloop
  endfacet
  facet normal 0 -0 1
    outer loop
      vertex -13.7167 -15.1864 3
      vertex -5.67628 -13.0062 3
      vertex -13.7403 -14.4722 3
    endloop
  endfacet
  facet normal 0 0 1
    outer loop
      vertex -13.6455 16.7739 3
      vertex -10.1526 20.2455 3
      vertex -10.5542 20.1738 3
    endloop
  endfacet
  facet normal 0 0 1
    outer loop
      vertex -5.67628 -13.0062 3
      vertex -9.52065 -19.3824 3
      vertex -8.79828 -19.4062 3
    endloop
  endfacet
  facet normal 0 0 1
    outer loop
      vertex -13.5718 17.1786 3
      vertex -10.5542 20.1738 3
      vertex -10.9308 20.0816 3
    endloop
  endfacet
  facet normal 0 0 1
    outer loop
      vertex -13.477 17.5573 3
      vertex -10.9308 20.0816 3
      vertex -11.2825 19.9689 3
    endloop
  endfacet
  facet normal 0 0 1
    outer loop
      vertex -5.67628 -13.0062 3
      vertex -13.7167 -15.1864 3
      vertex -9.52065 -19.3824 3
    endloop
  endfacet
  facet normal 0 0 1
    outer loop
      vertex -13.3612 17.91 3
      vertex -11.2825 19.9689 3
      vertex -11.6093 19.8357 3
    endloop
  endfacet
  facet normal 0 0 1
    outer loop
      vertex -9.52065 -19.3824 3
      vertex -13.7167 -15.1864 3
      vertex -10.1826 -19.3111 3
    endloop
  endfacet
  facet normal 0 0 1
    outer loop
      vertex -13.2243 18.2367 3
      vertex -11.6093 19.8357 3
      vertex -11.9114 19.6804 3
    endloop
  endfacet
  facet normal 0 0 1
    outer loop
      vertex -13.2243 18.2367 3
      vertex -11.9114 19.6804 3
      vertex -12.1897 19.5007 3
    endloop
  endfacet
  facet normal -0 -0 1
    outer loop
      vertex -13.6461 -15.8419 3
      vertex -10.1826 -19.3111 3
      vertex -13.7167 -15.1864 3
    endloop
  endfacet
  facet normal 0 0 1
    outer loop
      vertex -13.2243 18.2367 3
      vertex -12.1897 19.5007 3
      vertex -12.4442 19.2967 3
    endloop
  endfacet
  facet normal 0 0 1
    outer loop
      vertex -10.1826 -19.3111 3
      vertex -13.6461 -15.8419 3
      vertex -10.7841 -19.1921 3
    endloop
  endfacet
  facet normal 0 0 1
    outer loop
      vertex -13.2243 18.2367 3
      vertex -12.4442 19.2967 3
      vertex -12.6749 19.0682 3
    endloop
  endfacet
  facet normal 0 0 1
    outer loop
      vertex -13.2243 18.2367 3
      vertex -12.6749 19.0682 3
      vertex -12.8818 18.8154 3
    endloop
  endfacet
  facet normal -0 -0 1
    outer loop
      vertex -13.5283 -16.4388 3
      vertex -10.7841 -19.1921 3
      vertex -13.6461 -15.8419 3
    endloop
  endfacet
  facet normal 0 0 1
    outer loop
      vertex -13.2243 18.2367 3
      vertex -12.8818 18.8154 3
      vertex -13.065 18.5383 3
    endloop
  endfacet
  facet normal 0 0 1
    outer loop
      vertex -10.7841 -19.1921 3
      vertex -13.5283 -16.4388 3
      vertex -11.3253 -19.0255 3
    endloop
  endfacet
  facet normal 0 0 1
    outer loop
      vertex -11.6093 19.8357 3
      vertex -13.2243 18.2367 3
      vertex -13.3612 17.91 3
    endloop
  endfacet
  facet normal 0 0 1
    outer loop
      vertex -11.2825 19.9689 3
      vertex -13.3612 17.91 3
      vertex -13.477 17.5573 3
    endloop
  endfacet
  facet normal -0 -0 1
    outer loop
      vertex -13.3635 -16.9771 3
      vertex -11.3253 -19.0255 3
      vertex -13.5283 -16.4388 3
    endloop
  endfacet
  facet normal 0 0 1
    outer loop
      vertex -10.9308 20.0816 3
      vertex -13.477 17.5573 3
      vertex -13.5718 17.1786 3
    endloop
  endfacet
  facet normal 0 0 1
    outer loop
      vertex -11.3253 -19.0255 3
      vertex -13.3635 -16.9771 3
      vertex -11.806 -18.8113 3
    endloop
  endfacet
  facet normal 0 0 1
    outer loop
      vertex -10.5542 20.1738 3
      vertex -13.5718 17.1786 3
      vertex -13.6455 16.7739 3
    endloop
  endfacet
  facet normal 0 0 1
    outer loop
      vertex -10.1526 20.2455 3
      vertex -13.6455 16.7739 3
      vertex -13.6982 16.3432 3
    endloop
  endfacet
  facet normal -0 -0 1
    outer loop
      vertex -13.1515 -17.4567 3
      vertex -11.806 -18.8113 3
      vertex -13.3635 -16.9771 3
    endloop
  endfacet
  facet normal 0 0 1
    outer loop
      vertex -5.67628 14.1297 3
      vertex -13.6982 16.3432 3
      vertex -13.7298 15.8865 3
    endloop
  endfacet
  facet normal 0 0 1
    outer loop
      vertex -11.806 -18.8113 3
      vertex -13.1515 -17.4567 3
      vertex -12.2264 -18.5496 3
    endloop
  endfacet
  facet normal 0 0 1
    outer loop
      vertex -5.67628 14.1297 3
      vertex -13.7298 15.8865 3
      vertex -13.7403 15.4037 3
    endloop
  endfacet
  facet normal 0 0 1
    outer loop
      vertex -12.2264 -18.5496 3
      vertex -13.1515 -17.4567 3
      vertex -12.5863 -18.2402 3
    endloop
  endfacet
  facet normal 0 0 1
    outer loop
      vertex -12.5863 -18.2402 3
      vertex -13.1515 -17.4567 3
      vertex -12.8924 -17.8778 3
    endloop
  endfacet
  facet normal 0.110524 -0.993873 0
    outer loop
      vertex 13.6179 -19.3883 1.5
      vertex 14.103 -19.3343 3
      vertex 13.6179 -19.3883 3
    endloop
  endfacet
  facet normal 0.110524 -0.993873 0
    outer loop
      vertex 14.103 -19.3343 3
      vertex 13.6179 -19.3883 1.5
      vertex 14.103 -19.3343 1.5
    endloop
  endfacet
  facet normal 0.197197 -0.980364 0
    outer loop
      vertex 14.103 -19.3343 1.5
      vertex 14.5498 -19.2444 3
      vertex 14.103 -19.3343 3
    endloop
  endfacet
  facet normal 0.197197 -0.980364 0
    outer loop
      vertex 14.5498 -19.2444 3
      vertex 14.103 -19.3343 1.5
      vertex 14.5498 -19.2444 1.5
    endloop
  endfacet
  facet normal 0.294296 -0.955714 0
    outer loop
      vertex 14.5498 -19.2444 1.5
      vertex 14.9585 -19.1186 3
      vertex 14.5498 -19.2444 3
    endloop
  endfacet
  facet normal 0.294296 -0.955714 0
    outer loop
      vertex 14.9585 -19.1186 3
      vertex 14.5498 -19.2444 1.5
      vertex 14.9585 -19.1186 1.5
    endloop
  endfacet
  facet normal 0.400195 -0.91643 0
    outer loop
      vertex 14.9585 -19.1186 1.5
      vertex 15.3291 -18.9568 3
      vertex 14.9585 -19.1186 3
    endloop
  endfacet
  facet normal 0.400195 -0.91643 0
    outer loop
      vertex 15.3291 -18.9568 3
      vertex 14.9585 -19.1186 1.5
      vertex 15.3291 -18.9568 1.5
    endloop
  endfacet
  facet normal 0.511365 -0.859363 0
    outer loop
      vertex 15.3291 -18.9568 1.5
      vertex 15.6615 -18.759 3
      vertex 15.3291 -18.9568 3
    endloop
  endfacet
  facet normal 0.511365 -0.859363 0
    outer loop
      vertex 15.6615 -18.759 3
      vertex 15.3291 -18.9568 1.5
      vertex 15.6615 -18.759 1.5
    endloop
  endfacet
  facet normal 0.622027 -0.782996 0
    outer loop
      vertex 15.6615 -18.759 1.5
      vertex 15.9557 -18.5252 3
      vertex 15.6615 -18.759 3
    endloop
  endfacet
  facet normal 0.622027 -0.782996 0
    outer loop
      vertex 15.9557 -18.5252 3
      vertex 15.6615 -18.759 1.5
      vertex 15.9557 -18.5252 1.5
    endloop
  endfacet
  facet normal 0.716967 -0.697108 0
    outer loop
      vertex 15.9557 -18.5252 3
      vertex 16.2112 -18.2625 1.5
      vertex 16.2112 -18.2625 3
    endloop
  endfacet
  facet normal 0.716967 -0.697108 0
    outer loop
      vertex 16.2112 -18.2625 1.5
      vertex 15.9557 -18.5252 3
      vertex 15.9557 -18.5252 1.5
    endloop
  endfacet
  facet normal 0.796035 -0.60525 0
    outer loop
      vertex 16.2112 -18.2625 3
      vertex 16.4274 -17.9781 1.5
      vertex 16.4274 -17.9781 3
    endloop
  endfacet
  facet normal 0.796035 -0.60525 0
    outer loop
      vertex 16.4274 -17.9781 1.5
      vertex 16.2112 -18.2625 3
      vertex 16.2112 -18.2625 1.5
    endloop
  endfacet
  facet normal 0.86568 -0.500597 0
    outer loop
      vertex 16.4274 -17.9781 3
      vertex 16.6043 -17.6723 1.5
      vertex 16.6043 -17.6723 3
    endloop
  endfacet
  facet normal 0.86568 -0.500597 0
    outer loop
      vertex 16.6043 -17.6723 1.5
      vertex 16.4274 -17.9781 3
      vertex 16.4274 -17.9781 1.5
    endloop
  endfacet
  facet normal 0.921926 -0.387365 0
    outer loop
      vertex 16.6043 -17.6723 3
      vertex 16.7418 -17.3448 1.5
      vertex 16.7418 -17.3448 3
    endloop
  endfacet
  facet normal 0.921926 -0.387365 0
    outer loop
      vertex 16.7418 -17.3448 1.5
      vertex 16.6043 -17.6723 3
      vertex 16.6043 -17.6723 1.5
    endloop
  endfacet
  facet normal 0.962579 -0.271 0
    outer loop
      vertex 16.7418 -17.3448 3
      vertex 16.8401 -16.9958 1.5
      vertex 16.8401 -16.9958 3
    endloop
  endfacet
  facet normal 0.962579 -0.271 0
    outer loop
      vertex 16.8401 -16.9958 1.5
      vertex 16.7418 -17.3448 3
      vertex 16.7418 -17.3448 1.5
    endloop
  endfacet
  facet normal 0.987575 -0.157147 0
    outer loop
      vertex 16.8401 -16.9958 3
      vertex 16.899 -16.6253 1.5
      vertex 16.899 -16.6253 3
    endloop
  endfacet
  facet normal 0.987575 -0.157147 0
    outer loop
      vertex 16.899 -16.6253 1.5
      vertex 16.8401 -16.9958 3
      vertex 16.8401 -16.9958 1.5
    endloop
  endfacet
  facet normal 0.998746 -0.0500636 0
    outer loop
      vertex 16.899 -16.6253 3
      vertex 16.9187 -16.2332 1.5
      vertex 16.9187 -16.2332 3
    endloop
  endfacet
  facet normal 0.998746 -0.0500636 0
    outer loop
      vertex 16.9187 -16.2332 1.5
      vertex 16.899 -16.6253 3
      vertex 16.899 -16.6253 1.5
    endloop
  endfacet
  facet normal 0.998833 0.0483046 0
    outer loop
      vertex 16.9187 -16.2332 3
      vertex 16.899 -15.8269 1.5
      vertex 16.899 -15.8269 3
    endloop
  endfacet
  facet normal 0.998833 0.0483046 0
    outer loop
      vertex 16.899 -15.8269 1.5
      vertex 16.9187 -16.2332 3
      vertex 16.9187 -16.2332 1.5
    endloop
  endfacet
  facet normal 0.988333 0.152306 0
    outer loop
      vertex 16.899 -15.8269 3
      vertex 16.8401 -15.4443 1.5
      vertex 16.8401 -15.4443 3
    endloop
  endfacet
  facet normal 0.988333 0.152306 0
    outer loop
      vertex 16.8401 -15.4443 1.5
      vertex 16.899 -15.8269 3
      vertex 16.899 -15.8269 1.5
    endloop
  endfacet
  facet normal 0.964492 0.264113 0
    outer loop
      vertex 16.8401 -15.4443 3
      vertex 16.7418 -15.0855 1.5
      vertex 16.7418 -15.0855 3
    endloop
  endfacet
  facet normal 0.964492 0.264113 0
    outer loop
      vertex 16.7418 -15.0855 1.5
      vertex 16.8401 -15.4443 3
      vertex 16.8401 -15.4443 1.5
    endloop
  endfacet
  facet normal 0.925032 0.379889 0
    outer loop
      vertex 16.7418 -15.0855 3
      vertex 16.6043 -14.7505 1.5
      vertex 16.6043 -14.7505 3
    endloop
  endfacet
  facet normal 0.925032 0.379889 0
    outer loop
      vertex 16.6043 -14.7505 1.5
      vertex 16.7418 -15.0855 3
      vertex 16.7418 -15.0855 1.5
    endloop
  endfacet
  facet normal 0.869385 0.494136 0
    outer loop
      vertex 16.6043 -14.7505 3
      vertex 16.4274 -14.4393 1.5
      vertex 16.4274 -14.4393 3
    endloop
  endfacet
  facet normal 0.869385 0.494136 0
    outer loop
      vertex 16.4274 -14.4393 1.5
      vertex 16.6043 -14.7505 3
      vertex 16.6043 -14.7505 1.5
    endloop
  endfacet
  facet normal 0.799164 0.601113 0
    outer loop
      vertex 16.4274 -14.4393 3
      vertex 16.2112 -14.1519 1.5
      vertex 16.2112 -14.1519 3
    endloop
  endfacet
  facet normal 0.799164 0.601113 0
    outer loop
      vertex 16.2112 -14.1519 1.5
      vertex 16.4274 -14.4393 3
      vertex 16.4274 -14.4393 1.5
    endloop
  endfacet
  facet normal 0.718077 0.695964 0
    outer loop
      vertex 16.2112 -14.1519 3
      vertex 15.9557 -13.8882 1.5
      vertex 15.9557 -13.8882 3
    endloop
  endfacet
  facet normal 0.718077 0.695964 0
    outer loop
      vertex 15.9557 -13.8882 1.5
      vertex 16.2112 -14.1519 3
      vertex 16.2112 -14.1519 1.5
    endloop
  endfacet
  facet normal 0.622475 0.78264 -0
    outer loop
      vertex 15.9557 -13.8882 1.5
      vertex 15.6615 -13.6542 3
      vertex 15.9557 -13.8882 3
    endloop
  endfacet
  facet normal 0.622475 0.78264 0
    outer loop
      vertex 15.6615 -13.6542 3
      vertex 15.9557 -13.8882 1.5
      vertex 15.6615 -13.6542 1.5
    endloop
  endfacet
  facet normal 0.511773 0.859121 -0
    outer loop
      vertex 15.6615 -13.6542 1.5
      vertex 15.3291 -13.4562 3
      vertex 15.6615 -13.6542 3
    endloop
  endfacet
  facet normal 0.511773 0.859121 0
    outer loop
      vertex 15.3291 -13.4562 3
      vertex 15.6615 -13.6542 1.5
      vertex 15.3291 -13.4562 1.5
    endloop
  endfacet
  facet normal 0.400575 0.916264 -0
    outer loop
      vertex 15.3291 -13.4562 1.5
      vertex 14.9585 -13.2942 3
      vertex 15.3291 -13.4562 3
    endloop
  endfacet
  facet normal 0.400575 0.916264 0
    outer loop
      vertex 14.9585 -13.2942 3
      vertex 15.3291 -13.4562 1.5
      vertex 14.9585 -13.2942 1.5
    endloop
  endfacet
  facet normal 0.29459 0.955624 -0
    outer loop
      vertex 14.9585 -13.2942 1.5
      vertex 14.5498 -13.1682 3
      vertex 14.9585 -13.2942 3
    endloop
  endfacet
  facet normal 0.29459 0.955624 0
    outer loop
      vertex 14.5498 -13.1682 3
      vertex 14.9585 -13.2942 1.5
      vertex 14.5498 -13.1682 1.5
    endloop
  endfacet
  facet normal 0.197423 0.980318 -0
    outer loop
      vertex 14.5498 -13.1682 1.5
      vertex 14.103 -13.0782 3
      vertex 14.5498 -13.1682 3
    endloop
  endfacet
  facet normal 0.197423 0.980318 0
    outer loop
      vertex 14.103 -13.0782 3
      vertex 14.5498 -13.1682 1.5
      vertex 14.103 -13.0782 1.5
    endloop
  endfacet
  facet normal 0.110648 0.99386 -0
    outer loop
      vertex 14.103 -13.0782 1.5
      vertex 13.6179 -13.0242 3
      vertex 14.103 -13.0782 3
    endloop
  endfacet
  facet normal 0.110648 0.99386 0
    outer loop
      vertex 13.6179 -13.0242 3
      vertex 14.103 -13.0782 1.5
      vertex 13.6179 -13.0242 1.5
    endloop
  endfacet
  facet normal 0.034394 0.999408 -0
    outer loop
      vertex 13.6179 -13.0242 1.5
      vertex 13.0947 -13.0062 3
      vertex 13.6179 -13.0242 3
    endloop
  endfacet
  facet normal 0.034394 0.999408 0
    outer loop
      vertex 13.0947 -13.0062 3
      vertex 13.6179 -13.0242 1.5
      vertex 13.0947 -13.0062 1.5
    endloop
  endfacet
  facet normal 0 1 -0
    outer loop
      vertex 13.0947 -13.0062 1.5
      vertex -5.67628 -13.0062 3
      vertex 13.0947 -13.0062 3
    endloop
  endfacet
  facet normal 0 1 0
    outer loop
      vertex -5.67628 -13.0062 3
      vertex 13.0947 -13.0062 1.5
      vertex -5.67628 -13.0062 1.5
    endloop
  endfacet
  facet normal 1 -0 0
    outer loop
      vertex -5.67628 -13.0062 3
      vertex -5.67628 -1.67824 1.5
      vertex -5.67628 -1.67824 3
    endloop
  endfacet
  facet normal 1 0 0
    outer loop
      vertex -5.67628 -1.67824 1.5
      vertex -5.67628 -13.0062 3
      vertex -5.67628 -13.0062 1.5
    endloop
  endfacet
  facet normal 0 -1 0
    outer loop
      vertex -5.67628 -1.67824 1.5
      vertex 11.0327 -1.67824 3
      vertex -5.67628 -1.67824 3
    endloop
  endfacet
  facet normal 0 -1 -0
    outer loop
      vertex 11.0327 -1.67824 3
      vertex -5.67628 -1.67824 1.5
      vertex 11.0327 -1.67824 1.5
    endloop
  endfacet
  facet normal 0.0338523 -0.999427 0
    outer loop
      vertex 11.0327 -1.67824 1.5
      vertex 11.5476 -1.6608 3
      vertex 11.0327 -1.67824 3
    endloop
  endfacet
  facet normal 0.0338523 -0.999427 0
    outer loop
      vertex 11.5476 -1.6608 3
      vertex 11.0327 -1.67824 1.5
      vertex 11.5476 -1.6608 1.5
    endloop
  endfacet
  facet normal 0.109545 -0.993982 0
    outer loop
      vertex 11.5476 -1.6608 1.5
      vertex 12.0227 -1.60844 3
      vertex 11.5476 -1.6608 3
    endloop
  endfacet
  facet normal 0.109545 -0.993982 0
    outer loop
      vertex 12.0227 -1.60844 3
      vertex 11.5476 -1.6608 1.5
      vertex 12.0227 -1.60844 1.5
    endloop
  endfacet
  facet normal 0.196586 -0.980487 0
    outer loop
      vertex 12.0227 -1.60844 1.5
      vertex 12.4578 -1.52119 3
      vertex 12.0227 -1.60844 3
    endloop
  endfacet
  facet normal 0.196586 -0.980487 0
    outer loop
      vertex 12.4578 -1.52119 3
      vertex 12.0227 -1.60844 1.5
      vertex 12.4578 -1.52119 1.5
    endloop
  endfacet
  facet normal 0.295195 -0.955437 0
    outer loop
      vertex 12.4578 -1.52119 1.5
      vertex 12.8531 -1.39906 3
      vertex 12.4578 -1.52119 3
    endloop
  endfacet
  facet normal 0.295195 -0.955437 0
    outer loop
      vertex 12.8531 -1.39906 3
      vertex 12.4578 -1.52119 1.5
      vertex 12.8531 -1.39906 1.5
    endloop
  endfacet
  facet normal 0.40417 -0.914684 0
    outer loop
      vertex 12.8531 -1.39906 1.5
      vertex 13.2085 -1.24202 3
      vertex 12.8531 -1.39906 3
    endloop
  endfacet
  facet normal 0.40417 -0.914684 0
    outer loop
      vertex 13.2085 -1.24202 3
      vertex 12.8531 -1.39906 1.5
      vertex 13.2085 -1.24202 1.5
    endloop
  endfacet
  facet normal 0.519718 -0.854338 0
    outer loop
      vertex 13.2085 -1.24202 1.5
      vertex 13.524 -1.05008 3
      vertex 13.2085 -1.24202 3
    endloop
  endfacet
  facet normal 0.519718 -0.854338 0
    outer loop
      vertex 13.524 -1.05008 3
      vertex 13.2085 -1.24202 1.5
      vertex 13.524 -1.05008 1.5
    endloop
  endfacet
  facet normal 0.635405 -0.772179 0
    outer loop
      vertex 13.524 -1.05008 1.5
      vertex 13.7997 -0.823242 3
      vertex 13.524 -1.05008 3
    endloop
  endfacet
  facet normal 0.635405 -0.772179 0
    outer loop
      vertex 13.7997 -0.823242 3
      vertex 13.524 -1.05008 1.5
      vertex 13.7997 -0.823242 1.5
    endloop
  endfacet
  facet normal 0.731229 -0.682132 0
    outer loop
      vertex 13.7997 -0.823242 3
      vertex 14.0372 -0.56871 1.5
      vertex 14.0372 -0.56871 3
    endloop
  endfacet
  facet normal 0.731229 -0.682132 0
    outer loop
      vertex 14.0372 -0.56871 1.5
      vertex 13.7997 -0.823242 3
      vertex 13.7997 -0.823242 1.5
    endloop
  endfacet
  facet normal 0.807485 -0.589889 0
    outer loop
      vertex 14.0372 -0.56871 3
      vertex 14.2381 -0.293686 1.5
      vertex 14.2381 -0.293686 3
    endloop
  endfacet
  facet normal 0.807485 -0.589889 0
    outer loop
      vertex 14.2381 -0.293686 1.5
      vertex 14.0372 -0.56871 3
      vertex 14.0372 -0.56871 1.5
    endloop
  endfacet
  facet normal 0.873857 -0.486183 0
    outer loop
      vertex 14.2381 -0.293686 3
      vertex 14.4025 0.00180054 1.5
      vertex 14.4025 0.00180054 3
    endloop
  endfacet
  facet normal 0.873857 -0.486183 0
    outer loop
      vertex 14.4025 0.00180054 1.5
      vertex 14.2381 -0.293686 3
      vertex 14.2381 -0.293686 1.5
    endloop
  endfacet
  facet normal 0.927003 -0.375054 0
    outer loop
      vertex 14.4025 0.00180054 3
      vertex 14.5303 0.31781 1.5
      vertex 14.5303 0.31781 3
    endloop
  endfacet
  facet normal 0.927003 -0.375054 0
    outer loop
      vertex 14.5303 0.31781 1.5
      vertex 14.4025 0.00180054 3
      vertex 14.4025 0.00180054 1.5
    endloop
  endfacet
  facet normal 0.965087 -0.261929 0
    outer loop
      vertex 14.5303 0.31781 3
      vertex 14.6216 0.654297 1.5
      vertex 14.6216 0.654297 3
    endloop
  endfacet
  facet normal 0.965087 -0.261929 0
    outer loop
      vertex 14.6216 0.654297 1.5
      vertex 14.5303 0.31781 3
      vertex 14.5303 0.31781 1.5
    endloop
  endfacet
  facet normal 0.988424 -0.151717 0
    outer loop
      vertex 14.6216 0.654297 3
      vertex 14.6764 1.01128 1.5
      vertex 14.6764 1.01128 3
    endloop
  endfacet
  facet normal 0.988424 -0.151717 0
    outer loop
      vertex 14.6764 1.01128 1.5
      vertex 14.6216 0.654297 3
      vertex 14.6216 0.654297 1.5
    endloop
  endfacet
  facet normal 0.998831 -0.0483306 0
    outer loop
      vertex 14.6764 1.01128 3
      vertex 14.6947 1.38875 1.5
      vertex 14.6947 1.38875 3
    endloop
  endfacet
  facet normal 0.998831 -0.0483306 0
    outer loop
      vertex 14.6947 1.38875 1.5
      vertex 14.6764 1.01128 3
      vertex 14.6764 1.01128 1.5
    endloop
  endfacet
  facet normal 0.998792 0.0491289 0
    outer loop
      vertex 14.6947 1.38875 3
      vertex 14.6762 1.76566 1.5
      vertex 14.6762 1.76566 3
    endloop
  endfacet
  facet normal 0.998792 0.0491289 0
    outer loop
      vertex 14.6762 1.76566 1.5
      vertex 14.6947 1.38875 3
      vertex 14.6947 1.38875 1.5
    endloop
  endfacet
  facet normal 0.987951 0.154766 0
    outer loop
      vertex 14.6762 1.76566 3
      vertex 14.6205 2.12099 1.5
      vertex 14.6205 2.12099 3
    endloop
  endfacet
  facet normal 0.987951 0.154766 0
    outer loop
      vertex 14.6205 2.12099 1.5
      vertex 14.6762 1.76566 3
      vertex 14.6762 1.76566 1.5
    endloop
  endfacet
  facet normal 0.963479 0.267785 0
    outer loop
      vertex 14.6205 2.12099 3
      vertex 14.5277 2.45473 1.5
      vertex 14.5277 2.45473 3
    endloop
  endfacet
  facet normal 0.963479 0.267785 0
    outer loop
      vertex 14.5277 2.45473 1.5
      vertex 14.6205 2.12099 3
      vertex 14.6205 2.12099 1.5
    endloop
  endfacet
  facet normal 0.92329 0.384103 0
    outer loop
      vertex 14.5277 2.45473 3
      vertex 14.3979 2.76686 1.5
      vertex 14.3979 2.76686 3
    endloop
  endfacet
  facet normal 0.92329 0.384103 0
    outer loop
      vertex 14.3979 2.76686 1.5
      vertex 14.5277 2.45473 3
      vertex 14.5277 2.45473 1.5
    endloop
  endfacet
  facet normal 0.867047 0.498226 0
    outer loop
      vertex 14.3979 2.76686 3
      vertex 14.2309 3.05742 1.5
      vertex 14.2309 3.05742 3
    endloop
  endfacet
  facet normal 0.867047 0.498226 0
    outer loop
      vertex 14.2309 3.05742 1.5
      vertex 14.3979 2.76686 3
      vertex 14.3979 2.76686 1.5
    endloop
  endfacet
  facet normal 0.796657 0.604431 0
    outer loop
      vertex 14.2309 3.05742 3
      vertex 14.0269 3.32637 1.5
      vertex 14.0269 3.32637 3
    endloop
  endfacet
  facet normal 0.796657 0.604431 0
    outer loop
      vertex 14.0269 3.32637 1.5
      vertex 14.2309 3.05742 3
      vertex 14.2309 3.05742 1.5
    endloop
  endfacet
  facet normal 0.716038 0.698062 0
    outer loop
      vertex 14.0269 3.32637 3
      vertex 13.7857 3.57375 1.5
      vertex 13.7857 3.57375 3
    endloop
  endfacet
  facet normal 0.716038 0.698062 0
    outer loop
      vertex 13.7857 3.57375 1.5
      vertex 14.0269 3.32637 3
      vertex 14.0269 3.32637 1.5
    endloop
  endfacet
  facet normal 0.619224 0.785214 -0
    outer loop
      vertex 13.7857 3.57375 1.5
      vertex 13.5072 3.79341 3
      vertex 13.7857 3.57375 3
    endloop
  endfacet
  facet normal 0.619224 0.785214 0
    outer loop
      vertex 13.5072 3.79341 3
      vertex 13.7857 3.57375 1.5
      vertex 13.5072 3.79341 1.5
    endloop
  endfacet
  facet normal 0.506065 0.862495 -0
    outer loop
      vertex 13.5072 3.79341 1.5
      vertex 13.1904 3.97929 3
      vertex 13.5072 3.79341 3
    endloop
  endfacet
  facet normal 0.506065 0.862495 0
    outer loop
      vertex 13.1904 3.97929 3
      vertex 13.5072 3.79341 1.5
      vertex 13.1904 3.97929 1.5
    endloop
  endfacet
  facet normal 0.393752 0.919217 -0
    outer loop
      vertex 13.1904 3.97929 1.5
      vertex 12.8353 4.13138 3
      vertex 13.1904 3.97929 3
    endloop
  endfacet
  facet normal 0.393752 0.919217 0
    outer loop
      vertex 12.8353 4.13138 3
      vertex 13.1904 3.97929 1.5
      vertex 12.8353 4.13138 1.5
    endloop
  endfacet
  facet normal 0.288023 0.957624 -0
    outer loop
      vertex 12.8353 4.13138 1.5
      vertex 12.442 4.24966 3
      vertex 12.8353 4.13138 3
    endloop
  endfacet
  facet normal 0.288023 0.957624 0
    outer loop
      vertex 12.442 4.24966 3
      vertex 12.8353 4.13138 1.5
      vertex 12.442 4.24966 1.5
    endloop
  endfacet
  facet normal 0.192137 0.981368 -0
    outer loop
      vertex 12.442 4.24966 1.5
      vertex 12.0105 4.33415 3
      vertex 12.442 4.24966 3
    endloop
  endfacet
  facet normal 0.192137 0.981368 0
    outer loop
      vertex 12.0105 4.33415 3
      vertex 12.442 4.24966 1.5
      vertex 12.0105 4.33415 1.5
    endloop
  endfacet
  facet normal 0.10728 0.994229 -0
    outer loop
      vertex 12.0105 4.33415 1.5
      vertex 11.5407 4.38484 3
      vertex 12.0105 4.33415 3
    endloop
  endfacet
  facet normal 0.10728 0.994229 0
    outer loop
      vertex 11.5407 4.38484 3
      vertex 12.0105 4.33415 1.5
      vertex 11.5407 4.38484 1.5
    endloop
  endfacet
  facet normal 0.0332619 0.999447 -0
    outer loop
      vertex 11.5407 4.38484 1.5
      vertex 11.0327 4.40175 3
      vertex 11.5407 4.38484 3
    endloop
  endfacet
  facet normal 0.0332619 0.999447 0
    outer loop
      vertex 11.0327 4.40175 3
      vertex 11.5407 4.38484 1.5
      vertex 11.0327 4.40175 1.5
    endloop
  endfacet
  facet normal 0 1 -0
    outer loop
      vertex 11.0327 4.40175 1.5
      vertex -5.67628 4.40175 3
      vertex 11.0327 4.40175 3
    endloop
  endfacet
  facet normal 0 1 0
    outer loop
      vertex -5.67628 4.40175 3
      vertex 11.0327 4.40175 1.5
      vertex -5.67628 4.40175 1.5
    endloop
  endfacet
  facet normal 1 -0 0
    outer loop
      vertex -5.67628 4.40175 3
      vertex -5.67628 14.1297 1.5
      vertex -5.67628 14.1297 3
    endloop
  endfacet
  facet normal 1 0 0
    outer loop
      vertex -5.67628 14.1297 1.5
      vertex -5.67628 4.40175 3
      vertex -5.67628 4.40175 1.5
    endloop
  endfacet
  facet normal 0 -1 0
    outer loop
      vertex -5.67628 14.1297 1.5
      vertex 12.4707 14.1297 3
      vertex -5.67628 14.1297 3
    endloop
  endfacet
  facet normal 0 -1 -0
    outer loop
      vertex 12.4707 14.1297 3
      vertex -5.67628 14.1297 1.5
      vertex 12.4707 14.1297 1.5
    endloop
  endfacet
  facet normal 0.0328569 -0.99946 0
    outer loop
      vertex 12.4707 14.1297 1.5
      vertex 13.0008 14.1472 3
      vertex 12.4707 14.1297 3
    endloop
  endfacet
  facet normal 0.0328569 -0.99946 0
    outer loop
      vertex 13.0008 14.1472 3
      vertex 12.4707 14.1297 1.5
      vertex 13.0008 14.1472 1.5
    endloop
  endfacet
  facet normal 0.106196 -0.994345 0
    outer loop
      vertex 13.0008 14.1472 1.5
      vertex 13.4904 14.1995 3
      vertex 13.0008 14.1472 3
    endloop
  endfacet
  facet normal 0.106196 -0.994345 0
    outer loop
      vertex 13.4904 14.1995 3
      vertex 13.0008 14.1472 1.5
      vertex 13.4904 14.1995 1.5
    endloop
  endfacet
  facet normal 0.190463 -0.981694 0
    outer loop
      vertex 13.4904 14.1995 1.5
      vertex 13.9395 14.2866 3
      vertex 13.4904 14.1995 3
    endloop
  endfacet
  facet normal 0.190463 -0.981694 0
    outer loop
      vertex 13.9395 14.2866 3
      vertex 13.4904 14.1995 1.5
      vertex 13.9395 14.2866 1.5
    endloop
  endfacet
  facet normal 0.286018 -0.958224 0
    outer loop
      vertex 13.9395 14.2866 1.5
      vertex 14.3483 14.4086 3
      vertex 13.9395 14.2866 3
    endloop
  endfacet
  facet normal 0.286018 -0.958224 0
    outer loop
      vertex 14.3483 14.4086 3
      vertex 13.9395 14.2866 1.5
      vertex 14.3483 14.4086 1.5
    endloop
  endfacet
  facet normal 0.391871 -0.92002 0
    outer loop
      vertex 14.3483 14.4086 1.5
      vertex 14.7165 14.5655 3
      vertex 14.3483 14.4086 3
    endloop
  endfacet
  facet normal 0.391871 -0.92002 0
    outer loop
      vertex 14.7165 14.5655 3
      vertex 14.3483 14.4086 1.5
      vertex 14.7165 14.5655 1.5
    endloop
  endfacet
  facet normal 0.50482 -0.863225 0
    outer loop
      vertex 14.7165 14.5655 1.5
      vertex 15.0443 14.7572 3
      vertex 14.7165 14.5655 3
    endloop
  endfacet
  facet normal 0.50482 -0.863225 0
    outer loop
      vertex 15.0443 14.7572 3
      vertex 14.7165 14.5655 1.5
      vertex 15.0443 14.7572 1.5
    endloop
  endfacet
  facet normal 0.619152 -0.785271 0
    outer loop
      vertex 15.0443 14.7572 1.5
      vertex 15.3317 14.9837 3
      vertex 15.0443 14.7572 3
    endloop
  endfacet
  facet normal 0.619152 -0.785271 0
    outer loop
      vertex 15.3317 14.9837 3
      vertex 15.0443 14.7572 1.5
      vertex 15.3317 14.9837 1.5
    endloop
  endfacet
  facet normal 0.716891 -0.697185 0
    outer loop
      vertex 15.3317 14.9837 3
      vertex 15.58 15.2391 1.5
      vertex 15.58 15.2391 3
    endloop
  endfacet
  facet normal 0.716891 -0.697185 0
    outer loop
      vertex 15.58 15.2391 1.5
      vertex 15.3317 14.9837 3
      vertex 15.3317 14.9837 1.5
    endloop
  endfacet
  facet normal 0.797799 -0.602924 0
    outer loop
      vertex 15.58 15.2391 3
      vertex 15.7902 15.5171 1.5
      vertex 15.7902 15.5171 3
    endloop
  endfacet
  facet normal 0.797799 -0.602924 0
    outer loop
      vertex 15.7902 15.5171 1.5
      vertex 15.58 15.2391 3
      vertex 15.58 15.2391 1.5
    endloop
  endfacet
  facet normal 0.868154 -0.496295 0
    outer loop
      vertex 15.7902 15.5171 3
      vertex 15.9621 15.8179 1.5
      vertex 15.9621 15.8179 3
    endloop
  endfacet
  facet normal 0.868154 -0.496295 0
    outer loop
      vertex 15.9621 15.8179 1.5
      vertex 15.7902 15.5171 3
      vertex 15.7902 15.5171 1.5
    endloop
  endfacet
  facet normal 0.924136 -0.382063 0
    outer loop
      vertex 15.9621 15.8179 3
      vertex 16.0958 16.1413 1.5
      vertex 16.0958 16.1413 3
    endloop
  endfacet
  facet normal 0.924136 -0.382063 0
    outer loop
      vertex 16.0958 16.1413 1.5
      vertex 15.9621 15.8179 3
      vertex 15.9621 15.8179 1.5
    endloop
  endfacet
  facet normal 0.963975 -0.265993 0
    outer loop
      vertex 16.0958 16.1413 3
      vertex 16.1913 16.4874 1.5
      vertex 16.1913 16.4874 3
    endloop
  endfacet
  facet normal 0.963975 -0.265993 0
    outer loop
      vertex 16.1913 16.4874 1.5
      vertex 16.0958 16.1413 3
      vertex 16.0958 16.1413 1.5
    endloop
  endfacet
  facet normal 0.988141 -0.15355 0
    outer loop
      vertex 16.1913 16.4874 3
      vertex 16.2486 16.8562 1.5
      vertex 16.2486 16.8562 3
    endloop
  endfacet
  facet normal 0.988141 -0.15355 0
    outer loop
      vertex 16.2486 16.8562 1.5
      vertex 16.1913 16.4874 3
      vertex 16.1913 16.4874 1.5
    endloop
  endfacet
  facet normal 0.998814 -0.0486989 0
    outer loop
      vertex 16.2486 16.8562 3
      vertex 16.2677 17.2477 1.5
      vertex 16.2677 17.2477 3
    endloop
  endfacet
  facet normal 0.998814 -0.0486989 0
    outer loop
      vertex 16.2677 17.2477 1.5
      vertex 16.2486 16.8562 3
      vertex 16.2486 16.8562 1.5
    endloop
  endfacet
  facet normal 0.998767 0.0496388 0
    outer loop
      vertex 16.2677 17.2477 3
      vertex 16.2486 17.6318 1.5
      vertex 16.2486 17.6318 3
    endloop
  endfacet
  facet normal 0.998767 0.0496388 0
    outer loop
      vertex 16.2486 17.6318 1.5
      vertex 16.2677 17.2477 3
      vertex 16.2677 17.2477 1.5
    endloop
  endfacet
  facet normal 0.987734 0.156148 0
    outer loop
      vertex 16.2486 17.6318 3
      vertex 16.1913 17.9944 1.5
      vertex 16.1913 17.9944 3
    endloop
  endfacet
  facet normal 0.987734 0.156148 0
    outer loop
      vertex 16.1913 17.9944 1.5
      vertex 16.2486 17.6318 3
      vertex 16.2486 17.6318 1.5
    endloop
  endfacet
  facet normal 0.96294 0.269715 0
    outer loop
      vertex 16.1913 17.9944 3
      vertex 16.0958 18.3353 1.5
      vertex 16.0958 18.3353 3
    endloop
  endfacet
  facet normal 0.96294 0.269715 0
    outer loop
      vertex 16.0958 18.3353 1.5
      vertex 16.1913 17.9944 3
      vertex 16.1913 17.9944 1.5
    endloop
  endfacet
  facet normal 0.922449 0.38612 0
    outer loop
      vertex 16.0958 18.3353 3
      vertex 15.9621 18.6548 1.5
      vertex 15.9621 18.6548 3
    endloop
  endfacet
  facet normal 0.922449 0.38612 0
    outer loop
      vertex 15.9621 18.6548 1.5
      vertex 16.0958 18.3353 3
      vertex 16.0958 18.3353 1.5
    endloop
  endfacet
  facet normal 0.866092 0.499885 0
    outer loop
      vertex 15.9621 18.6548 3
      vertex 15.7902 18.9526 1.5
      vertex 15.7902 18.9526 3
    endloop
  endfacet
  facet normal 0.866092 0.499885 0
    outer loop
      vertex 15.7902 18.9526 1.5
      vertex 15.9621 18.6548 3
      vertex 15.9621 18.6548 1.5
    endloop
  endfacet
  facet normal 0.796005 0.605289 0
    outer loop
      vertex 15.7902 18.9526 3
      vertex 15.58 19.229 1.5
      vertex 15.58 19.229 3
    endloop
  endfacet
  facet normal 0.796005 0.605289 0
    outer loop
      vertex 15.58 19.229 1.5
      vertex 15.7902 18.9526 3
      vertex 15.7902 18.9526 1.5
    endloop
  endfacet
  facet normal 0.71612 0.697978 0
    outer loop
      vertex 15.58 19.229 3
      vertex 15.3317 19.4837 1.5
      vertex 15.3317 19.4837 3
    endloop
  endfacet
  facet normal 0.71612 0.697978 0
    outer loop
      vertex 15.3317 19.4837 1.5
      vertex 15.58 19.229 3
      vertex 15.58 19.229 1.5
    endloop
  endfacet
  facet normal 0.619126 0.785291 -0
    outer loop
      vertex 15.3317 19.4837 1.5
      vertex 15.0443 19.7103 3
      vertex 15.3317 19.4837 3
    endloop
  endfacet
  facet normal 0.619126 0.785291 0
    outer loop
      vertex 15.0443 19.7103 3
      vertex 15.3317 19.4837 1.5
      vertex 15.0443 19.7103 1.5
    endloop
  endfacet
  facet normal 0.50482 0.863225 -0
    outer loop
      vertex 15.0443 19.7103 1.5
      vertex 14.7165 19.902 3
      vertex 15.0443 19.7103 3
    endloop
  endfacet
  facet normal 0.50482 0.863225 0
    outer loop
      vertex 14.7165 19.902 3
      vertex 15.0443 19.7103 1.5
      vertex 14.7165 19.902 1.5
    endloop
  endfacet
  facet normal 0.391871 0.92002 -0
    outer loop
      vertex 14.7165 19.902 1.5
      vertex 14.3483 20.0589 3
      vertex 14.7165 19.902 3
    endloop
  endfacet
  facet normal 0.391871 0.92002 0
    outer loop
      vertex 14.3483 20.0589 3
      vertex 14.7165 19.902 1.5
      vertex 14.3483 20.0589 1.5
    endloop
  endfacet
  facet normal 0.286018 0.958224 -0
    outer loop
      vertex 14.3483 20.0589 1.5
      vertex 13.9395 20.1809 3
      vertex 14.3483 20.0589 3
    endloop
  endfacet
  facet normal 0.286018 0.958224 0
    outer loop
      vertex 13.9395 20.1809 3
      vertex 14.3483 20.0589 1.5
      vertex 13.9395 20.1809 1.5
    endloop
  endfacet
  facet normal 0.190463 0.981694 -0
    outer loop
      vertex 13.9395 20.1809 1.5
      vertex 13.4904 20.268 3
      vertex 13.9395 20.1809 3
    endloop
  endfacet
  facet normal 0.190463 0.981694 0
    outer loop
      vertex 13.4904 20.268 3
      vertex 13.9395 20.1809 1.5
      vertex 13.4904 20.268 1.5
    endloop
  endfacet
  facet normal 0.106196 0.994345 -0
    outer loop
      vertex 13.4904 20.268 1.5
      vertex 13.0008 20.3203 3
      vertex 13.4904 20.268 3
    endloop
  endfacet
  facet normal 0.106196 0.994345 0
    outer loop
      vertex 13.0008 20.3203 3
      vertex 13.4904 20.268 1.5
      vertex 13.0008 20.3203 1.5
    endloop
  endfacet
  facet normal 0.0328569 0.99946 -0
    outer loop
      vertex 13.0008 20.3203 1.5
      vertex 12.4707 20.3377 3
      vertex 13.0008 20.3203 3
    endloop
  endfacet
  facet normal 0.0328569 0.99946 0
    outer loop
      vertex 12.4707 20.3377 3
      vertex 13.0008 20.3203 1.5
      vertex 12.4707 20.3377 1.5
    endloop
  endfacet
  facet normal 0 1 -0
    outer loop
      vertex 12.4707 20.3377 1.5
      vertex -8.79828 20.3377 3
      vertex 12.4707 20.3377 3
    endloop
  endfacet
  facet normal 0 1 0
    outer loop
      vertex -8.79828 20.3377 3
      vertex 12.4707 20.3377 1.5
      vertex -8.79828 20.3377 1.5
    endloop
  endfacet
  facet normal -0.0214877 0.999769 0
    outer loop
      vertex -8.79828 20.3377 1.5
      vertex -9.27466 20.3275 3
      vertex -8.79828 20.3377 3
    endloop
  endfacet
  facet normal -0.0214877 0.999769 0
    outer loop
      vertex -9.27466 20.3275 3
      vertex -8.79828 20.3377 1.5
      vertex -9.27466 20.3275 1.5
    endloop
  endfacet
  facet normal -0.0679133 0.997691 0
    outer loop
      vertex -9.27466 20.3275 1.5
      vertex -9.72612 20.2968 3
      vertex -9.27466 20.3275 3
    endloop
  endfacet
  facet normal -0.0679133 0.997691 0
    outer loop
      vertex -9.72612 20.2968 3
      vertex -9.27466 20.3275 1.5
      vertex -9.72612 20.2968 1.5
    endloop
  endfacet
  facet normal -0.119246 0.992865 0
    outer loop
      vertex -9.72612 20.2968 1.5
      vertex -10.1526 20.2455 3
      vertex -9.72612 20.2968 3
    endloop
  endfacet
  facet normal -0.119246 0.992865 0
    outer loop
      vertex -10.1526 20.2455 3
      vertex -9.72612 20.2968 1.5
      vertex -10.1526 20.2455 1.5
    endloop
  endfacet
  facet normal -0.175804 0.984425 0
    outer loop
      vertex -10.1526 20.2455 1.5
      vertex -10.5542 20.1738 3
      vertex -10.1526 20.2455 3
    endloop
  endfacet
  facet normal -0.175804 0.984425 0
    outer loop
      vertex -10.5542 20.1738 3
      vertex -10.1526 20.2455 1.5
      vertex -10.5542 20.1738 1.5
    endloop
  endfacet
  facet normal -0.237801 0.971314 0
    outer loop
      vertex -10.5542 20.1738 1.5
      vertex -10.9308 20.0816 3
      vertex -10.5542 20.1738 3
    endloop
  endfacet
  facet normal -0.237801 0.971314 0
    outer loop
      vertex -10.9308 20.0816 3
      vertex -10.5542 20.1738 1.5
      vertex -10.9308 20.0816 1.5
    endloop
  endfacet
  facet normal -0.305137 0.952308 0
    outer loop
      vertex -10.9308 20.0816 1.5
      vertex -11.2825 19.9689 3
      vertex -10.9308 20.0816 3
    endloop
  endfacet
  facet normal -0.305137 0.952308 0
    outer loop
      vertex -11.2825 19.9689 3
      vertex -10.9308 20.0816 1.5
      vertex -11.2825 19.9689 1.5
    endloop
  endfacet
  facet normal -0.377459 0.926026 0
    outer loop
      vertex -11.2825 19.9689 1.5
      vertex -11.6093 19.8357 3
      vertex -11.2825 19.9689 3
    endloop
  endfacet
  facet normal -0.377459 0.926026 0
    outer loop
      vertex -11.6093 19.8357 3
      vertex -11.2825 19.9689 1.5
      vertex -11.6093 19.8357 1.5
    endloop
  endfacet
  facet normal -0.457248 0.889339 0
    outer loop
      vertex -11.6093 19.8357 1.5
      vertex -11.9114 19.6804 3
      vertex -11.6093 19.8357 3
    endloop
  endfacet
  facet normal -0.457248 0.889339 0
    outer loop
      vertex -11.9114 19.6804 3
      vertex -11.6093 19.8357 1.5
      vertex -11.9114 19.6804 1.5
    endloop
  endfacet
  facet normal -0.542449 0.840089 0
    outer loop
      vertex -11.9114 19.6804 1.5
      vertex -12.1897 19.5007 3
      vertex -11.9114 19.6804 3
    endloop
  endfacet
  facet normal -0.542449 0.840089 0
    outer loop
      vertex -12.1897 19.5007 3
      vertex -11.9114 19.6804 1.5
      vertex -12.1897 19.5007 1.5
    endloop
  endfacet
  facet normal -0.625522 0.780207 0
    outer loop
      vertex -12.1897 19.5007 1.5
      vertex -12.4442 19.2967 3
      vertex -12.1897 19.5007 3
    endloop
  endfacet
  facet normal -0.625522 0.780207 0
    outer loop
      vertex -12.4442 19.2967 3
      vertex -12.1897 19.5007 1.5
      vertex -12.4442 19.2967 1.5
    endloop
  endfacet
  facet normal -0.703573 0.710623 0
    outer loop
      vertex -12.4442 19.2967 1.5
      vertex -12.6749 19.0682 3
      vertex -12.4442 19.2967 3
    endloop
  endfacet
  facet normal -0.703573 0.710623 0
    outer loop
      vertex -12.6749 19.0682 3
      vertex -12.4442 19.2967 1.5
      vertex -12.6749 19.0682 1.5
    endloop
  endfacet
  facet normal -0.773835 0.633388 0
    outer loop
      vertex -12.8818 18.8154 1.5
      vertex -12.6749 19.0682 3
      vertex -12.6749 19.0682 1.5
    endloop
  endfacet
  facet normal -0.773835 0.633388 0
    outer loop
      vertex -12.6749 19.0682 3
      vertex -12.8818 18.8154 1.5
      vertex -12.8818 18.8154 3
    endloop
  endfacet
  facet normal -0.83434 0.55125 0
    outer loop
      vertex -13.065 18.5383 1.5
      vertex -12.8818 18.8154 3
      vertex -12.8818 18.8154 1.5
    endloop
  endfacet
  facet normal -0.83434 0.55125 0
    outer loop
      vertex -12.8818 18.8154 3
      vertex -13.065 18.5383 1.5
      vertex -13.065 18.5383 3
    endloop
  endfacet
  facet normal -0.884171 0.467164 0
    outer loop
      vertex -13.2243 18.2367 1.5
      vertex -13.065 18.5383 3
      vertex -13.065 18.5383 1.5
    endloop
  endfacet
  facet normal -0.884171 0.467164 0
    outer loop
      vertex -13.065 18.5383 3
      vertex -13.2243 18.2367 1.5
      vertex -13.2243 18.2367 3
    endloop
  endfacet
  facet normal -0.922299 0.386477 0
    outer loop
      vertex -13.3612 17.91 1.5
      vertex -13.2243 18.2367 3
      vertex -13.2243 18.2367 1.5
    endloop
  endfacet
  facet normal -0.922299 0.386477 0
    outer loop
      vertex -13.2243 18.2367 3
      vertex -13.3612 17.91 1.5
      vertex -13.3612 17.91 3
    endloop
  endfacet
  facet normal -0.950084 0.311995 0
    outer loop
      vertex -13.477 17.5573 1.5
      vertex -13.3612 17.91 3
      vertex -13.3612 17.91 1.5
    endloop
  endfacet
  facet normal -0.950084 0.311995 0
    outer loop
      vertex -13.3612 17.91 3
      vertex -13.477 17.5573 1.5
      vertex -13.477 17.5573 3
    endloop
  endfacet
  facet normal -0.970076 0.242802 0
    outer loop
      vertex -13.5718 17.1786 1.5
      vertex -13.477 17.5573 3
      vertex -13.477 17.5573 1.5
    endloop
  endfacet
  facet normal -0.970076 0.242802 0
    outer loop
      vertex -13.477 17.5573 3
      vertex -13.5718 17.1786 1.5
      vertex -13.5718 17.1786 3
    endloop
  endfacet
  facet normal -0.983815 0.179189 0
    outer loop
      vertex -13.6455 16.7739 1.5
      vertex -13.5718 17.1786 3
      vertex -13.5718 17.1786 1.5
    endloop
  endfacet
  facet normal -0.983815 0.179189 0
    outer loop
      vertex -13.5718 17.1786 3
      vertex -13.6455 16.7739 1.5
      vertex -13.6455 16.7739 3
    endloop
  endfacet
  facet normal -0.992613 0.121321 0
    outer loop
      vertex -13.6982 16.3432 1.5
      vertex -13.6455 16.7739 3
      vertex -13.6455 16.7739 1.5
    endloop
  endfacet
  facet normal -0.992613 0.121321 0
    outer loop
      vertex -13.6455 16.7739 3
      vertex -13.6982 16.3432 1.5
      vertex -13.6982 16.3432 3
    endloop
  endfacet
  facet normal -0.997615 0.0690274 0
    outer loop
      vertex -13.7298 15.8865 1.5
      vertex -13.6982 16.3432 3
      vertex -13.6982 16.3432 1.5
    endloop
  endfacet
  facet normal -0.997615 0.0690274 0
    outer loop
      vertex -13.6982 16.3432 3
      vertex -13.7298 15.8865 1.5
      vertex -13.7298 15.8865 3
    endloop
  endfacet
  facet normal -0.999762 0.0218061 0
    outer loop
      vertex -13.7403 15.4037 1.5
      vertex -13.7298 15.8865 3
      vertex -13.7298 15.8865 1.5
    endloop
  endfacet
  facet normal -0.999762 0.0218061 0
    outer loop
      vertex -13.7298 15.8865 3
      vertex -13.7403 15.4037 1.5
      vertex -13.7403 15.4037 3
    endloop
  endfacet
  facet normal -1 0 0
    outer loop
      vertex -13.7403 -14.4722 1.5
      vertex -13.7403 15.4037 3
      vertex -13.7403 15.4037 1.5
    endloop
  endfacet
  facet normal -1 -0 0
    outer loop
      vertex -13.7403 15.4037 3
      vertex -13.7403 -14.4722 1.5
      vertex -13.7403 -14.4722 3
    endloop
  endfacet
  facet normal -0.999456 -0.0329728 0
    outer loop
      vertex -13.7167 -15.1864 1.5
      vertex -13.7403 -14.4722 3
      vertex -13.7403 -14.4722 1.5
    endloop
  endfacet
  facet normal -0.999456 -0.0329728 0
    outer loop
      vertex -13.7403 -14.4722 3
      vertex -13.7167 -15.1864 1.5
      vertex -13.7167 -15.1864 3
    endloop
  endfacet
  facet normal -0.994242 -0.107157 0
    outer loop
      vertex -13.6461 -15.8419 1.5
      vertex -13.7167 -15.1864 3
      vertex -13.7167 -15.1864 1.5
    endloop
  endfacet
  facet normal -0.994242 -0.107157 0
    outer loop
      vertex -13.7167 -15.1864 3
      vertex -13.6461 -15.8419 1.5
      vertex -13.6461 -15.8419 3
    endloop
  endfacet
  facet normal -0.981091 -0.193545 0
    outer loop
      vertex -13.5283 -16.4388 1.5
      vertex -13.6461 -15.8419 3
      vertex -13.6461 -15.8419 1.5
    endloop
  endfacet
  facet normal -0.981091 -0.193545 0
    outer loop
      vertex -13.6461 -15.8419 3
      vertex -13.5283 -16.4388 1.5
      vertex -13.5283 -16.4388 3
    endloop
  endfacet
  facet normal -0.956165 -0.292829 0
    outer loop
      vertex -13.3635 -16.9771 1.5
      vertex -13.5283 -16.4388 3
      vertex -13.5283 -16.4388 1.5
    endloop
  endfacet
  facet normal -0.956165 -0.292829 0
    outer loop
      vertex -13.5283 -16.4388 3
      vertex -13.3635 -16.9771 1.5
      vertex -13.3635 -16.9771 3
    endloop
  endfacet
  facet normal -0.914675 -0.404191 0
    outer loop
      vertex -13.1515 -17.4567 1.5
      vertex -13.3635 -16.9771 3
      vertex -13.3635 -16.9771 1.5
    endloop
  endfacet
  facet normal -0.914675 -0.404191 0
    outer loop
      vertex -13.3635 -16.9771 3
      vertex -13.1515 -17.4567 1.5
      vertex -13.1515 -17.4567 3
    endloop
  endfacet
  facet normal -0.851707 -0.524018 0
    outer loop
      vertex -12.8924 -17.8778 1.5
      vertex -13.1515 -17.4567 3
      vertex -13.1515 -17.4567 1.5
    endloop
  endfacet
  facet normal -0.851707 -0.524018 0
    outer loop
      vertex -13.1515 -17.4567 3
      vertex -12.8924 -17.8778 1.5
      vertex -12.8924 -17.8778 3
    endloop
  endfacet
  facet normal -0.763934 -0.645295 0
    outer loop
      vertex -12.5863 -18.2402 1.5
      vertex -12.8924 -17.8778 3
      vertex -12.8924 -17.8778 1.5
    endloop
  endfacet
  facet normal -0.763934 -0.645295 0
    outer loop
      vertex -12.8924 -17.8778 3
      vertex -12.5863 -18.2402 1.5
      vertex -12.5863 -18.2402 3
    endloop
  endfacet
  facet normal -0.651821 -0.758373 0
    outer loop
      vertex -12.5863 -18.2402 1.5
      vertex -12.2264 -18.5496 3
      vertex -12.5863 -18.2402 3
    endloop
  endfacet
  facet normal -0.651821 -0.758373 -0
    outer loop
      vertex -12.2264 -18.5496 3
      vertex -12.5863 -18.2402 1.5
      vertex -12.2264 -18.5496 1.5
    endloop
  endfacet
  facet normal -0.528605 -0.848868 0
    outer loop
      vertex -12.2264 -18.5496 1.5
      vertex -11.806 -18.8113 3
      vertex -12.2264 -18.5496 3
    endloop
  endfacet
  facet normal -0.528605 -0.848868 -0
    outer loop
      vertex -11.806 -18.8113 3
      vertex -12.2264 -18.5496 1.5
      vertex -11.806 -18.8113 1.5
    endloop
  endfacet
  facet normal -0.406956 -0.913448 0
    outer loop
      vertex -11.806 -18.8113 1.5
      vertex -11.3253 -19.0255 3
      vertex -11.806 -18.8113 3
    endloop
  endfacet
  facet normal -0.406956 -0.913448 -0
    outer loop
      vertex -11.3253 -19.0255 3
      vertex -11.806 -18.8113 1.5
      vertex -11.3253 -19.0255 1.5
    endloop
  endfacet
  facet normal -0.294177 -0.955751 0
    outer loop
      vertex -11.3253 -19.0255 1.5
      vertex -10.7841 -19.1921 3
      vertex -11.3253 -19.0255 3
    endloop
  endfacet
  facet normal -0.294177 -0.955751 -0
    outer loop
      vertex -10.7841 -19.1921 3
      vertex -11.3253 -19.0255 1.5
      vertex -10.7841 -19.1921 1.5
    endloop
  endfacet
  facet normal -0.194044 -0.980993 0
    outer loop
      vertex -10.7841 -19.1921 1.5
      vertex -10.1826 -19.3111 3
      vertex -10.7841 -19.1921 3
    endloop
  endfacet
  facet normal -0.194044 -0.980993 -0
    outer loop
      vertex -10.1826 -19.3111 3
      vertex -10.7841 -19.1921 1.5
      vertex -10.1826 -19.3111 1.5
    endloop
  endfacet
  facet normal -0.107211 -0.994236 0
    outer loop
      vertex -10.1826 -19.3111 1.5
      vertex -9.52065 -19.3824 3
      vertex -10.1826 -19.3111 3
    endloop
  endfacet
  facet normal -0.107211 -0.994236 -0
    outer loop
      vertex -9.52065 -19.3824 3
      vertex -10.1826 -19.3111 1.5
      vertex -9.52065 -19.3824 1.5
    endloop
  endfacet
  facet normal -0.0329345 -0.999458 0
    outer loop
      vertex -9.52065 -19.3824 1.5
      vertex -8.79828 -19.4062 3
      vertex -9.52065 -19.3824 3
    endloop
  endfacet
  facet normal -0.0329345 -0.999458 -0
    outer loop
      vertex -8.79828 -19.4062 3
      vertex -9.52065 -19.3824 1.5
      vertex -8.79828 -19.4062 1.5
    endloop
  endfacet
  facet normal 0 -1 0
    outer loop
      vertex -8.79828 -19.4062 1.5
      vertex 13.0947 -19.4062 3
      vertex -8.79828 -19.4062 3
    endloop
  endfacet
  facet normal 0 -1 -0
    outer loop
      vertex 13.0947 -19.4062 3
      vertex -8.79828 -19.4062 1.5
      vertex 13.0947 -19.4062 1.5
    endloop
  endfacet
  facet normal 0.0343649 -0.999409 0
    outer loop
      vertex 13.0947 -19.4062 1.5
      vertex 13.6179 -19.3883 3
      vertex 13.0947 -19.4062 3
    endloop
  endfacet
  facet normal 0.0343649 -0.999409 0
    outer loop
      vertex 13.6179 -19.3883 3
      vertex 13.0947 -19.4062 1.5
      vertex 13.6179 -19.3883 1.5
    endloop
  endfacet
endsolid OpenSCAD_Model
