solid OpenSCAD_Model
  facet normal -1 0 0
    outer loop
      vertex -25 -25 -1
      vertex -25 25 23.2
      vertex -25 25 -1
    endloop
  endfacet
  facet normal -1 -0 0
    outer loop
      vertex -25 25 23.2
      vertex -25 -25 -1
      vertex -25 -25 23.2
    endloop
  endfacet
  facet normal 2.17308e-27 1.22465e-16 1
    outer loop
      vertex 24 24 -2.93915e-15
      vertex 4.54623 -0.119736 1.46634e-17
      vertex 24 -24 2.93915e-15
    endloop
  endfacet
  facet normal -2.44535e-24 1.22465e-16 1
    outer loop
      vertex 24 24 -2.93915e-15
      vertex 4.51933 0.44902 -5.49891e-17
      vertex 4.54623 -0.119736 1.46634e-17
    endloop
  endfacet
  facet normal -9.01876e-24 1.22465e-16 1
    outer loop
      vertex 24 24 -2.93915e-15
      vertex 4.44574 0.946579 -1.15922e-16
      vertex 4.51933 0.44902 -5.49891e-17
    endloop
  endfacet
  facet normal -5.18253e-24 1.22465e-16 1
    outer loop
      vertex 24 24 -2.93915e-15
      vertex 4.43869 0.983582 -1.20454e-16
      vertex 4.44574 0.946579 -1.15922e-16
    endloop
  endfacet
  facet normal 5.17004e-24 1.22465e-16 1
    outer loop
      vertex 24 24 -2.93915e-15
      vertex 4.31604 1.44749 -1.77267e-16
      vertex 4.43869 0.983582 -1.20454e-16
    endloop
  endfacet
  facet normal 5.82971e-23 1.22465e-16 1
    outer loop
      vertex 24 24 -2.93915e-15
      vertex 4.3044 1.48332 -1.81655e-16
      vertex 4.31604 1.44749 -1.77267e-16
    endloop
  endfacet
  facet normal -3.15961e-23 1.22465e-16 1
    outer loop
      vertex 24 24 -2.93915e-15
      vertex 4.13269 1.9136 -2.34349e-16
      vertex 4.3044 1.48332 -1.81655e-16
    endloop
  endfacet
  facet normal 3.62969e-22 1.22464e-16 1
    outer loop
      vertex 24 24 -2.93915e-15
      vertex 4.11664 1.94769 -2.38524e-16
      vertex 4.13269 1.9136 -2.34349e-16
    endloop
  endfacet
  facet normal 3.95079e-24 1.22465e-16 1
    outer loop
      vertex 24 24 -2.93915e-15
      vertex 3.89586 2.34435 -2.87099e-16
      vertex 4.11664 1.94769 -2.38524e-16
    endloop
  endfacet
  facet normal -9.27018e-23 1.22465e-16 1
    outer loop
      vertex 24 24 -2.93915e-15
      vertex 3.87567 2.37616 -2.90996e-16
      vertex 3.89586 2.34435 -2.87099e-16
    endloop
  endfacet
  facet normal -2.93731e-23 1.22465e-16 1
    outer loop
      vertex 24 24 -2.93915e-15
      vertex 3.60583 2.73918 -3.35453e-16
      vertex 3.87567 2.37616 -2.90996e-16
    endloop
  endfacet
  facet normal 3.78937e-22 1.22464e-16 1
    outer loop
      vertex 24 24 -2.93915e-15
      vertex 3.58183 2.7682 -3.39007e-16
      vertex 3.60583 2.73918 -3.35453e-16
    endloop
  endfacet
  facet normal -1.80028e-23 1.22465e-16 1
    outer loop
      vertex 24 24 -2.93915e-15
      vertex 3.26294 3.0976 -3.79346e-16
      vertex 3.58183 2.7682 -3.39007e-16
    endloop
  endfacet
  facet normal 1.86505e-22 1.22464e-16 1
    outer loop
      vertex 24 24 -2.93915e-15
      vertex 3.23547 3.12338 -3.82504e-16
      vertex 3.26294 3.0976 -3.79346e-16
    endloop
  endfacet
  facet normal -4.40082e-24 1.22465e-16 1
    outer loop
      vertex 24 24 -2.93915e-15
      vertex 2.88377 3.41336 -4.18016e-16
      vertex 3.23547 3.12338 -3.82504e-16
    endloop
  endfacet
  facet normal -2.45123e-22 1.22465e-16 1
    outer loop
      vertex 24 24 -2.93915e-15
      vertex 2.85329 3.43552 -4.20729e-16
      vertex 2.88377 3.41336 -4.18016e-16
    endloop
  endfacet
  facet normal 4.04937e-23 1.22465e-16 1
    outer loop
      vertex 24 24 -2.93915e-15
      vertex 2.4845 3.68088 -4.50777e-16
      vertex 2.85329 3.43552 -4.20729e-16
    endloop
  endfacet
  facet normal -2.60575e-23 1.22465e-16 1
    outer loop
      vertex 24 24 -2.93915e-15
      vertex 2.06558 3.89978 -4.77585e-16
      vertex 2.4845 3.68088 -4.50777e-16
    endloop
  endfacet
  facet normal -2.06032e-23 1.22465e-16 1
    outer loop
      vertex 24 24 -2.93915e-15
      vertex 1.62755 4.06979 -4.98406e-16
      vertex 2.06558 3.89978 -4.77585e-16
    endloop
  endfacet
  facet normal 3.27449e-23 1.22465e-16 1
    outer loop
      vertex 24 24 -2.93915e-15
      vertex 1.17097 4.19069 -5.13211e-16
      vertex 1.62755 4.06979 -4.98406e-16
    endloop
  endfacet
  facet normal -3.85327e-23 1.22465e-16 1
    outer loop
      vertex 24 24 -2.93915e-15
      vertex 0.696381 4.26234 -5.21987e-16
      vertex 1.17097 4.19069 -5.13211e-16
    endloop
  endfacet
  facet normal -2.93435e-23 1.22465e-16 1
    outer loop
      vertex 24 24 -2.93915e-15
      vertex 0.242081 4.28465 -5.24719e-16
      vertex 0.696381 4.26234 -5.21987e-16
    endloop
  endfacet
  facet normal 0 1.22465e-16 1
    outer loop
      vertex 24 24 -2.93915e-15
      vertex 0.204422 4.28465 -5.24719e-16
      vertex 0.242081 4.28465 -5.24719e-16
    endloop
  endfacet
  facet normal -0 1.22465e-16 1
    outer loop
      vertex -24 24 -2.93915e-15
      vertex 0.204422 4.28465 -5.24719e-16
      vertex 24 24 -2.93915e-15
    endloop
  endfacet
  facet normal 3.55647e-23 1.22465e-16 1
    outer loop
      vertex 0.204422 4.28465 -5.24719e-16
      vertex -24 24 -2.93915e-15
      vertex -0.264755 4.2626 -5.22018e-16
    endloop
  endfacet
  facet normal 1.87431e-23 1.22465e-16 1
    outer loop
      vertex -0.264755 4.2626 -5.22018e-16
      vertex -24 24 -2.93915e-15
      vertex -0.752548 4.19176 -5.13342e-16
    endloop
  endfacet
  facet normal -3.81361e-23 1.22465e-16 1
    outer loop
      vertex -0.752548 4.19176 -5.13342e-16
      vertex -24 24 -2.93915e-15
      vertex -1.22066 4.07219 -4.98699e-16
    endloop
  endfacet
  facet normal 2.55777e-23 1.22465e-16 1
    outer loop
      vertex -1.22066 4.07219 -4.98699e-16
      vertex -24 24 -2.93915e-15
      vertex -1.66855 3.90402 -4.78105e-16
    endloop
  endfacet
  facet normal 4.19126e-23 1.22465e-16 1
    outer loop
      vertex -1.66855 3.90402 -4.78105e-16
      vertex -24 24 -2.93915e-15
      vertex -2.06264 3.70566 -4.53812e-16
    endloop
  endfacet
  facet normal -3.71668e-22 1.22464e-16 1
    outer loop
      vertex -2.06264 3.70566 -4.53812e-16
      vertex -24 24 -2.93915e-15
      vertex -2.09564 3.68752 -4.5159e-16
    endloop
  endfacet
  facet normal -4.23978e-24 1.22465e-16 1
    outer loop
      vertex -2.09564 3.68752 -4.5159e-16
      vertex -24 24 -2.93915e-15
      vertex -2.47095 3.44507 -4.21899e-16
    endloop
  endfacet
  facet normal 4.65764e-24 1.22465e-16 1
    outer loop
      vertex -4.15457 0.455902 -5.58319e-17
      vertex -24 24 -2.93915e-15
      vertex -4.18173 -0.119736 1.46634e-17
    endloop
  endfacet
  facet normal 1.49422e-24 1.22465e-16 1
    outer loop
      vertex -4.08018 0.958664 -1.17402e-16
      vertex -24 24 -2.93915e-15
      vertex -4.15457 0.455902 -5.58319e-17
    endloop
  endfacet
  facet normal 4.99912e-24 1.22465e-16 1
    outer loop
      vertex -4.07314 0.995667 -1.21934e-16
      vertex -24 24 -2.93915e-15
      vertex -4.08018 0.958664 -1.17402e-16
    endloop
  endfacet
  facet normal 1.01483e-23 1.22465e-16 1
    outer loop
      vertex -3.94914 1.4631 -1.79179e-16
      vertex -24 24 -2.93915e-15
      vertex -4.07314 0.995667 -1.21934e-16
    endloop
  endfacet
  facet normal -5.7283e-23 1.22465e-16 1
    outer loop
      vertex -3.9375 1.49893 -1.83566e-16
      vertex -24 24 -2.93915e-15
      vertex -3.94914 1.4631 -1.79179e-16
    endloop
  endfacet
  facet normal -3.00405e-24 1.22465e-16 1
    outer loop
      vertex -3.76393 1.93108 -2.36489e-16
      vertex -24 24 -2.93915e-15
      vertex -3.9375 1.49893 -1.83566e-16
    endloop
  endfacet
  facet normal 2.00651e-22 1.22465e-16 1
    outer loop
      vertex -3.74788 1.96516 -2.40663e-16
      vertex -24 24 -2.93915e-15
      vertex -3.76393 1.93108 -2.36489e-16
    endloop
  endfacet
  facet normal -1.03774e-23 1.22465e-16 1
    outer loop
      vertex -3.52472 2.362 -2.89262e-16
      vertex -24 24 -2.93915e-15
      vertex -3.74788 1.96516 -2.40663e-16
    endloop
  endfacet
  facet normal 9.19115e-23 1.22465e-16 1
    outer loop
      vertex -3.50453 2.39381 -2.93158e-16
      vertex -24 24 -2.93915e-15
      vertex -3.52472 2.362 -2.89262e-16
    endloop
  endfacet
  facet normal -2.15098e-23 1.22465e-16 1
    outer loop
      vertex -3.23178 2.75536 -3.37434e-16
      vertex -24 24 -2.93915e-15
      vertex -3.50453 2.39381 -2.93158e-16
    endloop
  endfacet
  facet normal 1.29736e-22 1.22465e-16 1
    outer loop
      vertex -3.20778 2.78438 -3.40988e-16
      vertex -24 24 -2.93915e-15
      vertex -3.23178 2.75536 -3.37434e-16
    endloop
  endfacet
  facet normal 1.72843e-23 1.22465e-16 1
    outer loop
      vertex -2.88542 3.1106 -3.80938e-16
      vertex -24 24 -2.93915e-15
      vertex -3.20778 2.78438 -3.40988e-16
    endloop
  endfacet
  facet normal -1.8474e-22 1.22464e-16 1
    outer loop
      vertex -2.85796 3.13638 -3.84096e-16
      vertex -24 24 -2.93915e-15
      vertex -2.88542 3.1106 -3.80938e-16
    endloop
  endfacet
  facet normal -7.2712e-24 1.22465e-16 1
    outer loop
      vertex -2.50143 3.42291 -4.19186e-16
      vertex -24 24 -2.93915e-15
      vertex -2.85796 3.13638 -3.84096e-16
    endloop
  endfacet
  facet normal 2.43116e-22 1.22465e-16 1
    outer loop
      vertex -2.47095 3.44507 -4.21899e-16
      vertex -24 24 -2.93915e-15
      vertex -2.50143 3.42291 -4.19186e-16
    endloop
  endfacet
  facet normal 8.53726e-24 1.22465e-16 1
    outer loop
      vertex 4.51933 -0.625427 7.65927e-17
      vertex 24 -24 2.93915e-15
      vertex 4.54623 -0.119736 1.46634e-17
    endloop
  endfacet
  facet normal -1.11764e-24 1.22465e-16 1
    outer loop
      vertex 4.43869 -1.11009 1.35947e-16
      vertex 24 -24 2.93915e-15
      vertex 4.51933 -0.625427 7.65927e-17
    endloop
  endfacet
  facet normal 4.54942e-24 1.22465e-16 1
    outer loop
      vertex 4.31604 -1.53737 1.88273e-16
      vertex 24 -24 2.93915e-15
      vertex 4.43869 -1.11009 1.35947e-16
    endloop
  endfacet
  facet normal -5.80373e-23 1.22465e-16 1
    outer loop
      vertex 4.3044 -1.5732 1.92661e-16
      vertex 24 -24 2.93915e-15
      vertex 4.31604 -1.53737 1.88273e-16
    endloop
  endfacet
  facet normal 1.17086e-23 1.22465e-16 1
    outer loop
      vertex 4.13269 -1.98004 2.42485e-16
      vertex 24 -24 2.93915e-15
      vertex 4.3044 -1.5732 1.92661e-16
    endloop
  endfacet
  facet normal 2.02958e-22 1.22465e-16 1
    outer loop
      vertex 4.11664 -2.01413 2.4666e-16
      vertex 24 -24 2.93915e-15
      vertex 4.13269 -1.98004 2.42485e-16
    endloop
  endfacet
  facet normal 4.94515e-24 1.22465e-16 1
    outer loop
      vertex 3.89586 -2.40059 2.93987e-16
      vertex 24 -24 2.93915e-15
      vertex 4.11664 -2.01413 2.4666e-16
    endloop
  endfacet
  facet normal -4.38302e-22 1.22464e-16 1
    outer loop
      vertex 3.87567 -2.4324 2.97884e-16
      vertex 24 -24 2.93915e-15
      vertex 3.89586 -2.40059 2.93987e-16
    endloop
  endfacet
  facet normal 2.80588e-23 1.22465e-16 1
    outer loop
      vertex 3.60583 -2.79845 3.42711e-16
      vertex 24 -24 2.93915e-15
      vertex 3.87567 -2.4324 2.97884e-16
    endloop
  endfacet
  facet normal 1.3134e-22 1.22465e-16 1
    outer loop
      vertex 3.58183 -2.82747 3.46265e-16
      vertex 24 -24 2.93915e-15
      vertex 3.60583 -2.79845 3.42711e-16
    endloop
  endfacet
  facet normal -3.1767e-23 1.22465e-16 1
    outer loop
      vertex 3.26294 -3.1731 3.88592e-16
      vertex 24 -24 2.93915e-15
      vertex 3.58183 -2.82747 3.46265e-16
    endloop
  endfacet
  facet normal 3.1167e-22 1.22465e-16 1
    outer loop
      vertex 3.23547 -3.19888 3.9175e-16
      vertex 24 -24 2.93915e-15
      vertex 3.26294 -3.1731 3.88592e-16
    endloop
  endfacet
  facet normal 4.22709e-24 1.22465e-16 1
    outer loop
      vertex 2.8821 -3.51062 4.29927e-16
      vertex 24 -24 2.93915e-15
      vertex 3.23547 -3.19888 3.9175e-16
    endloop
  endfacet
  facet normal 2.92302e-24 1.22465e-16 1
    outer loop
      vertex 2.4778 -3.79655 4.64944e-16
      vertex 24 -24 2.93915e-15
      vertex 2.8821 -3.51062 4.29927e-16
    endloop
  endfacet
  facet normal -4.22991e-23 1.22465e-16 1
    outer loop
      vertex 2.05052 -4.0305 4.93594e-16
      vertex 24 -24 2.93915e-15
      vertex 2.4778 -3.79655 4.64944e-16
    endloop
  endfacet
  facet normal 2.81601e-23 1.22465e-16 1
    outer loop
      vertex 1.60078 -4.21223 5.1585e-16
      vertex 24 -24 2.93915e-15
      vertex 2.05052 -4.0305 4.93594e-16
    endloop
  endfacet
  facet normal 7.46658e-25 1.22465e-16 1
    outer loop
      vertex 1.12914 -4.34151 5.31681e-16
      vertex 24 -24 2.93915e-15
      vertex 1.60078 -4.21223 5.1585e-16
    endloop
  endfacet
  facet normal 4.07114e-24 1.22465e-16 1
    outer loop
      vertex 0.673523 -4.41344 5.4049e-16
      vertex 24 -24 2.93915e-15
      vertex 1.12914 -4.34151 5.31681e-16
    endloop
  endfacet
  facet normal -4.82731e-22 1.22464e-16 1
    outer loop
      vertex 0.636139 -4.41817 5.41069e-16
      vertex 24 -24 2.93915e-15
      vertex 0.673523 -4.41344 5.4049e-16
    endloop
  endfacet
  facet normal 5.04944e-23 1.22465e-16 1
    outer loop
      vertex 0.16008 -4.44215 5.44007e-16
      vertex 24 -24 2.93915e-15
      vertex 0.636139 -4.41817 5.41069e-16
    endloop
  endfacet
  facet normal -0 1.22465e-16 1
    outer loop
      vertex 0.122421 -4.44215 5.44007e-16
      vertex 24 -24 2.93915e-15
      vertex 0.16008 -4.44215 5.44007e-16
    endloop
  endfacet
  facet normal -4.35452e-23 1.22465e-16 1
    outer loop
      vertex -24 -24 2.93915e-15
      vertex 0.122421 -4.44215 5.44007e-16
      vertex -0.352554 -4.41791 5.41038e-16
    endloop
  endfacet
  facet normal 4.81945e-22 1.22464e-16 1
    outer loop
      vertex -24 -24 2.93915e-15
      vertex -0.352554 -4.41791 5.41038e-16
      vertex -0.389938 -4.41318 5.40458e-16
    endloop
  endfacet
  facet normal -2.40681e-23 1.22465e-16 1
    outer loop
      vertex -24 -24 2.93915e-15
      vertex -0.389938 -4.41318 5.40458e-16
      vertex -0.842865 -4.34044 5.3155e-16
    endloop
  endfacet
  facet normal 5.31383e-23 1.22465e-16 1
    outer loop
      vertex -24 -24 2.93915e-15
      vertex -0.842865 -4.34044 5.3155e-16
      vertex -1.31026 -4.20985 5.15558e-16
    endloop
  endfacet
  facet normal 6.13904e-25 1.22465e-16 1
    outer loop
      vertex -24 -24 2.93915e-15
      vertex -1.31026 -4.20985 5.15558e-16
      vertex -1.75415 -4.02626 4.93075e-16
    endloop
  endfacet
  facet normal -5.20066e-23 1.22465e-16 1
    outer loop
      vertex -24 -24 2.93915e-15
      vertex -1.75415 -4.02626 4.93075e-16
      vertex -2.17397 -3.78992 4.64131e-16
    endloop
  endfacet
  facet normal 2.93015e-23 1.22465e-16 1
    outer loop
      vertex -24 -24 2.93915e-15
      vertex -2.17397 -3.78992 4.64131e-16
      vertex -2.56923 -3.50107 4.28757e-16
    endloop
  endfacet
  facet normal -2.13311e-27 1.22465e-16 1
    outer loop
      vertex -24 -24 2.93915e-15
      vertex -4.18173 -0.119736 1.46634e-17
      vertex -24 24 -2.93915e-15
    endloop
  endfacet
  facet normal 1.60003e-24 1.22465e-16 1
    outer loop
      vertex -4.18173 -0.119736 1.46634e-17
      vertex -24 -24 2.93915e-15
      vertex -4.15567 -0.618546 7.575e-17
    endloop
  endfacet
  facet normal -8.05659e-24 1.22465e-16 1
    outer loop
      vertex -4.15567 -0.618546 7.575e-17
      vertex -24 -24 2.93915e-15
      vertex -4.08458 -1.06102 1.29937e-16
    endloop
  endfacet
  facet normal -4.98089e-24 1.22465e-16 1
    outer loop
      vertex -4.08458 -1.06102 1.29937e-16
      vertex -24 -24 2.93915e-15
      vertex -4.07753 -1.09802 1.34469e-16
    endloop
  endfacet
  facet normal 1.6128e-24 1.22465e-16 1
    outer loop
      vertex -4.07753 -1.09802 1.34469e-16
      vertex -24 -24 2.93915e-15
      vertex -3.95906 -1.52174 1.8636e-16
    endloop
  endfacet
  facet normal 5.74197e-23 1.22465e-16 1
    outer loop
      vertex -3.95906 -1.52174 1.8636e-16
      vertex -24 -24 2.93915e-15
      vertex -3.94742 -1.55757 1.90747e-16
    endloop
  endfacet
  facet normal -1.31143e-23 1.22465e-16 1
    outer loop
      vertex -3.94742 -1.55757 1.90747e-16
      vertex -24 -24 2.93915e-15
      vertex -3.78157 -1.96259 2.40347e-16
    endloop
  endfacet
  facet normal -2.0066e-22 1.22465e-16 1
    outer loop
      vertex -3.78157 -1.96259 2.40347e-16
      vertex -24 -24 2.93915e-15
      vertex -3.76552 -1.99667 2.44522e-16
    endloop
  endfacet
  facet normal 6.79537e-24 1.22465e-16 1
    outer loop
      vertex -3.76552 -1.99667 2.44522e-16
      vertex -24 -24 2.93915e-15
      vertex -3.55228 -2.38293 2.91825e-16
    endloop
  endfacet
  facet normal -9.20712e-23 1.22465e-16 1
    outer loop
      vertex -3.55228 -2.38293 2.91825e-16
      vertex -24 -24 2.93915e-15
      vertex -3.53209 -2.41475 2.95721e-16
    endloop
  endfacet
  facet normal 0 1.22465e-16 1
    outer loop
      vertex 0.122421 -4.44215 5.44007e-16
      vertex -24 -24 2.93915e-15
      vertex 24 -24 2.93915e-15
    endloop
  endfacet
  facet normal -3.72626e-23 1.22465e-16 1
    outer loop
      vertex -2.93942 -3.1601 3.87e-16
      vertex -24 -24 2.93915e-15
      vertex -2.56923 -3.50107 4.28757e-16
    endloop
  endfacet
  facet normal 3.13616e-23 1.22465e-16 1
    outer loop
      vertex -3.24745 -2.81129 3.44284e-16
      vertex -24 -24 2.93915e-15
      vertex -2.93942 -3.1601 3.87e-16
    endloop
  endfacet
  facet normal -1.30138e-22 1.22465e-16 1
    outer loop
      vertex -3.27145 -2.78227 3.4073e-16
      vertex -24 -24 2.93915e-15
      vertex -3.24745 -2.81129 3.44284e-16
    endloop
  endfacet
  facet normal 6.96675e-24 1.22465e-16 1
    outer loop
      vertex -3.53209 -2.41475 2.95721e-16
      vertex -24 -24 2.93915e-15
      vertex -3.27145 -2.78227 3.4073e-16
    endloop
  endfacet
  facet normal 1 0 0
    outer loop
      vertex 25 -25 23.2
      vertex 25 25 -1
      vertex 25 25 23.2
    endloop
  endfacet
  facet normal 1 0 0
    outer loop
      vertex 25 25 -1
      vertex 25 -25 23.2
      vertex 25 -25 -1
    endloop
  endfacet
  facet normal 0 -1 0
    outer loop
      vertex -25 -25 -1
      vertex 25 -25 23.2
      vertex -25 -25 23.2
    endloop
  endfacet
  facet normal 0 -1 -0
    outer loop
      vertex 25 -25 23.2
      vertex -25 -25 -1
      vertex 25 -25 -1
    endloop
  endfacet
  facet normal 0 1 -0
    outer loop
      vertex 25 25 -1
      vertex -25 25 23.2
      vertex 25 25 23.2
    endloop
  endfacet
  facet normal 0 1 0
    outer loop
      vertex -25 25 23.2
      vertex 25 25 -1
      vertex -25 25 -1
    endloop
  endfacet
  facet normal 1 0 0
    outer loop
      vertex -24 -24 23.2
      vertex -24 24 -2.93915e-15
      vertex -24 24 23.2
    endloop
  endfacet
  facet normal 1 0 0
    outer loop
      vertex -24 24 -2.93915e-15
      vertex -24 -24 23.2
      vertex -24 -24 2.93915e-15
    endloop
  endfacet
  facet normal -1 0 0
    outer loop
      vertex 24 -24 2.93915e-15
      vertex 24 24 23.2
      vertex 24 24 -2.93915e-15
    endloop
  endfacet
  facet normal -1 -0 0
    outer loop
      vertex 24 24 23.2
      vertex 24 -24 2.93915e-15
      vertex 24 -24 23.2
    endloop
  endfacet
  facet normal 0 1 -0
    outer loop
      vertex 24 -24 2.93915e-15
      vertex -24 -24 23.2
      vertex 24 -24 23.2
    endloop
  endfacet
  facet normal 0 1 0
    outer loop
      vertex -24 -24 23.2
      vertex 24 -24 2.93915e-15
      vertex -24 -24 2.93915e-15
    endloop
  endfacet
  facet normal 0 -1 0
    outer loop
      vertex -24 24 -2.93915e-15
      vertex 24 24 23.2
      vertex -24 24 23.2
    endloop
  endfacet
  facet normal 0 -1 -0
    outer loop
      vertex 24 24 23.2
      vertex -24 24 -2.93915e-15
      vertex 24 24 -2.93915e-15
    endloop
  endfacet
  facet normal 0 0 -1
    outer loop
      vertex 25 -25 -1
      vertex 4.54623 -0.119736 -1
      vertex 25 25 -1
    endloop
  endfacet
  facet normal 0 0 -1
    outer loop
      vertex 25 -25 -1
      vertex 4.51933 -0.625427 -1
      vertex 4.54623 -0.119736 -1
    endloop
  endfacet
  facet normal 0 0 -1
    outer loop
      vertex 25 -25 -1
      vertex 4.43869 -1.11009 -1
      vertex 4.51933 -0.625427 -1
    endloop
  endfacet
  facet normal 0 0 -1
    outer loop
      vertex 25 -25 -1
      vertex 4.31604 -1.53737 -1
      vertex 4.43869 -1.11009 -1
    endloop
  endfacet
  facet normal 0 0 -1
    outer loop
      vertex 25 -25 -1
      vertex 4.3044 -1.5732 -1
      vertex 4.31604 -1.53737 -1
    endloop
  endfacet
  facet normal 0 0 -1
    outer loop
      vertex 25 -25 -1
      vertex 4.13269 -1.98004 -1
      vertex 4.3044 -1.5732 -1
    endloop
  endfacet
  facet normal 0 0 -1
    outer loop
      vertex 25 -25 -1
      vertex 4.11664 -2.01413 -1
      vertex 4.13269 -1.98004 -1
    endloop
  endfacet
  facet normal 0 0 -1
    outer loop
      vertex 25 -25 -1
      vertex 3.89586 -2.40059 -1
      vertex 4.11664 -2.01413 -1
    endloop
  endfacet
  facet normal 0 0 -1
    outer loop
      vertex 25 -25 -1
      vertex 3.87567 -2.4324 -1
      vertex 3.89586 -2.40059 -1
    endloop
  endfacet
  facet normal 0 0 -1
    outer loop
      vertex 25 -25 -1
      vertex 3.60583 -2.79845 -1
      vertex 3.87567 -2.4324 -1
    endloop
  endfacet
  facet normal 0 0 -1
    outer loop
      vertex 25 -25 -1
      vertex 3.58183 -2.82747 -1
      vertex 3.60583 -2.79845 -1
    endloop
  endfacet
  facet normal 0 0 -1
    outer loop
      vertex 25 -25 -1
      vertex 3.26294 -3.1731 -1
      vertex 3.58183 -2.82747 -1
    endloop
  endfacet
  facet normal 0 0 -1
    outer loop
      vertex 25 -25 -1
      vertex 3.23547 -3.19888 -1
      vertex 3.26294 -3.1731 -1
    endloop
  endfacet
  facet normal 0 0 -1
    outer loop
      vertex 25 -25 -1
      vertex 2.8821 -3.51062 -1
      vertex 3.23547 -3.19888 -1
    endloop
  endfacet
  facet normal 0 0 -1
    outer loop
      vertex 25 -25 -1
      vertex 2.4778 -3.79655 -1
      vertex 2.8821 -3.51062 -1
    endloop
  endfacet
  facet normal 0 0 -1
    outer loop
      vertex 25 -25 -1
      vertex 2.05052 -4.0305 -1
      vertex 2.4778 -3.79655 -1
    endloop
  endfacet
  facet normal 0 0 -1
    outer loop
      vertex 25 -25 -1
      vertex 1.60078 -4.21223 -1
      vertex 2.05052 -4.0305 -1
    endloop
  endfacet
  facet normal 0 0 -1
    outer loop
      vertex 25 -25 -1
      vertex 1.12914 -4.34151 -1
      vertex 1.60078 -4.21223 -1
    endloop
  endfacet
  facet normal 0 0 -1
    outer loop
      vertex 25 -25 -1
      vertex 0.673523 -4.41344 -1
      vertex 1.12914 -4.34151 -1
    endloop
  endfacet
  facet normal 0 0 -1
    outer loop
      vertex 25 -25 -1
      vertex 0.636139 -4.41817 -1
      vertex 0.673523 -4.41344 -1
    endloop
  endfacet
  facet normal 0 0 -1
    outer loop
      vertex 25 -25 -1
      vertex 0.16008 -4.44215 -1
      vertex 0.636139 -4.41817 -1
    endloop
  endfacet
  facet normal 0 0 -1
    outer loop
      vertex 25 -25 -1
      vertex 0.122421 -4.44215 -1
      vertex 0.16008 -4.44215 -1
    endloop
  endfacet
  facet normal 0 0 -1
    outer loop
      vertex -25 -25 -1
      vertex 0.122421 -4.44215 -1
      vertex 25 -25 -1
    endloop
  endfacet
  facet normal -0 0 -1
    outer loop
      vertex 0.122421 -4.44215 -1
      vertex -25 -25 -1
      vertex -0.352554 -4.41791 -1
    endloop
  endfacet
  facet normal -0 0 -1
    outer loop
      vertex -0.352554 -4.41791 -1
      vertex -25 -25 -1
      vertex -0.389938 -4.41318 -1
    endloop
  endfacet
  facet normal -0 0 -1
    outer loop
      vertex -0.389938 -4.41318 -1
      vertex -25 -25 -1
      vertex -0.842865 -4.34044 -1
    endloop
  endfacet
  facet normal -0 0 -1
    outer loop
      vertex -0.842865 -4.34044 -1
      vertex -25 -25 -1
      vertex -1.31026 -4.20985 -1
    endloop
  endfacet
  facet normal -0 0 -1
    outer loop
      vertex -1.31026 -4.20985 -1
      vertex -25 -25 -1
      vertex -1.75415 -4.02626 -1
    endloop
  endfacet
  facet normal -0 0 -1
    outer loop
      vertex -1.75415 -4.02626 -1
      vertex -25 -25 -1
      vertex -2.17397 -3.78992 -1
    endloop
  endfacet
  facet normal -0 0 -1
    outer loop
      vertex -4.15567 -0.618546 -1
      vertex -25 -25 -1
      vertex -4.18173 -0.119736 -1
    endloop
  endfacet
  facet normal -0 0 -1
    outer loop
      vertex -4.08458 -1.06102 -1
      vertex -25 -25 -1
      vertex -4.15567 -0.618546 -1
    endloop
  endfacet
  facet normal -0 0 -1
    outer loop
      vertex -4.07753 -1.09802 -1
      vertex -25 -25 -1
      vertex -4.08458 -1.06102 -1
    endloop
  endfacet
  facet normal -0 0 -1
    outer loop
      vertex -3.95906 -1.52174 -1
      vertex -25 -25 -1
      vertex -4.07753 -1.09802 -1
    endloop
  endfacet
  facet normal -0 0 -1
    outer loop
      vertex -3.94742 -1.55757 -1
      vertex -25 -25 -1
      vertex -3.95906 -1.52174 -1
    endloop
  endfacet
  facet normal -0 0 -1
    outer loop
      vertex -3.78157 -1.96259 -1
      vertex -25 -25 -1
      vertex -3.94742 -1.55757 -1
    endloop
  endfacet
  facet normal -0 0 -1
    outer loop
      vertex -3.76552 -1.99667 -1
      vertex -25 -25 -1
      vertex -3.78157 -1.96259 -1
    endloop
  endfacet
  facet normal -0 0 -1
    outer loop
      vertex -3.55228 -2.38293 -1
      vertex -25 -25 -1
      vertex -3.76552 -1.99667 -1
    endloop
  endfacet
  facet normal -0 0 -1
    outer loop
      vertex -3.53209 -2.41475 -1
      vertex -25 -25 -1
      vertex -3.55228 -2.38293 -1
    endloop
  endfacet
  facet normal -0 0 -1
    outer loop
      vertex -3.27145 -2.78227 -1
      vertex -25 -25 -1
      vertex -3.53209 -2.41475 -1
    endloop
  endfacet
  facet normal -0 0 -1
    outer loop
      vertex -3.24745 -2.81129 -1
      vertex -25 -25 -1
      vertex -3.27145 -2.78227 -1
    endloop
  endfacet
  facet normal -0 0 -1
    outer loop
      vertex -2.93942 -3.1601 -1
      vertex -25 -25 -1
      vertex -3.24745 -2.81129 -1
    endloop
  endfacet
  facet normal -0 0 -1
    outer loop
      vertex -2.56923 -3.50107 -1
      vertex -25 -25 -1
      vertex -2.93942 -3.1601 -1
    endloop
  endfacet
  facet normal -0 0 -1
    outer loop
      vertex -2.17397 -3.78992 -1
      vertex -25 -25 -1
      vertex -2.56923 -3.50107 -1
    endloop
  endfacet
  facet normal 0 0 -1
    outer loop
      vertex 4.51933 0.44902 -1
      vertex 25 25 -1
      vertex 4.54623 -0.119736 -1
    endloop
  endfacet
  facet normal 0 0 -1
    outer loop
      vertex 4.44574 0.946579 -1
      vertex 25 25 -1
      vertex 4.51933 0.44902 -1
    endloop
  endfacet
  facet normal 0 0 -1
    outer loop
      vertex 4.43869 0.983582 -1
      vertex 25 25 -1
      vertex 4.44574 0.946579 -1
    endloop
  endfacet
  facet normal 0 0 -1
    outer loop
      vertex 4.31604 1.44749 -1
      vertex 25 25 -1
      vertex 4.43869 0.983582 -1
    endloop
  endfacet
  facet normal 0 0 -1
    outer loop
      vertex 4.3044 1.48332 -1
      vertex 25 25 -1
      vertex 4.31604 1.44749 -1
    endloop
  endfacet
  facet normal 0 0 -1
    outer loop
      vertex 4.13269 1.9136 -1
      vertex 25 25 -1
      vertex 4.3044 1.48332 -1
    endloop
  endfacet
  facet normal 0 0 -1
    outer loop
      vertex 4.11664 1.94769 -1
      vertex 25 25 -1
      vertex 4.13269 1.9136 -1
    endloop
  endfacet
  facet normal 0 0 -1
    outer loop
      vertex 3.89586 2.34435 -1
      vertex 25 25 -1
      vertex 4.11664 1.94769 -1
    endloop
  endfacet
  facet normal 0 0 -1
    outer loop
      vertex 3.87567 2.37616 -1
      vertex 25 25 -1
      vertex 3.89586 2.34435 -1
    endloop
  endfacet
  facet normal 0 0 -1
    outer loop
      vertex 3.60583 2.73918 -1
      vertex 25 25 -1
      vertex 3.87567 2.37616 -1
    endloop
  endfacet
  facet normal 0 0 -1
    outer loop
      vertex 3.58183 2.7682 -1
      vertex 25 25 -1
      vertex 3.60583 2.73918 -1
    endloop
  endfacet
  facet normal 0 0 -1
    outer loop
      vertex 3.26294 3.0976 -1
      vertex 25 25 -1
      vertex 3.58183 2.7682 -1
    endloop
  endfacet
  facet normal 0 0 -1
    outer loop
      vertex 3.23547 3.12338 -1
      vertex 25 25 -1
      vertex 3.26294 3.0976 -1
    endloop
  endfacet
  facet normal 0 0 -1
    outer loop
      vertex 2.88377 3.41336 -1
      vertex 25 25 -1
      vertex 3.23547 3.12338 -1
    endloop
  endfacet
  facet normal 0 0 -1
    outer loop
      vertex 2.85329 3.43552 -1
      vertex 25 25 -1
      vertex 2.88377 3.41336 -1
    endloop
  endfacet
  facet normal 0 0 -1
    outer loop
      vertex 2.4845 3.68088 -1
      vertex 25 25 -1
      vertex 2.85329 3.43552 -1
    endloop
  endfacet
  facet normal 0 0 -1
    outer loop
      vertex 2.06558 3.89978 -1
      vertex 25 25 -1
      vertex 2.4845 3.68088 -1
    endloop
  endfacet
  facet normal 0 0 -1
    outer loop
      vertex 1.62755 4.06979 -1
      vertex 25 25 -1
      vertex 2.06558 3.89978 -1
    endloop
  endfacet
  facet normal 0 0 -1
    outer loop
      vertex 1.17097 4.19069 -1
      vertex 25 25 -1
      vertex 1.62755 4.06979 -1
    endloop
  endfacet
  facet normal 0 0 -1
    outer loop
      vertex 0.696381 4.26234 -1
      vertex 25 25 -1
      vertex 1.17097 4.19069 -1
    endloop
  endfacet
  facet normal 0 0 -1
    outer loop
      vertex 0.242081 4.28465 -1
      vertex 25 25 -1
      vertex 0.696381 4.26234 -1
    endloop
  endfacet
  facet normal 0 0 -1
    outer loop
      vertex 0.204422 4.28465 -1
      vertex 25 25 -1
      vertex 0.242081 4.28465 -1
    endloop
  endfacet
  facet normal 0 0 -1
    outer loop
      vertex -25 25 -1
      vertex 0.204422 4.28465 -1
      vertex -0.264755 4.2626 -1
    endloop
  endfacet
  facet normal 0 0 -1
    outer loop
      vertex -25 25 -1
      vertex -0.264755 4.2626 -1
      vertex -0.752548 4.19176 -1
    endloop
  endfacet
  facet normal 0 0 -1
    outer loop
      vertex -25 25 -1
      vertex -0.752548 4.19176 -1
      vertex -1.22066 4.07219 -1
    endloop
  endfacet
  facet normal 0 0 -1
    outer loop
      vertex -25 25 -1
      vertex -1.22066 4.07219 -1
      vertex -1.66855 3.90402 -1
    endloop
  endfacet
  facet normal 0 0 -1
    outer loop
      vertex -25 25 -1
      vertex -1.66855 3.90402 -1
      vertex -2.06264 3.70566 -1
    endloop
  endfacet
  facet normal 0 0 -1
    outer loop
      vertex -25 25 -1
      vertex -2.06264 3.70566 -1
      vertex -2.09564 3.68752 -1
    endloop
  endfacet
  facet normal 0 0 -1
    outer loop
      vertex -25 25 -1
      vertex -2.09564 3.68752 -1
      vertex -2.47095 3.44507 -1
    endloop
  endfacet
  facet normal 0 0 -1
    outer loop
      vertex -25 25 -1
      vertex -2.47095 3.44507 -1
      vertex -2.50143 3.42291 -1
    endloop
  endfacet
  facet normal 0 0 -1
    outer loop
      vertex -25 25 -1
      vertex -4.18173 -0.119736 -1
      vertex -25 -25 -1
    endloop
  endfacet
  facet normal 0 0 -1
    outer loop
      vertex -4.18173 -0.119736 -1
      vertex -25 25 -1
      vertex -4.15457 0.455902 -1
    endloop
  endfacet
  facet normal 0 0 -1
    outer loop
      vertex -4.15457 0.455902 -1
      vertex -25 25 -1
      vertex -4.08018 0.958664 -1
    endloop
  endfacet
  facet normal 0 0 -1
    outer loop
      vertex -4.08018 0.958664 -1
      vertex -25 25 -1
      vertex -4.07314 0.995667 -1
    endloop
  endfacet
  facet normal 0 0 -1
    outer loop
      vertex -4.07314 0.995667 -1
      vertex -25 25 -1
      vertex -3.94914 1.4631 -1
    endloop
  endfacet
  facet normal 0 0 -1
    outer loop
      vertex -3.94914 1.4631 -1
      vertex -25 25 -1
      vertex -3.9375 1.49893 -1
    endloop
  endfacet
  facet normal 0 0 -1
    outer loop
      vertex -3.9375 1.49893 -1
      vertex -25 25 -1
      vertex -3.76393 1.93108 -1
    endloop
  endfacet
  facet normal 0 0 -1
    outer loop
      vertex -3.76393 1.93108 -1
      vertex -25 25 -1
      vertex -3.74788 1.96516 -1
    endloop
  endfacet
  facet normal 0 0 -1
    outer loop
      vertex -3.74788 1.96516 -1
      vertex -25 25 -1
      vertex -3.52472 2.362 -1
    endloop
  endfacet
  facet normal 0 0 -1
    outer loop
      vertex -3.52472 2.362 -1
      vertex -25 25 -1
      vertex -3.50453 2.39381 -1
    endloop
  endfacet
  facet normal 0 0 -1
    outer loop
      vertex 0.204422 4.28465 -1
      vertex -25 25 -1
      vertex 25 25 -1
    endloop
  endfacet
  facet normal 0 0 -1
    outer loop
      vertex -2.85796 3.13638 -1
      vertex -25 25 -1
      vertex -2.50143 3.42291 -1
    endloop
  endfacet
  facet normal 0 0 -1
    outer loop
      vertex -2.88542 3.1106 -1
      vertex -25 25 -1
      vertex -2.85796 3.13638 -1
    endloop
  endfacet
  facet normal 0 0 -1
    outer loop
      vertex -3.20778 2.78438 -1
      vertex -25 25 -1
      vertex -2.88542 3.1106 -1
    endloop
  endfacet
  facet normal 0 0 -1
    outer loop
      vertex -3.23178 2.75536 -1
      vertex -25 25 -1
      vertex -3.20778 2.78438 -1
    endloop
  endfacet
  facet normal 0 0 -1
    outer loop
      vertex -3.50453 2.39381 -1
      vertex -25 25 -1
      vertex -3.23178 2.75536 -1
    endloop
  endfacet
  facet normal 0.0469431 -0.998898 0
    outer loop
      vertex -0.264755 4.2626 -1
      vertex 0.204422 4.28465 -5.24719e-16
      vertex -0.264755 4.2626 -5.22018e-16
    endloop
  endfacet
  facet normal 0.0469431 -0.998898 0
    outer loop
      vertex 0.204422 4.28465 -5.24719e-16
      vertex -0.264755 4.2626 -1
      vertex 0.204422 4.28465 -1
    endloop
  endfacet
  facet normal 0.143731 -0.989617 0
    outer loop
      vertex -0.752548 4.19176 -1
      vertex -0.264755 4.2626 -5.22018e-16
      vertex -0.752548 4.19176 -5.13342e-16
    endloop
  endfacet
  facet normal 0.143731 -0.989617 0
    outer loop
      vertex -0.264755 4.2626 -5.22018e-16
      vertex -0.752548 4.19176 -1
      vertex -0.264755 4.2626 -1
    endloop
  endfacet
  facet normal 0.247482 -0.968893 0
    outer loop
      vertex -1.22066 4.07219 -1
      vertex -0.752548 4.19176 -5.13342e-16
      vertex -1.22066 4.07219 -4.98699e-16
    endloop
  endfacet
  facet normal 0.247482 -0.968893 0
    outer loop
      vertex -0.752548 4.19176 -5.13342e-16
      vertex -1.22066 4.07219 -1
      vertex -0.752548 4.19176 -1
    endloop
  endfacet
  facet normal 0.351504 -0.936186 0
    outer loop
      vertex -1.66855 3.90402 -1
      vertex -1.22066 4.07219 -4.98699e-16
      vertex -1.66855 3.90402 -4.78105e-16
    endloop
  endfacet
  facet normal 0.351504 -0.936186 0
    outer loop
      vertex -1.22066 4.07219 -4.98699e-16
      vertex -1.66855 3.90402 -1
      vertex -1.22066 4.07219 -1
    endloop
  endfacet
  facet normal 0.449605 -0.893227 0
    outer loop
      vertex -2.06264 3.70566 -1
      vertex -1.66855 3.90402 -4.78105e-16
      vertex -2.06264 3.70566 -4.53812e-16
    endloop
  endfacet
  facet normal 0.449605 -0.893227 0
    outer loop
      vertex -1.66855 3.90402 -4.78105e-16
      vertex -2.06264 3.70566 -1
      vertex -1.66855 3.90402 -1
    endloop
  endfacet
  facet normal 0.481717 -0.876327 0
    outer loop
      vertex -2.09564 3.68752 -1
      vertex -2.06264 3.70566 -4.53812e-16
      vertex -2.09564 3.68752 -4.5159e-16
    endloop
  endfacet
  facet normal 0.481717 -0.876327 0
    outer loop
      vertex -2.06264 3.70566 -4.53812e-16
      vertex -2.09564 3.68752 -1
      vertex -2.06264 3.70566 -1
    endloop
  endfacet
  facet normal 0.542624 -0.839976 0
    outer loop
      vertex -2.47095 3.44507 -1
      vertex -2.09564 3.68752 -4.5159e-16
      vertex -2.47095 3.44507 -4.21899e-16
    endloop
  endfacet
  facet normal 0.542624 -0.839976 0
    outer loop
      vertex -2.09564 3.68752 -4.5159e-16
      vertex -2.47095 3.44507 -1
      vertex -2.09564 3.68752 -1
    endloop
  endfacet
  facet normal 0.587883 -0.808946 0
    outer loop
      vertex -2.50143 3.42291 -1
      vertex -2.47095 3.44507 -4.21899e-16
      vertex -2.50143 3.42291 -4.19186e-16
    endloop
  endfacet
  facet normal 0.587883 -0.808946 0
    outer loop
      vertex -2.47095 3.44507 -4.21899e-16
      vertex -2.50143 3.42291 -1
      vertex -2.47095 3.44507 -1
    endloop
  endfacet
  facet normal 0.626443 -0.779467 0
    outer loop
      vertex -2.85796 3.13638 -1
      vertex -2.50143 3.42291 -4.19186e-16
      vertex -2.85796 3.13638 -3.84096e-16
    endloop
  endfacet
  facet normal 0.626443 -0.779467 0
    outer loop
      vertex -2.50143 3.42291 -4.19186e-16
      vertex -2.85796 3.13638 -1
      vertex -2.50143 3.42291 -1
    endloop
  endfacet
  facet normal 0.68448 -0.729032 0
    outer loop
      vertex -2.88542 3.1106 -1
      vertex -2.85796 3.13638 -3.84096e-16
      vertex -2.88542 3.1106 -3.80938e-16
    endloop
  endfacet
  facet normal 0.68448 -0.729032 0
    outer loop
      vertex -2.85796 3.13638 -3.84096e-16
      vertex -2.88542 3.1106 -1
      vertex -2.85796 3.13638 -1
    endloop
  endfacet
  facet normal 0.711303 -0.702885 0
    outer loop
      vertex -3.20778 2.78438 -3.40988e-16
      vertex -2.88542 3.1106 -1
      vertex -2.88542 3.1106 -3.80938e-16
    endloop
  endfacet
  facet normal 0.711303 -0.702885 0
    outer loop
      vertex -2.88542 3.1106 -1
      vertex -3.20778 2.78438 -3.40988e-16
      vertex -3.20778 2.78438 -1
    endloop
  endfacet
  facet normal 0.770607 -0.637311 0
    outer loop
      vertex -3.23178 2.75536 -3.37434e-16
      vertex -3.20778 2.78438 -1
      vertex -3.20778 2.78438 -3.40988e-16
    endloop
  endfacet
  facet normal 0.770607 -0.637311 0
    outer loop
      vertex -3.20778 2.78438 -1
      vertex -3.23178 2.75536 -3.37434e-16
      vertex -3.23178 2.75536 -1
    endloop
  endfacet
  facet normal 0.798307 -0.602251 0
    outer loop
      vertex -3.50453 2.39381 -2.93158e-16
      vertex -3.23178 2.75536 -1
      vertex -3.23178 2.75536 -3.37434e-16
    endloop
  endfacet
  facet normal 0.798307 -0.602251 0
    outer loop
      vertex -3.23178 2.75536 -1
      vertex -3.50453 2.39381 -2.93158e-16
      vertex -3.50453 2.39381 -1
    endloop
  endfacet
  facet normal 0.844361 -0.535774 0
    outer loop
      vertex -3.52472 2.362 -2.89262e-16
      vertex -3.50453 2.39381 -1
      vertex -3.50453 2.39381 -2.93158e-16
    endloop
  endfacet
  facet normal 0.844361 -0.535774 0
    outer loop
      vertex -3.50453 2.39381 -1
      vertex -3.52472 2.362 -2.89262e-16
      vertex -3.52472 2.362 -1
    endloop
  endfacet
  facet normal 0.871632 -0.490161 0
    outer loop
      vertex -3.74788 1.96516 -2.40663e-16
      vertex -3.52472 2.362 -1
      vertex -3.52472 2.362 -2.89262e-16
    endloop
  endfacet
  facet normal 0.871632 -0.490161 0
    outer loop
      vertex -3.52472 2.362 -1
      vertex -3.74788 1.96516 -2.40663e-16
      vertex -3.74788 1.96516 -1
    endloop
  endfacet
  facet normal 0.904709 -0.426031 0
    outer loop
      vertex -3.76393 1.93108 -2.36489e-16
      vertex -3.74788 1.96516 -1
      vertex -3.74788 1.96516 -2.40663e-16
    endloop
  endfacet
  facet normal 0.904709 -0.426031 0
    outer loop
      vertex -3.74788 1.96516 -1
      vertex -3.76393 1.93108 -2.36489e-16
      vertex -3.76393 1.93108 -1
    endloop
  endfacet
  facet normal 0.927949 -0.372707 0
    outer loop
      vertex -3.9375 1.49893 -1.83566e-16
      vertex -3.76393 1.93108 -1
      vertex -3.76393 1.93108 -2.36489e-16
    endloop
  endfacet
  facet normal 0.927949 -0.372707 0
    outer loop
      vertex -3.76393 1.93108 -1
      vertex -3.9375 1.49893 -1.83566e-16
      vertex -3.9375 1.49893 -1
    endloop
  endfacet
  facet normal 0.951046 -0.309049 0
    outer loop
      vertex -3.94914 1.4631 -1.79179e-16
      vertex -3.9375 1.49893 -1
      vertex -3.9375 1.49893 -1.83566e-16
    endloop
  endfacet
  facet normal 0.951046 -0.309049 0
    outer loop
      vertex -3.9375 1.49893 -1
      vertex -3.94914 1.4631 -1.79179e-16
      vertex -3.94914 1.4631 -1
    endloop
  endfacet
  facet normal 0.966572 -0.256394 0
    outer loop
      vertex -4.07314 0.995667 -1.21934e-16
      vertex -3.94914 1.4631 -1
      vertex -3.94914 1.4631 -1.79179e-16
    endloop
  endfacet
  facet normal 0.966572 -0.256394 0
    outer loop
      vertex -3.94914 1.4631 -1
      vertex -4.07314 0.995667 -1.21934e-16
      vertex -4.07314 0.995667 -1
    endloop
  endfacet
  facet normal 0.982331 -0.187149 0
    outer loop
      vertex -4.08018 0.958664 -1.17402e-16
      vertex -4.07314 0.995667 -1
      vertex -4.07314 0.995667 -1.21934e-16
    endloop
  endfacet
  facet normal 0.982331 -0.187149 0
    outer loop
      vertex -4.07314 0.995667 -1
      vertex -4.08018 0.958664 -1.17402e-16
      vertex -4.08018 0.958664 -1
    endloop
  endfacet
  facet normal 0.989231 -0.146363 0
    outer loop
      vertex -4.15457 0.455902 -5.58319e-17
      vertex -4.08018 0.958664 -1
      vertex -4.08018 0.958664 -1.17402e-16
    endloop
  endfacet
  facet normal 0.989231 -0.146363 0
    outer loop
      vertex -4.08018 0.958664 -1
      vertex -4.15457 0.455902 -5.58319e-17
      vertex -4.15457 0.455902 -1
    endloop
  endfacet
  facet normal 0.998889 -0.0471311 0
    outer loop
      vertex -4.18173 -0.119736 1.46634e-17
      vertex -4.15457 0.455902 -1
      vertex -4.15457 0.455902 -5.58319e-17
    endloop
  endfacet
  facet normal 0.998889 -0.0471311 0
    outer loop
      vertex -4.15457 0.455902 -1
      vertex -4.18173 -0.119736 1.46634e-17
      vertex -4.18173 -0.119736 -1
    endloop
  endfacet
  facet normal 0.998638 0.0521772 0
    outer loop
      vertex -4.15567 -0.618546 7.575e-17
      vertex -4.18173 -0.119736 -1
      vertex -4.18173 -0.119736 1.46634e-17
    endloop
  endfacet
  facet normal 0.998638 0.0521772 0
    outer loop
      vertex -4.18173 -0.119736 -1
      vertex -4.15567 -0.618546 7.575e-17
      vertex -4.15567 -0.618546 -1
    endloop
  endfacet
  facet normal 0.987338 0.158632 0
    outer loop
      vertex -4.08458 -1.06102 1.29937e-16
      vertex -4.15567 -0.618546 -1
      vertex -4.15567 -0.618546 7.575e-17
    endloop
  endfacet
  facet normal 0.987338 0.158632 0
    outer loop
      vertex -4.15567 -0.618546 -1
      vertex -4.08458 -1.06102 1.29937e-16
      vertex -4.08458 -1.06102 -1
    endloop
  endfacet
  facet normal 0.982331 0.187149 0
    outer loop
      vertex -4.07753 -1.09802 1.34469e-16
      vertex -4.08458 -1.06102 -1
      vertex -4.08458 -1.06102 1.29937e-16
    endloop
  endfacet
  facet normal 0.982331 0.187149 0
    outer loop
      vertex -4.08458 -1.06102 -1
      vertex -4.07753 -1.09802 1.34469e-16
      vertex -4.07753 -1.09802 -1
    endloop
  endfacet
  facet normal 0.963066 0.269266 0
    outer loop
      vertex -3.95906 -1.52174 1.8636e-16
      vertex -4.07753 -1.09802 -1
      vertex -4.07753 -1.09802 1.34469e-16
    endloop
  endfacet
  facet normal 0.963066 0.269266 0
    outer loop
      vertex -4.07753 -1.09802 -1
      vertex -3.95906 -1.52174 1.8636e-16
      vertex -3.95906 -1.52174 -1
    endloop
  endfacet
  facet normal 0.951046 0.309049 0
    outer loop
      vertex -3.94742 -1.55757 1.90747e-16
      vertex -3.95906 -1.52174 -1
      vertex -3.95906 -1.52174 1.8636e-16
    endloop
  endfacet
  facet normal 0.951046 0.309049 0
    outer loop
      vertex -3.95906 -1.52174 -1
      vertex -3.94742 -1.55757 1.90747e-16
      vertex -3.94742 -1.55757 -1
    endloop
  endfacet
  facet normal 0.925419 0.378946 0
    outer loop
      vertex -3.78157 -1.96259 2.40347e-16
      vertex -3.94742 -1.55757 -1
      vertex -3.94742 -1.55757 1.90747e-16
    endloop
  endfacet
  facet normal 0.925419 0.378946 0
    outer loop
      vertex -3.94742 -1.55757 -1
      vertex -3.78157 -1.96259 2.40347e-16
      vertex -3.78157 -1.96259 -1
    endloop
  endfacet
  facet normal 0.904709 0.426031 0
    outer loop
      vertex -3.76552 -1.99667 2.44522e-16
      vertex -3.78157 -1.96259 -1
      vertex -3.78157 -1.96259 2.40347e-16
    endloop
  endfacet
  facet normal 0.904709 0.426031 0
    outer loop
      vertex -3.78157 -1.96259 -1
      vertex -3.76552 -1.99667 2.44522e-16
      vertex -3.76552 -1.99667 -1
    endloop
  endfacet
  facet normal 0.875451 0.483307 0
    outer loop
      vertex -3.55228 -2.38293 2.91825e-16
      vertex -3.76552 -1.99667 -1
      vertex -3.76552 -1.99667 2.44522e-16
    endloop
  endfacet
  facet normal 0.875451 0.483307 0
    outer loop
      vertex -3.76552 -1.99667 -1
      vertex -3.55228 -2.38293 2.91825e-16
      vertex -3.55228 -2.38293 -1
    endloop
  endfacet
  facet normal 0.844361 0.535774 0
    outer loop
      vertex -3.53209 -2.41475 2.95721e-16
      vertex -3.55228 -2.38293 -1
      vertex -3.55228 -2.38293 2.91825e-16
    endloop
  endfacet
  facet normal 0.844361 0.535774 0
    outer loop
      vertex -3.55228 -2.38293 -1
      vertex -3.53209 -2.41475 2.95721e-16
      vertex -3.53209 -2.41475 -1
    endloop
  endfacet
  facet normal 0.815704 0.57847 0
    outer loop
      vertex -3.27145 -2.78227 3.4073e-16
      vertex -3.53209 -2.41475 -1
      vertex -3.53209 -2.41475 2.95721e-16
    endloop
  endfacet
  facet normal 0.815704 0.57847 0
    outer loop
      vertex -3.53209 -2.41475 -1
      vertex -3.27145 -2.78227 3.4073e-16
      vertex -3.27145 -2.78227 -1
    endloop
  endfacet
  facet normal 0.770607 0.637311 0
    outer loop
      vertex -3.24745 -2.81129 3.44284e-16
      vertex -3.27145 -2.78227 -1
      vertex -3.27145 -2.78227 3.4073e-16
    endloop
  endfacet
  facet normal 0.770607 0.637311 0
    outer loop
      vertex -3.27145 -2.78227 -1
      vertex -3.24745 -2.81129 3.44284e-16
      vertex -3.24745 -2.81129 -1
    endloop
  endfacet
  facet normal 0.749556 0.66194 0
    outer loop
      vertex -2.93942 -3.1601 3.87e-16
      vertex -3.24745 -2.81129 -1
      vertex -3.24745 -2.81129 3.44284e-16
    endloop
  endfacet
  facet normal 0.749556 0.66194 0
    outer loop
      vertex -3.24745 -2.81129 -1
      vertex -2.93942 -3.1601 3.87e-16
      vertex -2.93942 -3.1601 -1
    endloop
  endfacet
  facet normal 0.677481 0.73554 -0
    outer loop
      vertex -2.56923 -3.50107 -1
      vertex -2.93942 -3.1601 3.87e-16
      vertex -2.56923 -3.50107 4.28757e-16
    endloop
  endfacet
  facet normal 0.677481 0.73554 0
    outer loop
      vertex -2.93942 -3.1601 3.87e-16
      vertex -2.56923 -3.50107 -1
      vertex -2.93942 -3.1601 -1
    endloop
  endfacet
  facet normal 0.59002 0.807389 -0
    outer loop
      vertex -2.17397 -3.78992 -1
      vertex -2.56923 -3.50107 4.28757e-16
      vertex -2.17397 -3.78992 4.64131e-16
    endloop
  endfacet
  facet normal 0.59002 0.807389 0
    outer loop
      vertex -2.56923 -3.50107 4.28757e-16
      vertex -2.17397 -3.78992 -1
      vertex -2.56923 -3.50107 -1
    endloop
  endfacet
  facet normal 0.490572 0.8714 -0
    outer loop
      vertex -1.75415 -4.02626 -1
      vertex -2.17397 -3.78992 4.64131e-16
      vertex -1.75415 -4.02626 4.93075e-16
    endloop
  endfacet
  facet normal 0.490572 0.8714 0
    outer loop
      vertex -2.17397 -3.78992 4.64131e-16
      vertex -1.75415 -4.02626 -1
      vertex -2.17397 -3.78992 -1
    endloop
  endfacet
  facet normal 0.382198 0.92408 -0
    outer loop
      vertex -1.31026 -4.20985 -1
      vertex -1.75415 -4.02626 4.93075e-16
      vertex -1.31026 -4.20985 5.15558e-16
    endloop
  endfacet
  facet normal 0.382198 0.92408 0
    outer loop
      vertex -1.75415 -4.02626 4.93075e-16
      vertex -1.31026 -4.20985 -1
      vertex -1.75415 -4.02626 -1
    endloop
  endfacet
  facet normal 0.269085 0.963116 -0
    outer loop
      vertex -0.842865 -4.34044 -1
      vertex -1.31026 -4.20985 5.15558e-16
      vertex -0.842865 -4.34044 5.3155e-16
    endloop
  endfacet
  facet normal 0.269085 0.963116 0
    outer loop
      vertex -1.31026 -4.20985 5.15558e-16
      vertex -0.842865 -4.34044 -1
      vertex -1.31026 -4.20985 -1
    endloop
  endfacet
  facet normal 0.158565 0.987349 -0
    outer loop
      vertex -0.389938 -4.41318 -1
      vertex -0.842865 -4.34044 5.3155e-16
      vertex -0.389938 -4.41318 5.40458e-16
    endloop
  endfacet
  facet normal 0.158565 0.987349 0
    outer loop
      vertex -0.842865 -4.34044 5.3155e-16
      vertex -0.389938 -4.41318 -1
      vertex -0.842865 -4.34044 -1
    endloop
  endfacet
  facet normal 0.12553 0.99209 -0
    outer loop
      vertex -0.352554 -4.41791 -1
      vertex -0.389938 -4.41318 5.40458e-16
      vertex -0.352554 -4.41791 5.41038e-16
    endloop
  endfacet
  facet normal 0.12553 0.99209 0
    outer loop
      vertex -0.389938 -4.41318 5.40458e-16
      vertex -0.352554 -4.41791 -1
      vertex -0.389938 -4.41318 -1
    endloop
  endfacet
  facet normal 0.0509809 0.9987 -0
    outer loop
      vertex 0.122421 -4.44215 -1
      vertex -0.352554 -4.41791 5.41038e-16
      vertex 0.122421 -4.44215 5.44007e-16
    endloop
  endfacet
  facet normal 0.0509809 0.9987 0
    outer loop
      vertex -0.352554 -4.41791 5.41038e-16
      vertex 0.122421 -4.44215 -1
      vertex -0.352554 -4.41791 -1
    endloop
  endfacet
  facet normal 0 1 -0
    outer loop
      vertex 0.16008 -4.44215 -1
      vertex 0.122421 -4.44215 5.44007e-16
      vertex 0.16008 -4.44215 5.44007e-16
    endloop
  endfacet
  facet normal 0 1 0
    outer loop
      vertex 0.122421 -4.44215 5.44007e-16
      vertex 0.16008 -4.44215 -1
      vertex 0.122421 -4.44215 -1
    endloop
  endfacet
  facet normal -0.0503224 0.998733 0
    outer loop
      vertex 0.636139 -4.41817 -1
      vertex 0.16008 -4.44215 5.44007e-16
      vertex 0.636139 -4.41817 5.41069e-16
    endloop
  endfacet
  facet normal -0.0503224 0.998733 0
    outer loop
      vertex 0.16008 -4.44215 5.44007e-16
      vertex 0.636139 -4.41817 -1
      vertex 0.16008 -4.44215 -1
    endloop
  endfacet
  facet normal -0.12553 0.99209 0
    outer loop
      vertex 0.673523 -4.41344 -1
      vertex 0.636139 -4.41817 5.41069e-16
      vertex 0.673523 -4.41344 5.4049e-16
    endloop
  endfacet
  facet normal -0.12553 0.99209 0
    outer loop
      vertex 0.636139 -4.41817 5.41069e-16
      vertex 0.673523 -4.41344 -1
      vertex 0.636139 -4.41817 -1
    endloop
  endfacet
  facet normal -0.155944 0.987766 0
    outer loop
      vertex 1.12914 -4.34151 -1
      vertex 0.673523 -4.41344 5.4049e-16
      vertex 1.12914 -4.34151 5.31681e-16
    endloop
  endfacet
  facet normal -0.155944 0.987766 0
    outer loop
      vertex 0.673523 -4.41344 5.4049e-16
      vertex 1.12914 -4.34151 -1
      vertex 0.673523 -4.41344 -1
    endloop
  endfacet
  facet normal -0.264337 0.96443 0
    outer loop
      vertex 1.60078 -4.21223 -1
      vertex 1.12914 -4.34151 5.31681e-16
      vertex 1.60078 -4.21223 5.1585e-16
    endloop
  endfacet
  facet normal -0.264337 0.96443 0
    outer loop
      vertex 1.12914 -4.34151 5.31681e-16
      vertex 1.60078 -4.21223 -1
      vertex 1.12914 -4.34151 -1
    endloop
  endfacet
  facet normal -0.374653 0.927165 0
    outer loop
      vertex 2.05052 -4.0305 -1
      vertex 1.60078 -4.21223 5.1585e-16
      vertex 2.05052 -4.0305 4.93594e-16
    endloop
  endfacet
  facet normal -0.374653 0.927165 0
    outer loop
      vertex 1.60078 -4.21223 5.1585e-16
      vertex 2.05052 -4.0305 -1
      vertex 1.60078 -4.21223 -1
    endloop
  endfacet
  facet normal -0.480256 0.877128 0
    outer loop
      vertex 2.4778 -3.79655 -1
      vertex 2.05052 -4.0305 4.93594e-16
      vertex 2.4778 -3.79655 4.64944e-16
    endloop
  endfacet
  facet normal -0.480256 0.877128 0
    outer loop
      vertex 2.05052 -4.0305 4.93594e-16
      vertex 2.4778 -3.79655 -1
      vertex 2.05052 -4.0305 -1
    endloop
  endfacet
  facet normal -0.577422 0.816446 0
    outer loop
      vertex 2.8821 -3.51062 -1
      vertex 2.4778 -3.79655 4.64944e-16
      vertex 2.8821 -3.51062 4.29927e-16
    endloop
  endfacet
  facet normal -0.577422 0.816446 0
    outer loop
      vertex 2.4778 -3.79655 4.64944e-16
      vertex 2.8821 -3.51062 -1
      vertex 2.4778 -3.79655 -1
    endloop
  endfacet
  facet normal -0.661541 0.749909 0
    outer loop
      vertex 3.23547 -3.19888 -1
      vertex 2.8821 -3.51062 4.29927e-16
      vertex 3.23547 -3.19888 3.9175e-16
    endloop
  endfacet
  facet normal -0.661541 0.749909 0
    outer loop
      vertex 2.8821 -3.51062 4.29927e-16
      vertex 3.23547 -3.19888 -1
      vertex 2.8821 -3.51062 -1
    endloop
  endfacet
  facet normal -0.68448 0.729032 0
    outer loop
      vertex 3.26294 -3.1731 -1
      vertex 3.23547 -3.19888 3.9175e-16
      vertex 3.26294 -3.1731 3.88592e-16
    endloop
  endfacet
  facet normal -0.68448 0.729032 0
    outer loop
      vertex 3.23547 -3.19888 3.9175e-16
      vertex 3.26294 -3.1731 -1
      vertex 3.23547 -3.19888 -1
    endloop
  endfacet
  facet normal -0.734959 0.678112 0
    outer loop
      vertex 3.26294 -3.1731 -1
      vertex 3.58183 -2.82747 3.46265e-16
      vertex 3.58183 -2.82747 -1
    endloop
  endfacet
  facet normal -0.734959 0.678112 0
    outer loop
      vertex 3.58183 -2.82747 3.46265e-16
      vertex 3.26294 -3.1731 -1
      vertex 3.26294 -3.1731 3.88592e-16
    endloop
  endfacet
  facet normal -0.770607 0.637311 0
    outer loop
      vertex 3.58183 -2.82747 -1
      vertex 3.60583 -2.79845 3.42711e-16
      vertex 3.60583 -2.79845 -1
    endloop
  endfacet
  facet normal -0.770607 0.637311 0
    outer loop
      vertex 3.60583 -2.79845 3.42711e-16
      vertex 3.58183 -2.82747 -1
      vertex 3.58183 -2.82747 3.46265e-16
    endloop
  endfacet
  facet normal -0.804929 0.593371 0
    outer loop
      vertex 3.60583 -2.79845 -1
      vertex 3.87567 -2.4324 2.97884e-16
      vertex 3.87567 -2.4324 -1
    endloop
  endfacet
  facet normal -0.804929 0.593371 0
    outer loop
      vertex 3.87567 -2.4324 2.97884e-16
      vertex 3.60583 -2.79845 -1
      vertex 3.60583 -2.79845 3.42711e-16
    endloop
  endfacet
  facet normal -0.844361 0.535774 0
    outer loop
      vertex 3.87567 -2.4324 -1
      vertex 3.89586 -2.40059 2.93987e-16
      vertex 3.89586 -2.40059 -1
    endloop
  endfacet
  facet normal -0.844361 0.535774 0
    outer loop
      vertex 3.89586 -2.40059 2.93987e-16
      vertex 3.87567 -2.4324 -1
      vertex 3.87567 -2.4324 2.97884e-16
    endloop
  endfacet
  facet normal -0.868296 0.496047 0
    outer loop
      vertex 3.89586 -2.40059 -1
      vertex 4.11664 -2.01413 2.4666e-16
      vertex 4.11664 -2.01413 -1
    endloop
  endfacet
  facet normal -0.868296 0.496047 0
    outer loop
      vertex 4.11664 -2.01413 2.4666e-16
      vertex 3.89586 -2.40059 -1
      vertex 3.89586 -2.40059 2.93987e-16
    endloop
  endfacet
  facet normal -0.904709 0.426031 0
    outer loop
      vertex 4.11664 -2.01413 -1
      vertex 4.13269 -1.98004 2.42485e-16
      vertex 4.13269 -1.98004 -1
    endloop
  endfacet
  facet normal -0.904709 0.426031 0
    outer loop
      vertex 4.13269 -1.98004 2.42485e-16
      vertex 4.11664 -2.01413 -1
      vertex 4.11664 -2.01413 2.4666e-16
    endloop
  endfacet
  facet normal -0.921308 0.388834 0
    outer loop
      vertex 4.13269 -1.98004 -1
      vertex 4.3044 -1.5732 1.92661e-16
      vertex 4.3044 -1.5732 -1
    endloop
  endfacet
  facet normal -0.921308 0.388834 0
    outer loop
      vertex 4.3044 -1.5732 1.92661e-16
      vertex 4.13269 -1.98004 -1
      vertex 4.13269 -1.98004 2.42485e-16
    endloop
  endfacet
  facet normal -0.951046 0.309049 0
    outer loop
      vertex 4.3044 -1.5732 -1
      vertex 4.31604 -1.53737 1.88273e-16
      vertex 4.31604 -1.53737 -1
    endloop
  endfacet
  facet normal -0.951046 0.309049 0
    outer loop
      vertex 4.31604 -1.53737 1.88273e-16
      vertex 4.3044 -1.5732 -1
      vertex 4.3044 -1.5732 1.92661e-16
    endloop
  endfacet
  facet normal -0.961184 0.275909 0
    outer loop
      vertex 4.31604 -1.53737 -1
      vertex 4.43869 -1.11009 1.35947e-16
      vertex 4.43869 -1.11009 -1
    endloop
  endfacet
  facet normal -0.961184 0.275909 0
    outer loop
      vertex 4.43869 -1.11009 1.35947e-16
      vertex 4.31604 -1.53737 -1
      vertex 4.31604 -1.53737 1.88273e-16
    endloop
  endfacet
  facet normal -0.986438 0.164132 0
    outer loop
      vertex 4.43869 -1.11009 -1
      vertex 4.51933 -0.625427 7.65927e-17
      vertex 4.51933 -0.625427 -1
    endloop
  endfacet
  facet normal -0.986438 0.164132 0
    outer loop
      vertex 4.51933 -0.625427 7.65927e-17
      vertex 4.43869 -1.11009 -1
      vertex 4.43869 -1.11009 1.35947e-16
    endloop
  endfacet
  facet normal -0.998588 0.0531218 0
    outer loop
      vertex 4.51933 -0.625427 -1
      vertex 4.54623 -0.119736 1.46634e-17
      vertex 4.54623 -0.119736 -1
    endloop
  endfacet
  facet normal -0.998588 0.0531218 0
    outer loop
      vertex 4.54623 -0.119736 1.46634e-17
      vertex 4.51933 -0.625427 -1
      vertex 4.51933 -0.625427 7.65927e-17
    endloop
  endfacet
  facet normal -0.998883 -0.0472456 0
    outer loop
      vertex 4.54623 -0.119736 -1
      vertex 4.51933 0.44902 -5.49891e-17
      vertex 4.51933 0.44902 -1
    endloop
  endfacet
  facet normal -0.998883 -0.0472456 0
    outer loop
      vertex 4.51933 0.44902 -5.49891e-17
      vertex 4.54623 -0.119736 -1
      vertex 4.54623 -0.119736 1.46634e-17
    endloop
  endfacet
  facet normal -0.989238 -0.146317 0
    outer loop
      vertex 4.51933 0.44902 -1
      vertex 4.44574 0.946579 -1.15922e-16
      vertex 4.44574 0.946579 -1
    endloop
  endfacet
  facet normal -0.989238 -0.146317 0
    outer loop
      vertex 4.44574 0.946579 -1.15922e-16
      vertex 4.51933 0.44902 -1
      vertex 4.51933 0.44902 -5.49891e-17
    endloop
  endfacet
  facet normal -0.982331 -0.187149 0
    outer loop
      vertex 4.44574 0.946579 -1
      vertex 4.43869 0.983582 -1.20454e-16
      vertex 4.43869 0.983582 -1
    endloop
  endfacet
  facet normal -0.982331 -0.187149 0
    outer loop
      vertex 4.43869 0.983582 -1.20454e-16
      vertex 4.44574 0.946579 -1
      vertex 4.44574 0.946579 -1.15922e-16
    endloop
  endfacet
  facet normal -0.966783 -0.2556 0
    outer loop
      vertex 4.43869 0.983582 -1
      vertex 4.31604 1.44749 -1.77267e-16
      vertex 4.31604 1.44749 -1
    endloop
  endfacet
  facet normal -0.966783 -0.2556 0
    outer loop
      vertex 4.31604 1.44749 -1.77267e-16
      vertex 4.43869 0.983582 -1
      vertex 4.43869 0.983582 -1.20454e-16
    endloop
  endfacet
  facet normal -0.951046 -0.309049 0
    outer loop
      vertex 4.31604 1.44749 -1
      vertex 4.3044 1.48332 -1.81655e-16
      vertex 4.3044 1.48332 -1
    endloop
  endfacet
  facet normal -0.951046 -0.309049 0
    outer loop
      vertex 4.3044 1.48332 -1.81655e-16
      vertex 4.31604 1.44749 -1
      vertex 4.31604 1.44749 -1.77267e-16
    endloop
  endfacet
  facet normal -0.928778 -0.370635 0
    outer loop
      vertex 4.3044 1.48332 -1
      vertex 4.13269 1.9136 -2.34349e-16
      vertex 4.13269 1.9136 -1
    endloop
  endfacet
  facet normal -0.928778 -0.370635 0
    outer loop
      vertex 4.13269 1.9136 -2.34349e-16
      vertex 4.3044 1.48332 -1
      vertex 4.3044 1.48332 -1.81655e-16
    endloop
  endfacet
  facet normal -0.904709 -0.426031 0
    outer loop
      vertex 4.13269 1.9136 -1
      vertex 4.11664 1.94769 -2.38524e-16
      vertex 4.11664 1.94769 -1
    endloop
  endfacet
  facet normal -0.904709 -0.426031 0
    outer loop
      vertex 4.11664 1.94769 -2.38524e-16
      vertex 4.13269 1.9136 -1
      vertex 4.13269 1.9136 -2.34349e-16
    endloop
  endfacet
  facet normal -0.873767 -0.486345 0
    outer loop
      vertex 4.11664 1.94769 -1
      vertex 3.89586 2.34435 -2.87099e-16
      vertex 3.89586 2.34435 -1
    endloop
  endfacet
  facet normal -0.873767 -0.486345 0
    outer loop
      vertex 3.89586 2.34435 -2.87099e-16
      vertex 4.11664 1.94769 -1
      vertex 4.11664 1.94769 -2.38524e-16
    endloop
  endfacet
  facet normal -0.844361 -0.535774 0
    outer loop
      vertex 3.89586 2.34435 -1
      vertex 3.87567 2.37616 -2.90996e-16
      vertex 3.87567 2.37616 -1
    endloop
  endfacet
  facet normal -0.844361 -0.535774 0
    outer loop
      vertex 3.87567 2.37616 -2.90996e-16
      vertex 3.89586 2.34435 -1
      vertex 3.89586 2.34435 -2.87099e-16
    endloop
  endfacet
  facet normal -0.802571 -0.596556 0
    outer loop
      vertex 3.87567 2.37616 -1
      vertex 3.60583 2.73918 -3.35453e-16
      vertex 3.60583 2.73918 -1
    endloop
  endfacet
  facet normal -0.802571 -0.596556 0
    outer loop
      vertex 3.60583 2.73918 -3.35453e-16
      vertex 3.87567 2.37616 -1
      vertex 3.87567 2.37616 -2.90996e-16
    endloop
  endfacet
  facet normal -0.770607 -0.637311 0
    outer loop
      vertex 3.60583 2.73918 -1
      vertex 3.58183 2.7682 -3.39007e-16
      vertex 3.58183 2.7682 -1
    endloop
  endfacet
  facet normal -0.770607 -0.637311 0
    outer loop
      vertex 3.58183 2.7682 -3.39007e-16
      vertex 3.60583 2.73918 -1
      vertex 3.60583 2.73918 -3.35453e-16
    endloop
  endfacet
  facet normal -0.718463 -0.695565 0
    outer loop
      vertex 3.58183 2.7682 -1
      vertex 3.26294 3.0976 -3.79346e-16
      vertex 3.26294 3.0976 -1
    endloop
  endfacet
  facet normal -0.718463 -0.695565 0
    outer loop
      vertex 3.26294 3.0976 -3.79346e-16
      vertex 3.58183 2.7682 -1
      vertex 3.58183 2.7682 -3.39007e-16
    endloop
  endfacet
  facet normal -0.68448 -0.729032 0
    outer loop
      vertex 3.23547 3.12338 -1
      vertex 3.26294 3.0976 -3.79346e-16
      vertex 3.23547 3.12338 -3.82504e-16
    endloop
  endfacet
  facet normal -0.68448 -0.729032 -0
    outer loop
      vertex 3.26294 3.0976 -3.79346e-16
      vertex 3.23547 3.12338 -1
      vertex 3.26294 3.0976 -1
    endloop
  endfacet
  facet normal -0.636155 -0.771561 0
    outer loop
      vertex 2.88377 3.41336 -1
      vertex 3.23547 3.12338 -3.82504e-16
      vertex 2.88377 3.41336 -4.18016e-16
    endloop
  endfacet
  facet normal -0.636155 -0.771561 -0
    outer loop
      vertex 3.23547 3.12338 -3.82504e-16
      vertex 2.88377 3.41336 -1
      vertex 3.23547 3.12338 -1
    endloop
  endfacet
  facet normal -0.587883 -0.808946 0
    outer loop
      vertex 2.85329 3.43552 -1
      vertex 2.88377 3.41336 -4.18016e-16
      vertex 2.85329 3.43552 -4.20729e-16
    endloop
  endfacet
  facet normal -0.587883 -0.808946 -0
    outer loop
      vertex 2.88377 3.41336 -4.18016e-16
      vertex 2.85329 3.43552 -1
      vertex 2.88377 3.41336 -1
    endloop
  endfacet
  facet normal -0.553921 -0.832569 0
    outer loop
      vertex 2.4845 3.68088 -1
      vertex 2.85329 3.43552 -4.20729e-16
      vertex 2.4845 3.68088 -4.50777e-16
    endloop
  endfacet
  facet normal -0.553921 -0.832569 -0
    outer loop
      vertex 2.85329 3.43552 -4.20729e-16
      vertex 2.4845 3.68088 -1
      vertex 2.85329 3.43552 -1
    endloop
  endfacet
  facet normal -0.463129 -0.886291 0
    outer loop
      vertex 2.06558 3.89978 -1
      vertex 2.4845 3.68088 -4.50777e-16
      vertex 2.06558 3.89978 -4.77585e-16
    endloop
  endfacet
  facet normal -0.463129 -0.886291 -0
    outer loop
      vertex 2.4845 3.68088 -4.50777e-16
      vertex 2.06558 3.89978 -1
      vertex 2.4845 3.68088 -1
    endloop
  endfacet
  facet normal -0.36183 -0.932244 0
    outer loop
      vertex 1.62755 4.06979 -1
      vertex 2.06558 3.89978 -4.77585e-16
      vertex 1.62755 4.06979 -4.98406e-16
    endloop
  endfacet
  facet normal -0.36183 -0.932244 -0
    outer loop
      vertex 2.06558 3.89978 -4.77585e-16
      vertex 1.62755 4.06979 -1
      vertex 2.06558 3.89978 -1
    endloop
  endfacet
  facet normal -0.255967 -0.966685 0
    outer loop
      vertex 1.17097 4.19069 -1
      vertex 1.62755 4.06979 -4.98406e-16
      vertex 1.17097 4.19069 -5.13211e-16
    endloop
  endfacet
  facet normal -0.255967 -0.966685 -0
    outer loop
      vertex 1.62755 4.06979 -4.98406e-16
      vertex 1.17097 4.19069 -1
      vertex 1.62755 4.06979 -1
    endloop
  endfacet
  facet normal -0.14929 -0.988793 0
    outer loop
      vertex 0.696381 4.26234 -1
      vertex 1.17097 4.19069 -5.13211e-16
      vertex 0.696381 4.26234 -5.21987e-16
    endloop
  endfacet
  facet normal -0.14929 -0.988793 -0
    outer loop
      vertex 1.17097 4.19069 -5.13211e-16
      vertex 0.696381 4.26234 -1
      vertex 1.17097 4.19069 -1
    endloop
  endfacet
  facet normal -0.0490458 -0.998797 0
    outer loop
      vertex 0.242081 4.28465 -1
      vertex 0.696381 4.26234 -5.21987e-16
      vertex 0.242081 4.28465 -5.24719e-16
    endloop
  endfacet
  facet normal -0.0490458 -0.998797 -0
    outer loop
      vertex 0.696381 4.26234 -5.21987e-16
      vertex 0.242081 4.28465 -1
      vertex 0.696381 4.26234 -1
    endloop
  endfacet
  facet normal 0 -1 0
    outer loop
      vertex 0.204422 4.28465 -1
      vertex 0.242081 4.28465 -5.24719e-16
      vertex 0.204422 4.28465 -5.24719e-16
    endloop
  endfacet
  facet normal 0 -1 -0
    outer loop
      vertex 0.242081 4.28465 -5.24719e-16
      vertex 0.204422 4.28465 -1
      vertex 0.242081 4.28465 -1
    endloop
  endfacet
  facet normal -3.8147e-08 3.8147e-08 1
    outer loop
      vertex 25 25 23.2
      vertex 24 24 23.2
      vertex 25 -25 23.2
    endloop
  endfacet
  facet normal 0 0 1
    outer loop
      vertex 25 25 23.2
      vertex -24 24 23.2
      vertex 24 24 23.2
    endloop
  endfacet
  facet normal 3.97364e-08 3.97364e-08 1
    outer loop
      vertex -24 24 23.2
      vertex -25 25 23.2
      vertex -24 -24 23.2
    endloop
  endfacet
  facet normal -0 0 1
    outer loop
      vertex -25 25 23.2
      vertex -24 24 23.2
      vertex 25 25 23.2
    endloop
  endfacet
  facet normal 3.97364e-08 3.97364e-08 1
    outer loop
      vertex 24 -24 23.2
      vertex 25 -25 23.2
      vertex 24 24 23.2
    endloop
  endfacet
  facet normal -0 0 1
    outer loop
      vertex -24 -24 23.2
      vertex 25 -25 23.2
      vertex 24 -24 23.2
    endloop
  endfacet
  facet normal 0 0 1
    outer loop
      vertex -24 -24 23.2
      vertex -25 -25 23.2
      vertex 25 -25 23.2
    endloop
  endfacet
  facet normal -3.8147e-08 3.8147e-08 1
    outer loop
      vertex -25 -25 23.2
      vertex -24 -24 23.2
      vertex -25 25 23.2
    endloop
  endfacet
endsolid OpenSCAD_Model
