solid OpenSCAD_Model
  facet normal -1 0 0
    outer loop
      vertex -22.5 -22.5 0.5
      vertex -22.5 22.5 1.5
      vertex -22.5 22.5 0.5
    endloop
  endfacet
  facet normal -1 -0 0
    outer loop
      vertex -22.5 22.5 1.5
      vertex -22.5 -22.5 0.5
      vertex -22.5 -22.5 1.5
    endloop
  endfacet
  facet normal 0 0 1
    outer loop
      vertex 16.4556 7.08365 1.5
      vertex 22.5 22.5 1.5
      vertex 16.5317 8.7585 1.5
    endloop
  endfacet
  facet normal 0 0 1
    outer loop
      vertex 22.5 22.5 1.5
      vertex 16.513 9.56003 1.5
      vertex 16.5317 8.7585 1.5
    endloop
  endfacet
  facet normal 0 0 1
    outer loop
      vertex 22.5 22.5 1.5
      vertex 16.4568 10.3383 1.5
      vertex 16.513 9.56003 1.5
    endloop
  endfacet
  facet normal 0 0 1
    outer loop
      vertex 22.5 22.5 1.5
      vertex 16.3631 11.0934 1.5
      vertex 16.4568 10.3383 1.5
    endloop
  endfacet
  facet normal 0 0 1
    outer loop
      vertex 22.5 22.5 1.5
      vertex 16.2319 11.8253 1.5
      vertex 16.3631 11.0934 1.5
    endloop
  endfacet
  facet normal 0 0 1
    outer loop
      vertex 22.5 22.5 1.5
      vertex 16.0633 12.5339 1.5
      vertex 16.2319 11.8253 1.5
    endloop
  endfacet
  facet normal 0 0 1
    outer loop
      vertex 22.5 22.5 1.5
      vertex 15.8573 13.2193 1.5
      vertex 16.0633 12.5339 1.5
    endloop
  endfacet
  facet normal 0 0 1
    outer loop
      vertex 22.5 22.5 1.5
      vertex 15.6137 13.8815 1.5
      vertex 15.8573 13.2193 1.5
    endloop
  endfacet
  facet normal 0 0 1
    outer loop
      vertex 22.5 22.5 1.5
      vertex 15.3341 14.5177 1.5
      vertex 15.6137 13.8815 1.5
    endloop
  endfacet
  facet normal 0 0 1
    outer loop
      vertex 22.5 22.5 1.5
      vertex 15.0197 15.1251 1.5
      vertex 15.3341 14.5177 1.5
    endloop
  endfacet
  facet normal 0 0 1
    outer loop
      vertex 22.5 22.5 1.5
      vertex 14.6705 15.7037 1.5
      vertex 15.0197 15.1251 1.5
    endloop
  endfacet
  facet normal 0 0 1
    outer loop
      vertex 22.5 22.5 1.5
      vertex 14.2867 16.2536 1.5
      vertex 14.6705 15.7037 1.5
    endloop
  endfacet
  facet normal 0 0 1
    outer loop
      vertex 22.5 22.5 1.5
      vertex 13.8681 16.7747 1.5
      vertex 14.2867 16.2536 1.5
    endloop
  endfacet
  facet normal 0 0 1
    outer loop
      vertex 22.5 22.5 1.5
      vertex 13.4148 17.267 1.5
      vertex 13.8681 16.7747 1.5
    endloop
  endfacet
  facet normal 0 0 1
    outer loop
      vertex 22.5 22.5 1.5
      vertex 12.9267 17.7305 1.5
      vertex 13.4148 17.267 1.5
    endloop
  endfacet
  facet normal 0 0 1
    outer loop
      vertex 22.5 22.5 1.5
      vertex 12.4078 18.1614 1.5
      vertex 12.9267 17.7305 1.5
    endloop
  endfacet
  facet normal 0 0 1
    outer loop
      vertex 22.5 22.5 1.5
      vertex 11.8619 18.5558 1.5
      vertex 12.4078 18.1614 1.5
    endloop
  endfacet
  facet normal 0 0 1
    outer loop
      vertex 22.5 22.5 1.5
      vertex 11.289 18.9137 1.5
      vertex 11.8619 18.5558 1.5
    endloop
  endfacet
  facet normal 0 0 1
    outer loop
      vertex 22.5 22.5 1.5
      vertex 10.6892 19.2351 1.5
      vertex 11.289 18.9137 1.5
    endloop
  endfacet
  facet normal 0 0 1
    outer loop
      vertex 22.5 22.5 1.5
      vertex 10.0623 19.5201 1.5
      vertex 10.6892 19.2351 1.5
    endloop
  endfacet
  facet normal 0 0 1
    outer loop
      vertex 22.5 22.5 1.5
      vertex 9.40851 19.7685 1.5
      vertex 10.0623 19.5201 1.5
    endloop
  endfacet
  facet normal 0 0 1
    outer loop
      vertex 22.5 22.5 1.5
      vertex 8.72771 19.9805 1.5
      vertex 9.40851 19.7685 1.5
    endloop
  endfacet
  facet normal 0 0 1
    outer loop
      vertex 22.5 22.5 1.5
      vertex 7.97997 20.1665 1.5
      vertex 8.72771 19.9805 1.5
    endloop
  endfacet
  facet normal 0 0 1
    outer loop
      vertex 22.5 22.5 1.5
      vertex 7.1459 20.3238 1.5
      vertex 7.97997 20.1665 1.5
    endloop
  endfacet
  facet normal 0 0 1
    outer loop
      vertex 22.5 22.5 1.5
      vertex 6.22552 20.4526 1.5
      vertex 7.1459 20.3238 1.5
    endloop
  endfacet
  facet normal 0 0 1
    outer loop
      vertex 22.5 22.5 1.5
      vertex 5.21881 20.5527 1.5
      vertex 6.22552 20.4526 1.5
    endloop
  endfacet
  facet normal 0 0 1
    outer loop
      vertex 22.5 22.5 1.5
      vertex 4.12576 20.6243 1.5
      vertex 5.21881 20.5527 1.5
    endloop
  endfacet
  facet normal 0 0 1
    outer loop
      vertex 22.5 22.5 1.5
      vertex 2.9464 20.6672 1.5
      vertex 4.12576 20.6243 1.5
    endloop
  endfacet
  facet normal 0 0 1
    outer loop
      vertex 22.5 22.5 1.5
      vertex 1.68071 20.6815 1.5
      vertex 2.9464 20.6672 1.5
    endloop
  endfacet
  facet normal -0 0 1
    outer loop
      vertex -22.5 22.5 1.5
      vertex 1.68071 20.6815 1.5
      vertex 22.5 22.5 1.5
    endloop
  endfacet
  facet normal 0 0 1
    outer loop
      vertex 1.68071 20.6815 1.5
      vertex -22.5 22.5 1.5
      vertex -8.64528 20.6815 1.5
    endloop
  endfacet
  facet normal 0 0 1
    outer loop
      vertex -13.7403 15.7445 1.5
      vertex -22.5 22.5 1.5
      vertex -13.7403 -14.9105 1.5
    endloop
  endfacet
  facet normal 0 0 1
    outer loop
      vertex -13.7154 16.4729 1.5
      vertex -22.5 22.5 1.5
      vertex -13.7403 15.7445 1.5
    endloop
  endfacet
  facet normal 0 0 1
    outer loop
      vertex -13.6408 17.1393 1.5
      vertex -22.5 22.5 1.5
      vertex -13.7154 16.4729 1.5
    endloop
  endfacet
  facet normal 0 0 1
    outer loop
      vertex -13.5164 17.7438 1.5
      vertex -22.5 22.5 1.5
      vertex -13.6408 17.1393 1.5
    endloop
  endfacet
  facet normal 0 0 1
    outer loop
      vertex -13.3422 18.2862 1.5
      vertex -22.5 22.5 1.5
      vertex -13.5164 17.7438 1.5
    endloop
  endfacet
  facet normal 0 0 1
    outer loop
      vertex -13.1183 18.7666 1.5
      vertex -22.5 22.5 1.5
      vertex -13.3422 18.2862 1.5
    endloop
  endfacet
  facet normal 0 0 1
    outer loop
      vertex -12.8447 19.1851 1.5
      vertex -22.5 22.5 1.5
      vertex -13.1183 18.7666 1.5
    endloop
  endfacet
  facet normal 0 0 1
    outer loop
      vertex -12.5213 19.5415 1.5
      vertex -22.5 22.5 1.5
      vertex -12.8447 19.1851 1.5
    endloop
  endfacet
  facet normal 0 0 1
    outer loop
      vertex -12.1434 19.8439 1.5
      vertex -22.5 22.5 1.5
      vertex -12.5213 19.5415 1.5
    endloop
  endfacet
  facet normal 0 0 1
    outer loop
      vertex -11.7069 20.0999 1.5
      vertex -22.5 22.5 1.5
      vertex -12.1434 19.8439 1.5
    endloop
  endfacet
  facet normal 0 0 1
    outer loop
      vertex -11.2118 20.3092 1.5
      vertex -22.5 22.5 1.5
      vertex -11.7069 20.0999 1.5
    endloop
  endfacet
  facet normal 0 0 1
    outer loop
      vertex -10.6581 20.4721 1.5
      vertex -22.5 22.5 1.5
      vertex -11.2118 20.3092 1.5
    endloop
  endfacet
  facet normal 0 0 1
    outer loop
      vertex -10.0458 20.5884 1.5
      vertex -22.5 22.5 1.5
      vertex -10.6581 20.4721 1.5
    endloop
  endfacet
  facet normal 0 0 1
    outer loop
      vertex -9.37483 20.6582 1.5
      vertex -22.5 22.5 1.5
      vertex -10.0458 20.5884 1.5
    endloop
  endfacet
  facet normal 0 0 1
    outer loop
      vertex -8.64528 20.6815 1.5
      vertex -22.5 22.5 1.5
      vertex -9.37483 20.6582 1.5
    endloop
  endfacet
  facet normal 0 0 1
    outer loop
      vertex 22.5 22.5 1.5
      vertex 16.4556 7.08365 1.5
      vertex 22.5 -22.5 1.5
    endloop
  endfacet
  facet normal -0 0 1
    outer loop
      vertex 16.2271 5.52885 1.5
      vertex 22.5 -22.5 1.5
      vertex 16.4556 7.08365 1.5
    endloop
  endfacet
  facet normal -0 0 1
    outer loop
      vertex 15.8464 4.0941 1.5
      vertex 22.5 -22.5 1.5
      vertex 16.2271 5.52885 1.5
    endloop
  endfacet
  facet normal -0 0 1
    outer loop
      vertex 15.3134 2.77939 1.5
      vertex 22.5 -22.5 1.5
      vertex 15.8464 4.0941 1.5
    endloop
  endfacet
  facet normal -0 0 1
    outer loop
      vertex 14.6281 1.58472 1.5
      vertex 22.5 -22.5 1.5
      vertex 15.3134 2.77939 1.5
    endloop
  endfacet
  facet normal -0 0 1
    outer loop
      vertex 13.7906 0.510086 1.5
      vertex 22.5 -22.5 1.5
      vertex 14.6281 1.58472 1.5
    endloop
  endfacet
  facet normal -0 0 1
    outer loop
      vertex 12.8007 -0.444489 1.5
      vertex 22.5 -22.5 1.5
      vertex 13.7906 0.510086 1.5
    endloop
  endfacet
  facet normal -0 0 1
    outer loop
      vertex 11.6602 -1.2749 1.5
      vertex 22.5 -22.5 1.5
      vertex 12.8007 -0.444489 1.5
    endloop
  endfacet
  facet normal -0 0 1
    outer loop
      vertex 10.3707 -1.97755 1.5
      vertex 22.5 -22.5 1.5
      vertex 11.6602 -1.2749 1.5
    endloop
  endfacet
  facet normal -0 0 1
    outer loop
      vertex 8.9323 -2.55244 1.5
      vertex 22.5 -22.5 1.5
      vertex 10.3707 -1.97755 1.5
    endloop
  endfacet
  facet normal -0 0 1
    outer loop
      vertex 7.34486 -2.99959 1.5
      vertex 22.5 -22.5 1.5
      vertex 8.9323 -2.55244 1.5
    endloop
  endfacet
  facet normal -0 0 1
    outer loop
      vertex 5.60846 -3.31898 1.5
      vertex 22.5 -22.5 1.5
      vertex 7.34486 -2.99959 1.5
    endloop
  endfacet
  facet normal 0 0 1
    outer loop
      vertex -5.67628 -14.8495 1.5
      vertex 5.60846 -3.31898 1.5
      vertex 3.72307 -3.51062 1.5
    endloop
  endfacet
  facet normal 0 0 1
    outer loop
      vertex -5.67628 -14.8495 1.5
      vertex 3.72307 -3.51062 1.5
      vertex 1.68871 -3.57449 1.5
    endloop
  endfacet
  facet normal 0 0 1
    outer loop
      vertex -5.67628 -14.8495 1.5
      vertex 1.68871 -3.57449 1.5
      vertex -5.67628 -3.57449 1.5
    endloop
  endfacet
  facet normal 0 0 1
    outer loop
      vertex 5.60846 -3.31898 1.5
      vertex -5.67628 -14.8495 1.5
      vertex -5.69957 -15.5165 1.5
    endloop
  endfacet
  facet normal 0 0 1
    outer loop
      vertex 5.60846 -3.31898 1.5
      vertex -5.69957 -15.5165 1.5
      vertex 22.5 -22.5 1.5
    endloop
  endfacet
  facet normal -0 0 1
    outer loop
      vertex -5.76942 -16.1359 1.5
      vertex 22.5 -22.5 1.5
      vertex -5.69957 -15.5165 1.5
    endloop
  endfacet
  facet normal -0 0 1
    outer loop
      vertex -5.88585 -16.7075 1.5
      vertex 22.5 -22.5 1.5
      vertex -5.76942 -16.1359 1.5
    endloop
  endfacet
  facet normal -0 0 1
    outer loop
      vertex -6.04884 -17.2315 1.5
      vertex 22.5 -22.5 1.5
      vertex -5.88585 -16.7075 1.5
    endloop
  endfacet
  facet normal -0 0 1
    outer loop
      vertex -6.25842 -17.7079 1.5
      vertex 22.5 -22.5 1.5
      vertex -6.04884 -17.2315 1.5
    endloop
  endfacet
  facet normal -0 0 1
    outer loop
      vertex -6.51456 -18.1365 1.5
      vertex 22.5 -22.5 1.5
      vertex -6.25842 -17.7079 1.5
    endloop
  endfacet
  facet normal -0 0 1
    outer loop
      vertex -6.81728 -18.5175 1.5
      vertex 22.5 -22.5 1.5
      vertex -6.51456 -18.1365 1.5
    endloop
  endfacet
  facet normal -0 0 1
    outer loop
      vertex -7.15518 -18.8489 1.5
      vertex 22.5 -22.5 1.5
      vertex -6.81728 -18.5175 1.5
    endloop
  endfacet
  facet normal -0 0 1
    outer loop
      vertex -7.51744 -19.1292 1.5
      vertex 22.5 -22.5 1.5
      vertex -7.15518 -18.8489 1.5
    endloop
  endfacet
  facet normal -0 0 1
    outer loop
      vertex -7.90407 -19.3587 1.5
      vertex 22.5 -22.5 1.5
      vertex -7.51744 -19.1292 1.5
    endloop
  endfacet
  facet normal -0 0 1
    outer loop
      vertex -8.31508 -19.5371 1.5
      vertex 22.5 -22.5 1.5
      vertex -7.90407 -19.3587 1.5
    endloop
  endfacet
  facet normal -0 0 1
    outer loop
      vertex -8.75044 -19.6645 1.5
      vertex 22.5 -22.5 1.5
      vertex -8.31508 -19.5371 1.5
    endloop
  endfacet
  facet normal -0 0 1
    outer loop
      vertex -9.21017 -19.741 1.5
      vertex 22.5 -22.5 1.5
      vertex -8.75044 -19.6645 1.5
    endloop
  endfacet
  facet normal 0 0 1
    outer loop
      vertex -22.5 -22.5 1.5
      vertex -9.21017 -19.741 1.5
      vertex -9.69427 -19.7665 1.5
    endloop
  endfacet
  facet normal 0 0 1
    outer loop
      vertex -22.5 -22.5 1.5
      vertex -9.69427 -19.7665 1.5
      vertex -10.1998 -19.7413 1.5
    endloop
  endfacet
  facet normal 0 0 1
    outer loop
      vertex -22.5 -22.5 1.5
      vertex -13.7403 -14.9105 1.5
      vertex -22.5 22.5 1.5
    endloop
  endfacet
  facet normal 0 0 1
    outer loop
      vertex -13.7403 -14.9105 1.5
      vertex -22.5 -22.5 1.5
      vertex -13.7176 -15.569 1.5
    endloop
  endfacet
  facet normal 0 0 1
    outer loop
      vertex -13.7176 -15.569 1.5
      vertex -22.5 -22.5 1.5
      vertex -13.6494 -16.1805 1.5
    endloop
  endfacet
  facet normal 0 0 1
    outer loop
      vertex -9.21017 -19.741 1.5
      vertex -22.5 -22.5 1.5
      vertex 22.5 -22.5 1.5
    endloop
  endfacet
  facet normal 0 0 1
    outer loop
      vertex -10.6766 -19.6658 1.5
      vertex -22.5 -22.5 1.5
      vertex -10.1998 -19.7413 1.5
    endloop
  endfacet
  facet normal 0 0 1
    outer loop
      vertex -11.1244 -19.5398 1.5
      vertex -22.5 -22.5 1.5
      vertex -10.6766 -19.6658 1.5
    endloop
  endfacet
  facet normal 0 0 1
    outer loop
      vertex -11.5434 -19.3636 1.5
      vertex -22.5 -22.5 1.5
      vertex -11.1244 -19.5398 1.5
    endloop
  endfacet
  facet normal 0 0 1
    outer loop
      vertex -11.9336 -19.1369 1.5
      vertex -22.5 -22.5 1.5
      vertex -11.5434 -19.3636 1.5
    endloop
  endfacet
  facet normal 0 0 1
    outer loop
      vertex -12.2948 -18.8599 1.5
      vertex -22.5 -22.5 1.5
      vertex -11.9336 -19.1369 1.5
    endloop
  endfacet
  facet normal 0 0 1
    outer loop
      vertex -12.6273 -18.5325 1.5
      vertex -22.5 -22.5 1.5
      vertex -12.2948 -18.8599 1.5
    endloop
  endfacet
  facet normal 0 0 1
    outer loop
      vertex -12.9226 -18.1561 1.5
      vertex -22.5 -22.5 1.5
      vertex -12.6273 -18.5325 1.5
    endloop
  endfacet
  facet normal 0 0 1
    outer loop
      vertex -13.1724 -17.7327 1.5
      vertex -22.5 -22.5 1.5
      vertex -12.9226 -18.1561 1.5
    endloop
  endfacet
  facet normal 0 0 1
    outer loop
      vertex -13.3768 -17.2623 1.5
      vertex -22.5 -22.5 1.5
      vertex -13.1724 -17.7327 1.5
    endloop
  endfacet
  facet normal 0 0 1
    outer loop
      vertex -13.5358 -16.7449 1.5
      vertex -22.5 -22.5 1.5
      vertex -13.3768 -17.2623 1.5
    endloop
  endfacet
  facet normal 0 0 1
    outer loop
      vertex -13.6494 -16.1805 1.5
      vertex -22.5 -22.5 1.5
      vertex -13.5358 -16.7449 1.5
    endloop
  endfacet
  facet normal 0 0 1
    outer loop
      vertex 3.68634 14.3415 1.5
      vertex 8.4037 8.61249 1.5
      vertex 8.37222 9.34483 1.5
    endloop
  endfacet
  facet normal 0 0 1
    outer loop
      vertex 8.4037 8.61249 1.5
      vertex 4.49071 3.10249 1.5
      vertex 8.38326 8.00163 1.5
    endloop
  endfacet
  facet normal 0 0 1
    outer loop
      vertex 4.70377 14.0895 1.5
      vertex 8.37222 9.34483 1.5
      vertex 8.27774 10.0373 1.5
    endloop
  endfacet
  facet normal 0 0 1
    outer loop
      vertex 8.38326 8.00163 1.5
      vertex 4.49071 3.10249 1.5
      vertex 8.32191 7.42506 1.5
    endloop
  endfacet
  facet normal 0 0 1
    outer loop
      vertex 4.70377 14.0895 1.5
      vertex 8.27774 10.0373 1.5
      vertex 8.1203 10.6899 1.5
    endloop
  endfacet
  facet normal 0 -0 1
    outer loop
      vertex 5.01762 3.28857 1.5
      vertex 8.32191 7.42506 1.5
      vertex 4.49071 3.10249 1.5
    endloop
  endfacet
  facet normal 0 0 1
    outer loop
      vertex 4.70377 14.0895 1.5
      vertex 8.1203 10.6899 1.5
      vertex 7.89987 11.3026 1.5
    endloop
  endfacet
  facet normal 0 -0 1
    outer loop
      vertex 5.50752 3.50568 1.5
      vertex 8.32191 7.42506 1.5
      vertex 5.01762 3.28857 1.5
    endloop
  endfacet
  facet normal 0 -0 1
    outer loop
      vertex 5.9604 3.7538 1.5
      vertex 8.21967 6.88278 1.5
      vertex 5.50752 3.50568 1.5
    endloop
  endfacet
  facet normal 0 0 1
    outer loop
      vertex 4.70377 14.0895 1.5
      vertex 7.89987 11.3026 1.5
      vertex 7.61646 11.8755 1.5
    endloop
  endfacet
  facet normal 0 0 1
    outer loop
      vertex 8.37222 9.34483 1.5
      vertex 4.70377 14.0895 1.5
      vertex 3.68634 14.3415 1.5
    endloop
  endfacet
  facet normal 0 0 1
    outer loop
      vertex 5.57198 13.7655 1.5
      vertex 7.61646 11.8755 1.5
      vertex 7.27008 12.4084 1.5
    endloop
  endfacet
  facet normal 0 0 1
    outer loop
      vertex 8.21967 6.88278 1.5
      vertex 5.9604 3.7538 1.5
      vertex 8.07652 6.37477 1.5
    endloop
  endfacet
  facet normal 0 0 1
    outer loop
      vertex 6.29095 13.3695 1.5
      vertex 7.27008 12.4084 1.5
      vertex 6.8607 12.9015 1.5
    endloop
  endfacet
  facet normal 0 0 1
    outer loop
      vertex 7.89249 5.90106 1.5
      vertex 5.9604 3.7538 1.5
      vertex 7.66754 5.46164 1.5
    endloop
  endfacet
  facet normal 0 0 1
    outer loop
      vertex 7.66754 5.46164 1.5
      vertex 5.9604 3.7538 1.5
      vertex 7.4017 5.05649 1.5
    endloop
  endfacet
  facet normal 0 0 1
    outer loop
      vertex 7.27008 12.4084 1.5
      vertex 6.29095 13.3695 1.5
      vertex 5.57198 13.7655 1.5
    endloop
  endfacet
  facet normal 0 0 1
    outer loop
      vertex 7.61646 11.8755 1.5
      vertex 5.57198 13.7655 1.5
      vertex 4.70377 14.0895 1.5
    endloop
  endfacet
  facet normal 0 0 1
    outer loop
      vertex 7.09691 4.6843 1.5
      vertex 6.37625 4.03294 1.5
      vertex 6.7551 4.34311 1.5
    endloop
  endfacet
  facet normal 0 0 1
    outer loop
      vertex 7.09691 4.6843 1.5
      vertex 5.9604 3.7538 1.5
      vertex 6.37625 4.03294 1.5
    endloop
  endfacet
  facet normal 0 0 1
    outer loop
      vertex 7.4017 5.05649 1.5
      vertex 5.9604 3.7538 1.5
      vertex 7.09691 4.6843 1.5
    endloop
  endfacet
  facet normal 0 0 1
    outer loop
      vertex 8.07652 6.37477 1.5
      vertex 5.9604 3.7538 1.5
      vertex 7.89249 5.90106 1.5
    endloop
  endfacet
  facet normal 0 0 1
    outer loop
      vertex 8.32191 7.42506 1.5
      vertex 5.50752 3.50568 1.5
      vertex 8.21967 6.88278 1.5
    endloop
  endfacet
  facet normal 0 -0 1
    outer loop
      vertex 3.92622 2.94411 1.5
      vertex 8.4037 8.61249 1.5
      vertex 3.68634 14.3415 1.5
    endloop
  endfacet
  facet normal 0 0 1
    outer loop
      vertex 8.4037 8.61249 1.5
      vertex 3.92622 2.94411 1.5
      vertex 4.49071 3.10249 1.5
    endloop
  endfacet
  facet normal 0 0 1
    outer loop
      vertex 3.68634 14.3415 1.5
      vertex 3.32361 2.81009 1.5
      vertex 3.92622 2.94411 1.5
    endloop
  endfacet
  facet normal 0 0 1
    outer loop
      vertex 2.51968 14.5215 1.5
      vertex 3.32361 2.81009 1.5
      vertex 3.68634 14.3415 1.5
    endloop
  endfacet
  facet normal 0 0 1
    outer loop
      vertex 3.32361 2.81009 1.5
      vertex 2.51968 14.5215 1.5
      vertex 2.68288 2.70042 1.5
    endloop
  endfacet
  facet normal 0 0 1
    outer loop
      vertex 2.51968 14.5215 1.5
      vertex 2.00401 2.61514 1.5
      vertex 2.68288 2.70042 1.5
    endloop
  endfacet
  facet normal 0 0 1
    outer loop
      vertex 1.20381 14.6295 1.5
      vertex 2.00401 2.61514 1.5
      vertex 2.51968 14.5215 1.5
    endloop
  endfacet
  facet normal 0 0 1
    outer loop
      vertex 2.00401 2.61514 1.5
      vertex 1.20381 14.6295 1.5
      vertex 1.28703 2.55423 1.5
    endloop
  endfacet
  facet normal 0 0 1
    outer loop
      vertex 1.20381 14.6295 1.5
      vertex 0.531937 2.51767 1.5
      vertex 1.28703 2.55423 1.5
    endloop
  endfacet
  facet normal 0 0 1
    outer loop
      vertex -0.261276 14.6655 1.5
      vertex 0.531937 2.51767 1.5
      vertex 1.20381 14.6295 1.5
    endloop
  endfacet
  facet normal 0 0 1
    outer loop
      vertex -0.261276 14.6655 1.5
      vertex -0.261276 2.50549 1.5
      vertex 0.531937 2.51767 1.5
    endloop
  endfacet
  facet normal -0 0 1
    outer loop
      vertex -5.67628 14.6655 1.5
      vertex -0.261276 2.50549 1.5
      vertex -0.261276 14.6655 1.5
    endloop
  endfacet
  facet normal 0 0 1
    outer loop
      vertex -0.261276 2.50549 1.5
      vertex -5.67628 14.6655 1.5
      vertex -5.67628 2.50549 1.5
    endloop
  endfacet
  facet normal 1 -0 0
    outer loop
      vertex 22.5 -22.5 1.5
      vertex 22.5 22.5 0.5
      vertex 22.5 22.5 1.5
    endloop
  endfacet
  facet normal 1 0 0
    outer loop
      vertex 22.5 22.5 0.5
      vertex 22.5 -22.5 1.5
      vertex 22.5 -22.5 0.5
    endloop
  endfacet
  facet normal 0 0 -1
    outer loop
      vertex -22.5 -22.5 0.5
      vertex 22.5 22.5 0.5
      vertex 22.5 -22.5 0.5
    endloop
  endfacet
  facet normal -0 0 -1
    outer loop
      vertex 22.5 22.5 0.5
      vertex -22.5 -22.5 0.5
      vertex -22.5 22.5 0.5
    endloop
  endfacet
  facet normal 0 -1 0
    outer loop
      vertex -22.5 -22.5 0.5
      vertex 22.5 -22.5 1.5
      vertex -22.5 -22.5 1.5
    endloop
  endfacet
  facet normal 0 -1 -0
    outer loop
      vertex 22.5 -22.5 1.5
      vertex -22.5 -22.5 0.5
      vertex 22.5 -22.5 0.5
    endloop
  endfacet
  facet normal 0 1 -0
    outer loop
      vertex 22.5 22.5 0.5
      vertex -22.5 22.5 1.5
      vertex 22.5 22.5 1.5
    endloop
  endfacet
  facet normal 0 1 0
    outer loop
      vertex -22.5 22.5 1.5
      vertex 22.5 22.5 0.5
      vertex -22.5 22.5 0.5
    endloop
  endfacet
  facet normal 0 0 1
    outer loop
      vertex 16.513 9.56003 3
      vertex 8.37222 9.34483 3
      vertex 8.4037 8.61249 3
    endloop
  endfacet
  facet normal 0 0 1
    outer loop
      vertex 9.40851 19.7685 3
      vertex 8.27774 10.0373 3
      vertex 8.37222 9.34483 3
    endloop
  endfacet
  facet normal 0 0 1
    outer loop
      vertex 9.40851 19.7685 3
      vertex 8.1203 10.6899 3
      vertex 8.27774 10.0373 3
    endloop
  endfacet
  facet normal 0 0 1
    outer loop
      vertex 5.57198 13.7655 3
      vertex 8.72771 19.9805 3
      vertex 7.97997 20.1665 3
    endloop
  endfacet
  facet normal 0 0 1
    outer loop
      vertex 9.40851 19.7685 3
      vertex 7.89987 11.3026 3
      vertex 8.1203 10.6899 3
    endloop
  endfacet
  facet normal 0 0 1
    outer loop
      vertex 9.40851 19.7685 3
      vertex 7.61646 11.8755 3
      vertex 7.89987 11.3026 3
    endloop
  endfacet
  facet normal 0 0 1
    outer loop
      vertex 9.40851 19.7685 3
      vertex 7.27008 12.4084 3
      vertex 7.61646 11.8755 3
    endloop
  endfacet
  facet normal 0 0 1
    outer loop
      vertex 5.57198 13.7655 3
      vertex 7.97997 20.1665 3
      vertex 7.1459 20.3238 3
    endloop
  endfacet
  facet normal 0 0 1
    outer loop
      vertex 9.40851 19.7685 3
      vertex 6.8607 12.9015 3
      vertex 7.27008 12.4084 3
    endloop
  endfacet
  facet normal 0 0 1
    outer loop
      vertex 9.40851 19.7685 3
      vertex 6.29095 13.3695 3
      vertex 6.8607 12.9015 3
    endloop
  endfacet
  facet normal 0 0 1
    outer loop
      vertex 4.70377 14.0895 3
      vertex 7.1459 20.3238 3
      vertex 6.22552 20.4526 3
    endloop
  endfacet
  facet normal 0 0 1
    outer loop
      vertex 8.72771 19.9805 3
      vertex 5.57198 13.7655 3
      vertex 6.29095 13.3695 3
    endloop
  endfacet
  facet normal 0 0 1
    outer loop
      vertex 4.70377 14.0895 3
      vertex 6.22552 20.4526 3
      vertex 5.21881 20.5527 3
    endloop
  endfacet
  facet normal 0 0 1
    outer loop
      vertex 7.1459 20.3238 3
      vertex 4.70377 14.0895 3
      vertex 5.57198 13.7655 3
    endloop
  endfacet
  facet normal 0 0 1
    outer loop
      vertex 3.68634 14.3415 3
      vertex 5.21881 20.5527 3
      vertex 4.12576 20.6243 3
    endloop
  endfacet
  facet normal 0 0 1
    outer loop
      vertex 5.21881 20.5527 3
      vertex 3.68634 14.3415 3
      vertex 4.70377 14.0895 3
    endloop
  endfacet
  facet normal 0 0 1
    outer loop
      vertex 2.51968 14.5215 3
      vertex 4.12576 20.6243 3
      vertex 2.9464 20.6672 3
    endloop
  endfacet
  facet normal 0 0 1
    outer loop
      vertex 4.12576 20.6243 3
      vertex 2.51968 14.5215 3
      vertex 3.68634 14.3415 3
    endloop
  endfacet
  facet normal 0 0 1
    outer loop
      vertex 1.68071 20.6815 3
      vertex 2.51968 14.5215 3
      vertex 2.9464 20.6672 3
    endloop
  endfacet
  facet normal 0 0 1
    outer loop
      vertex 1.68071 20.6815 3
      vertex 1.20381 14.6295 3
      vertex 2.51968 14.5215 3
    endloop
  endfacet
  facet normal 0 0 1
    outer loop
      vertex 1.68071 20.6815 3
      vertex -0.261276 14.6655 3
      vertex 1.20381 14.6295 3
    endloop
  endfacet
  facet normal 0 0 1
    outer loop
      vertex 1.68071 20.6815 3
      vertex -5.67628 14.6655 3
      vertex -0.261276 14.6655 3
    endloop
  endfacet
  facet normal 0 0 1
    outer loop
      vertex -13.7403 15.7445 3
      vertex -5.67628 2.50549 3
      vertex -5.67628 14.6655 3
    endloop
  endfacet
  facet normal 0 0 1
    outer loop
      vertex -13.7403 -14.9105 3
      vertex -5.67628 2.50549 3
      vertex -13.7403 15.7445 3
    endloop
  endfacet
  facet normal 0 0 1
    outer loop
      vertex -5.67628 -3.57449 3
      vertex -13.7403 -14.9105 3
      vertex -5.67628 -14.8495 3
    endloop
  endfacet
  facet normal 0 0 1
    outer loop
      vertex -5.67628 -14.8495 3
      vertex -13.7403 -14.9105 3
      vertex -5.69957 -15.5165 3
    endloop
  endfacet
  facet normal 0 -0 1
    outer loop
      vertex -13.7176 -15.569 3
      vertex -5.69957 -15.5165 3
      vertex -13.7403 -14.9105 3
    endloop
  endfacet
  facet normal 0 0 1
    outer loop
      vertex -5.69957 -15.5165 3
      vertex -13.7176 -15.569 3
      vertex -5.76942 -16.1359 3
    endloop
  endfacet
  facet normal 0 -0 1
    outer loop
      vertex -13.6494 -16.1805 3
      vertex -5.76942 -16.1359 3
      vertex -13.7176 -15.569 3
    endloop
  endfacet
  facet normal 0 0 1
    outer loop
      vertex -5.76942 -16.1359 3
      vertex -13.6494 -16.1805 3
      vertex -5.88585 -16.7075 3
    endloop
  endfacet
  facet normal 0 -0 1
    outer loop
      vertex -13.5358 -16.7449 3
      vertex -5.88585 -16.7075 3
      vertex -13.6494 -16.1805 3
    endloop
  endfacet
  facet normal 0 0 1
    outer loop
      vertex -5.88585 -16.7075 3
      vertex -13.5358 -16.7449 3
      vertex -6.04884 -17.2315 3
    endloop
  endfacet
  facet normal 0 -0 1
    outer loop
      vertex -9.69427 -19.7665 3
      vertex -6.04884 -17.2315 3
      vertex -13.5358 -16.7449 3
    endloop
  endfacet
  facet normal 0 0 1
    outer loop
      vertex -6.04884 -17.2315 3
      vertex -9.69427 -19.7665 3
      vertex -6.25842 -17.7079 3
    endloop
  endfacet
  facet normal 0 0 1
    outer loop
      vertex -6.25842 -17.7079 3
      vertex -9.69427 -19.7665 3
      vertex -6.51456 -18.1365 3
    endloop
  endfacet
  facet normal -0 0 1
    outer loop
      vertex -8.64528 20.6815 3
      vertex -5.67628 14.6655 3
      vertex 1.68071 20.6815 3
    endloop
  endfacet
  facet normal -0 0 1
    outer loop
      vertex -9.37483 20.6582 3
      vertex -5.67628 14.6655 3
      vertex -8.64528 20.6815 3
    endloop
  endfacet
  facet normal 0 0 1
    outer loop
      vertex -5.67628 2.50549 3
      vertex -13.7403 -14.9105 3
      vertex -5.67628 -3.57449 3
    endloop
  endfacet
  facet normal 0 0 1
    outer loop
      vertex -6.51456 -18.1365 3
      vertex -9.69427 -19.7665 3
      vertex -6.81728 -18.5175 3
    endloop
  endfacet
  facet normal -0 0 1
    outer loop
      vertex -10.0458 20.5884 3
      vertex -5.67628 14.6655 3
      vertex -9.37483 20.6582 3
    endloop
  endfacet
  facet normal 0 0 1
    outer loop
      vertex -6.81728 -18.5175 3
      vertex -9.21017 -19.741 3
      vertex -7.15518 -18.8489 3
    endloop
  endfacet
  facet normal -0 0 1
    outer loop
      vertex -13.6408 17.1393 3
      vertex -5.67628 14.6655 3
      vertex -10.0458 20.5884 3
    endloop
  endfacet
  facet normal 0 0 1
    outer loop
      vertex -7.15518 -18.8489 3
      vertex -9.21017 -19.741 3
      vertex -7.51744 -19.1292 3
    endloop
  endfacet
  facet normal 0 0 1
    outer loop
      vertex -13.6408 17.1393 3
      vertex -10.0458 20.5884 3
      vertex -10.6581 20.4721 3
    endloop
  endfacet
  facet normal 0 0 1
    outer loop
      vertex -7.51744 -19.1292 3
      vertex -9.21017 -19.741 3
      vertex -7.90407 -19.3587 3
    endloop
  endfacet
  facet normal 0 0 1
    outer loop
      vertex -7.90407 -19.3587 3
      vertex -9.21017 -19.741 3
      vertex -8.75044 -19.6645 3
    endloop
  endfacet
  facet normal 0 0 1
    outer loop
      vertex -13.5164 17.7438 3
      vertex -10.6581 20.4721 3
      vertex -11.2118 20.3092 3
    endloop
  endfacet
  facet normal 0 0 1
    outer loop
      vertex -6.81728 -18.5175 3
      vertex -9.69427 -19.7665 3
      vertex -9.21017 -19.741 3
    endloop
  endfacet
  facet normal 0 0 1
    outer loop
      vertex -13.3422 18.2862 3
      vertex -11.2118 20.3092 3
      vertex -11.7069 20.0999 3
    endloop
  endfacet
  facet normal 0 0 1
    outer loop
      vertex -7.90407 -19.3587 3
      vertex -8.75044 -19.6645 3
      vertex -8.31508 -19.5371 3
    endloop
  endfacet
  facet normal 0 0 1
    outer loop
      vertex -13.3422 18.2862 3
      vertex -11.7069 20.0999 3
      vertex -12.1434 19.8439 3
    endloop
  endfacet
  facet normal 0 0 1
    outer loop
      vertex -9.69427 -19.7665 3
      vertex -13.5358 -16.7449 3
      vertex -10.1998 -19.7413 3
    endloop
  endfacet
  facet normal 0 0 1
    outer loop
      vertex -13.1183 18.7666 3
      vertex -12.1434 19.8439 3
      vertex -12.5213 19.5415 3
    endloop
  endfacet
  facet normal -0 -0 1
    outer loop
      vertex -13.3768 -17.2623 3
      vertex -10.1998 -19.7413 3
      vertex -13.5358 -16.7449 3
    endloop
  endfacet
  facet normal 0 0 1
    outer loop
      vertex -13.1183 18.7666 3
      vertex -12.5213 19.5415 3
      vertex -12.8447 19.1851 3
    endloop
  endfacet
  facet normal 0 0 1
    outer loop
      vertex -10.1998 -19.7413 3
      vertex -13.3768 -17.2623 3
      vertex -10.6766 -19.6658 3
    endloop
  endfacet
  facet normal 0 0 1
    outer loop
      vertex -12.1434 19.8439 3
      vertex -13.1183 18.7666 3
      vertex -13.3422 18.2862 3
    endloop
  endfacet
  facet normal 0 0 1
    outer loop
      vertex -10.6766 -19.6658 3
      vertex -13.3768 -17.2623 3
      vertex -11.1244 -19.5398 3
    endloop
  endfacet
  facet normal 0 0 1
    outer loop
      vertex -11.2118 20.3092 3
      vertex -13.3422 18.2862 3
      vertex -13.5164 17.7438 3
    endloop
  endfacet
  facet normal 0 0 1
    outer loop
      vertex -11.1244 -19.5398 3
      vertex -13.3768 -17.2623 3
      vertex -11.5434 -19.3636 3
    endloop
  endfacet
  facet normal 0 0 1
    outer loop
      vertex -10.6581 20.4721 3
      vertex -13.5164 17.7438 3
      vertex -13.6408 17.1393 3
    endloop
  endfacet
  facet normal 0 0 1
    outer loop
      vertex -11.5434 -19.3636 3
      vertex -13.3768 -17.2623 3
      vertex -11.9336 -19.1369 3
    endloop
  endfacet
  facet normal 0 0 1
    outer loop
      vertex -5.67628 14.6655 3
      vertex -13.6408 17.1393 3
      vertex -13.7154 16.4729 3
    endloop
  endfacet
  facet normal 0 0 1
    outer loop
      vertex -11.9336 -19.1369 3
      vertex -13.3768 -17.2623 3
      vertex -12.2948 -18.8599 3
    endloop
  endfacet
  facet normal 0 0 1
    outer loop
      vertex -5.67628 14.6655 3
      vertex -13.7154 16.4729 3
      vertex -13.7403 15.7445 3
    endloop
  endfacet
  facet normal 0 0 1
    outer loop
      vertex -12.2948 -18.8599 3
      vertex -13.3768 -17.2623 3
      vertex -12.6273 -18.5325 3
    endloop
  endfacet
  facet normal 0 0 1
    outer loop
      vertex -12.6273 -18.5325 3
      vertex -13.3768 -17.2623 3
      vertex -12.9226 -18.1561 3
    endloop
  endfacet
  facet normal 0 0 1
    outer loop
      vertex -12.9226 -18.1561 3
      vertex -13.3768 -17.2623 3
      vertex -13.1724 -17.7327 3
    endloop
  endfacet
  facet normal 0 0 1
    outer loop
      vertex 8.37222 9.34483 3
      vertex 16.513 9.56003 3
      vertex 16.4568 10.3383 3
    endloop
  endfacet
  facet normal 0 0 1
    outer loop
      vertex 16.513 9.56003 3
      vertex 8.4037 8.61249 3
      vertex 16.5317 8.7585 3
    endloop
  endfacet
  facet normal 0 0 1
    outer loop
      vertex 8.37222 9.34483 3
      vertex 16.4568 10.3383 3
      vertex 16.3631 11.0934 3
    endloop
  endfacet
  facet normal 0 0 1
    outer loop
      vertex 8.37222 9.34483 3
      vertex 16.3631 11.0934 3
      vertex 16.2319 11.8253 3
    endloop
  endfacet
  facet normal 0 0 1
    outer loop
      vertex 8.38326 8.00163 3
      vertex 16.5317 8.7585 3
      vertex 8.4037 8.61249 3
    endloop
  endfacet
  facet normal 0 0 1
    outer loop
      vertex 8.37222 9.34483 3
      vertex 16.2319 11.8253 3
      vertex 16.0633 12.5339 3
    endloop
  endfacet
  facet normal 0 0 1
    outer loop
      vertex 8.37222 9.34483 3
      vertex 16.0633 12.5339 3
      vertex 15.8573 13.2193 3
    endloop
  endfacet
  facet normal 0 0 1
    outer loop
      vertex 16.5317 8.7585 3
      vertex 8.38326 8.00163 3
      vertex 16.4556 7.08365 3
    endloop
  endfacet
  facet normal 0 0 1
    outer loop
      vertex 8.37222 9.34483 3
      vertex 15.8573 13.2193 3
      vertex 15.6137 13.8815 3
    endloop
  endfacet
  facet normal 0 0 1
    outer loop
      vertex 8.37222 9.34483 3
      vertex 15.6137 13.8815 3
      vertex 15.3341 14.5177 3
    endloop
  endfacet
  facet normal -0 0 1
    outer loop
      vertex 8.32191 7.42506 3
      vertex 16.4556 7.08365 3
      vertex 8.38326 8.00163 3
    endloop
  endfacet
  facet normal 0 0 1
    outer loop
      vertex 8.37222 9.34483 3
      vertex 15.3341 14.5177 3
      vertex 15.0197 15.1251 3
    endloop
  endfacet
  facet normal 0 0 1
    outer loop
      vertex 8.37222 9.34483 3
      vertex 15.0197 15.1251 3
      vertex 14.6705 15.7037 3
    endloop
  endfacet
  facet normal 0 0 1
    outer loop
      vertex 16.4556 7.08365 3
      vertex 8.32191 7.42506 3
      vertex 16.2271 5.52885 3
    endloop
  endfacet
  facet normal 0 0 1
    outer loop
      vertex 8.37222 9.34483 3
      vertex 14.6705 15.7037 3
      vertex 14.2867 16.2536 3
    endloop
  endfacet
  facet normal 0 0 1
    outer loop
      vertex 8.37222 9.34483 3
      vertex 14.2867 16.2536 3
      vertex 13.8681 16.7747 3
    endloop
  endfacet
  facet normal -0 0 1
    outer loop
      vertex 8.21967 6.88278 3
      vertex 16.2271 5.52885 3
      vertex 8.32191 7.42506 3
    endloop
  endfacet
  facet normal 0 0 1
    outer loop
      vertex 8.37222 9.34483 3
      vertex 13.8681 16.7747 3
      vertex 13.4148 17.267 3
    endloop
  endfacet
  facet normal 0 0 1
    outer loop
      vertex 8.37222 9.34483 3
      vertex 13.4148 17.267 3
      vertex 12.9267 17.7305 3
    endloop
  endfacet
  facet normal 0 0 1
    outer loop
      vertex 16.2271 5.52885 3
      vertex 8.21967 6.88278 3
      vertex 15.8464 4.0941 3
    endloop
  endfacet
  facet normal 0 0 1
    outer loop
      vertex 8.37222 9.34483 3
      vertex 12.9267 17.7305 3
      vertex 12.4078 18.1614 3
    endloop
  endfacet
  facet normal 0 0 1
    outer loop
      vertex 8.37222 9.34483 3
      vertex 12.4078 18.1614 3
      vertex 11.8619 18.5558 3
    endloop
  endfacet
  facet normal -0 0 1
    outer loop
      vertex 8.07652 6.37477 3
      vertex 15.8464 4.0941 3
      vertex 8.21967 6.88278 3
    endloop
  endfacet
  facet normal 0 0 1
    outer loop
      vertex 8.37222 9.34483 3
      vertex 11.8619 18.5558 3
      vertex 11.289 18.9137 3
    endloop
  endfacet
  facet normal 0 0 1
    outer loop
      vertex 8.37222 9.34483 3
      vertex 11.289 18.9137 3
      vertex 10.6892 19.2351 3
    endloop
  endfacet
  facet normal 0 0 1
    outer loop
      vertex 15.8464 4.0941 3
      vertex 8.07652 6.37477 3
      vertex 15.3134 2.77939 3
    endloop
  endfacet
  facet normal 0 0 1
    outer loop
      vertex 8.37222 9.34483 3
      vertex 10.6892 19.2351 3
      vertex 10.0623 19.5201 3
    endloop
  endfacet
  facet normal 0 0 1
    outer loop
      vertex 8.37222 9.34483 3
      vertex 10.0623 19.5201 3
      vertex 9.40851 19.7685 3
    endloop
  endfacet
  facet normal -0 0 1
    outer loop
      vertex 7.89249 5.90106 3
      vertex 15.3134 2.77939 3
      vertex 8.07652 6.37477 3
    endloop
  endfacet
  facet normal 0 0 1
    outer loop
      vertex 6.29095 13.3695 3
      vertex 9.40851 19.7685 3
      vertex 8.72771 19.9805 3
    endloop
  endfacet
  facet normal 0 0 1
    outer loop
      vertex 15.3134 2.77939 3
      vertex 7.89249 5.90106 3
      vertex 14.6281 1.58472 3
    endloop
  endfacet
  facet normal -0 0 1
    outer loop
      vertex 7.66754 5.46164 3
      vertex 14.6281 1.58472 3
      vertex 7.89249 5.90106 3
    endloop
  endfacet
  facet normal 0 0 1
    outer loop
      vertex 14.6281 1.58472 3
      vertex 7.66754 5.46164 3
      vertex 13.7906 0.510086 3
    endloop
  endfacet
  facet normal -0 0 1
    outer loop
      vertex 7.4017 5.05649 3
      vertex 13.7906 0.510086 3
      vertex 7.66754 5.46164 3
    endloop
  endfacet
  facet normal 0 0 1
    outer loop
      vertex 13.7906 0.510086 3
      vertex 7.4017 5.05649 3
      vertex 12.8007 -0.444489 3
    endloop
  endfacet
  facet normal -0 0 1
    outer loop
      vertex 7.09691 4.6843 3
      vertex 12.8007 -0.444489 3
      vertex 7.4017 5.05649 3
    endloop
  endfacet
  facet normal 0 0 1
    outer loop
      vertex 12.8007 -0.444489 3
      vertex 7.09691 4.6843 3
      vertex 11.6602 -1.2749 3
    endloop
  endfacet
  facet normal -0 0 1
    outer loop
      vertex 6.7551 4.34311 3
      vertex 11.6602 -1.2749 3
      vertex 7.09691 4.6843 3
    endloop
  endfacet
  facet normal 0 0 1
    outer loop
      vertex 11.6602 -1.2749 3
      vertex 6.7551 4.34311 3
      vertex 10.3707 -1.97755 3
    endloop
  endfacet
  facet normal -0 0 1
    outer loop
      vertex 6.37625 4.03294 3
      vertex 10.3707 -1.97755 3
      vertex 6.7551 4.34311 3
    endloop
  endfacet
  facet normal 0 0 1
    outer loop
      vertex 10.3707 -1.97755 3
      vertex 6.37625 4.03294 3
      vertex 8.9323 -2.55244 3
    endloop
  endfacet
  facet normal -0 0 1
    outer loop
      vertex 5.9604 3.7538 3
      vertex 8.9323 -2.55244 3
      vertex 6.37625 4.03294 3
    endloop
  endfacet
  facet normal -0 0 1
    outer loop
      vertex 5.50752 3.50568 3
      vertex 8.9323 -2.55244 3
      vertex 5.9604 3.7538 3
    endloop
  endfacet
  facet normal 0 0 1
    outer loop
      vertex 8.9323 -2.55244 3
      vertex 5.50752 3.50568 3
      vertex 7.34486 -2.99959 3
    endloop
  endfacet
  facet normal -0 0 1
    outer loop
      vertex 5.01762 3.28857 3
      vertex 7.34486 -2.99959 3
      vertex 5.50752 3.50568 3
    endloop
  endfacet
  facet normal 0 0 1
    outer loop
      vertex 7.34486 -2.99959 3
      vertex 5.01762 3.28857 3
      vertex 5.60846 -3.31898 3
    endloop
  endfacet
  facet normal -0 0 1
    outer loop
      vertex 4.49071 3.10249 3
      vertex 5.60846 -3.31898 3
      vertex 5.01762 3.28857 3
    endloop
  endfacet
  facet normal -0 0 1
    outer loop
      vertex 3.92622 2.94411 3
      vertex 5.60846 -3.31898 3
      vertex 4.49071 3.10249 3
    endloop
  endfacet
  facet normal 0 0 1
    outer loop
      vertex 3.92622 2.94411 3
      vertex 3.72307 -3.51062 3
      vertex 5.60846 -3.31898 3
    endloop
  endfacet
  facet normal -0 0 1
    outer loop
      vertex 3.32361 2.81009 3
      vertex 3.72307 -3.51062 3
      vertex 3.92622 2.94411 3
    endloop
  endfacet
  facet normal -0 0 1
    outer loop
      vertex 2.68288 2.70042 3
      vertex 3.72307 -3.51062 3
      vertex 3.32361 2.81009 3
    endloop
  endfacet
  facet normal -0 0 1
    outer loop
      vertex 2.00401 2.61514 3
      vertex 3.72307 -3.51062 3
      vertex 2.68288 2.70042 3
    endloop
  endfacet
  facet normal 0 0 1
    outer loop
      vertex 2.00401 2.61514 3
      vertex 1.68871 -3.57449 3
      vertex 3.72307 -3.51062 3
    endloop
  endfacet
  facet normal -0 0 1
    outer loop
      vertex 1.28703 2.55423 3
      vertex 1.68871 -3.57449 3
      vertex 2.00401 2.61514 3
    endloop
  endfacet
  facet normal -0 0 1
    outer loop
      vertex 0.531937 2.51767 3
      vertex 1.68871 -3.57449 3
      vertex 1.28703 2.55423 3
    endloop
  endfacet
  facet normal -0 0 1
    outer loop
      vertex -0.261276 2.50549 3
      vertex 1.68871 -3.57449 3
      vertex 0.531937 2.51767 3
    endloop
  endfacet
  facet normal 0 0 1
    outer loop
      vertex -5.67628 -3.57449 3
      vertex -0.261276 2.50549 3
      vertex -5.67628 2.50549 3
    endloop
  endfacet
  facet normal 0 0 1
    outer loop
      vertex -0.261276 2.50549 3
      vertex -5.67628 -3.57449 3
      vertex 1.68871 -3.57449 3
    endloop
  endfacet
  facet normal 0.164064 -0.98645 0
    outer loop
      vertex -9.21017 -19.741 1.5
      vertex -8.75044 -19.6645 3
      vertex -9.21017 -19.741 3
    endloop
  endfacet
  facet normal 0.164064 -0.98645 0
    outer loop
      vertex -8.75044 -19.6645 3
      vertex -9.21017 -19.741 1.5
      vertex -8.75044 -19.6645 1.5
    endloop
  endfacet
  facet normal 0.280966 -0.959718 0
    outer loop
      vertex -8.75044 -19.6645 1.5
      vertex -8.31508 -19.5371 3
      vertex -8.75044 -19.6645 3
    endloop
  endfacet
  facet normal 0.280966 -0.959718 0
    outer loop
      vertex -8.31508 -19.5371 3
      vertex -8.75044 -19.6645 1.5
      vertex -8.31508 -19.5371 1.5
    endloop
  endfacet
  facet normal 0.398202 -0.917298 0
    outer loop
      vertex -8.31508 -19.5371 1.5
      vertex -7.90407 -19.3587 3
      vertex -8.31508 -19.5371 3
    endloop
  endfacet
  facet normal 0.398202 -0.917298 0
    outer loop
      vertex -7.90407 -19.3587 3
      vertex -8.31508 -19.5371 1.5
      vertex -7.90407 -19.3587 1.5
    endloop
  endfacet
  facet normal 0.510302 -0.859995 0
    outer loop
      vertex -7.90407 -19.3587 1.5
      vertex -7.51744 -19.1292 3
      vertex -7.90407 -19.3587 3
    endloop
  endfacet
  facet normal 0.510302 -0.859995 0
    outer loop
      vertex -7.51744 -19.1292 3
      vertex -7.90407 -19.3587 1.5
      vertex -7.51744 -19.1292 1.5
    endloop
  endfacet
  facet normal 0.612066 -0.790806 0
    outer loop
      vertex -7.51744 -19.1292 1.5
      vertex -7.15518 -18.8489 3
      vertex -7.51744 -19.1292 3
    endloop
  endfacet
  facet normal 0.612066 -0.790806 0
    outer loop
      vertex -7.15518 -18.8489 3
      vertex -7.51744 -19.1292 1.5
      vertex -7.15518 -18.8489 1.5
    endloop
  endfacet
  facet normal 0.700174 -0.713973 0
    outer loop
      vertex -7.15518 -18.8489 1.5
      vertex -6.81728 -18.5175 3
      vertex -7.15518 -18.8489 3
    endloop
  endfacet
  facet normal 0.700174 -0.713973 0
    outer loop
      vertex -6.81728 -18.5175 3
      vertex -7.15518 -18.8489 1.5
      vertex -6.81728 -18.5175 1.5
    endloop
  endfacet
  facet normal 0.782924 -0.622118 0
    outer loop
      vertex -6.81728 -18.5175 3
      vertex -6.51456 -18.1365 1.5
      vertex -6.51456 -18.1365 3
    endloop
  endfacet
  facet normal 0.782924 -0.622118 0
    outer loop
      vertex -6.51456 -18.1365 1.5
      vertex -6.81728 -18.5175 3
      vertex -6.81728 -18.5175 1.5
    endloop
  endfacet
  facet normal 0.858432 -0.512927 0
    outer loop
      vertex -6.51456 -18.1365 3
      vertex -6.25842 -17.7079 1.5
      vertex -6.25842 -17.7079 3
    endloop
  endfacet
  facet normal 0.858432 -0.512927 0
    outer loop
      vertex -6.25842 -17.7079 1.5
      vertex -6.51456 -18.1365 3
      vertex -6.51456 -18.1365 1.5
    endloop
  endfacet
  facet normal 0.915315 -0.402738 0
    outer loop
      vertex -6.25842 -17.7079 3
      vertex -6.04884 -17.2315 1.5
      vertex -6.04884 -17.2315 3
    endloop
  endfacet
  facet normal 0.915315 -0.402738 0
    outer loop
      vertex -6.04884 -17.2315 1.5
      vertex -6.25842 -17.7079 3
      vertex -6.25842 -17.7079 1.5
    endloop
  endfacet
  facet normal 0.954871 -0.297019 0
    outer loop
      vertex -6.04884 -17.2315 3
      vertex -5.88585 -16.7075 1.5
      vertex -5.88585 -16.7075 3
    endloop
  endfacet
  facet normal 0.954871 -0.297019 0
    outer loop
      vertex -5.88585 -16.7075 1.5
      vertex -6.04884 -17.2315 3
      vertex -6.04884 -17.2315 1.5
    endloop
  endfacet
  facet normal 0.979886 -0.19956 0
    outer loop
      vertex -5.88585 -16.7075 3
      vertex -5.76942 -16.1359 1.5
      vertex -5.76942 -16.1359 3
    endloop
  endfacet
  facet normal 0.979886 -0.19956 0
    outer loop
      vertex -5.76942 -16.1359 1.5
      vertex -5.88585 -16.7075 3
      vertex -5.88585 -16.7075 1.5
    endloop
  endfacet
  facet normal 0.9937 -0.112076 0
    outer loop
      vertex -5.76942 -16.1359 3
      vertex -5.69957 -15.5165 1.5
      vertex -5.69957 -15.5165 3
    endloop
  endfacet
  facet normal 0.9937 -0.112076 0
    outer loop
      vertex -5.69957 -15.5165 1.5
      vertex -5.76942 -16.1359 3
      vertex -5.76942 -16.1359 1.5
    endloop
  endfacet
  facet normal 0.999391 -0.0348875 0
    outer loop
      vertex -5.69957 -15.5165 3
      vertex -5.67628 -14.8495 1.5
      vertex -5.67628 -14.8495 3
    endloop
  endfacet
  facet normal 0.999391 -0.0348875 0
    outer loop
      vertex -5.67628 -14.8495 1.5
      vertex -5.69957 -15.5165 3
      vertex -5.69957 -15.5165 1.5
    endloop
  endfacet
  facet normal 1 -0 0
    outer loop
      vertex -5.67628 -14.8495 3
      vertex -5.67628 -3.57449 1.5
      vertex -5.67628 -3.57449 3
    endloop
  endfacet
  facet normal 1 0 0
    outer loop
      vertex -5.67628 -3.57449 1.5
      vertex -5.67628 -14.8495 3
      vertex -5.67628 -14.8495 1.5
    endloop
  endfacet
  facet normal 0 -1 0
    outer loop
      vertex -5.67628 -3.57449 1.5
      vertex 1.68871 -3.57449 3
      vertex -5.67628 -3.57449 3
    endloop
  endfacet
  facet normal 0 -1 -0
    outer loop
      vertex 1.68871 -3.57449 3
      vertex -5.67628 -3.57449 1.5
      vertex 1.68871 -3.57449 1.5
    endloop
  endfacet
  facet normal 0.0313817 -0.999507 0
    outer loop
      vertex 1.68871 -3.57449 1.5
      vertex 3.72307 -3.51062 3
      vertex 1.68871 -3.57449 3
    endloop
  endfacet
  facet normal 0.0313817 -0.999507 0
    outer loop
      vertex 3.72307 -3.51062 3
      vertex 1.68871 -3.57449 1.5
      vertex 3.72307 -3.51062 1.5
    endloop
  endfacet
  facet normal 0.101121 -0.994874 0
    outer loop
      vertex 3.72307 -3.51062 1.5
      vertex 5.60846 -3.31898 3
      vertex 3.72307 -3.51062 3
    endloop
  endfacet
  facet normal 0.101121 -0.994874 0
    outer loop
      vertex 5.60846 -3.31898 3
      vertex 3.72307 -3.51062 1.5
      vertex 5.60846 -3.31898 1.5
    endloop
  endfacet
  facet normal 0.180907 -0.9835 0
    outer loop
      vertex 5.60846 -3.31898 1.5
      vertex 7.34486 -2.99959 3
      vertex 5.60846 -3.31898 3
    endloop
  endfacet
  facet normal 0.180907 -0.9835 0
    outer loop
      vertex 7.34486 -2.99959 3
      vertex 5.60846 -3.31898 1.5
      vertex 7.34486 -2.99959 1.5
    endloop
  endfacet
  facet normal 0.271127 -0.962544 0
    outer loop
      vertex 7.34486 -2.99959 1.5
      vertex 8.9323 -2.55244 3
      vertex 7.34486 -2.99959 3
    endloop
  endfacet
  facet normal 0.271127 -0.962544 0
    outer loop
      vertex 8.9323 -2.55244 3
      vertex 7.34486 -2.99959 1.5
      vertex 8.9323 -2.55244 1.5
    endloop
  endfacet
  facet normal 0.371119 -0.928585 0
    outer loop
      vertex 8.9323 -2.55244 1.5
      vertex 10.3707 -1.97755 3
      vertex 8.9323 -2.55244 3
    endloop
  endfacet
  facet normal 0.371119 -0.928585 0
    outer loop
      vertex 10.3707 -1.97755 3
      vertex 8.9323 -2.55244 1.5
      vertex 10.3707 -1.97755 1.5
    endloop
  endfacet
  facet normal 0.478486 -0.878095 0
    outer loop
      vertex 10.3707 -1.97755 1.5
      vertex 11.6602 -1.2749 3
      vertex 10.3707 -1.97755 3
    endloop
  endfacet
  facet normal 0.478486 -0.878095 0
    outer loop
      vertex 11.6602 -1.2749 3
      vertex 10.3707 -1.97755 1.5
      vertex 11.6602 -1.2749 1.5
    endloop
  endfacet
  facet normal 0.58862 -0.808409 0
    outer loop
      vertex 11.6602 -1.2749 1.5
      vertex 12.8007 -0.444489 3
      vertex 11.6602 -1.2749 3
    endloop
  endfacet
  facet normal 0.58862 -0.808409 0
    outer loop
      vertex 12.8007 -0.444489 3
      vertex 11.6602 -1.2749 1.5
      vertex 12.8007 -0.444489 1.5
    endloop
  endfacet
  facet normal 0.694163 -0.719818 0
    outer loop
      vertex 12.8007 -0.444489 1.5
      vertex 13.7906 0.510086 3
      vertex 12.8007 -0.444489 3
    endloop
  endfacet
  facet normal 0.694163 -0.719818 0
    outer loop
      vertex 13.7906 0.510086 3
      vertex 12.8007 -0.444489 1.5
      vertex 13.7906 0.510086 1.5
    endloop
  endfacet
  facet normal 0.788725 -0.614746 0
    outer loop
      vertex 13.7906 0.510086 3
      vertex 14.6281 1.58472 1.5
      vertex 14.6281 1.58472 3
    endloop
  endfacet
  facet normal 0.788725 -0.614746 0
    outer loop
      vertex 14.6281 1.58472 1.5
      vertex 13.7906 0.510086 3
      vertex 13.7906 0.510086 1.5
    endloop
  endfacet
  facet normal 0.867428 -0.497563 0
    outer loop
      vertex 14.6281 1.58472 3
      vertex 15.3134 2.77939 1.5
      vertex 15.3134 2.77939 3
    endloop
  endfacet
  facet normal 0.867428 -0.497563 0
    outer loop
      vertex 15.3134 2.77939 1.5
      vertex 14.6281 1.58472 3
      vertex 14.6281 1.58472 1.5
    endloop
  endfacet
  facet normal 0.926736 -0.375713 0
    outer loop
      vertex 15.3134 2.77939 3
      vertex 15.8464 4.0941 1.5
      vertex 15.8464 4.0941 3
    endloop
  endfacet
  facet normal 0.926736 -0.375713 0
    outer loop
      vertex 15.8464 4.0941 1.5
      vertex 15.3134 2.77939 3
      vertex 15.3134 2.77939 1.5
    endloop
  endfacet
  facet normal 0.966549 -0.256481 0
    outer loop
      vertex 15.8464 4.0941 3
      vertex 16.2271 5.52885 1.5
      vertex 16.2271 5.52885 3
    endloop
  endfacet
  facet normal 0.966549 -0.256481 0
    outer loop
      vertex 16.2271 5.52885 1.5
      vertex 15.8464 4.0941 3
      vertex 15.8464 4.0941 1.5
    endloop
  endfacet
  facet normal 0.989379 -0.145356 0
    outer loop
      vertex 16.2271 5.52885 3
      vertex 16.4556 7.08365 1.5
      vertex 16.4556 7.08365 3
    endloop
  endfacet
  facet normal 0.989379 -0.145356 0
    outer loop
      vertex 16.4556 7.08365 1.5
      vertex 16.2271 5.52885 3
      vertex 16.2271 5.52885 1.5
    endloop
  endfacet
  facet normal 0.998968 -0.0454147 0
    outer loop
      vertex 16.4556 7.08365 3
      vertex 16.5317 8.7585 1.5
      vertex 16.5317 8.7585 3
    endloop
  endfacet
  facet normal 0.998968 -0.0454147 0
    outer loop
      vertex 16.5317 8.7585 1.5
      vertex 16.4556 7.08365 3
      vertex 16.4556 7.08365 1.5
    endloop
  endfacet
  facet normal 0.999727 0.0233712 0
    outer loop
      vertex 16.5317 8.7585 3
      vertex 16.513 9.56003 1.5
      vertex 16.513 9.56003 3
    endloop
  endfacet
  facet normal 0.999727 0.0233712 0
    outer loop
      vertex 16.513 9.56003 1.5
      vertex 16.5317 8.7585 3
      vertex 16.5317 8.7585 1.5
    endloop
  endfacet
  facet normal 0.997403 0.0720183 0
    outer loop
      vertex 16.513 9.56003 3
      vertex 16.4568 10.3383 1.5
      vertex 16.4568 10.3383 3
    endloop
  endfacet
  facet normal 0.997403 0.0720183 0
    outer loop
      vertex 16.4568 10.3383 1.5
      vertex 16.513 9.56003 3
      vertex 16.513 9.56003 1.5
    endloop
  endfacet
  facet normal 0.992393 0.123114 0
    outer loop
      vertex 16.4568 10.3383 3
      vertex 16.3631 11.0934 1.5
      vertex 16.3631 11.0934 3
    endloop
  endfacet
  facet normal 0.992393 0.123114 0
    outer loop
      vertex 16.3631 11.0934 1.5
      vertex 16.4568 10.3383 3
      vertex 16.4568 10.3383 1.5
    endloop
  endfacet
  facet normal 0.98432 0.176391 0
    outer loop
      vertex 16.3631 11.0934 3
      vertex 16.2319 11.8253 1.5
      vertex 16.2319 11.8253 3
    endloop
  endfacet
  facet normal 0.98432 0.176391 0
    outer loop
      vertex 16.2319 11.8253 1.5
      vertex 16.3631 11.0934 3
      vertex 16.3631 11.0934 1.5
    endloop
  endfacet
  facet normal 0.972841 0.231474 0
    outer loop
      vertex 16.2319 11.8253 3
      vertex 16.0633 12.5339 1.5
      vertex 16.0633 12.5339 3
    endloop
  endfacet
  facet normal 0.972841 0.231474 0
    outer loop
      vertex 16.0633 12.5339 1.5
      vertex 16.2319 11.8253 3
      vertex 16.2319 11.8253 1.5
    endloop
  endfacet
  facet normal 0.957648 0.28794 0
    outer loop
      vertex 16.0633 12.5339 3
      vertex 15.8573 13.2193 1.5
      vertex 15.8573 13.2193 3
    endloop
  endfacet
  facet normal 0.957648 0.28794 0
    outer loop
      vertex 15.8573 13.2193 1.5
      vertex 16.0633 12.5339 3
      vertex 16.0633 12.5339 1.5
    endloop
  endfacet
  facet normal 0.938532 0.345191 0
    outer loop
      vertex 15.8573 13.2193 3
      vertex 15.6137 13.8815 1.5
      vertex 15.6137 13.8815 3
    endloop
  endfacet
  facet normal 0.938532 0.345191 0
    outer loop
      vertex 15.6137 13.8815 1.5
      vertex 15.8573 13.2193 3
      vertex 15.8573 13.2193 1.5
    endloop
  endfacet
  facet normal 0.91546 0.402409 0
    outer loop
      vertex 15.6137 13.8815 3
      vertex 15.3341 14.5177 1.5
      vertex 15.3341 14.5177 3
    endloop
  endfacet
  facet normal 0.91546 0.402409 0
    outer loop
      vertex 15.3341 14.5177 1.5
      vertex 15.6137 13.8815 3
      vertex 15.6137 13.8815 1.5
    endloop
  endfacet
  facet normal 0.888093 0.459663 0
    outer loop
      vertex 15.3341 14.5177 3
      vertex 15.0197 15.1251 1.5
      vertex 15.0197 15.1251 3
    endloop
  endfacet
  facet normal 0.888093 0.459663 0
    outer loop
      vertex 15.0197 15.1251 1.5
      vertex 15.3341 14.5177 3
      vertex 15.3341 14.5177 1.5
    endloop
  endfacet
  facet normal 0.856221 0.516609 0
    outer loop
      vertex 15.0197 15.1251 3
      vertex 14.6705 15.7037 1.5
      vertex 14.6705 15.7037 3
    endloop
  endfacet
  facet normal 0.856221 0.516609 0
    outer loop
      vertex 14.6705 15.7037 1.5
      vertex 15.0197 15.1251 3
      vertex 15.0197 15.1251 1.5
    endloop
  endfacet
  facet normal 0.819953 0.572431 0
    outer loop
      vertex 14.6705 15.7037 3
      vertex 14.2867 16.2536 1.5
      vertex 14.2867 16.2536 3
    endloop
  endfacet
  facet normal 0.819953 0.572431 0
    outer loop
      vertex 14.2867 16.2536 1.5
      vertex 14.6705 15.7037 3
      vertex 14.6705 15.7037 1.5
    endloop
  endfacet
  facet normal 0.779609 0.626267 0
    outer loop
      vertex 14.2867 16.2536 3
      vertex 13.8681 16.7747 1.5
      vertex 13.8681 16.7747 3
    endloop
  endfacet
  facet normal 0.779609 0.626267 0
    outer loop
      vertex 13.8681 16.7747 1.5
      vertex 14.2867 16.2536 3
      vertex 14.2867 16.2536 1.5
    endloop
  endfacet
  facet normal 0.735634 0.677379 0
    outer loop
      vertex 13.8681 16.7747 3
      vertex 13.4148 17.267 1.5
      vertex 13.4148 17.267 3
    endloop
  endfacet
  facet normal 0.735634 0.677379 0
    outer loop
      vertex 13.4148 17.267 1.5
      vertex 13.8681 16.7747 3
      vertex 13.8681 16.7747 1.5
    endloop
  endfacet
  facet normal 0.688657 0.725087 -0
    outer loop
      vertex 13.4148 17.267 1.5
      vertex 12.9267 17.7305 3
      vertex 13.4148 17.267 3
    endloop
  endfacet
  facet normal 0.688657 0.725087 0
    outer loop
      vertex 12.9267 17.7305 3
      vertex 13.4148 17.267 1.5
      vertex 12.9267 17.7305 1.5
    endloop
  endfacet
  facet normal 0.638835 0.769344 -0
    outer loop
      vertex 12.9267 17.7305 1.5
      vertex 12.4078 18.1614 3
      vertex 12.9267 17.7305 3
    endloop
  endfacet
  facet normal 0.638835 0.769344 0
    outer loop
      vertex 12.4078 18.1614 3
      vertex 12.9267 17.7305 1.5
      vertex 12.4078 18.1614 1.5
    endloop
  endfacet
  facet normal 0.585636 0.810574 -0
    outer loop
      vertex 12.4078 18.1614 1.5
      vertex 11.8619 18.5558 3
      vertex 12.4078 18.1614 3
    endloop
  endfacet
  facet normal 0.585636 0.810574 0
    outer loop
      vertex 11.8619 18.5558 3
      vertex 12.4078 18.1614 1.5
      vertex 11.8619 18.5558 1.5
    endloop
  endfacet
  facet normal 0.529853 0.84809 -0
    outer loop
      vertex 11.8619 18.5558 1.5
      vertex 11.289 18.9137 3
      vertex 11.8619 18.5558 3
    endloop
  endfacet
  facet normal 0.529853 0.84809 0
    outer loop
      vertex 11.289 18.9137 3
      vertex 11.8619 18.5558 1.5
      vertex 11.289 18.9137 1.5
    endloop
  endfacet
  facet normal 0.472309 0.881433 -0
    outer loop
      vertex 11.289 18.9137 1.5
      vertex 10.6892 19.2351 3
      vertex 11.289 18.9137 3
    endloop
  endfacet
  facet normal 0.472309 0.881433 0
    outer loop
      vertex 10.6892 19.2351 3
      vertex 11.289 18.9137 1.5
      vertex 10.6892 19.2351 1.5
    endloop
  endfacet
  facet normal 0.413818 0.91036 -0
    outer loop
      vertex 10.6892 19.2351 1.5
      vertex 10.0623 19.5201 3
      vertex 10.6892 19.2351 3
    endloop
  endfacet
  facet normal 0.413818 0.91036 0
    outer loop
      vertex 10.0623 19.5201 3
      vertex 10.6892 19.2351 1.5
      vertex 10.0623 19.5201 1.5
    endloop
  endfacet
  facet normal 0.355232 0.934778 -0
    outer loop
      vertex 10.0623 19.5201 1.5
      vertex 9.40851 19.7685 3
      vertex 10.0623 19.5201 3
    endloop
  endfacet
  facet normal 0.355232 0.934778 0
    outer loop
      vertex 9.40851 19.7685 3
      vertex 10.0623 19.5201 1.5
      vertex 9.40851 19.7685 1.5
    endloop
  endfacet
  facet normal 0.297265 0.954795 -0
    outer loop
      vertex 9.40851 19.7685 1.5
      vertex 8.72771 19.9805 3
      vertex 9.40851 19.7685 3
    endloop
  endfacet
  facet normal 0.297265 0.954795 0
    outer loop
      vertex 8.72771 19.9805 3
      vertex 9.40851 19.7685 1.5
      vertex 8.72771 19.9805 1.5
    endloop
  endfacet
  facet normal 0.241361 0.970435 -0
    outer loop
      vertex 8.72771 19.9805 1.5
      vertex 7.97997 20.1665 3
      vertex 8.72771 19.9805 3
    endloop
  endfacet
  facet normal 0.241361 0.970435 0
    outer loop
      vertex 7.97997 20.1665 3
      vertex 8.72771 19.9805 1.5
      vertex 7.97997 20.1665 1.5
    endloop
  endfacet
  facet normal 0.185401 0.982663 -0
    outer loop
      vertex 7.97997 20.1665 1.5
      vertex 7.1459 20.3238 3
      vertex 7.97997 20.1665 3
    endloop
  endfacet
  facet normal 0.185401 0.982663 0
    outer loop
      vertex 7.1459 20.3238 3
      vertex 7.97997 20.1665 1.5
      vertex 7.1459 20.3238 1.5
    endloop
  endfacet
  facet normal 0.138543 0.990356 -0
    outer loop
      vertex 7.1459 20.3238 1.5
      vertex 6.22552 20.4526 3
      vertex 7.1459 20.3238 3
    endloop
  endfacet
  facet normal 0.138543 0.990356 0
    outer loop
      vertex 6.22552 20.4526 3
      vertex 7.1459 20.3238 1.5
      vertex 6.22552 20.4526 1.5
    endloop
  endfacet
  facet normal 0.098987 0.995089 -0
    outer loop
      vertex 6.22552 20.4526 1.5
      vertex 5.21881 20.5527 3
      vertex 6.22552 20.4526 3
    endloop
  endfacet
  facet normal 0.098987 0.995089 0
    outer loop
      vertex 5.21881 20.5527 3
      vertex 6.22552 20.4526 1.5
      vertex 5.21881 20.5527 1.5
    endloop
  endfacet
  facet normal 0.0653041 0.997865 -0
    outer loop
      vertex 5.21881 20.5527 1.5
      vertex 4.12576 20.6243 3
      vertex 5.21881 20.5527 3
    endloop
  endfacet
  facet normal 0.0653041 0.997865 0
    outer loop
      vertex 4.12576 20.6243 3
      vertex 5.21881 20.5527 1.5
      vertex 4.12576 20.6243 1.5
    endloop
  endfacet
  facet normal 0.0363708 0.999338 -0
    outer loop
      vertex 4.12576 20.6243 1.5
      vertex 2.9464 20.6672 3
      vertex 4.12576 20.6243 3
    endloop
  endfacet
  facet normal 0.0363708 0.999338 0
    outer loop
      vertex 2.9464 20.6672 3
      vertex 4.12576 20.6243 1.5
      vertex 2.9464 20.6672 1.5
    endloop
  endfacet
  facet normal 0.0112955 0.999936 -0
    outer loop
      vertex 2.9464 20.6672 1.5
      vertex 1.68071 20.6815 3
      vertex 2.9464 20.6672 3
    endloop
  endfacet
  facet normal 0.0112955 0.999936 0
    outer loop
      vertex 1.68071 20.6815 3
      vertex 2.9464 20.6672 1.5
      vertex 1.68071 20.6815 1.5
    endloop
  endfacet
  facet normal 0 1 -0
    outer loop
      vertex 1.68071 20.6815 1.5
      vertex -8.64528 20.6815 3
      vertex 1.68071 20.6815 3
    endloop
  endfacet
  facet normal 0 1 0
    outer loop
      vertex -8.64528 20.6815 3
      vertex 1.68071 20.6815 1.5
      vertex -8.64528 20.6815 1.5
    endloop
  endfacet
  facet normal -0.0318587 0.999492 0
    outer loop
      vertex -8.64528 20.6815 1.5
      vertex -9.37483 20.6582 3
      vertex -8.64528 20.6815 3
    endloop
  endfacet
  facet normal -0.0318587 0.999492 0
    outer loop
      vertex -9.37483 20.6582 3
      vertex -8.64528 20.6815 1.5
      vertex -9.37483 20.6582 1.5
    endloop
  endfacet
  facet normal -0.10349 0.994631 0
    outer loop
      vertex -9.37483 20.6582 1.5
      vertex -10.0458 20.5884 3
      vertex -9.37483 20.6582 3
    endloop
  endfacet
  facet normal -0.10349 0.994631 0
    outer loop
      vertex -10.0458 20.5884 3
      vertex -9.37483 20.6582 1.5
      vertex -10.0458 20.5884 1.5
    endloop
  endfacet
  facet normal -0.18662 0.982432 0
    outer loop
      vertex -10.0458 20.5884 1.5
      vertex -10.6581 20.4721 3
      vertex -10.0458 20.5884 3
    endloop
  endfacet
  facet normal -0.18662 0.982432 0
    outer loop
      vertex -10.6581 20.4721 3
      vertex -10.0458 20.5884 1.5
      vertex -10.6581 20.4721 1.5
    endloop
  endfacet
  facet normal -0.282168 0.959365 0
    outer loop
      vertex -10.6581 20.4721 1.5
      vertex -11.2118 20.3092 3
      vertex -10.6581 20.4721 3
    endloop
  endfacet
  facet normal -0.282168 0.959365 0
    outer loop
      vertex -11.2118 20.3092 3
      vertex -10.6581 20.4721 1.5
      vertex -11.2118 20.3092 1.5
    endloop
  endfacet
  facet normal -0.38953 0.921014 0
    outer loop
      vertex -11.2118 20.3092 1.5
      vertex -11.7069 20.0999 3
      vertex -11.2118 20.3092 3
    endloop
  endfacet
  facet normal -0.38953 0.921014 0
    outer loop
      vertex -11.7069 20.0999 3
      vertex -11.2118 20.3092 1.5
      vertex -11.7069 20.0999 1.5
    endloop
  endfacet
  facet normal -0.505764 0.862672 0
    outer loop
      vertex -11.7069 20.0999 1.5
      vertex -12.1434 19.8439 3
      vertex -11.7069 20.0999 3
    endloop
  endfacet
  facet normal -0.505764 0.862672 0
    outer loop
      vertex -12.1434 19.8439 3
      vertex -11.7069 20.0999 1.5
      vertex -12.1434 19.8439 1.5
    endloop
  endfacet
  facet normal -0.624903 0.780703 0
    outer loop
      vertex -12.1434 19.8439 1.5
      vertex -12.5213 19.5415 3
      vertex -12.1434 19.8439 3
    endloop
  endfacet
  facet normal -0.624903 0.780703 0
    outer loop
      vertex -12.5213 19.5415 3
      vertex -12.1434 19.8439 1.5
      vertex -12.5213 19.5415 1.5
    endloop
  endfacet
  facet normal -0.740578 0.67197 0
    outer loop
      vertex -12.8447 19.1851 1.5
      vertex -12.5213 19.5415 3
      vertex -12.5213 19.5415 1.5
    endloop
  endfacet
  facet normal -0.740578 0.67197 0
    outer loop
      vertex -12.5213 19.5415 3
      vertex -12.8447 19.1851 1.5
      vertex -12.8447 19.1851 3
    endloop
  endfacet
  facet normal -0.83691 0.54734 0
    outer loop
      vertex -13.1183 18.7666 1.5
      vertex -12.8447 19.1851 3
      vertex -12.8447 19.1851 1.5
    endloop
  endfacet
  facet normal -0.83691 0.54734 0
    outer loop
      vertex -12.8447 19.1851 3
      vertex -13.1183 18.7666 1.5
      vertex -13.1183 18.7666 3
    endloop
  endfacet
  facet normal -0.906393 0.422436 0
    outer loop
      vertex -13.3422 18.2862 1.5
      vertex -13.1183 18.7666 3
      vertex -13.1183 18.7666 1.5
    endloop
  endfacet
  facet normal -0.906393 0.422436 0
    outer loop
      vertex -13.1183 18.7666 3
      vertex -13.3422 18.2862 1.5
      vertex -13.3422 18.2862 3
    endloop
  endfacet
  facet normal -0.952141 0.305658 0
    outer loop
      vertex -13.5164 17.7438 1.5
      vertex -13.3422 18.2862 3
      vertex -13.3422 18.2862 1.5
    endloop
  endfacet
  facet normal -0.952141 0.305658 0
    outer loop
      vertex -13.3422 18.2862 3
      vertex -13.5164 17.7438 1.5
      vertex -13.5164 17.7438 3
    endloop
  endfacet
  facet normal -0.979474 0.201572 0
    outer loop
      vertex -13.6408 17.1393 1.5
      vertex -13.5164 17.7438 3
      vertex -13.5164 17.7438 1.5
    endloop
  endfacet
  facet normal -0.979474 0.201572 0
    outer loop
      vertex -13.5164 17.7438 3
      vertex -13.6408 17.1393 1.5
      vertex -13.6408 17.1393 3
    endloop
  endfacet
  facet normal -0.993788 0.111291 0
    outer loop
      vertex -13.7154 16.4729 1.5
      vertex -13.6408 17.1393 3
      vertex -13.6408 17.1393 1.5
    endloop
  endfacet
  facet normal -0.993788 0.111291 0
    outer loop
      vertex -13.6408 17.1393 3
      vertex -13.7154 16.4729 1.5
      vertex -13.7154 16.4729 3
    endloop
  endfacet
  facet normal -0.999417 0.0341457 0
    outer loop
      vertex -13.7403 15.7445 1.5
      vertex -13.7154 16.4729 3
      vertex -13.7154 16.4729 1.5
    endloop
  endfacet
  facet normal -0.999417 0.0341457 0
    outer loop
      vertex -13.7154 16.4729 3
      vertex -13.7403 15.7445 1.5
      vertex -13.7403 15.7445 3
    endloop
  endfacet
  facet normal -1 0 0
    outer loop
      vertex -13.7403 -14.9105 1.5
      vertex -13.7403 15.7445 3
      vertex -13.7403 15.7445 1.5
    endloop
  endfacet
  facet normal -1 -0 0
    outer loop
      vertex -13.7403 15.7445 3
      vertex -13.7403 -14.9105 1.5
      vertex -13.7403 -14.9105 3
    endloop
  endfacet
  facet normal -0.999405 -0.034483 0
    outer loop
      vertex -13.7176 -15.569 1.5
      vertex -13.7403 -14.9105 3
      vertex -13.7403 -14.9105 1.5
    endloop
  endfacet
  facet normal -0.999405 -0.034483 0
    outer loop
      vertex -13.7403 -14.9105 3
      vertex -13.7176 -15.569 1.5
      vertex -13.7176 -15.569 3
    endloop
  endfacet
  facet normal -0.993847 -0.110761 0
    outer loop
      vertex -13.6494 -16.1805 1.5
      vertex -13.7176 -15.569 3
      vertex -13.7176 -15.569 1.5
    endloop
  endfacet
  facet normal -0.993847 -0.110761 0
    outer loop
      vertex -13.7176 -15.569 3
      vertex -13.6494 -16.1805 1.5
      vertex -13.6494 -16.1805 3
    endloop
  endfacet
  facet normal -0.980353 -0.197253 0
    outer loop
      vertex -13.5358 -16.7449 1.5
      vertex -13.6494 -16.1805 3
      vertex -13.6494 -16.1805 1.5
    endloop
  endfacet
  facet normal -0.980353 -0.197253 0
    outer loop
      vertex -13.6494 -16.1805 3
      vertex -13.5358 -16.7449 1.5
      vertex -13.5358 -16.7449 3
    endloop
  endfacet
  facet normal -0.955889 -0.293729 0
    outer loop
      vertex -13.3768 -17.2623 1.5
      vertex -13.5358 -16.7449 3
      vertex -13.5358 -16.7449 1.5
    endloop
  endfacet
  facet normal -0.955889 -0.293729 0
    outer loop
      vertex -13.5358 -16.7449 3
      vertex -13.3768 -17.2623 1.5
      vertex -13.3768 -17.2623 3
    endloop
  endfacet
  facet normal -0.917145 -0.398553 0
    outer loop
      vertex -13.1724 -17.7327 1.5
      vertex -13.3768 -17.2623 3
      vertex -13.3768 -17.2623 1.5
    endloop
  endfacet
  facet normal -0.917145 -0.398553 0
    outer loop
      vertex -13.3768 -17.2623 3
      vertex -13.1724 -17.7327 1.5
      vertex -13.1724 -17.7327 3
    endloop
  endfacet
  facet normal -0.861211 -0.508247 0
    outer loop
      vertex -12.9226 -18.1561 1.5
      vertex -13.1724 -17.7327 3
      vertex -13.1724 -17.7327 1.5
    endloop
  endfacet
  facet normal -0.861211 -0.508247 0
    outer loop
      vertex -13.1724 -17.7327 3
      vertex -12.9226 -18.1561 1.5
      vertex -12.9226 -18.1561 3
    endloop
  endfacet
  facet normal -0.786746 -0.617276 0
    outer loop
      vertex -12.6273 -18.5325 1.5
      vertex -12.9226 -18.1561 3
      vertex -12.9226 -18.1561 1.5
    endloop
  endfacet
  facet normal -0.786746 -0.617276 0
    outer loop
      vertex -12.9226 -18.1561 3
      vertex -12.6273 -18.5325 1.5
      vertex -12.6273 -18.5325 3
    endloop
  endfacet
  facet normal -0.70169 -0.712482 0
    outer loop
      vertex -12.6273 -18.5325 1.5
      vertex -12.2948 -18.8599 3
      vertex -12.6273 -18.5325 3
    endloop
  endfacet
  facet normal -0.70169 -0.712482 -0
    outer loop
      vertex -12.2948 -18.8599 3
      vertex -12.6273 -18.5325 1.5
      vertex -12.2948 -18.8599 1.5
    endloop
  endfacet
  facet normal -0.608487 -0.793564 0
    outer loop
      vertex -12.2948 -18.8599 1.5
      vertex -11.9336 -19.1369 3
      vertex -12.2948 -18.8599 3
    endloop
  endfacet
  facet normal -0.608487 -0.793564 -0
    outer loop
      vertex -11.9336 -19.1369 3
      vertex -12.2948 -18.8599 1.5
      vertex -11.9336 -19.1369 1.5
    endloop
  endfacet
  facet normal -0.502339 -0.86467 0
    outer loop
      vertex -11.9336 -19.1369 1.5
      vertex -11.5434 -19.3636 3
      vertex -11.9336 -19.1369 3
    endloop
  endfacet
  facet normal -0.502339 -0.86467 -0
    outer loop
      vertex -11.5434 -19.3636 3
      vertex -11.9336 -19.1369 1.5
      vertex -11.5434 -19.3636 1.5
    endloop
  endfacet
  facet normal -0.387797 -0.921745 0
    outer loop
      vertex -11.5434 -19.3636 1.5
      vertex -11.1244 -19.5398 3
      vertex -11.5434 -19.3636 3
    endloop
  endfacet
  facet normal -0.387797 -0.921745 -0
    outer loop
      vertex -11.1244 -19.5398 3
      vertex -11.5434 -19.3636 1.5
      vertex -11.1244 -19.5398 1.5
    endloop
  endfacet
  facet normal -0.270655 -0.962676 0
    outer loop
      vertex -11.1244 -19.5398 1.5
      vertex -10.6766 -19.6658 3
      vertex -11.1244 -19.5398 3
    endloop
  endfacet
  facet normal -0.270655 -0.962676 -0
    outer loop
      vertex -10.6766 -19.6658 3
      vertex -11.1244 -19.5398 1.5
      vertex -10.6766 -19.6658 1.5
    endloop
  endfacet
  facet normal -0.156519 -0.987675 0
    outer loop
      vertex -10.6766 -19.6658 1.5
      vertex -10.1998 -19.7413 3
      vertex -10.6766 -19.6658 3
    endloop
  endfacet
  facet normal -0.156519 -0.987675 -0
    outer loop
      vertex -10.1998 -19.7413 3
      vertex -10.6766 -19.6658 1.5
      vertex -10.1998 -19.7413 1.5
    endloop
  endfacet
  facet normal -0.0497677 -0.998761 0
    outer loop
      vertex -10.1998 -19.7413 1.5
      vertex -9.69427 -19.7665 3
      vertex -10.1998 -19.7413 3
    endloop
  endfacet
  facet normal -0.0497677 -0.998761 -0
    outer loop
      vertex -9.69427 -19.7665 3
      vertex -10.1998 -19.7413 1.5
      vertex -9.69427 -19.7665 1.5
    endloop
  endfacet
  facet normal 0.0525968 -0.998616 0
    outer loop
      vertex -9.69427 -19.7665 1.5
      vertex -9.21017 -19.741 3
      vertex -9.69427 -19.7665 3
    endloop
  endfacet
  facet normal 0.0525968 -0.998616 0
    outer loop
      vertex -9.21017 -19.741 3
      vertex -9.69427 -19.7665 1.5
      vertex -9.21017 -19.741 1.5
    endloop
  endfacet
  facet normal 1 -0 0
    outer loop
      vertex -5.67628 2.50549 3
      vertex -5.67628 14.6655 1.5
      vertex -5.67628 14.6655 3
    endloop
  endfacet
  facet normal 1 0 0
    outer loop
      vertex -5.67628 14.6655 1.5
      vertex -5.67628 2.50549 3
      vertex -5.67628 2.50549 1.5
    endloop
  endfacet
  facet normal 0 -1 0
    outer loop
      vertex -5.67628 14.6655 1.5
      vertex -0.261276 14.6655 3
      vertex -5.67628 14.6655 3
    endloop
  endfacet
  facet normal 0 -1 -0
    outer loop
      vertex -0.261276 14.6655 3
      vertex -5.67628 14.6655 1.5
      vertex -0.261276 14.6655 1.5
    endloop
  endfacet
  facet normal -0.0245718 -0.999698 0
    outer loop
      vertex -0.261276 14.6655 1.5
      vertex 1.20381 14.6295 3
      vertex -0.261276 14.6655 3
    endloop
  endfacet
  facet normal -0.0245718 -0.999698 -0
    outer loop
      vertex 1.20381 14.6295 3
      vertex -0.261276 14.6655 1.5
      vertex 1.20381 14.6295 1.5
    endloop
  endfacet
  facet normal -0.0817896 -0.99665 0
    outer loop
      vertex 1.20381 14.6295 1.5
      vertex 2.51968 14.5215 3
      vertex 1.20381 14.6295 3
    endloop
  endfacet
  facet normal -0.0817896 -0.99665 -0
    outer loop
      vertex 2.51968 14.5215 3
      vertex 1.20381 14.6295 1.5
      vertex 2.51968 14.5215 1.5
    endloop
  endfacet
  facet normal -0.152489 -0.988305 0
    outer loop
      vertex 2.51968 14.5215 1.5
      vertex 3.68634 14.3415 3
      vertex 2.51968 14.5215 3
    endloop
  endfacet
  facet normal -0.152489 -0.988305 -0
    outer loop
      vertex 3.68634 14.3415 3
      vertex 2.51968 14.5215 1.5
      vertex 3.68634 14.3415 1.5
    endloop
  endfacet
  facet normal -0.240418 -0.970669 0
    outer loop
      vertex 3.68634 14.3415 1.5
      vertex 4.70377 14.0895 3
      vertex 3.68634 14.3415 3
    endloop
  endfacet
  facet normal -0.240418 -0.970669 -0
    outer loop
      vertex 4.70377 14.0895 3
      vertex 3.68634 14.3415 1.5
      vertex 4.70377 14.0895 1.5
    endloop
  endfacet
  facet normal -0.349634 -0.936886 0
    outer loop
      vertex 4.70377 14.0895 1.5
      vertex 5.57198 13.7655 3
      vertex 4.70377 14.0895 3
    endloop
  endfacet
  facet normal -0.349634 -0.936886 -0
    outer loop
      vertex 5.57198 13.7655 3
      vertex 4.70377 14.0895 1.5
      vertex 5.57198 13.7655 1.5
    endloop
  endfacet
  facet normal -0.48244 -0.875929 0
    outer loop
      vertex 5.57198 13.7655 1.5
      vertex 6.29095 13.3695 3
      vertex 5.57198 13.7655 3
    endloop
  endfacet
  facet normal -0.48244 -0.875929 -0
    outer loop
      vertex 6.29095 13.3695 3
      vertex 5.57198 13.7655 1.5
      vertex 6.29095 13.3695 1.5
    endloop
  endfacet
  facet normal -0.634735 -0.77273 0
    outer loop
      vertex 6.29095 13.3695 1.5
      vertex 6.8607 12.9015 3
      vertex 6.29095 13.3695 3
    endloop
  endfacet
  facet normal -0.634735 -0.77273 -0
    outer loop
      vertex 6.8607 12.9015 3
      vertex 6.29095 13.3695 1.5
      vertex 6.8607 12.9015 1.5
    endloop
  endfacet
  facet normal -0.769383 -0.638788 0
    outer loop
      vertex 7.27008 12.4084 1.5
      vertex 6.8607 12.9015 3
      vertex 6.8607 12.9015 1.5
    endloop
  endfacet
  facet normal -0.769383 -0.638788 0
    outer loop
      vertex 6.8607 12.9015 3
      vertex 7.27008 12.4084 1.5
      vertex 7.27008 12.4084 3
    endloop
  endfacet
  facet normal -0.838479 -0.544934 0
    outer loop
      vertex 7.61646 11.8755 1.5
      vertex 7.27008 12.4084 3
      vertex 7.27008 12.4084 1.5
    endloop
  endfacet
  facet normal -0.838479 -0.544934 0
    outer loop
      vertex 7.27008 12.4084 3
      vertex 7.61646 11.8755 1.5
      vertex 7.61646 11.8755 3
    endloop
  endfacet
  facet normal -0.896301 -0.443447 0
    outer loop
      vertex 7.89987 11.3026 1.5
      vertex 7.61646 11.8755 3
      vertex 7.61646 11.8755 1.5
    endloop
  endfacet
  facet normal -0.896301 -0.443447 0
    outer loop
      vertex 7.61646 11.8755 3
      vertex 7.89987 11.3026 1.5
      vertex 7.89987 11.3026 3
    endloop
  endfacet
  facet normal -0.940961 -0.338516 0
    outer loop
      vertex 8.1203 10.6899 1.5
      vertex 7.89987 11.3026 3
      vertex 7.89987 11.3026 1.5
    endloop
  endfacet
  facet normal -0.940961 -0.338516 0
    outer loop
      vertex 7.89987 11.3026 3
      vertex 8.1203 10.6899 1.5
      vertex 8.1203 10.6899 3
    endloop
  endfacet
  facet normal -0.97211 -0.234526 0
    outer loop
      vertex 8.27774 10.0373 1.5
      vertex 8.1203 10.6899 3
      vertex 8.1203 10.6899 1.5
    endloop
  endfacet
  facet normal -0.97211 -0.234526 0
    outer loop
      vertex 8.1203 10.6899 3
      vertex 8.27774 10.0373 1.5
      vertex 8.27774 10.0373 3
    endloop
  endfacet
  facet normal -0.99082 -0.135189 0
    outer loop
      vertex 8.37222 9.34483 1.5
      vertex 8.27774 10.0373 3
      vertex 8.27774 10.0373 1.5
    endloop
  endfacet
  facet normal -0.99082 -0.135189 0
    outer loop
      vertex 8.27774 10.0373 3
      vertex 8.37222 9.34483 1.5
      vertex 8.37222 9.34483 3
    endloop
  endfacet
  facet normal -0.999077 -0.042944 0
    outer loop
      vertex 8.4037 8.61249 1.5
      vertex 8.37222 9.34483 3
      vertex 8.37222 9.34483 1.5
    endloop
  endfacet
  facet normal -0.999077 -0.042944 0
    outer loop
      vertex 8.37222 9.34483 3
      vertex 8.4037 8.61249 1.5
      vertex 8.4037 8.61249 3
    endloop
  endfacet
  facet normal -0.99944 0.0334536 0
    outer loop
      vertex 8.38326 8.00163 1.5
      vertex 8.4037 8.61249 3
      vertex 8.4037 8.61249 1.5
    endloop
  endfacet
  facet normal -0.99944 0.0334536 0
    outer loop
      vertex 8.4037 8.61249 3
      vertex 8.38326 8.00163 1.5
      vertex 8.38326 8.00163 3
    endloop
  endfacet
  facet normal -0.994388 0.105792 0
    outer loop
      vertex 8.32191 7.42506 1.5
      vertex 8.38326 8.00163 3
      vertex 8.38326 8.00163 1.5
    endloop
  endfacet
  facet normal -0.994388 0.105792 0
    outer loop
      vertex 8.38326 8.00163 3
      vertex 8.32191 7.42506 1.5
      vertex 8.32191 7.42506 3
    endloop
  endfacet
  facet normal -0.982684 0.185288 0
    outer loop
      vertex 8.21967 6.88278 1.5
      vertex 8.32191 7.42506 3
      vertex 8.32191 7.42506 1.5
    endloop
  endfacet
  facet normal -0.982684 0.185288 0
    outer loop
      vertex 8.32191 7.42506 3
      vertex 8.21967 6.88278 1.5
      vertex 8.21967 6.88278 3
    endloop
  endfacet
  facet normal -0.96252 0.27121 0
    outer loop
      vertex 8.07652 6.37477 1.5
      vertex 8.21967 6.88278 3
      vertex 8.21967 6.88278 1.5
    endloop
  endfacet
  facet normal -0.96252 0.27121 0
    outer loop
      vertex 8.21967 6.88278 3
      vertex 8.07652 6.37477 1.5
      vertex 8.07652 6.37477 3
    endloop
  endfacet
  facet normal -0.932127 0.362132 0
    outer loop
      vertex 7.89249 5.90106 1.5
      vertex 8.07652 6.37477 3
      vertex 8.07652 6.37477 1.5
    endloop
  endfacet
  facet normal -0.932127 0.362132 0
    outer loop
      vertex 8.07652 6.37477 3
      vertex 7.89249 5.90106 1.5
      vertex 7.89249 5.90106 3
    endloop
  endfacet
  facet normal -0.890146 0.455675 0
    outer loop
      vertex 7.66754 5.46164 1.5
      vertex 7.89249 5.90106 3
      vertex 7.89249 5.90106 1.5
    endloop
  endfacet
  facet normal -0.890146 0.455675 0
    outer loop
      vertex 7.89249 5.90106 3
      vertex 7.66754 5.46164 1.5
      vertex 7.66754 5.46164 3
    endloop
  endfacet
  facet normal -0.836088 0.548596 0
    outer loop
      vertex 7.4017 5.05649 1.5
      vertex 7.66754 5.46164 3
      vertex 7.66754 5.46164 1.5
    endloop
  endfacet
  facet normal -0.836088 0.548596 0
    outer loop
      vertex 7.66754 5.46164 3
      vertex 7.4017 5.05649 1.5
      vertex 7.4017 5.05649 3
    endloop
  endfacet
  facet normal -0.773679 0.633578 0
    outer loop
      vertex 7.09691 4.6843 1.5
      vertex 7.4017 5.05649 3
      vertex 7.4017 5.05649 1.5
    endloop
  endfacet
  facet normal -0.773679 0.633578 0
    outer loop
      vertex 7.4017 5.05649 3
      vertex 7.09691 4.6843 1.5
      vertex 7.09691 4.6843 3
    endloop
  endfacet
  facet normal -0.706459 0.707754 0
    outer loop
      vertex 7.09691 4.6843 1.5
      vertex 6.7551 4.34311 3
      vertex 7.09691 4.6843 3
    endloop
  endfacet
  facet normal -0.706459 0.707754 0
    outer loop
      vertex 6.7551 4.34311 3
      vertex 7.09691 4.6843 1.5
      vertex 6.7551 4.34311 1.5
    endloop
  endfacet
  facet normal -0.633484 0.773756 0
    outer loop
      vertex 6.7551 4.34311 1.5
      vertex 6.37625 4.03294 3
      vertex 6.7551 4.34311 3
    endloop
  endfacet
  facet normal -0.633484 0.773756 0
    outer loop
      vertex 6.37625 4.03294 3
      vertex 6.7551 4.34311 1.5
      vertex 6.37625 4.03294 1.5
    endloop
  endfacet
  facet normal -0.557341 0.830284 0
    outer loop
      vertex 6.37625 4.03294 1.5
      vertex 5.9604 3.7538 3
      vertex 6.37625 4.03294 3
    endloop
  endfacet
  facet normal -0.557341 0.830284 0
    outer loop
      vertex 5.9604 3.7538 3
      vertex 6.37625 4.03294 1.5
      vertex 5.9604 3.7538 1.5
    endloop
  endfacet
  facet normal -0.480489 0.877001 0
    outer loop
      vertex 5.9604 3.7538 1.5
      vertex 5.50752 3.50568 3
      vertex 5.9604 3.7538 3
    endloop
  endfacet
  facet normal -0.480489 0.877001 0
    outer loop
      vertex 5.50752 3.50568 3
      vertex 5.9604 3.7538 1.5
      vertex 5.50752 3.50568 1.5
    endloop
  endfacet
  facet normal -0.405155 0.914248 0
    outer loop
      vertex 5.50752 3.50568 1.5
      vertex 5.01762 3.28857 3
      vertex 5.50752 3.50568 3
    endloop
  endfacet
  facet normal -0.405155 0.914248 0
    outer loop
      vertex 5.01762 3.28857 3
      vertex 5.50752 3.50568 1.5
      vertex 5.01762 3.28857 1.5
    endloop
  endfacet
  facet normal -0.332996 0.942928 0
    outer loop
      vertex 5.01762 3.28857 1.5
      vertex 4.49071 3.10249 3
      vertex 5.01762 3.28857 3
    endloop
  endfacet
  facet normal -0.332996 0.942928 0
    outer loop
      vertex 4.49071 3.10249 3
      vertex 5.01762 3.28857 1.5
      vertex 4.49071 3.10249 1.5
    endloop
  endfacet
  facet normal -0.270153 0.962817 0
    outer loop
      vertex 4.49071 3.10249 1.5
      vertex 3.92622 2.94411 3
      vertex 4.49071 3.10249 3
    endloop
  endfacet
  facet normal -0.270153 0.962817 0
    outer loop
      vertex 3.92622 2.94411 3
      vertex 4.49071 3.10249 1.5
      vertex 3.92622 2.94411 1.5
    endloop
  endfacet
  facet normal -0.21709 0.976152 0
    outer loop
      vertex 3.92622 2.94411 1.5
      vertex 3.32361 2.81009 3
      vertex 3.92622 2.94411 3
    endloop
  endfacet
  facet normal -0.21709 0.976152 0
    outer loop
      vertex 3.32361 2.81009 3
      vertex 3.92622 2.94411 1.5
      vertex 3.32361 2.81009 1.5
    endloop
  endfacet
  facet normal -0.168703 0.985667 0
    outer loop
      vertex 3.32361 2.81009 1.5
      vertex 2.68288 2.70042 3
      vertex 3.32361 2.81009 3
    endloop
  endfacet
  facet normal -0.168703 0.985667 0
    outer loop
      vertex 2.68288 2.70042 3
      vertex 3.32361 2.81009 1.5
      vertex 2.68288 2.70042 1.5
    endloop
  endfacet
  facet normal -0.124644 0.992202 0
    outer loop
      vertex 2.68288 2.70042 1.5
      vertex 2.00401 2.61514 3
      vertex 2.68288 2.70042 3
    endloop
  endfacet
  facet normal -0.124644 0.992202 0
    outer loop
      vertex 2.00401 2.61514 3
      vertex 2.68288 2.70042 1.5
      vertex 2.00401 2.61514 1.5
    endloop
  endfacet
  facet normal -0.0846529 0.996411 0
    outer loop
      vertex 2.00401 2.61514 1.5
      vertex 1.28703 2.55423 3
      vertex 2.00401 2.61514 3
    endloop
  endfacet
  facet normal -0.0846529 0.996411 0
    outer loop
      vertex 1.28703 2.55423 3
      vertex 2.00401 2.61514 1.5
      vertex 1.28703 2.55423 1.5
    endloop
  endfacet
  facet normal -0.0483611 0.99883 0
    outer loop
      vertex 1.28703 2.55423 1.5
      vertex 0.531937 2.51767 3
      vertex 1.28703 2.55423 3
    endloop
  endfacet
  facet normal -0.0483611 0.99883 0
    outer loop
      vertex 0.531937 2.51767 3
      vertex 1.28703 2.55423 1.5
      vertex 0.531937 2.51767 1.5
    endloop
  endfacet
  facet normal -0.0153491 0.999882 0
    outer loop
      vertex 0.531937 2.51767 1.5
      vertex -0.261276 2.50549 3
      vertex 0.531937 2.51767 3
    endloop
  endfacet
  facet normal -0.0153491 0.999882 0
    outer loop
      vertex -0.261276 2.50549 3
      vertex 0.531937 2.51767 1.5
      vertex -0.261276 2.50549 1.5
    endloop
  endfacet
  facet normal 0 1 -0
    outer loop
      vertex -0.261276 2.50549 1.5
      vertex -5.67628 2.50549 3
      vertex -0.261276 2.50549 3
    endloop
  endfacet
  facet normal 0 1 0
    outer loop
      vertex -5.67628 2.50549 3
      vertex -0.261276 2.50549 1.5
      vertex -5.67628 2.50549 1.5
    endloop
  endfacet
endsolid OpenSCAD_Model
