solid OpenSCAD_Model
  facet normal -1 0 0
    outer loop
      vertex -22.5 -22.5 0.5
      vertex -22.5 22.5 1.5
      vertex -22.5 22.5 0.5
    endloop
  endfacet
  facet normal -1 -0 0
    outer loop
      vertex -22.5 22.5 1.5
      vertex -22.5 -22.5 0.5
      vertex -22.5 -22.5 1.5
    endloop
  endfacet
  facet normal 0 0 1
    outer loop
      vertex 3.33734 -10.8005 1.5
      vertex -10.2796 -10.8005 1.5
      vertex 3.33734 -15.8725 1.5
    endloop
  endfacet
  facet normal -0 0 1
    outer loop
      vertex 15.7963 -6.79712 1.5
      vertex 22.5 -22.5 1.5
      vertex 22.5 22.5 1.5
    endloop
  endfacet
  facet normal 0 0 1
    outer loop
      vertex 22.5 -22.5 1.5
      vertex 15.8736 -7.26462 1.5
      vertex 15.8993 -7.78749 1.5
    endloop
  endfacet
  facet normal 0 0 1
    outer loop
      vertex 22.5 -22.5 1.5
      vertex 15.7963 -6.79712 1.5
      vertex 15.8736 -7.26462 1.5
    endloop
  endfacet
  facet normal 0 0 1
    outer loop
      vertex 22.5 22.5 1.5
      vertex 15.6675 -6.38503 1.5
      vertex 15.7963 -6.79712 1.5
    endloop
  endfacet
  facet normal 0 0 1
    outer loop
      vertex 22.5 22.5 1.5
      vertex 15.4873 -6.02831 1.5
      vertex 15.6675 -6.38503 1.5
    endloop
  endfacet
  facet normal 0 0 1
    outer loop
      vertex 22.5 22.5 1.5
      vertex 15.2555 -5.72699 1.5
      vertex 15.4873 -6.02831 1.5
    endloop
  endfacet
  facet normal 0 0 1
    outer loop
      vertex 22.5 22.5 1.5
      vertex 14.9722 -5.48105 1.5
      vertex 15.2555 -5.72699 1.5
    endloop
  endfacet
  facet normal 0 0 1
    outer loop
      vertex 22.5 22.5 1.5
      vertex 14.6373 -5.2905 1.5
      vertex 14.9722 -5.48105 1.5
    endloop
  endfacet
  facet normal -0 0 1
    outer loop
      vertex 10.1213 16.2335 1.5
      vertex 14.6373 -5.2905 1.5
      vertex 22.5 22.5 1.5
    endloop
  endfacet
  facet normal 0 0 1
    outer loop
      vertex 14.6373 -5.2905 1.5
      vertex 10.1213 16.2335 1.5
      vertex 14.2602 -5.13927 1.5
    endloop
  endfacet
  facet normal 0 0 1
    outer loop
      vertex 14.2602 -5.13927 1.5
      vertex 10.1213 16.2335 1.5
      vertex 13.8492 -5.01131 1.5
    endloop
  endfacet
  facet normal 0 0 1
    outer loop
      vertex 13.8492 -5.01131 1.5
      vertex 10.1213 16.2335 1.5
      vertex 13.4044 -4.90662 1.5
    endloop
  endfacet
  facet normal 0 0 1
    outer loop
      vertex 13.4044 -4.90662 1.5
      vertex 10.1213 16.2335 1.5
      vertex 12.9258 -4.82518 1.5
    endloop
  endfacet
  facet normal 0 0 1
    outer loop
      vertex 12.9258 -4.82518 1.5
      vertex 10.1213 16.2335 1.5
      vertex 12.4135 -4.76703 1.5
    endloop
  endfacet
  facet normal 0 0 1
    outer loop
      vertex 12.4135 -4.76703 1.5
      vertex 10.1213 16.2335 1.5
      vertex 11.8673 -4.73213 1.5
    endloop
  endfacet
  facet normal 0 0 1
    outer loop
      vertex 11.8673 -4.73213 1.5
      vertex 10.1213 16.2335 1.5
      vertex 11.2873 -4.72049 1.5
    endloop
  endfacet
  facet normal 0 0 1
    outer loop
      vertex 22.5 22.5 1.5
      vertex 10.0372 17.4831 1.5
      vertex 10.1213 16.2335 1.5
    endloop
  endfacet
  facet normal 0 0 1
    outer loop
      vertex 22.5 22.5 1.5
      vertex 9.78461 18.5404 1.5
      vertex 10.0372 17.4831 1.5
    endloop
  endfacet
  facet normal 0 0 1
    outer loop
      vertex 22.5 22.5 1.5
      vertex 9.36369 19.4055 1.5
      vertex 9.78461 18.5404 1.5
    endloop
  endfacet
  facet normal 0 0 1
    outer loop
      vertex 22.5 22.5 1.5
      vertex 8.7744 20.0784 1.5
      vertex 9.36369 19.4055 1.5
    endloop
  endfacet
  facet normal 0 0 1
    outer loop
      vertex 22.5 22.5 1.5
      vertex 8.01675 20.559 1.5
      vertex 8.7744 20.0784 1.5
    endloop
  endfacet
  facet normal 0 0 1
    outer loop
      vertex 22.5 22.5 1.5
      vertex 7.09073 20.8474 1.5
      vertex 8.01675 20.559 1.5
    endloop
  endfacet
  facet normal 0 0 1
    outer loop
      vertex 22.5 22.5 1.5
      vertex 5.99634 20.9435 1.5
      vertex 7.09073 20.8474 1.5
    endloop
  endfacet
  facet normal -0 0 1
    outer loop
      vertex -22.5 22.5 1.5
      vertex 5.99634 20.9435 1.5
      vertex 22.5 22.5 1.5
    endloop
  endfacet
  facet normal 0 0 1
    outer loop
      vertex -22.5 22.5 1.5
      vertex -12.8837 -1.86249 1.5
      vertex 1.49234 17.3415 1.5
    endloop
  endfacet
  facet normal 0 0 1
    outer loop
      vertex -15.4181 -6.17163 1.5
      vertex -22.5 -22.5 1.5
      vertex -15.4298 -6.31935 1.5
    endloop
  endfacet
  facet normal 0 0 1
    outer loop
      vertex -15.3987 -6.02335 1.5
      vertex -22.5 -22.5 1.5
      vertex -15.4181 -6.17163 1.5
    endloop
  endfacet
  facet normal 0 0 1
    outer loop
      vertex -22.5 -22.5 1.5
      vertex -15.3987 -6.02335 1.5
      vertex -22.5 22.5 1.5
    endloop
  endfacet
  facet normal 0 0 1
    outer loop
      vertex -15.3716 -5.8745 1.5
      vertex -22.5 22.5 1.5
      vertex -15.3987 -6.02335 1.5
    endloop
  endfacet
  facet normal 0 0 1
    outer loop
      vertex -15.3367 -5.72507 1.5
      vertex -22.5 22.5 1.5
      vertex -15.3716 -5.8745 1.5
    endloop
  endfacet
  facet normal 0 0 1
    outer loop
      vertex -15.2941 -5.57506 1.5
      vertex -22.5 22.5 1.5
      vertex -15.3367 -5.72507 1.5
    endloop
  endfacet
  facet normal 0 0 1
    outer loop
      vertex -15.2437 -5.4245 1.5
      vertex -22.5 22.5 1.5
      vertex -15.2941 -5.57506 1.5
    endloop
  endfacet
  facet normal 0 0 1
    outer loop
      vertex -15.1855 -5.27226 1.5
      vertex -22.5 22.5 1.5
      vertex -15.2437 -5.4245 1.5
    endloop
  endfacet
  facet normal 0 0 1
    outer loop
      vertex -15.1196 -5.11787 1.5
      vertex -22.5 22.5 1.5
      vertex -15.1855 -5.27226 1.5
    endloop
  endfacet
  facet normal 0 0 1
    outer loop
      vertex -15.0461 -4.96133 1.5
      vertex -22.5 22.5 1.5
      vertex -15.1196 -5.11787 1.5
    endloop
  endfacet
  facet normal 0 0 1
    outer loop
      vertex -14.9648 -4.80261 1.5
      vertex -22.5 22.5 1.5
      vertex -15.0461 -4.96133 1.5
    endloop
  endfacet
  facet normal 0 0 1
    outer loop
      vertex -14.8758 -4.64174 1.5
      vertex -22.5 22.5 1.5
      vertex -14.9648 -4.80261 1.5
    endloop
  endfacet
  facet normal 0 0 1
    outer loop
      vertex -14.7791 -4.4787 1.5
      vertex -22.5 22.5 1.5
      vertex -14.8758 -4.64174 1.5
    endloop
  endfacet
  facet normal 0 0 1
    outer loop
      vertex -14.6747 -4.31349 1.5
      vertex -22.5 22.5 1.5
      vertex -14.7791 -4.4787 1.5
    endloop
  endfacet
  facet normal 0 0 1
    outer loop
      vertex -14.5655 -4.14803 1.5
      vertex -22.5 22.5 1.5
      vertex -14.6747 -4.31349 1.5
    endloop
  endfacet
  facet normal 0 0 1
    outer loop
      vertex -14.344 -3.82198 1.5
      vertex -22.5 22.5 1.5
      vertex -14.5655 -4.14803 1.5
    endloop
  endfacet
  facet normal 0 0 1
    outer loop
      vertex -14.118 -3.50247 1.5
      vertex -22.5 22.5 1.5
      vertex -14.344 -3.82198 1.5
    endloop
  endfacet
  facet normal 0 0 1
    outer loop
      vertex -13.8876 -3.1895 1.5
      vertex -22.5 22.5 1.5
      vertex -14.118 -3.50247 1.5
    endloop
  endfacet
  facet normal 0 0 1
    outer loop
      vertex -12.8837 -1.86249 1.5
      vertex -22.5 22.5 1.5
      vertex -13.8876 -3.1895 1.5
    endloop
  endfacet
  facet normal 0 0 1
    outer loop
      vertex 1.88524 17.8619 1.5
      vertex -22.5 22.5 1.5
      vertex 1.49234 17.3415 1.5
    endloop
  endfacet
  facet normal 0 0 1
    outer loop
      vertex 2.25764 18.3398 1.5
      vertex -22.5 22.5 1.5
      vertex 1.88524 17.8619 1.5
    endloop
  endfacet
  facet normal 0 0 1
    outer loop
      vertex 2.60956 18.7751 1.5
      vertex -22.5 22.5 1.5
      vertex 2.25764 18.3398 1.5
    endloop
  endfacet
  facet normal 0 0 1
    outer loop
      vertex 2.94099 19.1678 1.5
      vertex -22.5 22.5 1.5
      vertex 2.60956 18.7751 1.5
    endloop
  endfacet
  facet normal 0 0 1
    outer loop
      vertex 3.25194 19.5179 1.5
      vertex -22.5 22.5 1.5
      vertex 2.94099 19.1678 1.5
    endloop
  endfacet
  facet normal 0 0 1
    outer loop
      vertex 3.54237 19.8255 1.5
      vertex -22.5 22.5 1.5
      vertex 3.25194 19.5179 1.5
    endloop
  endfacet
  facet normal 0 0 1
    outer loop
      vertex 3.81235 20.0905 1.5
      vertex -22.5 22.5 1.5
      vertex 3.54237 19.8255 1.5
    endloop
  endfacet
  facet normal 0 0 1
    outer loop
      vertex 4.07953 20.3168 1.5
      vertex -22.5 22.5 1.5
      vertex 3.81235 20.0905 1.5
    endloop
  endfacet
  facet normal 0 0 1
    outer loop
      vertex 4.36165 20.5083 1.5
      vertex -22.5 22.5 1.5
      vertex 4.07953 20.3168 1.5
    endloop
  endfacet
  facet normal 0 0 1
    outer loop
      vertex 4.65871 20.665 1.5
      vertex -22.5 22.5 1.5
      vertex 4.36165 20.5083 1.5
    endloop
  endfacet
  facet normal 0 0 1
    outer loop
      vertex 4.9707 20.7868 1.5
      vertex -22.5 22.5 1.5
      vertex 4.65871 20.665 1.5
    endloop
  endfacet
  facet normal 0 0 1
    outer loop
      vertex 5.29765 20.8739 1.5
      vertex -22.5 22.5 1.5
      vertex 4.9707 20.7868 1.5
    endloop
  endfacet
  facet normal 0 0 1
    outer loop
      vertex 5.63953 20.9261 1.5
      vertex -22.5 22.5 1.5
      vertex 5.29765 20.8739 1.5
    endloop
  endfacet
  facet normal 0 0 1
    outer loop
      vertex 5.99634 20.9435 1.5
      vertex -22.5 22.5 1.5
      vertex 5.63953 20.9261 1.5
    endloop
  endfacet
  facet normal -0 0 1
    outer loop
      vertex 15.8783 -8.21977 1.5
      vertex 22.5 -22.5 1.5
      vertex 15.8993 -7.78749 1.5
    endloop
  endfacet
  facet normal -0 0 1
    outer loop
      vertex 15.8152 -8.6172 1.5
      vertex 22.5 -22.5 1.5
      vertex 15.8783 -8.21977 1.5
    endloop
  endfacet
  facet normal -0 0 1
    outer loop
      vertex 15.71 -8.97978 1.5
      vertex 22.5 -22.5 1.5
      vertex 15.8152 -8.6172 1.5
    endloop
  endfacet
  facet normal -0 0 1
    outer loop
      vertex 15.5627 -9.3075 1.5
      vertex 22.5 -22.5 1.5
      vertex 15.71 -8.97978 1.5
    endloop
  endfacet
  facet normal -0 0 1
    outer loop
      vertex 15.3733 -9.60036 1.5
      vertex 22.5 -22.5 1.5
      vertex 15.5627 -9.3075 1.5
    endloop
  endfacet
  facet normal -0 0 1
    outer loop
      vertex 15.1419 -9.85835 1.5
      vertex 22.5 -22.5 1.5
      vertex 15.3733 -9.60036 1.5
    endloop
  endfacet
  facet normal -0 0 1
    outer loop
      vertex 14.8683 -10.0815 1.5
      vertex 22.5 -22.5 1.5
      vertex 15.1419 -9.85835 1.5
    endloop
  endfacet
  facet normal -0 0 1
    outer loop
      vertex 14.5527 -10.2722 1.5
      vertex 22.5 -22.5 1.5
      vertex 14.8683 -10.0815 1.5
    endloop
  endfacet
  facet normal -0 0 1
    outer loop
      vertex 14.1951 -10.4337 1.5
      vertex 22.5 -22.5 1.5
      vertex 14.5527 -10.2722 1.5
    endloop
  endfacet
  facet normal 0 0 1
    outer loop
      vertex 10.1213 -15.8725 1.5
      vertex 14.1951 -10.4337 1.5
      vertex 13.7954 -10.5657 1.5
    endloop
  endfacet
  facet normal 0 0 1
    outer loop
      vertex 10.1213 -15.8725 1.5
      vertex 13.7954 -10.5657 1.5
      vertex 13.3537 -10.6684 1.5
    endloop
  endfacet
  facet normal 0 0 1
    outer loop
      vertex 10.1213 -15.8725 1.5
      vertex 13.3537 -10.6684 1.5
      vertex 12.87 -10.7418 1.5
    endloop
  endfacet
  facet normal 0 0 1
    outer loop
      vertex 10.1213 -15.8725 1.5
      vertex 12.87 -10.7418 1.5
      vertex 12.3442 -10.7858 1.5
    endloop
  endfacet
  facet normal 0 0 1
    outer loop
      vertex 10.1213 -15.8725 1.5
      vertex 12.3442 -10.7858 1.5
      vertex 11.7763 -10.8005 1.5
    endloop
  endfacet
  facet normal 0 0 1
    outer loop
      vertex 10.1213 -15.8725 1.5
      vertex 11.7763 -10.8005 1.5
      vertex 10.1213 -10.8005 1.5
    endloop
  endfacet
  facet normal 0 0 1
    outer loop
      vertex 14.1951 -10.4337 1.5
      vertex 10.1213 -15.8725 1.5
      vertex 10.1025 -16.4502 1.5
    endloop
  endfacet
  facet normal 0 0 1
    outer loop
      vertex 14.1951 -10.4337 1.5
      vertex 10.1025 -16.4502 1.5
      vertex 22.5 -22.5 1.5
    endloop
  endfacet
  facet normal -0 0 1
    outer loop
      vertex 10.046 -16.9841 1.5
      vertex 22.5 -22.5 1.5
      vertex 10.1025 -16.4502 1.5
    endloop
  endfacet
  facet normal -0 0 1
    outer loop
      vertex 9.95181 -17.474 1.5
      vertex 22.5 -22.5 1.5
      vertex 10.046 -16.9841 1.5
    endloop
  endfacet
  facet normal -0 0 1
    outer loop
      vertex 9.81995 -17.92 1.5
      vertex 22.5 -22.5 1.5
      vertex 9.95181 -17.474 1.5
    endloop
  endfacet
  facet normal -0 0 1
    outer loop
      vertex 9.65042 -18.3221 1.5
      vertex 22.5 -22.5 1.5
      vertex 9.81995 -17.92 1.5
    endloop
  endfacet
  facet normal -0 0 1
    outer loop
      vertex 9.44322 -18.6803 1.5
      vertex 22.5 -22.5 1.5
      vertex 9.65042 -18.3221 1.5
    endloop
  endfacet
  facet normal -0 0 1
    outer loop
      vertex 9.19833 -18.9945 1.5
      vertex 22.5 -22.5 1.5
      vertex 9.44322 -18.6803 1.5
    endloop
  endfacet
  facet normal -0 0 1
    outer loop
      vertex 8.92215 -19.2656 1.5
      vertex 22.5 -22.5 1.5
      vertex 9.19833 -18.9945 1.5
    endloop
  endfacet
  facet normal -0 0 1
    outer loop
      vertex 8.62047 -19.4951 1.5
      vertex 22.5 -22.5 1.5
      vertex 8.92215 -19.2656 1.5
    endloop
  endfacet
  facet normal -0 0 1
    outer loop
      vertex 8.29326 -19.6828 1.5
      vertex 22.5 -22.5 1.5
      vertex 8.62047 -19.4951 1.5
    endloop
  endfacet
  facet normal -0 0 1
    outer loop
      vertex 7.94054 -19.8288 1.5
      vertex 22.5 -22.5 1.5
      vertex 8.29326 -19.6828 1.5
    endloop
  endfacet
  facet normal -0 0 1
    outer loop
      vertex 7.56232 -19.9331 1.5
      vertex 22.5 -22.5 1.5
      vertex 7.94054 -19.8288 1.5
    endloop
  endfacet
  facet normal -0 0 1
    outer loop
      vertex 7.15858 -19.9956 1.5
      vertex 22.5 -22.5 1.5
      vertex 7.56232 -19.9331 1.5
    endloop
  endfacet
  facet normal -0 0 1
    outer loop
      vertex 6.72934 -20.0165 1.5
      vertex 22.5 -22.5 1.5
      vertex 7.15858 -19.9956 1.5
    endloop
  endfacet
  facet normal 0 0 1
    outer loop
      vertex 6.30698 -19.9951 1.5
      vertex 22.5 -22.5 1.5
      vertex 6.72934 -20.0165 1.5
    endloop
  endfacet
  facet normal 0 0 1
    outer loop
      vertex -10.2796 -10.8005 1.5
      vertex 3.35645 -16.4362 1.5
      vertex 3.33734 -15.8725 1.5
    endloop
  endfacet
  facet normal 0 0 1
    outer loop
      vertex -10.2796 -10.8005 1.5
      vertex 3.41374 -16.9594 1.5
      vertex 3.35645 -16.4362 1.5
    endloop
  endfacet
  facet normal 0 0 1
    outer loop
      vertex -10.2796 -10.8005 1.5
      vertex 3.50926 -17.4419 1.5
      vertex 3.41374 -16.9594 1.5
    endloop
  endfacet
  facet normal 0 0 1
    outer loop
      vertex -10.2796 -10.8005 1.5
      vertex 3.64297 -17.8839 1.5
      vertex 3.50926 -17.4419 1.5
    endloop
  endfacet
  facet normal 0 0 1
    outer loop
      vertex -10.2796 -10.8005 1.5
      vertex 3.8149 -18.2854 1.5
      vertex 3.64297 -17.8839 1.5
    endloop
  endfacet
  facet normal 0 0 1
    outer loop
      vertex -22.5 -22.5 1.5
      vertex 3.8149 -18.2854 1.5
      vertex -10.2796 -10.8005 1.5
    endloop
  endfacet
  facet normal 0 0 1
    outer loop
      vertex 3.8149 -18.2854 1.5
      vertex -22.5 -22.5 1.5
      vertex 4.02501 -18.6462 1.5
    endloop
  endfacet
  facet normal 0 0 1
    outer loop
      vertex 4.02501 -18.6462 1.5
      vertex -22.5 -22.5 1.5
      vertex 4.27335 -18.9665 1.5
    endloop
  endfacet
  facet normal 0 0 1
    outer loop
      vertex 4.27335 -18.9665 1.5
      vertex -22.5 -22.5 1.5
      vertex 4.55269 -19.2451 1.5
    endloop
  endfacet
  facet normal 0 0 1
    outer loop
      vertex 4.55269 -19.2451 1.5
      vertex -22.5 -22.5 1.5
      vertex 4.85587 -19.4808 1.5
    endloop
  endfacet
  facet normal 0 0 1
    outer loop
      vertex -22.5 -22.5 1.5
      vertex -10.2796 -10.8005 1.5
      vertex -10.9896 -10.7767 1.5
    endloop
  endfacet
  facet normal 0 0 1
    outer loop
      vertex -22.5 -22.5 1.5
      vertex -10.9896 -10.7767 1.5
      vertex -11.6471 -10.7055 1.5
    endloop
  endfacet
  facet normal 0 0 1
    outer loop
      vertex -22.5 -22.5 1.5
      vertex -11.6471 -10.7055 1.5
      vertex -12.2519 -10.5867 1.5
    endloop
  endfacet
  facet normal 0 0 1
    outer loop
      vertex -22.5 -22.5 1.5
      vertex -12.2519 -10.5867 1.5
      vertex -12.8042 -10.4204 1.5
    endloop
  endfacet
  facet normal 0 0 1
    outer loop
      vertex -22.5 -22.5 1.5
      vertex -12.8042 -10.4204 1.5
      vertex -13.3039 -10.2066 1.5
    endloop
  endfacet
  facet normal 0 0 1
    outer loop
      vertex -15.4298 -6.31935 1.5
      vertex -22.5 -22.5 1.5
      vertex -15.4336 -6.46649 1.5
    endloop
  endfacet
  facet normal 0 0 1
    outer loop
      vertex -15.4336 -6.46649 1.5
      vertex -22.5 -22.5 1.5
      vertex -15.4074 -7.0222 1.5
    endloop
  endfacet
  facet normal 0 0 1
    outer loop
      vertex 6.30698 -19.9951 1.5
      vertex -22.5 -22.5 1.5
      vertex 22.5 -22.5 1.5
    endloop
  endfacet
  facet normal 0 0 1
    outer loop
      vertex 5.90845 -19.9308 1.5
      vertex -22.5 -22.5 1.5
      vertex 6.30698 -19.9951 1.5
    endloop
  endfacet
  facet normal 0 0 1
    outer loop
      vertex 5.53375 -19.8236 1.5
      vertex -22.5 -22.5 1.5
      vertex 5.90845 -19.9308 1.5
    endloop
  endfacet
  facet normal 0 0 1
    outer loop
      vertex 5.18289 -19.6736 1.5
      vertex -22.5 -22.5 1.5
      vertex 5.53375 -19.8236 1.5
    endloop
  endfacet
  facet normal 0 0 1
    outer loop
      vertex 4.85587 -19.4808 1.5
      vertex -22.5 -22.5 1.5
      vertex 5.18289 -19.6736 1.5
    endloop
  endfacet
  facet normal 0 0 1
    outer loop
      vertex -13.7511 -9.94531 1.5
      vertex -22.5 -22.5 1.5
      vertex -13.3039 -10.2066 1.5
    endloop
  endfacet
  facet normal 0 0 1
    outer loop
      vertex -14.1456 -9.63649 1.5
      vertex -22.5 -22.5 1.5
      vertex -13.7511 -9.94531 1.5
    endloop
  endfacet
  facet normal 0 0 1
    outer loop
      vertex -14.4874 -9.2865 1.5
      vertex -22.5 -22.5 1.5
      vertex -14.1456 -9.63649 1.5
    endloop
  endfacet
  facet normal 0 0 1
    outer loop
      vertex -14.7765 -8.90221 1.5
      vertex -22.5 -22.5 1.5
      vertex -14.4874 -9.2865 1.5
    endloop
  endfacet
  facet normal 0 0 1
    outer loop
      vertex -15.0131 -8.48364 1.5
      vertex -22.5 -22.5 1.5
      vertex -14.7765 -8.90221 1.5
    endloop
  endfacet
  facet normal 0 0 1
    outer loop
      vertex -15.1971 -8.03078 1.5
      vertex -22.5 -22.5 1.5
      vertex -15.0131 -8.48364 1.5
    endloop
  endfacet
  facet normal 0 0 1
    outer loop
      vertex -15.3285 -7.54364 1.5
      vertex -22.5 -22.5 1.5
      vertex -15.1971 -8.03078 1.5
    endloop
  endfacet
  facet normal 0 0 1
    outer loop
      vertex -15.4074 -7.0222 1.5
      vertex -22.5 -22.5 1.5
      vertex -15.3285 -7.54364 1.5
    endloop
  endfacet
  facet normal 0 0 1
    outer loop
      vertex 11.2873 -4.72049 1.5
      vertex 10.1213 16.2335 1.5
      vertex 10.1213 -4.72049 1.5
    endloop
  endfacet
  facet normal 0 0 1
    outer loop
      vertex 3.33734 11.0235 1.5
      vertex -8.32664 -4.72049 1.5
      vertex 3.33734 -4.72049 1.5
    endloop
  endfacet
  facet normal 1 -0 0
    outer loop
      vertex 22.5 -22.5 1.5
      vertex 22.5 22.5 0.5
      vertex 22.5 22.5 1.5
    endloop
  endfacet
  facet normal 1 0 0
    outer loop
      vertex 22.5 22.5 0.5
      vertex 22.5 -22.5 1.5
      vertex 22.5 -22.5 0.5
    endloop
  endfacet
  facet normal 0 1 -0
    outer loop
      vertex 22.5 22.5 0.5
      vertex -22.5 22.5 1.5
      vertex 22.5 22.5 1.5
    endloop
  endfacet
  facet normal 0 1 0
    outer loop
      vertex -22.5 22.5 1.5
      vertex 22.5 22.5 0.5
      vertex -22.5 22.5 0.5
    endloop
  endfacet
  facet normal 0 0 -1
    outer loop
      vertex -22.5 -22.5 0.5
      vertex 22.5 22.5 0.5
      vertex 22.5 -22.5 0.5
    endloop
  endfacet
  facet normal -0 0 -1
    outer loop
      vertex 22.5 22.5 0.5
      vertex -22.5 -22.5 0.5
      vertex -22.5 22.5 0.5
    endloop
  endfacet
  facet normal 0 -1 0
    outer loop
      vertex -22.5 -22.5 0.5
      vertex 22.5 -22.5 1.5
      vertex -22.5 -22.5 1.5
    endloop
  endfacet
  facet normal 0 -1 -0
    outer loop
      vertex 22.5 -22.5 1.5
      vertex -22.5 -22.5 0.5
      vertex 22.5 -22.5 0.5
    endloop
  endfacet
  facet normal -0 0 1
    outer loop
      vertex -8.32664 -4.72049 3
      vertex 3.33734 -10.8005 3
      vertex 3.33734 -4.72049 3
    endloop
  endfacet
  facet normal 0 0 1
    outer loop
      vertex 3.33734 -10.8005 3
      vertex -8.32664 -4.72049 3
      vertex -10.2796 -10.8005 3
    endloop
  endfacet
  facet normal -0 0 1
    outer loop
      vertex 3.33734 11.0235 3
      vertex 10.1213 -4.72049 3
      vertex 10.1213 16.2335 3
    endloop
  endfacet
  facet normal 0 0 1
    outer loop
      vertex 10.1213 -4.72049 3
      vertex 3.33734 -4.72049 3
      vertex 10.1213 -10.8005 3
    endloop
  endfacet
  facet normal 0 0 1
    outer loop
      vertex 3.33734 -10.8005 3
      vertex 10.1213 -10.8005 3
      vertex 3.33734 -4.72049 3
    endloop
  endfacet
  facet normal 0 0 1
    outer loop
      vertex 10.1213 -10.8005 3
      vertex 3.33734 -10.8005 3
      vertex 10.1213 -15.8725 3
    endloop
  endfacet
  facet normal 0 0 1
    outer loop
      vertex 2.94099 19.1678 3
      vertex 10.1213 16.2335 3
      vertex 10.0372 17.4831 3
    endloop
  endfacet
  facet normal 0 0 1
    outer loop
      vertex 3.33734 -15.8725 3
      vertex 10.1213 -15.8725 3
      vertex 3.33734 -10.8005 3
    endloop
  endfacet
  facet normal 0 0 1
    outer loop
      vertex 10.1213 -15.8725 3
      vertex 3.33734 -15.8725 3
      vertex 10.1025 -16.4502 3
    endloop
  endfacet
  facet normal 0 0 1
    outer loop
      vertex 3.54237 19.8255 3
      vertex 10.0372 17.4831 3
      vertex 9.78461 18.5404 3
    endloop
  endfacet
  facet normal -0 -0 1
    outer loop
      vertex 3.35645 -16.4362 3
      vertex 10.1025 -16.4502 3
      vertex 3.33734 -15.8725 3
    endloop
  endfacet
  facet normal 0 0 1
    outer loop
      vertex 10.1025 -16.4502 3
      vertex 3.35645 -16.4362 3
      vertex 10.046 -16.9841 3
    endloop
  endfacet
  facet normal 0 0 1
    outer loop
      vertex 7.09073 20.8474 3
      vertex 9.78461 18.5404 3
      vertex 9.36369 19.4055 3
    endloop
  endfacet
  facet normal -0 -0 1
    outer loop
      vertex 3.41374 -16.9594 3
      vertex 10.046 -16.9841 3
      vertex 3.35645 -16.4362 3
    endloop
  endfacet
  facet normal 0 -0 1
    outer loop
      vertex 3.50926 -17.4419 3
      vertex 10.046 -16.9841 3
      vertex 3.41374 -16.9594 3
    endloop
  endfacet
  facet normal 0 0 1
    outer loop
      vertex 8.01675 20.559 3
      vertex 9.36369 19.4055 3
      vertex 8.7744 20.0784 3
    endloop
  endfacet
  facet normal 0 0 1
    outer loop
      vertex 10.046 -16.9841 3
      vertex 3.50926 -17.4419 3
      vertex 9.95181 -17.474 3
    endloop
  endfacet
  facet normal 0 -0 1
    outer loop
      vertex 6.72934 -20.0165 3
      vertex 9.95181 -17.474 3
      vertex 3.50926 -17.4419 3
    endloop
  endfacet
  facet normal 0 0 1
    outer loop
      vertex 9.36369 19.4055 3
      vertex 8.01675 20.559 3
      vertex 7.09073 20.8474 3
    endloop
  endfacet
  facet normal 0 0 1
    outer loop
      vertex 9.95181 -17.474 3
      vertex 6.72934 -20.0165 3
      vertex 9.81995 -17.92 3
    endloop
  endfacet
  facet normal 0 -0 1
    outer loop
      vertex 7.15858 -19.9956 3
      vertex 9.81995 -17.92 3
      vertex 6.72934 -20.0165 3
    endloop
  endfacet
  facet normal 0 -0 1
    outer loop
      vertex 7.56232 -19.9331 3
      vertex 9.65042 -18.3221 3
      vertex 7.15858 -19.9956 3
    endloop
  endfacet
  facet normal 0 0 1
    outer loop
      vertex 9.78461 18.5404 3
      vertex 7.09073 20.8474 3
      vertex 3.54237 19.8255 3
    endloop
  endfacet
  facet normal 0 0 1
    outer loop
      vertex 9.65042 -18.3221 3
      vertex 7.56232 -19.9331 3
      vertex 9.44322 -18.6803 3
    endloop
  endfacet
  facet normal 0 0 1
    outer loop
      vertex 9.44322 -18.6803 3
      vertex 7.56232 -19.9331 3
      vertex 9.19833 -18.9945 3
    endloop
  endfacet
  facet normal 0 0 1
    outer loop
      vertex 3.54237 19.8255 3
      vertex 7.09073 20.8474 3
      vertex 5.99634 20.9435 3
    endloop
  endfacet
  facet normal 0 0 1
    outer loop
      vertex 9.19833 -18.9945 3
      vertex 7.56232 -19.9331 3
      vertex 8.92215 -19.2656 3
    endloop
  endfacet
  facet normal 0 0 1
    outer loop
      vertex 3.81235 20.0905 3
      vertex 5.99634 20.9435 3
      vertex 5.63953 20.9261 3
    endloop
  endfacet
  facet normal 0 0 1
    outer loop
      vertex 8.29326 -19.6828 3
      vertex 7.56232 -19.9331 3
      vertex 7.94054 -19.8288 3
    endloop
  endfacet
  facet normal 0 0 1
    outer loop
      vertex 3.81235 20.0905 3
      vertex 5.63953 20.9261 3
      vertex 5.29765 20.8739 3
    endloop
  endfacet
  facet normal 0 0 1
    outer loop
      vertex 8.62047 -19.4951 3
      vertex 7.56232 -19.9331 3
      vertex 8.29326 -19.6828 3
    endloop
  endfacet
  facet normal 0 0 1
    outer loop
      vertex 3.81235 20.0905 3
      vertex 5.29765 20.8739 3
      vertex 4.9707 20.7868 3
    endloop
  endfacet
  facet normal 0 0 1
    outer loop
      vertex 8.92215 -19.2656 3
      vertex 7.56232 -19.9331 3
      vertex 8.62047 -19.4951 3
    endloop
  endfacet
  facet normal 0 0 1
    outer loop
      vertex 3.81235 20.0905 3
      vertex 4.9707 20.7868 3
      vertex 4.65871 20.665 3
    endloop
  endfacet
  facet normal 0 0 1
    outer loop
      vertex 9.81995 -17.92 3
      vertex 7.15858 -19.9956 3
      vertex 9.65042 -18.3221 3
    endloop
  endfacet
  facet normal 0 0 1
    outer loop
      vertex 3.81235 20.0905 3
      vertex 4.65871 20.665 3
      vertex 4.36165 20.5083 3
    endloop
  endfacet
  facet normal -0 -0 1
    outer loop
      vertex 3.64297 -17.8839 3
      vertex 6.72934 -20.0165 3
      vertex 3.50926 -17.4419 3
    endloop
  endfacet
  facet normal 0 0 1
    outer loop
      vertex 3.81235 20.0905 3
      vertex 4.36165 20.5083 3
      vertex 4.07953 20.3168 3
    endloop
  endfacet
  facet normal 0 0 1
    outer loop
      vertex 6.72934 -20.0165 3
      vertex 3.64297 -17.8839 3
      vertex 6.30698 -19.9951 3
    endloop
  endfacet
  facet normal 0 0 1
    outer loop
      vertex 6.30698 -19.9951 3
      vertex 3.64297 -17.8839 3
      vertex 5.90845 -19.9308 3
    endloop
  endfacet
  facet normal 0 0 1
    outer loop
      vertex 5.99634 20.9435 3
      vertex 3.81235 20.0905 3
      vertex 3.54237 19.8255 3
    endloop
  endfacet
  facet normal 0 0 1
    outer loop
      vertex 5.90845 -19.9308 3
      vertex 3.64297 -17.8839 3
      vertex 5.53375 -19.8236 3
    endloop
  endfacet
  facet normal 0 0 1
    outer loop
      vertex 10.0372 17.4831 3
      vertex 3.54237 19.8255 3
      vertex 3.25194 19.5179 3
    endloop
  endfacet
  facet normal 0 0 1
    outer loop
      vertex 5.53375 -19.8236 3
      vertex 3.64297 -17.8839 3
      vertex 5.18289 -19.6736 3
    endloop
  endfacet
  facet normal 0 0 1
    outer loop
      vertex 5.18289 -19.6736 3
      vertex 3.64297 -17.8839 3
      vertex 4.85587 -19.4808 3
    endloop
  endfacet
  facet normal 0 0 1
    outer loop
      vertex 4.85587 -19.4808 3
      vertex 3.64297 -17.8839 3
      vertex 4.55269 -19.2451 3
    endloop
  endfacet
  facet normal 0 0 1
    outer loop
      vertex 10.1213 -4.72049 3
      vertex 3.33734 11.0235 3
      vertex 3.33734 -4.72049 3
    endloop
  endfacet
  facet normal 0 0 1
    outer loop
      vertex 10.0372 17.4831 3
      vertex 3.25194 19.5179 3
      vertex 2.94099 19.1678 3
    endloop
  endfacet
  facet normal 0 0 1
    outer loop
      vertex 10.1213 16.2335 3
      vertex 2.94099 19.1678 3
      vertex 2.60956 18.7751 3
    endloop
  endfacet
  facet normal 0 0 1
    outer loop
      vertex 10.1213 16.2335 3
      vertex 2.60956 18.7751 3
      vertex 2.25764 18.3398 3
    endloop
  endfacet
  facet normal -0 0 1
    outer loop
      vertex 1.88524 17.8619 3
      vertex 10.1213 16.2335 3
      vertex 2.25764 18.3398 3
    endloop
  endfacet
  facet normal 0 0 1
    outer loop
      vertex 10.1213 16.2335 3
      vertex 1.88524 17.8619 3
      vertex 3.33734 11.0235 3
    endloop
  endfacet
  facet normal -0 0 1
    outer loop
      vertex 1.49234 17.3415 3
      vertex 3.33734 11.0235 3
      vertex 1.88524 17.8619 3
    endloop
  endfacet
  facet normal 0 0 1
    outer loop
      vertex -12.8837 -1.86249 3
      vertex 3.33734 11.0235 3
      vertex 1.49234 17.3415 3
    endloop
  endfacet
  facet normal 0 0 1
    outer loop
      vertex -8.32664 -4.72049 3
      vertex -10.9896 -10.7767 3
      vertex -10.2796 -10.8005 3
    endloop
  endfacet
  facet normal 0 0 1
    outer loop
      vertex -8.32664 -4.72049 3
      vertex -11.6471 -10.7055 3
      vertex -10.9896 -10.7767 3
    endloop
  endfacet
  facet normal 0 0 1
    outer loop
      vertex 3.33734 11.0235 3
      vertex -12.8837 -1.86249 3
      vertex -8.32664 -4.72049 3
    endloop
  endfacet
  facet normal -0 0 1
    outer loop
      vertex -13.8876 -3.1895 3
      vertex -8.32664 -4.72049 3
      vertex -12.8837 -1.86249 3
    endloop
  endfacet
  facet normal -0 0 1
    outer loop
      vertex -14.118 -3.50247 3
      vertex -8.32664 -4.72049 3
      vertex -13.8876 -3.1895 3
    endloop
  endfacet
  facet normal -0 0 1
    outer loop
      vertex -14.344 -3.82198 3
      vertex -8.32664 -4.72049 3
      vertex -14.118 -3.50247 3
    endloop
  endfacet
  facet normal -0 0 1
    outer loop
      vertex -14.5655 -4.14803 3
      vertex -8.32664 -4.72049 3
      vertex -14.344 -3.82198 3
    endloop
  endfacet
  facet normal -0 0 1
    outer loop
      vertex -14.6747 -4.31349 3
      vertex -8.32664 -4.72049 3
      vertex -14.5655 -4.14803 3
    endloop
  endfacet
  facet normal 0 0 1
    outer loop
      vertex -8.32664 -4.72049 3
      vertex -12.2519 -10.5867 3
      vertex -11.6471 -10.7055 3
    endloop
  endfacet
  facet normal -0 0 1
    outer loop
      vertex -14.7791 -4.4787 3
      vertex -8.32664 -4.72049 3
      vertex -14.6747 -4.31349 3
    endloop
  endfacet
  facet normal -0 0 1
    outer loop
      vertex -14.8758 -4.64174 3
      vertex -8.32664 -4.72049 3
      vertex -14.7791 -4.4787 3
    endloop
  endfacet
  facet normal 0 0 1
    outer loop
      vertex -8.32664 -4.72049 3
      vertex -12.8042 -10.4204 3
      vertex -12.2519 -10.5867 3
    endloop
  endfacet
  facet normal 0 0 1
    outer loop
      vertex -14.9648 -4.80261 3
      vertex -8.32664 -4.72049 3
      vertex -14.8758 -4.64174 3
    endloop
  endfacet
  facet normal 0 0 1
    outer loop
      vertex -15.4074 -7.0222 3
      vertex -8.32664 -4.72049 3
      vertex -14.9648 -4.80261 3
    endloop
  endfacet
  facet normal 0 0 1
    outer loop
      vertex -8.32664 -4.72049 3
      vertex -15.3285 -7.54364 3
      vertex -12.8042 -10.4204 3
    endloop
  endfacet
  facet normal 0 0 1
    outer loop
      vertex -12.8042 -10.4204 3
      vertex -15.3285 -7.54364 3
      vertex -13.3039 -10.2066 3
    endloop
  endfacet
  facet normal 0 0 1
    outer loop
      vertex -13.3039 -10.2066 3
      vertex -15.3285 -7.54364 3
      vertex -13.7511 -9.94531 3
    endloop
  endfacet
  facet normal 0 0 1
    outer loop
      vertex -13.7511 -9.94531 3
      vertex -15.3285 -7.54364 3
      vertex -14.1456 -9.63649 3
    endloop
  endfacet
  facet normal 0 0 1
    outer loop
      vertex -14.1456 -9.63649 3
      vertex -15.3285 -7.54364 3
      vertex -14.4874 -9.2865 3
    endloop
  endfacet
  facet normal 0 0 1
    outer loop
      vertex -14.4874 -9.2865 3
      vertex -15.1971 -8.03078 3
      vertex -14.7765 -8.90221 3
    endloop
  endfacet
  facet normal 0 0 1
    outer loop
      vertex -15.4074 -7.0222 3
      vertex -14.9648 -4.80261 3
      vertex -15.0461 -4.96133 3
    endloop
  endfacet
  facet normal 0 0 1
    outer loop
      vertex -15.4074 -7.0222 3
      vertex -15.0461 -4.96133 3
      vertex -15.1196 -5.11787 3
    endloop
  endfacet
  facet normal 0 0 1
    outer loop
      vertex -15.4074 -7.0222 3
      vertex -15.1196 -5.11787 3
      vertex -15.1855 -5.27226 3
    endloop
  endfacet
  facet normal 0 0 1
    outer loop
      vertex -14.7765 -8.90221 3
      vertex -15.1971 -8.03078 3
      vertex -15.0131 -8.48364 3
    endloop
  endfacet
  facet normal 0 0 1
    outer loop
      vertex -15.4336 -6.46649 3
      vertex -15.1855 -5.27226 3
      vertex -15.2437 -5.4245 3
    endloop
  endfacet
  facet normal 0 0 1
    outer loop
      vertex -15.4336 -6.46649 3
      vertex -15.2437 -5.4245 3
      vertex -15.2941 -5.57506 3
    endloop
  endfacet
  facet normal 0 0 1
    outer loop
      vertex -14.4874 -9.2865 3
      vertex -15.3285 -7.54364 3
      vertex -15.1971 -8.03078 3
    endloop
  endfacet
  facet normal 0 0 1
    outer loop
      vertex -15.4336 -6.46649 3
      vertex -15.2941 -5.57506 3
      vertex -15.3367 -5.72507 3
    endloop
  endfacet
  facet normal 0 0 1
    outer loop
      vertex -15.4336 -6.46649 3
      vertex -15.3367 -5.72507 3
      vertex -15.3716 -5.8745 3
    endloop
  endfacet
  facet normal 0 0 1
    outer loop
      vertex -15.4336 -6.46649 3
      vertex -15.3716 -5.8745 3
      vertex -15.3987 -6.02335 3
    endloop
  endfacet
  facet normal 0 0 1
    outer loop
      vertex -8.32664 -4.72049 3
      vertex -15.4074 -7.0222 3
      vertex -15.3285 -7.54364 3
    endloop
  endfacet
  facet normal 0 0 1
    outer loop
      vertex -15.4336 -6.46649 3
      vertex -15.3987 -6.02335 3
      vertex -15.4181 -6.17163 3
    endloop
  endfacet
  facet normal 0 0 1
    outer loop
      vertex -15.4336 -6.46649 3
      vertex -15.4181 -6.17163 3
      vertex -15.4298 -6.31935 3
    endloop
  endfacet
  facet normal 0 0 1
    outer loop
      vertex -15.1855 -5.27226 3
      vertex -15.4336 -6.46649 3
      vertex -15.4074 -7.0222 3
    endloop
  endfacet
  facet normal 0 0 1
    outer loop
      vertex 13.8492 -5.01131 3
      vertex 15.8993 -7.78749 3
      vertex 15.8736 -7.26462 3
    endloop
  endfacet
  facet normal 0 0 1
    outer loop
      vertex 13.7954 -10.5657 3
      vertex 15.8993 -7.78749 3
      vertex 13.8492 -5.01131 3
    endloop
  endfacet
  facet normal 0 0 1
    outer loop
      vertex 14.2602 -5.13927 3
      vertex 15.8736 -7.26462 3
      vertex 15.7963 -6.79712 3
    endloop
  endfacet
  facet normal 0 0 1
    outer loop
      vertex 15.8993 -7.78749 3
      vertex 13.7954 -10.5657 3
      vertex 15.8783 -8.21977 3
    endloop
  endfacet
  facet normal 0 0 1
    outer loop
      vertex 14.6373 -5.2905 3
      vertex 15.7963 -6.79712 3
      vertex 15.6675 -6.38503 3
    endloop
  endfacet
  facet normal 0 0 1
    outer loop
      vertex 15.8736 -7.26462 3
      vertex 14.2602 -5.13927 3
      vertex 13.8492 -5.01131 3
    endloop
  endfacet
  facet normal 0 0 1
    outer loop
      vertex 14.6373 -5.2905 3
      vertex 15.6675 -6.38503 3
      vertex 15.4873 -6.02831 3
    endloop
  endfacet
  facet normal 0 -0 1
    outer loop
      vertex 14.1951 -10.4337 3
      vertex 15.8783 -8.21977 3
      vertex 13.7954 -10.5657 3
    endloop
  endfacet
  facet normal 0 0 1
    outer loop
      vertex 14.6373 -5.2905 3
      vertex 15.4873 -6.02831 3
      vertex 15.2555 -5.72699 3
    endloop
  endfacet
  facet normal 0 -0 1
    outer loop
      vertex 14.5527 -10.2722 3
      vertex 15.8152 -8.6172 3
      vertex 14.1951 -10.4337 3
    endloop
  endfacet
  facet normal 0 0 1
    outer loop
      vertex 14.6373 -5.2905 3
      vertex 15.2555 -5.72699 3
      vertex 14.9722 -5.48105 3
    endloop
  endfacet
  facet normal 0 0 1
    outer loop
      vertex 15.7963 -6.79712 3
      vertex 14.6373 -5.2905 3
      vertex 14.2602 -5.13927 3
    endloop
  endfacet
  facet normal 0 0 1
    outer loop
      vertex 15.71 -8.97978 3
      vertex 14.8683 -10.0815 3
      vertex 15.5627 -9.3075 3
    endloop
  endfacet
  facet normal 0 0 1
    outer loop
      vertex 15.5627 -9.3075 3
      vertex 14.8683 -10.0815 3
      vertex 15.3733 -9.60036 3
    endloop
  endfacet
  facet normal 0 0 1
    outer loop
      vertex 15.3733 -9.60036 3
      vertex 14.8683 -10.0815 3
      vertex 15.1419 -9.85835 3
    endloop
  endfacet
  facet normal 0 -0 1
    outer loop
      vertex 14.8683 -10.0815 3
      vertex 15.71 -8.97978 3
      vertex 14.5527 -10.2722 3
    endloop
  endfacet
  facet normal 0 0 1
    outer loop
      vertex 15.8152 -8.6172 3
      vertex 14.5527 -10.2722 3
      vertex 15.71 -8.97978 3
    endloop
  endfacet
  facet normal 0 0 1
    outer loop
      vertex 15.8783 -8.21977 3
      vertex 14.1951 -10.4337 3
      vertex 15.8152 -8.6172 3
    endloop
  endfacet
  facet normal 0 0 1
    outer loop
      vertex 13.4044 -4.90662 3
      vertex 13.7954 -10.5657 3
      vertex 13.8492 -5.01131 3
    endloop
  endfacet
  facet normal 0 0 1
    outer loop
      vertex 13.4044 -4.90662 3
      vertex 13.3537 -10.6684 3
      vertex 13.7954 -10.5657 3
    endloop
  endfacet
  facet normal 0 0 1
    outer loop
      vertex 12.9258 -4.82518 3
      vertex 13.3537 -10.6684 3
      vertex 13.4044 -4.90662 3
    endloop
  endfacet
  facet normal 0 0 1
    outer loop
      vertex 12.9258 -4.82518 3
      vertex 12.87 -10.7418 3
      vertex 13.3537 -10.6684 3
    endloop
  endfacet
  facet normal 0 0 1
    outer loop
      vertex 12.4135 -4.76703 3
      vertex 12.87 -10.7418 3
      vertex 12.9258 -4.82518 3
    endloop
  endfacet
  facet normal 0 0 1
    outer loop
      vertex 12.4135 -4.76703 3
      vertex 12.3442 -10.7858 3
      vertex 12.87 -10.7418 3
    endloop
  endfacet
  facet normal 0 0 1
    outer loop
      vertex 11.7763 -10.8005 3
      vertex 12.4135 -4.76703 3
      vertex 11.8673 -4.73213 3
    endloop
  endfacet
  facet normal 0 0 1
    outer loop
      vertex 12.4135 -4.76703 3
      vertex 11.7763 -10.8005 3
      vertex 12.3442 -10.7858 3
    endloop
  endfacet
  facet normal 0 0 1
    outer loop
      vertex 11.2873 -4.72049 3
      vertex 11.7763 -10.8005 3
      vertex 11.8673 -4.73213 3
    endloop
  endfacet
  facet normal 0 0 1
    outer loop
      vertex 10.1213 -10.8005 3
      vertex 11.2873 -4.72049 3
      vertex 10.1213 -4.72049 3
    endloop
  endfacet
  facet normal 0 0 1
    outer loop
      vertex 11.2873 -4.72049 3
      vertex 10.1213 -10.8005 3
      vertex 11.7763 -10.8005 3
    endloop
  endfacet
  facet normal 0 0 1
    outer loop
      vertex 4.55269 -19.2451 3
      vertex 3.64297 -17.8839 3
      vertex 4.27335 -18.9665 3
    endloop
  endfacet
  facet normal 0 0 1
    outer loop
      vertex 4.27335 -18.9665 3
      vertex 3.64297 -17.8839 3
      vertex 4.02501 -18.6462 3
    endloop
  endfacet
  facet normal 0 0 1
    outer loop
      vertex 4.02501 -18.6462 3
      vertex 3.64297 -17.8839 3
      vertex 3.8149 -18.2854 3
    endloop
  endfacet
  facet normal 0.153166 -0.988201 0
    outer loop
      vertex 7.15858 -19.9956 1.5
      vertex 7.56232 -19.9331 3
      vertex 7.15858 -19.9956 3
    endloop
  endfacet
  facet normal 0.153166 -0.988201 0
    outer loop
      vertex 7.56232 -19.9331 3
      vertex 7.15858 -19.9956 1.5
      vertex 7.56232 -19.9331 1.5
    endloop
  endfacet
  facet normal 0.265792 -0.96403 0
    outer loop
      vertex 7.56232 -19.9331 1.5
      vertex 7.94054 -19.8288 3
      vertex 7.56232 -19.9331 3
    endloop
  endfacet
  facet normal 0.265792 -0.96403 0
    outer loop
      vertex 7.94054 -19.8288 3
      vertex 7.56232 -19.9331 1.5
      vertex 7.94054 -19.8288 1.5
    endloop
  endfacet
  facet normal 0.382446 -0.923978 0
    outer loop
      vertex 7.94054 -19.8288 1.5
      vertex 8.29326 -19.6828 3
      vertex 7.94054 -19.8288 3
    endloop
  endfacet
  facet normal 0.382446 -0.923978 0
    outer loop
      vertex 8.29326 -19.6828 3
      vertex 7.94054 -19.8288 1.5
      vertex 8.29326 -19.6828 1.5
    endloop
  endfacet
  facet normal 0.497611 -0.867401 0
    outer loop
      vertex 8.29326 -19.6828 1.5
      vertex 8.62047 -19.4951 3
      vertex 8.29326 -19.6828 3
    endloop
  endfacet
  facet normal 0.497611 -0.867401 0
    outer loop
      vertex 8.62047 -19.4951 3
      vertex 8.29326 -19.6828 1.5
      vertex 8.62047 -19.4951 1.5
    endloop
  endfacet
  facet normal 0.605339 -0.795967 0
    outer loop
      vertex 8.62047 -19.4951 1.5
      vertex 8.92215 -19.2656 3
      vertex 8.62047 -19.4951 3
    endloop
  endfacet
  facet normal 0.605339 -0.795967 0
    outer loop
      vertex 8.92215 -19.2656 3
      vertex 8.62047 -19.4951 1.5
      vertex 8.92215 -19.2656 1.5
    endloop
  endfacet
  facet normal 0.700572 -0.713582 0
    outer loop
      vertex 8.92215 -19.2656 1.5
      vertex 9.19833 -18.9945 3
      vertex 8.92215 -19.2656 3
    endloop
  endfacet
  facet normal 0.700572 -0.713582 0
    outer loop
      vertex 9.19833 -18.9945 3
      vertex 8.92215 -19.2656 1.5
      vertex 9.19833 -18.9945 1.5
    endloop
  endfacet
  facet normal 0.788768 -0.614691 0
    outer loop
      vertex 9.19833 -18.9945 3
      vertex 9.44322 -18.6803 1.5
      vertex 9.44322 -18.6803 3
    endloop
  endfacet
  facet normal 0.788768 -0.614691 0
    outer loop
      vertex 9.44322 -18.6803 1.5
      vertex 9.19833 -18.9945 3
      vertex 9.19833 -18.9945 1.5
    endloop
  endfacet
  facet normal 0.865596 -0.500743 0
    outer loop
      vertex 9.44322 -18.6803 3
      vertex 9.65042 -18.3221 1.5
      vertex 9.65042 -18.3221 3
    endloop
  endfacet
  facet normal 0.865596 -0.500743 0
    outer loop
      vertex 9.65042 -18.3221 1.5
      vertex 9.44322 -18.6803 3
      vertex 9.44322 -18.6803 1.5
    endloop
  endfacet
  facet normal 0.92145 -0.388498 0
    outer loop
      vertex 9.65042 -18.3221 3
      vertex 9.81995 -17.92 1.5
      vertex 9.81995 -17.92 3
    endloop
  endfacet
  facet normal 0.92145 -0.388498 0
    outer loop
      vertex 9.81995 -17.92 1.5
      vertex 9.65042 -18.3221 3
      vertex 9.65042 -18.3221 1.5
    endloop
  endfacet
  facet normal 0.958963 -0.283532 0
    outer loop
      vertex 9.81995 -17.92 3
      vertex 9.95181 -17.474 1.5
      vertex 9.95181 -17.474 3
    endloop
  endfacet
  facet normal 0.958963 -0.283532 0
    outer loop
      vertex 9.95181 -17.474 1.5
      vertex 9.81995 -17.92 3
      vertex 9.81995 -17.92 1.5
    endloop
  endfacet
  facet normal 0.98202 -0.188776 0
    outer loop
      vertex 9.95181 -17.474 3
      vertex 10.046 -16.9841 1.5
      vertex 10.046 -16.9841 3
    endloop
  endfacet
  facet normal 0.98202 -0.188776 0
    outer loop
      vertex 10.046 -16.9841 1.5
      vertex 9.95181 -17.474 3
      vertex 9.95181 -17.474 1.5
    endloop
  endfacet
  facet normal 0.994442 -0.105283 0
    outer loop
      vertex 10.046 -16.9841 3
      vertex 10.1025 -16.4502 1.5
      vertex 10.1025 -16.4502 3
    endloop
  endfacet
  facet normal 0.994442 -0.105283 0
    outer loop
      vertex 10.1025 -16.4502 1.5
      vertex 10.046 -16.9841 3
      vertex 10.046 -16.9841 1.5
    endloop
  endfacet
  facet normal 0.999469 -0.0325739 0
    outer loop
      vertex 10.1025 -16.4502 3
      vertex 10.1213 -15.8725 1.5
      vertex 10.1213 -15.8725 3
    endloop
  endfacet
  facet normal 0.999469 -0.0325739 0
    outer loop
      vertex 10.1213 -15.8725 1.5
      vertex 10.1025 -16.4502 3
      vertex 10.1025 -16.4502 1.5
    endloop
  endfacet
  facet normal 1 -0 0
    outer loop
      vertex 10.1213 -15.8725 3
      vertex 10.1213 -10.8005 1.5
      vertex 10.1213 -10.8005 3
    endloop
  endfacet
  facet normal 1 0 0
    outer loop
      vertex 10.1213 -10.8005 1.5
      vertex 10.1213 -15.8725 3
      vertex 10.1213 -15.8725 1.5
    endloop
  endfacet
  facet normal 0 -1 0
    outer loop
      vertex 10.1213 -10.8005 1.5
      vertex 11.7763 -10.8005 3
      vertex 10.1213 -10.8005 3
    endloop
  endfacet
  facet normal 0 -1 -0
    outer loop
      vertex 11.7763 -10.8005 3
      vertex 10.1213 -10.8005 1.5
      vertex 11.7763 -10.8005 1.5
    endloop
  endfacet
  facet normal 0.0258419 -0.999666 0
    outer loop
      vertex 11.7763 -10.8005 1.5
      vertex 12.3442 -10.7858 3
      vertex 11.7763 -10.8005 3
    endloop
  endfacet
  facet normal 0.0258419 -0.999666 0
    outer loop
      vertex 12.3442 -10.7858 3
      vertex 11.7763 -10.8005 1.5
      vertex 12.3442 -10.7858 1.5
    endloop
  endfacet
  facet normal 0.0834021 -0.996516 0
    outer loop
      vertex 12.3442 -10.7858 1.5
      vertex 12.87 -10.7418 3
      vertex 12.3442 -10.7858 3
    endloop
  endfacet
  facet normal 0.0834021 -0.996516 0
    outer loop
      vertex 12.87 -10.7418 3
      vertex 12.3442 -10.7858 1.5
      vertex 12.87 -10.7418 1.5
    endloop
  endfacet
  facet normal 0.149974 -0.98869 0
    outer loop
      vertex 12.87 -10.7418 1.5
      vertex 13.3537 -10.6684 3
      vertex 12.87 -10.7418 3
    endloop
  endfacet
  facet normal 0.149974 -0.98869 0
    outer loop
      vertex 13.3537 -10.6684 3
      vertex 12.87 -10.7418 1.5
      vertex 13.3537 -10.6684 1.5
    endloop
  endfacet
  facet normal 0.226479 -0.974016 0
    outer loop
      vertex 13.3537 -10.6684 1.5
      vertex 13.7954 -10.5657 3
      vertex 13.3537 -10.6684 3
    endloop
  endfacet
  facet normal 0.226479 -0.974016 0
    outer loop
      vertex 13.7954 -10.5657 3
      vertex 13.3537 -10.6684 1.5
      vertex 13.7954 -10.5657 1.5
    endloop
  endfacet
  facet normal 0.313747 -0.949507 0
    outer loop
      vertex 13.7954 -10.5657 1.5
      vertex 14.1951 -10.4337 3
      vertex 13.7954 -10.5657 3
    endloop
  endfacet
  facet normal 0.313747 -0.949507 0
    outer loop
      vertex 14.1951 -10.4337 3
      vertex 13.7954 -10.5657 1.5
      vertex 14.1951 -10.4337 1.5
    endloop
  endfacet
  facet normal 0.411364 -0.911471 0
    outer loop
      vertex 14.1951 -10.4337 1.5
      vertex 14.5527 -10.2722 3
      vertex 14.1951 -10.4337 3
    endloop
  endfacet
  facet normal 0.411364 -0.911471 0
    outer loop
      vertex 14.5527 -10.2722 3
      vertex 14.1951 -10.4337 1.5
      vertex 14.5527 -10.2722 1.5
    endloop
  endfacet
  facet normal 0.517268 -0.855824 0
    outer loop
      vertex 14.5527 -10.2722 1.5
      vertex 14.8683 -10.0815 3
      vertex 14.5527 -10.2722 3
    endloop
  endfacet
  facet normal 0.517268 -0.855824 0
    outer loop
      vertex 14.8683 -10.0815 3
      vertex 14.5527 -10.2722 1.5
      vertex 14.8683 -10.0815 1.5
    endloop
  endfacet
  facet normal 0.632131 -0.774862 0
    outer loop
      vertex 14.8683 -10.0815 1.5
      vertex 15.1419 -9.85835 3
      vertex 14.8683 -10.0815 3
    endloop
  endfacet
  facet normal 0.632131 -0.774862 0
    outer loop
      vertex 15.1419 -9.85835 3
      vertex 14.8683 -10.0815 1.5
      vertex 15.1419 -9.85835 1.5
    endloop
  endfacet
  facet normal 0.74437 -0.667767 0
    outer loop
      vertex 15.1419 -9.85835 3
      vertex 15.3733 -9.60036 1.5
      vertex 15.3733 -9.60036 3
    endloop
  endfacet
  facet normal 0.74437 -0.667767 0
    outer loop
      vertex 15.3733 -9.60036 1.5
      vertex 15.1419 -9.85835 3
      vertex 15.1419 -9.85835 1.5
    endloop
  endfacet
  facet normal 0.83975 -0.542974 0
    outer loop
      vertex 15.3733 -9.60036 3
      vertex 15.5627 -9.3075 1.5
      vertex 15.5627 -9.3075 3
    endloop
  endfacet
  facet normal 0.83975 -0.542974 0
    outer loop
      vertex 15.5627 -9.3075 1.5
      vertex 15.3733 -9.60036 3
      vertex 15.3733 -9.60036 1.5
    endloop
  endfacet
  facet normal 0.912107 -0.409953 0
    outer loop
      vertex 15.5627 -9.3075 3
      vertex 15.71 -8.97978 1.5
      vertex 15.71 -8.97978 3
    endloop
  endfacet
  facet normal 0.912107 -0.409953 0
    outer loop
      vertex 15.71 -8.97978 1.5
      vertex 15.5627 -9.3075 3
      vertex 15.5627 -9.3075 1.5
    endloop
  endfacet
  facet normal 0.960396 -0.278637 0
    outer loop
      vertex 15.71 -8.97978 3
      vertex 15.8152 -8.6172 1.5
      vertex 15.8152 -8.6172 3
    endloop
  endfacet
  facet normal 0.960396 -0.278637 0
    outer loop
      vertex 15.8152 -8.6172 1.5
      vertex 15.71 -8.97978 3
      vertex 15.71 -8.97978 1.5
    endloop
  endfacet
  facet normal 0.98762 -0.156868 0
    outer loop
      vertex 15.8152 -8.6172 3
      vertex 15.8783 -8.21977 1.5
      vertex 15.8783 -8.21977 3
    endloop
  endfacet
  facet normal 0.98762 -0.156868 0
    outer loop
      vertex 15.8783 -8.21977 1.5
      vertex 15.8152 -8.6172 3
      vertex 15.8152 -8.6172 1.5
    endloop
  endfacet
  facet normal 0.998817 -0.0486188 0
    outer loop
      vertex 15.8783 -8.21977 3
      vertex 15.8993 -7.78749 1.5
      vertex 15.8993 -7.78749 3
    endloop
  endfacet
  facet normal 0.998817 -0.0486188 0
    outer loop
      vertex 15.8993 -7.78749 1.5
      vertex 15.8783 -8.21977 3
      vertex 15.8783 -8.21977 1.5
    endloop
  endfacet
  facet normal 0.998789 0.0492006 0
    outer loop
      vertex 15.8993 -7.78749 3
      vertex 15.8736 -7.26462 1.5
      vertex 15.8736 -7.26462 3
    endloop
  endfacet
  facet normal 0.998789 0.0492006 0
    outer loop
      vertex 15.8736 -7.26462 1.5
      vertex 15.8993 -7.78749 3
      vertex 15.8993 -7.78749 1.5
    endloop
  endfacet
  facet normal 0.986619 0.163041 0
    outer loop
      vertex 15.8736 -7.26462 3
      vertex 15.7963 -6.79712 1.5
      vertex 15.7963 -6.79712 3
    endloop
  endfacet
  facet normal 0.986619 0.163041 0
    outer loop
      vertex 15.7963 -6.79712 1.5
      vertex 15.8736 -7.26462 3
      vertex 15.8736 -7.26462 1.5
    endloop
  endfacet
  facet normal 0.954477 0.298285 0
    outer loop
      vertex 15.7963 -6.79712 3
      vertex 15.6675 -6.38503 1.5
      vertex 15.6675 -6.38503 3
    endloop
  endfacet
  facet normal 0.954477 0.298285 0
    outer loop
      vertex 15.6675 -6.38503 1.5
      vertex 15.7963 -6.79712 3
      vertex 15.7963 -6.79712 1.5
    endloop
  endfacet
  facet normal 0.892495 0.451058 0
    outer loop
      vertex 15.6675 -6.38503 3
      vertex 15.4873 -6.02831 1.5
      vertex 15.4873 -6.02831 3
    endloop
  endfacet
  facet normal 0.892495 0.451058 0
    outer loop
      vertex 15.4873 -6.02831 1.5
      vertex 15.6675 -6.38503 3
      vertex 15.6675 -6.38503 1.5
    endloop
  endfacet
  facet normal 0.792605 0.609736 0
    outer loop
      vertex 15.4873 -6.02831 3
      vertex 15.2555 -5.72699 1.5
      vertex 15.2555 -5.72699 3
    endloop
  endfacet
  facet normal 0.792605 0.609736 0
    outer loop
      vertex 15.2555 -5.72699 1.5
      vertex 15.4873 -6.02831 3
      vertex 15.4873 -6.02831 1.5
    endloop
  endfacet
  facet normal 0.655548 0.755153 -0
    outer loop
      vertex 15.2555 -5.72699 1.5
      vertex 14.9722 -5.48105 3
      vertex 15.2555 -5.72699 3
    endloop
  endfacet
  facet normal 0.655548 0.755153 0
    outer loop
      vertex 14.9722 -5.48105 3
      vertex 15.2555 -5.72699 1.5
      vertex 14.9722 -5.48105 1.5
    endloop
  endfacet
  facet normal 0.494637 0.8691 -0
    outer loop
      vertex 14.9722 -5.48105 1.5
      vertex 14.6373 -5.2905 3
      vertex 14.9722 -5.48105 3
    endloop
  endfacet
  facet normal 0.494637 0.8691 0
    outer loop
      vertex 14.6373 -5.2905 3
      vertex 14.9722 -5.48105 1.5
      vertex 14.6373 -5.2905 1.5
    endloop
  endfacet
  facet normal 0.372148 0.928173 -0
    outer loop
      vertex 14.6373 -5.2905 1.5
      vertex 14.2602 -5.13927 3
      vertex 14.6373 -5.2905 3
    endloop
  endfacet
  facet normal 0.372148 0.928173 0
    outer loop
      vertex 14.2602 -5.13927 3
      vertex 14.6373 -5.2905 1.5
      vertex 14.2602 -5.13927 1.5
    endloop
  endfacet
  facet normal 0.297278 0.954791 -0
    outer loop
      vertex 14.2602 -5.13927 1.5
      vertex 13.8492 -5.01131 3
      vertex 14.2602 -5.13927 3
    endloop
  endfacet
  facet normal 0.297278 0.954791 0
    outer loop
      vertex 13.8492 -5.01131 3
      vertex 14.2602 -5.13927 1.5
      vertex 13.8492 -5.01131 1.5
    endloop
  endfacet
  facet normal 0.229116 0.973399 -0
    outer loop
      vertex 13.8492 -5.01131 1.5
      vertex 13.4044 -4.90662 3
      vertex 13.8492 -5.01131 3
    endloop
  endfacet
  facet normal 0.229116 0.973399 0
    outer loop
      vertex 13.4044 -4.90662 3
      vertex 13.8492 -5.01131 1.5
      vertex 13.4044 -4.90662 1.5
    endloop
  endfacet
  facet normal 0.167752 0.985829 -0
    outer loop
      vertex 13.4044 -4.90662 1.5
      vertex 12.9258 -4.82518 3
      vertex 13.4044 -4.90662 3
    endloop
  endfacet
  facet normal 0.167752 0.985829 0
    outer loop
      vertex 12.9258 -4.82518 3
      vertex 13.4044 -4.90662 1.5
      vertex 12.9258 -4.82518 1.5
    endloop
  endfacet
  facet normal 0.112773 0.993621 -0
    outer loop
      vertex 12.9258 -4.82518 1.5
      vertex 12.4135 -4.76703 3
      vertex 12.9258 -4.82518 3
    endloop
  endfacet
  facet normal 0.112773 0.993621 0
    outer loop
      vertex 12.4135 -4.76703 3
      vertex 12.9258 -4.82518 1.5
      vertex 12.4135 -4.76703 1.5
    endloop
  endfacet
  facet normal 0.0637634 0.997965 -0
    outer loop
      vertex 12.4135 -4.76703 1.5
      vertex 11.8673 -4.73213 3
      vertex 12.4135 -4.76703 3
    endloop
  endfacet
  facet normal 0.0637634 0.997965 0
    outer loop
      vertex 11.8673 -4.73213 3
      vertex 12.4135 -4.76703 1.5
      vertex 11.8673 -4.73213 1.5
    endloop
  endfacet
  facet normal 0.0200707 0.999799 -0
    outer loop
      vertex 11.8673 -4.73213 1.5
      vertex 11.2873 -4.72049 3
      vertex 11.8673 -4.73213 3
    endloop
  endfacet
  facet normal 0.0200707 0.999799 0
    outer loop
      vertex 11.2873 -4.72049 3
      vertex 11.8673 -4.73213 1.5
      vertex 11.2873 -4.72049 1.5
    endloop
  endfacet
  facet normal 0 1 -0
    outer loop
      vertex 11.2873 -4.72049 1.5
      vertex 10.1213 -4.72049 3
      vertex 11.2873 -4.72049 3
    endloop
  endfacet
  facet normal 0 1 0
    outer loop
      vertex 10.1213 -4.72049 3
      vertex 11.2873 -4.72049 1.5
      vertex 10.1213 -4.72049 1.5
    endloop
  endfacet
  facet normal 1 -0 0
    outer loop
      vertex 10.1213 -4.72049 3
      vertex 10.1213 16.2335 1.5
      vertex 10.1213 16.2335 3
    endloop
  endfacet
  facet normal 1 0 0
    outer loop
      vertex 10.1213 16.2335 1.5
      vertex 10.1213 -4.72049 3
      vertex 10.1213 -4.72049 1.5
    endloop
  endfacet
  facet normal 0.997738 0.067216 0
    outer loop
      vertex 10.1213 16.2335 3
      vertex 10.0372 17.4831 1.5
      vertex 10.0372 17.4831 3
    endloop
  endfacet
  facet normal 0.997738 0.067216 0
    outer loop
      vertex 10.0372 17.4831 1.5
      vertex 10.1213 16.2335 3
      vertex 10.1213 16.2335 1.5
    endloop
  endfacet
  facet normal 0.972641 0.232314 0
    outer loop
      vertex 10.0372 17.4831 3
      vertex 9.78461 18.5404 1.5
      vertex 9.78461 18.5404 3
    endloop
  endfacet
  facet normal 0.972641 0.232314 0
    outer loop
      vertex 9.78461 18.5404 1.5
      vertex 10.0372 17.4831 3
      vertex 10.0372 17.4831 1.5
    endloop
  endfacet
  facet normal 0.899212 0.437513 0
    outer loop
      vertex 9.78461 18.5404 3
      vertex 9.36369 19.4055 1.5
      vertex 9.36369 19.4055 3
    endloop
  endfacet
  facet normal 0.899212 0.437513 0
    outer loop
      vertex 9.36369 19.4055 1.5
      vertex 9.78461 18.5404 3
      vertex 9.78461 18.5404 1.5
    endloop
  endfacet
  facet normal 0.752272 0.658852 0
    outer loop
      vertex 9.36369 19.4055 3
      vertex 8.7744 20.0784 1.5
      vertex 8.7744 20.0784 3
    endloop
  endfacet
  facet normal 0.752272 0.658852 0
    outer loop
      vertex 8.7744 20.0784 1.5
      vertex 9.36369 19.4055 3
      vertex 9.36369 19.4055 1.5
    endloop
  endfacet
  facet normal 0.535672 0.844426 -0
    outer loop
      vertex 8.7744 20.0784 1.5
      vertex 8.01675 20.559 3
      vertex 8.7744 20.0784 3
    endloop
  endfacet
  facet normal 0.535672 0.844426 0
    outer loop
      vertex 8.01675 20.559 3
      vertex 8.7744 20.0784 1.5
      vertex 8.01675 20.559 1.5
    endloop
  endfacet
  facet normal 0.297315 0.95478 -0
    outer loop
      vertex 8.01675 20.559 1.5
      vertex 7.09073 20.8474 3
      vertex 8.01675 20.559 3
    endloop
  endfacet
  facet normal 0.297315 0.95478 0
    outer loop
      vertex 7.09073 20.8474 3
      vertex 8.01675 20.559 1.5
      vertex 7.09073 20.8474 1.5
    endloop
  endfacet
  facet normal 0.0875022 0.996164 -0
    outer loop
      vertex 7.09073 20.8474 1.5
      vertex 5.99634 20.9435 3
      vertex 7.09073 20.8474 3
    endloop
  endfacet
  facet normal 0.0875022 0.996164 0
    outer loop
      vertex 5.99634 20.9435 3
      vertex 7.09073 20.8474 1.5
      vertex 5.99634 20.9435 1.5
    endloop
  endfacet
  facet normal -0.0487361 0.998812 0
    outer loop
      vertex 5.99634 20.9435 1.5
      vertex 5.63953 20.9261 3
      vertex 5.99634 20.9435 3
    endloop
  endfacet
  facet normal -0.0487361 0.998812 0
    outer loop
      vertex 5.63953 20.9261 3
      vertex 5.99634 20.9435 1.5
      vertex 5.63953 20.9261 1.5
    endloop
  endfacet
  facet normal -0.151026 0.98853 0
    outer loop
      vertex 5.63953 20.9261 1.5
      vertex 5.29765 20.8739 3
      vertex 5.63953 20.9261 3
    endloop
  endfacet
  facet normal -0.151026 0.98853 0
    outer loop
      vertex 5.29765 20.8739 3
      vertex 5.63953 20.9261 1.5
      vertex 5.29765 20.8739 1.5
    endloop
  endfacet
  facet normal -0.257247 0.966346 0
    outer loop
      vertex 5.29765 20.8739 1.5
      vertex 4.9707 20.7868 3
      vertex 5.29765 20.8739 3
    endloop
  endfacet
  facet normal -0.257247 0.966346 0
    outer loop
      vertex 4.9707 20.7868 3
      vertex 5.29765 20.8739 1.5
      vertex 4.9707 20.7868 1.5
    endloop
  endfacet
  facet normal -0.363807 0.931474 0
    outer loop
      vertex 4.9707 20.7868 1.5
      vertex 4.65871 20.665 3
      vertex 4.9707 20.7868 3
    endloop
  endfacet
  facet normal -0.363807 0.931474 0
    outer loop
      vertex 4.65871 20.665 3
      vertex 4.9707 20.7868 1.5
      vertex 4.65871 20.665 1.5
    endloop
  endfacet
  facet normal -0.466518 0.884512 0
    outer loop
      vertex 4.65871 20.665 1.5
      vertex 4.36165 20.5083 3
      vertex 4.65871 20.665 3
    endloop
  endfacet
  facet normal -0.466518 0.884512 0
    outer loop
      vertex 4.36165 20.5083 3
      vertex 4.65871 20.665 1.5
      vertex 4.36165 20.5083 1.5
    endloop
  endfacet
  facet normal -0.56159 0.827416 0
    outer loop
      vertex 4.36165 20.5083 1.5
      vertex 4.07953 20.3168 3
      vertex 4.36165 20.5083 3
    endloop
  endfacet
  facet normal -0.56159 0.827416 0
    outer loop
      vertex 4.07953 20.3168 3
      vertex 4.36165 20.5083 1.5
      vertex 4.07953 20.3168 1.5
    endloop
  endfacet
  facet normal -0.646319 0.763067 0
    outer loop
      vertex 4.07953 20.3168 1.5
      vertex 3.81235 20.0905 3
      vertex 4.07953 20.3168 3
    endloop
  endfacet
  facet normal -0.646319 0.763067 0
    outer loop
      vertex 3.81235 20.0905 3
      vertex 4.07953 20.3168 1.5
      vertex 3.81235 20.0905 1.5
    endloop
  endfacet
  facet normal -0.700522 0.713631 0
    outer loop
      vertex 3.81235 20.0905 1.5
      vertex 3.54237 19.8255 3
      vertex 3.81235 20.0905 3
    endloop
  endfacet
  facet normal -0.700522 0.713631 0
    outer loop
      vertex 3.54237 19.8255 3
      vertex 3.81235 20.0905 1.5
      vertex 3.54237 19.8255 1.5
    endloop
  endfacet
  facet normal -0.72707 0.686563 0
    outer loop
      vertex 3.25194 19.5179 1.5
      vertex 3.54237 19.8255 3
      vertex 3.54237 19.8255 1.5
    endloop
  endfacet
  facet normal -0.72707 0.686563 0
    outer loop
      vertex 3.54237 19.8255 3
      vertex 3.25194 19.5179 1.5
      vertex 3.25194 19.5179 3
    endloop
  endfacet
  facet normal -0.747708 0.664028 0
    outer loop
      vertex 2.94099 19.1678 1.5
      vertex 3.25194 19.5179 3
      vertex 3.25194 19.5179 1.5
    endloop
  endfacet
  facet normal -0.747708 0.664028 0
    outer loop
      vertex 3.25194 19.5179 3
      vertex 2.94099 19.1678 1.5
      vertex 2.94099 19.1678 3
    endloop
  endfacet
  facet normal -0.764212 0.644965 0
    outer loop
      vertex 2.60956 18.7751 1.5
      vertex 2.94099 19.1678 3
      vertex 2.94099 19.1678 1.5
    endloop
  endfacet
  facet normal -0.764212 0.644965 0
    outer loop
      vertex 2.94099 19.1678 3
      vertex 2.60956 18.7751 1.5
      vertex 2.60956 18.7751 3
    endloop
  endfacet
  facet normal -0.777648 0.628699 0
    outer loop
      vertex 2.25764 18.3398 1.5
      vertex 2.60956 18.7751 3
      vertex 2.60956 18.7751 1.5
    endloop
  endfacet
  facet normal -0.777648 0.628699 0
    outer loop
      vertex 2.60956 18.7751 3
      vertex 2.25764 18.3398 1.5
      vertex 2.25764 18.3398 3
    endloop
  endfacet
  facet normal -0.788762 0.614699 0
    outer loop
      vertex 1.88524 17.8619 1.5
      vertex 2.25764 18.3398 3
      vertex 2.25764 18.3398 1.5
    endloop
  endfacet
  facet normal -0.788762 0.614699 0
    outer loop
      vertex 2.25764 18.3398 3
      vertex 1.88524 17.8619 1.5
      vertex 1.88524 17.8619 3
    endloop
  endfacet
  facet normal -0.798101 0.602524 0
    outer loop
      vertex 1.49234 17.3415 1.5
      vertex 1.88524 17.8619 3
      vertex 1.88524 17.8619 1.5
    endloop
  endfacet
  facet normal -0.798101 0.602524 0
    outer loop
      vertex 1.88524 17.8619 3
      vertex 1.49234 17.3415 1.5
      vertex 1.49234 17.3415 3
    endloop
  endfacet
  facet normal -0.80054 0.59928 0
    outer loop
      vertex -12.8837 -1.86249 1.5
      vertex 1.49234 17.3415 3
      vertex 1.49234 17.3415 1.5
    endloop
  endfacet
  facet normal -0.80054 0.59928 0
    outer loop
      vertex 1.49234 17.3415 3
      vertex -12.8837 -1.86249 1.5
      vertex -12.8837 -1.86249 3
    endloop
  endfacet
  facet normal -0.797472 0.603356 0
    outer loop
      vertex -13.8876 -3.1895 1.5
      vertex -12.8837 -1.86249 3
      vertex -12.8837 -1.86249 1.5
    endloop
  endfacet
  facet normal -0.797472 0.603356 0
    outer loop
      vertex -12.8837 -1.86249 3
      vertex -13.8876 -3.1895 1.5
      vertex -13.8876 -3.1895 3
    endloop
  endfacet
  facet normal -0.805363 0.592782 0
    outer loop
      vertex -14.118 -3.50247 1.5
      vertex -13.8876 -3.1895 3
      vertex -13.8876 -3.1895 1.5
    endloop
  endfacet
  facet normal -0.805363 0.592782 0
    outer loop
      vertex -13.8876 -3.1895 3
      vertex -14.118 -3.50247 1.5
      vertex -14.118 -3.50247 3
    endloop
  endfacet
  facet normal -0.816462 0.577399 0
    outer loop
      vertex -14.344 -3.82198 1.5
      vertex -14.118 -3.50247 3
      vertex -14.118 -3.50247 1.5
    endloop
  endfacet
  facet normal -0.816462 0.577399 0
    outer loop
      vertex -14.118 -3.50247 3
      vertex -14.344 -3.82198 1.5
      vertex -14.344 -3.82198 3
    endloop
  endfacet
  facet normal -0.827111 0.562039 0
    outer loop
      vertex -14.5655 -4.14803 1.5
      vertex -14.344 -3.82198 3
      vertex -14.344 -3.82198 1.5
    endloop
  endfacet
  facet normal -0.827111 0.562039 0
    outer loop
      vertex -14.344 -3.82198 3
      vertex -14.5655 -4.14803 1.5
      vertex -14.5655 -4.14803 3
    endloop
  endfacet
  facet normal -0.834788 0.550572 0
    outer loop
      vertex -14.6747 -4.31349 1.5
      vertex -14.5655 -4.14803 3
      vertex -14.5655 -4.14803 1.5
    endloop
  endfacet
  facet normal -0.834788 0.550572 0
    outer loop
      vertex -14.5655 -4.14803 3
      vertex -14.6747 -4.31349 1.5
      vertex -14.6747 -4.31349 3
    endloop
  endfacet
  facet normal -0.845316 0.534266 0
    outer loop
      vertex -14.7791 -4.4787 1.5
      vertex -14.6747 -4.31349 3
      vertex -14.6747 -4.31349 1.5
    endloop
  endfacet
  facet normal -0.845316 0.534266 0
    outer loop
      vertex -14.6747 -4.31349 3
      vertex -14.7791 -4.4787 1.5
      vertex -14.7791 -4.4787 3
    endloop
  endfacet
  facet normal -0.860039 0.510228 0
    outer loop
      vertex -14.8758 -4.64174 1.5
      vertex -14.7791 -4.4787 3
      vertex -14.7791 -4.4787 1.5
    endloop
  endfacet
  facet normal -0.860039 0.510228 0
    outer loop
      vertex -14.7791 -4.4787 3
      vertex -14.8758 -4.64174 1.5
      vertex -14.8758 -4.64174 3
    endloop
  endfacet
  facet normal -0.875045 0.484042 0
    outer loop
      vertex -14.9648 -4.80261 1.5
      vertex -14.8758 -4.64174 3
      vertex -14.8758 -4.64174 1.5
    endloop
  endfacet
  facet normal -0.875045 0.484042 0
    outer loop
      vertex -14.8758 -4.64174 3
      vertex -14.9648 -4.80261 1.5
      vertex -14.9648 -4.80261 3
    endloop
  endfacet
  facet normal -0.890073 0.455818 0
    outer loop
      vertex -15.0461 -4.96133 1.5
      vertex -14.9648 -4.80261 3
      vertex -14.9648 -4.80261 1.5
    endloop
  endfacet
  facet normal -0.890073 0.455818 0
    outer loop
      vertex -14.9648 -4.80261 3
      vertex -15.0461 -4.96133 1.5
      vertex -15.0461 -4.96133 3
    endloop
  endfacet
  facet normal -0.905015 0.425381 0
    outer loop
      vertex -15.1196 -5.11787 1.5
      vertex -15.0461 -4.96133 3
      vertex -15.0461 -4.96133 1.5
    endloop
  endfacet
  facet normal -0.905015 0.425381 0
    outer loop
      vertex -15.0461 -4.96133 3
      vertex -15.1196 -5.11787 1.5
      vertex -15.1196 -5.11787 3
    endloop
  endfacet
  facet normal -0.919811 0.392361 0
    outer loop
      vertex -15.1855 -5.27226 1.5
      vertex -15.1196 -5.11787 3
      vertex -15.1196 -5.11787 1.5
    endloop
  endfacet
  facet normal -0.919811 0.392361 0
    outer loop
      vertex -15.1196 -5.11787 3
      vertex -15.1855 -5.27226 1.5
      vertex -15.1855 -5.27226 3
    endloop
  endfacet
  facet normal -0.934168 0.356832 0
    outer loop
      vertex -15.2437 -5.4245 1.5
      vertex -15.1855 -5.27226 3
      vertex -15.1855 -5.27226 1.5
    endloop
  endfacet
  facet normal -0.934168 0.356832 0
    outer loop
      vertex -15.1855 -5.27226 3
      vertex -15.2437 -5.4245 1.5
      vertex -15.2437 -5.4245 3
    endloop
  endfacet
  facet normal -0.948279 0.317438 0
    outer loop
      vertex -15.2941 -5.57506 1.5
      vertex -15.2437 -5.4245 3
      vertex -15.2437 -5.4245 1.5
    endloop
  endfacet
  facet normal -0.948279 0.317438 0
    outer loop
      vertex -15.2437 -5.4245 3
      vertex -15.2941 -5.57506 1.5
      vertex -15.2941 -5.57506 3
    endloop
  endfacet
  facet normal -0.961881 0.273467 0
    outer loop
      vertex -15.3367 -5.72507 1.5
      vertex -15.2941 -5.57506 3
      vertex -15.2941 -5.57506 1.5
    endloop
  endfacet
  facet normal -0.961881 0.273467 0
    outer loop
      vertex -15.2941 -5.57506 3
      vertex -15.3367 -5.72507 1.5
      vertex -15.3367 -5.72507 3
    endloop
  endfacet
  facet normal -0.973798 0.227415 0
    outer loop
      vertex -15.3716 -5.8745 1.5
      vertex -15.3367 -5.72507 3
      vertex -15.3367 -5.72507 1.5
    endloop
  endfacet
  facet normal -0.973798 0.227415 0
    outer loop
      vertex -15.3367 -5.72507 3
      vertex -15.3716 -5.8745 1.5
      vertex -15.3716 -5.8745 3
    endloop
  endfacet
  facet normal -0.983775 0.179409 0
    outer loop
      vertex -15.3987 -6.02335 1.5
      vertex -15.3716 -5.8745 3
      vertex -15.3716 -5.8745 1.5
    endloop
  endfacet
  facet normal -0.983775 0.179409 0
    outer loop
      vertex -15.3716 -5.8745 3
      vertex -15.3987 -6.02335 1.5
      vertex -15.3987 -6.02335 3
    endloop
  endfacet
  facet normal -0.991555 0.129684 0
    outer loop
      vertex -15.4181 -6.17163 1.5
      vertex -15.3987 -6.02335 3
      vertex -15.3987 -6.02335 1.5
    endloop
  endfacet
  facet normal -0.991555 0.129684 0
    outer loop
      vertex -15.3987 -6.02335 3
      vertex -15.4181 -6.17163 1.5
      vertex -15.4181 -6.17163 3
    endloop
  endfacet
  facet normal -0.996917 0.0784682 0
    outer loop
      vertex -15.4298 -6.31935 1.5
      vertex -15.4181 -6.17163 3
      vertex -15.4181 -6.17163 1.5
    endloop
  endfacet
  facet normal -0.996917 0.0784682 0
    outer loop
      vertex -15.4181 -6.17163 3
      vertex -15.4298 -6.31935 1.5
      vertex -15.4298 -6.31935 3
    endloop
  endfacet
  facet normal -0.999653 0.0263312 0
    outer loop
      vertex -15.4336 -6.46649 1.5
      vertex -15.4298 -6.31935 3
      vertex -15.4298 -6.31935 1.5
    endloop
  endfacet
  facet normal -0.999653 0.0263312 0
    outer loop
      vertex -15.4298 -6.31935 3
      vertex -15.4336 -6.46649 1.5
      vertex -15.4336 -6.46649 3
    endloop
  endfacet
  facet normal -0.998884 -0.0472302 0
    outer loop
      vertex -15.4074 -7.0222 1.5
      vertex -15.4336 -6.46649 3
      vertex -15.4336 -6.46649 1.5
    endloop
  endfacet
  facet normal -0.998884 -0.0472302 0
    outer loop
      vertex -15.4336 -6.46649 3
      vertex -15.4074 -7.0222 1.5
      vertex -15.4074 -7.0222 3
    endloop
  endfacet
  facet normal -0.988757 -0.14953 0
    outer loop
      vertex -15.3285 -7.54364 1.5
      vertex -15.4074 -7.0222 3
      vertex -15.4074 -7.0222 1.5
    endloop
  endfacet
  facet normal -0.988757 -0.14953 0
    outer loop
      vertex -15.4074 -7.0222 3
      vertex -15.3285 -7.54364 1.5
      vertex -15.3285 -7.54364 3
    endloop
  endfacet
  facet normal -0.965473 -0.260504 0
    outer loop
      vertex -15.1971 -8.03078 1.5
      vertex -15.3285 -7.54364 3
      vertex -15.3285 -7.54364 1.5
    endloop
  endfacet
  facet normal -0.965473 -0.260504 0
    outer loop
      vertex -15.3285 -7.54364 3
      vertex -15.1971 -8.03078 1.5
      vertex -15.1971 -8.03078 3
    endloop
  endfacet
  facet normal -0.926457 -0.376401 0
    outer loop
      vertex -15.0131 -8.48364 1.5
      vertex -15.1971 -8.03078 3
      vertex -15.1971 -8.03078 1.5
    endloop
  endfacet
  facet normal -0.926457 -0.376401 0
    outer loop
      vertex -15.1971 -8.03078 3
      vertex -15.0131 -8.48364 1.5
      vertex -15.0131 -8.48364 3
    endloop
  endfacet
  facet normal -0.870569 -0.492046 0
    outer loop
      vertex -14.7765 -8.90221 1.5
      vertex -15.0131 -8.48364 3
      vertex -15.0131 -8.48364 1.5
    endloop
  endfacet
  facet normal -0.870569 -0.492046 0
    outer loop
      vertex -15.0131 -8.48364 3
      vertex -14.7765 -8.90221 1.5
      vertex -14.7765 -8.90221 3
    endloop
  endfacet
  facet normal -0.799081 -0.601223 0
    outer loop
      vertex -14.4874 -9.2865 1.5
      vertex -14.7765 -8.90221 3
      vertex -14.7765 -8.90221 1.5
    endloop
  endfacet
  facet normal -0.799081 -0.601223 0
    outer loop
      vertex -14.7765 -8.90221 3
      vertex -14.4874 -9.2865 1.5
      vertex -14.4874 -9.2865 3
    endloop
  endfacet
  facet normal -0.71551 -0.698603 0
    outer loop
      vertex -14.1456 -9.63649 1.5
      vertex -14.4874 -9.2865 3
      vertex -14.4874 -9.2865 1.5
    endloop
  endfacet
  facet normal -0.71551 -0.698603 0
    outer loop
      vertex -14.4874 -9.2865 3
      vertex -14.1456 -9.63649 1.5
      vertex -14.1456 -9.63649 3
    endloop
  endfacet
  facet normal -0.616337 -0.787483 0
    outer loop
      vertex -14.1456 -9.63649 1.5
      vertex -13.7511 -9.94531 3
      vertex -14.1456 -9.63649 3
    endloop
  endfacet
  facet normal -0.616337 -0.787483 -0
    outer loop
      vertex -13.7511 -9.94531 3
      vertex -14.1456 -9.63649 1.5
      vertex -13.7511 -9.94531 1.5
    endloop
  endfacet
  facet normal -0.504552 -0.863381 0
    outer loop
      vertex -13.7511 -9.94531 1.5
      vertex -13.3039 -10.2066 3
      vertex -13.7511 -9.94531 3
    endloop
  endfacet
  facet normal -0.504552 -0.863381 -0
    outer loop
      vertex -13.3039 -10.2066 3
      vertex -13.7511 -9.94531 1.5
      vertex -13.3039 -10.2066 1.5
    endloop
  endfacet
  facet normal -0.393343 -0.919392 0
    outer loop
      vertex -13.3039 -10.2066 1.5
      vertex -12.8042 -10.4204 3
      vertex -13.3039 -10.2066 3
    endloop
  endfacet
  facet normal -0.393343 -0.919392 -0
    outer loop
      vertex -12.8042 -10.4204 3
      vertex -13.3039 -10.2066 1.5
      vertex -12.8042 -10.4204 1.5
    endloop
  endfacet
  facet normal -0.288314 -0.957536 0
    outer loop
      vertex -12.8042 -10.4204 1.5
      vertex -12.2519 -10.5867 3
      vertex -12.8042 -10.4204 3
    endloop
  endfacet
  facet normal -0.288314 -0.957536 -0
    outer loop
      vertex -12.2519 -10.5867 3
      vertex -12.8042 -10.4204 1.5
      vertex -12.2519 -10.5867 1.5
    endloop
  endfacet
  facet normal -0.192687 -0.98126 0
    outer loop
      vertex -12.2519 -10.5867 1.5
      vertex -11.6471 -10.7055 3
      vertex -12.2519 -10.5867 3
    endloop
  endfacet
  facet normal -0.192687 -0.98126 -0
    outer loop
      vertex -11.6471 -10.7055 3
      vertex -12.2519 -10.5867 1.5
      vertex -11.6471 -10.7055 1.5
    endloop
  endfacet
  facet normal -0.107757 -0.994177 0
    outer loop
      vertex -11.6471 -10.7055 1.5
      vertex -10.9896 -10.7767 3
      vertex -11.6471 -10.7055 3
    endloop
  endfacet
  facet normal -0.107757 -0.994177 -0
    outer loop
      vertex -10.9896 -10.7767 3
      vertex -11.6471 -10.7055 1.5
      vertex -10.9896 -10.7767 1.5
    endloop
  endfacet
  facet normal -0.0334436 -0.999441 0
    outer loop
      vertex -10.9896 -10.7767 1.5
      vertex -10.2796 -10.8005 3
      vertex -10.9896 -10.7767 3
    endloop
  endfacet
  facet normal -0.0334436 -0.999441 -0
    outer loop
      vertex -10.2796 -10.8005 3
      vertex -10.9896 -10.7767 1.5
      vertex -10.2796 -10.8005 1.5
    endloop
  endfacet
  facet normal 0 -1 0
    outer loop
      vertex -10.2796 -10.8005 1.5
      vertex 3.33734 -10.8005 3
      vertex -10.2796 -10.8005 3
    endloop
  endfacet
  facet normal 0 -1 -0
    outer loop
      vertex 3.33734 -10.8005 3
      vertex -10.2796 -10.8005 1.5
      vertex 3.33734 -10.8005 1.5
    endloop
  endfacet
  facet normal -1 0 0
    outer loop
      vertex 3.33734 -15.8725 1.5
      vertex 3.33734 -10.8005 3
      vertex 3.33734 -10.8005 1.5
    endloop
  endfacet
  facet normal -1 -0 0
    outer loop
      vertex 3.33734 -10.8005 3
      vertex 3.33734 -15.8725 1.5
      vertex 3.33734 -15.8725 3
    endloop
  endfacet
  facet normal -0.999426 -0.0338706 0
    outer loop
      vertex 3.35645 -16.4362 1.5
      vertex 3.33734 -15.8725 3
      vertex 3.33734 -15.8725 1.5
    endloop
  endfacet
  facet normal -0.999426 -0.0338706 0
    outer loop
      vertex 3.33734 -15.8725 3
      vertex 3.35645 -16.4362 1.5
      vertex 3.35645 -16.4362 3
    endloop
  endfacet
  facet normal -0.994056 -0.108872 0
    outer loop
      vertex 3.41374 -16.9594 1.5
      vertex 3.35645 -16.4362 3
      vertex 3.35645 -16.4362 1.5
    endloop
  endfacet
  facet normal -0.994056 -0.108872 0
    outer loop
      vertex 3.35645 -16.4362 3
      vertex 3.41374 -16.9594 1.5
      vertex 3.41374 -16.9594 3
    endloop
  endfacet
  facet normal -0.980968 -0.194171 0
    outer loop
      vertex 3.50926 -17.4419 1.5
      vertex 3.41374 -16.9594 3
      vertex 3.41374 -16.9594 1.5
    endloop
  endfacet
  facet normal -0.980968 -0.194171 0
    outer loop
      vertex 3.41374 -16.9594 3
      vertex 3.50926 -17.4419 1.5
      vertex 3.50926 -17.4419 3
    endloop
  endfacet
  facet normal -0.957161 -0.289557 0
    outer loop
      vertex 3.64297 -17.8839 1.5
      vertex 3.50926 -17.4419 3
      vertex 3.50926 -17.4419 1.5
    endloop
  endfacet
  facet normal -0.957161 -0.289557 0
    outer loop
      vertex 3.50926 -17.4419 3
      vertex 3.64297 -17.8839 1.5
      vertex 3.64297 -17.8839 3
    endloop
  endfacet
  facet normal -0.919244 -0.393687 0
    outer loop
      vertex 3.8149 -18.2854 1.5
      vertex 3.64297 -17.8839 3
      vertex 3.64297 -17.8839 1.5
    endloop
  endfacet
  facet normal -0.919244 -0.393687 0
    outer loop
      vertex 3.64297 -17.8839 3
      vertex 3.8149 -18.2854 1.5
      vertex 3.8149 -18.2854 3
    endloop
  endfacet
  facet normal -0.86418 -0.503182 0
    outer loop
      vertex 4.02501 -18.6462 1.5
      vertex 3.8149 -18.2854 3
      vertex 3.8149 -18.2854 1.5
    endloop
  endfacet
  facet normal -0.86418 -0.503182 0
    outer loop
      vertex 3.8149 -18.2854 3
      vertex 4.02501 -18.6462 1.5
      vertex 4.02501 -18.6462 3
    endloop
  endfacet
  facet normal -0.790274 -0.612754 0
    outer loop
      vertex 4.27335 -18.9665 1.5
      vertex 4.02501 -18.6462 3
      vertex 4.02501 -18.6462 1.5
    endloop
  endfacet
  facet normal -0.790274 -0.612754 0
    outer loop
      vertex 4.02501 -18.6462 3
      vertex 4.27335 -18.9665 1.5
      vertex 4.27335 -18.9665 3
    endloop
  endfacet
  facet normal -0.706139 -0.708073 0
    outer loop
      vertex 4.27335 -18.9665 1.5
      vertex 4.55269 -19.2451 3
      vertex 4.27335 -18.9665 3
    endloop
  endfacet
  facet normal -0.706139 -0.708073 -0
    outer loop
      vertex 4.55269 -19.2451 3
      vertex 4.27335 -18.9665 1.5
      vertex 4.55269 -19.2451 1.5
    endloop
  endfacet
  facet normal -0.613776 -0.789481 0
    outer loop
      vertex 4.55269 -19.2451 1.5
      vertex 4.85587 -19.4808 3
      vertex 4.55269 -19.2451 3
    endloop
  endfacet
  facet normal -0.613776 -0.789481 -0
    outer loop
      vertex 4.85587 -19.4808 3
      vertex 4.55269 -19.2451 1.5
      vertex 4.85587 -19.4808 1.5
    endloop
  endfacet
  facet normal -0.507974 -0.861373 0
    outer loop
      vertex 4.85587 -19.4808 1.5
      vertex 5.18289 -19.6736 3
      vertex 4.85587 -19.4808 3
    endloop
  endfacet
  facet normal -0.507974 -0.861373 -0
    outer loop
      vertex 5.18289 -19.6736 3
      vertex 4.85587 -19.4808 1.5
      vertex 5.18289 -19.6736 1.5
    endloop
  endfacet
  facet normal -0.393123 -0.919486 0
    outer loop
      vertex 5.18289 -19.6736 1.5
      vertex 5.53375 -19.8236 3
      vertex 5.18289 -19.6736 3
    endloop
  endfacet
  facet normal -0.393123 -0.919486 -0
    outer loop
      vertex 5.53375 -19.8236 3
      vertex 5.18289 -19.6736 1.5
      vertex 5.53375 -19.8236 1.5
    endloop
  endfacet
  facet normal -0.274902 -0.961472 0
    outer loop
      vertex 5.53375 -19.8236 1.5
      vertex 5.90845 -19.9308 3
      vertex 5.53375 -19.8236 3
    endloop
  endfacet
  facet normal -0.274902 -0.961472 -0
    outer loop
      vertex 5.90845 -19.9308 3
      vertex 5.53375 -19.8236 1.5
      vertex 5.90845 -19.9308 1.5
    endloop
  endfacet
  facet normal -0.159285 -0.987233 0
    outer loop
      vertex 5.90845 -19.9308 1.5
      vertex 6.30698 -19.9951 3
      vertex 5.90845 -19.9308 3
    endloop
  endfacet
  facet normal -0.159285 -0.987233 -0
    outer loop
      vertex 6.30698 -19.9951 3
      vertex 5.90845 -19.9308 1.5
      vertex 6.30698 -19.9951 1.5
    endloop
  endfacet
  facet normal -0.0506574 -0.998716 0
    outer loop
      vertex 6.30698 -19.9951 1.5
      vertex 6.72934 -20.0165 3
      vertex 6.30698 -19.9951 3
    endloop
  endfacet
  facet normal -0.0506574 -0.998716 -0
    outer loop
      vertex 6.72934 -20.0165 3
      vertex 6.30698 -19.9951 1.5
      vertex 6.72934 -20.0165 1.5
    endloop
  endfacet
  facet normal 0.0485368 -0.998821 0
    outer loop
      vertex 6.72934 -20.0165 1.5
      vertex 7.15858 -19.9956 3
      vertex 6.72934 -20.0165 3
    endloop
  endfacet
  facet normal 0.0485368 -0.998821 0
    outer loop
      vertex 7.15858 -19.9956 3
      vertex 6.72934 -20.0165 1.5
      vertex 7.15858 -19.9956 1.5
    endloop
  endfacet
  facet normal 0.803514 -0.595286 0
    outer loop
      vertex -8.32664 -4.72049 3
      vertex 3.33734 11.0235 1.5
      vertex 3.33734 11.0235 3
    endloop
  endfacet
  facet normal 0.803514 -0.595286 0
    outer loop
      vertex 3.33734 11.0235 1.5
      vertex -8.32664 -4.72049 3
      vertex -8.32664 -4.72049 1.5
    endloop
  endfacet
  facet normal -1 0 0
    outer loop
      vertex 3.33734 -4.72049 1.5
      vertex 3.33734 11.0235 3
      vertex 3.33734 11.0235 1.5
    endloop
  endfacet
  facet normal -1 -0 0
    outer loop
      vertex 3.33734 11.0235 3
      vertex 3.33734 -4.72049 1.5
      vertex 3.33734 -4.72049 3
    endloop
  endfacet
  facet normal 0 1 -0
    outer loop
      vertex 3.33734 -4.72049 1.5
      vertex -8.32664 -4.72049 3
      vertex 3.33734 -4.72049 3
    endloop
  endfacet
  facet normal 0 1 0
    outer loop
      vertex -8.32664 -4.72049 3
      vertex 3.33734 -4.72049 1.5
      vertex -8.32664 -4.72049 1.5
    endloop
  endfacet
endsolid OpenSCAD_Model
