solid OpenSCAD_Model
  facet normal -1 0 0
    outer loop
      vertex -22.5 -22.5 0.5
      vertex -22.5 22.5 1.5
      vertex -22.5 22.5 0.5
    endloop
  endfacet
  facet normal -1 -0 0
    outer loop
      vertex -22.5 22.5 1.5
      vertex -22.5 -22.5 0.5
      vertex -22.5 -22.5 1.5
    endloop
  endfacet
  facet normal 0 0 1
    outer loop
      vertex 11.9067 -4.69225 1.5
      vertex 22.5 22.5 1.5
      vertex 11.9067 16.1557 1.5
    endloop
  endfacet
  facet normal 0 0 1
    outer loop
      vertex 22.5 22.5 1.5
      vertex 11.8842 16.8288 1.5
      vertex 11.9067 16.1557 1.5
    endloop
  endfacet
  facet normal 0 0 1
    outer loop
      vertex 22.5 22.5 1.5
      vertex 11.8169 17.452 1.5
      vertex 11.8842 16.8288 1.5
    endloop
  endfacet
  facet normal 0 0 1
    outer loop
      vertex 22.5 22.5 1.5
      vertex 11.7046 18.0253 1.5
      vertex 11.8169 17.452 1.5
    endloop
  endfacet
  facet normal 0 0 1
    outer loop
      vertex 22.5 22.5 1.5
      vertex 11.5475 18.5487 1.5
      vertex 11.7046 18.0253 1.5
    endloop
  endfacet
  facet normal 0 0 1
    outer loop
      vertex 22.5 22.5 1.5
      vertex 11.3455 19.0223 1.5
      vertex 11.5475 18.5487 1.5
    endloop
  endfacet
  facet normal 0 0 1
    outer loop
      vertex 22.5 22.5 1.5
      vertex 11.0985 19.446 1.5
      vertex 11.3455 19.0223 1.5
    endloop
  endfacet
  facet normal 0 0 1
    outer loop
      vertex 22.5 22.5 1.5
      vertex 10.8067 19.8197 1.5
      vertex 11.0985 19.446 1.5
    endloop
  endfacet
  facet normal 0 0 1
    outer loop
      vertex 22.5 22.5 1.5
      vertex 10.4769 20.144 1.5
      vertex 10.8067 19.8197 1.5
    endloop
  endfacet
  facet normal 0 0 1
    outer loop
      vertex 22.5 22.5 1.5
      vertex 10.1154 20.4183 1.5
      vertex 10.4769 20.144 1.5
    endloop
  endfacet
  facet normal 0 0 1
    outer loop
      vertex 22.5 22.5 1.5
      vertex 9.72234 20.6427 1.5
      vertex 10.1154 20.4183 1.5
    endloop
  endfacet
  facet normal 0 0 1
    outer loop
      vertex 22.5 22.5 1.5
      vertex 9.29761 20.8173 1.5
      vertex 9.72234 20.6427 1.5
    endloop
  endfacet
  facet normal 0 0 1
    outer loop
      vertex 22.5 22.5 1.5
      vertex 8.84126 20.942 1.5
      vertex 9.29761 20.8173 1.5
    endloop
  endfacet
  facet normal 0 0 1
    outer loop
      vertex 22.5 22.5 1.5
      vertex 8.35329 21.0168 1.5
      vertex 8.84126 20.942 1.5
    endloop
  endfacet
  facet normal 0 0 1
    outer loop
      vertex 22.5 22.5 1.5
      vertex 7.83368 21.0417 1.5
      vertex 8.35329 21.0168 1.5
    endloop
  endfacet
  facet normal 0 0 1
    outer loop
      vertex 22.5 22.5 1.5
      vertex 7.32202 21.0168 1.5
      vertex 7.83368 21.0417 1.5
    endloop
  endfacet
  facet normal -0 0 1
    outer loop
      vertex -8.55768 -4.21237 1.5
      vertex 3.84268 -5.86424 1.5
      vertex 3.84268 16.1547 1.5
    endloop
  endfacet
  facet normal -0 -0 1
    outer loop
      vertex -8.08449 -4.74173 1.5
      vertex 3.84268 -5.86424 1.5
      vertex -8.30931 -4.45724 1.5
    endloop
  endfacet
  facet normal -0 -0 1
    outer loop
      vertex -7.6814 -5.43707 1.5
      vertex 3.84268 -5.86424 1.5
      vertex -7.87518 -5.06834 1.5
    endloop
  endfacet
  facet normal 0 0 1
    outer loop
      vertex -22.5 22.5 1.5
      vertex 3.84268 16.1547 1.5
      vertex 3.86455 16.8278 1.5
    endloop
  endfacet
  facet normal -0 -0 1
    outer loop
      vertex -7.5031 -5.84793 1.5
      vertex 3.84268 -5.86424 1.5
      vertex -7.6814 -5.43707 1.5
    endloop
  endfacet
  facet normal 0 -0 1
    outer loop
      vertex -7.19307 -6.79602 1.5
      vertex 3.84268 -5.86424 1.5
      vertex -7.34033 -6.30092 1.5
    endloop
  endfacet
  facet normal 0 -0 1
    outer loop
      vertex -6.9296 -7.91321 1.5
      vertex 3.84268 -5.86424 1.5
      vertex -7.06131 -7.33324 1.5
    endloop
  endfacet
  facet normal 0 0 1
    outer loop
      vertex -22.5 22.5 1.5
      vertex 3.86455 16.8278 1.5
      vertex 3.93019 17.4511 1.5
    endloop
  endfacet
  facet normal 0 0 1
    outer loop
      vertex 3.84268 -5.86424 1.5
      vertex -6.9296 -7.91321 1.5
      vertex 3.73364 -7.94583 1.5
    endloop
  endfacet
  facet normal 0 -0 1
    outer loop
      vertex -6.66617 -8.97002 1.5
      vertex 3.73364 -7.94583 1.5
      vertex -6.79788 -8.45879 1.5
    endloop
  endfacet
  facet normal 0 0 1
    outer loop
      vertex -22.5 22.5 1.5
      vertex 3.93019 17.4511 1.5
      vertex 4.03958 18.0245 1.5
    endloop
  endfacet
  facet normal 0 -0 1
    outer loop
      vertex -6.53445 -9.44687 1.5
      vertex 3.73364 -7.94583 1.5
      vertex -6.66617 -8.97002 1.5
    endloop
  endfacet
  facet normal 0 -0 1
    outer loop
      vertex -6.40274 -9.88936 1.5
      vertex 3.40651 -9.70718 1.5
      vertex -6.53445 -9.44687 1.5
    endloop
  endfacet
  facet normal 0 -0 1
    outer loop
      vertex -6.27103 -10.2975 1.5
      vertex 3.40651 -9.70718 1.5
      vertex -6.40274 -9.88936 1.5
    endloop
  endfacet
  facet normal 0 0 1
    outer loop
      vertex 3.40651 -9.70718 1.5
      vertex -6.27103 -10.2975 1.5
      vertex 2.86131 -11.1483 1.5
    endloop
  endfacet
  facet normal 0 0 1
    outer loop
      vertex 2.09802 -12.2691 1.5
      vertex -0.0827789 -13.5501 1.5
      vertex 1.11665 -13.0697 1.5
    endloop
  endfacet
  facet normal 0 0 1
    outer loop
      vertex 2.86131 -11.1483 1.5
      vertex -0.0827789 -13.5501 1.5
      vertex 2.09802 -12.2691 1.5
    endloop
  endfacet
  facet normal 0 -0 1
    outer loop
      vertex -0.0827789 -13.5501 1.5
      vertex 2.86131 -11.1483 1.5
      vertex -1.50031 -13.7102 1.5
    endloop
  endfacet
  facet normal 0 0 1
    outer loop
      vertex -1.50031 -13.7102 1.5
      vertex -6.27103 -10.2975 1.5
      vertex -2.05492 -13.692 1.5
    endloop
  endfacet
  facet normal 0 0 1
    outer loop
      vertex -22.5 22.5 1.5
      vertex 4.03958 18.0245 1.5
      vertex 4.19272 18.548 1.5
    endloop
  endfacet
  facet normal 0 0 1
    outer loop
      vertex -2.05492 -13.692 1.5
      vertex -6.13931 -10.6712 1.5
      vertex -2.5719 -13.6372 1.5
    endloop
  endfacet
  facet normal -0 -0 1
    outer loop
      vertex -5.62888 -11.6763 1.5
      vertex -2.5719 -13.6372 1.5
      vertex -6.13931 -10.6712 1.5
    endloop
  endfacet
  facet normal -0 -0 1
    outer loop
      vertex -5.16145 -12.2745 1.5
      vertex -2.5719 -13.6372 1.5
      vertex -5.40788 -11.9826 1.5
    endloop
  endfacet
  facet normal 0 0 1
    outer loop
      vertex -3.05125 -13.5459 1.5
      vertex -4.88959 -12.5521 1.5
      vertex -3.49297 -13.418 1.5
    endloop
  endfacet
  facet normal 0 0 1
    outer loop
      vertex -3.49297 -13.418 1.5
      vertex -4.88959 -12.5521 1.5
      vertex -3.89705 -13.2536 1.5
    endloop
  endfacet
  facet normal 0 0 1
    outer loop
      vertex -5.82445 -11.3557 1.5
      vertex -6.13931 -10.6712 1.5
      vertex -5.9946 -11.0206 1.5
    endloop
  endfacet
  facet normal 0 0 1
    outer loop
      vertex -5.62888 -11.6763 1.5
      vertex -6.13931 -10.6712 1.5
      vertex -5.82445 -11.3557 1.5
    endloop
  endfacet
  facet normal 0 0 1
    outer loop
      vertex -2.5719 -13.6372 1.5
      vertex -5.62888 -11.6763 1.5
      vertex -5.40788 -11.9826 1.5
    endloop
  endfacet
  facet normal -0 -0 1
    outer loop
      vertex -4.88959 -12.5521 1.5
      vertex -3.05125 -13.5459 1.5
      vertex -5.16145 -12.2745 1.5
    endloop
  endfacet
  facet normal 0 0 1
    outer loop
      vertex -3.89705 -13.2536 1.5
      vertex -4.59232 -12.8152 1.5
      vertex -4.26349 -13.0527 1.5
    endloop
  endfacet
  facet normal -0 -0 1
    outer loop
      vertex -4.59232 -12.8152 1.5
      vertex -3.89705 -13.2536 1.5
      vertex -4.88959 -12.5521 1.5
    endloop
  endfacet
  facet normal 0 0 1
    outer loop
      vertex -22.5 22.5 1.5
      vertex 4.19272 18.548 1.5
      vertex 4.38962 19.0218 1.5
    endloop
  endfacet
  facet normal 0 0 1
    outer loop
      vertex -2.5719 -13.6372 1.5
      vertex -5.16145 -12.2745 1.5
      vertex -3.05125 -13.5459 1.5
    endloop
  endfacet
  facet normal -0 -0 1
    outer loop
      vertex -6.13931 -10.6712 1.5
      vertex -2.05492 -13.692 1.5
      vertex -6.27103 -10.2975 1.5
    endloop
  endfacet
  facet normal 0 -0 1
    outer loop
      vertex -1.50031 -13.7102 1.5
      vertex 2.86131 -11.1483 1.5
      vertex -6.27103 -10.2975 1.5
    endloop
  endfacet
  facet normal 0 0 1
    outer loop
      vertex 3.73364 -7.94583 1.5
      vertex -6.53445 -9.44687 1.5
      vertex 3.40651 -9.70718 1.5
    endloop
  endfacet
  facet normal 0 -0 1
    outer loop
      vertex -6.79788 -8.45879 1.5
      vertex 3.73364 -7.94583 1.5
      vertex -6.9296 -7.91321 1.5
    endloop
  endfacet
  facet normal 0 -0 1
    outer loop
      vertex -7.06131 -7.33324 1.5
      vertex 3.84268 -5.86424 1.5
      vertex -7.19307 -6.79602 1.5
    endloop
  endfacet
  facet normal 0 -0 1
    outer loop
      vertex -7.34033 -6.30092 1.5
      vertex 3.84268 -5.86424 1.5
      vertex -7.5031 -5.84793 1.5
    endloop
  endfacet
  facet normal -0 -0 1
    outer loop
      vertex -7.87518 -5.06834 1.5
      vertex 3.84268 -5.86424 1.5
      vertex -8.08449 -4.74173 1.5
    endloop
  endfacet
  facet normal 0 0 1
    outer loop
      vertex 3.84268 -5.86424 1.5
      vertex -8.55768 -4.21237 1.5
      vertex -8.30931 -4.45724 1.5
    endloop
  endfacet
  facet normal 0 0 1
    outer loop
      vertex 3.84268 16.1547 1.5
      vertex -8.83821 -4.00516 1.5
      vertex -8.55768 -4.21237 1.5
    endloop
  endfacet
  facet normal 0 0 1
    outer loop
      vertex -22.5 22.5 1.5
      vertex 4.38962 19.0218 1.5
      vertex 4.63026 19.4457 1.5
    endloop
  endfacet
  facet normal 0 0 1
    outer loop
      vertex 3.84268 16.1547 1.5
      vertex -9.15089 -3.83563 1.5
      vertex -8.83821 -4.00516 1.5
    endloop
  endfacet
  facet normal 0 0 1
    outer loop
      vertex 3.84268 16.1547 1.5
      vertex -9.49576 -3.70377 1.5
      vertex -9.15089 -3.83563 1.5
    endloop
  endfacet
  facet normal 0 0 1
    outer loop
      vertex 3.84268 16.1547 1.5
      vertex -9.87277 -3.60959 1.5
      vertex -9.49576 -3.70377 1.5
    endloop
  endfacet
  facet normal 0 0 1
    outer loop
      vertex 3.84268 16.1547 1.5
      vertex -10.282 -3.55309 1.5
      vertex -9.87277 -3.60959 1.5
    endloop
  endfacet
  facet normal 0 0 1
    outer loop
      vertex 3.84268 16.1547 1.5
      vertex -10.7233 -3.53424 1.5
      vertex -10.282 -3.55309 1.5
    endloop
  endfacet
  facet normal 0 0 1
    outer loop
      vertex 3.84268 16.1547 1.5
      vertex -22.5 22.5 1.5
      vertex -10.7233 -3.53424 1.5
    endloop
  endfacet
  facet normal 0 0 1
    outer loop
      vertex -10.7233 -3.53424 1.5
      vertex -22.5 22.5 1.5
      vertex -11.1837 -3.55473 1.5
    endloop
  endfacet
  facet normal 0 0 1
    outer loop
      vertex -11.1837 -3.55473 1.5
      vertex -22.5 22.5 1.5
      vertex -11.6198 -3.6162 1.5
    endloop
  endfacet
  facet normal 0 0 1
    outer loop
      vertex -11.6198 -3.6162 1.5
      vertex -22.5 22.5 1.5
      vertex -12.0316 -3.71864 1.5
    endloop
  endfacet
  facet normal 0 0 1
    outer loop
      vertex -12.0316 -3.71864 1.5
      vertex -22.5 22.5 1.5
      vertex -12.419 -3.86208 1.5
    endloop
  endfacet
  facet normal 0 0 1
    outer loop
      vertex -12.419 -3.86208 1.5
      vertex -22.5 22.5 1.5
      vertex -12.7821 -4.04649 1.5
    endloop
  endfacet
  facet normal 0 0 1
    outer loop
      vertex -12.7821 -4.04649 1.5
      vertex -22.5 22.5 1.5
      vertex -13.1209 -4.27188 1.5
    endloop
  endfacet
  facet normal 0 0 1
    outer loop
      vertex -13.1209 -4.27188 1.5
      vertex -22.5 22.5 1.5
      vertex -13.4353 -4.53824 1.5
    endloop
  endfacet
  facet normal 0 0 1
    outer loop
      vertex -14.4069 -6.42915 1.5
      vertex -22.5 -22.5 1.5
      vertex -14.4717 -6.91693 1.5
    endloop
  endfacet
  facet normal 0 0 1
    outer loop
      vertex -22.5 -22.5 1.5
      vertex -14.4069 -6.42915 1.5
      vertex -22.5 22.5 1.5
    endloop
  endfacet
  facet normal 0 0 1
    outer loop
      vertex -14.299 -5.97792 1.5
      vertex -22.5 22.5 1.5
      vertex -14.4069 -6.42915 1.5
    endloop
  endfacet
  facet normal 0 0 1
    outer loop
      vertex -14.1478 -5.5632 1.5
      vertex -22.5 22.5 1.5
      vertex -14.299 -5.97792 1.5
    endloop
  endfacet
  facet normal 0 0 1
    outer loop
      vertex -13.9535 -5.18501 1.5
      vertex -22.5 22.5 1.5
      vertex -14.1478 -5.5632 1.5
    endloop
  endfacet
  facet normal 0 0 1
    outer loop
      vertex -13.716 -4.84337 1.5
      vertex -22.5 22.5 1.5
      vertex -13.9535 -5.18501 1.5
    endloop
  endfacet
  facet normal 0 0 1
    outer loop
      vertex -13.4353 -4.53824 1.5
      vertex -22.5 22.5 1.5
      vertex -13.716 -4.84337 1.5
    endloop
  endfacet
  facet normal 0 0 1
    outer loop
      vertex 4.91467 19.8197 1.5
      vertex -22.5 22.5 1.5
      vertex 4.63026 19.4457 1.5
    endloop
  endfacet
  facet normal 0 0 1
    outer loop
      vertex 5.23703 20.144 1.5
      vertex -22.5 22.5 1.5
      vertex 4.91467 19.8197 1.5
    endloop
  endfacet
  facet normal 0 0 1
    outer loop
      vertex 5.59093 20.4183 1.5
      vertex -22.5 22.5 1.5
      vertex 5.23703 20.144 1.5
    endloop
  endfacet
  facet normal 0 0 1
    outer loop
      vertex 5.97636 20.6427 1.5
      vertex -22.5 22.5 1.5
      vertex 5.59093 20.4183 1.5
    endloop
  endfacet
  facet normal 0 0 1
    outer loop
      vertex 6.39337 20.8173 1.5
      vertex -22.5 22.5 1.5
      vertex 5.97636 20.6427 1.5
    endloop
  endfacet
  facet normal 0 0 1
    outer loop
      vertex 6.84192 20.942 1.5
      vertex -22.5 22.5 1.5
      vertex 6.39337 20.8173 1.5
    endloop
  endfacet
  facet normal 0 0 1
    outer loop
      vertex 7.32202 21.0168 1.5
      vertex -22.5 22.5 1.5
      vertex 6.84192 20.942 1.5
    endloop
  endfacet
  facet normal -0 0 1
    outer loop
      vertex -22.5 22.5 1.5
      vertex 7.32202 21.0168 1.5
      vertex 22.5 22.5 1.5
    endloop
  endfacet
  facet normal 0 0 1
    outer loop
      vertex 22.5 22.5 1.5
      vertex 11.9067 -4.69225 1.5
      vertex 22.5 -22.5 1.5
    endloop
  endfacet
  facet normal -0 0 1
    outer loop
      vertex 11.902 -5.45107 1.5
      vertex 22.5 -22.5 1.5
      vertex 11.9067 -4.69225 1.5
    endloop
  endfacet
  facet normal -0 0 1
    outer loop
      vertex 11.8878 -6.17665 1.5
      vertex 22.5 -22.5 1.5
      vertex 11.902 -5.45107 1.5
    endloop
  endfacet
  facet normal -0 0 1
    outer loop
      vertex 11.8642 -6.86902 1.5
      vertex 22.5 -22.5 1.5
      vertex 11.8878 -6.17665 1.5
    endloop
  endfacet
  facet normal -0 0 1
    outer loop
      vertex 11.8313 -7.52817 1.5
      vertex 22.5 -22.5 1.5
      vertex 11.8642 -6.86902 1.5
    endloop
  endfacet
  facet normal -0 0 1
    outer loop
      vertex 11.7888 -8.15408 1.5
      vertex 22.5 -22.5 1.5
      vertex 11.8313 -7.52817 1.5
    endloop
  endfacet
  facet normal -0 0 1
    outer loop
      vertex 11.737 -8.74678 1.5
      vertex 22.5 -22.5 1.5
      vertex 11.7888 -8.15408 1.5
    endloop
  endfacet
  facet normal -0 0 1
    outer loop
      vertex 11.6757 -9.30624 1.5
      vertex 22.5 -22.5 1.5
      vertex 11.737 -8.74678 1.5
    endloop
  endfacet
  facet normal -0 0 1
    outer loop
      vertex 11.5978 -9.85022 1.5
      vertex 22.5 -22.5 1.5
      vertex 11.6757 -9.30624 1.5
    endloop
  endfacet
  facet normal -0 0 1
    outer loop
      vertex 11.4961 -10.3965 1.5
      vertex 22.5 -22.5 1.5
      vertex 11.5978 -9.85022 1.5
    endloop
  endfacet
  facet normal -0 0 1
    outer loop
      vertex 11.3706 -10.9449 1.5
      vertex 22.5 -22.5 1.5
      vertex 11.4961 -10.3965 1.5
    endloop
  endfacet
  facet normal -0 0 1
    outer loop
      vertex 11.2213 -11.4956 1.5
      vertex 22.5 -22.5 1.5
      vertex 11.3706 -10.9449 1.5
    endloop
  endfacet
  facet normal -0 0 1
    outer loop
      vertex 11.0482 -12.0486 1.5
      vertex 22.5 -22.5 1.5
      vertex 11.2213 -11.4956 1.5
    endloop
  endfacet
  facet normal -0 0 1
    outer loop
      vertex 10.8513 -12.6038 1.5
      vertex 22.5 -22.5 1.5
      vertex 11.0482 -12.0486 1.5
    endloop
  endfacet
  facet normal -0 0 1
    outer loop
      vertex 10.6307 -13.1612 1.5
      vertex 22.5 -22.5 1.5
      vertex 10.8513 -12.6038 1.5
    endloop
  endfacet
  facet normal -0 0 1
    outer loop
      vertex 10.2067 -14.0699 1.5
      vertex 22.5 -22.5 1.5
      vertex 10.6307 -13.1612 1.5
    endloop
  endfacet
  facet normal -0 0 1
    outer loop
      vertex 9.71068 -14.9194 1.5
      vertex 22.5 -22.5 1.5
      vertex 10.2067 -14.0699 1.5
    endloop
  endfacet
  facet normal -0 0 1
    outer loop
      vertex 9.14267 -15.7096 1.5
      vertex 22.5 -22.5 1.5
      vertex 9.71068 -14.9194 1.5
    endloop
  endfacet
  facet normal -0 0 1
    outer loop
      vertex 8.50267 -16.4406 1.5
      vertex 22.5 -22.5 1.5
      vertex 9.14267 -15.7096 1.5
    endloop
  endfacet
  facet normal -0 0 1
    outer loop
      vertex 7.79068 -17.1124 1.5
      vertex 22.5 -22.5 1.5
      vertex 8.50267 -16.4406 1.5
    endloop
  endfacet
  facet normal -0 0 1
    outer loop
      vertex 7.00668 -17.7249 1.5
      vertex 22.5 -22.5 1.5
      vertex 7.79068 -17.1124 1.5
    endloop
  endfacet
  facet normal -0 0 1
    outer loop
      vertex 6.15068 -18.2782 1.5
      vertex 22.5 -22.5 1.5
      vertex 7.00668 -17.7249 1.5
    endloop
  endfacet
  facet normal -0 0 1
    outer loop
      vertex 5.23131 -18.7643 1.5
      vertex 22.5 -22.5 1.5
      vertex 6.15068 -18.2782 1.5
    endloop
  endfacet
  facet normal -0 0 1
    outer loop
      vertex 4.25664 -19.1756 1.5
      vertex 22.5 -22.5 1.5
      vertex 5.23131 -18.7643 1.5
    endloop
  endfacet
  facet normal -0 0 1
    outer loop
      vertex 3.22665 -19.512 1.5
      vertex 22.5 -22.5 1.5
      vertex 4.25664 -19.1756 1.5
    endloop
  endfacet
  facet normal -0 0 1
    outer loop
      vertex 2.14137 -19.7738 1.5
      vertex 22.5 -22.5 1.5
      vertex 3.22665 -19.512 1.5
    endloop
  endfacet
  facet normal -0 0 1
    outer loop
      vertex 1.00078 -19.9607 1.5
      vertex 22.5 -22.5 1.5
      vertex 2.14137 -19.7738 1.5
    endloop
  endfacet
  facet normal -0 0 1
    outer loop
      vertex -0.195099 -20.0729 1.5
      vertex 22.5 -22.5 1.5
      vertex 1.00078 -19.9607 1.5
    endloop
  endfacet
  facet normal -0 0 1
    outer loop
      vertex -1.4463 -20.1102 1.5
      vertex 22.5 -22.5 1.5
      vertex -0.195099 -20.0729 1.5
    endloop
  endfacet
  facet normal 0 0 1
    outer loop
      vertex -22.5 -22.5 1.5
      vertex -1.4463 -20.1102 1.5
      vertex -2.57376 -20.0842 1.5
    endloop
  endfacet
  facet normal 0 0 1
    outer loop
      vertex -22.5 -22.5 1.5
      vertex -2.57376 -20.0842 1.5
      vertex -3.64639 -20.0062 1.5
    endloop
  endfacet
  facet normal 0 0 1
    outer loop
      vertex -14.4717 -6.91693 1.5
      vertex -22.5 -22.5 1.5
      vertex -14.4933 -7.44124 1.5
    endloop
  endfacet
  facet normal 0 0 1
    outer loop
      vertex -14.4933 -7.44124 1.5
      vertex -22.5 -22.5 1.5
      vertex -14.4823 -7.95683 1.5
    endloop
  endfacet
  facet normal 0 0 1
    outer loop
      vertex -14.4823 -7.95683 1.5
      vertex -22.5 -22.5 1.5
      vertex -14.4491 -8.48018 1.5
    endloop
  endfacet
  facet normal 0 0 1
    outer loop
      vertex -14.4491 -8.48018 1.5
      vertex -22.5 -22.5 1.5
      vertex -14.3938 -9.01128 1.5
    endloop
  endfacet
  facet normal 0 0 1
    outer loop
      vertex -14.3938 -9.01128 1.5
      vertex -22.5 -22.5 1.5
      vertex -14.3163 -9.55014 1.5
    endloop
  endfacet
  facet normal 0 0 1
    outer loop
      vertex -14.3163 -9.55014 1.5
      vertex -22.5 -22.5 1.5
      vertex -14.2168 -10.0968 1.5
    endloop
  endfacet
  facet normal 0 0 1
    outer loop
      vertex -1.4463 -20.1102 1.5
      vertex -22.5 -22.5 1.5
      vertex 22.5 -22.5 1.5
    endloop
  endfacet
  facet normal 0 0 1
    outer loop
      vertex -4.6642 -19.8762 1.5
      vertex -22.5 -22.5 1.5
      vertex -3.64639 -20.0062 1.5
    endloop
  endfacet
  facet normal 0 0 1
    outer loop
      vertex -5.62721 -19.6942 1.5
      vertex -22.5 -22.5 1.5
      vertex -4.6642 -19.8762 1.5
    endloop
  endfacet
  facet normal 0 0 1
    outer loop
      vertex -6.53539 -19.4602 1.5
      vertex -22.5 -22.5 1.5
      vertex -5.62721 -19.6942 1.5
    endloop
  endfacet
  facet normal 0 0 1
    outer loop
      vertex -7.38876 -19.1742 1.5
      vertex -22.5 -22.5 1.5
      vertex -6.53539 -19.4602 1.5
    endloop
  endfacet
  facet normal 0 0 1
    outer loop
      vertex -8.1873 -18.8362 1.5
      vertex -22.5 -22.5 1.5
      vertex -7.38876 -19.1742 1.5
    endloop
  endfacet
  facet normal 0 0 1
    outer loop
      vertex -8.93687 -18.4398 1.5
      vertex -22.5 -22.5 1.5
      vertex -8.1873 -18.8362 1.5
    endloop
  endfacet
  facet normal 0 0 1
    outer loop
      vertex -9.64388 -17.9793 1.5
      vertex -22.5 -22.5 1.5
      vertex -8.93687 -18.4398 1.5
    endloop
  endfacet
  facet normal 0 0 1
    outer loop
      vertex -10.3083 -17.4545 1.5
      vertex -22.5 -22.5 1.5
      vertex -9.64388 -17.9793 1.5
    endloop
  endfacet
  facet normal 0 0 1
    outer loop
      vertex -10.9302 -16.8655 1.5
      vertex -22.5 -22.5 1.5
      vertex -10.3083 -17.4545 1.5
    endloop
  endfacet
  facet normal 0 0 1
    outer loop
      vertex -11.5094 -16.2123 1.5
      vertex -22.5 -22.5 1.5
      vertex -10.9302 -16.8655 1.5
    endloop
  endfacet
  facet normal 0 0 1
    outer loop
      vertex -12.0462 -15.4949 1.5
      vertex -22.5 -22.5 1.5
      vertex -11.5094 -16.2123 1.5
    endloop
  endfacet
  facet normal 0 0 1
    outer loop
      vertex -12.5403 -14.7132 1.5
      vertex -22.5 -22.5 1.5
      vertex -12.0462 -15.4949 1.5
    endloop
  endfacet
  facet normal 0 0 1
    outer loop
      vertex -12.7817 -14.2698 1.5
      vertex -22.5 -22.5 1.5
      vertex -12.5403 -14.7132 1.5
    endloop
  endfacet
  facet normal 0 0 1
    outer loop
      vertex -13.0098 -13.8075 1.5
      vertex -22.5 -22.5 1.5
      vertex -12.7817 -14.2698 1.5
    endloop
  endfacet
  facet normal 0 0 1
    outer loop
      vertex -13.2246 -13.3264 1.5
      vertex -22.5 -22.5 1.5
      vertex -13.0098 -13.8075 1.5
    endloop
  endfacet
  facet normal 0 0 1
    outer loop
      vertex -13.4262 -12.8264 1.5
      vertex -22.5 -22.5 1.5
      vertex -13.2246 -13.3264 1.5
    endloop
  endfacet
  facet normal 0 0 1
    outer loop
      vertex -13.6145 -12.3075 1.5
      vertex -22.5 -22.5 1.5
      vertex -13.4262 -12.8264 1.5
    endloop
  endfacet
  facet normal 0 0 1
    outer loop
      vertex -13.7895 -11.7698 1.5
      vertex -22.5 -22.5 1.5
      vertex -13.6145 -12.3075 1.5
    endloop
  endfacet
  facet normal 0 0 1
    outer loop
      vertex -13.9513 -11.2132 1.5
      vertex -22.5 -22.5 1.5
      vertex -13.7895 -11.7698 1.5
    endloop
  endfacet
  facet normal 0 0 1
    outer loop
      vertex -14.0951 -10.6511 1.5
      vertex -22.5 -22.5 1.5
      vertex -13.9513 -11.2132 1.5
    endloop
  endfacet
  facet normal 0 0 1
    outer loop
      vertex -14.2168 -10.0968 1.5
      vertex -22.5 -22.5 1.5
      vertex -14.0951 -10.6511 1.5
    endloop
  endfacet
  facet normal 1 -0 0
    outer loop
      vertex 22.5 -22.5 1.5
      vertex 22.5 22.5 0.5
      vertex 22.5 22.5 1.5
    endloop
  endfacet
  facet normal 1 0 0
    outer loop
      vertex 22.5 22.5 0.5
      vertex 22.5 -22.5 1.5
      vertex 22.5 -22.5 0.5
    endloop
  endfacet
  facet normal 0 1 -0
    outer loop
      vertex 22.5 22.5 0.5
      vertex -22.5 22.5 1.5
      vertex 22.5 22.5 1.5
    endloop
  endfacet
  facet normal 0 1 0
    outer loop
      vertex -22.5 22.5 1.5
      vertex 22.5 22.5 0.5
      vertex -22.5 22.5 0.5
    endloop
  endfacet
  facet normal 0 0 -1
    outer loop
      vertex -22.5 -22.5 0.5
      vertex 22.5 22.5 0.5
      vertex 22.5 -22.5 0.5
    endloop
  endfacet
  facet normal -0 0 -1
    outer loop
      vertex 22.5 22.5 0.5
      vertex -22.5 -22.5 0.5
      vertex -22.5 22.5 0.5
    endloop
  endfacet
  facet normal 0 -1 0
    outer loop
      vertex -22.5 -22.5 0.5
      vertex 22.5 -22.5 1.5
      vertex -22.5 -22.5 1.5
    endloop
  endfacet
  facet normal 0 -1 -0
    outer loop
      vertex 22.5 -22.5 1.5
      vertex -22.5 -22.5 0.5
      vertex 22.5 -22.5 0.5
    endloop
  endfacet
  facet normal -0 0 1
    outer loop
      vertex 3.84268 16.1547 3
      vertex 11.9067 -4.69225 3
      vertex 11.9067 16.1557 3
    endloop
  endfacet
  facet normal 0 0 1
    outer loop
      vertex 3.84268 -5.86424 3
      vertex 11.9067 -4.69225 3
      vertex 3.84268 16.1547 3
    endloop
  endfacet
  facet normal 0 0 1
    outer loop
      vertex 3.84268 16.1547 3
      vertex 11.9067 16.1557 3
      vertex 11.8842 16.8288 3
    endloop
  endfacet
  facet normal 0 0 1
    outer loop
      vertex 11.9067 -4.69225 3
      vertex 3.84268 -5.86424 3
      vertex 11.902 -5.45107 3
    endloop
  endfacet
  facet normal 0 0 1
    outer loop
      vertex 11.8878 -6.17665 3
      vertex 3.84268 -5.86424 3
      vertex 11.8642 -6.86902 3
    endloop
  endfacet
  facet normal 0 0 1
    outer loop
      vertex 3.86455 16.8278 3
      vertex 11.8842 16.8288 3
      vertex 11.8169 17.452 3
    endloop
  endfacet
  facet normal 0 0 1
    outer loop
      vertex 11.8642 -6.86902 3
      vertex 3.84268 -5.86424 3
      vertex 11.8313 -7.52817 3
    endloop
  endfacet
  facet normal 0 0 1
    outer loop
      vertex 3.73364 -7.94583 3
      vertex 11.8313 -7.52817 3
      vertex 3.84268 -5.86424 3
    endloop
  endfacet
  facet normal 0 0 1
    outer loop
      vertex 3.93019 17.4511 3
      vertex 11.8169 17.452 3
      vertex 11.7046 18.0253 3
    endloop
  endfacet
  facet normal 0 0 1
    outer loop
      vertex 11.8313 -7.52817 3
      vertex 3.73364 -7.94583 3
      vertex 11.7888 -8.15408 3
    endloop
  endfacet
  facet normal 0 0 1
    outer loop
      vertex 11.7888 -8.15408 3
      vertex 3.73364 -7.94583 3
      vertex 11.737 -8.74678 3
    endloop
  endfacet
  facet normal 0 0 1
    outer loop
      vertex 8.35329 21.0168 3
      vertex 11.7046 18.0253 3
      vertex 11.5475 18.5487 3
    endloop
  endfacet
  facet normal 0 0 1
    outer loop
      vertex 11.737 -8.74678 3
      vertex 3.73364 -7.94583 3
      vertex 11.6757 -9.30624 3
    endloop
  endfacet
  facet normal 0 0 1
    outer loop
      vertex 11.6757 -9.30624 3
      vertex 3.73364 -7.94583 3
      vertex 11.5978 -9.85022 3
    endloop
  endfacet
  facet normal 0 0 1
    outer loop
      vertex 8.35329 21.0168 3
      vertex 11.5475 18.5487 3
      vertex 11.3455 19.0223 3
    endloop
  endfacet
  facet normal 0 0 1
    outer loop
      vertex 11.5978 -9.85022 3
      vertex 3.73364 -7.94583 3
      vertex 11.4961 -10.3965 3
    endloop
  endfacet
  facet normal 0 0 1
    outer loop
      vertex 8.84126 20.942 3
      vertex 11.3455 19.0223 3
      vertex 11.0985 19.446 3
    endloop
  endfacet
  facet normal -0 0 1
    outer loop
      vertex 3.40651 -9.70718 3
      vertex 11.4961 -10.3965 3
      vertex 3.73364 -7.94583 3
    endloop
  endfacet
  facet normal 0 0 1
    outer loop
      vertex 11.4961 -10.3965 3
      vertex 3.40651 -9.70718 3
      vertex 11.3706 -10.9449 3
    endloop
  endfacet
  facet normal 0 0 1
    outer loop
      vertex 8.84126 20.942 3
      vertex 11.0985 19.446 3
      vertex 10.8067 19.8197 3
    endloop
  endfacet
  facet normal 0 0 1
    outer loop
      vertex 11.3706 -10.9449 3
      vertex 3.40651 -9.70718 3
      vertex 11.2213 -11.4956 3
    endloop
  endfacet
  facet normal 0 0 1
    outer loop
      vertex 8.84126 20.942 3
      vertex 10.8067 19.8197 3
      vertex 10.4769 20.144 3
    endloop
  endfacet
  facet normal 0 0 1
    outer loop
      vertex 11.2213 -11.4956 3
      vertex 3.40651 -9.70718 3
      vertex 11.0482 -12.0486 3
    endloop
  endfacet
  facet normal 0 0 1
    outer loop
      vertex 8.84126 20.942 3
      vertex 10.4769 20.144 3
      vertex 10.1154 20.4183 3
    endloop
  endfacet
  facet normal 0 0 1
    outer loop
      vertex 9.29761 20.8173 3
      vertex 10.1154 20.4183 3
      vertex 9.72234 20.6427 3
    endloop
  endfacet
  facet normal 0 0 1
    outer loop
      vertex 11.0482 -12.0486 3
      vertex 3.40651 -9.70718 3
      vertex 10.8513 -12.6038 3
    endloop
  endfacet
  facet normal 0 0 1
    outer loop
      vertex 8.84126 20.942 3
      vertex 10.1154 20.4183 3
      vertex 9.29761 20.8173 3
    endloop
  endfacet
  facet normal 0 0 1
    outer loop
      vertex 10.8513 -12.6038 3
      vertex 3.40651 -9.70718 3
      vertex 10.6307 -13.1612 3
    endloop
  endfacet
  facet normal 0 0 1
    outer loop
      vertex 11.3455 19.0223 3
      vertex 8.84126 20.942 3
      vertex 8.35329 21.0168 3
    endloop
  endfacet
  facet normal -0 0 1
    outer loop
      vertex 2.86131 -11.1483 3
      vertex 10.6307 -13.1612 3
      vertex 3.40651 -9.70718 3
    endloop
  endfacet
  facet normal 0 0 1
    outer loop
      vertex 11.7046 18.0253 3
      vertex 8.35329 21.0168 3
      vertex 4.03958 18.0245 3
    endloop
  endfacet
  facet normal 0 0 1
    outer loop
      vertex 4.03958 18.0245 3
      vertex 8.35329 21.0168 3
      vertex 7.83368 21.0417 3
    endloop
  endfacet
  facet normal 0 0 1
    outer loop
      vertex 10.6307 -13.1612 3
      vertex 2.86131 -11.1483 3
      vertex 10.2067 -14.0699 3
    endloop
  endfacet
  facet normal 0 0 1
    outer loop
      vertex 4.03958 18.0245 3
      vertex 7.83368 21.0417 3
      vertex 7.32202 21.0168 3
    endloop
  endfacet
  facet normal 0 0 1
    outer loop
      vertex 10.2067 -14.0699 3
      vertex 2.86131 -11.1483 3
      vertex 9.71068 -14.9194 3
    endloop
  endfacet
  facet normal 0 0 1
    outer loop
      vertex 4.19272 18.548 3
      vertex 7.32202 21.0168 3
      vertex 6.84192 20.942 3
    endloop
  endfacet
  facet normal 0 0 1
    outer loop
      vertex 4.38962 19.0218 3
      vertex 6.84192 20.942 3
      vertex 6.39337 20.8173 3
    endloop
  endfacet
  facet normal 0 0 1
    outer loop
      vertex 9.71068 -14.9194 3
      vertex 2.86131 -11.1483 3
      vertex 9.14267 -15.7096 3
    endloop
  endfacet
  facet normal 0 0 1
    outer loop
      vertex 4.38962 19.0218 3
      vertex 6.39337 20.8173 3
      vertex 5.97636 20.6427 3
    endloop
  endfacet
  facet normal 0 0 1
    outer loop
      vertex 4.38962 19.0218 3
      vertex 5.97636 20.6427 3
      vertex 5.59093 20.4183 3
    endloop
  endfacet
  facet normal 0 0 1
    outer loop
      vertex 4.38962 19.0218 3
      vertex 5.59093 20.4183 3
      vertex 5.23703 20.144 3
    endloop
  endfacet
  facet normal 0 0 1
    outer loop
      vertex 9.14267 -15.7096 3
      vertex 2.86131 -11.1483 3
      vertex 8.50267 -16.4406 3
    endloop
  endfacet
  facet normal 0 0 1
    outer loop
      vertex 4.38962 19.0218 3
      vertex 5.23703 20.144 3
      vertex 4.91467 19.8197 3
    endloop
  endfacet
  facet normal 0 0 1
    outer loop
      vertex 4.38962 19.0218 3
      vertex 4.91467 19.8197 3
      vertex 4.63026 19.4457 3
    endloop
  endfacet
  facet normal 0 0 1
    outer loop
      vertex 6.84192 20.942 3
      vertex 4.38962 19.0218 3
      vertex 4.19272 18.548 3
    endloop
  endfacet
  facet normal -0 0 1
    outer loop
      vertex 2.09802 -12.2691 3
      vertex 8.50267 -16.4406 3
      vertex 2.86131 -11.1483 3
    endloop
  endfacet
  facet normal 0 0 1
    outer loop
      vertex 7.32202 21.0168 3
      vertex 4.19272 18.548 3
      vertex 4.03958 18.0245 3
    endloop
  endfacet
  facet normal 0 0 1
    outer loop
      vertex 11.7046 18.0253 3
      vertex 4.03958 18.0245 3
      vertex 3.93019 17.4511 3
    endloop
  endfacet
  facet normal 0 0 1
    outer loop
      vertex 11.8169 17.452 3
      vertex 3.93019 17.4511 3
      vertex 3.86455 16.8278 3
    endloop
  endfacet
  facet normal 0 0 1
    outer loop
      vertex 11.8842 16.8288 3
      vertex 3.86455 16.8278 3
      vertex 3.84268 16.1547 3
    endloop
  endfacet
  facet normal 0 0 1
    outer loop
      vertex 11.902 -5.45107 3
      vertex 3.84268 -5.86424 3
      vertex 11.8878 -6.17665 3
    endloop
  endfacet
  facet normal 0 0 1
    outer loop
      vertex 8.50267 -16.4406 3
      vertex 2.09802 -12.2691 3
      vertex 7.79068 -17.1124 3
    endloop
  endfacet
  facet normal 0 0 1
    outer loop
      vertex 7.79068 -17.1124 3
      vertex 2.09802 -12.2691 3
      vertex 7.00668 -17.7249 3
    endloop
  endfacet
  facet normal 0 0 1
    outer loop
      vertex 7.00668 -17.7249 3
      vertex 2.09802 -12.2691 3
      vertex 6.15068 -18.2782 3
    endloop
  endfacet
  facet normal 0 0 1
    outer loop
      vertex 6.15068 -18.2782 3
      vertex 2.09802 -12.2691 3
      vertex 5.23131 -18.7643 3
    endloop
  endfacet
  facet normal -0 0 1
    outer loop
      vertex 1.11665 -13.0697 3
      vertex 5.23131 -18.7643 3
      vertex 2.09802 -12.2691 3
    endloop
  endfacet
  facet normal 0 0 1
    outer loop
      vertex 5.23131 -18.7643 3
      vertex 1.11665 -13.0697 3
      vertex 4.25664 -19.1756 3
    endloop
  endfacet
  facet normal 0 0 1
    outer loop
      vertex 4.25664 -19.1756 3
      vertex 1.11665 -13.0697 3
      vertex 3.22665 -19.512 3
    endloop
  endfacet
  facet normal 0 0 1
    outer loop
      vertex 3.22665 -19.512 3
      vertex 1.11665 -13.0697 3
      vertex 2.14137 -19.7738 3
    endloop
  endfacet
  facet normal -0 0 1
    outer loop
      vertex -0.0827789 -13.5501 3
      vertex 2.14137 -19.7738 3
      vertex 1.11665 -13.0697 3
    endloop
  endfacet
  facet normal 0 0 1
    outer loop
      vertex 2.14137 -19.7738 3
      vertex -0.0827789 -13.5501 3
      vertex 1.00078 -19.9607 3
    endloop
  endfacet
  facet normal 0 0 1
    outer loop
      vertex -0.0827789 -13.5501 3
      vertex -0.195099 -20.0729 3
      vertex 1.00078 -19.9607 3
    endloop
  endfacet
  facet normal -0 0 1
    outer loop
      vertex -1.50031 -13.7102 3
      vertex -0.195099 -20.0729 3
      vertex -0.0827789 -13.5501 3
    endloop
  endfacet
  facet normal 0 0 1
    outer loop
      vertex -0.195099 -20.0729 3
      vertex -1.50031 -13.7102 3
      vertex -1.4463 -20.1102 3
    endloop
  endfacet
  facet normal 0 0 1
    outer loop
      vertex -2.05492 -13.692 3
      vertex -1.4463 -20.1102 3
      vertex -1.50031 -13.7102 3
    endloop
  endfacet
  facet normal 0 0 1
    outer loop
      vertex -2.57376 -20.0842 3
      vertex -2.05492 -13.692 3
      vertex -2.5719 -13.6372 3
    endloop
  endfacet
  facet normal 0 0 1
    outer loop
      vertex -2.05492 -13.692 3
      vertex -2.57376 -20.0842 3
      vertex -1.4463 -20.1102 3
    endloop
  endfacet
  facet normal 0 0 1
    outer loop
      vertex -3.64639 -20.0062 3
      vertex -2.5719 -13.6372 3
      vertex -3.05125 -13.5459 3
    endloop
  endfacet
  facet normal 0 0 1
    outer loop
      vertex -4.6642 -19.8762 3
      vertex -3.05125 -13.5459 3
      vertex -3.49297 -13.418 3
    endloop
  endfacet
  facet normal 0 0 1
    outer loop
      vertex -2.5719 -13.6372 3
      vertex -3.64639 -20.0062 3
      vertex -2.57376 -20.0842 3
    endloop
  endfacet
  facet normal 0 0 1
    outer loop
      vertex -5.62721 -19.6942 3
      vertex -3.49297 -13.418 3
      vertex -3.89705 -13.2536 3
    endloop
  endfacet
  facet normal 0 0 1
    outer loop
      vertex -6.53539 -19.4602 3
      vertex -3.89705 -13.2536 3
      vertex -4.26349 -13.0527 3
    endloop
  endfacet
  facet normal 0 0 1
    outer loop
      vertex -8.1873 -18.8362 3
      vertex -4.26349 -13.0527 3
      vertex -4.59232 -12.8152 3
    endloop
  endfacet
  facet normal 0 0 1
    outer loop
      vertex -3.05125 -13.5459 3
      vertex -4.6642 -19.8762 3
      vertex -3.64639 -20.0062 3
    endloop
  endfacet
  facet normal 0 0 1
    outer loop
      vertex -8.93687 -18.4398 3
      vertex -4.59232 -12.8152 3
      vertex -4.88959 -12.5521 3
    endloop
  endfacet
  facet normal 0 0 1
    outer loop
      vertex -9.64388 -17.9793 3
      vertex -4.88959 -12.5521 3
      vertex -5.16145 -12.2745 3
    endloop
  endfacet
  facet normal 0 0 1
    outer loop
      vertex -10.3083 -17.4545 3
      vertex -5.16145 -12.2745 3
      vertex -5.40788 -11.9826 3
    endloop
  endfacet
  facet normal 0 0 1
    outer loop
      vertex -3.49297 -13.418 3
      vertex -5.62721 -19.6942 3
      vertex -4.6642 -19.8762 3
    endloop
  endfacet
  facet normal 0 0 1
    outer loop
      vertex -11.5094 -16.2123 3
      vertex -5.40788 -11.9826 3
      vertex -5.62888 -11.6763 3
    endloop
  endfacet
  facet normal 0 0 1
    outer loop
      vertex -12.0462 -15.4949 3
      vertex -5.62888 -11.6763 3
      vertex -5.82445 -11.3557 3
    endloop
  endfacet
  facet normal 0 0 1
    outer loop
      vertex -12.5403 -14.7132 3
      vertex -5.82445 -11.3557 3
      vertex -5.9946 -11.0206 3
    endloop
  endfacet
  facet normal 0 0 1
    outer loop
      vertex -13.0098 -13.8075 3
      vertex -5.9946 -11.0206 3
      vertex -6.13931 -10.6712 3
    endloop
  endfacet
  facet normal 0 0 1
    outer loop
      vertex -13.2246 -13.3264 3
      vertex -6.13931 -10.6712 3
      vertex -6.27103 -10.2975 3
    endloop
  endfacet
  facet normal 0 0 1
    outer loop
      vertex -13.4262 -12.8264 3
      vertex -6.27103 -10.2975 3
      vertex -6.40274 -9.88936 3
    endloop
  endfacet
  facet normal 0 0 1
    outer loop
      vertex -13.7895 -11.7698 3
      vertex -6.40274 -9.88936 3
      vertex -6.53445 -9.44687 3
    endloop
  endfacet
  facet normal 0 0 1
    outer loop
      vertex -3.89705 -13.2536 3
      vertex -6.53539 -19.4602 3
      vertex -5.62721 -19.6942 3
    endloop
  endfacet
  facet normal 0 0 1
    outer loop
      vertex -13.9513 -11.2132 3
      vertex -6.53445 -9.44687 3
      vertex -6.66617 -8.97002 3
    endloop
  endfacet
  facet normal 0 0 1
    outer loop
      vertex -14.0951 -10.6511 3
      vertex -6.66617 -8.97002 3
      vertex -6.79788 -8.45879 3
    endloop
  endfacet
  facet normal 0 0 1
    outer loop
      vertex -14.3163 -9.55014 3
      vertex -6.79788 -8.45879 3
      vertex -6.9296 -7.91321 3
    endloop
  endfacet
  facet normal 0 0 1
    outer loop
      vertex -14.3938 -9.01128 3
      vertex -6.9296 -7.91321 3
      vertex -7.06131 -7.33324 3
    endloop
  endfacet
  facet normal 0 0 1
    outer loop
      vertex -14.4491 -8.48018 3
      vertex -7.06131 -7.33324 3
      vertex -7.19307 -6.79602 3
    endloop
  endfacet
  facet normal 0 0 1
    outer loop
      vertex -14.4823 -7.95683 3
      vertex -7.19307 -6.79602 3
      vertex -7.34033 -6.30092 3
    endloop
  endfacet
  facet normal 0 0 1
    outer loop
      vertex -4.26349 -13.0527 3
      vertex -7.38876 -19.1742 3
      vertex -6.53539 -19.4602 3
    endloop
  endfacet
  facet normal 0 0 1
    outer loop
      vertex -14.4933 -7.44124 3
      vertex -7.34033 -6.30092 3
      vertex -7.5031 -5.84793 3
    endloop
  endfacet
  facet normal 0 0 1
    outer loop
      vertex -11.1837 -3.55473 3
      vertex -7.5031 -5.84793 3
      vertex -7.6814 -5.43707 3
    endloop
  endfacet
  facet normal 0 0 1
    outer loop
      vertex -10.7233 -3.53424 3
      vertex -7.6814 -5.43707 3
      vertex -7.87518 -5.06834 3
    endloop
  endfacet
  facet normal 0 0 1
    outer loop
      vertex -9.87277 -3.60959 3
      vertex -7.87518 -5.06834 3
      vertex -8.08449 -4.74173 3
    endloop
  endfacet
  facet normal 0 0 1
    outer loop
      vertex -4.26349 -13.0527 3
      vertex -8.1873 -18.8362 3
      vertex -7.38876 -19.1742 3
    endloop
  endfacet
  facet normal 0 0 1
    outer loop
      vertex -9.49576 -3.70377 3
      vertex -8.08449 -4.74173 3
      vertex -8.30931 -4.45724 3
    endloop
  endfacet
  facet normal 0 0 1
    outer loop
      vertex -9.49576 -3.70377 3
      vertex -8.30931 -4.45724 3
      vertex -8.55768 -4.21237 3
    endloop
  endfacet
  facet normal 0 0 1
    outer loop
      vertex -9.49576 -3.70377 3
      vertex -8.55768 -4.21237 3
      vertex -8.83821 -4.00516 3
    endloop
  endfacet
  facet normal 0 0 1
    outer loop
      vertex -4.59232 -12.8152 3
      vertex -8.93687 -18.4398 3
      vertex -8.1873 -18.8362 3
    endloop
  endfacet
  facet normal 0 0 1
    outer loop
      vertex -9.49576 -3.70377 3
      vertex -8.83821 -4.00516 3
      vertex -9.15089 -3.83563 3
    endloop
  endfacet
  facet normal 0 0 1
    outer loop
      vertex -8.08449 -4.74173 3
      vertex -9.49576 -3.70377 3
      vertex -9.87277 -3.60959 3
    endloop
  endfacet
  facet normal 0 0 1
    outer loop
      vertex -4.88959 -12.5521 3
      vertex -9.64388 -17.9793 3
      vertex -8.93687 -18.4398 3
    endloop
  endfacet
  facet normal 0 0 1
    outer loop
      vertex -7.87518 -5.06834 3
      vertex -9.87277 -3.60959 3
      vertex -10.282 -3.55309 3
    endloop
  endfacet
  facet normal 0 0 1
    outer loop
      vertex -7.87518 -5.06834 3
      vertex -10.282 -3.55309 3
      vertex -10.7233 -3.53424 3
    endloop
  endfacet
  facet normal 0 0 1
    outer loop
      vertex -5.16145 -12.2745 3
      vertex -10.3083 -17.4545 3
      vertex -9.64388 -17.9793 3
    endloop
  endfacet
  facet normal 0 0 1
    outer loop
      vertex -7.6814 -5.43707 3
      vertex -10.7233 -3.53424 3
      vertex -11.1837 -3.55473 3
    endloop
  endfacet
  facet normal 0 0 1
    outer loop
      vertex -5.40788 -11.9826 3
      vertex -10.9302 -16.8655 3
      vertex -10.3083 -17.4545 3
    endloop
  endfacet
  facet normal 0 0 1
    outer loop
      vertex -7.5031 -5.84793 3
      vertex -11.1837 -3.55473 3
      vertex -14.4717 -6.91693 3
    endloop
  endfacet
  facet normal 0 0 1
    outer loop
      vertex -5.40788 -11.9826 3
      vertex -11.5094 -16.2123 3
      vertex -10.9302 -16.8655 3
    endloop
  endfacet
  facet normal 0 0 1
    outer loop
      vertex -14.4717 -6.91693 3
      vertex -11.1837 -3.55473 3
      vertex -11.6198 -3.6162 3
    endloop
  endfacet
  facet normal 0 0 1
    outer loop
      vertex -14.4069 -6.42915 3
      vertex -11.6198 -3.6162 3
      vertex -12.0316 -3.71864 3
    endloop
  endfacet
  facet normal 0 0 1
    outer loop
      vertex -5.62888 -11.6763 3
      vertex -12.0462 -15.4949 3
      vertex -11.5094 -16.2123 3
    endloop
  endfacet
  facet normal 0 0 1
    outer loop
      vertex -14.4069 -6.42915 3
      vertex -12.0316 -3.71864 3
      vertex -12.419 -3.86208 3
    endloop
  endfacet
  facet normal 0 0 1
    outer loop
      vertex -5.82445 -11.3557 3
      vertex -12.5403 -14.7132 3
      vertex -12.0462 -15.4949 3
    endloop
  endfacet
  facet normal 0 0 1
    outer loop
      vertex -5.9946 -11.0206 3
      vertex -12.7817 -14.2698 3
      vertex -12.5403 -14.7132 3
    endloop
  endfacet
  facet normal 0 0 1
    outer loop
      vertex -14.299 -5.97792 3
      vertex -12.419 -3.86208 3
      vertex -12.7821 -4.04649 3
    endloop
  endfacet
  facet normal 0 0 1
    outer loop
      vertex -5.9946 -11.0206 3
      vertex -13.0098 -13.8075 3
      vertex -12.7817 -14.2698 3
    endloop
  endfacet
  facet normal 0 0 1
    outer loop
      vertex -14.299 -5.97792 3
      vertex -12.7821 -4.04649 3
      vertex -13.1209 -4.27188 3
    endloop
  endfacet
  facet normal 0 0 1
    outer loop
      vertex -6.13931 -10.6712 3
      vertex -13.2246 -13.3264 3
      vertex -13.0098 -13.8075 3
    endloop
  endfacet
  facet normal 0 0 1
    outer loop
      vertex -6.27103 -10.2975 3
      vertex -13.4262 -12.8264 3
      vertex -13.2246 -13.3264 3
    endloop
  endfacet
  facet normal 0 0 1
    outer loop
      vertex -14.299 -5.97792 3
      vertex -13.1209 -4.27188 3
      vertex -13.4353 -4.53824 3
    endloop
  endfacet
  facet normal 0 0 1
    outer loop
      vertex -6.40274 -9.88936 3
      vertex -13.6145 -12.3075 3
      vertex -13.4262 -12.8264 3
    endloop
  endfacet
  facet normal 0 0 1
    outer loop
      vertex -14.299 -5.97792 3
      vertex -13.4353 -4.53824 3
      vertex -13.716 -4.84337 3
    endloop
  endfacet
  facet normal 0 0 1
    outer loop
      vertex -6.40274 -9.88936 3
      vertex -13.7895 -11.7698 3
      vertex -13.6145 -12.3075 3
    endloop
  endfacet
  facet normal 0 0 1
    outer loop
      vertex -6.53445 -9.44687 3
      vertex -13.9513 -11.2132 3
      vertex -13.7895 -11.7698 3
    endloop
  endfacet
  facet normal 0 0 1
    outer loop
      vertex -14.299 -5.97792 3
      vertex -13.716 -4.84337 3
      vertex -13.9535 -5.18501 3
    endloop
  endfacet
  facet normal 0 0 1
    outer loop
      vertex -6.66617 -8.97002 3
      vertex -14.0951 -10.6511 3
      vertex -13.9513 -11.2132 3
    endloop
  endfacet
  facet normal 0 0 1
    outer loop
      vertex -14.299 -5.97792 3
      vertex -13.9535 -5.18501 3
      vertex -14.1478 -5.5632 3
    endloop
  endfacet
  facet normal 0 0 1
    outer loop
      vertex -6.79788 -8.45879 3
      vertex -14.2168 -10.0968 3
      vertex -14.0951 -10.6511 3
    endloop
  endfacet
  facet normal 0 0 1
    outer loop
      vertex -12.419 -3.86208 3
      vertex -14.299 -5.97792 3
      vertex -14.4069 -6.42915 3
    endloop
  endfacet
  facet normal 0 0 1
    outer loop
      vertex -6.79788 -8.45879 3
      vertex -14.3163 -9.55014 3
      vertex -14.2168 -10.0968 3
    endloop
  endfacet
  facet normal 0 0 1
    outer loop
      vertex -6.9296 -7.91321 3
      vertex -14.3938 -9.01128 3
      vertex -14.3163 -9.55014 3
    endloop
  endfacet
  facet normal 0 0 1
    outer loop
      vertex -11.6198 -3.6162 3
      vertex -14.4069 -6.42915 3
      vertex -14.4717 -6.91693 3
    endloop
  endfacet
  facet normal 0 0 1
    outer loop
      vertex -7.06131 -7.33324 3
      vertex -14.4491 -8.48018 3
      vertex -14.3938 -9.01128 3
    endloop
  endfacet
  facet normal 0 0 1
    outer loop
      vertex -7.5031 -5.84793 3
      vertex -14.4717 -6.91693 3
      vertex -14.4933 -7.44124 3
    endloop
  endfacet
  facet normal 0 0 1
    outer loop
      vertex -7.19307 -6.79602 3
      vertex -14.4823 -7.95683 3
      vertex -14.4491 -8.48018 3
    endloop
  endfacet
  facet normal 0 0 1
    outer loop
      vertex -7.34033 -6.30092 3
      vertex -14.4933 -7.44124 3
      vertex -14.4823 -7.95683 3
    endloop
  endfacet
  facet normal 0.0933852 -0.99563 0
    outer loop
      vertex -0.195099 -20.0729 1.5
      vertex 1.00078 -19.9607 3
      vertex -0.195099 -20.0729 3
    endloop
  endfacet
  facet normal 0.0933852 -0.99563 0
    outer loop
      vertex 1.00078 -19.9607 3
      vertex -0.195099 -20.0729 1.5
      vertex 1.00078 -19.9607 1.5
    endloop
  endfacet
  facet normal 0.161735 -0.986834 0
    outer loop
      vertex 1.00078 -19.9607 1.5
      vertex 2.14137 -19.7738 3
      vertex 1.00078 -19.9607 3
    endloop
  endfacet
  facet normal 0.161735 -0.986834 0
    outer loop
      vertex 2.14137 -19.7738 3
      vertex 1.00078 -19.9607 1.5
      vertex 2.14137 -19.7738 1.5
    endloop
  endfacet
  facet normal 0.234433 -0.972132 0
    outer loop
      vertex 2.14137 -19.7738 1.5
      vertex 3.22665 -19.512 3
      vertex 2.14137 -19.7738 3
    endloop
  endfacet
  facet normal 0.234433 -0.972132 0
    outer loop
      vertex 3.22665 -19.512 3
      vertex 2.14137 -19.7738 1.5
      vertex 3.22665 -19.512 1.5
    endloop
  endfacet
  facet normal 0.31054 -0.95056 0
    outer loop
      vertex 3.22665 -19.512 1.5
      vertex 4.25664 -19.1756 3
      vertex 3.22665 -19.512 3
    endloop
  endfacet
  facet normal 0.31054 -0.95056 0
    outer loop
      vertex 4.25664 -19.1756 3
      vertex 3.22665 -19.512 1.5
      vertex 4.25664 -19.1756 1.5
    endloop
  endfacet
  facet normal 0.388766 -0.921337 0
    outer loop
      vertex 4.25664 -19.1756 1.5
      vertex 5.23131 -18.7643 3
      vertex 4.25664 -19.1756 3
    endloop
  endfacet
  facet normal 0.388766 -0.921337 0
    outer loop
      vertex 5.23131 -18.7643 3
      vertex 4.25664 -19.1756 1.5
      vertex 5.23131 -18.7643 1.5
    endloop
  endfacet
  facet normal 0.467371 -0.884062 0
    outer loop
      vertex 5.23131 -18.7643 1.5
      vertex 6.15068 -18.2782 3
      vertex 5.23131 -18.7643 3
    endloop
  endfacet
  facet normal 0.467371 -0.884062 0
    outer loop
      vertex 6.15068 -18.2782 3
      vertex 5.23131 -18.7643 1.5
      vertex 6.15068 -18.2782 1.5
    endloop
  endfacet
  facet normal 0.542868 -0.839818 0
    outer loop
      vertex 6.15068 -18.2782 1.5
      vertex 7.00668 -17.7249 3
      vertex 6.15068 -18.2782 3
    endloop
  endfacet
  facet normal 0.542868 -0.839818 0
    outer loop
      vertex 7.00668 -17.7249 3
      vertex 6.15068 -18.2782 1.5
      vertex 7.00668 -17.7249 1.5
    endloop
  endfacet
  facet normal 0.615676 -0.787999 0
    outer loop
      vertex 7.00668 -17.7249 1.5
      vertex 7.79068 -17.1124 3
      vertex 7.00668 -17.7249 3
    endloop
  endfacet
  facet normal 0.615676 -0.787999 0
    outer loop
      vertex 7.79068 -17.1124 3
      vertex 7.00668 -17.7249 1.5
      vertex 7.79068 -17.1124 1.5
    endloop
  endfacet
  facet normal 0.686271 -0.727345 0
    outer loop
      vertex 7.79068 -17.1124 1.5
      vertex 8.50267 -16.4406 3
      vertex 7.79068 -17.1124 3
    endloop
  endfacet
  facet normal 0.686271 -0.727345 0
    outer loop
      vertex 8.50267 -16.4406 3
      vertex 7.79068 -17.1124 1.5
      vertex 8.50267 -16.4406 1.5
    endloop
  endfacet
  facet normal 0.75238 -0.658729 0
    outer loop
      vertex 8.50267 -16.4406 3
      vertex 9.14267 -15.7096 1.5
      vertex 9.14267 -15.7096 3
    endloop
  endfacet
  facet normal 0.75238 -0.658729 0
    outer loop
      vertex 9.14267 -15.7096 1.5
      vertex 8.50267 -16.4406 3
      vertex 8.50267 -16.4406 1.5
    endloop
  endfacet
  facet normal 0.812003 -0.583653 0
    outer loop
      vertex 9.14267 -15.7096 3
      vertex 9.71068 -14.9194 1.5
      vertex 9.71068 -14.9194 3
    endloop
  endfacet
  facet normal 0.812003 -0.583653 0
    outer loop
      vertex 9.71068 -14.9194 1.5
      vertex 9.14267 -15.7096 3
      vertex 9.14267 -15.7096 1.5
    endloop
  endfacet
  facet normal 0.86356 -0.504246 0
    outer loop
      vertex 9.71068 -14.9194 3
      vertex 10.2067 -14.0699 1.5
      vertex 10.2067 -14.0699 3
    endloop
  endfacet
  facet normal 0.86356 -0.504246 0
    outer loop
      vertex 10.2067 -14.0699 1.5
      vertex 9.71068 -14.9194 3
      vertex 9.71068 -14.9194 1.5
    endloop
  endfacet
  facet normal 0.906203 -0.422842 0
    outer loop
      vertex 10.2067 -14.0699 3
      vertex 10.6307 -13.1612 1.5
      vertex 10.6307 -13.1612 3
    endloop
  endfacet
  facet normal 0.906203 -0.422842 0
    outer loop
      vertex 10.6307 -13.1612 1.5
      vertex 10.2067 -14.0699 3
      vertex 10.2067 -14.0699 1.5
    endloop
  endfacet
  facet normal 0.929798 -0.368071 0
    outer loop
      vertex 10.6307 -13.1612 3
      vertex 10.8513 -12.6038 1.5
      vertex 10.8513 -12.6038 3
    endloop
  endfacet
  facet normal 0.929798 -0.368071 0
    outer loop
      vertex 10.8513 -12.6038 1.5
      vertex 10.6307 -13.1612 3
      vertex 10.6307 -13.1612 1.5
    endloop
  endfacet
  facet normal 0.942494 -0.334222 0
    outer loop
      vertex 10.8513 -12.6038 3
      vertex 11.0482 -12.0486 1.5
      vertex 11.0482 -12.0486 3
    endloop
  endfacet
  facet normal 0.942494 -0.334222 0
    outer loop
      vertex 11.0482 -12.0486 1.5
      vertex 10.8513 -12.6038 3
      vertex 10.8513 -12.6038 1.5
    endloop
  endfacet
  facet normal 0.95434 -0.298722 0
    outer loop
      vertex 11.0482 -12.0486 3
      vertex 11.2213 -11.4956 1.5
      vertex 11.2213 -11.4956 3
    endloop
  endfacet
  facet normal 0.95434 -0.298722 0
    outer loop
      vertex 11.2213 -11.4956 1.5
      vertex 11.0482 -12.0486 3
      vertex 11.0482 -12.0486 1.5
    endloop
  endfacet
  facet normal 0.965172 -0.261617 0
    outer loop
      vertex 11.2213 -11.4956 3
      vertex 11.3706 -10.9449 1.5
      vertex 11.3706 -10.9449 3
    endloop
  endfacet
  facet normal 0.965172 -0.261617 0
    outer loop
      vertex 11.3706 -10.9449 1.5
      vertex 11.2213 -11.4956 3
      vertex 11.2213 -11.4956 1.5
    endloop
  endfacet
  facet normal 0.97481 -0.223037 0
    outer loop
      vertex 11.3706 -10.9449 3
      vertex 11.4961 -10.3965 1.5
      vertex 11.4961 -10.3965 3
    endloop
  endfacet
  facet normal 0.97481 -0.223037 0
    outer loop
      vertex 11.4961 -10.3965 1.5
      vertex 11.3706 -10.9449 3
      vertex 11.3706 -10.9449 1.5
    endloop
  endfacet
  facet normal 0.983106 -0.183038 0
    outer loop
      vertex 11.4961 -10.3965 3
      vertex 11.5978 -9.85022 1.5
      vertex 11.5978 -9.85022 3
    endloop
  endfacet
  facet normal 0.983106 -0.183038 0
    outer loop
      vertex 11.5978 -9.85022 1.5
      vertex 11.4961 -10.3965 3
      vertex 11.4961 -10.3965 1.5
    endloop
  endfacet
  facet normal 0.989902 -0.141752 0
    outer loop
      vertex 11.5978 -9.85022 3
      vertex 11.6757 -9.30624 1.5
      vertex 11.6757 -9.30624 3
    endloop
  endfacet
  facet normal 0.989902 -0.141752 0
    outer loop
      vertex 11.6757 -9.30624 1.5
      vertex 11.5978 -9.85022 3
      vertex 11.5978 -9.85022 1.5
    endloop
  endfacet
  facet normal 0.994052 -0.108908 0
    outer loop
      vertex 11.6757 -9.30624 3
      vertex 11.737 -8.74678 1.5
      vertex 11.737 -8.74678 3
    endloop
  endfacet
  facet normal 0.994052 -0.108908 0
    outer loop
      vertex 11.737 -8.74678 1.5
      vertex 11.6757 -9.30624 3
      vertex 11.6757 -9.30624 1.5
    endloop
  endfacet
  facet normal 0.996195 -0.0871475 0
    outer loop
      vertex 11.737 -8.74678 3
      vertex 11.7888 -8.15408 1.5
      vertex 11.7888 -8.15408 3
    endloop
  endfacet
  facet normal 0.996195 -0.0871475 0
    outer loop
      vertex 11.7888 -8.15408 1.5
      vertex 11.737 -8.74678 3
      vertex 11.737 -8.74678 1.5
    endloop
  endfacet
  facet normal 0.99771 -0.0676409 0
    outer loop
      vertex 11.7888 -8.15408 3
      vertex 11.8313 -7.52817 1.5
      vertex 11.8313 -7.52817 3
    endloop
  endfacet
  facet normal 0.99771 -0.0676409 0
    outer loop
      vertex 11.8313 -7.52817 1.5
      vertex 11.7888 -8.15408 3
      vertex 11.7888 -8.15408 1.5
    endloop
  endfacet
  facet normal 0.99875 -0.049986 0
    outer loop
      vertex 11.8313 -7.52817 3
      vertex 11.8642 -6.86902 1.5
      vertex 11.8642 -6.86902 3
    endloop
  endfacet
  facet normal 0.99875 -0.049986 0
    outer loop
      vertex 11.8642 -6.86902 1.5
      vertex 11.8313 -7.52817 3
      vertex 11.8313 -7.52817 1.5
    endloop
  endfacet
  facet normal 0.999421 -0.0340299 0
    outer loop
      vertex 11.8642 -6.86902 3
      vertex 11.8878 -6.17665 1.5
      vertex 11.8878 -6.17665 3
    endloop
  endfacet
  facet normal 0.999421 -0.0340299 0
    outer loop
      vertex 11.8878 -6.17665 1.5
      vertex 11.8642 -6.86902 3
      vertex 11.8642 -6.86902 1.5
    endloop
  endfacet
  facet normal 0.99981 -0.0194907 0
    outer loop
      vertex 11.8878 -6.17665 3
      vertex 11.902 -5.45107 1.5
      vertex 11.902 -5.45107 3
    endloop
  endfacet
  facet normal 0.99981 -0.0194907 0
    outer loop
      vertex 11.902 -5.45107 1.5
      vertex 11.8878 -6.17665 3
      vertex 11.8878 -6.17665 1.5
    endloop
  endfacet
  facet normal 0.999981 -0.00621343 0
    outer loop
      vertex 11.902 -5.45107 3
      vertex 11.9067 -4.69225 1.5
      vertex 11.9067 -4.69225 3
    endloop
  endfacet
  facet normal 0.999981 -0.00621343 0
    outer loop
      vertex 11.9067 -4.69225 1.5
      vertex 11.902 -5.45107 3
      vertex 11.902 -5.45107 1.5
    endloop
  endfacet
  facet normal 1 -0 0
    outer loop
      vertex 11.9067 -4.69225 3
      vertex 11.9067 16.1557 1.5
      vertex 11.9067 16.1557 3
    endloop
  endfacet
  facet normal 1 0 0
    outer loop
      vertex 11.9067 16.1557 1.5
      vertex 11.9067 -4.69225 3
      vertex 11.9067 -4.69225 1.5
    endloop
  endfacet
  facet normal 0.999444 0.0333307 0
    outer loop
      vertex 11.9067 16.1557 3
      vertex 11.8842 16.8288 1.5
      vertex 11.8842 16.8288 3
    endloop
  endfacet
  facet normal 0.999444 0.0333307 0
    outer loop
      vertex 11.8842 16.8288 1.5
      vertex 11.9067 16.1557 3
      vertex 11.9067 16.1557 1.5
    endloop
  endfacet
  facet normal 0.99421 0.107452 0
    outer loop
      vertex 11.8842 16.8288 3
      vertex 11.8169 17.452 1.5
      vertex 11.8169 17.452 3
    endloop
  endfacet
  facet normal 0.99421 0.107452 0
    outer loop
      vertex 11.8169 17.452 1.5
      vertex 11.8842 16.8288 3
      vertex 11.8842 16.8288 1.5
    endloop
  endfacet
  facet normal 0.981369 0.192131 0
    outer loop
      vertex 11.8169 17.452 3
      vertex 11.7046 18.0253 1.5
      vertex 11.7046 18.0253 3
    endloop
  endfacet
  facet normal 0.981369 0.192131 0
    outer loop
      vertex 11.7046 18.0253 1.5
      vertex 11.8169 17.452 3
      vertex 11.8169 17.452 1.5
    endloop
  endfacet
  facet normal 0.957764 0.287555 0
    outer loop
      vertex 11.7046 18.0253 3
      vertex 11.5475 18.5487 1.5
      vertex 11.5475 18.5487 3
    endloop
  endfacet
  facet normal 0.957764 0.287555 0
    outer loop
      vertex 11.5475 18.5487 1.5
      vertex 11.7046 18.0253 3
      vertex 11.7046 18.0253 1.5
    endloop
  endfacet
  facet normal 0.919795 0.392399 0
    outer loop
      vertex 11.5475 18.5487 3
      vertex 11.3455 19.0223 1.5
      vertex 11.3455 19.0223 3
    endloop
  endfacet
  facet normal 0.919795 0.392399 0
    outer loop
      vertex 11.3455 19.0223 1.5
      vertex 11.5475 18.5487 3
      vertex 11.5475 18.5487 1.5
    endloop
  endfacet
  facet normal 0.863953 0.503573 0
    outer loop
      vertex 11.3455 19.0223 3
      vertex 11.0985 19.446 1.5
      vertex 11.0985 19.446 3
    endloop
  endfacet
  facet normal 0.863953 0.503573 0
    outer loop
      vertex 11.0985 19.446 1.5
      vertex 11.3455 19.0223 3
      vertex 11.3455 19.0223 1.5
    endloop
  endfacet
  facet normal 0.788216 0.615399 0
    outer loop
      vertex 11.0985 19.446 3
      vertex 10.8067 19.8197 1.5
      vertex 10.8067 19.8197 3
    endloop
  endfacet
  facet normal 0.788216 0.615399 0
    outer loop
      vertex 10.8067 19.8197 1.5
      vertex 11.0985 19.446 3
      vertex 11.0985 19.446 1.5
    endloop
  endfacet
  facet normal 0.70101 0.713151 -0
    outer loop
      vertex 10.8067 19.8197 1.5
      vertex 10.4769 20.144 3
      vertex 10.8067 19.8197 3
    endloop
  endfacet
  facet normal 0.70101 0.713151 0
    outer loop
      vertex 10.4769 20.144 3
      vertex 10.8067 19.8197 1.5
      vertex 10.4769 20.144 1.5
    endloop
  endfacet
  facet normal 0.604569 0.796553 -0
    outer loop
      vertex 10.4769 20.144 1.5
      vertex 10.1154 20.4183 3
      vertex 10.4769 20.144 3
    endloop
  endfacet
  facet normal 0.604569 0.796553 0
    outer loop
      vertex 10.1154 20.4183 3
      vertex 10.4769 20.144 1.5
      vertex 10.1154 20.4183 1.5
    endloop
  endfacet
  facet normal 0.495845 0.868411 -0
    outer loop
      vertex 10.1154 20.4183 1.5
      vertex 9.72234 20.6427 3
      vertex 10.1154 20.4183 3
    endloop
  endfacet
  facet normal 0.495845 0.868411 0
    outer loop
      vertex 9.72234 20.6427 3
      vertex 10.1154 20.4183 1.5
      vertex 9.72234 20.6427 1.5
    endloop
  endfacet
  facet normal 0.380168 0.924917 -0
    outer loop
      vertex 9.72234 20.6427 1.5
      vertex 9.29761 20.8173 3
      vertex 9.72234 20.6427 3
    endloop
  endfacet
  facet normal 0.380168 0.924917 0
    outer loop
      vertex 9.29761 20.8173 3
      vertex 9.72234 20.6427 1.5
      vertex 9.29761 20.8173 1.5
    endloop
  endfacet
  facet normal 0.263584 0.964636 -0
    outer loop
      vertex 9.29761 20.8173 1.5
      vertex 8.84126 20.942 3
      vertex 9.29761 20.8173 3
    endloop
  endfacet
  facet normal 0.263584 0.964636 0
    outer loop
      vertex 8.84126 20.942 3
      vertex 9.29761 20.8173 1.5
      vertex 8.84126 20.942 1.5
    endloop
  endfacet
  facet normal 0.151544 0.988451 -0
    outer loop
      vertex 8.84126 20.942 1.5
      vertex 8.35329 21.0168 3
      vertex 8.84126 20.942 3
    endloop
  endfacet
  facet normal 0.151544 0.988451 0
    outer loop
      vertex 8.35329 21.0168 3
      vertex 8.84126 20.942 1.5
      vertex 8.35329 21.0168 1.5
    endloop
  endfacet
  facet normal 0.0479581 0.998849 -0
    outer loop
      vertex 8.35329 21.0168 1.5
      vertex 7.83368 21.0417 3
      vertex 8.35329 21.0168 3
    endloop
  endfacet
  facet normal 0.0479581 0.998849 0
    outer loop
      vertex 7.83368 21.0417 3
      vertex 8.35329 21.0168 1.5
      vertex 7.83368 21.0417 1.5
    endloop
  endfacet
  facet normal -0.0487015 0.998813 0
    outer loop
      vertex 7.83368 21.0417 1.5
      vertex 7.32202 21.0168 3
      vertex 7.83368 21.0417 3
    endloop
  endfacet
  facet normal -0.0487015 0.998813 0
    outer loop
      vertex 7.32202 21.0168 3
      vertex 7.83368 21.0417 1.5
      vertex 7.32202 21.0168 1.5
    endloop
  endfacet
  facet normal -0.153971 0.988075 0
    outer loop
      vertex 7.32202 21.0168 1.5
      vertex 6.84192 20.942 3
      vertex 7.32202 21.0168 3
    endloop
  endfacet
  facet normal -0.153971 0.988075 0
    outer loop
      vertex 6.84192 20.942 3
      vertex 7.32202 21.0168 1.5
      vertex 6.84192 20.942 1.5
    endloop
  endfacet
  facet normal -0.26784 0.963463 0
    outer loop
      vertex 6.84192 20.942 1.5
      vertex 6.39337 20.8173 3
      vertex 6.84192 20.942 3
    endloop
  endfacet
  facet normal -0.26784 0.963463 0
    outer loop
      vertex 6.39337 20.8173 3
      vertex 6.84192 20.942 1.5
      vertex 6.39337 20.8173 1.5
    endloop
  endfacet
  facet normal -0.386165 0.92243 0
    outer loop
      vertex 6.39337 20.8173 1.5
      vertex 5.97636 20.6427 3
      vertex 6.39337 20.8173 3
    endloop
  endfacet
  facet normal -0.386165 0.92243 0
    outer loop
      vertex 5.97636 20.6427 3
      vertex 6.39337 20.8173 1.5
      vertex 5.97636 20.6427 1.5
    endloop
  endfacet
  facet normal -0.503207 0.864166 0
    outer loop
      vertex 5.97636 20.6427 1.5
      vertex 5.59093 20.4183 3
      vertex 5.97636 20.6427 3
    endloop
  endfacet
  facet normal -0.503207 0.864166 0
    outer loop
      vertex 5.59093 20.4183 3
      vertex 5.97636 20.6427 1.5
      vertex 5.59093 20.4183 1.5
    endloop
  endfacet
  facet normal -0.612645 0.790359 0
    outer loop
      vertex 5.59093 20.4183 1.5
      vertex 5.23703 20.144 3
      vertex 5.59093 20.4183 3
    endloop
  endfacet
  facet normal -0.612645 0.790359 0
    outer loop
      vertex 5.23703 20.144 3
      vertex 5.59093 20.4183 1.5
      vertex 5.23703 20.144 1.5
    endloop
  endfacet
  facet normal -0.709123 0.705085 0
    outer loop
      vertex 4.91467 19.8197 1.5
      vertex 5.23703 20.144 3
      vertex 5.23703 20.144 1.5
    endloop
  endfacet
  facet normal -0.709123 0.705085 0
    outer loop
      vertex 5.23703 20.144 3
      vertex 4.91467 19.8197 1.5
      vertex 4.91467 19.8197 3
    endloop
  endfacet
  facet normal -0.796043 0.60524 0
    outer loop
      vertex 4.63026 19.4457 1.5
      vertex 4.91467 19.8197 3
      vertex 4.91467 19.8197 1.5
    endloop
  endfacet
  facet normal -0.796043 0.60524 0
    outer loop
      vertex 4.91467 19.8197 3
      vertex 4.63026 19.4457 1.5
      vertex 4.63026 19.4457 3
    endloop
  endfacet
  facet normal -0.869633 0.4937 0
    outer loop
      vertex 4.38962 19.0218 1.5
      vertex 4.63026 19.4457 3
      vertex 4.63026 19.4457 1.5
    endloop
  endfacet
  facet normal -0.869633 0.4937 0
    outer loop
      vertex 4.63026 19.4457 3
      vertex 4.38962 19.0218 1.5
      vertex 4.38962 19.0218 3
    endloop
  endfacet
  facet normal -0.923417 0.383798 0
    outer loop
      vertex 4.19272 18.548 1.5
      vertex 4.38962 19.0218 3
      vertex 4.38962 19.0218 1.5
    endloop
  endfacet
  facet normal -0.923417 0.383798 0
    outer loop
      vertex 4.38962 19.0218 3
      vertex 4.19272 18.548 1.5
      vertex 4.19272 18.548 3
    endloop
  endfacet
  facet normal -0.959789 0.280723 0
    outer loop
      vertex 4.03958 18.0245 1.5
      vertex 4.19272 18.548 3
      vertex 4.19272 18.548 1.5
    endloop
  endfacet
  facet normal -0.959789 0.280723 0
    outer loop
      vertex 4.19272 18.548 3
      vertex 4.03958 18.0245 1.5
      vertex 4.03958 18.0245 3
    endloop
  endfacet
  facet normal -0.982285 0.187392 0
    outer loop
      vertex 3.93019 17.4511 1.5
      vertex 4.03958 18.0245 3
      vertex 4.03958 18.0245 1.5
    endloop
  endfacet
  facet normal -0.982285 0.187392 0
    outer loop
      vertex 4.03958 18.0245 3
      vertex 3.93019 17.4511 1.5
      vertex 3.93019 17.4511 3
    endloop
  endfacet
  facet normal -0.994499 0.104746 0
    outer loop
      vertex 3.86455 16.8278 1.5
      vertex 3.93019 17.4511 3
      vertex 3.93019 17.4511 1.5
    endloop
  endfacet
  facet normal -0.994499 0.104746 0
    outer loop
      vertex 3.93019 17.4511 3
      vertex 3.86455 16.8278 1.5
      vertex 3.86455 16.8278 3
    endloop
  endfacet
  facet normal -0.999473 0.0324691 0
    outer loop
      vertex 3.84268 16.1547 1.5
      vertex 3.86455 16.8278 3
      vertex 3.86455 16.8278 1.5
    endloop
  endfacet
  facet normal -0.999473 0.0324691 0
    outer loop
      vertex 3.86455 16.8278 3
      vertex 3.84268 16.1547 1.5
      vertex 3.84268 16.1547 3
    endloop
  endfacet
  facet normal -1 0 0
    outer loop
      vertex 3.84268 -5.86424 1.5
      vertex 3.84268 16.1547 3
      vertex 3.84268 16.1547 1.5
    endloop
  endfacet
  facet normal -1 -0 0
    outer loop
      vertex 3.84268 16.1547 3
      vertex 3.84268 -5.86424 1.5
      vertex 3.84268 -5.86424 3
    endloop
  endfacet
  facet normal -0.998631 0.052311 0
    outer loop
      vertex 3.73364 -7.94583 1.5
      vertex 3.84268 -5.86424 3
      vertex 3.84268 -5.86424 1.5
    endloop
  endfacet
  facet normal -0.998631 0.052311 0
    outer loop
      vertex 3.84268 -5.86424 3
      vertex 3.73364 -7.94583 1.5
      vertex 3.73364 -7.94583 3
    endloop
  endfacet
  facet normal -0.983186 0.182606 0
    outer loop
      vertex 3.40651 -9.70718 1.5
      vertex 3.73364 -7.94583 3
      vertex 3.73364 -7.94583 1.5
    endloop
  endfacet
  facet normal -0.983186 0.182606 0
    outer loop
      vertex 3.73364 -7.94583 3
      vertex 3.40651 -9.70718 1.5
      vertex 3.40651 -9.70718 3
    endloop
  endfacet
  facet normal -0.935305 0.353844 0
    outer loop
      vertex 2.86131 -11.1483 1.5
      vertex 3.40651 -9.70718 3
      vertex 3.40651 -9.70718 1.5
    endloop
  endfacet
  facet normal -0.935305 0.353844 0
    outer loop
      vertex 3.40651 -9.70718 3
      vertex 2.86131 -11.1483 1.5
      vertex 2.86131 -11.1483 3
    endloop
  endfacet
  facet normal -0.826545 0.562871 0
    outer loop
      vertex 2.09802 -12.2691 1.5
      vertex 2.86131 -11.1483 3
      vertex 2.86131 -11.1483 1.5
    endloop
  endfacet
  facet normal -0.826545 0.562871 0
    outer loop
      vertex 2.86131 -11.1483 3
      vertex 2.09802 -12.2691 1.5
      vertex 2.09802 -12.2691 3
    endloop
  endfacet
  facet normal -0.632138 0.774856 0
    outer loop
      vertex 2.09802 -12.2691 1.5
      vertex 1.11665 -13.0697 3
      vertex 2.09802 -12.2691 3
    endloop
  endfacet
  facet normal -0.632138 0.774856 0
    outer loop
      vertex 1.11665 -13.0697 3
      vertex 2.09802 -12.2691 1.5
      vertex 1.11665 -13.0697 1.5
    endloop
  endfacet
  facet normal -0.371794 0.928315 0
    outer loop
      vertex 1.11665 -13.0697 1.5
      vertex -0.0827789 -13.5501 3
      vertex 1.11665 -13.0697 3
    endloop
  endfacet
  facet normal -0.371794 0.928315 0
    outer loop
      vertex -0.0827789 -13.5501 3
      vertex 1.11665 -13.0697 1.5
      vertex -0.0827789 -13.5501 1.5
    endloop
  endfacet
  facet normal -0.112237 0.993681 0
    outer loop
      vertex -0.0827789 -13.5501 1.5
      vertex -1.50031 -13.7102 3
      vertex -0.0827789 -13.5501 3
    endloop
  endfacet
  facet normal -0.112237 0.993681 0
    outer loop
      vertex -1.50031 -13.7102 3
      vertex -0.0827789 -13.5501 1.5
      vertex -1.50031 -13.7102 1.5
    endloop
  endfacet
  facet normal 0.0329147 0.999458 -0
    outer loop
      vertex -1.50031 -13.7102 1.5
      vertex -2.05492 -13.692 3
      vertex -1.50031 -13.7102 3
    endloop
  endfacet
  facet normal 0.0329147 0.999458 0
    outer loop
      vertex -2.05492 -13.692 3
      vertex -1.50031 -13.7102 1.5
      vertex -2.05492 -13.692 1.5
    endloop
  endfacet
  facet normal 0.105398 0.99443 -0
    outer loop
      vertex -2.05492 -13.692 1.5
      vertex -2.5719 -13.6372 3
      vertex -2.05492 -13.692 3
    endloop
  endfacet
  facet normal 0.105398 0.99443 0
    outer loop
      vertex -2.5719 -13.6372 3
      vertex -2.05492 -13.692 1.5
      vertex -2.5719 -13.6372 1.5
    endloop
  endfacet
  facet normal 0.187148 0.982332 -0
    outer loop
      vertex -2.5719 -13.6372 1.5
      vertex -3.05125 -13.5459 3
      vertex -2.5719 -13.6372 3
    endloop
  endfacet
  facet normal 0.187148 0.982332 0
    outer loop
      vertex -3.05125 -13.5459 3
      vertex -2.5719 -13.6372 1.5
      vertex -3.05125 -13.5459 1.5
    endloop
  endfacet
  facet normal 0.278037 0.96057 -0
    outer loop
      vertex -3.05125 -13.5459 1.5
      vertex -3.49297 -13.418 3
      vertex -3.05125 -13.5459 3
    endloop
  endfacet
  facet normal 0.278037 0.96057 0
    outer loop
      vertex -3.49297 -13.418 3
      vertex -3.05125 -13.5459 1.5
      vertex -3.49297 -13.418 1.5
    endloop
  endfacet
  facet normal 0.376818 0.926287 -0
    outer loop
      vertex -3.49297 -13.418 1.5
      vertex -3.89705 -13.2536 3
      vertex -3.49297 -13.418 3
    endloop
  endfacet
  facet normal 0.376818 0.926287 0
    outer loop
      vertex -3.89705 -13.2536 3
      vertex -3.49297 -13.418 1.5
      vertex -3.89705 -13.2536 1.5
    endloop
  endfacet
  facet normal 0.48079 0.876836 -0
    outer loop
      vertex -3.89705 -13.2536 1.5
      vertex -4.26349 -13.0527 3
      vertex -3.89705 -13.2536 3
    endloop
  endfacet
  facet normal 0.48079 0.876836 0
    outer loop
      vertex -4.26349 -13.0527 3
      vertex -3.89705 -13.2536 1.5
      vertex -4.26349 -13.0527 1.5
    endloop
  endfacet
  facet normal 0.585419 0.810731 -0
    outer loop
      vertex -4.26349 -13.0527 1.5
      vertex -4.59232 -12.8152 3
      vertex -4.26349 -13.0527 3
    endloop
  endfacet
  facet normal 0.585419 0.810731 0
    outer loop
      vertex -4.59232 -12.8152 3
      vertex -4.26349 -13.0527 1.5
      vertex -4.59232 -12.8152 1.5
    endloop
  endfacet
  facet normal 0.662874 0.748731 -0
    outer loop
      vertex -4.59232 -12.8152 1.5
      vertex -4.88959 -12.5521 3
      vertex -4.59232 -12.8152 3
    endloop
  endfacet
  facet normal 0.662874 0.748731 0
    outer loop
      vertex -4.88959 -12.5521 3
      vertex -4.59232 -12.8152 1.5
      vertex -4.88959 -12.5521 1.5
    endloop
  endfacet
  facet normal 0.714393 0.699744 0
    outer loop
      vertex -4.88959 -12.5521 3
      vertex -5.16145 -12.2745 1.5
      vertex -5.16145 -12.2745 3
    endloop
  endfacet
  facet normal 0.714393 0.699744 0
    outer loop
      vertex -5.16145 -12.2745 1.5
      vertex -4.88959 -12.5521 3
      vertex -4.88959 -12.5521 1.5
    endloop
  endfacet
  facet normal 0.76413 0.645063 0
    outer loop
      vertex -5.16145 -12.2745 3
      vertex -5.40788 -11.9826 1.5
      vertex -5.40788 -11.9826 3
    endloop
  endfacet
  facet normal 0.76413 0.645063 0
    outer loop
      vertex -5.40788 -11.9826 1.5
      vertex -5.16145 -12.2745 3
      vertex -5.16145 -12.2745 1.5
    endloop
  endfacet
  facet normal 0.810951 0.585114 0
    outer loop
      vertex -5.40788 -11.9826 3
      vertex -5.62888 -11.6763 1.5
      vertex -5.62888 -11.6763 3
    endloop
  endfacet
  facet normal 0.810951 0.585114 0
    outer loop
      vertex -5.62888 -11.6763 1.5
      vertex -5.40788 -11.9826 3
      vertex -5.40788 -11.9826 1.5
    endloop
  endfacet
  facet normal 0.853731 0.520714 0
    outer loop
      vertex -5.62888 -11.6763 3
      vertex -5.82445 -11.3557 1.5
      vertex -5.82445 -11.3557 3
    endloop
  endfacet
  facet normal 0.853731 0.520714 0
    outer loop
      vertex -5.82445 -11.3557 1.5
      vertex -5.62888 -11.6763 3
      vertex -5.62888 -11.6763 1.5
    endloop
  endfacet
  facet normal 0.891599 0.452825 0
    outer loop
      vertex -5.82445 -11.3557 3
      vertex -5.9946 -11.0206 1.5
      vertex -5.9946 -11.0206 3
    endloop
  endfacet
  facet normal 0.891599 0.452825 0
    outer loop
      vertex -5.9946 -11.0206 1.5
      vertex -5.82445 -11.3557 3
      vertex -5.82445 -11.3557 1.5
    endloop
  endfacet
  facet normal 0.923883 0.382675 0
    outer loop
      vertex -5.9946 -11.0206 3
      vertex -6.13931 -10.6712 1.5
      vertex -6.13931 -10.6712 3
    endloop
  endfacet
  facet normal 0.923883 0.382675 0
    outer loop
      vertex -6.13931 -10.6712 1.5
      vertex -5.9946 -11.0206 3
      vertex -5.9946 -11.0206 1.5
    endloop
  endfacet
  facet normal 0.943151 0.332365 0
    outer loop
      vertex -6.13931 -10.6712 3
      vertex -6.27103 -10.2975 1.5
      vertex -6.27103 -10.2975 3
    endloop
  endfacet
  facet normal 0.943151 0.332365 0
    outer loop
      vertex -6.27103 -10.2975 1.5
      vertex -6.13931 -10.6712 3
      vertex -6.13931 -10.6712 1.5
    endloop
  endfacet
  facet normal 0.951668 0.30713 0
    outer loop
      vertex -6.27103 -10.2975 3
      vertex -6.40274 -9.88936 1.5
      vertex -6.40274 -9.88936 3
    endloop
  endfacet
  facet normal 0.951668 0.30713 0
    outer loop
      vertex -6.40274 -9.88936 1.5
      vertex -6.27103 -10.2975 3
      vertex -6.27103 -10.2975 1.5
    endloop
  endfacet
  facet normal 0.95844 0.285294 0
    outer loop
      vertex -6.40274 -9.88936 3
      vertex -6.53445 -9.44687 1.5
      vertex -6.53445 -9.44687 3
    endloop
  endfacet
  facet normal 0.95844 0.285294 0
    outer loop
      vertex -6.53445 -9.44687 1.5
      vertex -6.40274 -9.88936 3
      vertex -6.40274 -9.88936 1.5
    endloop
  endfacet
  facet normal 0.963905 0.266245 0
    outer loop
      vertex -6.53445 -9.44687 3
      vertex -6.66617 -8.97002 1.5
      vertex -6.66617 -8.97002 3
    endloop
  endfacet
  facet normal 0.963905 0.266245 0
    outer loop
      vertex -6.66617 -8.97002 1.5
      vertex -6.53445 -9.44687 3
      vertex -6.53445 -9.44687 1.5
    endloop
  endfacet
  facet normal 0.968377 0.249493 0
    outer loop
      vertex -6.66617 -8.97002 3
      vertex -6.79788 -8.45879 1.5
      vertex -6.79788 -8.45879 3
    endloop
  endfacet
  facet normal 0.968377 0.249493 0
    outer loop
      vertex -6.79788 -8.45879 1.5
      vertex -6.66617 -8.97002 3
      vertex -6.66617 -8.97002 1.5
    endloop
  endfacet
  facet normal 0.972073 0.234679 0
    outer loop
      vertex -6.79788 -8.45879 3
      vertex -6.9296 -7.91321 1.5
      vertex -6.9296 -7.91321 3
    endloop
  endfacet
  facet normal 0.972073 0.234679 0
    outer loop
      vertex -6.9296 -7.91321 1.5
      vertex -6.79788 -8.45879 3
      vertex -6.79788 -8.45879 1.5
    endloop
  endfacet
  facet normal 0.975168 0.221465 0
    outer loop
      vertex -6.9296 -7.91321 3
      vertex -7.06131 -7.33324 1.5
      vertex -7.06131 -7.33324 3
    endloop
  endfacet
  facet normal 0.975168 0.221465 0
    outer loop
      vertex -7.06131 -7.33324 1.5
      vertex -6.9296 -7.91321 3
      vertex -6.9296 -7.91321 1.5
    endloop
  endfacet
  facet normal 0.971215 0.238204 0
    outer loop
      vertex -7.06131 -7.33324 3
      vertex -7.19307 -6.79602 1.5
      vertex -7.19307 -6.79602 3
    endloop
  endfacet
  facet normal 0.971215 0.238204 0
    outer loop
      vertex -7.19307 -6.79602 1.5
      vertex -7.06131 -7.33324 3
      vertex -7.06131 -7.33324 1.5
    endloop
  endfacet
  facet normal 0.958499 0.285095 0
    outer loop
      vertex -7.19307 -6.79602 3
      vertex -7.34033 -6.30092 1.5
      vertex -7.34033 -6.30092 3
    endloop
  endfacet
  facet normal 0.958499 0.285095 0
    outer loop
      vertex -7.34033 -6.30092 1.5
      vertex -7.19307 -6.79602 3
      vertex -7.19307 -6.79602 1.5
    endloop
  endfacet
  facet normal 0.941093 0.338149 0
    outer loop
      vertex -7.34033 -6.30092 3
      vertex -7.5031 -5.84793 1.5
      vertex -7.5031 -5.84793 3
    endloop
  endfacet
  facet normal 0.941093 0.338149 0
    outer loop
      vertex -7.5031 -5.84793 1.5
      vertex -7.34033 -6.30092 3
      vertex -7.34033 -6.30092 1.5
    endloop
  endfacet
  facet normal 0.917343 0.398097 0
    outer loop
      vertex -7.5031 -5.84793 3
      vertex -7.6814 -5.43707 1.5
      vertex -7.6814 -5.43707 3
    endloop
  endfacet
  facet normal 0.917343 0.398097 0
    outer loop
      vertex -7.6814 -5.43707 1.5
      vertex -7.5031 -5.84793 3
      vertex -7.5031 -5.84793 1.5
    endloop
  endfacet
  facet normal 0.885196 0.465218 0
    outer loop
      vertex -7.6814 -5.43707 3
      vertex -7.87518 -5.06834 1.5
      vertex -7.87518 -5.06834 3
    endloop
  endfacet
  facet normal 0.885196 0.465218 0
    outer loop
      vertex -7.87518 -5.06834 1.5
      vertex -7.6814 -5.43707 3
      vertex -7.6814 -5.43707 1.5
    endloop
  endfacet
  facet normal 0.841953 0.53955 0
    outer loop
      vertex -7.87518 -5.06834 3
      vertex -8.08449 -4.74173 1.5
      vertex -8.08449 -4.74173 3
    endloop
  endfacet
  facet normal 0.841953 0.53955 0
    outer loop
      vertex -8.08449 -4.74173 1.5
      vertex -7.87518 -5.06834 3
      vertex -7.87518 -5.06834 1.5
    endloop
  endfacet
  facet normal 0.784575 0.620034 0
    outer loop
      vertex -8.08449 -4.74173 3
      vertex -8.30931 -4.45724 1.5
      vertex -8.30931 -4.45724 3
    endloop
  endfacet
  facet normal 0.784575 0.620034 0
    outer loop
      vertex -8.30931 -4.45724 1.5
      vertex -8.08449 -4.74173 3
      vertex -8.08449 -4.74173 1.5
    endloop
  endfacet
  facet normal 0.70208 0.712098 -0
    outer loop
      vertex -8.30931 -4.45724 1.5
      vertex -8.55768 -4.21237 3
      vertex -8.30931 -4.45724 3
    endloop
  endfacet
  facet normal 0.70208 0.712098 0
    outer loop
      vertex -8.55768 -4.21237 3
      vertex -8.30931 -4.45724 1.5
      vertex -8.55768 -4.21237 1.5
    endloop
  endfacet
  facet normal 0.594139 0.804362 -0
    outer loop
      vertex -8.55768 -4.21237 1.5
      vertex -8.83821 -4.00516 3
      vertex -8.55768 -4.21237 3
    endloop
  endfacet
  facet normal 0.594139 0.804362 0
    outer loop
      vertex -8.83821 -4.00516 3
      vertex -8.55768 -4.21237 1.5
      vertex -8.83821 -4.00516 1.5
    endloop
  endfacet
  facet normal 0.47662 0.879109 -0
    outer loop
      vertex -8.83821 -4.00516 1.5
      vertex -9.15089 -3.83563 3
      vertex -8.83821 -4.00516 3
    endloop
  endfacet
  facet normal 0.47662 0.879109 0
    outer loop
      vertex -9.15089 -3.83563 3
      vertex -8.83821 -4.00516 1.5
      vertex -9.15089 -3.83563 1.5
    endloop
  endfacet
  facet normal 0.357153 0.934046 -0
    outer loop
      vertex -9.15089 -3.83563 1.5
      vertex -9.49576 -3.70377 3
      vertex -9.15089 -3.83563 3
    endloop
  endfacet
  facet normal 0.357153 0.934046 0
    outer loop
      vertex -9.49576 -3.70377 3
      vertex -9.15089 -3.83563 1.5
      vertex -9.49576 -3.70377 1.5
    endloop
  endfacet
  facet normal 0.242351 0.970189 -0
    outer loop
      vertex -9.49576 -3.70377 1.5
      vertex -9.87277 -3.60959 3
      vertex -9.49576 -3.70377 3
    endloop
  endfacet
  facet normal 0.242351 0.970189 0
    outer loop
      vertex -9.87277 -3.60959 3
      vertex -9.49576 -3.70377 1.5
      vertex -9.87277 -3.60959 1.5
    endloop
  endfacet
  facet normal 0.136786 0.990601 -0
    outer loop
      vertex -9.87277 -3.60959 1.5
      vertex -10.282 -3.55309 3
      vertex -9.87277 -3.60959 3
    endloop
  endfacet
  facet normal 0.136786 0.990601 0
    outer loop
      vertex -10.282 -3.55309 3
      vertex -9.87277 -3.60959 1.5
      vertex -10.282 -3.55309 1.5
    endloop
  endfacet
  facet normal 0.0426592 0.99909 -0
    outer loop
      vertex -10.282 -3.55309 1.5
      vertex -10.7233 -3.53424 3
      vertex -10.282 -3.55309 3
    endloop
  endfacet
  facet normal 0.0426592 0.99909 0
    outer loop
      vertex -10.7233 -3.53424 3
      vertex -10.282 -3.55309 1.5
      vertex -10.7233 -3.53424 1.5
    endloop
  endfacet
  facet normal -0.044466 0.999011 0
    outer loop
      vertex -10.7233 -3.53424 1.5
      vertex -11.1837 -3.55473 3
      vertex -10.7233 -3.53424 3
    endloop
  endfacet
  facet normal -0.044466 0.999011 0
    outer loop
      vertex -11.1837 -3.55473 3
      vertex -10.7233 -3.53424 1.5
      vertex -11.1837 -3.55473 1.5
    endloop
  endfacet
  facet normal -0.139563 0.990213 0
    outer loop
      vertex -11.1837 -3.55473 1.5
      vertex -11.6198 -3.6162 3
      vertex -11.1837 -3.55473 3
    endloop
  endfacet
  facet normal -0.139563 0.990213 0
    outer loop
      vertex -11.6198 -3.6162 3
      vertex -11.1837 -3.55473 1.5
      vertex -11.6198 -3.6162 1.5
    endloop
  endfacet
  facet normal -0.241444 0.970415 0
    outer loop
      vertex -11.6198 -3.6162 1.5
      vertex -12.0316 -3.71864 3
      vertex -11.6198 -3.6162 3
    endloop
  endfacet
  facet normal -0.241444 0.970415 0
    outer loop
      vertex -12.0316 -3.71864 3
      vertex -11.6198 -3.6162 1.5
      vertex -12.0316 -3.71864 1.5
    endloop
  endfacet
  facet normal -0.347194 0.937793 0
    outer loop
      vertex -12.0316 -3.71864 1.5
      vertex -12.419 -3.86208 3
      vertex -12.0316 -3.71864 3
    endloop
  endfacet
  facet normal -0.347194 0.937793 0
    outer loop
      vertex -12.419 -3.86208 3
      vertex -12.0316 -3.71864 1.5
      vertex -12.419 -3.86208 1.5
    endloop
  endfacet
  facet normal -0.452825 0.8916 0
    outer loop
      vertex -12.419 -3.86208 1.5
      vertex -12.7821 -4.04649 3
      vertex -12.419 -3.86208 3
    endloop
  endfacet
  facet normal -0.452825 0.8916 0
    outer loop
      vertex -12.7821 -4.04649 3
      vertex -12.419 -3.86208 1.5
      vertex -12.7821 -4.04649 1.5
    endloop
  endfacet
  facet normal -0.553912 0.832575 0
    outer loop
      vertex -12.7821 -4.04649 1.5
      vertex -13.1209 -4.27188 3
      vertex -12.7821 -4.04649 3
    endloop
  endfacet
  facet normal -0.553912 0.832575 0
    outer loop
      vertex -13.1209 -4.27188 3
      vertex -12.7821 -4.04649 1.5
      vertex -13.1209 -4.27188 1.5
    endloop
  endfacet
  facet normal -0.646359 0.763034 0
    outer loop
      vertex -13.1209 -4.27188 1.5
      vertex -13.4353 -4.53824 3
      vertex -13.1209 -4.27188 3
    endloop
  endfacet
  facet normal -0.646359 0.763034 0
    outer loop
      vertex -13.4353 -4.53824 3
      vertex -13.1209 -4.27188 1.5
      vertex -13.4353 -4.53824 1.5
    endloop
  endfacet
  facet normal -0.735954 0.677032 0
    outer loop
      vertex -13.716 -4.84337 1.5
      vertex -13.4353 -4.53824 3
      vertex -13.4353 -4.53824 1.5
    endloop
  endfacet
  facet normal -0.735954 0.677032 0
    outer loop
      vertex -13.4353 -4.53824 3
      vertex -13.716 -4.84337 1.5
      vertex -13.716 -4.84337 3
    endloop
  endfacet
  facet normal -0.821088 0.570801 0
    outer loop
      vertex -13.9535 -5.18501 1.5
      vertex -13.716 -4.84337 3
      vertex -13.716 -4.84337 1.5
    endloop
  endfacet
  facet normal -0.821088 0.570801 0
    outer loop
      vertex -13.716 -4.84337 3
      vertex -13.9535 -5.18501 1.5
      vertex -13.9535 -5.18501 3
    endloop
  endfacet
  facet normal -0.889442 0.457048 0
    outer loop
      vertex -14.1478 -5.5632 1.5
      vertex -13.9535 -5.18501 3
      vertex -13.9535 -5.18501 1.5
    endloop
  endfacet
  facet normal -0.889442 0.457048 0
    outer loop
      vertex -13.9535 -5.18501 3
      vertex -14.1478 -5.5632 1.5
      vertex -14.1478 -5.5632 3
    endloop
  endfacet
  facet normal -0.939552 0.342406 0
    outer loop
      vertex -14.299 -5.97792 1.5
      vertex -14.1478 -5.5632 3
      vertex -14.1478 -5.5632 1.5
    endloop
  endfacet
  facet normal -0.939552 0.342406 0
    outer loop
      vertex -14.1478 -5.5632 3
      vertex -14.299 -5.97792 1.5
      vertex -14.299 -5.97792 3
    endloop
  endfacet
  facet normal -0.972553 0.23268 0
    outer loop
      vertex -14.4069 -6.42915 1.5
      vertex -14.299 -5.97792 3
      vertex -14.299 -5.97792 1.5
    endloop
  endfacet
  facet normal -0.972553 0.23268 0
    outer loop
      vertex -14.299 -5.97792 3
      vertex -14.4069 -6.42915 1.5
      vertex -14.4069 -6.42915 3
    endloop
  endfacet
  facet normal -0.991298 0.131638 0
    outer loop
      vertex -14.4717 -6.91693 1.5
      vertex -14.4069 -6.42915 3
      vertex -14.4069 -6.42915 1.5
    endloop
  endfacet
  facet normal -0.991298 0.131638 0
    outer loop
      vertex -14.4069 -6.42915 3
      vertex -14.4717 -6.91693 1.5
      vertex -14.4717 -6.91693 3
    endloop
  endfacet
  facet normal -0.999153 0.0411455 0
    outer loop
      vertex -14.4933 -7.44124 1.5
      vertex -14.4717 -6.91693 3
      vertex -14.4717 -6.91693 1.5
    endloop
  endfacet
  facet normal -0.999153 0.0411455 0
    outer loop
      vertex -14.4717 -6.91693 3
      vertex -14.4933 -7.44124 1.5
      vertex -14.4933 -7.44124 3
    endloop
  endfacet
  facet normal -0.999771 -0.0214215 0
    outer loop
      vertex -14.4823 -7.95683 1.5
      vertex -14.4933 -7.44124 3
      vertex -14.4933 -7.44124 1.5
    endloop
  endfacet
  facet normal -0.999771 -0.0214215 0
    outer loop
      vertex -14.4933 -7.44124 3
      vertex -14.4823 -7.95683 1.5
      vertex -14.4823 -7.95683 3
    endloop
  endfacet
  facet normal -0.997995 -0.0632877 0
    outer loop
      vertex -14.4491 -8.48018 1.5
      vertex -14.4823 -7.95683 3
      vertex -14.4823 -7.95683 1.5
    endloop
  endfacet
  facet normal -0.997995 -0.0632877 0
    outer loop
      vertex -14.4823 -7.95683 3
      vertex -14.4491 -8.48018 1.5
      vertex -14.4491 -8.48018 3
    endloop
  endfacet
  facet normal -0.99462 -0.103588 0
    outer loop
      vertex -14.3938 -9.01128 1.5
      vertex -14.4491 -8.48018 3
      vertex -14.4491 -8.48018 1.5
    endloop
  endfacet
  facet normal -0.99462 -0.103588 0
    outer loop
      vertex -14.4491 -8.48018 3
      vertex -14.3938 -9.01128 1.5
      vertex -14.3938 -9.01128 3
    endloop
  endfacet
  facet normal -0.989835 -0.142218 0
    outer loop
      vertex -14.3163 -9.55014 1.5
      vertex -14.3938 -9.01128 3
      vertex -14.3938 -9.01128 1.5
    endloop
  endfacet
  facet normal -0.989835 -0.142218 0
    outer loop
      vertex -14.3938 -9.01128 3
      vertex -14.3163 -9.55014 1.5
      vertex -14.3163 -9.55014 3
    endloop
  endfacet
  facet normal -0.983818 -0.179171 0
    outer loop
      vertex -14.2168 -10.0968 1.5
      vertex -14.3163 -9.55014 3
      vertex -14.3163 -9.55014 1.5
    endloop
  endfacet
  facet normal -0.983818 -0.179171 0
    outer loop
      vertex -14.3163 -9.55014 3
      vertex -14.2168 -10.0968 1.5
      vertex -14.2168 -10.0968 3
    endloop
  endfacet
  facet normal -0.976751 -0.214379 0
    outer loop
      vertex -14.0951 -10.6511 1.5
      vertex -14.2168 -10.0968 3
      vertex -14.2168 -10.0968 1.5
    endloop
  endfacet
  facet normal -0.976751 -0.214379 0
    outer loop
      vertex -14.2168 -10.0968 3
      vertex -14.0951 -10.6511 1.5
      vertex -14.0951 -10.6511 3
    endloop
  endfacet
  facet normal -0.968802 -0.247835 0
    outer loop
      vertex -13.9513 -11.2132 1.5
      vertex -14.0951 -10.6511 3
      vertex -14.0951 -10.6511 1.5
    endloop
  endfacet
  facet normal -0.968802 -0.247835 0
    outer loop
      vertex -14.0951 -10.6511 3
      vertex -13.9513 -11.2132 1.5
      vertex -13.9513 -11.2132 3
    endloop
  endfacet
  facet normal -0.96026 -0.279106 0
    outer loop
      vertex -13.7895 -11.7698 1.5
      vertex -13.9513 -11.2132 3
      vertex -13.9513 -11.2132 1.5
    endloop
  endfacet
  facet normal -0.96026 -0.279106 0
    outer loop
      vertex -13.9513 -11.2132 3
      vertex -13.7895 -11.7698 1.5
      vertex -13.7895 -11.7698 3
    endloop
  endfacet
  facet normal -0.950881 -0.309558 0
    outer loop
      vertex -13.6145 -12.3075 1.5
      vertex -13.7895 -11.7698 3
      vertex -13.7895 -11.7698 1.5
    endloop
  endfacet
  facet normal -0.950881 -0.309558 0
    outer loop
      vertex -13.7895 -11.7698 3
      vertex -13.6145 -12.3075 1.5
      vertex -13.6145 -12.3075 3
    endloop
  endfacet
  facet normal -0.940016 -0.34113 0
    outer loop
      vertex -13.4262 -12.8264 1.5
      vertex -13.6145 -12.3075 3
      vertex -13.6145 -12.3075 1.5
    endloop
  endfacet
  facet normal -0.940016 -0.34113 0
    outer loop
      vertex -13.6145 -12.3075 3
      vertex -13.4262 -12.8264 1.5
      vertex -13.4262 -12.8264 3
    endloop
  endfacet
  facet normal -0.92746 -0.373922 0
    outer loop
      vertex -13.2246 -13.3264 1.5
      vertex -13.4262 -12.8264 3
      vertex -13.4262 -12.8264 1.5
    endloop
  endfacet
  facet normal -0.92746 -0.373922 0
    outer loop
      vertex -13.4262 -12.8264 3
      vertex -13.2246 -13.3264 1.5
      vertex -13.2246 -13.3264 3
    endloop
  endfacet
  facet normal -0.913114 -0.407704 0
    outer loop
      vertex -13.0098 -13.8075 1.5
      vertex -13.2246 -13.3264 3
      vertex -13.2246 -13.3264 1.5
    endloop
  endfacet
  facet normal -0.913114 -0.407704 0
    outer loop
      vertex -13.2246 -13.3264 3
      vertex -13.0098 -13.8075 1.5
      vertex -13.0098 -13.8075 3
    endloop
  endfacet
  facet normal -0.896777 -0.442483 0
    outer loop
      vertex -12.7817 -14.2698 1.5
      vertex -13.0098 -13.8075 3
      vertex -13.0098 -13.8075 1.5
    endloop
  endfacet
  facet normal -0.896777 -0.442483 0
    outer loop
      vertex -13.0098 -13.8075 3
      vertex -12.7817 -14.2698 1.5
      vertex -12.7817 -14.2698 3
    endloop
  endfacet
  facet normal -0.878313 -0.478085 0
    outer loop
      vertex -12.5403 -14.7132 1.5
      vertex -12.7817 -14.2698 3
      vertex -12.7817 -14.2698 1.5
    endloop
  endfacet
  facet normal -0.878313 -0.478085 0
    outer loop
      vertex -12.7817 -14.2698 3
      vertex -12.5403 -14.7132 1.5
      vertex -12.5403 -14.7132 3
    endloop
  endfacet
  facet normal -0.84525 -0.53437 0
    outer loop
      vertex -12.0462 -15.4949 1.5
      vertex -12.5403 -14.7132 3
      vertex -12.5403 -14.7132 1.5
    endloop
  endfacet
  facet normal -0.84525 -0.53437 0
    outer loop
      vertex -12.5403 -14.7132 3
      vertex -12.0462 -15.4949 1.5
      vertex -12.0462 -15.4949 3
    endloop
  endfacet
  facet normal -0.800711 -0.599051 0
    outer loop
      vertex -11.5094 -16.2123 1.5
      vertex -12.0462 -15.4949 3
      vertex -12.0462 -15.4949 1.5
    endloop
  endfacet
  facet normal -0.800711 -0.599051 0
    outer loop
      vertex -12.0462 -15.4949 3
      vertex -11.5094 -16.2123 1.5
      vertex -11.5094 -16.2123 3
    endloop
  endfacet
  facet normal -0.748169 -0.663509 0
    outer loop
      vertex -10.9302 -16.8655 1.5
      vertex -11.5094 -16.2123 3
      vertex -11.5094 -16.2123 1.5
    endloop
  endfacet
  facet normal -0.748169 -0.663509 0
    outer loop
      vertex -11.5094 -16.2123 3
      vertex -10.9302 -16.8655 1.5
      vertex -10.9302 -16.8655 3
    endloop
  endfacet
  facet normal -0.687669 -0.726024 0
    outer loop
      vertex -10.9302 -16.8655 1.5
      vertex -10.3083 -17.4545 3
      vertex -10.9302 -16.8655 3
    endloop
  endfacet
  facet normal -0.687669 -0.726024 -0
    outer loop
      vertex -10.3083 -17.4545 3
      vertex -10.9302 -16.8655 1.5
      vertex -10.3083 -17.4545 1.5
    endloop
  endfacet
  facet normal -0.619824 -0.784741 0
    outer loop
      vertex -10.3083 -17.4545 1.5
      vertex -9.64388 -17.9793 3
      vertex -10.3083 -17.4545 3
    endloop
  endfacet
  facet normal -0.619824 -0.784741 -0
    outer loop
      vertex -9.64388 -17.9793 3
      vertex -10.3083 -17.4545 1.5
      vertex -9.64388 -17.9793 1.5
    endloop
  endfacet
  facet normal -0.545851 -0.837882 0
    outer loop
      vertex -9.64388 -17.9793 1.5
      vertex -8.93687 -18.4398 3
      vertex -9.64388 -17.9793 3
    endloop
  endfacet
  facet normal -0.545851 -0.837882 -0
    outer loop
      vertex -8.93687 -18.4398 3
      vertex -9.64388 -17.9793 1.5
      vertex -8.93687 -18.4398 1.5
    endloop
  endfacet
  facet normal -0.467483 -0.884002 0
    outer loop
      vertex -8.93687 -18.4398 1.5
      vertex -8.1873 -18.8362 3
      vertex -8.93687 -18.4398 3
    endloop
  endfacet
  facet normal -0.467483 -0.884002 -0
    outer loop
      vertex -8.1873 -18.8362 3
      vertex -8.93687 -18.4398 1.5
      vertex -8.1873 -18.8362 1.5
    endloop
  endfacet
  facet normal -0.389791 -0.920903 0
    outer loop
      vertex -8.1873 -18.8362 1.5
      vertex -7.38876 -19.1742 3
      vertex -8.1873 -18.8362 3
    endloop
  endfacet
  facet normal -0.389791 -0.920903 -0
    outer loop
      vertex -7.38876 -19.1742 3
      vertex -8.1873 -18.8362 1.5
      vertex -7.38876 -19.1742 1.5
    endloop
  endfacet
  facet normal -0.317763 -0.94817 0
    outer loop
      vertex -7.38876 -19.1742 1.5
      vertex -6.53539 -19.4602 3
      vertex -7.38876 -19.1742 3
    endloop
  endfacet
  facet normal -0.317763 -0.94817 -0
    outer loop
      vertex -6.53539 -19.4602 3
      vertex -7.38876 -19.1742 1.5
      vertex -6.53539 -19.4602 1.5
    endloop
  endfacet
  facet normal -0.24952 -0.96837 0
    outer loop
      vertex -6.53539 -19.4602 1.5
      vertex -5.62721 -19.6942 3
      vertex -6.53539 -19.4602 3
    endloop
  endfacet
  facet normal -0.24952 -0.96837 -0
    outer loop
      vertex -5.62721 -19.6942 3
      vertex -6.53539 -19.4602 1.5
      vertex -5.62721 -19.6942 1.5
    endloop
  endfacet
  facet normal -0.185695 -0.982608 0
    outer loop
      vertex -5.62721 -19.6942 1.5
      vertex -4.6642 -19.8762 3
      vertex -5.62721 -19.6942 3
    endloop
  endfacet
  facet normal -0.185695 -0.982608 -0
    outer loop
      vertex -4.6642 -19.8762 3
      vertex -5.62721 -19.6942 1.5
      vertex -4.6642 -19.8762 1.5
    endloop
  endfacet
  facet normal -0.126701 -0.991941 0
    outer loop
      vertex -4.6642 -19.8762 1.5
      vertex -3.64639 -20.0062 3
      vertex -4.6642 -19.8762 3
    endloop
  endfacet
  facet normal -0.126701 -0.991941 -0
    outer loop
      vertex -3.64639 -20.0062 3
      vertex -4.6642 -19.8762 1.5
      vertex -3.64639 -20.0062 1.5
    endloop
  endfacet
  facet normal -0.0725295 -0.997366 0
    outer loop
      vertex -3.64639 -20.0062 1.5
      vertex -2.57376 -20.0842 3
      vertex -3.64639 -20.0062 3
    endloop
  endfacet
  facet normal -0.0725295 -0.997366 -0
    outer loop
      vertex -2.57376 -20.0842 3
      vertex -3.64639 -20.0062 1.5
      vertex -2.57376 -20.0842 1.5
    endloop
  endfacet
  facet normal -0.0230555 -0.999734 0
    outer loop
      vertex -2.57376 -20.0842 1.5
      vertex -1.4463 -20.1102 3
      vertex -2.57376 -20.0842 3
    endloop
  endfacet
  facet normal -0.0230555 -0.999734 -0
    outer loop
      vertex -1.4463 -20.1102 3
      vertex -2.57376 -20.0842 1.5
      vertex -1.4463 -20.1102 1.5
    endloop
  endfacet
  facet normal 0.0298651 -0.999554 0
    outer loop
      vertex -1.4463 -20.1102 1.5
      vertex -0.195099 -20.0729 3
      vertex -1.4463 -20.1102 3
    endloop
  endfacet
  facet normal 0.0298651 -0.999554 0
    outer loop
      vertex -0.195099 -20.0729 3
      vertex -1.4463 -20.1102 1.5
      vertex -0.195099 -20.0729 1.5
    endloop
  endfacet
endsolid OpenSCAD_Model
