solid OpenSCAD_Model
  facet normal -1 0 0
    outer loop
      vertex -25 -25 -1
      vertex -25 25 23.2
      vertex -25 25 -1
    endloop
  endfacet
  facet normal -1 -0 0
    outer loop
      vertex -25 25 23.2
      vertex -25 -25 -1
      vertex -25 -25 23.2
    endloop
  endfacet
  facet normal 5.46065e-25 1.22465e-16 1
    outer loop
      vertex 8.72131 -4.97917 6.09773e-16
      vertex 24 -24 2.93915e-15
      vertex 24 24 -2.93915e-15
    endloop
  endfacet
  facet normal 6.71626e-23 1.22465e-16 1
    outer loop
      vertex 24 -24 2.93915e-15
      vertex 8.78101 -5.3569 6.56031e-16
      vertex 8.80327 -5.79375 7.09529e-16
    endloop
  endfacet
  facet normal 6.30209e-24 1.22465e-16 1
    outer loop
      vertex 24 -24 2.93915e-15
      vertex 8.72131 -4.97917 6.09773e-16
      vertex 8.78101 -5.3569 6.56031e-16
    endloop
  endfacet
  facet normal -5.05098e-22 1.22465e-16 1
    outer loop
      vertex 24 24 -2.93915e-15
      vertex 8.71426 -4.94217 6.05241e-16
      vertex 8.72131 -4.97917 6.09773e-16
    endloop
  endfacet
  facet normal 6.42731e-24 1.22465e-16 1
    outer loop
      vertex 24 24 -2.93915e-15
      vertex 8.61478 -4.58594 5.61615e-16
      vertex 8.71426 -4.94217 6.05241e-16
    endloop
  endfacet
  facet normal 1.36481e-21 1.22464e-16 1
    outer loop
      vertex 24 24 -2.93915e-15
      vertex 8.60313 -4.55011 5.57228e-16
      vertex 8.61478 -4.58594 5.61615e-16
    endloop
  endfacet
  facet normal -3.16679e-23 1.22465e-16 1
    outer loop
      vertex 24 24 -2.93915e-15
      vertex 8.46384 -4.21539 5.16237e-16
      vertex 8.60313 -4.55011 5.57228e-16
    endloop
  endfacet
  facet normal -2.71431e-22 1.22465e-16 1
    outer loop
      vertex 24 24 -2.93915e-15
      vertex 8.44778 -4.1813 5.12062e-16
      vertex 8.46384 -4.21539 5.16237e-16
    endloop
  endfacet
  facet normal -6.49891e-23 1.22465e-16 1
    outer loop
      vertex 24 24 -2.93915e-15
      vertex 8.26871 -3.8681 4.73706e-16
      vertex 8.44778 -4.1813 5.12062e-16
    endloop
  endfacet
  facet normal 5.72882e-22 1.22464e-16 1
    outer loop
      vertex 24 24 -2.93915e-15
      vertex 8.24852 -3.83629 4.6981e-16
      vertex 8.26871 -3.8681 4.73706e-16
    endloop
  endfacet
  facet normal -2.32407e-23 1.22465e-16 1
    outer loop
      vertex 24 24 -2.93915e-15
      vertex 8.02965 -3.5446 4.34088e-16
      vertex 8.24852 -3.83629 4.6981e-16
    endloop
  endfacet
  facet normal -1.66246e-22 1.22465e-16 1
    outer loop
      vertex 24 24 -2.93915e-15
      vertex 8.00565 -3.51558 4.30534e-16
      vertex 8.02965 -3.5446 4.34088e-16
    endloop
  endfacet
  facet normal 4.96964e-23 1.22465e-16 1
    outer loop
      vertex 24 24 -2.93915e-15
      vertex 7.74696 -3.24539 3.97446e-16
      vertex 8.00565 -3.51558 4.30534e-16
    endloop
  endfacet
  facet normal -3.85983e-22 1.22465e-16 1
    outer loop
      vertex 24 24 -2.93915e-15
      vertex 7.7195 -3.2196 3.94288e-16
      vertex 7.74696 -3.24539 3.97446e-16
    endloop
  endfacet
  facet normal 1.04878e-23 1.22465e-16 1
    outer loop
      vertex 24 24 -2.93915e-15
      vertex 7.41966 -2.97897 3.64819e-16
      vertex 7.7195 -3.2196 3.94288e-16
    endloop
  endfacet
  facet normal -2.95424e-22 1.22465e-16 1
    outer loop
      vertex 24 24 -2.93915e-15
      vertex 7.38918 -2.95682 3.62106e-16
      vertex 7.41966 -2.97897 3.64819e-16
    endloop
  endfacet
  facet normal 4.7606e-24 1.22465e-16 1
    outer loop
      vertex 24 24 -2.93915e-15
      vertex 7.04623 -2.7532 3.3717e-16
      vertex 7.38918 -2.95682 3.62106e-16
    endloop
  endfacet
  facet normal 4.39277e-22 1.22464e-16 1
    outer loop
      vertex 24 24 -2.93915e-15
      vertex 7.01323 -2.73506 3.34948e-16
      vertex 7.04623 -2.7532 3.3717e-16
    endloop
  endfacet
  facet normal 3.29862e-26 1.22465e-16 1
    outer loop
      vertex 24 24 -2.93915e-15
      vertex 6.6272 -2.56847 3.14546e-16
      vertex 7.01323 -2.73506 3.34948e-16
    endloop
  endfacet
  facet normal -9.8037e-23 1.22465e-16 1
    outer loop
      vertex 24 24 -2.93915e-15
      vertex 6.59216 -2.5546 3.12848e-16
      vertex 6.6272 -2.56847 3.14546e-16
    endloop
  endfacet
  facet normal -4.63789e-24 1.22465e-16 1
    outer loop
      vertex 24 24 -2.93915e-15
      vertex 6.16301 -2.42502 2.96979e-16
      vertex 6.59216 -2.5546 3.12848e-16
    endloop
  endfacet
  facet normal -4.33819e-24 1.22465e-16 1
    outer loop
      vertex 24 24 -2.93915e-15
      vertex 6.12653 -2.41565 2.95832e-16
      vertex 6.16301 -2.42502 2.96979e-16
    endloop
  endfacet
  facet normal 1.10773e-23 1.22465e-16 1
    outer loop
      vertex 24 24 -2.93915e-15
      vertex 5.65428 -2.3231 2.84498e-16
      vertex 6.12653 -2.41565 2.95832e-16
    endloop
  endfacet
  facet normal -3.58103e-24 1.22465e-16 1
    outer loop
      vertex 24 24 -2.93915e-15
      vertex 5.10156 -2.26285 2.77119e-16
      vertex 5.65428 -2.3231 2.84498e-16
    endloop
  endfacet
  facet normal 2.07709e-24 1.22465e-16 1
    outer loop
      vertex 24 24 -2.93915e-15
      vertex 4.54311 -2.24434 2.74852e-16
      vertex 5.10156 -2.26285 2.77119e-16
    endloop
  endfacet
  facet normal 0 1.22465e-16 1
    outer loop
      vertex 24 24 -2.93915e-15
      vertex -4.04854 -2.24434 2.74852e-16
      vertex 4.54311 -2.24434 2.74852e-16
    endloop
  endfacet
  facet normal -0 1.22465e-16 1
    outer loop
      vertex -24 24 -2.93915e-15
      vertex -4.04854 -2.24434 2.74852e-16
      vertex 24 24 -2.93915e-15
    endloop
  endfacet
  facet normal -2.15354e-24 1.22465e-16 1
    outer loop
      vertex -4.04854 -2.24434 2.74852e-16
      vertex -24 24 -2.93915e-15
      vertex -4.58633 -2.26285 2.77119e-16
    endloop
  endfacet
  facet normal 3.67024e-24 1.22465e-16 1
    outer loop
      vertex -4.58633 -2.26285 2.77119e-16
      vertex -24 24 -2.93915e-15
      vertex -5.12338 -2.3231 2.84498e-16
    endloop
  endfacet
  facet normal -1.12622e-23 1.22465e-16 1
    outer loop
      vertex -5.12338 -2.3231 2.84498e-16
      vertex -24 24 -2.93915e-15
      vertex -5.58495 -2.41565 2.95832e-16
    endloop
  endfacet
  facet normal 4.31882e-24 1.22465e-16 1
    outer loop
      vertex -5.58495 -2.41565 2.95832e-16
      vertex -24 24 -2.93915e-15
      vertex -5.62143 -2.42502 2.96979e-16
    endloop
  endfacet
  facet normal 4.66558e-24 1.22465e-16 1
    outer loop
      vertex -5.62143 -2.42502 2.96979e-16
      vertex -24 24 -2.93915e-15
      vertex -6.04486 -2.5546 3.12848e-16
    endloop
  endfacet
  facet normal 9.74059e-23 1.22465e-16 1
    outer loop
      vertex -6.04486 -2.5546 3.12848e-16
      vertex -24 24 -2.93915e-15
      vertex -6.0799 -2.56847 3.14546e-16
    endloop
  endfacet
  facet normal -3.28073e-26 1.22465e-16 1
    outer loop
      vertex -6.0799 -2.56847 3.14546e-16
      vertex -24 24 -2.93915e-15
      vertex -6.46519 -2.73506 3.34948e-16
    endloop
  endfacet
  facet normal -4.1774e-23 1.22465e-16 1
    outer loop
      vertex -6.46519 -2.73506 3.34948e-16
      vertex -24 24 -2.93915e-15
      vertex -6.84538 -2.95682 3.62106e-16
    endloop
  endfacet
  facet normal 2.92463e-22 1.22465e-16 1
    outer loop
      vertex -6.84538 -2.95682 3.62106e-16
      vertex -24 24 -2.93915e-15
      vertex -6.87587 -2.97897 3.64819e-16
    endloop
  endfacet
  facet normal -5.35368e-23 1.22465e-16 1
    outer loop
      vertex -8.21643 -4.94217 6.05241e-16
      vertex -24 -24 2.93915e-15
      vertex -8.28561 -5.3569 6.56031e-16
    endloop
  endfacet
  facet normal 3.21987e-25 1.22465e-16 1
    outer loop
      vertex -24 -24 2.93915e-15
      vertex -8.21643 -4.94217 6.05241e-16
      vertex -24 24 -2.93915e-15
    endloop
  endfacet
  facet normal -6.20683e-24 1.22465e-16 1
    outer loop
      vertex -8.11285 -4.58594 5.61615e-16
      vertex -24 24 -2.93915e-15
      vertex -8.21643 -4.94217 6.05241e-16
    endloop
  endfacet
  facet normal -1.3376e-21 1.22464e-16 1
    outer loop
      vertex -8.10121 -4.55011 5.57228e-16
      vertex -24 24 -2.93915e-15
      vertex -8.11285 -4.58594 5.61615e-16
    endloop
  endfacet
  facet normal 3.05602e-23 1.22465e-16 1
    outer loop
      vertex -7.95621 -4.21539 5.16237e-16
      vertex -24 24 -2.93915e-15
      vertex -8.10121 -4.55011 5.57228e-16
    endloop
  endfacet
  facet normal 2.66734e-22 1.22465e-16 1
    outer loop
      vertex -7.94016 -4.1813 5.12062e-16
      vertex -24 24 -2.93915e-15
      vertex -7.95621 -4.21539 5.16237e-16
    endloop
  endfacet
  facet normal 2.45906e-24 1.22465e-16 1
    outer loop
      vertex -7.73354 -3.83629 4.6981e-16
      vertex -24 24 -2.93915e-15
      vertex -7.94016 -4.1813 5.12062e-16
    endloop
  endfacet
  facet normal 3.57445e-23 1.22465e-16 1
    outer loop
      vertex -7.48169 -3.51558 4.30534e-16
      vertex -24 24 -2.93915e-15
      vertex -7.73354 -3.83629 4.6981e-16
    endloop
  endfacet
  facet normal -4.78825e-23 1.22465e-16 1
    outer loop
      vertex -7.2124 -3.24539 3.97446e-16
      vertex -24 24 -2.93915e-15
      vertex -7.48169 -3.51558 4.30534e-16
    endloop
  endfacet
  facet normal 3.81479e-22 1.22465e-16 1
    outer loop
      vertex -7.18494 -3.2196 3.94288e-16
      vertex -24 24 -2.93915e-15
      vertex -7.2124 -3.24539 3.97446e-16
    endloop
  endfacet
  facet normal -1.0168e-23 1.22465e-16 1
    outer loop
      vertex -6.87587 -2.97897 3.64819e-16
      vertex -24 24 -2.93915e-15
      vertex -7.18494 -3.2196 3.94288e-16
    endloop
  endfacet
  facet normal -1.54348e-23 1.22465e-16 1
    outer loop
      vertex 8.78073 -6.23799 7.63934e-16
      vertex 24 -24 2.93915e-15
      vertex 8.80327 -5.79375 7.09529e-16
    endloop
  endfacet
  facet normal 5.92509e-23 1.22465e-16 1
    outer loop
      vertex 8.72025 -6.62195 8.10955e-16
      vertex 24 -24 2.93915e-15
      vertex 8.78073 -6.23799 7.63934e-16
    endloop
  endfacet
  facet normal -9.9567e-22 1.22464e-16 1
    outer loop
      vertex 8.7132 -6.65895 8.15486e-16
      vertex 24 -24 2.93915e-15
      vertex 8.72025 -6.62195 8.10955e-16
    endloop
  endfacet
  facet normal 7.75207e-23 1.22465e-16 1
    outer loop
      vertex 8.61238 -7.02022 8.59729e-16
      vertex 24 -24 2.93915e-15
      vertex 8.7132 -6.65895 8.15486e-16
    endloop
  endfacet
  facet normal -9.55e-22 1.22464e-16 1
    outer loop
      vertex 8.60074 -7.05605 8.64116e-16
      vertex 24 -24 2.93915e-15
      vertex 8.61238 -7.02022 8.59729e-16
    endloop
  endfacet
  facet normal -2.41517e-23 1.22465e-16 1
    outer loop
      vertex 8.45959 -7.39462 9.0558e-16
      vertex 24 -24 2.93915e-15
      vertex 8.60074 -7.05605 8.64116e-16
    endloop
  endfacet
  facet normal 1.9728e-22 1.22465e-16 1
    outer loop
      vertex 8.44354 -7.42871 9.09755e-16
      vertex 24 -24 2.93915e-15
      vertex 8.45959 -7.39462 9.0558e-16
    endloop
  endfacet
  facet normal 1.41534e-22 1.22465e-16 1
    outer loop
      vertex 8.26207 -7.74458 9.48438e-16
      vertex 24 -24 2.93915e-15
      vertex 8.44354 -7.42871 9.09755e-16
    endloop
  endfacet
  facet normal -4.26201e-22 1.22464e-16 1
    outer loop
      vertex 8.24188 -7.7764 9.52334e-16
      vertex 24 -24 2.93915e-15
      vertex 8.26207 -7.74458 9.48438e-16
    endloop
  endfacet
  facet normal -5.44739e-23 1.22465e-16 1
    outer loop
      vertex 8.0201 -8.06958 9.88239e-16
      vertex 24 -24 2.93915e-15
      vertex 8.24188 -7.7764 9.52334e-16
    endloop
  endfacet
  facet normal 1.12517e-21 1.22466e-16 1
    outer loop
      vertex 7.99609 -8.0986 9.91793e-16
      vertex 24 -24 2.93915e-15
      vertex 8.0201 -8.06958 9.88239e-16
    endloop
  endfacet
  facet normal -3.2386e-23 1.22465e-16 1
    outer loop
      vertex 7.73396 -8.36909 1.02492e-15
      vertex 24 -24 2.93915e-15
      vertex 7.99609 -8.0986 9.91793e-16
    endloop
  endfacet
  facet normal 3.06661e-22 1.22465e-16 1
    outer loop
      vertex 7.7065 -8.39488 1.02808e-15
      vertex 24 -24 2.93915e-15
      vertex 7.73396 -8.36909 1.02492e-15
    endloop
  endfacet
  facet normal -1.36577e-22 1.22465e-16 1
    outer loop
      vertex 7.4035 -8.63579 1.05758e-15
      vertex 24 -24 2.93915e-15
      vertex 7.7065 -8.39488 1.02808e-15
    endloop
  endfacet
  facet normal 1.21225e-21 1.22466e-16 1
    outer loop
      vertex 7.37302 -8.65794 1.06029e-15
      vertex 24 -24 2.93915e-15
      vertex 7.4035 -8.63579 1.05758e-15
    endloop
  endfacet
  facet normal -1.1234e-22 1.22465e-16 1
    outer loop
      vertex 7.02858 -8.86177 1.08525e-15
      vertex 24 -24 2.93915e-15
      vertex 7.37302 -8.65794 1.06029e-15
    endloop
  endfacet
  facet normal 6.25876e-22 1.22465e-16 1
    outer loop
      vertex 6.99557 -8.87991 1.08748e-15
      vertex 24 -24 2.93915e-15
      vertex 7.02858 -8.86177 1.08525e-15
    endloop
  endfacet
  facet normal 3.98659e-23 1.22465e-16 1
    outer loop
      vertex 6.60973 -9.04669 1.1079e-15
      vertex 24 -24 2.93915e-15
      vertex 6.99557 -8.87991 1.08748e-15
    endloop
  endfacet
  facet normal 8.5661e-23 1.22465e-16 1
    outer loop
      vertex 6.57469 -9.06056 1.1096e-15
      vertex 24 -24 2.93915e-15
      vertex 6.60973 -9.04669 1.1079e-15
    endloop
  endfacet
  facet normal -5.73297e-23 1.22465e-16 1
    outer loop
      vertex 6.1474 -9.19028 1.12548e-15
      vertex 24 -24 2.93915e-15
      vertex 6.57469 -9.06056 1.1096e-15
    endloop
  endfacet
  facet normal 1.11233e-21 1.22466e-16 1
    outer loop
      vertex 6.11092 -9.19965 1.12663e-15
      vertex 24 -24 2.93915e-15
      vertex 6.1474 -9.19028 1.12548e-15
    endloop
  endfacet
  facet normal -1.53918e-22 1.22464e-16 1
    outer loop
      vertex 5.64221 -9.2923 1.13798e-15
      vertex 24 -24 2.93915e-15
      vertex 6.11092 -9.19965 1.12663e-15
    endloop
  endfacet
  facet normal 7.20654e-23 1.22465e-16 1
    outer loop
      vertex 5.09468 -9.35262 1.14537e-15
      vertex 24 -24 2.93915e-15
      vertex 5.64221 -9.2923 1.13798e-15
    endloop
  endfacet
  facet normal 8.11757e-23 1.22465e-16 1
    outer loop
      vertex 4.54311 -9.37115 1.14764e-15
      vertex 24 -24 2.93915e-15
      vertex 5.09468 -9.35262 1.14537e-15
    endloop
  endfacet
  facet normal -0 1.22465e-16 1
    outer loop
      vertex -4.04854 -9.37115 1.14764e-15
      vertex 24 -24 2.93915e-15
      vertex 4.54311 -9.37115 1.14764e-15
    endloop
  endfacet
  facet normal -8.10875e-23 1.22465e-16 1
    outer loop
      vertex -24 -24 2.93915e-15
      vertex -4.04854 -9.37115 1.14764e-15
      vertex -4.60011 -9.35262 1.14537e-15
    endloop
  endfacet
  facet normal -7.18332e-23 1.22465e-16 1
    outer loop
      vertex -24 -24 2.93915e-15
      vertex -4.60011 -9.35262 1.14537e-15
      vertex -5.14763 -9.2923 1.13798e-15
    endloop
  endfacet
  facet normal 1.53098e-22 1.22464e-16 1
    outer loop
      vertex -24 -24 2.93915e-15
      vertex -5.14763 -9.2923 1.13798e-15
      vertex -5.61635 -9.19965 1.12663e-15
    endloop
  endfacet
  facet normal -1.10509e-21 1.22466e-16 1
    outer loop
      vertex -24 -24 2.93915e-15
      vertex -5.61635 -9.19965 1.12663e-15
      vertex -5.65283 -9.19028 1.12548e-15
    endloop
  endfacet
  facet normal 5.69073e-23 1.22465e-16 1
    outer loop
      vertex -24 -24 2.93915e-15
      vertex -5.65283 -9.19028 1.12548e-15
      vertex -6.08012 -9.06056 1.1096e-15
    endloop
  endfacet
  facet normal -8.48998e-23 1.22465e-16 1
    outer loop
      vertex -24 -24 2.93915e-15
      vertex -6.08012 -9.06056 1.1096e-15
      vertex -6.11516 -9.04669 1.1079e-15
    endloop
  endfacet
  facet normal -3.94902e-23 1.22465e-16 1
    outer loop
      vertex -24 -24 2.93915e-15
      vertex -6.11516 -9.04669 1.1079e-15
      vertex -6.50101 -8.87991 1.08748e-15
    endloop
  endfacet
  facet normal -6.5064e-23 1.22465e-16 1
    outer loop
      vertex -8.28561 -5.3569 6.56031e-16
      vertex -24 -24 2.93915e-15
      vertex -8.3087 -5.79375 7.09529e-16
    endloop
  endfacet
  facet normal 1.49754e-23 1.22465e-16 1
    outer loop
      vertex -8.3087 -5.79375 7.09529e-16
      vertex -24 -24 2.93915e-15
      vertex -8.28616 -6.23799 7.63934e-16
    endloop
  endfacet
  facet normal -5.76679e-23 1.22465e-16 1
    outer loop
      vertex -8.28616 -6.23799 7.63934e-16
      vertex -24 -24 2.93915e-15
      vertex -8.22568 -6.62195 8.10955e-16
    endloop
  endfacet
  facet normal 9.69869e-22 1.22464e-16 1
    outer loop
      vertex -8.22568 -6.62195 8.10955e-16
      vertex -24 -24 2.93915e-15
      vertex -8.21863 -6.65895 8.15486e-16
    endloop
  endfacet
  facet normal -7.56615e-23 1.22465e-16 1
    outer loop
      vertex -8.21863 -6.65895 8.15486e-16
      vertex -24 -24 2.93915e-15
      vertex -8.11781 -7.02022 8.59729e-16
    endloop
  endfacet
  facet normal 9.3293e-22 1.22464e-16 1
    outer loop
      vertex -8.11781 -7.02022 8.59729e-16
      vertex -24 -24 2.93915e-15
      vertex -8.10617 -7.05605 8.64116e-16
    endloop
  endfacet
  facet normal 2.36314e-23 1.22465e-16 1
    outer loop
      vertex -8.10617 -7.05605 8.64116e-16
      vertex -24 -24 2.93915e-15
      vertex -7.96503 -7.39462 9.0558e-16
    endloop
  endfacet
  facet normal 0 1.22465e-16 1
    outer loop
      vertex -4.04854 -9.37115 1.14764e-15
      vertex -24 -24 2.93915e-15
      vertex 24 -24 2.93915e-15
    endloop
  endfacet
  facet normal -6.18998e-22 1.22465e-16 1
    outer loop
      vertex -6.53401 -8.86177 1.08525e-15
      vertex -24 -24 2.93915e-15
      vertex -6.50101 -8.87991 1.08748e-15
    endloop
  endfacet
  facet normal 1.11049e-22 1.22465e-16 1
    outer loop
      vertex -6.87845 -8.65794 1.06029e-15
      vertex -24 -24 2.93915e-15
      vertex -6.53401 -8.86177 1.08525e-15
    endloop
  endfacet
  facet normal -1.19657e-21 1.22466e-16 1
    outer loop
      vertex -6.90894 -8.63579 1.05758e-15
      vertex -24 -24 2.93915e-15
      vertex -6.87845 -8.65794 1.06029e-15
    endloop
  endfacet
  facet normal 1.34722e-22 1.22465e-16 1
    outer loop
      vertex -7.21193 -8.39488 1.02808e-15
      vertex -24 -24 2.93915e-15
      vertex -6.90894 -8.63579 1.05758e-15
    endloop
  endfacet
  facet normal -3.02121e-22 1.22465e-16 1
    outer loop
      vertex -7.2394 -8.36909 1.02492e-15
      vertex -24 -24 2.93915e-15
      vertex -7.21193 -8.39488 1.02808e-15
    endloop
  endfacet
  facet normal 3.1884e-23 1.22465e-16 1
    outer loop
      vertex -7.50153 -8.0986 9.91793e-16
      vertex -24 -24 2.93915e-15
      vertex -7.2394 -8.36909 1.02492e-15
    endloop
  endfacet
  facet normal -1.1064e-21 1.22466e-16 1
    outer loop
      vertex -7.52553 -8.06958 9.88239e-16
      vertex -24 -24 2.93915e-15
      vertex -7.50153 -8.0986 9.91793e-16
    endloop
  endfacet
  facet normal 5.35294e-23 1.22465e-16 1
    outer loop
      vertex -7.74731 -7.7764 9.52334e-16
      vertex -24 -24 2.93915e-15
      vertex -7.52553 -8.06958 9.88239e-16
    endloop
  endfacet
  facet normal 4.1826e-22 1.22464e-16 1
    outer loop
      vertex -7.7675 -7.74458 9.48438e-16
      vertex -24 -24 2.93915e-15
      vertex -7.74731 -7.7764 9.52334e-16
    endloop
  endfacet
  facet normal -1.38797e-22 1.22465e-16 1
    outer loop
      vertex -7.94897 -7.42871 9.09755e-16
      vertex -24 -24 2.93915e-15
      vertex -7.7675 -7.74458 9.48438e-16
    endloop
  endfacet
  facet normal -1.9319e-22 1.22465e-16 1
    outer loop
      vertex -7.96503 -7.39462 9.0558e-16
      vertex -24 -24 2.93915e-15
      vertex -7.94897 -7.42871 9.09755e-16
    endloop
  endfacet
  facet normal 1 0 0
    outer loop
      vertex 25 -25 23.2
      vertex 25 25 -1
      vertex 25 25 23.2
    endloop
  endfacet
  facet normal 1 0 0
    outer loop
      vertex 25 25 -1
      vertex 25 -25 23.2
      vertex 25 -25 -1
    endloop
  endfacet
  facet normal 0 -1 0
    outer loop
      vertex -25 -25 -1
      vertex 25 -25 23.2
      vertex -25 -25 23.2
    endloop
  endfacet
  facet normal 0 -1 -0
    outer loop
      vertex 25 -25 23.2
      vertex -25 -25 -1
      vertex 25 -25 -1
    endloop
  endfacet
  facet normal 0 1 -0
    outer loop
      vertex 25 25 -1
      vertex -25 25 23.2
      vertex 25 25 23.2
    endloop
  endfacet
  facet normal 0 1 0
    outer loop
      vertex -25 25 23.2
      vertex 25 25 -1
      vertex -25 25 -1
    endloop
  endfacet
  facet normal 1 0 0
    outer loop
      vertex -24 -24 23.2
      vertex -24 24 -2.93915e-15
      vertex -24 24 23.2
    endloop
  endfacet
  facet normal 1 0 0
    outer loop
      vertex -24 24 -2.93915e-15
      vertex -24 -24 23.2
      vertex -24 -24 2.93915e-15
    endloop
  endfacet
  facet normal -1 0 0
    outer loop
      vertex 24 -24 2.93915e-15
      vertex 24 24 23.2
      vertex 24 24 -2.93915e-15
    endloop
  endfacet
  facet normal -1 -0 0
    outer loop
      vertex 24 24 23.2
      vertex 24 -24 2.93915e-15
      vertex 24 -24 23.2
    endloop
  endfacet
  facet normal 0 1 -0
    outer loop
      vertex 24 -24 2.93915e-15
      vertex -24 -24 23.2
      vertex 24 -24 23.2
    endloop
  endfacet
  facet normal 0 1 0
    outer loop
      vertex -24 -24 23.2
      vertex 24 -24 2.93915e-15
      vertex -24 -24 2.93915e-15
    endloop
  endfacet
  facet normal 0 -1 0
    outer loop
      vertex -24 24 -2.93915e-15
      vertex 24 24 23.2
      vertex -24 24 23.2
    endloop
  endfacet
  facet normal 0 -1 -0
    outer loop
      vertex 24 24 23.2
      vertex -24 24 -2.93915e-15
      vertex 24 24 -2.93915e-15
    endloop
  endfacet
  facet normal 0 0 -1
    outer loop
      vertex 8.78101 -5.3569 -1
      vertex 25 -25 -1
      vertex 8.80327 -5.79375 -1
    endloop
  endfacet
  facet normal 0 0 -1
    outer loop
      vertex 25 -25 -1
      vertex 8.78073 -6.23799 -1
      vertex 8.80327 -5.79375 -1
    endloop
  endfacet
  facet normal 0 0 -1
    outer loop
      vertex 25 -25 -1
      vertex 8.72025 -6.62195 -1
      vertex 8.78073 -6.23799 -1
    endloop
  endfacet
  facet normal 0 0 -1
    outer loop
      vertex 25 -25 -1
      vertex 8.7132 -6.65895 -1
      vertex 8.72025 -6.62195 -1
    endloop
  endfacet
  facet normal 0 0 -1
    outer loop
      vertex 25 -25 -1
      vertex 8.61238 -7.02022 -1
      vertex 8.7132 -6.65895 -1
    endloop
  endfacet
  facet normal 0 0 -1
    outer loop
      vertex 25 -25 -1
      vertex 8.60074 -7.05605 -1
      vertex 8.61238 -7.02022 -1
    endloop
  endfacet
  facet normal 0 0 -1
    outer loop
      vertex 25 -25 -1
      vertex 8.45959 -7.39462 -1
      vertex 8.60074 -7.05605 -1
    endloop
  endfacet
  facet normal 0 0 -1
    outer loop
      vertex 25 -25 -1
      vertex 8.44354 -7.42871 -1
      vertex 8.45959 -7.39462 -1
    endloop
  endfacet
  facet normal 0 0 -1
    outer loop
      vertex 25 -25 -1
      vertex 8.26207 -7.74458 -1
      vertex 8.44354 -7.42871 -1
    endloop
  endfacet
  facet normal 0 0 -1
    outer loop
      vertex 25 -25 -1
      vertex 8.24188 -7.7764 -1
      vertex 8.26207 -7.74458 -1
    endloop
  endfacet
  facet normal 0 0 -1
    outer loop
      vertex 25 -25 -1
      vertex 8.0201 -8.06958 -1
      vertex 8.24188 -7.7764 -1
    endloop
  endfacet
  facet normal 0 0 -1
    outer loop
      vertex 25 -25 -1
      vertex 7.99609 -8.0986 -1
      vertex 8.0201 -8.06958 -1
    endloop
  endfacet
  facet normal 0 0 -1
    outer loop
      vertex 25 -25 -1
      vertex 7.73396 -8.36909 -1
      vertex 7.99609 -8.0986 -1
    endloop
  endfacet
  facet normal 0 0 -1
    outer loop
      vertex 25 -25 -1
      vertex 7.7065 -8.39488 -1
      vertex 7.73396 -8.36909 -1
    endloop
  endfacet
  facet normal 0 0 -1
    outer loop
      vertex 25 -25 -1
      vertex 7.4035 -8.63579 -1
      vertex 7.7065 -8.39488 -1
    endloop
  endfacet
  facet normal 0 0 -1
    outer loop
      vertex 25 -25 -1
      vertex 7.37302 -8.65794 -1
      vertex 7.4035 -8.63579 -1
    endloop
  endfacet
  facet normal 0 0 -1
    outer loop
      vertex 25 -25 -1
      vertex 7.02858 -8.86177 -1
      vertex 7.37302 -8.65794 -1
    endloop
  endfacet
  facet normal 0 0 -1
    outer loop
      vertex 25 -25 -1
      vertex 6.99557 -8.87991 -1
      vertex 7.02858 -8.86177 -1
    endloop
  endfacet
  facet normal 0 0 -1
    outer loop
      vertex 25 -25 -1
      vertex 6.60973 -9.04669 -1
      vertex 6.99557 -8.87991 -1
    endloop
  endfacet
  facet normal 0 0 -1
    outer loop
      vertex 25 -25 -1
      vertex 6.57469 -9.06056 -1
      vertex 6.60973 -9.04669 -1
    endloop
  endfacet
  facet normal 0 0 -1
    outer loop
      vertex 25 -25 -1
      vertex 6.1474 -9.19028 -1
      vertex 6.57469 -9.06056 -1
    endloop
  endfacet
  facet normal 0 0 -1
    outer loop
      vertex 25 -25 -1
      vertex 6.11092 -9.19965 -1
      vertex 6.1474 -9.19028 -1
    endloop
  endfacet
  facet normal 0 0 -1
    outer loop
      vertex 25 -25 -1
      vertex 5.64221 -9.2923 -1
      vertex 6.11092 -9.19965 -1
    endloop
  endfacet
  facet normal 0 0 -1
    outer loop
      vertex 25 -25 -1
      vertex 5.09468 -9.35262 -1
      vertex 5.64221 -9.2923 -1
    endloop
  endfacet
  facet normal 0 0 -1
    outer loop
      vertex 25 -25 -1
      vertex 4.54311 -9.37115 -1
      vertex 5.09468 -9.35262 -1
    endloop
  endfacet
  facet normal 0 0 -1
    outer loop
      vertex 25 -25 -1
      vertex -4.04854 -9.37115 -1
      vertex 4.54311 -9.37115 -1
    endloop
  endfacet
  facet normal 0 0 -1
    outer loop
      vertex -25 -25 -1
      vertex -4.04854 -9.37115 -1
      vertex 25 -25 -1
    endloop
  endfacet
  facet normal -0 0 -1
    outer loop
      vertex -4.04854 -9.37115 -1
      vertex -25 -25 -1
      vertex -4.60011 -9.35262 -1
    endloop
  endfacet
  facet normal -0 0 -1
    outer loop
      vertex -4.60011 -9.35262 -1
      vertex -25 -25 -1
      vertex -5.14763 -9.2923 -1
    endloop
  endfacet
  facet normal -0 0 -1
    outer loop
      vertex -5.14763 -9.2923 -1
      vertex -25 -25 -1
      vertex -5.61635 -9.19965 -1
    endloop
  endfacet
  facet normal -0 0 -1
    outer loop
      vertex -5.61635 -9.19965 -1
      vertex -25 -25 -1
      vertex -5.65283 -9.19028 -1
    endloop
  endfacet
  facet normal -0 0 -1
    outer loop
      vertex -5.65283 -9.19028 -1
      vertex -25 -25 -1
      vertex -6.08012 -9.06056 -1
    endloop
  endfacet
  facet normal -0 0 -1
    outer loop
      vertex -6.08012 -9.06056 -1
      vertex -25 -25 -1
      vertex -6.11516 -9.04669 -1
    endloop
  endfacet
  facet normal -0 0 -1
    outer loop
      vertex -8.28616 -6.23799 -1
      vertex -25 -25 -1
      vertex -8.3087 -5.79375 -1
    endloop
  endfacet
  facet normal -0 0 -1
    outer loop
      vertex -8.22568 -6.62195 -1
      vertex -25 -25 -1
      vertex -8.28616 -6.23799 -1
    endloop
  endfacet
  facet normal -0 0 -1
    outer loop
      vertex -8.21863 -6.65895 -1
      vertex -25 -25 -1
      vertex -8.22568 -6.62195 -1
    endloop
  endfacet
  facet normal -0 0 -1
    outer loop
      vertex -8.11781 -7.02022 -1
      vertex -25 -25 -1
      vertex -8.21863 -6.65895 -1
    endloop
  endfacet
  facet normal -0 0 -1
    outer loop
      vertex -8.10617 -7.05605 -1
      vertex -25 -25 -1
      vertex -8.11781 -7.02022 -1
    endloop
  endfacet
  facet normal -0 0 -1
    outer loop
      vertex -7.96503 -7.39462 -1
      vertex -25 -25 -1
      vertex -8.10617 -7.05605 -1
    endloop
  endfacet
  facet normal -0 0 -1
    outer loop
      vertex -7.94897 -7.42871 -1
      vertex -25 -25 -1
      vertex -7.96503 -7.39462 -1
    endloop
  endfacet
  facet normal -0 0 -1
    outer loop
      vertex -7.7675 -7.74458 -1
      vertex -25 -25 -1
      vertex -7.94897 -7.42871 -1
    endloop
  endfacet
  facet normal -0 0 -1
    outer loop
      vertex -7.74731 -7.7764 -1
      vertex -25 -25 -1
      vertex -7.7675 -7.74458 -1
    endloop
  endfacet
  facet normal -0 0 -1
    outer loop
      vertex -7.52553 -8.06958 -1
      vertex -25 -25 -1
      vertex -7.74731 -7.7764 -1
    endloop
  endfacet
  facet normal -0 0 -1
    outer loop
      vertex -7.50153 -8.0986 -1
      vertex -25 -25 -1
      vertex -7.52553 -8.06958 -1
    endloop
  endfacet
  facet normal -0 0 -1
    outer loop
      vertex -7.2394 -8.36909 -1
      vertex -25 -25 -1
      vertex -7.50153 -8.0986 -1
    endloop
  endfacet
  facet normal -0 0 -1
    outer loop
      vertex -7.21193 -8.39488 -1
      vertex -25 -25 -1
      vertex -7.2394 -8.36909 -1
    endloop
  endfacet
  facet normal -0 0 -1
    outer loop
      vertex -6.90894 -8.63579 -1
      vertex -25 -25 -1
      vertex -7.21193 -8.39488 -1
    endloop
  endfacet
  facet normal -0 0 -1
    outer loop
      vertex -6.87845 -8.65794 -1
      vertex -25 -25 -1
      vertex -6.90894 -8.63579 -1
    endloop
  endfacet
  facet normal -0 0 -1
    outer loop
      vertex -6.53401 -8.86177 -1
      vertex -25 -25 -1
      vertex -6.87845 -8.65794 -1
    endloop
  endfacet
  facet normal -0 0 -1
    outer loop
      vertex -6.50101 -8.87991 -1
      vertex -25 -25 -1
      vertex -6.53401 -8.86177 -1
    endloop
  endfacet
  facet normal -0 0 -1
    outer loop
      vertex -6.11516 -9.04669 -1
      vertex -25 -25 -1
      vertex -6.50101 -8.87991 -1
    endloop
  endfacet
  facet normal 0 0 -1
    outer loop
      vertex 8.72131 -4.97917 -1
      vertex 25 -25 -1
      vertex 8.78101 -5.3569 -1
    endloop
  endfacet
  facet normal 0 0 -1
    outer loop
      vertex 25 -25 -1
      vertex 8.72131 -4.97917 -1
      vertex 25 25 -1
    endloop
  endfacet
  facet normal 0 0 -1
    outer loop
      vertex 8.71426 -4.94217 -1
      vertex 25 25 -1
      vertex 8.72131 -4.97917 -1
    endloop
  endfacet
  facet normal 0 0 -1
    outer loop
      vertex 8.61478 -4.58594 -1
      vertex 25 25 -1
      vertex 8.71426 -4.94217 -1
    endloop
  endfacet
  facet normal 0 0 -1
    outer loop
      vertex 8.60313 -4.55011 -1
      vertex 25 25 -1
      vertex 8.61478 -4.58594 -1
    endloop
  endfacet
  facet normal 0 0 -1
    outer loop
      vertex 8.46384 -4.21539 -1
      vertex 25 25 -1
      vertex 8.60313 -4.55011 -1
    endloop
  endfacet
  facet normal 0 0 -1
    outer loop
      vertex 8.44778 -4.1813 -1
      vertex 25 25 -1
      vertex 8.46384 -4.21539 -1
    endloop
  endfacet
  facet normal 0 0 -1
    outer loop
      vertex 8.26871 -3.8681 -1
      vertex 25 25 -1
      vertex 8.44778 -4.1813 -1
    endloop
  endfacet
  facet normal 0 0 -1
    outer loop
      vertex 8.24852 -3.83629 -1
      vertex 25 25 -1
      vertex 8.26871 -3.8681 -1
    endloop
  endfacet
  facet normal 0 0 -1
    outer loop
      vertex 8.02965 -3.5446 -1
      vertex 25 25 -1
      vertex 8.24852 -3.83629 -1
    endloop
  endfacet
  facet normal 0 0 -1
    outer loop
      vertex 8.00565 -3.51558 -1
      vertex 25 25 -1
      vertex 8.02965 -3.5446 -1
    endloop
  endfacet
  facet normal 0 0 -1
    outer loop
      vertex 7.74696 -3.24539 -1
      vertex 25 25 -1
      vertex 8.00565 -3.51558 -1
    endloop
  endfacet
  facet normal 0 0 -1
    outer loop
      vertex 7.7195 -3.2196 -1
      vertex 25 25 -1
      vertex 7.74696 -3.24539 -1
    endloop
  endfacet
  facet normal 0 0 -1
    outer loop
      vertex 7.41966 -2.97897 -1
      vertex 25 25 -1
      vertex 7.7195 -3.2196 -1
    endloop
  endfacet
  facet normal 0 0 -1
    outer loop
      vertex 7.38918 -2.95682 -1
      vertex 25 25 -1
      vertex 7.41966 -2.97897 -1
    endloop
  endfacet
  facet normal 0 0 -1
    outer loop
      vertex 7.04623 -2.7532 -1
      vertex 25 25 -1
      vertex 7.38918 -2.95682 -1
    endloop
  endfacet
  facet normal 0 0 -1
    outer loop
      vertex 7.01323 -2.73506 -1
      vertex 25 25 -1
      vertex 7.04623 -2.7532 -1
    endloop
  endfacet
  facet normal 0 0 -1
    outer loop
      vertex 6.6272 -2.56847 -1
      vertex 25 25 -1
      vertex 7.01323 -2.73506 -1
    endloop
  endfacet
  facet normal 0 0 -1
    outer loop
      vertex 6.59216 -2.5546 -1
      vertex 25 25 -1
      vertex 6.6272 -2.56847 -1
    endloop
  endfacet
  facet normal 0 0 -1
    outer loop
      vertex 6.16301 -2.42502 -1
      vertex 25 25 -1
      vertex 6.59216 -2.5546 -1
    endloop
  endfacet
  facet normal 0 0 -1
    outer loop
      vertex 6.12653 -2.41565 -1
      vertex 25 25 -1
      vertex 6.16301 -2.42502 -1
    endloop
  endfacet
  facet normal 0 0 -1
    outer loop
      vertex 5.65428 -2.3231 -1
      vertex 25 25 -1
      vertex 6.12653 -2.41565 -1
    endloop
  endfacet
  facet normal 0 0 -1
    outer loop
      vertex 5.10156 -2.26285 -1
      vertex 25 25 -1
      vertex 5.65428 -2.3231 -1
    endloop
  endfacet
  facet normal 0 0 -1
    outer loop
      vertex 4.54311 -2.24434 -1
      vertex 25 25 -1
      vertex 5.10156 -2.26285 -1
    endloop
  endfacet
  facet normal 0 0 -1
    outer loop
      vertex -4.04854 -2.24434 -1
      vertex 25 25 -1
      vertex 4.54311 -2.24434 -1
    endloop
  endfacet
  facet normal 0 0 -1
    outer loop
      vertex -25 25 -1
      vertex -4.04854 -2.24434 -1
      vertex -4.58633 -2.26285 -1
    endloop
  endfacet
  facet normal 0 0 -1
    outer loop
      vertex -25 25 -1
      vertex -4.58633 -2.26285 -1
      vertex -5.12338 -2.3231 -1
    endloop
  endfacet
  facet normal 0 0 -1
    outer loop
      vertex -25 25 -1
      vertex -5.12338 -2.3231 -1
      vertex -5.58495 -2.41565 -1
    endloop
  endfacet
  facet normal 0 0 -1
    outer loop
      vertex -25 25 -1
      vertex -5.58495 -2.41565 -1
      vertex -5.62143 -2.42502 -1
    endloop
  endfacet
  facet normal 0 0 -1
    outer loop
      vertex -25 25 -1
      vertex -5.62143 -2.42502 -1
      vertex -6.04486 -2.5546 -1
    endloop
  endfacet
  facet normal 0 0 -1
    outer loop
      vertex -25 25 -1
      vertex -6.04486 -2.5546 -1
      vertex -6.0799 -2.56847 -1
    endloop
  endfacet
  facet normal 0 0 -1
    outer loop
      vertex -25 25 -1
      vertex -6.0799 -2.56847 -1
      vertex -6.46519 -2.73506 -1
    endloop
  endfacet
  facet normal 0 0 -1
    outer loop
      vertex -25 25 -1
      vertex -6.46519 -2.73506 -1
      vertex -6.84538 -2.95682 -1
    endloop
  endfacet
  facet normal 0 0 -1
    outer loop
      vertex -25 25 -1
      vertex -6.84538 -2.95682 -1
      vertex -6.87587 -2.97897 -1
    endloop
  endfacet
  facet normal 0 0 -1
    outer loop
      vertex -25 25 -1
      vertex -6.87587 -2.97897 -1
      vertex -7.18494 -3.2196 -1
    endloop
  endfacet
  facet normal 0 0 -1
    outer loop
      vertex -25 -25 -1
      vertex -8.28561 -5.3569 -1
      vertex -8.3087 -5.79375 -1
    endloop
  endfacet
  facet normal 0 0 -1
    outer loop
      vertex -25 -25 -1
      vertex -8.21643 -4.94217 -1
      vertex -8.28561 -5.3569 -1
    endloop
  endfacet
  facet normal 0 0 -1
    outer loop
      vertex -25 25 -1
      vertex -8.21643 -4.94217 -1
      vertex -25 -25 -1
    endloop
  endfacet
  facet normal 0 0 -1
    outer loop
      vertex -8.21643 -4.94217 -1
      vertex -25 25 -1
      vertex -8.11285 -4.58594 -1
    endloop
  endfacet
  facet normal 0 0 -1
    outer loop
      vertex -8.11285 -4.58594 -1
      vertex -25 25 -1
      vertex -8.10121 -4.55011 -1
    endloop
  endfacet
  facet normal 0 0 -1
    outer loop
      vertex -8.10121 -4.55011 -1
      vertex -25 25 -1
      vertex -7.95621 -4.21539 -1
    endloop
  endfacet
  facet normal 0 0 -1
    outer loop
      vertex -7.95621 -4.21539 -1
      vertex -25 25 -1
      vertex -7.94016 -4.1813 -1
    endloop
  endfacet
  facet normal 0 0 -1
    outer loop
      vertex -7.94016 -4.1813 -1
      vertex -25 25 -1
      vertex -7.73354 -3.83629 -1
    endloop
  endfacet
  facet normal 0 0 -1
    outer loop
      vertex -4.04854 -2.24434 -1
      vertex -25 25 -1
      vertex 25 25 -1
    endloop
  endfacet
  facet normal 0 0 -1
    outer loop
      vertex -7.2124 -3.24539 -1
      vertex -25 25 -1
      vertex -7.18494 -3.2196 -1
    endloop
  endfacet
  facet normal 0 0 -1
    outer loop
      vertex -7.48169 -3.51558 -1
      vertex -25 25 -1
      vertex -7.2124 -3.24539 -1
    endloop
  endfacet
  facet normal 0 0 -1
    outer loop
      vertex -7.73354 -3.83629 -1
      vertex -25 25 -1
      vertex -7.48169 -3.51558 -1
    endloop
  endfacet
  facet normal 0.0343959 -0.999408 0
    outer loop
      vertex -4.58633 -2.26285 -1
      vertex -4.04854 -2.24434 2.74852e-16
      vertex -4.58633 -2.26285 2.77119e-16
    endloop
  endfacet
  facet normal 0.0343959 -0.999408 0
    outer loop
      vertex -4.04854 -2.24434 2.74852e-16
      vertex -4.58633 -2.26285 -1
      vertex -4.04854 -2.24434 -1
    endloop
  endfacet
  facet normal 0.111501 -0.993764 0
    outer loop
      vertex -5.12338 -2.3231 -1
      vertex -4.58633 -2.26285 2.77119e-16
      vertex -5.12338 -2.3231 2.84498e-16
    endloop
  endfacet
  facet normal 0.111501 -0.993764 0
    outer loop
      vertex -4.58633 -2.26285 2.77119e-16
      vertex -5.12338 -2.3231 -1
      vertex -4.58633 -2.26285 -1
    endloop
  endfacet
  facet normal 0.19659 -0.980486 0
    outer loop
      vertex -5.58495 -2.41565 -1
      vertex -5.12338 -2.3231 2.84498e-16
      vertex -5.58495 -2.41565 2.95832e-16
    endloop
  endfacet
  facet normal 0.19659 -0.980486 0
    outer loop
      vertex -5.12338 -2.3231 2.84498e-16
      vertex -5.58495 -2.41565 -1
      vertex -5.12338 -2.3231 -1
    endloop
  endfacet
  facet normal 0.248726 -0.968574 0
    outer loop
      vertex -5.62143 -2.42502 -1
      vertex -5.58495 -2.41565 2.95832e-16
      vertex -5.62143 -2.42502 2.96979e-16
    endloop
  endfacet
  facet normal 0.248726 -0.968574 0
    outer loop
      vertex -5.58495 -2.41565 2.95832e-16
      vertex -5.62143 -2.42502 -1
      vertex -5.58495 -2.41565 -1
    endloop
  endfacet
  facet normal 0.292623 -0.956228 0
    outer loop
      vertex -6.04486 -2.5546 -1
      vertex -5.62143 -2.42502 2.96979e-16
      vertex -6.04486 -2.5546 3.12848e-16
    endloop
  endfacet
  facet normal 0.292623 -0.956228 0
    outer loop
      vertex -5.62143 -2.42502 2.96979e-16
      vertex -6.04486 -2.5546 -1
      vertex -5.62143 -2.42502 -1
    endloop
  endfacet
  facet normal 0.368107 -0.929784 0
    outer loop
      vertex -6.0799 -2.56847 -1
      vertex -6.04486 -2.5546 3.12848e-16
      vertex -6.0799 -2.56847 3.14546e-16
    endloop
  endfacet
  facet normal 0.368107 -0.929784 0
    outer loop
      vertex -6.04486 -2.5546 3.12848e-16
      vertex -6.0799 -2.56847 -1
      vertex -6.04486 -2.5546 -1
    endloop
  endfacet
  facet normal 0.39687 -0.917875 0
    outer loop
      vertex -6.46519 -2.73506 -1
      vertex -6.0799 -2.56847 3.14546e-16
      vertex -6.46519 -2.73506 3.34948e-16
    endloop
  endfacet
  facet normal 0.39687 -0.917875 0
    outer loop
      vertex -6.0799 -2.56847 3.14546e-16
      vertex -6.46519 -2.73506 -1
      vertex -6.0799 -2.56847 -1
    endloop
  endfacet
  facet normal 0.503837 -0.863799 0
    outer loop
      vertex -6.84538 -2.95682 -1
      vertex -6.46519 -2.73506 3.34948e-16
      vertex -6.84538 -2.95682 3.62106e-16
    endloop
  endfacet
  facet normal 0.503837 -0.863799 0
    outer loop
      vertex -6.46519 -2.73506 3.34948e-16
      vertex -6.84538 -2.95682 -1
      vertex -6.46519 -2.73506 -1
    endloop
  endfacet
  facet normal 0.587883 -0.808946 0
    outer loop
      vertex -6.87587 -2.97897 -1
      vertex -6.84538 -2.95682 3.62106e-16
      vertex -6.87587 -2.97897 3.64819e-16
    endloop
  endfacet
  facet normal 0.587883 -0.808946 0
    outer loop
      vertex -6.84538 -2.95682 3.62106e-16
      vertex -6.87587 -2.97897 -1
      vertex -6.84538 -2.95682 -1
    endloop
  endfacet
  facet normal 0.614332 -0.789048 0
    outer loop
      vertex -7.18494 -3.2196 -1
      vertex -6.87587 -2.97897 3.64819e-16
      vertex -7.18494 -3.2196 3.94288e-16
    endloop
  endfacet
  facet normal 0.614332 -0.789048 0
    outer loop
      vertex -6.87587 -2.97897 3.64819e-16
      vertex -7.18494 -3.2196 -1
      vertex -6.87587 -2.97897 -1
    endloop
  endfacet
  facet normal 0.68448 -0.729032 0
    outer loop
      vertex -7.2124 -3.24539 -1
      vertex -7.18494 -3.2196 3.94288e-16
      vertex -7.2124 -3.24539 3.97446e-16
    endloop
  endfacet
  facet normal 0.68448 -0.729032 0
    outer loop
      vertex -7.18494 -3.2196 3.94288e-16
      vertex -7.2124 -3.24539 -1
      vertex -7.18494 -3.2196 -1
    endloop
  endfacet
  facet normal 0.708286 -0.705926 0
    outer loop
      vertex -7.48169 -3.51558 4.30534e-16
      vertex -7.2124 -3.24539 -1
      vertex -7.2124 -3.24539 3.97446e-16
    endloop
  endfacet
  facet normal 0.708286 -0.705926 0
    outer loop
      vertex -7.2124 -3.24539 -1
      vertex -7.48169 -3.51558 4.30534e-16
      vertex -7.48169 -3.51558 -1
    endloop
  endfacet
  facet normal 0.786485 -0.61761 0
    outer loop
      vertex -7.73354 -3.83629 4.6981e-16
      vertex -7.48169 -3.51558 -1
      vertex -7.48169 -3.51558 4.30534e-16
    endloop
  endfacet
  facet normal 0.786485 -0.61761 0
    outer loop
      vertex -7.48169 -3.51558 -1
      vertex -7.73354 -3.83629 4.6981e-16
      vertex -7.73354 -3.83629 -1
    endloop
  endfacet
  facet normal 0.857921 -0.513781 0
    outer loop
      vertex -7.94016 -4.1813 5.12062e-16
      vertex -7.73354 -3.83629 -1
      vertex -7.73354 -3.83629 4.6981e-16
    endloop
  endfacet
  facet normal 0.857921 -0.513781 0
    outer loop
      vertex -7.73354 -3.83629 -1
      vertex -7.94016 -4.1813 5.12062e-16
      vertex -7.94016 -4.1813 -1
    endloop
  endfacet
  facet normal 0.904709 -0.426031 0
    outer loop
      vertex -7.95621 -4.21539 5.16237e-16
      vertex -7.94016 -4.1813 -1
      vertex -7.94016 -4.1813 5.12062e-16
    endloop
  endfacet
  facet normal 0.904709 -0.426031 0
    outer loop
      vertex -7.94016 -4.1813 -1
      vertex -7.95621 -4.21539 5.16237e-16
      vertex -7.95621 -4.21539 -1
    endloop
  endfacet
  facet normal 0.917595 -0.397516 0
    outer loop
      vertex -8.10121 -4.55011 5.57228e-16
      vertex -7.95621 -4.21539 -1
      vertex -7.95621 -4.21539 5.16237e-16
    endloop
  endfacet
  facet normal 0.917595 -0.397516 0
    outer loop
      vertex -7.95621 -4.21539 -1
      vertex -8.10121 -4.55011 5.57228e-16
      vertex -8.10121 -4.55011 -1
    endloop
  endfacet
  facet normal 0.951046 -0.309049 0
    outer loop
      vertex -8.11285 -4.58594 5.61615e-16
      vertex -8.10121 -4.55011 -1
      vertex -8.10121 -4.55011 5.57228e-16
    endloop
  endfacet
  facet normal 0.951046 -0.309049 0
    outer loop
      vertex -8.10121 -4.55011 -1
      vertex -8.11285 -4.58594 5.61615e-16
      vertex -8.11285 -4.58594 -1
    endloop
  endfacet
  facet normal 0.960235 -0.279194 0
    outer loop
      vertex -8.21643 -4.94217 6.05241e-16
      vertex -8.11285 -4.58594 -1
      vertex -8.11285 -4.58594 5.61615e-16
    endloop
  endfacet
  facet normal 0.960235 -0.279194 0
    outer loop
      vertex -8.11285 -4.58594 -1
      vertex -8.21643 -4.94217 6.05241e-16
      vertex -8.21643 -4.94217 -1
    endloop
  endfacet
  facet normal 0.98637 -0.16454 0
    outer loop
      vertex -8.28561 -5.3569 6.56031e-16
      vertex -8.21643 -4.94217 -1
      vertex -8.21643 -4.94217 6.05241e-16
    endloop
  endfacet
  facet normal 0.98637 -0.16454 0
    outer loop
      vertex -8.21643 -4.94217 -1
      vertex -8.28561 -5.3569 6.56031e-16
      vertex -8.28561 -5.3569 -1
    endloop
  endfacet
  facet normal 0.998606 -0.0527749 0
    outer loop
      vertex -8.3087 -5.79375 7.09529e-16
      vertex -8.28561 -5.3569 -1
      vertex -8.28561 -5.3569 6.56031e-16
    endloop
  endfacet
  facet normal 0.998606 -0.0527749 0
    outer loop
      vertex -8.28561 -5.3569 -1
      vertex -8.3087 -5.79375 7.09529e-16
      vertex -8.3087 -5.79375 -1
    endloop
  endfacet
  facet normal 0.998716 0.0506664 0
    outer loop
      vertex -8.28616 -6.23799 7.63934e-16
      vertex -8.3087 -5.79375 -1
      vertex -8.3087 -5.79375 7.09529e-16
    endloop
  endfacet
  facet normal 0.998716 0.0506664 0
    outer loop
      vertex -8.3087 -5.79375 -1
      vertex -8.28616 -6.23799 7.63934e-16
      vertex -8.28616 -6.23799 -1
    endloop
  endfacet
  facet normal 0.987818 0.155614 0
    outer loop
      vertex -8.22568 -6.62195 8.10955e-16
      vertex -8.28616 -6.23799 -1
      vertex -8.28616 -6.23799 7.63934e-16
    endloop
  endfacet
  facet normal 0.987818 0.155614 0
    outer loop
      vertex -8.28616 -6.23799 -1
      vertex -8.22568 -6.62195 8.10955e-16
      vertex -8.22568 -6.62195 -1
    endloop
  endfacet
  facet normal 0.982331 0.187149 0
    outer loop
      vertex -8.21863 -6.65895 8.15486e-16
      vertex -8.22568 -6.62195 -1
      vertex -8.22568 -6.62195 8.10955e-16
    endloop
  endfacet
  facet normal 0.982331 0.187149 0
    outer loop
      vertex -8.22568 -6.62195 -1
      vertex -8.21863 -6.65895 8.15486e-16
      vertex -8.21863 -6.65895 -1
    endloop
  endfacet
  facet normal 0.963199 0.268789 0
    outer loop
      vertex -8.11781 -7.02022 8.59729e-16
      vertex -8.21863 -6.65895 -1
      vertex -8.21863 -6.65895 8.15486e-16
    endloop
  endfacet
  facet normal 0.963199 0.268789 0
    outer loop
      vertex -8.21863 -6.65895 -1
      vertex -8.11781 -7.02022 8.59729e-16
      vertex -8.11781 -7.02022 -1
    endloop
  endfacet
  facet normal 0.951046 0.309049 0
    outer loop
      vertex -8.10617 -7.05605 8.64116e-16
      vertex -8.11781 -7.02022 -1
      vertex -8.11781 -7.02022 8.59729e-16
    endloop
  endfacet
  facet normal 0.951046 0.309049 0
    outer loop
      vertex -8.11781 -7.02022 -1
      vertex -8.10617 -7.05605 8.64116e-16
      vertex -8.10617 -7.05605 -1
    endloop
  endfacet
  facet normal 0.923009 0.384778 0
    outer loop
      vertex -7.96503 -7.39462 9.0558e-16
      vertex -8.10617 -7.05605 -1
      vertex -8.10617 -7.05605 8.64116e-16
    endloop
  endfacet
  facet normal 0.923009 0.384778 0
    outer loop
      vertex -8.10617 -7.05605 -1
      vertex -7.96503 -7.39462 9.0558e-16
      vertex -7.96503 -7.39462 -1
    endloop
  endfacet
  facet normal 0.904709 0.426031 0
    outer loop
      vertex -7.94897 -7.42871 9.09755e-16
      vertex -7.96503 -7.39462 -1
      vertex -7.96503 -7.39462 9.0558e-16
    endloop
  endfacet
  facet normal 0.904709 0.426031 0
    outer loop
      vertex -7.96503 -7.39462 -1
      vertex -7.94897 -7.42871 9.09755e-16
      vertex -7.94897 -7.42871 -1
    endloop
  endfacet
  facet normal 0.867089 0.498154 0
    outer loop
      vertex -7.7675 -7.74458 9.48438e-16
      vertex -7.94897 -7.42871 -1
      vertex -7.94897 -7.42871 9.09755e-16
    endloop
  endfacet
  facet normal 0.867089 0.498154 0
    outer loop
      vertex -7.94897 -7.42871 -1
      vertex -7.7675 -7.74458 9.48438e-16
      vertex -7.7675 -7.74458 -1
    endloop
  endfacet
  facet normal 0.844361 0.535774 0
    outer loop
      vertex -7.74731 -7.7764 9.52334e-16
      vertex -7.7675 -7.74458 -1
      vertex -7.7675 -7.74458 9.48438e-16
    endloop
  endfacet
  facet normal 0.844361 0.535774 0
    outer loop
      vertex -7.7675 -7.74458 -1
      vertex -7.74731 -7.7764 9.52334e-16
      vertex -7.74731 -7.7764 -1
    endloop
  endfacet
  facet normal 0.797513 0.603302 0
    outer loop
      vertex -7.52553 -8.06958 9.88239e-16
      vertex -7.74731 -7.7764 -1
      vertex -7.74731 -7.7764 9.52334e-16
    endloop
  endfacet
  facet normal 0.797513 0.603302 0
    outer loop
      vertex -7.74731 -7.7764 -1
      vertex -7.52553 -8.06958 9.88239e-16
      vertex -7.52553 -8.06958 -1
    endloop
  endfacet
  facet normal 0.770607 0.637311 0
    outer loop
      vertex -7.50153 -8.0986 9.91793e-16
      vertex -7.52553 -8.06958 -1
      vertex -7.52553 -8.06958 9.88239e-16
    endloop
  endfacet
  facet normal 0.770607 0.637311 0
    outer loop
      vertex -7.52553 -8.06958 -1
      vertex -7.50153 -8.0986 9.91793e-16
      vertex -7.50153 -8.0986 -1
    endloop
  endfacet
  facet normal 0.718119 0.69592 0
    outer loop
      vertex -7.2394 -8.36909 1.02492e-15
      vertex -7.50153 -8.0986 -1
      vertex -7.50153 -8.0986 9.91793e-16
    endloop
  endfacet
  facet normal 0.718119 0.69592 0
    outer loop
      vertex -7.50153 -8.0986 -1
      vertex -7.2394 -8.36909 1.02492e-15
      vertex -7.2394 -8.36909 -1
    endloop
  endfacet
  facet normal 0.68448 0.729032 -0
    outer loop
      vertex -7.21193 -8.39488 -1
      vertex -7.2394 -8.36909 1.02492e-15
      vertex -7.21193 -8.39488 1.02808e-15
    endloop
  endfacet
  facet normal 0.68448 0.729032 0
    outer loop
      vertex -7.2394 -8.36909 1.02492e-15
      vertex -7.21193 -8.39488 -1
      vertex -7.2394 -8.36909 -1
    endloop
  endfacet
  facet normal 0.622346 0.782742 -0
    outer loop
      vertex -6.90894 -8.63579 -1
      vertex -7.21193 -8.39488 1.02808e-15
      vertex -6.90894 -8.63579 1.05758e-15
    endloop
  endfacet
  facet normal 0.622346 0.782742 0
    outer loop
      vertex -7.21193 -8.39488 1.02808e-15
      vertex -6.90894 -8.63579 -1
      vertex -7.21193 -8.39488 -1
    endloop
  endfacet
  facet normal 0.587883 0.808946 -0
    outer loop
      vertex -6.87845 -8.65794 -1
      vertex -6.90894 -8.63579 1.05758e-15
      vertex -6.87845 -8.65794 1.06029e-15
    endloop
  endfacet
  facet normal 0.587883 0.808946 0
    outer loop
      vertex -6.90894 -8.63579 1.05758e-15
      vertex -6.87845 -8.65794 -1
      vertex -6.90894 -8.63579 -1
    endloop
  endfacet
  facet normal 0.509278 0.860602 -0
    outer loop
      vertex -6.53401 -8.86177 -1
      vertex -6.87845 -8.65794 1.06029e-15
      vertex -6.53401 -8.86177 1.08525e-15
    endloop
  endfacet
  facet normal 0.509278 0.860602 0
    outer loop
      vertex -6.87845 -8.65794 1.06029e-15
      vertex -6.53401 -8.86177 -1
      vertex -6.87845 -8.65794 -1
    endloop
  endfacet
  facet normal 0.481717 0.876327 -0
    outer loop
      vertex -6.50101 -8.87991 -1
      vertex -6.53401 -8.86177 1.08525e-15
      vertex -6.50101 -8.87991 1.08748e-15
    endloop
  endfacet
  facet normal 0.481717 0.876327 0
    outer loop
      vertex -6.53401 -8.86177 1.08525e-15
      vertex -6.50101 -8.87991 -1
      vertex -6.53401 -8.86177 -1
    endloop
  endfacet
  facet normal 0.396761 0.917922 -0
    outer loop
      vertex -6.11516 -9.04669 -1
      vertex -6.50101 -8.87991 1.08748e-15
      vertex -6.11516 -9.04669 1.1079e-15
    endloop
  endfacet
  facet normal 0.396761 0.917922 0
    outer loop
      vertex -6.50101 -8.87991 1.08748e-15
      vertex -6.11516 -9.04669 -1
      vertex -6.50101 -8.87991 -1
    endloop
  endfacet
  facet normal 0.368107 0.929784 -0
    outer loop
      vertex -6.08012 -9.06056 -1
      vertex -6.11516 -9.04669 1.1079e-15
      vertex -6.08012 -9.06056 1.1096e-15
    endloop
  endfacet
  facet normal 0.368107 0.929784 0
    outer loop
      vertex -6.11516 -9.04669 1.1079e-15
      vertex -6.08012 -9.06056 -1
      vertex -6.11516 -9.04669 -1
    endloop
  endfacet
  facet normal 0.290484 0.95688 -0
    outer loop
      vertex -5.65283 -9.19028 -1
      vertex -6.08012 -9.06056 1.1096e-15
      vertex -5.65283 -9.19028 1.12548e-15
    endloop
  endfacet
  facet normal 0.290484 0.95688 0
    outer loop
      vertex -6.08012 -9.06056 1.1096e-15
      vertex -5.65283 -9.19028 -1
      vertex -6.08012 -9.06056 -1
    endloop
  endfacet
  facet normal 0.248726 0.968574 -0
    outer loop
      vertex -5.61635 -9.19965 -1
      vertex -5.65283 -9.19028 1.12548e-15
      vertex -5.61635 -9.19965 1.12663e-15
    endloop
  endfacet
  facet normal 0.248726 0.968574 0
    outer loop
      vertex -5.65283 -9.19028 1.12548e-15
      vertex -5.61635 -9.19965 -1
      vertex -5.65283 -9.19028 -1
    endloop
  endfacet
  facet normal 0.193917 0.981018 -0
    outer loop
      vertex -5.14763 -9.2923 -1
      vertex -5.61635 -9.19965 1.12663e-15
      vertex -5.14763 -9.2923 1.13798e-15
    endloop
  endfacet
  facet normal 0.193917 0.981018 0
    outer loop
      vertex -5.61635 -9.19965 1.12663e-15
      vertex -5.14763 -9.2923 -1
      vertex -5.61635 -9.19965 -1
    endloop
  endfacet
  facet normal 0.109504 0.993986 -0
    outer loop
      vertex -4.60011 -9.35262 -1
      vertex -5.14763 -9.2923 1.13798e-15
      vertex -4.60011 -9.35262 1.14537e-15
    endloop
  endfacet
  facet normal 0.109504 0.993986 0
    outer loop
      vertex -5.14763 -9.2923 1.13798e-15
      vertex -4.60011 -9.35262 -1
      vertex -5.14763 -9.2923 -1
    endloop
  endfacet
  facet normal 0.0335928 0.999436 -0
    outer loop
      vertex -4.04854 -9.37115 -1
      vertex -4.60011 -9.35262 1.14537e-15
      vertex -4.04854 -9.37115 1.14764e-15
    endloop
  endfacet
  facet normal 0.0335928 0.999436 0
    outer loop
      vertex -4.60011 -9.35262 1.14537e-15
      vertex -4.04854 -9.37115 -1
      vertex -4.60011 -9.35262 -1
    endloop
  endfacet
  facet normal 0 1 -0
    outer loop
      vertex 4.54311 -9.37115 -1
      vertex -4.04854 -9.37115 1.14764e-15
      vertex 4.54311 -9.37115 1.14764e-15
    endloop
  endfacet
  facet normal 0 1 0
    outer loop
      vertex -4.04854 -9.37115 1.14764e-15
      vertex 4.54311 -9.37115 -1
      vertex -4.04854 -9.37115 -1
    endloop
  endfacet
  facet normal -0.0335928 0.999436 0
    outer loop
      vertex 5.09468 -9.35262 -1
      vertex 4.54311 -9.37115 1.14764e-15
      vertex 5.09468 -9.35262 1.14537e-15
    endloop
  endfacet
  facet normal -0.0335928 0.999436 0
    outer loop
      vertex 4.54311 -9.37115 1.14764e-15
      vertex 5.09468 -9.35262 -1
      vertex 4.54311 -9.37115 -1
    endloop
  endfacet
  facet normal -0.109501 0.993987 0
    outer loop
      vertex 5.64221 -9.2923 -1
      vertex 5.09468 -9.35262 1.14537e-15
      vertex 5.64221 -9.2923 1.13798e-15
    endloop
  endfacet
  facet normal -0.109501 0.993987 0
    outer loop
      vertex 5.09468 -9.35262 1.14537e-15
      vertex 5.64221 -9.2923 -1
      vertex 5.09468 -9.35262 -1
    endloop
  endfacet
  facet normal -0.193923 0.981017 0
    outer loop
      vertex 6.11092 -9.19965 -1
      vertex 5.64221 -9.2923 1.13798e-15
      vertex 6.11092 -9.19965 1.12663e-15
    endloop
  endfacet
  facet normal -0.193923 0.981017 0
    outer loop
      vertex 5.64221 -9.2923 1.13798e-15
      vertex 6.11092 -9.19965 -1
      vertex 5.64221 -9.2923 -1
    endloop
  endfacet
  facet normal -0.248726 0.968574 0
    outer loop
      vertex 6.1474 -9.19028 -1
      vertex 6.11092 -9.19965 1.12663e-15
      vertex 6.1474 -9.19028 1.12548e-15
    endloop
  endfacet
  facet normal -0.248726 0.968574 0
    outer loop
      vertex 6.11092 -9.19965 1.12663e-15
      vertex 6.1474 -9.19028 -1
      vertex 6.11092 -9.19965 -1
    endloop
  endfacet
  facet normal -0.290484 0.95688 0
    outer loop
      vertex 6.57469 -9.06056 -1
      vertex 6.1474 -9.19028 1.12548e-15
      vertex 6.57469 -9.06056 1.1096e-15
    endloop
  endfacet
  facet normal -0.290484 0.95688 0
    outer loop
      vertex 6.1474 -9.19028 1.12548e-15
      vertex 6.57469 -9.06056 -1
      vertex 6.1474 -9.19028 -1
    endloop
  endfacet
  facet normal -0.368107 0.929784 0
    outer loop
      vertex 6.60973 -9.04669 -1
      vertex 6.57469 -9.06056 1.1096e-15
      vertex 6.60973 -9.04669 1.1079e-15
    endloop
  endfacet
  facet normal -0.368107 0.929784 0
    outer loop
      vertex 6.57469 -9.06056 1.1096e-15
      vertex 6.60973 -9.04669 -1
      vertex 6.57469 -9.06056 -1
    endloop
  endfacet
  facet normal -0.396761 0.917922 0
    outer loop
      vertex 6.99557 -8.87991 -1
      vertex 6.60973 -9.04669 1.1079e-15
      vertex 6.99557 -8.87991 1.08748e-15
    endloop
  endfacet
  facet normal -0.396761 0.917922 0
    outer loop
      vertex 6.60973 -9.04669 1.1079e-15
      vertex 6.99557 -8.87991 -1
      vertex 6.60973 -9.04669 -1
    endloop
  endfacet
  facet normal -0.481717 0.876327 0
    outer loop
      vertex 7.02858 -8.86177 -1
      vertex 6.99557 -8.87991 1.08748e-15
      vertex 7.02858 -8.86177 1.08525e-15
    endloop
  endfacet
  facet normal -0.481717 0.876327 0
    outer loop
      vertex 6.99557 -8.87991 1.08748e-15
      vertex 7.02858 -8.86177 -1
      vertex 6.99557 -8.87991 -1
    endloop
  endfacet
  facet normal -0.509278 0.860602 0
    outer loop
      vertex 7.37302 -8.65794 -1
      vertex 7.02858 -8.86177 1.08525e-15
      vertex 7.37302 -8.65794 1.06029e-15
    endloop
  endfacet
  facet normal -0.509278 0.860602 0
    outer loop
      vertex 7.02858 -8.86177 1.08525e-15
      vertex 7.37302 -8.65794 -1
      vertex 7.02858 -8.86177 -1
    endloop
  endfacet
  facet normal -0.587883 0.808946 0
    outer loop
      vertex 7.4035 -8.63579 -1
      vertex 7.37302 -8.65794 1.06029e-15
      vertex 7.4035 -8.63579 1.05758e-15
    endloop
  endfacet
  facet normal -0.587883 0.808946 0
    outer loop
      vertex 7.37302 -8.65794 1.06029e-15
      vertex 7.4035 -8.63579 -1
      vertex 7.37302 -8.65794 -1
    endloop
  endfacet
  facet normal -0.622346 0.782742 0
    outer loop
      vertex 7.7065 -8.39488 -1
      vertex 7.4035 -8.63579 1.05758e-15
      vertex 7.7065 -8.39488 1.02808e-15
    endloop
  endfacet
  facet normal -0.622346 0.782742 0
    outer loop
      vertex 7.4035 -8.63579 1.05758e-15
      vertex 7.7065 -8.39488 -1
      vertex 7.4035 -8.63579 -1
    endloop
  endfacet
  facet normal -0.68448 0.729032 0
    outer loop
      vertex 7.73396 -8.36909 -1
      vertex 7.7065 -8.39488 1.02808e-15
      vertex 7.73396 -8.36909 1.02492e-15
    endloop
  endfacet
  facet normal -0.68448 0.729032 0
    outer loop
      vertex 7.7065 -8.39488 1.02808e-15
      vertex 7.73396 -8.36909 -1
      vertex 7.7065 -8.39488 -1
    endloop
  endfacet
  facet normal -0.718119 0.69592 0
    outer loop
      vertex 7.73396 -8.36909 -1
      vertex 7.99609 -8.0986 9.91793e-16
      vertex 7.99609 -8.0986 -1
    endloop
  endfacet
  facet normal -0.718119 0.69592 0
    outer loop
      vertex 7.99609 -8.0986 9.91793e-16
      vertex 7.73396 -8.36909 -1
      vertex 7.73396 -8.36909 1.02492e-15
    endloop
  endfacet
  facet normal -0.770607 0.637311 0
    outer loop
      vertex 7.99609 -8.0986 -1
      vertex 8.0201 -8.06958 9.88239e-16
      vertex 8.0201 -8.06958 -1
    endloop
  endfacet
  facet normal -0.770607 0.637311 0
    outer loop
      vertex 8.0201 -8.06958 9.88239e-16
      vertex 7.99609 -8.0986 -1
      vertex 7.99609 -8.0986 9.91793e-16
    endloop
  endfacet
  facet normal -0.797513 0.603302 0
    outer loop
      vertex 8.0201 -8.06958 -1
      vertex 8.24188 -7.7764 9.52334e-16
      vertex 8.24188 -7.7764 -1
    endloop
  endfacet
  facet normal -0.797513 0.603302 0
    outer loop
      vertex 8.24188 -7.7764 9.52334e-16
      vertex 8.0201 -8.06958 -1
      vertex 8.0201 -8.06958 9.88239e-16
    endloop
  endfacet
  facet normal -0.844361 0.535774 0
    outer loop
      vertex 8.24188 -7.7764 -1
      vertex 8.26207 -7.74458 9.48438e-16
      vertex 8.26207 -7.74458 -1
    endloop
  endfacet
  facet normal -0.844361 0.535774 0
    outer loop
      vertex 8.26207 -7.74458 9.48438e-16
      vertex 8.24188 -7.7764 -1
      vertex 8.24188 -7.7764 9.52334e-16
    endloop
  endfacet
  facet normal -0.867089 0.498154 0
    outer loop
      vertex 8.26207 -7.74458 -1
      vertex 8.44354 -7.42871 9.09755e-16
      vertex 8.44354 -7.42871 -1
    endloop
  endfacet
  facet normal -0.867089 0.498154 0
    outer loop
      vertex 8.44354 -7.42871 9.09755e-16
      vertex 8.26207 -7.74458 -1
      vertex 8.26207 -7.74458 9.48438e-16
    endloop
  endfacet
  facet normal -0.904709 0.426031 0
    outer loop
      vertex 8.44354 -7.42871 -1
      vertex 8.45959 -7.39462 9.0558e-16
      vertex 8.45959 -7.39462 -1
    endloop
  endfacet
  facet normal -0.904709 0.426031 0
    outer loop
      vertex 8.45959 -7.39462 9.0558e-16
      vertex 8.44354 -7.42871 -1
      vertex 8.44354 -7.42871 9.09755e-16
    endloop
  endfacet
  facet normal -0.923009 0.384778 0
    outer loop
      vertex 8.45959 -7.39462 -1
      vertex 8.60074 -7.05605 8.64116e-16
      vertex 8.60074 -7.05605 -1
    endloop
  endfacet
  facet normal -0.923009 0.384778 0
    outer loop
      vertex 8.60074 -7.05605 8.64116e-16
      vertex 8.45959 -7.39462 -1
      vertex 8.45959 -7.39462 9.0558e-16
    endloop
  endfacet
  facet normal -0.951046 0.309049 0
    outer loop
      vertex 8.60074 -7.05605 -1
      vertex 8.61238 -7.02022 8.59729e-16
      vertex 8.61238 -7.02022 -1
    endloop
  endfacet
  facet normal -0.951046 0.309049 0
    outer loop
      vertex 8.61238 -7.02022 8.59729e-16
      vertex 8.60074 -7.05605 -1
      vertex 8.60074 -7.05605 8.64116e-16
    endloop
  endfacet
  facet normal -0.963199 0.268789 0
    outer loop
      vertex 8.61238 -7.02022 -1
      vertex 8.7132 -6.65895 8.15486e-16
      vertex 8.7132 -6.65895 -1
    endloop
  endfacet
  facet normal -0.963199 0.268789 0
    outer loop
      vertex 8.7132 -6.65895 8.15486e-16
      vertex 8.61238 -7.02022 -1
      vertex 8.61238 -7.02022 8.59729e-16
    endloop
  endfacet
  facet normal -0.982331 0.187149 0
    outer loop
      vertex 8.7132 -6.65895 -1
      vertex 8.72025 -6.62195 8.10955e-16
      vertex 8.72025 -6.62195 -1
    endloop
  endfacet
  facet normal -0.982331 0.187149 0
    outer loop
      vertex 8.72025 -6.62195 8.10955e-16
      vertex 8.7132 -6.65895 -1
      vertex 8.7132 -6.65895 8.15486e-16
    endloop
  endfacet
  facet normal -0.987818 0.155614 0
    outer loop
      vertex 8.72025 -6.62195 -1
      vertex 8.78073 -6.23799 7.63934e-16
      vertex 8.78073 -6.23799 -1
    endloop
  endfacet
  facet normal -0.987818 0.155614 0
    outer loop
      vertex 8.78073 -6.23799 7.63934e-16
      vertex 8.72025 -6.62195 -1
      vertex 8.72025 -6.62195 8.10955e-16
    endloop
  endfacet
  facet normal -0.998716 0.0506664 0
    outer loop
      vertex 8.78073 -6.23799 -1
      vertex 8.80327 -5.79375 7.09529e-16
      vertex 8.80327 -5.79375 -1
    endloop
  endfacet
  facet normal -0.998716 0.0506664 0
    outer loop
      vertex 8.80327 -5.79375 7.09529e-16
      vertex 8.78073 -6.23799 -1
      vertex 8.78073 -6.23799 7.63934e-16
    endloop
  endfacet
  facet normal -0.998704 -0.0508963 0
    outer loop
      vertex 8.80327 -5.79375 -1
      vertex 8.78101 -5.3569 6.56031e-16
      vertex 8.78101 -5.3569 -1
    endloop
  endfacet
  facet normal -0.998704 -0.0508963 0
    outer loop
      vertex 8.78101 -5.3569 6.56031e-16
      vertex 8.80327 -5.79375 -1
      vertex 8.80327 -5.79375 7.09529e-16
    endloop
  endfacet
  facet normal -0.987743 -0.156092 0
    outer loop
      vertex 8.78101 -5.3569 -1
      vertex 8.72131 -4.97917 6.09773e-16
      vertex 8.72131 -4.97917 -1
    endloop
  endfacet
  facet normal -0.987743 -0.156092 0
    outer loop
      vertex 8.72131 -4.97917 6.09773e-16
      vertex 8.78101 -5.3569 -1
      vertex 8.78101 -5.3569 6.56031e-16
    endloop
  endfacet
  facet normal -0.982331 -0.187149 0
    outer loop
      vertex 8.72131 -4.97917 -1
      vertex 8.71426 -4.94217 6.05241e-16
      vertex 8.71426 -4.94217 -1
    endloop
  endfacet
  facet normal -0.982331 -0.187149 0
    outer loop
      vertex 8.71426 -4.94217 6.05241e-16
      vertex 8.72131 -4.97917 -1
      vertex 8.72131 -4.97917 6.09773e-16
    endloop
  endfacet
  facet normal -0.963145 -0.268984 0
    outer loop
      vertex 8.71426 -4.94217 -1
      vertex 8.61478 -4.58594 5.61615e-16
      vertex 8.61478 -4.58594 -1
    endloop
  endfacet
  facet normal -0.963145 -0.268984 0
    outer loop
      vertex 8.61478 -4.58594 5.61615e-16
      vertex 8.71426 -4.94217 -1
      vertex 8.71426 -4.94217 6.05241e-16
    endloop
  endfacet
  facet normal -0.951046 -0.309049 0
    outer loop
      vertex 8.61478 -4.58594 -1
      vertex 8.60313 -4.55011 5.57228e-16
      vertex 8.60313 -4.55011 -1
    endloop
  endfacet
  facet normal -0.951046 -0.309049 0
    outer loop
      vertex 8.60313 -4.55011 5.57228e-16
      vertex 8.61478 -4.58594 -1
      vertex 8.61478 -4.58594 5.61615e-16
    endloop
  endfacet
  facet normal -0.923241 -0.384221 0
    outer loop
      vertex 8.60313 -4.55011 -1
      vertex 8.46384 -4.21539 5.16237e-16
      vertex 8.46384 -4.21539 -1
    endloop
  endfacet
  facet normal -0.923241 -0.384221 0
    outer loop
      vertex 8.46384 -4.21539 5.16237e-16
      vertex 8.60313 -4.55011 -1
      vertex 8.60313 -4.55011 5.57228e-16
    endloop
  endfacet
  facet normal -0.904709 -0.426031 0
    outer loop
      vertex 8.46384 -4.21539 -1
      vertex 8.44778 -4.1813 5.12062e-16
      vertex 8.44778 -4.1813 -1
    endloop
  endfacet
  facet normal -0.904709 -0.426031 0
    outer loop
      vertex 8.44778 -4.1813 5.12062e-16
      vertex 8.46384 -4.21539 -1
      vertex 8.46384 -4.21539 5.16237e-16
    endloop
  endfacet
  facet normal -0.868118 -0.496358 0
    outer loop
      vertex 8.44778 -4.1813 -1
      vertex 8.26871 -3.8681 4.73706e-16
      vertex 8.26871 -3.8681 -1
    endloop
  endfacet
  facet normal -0.868118 -0.496358 0
    outer loop
      vertex 8.26871 -3.8681 4.73706e-16
      vertex 8.44778 -4.1813 -1
      vertex 8.44778 -4.1813 5.12062e-16
    endloop
  endfacet
  facet normal -0.844361 -0.535774 0
    outer loop
      vertex 8.26871 -3.8681 -1
      vertex 8.24852 -3.83629 4.6981e-16
      vertex 8.24852 -3.83629 -1
    endloop
  endfacet
  facet normal -0.844361 -0.535774 0
    outer loop
      vertex 8.24852 -3.83629 4.6981e-16
      vertex 8.26871 -3.8681 -1
      vertex 8.26871 -3.8681 4.73706e-16
    endloop
  endfacet
  facet normal -0.799859 -0.600187 0
    outer loop
      vertex 8.24852 -3.83629 -1
      vertex 8.02965 -3.5446 4.34088e-16
      vertex 8.02965 -3.5446 -1
    endloop
  endfacet
  facet normal -0.799859 -0.600187 0
    outer loop
      vertex 8.02965 -3.5446 4.34088e-16
      vertex 8.24852 -3.83629 -1
      vertex 8.24852 -3.83629 4.6981e-16
    endloop
  endfacet
  facet normal -0.770607 -0.637311 0
    outer loop
      vertex 8.02965 -3.5446 -1
      vertex 8.00565 -3.51558 4.30534e-16
      vertex 8.00565 -3.51558 -1
    endloop
  endfacet
  facet normal -0.770607 -0.637311 0
    outer loop
      vertex 8.00565 -3.51558 4.30534e-16
      vertex 8.02965 -3.5446 -1
      vertex 8.02965 -3.5446 4.34088e-16
    endloop
  endfacet
  facet normal -0.722318 -0.691561 0
    outer loop
      vertex 8.00565 -3.51558 -1
      vertex 7.74696 -3.24539 3.97446e-16
      vertex 7.74696 -3.24539 -1
    endloop
  endfacet
  facet normal -0.722318 -0.691561 0
    outer loop
      vertex 7.74696 -3.24539 3.97446e-16
      vertex 8.00565 -3.51558 -1
      vertex 8.00565 -3.51558 4.30534e-16
    endloop
  endfacet
  facet normal -0.68448 -0.729032 0
    outer loop
      vertex 7.7195 -3.2196 -1
      vertex 7.74696 -3.24539 3.97446e-16
      vertex 7.7195 -3.2196 3.94288e-16
    endloop
  endfacet
  facet normal -0.68448 -0.729032 -0
    outer loop
      vertex 7.74696 -3.24539 3.97446e-16
      vertex 7.7195 -3.2196 -1
      vertex 7.74696 -3.24539 -1
    endloop
  endfacet
  facet normal -0.625904 -0.7799 0
    outer loop
      vertex 7.41966 -2.97897 -1
      vertex 7.7195 -3.2196 3.94288e-16
      vertex 7.41966 -2.97897 3.64819e-16
    endloop
  endfacet
  facet normal -0.625904 -0.7799 -0
    outer loop
      vertex 7.7195 -3.2196 3.94288e-16
      vertex 7.41966 -2.97897 -1
      vertex 7.7195 -3.2196 -1
    endloop
  endfacet
  facet normal -0.587883 -0.808946 0
    outer loop
      vertex 7.38918 -2.95682 -1
      vertex 7.41966 -2.97897 3.64819e-16
      vertex 7.38918 -2.95682 3.62106e-16
    endloop
  endfacet
  facet normal -0.587883 -0.808946 -0
    outer loop
      vertex 7.41966 -2.97897 3.64819e-16
      vertex 7.38918 -2.95682 -1
      vertex 7.41966 -2.97897 -1
    endloop
  endfacet
  facet normal -0.510524 -0.859864 0
    outer loop
      vertex 7.04623 -2.7532 -1
      vertex 7.38918 -2.95682 3.62106e-16
      vertex 7.04623 -2.7532 3.3717e-16
    endloop
  endfacet
  facet normal -0.510524 -0.859864 -0
    outer loop
      vertex 7.38918 -2.95682 3.62106e-16
      vertex 7.04623 -2.7532 -1
      vertex 7.38918 -2.95682 -1
    endloop
  endfacet
  facet normal -0.481717 -0.876327 0
    outer loop
      vertex 7.01323 -2.73506 -1
      vertex 7.04623 -2.7532 3.3717e-16
      vertex 7.01323 -2.73506 3.34948e-16
    endloop
  endfacet
  facet normal -0.481717 -0.876327 -0
    outer loop
      vertex 7.04623 -2.7532 3.3717e-16
      vertex 7.01323 -2.73506 -1
      vertex 7.04623 -2.7532 -1
    endloop
  endfacet
  facet normal -0.396235 -0.918149 0
    outer loop
      vertex 6.6272 -2.56847 -1
      vertex 7.01323 -2.73506 3.34948e-16
      vertex 6.6272 -2.56847 3.14546e-16
    endloop
  endfacet
  facet normal -0.396235 -0.918149 -0
    outer loop
      vertex 7.01323 -2.73506 3.34948e-16
      vertex 6.6272 -2.56847 -1
      vertex 7.01323 -2.73506 -1
    endloop
  endfacet
  facet normal -0.368107 -0.929784 0
    outer loop
      vertex 6.59216 -2.5546 -1
      vertex 6.6272 -2.56847 3.14546e-16
      vertex 6.59216 -2.5546 3.12848e-16
    endloop
  endfacet
  facet normal -0.368107 -0.929784 -0
    outer loop
      vertex 6.6272 -2.56847 3.14546e-16
      vertex 6.59216 -2.5546 -1
      vertex 6.6272 -2.56847 -1
    endloop
  endfacet
  facet normal -0.289049 -0.957314 0
    outer loop
      vertex 6.16301 -2.42502 -1
      vertex 6.59216 -2.5546 3.12848e-16
      vertex 6.16301 -2.42502 2.96979e-16
    endloop
  endfacet
  facet normal -0.289049 -0.957314 -0
    outer loop
      vertex 6.59216 -2.5546 3.12848e-16
      vertex 6.16301 -2.42502 -1
      vertex 6.59216 -2.5546 -1
    endloop
  endfacet
  facet normal -0.248726 -0.968574 0
    outer loop
      vertex 6.12653 -2.41565 -1
      vertex 6.16301 -2.42502 2.96979e-16
      vertex 6.12653 -2.41565 2.95832e-16
    endloop
  endfacet
  facet normal -0.248726 -0.968574 -0
    outer loop
      vertex 6.16301 -2.42502 2.96979e-16
      vertex 6.12653 -2.41565 -1
      vertex 6.16301 -2.42502 -1
    endloop
  endfacet
  facet normal -0.19231 -0.981334 0
    outer loop
      vertex 5.65428 -2.3231 -1
      vertex 6.12653 -2.41565 2.95832e-16
      vertex 5.65428 -2.3231 2.84498e-16
    endloop
  endfacet
  facet normal -0.19231 -0.981334 -0
    outer loop
      vertex 6.12653 -2.41565 2.95832e-16
      vertex 5.65428 -2.3231 -1
      vertex 6.12653 -2.41565 -1
    endloop
  endfacet
  facet normal -0.108377 -0.99411 0
    outer loop
      vertex 5.10156 -2.26285 -1
      vertex 5.65428 -2.3231 2.84498e-16
      vertex 5.10156 -2.26285 2.77119e-16
    endloop
  endfacet
  facet normal -0.108377 -0.99411 -0
    outer loop
      vertex 5.65428 -2.3231 2.84498e-16
      vertex 5.10156 -2.26285 -1
      vertex 5.65428 -2.3231 -1
    endloop
  endfacet
  facet normal -0.0331248 -0.999451 0
    outer loop
      vertex 4.54311 -2.24434 -1
      vertex 5.10156 -2.26285 2.77119e-16
      vertex 4.54311 -2.24434 2.74852e-16
    endloop
  endfacet
  facet normal -0.0331248 -0.999451 -0
    outer loop
      vertex 5.10156 -2.26285 2.77119e-16
      vertex 4.54311 -2.24434 -1
      vertex 5.10156 -2.26285 -1
    endloop
  endfacet
  facet normal 0 -1 0
    outer loop
      vertex -4.04854 -2.24434 -1
      vertex 4.54311 -2.24434 2.74852e-16
      vertex -4.04854 -2.24434 2.74852e-16
    endloop
  endfacet
  facet normal 0 -1 -0
    outer loop
      vertex 4.54311 -2.24434 2.74852e-16
      vertex -4.04854 -2.24434 -1
      vertex 4.54311 -2.24434 -1
    endloop
  endfacet
  facet normal -3.8147e-08 3.8147e-08 1
    outer loop
      vertex 25 25 23.2
      vertex 24 24 23.2
      vertex 25 -25 23.2
    endloop
  endfacet
  facet normal 0 0 1
    outer loop
      vertex 25 25 23.2
      vertex -24 24 23.2
      vertex 24 24 23.2
    endloop
  endfacet
  facet normal 3.97364e-08 3.97364e-08 1
    outer loop
      vertex -24 24 23.2
      vertex -25 25 23.2
      vertex -24 -24 23.2
    endloop
  endfacet
  facet normal -0 0 1
    outer loop
      vertex -25 25 23.2
      vertex -24 24 23.2
      vertex 25 25 23.2
    endloop
  endfacet
  facet normal 3.97364e-08 3.97364e-08 1
    outer loop
      vertex 24 -24 23.2
      vertex 25 -25 23.2
      vertex 24 24 23.2
    endloop
  endfacet
  facet normal -0 0 1
    outer loop
      vertex -24 -24 23.2
      vertex 25 -25 23.2
      vertex 24 -24 23.2
    endloop
  endfacet
  facet normal 0 0 1
    outer loop
      vertex -24 -24 23.2
      vertex -25 -25 23.2
      vertex 25 -25 23.2
    endloop
  endfacet
  facet normal -3.8147e-08 3.8147e-08 1
    outer loop
      vertex -25 -25 23.2
      vertex -24 -24 23.2
      vertex -25 25 23.2
    endloop
  endfacet
endsolid OpenSCAD_Model
