solid OpenSCAD_Model
  facet normal -1 0 0
    outer loop
      vertex -25 -25 -1
      vertex -25 25 23.2
      vertex -25 25 -1
    endloop
  endfacet
  facet normal -1 -0 0
    outer loop
      vertex -25 25 23.2
      vertex -25 -25 -1
      vertex -25 -25 23.2
    endloop
  endfacet
  facet normal -2.80647e-22 1.22465e-16 1
    outer loop
      vertex 16.4875 16.0085 -1.96048e-15
      vertex 24 24 -2.93915e-15
      vertex 16.5112 16.449 -2.01442e-15
    endloop
  endfacet
  facet normal 2.10881e-22 1.22464e-16 1
    outer loop
      vertex 24 24 -2.93915e-15
      vertex 16.4878 16.896 -2.06917e-15
      vertex 16.5112 16.449 -2.01442e-15
    endloop
  endfacet
  facet normal -5.26231e-23 1.22465e-16 1
    outer loop
      vertex 24 24 -2.93915e-15
      vertex 16.4176 17.3197 -2.12105e-15
      vertex 16.4878 16.896 -2.06917e-15
    endloop
  endfacet
  facet normal -8.78612e-23 1.22465e-16 1
    outer loop
      vertex 24 24 -2.93915e-15
      vertex 16.3124 17.6835 -2.1656e-15
      vertex 16.4176 17.3197 -2.12105e-15
    endloop
  endfacet
  facet normal -2.00925e-22 1.22465e-16 1
    outer loop
      vertex 24 24 -2.93915e-15
      vertex 16.3008 17.7193 -2.16999e-15
      vertex 16.3124 17.6835 -2.1656e-15
    endloop
  endfacet
  facet normal 4.81518e-23 1.22465e-16 1
    outer loop
      vertex 24 24 -2.93915e-15
      vertex 16.1535 18.0603 -2.21175e-15
      vertex 16.3008 17.7193 -2.16999e-15
    endloop
  endfacet
  facet normal -1.5952e-22 1.22465e-16 1
    outer loop
      vertex 24 24 -2.93915e-15
      vertex 16.1374 18.0944 -2.21593e-15
      vertex 16.1535 18.0603 -2.21175e-15
    endloop
  endfacet
  facet normal -7.23393e-23 1.22465e-16 1
    outer loop
      vertex 24 24 -2.93915e-15
      vertex 15.9279 18.4444 -2.25879e-15
      vertex 16.1374 18.0944 -2.21593e-15
    endloop
  endfacet
  facet normal 1.56462e-23 1.22465e-16 1
    outer loop
      vertex 24 24 -2.93915e-15
      vertex 15.6724 18.7688 -2.29851e-15
      vertex 15.9279 18.4444 -2.25879e-15
    endloop
  endfacet
  facet normal 1.12595e-22 1.22464e-16 1
    outer loop
      vertex 24 24 -2.93915e-15
      vertex 15.3989 19.0414 -2.33189e-15
      vertex 15.6724 18.7688 -2.29851e-15
    endloop
  endfacet
  facet normal -1.69586e-21 1.22468e-16 1
    outer loop
      vertex 24 24 -2.93915e-15
      vertex 15.3714 19.0671 -2.33505e-15
      vertex 15.3989 19.0414 -2.33189e-15
    endloop
  endfacet
  facet normal 7.44123e-23 1.22465e-16 1
    outer loop
      vertex 24 24 -2.93915e-15
      vertex 15.0578 19.3096 -2.36475e-15
      vertex 15.3714 19.0671 -2.33505e-15
    endloop
  endfacet
  facet normal 5.44723e-22 1.22464e-16 1
    outer loop
      vertex 24 24 -2.93915e-15
      vertex 15.0273 19.3318 -2.36746e-15
      vertex 15.0578 19.3096 -2.36475e-15
    endloop
  endfacet
  facet normal -1.24029e-22 1.22465e-16 1
    outer loop
      vertex 24 24 -2.93915e-15
      vertex 14.6418 19.5551 -2.39481e-15
      vertex 15.0273 19.3318 -2.36746e-15
    endloop
  endfacet
  facet normal 1.87068e-22 1.22464e-16 1
    outer loop
      vertex 24 24 -2.93915e-15
      vertex 14.2156 19.7368 -2.41707e-15
      vertex 14.6418 19.5551 -2.39481e-15
    endloop
  endfacet
  facet normal -1.92495e-22 1.22465e-16 1
    outer loop
      vertex 24 24 -2.93915e-15
      vertex 13.7856 19.8674 -2.43306e-15
      vertex 14.2156 19.7368 -2.41707e-15
    endloop
  endfacet
  facet normal 8.80427e-22 1.22462e-16 1
    outer loop
      vertex 24 24 -2.93915e-15
      vertex 13.7491 19.8768 -2.4342e-15
      vertex 13.7856 19.8674 -2.43306e-15
    endloop
  endfacet
  facet normal 6.75681e-23 1.22464e-16 1
    outer loop
      vertex 24 24 -2.93915e-15
      vertex 13.2803 19.9701 -2.44563e-15
      vertex 13.7491 19.8768 -2.4342e-15
    endloop
  endfacet
  facet normal 2.26931e-23 1.22465e-16 1
    outer loop
      vertex 24 24 -2.93915e-15
      vertex 12.7354 20.0307 -2.45306e-15
      vertex 13.2803 19.9701 -2.44563e-15
    endloop
  endfacet
  facet normal -2.20523e-22 1.22465e-16 1
    outer loop
      vertex 24 24 -2.93915e-15
      vertex 12.189 20.0494 -2.45534e-15
      vertex 12.7354 20.0307 -2.45306e-15
    endloop
  endfacet
  facet normal 0 1.22465e-16 1
    outer loop
      vertex 24 24 -2.93915e-15
      vertex -7.30061 20.0494 -2.45534e-15
      vertex 12.189 20.0494 -2.45534e-15
    endloop
  endfacet
  facet normal -0 1.22465e-16 1
    outer loop
      vertex -24 24 -2.93915e-15
      vertex -7.30061 20.0494 -2.45534e-15
      vertex 24 24 -2.93915e-15
    endloop
  endfacet
  facet normal -5.97124e-23 1.22464e-16 1
    outer loop
      vertex -7.30061 20.0494 -2.45534e-15
      vertex -24 24 -2.93915e-15
      vertex -8.02298 20.0256 -2.45243e-15
    endloop
  endfacet
  facet normal -1.03687e-24 1.22465e-16 1
    outer loop
      vertex -24 -24 2.93915e-15
      vertex -12.5238 14.813 -1.81407e-15
      vertex -24 24 -2.93915e-15
    endloop
  endfacet
  facet normal 9.7901e-23 1.22465e-16 1
    outer loop
      vertex -12.5002 15.5277 -1.90159e-15
      vertex -24 24 -2.93915e-15
      vertex -12.5238 14.813 -1.81407e-15
    endloop
  endfacet
  facet normal -2.34308e-21 1.22461e-16 1
    outer loop
      vertex -12.4978 15.5653 -1.90619e-15
      vertex -24 24 -2.93915e-15
      vertex -12.5002 15.5277 -1.90159e-15
    endloop
  endfacet
  facet normal 1.81441e-22 1.22465e-16 1
    outer loop
      vertex -12.4272 16.2213 -1.98653e-15
      vertex -24 24 -2.93915e-15
      vertex -12.4978 15.5653 -1.90619e-15
    endloop
  endfacet
  facet normal -2.48372e-23 1.22465e-16 1
    outer loop
      vertex -12.3024 16.8557 -2.06422e-15
      vertex -24 24 -2.93915e-15
      vertex -12.4272 16.2213 -1.98653e-15
    endloop
  endfacet
  facet normal -4.48726e-23 1.22465e-16 1
    outer loop
      vertex -12.1259 17.4302 -2.13458e-15
      vertex -24 24 -2.93915e-15
      vertex -12.3024 16.8557 -2.06422e-15
    endloop
  endfacet
  facet normal 5.97929e-23 1.22465e-16 1
    outer loop
      vertex -11.8979 17.9444 -2.19755e-15
      vertex -24 24 -2.93915e-15
      vertex -12.1259 17.4302 -2.13458e-15
    endloop
  endfacet
  facet normal -9.96591e-23 1.22464e-16 1
    outer loop
      vertex -11.6186 18.3976 -2.25305e-15
      vertex -24 24 -2.93915e-15
      vertex -11.8979 17.9444 -2.19755e-15
    endloop
  endfacet
  facet normal 1.54988e-22 1.22465e-16 1
    outer loop
      vertex -11.2885 18.7894 -2.30103e-15
      vertex -24 24 -2.93915e-15
      vertex -11.6186 18.3976 -2.25305e-15
    endloop
  endfacet
  facet normal -9.79312e-22 1.22462e-16 1
    outer loop
      vertex -11.261 18.8151 -2.30419e-15
      vertex -24 24 -2.93915e-15
      vertex -11.2885 18.7894 -2.30103e-15
    endloop
  endfacet
  facet normal -5.08299e-23 1.22465e-16 1
    outer loop
      vertex -10.9011 19.1245 -2.34207e-15
      vertex -24 24 -2.93915e-15
      vertex -11.261 18.8151 -2.30419e-15
    endloop
  endfacet
  facet normal -4.42602e-22 1.22463e-16 1
    outer loop
      vertex -10.8706 19.1466 -2.34479e-15
      vertex -24 24 -2.93915e-15
      vertex -10.9011 19.1245 -2.34207e-15
    endloop
  endfacet
  facet normal 6.56496e-23 1.22465e-16 1
    outer loop
      vertex -10.4503 19.4084 -2.37684e-15
      vertex -24 24 -2.93915e-15
      vertex -10.8706 19.1466 -2.34479e-15
    endloop
  endfacet
  facet normal -8.35347e-22 1.22462e-16 1
    outer loop
      vertex -10.4173 19.4265 -2.37906e-15
      vertex -24 24 -2.93915e-15
      vertex -10.4503 19.4084 -2.37684e-15
    endloop
  endfacet
  facet normal 3.28726e-23 1.22465e-16 1
    outer loop
      vertex -9.93654 19.6407 -2.40529e-15
      vertex -24 24 -2.93915e-15
      vertex -10.4173 19.4265 -2.37906e-15
    endloop
  endfacet
  facet normal 1.38203e-21 1.22469e-16 1
    outer loop
      vertex -9.9015 19.6546 -2.40699e-15
      vertex -24 24 -2.93915e-15
      vertex -9.93654 19.6407 -2.40529e-15
    endloop
  endfacet
  facet normal -6.41992e-23 1.22464e-16 1
    outer loop
      vertex -9.36035 19.8211 -2.42739e-15
      vertex -24 24 -2.93915e-15
      vertex -9.9015 19.6546 -2.40699e-15
    endloop
  endfacet
  facet normal -7.5948e-22 1.22462e-16 1
    outer loop
      vertex -9.32387 19.8305 -2.42854e-15
      vertex -24 24 -2.93915e-15
      vertex -9.36035 19.8211 -2.42739e-15
    endloop
  endfacet
  facet normal 9.77897e-23 1.22465e-16 1
    outer loop
      vertex -8.72232 19.9495 -2.44311e-15
      vertex -24 24 -2.93915e-15
      vertex -9.32387 19.8305 -2.42854e-15
    endloop
  endfacet
  facet normal 7.58001e-23 1.22465e-16 1
    outer loop
      vertex -8.02298 20.0256 -2.45243e-15
      vertex -24 24 -2.93915e-15
      vertex -8.72232 19.9495 -2.44311e-15
    endloop
  endfacet
  facet normal 1.42968e-22 1.22465e-16 1
    outer loop
      vertex 16.4165 15.5887 -1.90906e-15
      vertex 24 24 -2.93915e-15
      vertex 16.4875 16.0085 -1.96048e-15
    endloop
  endfacet
  facet normal -3.3984e-22 1.22465e-16 1
    outer loop
      vertex 16.2984 15.19 -1.86024e-15
      vertex 24 24 -2.93915e-15
      vertex 16.4165 15.5887 -1.90906e-15
    endloop
  endfacet
  facet normal 1.29746e-21 1.22464e-16 1
    outer loop
      vertex 16.1492 14.8471 -1.81825e-15
      vertex 24 24 -2.93915e-15
      vertex 16.2984 15.19 -1.86024e-15
    endloop
  endfacet
  facet normal -7.60688e-22 1.22465e-16 1
    outer loop
      vertex 16.1332 14.813 -1.81408e-15
      vertex 24 24 -2.93915e-15
      vertex 16.1492 14.8471 -1.81825e-15
    endloop
  endfacet
  facet normal -1.73827e-23 1.22465e-16 1
    outer loop
      vertex 24 24 -2.93915e-15
      vertex 16.1332 14.813 -1.81408e-15
      vertex 24 -24 2.93915e-15
    endloop
  endfacet
  facet normal 1.55477e-22 1.22465e-16 1
    outer loop
      vertex 15.9414 14.4902 -1.77454e-15
      vertex 24 -24 2.93915e-15
      vertex 16.1332 14.813 -1.81408e-15
    endloop
  endfacet
  facet normal 3.12653e-21 1.22465e-16 1
    outer loop
      vertex 15.9212 14.4584 -1.77064e-15
      vertex 24 -24 2.93915e-15
      vertex 15.9414 14.4902 -1.77454e-15
    endloop
  endfacet
  facet normal -2.65563e-22 1.22465e-16 1
    outer loop
      vertex 15.6869 14.1555 -1.73355e-15
      vertex 24 -24 2.93915e-15
      vertex 15.9212 14.4584 -1.77064e-15
    endloop
  endfacet
  facet normal 1.96758e-21 1.22465e-16 1
    outer loop
      vertex 15.6629 14.1265 -1.73e-15
      vertex 24 -24 2.93915e-15
      vertex 15.6869 14.1555 -1.73355e-15
    endloop
  endfacet
  facet normal 3.63647e-23 1.22465e-16 1
    outer loop
      vertex 15.3859 13.8436 -1.69536e-15
      vertex 24 -24 2.93915e-15
      vertex 15.6629 14.1265 -1.73e-15
    endloop
  endfacet
  facet normal 4.964e-22 1.22465e-16 1
    outer loop
      vertex 15.3584 13.8179 -1.6922e-15
      vertex 24 -24 2.93915e-15
      vertex 15.3859 13.8436 -1.69536e-15
    endloop
  endfacet
  facet normal 7.01481e-24 1.22465e-16 1
    outer loop
      vertex 15.0416 13.5645 -1.66117e-15
      vertex 24 -24 2.93915e-15
      vertex 15.3584 13.8179 -1.6922e-15
    endloop
  endfacet
  facet normal -1.11547e-21 1.22464e-16 1
    outer loop
      vertex 15.0111 13.5423 -1.65846e-15
      vertex 24 -24 2.93915e-15
      vertex 15.0416 13.5645 -1.66117e-15
    endloop
  endfacet
  facet normal 7.01779e-23 1.22465e-16 1
    outer loop
      vertex 14.6572 13.3279 -1.6322e-15
      vertex 24 -24 2.93915e-15
      vertex 15.0111 13.5423 -1.65846e-15
    endloop
  endfacet
  facet normal -1.93081e-21 1.22464e-16 1
    outer loop
      vertex 14.6242 13.3098 -1.62998e-15
      vertex 24 -24 2.93915e-15
      vertex 14.6572 13.3279 -1.6322e-15
    endloop
  endfacet
  facet normal -3.31391e-23 1.22465e-16 1
    outer loop
      vertex 14.2331 13.1344 -1.6085e-15
      vertex 24 -24 2.93915e-15
      vertex 14.6242 13.3098 -1.62998e-15
    endloop
  endfacet
  facet normal 1.111e-22 1.22465e-16 1
    outer loop
      vertex 14.1981 13.1205 -1.6068e-15
      vertex 24 -24 2.93915e-15
      vertex 14.2331 13.1344 -1.6085e-15
    endloop
  endfacet
  facet normal 2.51063e-23 1.22465e-16 1
    outer loop
      vertex 13.7699 12.9841 -1.59009e-15
      vertex 24 -24 2.93915e-15
      vertex 14.1981 13.1205 -1.6068e-15
    endloop
  endfacet
  facet normal 1.35915e-21 1.22465e-16 1
    outer loop
      vertex 13.7335 12.9747 -1.58894e-15
      vertex 24 -24 2.93915e-15
      vertex 13.7699 12.9841 -1.59009e-15
    endloop
  endfacet
  facet normal -1.37994e-22 1.22465e-16 1
    outer loop
      vertex 13.2682 12.8773 -1.57701e-15
      vertex 24 -24 2.93915e-15
      vertex 13.7335 12.9747 -1.58894e-15
    endloop
  endfacet
  facet normal 1.4382e-22 1.22465e-16 1
    outer loop
      vertex 12.7285 12.8141 -1.56927e-15
      vertex 24 -24 2.93915e-15
      vertex 13.2682 12.8773 -1.57701e-15
    endloop
  endfacet
  facet normal 4.02857e-23 1.22465e-16 1
    outer loop
      vertex -3.85979 -15.82 1.93739e-15
      vertex 12.7285 12.8141 -1.56927e-15
      vertex 12.189 12.7946 -1.56688e-15
    endloop
  endfacet
  facet normal 0 1.22465e-16 1
    outer loop
      vertex -3.85979 -15.82 1.93739e-15
      vertex 12.189 12.7946 -1.56688e-15
      vertex -3.85979 12.7946 -1.56688e-15
    endloop
  endfacet
  facet normal 3.55801e-24 1.22465e-16 1
    outer loop
      vertex 12.7285 12.8141 -1.56927e-15
      vertex -3.85979 -15.82 1.93739e-15
      vertex 24 -24 2.93915e-15
    endloop
  endfacet
  facet normal -3.74623e-23 1.22465e-16 1
    outer loop
      vertex -3.8828 -16.4989 2.02053e-15
      vertex 24 -24 2.93915e-15
      vertex -3.85979 -15.82 1.93739e-15
    endloop
  endfacet
  facet normal 6.06912e-22 1.22467e-16 1
    outer loop
      vertex -3.88516 -16.5365 2.02513e-15
      vertex 24 -24 2.93915e-15
      vertex -3.8828 -16.4989 2.02053e-15
    endloop
  endfacet
  facet normal 6.14629e-25 1.22465e-16 1
    outer loop
      vertex -3.95416 -17.1639 2.10197e-15
      vertex 24 -24 2.93915e-15
      vertex -3.88516 -16.5365 2.02513e-15
    endloop
  endfacet
  facet normal -5.38351e-25 1.22465e-16 1
    outer loop
      vertex -4.0762 -17.7769 2.17704e-15
      vertex 24 -24 2.93915e-15
      vertex -3.95416 -17.1639 2.10197e-15
    endloop
  endfacet
  facet normal 1.97018e-23 1.22465e-16 1
    outer loop
      vertex -4.24886 -18.3373 2.24567e-15
      vertex 24 -24 2.93915e-15
      vertex -4.0762 -17.7769 2.17704e-15
    endloop
  endfacet
  facet normal -2.39717e-23 1.22465e-16 1
    outer loop
      vertex -4.47191 -18.8445 2.30779e-15
      vertex 24 -24 2.93915e-15
      vertex -4.24886 -18.3373 2.24567e-15
    endloop
  endfacet
  facet normal -5.27376e-24 1.22465e-16 1
    outer loop
      vertex -4.74509 -19.298 2.36333e-15
      vertex 24 -24 2.93915e-15
      vertex -4.47191 -18.8445 2.30779e-15
    endloop
  endfacet
  facet normal 3.1175e-23 1.22465e-16 1
    outer loop
      vertex -5.0681 -19.6973 2.41223e-15
      vertex 24 -24 2.93915e-15
      vertex -4.74509 -19.298 2.36333e-15
    endloop
  endfacet
  facet normal -4.1693e-23 1.22464e-16 1
    outer loop
      vertex -5.43169 -20.0431 2.45457e-15
      vertex 24 -24 2.93915e-15
      vertex -5.0681 -19.6973 2.41223e-15
    endloop
  endfacet
  facet normal 4.32507e-23 1.22465e-16 1
    outer loop
      vertex -5.82654 -20.336 2.49044e-15
      vertex 24 -24 2.93915e-15
      vertex -5.43169 -20.0431 2.45457e-15
    endloop
  endfacet
  facet normal 2.46174e-23 1.22465e-16 1
    outer loop
      vertex -6.25215 -20.5756 2.51979e-15
      vertex 24 -24 2.93915e-15
      vertex -5.82654 -20.336 2.49044e-15
    endloop
  endfacet
  facet normal 1.67157e-24 1.22465e-16 1
    outer loop
      vertex -6.70804 -20.7618 2.54259e-15
      vertex 24 -24 2.93915e-15
      vertex -6.25215 -20.5756 2.51979e-15
    endloop
  endfacet
  facet normal 1.28693e-23 1.22465e-16 1
    outer loop
      vertex -7.19363 -20.8942 2.5588e-15
      vertex 24 -24 2.93915e-15
      vertex -6.70804 -20.7618 2.54259e-15
    endloop
  endfacet
  facet normal -6.21431e-23 1.22464e-16 1
    outer loop
      vertex -7.70836 -20.9728 2.56843e-15
      vertex 24 -24 2.93915e-15
      vertex -7.19363 -20.8942 2.5588e-15
    endloop
  endfacet
  facet normal 3.87743e-23 1.22464e-16 1
    outer loop
      vertex -24 -24 2.93915e-15
      vertex -7.70836 -20.9728 2.56843e-15
      vertex -8.21396 -20.9974 2.57144e-15
    endloop
  endfacet
  facet normal 0 1.22465e-16 1
    outer loop
      vertex -24 -24 2.93915e-15
      vertex -8.21396 -20.9974 2.57144e-15
      vertex -8.25162 -20.9974 2.57144e-15
    endloop
  endfacet
  facet normal 1.41925e-22 1.22464e-16 1
    outer loop
      vertex -24 -24 2.93915e-15
      vertex -8.25162 -20.9974 2.57144e-15
      vertex -8.74948 -20.9725 2.56839e-15
    endloop
  endfacet
  facet normal 3.79222e-24 1.22465e-16 1
    outer loop
      vertex -12.5238 14.813 -1.81407e-15
      vertex -24 -24 2.93915e-15
      vertex -12.5238 -15.815 1.93678e-15
    endloop
  endfacet
  facet normal -1.56201e-22 1.22465e-16 1
    outer loop
      vertex -12.5238 -15.815 1.93678e-15
      vertex -24 -24 2.93915e-15
      vertex -12.5013 -16.4875 2.01914e-15
    endloop
  endfacet
  facet normal 2.08398e-21 1.22461e-16 1
    outer loop
      vertex -12.5013 -16.4875 2.01914e-15
      vertex -24 -24 2.93915e-15
      vertex -12.499 -16.5251 2.02374e-15
    endloop
  endfacet
  facet normal -2.04144e-23 1.22465e-16 1
    outer loop
      vertex -12.499 -16.5251 2.02374e-15
      vertex -24 -24 2.93915e-15
      vertex -12.4317 -17.1479 2.10001e-15
    endloop
  endfacet
  facet normal 0 1.22465e-16 1
    outer loop
      vertex -7.70836 -20.9728 2.56843e-15
      vertex -24 -24 2.93915e-15
      vertex 24 -24 2.93915e-15
    endloop
  endfacet
  facet normal -1.39496e-21 1.22472e-16 1
    outer loop
      vertex -8.78687 -20.9678 2.56781e-15
      vertex -24 -24 2.93915e-15
      vertex -8.74948 -20.9725 2.56839e-15
    endloop
  endfacet
  facet normal 2.20247e-23 1.22465e-16 1
    outer loop
      vertex -9.2565 -20.893 2.55865e-15
      vertex -24 -24 2.93915e-15
      vertex -8.78687 -20.9678 2.56781e-15
    endloop
  endfacet
  facet normal -1.23695e-22 1.22465e-16 1
    outer loop
      vertex -9.73438 -20.759 2.54225e-15
      vertex -24 -24 2.93915e-15
      vertex -9.2565 -20.893 2.55865e-15
    endloop
  endfacet
  facet normal 7.59181e-23 1.22464e-16 1
    outer loop
      vertex -10.1826 -20.5707 2.51919e-15
      vertex -24 -24 2.93915e-15
      vertex -9.73438 -20.759 2.54225e-15
    endloop
  endfacet
  facet normal -5.51288e-24 1.22465e-16 1
    outer loop
      vertex -10.6005 -20.3283 2.4895e-15
      vertex -24 -24 2.93915e-15
      vertex -10.1826 -20.5707 2.51919e-15
    endloop
  endfacet
  facet normal -2.42328e-23 1.22465e-16 1
    outer loop
      vertex -10.9876 -20.0321 2.45322e-15
      vertex -24 -24 2.93915e-15
      vertex -10.6005 -20.3283 2.4895e-15
    endloop
  endfacet
  facet normal -3.53714e-23 1.22465e-16 1
    outer loop
      vertex -11.3435 -19.6823 2.41039e-15
      vertex -24 -24 2.93915e-15
      vertex -10.9876 -20.0321 2.45322e-15
    endloop
  endfacet
  facet normal 1.08423e-22 1.22464e-16 1
    outer loop
      vertex -11.659 -19.2796 2.36107e-15
      vertex -24 -24 2.93915e-15
      vertex -11.3435 -19.6823 2.41039e-15
    endloop
  endfacet
  facet normal -1.84752e-21 1.22469e-16 1
    outer loop
      vertex -11.6792 -19.2478 2.35717e-15
      vertex -24 -24 2.93915e-15
      vertex -11.659 -19.2796 2.36107e-15
    endloop
  endfacet
  facet normal 1.19725e-22 1.22464e-16 1
    outer loop
      vertex -11.9259 -18.8242 2.3053e-15
      vertex -24 -24 2.93915e-15
      vertex -11.6792 -19.2478 2.35717e-15
    endloop
  endfacet
  facet normal -1.07949e-22 1.22465e-16 1
    outer loop
      vertex -11.942 -18.7901 2.30113e-15
      vertex -24 -24 2.93915e-15
      vertex -11.9259 -18.8242 2.3053e-15
    endloop
  endfacet
  facet normal 1.1875e-23 1.22465e-16 1
    outer loop
      vertex -12.1439 -18.3168 2.24316e-15
      vertex -24 -24 2.93915e-15
      vertex -11.942 -18.7901 2.30113e-15
    endloop
  endfacet
  facet normal -1.25917e-22 1.22465e-16 1
    outer loop
      vertex -12.3125 -17.7578 2.1747e-15
      vertex -24 -24 2.93915e-15
      vertex -12.1439 -18.3168 2.24316e-15
    endloop
  endfacet
  facet normal 2.36785e-23 1.22465e-16 1
    outer loop
      vertex -12.4317 -17.1479 2.10001e-15
      vertex -24 -24 2.93915e-15
      vertex -12.3125 -17.7578 2.1747e-15
    endloop
  endfacet
  facet normal 1 0 0
    outer loop
      vertex 25 -25 23.2
      vertex 25 25 -1
      vertex 25 25 23.2
    endloop
  endfacet
  facet normal 1 0 0
    outer loop
      vertex 25 25 -1
      vertex 25 -25 23.2
      vertex 25 -25 -1
    endloop
  endfacet
  facet normal 0 -1 0
    outer loop
      vertex -25 -25 -1
      vertex 25 -25 23.2
      vertex -25 -25 23.2
    endloop
  endfacet
  facet normal 0 -1 -0
    outer loop
      vertex 25 -25 23.2
      vertex -25 -25 -1
      vertex 25 -25 -1
    endloop
  endfacet
  facet normal 0 1 -0
    outer loop
      vertex 25 25 -1
      vertex -25 25 23.2
      vertex 25 25 23.2
    endloop
  endfacet
  facet normal 0 1 0
    outer loop
      vertex -25 25 23.2
      vertex 25 25 -1
      vertex -25 25 -1
    endloop
  endfacet
  facet normal 1 0 0
    outer loop
      vertex -24 -24 23.2
      vertex -24 24 -2.93915e-15
      vertex -24 24 23.2
    endloop
  endfacet
  facet normal 1 0 0
    outer loop
      vertex -24 24 -2.93915e-15
      vertex -24 -24 23.2
      vertex -24 -24 2.93915e-15
    endloop
  endfacet
  facet normal -1 0 0
    outer loop
      vertex 24 -24 2.93915e-15
      vertex 24 24 23.2
      vertex 24 24 -2.93915e-15
    endloop
  endfacet
  facet normal -1 -0 0
    outer loop
      vertex 24 24 23.2
      vertex 24 -24 2.93915e-15
      vertex 24 -24 23.2
    endloop
  endfacet
  facet normal 0 1 -0
    outer loop
      vertex 24 -24 2.93915e-15
      vertex -24 -24 23.2
      vertex 24 -24 23.2
    endloop
  endfacet
  facet normal 0 1 0
    outer loop
      vertex -24 -24 23.2
      vertex 24 -24 2.93915e-15
      vertex -24 -24 2.93915e-15
    endloop
  endfacet
  facet normal 0 -1 0
    outer loop
      vertex -24 24 -2.93915e-15
      vertex 24 24 23.2
      vertex -24 24 23.2
    endloop
  endfacet
  facet normal 0 -1 -0
    outer loop
      vertex 24 24 23.2
      vertex -24 24 -2.93915e-15
      vertex 24 24 -2.93915e-15
    endloop
  endfacet
  facet normal 0 0 -1
    outer loop
      vertex 16.1332 14.813 -1
      vertex 25 25 -1
      vertex 25 -25 -1
    endloop
  endfacet
  facet normal 0 0 -1
    outer loop
      vertex 25 25 -1
      vertex 16.4875 16.0085 -1
      vertex 16.5112 16.449 -1
    endloop
  endfacet
  facet normal 0 0 -1
    outer loop
      vertex 25 25 -1
      vertex 16.4165 15.5887 -1
      vertex 16.4875 16.0085 -1
    endloop
  endfacet
  facet normal 0 0 -1
    outer loop
      vertex 25 25 -1
      vertex 16.2984 15.19 -1
      vertex 16.4165 15.5887 -1
    endloop
  endfacet
  facet normal 0 0 -1
    outer loop
      vertex 25 25 -1
      vertex 16.1492 14.8471 -1
      vertex 16.2984 15.19 -1
    endloop
  endfacet
  facet normal 0 0 -1
    outer loop
      vertex 25 25 -1
      vertex 16.1332 14.813 -1
      vertex 16.1492 14.8471 -1
    endloop
  endfacet
  facet normal 0 0 -1
    outer loop
      vertex 25 -25 -1
      vertex 15.9414 14.4902 -1
      vertex 16.1332 14.813 -1
    endloop
  endfacet
  facet normal 0 0 -1
    outer loop
      vertex 25 -25 -1
      vertex 15.9212 14.4584 -1
      vertex 15.9414 14.4902 -1
    endloop
  endfacet
  facet normal 0 0 -1
    outer loop
      vertex 25 -25 -1
      vertex 15.6869 14.1555 -1
      vertex 15.9212 14.4584 -1
    endloop
  endfacet
  facet normal 0 0 -1
    outer loop
      vertex 25 -25 -1
      vertex 15.6629 14.1265 -1
      vertex 15.6869 14.1555 -1
    endloop
  endfacet
  facet normal 0 0 -1
    outer loop
      vertex 25 -25 -1
      vertex 15.3859 13.8436 -1
      vertex 15.6629 14.1265 -1
    endloop
  endfacet
  facet normal 0 0 -1
    outer loop
      vertex 25 -25 -1
      vertex 15.3584 13.8179 -1
      vertex 15.3859 13.8436 -1
    endloop
  endfacet
  facet normal 0 0 -1
    outer loop
      vertex 25 -25 -1
      vertex 15.0416 13.5645 -1
      vertex 15.3584 13.8179 -1
    endloop
  endfacet
  facet normal 0 0 -1
    outer loop
      vertex 25 -25 -1
      vertex 15.0111 13.5423 -1
      vertex 15.0416 13.5645 -1
    endloop
  endfacet
  facet normal 0 0 -1
    outer loop
      vertex 25 -25 -1
      vertex 14.6572 13.3279 -1
      vertex 15.0111 13.5423 -1
    endloop
  endfacet
  facet normal 0 0 -1
    outer loop
      vertex 25 -25 -1
      vertex 14.6242 13.3098 -1
      vertex 14.6572 13.3279 -1
    endloop
  endfacet
  facet normal 0 0 -1
    outer loop
      vertex 25 -25 -1
      vertex 14.2331 13.1344 -1
      vertex 14.6242 13.3098 -1
    endloop
  endfacet
  facet normal 0 0 -1
    outer loop
      vertex 25 -25 -1
      vertex 14.1981 13.1205 -1
      vertex 14.2331 13.1344 -1
    endloop
  endfacet
  facet normal 0 0 -1
    outer loop
      vertex 25 -25 -1
      vertex 13.7699 12.9841 -1
      vertex 14.1981 13.1205 -1
    endloop
  endfacet
  facet normal 0 0 -1
    outer loop
      vertex 25 -25 -1
      vertex 13.7335 12.9747 -1
      vertex 13.7699 12.9841 -1
    endloop
  endfacet
  facet normal 0 0 -1
    outer loop
      vertex 25 -25 -1
      vertex 13.2682 12.8773 -1
      vertex 13.7335 12.9747 -1
    endloop
  endfacet
  facet normal 0 0 -1
    outer loop
      vertex 25 -25 -1
      vertex 12.7285 12.8141 -1
      vertex 13.2682 12.8773 -1
    endloop
  endfacet
  facet normal 0 0 -1
    outer loop
      vertex -3.85979 -15.82 -1
      vertex 12.7285 12.8141 -1
      vertex 25 -25 -1
    endloop
  endfacet
  facet normal 0 0 -1
    outer loop
      vertex 12.7285 12.8141 -1
      vertex -3.85979 -15.82 -1
      vertex 12.189 12.7946 -1
    endloop
  endfacet
  facet normal 0 0 -1
    outer loop
      vertex 25 -25 -1
      vertex -3.8828 -16.4989 -1
      vertex -3.85979 -15.82 -1
    endloop
  endfacet
  facet normal 0 0 -1
    outer loop
      vertex 25 -25 -1
      vertex -3.88516 -16.5365 -1
      vertex -3.8828 -16.4989 -1
    endloop
  endfacet
  facet normal 0 0 -1
    outer loop
      vertex 25 -25 -1
      vertex -3.95416 -17.1639 -1
      vertex -3.88516 -16.5365 -1
    endloop
  endfacet
  facet normal 0 0 -1
    outer loop
      vertex 25 -25 -1
      vertex -4.0762 -17.7769 -1
      vertex -3.95416 -17.1639 -1
    endloop
  endfacet
  facet normal 0 0 -1
    outer loop
      vertex 25 -25 -1
      vertex -4.24886 -18.3373 -1
      vertex -4.0762 -17.7769 -1
    endloop
  endfacet
  facet normal 0 0 -1
    outer loop
      vertex 25 -25 -1
      vertex -4.47191 -18.8445 -1
      vertex -4.24886 -18.3373 -1
    endloop
  endfacet
  facet normal 0 0 -1
    outer loop
      vertex 25 -25 -1
      vertex -4.74509 -19.298 -1
      vertex -4.47191 -18.8445 -1
    endloop
  endfacet
  facet normal 0 0 -1
    outer loop
      vertex 25 -25 -1
      vertex -5.0681 -19.6973 -1
      vertex -4.74509 -19.298 -1
    endloop
  endfacet
  facet normal 0 0 -1
    outer loop
      vertex 25 -25 -1
      vertex -5.43169 -20.0431 -1
      vertex -5.0681 -19.6973 -1
    endloop
  endfacet
  facet normal 0 0 -1
    outer loop
      vertex 25 -25 -1
      vertex -5.82654 -20.336 -1
      vertex -5.43169 -20.0431 -1
    endloop
  endfacet
  facet normal 0 0 -1
    outer loop
      vertex 25 -25 -1
      vertex -6.25215 -20.5756 -1
      vertex -5.82654 -20.336 -1
    endloop
  endfacet
  facet normal 0 0 -1
    outer loop
      vertex 25 -25 -1
      vertex -6.70804 -20.7618 -1
      vertex -6.25215 -20.5756 -1
    endloop
  endfacet
  facet normal 0 0 -1
    outer loop
      vertex 25 -25 -1
      vertex -7.19363 -20.8942 -1
      vertex -6.70804 -20.7618 -1
    endloop
  endfacet
  facet normal 0 0 -1
    outer loop
      vertex 25 -25 -1
      vertex -7.70836 -20.9728 -1
      vertex -7.19363 -20.8942 -1
    endloop
  endfacet
  facet normal 0 0 -1
    outer loop
      vertex -25 -25 -1
      vertex -7.70836 -20.9728 -1
      vertex 25 -25 -1
    endloop
  endfacet
  facet normal 0 0 -1
    outer loop
      vertex -7.70836 -20.9728 -1
      vertex -25 -25 -1
      vertex -8.21396 -20.9974 -1
    endloop
  endfacet
  facet normal -0 0 -1
    outer loop
      vertex -8.21396 -20.9974 -1
      vertex -25 -25 -1
      vertex -8.25162 -20.9974 -1
    endloop
  endfacet
  facet normal -0 0 -1
    outer loop
      vertex -12.5238 -15.815 -1
      vertex -25 -25 -1
      vertex -12.5238 14.813 -1
    endloop
  endfacet
  facet normal -0 0 -1
    outer loop
      vertex -12.5013 -16.4875 -1
      vertex -25 -25 -1
      vertex -12.5238 -15.815 -1
    endloop
  endfacet
  facet normal -0 0 -1
    outer loop
      vertex -12.499 -16.5251 -1
      vertex -25 -25 -1
      vertex -12.5013 -16.4875 -1
    endloop
  endfacet
  facet normal -0 0 -1
    outer loop
      vertex -12.4317 -17.1479 -1
      vertex -25 -25 -1
      vertex -12.499 -16.5251 -1
    endloop
  endfacet
  facet normal -0 0 -1
    outer loop
      vertex -12.3125 -17.7578 -1
      vertex -25 -25 -1
      vertex -12.4317 -17.1479 -1
    endloop
  endfacet
  facet normal -0 0 -1
    outer loop
      vertex -12.1439 -18.3168 -1
      vertex -25 -25 -1
      vertex -12.3125 -17.7578 -1
    endloop
  endfacet
  facet normal -0 0 -1
    outer loop
      vertex -11.942 -18.7901 -1
      vertex -25 -25 -1
      vertex -12.1439 -18.3168 -1
    endloop
  endfacet
  facet normal -0 0 -1
    outer loop
      vertex -11.9259 -18.8242 -1
      vertex -25 -25 -1
      vertex -11.942 -18.7901 -1
    endloop
  endfacet
  facet normal -0 0 -1
    outer loop
      vertex -11.6792 -19.2478 -1
      vertex -25 -25 -1
      vertex -11.9259 -18.8242 -1
    endloop
  endfacet
  facet normal -0 0 -1
    outer loop
      vertex -11.659 -19.2796 -1
      vertex -25 -25 -1
      vertex -11.6792 -19.2478 -1
    endloop
  endfacet
  facet normal -0 0 -1
    outer loop
      vertex -11.3435 -19.6823 -1
      vertex -25 -25 -1
      vertex -11.659 -19.2796 -1
    endloop
  endfacet
  facet normal -0 0 -1
    outer loop
      vertex -10.9876 -20.0321 -1
      vertex -25 -25 -1
      vertex -11.3435 -19.6823 -1
    endloop
  endfacet
  facet normal -0 0 -1
    outer loop
      vertex -10.6005 -20.3283 -1
      vertex -25 -25 -1
      vertex -10.9876 -20.0321 -1
    endloop
  endfacet
  facet normal -0 0 -1
    outer loop
      vertex -10.1826 -20.5707 -1
      vertex -25 -25 -1
      vertex -10.6005 -20.3283 -1
    endloop
  endfacet
  facet normal -0 0 -1
    outer loop
      vertex -9.73438 -20.759 -1
      vertex -25 -25 -1
      vertex -10.1826 -20.5707 -1
    endloop
  endfacet
  facet normal -0 0 -1
    outer loop
      vertex -9.2565 -20.893 -1
      vertex -25 -25 -1
      vertex -9.73438 -20.759 -1
    endloop
  endfacet
  facet normal -0 0 -1
    outer loop
      vertex -8.78687 -20.9678 -1
      vertex -25 -25 -1
      vertex -9.2565 -20.893 -1
    endloop
  endfacet
  facet normal -0 0 -1
    outer loop
      vertex -8.74948 -20.9725 -1
      vertex -25 -25 -1
      vertex -8.78687 -20.9678 -1
    endloop
  endfacet
  facet normal -0 0 -1
    outer loop
      vertex -8.25162 -20.9974 -1
      vertex -25 -25 -1
      vertex -8.74948 -20.9725 -1
    endloop
  endfacet
  facet normal 0 0 -1
    outer loop
      vertex 16.4878 16.896 -1
      vertex 25 25 -1
      vertex 16.5112 16.449 -1
    endloop
  endfacet
  facet normal 0 0 -1
    outer loop
      vertex 16.4176 17.3197 -1
      vertex 25 25 -1
      vertex 16.4878 16.896 -1
    endloop
  endfacet
  facet normal 0 0 -1
    outer loop
      vertex 16.3124 17.6835 -1
      vertex 25 25 -1
      vertex 16.4176 17.3197 -1
    endloop
  endfacet
  facet normal 0 0 -1
    outer loop
      vertex 16.3008 17.7193 -1
      vertex 25 25 -1
      vertex 16.3124 17.6835 -1
    endloop
  endfacet
  facet normal 0 0 -1
    outer loop
      vertex 16.1535 18.0603 -1
      vertex 25 25 -1
      vertex 16.3008 17.7193 -1
    endloop
  endfacet
  facet normal 0 0 -1
    outer loop
      vertex 16.1374 18.0944 -1
      vertex 25 25 -1
      vertex 16.1535 18.0603 -1
    endloop
  endfacet
  facet normal 0 0 -1
    outer loop
      vertex 15.9279 18.4444 -1
      vertex 25 25 -1
      vertex 16.1374 18.0944 -1
    endloop
  endfacet
  facet normal 0 0 -1
    outer loop
      vertex 15.6724 18.7688 -1
      vertex 25 25 -1
      vertex 15.9279 18.4444 -1
    endloop
  endfacet
  facet normal 0 0 -1
    outer loop
      vertex 15.3989 19.0414 -1
      vertex 25 25 -1
      vertex 15.6724 18.7688 -1
    endloop
  endfacet
  facet normal 0 0 -1
    outer loop
      vertex 15.3714 19.0671 -1
      vertex 25 25 -1
      vertex 15.3989 19.0414 -1
    endloop
  endfacet
  facet normal 0 0 -1
    outer loop
      vertex 15.0578 19.3096 -1
      vertex 25 25 -1
      vertex 15.3714 19.0671 -1
    endloop
  endfacet
  facet normal 0 0 -1
    outer loop
      vertex 15.0273 19.3318 -1
      vertex 25 25 -1
      vertex 15.0578 19.3096 -1
    endloop
  endfacet
  facet normal 0 0 -1
    outer loop
      vertex 14.6418 19.5551 -1
      vertex 25 25 -1
      vertex 15.0273 19.3318 -1
    endloop
  endfacet
  facet normal 0 0 -1
    outer loop
      vertex 14.2156 19.7368 -1
      vertex 25 25 -1
      vertex 14.6418 19.5551 -1
    endloop
  endfacet
  facet normal 0 0 -1
    outer loop
      vertex 13.7856 19.8674 -1
      vertex 25 25 -1
      vertex 14.2156 19.7368 -1
    endloop
  endfacet
  facet normal 0 0 -1
    outer loop
      vertex 13.7491 19.8768 -1
      vertex 25 25 -1
      vertex 13.7856 19.8674 -1
    endloop
  endfacet
  facet normal 0 0 -1
    outer loop
      vertex 13.2803 19.9701 -1
      vertex 25 25 -1
      vertex 13.7491 19.8768 -1
    endloop
  endfacet
  facet normal 0 0 -1
    outer loop
      vertex 12.7354 20.0307 -1
      vertex 25 25 -1
      vertex 13.2803 19.9701 -1
    endloop
  endfacet
  facet normal 0 0 -1
    outer loop
      vertex 12.189 20.0494 -1
      vertex 25 25 -1
      vertex 12.7354 20.0307 -1
    endloop
  endfacet
  facet normal 0 0 -1
    outer loop
      vertex -7.30061 20.0494 -1
      vertex 25 25 -1
      vertex 12.189 20.0494 -1
    endloop
  endfacet
  facet normal 0 0 -1
    outer loop
      vertex -25 25 -1
      vertex -7.30061 20.0494 -1
      vertex -8.02298 20.0256 -1
    endloop
  endfacet
  facet normal 0 0 -1
    outer loop
      vertex -25 25 -1
      vertex -8.02298 20.0256 -1
      vertex -8.72232 19.9495 -1
    endloop
  endfacet
  facet normal 0 0 -1
    outer loop
      vertex -25 25 -1
      vertex -12.5238 14.813 -1
      vertex -25 -25 -1
    endloop
  endfacet
  facet normal 0 0 -1
    outer loop
      vertex -12.5238 14.813 -1
      vertex -25 25 -1
      vertex -12.5002 15.5277 -1
    endloop
  endfacet
  facet normal 0 0 -1
    outer loop
      vertex -12.5002 15.5277 -1
      vertex -25 25 -1
      vertex -12.4978 15.5653 -1
    endloop
  endfacet
  facet normal 0 0 -1
    outer loop
      vertex -12.4978 15.5653 -1
      vertex -25 25 -1
      vertex -12.4272 16.2213 -1
    endloop
  endfacet
  facet normal 0 0 -1
    outer loop
      vertex -7.30061 20.0494 -1
      vertex -25 25 -1
      vertex 25 25 -1
    endloop
  endfacet
  facet normal 0 0 -1
    outer loop
      vertex -9.32387 19.8305 -1
      vertex -25 25 -1
      vertex -8.72232 19.9495 -1
    endloop
  endfacet
  facet normal 0 0 -1
    outer loop
      vertex -9.36035 19.8211 -1
      vertex -25 25 -1
      vertex -9.32387 19.8305 -1
    endloop
  endfacet
  facet normal 0 0 -1
    outer loop
      vertex -9.9015 19.6546 -1
      vertex -25 25 -1
      vertex -9.36035 19.8211 -1
    endloop
  endfacet
  facet normal 0 0 -1
    outer loop
      vertex -9.93654 19.6407 -1
      vertex -25 25 -1
      vertex -9.9015 19.6546 -1
    endloop
  endfacet
  facet normal 0 0 -1
    outer loop
      vertex -10.4173 19.4265 -1
      vertex -25 25 -1
      vertex -9.93654 19.6407 -1
    endloop
  endfacet
  facet normal 0 0 -1
    outer loop
      vertex -10.4503 19.4084 -1
      vertex -25 25 -1
      vertex -10.4173 19.4265 -1
    endloop
  endfacet
  facet normal 0 0 -1
    outer loop
      vertex -10.8706 19.1466 -1
      vertex -25 25 -1
      vertex -10.4503 19.4084 -1
    endloop
  endfacet
  facet normal 0 0 -1
    outer loop
      vertex -10.9011 19.1245 -1
      vertex -25 25 -1
      vertex -10.8706 19.1466 -1
    endloop
  endfacet
  facet normal 0 0 -1
    outer loop
      vertex -11.261 18.8151 -1
      vertex -25 25 -1
      vertex -10.9011 19.1245 -1
    endloop
  endfacet
  facet normal 0 0 -1
    outer loop
      vertex -11.2885 18.7894 -1
      vertex -25 25 -1
      vertex -11.261 18.8151 -1
    endloop
  endfacet
  facet normal 0 0 -1
    outer loop
      vertex -11.6186 18.3976 -1
      vertex -25 25 -1
      vertex -11.2885 18.7894 -1
    endloop
  endfacet
  facet normal 0 0 -1
    outer loop
      vertex -11.8979 17.9444 -1
      vertex -25 25 -1
      vertex -11.6186 18.3976 -1
    endloop
  endfacet
  facet normal 0 0 -1
    outer loop
      vertex -12.1259 17.4302 -1
      vertex -25 25 -1
      vertex -11.8979 17.9444 -1
    endloop
  endfacet
  facet normal 0 0 -1
    outer loop
      vertex -12.3024 16.8557 -1
      vertex -25 25 -1
      vertex -12.1259 17.4302 -1
    endloop
  endfacet
  facet normal 0 0 -1
    outer loop
      vertex -12.4272 16.2213 -1
      vertex -25 25 -1
      vertex -12.3024 16.8557 -1
    endloop
  endfacet
  facet normal -0 0 -1
    outer loop
      vertex 12.189 12.7946 -1
      vertex -3.85979 -15.82 -1
      vertex -3.85979 12.7946 -1
    endloop
  endfacet
  facet normal 0.0329345 -0.999458 0
    outer loop
      vertex -8.02298 20.0256 -1
      vertex -7.30061 20.0494 -2.45534e-15
      vertex -8.02298 20.0256 -2.45243e-15
    endloop
  endfacet
  facet normal 0.0329345 -0.999458 0
    outer loop
      vertex -7.30061 20.0494 -2.45534e-15
      vertex -8.02298 20.0256 -1
      vertex -7.30061 20.0494 -1
    endloop
  endfacet
  facet normal 0.108193 -0.99413 0
    outer loop
      vertex -8.72232 19.9495 -1
      vertex -8.02298 20.0256 -2.45243e-15
      vertex -8.72232 19.9495 -2.44311e-15
    endloop
  endfacet
  facet normal 0.108193 -0.99413 0
    outer loop
      vertex -8.02298 20.0256 -2.45243e-15
      vertex -8.72232 19.9495 -1
      vertex -8.02298 20.0256 -1
    endloop
  endfacet
  facet normal 0.194044 -0.980993 0
    outer loop
      vertex -9.32387 19.8305 -1
      vertex -8.72232 19.9495 -2.44311e-15
      vertex -9.32387 19.8305 -2.42854e-15
    endloop
  endfacet
  facet normal 0.194044 -0.980993 0
    outer loop
      vertex -8.72232 19.9495 -2.44311e-15
      vertex -9.32387 19.8305 -1
      vertex -8.72232 19.9495 -1
    endloop
  endfacet
  facet normal 0.248726 -0.968574 0
    outer loop
      vertex -9.36035 19.8211 -1
      vertex -9.32387 19.8305 -2.42854e-15
      vertex -9.36035 19.8211 -2.42739e-15
    endloop
  endfacet
  facet normal 0.248726 -0.968574 0
    outer loop
      vertex -9.32387 19.8305 -2.42854e-15
      vertex -9.36035 19.8211 -1
      vertex -9.32387 19.8305 -1
    endloop
  endfacet
  facet normal 0.294177 -0.955751 0
    outer loop
      vertex -9.9015 19.6546 -1
      vertex -9.36035 19.8211 -2.42739e-15
      vertex -9.9015 19.6546 -2.40699e-15
    endloop
  endfacet
  facet normal 0.294177 -0.955751 0
    outer loop
      vertex -9.36035 19.8211 -2.42739e-15
      vertex -9.9015 19.6546 -1
      vertex -9.36035 19.8211 -1
    endloop
  endfacet
  facet normal 0.368107 -0.929784 0
    outer loop
      vertex -9.93654 19.6407 -1
      vertex -9.9015 19.6546 -2.40699e-15
      vertex -9.93654 19.6407 -2.40529e-15
    endloop
  endfacet
  facet normal 0.368107 -0.929784 0
    outer loop
      vertex -9.9015 19.6546 -2.40699e-15
      vertex -9.93654 19.6407 -1
      vertex -9.9015 19.6546 -1
    endloop
  endfacet
  facet normal 0.406956 -0.913448 0
    outer loop
      vertex -10.4173 19.4265 -1
      vertex -9.93654 19.6407 -2.40529e-15
      vertex -10.4173 19.4265 -2.37906e-15
    endloop
  endfacet
  facet normal 0.406956 -0.913448 0
    outer loop
      vertex -9.93654 19.6407 -2.40529e-15
      vertex -10.4173 19.4265 -1
      vertex -9.93654 19.6407 -1
    endloop
  endfacet
  facet normal 0.481717 -0.876327 0
    outer loop
      vertex -10.4503 19.4084 -1
      vertex -10.4173 19.4265 -2.37906e-15
      vertex -10.4503 19.4084 -2.37684e-15
    endloop
  endfacet
  facet normal 0.481717 -0.876327 0
    outer loop
      vertex -10.4173 19.4265 -2.37906e-15
      vertex -10.4503 19.4084 -1
      vertex -10.4173 19.4265 -1
    endloop
  endfacet
  facet normal 0.528605 -0.848868 0
    outer loop
      vertex -10.8706 19.1466 -1
      vertex -10.4503 19.4084 -2.37684e-15
      vertex -10.8706 19.1466 -2.34479e-15
    endloop
  endfacet
  facet normal 0.528605 -0.848868 0
    outer loop
      vertex -10.4503 19.4084 -2.37684e-15
      vertex -10.8706 19.1466 -1
      vertex -10.4503 19.4084 -1
    endloop
  endfacet
  facet normal 0.587883 -0.808946 0
    outer loop
      vertex -10.9011 19.1245 -1
      vertex -10.8706 19.1466 -2.34479e-15
      vertex -10.9011 19.1245 -2.34207e-15
    endloop
  endfacet
  facet normal 0.587883 -0.808946 0
    outer loop
      vertex -10.8706 19.1466 -2.34479e-15
      vertex -10.9011 19.1245 -1
      vertex -10.8706 19.1466 -1
    endloop
  endfacet
  facet normal 0.651821 -0.758373 0
    outer loop
      vertex -11.261 18.8151 -1
      vertex -10.9011 19.1245 -2.34207e-15
      vertex -11.261 18.8151 -2.30419e-15
    endloop
  endfacet
  facet normal 0.651821 -0.758373 0
    outer loop
      vertex -10.9011 19.1245 -2.34207e-15
      vertex -11.261 18.8151 -1
      vertex -10.9011 19.1245 -1
    endloop
  endfacet
  facet normal 0.68448 -0.729032 0
    outer loop
      vertex -11.2885 18.7894 -1
      vertex -11.261 18.8151 -2.30419e-15
      vertex -11.2885 18.7894 -2.30103e-15
    endloop
  endfacet
  facet normal 0.68448 -0.729032 0
    outer loop
      vertex -11.261 18.8151 -2.30419e-15
      vertex -11.2885 18.7894 -1
      vertex -11.261 18.8151 -1
    endloop
  endfacet
  facet normal 0.764675 -0.644416 0
    outer loop
      vertex -11.6186 18.3976 -2.25305e-15
      vertex -11.2885 18.7894 -1
      vertex -11.2885 18.7894 -2.30103e-15
    endloop
  endfacet
  facet normal 0.764675 -0.644416 0
    outer loop
      vertex -11.2885 18.7894 -1
      vertex -11.6186 18.3976 -2.25305e-15
      vertex -11.6186 18.3976 -1
    endloop
  endfacet
  facet normal 0.851366 -0.524572 0
    outer loop
      vertex -11.8979 17.9444 -2.19755e-15
      vertex -11.6186 18.3976 -1
      vertex -11.6186 18.3976 -2.25305e-15
    endloop
  endfacet
  facet normal 0.851366 -0.524572 0
    outer loop
      vertex -11.6186 18.3976 -1
      vertex -11.8979 17.9444 -2.19755e-15
      vertex -11.8979 17.9444 -1
    endloop
  endfacet
  facet normal 0.914144 -0.405391 0
    outer loop
      vertex -12.1259 17.4302 -2.13458e-15
      vertex -11.8979 17.9444 -1
      vertex -11.8979 17.9444 -2.19755e-15
    endloop
  endfacet
  facet normal 0.914144 -0.405391 0
    outer loop
      vertex -11.8979 17.9444 -1
      vertex -12.1259 17.4302 -2.13458e-15
      vertex -12.1259 17.4302 -1
    endloop
  endfacet
  facet normal 0.955911 -0.293656 0
    outer loop
      vertex -12.3024 16.8557 -2.06422e-15
      vertex -12.1259 17.4302 -1
      vertex -12.1259 17.4302 -2.13458e-15
    endloop
  endfacet
  facet normal 0.955911 -0.293656 0
    outer loop
      vertex -12.1259 17.4302 -1
      vertex -12.3024 16.8557 -2.06422e-15
      vertex -12.3024 16.8557 -1
    endloop
  endfacet
  facet normal 0.981192 -0.193033 0
    outer loop
      vertex -12.4272 16.2213 -1.98653e-15
      vertex -12.3024 16.8557 -1
      vertex -12.3024 16.8557 -2.06422e-15
    endloop
  endfacet
  facet normal 0.981192 -0.193033 0
    outer loop
      vertex -12.3024 16.8557 -1
      vertex -12.4272 16.2213 -1.98653e-15
      vertex -12.4272 16.2213 -1
    endloop
  endfacet
  facet normal 0.994251 -0.107073 0
    outer loop
      vertex -12.4978 15.5653 -1.90619e-15
      vertex -12.4272 16.2213 -1
      vertex -12.4272 16.2213 -1.98653e-15
    endloop
  endfacet
  facet normal 0.994251 -0.107073 0
    outer loop
      vertex -12.4272 16.2213 -1
      vertex -12.4978 15.5653 -1.90619e-15
      vertex -12.4978 15.5653 -1
    endloop
  endfacet
  facet normal 0.998027 -0.0627817 0
    outer loop
      vertex -12.5002 15.5277 -1.90159e-15
      vertex -12.4978 15.5653 -1
      vertex -12.4978 15.5653 -1.90619e-15
    endloop
  endfacet
  facet normal 0.998027 -0.0627817 0
    outer loop
      vertex -12.4978 15.5653 -1
      vertex -12.5002 15.5277 -1.90159e-15
      vertex -12.5002 15.5277 -1
    endloop
  endfacet
  facet normal 0.999457 -0.0329475 0
    outer loop
      vertex -12.5238 14.813 -1.81407e-15
      vertex -12.5002 15.5277 -1
      vertex -12.5002 15.5277 -1.90159e-15
    endloop
  endfacet
  facet normal 0.999457 -0.0329475 0
    outer loop
      vertex -12.5002 15.5277 -1
      vertex -12.5238 14.813 -1.81407e-15
      vertex -12.5238 14.813 -1
    endloop
  endfacet
  facet normal 1 0 0
    outer loop
      vertex -12.5238 -15.815 1.93678e-15
      vertex -12.5238 14.813 -1
      vertex -12.5238 14.813 -1.81407e-15
    endloop
  endfacet
  facet normal 1 0 0
    outer loop
      vertex -12.5238 14.813 -1
      vertex -12.5238 -15.815 1.93678e-15
      vertex -12.5238 -15.815 -1
    endloop
  endfacet
  facet normal 0.999444 0.0333337 0
    outer loop
      vertex -12.5013 -16.4875 2.01914e-15
      vertex -12.5238 -15.815 -1
      vertex -12.5238 -15.815 1.93678e-15
    endloop
  endfacet
  facet normal 0.999444 0.0333337 0
    outer loop
      vertex -12.5238 -15.815 -1
      vertex -12.5013 -16.4875 2.01914e-15
      vertex -12.5013 -16.4875 -1
    endloop
  endfacet
  facet normal 0.998027 0.0627817 0
    outer loop
      vertex -12.499 -16.5251 2.02374e-15
      vertex -12.5013 -16.4875 -1
      vertex -12.5013 -16.4875 2.01914e-15
    endloop
  endfacet
  facet normal 0.998027 0.0627817 0
    outer loop
      vertex -12.5013 -16.4875 -1
      vertex -12.499 -16.5251 2.02374e-15
      vertex -12.499 -16.5251 -1
    endloop
  endfacet
  facet normal 0.994213 0.107431 0
    outer loop
      vertex -12.4317 -17.1479 2.10001e-15
      vertex -12.499 -16.5251 -1
      vertex -12.499 -16.5251 2.02374e-15
    endloop
  endfacet
  facet normal 0.994213 0.107431 0
    outer loop
      vertex -12.499 -16.5251 -1
      vertex -12.4317 -17.1479 2.10001e-15
      vertex -12.4317 -17.1479 -1
    endloop
  endfacet
  facet normal 0.981438 0.19178 0
    outer loop
      vertex -12.3125 -17.7578 2.1747e-15
      vertex -12.4317 -17.1479 -1
      vertex -12.4317 -17.1479 2.10001e-15
    endloop
  endfacet
  facet normal 0.981438 0.19178 0
    outer loop
      vertex -12.4317 -17.1479 -1
      vertex -12.3125 -17.7578 2.1747e-15
      vertex -12.3125 -17.7578 -1
    endloop
  endfacet
  facet normal 0.957378 0.288836 0
    outer loop
      vertex -12.1439 -18.3168 2.24316e-15
      vertex -12.3125 -17.7578 -1
      vertex -12.3125 -17.7578 2.1747e-15
    endloop
  endfacet
  facet normal 0.957378 0.288836 0
    outer loop
      vertex -12.3125 -17.7578 -1
      vertex -12.1439 -18.3168 2.24316e-15
      vertex -12.1439 -18.3168 -1
    endloop
  endfacet
  facet normal 0.919849 0.392272 0
    outer loop
      vertex -11.942 -18.7901 2.30113e-15
      vertex -12.1439 -18.3168 -1
      vertex -12.1439 -18.3168 2.24316e-15
    endloop
  endfacet
  facet normal 0.919849 0.392272 0
    outer loop
      vertex -12.1439 -18.3168 -1
      vertex -11.942 -18.7901 2.30113e-15
      vertex -11.942 -18.7901 -1
    endloop
  endfacet
  facet normal 0.904709 0.426031 0
    outer loop
      vertex -11.9259 -18.8242 2.3053e-15
      vertex -11.942 -18.7901 -1
      vertex -11.942 -18.7901 2.30113e-15
    endloop
  endfacet
  facet normal 0.904709 0.426031 0
    outer loop
      vertex -11.942 -18.7901 -1
      vertex -11.9259 -18.8242 2.3053e-15
      vertex -11.9259 -18.8242 -1
    endloop
  endfacet
  facet normal 0.864093 0.503333 0
    outer loop
      vertex -11.6792 -19.2478 2.35717e-15
      vertex -11.9259 -18.8242 -1
      vertex -11.9259 -18.8242 2.3053e-15
    endloop
  endfacet
  facet normal 0.864093 0.503333 0
    outer loop
      vertex -11.9259 -18.8242 -1
      vertex -11.6792 -19.2478 2.35717e-15
      vertex -11.6792 -19.2478 -1
    endloop
  endfacet
  facet normal 0.844361 0.535774 0
    outer loop
      vertex -11.659 -19.2796 2.36107e-15
      vertex -11.6792 -19.2478 -1
      vertex -11.6792 -19.2478 2.35717e-15
    endloop
  endfacet
  facet normal 0.844361 0.535774 0
    outer loop
      vertex -11.6792 -19.2478 -1
      vertex -11.659 -19.2796 2.36107e-15
      vertex -11.659 -19.2796 -1
    endloop
  endfacet
  facet normal 0.787168 0.616738 0
    outer loop
      vertex -11.3435 -19.6823 2.41039e-15
      vertex -11.659 -19.2796 -1
      vertex -11.659 -19.2796 2.36107e-15
    endloop
  endfacet
  facet normal 0.787168 0.616738 0
    outer loop
      vertex -11.659 -19.2796 -1
      vertex -11.3435 -19.6823 2.41039e-15
      vertex -11.3435 -19.6823 -1
    endloop
  endfacet
  facet normal 0.700918 0.713242 -0
    outer loop
      vertex -10.9876 -20.0321 -1
      vertex -11.3435 -19.6823 2.41039e-15
      vertex -10.9876 -20.0321 2.45322e-15
    endloop
  endfacet
  facet normal 0.700918 0.713242 0
    outer loop
      vertex -11.3435 -19.6823 2.41039e-15
      vertex -10.9876 -20.0321 -1
      vertex -11.3435 -19.6823 -1
    endloop
  endfacet
  facet normal 0.60772 0.794152 -0
    outer loop
      vertex -10.6005 -20.3283 -1
      vertex -10.9876 -20.0321 2.45322e-15
      vertex -10.6005 -20.3283 2.4895e-15
    endloop
  endfacet
  facet normal 0.60772 0.794152 0
    outer loop
      vertex -10.9876 -20.0321 2.45322e-15
      vertex -10.6005 -20.3283 -1
      vertex -10.9876 -20.0321 -1
    endloop
  endfacet
  facet normal 0.501764 0.865004 -0
    outer loop
      vertex -10.1826 -20.5707 -1
      vertex -10.6005 -20.3283 2.4895e-15
      vertex -10.1826 -20.5707 2.51919e-15
    endloop
  endfacet
  facet normal 0.501764 0.865004 0
    outer loop
      vertex -10.6005 -20.3283 2.4895e-15
      vertex -10.1826 -20.5707 -1
      vertex -10.6005 -20.3283 -1
    endloop
  endfacet
  facet normal 0.387333 0.92194 -0
    outer loop
      vertex -9.73438 -20.759 -1
      vertex -10.1826 -20.5707 2.51919e-15
      vertex -9.73438 -20.759 2.54225e-15
    endloop
  endfacet
  facet normal 0.387333 0.92194 0
    outer loop
      vertex -10.1826 -20.5707 2.51919e-15
      vertex -9.73438 -20.759 -1
      vertex -10.1826 -20.5707 -1
    endloop
  endfacet
  facet normal 0.269914 0.962884 -0
    outer loop
      vertex -9.2565 -20.893 -1
      vertex -9.73438 -20.759 2.54225e-15
      vertex -9.2565 -20.893 2.55865e-15
    endloop
  endfacet
  facet normal 0.269914 0.962884 0
    outer loop
      vertex -9.73438 -20.759 2.54225e-15
      vertex -9.2565 -20.893 -1
      vertex -9.73438 -20.759 -1
    endloop
  endfacet
  facet normal 0.157225 0.987563 -0
    outer loop
      vertex -8.78687 -20.9678 -1
      vertex -9.2565 -20.893 2.55865e-15
      vertex -8.78687 -20.9678 2.56781e-15
    endloop
  endfacet
  facet normal 0.157225 0.987563 0
    outer loop
      vertex -9.2565 -20.893 2.55865e-15
      vertex -8.78687 -20.9678 -1
      vertex -9.2565 -20.893 -1
    endloop
  endfacet
  facet normal 0.12553 0.99209 -0
    outer loop
      vertex -8.74948 -20.9725 -1
      vertex -8.78687 -20.9678 2.56781e-15
      vertex -8.74948 -20.9725 2.56839e-15
    endloop
  endfacet
  facet normal 0.12553 0.99209 0
    outer loop
      vertex -8.78687 -20.9678 2.56781e-15
      vertex -8.74948 -20.9725 -1
      vertex -8.78687 -20.9678 -1
    endloop
  endfacet
  facet normal 0.0499865 0.99875 -0
    outer loop
      vertex -8.25162 -20.9974 -1
      vertex -8.74948 -20.9725 2.56839e-15
      vertex -8.25162 -20.9974 2.57144e-15
    endloop
  endfacet
  facet normal 0.0499865 0.99875 0
    outer loop
      vertex -8.74948 -20.9725 2.56839e-15
      vertex -8.25162 -20.9974 -1
      vertex -8.74948 -20.9725 -1
    endloop
  endfacet
  facet normal 0 1 -0
    outer loop
      vertex -8.21396 -20.9974 -1
      vertex -8.25162 -20.9974 2.57144e-15
      vertex -8.21396 -20.9974 2.57144e-15
    endloop
  endfacet
  facet normal 0 1 0
    outer loop
      vertex -8.25162 -20.9974 2.57144e-15
      vertex -8.21396 -20.9974 -1
      vertex -8.25162 -20.9974 -1
    endloop
  endfacet
  facet normal -0.0486221 0.998817 0
    outer loop
      vertex -7.70836 -20.9728 -1
      vertex -8.21396 -20.9974 2.57144e-15
      vertex -7.70836 -20.9728 2.56843e-15
    endloop
  endfacet
  facet normal -0.0486221 0.998817 0
    outer loop
      vertex -8.21396 -20.9974 2.57144e-15
      vertex -7.70836 -20.9728 -1
      vertex -8.21396 -20.9974 -1
    endloop
  endfacet
  facet normal -0.150892 0.98855 0
    outer loop
      vertex -7.19363 -20.8942 -1
      vertex -7.70836 -20.9728 2.56843e-15
      vertex -7.19363 -20.8942 2.5588e-15
    endloop
  endfacet
  facet normal -0.150892 0.98855 0
    outer loop
      vertex -7.70836 -20.9728 2.56843e-15
      vertex -7.19363 -20.8942 -1
      vertex -7.70836 -20.9728 -1
    endloop
  endfacet
  facet normal -0.26311 0.964766 0
    outer loop
      vertex -6.70804 -20.7618 -1
      vertex -7.19363 -20.8942 2.5588e-15
      vertex -6.70804 -20.7618 2.54259e-15
    endloop
  endfacet
  facet normal -0.26311 0.964766 0
    outer loop
      vertex -7.19363 -20.8942 2.5588e-15
      vertex -6.70804 -20.7618 -1
      vertex -7.19363 -20.8942 -1
    endloop
  endfacet
  facet normal -0.378038 0.92579 0
    outer loop
      vertex -6.25215 -20.5756 -1
      vertex -6.70804 -20.7618 2.54259e-15
      vertex -6.25215 -20.5756 2.51979e-15
    endloop
  endfacet
  facet normal -0.378038 0.92579 0
    outer loop
      vertex -6.70804 -20.7618 2.54259e-15
      vertex -6.25215 -20.5756 -1
      vertex -6.70804 -20.7618 -1
    endloop
  endfacet
  facet normal -0.490645 0.871359 0
    outer loop
      vertex -5.82654 -20.336 -1
      vertex -6.25215 -20.5756 2.51979e-15
      vertex -5.82654 -20.336 2.49044e-15
    endloop
  endfacet
  facet normal -0.490645 0.871359 0
    outer loop
      vertex -6.25215 -20.5756 2.51979e-15
      vertex -5.82654 -20.336 -1
      vertex -6.25215 -20.5756 -1
    endloop
  endfacet
  facet normal -0.595766 0.803158 0
    outer loop
      vertex -5.43169 -20.0431 -1
      vertex -5.82654 -20.336 2.49044e-15
      vertex -5.43169 -20.0431 2.45457e-15
    endloop
  endfacet
  facet normal -0.595766 0.803158 0
    outer loop
      vertex -5.82654 -20.336 2.49044e-15
      vertex -5.43169 -20.0431 -1
      vertex -5.82654 -20.336 -1
    endloop
  endfacet
  facet normal -0.689107 0.724659 0
    outer loop
      vertex -5.0681 -19.6973 -1
      vertex -5.43169 -20.0431 2.45457e-15
      vertex -5.0681 -19.6973 2.41223e-15
    endloop
  endfacet
  facet normal -0.689107 0.724659 0
    outer loop
      vertex -5.43169 -20.0431 2.45457e-15
      vertex -5.0681 -19.6973 -1
      vertex -5.43169 -20.0431 -1
    endloop
  endfacet
  facet normal -0.777469 0.628921 0
    outer loop
      vertex -5.0681 -19.6973 -1
      vertex -4.74509 -19.298 2.36333e-15
      vertex -4.74509 -19.298 -1
    endloop
  endfacet
  facet normal -0.777469 0.628921 0
    outer loop
      vertex -4.74509 -19.298 2.36333e-15
      vertex -5.0681 -19.6973 -1
      vertex -5.0681 -19.6973 2.41223e-15
    endloop
  endfacet
  facet normal -0.856604 0.515974 0
    outer loop
      vertex -4.74509 -19.298 -1
      vertex -4.47191 -18.8445 2.30779e-15
      vertex -4.47191 -18.8445 -1
    endloop
  endfacet
  facet normal -0.856604 0.515974 0
    outer loop
      vertex -4.47191 -18.8445 2.30779e-15
      vertex -4.74509 -19.298 -1
      vertex -4.74509 -19.298 2.36333e-15
    endloop
  endfacet
  facet normal -0.915401 0.402543 0
    outer loop
      vertex -4.47191 -18.8445 -1
      vertex -4.24886 -18.3373 2.24567e-15
      vertex -4.24886 -18.3373 -1
    endloop
  endfacet
  facet normal -0.915401 0.402543 0
    outer loop
      vertex -4.24886 -18.3373 2.24567e-15
      vertex -4.47191 -18.8445 -1
      vertex -4.47191 -18.8445 2.30779e-15
    endloop
  endfacet
  facet normal -0.955674 0.294428 0
    outer loop
      vertex -4.24886 -18.3373 -1
      vertex -4.0762 -17.7769 2.17704e-15
      vertex -4.0762 -17.7769 -1
    endloop
  endfacet
  facet normal -0.955674 0.294428 0
    outer loop
      vertex -4.0762 -17.7769 2.17704e-15
      vertex -4.24886 -18.3373 -1
      vertex -4.24886 -18.3373 2.24567e-15
    endloop
  endfacet
  facet normal -0.980752 0.195257 0
    outer loop
      vertex -4.0762 -17.7769 -1
      vertex -3.95416 -17.1639 2.10197e-15
      vertex -3.95416 -17.1639 -1
    endloop
  endfacet
  facet normal -0.980752 0.195257 0
    outer loop
      vertex -3.95416 -17.1639 2.10197e-15
      vertex -4.0762 -17.7769 -1
      vertex -4.0762 -17.7769 2.17704e-15
    endloop
  endfacet
  facet normal -0.994007 0.109314 0
    outer loop
      vertex -3.95416 -17.1639 -1
      vertex -3.88516 -16.5365 2.02513e-15
      vertex -3.88516 -16.5365 -1
    endloop
  endfacet
  facet normal -0.994007 0.109314 0
    outer loop
      vertex -3.88516 -16.5365 2.02513e-15
      vertex -3.95416 -17.1639 -1
      vertex -3.95416 -17.1639 2.10197e-15
    endloop
  endfacet
  facet normal -0.998027 0.0627817 0
    outer loop
      vertex -3.88516 -16.5365 -1
      vertex -3.8828 -16.4989 2.02053e-15
      vertex -3.8828 -16.4989 -1
    endloop
  endfacet
  facet normal -0.998027 0.0627817 0
    outer loop
      vertex -3.8828 -16.4989 2.02053e-15
      vertex -3.88516 -16.5365 -1
      vertex -3.88516 -16.5365 2.02513e-15
    endloop
  endfacet
  facet normal -0.999426 0.0338758 0
    outer loop
      vertex -3.8828 -16.4989 -1
      vertex -3.85979 -15.82 1.93739e-15
      vertex -3.85979 -15.82 -1
    endloop
  endfacet
  facet normal -0.999426 0.0338758 0
    outer loop
      vertex -3.85979 -15.82 1.93739e-15
      vertex -3.8828 -16.4989 -1
      vertex -3.8828 -16.4989 2.02053e-15
    endloop
  endfacet
  facet normal -1 0 0
    outer loop
      vertex -3.85979 -15.82 -1
      vertex -3.85979 12.7946 -1.56688e-15
      vertex -3.85979 12.7946 -1
    endloop
  endfacet
  facet normal -1 -0 0
    outer loop
      vertex -3.85979 12.7946 -1.56688e-15
      vertex -3.85979 -15.82 -1
      vertex -3.85979 -15.82 1.93739e-15
    endloop
  endfacet
  facet normal 0 1 -0
    outer loop
      vertex 12.189 12.7946 -1
      vertex -3.85979 12.7946 -1.56688e-15
      vertex 12.189 12.7946 -1.56688e-15
    endloop
  endfacet
  facet normal 0 1 0
    outer loop
      vertex -3.85979 12.7946 -1.56688e-15
      vertex 12.189 12.7946 -1
      vertex -3.85979 12.7946 -1
    endloop
  endfacet
  facet normal -0.0360968 0.999348 0
    outer loop
      vertex 12.7285 12.8141 -1
      vertex 12.189 12.7946 -1.56688e-15
      vertex 12.7285 12.8141 -1.56927e-15
    endloop
  endfacet
  facet normal -0.0360968 0.999348 0
    outer loop
      vertex 12.189 12.7946 -1.56688e-15
      vertex 12.7285 12.8141 -1
      vertex 12.189 12.7946 -1
    endloop
  endfacet
  facet normal -0.116304 0.993214 0
    outer loop
      vertex 13.2682 12.8773 -1
      vertex 12.7285 12.8141 -1.56927e-15
      vertex 13.2682 12.8773 -1.57701e-15
    endloop
  endfacet
  facet normal -0.116304 0.993214 0
    outer loop
      vertex 12.7285 12.8141 -1.56927e-15
      vertex 13.2682 12.8773 -1
      vertex 12.7285 12.8141 -1
    endloop
  endfacet
  facet normal -0.204998 0.978762 0
    outer loop
      vertex 13.7335 12.9747 -1
      vertex 13.2682 12.8773 -1.57701e-15
      vertex 13.7335 12.9747 -1.58894e-15
    endloop
  endfacet
  facet normal -0.204998 0.978762 0
    outer loop
      vertex 13.2682 12.8773 -1.57701e-15
      vertex 13.7335 12.9747 -1
      vertex 13.2682 12.8773 -1
    endloop
  endfacet
  facet normal -0.248726 0.968574 0
    outer loop
      vertex 13.7699 12.9841 -1
      vertex 13.7335 12.9747 -1.58894e-15
      vertex 13.7699 12.9841 -1.59009e-15
    endloop
  endfacet
  facet normal -0.248726 0.968574 0
    outer loop
      vertex 13.7335 12.9747 -1.58894e-15
      vertex 13.7699 12.9841 -1
      vertex 13.7335 12.9747 -1
    endloop
  endfacet
  facet normal -0.303609 0.952797 0
    outer loop
      vertex 14.1981 13.1205 -1
      vertex 13.7699 12.9841 -1.59009e-15
      vertex 14.1981 13.1205 -1.6068e-15
    endloop
  endfacet
  facet normal -0.303609 0.952797 0
    outer loop
      vertex 13.7699 12.9841 -1.59009e-15
      vertex 14.1981 13.1205 -1
      vertex 13.7699 12.9841 -1
    endloop
  endfacet
  facet normal -0.368107 0.929784 0
    outer loop
      vertex 14.2331 13.1344 -1
      vertex 14.1981 13.1205 -1.6068e-15
      vertex 14.2331 13.1344 -1.6085e-15
    endloop
  endfacet
  facet normal -0.368107 0.929784 0
    outer loop
      vertex 14.1981 13.1205 -1.6068e-15
      vertex 14.2331 13.1344 -1
      vertex 14.1981 13.1205 -1
    endloop
  endfacet
  facet normal -0.409294 0.912403 0
    outer loop
      vertex 14.6242 13.3098 -1
      vertex 14.2331 13.1344 -1.6085e-15
      vertex 14.6242 13.3098 -1.62998e-15
    endloop
  endfacet
  facet normal -0.409294 0.912403 0
    outer loop
      vertex 14.2331 13.1344 -1.6085e-15
      vertex 14.6242 13.3098 -1
      vertex 14.2331 13.1344 -1
    endloop
  endfacet
  facet normal -0.481717 0.876327 0
    outer loop
      vertex 14.6572 13.3279 -1
      vertex 14.6242 13.3098 -1.62998e-15
      vertex 14.6572 13.3279 -1.6322e-15
    endloop
  endfacet
  facet normal -0.481717 0.876327 0
    outer loop
      vertex 14.6242 13.3098 -1.62998e-15
      vertex 14.6572 13.3279 -1
      vertex 14.6242 13.3098 -1
    endloop
  endfacet
  facet normal -0.518081 0.855332 0
    outer loop
      vertex 15.0111 13.5423 -1
      vertex 14.6572 13.3279 -1.6322e-15
      vertex 15.0111 13.5423 -1.65846e-15
    endloop
  endfacet
  facet normal -0.518081 0.855332 0
    outer loop
      vertex 14.6572 13.3279 -1.6322e-15
      vertex 15.0111 13.5423 -1
      vertex 14.6572 13.3279 -1
    endloop
  endfacet
  facet normal -0.587883 0.808946 0
    outer loop
      vertex 15.0416 13.5645 -1
      vertex 15.0111 13.5423 -1.65846e-15
      vertex 15.0416 13.5645 -1.66117e-15
    endloop
  endfacet
  facet normal -0.587883 0.808946 0
    outer loop
      vertex 15.0111 13.5423 -1.65846e-15
      vertex 15.0416 13.5645 -1
      vertex 15.0111 13.5423 -1
    endloop
  endfacet
  facet normal -0.624553 0.780983 0
    outer loop
      vertex 15.3584 13.8179 -1
      vertex 15.0416 13.5645 -1.66117e-15
      vertex 15.3584 13.8179 -1.6922e-15
    endloop
  endfacet
  facet normal -0.624553 0.780983 0
    outer loop
      vertex 15.0416 13.5645 -1.66117e-15
      vertex 15.3584 13.8179 -1
      vertex 15.0416 13.5645 -1
    endloop
  endfacet
  facet normal -0.68448 0.729032 0
    outer loop
      vertex 15.3859 13.8436 -1
      vertex 15.3584 13.8179 -1.6922e-15
      vertex 15.3859 13.8436 -1.69536e-15
    endloop
  endfacet
  facet normal -0.68448 0.729032 0
    outer loop
      vertex 15.3584 13.8179 -1.6922e-15
      vertex 15.3859 13.8436 -1
      vertex 15.3584 13.8179 -1
    endloop
  endfacet
  facet normal -0.714488 0.699648 0
    outer loop
      vertex 15.3859 13.8436 -1
      vertex 15.6629 14.1265 -1.73e-15
      vertex 15.6629 14.1265 -1
    endloop
  endfacet
  facet normal -0.714488 0.699648 0
    outer loop
      vertex 15.6629 14.1265 -1.73e-15
      vertex 15.3859 13.8436 -1
      vertex 15.3859 13.8436 -1.69536e-15
    endloop
  endfacet
  facet normal -0.770607 0.637311 0
    outer loop
      vertex 15.6629 14.1265 -1
      vertex 15.6869 14.1555 -1.73355e-15
      vertex 15.6869 14.1555 -1
    endloop
  endfacet
  facet normal -0.770607 0.637311 0
    outer loop
      vertex 15.6869 14.1555 -1.73355e-15
      vertex 15.6629 14.1265 -1
      vertex 15.6629 14.1265 -1.73e-15
    endloop
  endfacet
  facet normal -0.790862 0.611994 0
    outer loop
      vertex 15.6869 14.1555 -1
      vertex 15.9212 14.4584 -1.77064e-15
      vertex 15.9212 14.4584 -1
    endloop
  endfacet
  facet normal -0.790862 0.611994 0
    outer loop
      vertex 15.9212 14.4584 -1.77064e-15
      vertex 15.6869 14.1555 -1
      vertex 15.6869 14.1555 -1.73355e-15
    endloop
  endfacet
  facet normal -0.844361 0.535774 0
    outer loop
      vertex 15.9212 14.4584 -1
      vertex 15.9414 14.4902 -1.77454e-15
      vertex 15.9414 14.4902 -1
    endloop
  endfacet
  facet normal -0.844361 0.535774 0
    outer loop
      vertex 15.9414 14.4902 -1.77454e-15
      vertex 15.9212 14.4584 -1
      vertex 15.9212 14.4584 -1.77064e-15
    endloop
  endfacet
  facet normal -0.859786 0.510654 0
    outer loop
      vertex 15.9414 14.4902 -1
      vertex 16.1332 14.813 -1.81408e-15
      vertex 16.1332 14.813 -1
    endloop
  endfacet
  facet normal -0.859786 0.510654 0
    outer loop
      vertex 16.1332 14.813 -1.81408e-15
      vertex 15.9414 14.4902 -1
      vertex 15.9414 14.4902 -1.77454e-15
    endloop
  endfacet
  facet normal -0.904709 0.426031 0
    outer loop
      vertex 16.1332 14.813 -1
      vertex 16.1492 14.8471 -1.81825e-15
      vertex 16.1492 14.8471 -1
    endloop
  endfacet
  facet normal -0.904709 0.426031 0
    outer loop
      vertex 16.1492 14.8471 -1.81825e-15
      vertex 16.1332 14.813 -1
      vertex 16.1332 14.813 -1.81408e-15
    endloop
  endfacet
  facet normal -0.916982 0.398928 0
    outer loop
      vertex 16.1492 14.8471 -1
      vertex 16.2984 15.19 -1.86024e-15
      vertex 16.2984 15.19 -1
    endloop
  endfacet
  facet normal -0.916982 0.398928 0
    outer loop
      vertex 16.2984 15.19 -1.86024e-15
      vertex 16.1492 14.8471 -1
      vertex 16.1492 14.8471 -1.81825e-15
    endloop
  endfacet
  facet normal -0.958777 0.284158 0
    outer loop
      vertex 16.2984 15.19 -1
      vertex 16.4165 15.5887 -1.90906e-15
      vertex 16.4165 15.5887 -1
    endloop
  endfacet
  facet normal -0.958777 0.284158 0
    outer loop
      vertex 16.4165 15.5887 -1.90906e-15
      vertex 16.2984 15.19 -1
      vertex 16.2984 15.19 -1.86024e-15
    endloop
  endfacet
  facet normal -0.986014 0.166665 0
    outer loop
      vertex 16.4165 15.5887 -1
      vertex 16.4875 16.0085 -1.96048e-15
      vertex 16.4875 16.0085 -1
    endloop
  endfacet
  facet normal -0.986014 0.166665 0
    outer loop
      vertex 16.4875 16.0085 -1.96048e-15
      vertex 16.4165 15.5887 -1
      vertex 16.4165 15.5887 -1.90906e-15
    endloop
  endfacet
  facet normal -0.99856 0.0536555 0
    outer loop
      vertex 16.4875 16.0085 -1
      vertex 16.5112 16.449 -2.01442e-15
      vertex 16.5112 16.449 -1
    endloop
  endfacet
  facet normal -0.99856 0.0536555 0
    outer loop
      vertex 16.5112 16.449 -2.01442e-15
      vertex 16.4875 16.0085 -1
      vertex 16.4875 16.0085 -1.96048e-15
    endloop
  endfacet
  facet normal -0.998632 -0.0522869 0
    outer loop
      vertex 16.5112 16.449 -1
      vertex 16.4878 16.896 -2.06917e-15
      vertex 16.4878 16.896 -1
    endloop
  endfacet
  facet normal -0.998632 -0.0522869 0
    outer loop
      vertex 16.4878 16.896 -2.06917e-15
      vertex 16.5112 16.449 -1
      vertex 16.5112 16.449 -2.01442e-15
    endloop
  endfacet
  facet normal -0.986561 -0.16339 0
    outer loop
      vertex 16.4878 16.896 -1
      vertex 16.4176 17.3197 -2.12105e-15
      vertex 16.4176 17.3197 -1
    endloop
  endfacet
  facet normal -0.986561 -0.16339 0
    outer loop
      vertex 16.4176 17.3197 -2.12105e-15
      vertex 16.4878 16.896 -1
      vertex 16.4878 16.896 -2.06917e-15
    endloop
  endfacet
  facet normal -0.960639 -0.277801 0
    outer loop
      vertex 16.4176 17.3197 -1
      vertex 16.3124 17.6835 -2.1656e-15
      vertex 16.3124 17.6835 -1
    endloop
  endfacet
  facet normal -0.960639 -0.277801 0
    outer loop
      vertex 16.3124 17.6835 -2.1656e-15
      vertex 16.4176 17.3197 -1
      vertex 16.4176 17.3197 -2.12105e-15
    endloop
  endfacet
  facet normal -0.951046 -0.309049 0
    outer loop
      vertex 16.3124 17.6835 -1
      vertex 16.3008 17.7193 -2.16999e-15
      vertex 16.3008 17.7193 -1
    endloop
  endfacet
  facet normal -0.951046 -0.309049 0
    outer loop
      vertex 16.3008 17.7193 -2.16999e-15
      vertex 16.3124 17.6835 -1
      vertex 16.3124 17.6835 -2.1656e-15
    endloop
  endfacet
  facet normal -0.918037 -0.396496 0
    outer loop
      vertex 16.3008 17.7193 -1
      vertex 16.1535 18.0603 -2.21175e-15
      vertex 16.1535 18.0603 -1
    endloop
  endfacet
  facet normal -0.918037 -0.396496 0
    outer loop
      vertex 16.1535 18.0603 -2.21175e-15
      vertex 16.3008 17.7193 -1
      vertex 16.3008 17.7193 -2.16999e-15
    endloop
  endfacet
  facet normal -0.904709 -0.426031 0
    outer loop
      vertex 16.1535 18.0603 -1
      vertex 16.1374 18.0944 -2.21593e-15
      vertex 16.1374 18.0944 -1
    endloop
  endfacet
  facet normal -0.904709 -0.426031 0
    outer loop
      vertex 16.1374 18.0944 -2.21593e-15
      vertex 16.1535 18.0603 -1
      vertex 16.1535 18.0603 -2.21175e-15
    endloop
  endfacet
  facet normal -0.857958 -0.51372 0
    outer loop
      vertex 16.1374 18.0944 -1
      vertex 15.9279 18.4444 -2.25879e-15
      vertex 15.9279 18.4444 -1
    endloop
  endfacet
  facet normal -0.857958 -0.51372 0
    outer loop
      vertex 15.9279 18.4444 -2.25879e-15
      vertex 16.1374 18.0944 -1
      vertex 16.1374 18.0944 -2.21593e-15
    endloop
  endfacet
  facet normal -0.785659 -0.61866 0
    outer loop
      vertex 15.9279 18.4444 -1
      vertex 15.6724 18.7688 -2.29851e-15
      vertex 15.6724 18.7688 -1
    endloop
  endfacet
  facet normal -0.785659 -0.61866 0
    outer loop
      vertex 15.6724 18.7688 -2.29851e-15
      vertex 15.9279 18.4444 -1
      vertex 15.9279 18.4444 -2.25879e-15
    endloop
  endfacet
  facet normal -0.705841 -0.70837 0
    outer loop
      vertex 15.3989 19.0414 -1
      vertex 15.6724 18.7688 -2.29851e-15
      vertex 15.3989 19.0414 -2.33189e-15
    endloop
  endfacet
  facet normal -0.705841 -0.70837 -0
    outer loop
      vertex 15.6724 18.7688 -2.29851e-15
      vertex 15.3989 19.0414 -1
      vertex 15.6724 18.7688 -1
    endloop
  endfacet
  facet normal -0.68448 -0.729032 0
    outer loop
      vertex 15.3714 19.0671 -1
      vertex 15.3989 19.0414 -2.33189e-15
      vertex 15.3714 19.0671 -2.33505e-15
    endloop
  endfacet
  facet normal -0.68448 -0.729032 -0
    outer loop
      vertex 15.3989 19.0414 -2.33189e-15
      vertex 15.3714 19.0671 -1
      vertex 15.3989 19.0414 -1
    endloop
  endfacet
  facet normal -0.611593 -0.791172 0
    outer loop
      vertex 15.0578 19.3096 -1
      vertex 15.3714 19.0671 -2.33505e-15
      vertex 15.0578 19.3096 -2.36475e-15
    endloop
  endfacet
  facet normal -0.611593 -0.791172 -0
    outer loop
      vertex 15.3714 19.0671 -2.33505e-15
      vertex 15.0578 19.3096 -1
      vertex 15.3714 19.0671 -1
    endloop
  endfacet
  facet normal -0.587883 -0.808946 0
    outer loop
      vertex 15.0273 19.3318 -1
      vertex 15.0578 19.3096 -2.36475e-15
      vertex 15.0273 19.3318 -2.36746e-15
    endloop
  endfacet
  facet normal -0.587883 -0.808946 -0
    outer loop
      vertex 15.0578 19.3096 -2.36475e-15
      vertex 15.0273 19.3318 -1
      vertex 15.0578 19.3096 -1
    endloop
  endfacet
  facet normal -0.501324 -0.86526 0
    outer loop
      vertex 14.6418 19.5551 -1
      vertex 15.0273 19.3318 -2.36746e-15
      vertex 14.6418 19.5551 -2.39481e-15
    endloop
  endfacet
  facet normal -0.501324 -0.86526 -0
    outer loop
      vertex 15.0273 19.3318 -2.36746e-15
      vertex 14.6418 19.5551 -1
      vertex 15.0273 19.3318 -1
    endloop
  endfacet
  facet normal -0.392218 -0.919872 0
    outer loop
      vertex 14.2156 19.7368 -1
      vertex 14.6418 19.5551 -2.39481e-15
      vertex 14.2156 19.7368 -2.41707e-15
    endloop
  endfacet
  facet normal -0.392218 -0.919872 -0
    outer loop
      vertex 14.6418 19.5551 -2.39481e-15
      vertex 14.2156 19.7368 -1
      vertex 14.6418 19.5551 -1
    endloop
  endfacet
  facet normal -0.290545 -0.956861 0
    outer loop
      vertex 13.7856 19.8674 -1
      vertex 14.2156 19.7368 -2.41707e-15
      vertex 13.7856 19.8674 -2.43306e-15
    endloop
  endfacet
  facet normal -0.290545 -0.956861 -0
    outer loop
      vertex 14.2156 19.7368 -2.41707e-15
      vertex 13.7856 19.8674 -1
      vertex 14.2156 19.7368 -1
    endloop
  endfacet
  facet normal -0.248726 -0.968574 0
    outer loop
      vertex 13.7491 19.8768 -1
      vertex 13.7856 19.8674 -2.43306e-15
      vertex 13.7491 19.8768 -2.4342e-15
    endloop
  endfacet
  facet normal -0.248726 -0.968574 -0
    outer loop
      vertex 13.7856 19.8674 -2.43306e-15
      vertex 13.7491 19.8768 -1
      vertex 13.7856 19.8674 -1
    endloop
  endfacet
  facet normal -0.195152 -0.980773 0
    outer loop
      vertex 13.2803 19.9701 -1
      vertex 13.7491 19.8768 -2.4342e-15
      vertex 13.2803 19.9701 -2.44563e-15
    endloop
  endfacet
  facet normal -0.195152 -0.980773 -0
    outer loop
      vertex 13.7491 19.8768 -2.4342e-15
      vertex 13.2803 19.9701 -1
      vertex 13.7491 19.8768 -1
    endloop
  endfacet
  facet normal -0.110676 -0.993857 0
    outer loop
      vertex 12.7354 20.0307 -1
      vertex 13.2803 19.9701 -2.44563e-15
      vertex 12.7354 20.0307 -2.45306e-15
    endloop
  endfacet
  facet normal -0.110676 -0.993857 -0
    outer loop
      vertex 13.2803 19.9701 -2.44563e-15
      vertex 12.7354 20.0307 -1
      vertex 13.2803 19.9701 -1
    endloop
  endfacet
  facet normal -0.0341383 -0.999417 0
    outer loop
      vertex 12.189 20.0494 -1
      vertex 12.7354 20.0307 -2.45306e-15
      vertex 12.189 20.0494 -2.45534e-15
    endloop
  endfacet
  facet normal -0.0341383 -0.999417 -0
    outer loop
      vertex 12.7354 20.0307 -2.45306e-15
      vertex 12.189 20.0494 -1
      vertex 12.7354 20.0307 -1
    endloop
  endfacet
  facet normal 0 -1 0
    outer loop
      vertex -7.30061 20.0494 -1
      vertex 12.189 20.0494 -2.45534e-15
      vertex -7.30061 20.0494 -2.45534e-15
    endloop
  endfacet
  facet normal 0 -1 -0
    outer loop
      vertex 12.189 20.0494 -2.45534e-15
      vertex -7.30061 20.0494 -1
      vertex 12.189 20.0494 -1
    endloop
  endfacet
  facet normal -3.8147e-08 3.8147e-08 1
    outer loop
      vertex 25 25 23.2
      vertex 24 24 23.2
      vertex 25 -25 23.2
    endloop
  endfacet
  facet normal 0 0 1
    outer loop
      vertex 25 25 23.2
      vertex -24 24 23.2
      vertex 24 24 23.2
    endloop
  endfacet
  facet normal 3.97364e-08 3.97364e-08 1
    outer loop
      vertex -24 24 23.2
      vertex -25 25 23.2
      vertex -24 -24 23.2
    endloop
  endfacet
  facet normal -0 0 1
    outer loop
      vertex -25 25 23.2
      vertex -24 24 23.2
      vertex 25 25 23.2
    endloop
  endfacet
  facet normal 3.97364e-08 3.97364e-08 1
    outer loop
      vertex 24 -24 23.2
      vertex 25 -25 23.2
      vertex 24 24 23.2
    endloop
  endfacet
  facet normal -0 0 1
    outer loop
      vertex -24 -24 23.2
      vertex 25 -25 23.2
      vertex 24 -24 23.2
    endloop
  endfacet
  facet normal 0 0 1
    outer loop
      vertex -24 -24 23.2
      vertex -25 -25 23.2
      vertex 25 -25 23.2
    endloop
  endfacet
  facet normal -3.8147e-08 3.8147e-08 1
    outer loop
      vertex -25 -25 23.2
      vertex -24 -24 23.2
      vertex -25 25 23.2
    endloop
  endfacet
endsolid OpenSCAD_Model
