solid OpenSCAD_Model
  facet normal -1 0 0
    outer loop
      vertex -25 -25 -1
      vertex -25 25 23.2
      vertex -25 25 -1
    endloop
  endfacet
  facet normal -1 -0 0
    outer loop
      vertex -25 25 23.2
      vertex -25 -25 -1
      vertex -25 -25 23.2
    endloop
  endfacet
  facet normal -1.46919e-23 1.22465e-16 1
    outer loop
      vertex 14.8395 0.784988 -9.61334e-17
      vertex 24 24 -2.93915e-15
      vertex 14.8395 3.53699 -4.33156e-16
    endloop
  endfacet
  facet normal 1.01832e-21 1.22464e-16 1
    outer loop
      vertex 24 24 -2.93915e-15
      vertex 14.8371 3.57458 -4.3776e-16
      vertex 14.8395 3.53699 -4.33156e-16
    endloop
  endfacet
  facet normal -5.67749e-22 1.22465e-16 1
    outer loop
      vertex 24 24 -2.93915e-15
      vertex 14.8301 3.61159 -4.42292e-16
      vertex 14.8371 3.57458 -4.3776e-16
    endloop
  endfacet
  facet normal -3.87427e-22 1.22465e-16 1
    outer loop
      vertex 24 24 -2.93915e-15
      vertex 14.8184 3.64742 -4.4668e-16
      vertex 14.8301 3.61159 -4.42292e-16
    endloop
  endfacet
  facet normal -3.03146e-22 1.22465e-16 1
    outer loop
      vertex 24 24 -2.93915e-15
      vertex 14.8024 3.6815 -4.50854e-16
      vertex 14.8184 3.64742 -4.4668e-16
    endloop
  endfacet
  facet normal 6.30379e-22 1.22464e-16 1
    outer loop
      vertex 24 24 -2.93915e-15
      vertex 14.7822 3.71332 -4.5475e-16
      vertex 14.8024 3.6815 -4.50854e-16
    endloop
  endfacet
  facet normal -1.83246e-22 1.22465e-16 1
    outer loop
      vertex 24 24 -2.93915e-15
      vertex 14.7582 3.74234 -4.58304e-16
      vertex 14.7822 3.71332 -4.5475e-16
    endloop
  endfacet
  facet normal -4.22758e-22 1.22465e-16 1
    outer loop
      vertex 24 24 -2.93915e-15
      vertex 14.7307 3.76813 -4.61463e-16
      vertex 14.7582 3.74234 -4.58304e-16
    endloop
  endfacet
  facet normal 9.8092e-22 1.22464e-16 1
    outer loop
      vertex 24 24 -2.93915e-15
      vertex 14.7002 3.79028 -4.64176e-16
      vertex 14.7307 3.76813 -4.61463e-16
    endloop
  endfacet
  facet normal -8.07362e-22 1.22465e-16 1
    outer loop
      vertex 24 24 -2.93915e-15
      vertex 14.6672 3.80843 -4.66398e-16
      vertex 14.7002 3.79028 -4.64176e-16
    endloop
  endfacet
  facet normal -1.05055e-22 1.22465e-16 1
    outer loop
      vertex 24 24 -2.93915e-15
      vertex 14.6322 3.8223 -4.68096e-16
      vertex 14.6672 3.80843 -4.66398e-16
    endloop
  endfacet
  facet normal -5.03937e-24 1.22465e-16 1
    outer loop
      vertex 24 24 -2.93915e-15
      vertex 14.5957 3.83167 -4.69244e-16
      vertex 14.6322 3.8223 -4.68096e-16
    endloop
  endfacet
  facet normal 5.24417e-22 1.22464e-16 1
    outer loop
      vertex 24 24 -2.93915e-15
      vertex 14.5583 3.8364 -4.69823e-16
      vertex 14.5957 3.83167 -4.69244e-16
    endloop
  endfacet
  facet normal 0 1.22465e-16 1
    outer loop
      vertex 24 24 -2.93915e-15
      vertex -13.9073 3.8364 -4.69823e-16
      vertex 14.5583 3.8364 -4.69823e-16
    endloop
  endfacet
  facet normal -0 1.22465e-16 1
    outer loop
      vertex -24 24 -2.93915e-15
      vertex -13.9073 3.8364 -4.69823e-16
      vertex 24 24 -2.93915e-15
    endloop
  endfacet
  facet normal -5.22402e-22 1.22464e-16 1
    outer loop
      vertex -13.9073 3.8364 -4.69823e-16
      vertex -24 24 -2.93915e-15
      vertex -13.9447 3.83167 -4.69244e-16
    endloop
  endfacet
  facet normal 5.00234e-24 1.22465e-16 1
    outer loop
      vertex -13.9447 3.83167 -4.69244e-16
      vertex -24 24 -2.93915e-15
      vertex -13.9812 3.8223 -4.68096e-16
    endloop
  endfacet
  facet normal 1.37171e-23 1.22465e-16 1
    outer loop
      vertex -14.1885 3.53699 -4.33156e-16
      vertex -24 24 -2.93915e-15
      vertex -14.1885 0.784988 -9.61334e-17
    endloop
  endfacet
  facet normal -9.58587e-22 1.22464e-16 1
    outer loop
      vertex -14.1861 3.57458 -4.3776e-16
      vertex -24 24 -2.93915e-15
      vertex -14.1885 3.53699 -4.33156e-16
    endloop
  endfacet
  facet normal 5.40781e-22 1.22465e-16 1
    outer loop
      vertex -14.1791 3.61159 -4.42292e-16
      vertex -24 24 -2.93915e-15
      vertex -14.1861 3.57458 -4.3776e-16
    endloop
  endfacet
  facet normal 3.72091e-22 1.22465e-16 1
    outer loop
      vertex -14.1674 3.64742 -4.4668e-16
      vertex -24 24 -2.93915e-15
      vertex -14.1791 3.61159 -4.42292e-16
    endloop
  endfacet
  facet normal 2.92982e-22 1.22465e-16 1
    outer loop
      vertex -14.1514 3.6815 -4.50854e-16
      vertex -24 24 -2.93915e-15
      vertex -14.1674 3.64742 -4.4668e-16
    endloop
  endfacet
  facet normal -6.12334e-22 1.22464e-16 1
    outer loop
      vertex -14.1312 3.71332 -4.5475e-16
      vertex -24 24 -2.93915e-15
      vertex -14.1514 3.6815 -4.50854e-16
    endloop
  endfacet
  facet normal 1.78769e-22 1.22465e-16 1
    outer loop
      vertex -14.1072 3.74234 -4.58304e-16
      vertex -24 24 -2.93915e-15
      vertex -14.1312 3.71332 -4.5475e-16
    endloop
  endfacet
  facet normal 4.14013e-22 1.22465e-16 1
    outer loop
      vertex -14.0797 3.76813 -4.61463e-16
      vertex -24 24 -2.93915e-15
      vertex -14.1072 3.74234 -4.58304e-16
    endloop
  endfacet
  facet normal -9.64009e-22 1.22464e-16 1
    outer loop
      vertex -14.0492 3.79028 -4.64176e-16
      vertex -24 24 -2.93915e-15
      vertex -14.0797 3.76813 -4.61463e-16
    endloop
  endfacet
  facet normal 7.96111e-22 1.22465e-16 1
    outer loop
      vertex -14.0162 3.80843 -4.66398e-16
      vertex -24 24 -2.93915e-15
      vertex -14.0492 3.79028 -4.64176e-16
    endloop
  endfacet
  facet normal 1.03934e-22 1.22465e-16 1
    outer loop
      vertex -13.9812 3.8223 -4.68096e-16
      vertex -24 24 -2.93915e-15
      vertex -14.0162 3.80843 -4.66398e-16
    endloop
  endfacet
  facet normal -5.4811e-25 1.22465e-16 1
    outer loop
      vertex 24 24 -2.93915e-15
      vertex 14.8395 0.784988 -9.61334e-17
      vertex 24 -24 2.93915e-15
    endloop
  endfacet
  facet normal 1.59579e-23 1.22465e-16 1
    outer loop
      vertex 14.8371 0.747391 -9.1529e-17
      vertex 24 -24 2.93915e-15
      vertex 14.8395 0.784988 -9.61334e-17
    endloop
  endfacet
  facet normal 8.8319e-24 1.22465e-16 1
    outer loop
      vertex 14.8301 0.710388 -8.69975e-17
      vertex 24 -24 2.93915e-15
      vertex 14.8371 0.747391 -9.1529e-17
    endloop
  endfacet
  facet normal 1.64589e-22 1.22465e-16 1
    outer loop
      vertex 14.8184 0.674561 -8.26098e-17
      vertex 24 -24 2.93915e-15
      vertex 14.8301 0.710388 -8.69975e-17
    endloop
  endfacet
  facet normal -1.30472e-22 1.22465e-16 1
    outer loop
      vertex 14.8024 0.640472 -7.84353e-17
      vertex 24 -24 2.93915e-15
      vertex 14.8184 0.674561 -8.26098e-17
    endloop
  endfacet
  facet normal 1.43663e-22 1.22465e-16 1
    outer loop
      vertex 14.7822 0.608658 -7.45391e-17
      vertex 24 -24 2.93915e-15
      vertex 14.8024 0.640472 -7.84353e-17
    endloop
  endfacet
  facet normal 5.15625e-24 1.22465e-16 1
    outer loop
      vertex 14.7582 0.579636 -7.09849e-17
      vertex 24 -24 2.93915e-15
      vertex 14.7822 0.608658 -7.45391e-17
    endloop
  endfacet
  facet normal -8.85698e-23 1.22465e-16 1
    outer loop
      vertex 14.7307 0.553848 -6.78269e-17
      vertex 24 -24 2.93915e-15
      vertex 14.7582 0.579636 -7.09849e-17
    endloop
  endfacet
  facet normal -5.13602e-24 1.22465e-16 1
    outer loop
      vertex 14.7002 0.531693 -6.51136e-17
      vertex 24 -24 2.93915e-15
      vertex 14.7307 0.553848 -6.78269e-17
    endloop
  endfacet
  facet normal 7.55511e-24 1.22465e-16 1
    outer loop
      vertex 14.6672 0.51355 -6.28917e-17
      vertex 24 -24 2.93915e-15
      vertex 14.7002 0.531693 -6.51136e-17
    endloop
  endfacet
  facet normal -5.66814e-23 1.22465e-16 1
    outer loop
      vertex 14.6322 0.49968 -6.11931e-17
      vertex 24 -24 2.93915e-15
      vertex 14.6672 0.51355 -6.28917e-17
    endloop
  endfacet
  facet normal 4.69811e-24 1.22465e-16 1
    outer loop
      vertex 14.5957 0.490311 -6.00457e-17
      vertex 24 -24 2.93915e-15
      vertex 14.6322 0.49968 -6.11931e-17
    endloop
  endfacet
  facet normal 1.45392e-22 1.22465e-16 1
    outer loop
      vertex 14.5583 0.48558 -5.94665e-17
      vertex 24 -24 2.93915e-15
      vertex 14.5957 0.490311 -6.00457e-17
    endloop
  endfacet
  facet normal -0 1.22465e-16 1
    outer loop
      vertex -13.9073 0.48558 -5.94665e-17
      vertex 24 -24 2.93915e-15
      vertex 14.5583 0.48558 -5.94665e-17
    endloop
  endfacet
  facet normal -1.44927e-22 1.22465e-16 1
    outer loop
      vertex -24 -24 2.93915e-15
      vertex -13.9073 0.48558 -5.94665e-17
      vertex -13.9447 0.490311 -6.00457e-17
    endloop
  endfacet
  facet normal -4.6691e-24 1.22465e-16 1
    outer loop
      vertex -24 -24 2.93915e-15
      vertex -13.9447 0.490311 -6.00457e-17
      vertex -13.9812 0.49968 -6.11931e-17
    endloop
  endfacet
  facet normal 5.61682e-23 1.22465e-16 1
    outer loop
      vertex -24 -24 2.93915e-15
      vertex -13.9812 0.49968 -6.11931e-17
      vertex -14.0162 0.51355 -6.28917e-17
    endloop
  endfacet
  facet normal -7.465e-24 1.22465e-16 1
    outer loop
      vertex -24 -24 2.93915e-15
      vertex -14.0162 0.51355 -6.28917e-17
      vertex -14.0492 0.531693 -6.51136e-17
    endloop
  endfacet
  facet normal 5.11743e-25 1.22465e-16 1
    outer loop
      vertex -24 -24 2.93915e-15
      vertex -14.1885 0.784988 -9.61334e-17
      vertex -24 24 -2.93915e-15
    endloop
  endfacet
  facet normal -1.50442e-23 1.22465e-16 1
    outer loop
      vertex -14.1885 0.784988 -9.61334e-17
      vertex -24 -24 2.93915e-15
      vertex -14.1861 0.747391 -9.1529e-17
    endloop
  endfacet
  facet normal -8.43616e-24 1.22465e-16 1
    outer loop
      vertex -14.1861 0.747391 -9.1529e-17
      vertex -24 -24 2.93915e-15
      vertex -14.1791 0.710388 -8.69975e-17
    endloop
  endfacet
  facet normal 0 1.22465e-16 1
    outer loop
      vertex -13.9073 0.48558 -5.94665e-17
      vertex -24 -24 2.93915e-15
      vertex 24 -24 2.93915e-15
    endloop
  endfacet
  facet normal 5.05952e-24 1.22465e-16 1
    outer loop
      vertex -14.0797 0.553848 -6.78269e-17
      vertex -24 -24 2.93915e-15
      vertex -14.0492 0.531693 -6.51136e-17
    endloop
  endfacet
  facet normal 8.69714e-23 1.22465e-16 1
    outer loop
      vertex -14.1072 0.579636 -7.09849e-17
      vertex -24 -24 2.93915e-15
      vertex -14.0797 0.553848 -6.78269e-17
    endloop
  endfacet
  facet normal -5.04518e-24 1.22465e-16 1
    outer loop
      vertex -14.1312 0.608658 -7.45391e-17
      vertex -24 -24 2.93915e-15
      vertex -14.1072 0.579636 -7.09849e-17
    endloop
  endfacet
  facet normal -1.39993e-22 1.22465e-16 1
    outer loop
      vertex -14.1514 0.640472 -7.84353e-17
      vertex -24 -24 2.93915e-15
      vertex -14.1312 0.608658 -7.45391e-17
    endloop
  endfacet
  facet normal 1.26512e-22 1.22465e-16 1
    outer loop
      vertex -14.1674 0.674561 -8.26098e-17
      vertex -24 -24 2.93915e-15
      vertex -14.1514 0.640472 -7.84353e-17
    endloop
  endfacet
  facet normal -1.58587e-22 1.22465e-16 1
    outer loop
      vertex -14.1791 0.710388 -8.69975e-17
      vertex -24 -24 2.93915e-15
      vertex -14.1674 0.674561 -8.26098e-17
    endloop
  endfacet
  facet normal 1 0 0
    outer loop
      vertex 25 -25 23.2
      vertex 25 25 -1
      vertex 25 25 23.2
    endloop
  endfacet
  facet normal 1 0 0
    outer loop
      vertex 25 25 -1
      vertex 25 -25 23.2
      vertex 25 -25 -1
    endloop
  endfacet
  facet normal 0 -1 0
    outer loop
      vertex -25 -25 -1
      vertex 25 -25 23.2
      vertex -25 -25 23.2
    endloop
  endfacet
  facet normal 0 -1 -0
    outer loop
      vertex 25 -25 23.2
      vertex -25 -25 -1
      vertex 25 -25 -1
    endloop
  endfacet
  facet normal 0 1 -0
    outer loop
      vertex 25 25 -1
      vertex -25 25 23.2
      vertex 25 25 23.2
    endloop
  endfacet
  facet normal 0 1 0
    outer loop
      vertex -25 25 23.2
      vertex 25 25 -1
      vertex -25 25 -1
    endloop
  endfacet
  facet normal 1 0 0
    outer loop
      vertex -24 -24 23.2
      vertex -24 24 -2.93915e-15
      vertex -24 24 23.2
    endloop
  endfacet
  facet normal 1 0 0
    outer loop
      vertex -24 24 -2.93915e-15
      vertex -24 -24 23.2
      vertex -24 -24 2.93915e-15
    endloop
  endfacet
  facet normal -1 0 0
    outer loop
      vertex 24 -24 2.93915e-15
      vertex 24 24 23.2
      vertex 24 24 -2.93915e-15
    endloop
  endfacet
  facet normal -1 -0 0
    outer loop
      vertex 24 24 23.2
      vertex 24 -24 2.93915e-15
      vertex 24 -24 23.2
    endloop
  endfacet
  facet normal 0 1 -0
    outer loop
      vertex 24 -24 2.93915e-15
      vertex -24 -24 23.2
      vertex 24 -24 23.2
    endloop
  endfacet
  facet normal 0 1 0
    outer loop
      vertex -24 -24 23.2
      vertex 24 -24 2.93915e-15
      vertex -24 -24 2.93915e-15
    endloop
  endfacet
  facet normal 0 -1 0
    outer loop
      vertex -24 24 -2.93915e-15
      vertex 24 24 23.2
      vertex -24 24 23.2
    endloop
  endfacet
  facet normal 0 -1 -0
    outer loop
      vertex 24 24 23.2
      vertex -24 24 -2.93915e-15
      vertex 24 24 -2.93915e-15
    endloop
  endfacet
  facet normal 0 0 -1
    outer loop
      vertex 25 -25 -1
      vertex 14.8395 0.784988 -1
      vertex 25 25 -1
    endloop
  endfacet
  facet normal 0 0 -1
    outer loop
      vertex 25 -25 -1
      vertex 14.8371 0.747391 -1
      vertex 14.8395 0.784988 -1
    endloop
  endfacet
  facet normal 0 0 -1
    outer loop
      vertex 25 -25 -1
      vertex 14.8301 0.710388 -1
      vertex 14.8371 0.747391 -1
    endloop
  endfacet
  facet normal 0 0 -1
    outer loop
      vertex 25 -25 -1
      vertex 14.8184 0.674561 -1
      vertex 14.8301 0.710388 -1
    endloop
  endfacet
  facet normal 0 0 -1
    outer loop
      vertex 25 -25 -1
      vertex 14.8024 0.640472 -1
      vertex 14.8184 0.674561 -1
    endloop
  endfacet
  facet normal 0 0 -1
    outer loop
      vertex 25 -25 -1
      vertex 14.7822 0.608658 -1
      vertex 14.8024 0.640472 -1
    endloop
  endfacet
  facet normal 0 0 -1
    outer loop
      vertex 25 -25 -1
      vertex 14.7582 0.579636 -1
      vertex 14.7822 0.608658 -1
    endloop
  endfacet
  facet normal 0 0 -1
    outer loop
      vertex 25 -25 -1
      vertex 14.7307 0.553848 -1
      vertex 14.7582 0.579636 -1
    endloop
  endfacet
  facet normal 0 0 -1
    outer loop
      vertex 25 -25 -1
      vertex 14.7002 0.531693 -1
      vertex 14.7307 0.553848 -1
    endloop
  endfacet
  facet normal 0 0 -1
    outer loop
      vertex 25 -25 -1
      vertex 14.6672 0.51355 -1
      vertex 14.7002 0.531693 -1
    endloop
  endfacet
  facet normal 0 0 -1
    outer loop
      vertex 25 -25 -1
      vertex 14.6322 0.49968 -1
      vertex 14.6672 0.51355 -1
    endloop
  endfacet
  facet normal 0 0 -1
    outer loop
      vertex 25 -25 -1
      vertex 14.5957 0.490311 -1
      vertex 14.6322 0.49968 -1
    endloop
  endfacet
  facet normal 0 0 -1
    outer loop
      vertex 25 -25 -1
      vertex 14.5583 0.48558 -1
      vertex 14.5957 0.490311 -1
    endloop
  endfacet
  facet normal 0 0 -1
    outer loop
      vertex 25 -25 -1
      vertex -13.9073 0.48558 -1
      vertex 14.5583 0.48558 -1
    endloop
  endfacet
  facet normal 0 0 -1
    outer loop
      vertex -25 -25 -1
      vertex -13.9073 0.48558 -1
      vertex 25 -25 -1
    endloop
  endfacet
  facet normal -0 0 -1
    outer loop
      vertex -13.9073 0.48558 -1
      vertex -25 -25 -1
      vertex -13.9447 0.490311 -1
    endloop
  endfacet
  facet normal -0 0 -1
    outer loop
      vertex -13.9447 0.490311 -1
      vertex -25 -25 -1
      vertex -13.9812 0.49968 -1
    endloop
  endfacet
  facet normal -0 0 -1
    outer loop
      vertex -13.9812 0.49968 -1
      vertex -25 -25 -1
      vertex -14.0162 0.51355 -1
    endloop
  endfacet
  facet normal 0 0 -1
    outer loop
      vertex -25 25 -1
      vertex -14.1885 0.784988 -1
      vertex -25 -25 -1
    endloop
  endfacet
  facet normal -0 0 -1
    outer loop
      vertex -14.1861 0.747391 -1
      vertex -25 -25 -1
      vertex -14.1885 0.784988 -1
    endloop
  endfacet
  facet normal -0 0 -1
    outer loop
      vertex -14.1791 0.710388 -1
      vertex -25 -25 -1
      vertex -14.1861 0.747391 -1
    endloop
  endfacet
  facet normal -0 0 -1
    outer loop
      vertex -14.1674 0.674561 -1
      vertex -25 -25 -1
      vertex -14.1791 0.710388 -1
    endloop
  endfacet
  facet normal -0 0 -1
    outer loop
      vertex -14.1514 0.640472 -1
      vertex -25 -25 -1
      vertex -14.1674 0.674561 -1
    endloop
  endfacet
  facet normal -0 0 -1
    outer loop
      vertex -14.1312 0.608658 -1
      vertex -25 -25 -1
      vertex -14.1514 0.640472 -1
    endloop
  endfacet
  facet normal -0 0 -1
    outer loop
      vertex -14.1072 0.579636 -1
      vertex -25 -25 -1
      vertex -14.1312 0.608658 -1
    endloop
  endfacet
  facet normal -0 0 -1
    outer loop
      vertex -14.0797 0.553848 -1
      vertex -25 -25 -1
      vertex -14.1072 0.579636 -1
    endloop
  endfacet
  facet normal -0 0 -1
    outer loop
      vertex -14.0492 0.531693 -1
      vertex -25 -25 -1
      vertex -14.0797 0.553848 -1
    endloop
  endfacet
  facet normal -0 0 -1
    outer loop
      vertex -14.0162 0.51355 -1
      vertex -25 -25 -1
      vertex -14.0492 0.531693 -1
    endloop
  endfacet
  facet normal 0 0 -1
    outer loop
      vertex 14.8395 3.53699 -1
      vertex 25 25 -1
      vertex 14.8395 0.784988 -1
    endloop
  endfacet
  facet normal 0 0 -1
    outer loop
      vertex 14.8371 3.57458 -1
      vertex 25 25 -1
      vertex 14.8395 3.53699 -1
    endloop
  endfacet
  facet normal 0 0 -1
    outer loop
      vertex 14.8301 3.61159 -1
      vertex 25 25 -1
      vertex 14.8371 3.57458 -1
    endloop
  endfacet
  facet normal 0 0 -1
    outer loop
      vertex 14.8184 3.64742 -1
      vertex 25 25 -1
      vertex 14.8301 3.61159 -1
    endloop
  endfacet
  facet normal 0 0 -1
    outer loop
      vertex 14.8024 3.6815 -1
      vertex 25 25 -1
      vertex 14.8184 3.64742 -1
    endloop
  endfacet
  facet normal 0 0 -1
    outer loop
      vertex 14.7822 3.71332 -1
      vertex 25 25 -1
      vertex 14.8024 3.6815 -1
    endloop
  endfacet
  facet normal 0 0 -1
    outer loop
      vertex 14.7582 3.74234 -1
      vertex 25 25 -1
      vertex 14.7822 3.71332 -1
    endloop
  endfacet
  facet normal 0 0 -1
    outer loop
      vertex 14.7307 3.76813 -1
      vertex 25 25 -1
      vertex 14.7582 3.74234 -1
    endloop
  endfacet
  facet normal 0 0 -1
    outer loop
      vertex 14.7002 3.79028 -1
      vertex 25 25 -1
      vertex 14.7307 3.76813 -1
    endloop
  endfacet
  facet normal 0 0 -1
    outer loop
      vertex 14.6672 3.80843 -1
      vertex 25 25 -1
      vertex 14.7002 3.79028 -1
    endloop
  endfacet
  facet normal 0 0 -1
    outer loop
      vertex 14.6322 3.8223 -1
      vertex 25 25 -1
      vertex 14.6672 3.80843 -1
    endloop
  endfacet
  facet normal 0 0 -1
    outer loop
      vertex 14.5957 3.83167 -1
      vertex 25 25 -1
      vertex 14.6322 3.8223 -1
    endloop
  endfacet
  facet normal 0 0 -1
    outer loop
      vertex 14.5583 3.8364 -1
      vertex 25 25 -1
      vertex 14.5957 3.83167 -1
    endloop
  endfacet
  facet normal 0 0 -1
    outer loop
      vertex -13.9073 3.8364 -1
      vertex 25 25 -1
      vertex 14.5583 3.8364 -1
    endloop
  endfacet
  facet normal 0 0 -1
    outer loop
      vertex -25 25 -1
      vertex -13.9073 3.8364 -1
      vertex -13.9447 3.83167 -1
    endloop
  endfacet
  facet normal 0 0 -1
    outer loop
      vertex -25 25 -1
      vertex -13.9447 3.83167 -1
      vertex -13.9812 3.8223 -1
    endloop
  endfacet
  facet normal 0 0 -1
    outer loop
      vertex -25 25 -1
      vertex -13.9812 3.8223 -1
      vertex -14.0162 3.80843 -1
    endloop
  endfacet
  facet normal 0 0 -1
    outer loop
      vertex -14.1885 0.784988 -1
      vertex -25 25 -1
      vertex -14.1885 3.53699 -1
    endloop
  endfacet
  facet normal 0 0 -1
    outer loop
      vertex -14.1885 3.53699 -1
      vertex -25 25 -1
      vertex -14.1861 3.57458 -1
    endloop
  endfacet
  facet normal 0 0 -1
    outer loop
      vertex -14.1861 3.57458 -1
      vertex -25 25 -1
      vertex -14.1791 3.61159 -1
    endloop
  endfacet
  facet normal 0 0 -1
    outer loop
      vertex -13.9073 3.8364 -1
      vertex -25 25 -1
      vertex 25 25 -1
    endloop
  endfacet
  facet normal 0 0 -1
    outer loop
      vertex -14.0492 3.79028 -1
      vertex -25 25 -1
      vertex -14.0162 3.80843 -1
    endloop
  endfacet
  facet normal 0 0 -1
    outer loop
      vertex -14.0797 3.76813 -1
      vertex -25 25 -1
      vertex -14.0492 3.79028 -1
    endloop
  endfacet
  facet normal 0 0 -1
    outer loop
      vertex -14.1072 3.74234 -1
      vertex -25 25 -1
      vertex -14.0797 3.76813 -1
    endloop
  endfacet
  facet normal 0 0 -1
    outer loop
      vertex -14.1312 3.71332 -1
      vertex -25 25 -1
      vertex -14.1072 3.74234 -1
    endloop
  endfacet
  facet normal 0 0 -1
    outer loop
      vertex -14.1514 3.6815 -1
      vertex -25 25 -1
      vertex -14.1312 3.71332 -1
    endloop
  endfacet
  facet normal 0 0 -1
    outer loop
      vertex -14.1674 3.64742 -1
      vertex -25 25 -1
      vertex -14.1514 3.6815 -1
    endloop
  endfacet
  facet normal 0 0 -1
    outer loop
      vertex -14.1791 3.61159 -1
      vertex -25 25 -1
      vertex -14.1674 3.64742 -1
    endloop
  endfacet
  facet normal 0.12553 -0.99209 0
    outer loop
      vertex -13.9447 3.83167 -1
      vertex -13.9073 3.8364 -4.69823e-16
      vertex -13.9447 3.83167 -4.69244e-16
    endloop
  endfacet
  facet normal 0.12553 -0.99209 0
    outer loop
      vertex -13.9073 3.8364 -4.69823e-16
      vertex -13.9447 3.83167 -1
      vertex -13.9073 3.8364 -1
    endloop
  endfacet
  facet normal 0.248726 -0.968574 0
    outer loop
      vertex -13.9812 3.8223 -1
      vertex -13.9447 3.83167 -4.69244e-16
      vertex -13.9812 3.8223 -4.68096e-16
    endloop
  endfacet
  facet normal 0.248726 -0.968574 0
    outer loop
      vertex -13.9447 3.83167 -4.69244e-16
      vertex -13.9812 3.8223 -1
      vertex -13.9447 3.83167 -1
    endloop
  endfacet
  facet normal 0.368107 -0.929784 0
    outer loop
      vertex -14.0162 3.80843 -1
      vertex -13.9812 3.8223 -4.68096e-16
      vertex -14.0162 3.80843 -4.66398e-16
    endloop
  endfacet
  facet normal 0.368107 -0.929784 0
    outer loop
      vertex -13.9812 3.8223 -4.68096e-16
      vertex -14.0162 3.80843 -1
      vertex -13.9812 3.8223 -1
    endloop
  endfacet
  facet normal 0.481717 -0.876327 0
    outer loop
      vertex -14.0492 3.79028 -1
      vertex -14.0162 3.80843 -4.66398e-16
      vertex -14.0492 3.79028 -4.64176e-16
    endloop
  endfacet
  facet normal 0.481717 -0.876327 0
    outer loop
      vertex -14.0162 3.80843 -4.66398e-16
      vertex -14.0492 3.79028 -1
      vertex -14.0162 3.80843 -1
    endloop
  endfacet
  facet normal 0.587883 -0.808946 0
    outer loop
      vertex -14.0797 3.76813 -1
      vertex -14.0492 3.79028 -4.64176e-16
      vertex -14.0797 3.76813 -4.61463e-16
    endloop
  endfacet
  facet normal 0.587883 -0.808946 0
    outer loop
      vertex -14.0492 3.79028 -4.64176e-16
      vertex -14.0797 3.76813 -1
      vertex -14.0492 3.79028 -1
    endloop
  endfacet
  facet normal 0.68448 -0.729032 0
    outer loop
      vertex -14.1072 3.74234 -1
      vertex -14.0797 3.76813 -4.61463e-16
      vertex -14.1072 3.74234 -4.58304e-16
    endloop
  endfacet
  facet normal 0.68448 -0.729032 0
    outer loop
      vertex -14.0797 3.76813 -4.61463e-16
      vertex -14.1072 3.74234 -1
      vertex -14.0797 3.76813 -1
    endloop
  endfacet
  facet normal 0.770607 -0.637311 0
    outer loop
      vertex -14.1312 3.71332 -4.5475e-16
      vertex -14.1072 3.74234 -1
      vertex -14.1072 3.74234 -4.58304e-16
    endloop
  endfacet
  facet normal 0.770607 -0.637311 0
    outer loop
      vertex -14.1072 3.74234 -1
      vertex -14.1312 3.71332 -4.5475e-16
      vertex -14.1312 3.71332 -1
    endloop
  endfacet
  facet normal 0.844361 -0.535774 0
    outer loop
      vertex -14.1514 3.6815 -4.50854e-16
      vertex -14.1312 3.71332 -1
      vertex -14.1312 3.71332 -4.5475e-16
    endloop
  endfacet
  facet normal 0.844361 -0.535774 0
    outer loop
      vertex -14.1312 3.71332 -1
      vertex -14.1514 3.6815 -4.50854e-16
      vertex -14.1514 3.6815 -1
    endloop
  endfacet
  facet normal 0.904709 -0.426031 0
    outer loop
      vertex -14.1674 3.64742 -4.4668e-16
      vertex -14.1514 3.6815 -1
      vertex -14.1514 3.6815 -4.50854e-16
    endloop
  endfacet
  facet normal 0.904709 -0.426031 0
    outer loop
      vertex -14.1514 3.6815 -1
      vertex -14.1674 3.64742 -4.4668e-16
      vertex -14.1674 3.64742 -1
    endloop
  endfacet
  facet normal 0.951046 -0.309049 0
    outer loop
      vertex -14.1791 3.61159 -4.42292e-16
      vertex -14.1674 3.64742 -1
      vertex -14.1674 3.64742 -4.4668e-16
    endloop
  endfacet
  facet normal 0.951046 -0.309049 0
    outer loop
      vertex -14.1674 3.64742 -1
      vertex -14.1791 3.61159 -4.42292e-16
      vertex -14.1791 3.61159 -1
    endloop
  endfacet
  facet normal 0.982331 -0.187149 0
    outer loop
      vertex -14.1861 3.57458 -4.3776e-16
      vertex -14.1791 3.61159 -1
      vertex -14.1791 3.61159 -4.42292e-16
    endloop
  endfacet
  facet normal 0.982331 -0.187149 0
    outer loop
      vertex -14.1791 3.61159 -1
      vertex -14.1861 3.57458 -4.3776e-16
      vertex -14.1861 3.57458 -1
    endloop
  endfacet
  facet normal 0.998027 -0.0627817 0
    outer loop
      vertex -14.1885 3.53699 -4.33156e-16
      vertex -14.1861 3.57458 -1
      vertex -14.1861 3.57458 -4.3776e-16
    endloop
  endfacet
  facet normal 0.998027 -0.0627817 0
    outer loop
      vertex -14.1861 3.57458 -1
      vertex -14.1885 3.53699 -4.33156e-16
      vertex -14.1885 3.53699 -1
    endloop
  endfacet
  facet normal 1 0 0
    outer loop
      vertex -14.1885 0.784988 -9.61334e-17
      vertex -14.1885 3.53699 -1
      vertex -14.1885 3.53699 -4.33156e-16
    endloop
  endfacet
  facet normal 1 0 0
    outer loop
      vertex -14.1885 3.53699 -1
      vertex -14.1885 0.784988 -9.61334e-17
      vertex -14.1885 0.784988 -1
    endloop
  endfacet
  facet normal 0.998027 0.0627817 0
    outer loop
      vertex -14.1861 0.747391 -9.1529e-17
      vertex -14.1885 0.784988 -1
      vertex -14.1885 0.784988 -9.61334e-17
    endloop
  endfacet
  facet normal 0.998027 0.0627817 0
    outer loop
      vertex -14.1885 0.784988 -1
      vertex -14.1861 0.747391 -9.1529e-17
      vertex -14.1861 0.747391 -1
    endloop
  endfacet
  facet normal 0.982331 0.187149 0
    outer loop
      vertex -14.1791 0.710388 -8.69975e-17
      vertex -14.1861 0.747391 -1
      vertex -14.1861 0.747391 -9.1529e-17
    endloop
  endfacet
  facet normal 0.982331 0.187149 0
    outer loop
      vertex -14.1861 0.747391 -1
      vertex -14.1791 0.710388 -8.69975e-17
      vertex -14.1791 0.710388 -1
    endloop
  endfacet
  facet normal 0.951046 0.309049 0
    outer loop
      vertex -14.1674 0.674561 -8.26098e-17
      vertex -14.1791 0.710388 -1
      vertex -14.1791 0.710388 -8.69975e-17
    endloop
  endfacet
  facet normal 0.951046 0.309049 0
    outer loop
      vertex -14.1791 0.710388 -1
      vertex -14.1674 0.674561 -8.26098e-17
      vertex -14.1674 0.674561 -1
    endloop
  endfacet
  facet normal 0.904709 0.426031 0
    outer loop
      vertex -14.1514 0.640472 -7.84353e-17
      vertex -14.1674 0.674561 -1
      vertex -14.1674 0.674561 -8.26098e-17
    endloop
  endfacet
  facet normal 0.904709 0.426031 0
    outer loop
      vertex -14.1674 0.674561 -1
      vertex -14.1514 0.640472 -7.84353e-17
      vertex -14.1514 0.640472 -1
    endloop
  endfacet
  facet normal 0.844361 0.535774 0
    outer loop
      vertex -14.1312 0.608658 -7.45391e-17
      vertex -14.1514 0.640472 -1
      vertex -14.1514 0.640472 -7.84353e-17
    endloop
  endfacet
  facet normal 0.844361 0.535774 0
    outer loop
      vertex -14.1514 0.640472 -1
      vertex -14.1312 0.608658 -7.45391e-17
      vertex -14.1312 0.608658 -1
    endloop
  endfacet
  facet normal 0.770607 0.637311 0
    outer loop
      vertex -14.1072 0.579636 -7.09849e-17
      vertex -14.1312 0.608658 -1
      vertex -14.1312 0.608658 -7.45391e-17
    endloop
  endfacet
  facet normal 0.770607 0.637311 0
    outer loop
      vertex -14.1312 0.608658 -1
      vertex -14.1072 0.579636 -7.09849e-17
      vertex -14.1072 0.579636 -1
    endloop
  endfacet
  facet normal 0.68448 0.729032 -0
    outer loop
      vertex -14.0797 0.553848 -1
      vertex -14.1072 0.579636 -7.09849e-17
      vertex -14.0797 0.553848 -6.78269e-17
    endloop
  endfacet
  facet normal 0.68448 0.729032 0
    outer loop
      vertex -14.1072 0.579636 -7.09849e-17
      vertex -14.0797 0.553848 -1
      vertex -14.1072 0.579636 -1
    endloop
  endfacet
  facet normal 0.587883 0.808946 -0
    outer loop
      vertex -14.0492 0.531693 -1
      vertex -14.0797 0.553848 -6.78269e-17
      vertex -14.0492 0.531693 -6.51136e-17
    endloop
  endfacet
  facet normal 0.587883 0.808946 0
    outer loop
      vertex -14.0797 0.553848 -6.78269e-17
      vertex -14.0492 0.531693 -1
      vertex -14.0797 0.553848 -1
    endloop
  endfacet
  facet normal 0.481717 0.876327 -0
    outer loop
      vertex -14.0162 0.51355 -1
      vertex -14.0492 0.531693 -6.51136e-17
      vertex -14.0162 0.51355 -6.28917e-17
    endloop
  endfacet
  facet normal 0.481717 0.876327 0
    outer loop
      vertex -14.0492 0.531693 -6.51136e-17
      vertex -14.0162 0.51355 -1
      vertex -14.0492 0.531693 -1
    endloop
  endfacet
  facet normal 0.368107 0.929784 -0
    outer loop
      vertex -13.9812 0.49968 -1
      vertex -14.0162 0.51355 -6.28917e-17
      vertex -13.9812 0.49968 -6.11931e-17
    endloop
  endfacet
  facet normal 0.368107 0.929784 0
    outer loop
      vertex -14.0162 0.51355 -6.28917e-17
      vertex -13.9812 0.49968 -1
      vertex -14.0162 0.51355 -1
    endloop
  endfacet
  facet normal 0.248726 0.968574 -0
    outer loop
      vertex -13.9447 0.490311 -1
      vertex -13.9812 0.49968 -6.11931e-17
      vertex -13.9447 0.490311 -6.00457e-17
    endloop
  endfacet
  facet normal 0.248726 0.968574 0
    outer loop
      vertex -13.9812 0.49968 -6.11931e-17
      vertex -13.9447 0.490311 -1
      vertex -13.9812 0.49968 -1
    endloop
  endfacet
  facet normal 0.12553 0.99209 -0
    outer loop
      vertex -13.9073 0.48558 -1
      vertex -13.9447 0.490311 -6.00457e-17
      vertex -13.9073 0.48558 -5.94665e-17
    endloop
  endfacet
  facet normal 0.12553 0.99209 0
    outer loop
      vertex -13.9447 0.490311 -6.00457e-17
      vertex -13.9073 0.48558 -1
      vertex -13.9447 0.490311 -1
    endloop
  endfacet
  facet normal 0 1 -0
    outer loop
      vertex 14.5583 0.48558 -1
      vertex -13.9073 0.48558 -5.94665e-17
      vertex 14.5583 0.48558 -5.94665e-17
    endloop
  endfacet
  facet normal 0 1 0
    outer loop
      vertex -13.9073 0.48558 -5.94665e-17
      vertex 14.5583 0.48558 -1
      vertex -13.9073 0.48558 -1
    endloop
  endfacet
  facet normal -0.12553 0.99209 0
    outer loop
      vertex 14.5957 0.490311 -1
      vertex 14.5583 0.48558 -5.94665e-17
      vertex 14.5957 0.490311 -6.00457e-17
    endloop
  endfacet
  facet normal -0.12553 0.99209 0
    outer loop
      vertex 14.5583 0.48558 -5.94665e-17
      vertex 14.5957 0.490311 -1
      vertex 14.5583 0.48558 -1
    endloop
  endfacet
  facet normal -0.248726 0.968574 0
    outer loop
      vertex 14.6322 0.49968 -1
      vertex 14.5957 0.490311 -6.00457e-17
      vertex 14.6322 0.49968 -6.11931e-17
    endloop
  endfacet
  facet normal -0.248726 0.968574 0
    outer loop
      vertex 14.5957 0.490311 -6.00457e-17
      vertex 14.6322 0.49968 -1
      vertex 14.5957 0.490311 -1
    endloop
  endfacet
  facet normal -0.368107 0.929784 0
    outer loop
      vertex 14.6672 0.51355 -1
      vertex 14.6322 0.49968 -6.11931e-17
      vertex 14.6672 0.51355 -6.28917e-17
    endloop
  endfacet
  facet normal -0.368107 0.929784 0
    outer loop
      vertex 14.6322 0.49968 -6.11931e-17
      vertex 14.6672 0.51355 -1
      vertex 14.6322 0.49968 -1
    endloop
  endfacet
  facet normal -0.481717 0.876327 0
    outer loop
      vertex 14.7002 0.531693 -1
      vertex 14.6672 0.51355 -6.28917e-17
      vertex 14.7002 0.531693 -6.51136e-17
    endloop
  endfacet
  facet normal -0.481717 0.876327 0
    outer loop
      vertex 14.6672 0.51355 -6.28917e-17
      vertex 14.7002 0.531693 -1
      vertex 14.6672 0.51355 -1
    endloop
  endfacet
  facet normal -0.587883 0.808946 0
    outer loop
      vertex 14.7307 0.553848 -1
      vertex 14.7002 0.531693 -6.51136e-17
      vertex 14.7307 0.553848 -6.78269e-17
    endloop
  endfacet
  facet normal -0.587883 0.808946 0
    outer loop
      vertex 14.7002 0.531693 -6.51136e-17
      vertex 14.7307 0.553848 -1
      vertex 14.7002 0.531693 -1
    endloop
  endfacet
  facet normal -0.68448 0.729032 0
    outer loop
      vertex 14.7582 0.579636 -1
      vertex 14.7307 0.553848 -6.78269e-17
      vertex 14.7582 0.579636 -7.09849e-17
    endloop
  endfacet
  facet normal -0.68448 0.729032 0
    outer loop
      vertex 14.7307 0.553848 -6.78269e-17
      vertex 14.7582 0.579636 -1
      vertex 14.7307 0.553848 -1
    endloop
  endfacet
  facet normal -0.770607 0.637311 0
    outer loop
      vertex 14.7582 0.579636 -1
      vertex 14.7822 0.608658 -7.45391e-17
      vertex 14.7822 0.608658 -1
    endloop
  endfacet
  facet normal -0.770607 0.637311 0
    outer loop
      vertex 14.7822 0.608658 -7.45391e-17
      vertex 14.7582 0.579636 -1
      vertex 14.7582 0.579636 -7.09849e-17
    endloop
  endfacet
  facet normal -0.844361 0.535774 0
    outer loop
      vertex 14.7822 0.608658 -1
      vertex 14.8024 0.640472 -7.84353e-17
      vertex 14.8024 0.640472 -1
    endloop
  endfacet
  facet normal -0.844361 0.535774 0
    outer loop
      vertex 14.8024 0.640472 -7.84353e-17
      vertex 14.7822 0.608658 -1
      vertex 14.7822 0.608658 -7.45391e-17
    endloop
  endfacet
  facet normal -0.904709 0.426031 0
    outer loop
      vertex 14.8024 0.640472 -1
      vertex 14.8184 0.674561 -8.26098e-17
      vertex 14.8184 0.674561 -1
    endloop
  endfacet
  facet normal -0.904709 0.426031 0
    outer loop
      vertex 14.8184 0.674561 -8.26098e-17
      vertex 14.8024 0.640472 -1
      vertex 14.8024 0.640472 -7.84353e-17
    endloop
  endfacet
  facet normal -0.951046 0.309049 0
    outer loop
      vertex 14.8184 0.674561 -1
      vertex 14.8301 0.710388 -8.69975e-17
      vertex 14.8301 0.710388 -1
    endloop
  endfacet
  facet normal -0.951046 0.309049 0
    outer loop
      vertex 14.8301 0.710388 -8.69975e-17
      vertex 14.8184 0.674561 -1
      vertex 14.8184 0.674561 -8.26098e-17
    endloop
  endfacet
  facet normal -0.982331 0.187149 0
    outer loop
      vertex 14.8301 0.710388 -1
      vertex 14.8371 0.747391 -9.1529e-17
      vertex 14.8371 0.747391 -1
    endloop
  endfacet
  facet normal -0.982331 0.187149 0
    outer loop
      vertex 14.8371 0.747391 -9.1529e-17
      vertex 14.8301 0.710388 -1
      vertex 14.8301 0.710388 -8.69975e-17
    endloop
  endfacet
  facet normal -0.998027 0.0627817 0
    outer loop
      vertex 14.8371 0.747391 -1
      vertex 14.8395 0.784988 -9.61334e-17
      vertex 14.8395 0.784988 -1
    endloop
  endfacet
  facet normal -0.998027 0.0627817 0
    outer loop
      vertex 14.8395 0.784988 -9.61334e-17
      vertex 14.8371 0.747391 -1
      vertex 14.8371 0.747391 -9.1529e-17
    endloop
  endfacet
  facet normal -1 0 0
    outer loop
      vertex 14.8395 0.784988 -1
      vertex 14.8395 3.53699 -4.33156e-16
      vertex 14.8395 3.53699 -1
    endloop
  endfacet
  facet normal -1 -0 0
    outer loop
      vertex 14.8395 3.53699 -4.33156e-16
      vertex 14.8395 0.784988 -1
      vertex 14.8395 0.784988 -9.61334e-17
    endloop
  endfacet
  facet normal -0.998027 -0.0627817 0
    outer loop
      vertex 14.8395 3.53699 -1
      vertex 14.8371 3.57458 -4.3776e-16
      vertex 14.8371 3.57458 -1
    endloop
  endfacet
  facet normal -0.998027 -0.0627817 0
    outer loop
      vertex 14.8371 3.57458 -4.3776e-16
      vertex 14.8395 3.53699 -1
      vertex 14.8395 3.53699 -4.33156e-16
    endloop
  endfacet
  facet normal -0.982331 -0.187149 0
    outer loop
      vertex 14.8371 3.57458 -1
      vertex 14.8301 3.61159 -4.42292e-16
      vertex 14.8301 3.61159 -1
    endloop
  endfacet
  facet normal -0.982331 -0.187149 0
    outer loop
      vertex 14.8301 3.61159 -4.42292e-16
      vertex 14.8371 3.57458 -1
      vertex 14.8371 3.57458 -4.3776e-16
    endloop
  endfacet
  facet normal -0.951046 -0.309049 0
    outer loop
      vertex 14.8301 3.61159 -1
      vertex 14.8184 3.64742 -4.4668e-16
      vertex 14.8184 3.64742 -1
    endloop
  endfacet
  facet normal -0.951046 -0.309049 0
    outer loop
      vertex 14.8184 3.64742 -4.4668e-16
      vertex 14.8301 3.61159 -1
      vertex 14.8301 3.61159 -4.42292e-16
    endloop
  endfacet
  facet normal -0.904709 -0.426031 0
    outer loop
      vertex 14.8184 3.64742 -1
      vertex 14.8024 3.6815 -4.50854e-16
      vertex 14.8024 3.6815 -1
    endloop
  endfacet
  facet normal -0.904709 -0.426031 0
    outer loop
      vertex 14.8024 3.6815 -4.50854e-16
      vertex 14.8184 3.64742 -1
      vertex 14.8184 3.64742 -4.4668e-16
    endloop
  endfacet
  facet normal -0.844361 -0.535774 0
    outer loop
      vertex 14.8024 3.6815 -1
      vertex 14.7822 3.71332 -4.5475e-16
      vertex 14.7822 3.71332 -1
    endloop
  endfacet
  facet normal -0.844361 -0.535774 0
    outer loop
      vertex 14.7822 3.71332 -4.5475e-16
      vertex 14.8024 3.6815 -1
      vertex 14.8024 3.6815 -4.50854e-16
    endloop
  endfacet
  facet normal -0.770607 -0.637311 0
    outer loop
      vertex 14.7822 3.71332 -1
      vertex 14.7582 3.74234 -4.58304e-16
      vertex 14.7582 3.74234 -1
    endloop
  endfacet
  facet normal -0.770607 -0.637311 0
    outer loop
      vertex 14.7582 3.74234 -4.58304e-16
      vertex 14.7822 3.71332 -1
      vertex 14.7822 3.71332 -4.5475e-16
    endloop
  endfacet
  facet normal -0.68448 -0.729032 0
    outer loop
      vertex 14.7307 3.76813 -1
      vertex 14.7582 3.74234 -4.58304e-16
      vertex 14.7307 3.76813 -4.61463e-16
    endloop
  endfacet
  facet normal -0.68448 -0.729032 -0
    outer loop
      vertex 14.7582 3.74234 -4.58304e-16
      vertex 14.7307 3.76813 -1
      vertex 14.7582 3.74234 -1
    endloop
  endfacet
  facet normal -0.587883 -0.808946 0
    outer loop
      vertex 14.7002 3.79028 -1
      vertex 14.7307 3.76813 -4.61463e-16
      vertex 14.7002 3.79028 -4.64176e-16
    endloop
  endfacet
  facet normal -0.587883 -0.808946 -0
    outer loop
      vertex 14.7307 3.76813 -4.61463e-16
      vertex 14.7002 3.79028 -1
      vertex 14.7307 3.76813 -1
    endloop
  endfacet
  facet normal -0.481717 -0.876327 0
    outer loop
      vertex 14.6672 3.80843 -1
      vertex 14.7002 3.79028 -4.64176e-16
      vertex 14.6672 3.80843 -4.66398e-16
    endloop
  endfacet
  facet normal -0.481717 -0.876327 -0
    outer loop
      vertex 14.7002 3.79028 -4.64176e-16
      vertex 14.6672 3.80843 -1
      vertex 14.7002 3.79028 -1
    endloop
  endfacet
  facet normal -0.368107 -0.929784 0
    outer loop
      vertex 14.6322 3.8223 -1
      vertex 14.6672 3.80843 -4.66398e-16
      vertex 14.6322 3.8223 -4.68096e-16
    endloop
  endfacet
  facet normal -0.368107 -0.929784 -0
    outer loop
      vertex 14.6672 3.80843 -4.66398e-16
      vertex 14.6322 3.8223 -1
      vertex 14.6672 3.80843 -1
    endloop
  endfacet
  facet normal -0.248726 -0.968574 0
    outer loop
      vertex 14.5957 3.83167 -1
      vertex 14.6322 3.8223 -4.68096e-16
      vertex 14.5957 3.83167 -4.69244e-16
    endloop
  endfacet
  facet normal -0.248726 -0.968574 -0
    outer loop
      vertex 14.6322 3.8223 -4.68096e-16
      vertex 14.5957 3.83167 -1
      vertex 14.6322 3.8223 -1
    endloop
  endfacet
  facet normal -0.12553 -0.99209 0
    outer loop
      vertex 14.5583 3.8364 -1
      vertex 14.5957 3.83167 -4.69244e-16
      vertex 14.5583 3.8364 -4.69823e-16
    endloop
  endfacet
  facet normal -0.12553 -0.99209 -0
    outer loop
      vertex 14.5957 3.83167 -4.69244e-16
      vertex 14.5583 3.8364 -1
      vertex 14.5957 3.83167 -1
    endloop
  endfacet
  facet normal 0 -1 0
    outer loop
      vertex -13.9073 3.8364 -1
      vertex 14.5583 3.8364 -4.69823e-16
      vertex -13.9073 3.8364 -4.69823e-16
    endloop
  endfacet
  facet normal 0 -1 -0
    outer loop
      vertex 14.5583 3.8364 -4.69823e-16
      vertex -13.9073 3.8364 -1
      vertex 14.5583 3.8364 -1
    endloop
  endfacet
  facet normal -3.8147e-08 3.8147e-08 1
    outer loop
      vertex 25 25 23.2
      vertex 24 24 23.2
      vertex 25 -25 23.2
    endloop
  endfacet
  facet normal 0 0 1
    outer loop
      vertex 25 25 23.2
      vertex -24 24 23.2
      vertex 24 24 23.2
    endloop
  endfacet
  facet normal 3.97364e-08 3.97364e-08 1
    outer loop
      vertex -24 24 23.2
      vertex -25 25 23.2
      vertex -24 -24 23.2
    endloop
  endfacet
  facet normal -0 0 1
    outer loop
      vertex -25 25 23.2
      vertex -24 24 23.2
      vertex 25 25 23.2
    endloop
  endfacet
  facet normal 3.97364e-08 3.97364e-08 1
    outer loop
      vertex 24 -24 23.2
      vertex 25 -25 23.2
      vertex 24 24 23.2
    endloop
  endfacet
  facet normal -0 0 1
    outer loop
      vertex -24 -24 23.2
      vertex 25 -25 23.2
      vertex 24 -24 23.2
    endloop
  endfacet
  facet normal 0 0 1
    outer loop
      vertex -24 -24 23.2
      vertex -25 -25 23.2
      vertex 25 -25 23.2
    endloop
  endfacet
  facet normal -3.8147e-08 3.8147e-08 1
    outer loop
      vertex -25 -25 23.2
      vertex -24 -24 23.2
      vertex -25 25 23.2
    endloop
  endfacet
endsolid OpenSCAD_Model
