solid OpenSCAD_Model
  facet normal -1 0 0
    outer loop
      vertex -22.5 -22.5 0.5
      vertex -22.5 22.5 1.5
      vertex -22.5 22.5 0.5
    endloop
  endfacet
  facet normal -1 -0 0
    outer loop
      vertex -22.5 22.5 1.5
      vertex -22.5 -22.5 0.5
      vertex -22.5 -22.5 1.5
    endloop
  endfacet
  facet normal 0 0 1
    outer loop
      vertex 4.30838 13.1817 1.5
      vertex 22.5 22.5 1.5
      vertex 4.32777 13.6999 1.5
    endloop
  endfacet
  facet normal 0 0 1
    outer loop
      vertex 4.28123 12.6613 1.5
      vertex 22.5 22.5 1.5
      vertex 4.30838 13.1817 1.5
    endloop
  endfacet
  facet normal 0 0 1
    outer loop
      vertex 4.24634 12.1386 1.5
      vertex 22.5 22.5 1.5
      vertex 4.28123 12.6613 1.5
    endloop
  endfacet
  facet normal 0 0 1
    outer loop
      vertex 22.5 -22.5 1.5
      vertex 4.31865 -15.5647 1.5
      vertex 4.34328 -16.0325 1.5
    endloop
  endfacet
  facet normal 0 0 1
    outer loop
      vertex 4.20369 11.6137 1.5
      vertex 22.5 22.5 1.5
      vertex 4.24634 12.1386 1.5
    endloop
  endfacet
  facet normal 0 0 1
    outer loop
      vertex 4.15327 11.0865 1.5
      vertex 22.5 22.5 1.5
      vertex 4.20369 11.6137 1.5
    endloop
  endfacet
  facet normal 0 0 1
    outer loop
      vertex 2.98727 -2.3185 1.5
      vertex 22.5 22.5 1.5
      vertex 4.15327 11.0865 1.5
    endloop
  endfacet
  facet normal 0 0 1
    outer loop
      vertex 22.5 22.5 1.5
      vertex 2.98727 -2.3185 1.5
      vertex 22.5 -22.5 1.5
    endloop
  endfacet
  facet normal 0 0 1
    outer loop
      vertex 22.5 -22.5 1.5
      vertex 4.24475 -15.1173 1.5
      vertex 4.31865 -15.5647 1.5
    endloop
  endfacet
  facet normal -0 0 1
    outer loop
      vertex 2.92413 -2.97919 1.5
      vertex 22.5 -22.5 1.5
      vertex 2.98727 -2.3185 1.5
    endloop
  endfacet
  facet normal 0 0 1
    outer loop
      vertex 22.5 -22.5 1.5
      vertex 4.12158 -14.6903 1.5
      vertex 4.24475 -15.1173 1.5
    endloop
  endfacet
  facet normal -0 0 1
    outer loop
      vertex 2.84328 -3.59441 1.5
      vertex 22.5 -22.5 1.5
      vertex 2.92413 -2.97919 1.5
    endloop
  endfacet
  facet normal -0 0 1
    outer loop
      vertex 2.74471 -4.16417 1.5
      vertex 22.5 -22.5 1.5
      vertex 2.84328 -3.59441 1.5
    endloop
  endfacet
  facet normal 0 0 1
    outer loop
      vertex 22.5 -22.5 1.5
      vertex 3.94916 -14.2838 1.5
      vertex 4.12158 -14.6903 1.5
    endloop
  endfacet
  facet normal 0 0 1
    outer loop
      vertex 22.5 -22.5 1.5
      vertex 2.74471 -4.16417 1.5
      vertex 3.94916 -14.2838 1.5
    endloop
  endfacet
  facet normal -0 0 1
    outer loop
      vertex 2.62842 -4.68845 1.5
      vertex 3.94916 -14.2838 1.5
      vertex 2.74471 -4.16417 1.5
    endloop
  endfacet
  facet normal 0 0 1
    outer loop
      vertex 3.94916 -14.2838 1.5
      vertex 2.62842 -4.68845 1.5
      vertex 3.72746 -13.8976 1.5
    endloop
  endfacet
  facet normal -0 0 1
    outer loop
      vertex 2.49442 -5.16727 1.5
      vertex 3.72746 -13.8976 1.5
      vertex 2.62842 -4.68845 1.5
    endloop
  endfacet
  facet normal -0 0 1
    outer loop
      vertex 2.34271 -5.60062 1.5
      vertex 3.72746 -13.8976 1.5
      vertex 2.49442 -5.16727 1.5
    endloop
  endfacet
  facet normal 0 0 1
    outer loop
      vertex 3.72746 -13.8976 1.5
      vertex 2.34271 -5.60062 1.5
      vertex 3.4565 -13.5318 1.5
    endloop
  endfacet
  facet normal -0 0 1
    outer loop
      vertex 2.17328 -5.98849 1.5
      vertex 3.4565 -13.5318 1.5
      vertex 2.34271 -5.60062 1.5
    endloop
  endfacet
  facet normal 0 0 1
    outer loop
      vertex 3.4565 -13.5318 1.5
      vertex 2.17328 -5.98849 1.5
      vertex 3.13628 -13.1865 1.5
    endloop
  endfacet
  facet normal -0 0 1
    outer loop
      vertex 1.97838 -6.32756 1.5
      vertex 3.13628 -13.1865 1.5
      vertex 2.17328 -5.98849 1.5
    endloop
  endfacet
  facet normal 0 0 1
    outer loop
      vertex 3.13628 -13.1865 1.5
      vertex 1.97838 -6.32756 1.5
      vertex 2.78117 -12.8753 1.5
    endloop
  endfacet
  facet normal -0 0 1
    outer loop
      vertex 1.75026 -6.61446 1.5
      vertex 2.78117 -12.8753 1.5
      vertex 1.97838 -6.32756 1.5
    endloop
  endfacet
  facet normal 0 0 1
    outer loop
      vertex 2.78117 -12.8753 1.5
      vertex 1.75026 -6.61446 1.5
      vertex 2.40558 -12.612 1.5
    endloop
  endfacet
  facet normal -0 0 1
    outer loop
      vertex 1.48891 -6.84918 1.5
      vertex 2.40558 -12.612 1.5
      vertex 1.75026 -6.61446 1.5
    endloop
  endfacet
  facet normal 0 0 1
    outer loop
      vertex 2.40558 -12.612 1.5
      vertex 1.48891 -6.84918 1.5
      vertex 2.00951 -12.3965 1.5
    endloop
  endfacet
  facet normal 0 0 1
    outer loop
      vertex 2.00951 -12.3965 1.5
      vertex 1.48891 -6.84918 1.5
      vertex 1.59293 -12.2289 1.5
    endloop
  endfacet
  facet normal -0 0 1
    outer loop
      vertex 1.19434 -7.03175 1.5
      vertex 1.59293 -12.2289 1.5
      vertex 1.48891 -6.84918 1.5
    endloop
  endfacet
  facet normal 0 0 1
    outer loop
      vertex 1.19434 -7.03175 1.5
      vertex 1.15587 -12.1093 1.5
      vertex 1.59293 -12.2289 1.5
    endloop
  endfacet
  facet normal -0 0 1
    outer loop
      vertex 0.866547 -7.16217 1.5
      vertex 1.15587 -12.1093 1.5
      vertex 1.19434 -7.03175 1.5
    endloop
  endfacet
  facet normal 0 0 1
    outer loop
      vertex 0.866547 -7.16217 1.5
      vertex 0.698318 -12.0374 1.5
      vertex 1.15587 -12.1093 1.5
    endloop
  endfacet
  facet normal -0 0 1
    outer loop
      vertex 0.505524 -7.24042 1.5
      vertex 0.698318 -12.0374 1.5
      vertex 0.866547 -7.16217 1.5
    endloop
  endfacet
  facet normal 0 0 1
    outer loop
      vertex 0.505524 -7.24042 1.5
      vertex 0.220276 -12.0135 1.5
      vertex 0.698318 -12.0374 1.5
    endloop
  endfacet
  facet normal -0 0 1
    outer loop
      vertex 0.111282 -7.26649 1.5
      vertex 0.220276 -12.0135 1.5
      vertex 0.505524 -7.24042 1.5
    endloop
  endfacet
  facet normal 0 0 1
    outer loop
      vertex 0.111282 -7.26649 1.5
      vertex -0.257202 -12.0374 1.5
      vertex 0.220276 -12.0135 1.5
    endloop
  endfacet
  facet normal 0 0 1
    outer loop
      vertex -0.288742 -7.24124 1.5
      vertex -0.257202 -12.0374 1.5
      vertex 0.111282 -7.26649 1.5
    endloop
  endfacet
  facet normal 0 0 1
    outer loop
      vertex -0.713089 -12.1093 1.5
      vertex -0.288742 -7.24124 1.5
      vertex -0.652298 -7.16551 1.5
    endloop
  endfacet
  facet normal 0 0 1
    outer loop
      vertex -0.288742 -7.24124 1.5
      vertex -0.713089 -12.1093 1.5
      vertex -0.257202 -12.0374 1.5
    endloop
  endfacet
  facet normal 0 0 1
    outer loop
      vertex -1.1474 -12.2289 1.5
      vertex -0.652298 -7.16551 1.5
      vertex -0.979355 -7.03929 1.5
    endloop
  endfacet
  facet normal 0 0 1
    outer loop
      vertex -0.652298 -7.16551 1.5
      vertex -1.1474 -12.2289 1.5
      vertex -0.713089 -12.1093 1.5
    endloop
  endfacet
  facet normal 0 0 1
    outer loop
      vertex -1.56012 -12.3965 1.5
      vertex -0.979355 -7.03929 1.5
      vertex -1.26993 -6.86258 1.5
    endloop
  endfacet
  facet normal 0 0 1
    outer loop
      vertex -1.95123 -12.612 1.5
      vertex -1.26993 -6.86258 1.5
      vertex -1.52402 -6.63538 1.5
    endloop
  endfacet
  facet normal 0 0 1
    outer loop
      vertex -0.979355 -7.03929 1.5
      vertex -1.56012 -12.3965 1.5
      vertex -1.1474 -12.2289 1.5
    endloop
  endfacet
  facet normal 0 0 1
    outer loop
      vertex -2.32077 -12.8753 1.5
      vertex -1.52402 -6.63538 1.5
      vertex -1.74161 -6.35768 1.5
    endloop
  endfacet
  facet normal 0 0 1
    outer loop
      vertex -2.6687 -13.1865 1.5
      vertex -1.74161 -6.35768 1.5
      vertex -1.92271 -6.0295 1.5
    endloop
  endfacet
  facet normal 0 0 1
    outer loop
      vertex -1.26993 -6.86258 1.5
      vertex -1.95123 -12.612 1.5
      vertex -1.56012 -12.3965 1.5
    endloop
  endfacet
  facet normal 0 0 1
    outer loop
      vertex -2.98177 -13.5318 1.5
      vertex -1.92271 -6.0295 1.5
      vertex -2.07892 -5.6497 1.5
    endloop
  endfacet
  facet normal 0 0 1
    outer loop
      vertex -3.24667 -13.8976 1.5
      vertex -2.07892 -5.6497 1.5
      vertex -2.2218 -5.21716 1.5
    endloop
  endfacet
  facet normal 0 0 1
    outer loop
      vertex -1.52402 -6.63538 1.5
      vertex -2.32077 -12.8753 1.5
      vertex -1.95123 -12.612 1.5
    endloop
  endfacet
  facet normal 0 0 1
    outer loop
      vertex -3.46339 -14.2838 1.5
      vertex -2.2218 -5.21716 1.5
      vertex -2.35139 -4.7319 1.5
    endloop
  endfacet
  facet normal 0 0 1
    outer loop
      vertex -3.46339 -14.2838 1.5
      vertex -2.35139 -4.7319 1.5
      vertex -2.46768 -4.19389 1.5
    endloop
  endfacet
  facet normal 0 0 1
    outer loop
      vertex -22.5 -22.5 1.5
      vertex -2.46768 -4.19389 1.5
      vertex -2.57066 -3.60316 1.5
    endloop
  endfacet
  facet normal 0 0 1
    outer loop
      vertex -22.5 -22.5 1.5
      vertex -2.57066 -3.60316 1.5
      vertex -2.66034 -2.9597 1.5
    endloop
  endfacet
  facet normal 0 0 1
    outer loop
      vertex -1.74161 -6.35768 1.5
      vertex -2.6687 -13.1865 1.5
      vertex -2.32077 -12.8753 1.5
    endloop
  endfacet
  facet normal 0 0 1
    outer loop
      vertex -22.5 -22.5 1.5
      vertex -2.66034 -2.9597 1.5
      vertex -2.73671 -2.26349 1.5
    endloop
  endfacet
  facet normal 0 0 1
    outer loop
      vertex -1.92271 -6.0295 1.5
      vertex -2.98177 -13.5318 1.5
      vertex -2.6687 -13.1865 1.5
    endloop
  endfacet
  facet normal 0 0 1
    outer loop
      vertex -2.07892 -5.6497 1.5
      vertex -3.24667 -13.8976 1.5
      vertex -2.98177 -13.5318 1.5
    endloop
  endfacet
  facet normal 0 0 1
    outer loop
      vertex -2.2218 -5.21716 1.5
      vertex -3.46339 -14.2838 1.5
      vertex -3.24667 -13.8976 1.5
    endloop
  endfacet
  facet normal 0 0 1
    outer loop
      vertex -22.5 22.5 1.5
      vertex -2.73671 -2.26349 1.5
      vertex -3.60471 10.7605 1.5
    endloop
  endfacet
  facet normal 0 0 1
    outer loop
      vertex -2.46768 -4.19389 1.5
      vertex -22.5 -22.5 1.5
      vertex -3.46339 -14.2838 1.5
    endloop
  endfacet
  facet normal 0 0 1
    outer loop
      vertex -22.5 22.5 1.5
      vertex -3.60471 10.7605 1.5
      vertex -3.66945 11.8041 1.5
    endloop
  endfacet
  facet normal 0 0 1
    outer loop
      vertex -22.5 22.5 1.5
      vertex -3.66945 11.8041 1.5
      vertex -3.72421 12.7601 1.5
    endloop
  endfacet
  facet normal 0 0 1
    outer loop
      vertex -3.46339 -14.2838 1.5
      vertex -22.5 -22.5 1.5
      vertex -3.63197 -14.6903 1.5
    endloop
  endfacet
  facet normal 0 0 1
    outer loop
      vertex -22.5 22.5 1.5
      vertex -3.72421 12.7601 1.5
      vertex -3.76903 13.6284 1.5
    endloop
  endfacet
  facet normal 0 0 1
    outer loop
      vertex -22.5 22.5 1.5
      vertex -3.76903 13.6284 1.5
      vertex -3.80389 14.4091 1.5
    endloop
  endfacet
  facet normal 0 0 1
    outer loop
      vertex -3.63197 -14.6903 1.5
      vertex -22.5 -22.5 1.5
      vertex -3.75238 -15.1173 1.5
    endloop
  endfacet
  facet normal 0 0 1
    outer loop
      vertex -22.5 22.5 1.5
      vertex -3.80389 14.4091 1.5
      vertex -3.8288 15.1022 1.5
    endloop
  endfacet
  facet normal 0 0 1
    outer loop
      vertex -22.5 22.5 1.5
      vertex -3.8288 15.1022 1.5
      vertex -3.84373 15.7077 1.5
    endloop
  endfacet
  facet normal 0 0 1
    outer loop
      vertex -22.5 22.5 1.5
      vertex -3.84373 15.7077 1.5
      vertex -3.84871 16.2255 1.5
    endloop
  endfacet
  facet normal 0 0 1
    outer loop
      vertex -2.73671 -2.26349 1.5
      vertex -22.5 22.5 1.5
      vertex -22.5 -22.5 1.5
    endloop
  endfacet
  facet normal 0 0 1
    outer loop
      vertex 4.3394 14.2158 1.5
      vertex 22.5 22.5 1.5
      vertex 4.34328 14.7295 1.5
    endloop
  endfacet
  facet normal 0 0 1
    outer loop
      vertex 22.5 22.5 1.5
      vertex 4.32721 15.5704 1.5
      vertex 4.34328 14.7295 1.5
    endloop
  endfacet
  facet normal 0 0 1
    outer loop
      vertex 22.5 22.5 1.5
      vertex 4.27904 16.353 1.5
      vertex 4.32721 15.5704 1.5
    endloop
  endfacet
  facet normal 0 0 1
    outer loop
      vertex 22.5 22.5 1.5
      vertex 4.19873 17.0774 1.5
      vertex 4.27904 16.353 1.5
    endloop
  endfacet
  facet normal 0 0 1
    outer loop
      vertex 22.5 22.5 1.5
      vertex 4.0863 17.7435 1.5
      vertex 4.19873 17.0774 1.5
    endloop
  endfacet
  facet normal 0 0 1
    outer loop
      vertex 22.5 22.5 1.5
      vertex 3.94174 18.3514 1.5
      vertex 4.0863 17.7435 1.5
    endloop
  endfacet
  facet normal 0 0 1
    outer loop
      vertex 22.5 22.5 1.5
      vertex 3.76508 18.9011 1.5
      vertex 3.94174 18.3514 1.5
    endloop
  endfacet
  facet normal 0 0 1
    outer loop
      vertex 22.5 22.5 1.5
      vertex 3.55627 19.3925 1.5
      vertex 3.76508 18.9011 1.5
    endloop
  endfacet
  facet normal 0 0 1
    outer loop
      vertex 22.5 22.5 1.5
      vertex 3.30014 19.8218 1.5
      vertex 3.55627 19.3925 1.5
    endloop
  endfacet
  facet normal 0 0 1
    outer loop
      vertex 22.5 22.5 1.5
      vertex 2.98085 20.185 1.5
      vertex 3.30014 19.8218 1.5
    endloop
  endfacet
  facet normal 0 0 1
    outer loop
      vertex 22.5 22.5 1.5
      vertex 2.59842 20.4822 1.5
      vertex 2.98085 20.185 1.5
    endloop
  endfacet
  facet normal 0 0 1
    outer loop
      vertex 22.5 22.5 1.5
      vertex 2.15285 20.7133 1.5
      vertex 2.59842 20.4822 1.5
    endloop
  endfacet
  facet normal 0 0 1
    outer loop
      vertex 22.5 22.5 1.5
      vertex 1.64413 20.8784 1.5
      vertex 2.15285 20.7133 1.5
    endloop
  endfacet
  facet normal 0 0 1
    outer loop
      vertex 22.5 22.5 1.5
      vertex 1.07228 20.9775 1.5
      vertex 1.64413 20.8784 1.5
    endloop
  endfacet
  facet normal 0 0 1
    outer loop
      vertex 22.5 22.5 1.5
      vertex 0.437271 21.0105 1.5
      vertex 1.07228 20.9775 1.5
    endloop
  endfacet
  facet normal -0 0 1
    outer loop
      vertex -22.5 22.5 1.5
      vertex 0.437271 21.0105 1.5
      vertex 22.5 22.5 1.5
    endloop
  endfacet
  facet normal 0 0 1
    outer loop
      vertex -3.75238 -15.1173 1.5
      vertex -22.5 -22.5 1.5
      vertex -3.82463 -15.5647 1.5
    endloop
  endfacet
  facet normal 0 0 1
    outer loop
      vertex -3.82463 16.8498 1.5
      vertex -22.5 22.5 1.5
      vertex -3.84871 16.2255 1.5
    endloop
  endfacet
  facet normal 0 0 1
    outer loop
      vertex -3.75238 17.4337 1.5
      vertex -22.5 22.5 1.5
      vertex -3.82463 16.8498 1.5
    endloop
  endfacet
  facet normal 0 0 1
    outer loop
      vertex -3.63197 17.977 1.5
      vertex -22.5 22.5 1.5
      vertex -3.75238 17.4337 1.5
    endloop
  endfacet
  facet normal 0 0 1
    outer loop
      vertex -3.46339 18.4799 1.5
      vertex -22.5 22.5 1.5
      vertex -3.63197 17.977 1.5
    endloop
  endfacet
  facet normal 0 0 1
    outer loop
      vertex -3.24667 18.9422 1.5
      vertex -22.5 22.5 1.5
      vertex -3.46339 18.4799 1.5
    endloop
  endfacet
  facet normal 0 0 1
    outer loop
      vertex -2.98177 19.3641 1.5
      vertex -22.5 22.5 1.5
      vertex -3.24667 18.9422 1.5
    endloop
  endfacet
  facet normal 0 0 1
    outer loop
      vertex -2.6687 19.7455 1.5
      vertex -22.5 22.5 1.5
      vertex -2.98177 19.3641 1.5
    endloop
  endfacet
  facet normal 0 0 1
    outer loop
      vertex -2.31635 20.0811 1.5
      vertex -22.5 22.5 1.5
      vertex -2.6687 19.7455 1.5
    endloop
  endfacet
  facet normal 0 0 1
    outer loop
      vertex -1.93352 20.3651 1.5
      vertex -22.5 22.5 1.5
      vertex -2.31635 20.0811 1.5
    endloop
  endfacet
  facet normal 0 0 1
    outer loop
      vertex -1.52026 20.5974 1.5
      vertex -22.5 22.5 1.5
      vertex -1.93352 20.3651 1.5
    endloop
  endfacet
  facet normal 0 0 1
    outer loop
      vertex -1.07654 20.7782 1.5
      vertex -22.5 22.5 1.5
      vertex -1.52026 20.5974 1.5
    endloop
  endfacet
  facet normal 0 0 1
    outer loop
      vertex -0.602386 20.9072 1.5
      vertex -22.5 22.5 1.5
      vertex -1.07654 20.7782 1.5
    endloop
  endfacet
  facet normal 0 0 1
    outer loop
      vertex -0.0977631 20.9847 1.5
      vertex -22.5 22.5 1.5
      vertex -0.602386 20.9072 1.5
    endloop
  endfacet
  facet normal 0 0 1
    outer loop
      vertex 0.437271 21.0105 1.5
      vertex -22.5 22.5 1.5
      vertex -0.0977631 20.9847 1.5
    endloop
  endfacet
  facet normal 0 0 1
    outer loop
      vertex 4.32777 13.6999 1.5
      vertex 22.5 22.5 1.5
      vertex 4.3394 14.2158 1.5
    endloop
  endfacet
  facet normal -0 0 1
    outer loop
      vertex 4.31836 -16.5551 1.5
      vertex 22.5 -22.5 1.5
      vertex 4.34328 -16.0325 1.5
    endloop
  endfacet
  facet normal -0 0 1
    outer loop
      vertex 4.24361 -17.0448 1.5
      vertex 22.5 -22.5 1.5
      vertex 4.31836 -16.5551 1.5
    endloop
  endfacet
  facet normal -0 0 1
    outer loop
      vertex 4.11902 -17.5015 1.5
      vertex 22.5 -22.5 1.5
      vertex 4.24361 -17.0448 1.5
    endloop
  endfacet
  facet normal -0 0 1
    outer loop
      vertex 3.94458 -17.9252 1.5
      vertex 22.5 -22.5 1.5
      vertex 4.11902 -17.5015 1.5
    endloop
  endfacet
  facet normal -0 0 1
    outer loop
      vertex 3.72032 -18.316 1.5
      vertex 22.5 -22.5 1.5
      vertex 3.94458 -17.9252 1.5
    endloop
  endfacet
  facet normal -0 0 1
    outer loop
      vertex 3.44621 -18.6737 1.5
      vertex 22.5 -22.5 1.5
      vertex 3.72032 -18.316 1.5
    endloop
  endfacet
  facet normal -0 0 1
    outer loop
      vertex 3.12228 -18.9985 1.5
      vertex 22.5 -22.5 1.5
      vertex 3.44621 -18.6737 1.5
    endloop
  endfacet
  facet normal -0 0 1
    outer loop
      vertex 2.76538 -19.2848 1.5
      vertex 22.5 -22.5 1.5
      vertex 3.12228 -18.9985 1.5
    endloop
  endfacet
  facet normal -0 0 1
    outer loop
      vertex 2.39183 -19.527 1.5
      vertex 22.5 -22.5 1.5
      vertex 2.76538 -19.2848 1.5
    endloop
  endfacet
  facet normal -0 0 1
    outer loop
      vertex 2.00162 -19.7252 1.5
      vertex 22.5 -22.5 1.5
      vertex 2.39183 -19.527 1.5
    endloop
  endfacet
  facet normal -0 0 1
    outer loop
      vertex 1.59477 -19.8793 1.5
      vertex 22.5 -22.5 1.5
      vertex 2.00162 -19.7252 1.5
    endloop
  endfacet
  facet normal -0 0 1
    outer loop
      vertex 1.17126 -19.9894 1.5
      vertex 22.5 -22.5 1.5
      vertex 1.59477 -19.8793 1.5
    endloop
  endfacet
  facet normal -0 0 1
    outer loop
      vertex 0.731094 -20.0555 1.5
      vertex 22.5 -22.5 1.5
      vertex 1.17126 -19.9894 1.5
    endloop
  endfacet
  facet normal -0 0 1
    outer loop
      vertex 0.274277 -20.0775 1.5
      vertex 22.5 -22.5 1.5
      vertex 0.731094 -20.0555 1.5
    endloop
  endfacet
  facet normal 0 0 1
    outer loop
      vertex -22.5 -22.5 1.5
      vertex 0.274277 -20.0775 1.5
      vertex -0.189972 -20.0558 1.5
    endloop
  endfacet
  facet normal 0 0 1
    outer loop
      vertex -3.82463 -15.5647 1.5
      vertex -22.5 -22.5 1.5
      vertex -3.84871 -16.0325 1.5
    endloop
  endfacet
  facet normal 0 0 1
    outer loop
      vertex -3.84871 -16.0325 1.5
      vertex -22.5 -22.5 1.5
      vertex -3.82352 -16.562 1.5
    endloop
  endfacet
  facet normal 0 0 1
    outer loop
      vertex -3.82352 -16.562 1.5
      vertex -22.5 -22.5 1.5
      vertex -3.74797 -17.057 1.5
    endloop
  endfacet
  facet normal 0 0 1
    outer loop
      vertex -3.74797 -17.057 1.5
      vertex -22.5 -22.5 1.5
      vertex -3.62206 -17.5173 1.5
    endloop
  endfacet
  facet normal 0 0 1
    outer loop
      vertex 0.274277 -20.0775 1.5
      vertex -22.5 -22.5 1.5
      vertex 22.5 -22.5 1.5
    endloop
  endfacet
  facet normal 0 0 1
    outer loop
      vertex -0.637054 -19.9906 1.5
      vertex -22.5 -22.5 1.5
      vertex -0.189972 -20.0558 1.5
    endloop
  endfacet
  facet normal 0 0 1
    outer loop
      vertex -1.06696 -19.8819 1.5
      vertex -22.5 -22.5 1.5
      vertex -0.637054 -19.9906 1.5
    endloop
  endfacet
  facet normal 0 0 1
    outer loop
      vertex -1.47966 -19.7297 1.5
      vertex -22.5 -22.5 1.5
      vertex -1.06696 -19.8819 1.5
    endloop
  endfacet
  facet normal 0 0 1
    outer loop
      vertex -1.8752 -19.5341 1.5
      vertex -22.5 -22.5 1.5
      vertex -1.47966 -19.7297 1.5
    endloop
  endfacet
  facet normal 0 0 1
    outer loop
      vertex -2.25354 -19.295 1.5
      vertex -22.5 -22.5 1.5
      vertex -1.8752 -19.5341 1.5
    endloop
  endfacet
  facet normal 0 0 1
    outer loop
      vertex -2.6147 -19.0125 1.5
      vertex -22.5 -22.5 1.5
      vertex -2.25354 -19.295 1.5
    endloop
  endfacet
  facet normal 0 0 1
    outer loop
      vertex -2.94209 -18.6906 1.5
      vertex -22.5 -22.5 1.5
      vertex -2.6147 -19.0125 1.5
    endloop
  endfacet
  facet normal 0 0 1
    outer loop
      vertex -3.21912 -18.3341 1.5
      vertex -22.5 -22.5 1.5
      vertex -2.94209 -18.6906 1.5
    endloop
  endfacet
  facet normal 0 0 1
    outer loop
      vertex -3.44577 -17.943 1.5
      vertex -22.5 -22.5 1.5
      vertex -3.21912 -18.3341 1.5
    endloop
  endfacet
  facet normal 0 0 1
    outer loop
      vertex -3.62206 -17.5173 1.5
      vertex -22.5 -22.5 1.5
      vertex -3.44577 -17.943 1.5
    endloop
  endfacet
  facet normal 1 -0 0
    outer loop
      vertex 22.5 -22.5 1.5
      vertex 22.5 22.5 0.5
      vertex 22.5 22.5 1.5
    endloop
  endfacet
  facet normal 1 0 0
    outer loop
      vertex 22.5 22.5 0.5
      vertex 22.5 -22.5 1.5
      vertex 22.5 -22.5 0.5
    endloop
  endfacet
  facet normal 0 1 -0
    outer loop
      vertex 22.5 22.5 0.5
      vertex -22.5 22.5 1.5
      vertex 22.5 22.5 1.5
    endloop
  endfacet
  facet normal 0 1 0
    outer loop
      vertex -22.5 22.5 1.5
      vertex 22.5 22.5 0.5
      vertex -22.5 22.5 0.5
    endloop
  endfacet
  facet normal 0 0 -1
    outer loop
      vertex -22.5 -22.5 0.5
      vertex 22.5 22.5 0.5
      vertex 22.5 -22.5 0.5
    endloop
  endfacet
  facet normal -0 0 -1
    outer loop
      vertex 22.5 22.5 0.5
      vertex -22.5 -22.5 0.5
      vertex -22.5 22.5 0.5
    endloop
  endfacet
  facet normal 0 -1 0
    outer loop
      vertex -22.5 -22.5 0.5
      vertex 22.5 -22.5 1.5
      vertex -22.5 -22.5 1.5
    endloop
  endfacet
  facet normal 0 -1 -0
    outer loop
      vertex 22.5 -22.5 1.5
      vertex -22.5 -22.5 0.5
      vertex 22.5 -22.5 0.5
    endloop
  endfacet
  facet normal -0 0 1
    outer loop
      vertex -3.80389 14.4091 3
      vertex 4.3394 14.2158 3
      vertex 4.34328 14.7295 3
    endloop
  endfacet
  facet normal -0 0 1
    outer loop
      vertex -3.8288 15.1022 3
      vertex 4.34328 14.7295 3
      vertex 4.32721 15.5704 3
    endloop
  endfacet
  facet normal 0 -0 1
    outer loop
      vertex -3.76903 13.6284 3
      vertex 4.3394 14.2158 3
      vertex -3.80389 14.4091 3
    endloop
  endfacet
  facet normal 0 0 1
    outer loop
      vertex 4.3394 14.2158 3
      vertex -3.76903 13.6284 3
      vertex 4.32777 13.6999 3
    endloop
  endfacet
  facet normal -0 0 1
    outer loop
      vertex -3.84373 15.7077 3
      vertex 4.32721 15.5704 3
      vertex 4.27904 16.353 3
    endloop
  endfacet
  facet normal 0 0 1
    outer loop
      vertex 4.32777 13.6999 3
      vertex -3.76903 13.6284 3
      vertex 4.30838 13.1817 3
    endloop
  endfacet
  facet normal 0 -0 1
    outer loop
      vertex -3.72421 12.7601 3
      vertex 4.30838 13.1817 3
      vertex -3.76903 13.6284 3
    endloop
  endfacet
  facet normal 0 0 1
    outer loop
      vertex -3.84871 16.2255 3
      vertex 4.27904 16.353 3
      vertex 4.19873 17.0774 3
    endloop
  endfacet
  facet normal 0 0 1
    outer loop
      vertex 4.30838 13.1817 3
      vertex -3.72421 12.7601 3
      vertex 4.28123 12.6613 3
    endloop
  endfacet
  facet normal -0 0 1
    outer loop
      vertex -3.75238 17.4337 3
      vertex 4.19873 17.0774 3
      vertex 4.0863 17.7435 3
    endloop
  endfacet
  facet normal 0 0 1
    outer loop
      vertex -0.0977631 20.9847 3
      vertex 4.0863 17.7435 3
      vertex 3.94174 18.3514 3
    endloop
  endfacet
  facet normal 0 0 1
    outer loop
      vertex 0.437271 21.0105 3
      vertex 3.94174 18.3514 3
      vertex 3.76508 18.9011 3
    endloop
  endfacet
  facet normal 0 0 1
    outer loop
      vertex 1.64413 20.8784 3
      vertex 3.76508 18.9011 3
      vertex 3.55627 19.3925 3
    endloop
  endfacet
  facet normal 0 0 1
    outer loop
      vertex 2.15285 20.7133 3
      vertex 3.55627 19.3925 3
      vertex 3.30014 19.8218 3
    endloop
  endfacet
  facet normal 0 0 1
    outer loop
      vertex 4.34328 14.7295 3
      vertex -3.8288 15.1022 3
      vertex -3.80389 14.4091 3
    endloop
  endfacet
  facet normal 0 0 1
    outer loop
      vertex 2.15285 20.7133 3
      vertex 3.30014 19.8218 3
      vertex 2.98085 20.185 3
    endloop
  endfacet
  facet normal 0 0 1
    outer loop
      vertex 4.15327 11.0865 3
      vertex -3.60471 10.7605 3
      vertex 2.98727 -2.3185 3
    endloop
  endfacet
  facet normal -0 -0 1
    outer loop
      vertex -2.73671 -2.26349 3
      vertex 2.98727 -2.3185 3
      vertex -3.60471 10.7605 3
    endloop
  endfacet
  facet normal 0 -0 1
    outer loop
      vertex -2.66034 -2.9597 3
      vertex 2.98727 -2.3185 3
      vertex -2.73671 -2.26349 3
    endloop
  endfacet
  facet normal 0 0 1
    outer loop
      vertex 2.98727 -2.3185 3
      vertex -2.66034 -2.9597 3
      vertex 2.92413 -2.97919 3
    endloop
  endfacet
  facet normal 0 0 1
    outer loop
      vertex 2.15285 20.7133 3
      vertex 2.98085 20.185 3
      vertex 2.59842 20.4822 3
    endloop
  endfacet
  facet normal 0 0 1
    outer loop
      vertex 2.92413 -2.97919 3
      vertex -2.66034 -2.9597 3
      vertex 2.84328 -3.59441 3
    endloop
  endfacet
  facet normal 0 -0 1
    outer loop
      vertex -2.57066 -3.60316 3
      vertex 2.84328 -3.59441 3
      vertex -2.66034 -2.9597 3
    endloop
  endfacet
  facet normal 0 0 1
    outer loop
      vertex 2.84328 -3.59441 3
      vertex -2.57066 -3.60316 3
      vertex 2.74471 -4.16417 3
    endloop
  endfacet
  facet normal 0 0 1
    outer loop
      vertex 3.55627 19.3925 3
      vertex 2.15285 20.7133 3
      vertex 1.64413 20.8784 3
    endloop
  endfacet
  facet normal 0 -0 1
    outer loop
      vertex -2.46768 -4.19389 3
      vertex 2.74471 -4.16417 3
      vertex -2.57066 -3.60316 3
    endloop
  endfacet
  facet normal 0 0 1
    outer loop
      vertex 2.74471 -4.16417 3
      vertex -2.46768 -4.19389 3
      vertex 2.62842 -4.68845 3
    endloop
  endfacet
  facet normal 0 0 1
    outer loop
      vertex 3.76508 18.9011 3
      vertex 1.64413 20.8784 3
      vertex 1.07228 20.9775 3
    endloop
  endfacet
  facet normal 0 -0 1
    outer loop
      vertex -2.35139 -4.7319 3
      vertex 2.62842 -4.68845 3
      vertex -2.46768 -4.19389 3
    endloop
  endfacet
  facet normal 0 0 1
    outer loop
      vertex 2.62842 -4.68845 3
      vertex -2.35139 -4.7319 3
      vertex 2.49442 -5.16727 3
    endloop
  endfacet
  facet normal 0 0 1
    outer loop
      vertex 3.76508 18.9011 3
      vertex 1.07228 20.9775 3
      vertex 0.437271 21.0105 3
    endloop
  endfacet
  facet normal 0 -0 1
    outer loop
      vertex -2.2218 -5.21716 3
      vertex 2.49442 -5.16727 3
      vertex -2.35139 -4.7319 3
    endloop
  endfacet
  facet normal 0 0 1
    outer loop
      vertex 2.49442 -5.16727 3
      vertex -2.2218 -5.21716 3
      vertex 2.34271 -5.60062 3
    endloop
  endfacet
  facet normal 0 0 1
    outer loop
      vertex 3.94174 18.3514 3
      vertex 0.437271 21.0105 3
      vertex -0.0977631 20.9847 3
    endloop
  endfacet
  facet normal 0 -0 1
    outer loop
      vertex -2.07892 -5.6497 3
      vertex 2.34271 -5.60062 3
      vertex -2.2218 -5.21716 3
    endloop
  endfacet
  facet normal 0 0 1
    outer loop
      vertex 4.0863 17.7435 3
      vertex -0.0977631 20.9847 3
      vertex -0.602386 20.9072 3
    endloop
  endfacet
  facet normal 0 0 1
    outer loop
      vertex 2.34271 -5.60062 3
      vertex -2.07892 -5.6497 3
      vertex 2.17328 -5.98849 3
    endloop
  endfacet
  facet normal 0 0 1
    outer loop
      vertex 4.0863 17.7435 3
      vertex -0.602386 20.9072 3
      vertex -3.46339 18.4799 3
    endloop
  endfacet
  facet normal 0 -0 1
    outer loop
      vertex 0.111282 -7.26649 3
      vertex 2.17328 -5.98849 3
      vertex -2.07892 -5.6497 3
    endloop
  endfacet
  facet normal 0 0 1
    outer loop
      vertex 2.17328 -5.98849 3
      vertex 0.111282 -7.26649 3
      vertex 1.97838 -6.32756 3
    endloop
  endfacet
  facet normal 0 0 1
    outer loop
      vertex -3.46339 18.4799 3
      vertex -0.602386 20.9072 3
      vertex -1.07654 20.7782 3
    endloop
  endfacet
  facet normal 0 -0 1
    outer loop
      vertex 0.505524 -7.24042 3
      vertex 1.97838 -6.32756 3
      vertex 0.111282 -7.26649 3
    endloop
  endfacet
  facet normal 0 0 1
    outer loop
      vertex -3.46339 18.4799 3
      vertex -1.07654 20.7782 3
      vertex -1.52026 20.5974 3
    endloop
  endfacet
  facet normal 0 -0 1
    outer loop
      vertex 0.866547 -7.16217 3
      vertex 1.75026 -6.61446 3
      vertex 0.505524 -7.24042 3
    endloop
  endfacet
  facet normal 0 0 1
    outer loop
      vertex 1.48891 -6.84918 3
      vertex 0.866547 -7.16217 3
      vertex 1.19434 -7.03175 3
    endloop
  endfacet
  facet normal 0 0 1
    outer loop
      vertex 1.97838 -6.32756 3
      vertex 0.505524 -7.24042 3
      vertex 1.75026 -6.61446 3
    endloop
  endfacet
  facet normal 0 0 1
    outer loop
      vertex -3.46339 18.4799 3
      vertex -1.52026 20.5974 3
      vertex -1.93352 20.3651 3
    endloop
  endfacet
  facet normal -0 -0 1
    outer loop
      vertex -1.92271 -6.0295 3
      vertex 0.111282 -7.26649 3
      vertex -2.07892 -5.6497 3
    endloop
  endfacet
  facet normal 0 0 1
    outer loop
      vertex 0.111282 -7.26649 3
      vertex -1.92271 -6.0295 3
      vertex -0.288742 -7.24124 3
    endloop
  endfacet
  facet normal 0 0 1
    outer loop
      vertex -3.46339 18.4799 3
      vertex -1.93352 20.3651 3
      vertex -2.31635 20.0811 3
    endloop
  endfacet
  facet normal 0 0 1
    outer loop
      vertex -0.288742 -7.24124 3
      vertex -1.92271 -6.0295 3
      vertex -0.652298 -7.16551 3
    endloop
  endfacet
  facet normal -0 -0 1
    outer loop
      vertex -1.74161 -6.35768 3
      vertex -0.652298 -7.16551 3
      vertex -1.92271 -6.0295 3
    endloop
  endfacet
  facet normal 0 0 1
    outer loop
      vertex -0.979355 -7.03929 3
      vertex -1.74161 -6.35768 3
      vertex -1.26993 -6.86258 3
    endloop
  endfacet
  facet normal 0 0 1
    outer loop
      vertex -1.26993 -6.86258 3
      vertex -1.74161 -6.35768 3
      vertex -1.52402 -6.63538 3
    endloop
  endfacet
  facet normal 0 0 1
    outer loop
      vertex -3.46339 18.4799 3
      vertex -2.31635 20.0811 3
      vertex -2.6687 19.7455 3
    endloop
  endfacet
  facet normal 0 0 1
    outer loop
      vertex -0.652298 -7.16551 3
      vertex -1.74161 -6.35768 3
      vertex -0.979355 -7.03929 3
    endloop
  endfacet
  facet normal 0 0 1
    outer loop
      vertex -3.46339 18.4799 3
      vertex -2.6687 19.7455 3
      vertex -2.98177 19.3641 3
    endloop
  endfacet
  facet normal 0 0 1
    outer loop
      vertex -3.46339 18.4799 3
      vertex -2.98177 19.3641 3
      vertex -3.24667 18.9422 3
    endloop
  endfacet
  facet normal 0 0 1
    outer loop
      vertex 4.0863 17.7435 3
      vertex -3.46339 18.4799 3
      vertex -3.63197 17.977 3
    endloop
  endfacet
  facet normal 0 0 1
    outer loop
      vertex 1.75026 -6.61446 3
      vertex 0.866547 -7.16217 3
      vertex 1.48891 -6.84918 3
    endloop
  endfacet
  facet normal 0 0 1
    outer loop
      vertex 4.0863 17.7435 3
      vertex -3.63197 17.977 3
      vertex -3.75238 17.4337 3
    endloop
  endfacet
  facet normal 0 0 1
    outer loop
      vertex 4.15327 11.0865 3
      vertex -3.66945 11.8041 3
      vertex -3.60471 10.7605 3
    endloop
  endfacet
  facet normal 0 0 1
    outer loop
      vertex 4.20369 11.6137 3
      vertex -3.66945 11.8041 3
      vertex 4.15327 11.0865 3
    endloop
  endfacet
  facet normal 0 0 1
    outer loop
      vertex 4.19873 17.0774 3
      vertex -3.75238 17.4337 3
      vertex -3.82463 16.8498 3
    endloop
  endfacet
  facet normal 0 0 1
    outer loop
      vertex 4.24634 12.1386 3
      vertex -3.66945 11.8041 3
      vertex 4.20369 11.6137 3
    endloop
  endfacet
  facet normal 0 -0 1
    outer loop
      vertex -3.66945 11.8041 3
      vertex 4.24634 12.1386 3
      vertex -3.72421 12.7601 3
    endloop
  endfacet
  facet normal 0 0 1
    outer loop
      vertex 4.19873 17.0774 3
      vertex -3.82463 16.8498 3
      vertex -3.84871 16.2255 3
    endloop
  endfacet
  facet normal 0 0 1
    outer loop
      vertex 4.28123 12.6613 3
      vertex -3.72421 12.7601 3
      vertex 4.24634 12.1386 3
    endloop
  endfacet
  facet normal 0 0 1
    outer loop
      vertex 4.32721 15.5704 3
      vertex -3.84373 15.7077 3
      vertex -3.8288 15.1022 3
    endloop
  endfacet
  facet normal 0 0 1
    outer loop
      vertex 4.27904 16.353 3
      vertex -3.84871 16.2255 3
      vertex -3.84373 15.7077 3
    endloop
  endfacet
  facet normal 0 0 1
    outer loop
      vertex 3.4565 -13.5318 3
      vertex 4.34328 -16.0325 3
      vertex 4.31865 -15.5647 3
    endloop
  endfacet
  facet normal 0 0 1
    outer loop
      vertex 3.4565 -13.5318 3
      vertex 4.31865 -15.5647 3
      vertex 4.24475 -15.1173 3
    endloop
  endfacet
  facet normal 0 0 1
    outer loop
      vertex 3.13628 -13.1865 3
      vertex 4.34328 -16.0325 3
      vertex 3.4565 -13.5318 3
    endloop
  endfacet
  facet normal 0 0 1
    outer loop
      vertex 3.94916 -14.2838 3
      vertex 4.24475 -15.1173 3
      vertex 4.12158 -14.6903 3
    endloop
  endfacet
  facet normal 0 0 1
    outer loop
      vertex 4.31836 -16.5551 3
      vertex 2.76538 -19.2848 3
      vertex 4.24361 -17.0448 3
    endloop
  endfacet
  facet normal 0 0 1
    outer loop
      vertex 3.72746 -13.8976 3
      vertex 4.24475 -15.1173 3
      vertex 3.94916 -14.2838 3
    endloop
  endfacet
  facet normal 0 0 1
    outer loop
      vertex 4.24361 -17.0448 3
      vertex 2.76538 -19.2848 3
      vertex 4.11902 -17.5015 3
    endloop
  endfacet
  facet normal 0 0 1
    outer loop
      vertex 3.4565 -13.5318 3
      vertex 4.24475 -15.1173 3
      vertex 3.72746 -13.8976 3
    endloop
  endfacet
  facet normal 0 -0 1
    outer loop
      vertex 3.12228 -18.9985 3
      vertex 4.11902 -17.5015 3
      vertex 2.76538 -19.2848 3
    endloop
  endfacet
  facet normal 0 0 1
    outer loop
      vertex 1.17126 -19.9894 3
      vertex 4.34328 -16.0325 3
      vertex 3.13628 -13.1865 3
    endloop
  endfacet
  facet normal 0 0 1
    outer loop
      vertex 3.94458 -17.9252 3
      vertex 3.12228 -18.9985 3
      vertex 3.72032 -18.316 3
    endloop
  endfacet
  facet normal 0 0 1
    outer loop
      vertex 4.34328 -16.0325 3
      vertex 1.17126 -19.9894 3
      vertex 4.31836 -16.5551 3
    endloop
  endfacet
  facet normal 0 0 1
    outer loop
      vertex 3.72032 -18.316 3
      vertex 3.12228 -18.9985 3
      vertex 3.44621 -18.6737 3
    endloop
  endfacet
  facet normal 0 0 1
    outer loop
      vertex 0.731094 -20.0555 3
      vertex 3.13628 -13.1865 3
      vertex 2.78117 -12.8753 3
    endloop
  endfacet
  facet normal 0 0 1
    outer loop
      vertex 4.11902 -17.5015 3
      vertex 3.12228 -18.9985 3
      vertex 3.94458 -17.9252 3
    endloop
  endfacet
  facet normal 0 0 1
    outer loop
      vertex 0.731094 -20.0555 3
      vertex 2.78117 -12.8753 3
      vertex 2.40558 -12.612 3
    endloop
  endfacet
  facet normal 0 0 1
    outer loop
      vertex 4.31836 -16.5551 3
      vertex 2.39183 -19.527 3
      vertex 2.76538 -19.2848 3
    endloop
  endfacet
  facet normal 0 0 1
    outer loop
      vertex 0.731094 -20.0555 3
      vertex 2.40558 -12.612 3
      vertex 2.00951 -12.3965 3
    endloop
  endfacet
  facet normal 0 0 1
    outer loop
      vertex 4.31836 -16.5551 3
      vertex 2.00162 -19.7252 3
      vertex 2.39183 -19.527 3
    endloop
  endfacet
  facet normal 0 0 1
    outer loop
      vertex 4.31836 -16.5551 3
      vertex 1.59477 -19.8793 3
      vertex 2.00162 -19.7252 3
    endloop
  endfacet
  facet normal 0 0 1
    outer loop
      vertex 0.731094 -20.0555 3
      vertex 2.00951 -12.3965 3
      vertex 1.59293 -12.2289 3
    endloop
  endfacet
  facet normal 0 0 1
    outer loop
      vertex 4.31836 -16.5551 3
      vertex 1.17126 -19.9894 3
      vertex 1.59477 -19.8793 3
    endloop
  endfacet
  facet normal 0 0 1
    outer loop
      vertex 0.731094 -20.0555 3
      vertex 1.59293 -12.2289 3
      vertex 1.15587 -12.1093 3
    endloop
  endfacet
  facet normal 0 0 1
    outer loop
      vertex 3.13628 -13.1865 3
      vertex 0.731094 -20.0555 3
      vertex 1.17126 -19.9894 3
    endloop
  endfacet
  facet normal 0 0 1
    outer loop
      vertex 0.698318 -12.0374 3
      vertex 0.731094 -20.0555 3
      vertex 1.15587 -12.1093 3
    endloop
  endfacet
  facet normal 0 0 1
    outer loop
      vertex 0.698318 -12.0374 3
      vertex 0.274277 -20.0775 3
      vertex 0.731094 -20.0555 3
    endloop
  endfacet
  facet normal 0 0 1
    outer loop
      vertex 0.220276 -12.0135 3
      vertex 0.274277 -20.0775 3
      vertex 0.698318 -12.0374 3
    endloop
  endfacet
  facet normal 0 0 1
    outer loop
      vertex 0.220276 -12.0135 3
      vertex -0.189972 -20.0558 3
      vertex 0.274277 -20.0775 3
    endloop
  endfacet
  facet normal -0 0 1
    outer loop
      vertex -0.257202 -12.0374 3
      vertex -0.189972 -20.0558 3
      vertex 0.220276 -12.0135 3
    endloop
  endfacet
  facet normal 0 0 1
    outer loop
      vertex -0.257202 -12.0374 3
      vertex -0.637054 -19.9906 3
      vertex -0.189972 -20.0558 3
    endloop
  endfacet
  facet normal -0 0 1
    outer loop
      vertex -0.713089 -12.1093 3
      vertex -0.637054 -19.9906 3
      vertex -0.257202 -12.0374 3
    endloop
  endfacet
  facet normal 0 0 1
    outer loop
      vertex -0.713089 -12.1093 3
      vertex -1.06696 -19.8819 3
      vertex -0.637054 -19.9906 3
    endloop
  endfacet
  facet normal -0 0 1
    outer loop
      vertex -1.1474 -12.2289 3
      vertex -1.06696 -19.8819 3
      vertex -0.713089 -12.1093 3
    endloop
  endfacet
  facet normal -0 0 1
    outer loop
      vertex -1.56012 -12.3965 3
      vertex -1.06696 -19.8819 3
      vertex -1.1474 -12.2289 3
    endloop
  endfacet
  facet normal -0 0 1
    outer loop
      vertex -1.95123 -12.612 3
      vertex -1.06696 -19.8819 3
      vertex -1.56012 -12.3965 3
    endloop
  endfacet
  facet normal -0 0 1
    outer loop
      vertex -2.32077 -12.8753 3
      vertex -1.06696 -19.8819 3
      vertex -1.95123 -12.612 3
    endloop
  endfacet
  facet normal -0 0 1
    outer loop
      vertex -2.6687 -13.1865 3
      vertex -1.06696 -19.8819 3
      vertex -2.32077 -12.8753 3
    endloop
  endfacet
  facet normal -0 0 1
    outer loop
      vertex -3.84871 -16.0325 3
      vertex -1.06696 -19.8819 3
      vertex -2.6687 -13.1865 3
    endloop
  endfacet
  facet normal 0 0 1
    outer loop
      vertex -1.06696 -19.8819 3
      vertex -3.84871 -16.0325 3
      vertex -1.47966 -19.7297 3
    endloop
  endfacet
  facet normal 0 0 1
    outer loop
      vertex -1.47966 -19.7297 3
      vertex -3.84871 -16.0325 3
      vertex -1.8752 -19.5341 3
    endloop
  endfacet
  facet normal -0 -0 1
    outer loop
      vertex -3.82352 -16.562 3
      vertex -1.8752 -19.5341 3
      vertex -3.84871 -16.0325 3
    endloop
  endfacet
  facet normal -0 -0 1
    outer loop
      vertex -3.74797 -17.057 3
      vertex -2.25354 -19.295 3
      vertex -3.82352 -16.562 3
    endloop
  endfacet
  facet normal 0 0 1
    outer loop
      vertex -3.84871 -16.0325 3
      vertex -2.6687 -13.1865 3
      vertex -2.98177 -13.5318 3
    endloop
  endfacet
  facet normal 0 0 1
    outer loop
      vertex -2.25354 -19.295 3
      vertex -3.74797 -17.057 3
      vertex -2.6147 -19.0125 3
    endloop
  endfacet
  facet normal 0 0 1
    outer loop
      vertex -3.84871 -16.0325 3
      vertex -2.98177 -13.5318 3
      vertex -3.24667 -13.8976 3
    endloop
  endfacet
  facet normal 0 0 1
    outer loop
      vertex -2.6147 -19.0125 3
      vertex -3.74797 -17.057 3
      vertex -2.94209 -18.6906 3
    endloop
  endfacet
  facet normal 0 0 1
    outer loop
      vertex -3.84871 -16.0325 3
      vertex -3.24667 -13.8976 3
      vertex -3.46339 -14.2838 3
    endloop
  endfacet
  facet normal 0 0 1
    outer loop
      vertex -2.94209 -18.6906 3
      vertex -3.74797 -17.057 3
      vertex -3.21912 -18.3341 3
    endloop
  endfacet
  facet normal 0 0 1
    outer loop
      vertex -3.84871 -16.0325 3
      vertex -3.46339 -14.2838 3
      vertex -3.63197 -14.6903 3
    endloop
  endfacet
  facet normal 0 0 1
    outer loop
      vertex -3.21912 -18.3341 3
      vertex -3.74797 -17.057 3
      vertex -3.44577 -17.943 3
    endloop
  endfacet
  facet normal 0 0 1
    outer loop
      vertex -3.84871 -16.0325 3
      vertex -3.63197 -14.6903 3
      vertex -3.75238 -15.1173 3
    endloop
  endfacet
  facet normal 0 0 1
    outer loop
      vertex -3.44577 -17.943 3
      vertex -3.74797 -17.057 3
      vertex -3.62206 -17.5173 3
    endloop
  endfacet
  facet normal 0 0 1
    outer loop
      vertex -3.84871 -16.0325 3
      vertex -3.75238 -15.1173 3
      vertex -3.82463 -15.5647 3
    endloop
  endfacet
  facet normal 0 0 1
    outer loop
      vertex -1.8752 -19.5341 3
      vertex -3.82352 -16.562 3
      vertex -2.25354 -19.295 3
    endloop
  endfacet
  facet normal 0.211819 -0.977309 0
    outer loop
      vertex 0.505524 -7.24042 1.5
      vertex 0.866547 -7.16217 3
      vertex 0.505524 -7.24042 3
    endloop
  endfacet
  facet normal 0.211819 -0.977309 0
    outer loop
      vertex 0.866547 -7.16217 3
      vertex 0.505524 -7.24042 1.5
      vertex 0.866547 -7.16217 1.5
    endloop
  endfacet
  facet normal 0.369682 -0.929158 0
    outer loop
      vertex 0.866547 -7.16217 1.5
      vertex 1.19434 -7.03175 3
      vertex 0.866547 -7.16217 3
    endloop
  endfacet
  facet normal 0.369682 -0.929158 0
    outer loop
      vertex 1.19434 -7.03175 3
      vertex 0.866547 -7.16217 1.5
      vertex 1.19434 -7.03175 1.5
    endloop
  endfacet
  facet normal 0.526809 -0.849984 0
    outer loop
      vertex 1.19434 -7.03175 1.5
      vertex 1.48891 -6.84918 3
      vertex 1.19434 -7.03175 3
    endloop
  endfacet
  facet normal 0.526809 -0.849984 0
    outer loop
      vertex 1.48891 -6.84918 3
      vertex 1.19434 -7.03175 1.5
      vertex 1.48891 -6.84918 1.5
    endloop
  endfacet
  facet normal 0.668192 -0.743989 0
    outer loop
      vertex 1.48891 -6.84918 1.5
      vertex 1.75026 -6.61446 3
      vertex 1.48891 -6.84918 3
    endloop
  endfacet
  facet normal 0.668192 -0.743989 0
    outer loop
      vertex 1.75026 -6.61446 3
      vertex 1.48891 -6.84918 1.5
      vertex 1.75026 -6.61446 1.5
    endloop
  endfacet
  facet normal 0.782725 -0.622367 0
    outer loop
      vertex 1.75026 -6.61446 3
      vertex 1.97838 -6.32756 1.5
      vertex 1.97838 -6.32756 3
    endloop
  endfacet
  facet normal 0.782725 -0.622367 0
    outer loop
      vertex 1.97838 -6.32756 1.5
      vertex 1.75026 -6.61446 3
      vertex 1.75026 -6.61446 1.5
    endloop
  endfacet
  facet normal 0.866975 -0.498352 0
    outer loop
      vertex 1.97838 -6.32756 3
      vertex 2.17328 -5.98849 1.5
      vertex 2.17328 -5.98849 3
    endloop
  endfacet
  facet normal 0.866975 -0.498352 0
    outer loop
      vertex 2.17328 -5.98849 1.5
      vertex 1.97838 -6.32756 3
      vertex 1.97838 -6.32756 1.5
    endloop
  endfacet
  facet normal 0.916386 -0.400297 0
    outer loop
      vertex 2.17328 -5.98849 3
      vertex 2.34271 -5.60062 1.5
      vertex 2.34271 -5.60062 3
    endloop
  endfacet
  facet normal 0.916386 -0.400297 0
    outer loop
      vertex 2.34271 -5.60062 1.5
      vertex 2.17328 -5.98849 3
      vertex 2.17328 -5.98849 1.5
    endloop
  endfacet
  facet normal 0.943838 -0.33041 0
    outer loop
      vertex 2.34271 -5.60062 3
      vertex 2.49442 -5.16727 1.5
      vertex 2.49442 -5.16727 3
    endloop
  endfacet
  facet normal 0.943838 -0.33041 0
    outer loop
      vertex 2.49442 -5.16727 1.5
      vertex 2.34271 -5.60062 3
      vertex 2.34271 -5.60062 1.5
    endloop
  endfacet
  facet normal 0.962999 -0.269505 0
    outer loop
      vertex 2.49442 -5.16727 3
      vertex 2.62842 -4.68845 1.5
      vertex 2.62842 -4.68845 3
    endloop
  endfacet
  facet normal 0.962999 -0.269505 0
    outer loop
      vertex 2.62842 -4.68845 1.5
      vertex 2.49442 -5.16727 3
      vertex 2.49442 -5.16727 1.5
    endloop
  endfacet
  facet normal 0.976273 -0.216542 0
    outer loop
      vertex 2.62842 -4.68845 3
      vertex 2.74471 -4.16417 1.5
      vertex 2.74471 -4.16417 3
    endloop
  endfacet
  facet normal 0.976273 -0.216542 0
    outer loop
      vertex 2.74471 -4.16417 1.5
      vertex 2.62842 -4.68845 3
      vertex 2.62842 -4.68845 1.5
    endloop
  endfacet
  facet normal 0.985362 -0.170472 0
    outer loop
      vertex 2.74471 -4.16417 3
      vertex 2.84328 -3.59441 1.5
      vertex 2.84328 -3.59441 3
    endloop
  endfacet
  facet normal 0.985362 -0.170472 0
    outer loop
      vertex 2.84328 -3.59441 1.5
      vertex 2.74471 -4.16417 3
      vertex 2.74471 -4.16417 1.5
    endloop
  endfacet
  facet normal 0.991474 -0.130306 0
    outer loop
      vertex 2.84328 -3.59441 3
      vertex 2.92413 -2.97919 1.5
      vertex 2.92413 -2.97919 3
    endloop
  endfacet
  facet normal 0.991474 -0.130306 0
    outer loop
      vertex 2.92413 -2.97919 1.5
      vertex 2.84328 -3.59441 3
      vertex 2.84328 -3.59441 1.5
    endloop
  endfacet
  facet normal 0.995464 -0.0951346 0
    outer loop
      vertex 2.92413 -2.97919 3
      vertex 2.98727 -2.3185 1.5
      vertex 2.98727 -2.3185 3
    endloop
  endfacet
  facet normal 0.995464 -0.0951346 0
    outer loop
      vertex 2.98727 -2.3185 1.5
      vertex 2.92413 -2.97919 3
      vertex 2.92413 -2.97919 1.5
    endloop
  endfacet
  facet normal 0.996238 -0.0866554 0
    outer loop
      vertex 2.98727 -2.3185 3
      vertex 4.15327 11.0865 1.5
      vertex 4.15327 11.0865 3
    endloop
  endfacet
  facet normal 0.996238 -0.0866554 0
    outer loop
      vertex 4.15327 11.0865 1.5
      vertex 2.98727 -2.3185 3
      vertex 2.98727 -2.3185 1.5
    endloop
  endfacet
  facet normal 0.995458 -0.095198 0
    outer loop
      vertex 4.15327 11.0865 3
      vertex 4.20369 11.6137 1.5
      vertex 4.20369 11.6137 3
    endloop
  endfacet
  facet normal 0.995458 -0.095198 0
    outer loop
      vertex 4.20369 11.6137 1.5
      vertex 4.15327 11.0865 3
      vertex 4.15327 11.0865 1.5
    endloop
  endfacet
  facet normal 0.996716 -0.0809808 0
    outer loop
      vertex 4.20369 11.6137 3
      vertex 4.24634 12.1386 1.5
      vertex 4.24634 12.1386 3
    endloop
  endfacet
  facet normal 0.996716 -0.0809808 0
    outer loop
      vertex 4.24634 12.1386 1.5
      vertex 4.20369 11.6137 3
      vertex 4.20369 11.6137 1.5
    endloop
  endfacet
  facet normal 0.997779 -0.0666176 0
    outer loop
      vertex 4.24634 12.1386 3
      vertex 4.28123 12.6613 1.5
      vertex 4.28123 12.6613 3
    endloop
  endfacet
  facet normal 0.997779 -0.0666176 0
    outer loop
      vertex 4.28123 12.6613 1.5
      vertex 4.24634 12.1386 3
      vertex 4.24634 12.1386 1.5
    endloop
  endfacet
  facet normal 0.998642 -0.0520901 0
    outer loop
      vertex 4.28123 12.6613 3
      vertex 4.30838 13.1817 1.5
      vertex 4.30838 13.1817 3
    endloop
  endfacet
  facet normal 0.998642 -0.0520901 0
    outer loop
      vertex 4.30838 13.1817 1.5
      vertex 4.28123 12.6613 3
      vertex 4.28123 12.6613 1.5
    endloop
  endfacet
  facet normal 0.9993 -0.0374002 0
    outer loop
      vertex 4.30838 13.1817 3
      vertex 4.32777 13.6999 1.5
      vertex 4.32777 13.6999 3
    endloop
  endfacet
  facet normal 0.9993 -0.0374002 0
    outer loop
      vertex 4.32777 13.6999 1.5
      vertex 4.30838 13.1817 3
      vertex 4.30838 13.1817 1.5
    endloop
  endfacet
  facet normal 0.999746 -0.02253 0
    outer loop
      vertex 4.32777 13.6999 3
      vertex 4.3394 14.2158 1.5
      vertex 4.3394 14.2158 3
    endloop
  endfacet
  facet normal 0.999746 -0.02253 0
    outer loop
      vertex 4.3394 14.2158 1.5
      vertex 4.32777 13.6999 3
      vertex 4.32777 13.6999 1.5
    endloop
  endfacet
  facet normal 0.999972 -0.00754471 0
    outer loop
      vertex 4.3394 14.2158 3
      vertex 4.34328 14.7295 1.5
      vertex 4.34328 14.7295 3
    endloop
  endfacet
  facet normal 0.999972 -0.00754471 0
    outer loop
      vertex 4.34328 14.7295 1.5
      vertex 4.3394 14.2158 3
      vertex 4.3394 14.2158 1.5
    endloop
  endfacet
  facet normal 0.999817 0.0191044 0
    outer loop
      vertex 4.34328 14.7295 3
      vertex 4.32721 15.5704 1.5
      vertex 4.32721 15.5704 3
    endloop
  endfacet
  facet normal 0.999817 0.0191044 0
    outer loop
      vertex 4.32721 15.5704 1.5
      vertex 4.34328 14.7295 3
      vertex 4.34328 14.7295 1.5
    endloop
  endfacet
  facet normal 0.998111 0.0614357 0
    outer loop
      vertex 4.32721 15.5704 3
      vertex 4.27904 16.353 1.5
      vertex 4.27904 16.353 3
    endloop
  endfacet
  facet normal 0.998111 0.0614357 0
    outer loop
      vertex 4.27904 16.353 1.5
      vertex 4.32721 15.5704 3
      vertex 4.32721 15.5704 1.5
    endloop
  endfacet
  facet normal 0.993911 0.110186 0
    outer loop
      vertex 4.27904 16.353 3
      vertex 4.19873 17.0774 1.5
      vertex 4.19873 17.0774 3
    endloop
  endfacet
  facet normal 0.993911 0.110186 0
    outer loop
      vertex 4.19873 17.0774 1.5
      vertex 4.27904 16.353 3
      vertex 4.27904 16.353 1.5
    endloop
  endfacet
  facet normal 0.986055 0.16642 0
    outer loop
      vertex 4.19873 17.0774 3
      vertex 4.0863 17.7435 1.5
      vertex 4.0863 17.7435 3
    endloop
  endfacet
  facet normal 0.986055 0.16642 0
    outer loop
      vertex 4.0863 17.7435 1.5
      vertex 4.19873 17.0774 3
      vertex 4.19873 17.0774 1.5
    endloop
  endfacet
  facet normal 0.972869 0.231355 0
    outer loop
      vertex 4.0863 17.7435 3
      vertex 3.94174 18.3514 1.5
      vertex 3.94174 18.3514 3
    endloop
  endfacet
  facet normal 0.972869 0.231355 0
    outer loop
      vertex 3.94174 18.3514 1.5
      vertex 4.0863 17.7435 3
      vertex 4.0863 17.7435 1.5
    endloop
  endfacet
  facet normal 0.952032 0.305997 0
    outer loop
      vertex 3.94174 18.3514 3
      vertex 3.76508 18.9011 1.5
      vertex 3.76508 18.9011 3
    endloop
  endfacet
  facet normal 0.952032 0.305997 0
    outer loop
      vertex 3.76508 18.9011 1.5
      vertex 3.94174 18.3514 3
      vertex 3.94174 18.3514 1.5
    endloop
  endfacet
  facet normal 0.920363 0.391065 0
    outer loop
      vertex 3.76508 18.9011 3
      vertex 3.55627 19.3925 1.5
      vertex 3.55627 19.3925 3
    endloop
  endfacet
  facet normal 0.920363 0.391065 0
    outer loop
      vertex 3.55627 19.3925 1.5
      vertex 3.76508 18.9011 3
      vertex 3.76508 18.9011 1.5
    endloop
  endfacet
  facet normal 0.858754 0.512389 0
    outer loop
      vertex 3.55627 19.3925 3
      vertex 3.30014 19.8218 1.5
      vertex 3.30014 19.8218 3
    endloop
  endfacet
  facet normal 0.858754 0.512389 0
    outer loop
      vertex 3.30014 19.8218 1.5
      vertex 3.55627 19.3925 3
      vertex 3.55627 19.3925 1.5
    endloop
  endfacet
  facet normal 0.751066 0.660227 0
    outer loop
      vertex 3.30014 19.8218 3
      vertex 2.98085 20.185 1.5
      vertex 2.98085 20.185 3
    endloop
  endfacet
  facet normal 0.751066 0.660227 0
    outer loop
      vertex 2.98085 20.185 1.5
      vertex 3.30014 19.8218 3
      vertex 3.30014 19.8218 1.5
    endloop
  endfacet
  facet normal 0.613598 0.789618 -0
    outer loop
      vertex 2.98085 20.185 1.5
      vertex 2.59842 20.4822 3
      vertex 2.98085 20.185 3
    endloop
  endfacet
  facet normal 0.613598 0.789618 0
    outer loop
      vertex 2.59842 20.4822 3
      vertex 2.98085 20.185 1.5
      vertex 2.59842 20.4822 1.5
    endloop
  endfacet
  facet normal 0.460479 0.887671 -0
    outer loop
      vertex 2.59842 20.4822 1.5
      vertex 2.15285 20.7133 3
      vertex 2.59842 20.4822 3
    endloop
  endfacet
  facet normal 0.460479 0.887671 0
    outer loop
      vertex 2.15285 20.7133 3
      vertex 2.59842 20.4822 1.5
      vertex 2.15285 20.7133 1.5
    endloop
  endfacet
  facet normal 0.30872 0.951153 -0
    outer loop
      vertex 2.15285 20.7133 1.5
      vertex 1.64413 20.8784 3
      vertex 2.15285 20.7133 3
    endloop
  endfacet
  facet normal 0.30872 0.951153 0
    outer loop
      vertex 1.64413 20.8784 3
      vertex 2.15285 20.7133 1.5
      vertex 1.64413 20.8784 1.5
    endloop
  endfacet
  facet normal 0.170684 0.985326 -0
    outer loop
      vertex 1.64413 20.8784 1.5
      vertex 1.07228 20.9775 3
      vertex 1.64413 20.8784 3
    endloop
  endfacet
  facet normal 0.170684 0.985326 0
    outer loop
      vertex 1.07228 20.9775 3
      vertex 1.64413 20.8784 1.5
      vertex 1.07228 20.9775 1.5
    endloop
  endfacet
  facet normal 0.0519291 0.998651 -0
    outer loop
      vertex 1.07228 20.9775 1.5
      vertex 0.437271 21.0105 3
      vertex 1.07228 20.9775 3
    endloop
  endfacet
  facet normal 0.0519291 0.998651 0
    outer loop
      vertex 0.437271 21.0105 3
      vertex 1.07228 20.9775 1.5
      vertex 0.437271 21.0105 1.5
    endloop
  endfacet
  facet normal -0.0481985 0.998838 0
    outer loop
      vertex 0.437271 21.0105 1.5
      vertex -0.0977631 20.9847 3
      vertex 0.437271 21.0105 3
    endloop
  endfacet
  facet normal -0.0481985 0.998838 0
    outer loop
      vertex -0.0977631 20.9847 3
      vertex 0.437271 21.0105 1.5
      vertex -0.0977631 20.9847 1.5
    endloop
  endfacet
  facet normal -0.151711 0.988425 0
    outer loop
      vertex -0.0977631 20.9847 1.5
      vertex -0.602386 20.9072 3
      vertex -0.0977631 20.9847 3
    endloop
  endfacet
  facet normal -0.151711 0.988425 0
    outer loop
      vertex -0.602386 20.9072 3
      vertex -0.0977631 20.9847 1.5
      vertex -0.602386 20.9072 1.5
    endloop
  endfacet
  facet normal -0.262663 0.964888 0
    outer loop
      vertex -0.602386 20.9072 1.5
      vertex -1.07654 20.7782 3
      vertex -0.602386 20.9072 3
    endloop
  endfacet
  facet normal -0.262663 0.964888 0
    outer loop
      vertex -1.07654 20.7782 3
      vertex -0.602386 20.9072 1.5
      vertex -1.07654 20.7782 1.5
    endloop
  endfacet
  facet normal -0.377204 0.92613 0
    outer loop
      vertex -1.07654 20.7782 1.5
      vertex -1.52026 20.5974 3
      vertex -1.07654 20.7782 3
    endloop
  endfacet
  facet normal -0.377204 0.92613 0
    outer loop
      vertex -1.52026 20.5974 3
      vertex -1.07654 20.7782 1.5
      vertex -1.52026 20.5974 1.5
    endloop
  endfacet
  facet normal -0.490085 0.871674 0
    outer loop
      vertex -1.52026 20.5974 1.5
      vertex -1.93352 20.3651 3
      vertex -1.52026 20.5974 3
    endloop
  endfacet
  facet normal -0.490085 0.871674 0
    outer loop
      vertex -1.93352 20.3651 3
      vertex -1.52026 20.5974 1.5
      vertex -1.93352 20.3651 1.5
    endloop
  endfacet
  facet normal -0.595776 0.80315 0
    outer loop
      vertex -1.93352 20.3651 1.5
      vertex -2.31635 20.0811 3
      vertex -1.93352 20.3651 3
    endloop
  endfacet
  facet normal -0.595776 0.80315 0
    outer loop
      vertex -2.31635 20.0811 3
      vertex -1.93352 20.3651 1.5
      vertex -2.31635 20.0811 1.5
    endloop
  endfacet
  facet normal -0.689682 0.724113 0
    outer loop
      vertex -2.31635 20.0811 1.5
      vertex -2.6687 19.7455 3
      vertex -2.31635 20.0811 3
    endloop
  endfacet
  facet normal -0.689682 0.724113 0
    outer loop
      vertex -2.6687 19.7455 3
      vertex -2.31635 20.0811 1.5
      vertex -2.6687 19.7455 1.5
    endloop
  endfacet
  facet normal -0.772948 0.63447 0
    outer loop
      vertex -2.98177 19.3641 1.5
      vertex -2.6687 19.7455 3
      vertex -2.6687 19.7455 1.5
    endloop
  endfacet
  facet normal -0.772948 0.63447 0
    outer loop
      vertex -2.6687 19.7455 3
      vertex -2.98177 19.3641 1.5
      vertex -2.98177 19.3641 3
    endloop
  endfacet
  facet normal -0.846881 0.531782 0
    outer loop
      vertex -3.24667 18.9422 1.5
      vertex -2.98177 19.3641 3
      vertex -2.98177 19.3641 1.5
    endloop
  endfacet
  facet normal -0.846881 0.531782 0
    outer loop
      vertex -2.98177 19.3641 3
      vertex -3.24667 18.9422 1.5
      vertex -3.24667 18.9422 3
    endloop
  endfacet
  facet normal -0.905471 0.424408 0
    outer loop
      vertex -3.46339 18.4799 1.5
      vertex -3.24667 18.9422 3
      vertex -3.24667 18.9422 1.5
    endloop
  endfacet
  facet normal -0.905471 0.424408 0
    outer loop
      vertex -3.24667 18.9422 3
      vertex -3.46339 18.4799 1.5
      vertex -3.46339 18.4799 3
    endloop
  endfacet
  facet normal -0.948138 0.317859 0
    outer loop
      vertex -3.63197 17.977 1.5
      vertex -3.46339 18.4799 3
      vertex -3.46339 18.4799 1.5
    endloop
  endfacet
  facet normal -0.948138 0.317859 0
    outer loop
      vertex -3.46339 18.4799 3
      vertex -3.63197 17.977 1.5
      vertex -3.63197 17.977 3
    endloop
  endfacet
  facet normal -0.976315 0.216353 0
    outer loop
      vertex -3.75238 17.4337 1.5
      vertex -3.63197 17.977 3
      vertex -3.63197 17.977 1.5
    endloop
  endfacet
  facet normal -0.976315 0.216353 0
    outer loop
      vertex -3.63197 17.977 3
      vertex -3.75238 17.4337 1.5
      vertex -3.75238 17.4337 3
    endloop
  endfacet
  facet normal -0.99243 0.122815 0
    outer loop
      vertex -3.82463 16.8498 1.5
      vertex -3.75238 17.4337 3
      vertex -3.75238 17.4337 1.5
    endloop
  endfacet
  facet normal -0.99243 0.122815 0
    outer loop
      vertex -3.75238 17.4337 3
      vertex -3.82463 16.8498 1.5
      vertex -3.82463 16.8498 3
    endloop
  endfacet
  facet normal -0.999257 0.0385382 0
    outer loop
      vertex -3.84871 16.2255 1.5
      vertex -3.82463 16.8498 3
      vertex -3.82463 16.8498 1.5
    endloop
  endfacet
  facet normal -0.999257 0.0385382 0
    outer loop
      vertex -3.82463 16.8498 3
      vertex -3.84871 16.2255 1.5
      vertex -3.84871 16.2255 3
    endloop
  endfacet
  facet normal -0.999954 -0.00960587 0
    outer loop
      vertex -3.84373 15.7077 1.5
      vertex -3.84871 16.2255 3
      vertex -3.84871 16.2255 1.5
    endloop
  endfacet
  facet normal -0.999954 -0.00960587 0
    outer loop
      vertex -3.84871 16.2255 3
      vertex -3.84373 15.7077 1.5
      vertex -3.84373 15.7077 3
    endloop
  endfacet
  facet normal -0.999696 -0.0246661 0
    outer loop
      vertex -3.8288 15.1022 1.5
      vertex -3.84373 15.7077 3
      vertex -3.84373 15.7077 1.5
    endloop
  endfacet
  facet normal -0.999696 -0.0246661 0
    outer loop
      vertex -3.84373 15.7077 3
      vertex -3.8288 15.1022 1.5
      vertex -3.8288 15.1022 3
    endloop
  endfacet
  facet normal -0.999355 -0.0359066 0
    outer loop
      vertex -3.80389 14.4091 1.5
      vertex -3.8288 15.1022 3
      vertex -3.8288 15.1022 1.5
    endloop
  endfacet
  facet normal -0.999355 -0.0359066 0
    outer loop
      vertex -3.8288 15.1022 3
      vertex -3.80389 14.4091 1.5
      vertex -3.80389 14.4091 3
    endloop
  endfacet
  facet normal -0.999004 -0.044615 0
    outer loop
      vertex -3.76903 13.6284 1.5
      vertex -3.80389 14.4091 3
      vertex -3.80389 14.4091 1.5
    endloop
  endfacet
  facet normal -0.999004 -0.044615 0
    outer loop
      vertex -3.80389 14.4091 3
      vertex -3.76903 13.6284 1.5
      vertex -3.76903 13.6284 3
    endloop
  endfacet
  facet normal -0.998671 -0.051541 0
    outer loop
      vertex -3.72421 12.7601 1.5
      vertex -3.76903 13.6284 3
      vertex -3.76903 13.6284 1.5
    endloop
  endfacet
  facet normal -0.998671 -0.051541 0
    outer loop
      vertex -3.76903 13.6284 3
      vertex -3.72421 12.7601 1.5
      vertex -3.72421 12.7601 3
    endloop
  endfacet
  facet normal -0.998363 -0.0571918 0
    outer loop
      vertex -3.66945 11.8041 1.5
      vertex -3.72421 12.7601 3
      vertex -3.72421 12.7601 1.5
    endloop
  endfacet
  facet normal -0.998363 -0.0571918 0
    outer loop
      vertex -3.72421 12.7601 3
      vertex -3.66945 11.8041 1.5
      vertex -3.66945 11.8041 3
    endloop
  endfacet
  facet normal -0.998081 -0.0619186 0
    outer loop
      vertex -3.60471 10.7605 1.5
      vertex -3.66945 11.8041 3
      vertex -3.66945 11.8041 1.5
    endloop
  endfacet
  facet normal -0.998081 -0.0619186 0
    outer loop
      vertex -3.66945 11.8041 3
      vertex -3.60471 10.7605 1.5
      vertex -3.60471 10.7605 3
    endloop
  endfacet
  facet normal -0.997787 -0.0664984 0
    outer loop
      vertex -2.73671 -2.26349 1.5
      vertex -3.60471 10.7605 3
      vertex -3.60471 10.7605 1.5
    endloop
  endfacet
  facet normal -0.997787 -0.0664984 0
    outer loop
      vertex -3.60471 10.7605 3
      vertex -2.73671 -2.26349 1.5
      vertex -2.73671 -2.26349 3
    endloop
  endfacet
  facet normal -0.994037 -0.10904 0
    outer loop
      vertex -2.66034 -2.9597 1.5
      vertex -2.73671 -2.26349 3
      vertex -2.73671 -2.26349 1.5
    endloop
  endfacet
  facet normal -0.994037 -0.10904 0
    outer loop
      vertex -2.73671 -2.26349 3
      vertex -2.66034 -2.9597 1.5
      vertex -2.66034 -2.9597 3
    endloop
  endfacet
  facet normal -0.990428 -0.13803 0
    outer loop
      vertex -2.57066 -3.60316 1.5
      vertex -2.66034 -2.9597 3
      vertex -2.66034 -2.9597 1.5
    endloop
  endfacet
  facet normal -0.990428 -0.13803 0
    outer loop
      vertex -2.66034 -2.9597 3
      vertex -2.57066 -3.60316 1.5
      vertex -2.57066 -3.60316 3
    endloop
  endfacet
  facet normal -0.985142 -0.17174 0
    outer loop
      vertex -2.46768 -4.19389 1.5
      vertex -2.57066 -3.60316 3
      vertex -2.57066 -3.60316 1.5
    endloop
  endfacet
  facet normal -0.985142 -0.17174 0
    outer loop
      vertex -2.57066 -3.60316 3
      vertex -2.46768 -4.19389 1.5
      vertex -2.46768 -4.19389 3
    endloop
  endfacet
  facet normal -0.977429 -0.211265 0
    outer loop
      vertex -2.35139 -4.7319 1.5
      vertex -2.46768 -4.19389 3
      vertex -2.46768 -4.19389 1.5
    endloop
  endfacet
  facet normal -0.977429 -0.211265 0
    outer loop
      vertex -2.46768 -4.19389 3
      vertex -2.35139 -4.7319 1.5
      vertex -2.35139 -4.7319 3
    endloop
  endfacet
  facet normal -0.966141 -0.258016 0
    outer loop
      vertex -2.2218 -5.21716 1.5
      vertex -2.35139 -4.7319 3
      vertex -2.35139 -4.7319 1.5
    endloop
  endfacet
  facet normal -0.966141 -0.258016 0
    outer loop
      vertex -2.35139 -4.7319 3
      vertex -2.2218 -5.21716 1.5
      vertex -2.2218 -5.21716 3
    endloop
  endfacet
  facet normal -0.949534 -0.313664 0
    outer loop
      vertex -2.07892 -5.6497 1.5
      vertex -2.2218 -5.21716 3
      vertex -2.2218 -5.21716 1.5
    endloop
  endfacet
  facet normal -0.949534 -0.313664 0
    outer loop
      vertex -2.2218 -5.21716 3
      vertex -2.07892 -5.6497 1.5
      vertex -2.07892 -5.6497 3
    endloop
  endfacet
  facet normal -0.924833 -0.380374 0
    outer loop
      vertex -1.92271 -6.0295 1.5
      vertex -2.07892 -5.6497 3
      vertex -2.07892 -5.6497 1.5
    endloop
  endfacet
  facet normal -0.924833 -0.380374 0
    outer loop
      vertex -2.07892 -5.6497 3
      vertex -1.92271 -6.0295 1.5
      vertex -1.92271 -6.0295 3
    endloop
  endfacet
  facet normal -0.875534 -0.483156 0
    outer loop
      vertex -1.74161 -6.35768 1.5
      vertex -1.92271 -6.0295 3
      vertex -1.92271 -6.0295 1.5
    endloop
  endfacet
  facet normal -0.875534 -0.483156 0
    outer loop
      vertex -1.92271 -6.0295 3
      vertex -1.74161 -6.35768 1.5
      vertex -1.74161 -6.35768 3
    endloop
  endfacet
  facet normal -0.787142 -0.616772 0
    outer loop
      vertex -1.52402 -6.63538 1.5
      vertex -1.74161 -6.35768 3
      vertex -1.74161 -6.35768 1.5
    endloop
  endfacet
  facet normal -0.787142 -0.616772 0
    outer loop
      vertex -1.74161 -6.35768 3
      vertex -1.52402 -6.63538 1.5
      vertex -1.52402 -6.63538 3
    endloop
  endfacet
  facet normal -0.666567 -0.745445 0
    outer loop
      vertex -1.52402 -6.63538 1.5
      vertex -1.26993 -6.86258 3
      vertex -1.52402 -6.63538 3
    endloop
  endfacet
  facet normal -0.666567 -0.745445 -0
    outer loop
      vertex -1.26993 -6.86258 3
      vertex -1.52402 -6.63538 1.5
      vertex -1.26993 -6.86258 1.5
    endloop
  endfacet
  facet normal -0.519607 -0.854406 0
    outer loop
      vertex -1.26993 -6.86258 1.5
      vertex -0.979355 -7.03929 3
      vertex -1.26993 -6.86258 3
    endloop
  endfacet
  facet normal -0.519607 -0.854406 -0
    outer loop
      vertex -0.979355 -7.03929 3
      vertex -1.26993 -6.86258 1.5
      vertex -0.979355 -7.03929 1.5
    endloop
  endfacet
  facet normal -0.360046 -0.932934 0
    outer loop
      vertex -0.979355 -7.03929 1.5
      vertex -0.652298 -7.16551 3
      vertex -0.979355 -7.03929 3
    endloop
  endfacet
  facet normal -0.360046 -0.932934 -0
    outer loop
      vertex -0.652298 -7.16551 3
      vertex -0.979355 -7.03929 1.5
      vertex -0.652298 -7.16551 1.5
    endloop
  endfacet
  facet normal -0.203925 -0.978987 0
    outer loop
      vertex -0.652298 -7.16551 1.5
      vertex -0.288742 -7.24124 3
      vertex -0.652298 -7.16551 3
    endloop
  endfacet
  facet normal -0.203925 -0.978987 -0
    outer loop
      vertex -0.288742 -7.24124 3
      vertex -0.652298 -7.16551 1.5
      vertex -0.288742 -7.24124 1.5
    endloop
  endfacet
  facet normal -0.063004 -0.998013 0
    outer loop
      vertex -0.288742 -7.24124 1.5
      vertex 0.111282 -7.26649 3
      vertex -0.288742 -7.24124 3
    endloop
  endfacet
  facet normal -0.063004 -0.998013 -0
    outer loop
      vertex 0.111282 -7.26649 3
      vertex -0.288742 -7.24124 1.5
      vertex 0.111282 -7.26649 1.5
    endloop
  endfacet
  facet normal 0.0660012 -0.99782 0
    outer loop
      vertex 0.111282 -7.26649 1.5
      vertex 0.505524 -7.24042 3
      vertex 0.111282 -7.26649 3
    endloop
  endfacet
  facet normal 0.0660012 -0.99782 0
    outer loop
      vertex 0.505524 -7.24042 3
      vertex 0.111282 -7.26649 1.5
      vertex 0.505524 -7.24042 1.5
    endloop
  endfacet
  facet normal 0.148406 -0.988927 0
    outer loop
      vertex 0.731094 -20.0555 1.5
      vertex 1.17126 -19.9894 3
      vertex 0.731094 -20.0555 3
    endloop
  endfacet
  facet normal 0.148406 -0.988927 0
    outer loop
      vertex 1.17126 -19.9894 3
      vertex 0.731094 -20.0555 1.5
      vertex 1.17126 -19.9894 1.5
    endloop
  endfacet
  facet normal 0.251624 -0.967825 0
    outer loop
      vertex 1.17126 -19.9894 1.5
      vertex 1.59477 -19.8793 3
      vertex 1.17126 -19.9894 3
    endloop
  endfacet
  facet normal 0.251624 -0.967825 0
    outer loop
      vertex 1.59477 -19.8793 3
      vertex 1.17126 -19.9894 1.5
      vertex 1.59477 -19.8793 1.5
    endloop
  endfacet
  facet normal 0.3543 -0.935132 0
    outer loop
      vertex 1.59477 -19.8793 1.5
      vertex 2.00162 -19.7252 3
      vertex 1.59477 -19.8793 3
    endloop
  endfacet
  facet normal 0.3543 -0.935132 0
    outer loop
      vertex 2.00162 -19.7252 3
      vertex 1.59477 -19.8793 1.5
      vertex 2.00162 -19.7252 1.5
    endloop
  endfacet
  facet normal 0.452825 -0.891599 0
    outer loop
      vertex 2.00162 -19.7252 1.5
      vertex 2.39183 -19.527 3
      vertex 2.00162 -19.7252 3
    endloop
  endfacet
  facet normal 0.452825 -0.891599 0
    outer loop
      vertex 2.39183 -19.527 3
      vertex 2.00162 -19.7252 1.5
      vertex 2.39183 -19.527 1.5
    endloop
  endfacet
  facet normal 0.544057 -0.839048 0
    outer loop
      vertex 2.39183 -19.527 1.5
      vertex 2.76538 -19.2848 3
      vertex 2.39183 -19.527 3
    endloop
  endfacet
  facet normal 0.544057 -0.839048 0
    outer loop
      vertex 2.76538 -19.2848 3
      vertex 2.39183 -19.527 1.5
      vertex 2.76538 -19.2848 1.5
    endloop
  endfacet
  facet normal 0.625691 -0.780071 0
    outer loop
      vertex 2.76538 -19.2848 1.5
      vertex 3.12228 -18.9985 3
      vertex 2.76538 -19.2848 3
    endloop
  endfacet
  facet normal 0.625691 -0.780071 0
    outer loop
      vertex 3.12228 -18.9985 3
      vertex 2.76538 -19.2848 1.5
      vertex 3.12228 -18.9985 1.5
    endloop
  endfacet
  facet normal 0.708021 -0.706191 0
    outer loop
      vertex 3.12228 -18.9985 3
      vertex 3.44621 -18.6737 1.5
      vertex 3.44621 -18.6737 3
    endloop
  endfacet
  facet normal 0.708021 -0.706191 0
    outer loop
      vertex 3.44621 -18.6737 1.5
      vertex 3.12228 -18.9985 3
      vertex 3.12228 -18.9985 1.5
    endloop
  endfacet
  facet normal 0.793791 -0.608191 0
    outer loop
      vertex 3.44621 -18.6737 3
      vertex 3.72032 -18.316 1.5
      vertex 3.72032 -18.316 3
    endloop
  endfacet
  facet normal 0.793791 -0.608191 0
    outer loop
      vertex 3.72032 -18.316 1.5
      vertex 3.44621 -18.6737 3
      vertex 3.44621 -18.6737 1.5
    endloop
  endfacet
  facet normal 0.867302 -0.497783 0
    outer loop
      vertex 3.72032 -18.316 3
      vertex 3.94458 -17.9252 1.5
      vertex 3.94458 -17.9252 3
    endloop
  endfacet
  facet normal 0.867302 -0.497783 0
    outer loop
      vertex 3.94458 -17.9252 1.5
      vertex 3.72032 -18.316 3
      vertex 3.72032 -18.316 1.5
    endloop
  endfacet
  facet normal 0.924705 -0.380684 0
    outer loop
      vertex 3.94458 -17.9252 3
      vertex 4.11902 -17.5015 1.5
      vertex 4.11902 -17.5015 3
    endloop
  endfacet
  facet normal 0.924705 -0.380684 0
    outer loop
      vertex 4.11902 -17.5015 1.5
      vertex 3.94458 -17.9252 3
      vertex 3.94458 -17.9252 1.5
    endloop
  endfacet
  facet normal 0.964745 -0.263186 0
    outer loop
      vertex 4.11902 -17.5015 3
      vertex 4.24361 -17.0448 1.5
      vertex 4.24361 -17.0448 3
    endloop
  endfacet
  facet normal 0.964745 -0.263186 0
    outer loop
      vertex 4.24361 -17.0448 1.5
      vertex 4.11902 -17.5015 3
      vertex 4.11902 -17.5015 1.5
    endloop
  endfacet
  facet normal 0.988547 -0.150911 0
    outer loop
      vertex 4.24361 -17.0448 3
      vertex 4.31836 -16.5551 1.5
      vertex 4.31836 -16.5551 3
    endloop
  endfacet
  facet normal 0.988547 -0.150911 0
    outer loop
      vertex 4.31836 -16.5551 1.5
      vertex 4.24361 -17.0448 3
      vertex 4.24361 -17.0448 1.5
    endloop
  endfacet
  facet normal 0.998865 -0.0476206 0
    outer loop
      vertex 4.31836 -16.5551 3
      vertex 4.34328 -16.0325 1.5
      vertex 4.34328 -16.0325 3
    endloop
  endfacet
  facet normal 0.998865 -0.0476206 0
    outer loop
      vertex 4.34328 -16.0325 1.5
      vertex 4.31836 -16.5551 3
      vertex 4.31836 -16.5551 1.5
    endloop
  endfacet
  facet normal 0.998617 0.0525742 0
    outer loop
      vertex 4.34328 -16.0325 3
      vertex 4.31865 -15.5647 1.5
      vertex 4.31865 -15.5647 3
    endloop
  endfacet
  facet normal 0.998617 0.0525742 0
    outer loop
      vertex 4.31865 -15.5647 1.5
      vertex 4.34328 -16.0325 3
      vertex 4.34328 -16.0325 1.5
    endloop
  endfacet
  facet normal 0.986631 0.162969 0
    outer loop
      vertex 4.31865 -15.5647 3
      vertex 4.24475 -15.1173 1.5
      vertex 4.24475 -15.1173 3
    endloop
  endfacet
  facet normal 0.986631 0.162969 0
    outer loop
      vertex 4.24475 -15.1173 1.5
      vertex 4.31865 -15.5647 3
      vertex 4.31865 -15.5647 1.5
    endloop
  endfacet
  facet normal 0.960824 0.27716 0
    outer loop
      vertex 4.24475 -15.1173 3
      vertex 4.12158 -14.6903 1.5
      vertex 4.12158 -14.6903 3
    endloop
  endfacet
  facet normal 0.960824 0.27716 0
    outer loop
      vertex 4.12158 -14.6903 1.5
      vertex 4.24475 -15.1173 3
      vertex 4.24475 -15.1173 1.5
    endloop
  endfacet
  facet normal 0.920631 0.390434 0
    outer loop
      vertex 4.12158 -14.6903 3
      vertex 3.94916 -14.2838 1.5
      vertex 3.94916 -14.2838 3
    endloop
  endfacet
  facet normal 0.920631 0.390434 0
    outer loop
      vertex 3.94916 -14.2838 1.5
      vertex 4.12158 -14.6903 3
      vertex 4.12158 -14.6903 1.5
    endloop
  endfacet
  facet normal 0.86724 0.497891 0
    outer loop
      vertex 3.94916 -14.2838 3
      vertex 3.72746 -13.8976 1.5
      vertex 3.72746 -13.8976 3
    endloop
  endfacet
  facet normal 0.86724 0.497891 0
    outer loop
      vertex 3.72746 -13.8976 1.5
      vertex 3.94916 -14.2838 3
      vertex 3.94916 -14.2838 1.5
    endloop
  endfacet
  facet normal 0.803518 0.59528 0
    outer loop
      vertex 3.72746 -13.8976 3
      vertex 3.4565 -13.5318 1.5
      vertex 3.4565 -13.5318 3
    endloop
  endfacet
  facet normal 0.803518 0.59528 0
    outer loop
      vertex 3.4565 -13.5318 1.5
      vertex 3.72746 -13.8976 3
      vertex 3.72746 -13.8976 1.5
    endloop
  endfacet
  facet normal 0.733284 0.679923 0
    outer loop
      vertex 3.4565 -13.5318 3
      vertex 3.13628 -13.1865 1.5
      vertex 3.13628 -13.1865 3
    endloop
  endfacet
  facet normal 0.733284 0.679923 0
    outer loop
      vertex 3.13628 -13.1865 1.5
      vertex 3.4565 -13.5318 3
      vertex 3.4565 -13.5318 1.5
    endloop
  endfacet
  facet normal 0.65909 0.752064 -0
    outer loop
      vertex 3.13628 -13.1865 1.5
      vertex 2.78117 -12.8753 3
      vertex 3.13628 -13.1865 3
    endloop
  endfacet
  facet normal 0.65909 0.752064 0
    outer loop
      vertex 2.78117 -12.8753 3
      vertex 3.13628 -13.1865 1.5
      vertex 2.78117 -12.8753 1.5
    endloop
  endfacet
  facet normal 0.574054 0.818818 -0
    outer loop
      vertex 2.78117 -12.8753 1.5
      vertex 2.40558 -12.612 3
      vertex 2.78117 -12.8753 3
    endloop
  endfacet
  facet normal 0.574054 0.818818 0
    outer loop
      vertex 2.40558 -12.612 3
      vertex 2.78117 -12.8753 1.5
      vertex 2.40558 -12.612 1.5
    endloop
  endfacet
  facet normal 0.477851 0.878441 -0
    outer loop
      vertex 2.40558 -12.612 1.5
      vertex 2.00951 -12.3965 3
      vertex 2.40558 -12.612 3
    endloop
  endfacet
  facet normal 0.477851 0.878441 0
    outer loop
      vertex 2.00951 -12.3965 3
      vertex 2.40558 -12.612 1.5
      vertex 2.00951 -12.3965 1.5
    endloop
  endfacet
  facet normal 0.373195 0.927753 -0
    outer loop
      vertex 2.00951 -12.3965 1.5
      vertex 1.59293 -12.2289 3
      vertex 2.00951 -12.3965 3
    endloop
  endfacet
  facet normal 0.373195 0.927753 0
    outer loop
      vertex 1.59293 -12.2289 3
      vertex 2.00951 -12.3965 1.5
      vertex 1.59293 -12.2289 1.5
    endloop
  endfacet
  facet normal 0.264129 0.964487 -0
    outer loop
      vertex 1.59293 -12.2289 1.5
      vertex 1.15587 -12.1093 3
      vertex 1.59293 -12.2289 3
    endloop
  endfacet
  facet normal 0.264129 0.964487 0
    outer loop
      vertex 1.15587 -12.1093 3
      vertex 1.59293 -12.2289 1.5
      vertex 1.15587 -12.1093 1.5
    endloop
  endfacet
  facet normal 0.155074 0.987903 -0
    outer loop
      vertex 1.15587 -12.1093 1.5
      vertex 0.698318 -12.0374 3
      vertex 1.15587 -12.1093 3
    endloop
  endfacet
  facet normal 0.155074 0.987903 0
    outer loop
      vertex 0.698318 -12.0374 3
      vertex 1.15587 -12.1093 1.5
      vertex 0.698318 -12.0374 1.5
    endloop
  endfacet
  facet normal 0.0500187 0.998748 -0
    outer loop
      vertex 0.698318 -12.0374 1.5
      vertex 0.220276 -12.0135 3
      vertex 0.698318 -12.0374 3
    endloop
  endfacet
  facet normal 0.0500187 0.998748 0
    outer loop
      vertex 0.220276 -12.0135 3
      vertex 0.698318 -12.0374 1.5
      vertex 0.220276 -12.0135 1.5
    endloop
  endfacet
  facet normal -0.0500777 0.998745 0
    outer loop
      vertex 0.220276 -12.0135 1.5
      vertex -0.257202 -12.0374 3
      vertex 0.220276 -12.0135 3
    endloop
  endfacet
  facet normal -0.0500777 0.998745 0
    outer loop
      vertex -0.257202 -12.0374 3
      vertex 0.220276 -12.0135 1.5
      vertex -0.257202 -12.0374 1.5
    endloop
  endfacet
  facet normal -0.155626 0.987816 0
    outer loop
      vertex -0.257202 -12.0374 1.5
      vertex -0.713089 -12.1093 3
      vertex -0.257202 -12.0374 3
    endloop
  endfacet
  facet normal -0.155626 0.987816 0
    outer loop
      vertex -0.713089 -12.1093 3
      vertex -0.257202 -12.0374 1.5
      vertex -0.713089 -12.1093 1.5
    endloop
  endfacet
  facet normal -0.265682 0.964061 0
    outer loop
      vertex -0.713089 -12.1093 1.5
      vertex -1.1474 -12.2289 3
      vertex -0.713089 -12.1093 3
    endloop
  endfacet
  facet normal -0.265682 0.964061 0
    outer loop
      vertex -1.1474 -12.2289 3
      vertex -0.713089 -12.1093 1.5
      vertex -1.1474 -12.2289 1.5
    endloop
  endfacet
  facet normal -0.376193 0.926541 0
    outer loop
      vertex -1.1474 -12.2289 1.5
      vertex -1.56012 -12.3965 3
      vertex -1.1474 -12.2289 3
    endloop
  endfacet
  facet normal -0.376193 0.926541 0
    outer loop
      vertex -1.56012 -12.3965 3
      vertex -1.1474 -12.2289 1.5
      vertex -1.56012 -12.3965 1.5
    endloop
  endfacet
  facet normal -0.482506 0.875892 0
    outer loop
      vertex -1.56012 -12.3965 1.5
      vertex -1.95123 -12.612 3
      vertex -1.56012 -12.3965 3
    endloop
  endfacet
  facet normal -0.482506 0.875892 0
    outer loop
      vertex -1.95123 -12.612 3
      vertex -1.56012 -12.3965 1.5
      vertex -1.95123 -12.612 1.5
    endloop
  endfacet
  facet normal -0.580312 0.814394 0
    outer loop
      vertex -1.95123 -12.612 1.5
      vertex -2.32077 -12.8753 3
      vertex -1.95123 -12.612 3
    endloop
  endfacet
  facet normal -0.580312 0.814394 0
    outer loop
      vertex -2.32077 -12.8753 3
      vertex -1.95123 -12.612 1.5
      vertex -2.32077 -12.8753 1.5
    endloop
  endfacet
  facet normal -0.666672 0.745352 0
    outer loop
      vertex -2.32077 -12.8753 1.5
      vertex -2.6687 -13.1865 3
      vertex -2.32077 -12.8753 3
    endloop
  endfacet
  facet normal -0.666672 0.745352 0
    outer loop
      vertex -2.6687 -13.1865 3
      vertex -2.32077 -12.8753 1.5
      vertex -2.6687 -13.1865 1.5
    endloop
  endfacet
  facet normal -0.740892 0.671624 0
    outer loop
      vertex -2.98177 -13.5318 1.5
      vertex -2.6687 -13.1865 3
      vertex -2.6687 -13.1865 1.5
    endloop
  endfacet
  facet normal -0.740892 0.671624 0
    outer loop
      vertex -2.6687 -13.1865 3
      vertex -2.98177 -13.5318 1.5
      vertex -2.98177 -13.5318 3
    endloop
  endfacet
  facet normal -0.809887 0.586585 0
    outer loop
      vertex -3.24667 -13.8976 1.5
      vertex -2.98177 -13.5318 3
      vertex -2.98177 -13.5318 1.5
    endloop
  endfacet
  facet normal -0.809887 0.586585 0
    outer loop
      vertex -2.98177 -13.5318 3
      vertex -3.24667 -13.8976 1.5
      vertex -3.24667 -13.8976 3
    endloop
  endfacet
  facet normal -0.872049 0.489418 0
    outer loop
      vertex -3.46339 -14.2838 1.5
      vertex -3.24667 -13.8976 3
      vertex -3.24667 -13.8976 1.5
    endloop
  endfacet
  facet normal -0.872049 0.489418 0
    outer loop
      vertex -3.24667 -13.8976 3
      vertex -3.46339 -14.2838 1.5
      vertex -3.46339 -14.2838 3
    endloop
  endfacet
  facet normal -0.923741 0.383017 0
    outer loop
      vertex -3.63197 -14.6903 1.5
      vertex -3.46339 -14.2838 3
      vertex -3.46339 -14.2838 1.5
    endloop
  endfacet
  facet normal -0.923741 0.383017 0
    outer loop
      vertex -3.46339 -14.2838 3
      vertex -3.63197 -14.6903 1.5
      vertex -3.63197 -14.6903 3
    endloop
  endfacet
  facet normal -0.962464 0.271408 0
    outer loop
      vertex -3.75238 -15.1173 1.5
      vertex -3.63197 -14.6903 3
      vertex -3.63197 -14.6903 1.5
    endloop
  endfacet
  facet normal -0.962464 0.271408 0
    outer loop
      vertex -3.63197 -14.6903 3
      vertex -3.75238 -15.1173 1.5
      vertex -3.75238 -15.1173 3
    endloop
  endfacet
  facet normal -0.98721 0.159428 0
    outer loop
      vertex -3.82463 -15.5647 1.5
      vertex -3.75238 -15.1173 3
      vertex -3.75238 -15.1173 1.5
    endloop
  endfacet
  facet normal -0.98721 0.159428 0
    outer loop
      vertex -3.75238 -15.1173 3
      vertex -3.82463 -15.5647 1.5
      vertex -3.82463 -15.5647 3
    endloop
  endfacet
  facet normal -0.998678 0.0514047 0
    outer loop
      vertex -3.84871 -16.0325 1.5
      vertex -3.82463 -15.5647 3
      vertex -3.82463 -15.5647 1.5
    endloop
  endfacet
  facet normal -0.998678 0.0514047 0
    outer loop
      vertex -3.82463 -15.5647 3
      vertex -3.84871 -16.0325 1.5
      vertex -3.84871 -16.0325 3
    endloop
  endfacet
  facet normal -0.99887 -0.0475187 0
    outer loop
      vertex -3.82352 -16.562 1.5
      vertex -3.84871 -16.0325 3
      vertex -3.84871 -16.0325 1.5
    endloop
  endfacet
  facet normal -0.99887 -0.0475187 0
    outer loop
      vertex -3.84871 -16.0325 3
      vertex -3.82352 -16.562 1.5
      vertex -3.82352 -16.562 3
    endloop
  endfacet
  facet normal -0.98855 -0.150891 0
    outer loop
      vertex -3.74797 -17.057 1.5
      vertex -3.82352 -16.562 3
      vertex -3.82352 -16.562 1.5
    endloop
  endfacet
  facet normal -0.98855 -0.150891 0
    outer loop
      vertex -3.82352 -16.562 3
      vertex -3.74797 -17.057 1.5
      vertex -3.74797 -17.057 3
    endloop
  endfacet
  facet normal -0.964566 -0.263842 0
    outer loop
      vertex -3.62206 -17.5173 1.5
      vertex -3.74797 -17.057 3
      vertex -3.74797 -17.057 1.5
    endloop
  endfacet
  facet normal -0.964566 -0.263842 0
    outer loop
      vertex -3.74797 -17.057 3
      vertex -3.62206 -17.5173 1.5
      vertex -3.62206 -17.5173 3
    endloop
  endfacet
  facet normal -0.923921 -0.382583 0
    outer loop
      vertex -3.44577 -17.943 1.5
      vertex -3.62206 -17.5173 3
      vertex -3.62206 -17.5173 1.5
    endloop
  endfacet
  facet normal -0.923921 -0.382583 0
    outer loop
      vertex -3.62206 -17.5173 3
      vertex -3.44577 -17.943 1.5
      vertex -3.44577 -17.943 3
    endloop
  endfacet
  facet normal -0.865207 -0.501415 0
    outer loop
      vertex -3.21912 -18.3341 1.5
      vertex -3.44577 -17.943 3
      vertex -3.44577 -17.943 1.5
    endloop
  endfacet
  facet normal -0.865207 -0.501415 0
    outer loop
      vertex -3.44577 -17.943 3
      vertex -3.21912 -18.3341 1.5
      vertex -3.21912 -18.3341 3
    endloop
  endfacet
  facet normal -0.789618 -0.613599 0
    outer loop
      vertex -2.94209 -18.6906 1.5
      vertex -3.21912 -18.3341 3
      vertex -3.21912 -18.3341 1.5
    endloop
  endfacet
  facet normal -0.789618 -0.613599 0
    outer loop
      vertex -3.21912 -18.3341 3
      vertex -2.94209 -18.6906 1.5
      vertex -2.94209 -18.6906 3
    endloop
  endfacet
  facet normal -0.701083 -0.71308 0
    outer loop
      vertex -2.94209 -18.6906 1.5
      vertex -2.6147 -19.0125 3
      vertex -2.94209 -18.6906 3
    endloop
  endfacet
  facet normal -0.701083 -0.71308 -0
    outer loop
      vertex -2.6147 -19.0125 3
      vertex -2.94209 -18.6906 1.5
      vertex -2.6147 -19.0125 1.5
    endloop
  endfacet
  facet normal -0.616173 -0.787611 0
    outer loop
      vertex -2.6147 -19.0125 1.5
      vertex -2.25354 -19.295 3
      vertex -2.6147 -19.0125 3
    endloop
  endfacet
  facet normal -0.616173 -0.787611 -0
    outer loop
      vertex -2.25354 -19.295 3
      vertex -2.6147 -19.0125 1.5
      vertex -2.25354 -19.295 1.5
    endloop
  endfacet
  facet normal -0.534188 -0.845366 0
    outer loop
      vertex -2.25354 -19.295 1.5
      vertex -1.8752 -19.5341 3
      vertex -2.25354 -19.295 3
    endloop
  endfacet
  facet normal -0.534188 -0.845366 -0
    outer loop
      vertex -1.8752 -19.5341 3
      vertex -2.25354 -19.295 1.5
      vertex -1.8752 -19.5341 1.5
    endloop
  endfacet
  facet normal -0.443309 -0.896369 0
    outer loop
      vertex -1.8752 -19.5341 1.5
      vertex -1.47966 -19.7297 3
      vertex -1.8752 -19.5341 3
    endloop
  endfacet
  facet normal -0.443309 -0.896369 -0
    outer loop
      vertex -1.47966 -19.7297 3
      vertex -1.8752 -19.5341 1.5
      vertex -1.47966 -19.7297 1.5
    endloop
  endfacet
  facet normal -0.345898 -0.938272 0
    outer loop
      vertex -1.47966 -19.7297 1.5
      vertex -1.06696 -19.8819 3
      vertex -1.47966 -19.7297 3
    endloop
  endfacet
  facet normal -0.345898 -0.938272 -0
    outer loop
      vertex -1.06696 -19.8819 3
      vertex -1.47966 -19.7297 1.5
      vertex -1.06696 -19.8819 1.5
    endloop
  endfacet
  facet normal -0.245077 -0.969504 0
    outer loop
      vertex -1.06696 -19.8819 1.5
      vertex -0.637054 -19.9906 3
      vertex -1.06696 -19.8819 3
    endloop
  endfacet
  facet normal -0.245077 -0.969504 -0
    outer loop
      vertex -0.637054 -19.9906 3
      vertex -1.06696 -19.8819 1.5
      vertex -0.637054 -19.9906 1.5
    endloop
  endfacet
  facet normal -0.14431 -0.989533 0
    outer loop
      vertex -0.637054 -19.9906 1.5
      vertex -0.189972 -20.0558 3
      vertex -0.637054 -19.9906 3
    endloop
  endfacet
  facet normal -0.14431 -0.989533 -0
    outer loop
      vertex -0.189972 -20.0558 3
      vertex -0.637054 -19.9906 1.5
      vertex -0.189972 -20.0558 1.5
    endloop
  endfacet
  facet normal -0.0467852 -0.998905 0
    outer loop
      vertex -0.189972 -20.0558 1.5
      vertex 0.274277 -20.0775 3
      vertex -0.189972 -20.0558 3
    endloop
  endfacet
  facet normal -0.0467852 -0.998905 -0
    outer loop
      vertex 0.274277 -20.0775 3
      vertex -0.189972 -20.0558 1.5
      vertex 0.274277 -20.0775 1.5
    endloop
  endfacet
  facet normal 0.048177 -0.998839 0
    outer loop
      vertex 0.274277 -20.0775 1.5
      vertex 0.731094 -20.0555 3
      vertex 0.274277 -20.0775 3
    endloop
  endfacet
  facet normal 0.048177 -0.998839 0
    outer loop
      vertex 0.731094 -20.0555 3
      vertex 0.274277 -20.0775 1.5
      vertex 0.731094 -20.0555 1.5
    endloop
  endfacet
endsolid OpenSCAD_Model
