solid OpenSCAD_Model
  facet normal -1 0 0
    outer loop
      vertex -22.5 -22.5 0.5
      vertex -22.5 22.5 1.5
      vertex -22.5 22.5 0.5
    endloop
  endfacet
  facet normal -1 -0 0
    outer loop
      vertex -22.5 22.5 1.5
      vertex -22.5 -22.5 0.5
      vertex -22.5 -22.5 1.5
    endloop
  endfacet
  facet normal 0 0 1
    outer loop
      vertex -0.438644 9.22849 1.5
      vertex -2.31505 7.81918 1.5
      vertex -0.438644 -15.4905 1.5
    endloop
  endfacet
  facet normal 0 0 1
    outer loop
      vertex 6.92134 -14.4375 1.5
      vertex 22.5 22.5 1.5
      vertex 6.92134 16.6335 1.5
    endloop
  endfacet
  facet normal 0 0 1
    outer loop
      vertex 22.5 22.5 1.5
      vertex 6.90367 17.1746 1.5
      vertex 6.92134 16.6335 1.5
    endloop
  endfacet
  facet normal 0 0 1
    outer loop
      vertex 22.5 22.5 1.5
      vertex 6.85065 17.6813 1.5
      vertex 6.90367 17.1746 1.5
    endloop
  endfacet
  facet normal 0 0 1
    outer loop
      vertex 22.5 22.5 1.5
      vertex 6.76228 18.1537 1.5
      vertex 6.85065 17.6813 1.5
    endloop
  endfacet
  facet normal 0 0 1
    outer loop
      vertex 22.5 22.5 1.5
      vertex 6.63857 18.5917 1.5
      vertex 6.76228 18.1537 1.5
    endloop
  endfacet
  facet normal 0 0 1
    outer loop
      vertex 22.5 22.5 1.5
      vertex 6.47951 18.9953 1.5
      vertex 6.63857 18.5917 1.5
    endloop
  endfacet
  facet normal 0 0 1
    outer loop
      vertex 22.5 22.5 1.5
      vertex 6.2851 19.3646 1.5
      vertex 6.47951 18.9953 1.5
    endloop
  endfacet
  facet normal 0 0 1
    outer loop
      vertex 22.5 22.5 1.5
      vertex 6.05534 19.6995 1.5
      vertex 6.2851 19.3646 1.5
    endloop
  endfacet
  facet normal 0 0 1
    outer loop
      vertex 22.5 22.5 1.5
      vertex 5.79633 19.9948 1.5
      vertex 6.05534 19.6995 1.5
    endloop
  endfacet
  facet normal 0 0 1
    outer loop
      vertex 22.5 22.5 1.5
      vertex 5.51411 20.2446 1.5
      vertex 5.79633 19.9948 1.5
    endloop
  endfacet
  facet normal 0 0 1
    outer loop
      vertex 22.5 22.5 1.5
      vertex 5.20872 20.4491 1.5
      vertex 5.51411 20.2446 1.5
    endloop
  endfacet
  facet normal 0 0 1
    outer loop
      vertex 22.5 22.5 1.5
      vertex 4.88016 20.6081 1.5
      vertex 5.20872 20.4491 1.5
    endloop
  endfacet
  facet normal 0 0 1
    outer loop
      vertex 22.5 22.5 1.5
      vertex 4.5284 20.7216 1.5
      vertex 4.88016 20.6081 1.5
    endloop
  endfacet
  facet normal 0 0 1
    outer loop
      vertex 22.5 22.5 1.5
      vertex 4.15346 20.7898 1.5
      vertex 4.5284 20.7216 1.5
    endloop
  endfacet
  facet normal 0 0 1
    outer loop
      vertex 22.5 22.5 1.5
      vertex 3.75534 20.8125 1.5
      vertex 4.15346 20.7898 1.5
    endloop
  endfacet
  facet normal 0 0 1
    outer loop
      vertex 22.5 22.5 1.5
      vertex 3.40848 20.8025 1.5
      vertex 3.75534 20.8125 1.5
    endloop
  endfacet
  facet normal 0 0 1
    outer loop
      vertex -22.5 22.5 1.5
      vertex 0.0473328 17.7205 1.5
      vertex 0.458939 18.2918 1.5
    endloop
  endfacet
  facet normal 0 0 1
    outer loop
      vertex -22.5 22.5 1.5
      vertex 0.458939 18.2918 1.5
      vertex 0.827423 18.7967 1.5
    endloop
  endfacet
  facet normal 0 0 1
    outer loop
      vertex 0.0473328 17.7205 1.5
      vertex -22.5 22.5 1.5
      vertex -0.394989 17.1245 1.5
    endloop
  endfacet
  facet normal 0 0 1
    outer loop
      vertex -22.5 22.5 1.5
      vertex 0.827423 18.7967 1.5
      vertex 1.15282 19.2352 1.5
    endloop
  endfacet
  facet normal 0 0 1
    outer loop
      vertex -0.394989 17.1245 1.5
      vertex -22.5 22.5 1.5
      vertex -0.855743 16.5451 1.5
    endloop
  endfacet
  facet normal 0 0 1
    outer loop
      vertex -22.5 22.5 1.5
      vertex 1.15282 19.2352 1.5
      vertex 1.43509 19.6072 1.5
    endloop
  endfacet
  facet normal 0 0 1
    outer loop
      vertex -0.855743 16.5451 1.5
      vertex -22.5 22.5 1.5
      vertex -1.33492 15.9822 1.5
    endloop
  endfacet
  facet normal 0 0 1
    outer loop
      vertex -22.5 22.5 1.5
      vertex 1.43509 19.6072 1.5
      vertex 1.67429 19.9127 1.5
    endloop
  endfacet
  facet normal 0 0 1
    outer loop
      vertex -1.33492 15.9822 1.5
      vertex -22.5 22.5 1.5
      vertex -1.83249 15.4359 1.5
    endloop
  endfacet
  facet normal 0 0 1
    outer loop
      vertex -1.83249 15.4359 1.5
      vertex -22.5 22.5 1.5
      vertex -2.34846 14.9062 1.5
    endloop
  endfacet
  facet normal 0 0 1
    outer loop
      vertex -22.5 22.5 1.5
      vertex 1.67429 19.9127 1.5
      vertex 1.87036 20.1518 1.5
    endloop
  endfacet
  facet normal 0 0 1
    outer loop
      vertex -2.34846 14.9062 1.5
      vertex -22.5 22.5 1.5
      vertex -2.88284 14.3931 1.5
    endloop
  endfacet
  facet normal 0 0 1
    outer loop
      vertex -2.88284 14.3931 1.5
      vertex -22.5 22.5 1.5
      vertex -3.43564 13.8965 1.5
    endloop
  endfacet
  facet normal 0 0 1
    outer loop
      vertex -3.43564 13.8965 1.5
      vertex -22.5 22.5 1.5
      vertex -4.02448 13.4118 1.5
    endloop
  endfacet
  facet normal 0 0 1
    outer loop
      vertex -22.5 22.5 1.5
      vertex 1.87036 20.1518 1.5
      vertex 2.02335 20.3245 1.5
    endloop
  endfacet
  facet normal 0 0 1
    outer loop
      vertex -4.02448 13.4118 1.5
      vertex -22.5 22.5 1.5
      vertex -4.66699 12.9337 1.5
    endloop
  endfacet
  facet normal 0 0 1
    outer loop
      vertex -4.66699 12.9337 1.5
      vertex -22.5 22.5 1.5
      vertex -5.36317 12.4622 1.5
    endloop
  endfacet
  facet normal 0 0 1
    outer loop
      vertex -5.36317 12.4622 1.5
      vertex -22.5 22.5 1.5
      vertex -6.11304 11.9974 1.5
    endloop
  endfacet
  facet normal 0 0 1
    outer loop
      vertex -6.11304 11.9974 1.5
      vertex -22.5 22.5 1.5
      vertex -6.91656 11.5391 1.5
    endloop
  endfacet
  facet normal 0 0 1
    outer loop
      vertex -6.91656 11.5391 1.5
      vertex -22.5 22.5 1.5
      vertex -7.77377 11.0875 1.5
    endloop
  endfacet
  facet normal 0 0 1
    outer loop
      vertex -7.77377 11.0875 1.5
      vertex -22.5 22.5 1.5
      vertex -8.68465 10.6425 1.5
    endloop
  endfacet
  facet normal 0 0 1
    outer loop
      vertex -8.68465 10.6425 1.5
      vertex -22.5 22.5 1.5
      vertex -9.28523 10.3557 1.5
    endloop
  endfacet
  facet normal 0 0 1
    outer loop
      vertex -22.5 22.5 1.5
      vertex 2.02335 20.3245 1.5
      vertex 2.17134 20.454 1.5
    endloop
  endfacet
  facet normal 0 0 1
    outer loop
      vertex -9.28523 10.3557 1.5
      vertex -22.5 22.5 1.5
      vertex -9.83159 10.0844 1.5
    endloop
  endfacet
  facet normal 0 0 1
    outer loop
      vertex -9.83159 10.0844 1.5
      vertex -22.5 22.5 1.5
      vertex -10.3237 9.82857 1.5
    endloop
  endfacet
  facet normal 0 0 1
    outer loop
      vertex -10.3237 9.82857 1.5
      vertex -22.5 22.5 1.5
      vertex -10.7615 9.58829 1.5
    endloop
  endfacet
  facet normal 0 0 1
    outer loop
      vertex -10.7615 9.58829 1.5
      vertex -22.5 22.5 1.5
      vertex -11.1452 9.36351 1.5
    endloop
  endfacet
  facet normal 0 0 1
    outer loop
      vertex -11.1452 9.36351 1.5
      vertex -22.5 22.5 1.5
      vertex -11.4745 9.15425 1.5
    endloop
  endfacet
  facet normal 0 0 1
    outer loop
      vertex -12.5999 7.30695 1.5
      vertex -22.5 22.5 1.5
      vertex -12.6176 6.9265 1.5
    endloop
  endfacet
  facet normal 0 0 1
    outer loop
      vertex -12.5468 7.65742 1.5
      vertex -22.5 22.5 1.5
      vertex -12.5999 7.30695 1.5
    endloop
  endfacet
  facet normal 0 0 1
    outer loop
      vertex -12.4582 7.97797 1.5
      vertex -22.5 22.5 1.5
      vertex -12.5468 7.65742 1.5
    endloop
  endfacet
  facet normal 0 0 1
    outer loop
      vertex -12.3342 8.26854 1.5
      vertex -22.5 22.5 1.5
      vertex -12.4582 7.97797 1.5
    endloop
  endfacet
  facet normal 0 0 1
    outer loop
      vertex -12.1748 8.52914 1.5
      vertex -22.5 22.5 1.5
      vertex -12.3342 8.26854 1.5
    endloop
  endfacet
  facet normal 0 0 1
    outer loop
      vertex -11.9799 8.7598 1.5
      vertex -22.5 22.5 1.5
      vertex -12.1748 8.52914 1.5
    endloop
  endfacet
  facet normal 0 0 1
    outer loop
      vertex -11.7496 8.96049 1.5
      vertex -22.5 22.5 1.5
      vertex -11.9799 8.7598 1.5
    endloop
  endfacet
  facet normal 0 0 1
    outer loop
      vertex -11.4745 9.15425 1.5
      vertex -22.5 22.5 1.5
      vertex -11.7496 8.96049 1.5
    endloop
  endfacet
  facet normal 0 0 1
    outer loop
      vertex 2.35248 20.5635 1.5
      vertex -22.5 22.5 1.5
      vertex 2.17134 20.454 1.5
    endloop
  endfacet
  facet normal 0 0 1
    outer loop
      vertex 2.56677 20.6532 1.5
      vertex -22.5 22.5 1.5
      vertex 2.35248 20.5635 1.5
    endloop
  endfacet
  facet normal 0 0 1
    outer loop
      vertex 2.81419 20.7229 1.5
      vertex -22.5 22.5 1.5
      vertex 2.56677 20.6532 1.5
    endloop
  endfacet
  facet normal 0 0 1
    outer loop
      vertex 3.09477 20.7727 1.5
      vertex -22.5 22.5 1.5
      vertex 2.81419 20.7229 1.5
    endloop
  endfacet
  facet normal 0 0 1
    outer loop
      vertex 3.40848 20.8025 1.5
      vertex -22.5 22.5 1.5
      vertex 3.09477 20.7727 1.5
    endloop
  endfacet
  facet normal -0 0 1
    outer loop
      vertex -22.5 22.5 1.5
      vertex 3.40848 20.8025 1.5
      vertex 22.5 22.5 1.5
    endloop
  endfacet
  facet normal 0 0 1
    outer loop
      vertex 22.5 22.5 1.5
      vertex 6.92134 -14.4375 1.5
      vertex 22.5 -22.5 1.5
    endloop
  endfacet
  facet normal -0 0 1
    outer loop
      vertex 6.84569 -15.8845 1.5
      vertex 22.5 -22.5 1.5
      vertex 6.92134 -14.4375 1.5
    endloop
  endfacet
  facet normal -0 0 1
    outer loop
      vertex 6.61873 -17.1088 1.5
      vertex 22.5 -22.5 1.5
      vertex 6.84569 -15.8845 1.5
    endloop
  endfacet
  facet normal -0 0 1
    outer loop
      vertex 6.24046 -18.1106 1.5
      vertex 22.5 -22.5 1.5
      vertex 6.61873 -17.1088 1.5
    endloop
  endfacet
  facet normal -0 0 1
    outer loop
      vertex 5.71089 -18.8897 1.5
      vertex 22.5 -22.5 1.5
      vertex 6.24046 -18.1106 1.5
    endloop
  endfacet
  facet normal -0 0 1
    outer loop
      vertex 5.03001 -19.4463 1.5
      vertex 22.5 -22.5 1.5
      vertex 5.71089 -18.8897 1.5
    endloop
  endfacet
  facet normal -0 0 1
    outer loop
      vertex 4.19783 -19.7802 1.5
      vertex 22.5 -22.5 1.5
      vertex 5.03001 -19.4463 1.5
    endloop
  endfacet
  facet normal -0 0 1
    outer loop
      vertex 3.21434 -19.8915 1.5
      vertex 22.5 -22.5 1.5
      vertex 4.19783 -19.7802 1.5
    endloop
  endfacet
  facet normal 0 0 1
    outer loop
      vertex -22.5 -22.5 1.5
      vertex 3.21434 -19.8915 1.5
      vertex 2.75589 -19.8688 1.5
    endloop
  endfacet
  facet normal -0 0 1
    outer loop
      vertex -4.00771 6.62669 1.5
      vertex -0.438644 -15.4905 1.5
      vertex -2.31505 7.81918 1.5
    endloop
  endfacet
  facet normal -0 0 1
    outer loop
      vertex -5.5166 5.65102 1.5
      vertex -0.438644 -15.4905 1.5
      vertex -4.00771 6.62669 1.5
    endloop
  endfacet
  facet normal -0 0 1
    outer loop
      vertex -6.84175 4.89217 1.5
      vertex -0.438644 -15.4905 1.5
      vertex -5.5166 5.65102 1.5
    endloop
  endfacet
  facet normal -0 0 1
    outer loop
      vertex -7.98314 4.35013 1.5
      vertex -0.438644 -15.4905 1.5
      vertex -6.84175 4.89217 1.5
    endloop
  endfacet
  facet normal -0 0 1
    outer loop
      vertex -8.94077 4.0249 1.5
      vertex -0.438644 -15.4905 1.5
      vertex -7.98314 4.35013 1.5
    endloop
  endfacet
  facet normal -0 0 1
    outer loop
      vertex -9.71465 3.91649 1.5
      vertex -0.438644 -15.4905 1.5
      vertex -8.94077 4.0249 1.5
    endloop
  endfacet
  facet normal 0 0 1
    outer loop
      vertex -10.0351 3.93503 1.5
      vertex -0.438644 -15.4905 1.5
      vertex -9.71465 3.91649 1.5
    endloop
  endfacet
  facet normal 0 0 1
    outer loop
      vertex -10.345 3.99062 1.5
      vertex -0.438644 -15.4905 1.5
      vertex -10.0351 3.93503 1.5
    endloop
  endfacet
  facet normal 0 0 1
    outer loop
      vertex -22.5 -22.5 1.5
      vertex -0.438644 -15.4905 1.5
      vertex -10.345 3.99062 1.5
    endloop
  endfacet
  facet normal 0 0 1
    outer loop
      vertex -0.438644 -15.4905 1.5
      vertex -22.5 -22.5 1.5
      vertex -0.418213 -16.09 1.5
    endloop
  endfacet
  facet normal 0 0 1
    outer loop
      vertex -0.418213 -16.09 1.5
      vertex -22.5 -22.5 1.5
      vertex -0.356934 -16.6462 1.5
    endloop
  endfacet
  facet normal 0 0 1
    outer loop
      vertex -0.356934 -16.6462 1.5
      vertex -22.5 -22.5 1.5
      vertex -0.254791 -17.1592 1.5
    endloop
  endfacet
  facet normal 0 0 1
    outer loop
      vertex -0.254791 -17.1592 1.5
      vertex -22.5 -22.5 1.5
      vertex -0.111786 -17.6289 1.5
    endloop
  endfacet
  facet normal 0 0 1
    outer loop
      vertex -22.5 -22.5 1.5
      vertex -10.345 3.99062 1.5
      vertex -10.6444 4.08327 1.5
    endloop
  endfacet
  facet normal 0 0 1
    outer loop
      vertex -22.5 -22.5 1.5
      vertex -10.6444 4.08327 1.5
      vertex -10.9333 4.21298 1.5
    endloop
  endfacet
  facet normal 0 0 1
    outer loop
      vertex -22.5 -22.5 1.5
      vertex -10.9333 4.21298 1.5
      vertex -11.2116 4.37976 1.5
    endloop
  endfacet
  facet normal 0 0 1
    outer loop
      vertex -22.5 -22.5 1.5
      vertex -11.2116 4.37976 1.5
      vertex -11.4794 4.58359 1.5
    endloop
  endfacet
  facet normal 0 0 1
    outer loop
      vertex -22.5 -22.5 1.5
      vertex -11.4794 4.58359 1.5
      vertex -11.7366 4.82449 1.5
    endloop
  endfacet
  facet normal 0 0 1
    outer loop
      vertex -22.5 -22.5 1.5
      vertex -11.7366 4.82449 1.5
      vertex -11.9704 5.09 1.5
    endloop
  endfacet
  facet normal 0 0 1
    outer loop
      vertex -22.5 -22.5 1.5
      vertex -11.9704 5.09 1.5
      vertex -12.1682 5.36711 1.5
    endloop
  endfacet
  facet normal 0 0 1
    outer loop
      vertex -22.5 -22.5 1.5
      vertex -12.1682 5.36711 1.5
      vertex -12.33 5.65579 1.5
    endloop
  endfacet
  facet normal 0 0 1
    outer loop
      vertex -22.5 22.5 1.5
      vertex -12.5997 6.59143 1.5
      vertex -12.6176 6.9265 1.5
    endloop
  endfacet
  facet normal 0 0 1
    outer loop
      vertex -22.5 22.5 1.5
      vertex -12.5457 6.26796 1.5
      vertex -12.5997 6.59143 1.5
    endloop
  endfacet
  facet normal 0 0 1
    outer loop
      vertex -22.5 -22.5 1.5
      vertex -12.5457 6.26796 1.5
      vertex -22.5 22.5 1.5
    endloop
  endfacet
  facet normal 0 0 1
    outer loop
      vertex -12.5457 6.26796 1.5
      vertex -22.5 -22.5 1.5
      vertex -12.4558 5.95609 1.5
    endloop
  endfacet
  facet normal 0 0 1
    outer loop
      vertex -12.4558 5.95609 1.5
      vertex -22.5 -22.5 1.5
      vertex -12.33 5.65579 1.5
    endloop
  endfacet
  facet normal 0 0 1
    outer loop
      vertex 3.21434 -19.8915 1.5
      vertex -22.5 -22.5 1.5
      vertex 22.5 -22.5 1.5
    endloop
  endfacet
  facet normal 0 0 1
    outer loop
      vertex 2.32397 -19.8006 1.5
      vertex -22.5 -22.5 1.5
      vertex 2.75589 -19.8688 1.5
    endloop
  endfacet
  facet normal 0 0 1
    outer loop
      vertex 1.91858 -19.6871 1.5
      vertex -22.5 -22.5 1.5
      vertex 2.32397 -19.8006 1.5
    endloop
  endfacet
  facet normal 0 0 1
    outer loop
      vertex 1.53973 -19.5281 1.5
      vertex -22.5 -22.5 1.5
      vertex 1.91858 -19.6871 1.5
    endloop
  endfacet
  facet normal 0 0 1
    outer loop
      vertex 1.18741 -19.3236 1.5
      vertex -22.5 -22.5 1.5
      vertex 1.53973 -19.5281 1.5
    endloop
  endfacet
  facet normal 0 0 1
    outer loop
      vertex 0.861603 -19.0738 1.5
      vertex -22.5 -22.5 1.5
      vertex 1.18741 -19.3236 1.5
    endloop
  endfacet
  facet normal 0 0 1
    outer loop
      vertex 0.562347 -18.7785 1.5
      vertex -22.5 -22.5 1.5
      vertex 0.861603 -19.0738 1.5
    endloop
  endfacet
  facet normal 0 0 1
    outer loop
      vertex 0.296768 -18.4386 1.5
      vertex -22.5 -22.5 1.5
      vertex 0.562347 -18.7785 1.5
    endloop
  endfacet
  facet normal 0 0 1
    outer loop
      vertex 0.072052 -18.0554 1.5
      vertex -22.5 -22.5 1.5
      vertex 0.296768 -18.4386 1.5
    endloop
  endfacet
  facet normal 0 0 1
    outer loop
      vertex -0.111786 -17.6289 1.5
      vertex -22.5 -22.5 1.5
      vertex 0.072052 -18.0554 1.5
    endloop
  endfacet
  facet normal 1 -0 0
    outer loop
      vertex 22.5 -22.5 1.5
      vertex 22.5 22.5 0.5
      vertex 22.5 22.5 1.5
    endloop
  endfacet
  facet normal 1 0 0
    outer loop
      vertex 22.5 22.5 0.5
      vertex 22.5 -22.5 1.5
      vertex 22.5 -22.5 0.5
    endloop
  endfacet
  facet normal 0 1 -0
    outer loop
      vertex 22.5 22.5 0.5
      vertex -22.5 22.5 1.5
      vertex 22.5 22.5 1.5
    endloop
  endfacet
  facet normal 0 1 0
    outer loop
      vertex -22.5 22.5 1.5
      vertex 22.5 22.5 0.5
      vertex -22.5 22.5 0.5
    endloop
  endfacet
  facet normal 0 0 -1
    outer loop
      vertex -22.5 -22.5 0.5
      vertex 22.5 22.5 0.5
      vertex 22.5 -22.5 0.5
    endloop
  endfacet
  facet normal -0 0 -1
    outer loop
      vertex 22.5 22.5 0.5
      vertex -22.5 -22.5 0.5
      vertex -22.5 22.5 0.5
    endloop
  endfacet
  facet normal 0 -1 0
    outer loop
      vertex -22.5 -22.5 0.5
      vertex 22.5 -22.5 1.5
      vertex -22.5 -22.5 1.5
    endloop
  endfacet
  facet normal 0 -1 -0
    outer loop
      vertex 22.5 -22.5 1.5
      vertex -22.5 -22.5 0.5
      vertex 22.5 -22.5 0.5
    endloop
  endfacet
  facet normal 0 0 1
    outer loop
      vertex 0.827423 18.7967 7
      vertex 6.92134 16.6335 7
      vertex 6.90367 17.1746 7
    endloop
  endfacet
  facet normal 0 0 1
    outer loop
      vertex 0.827423 18.7967 7
      vertex 6.90367 17.1746 7
      vertex 6.85065 17.6813 7
    endloop
  endfacet
  facet normal 0 0 1
    outer loop
      vertex 6.92134 16.6335 7
      vertex -0.438644 9.22849 7
      vertex 6.92134 -14.4375 7
    endloop
  endfacet
  facet normal 0 0 1
    outer loop
      vertex 1.15282 19.2352 7
      vertex 6.85065 17.6813 7
      vertex 6.76228 18.1537 7
    endloop
  endfacet
  facet normal 0 0 1
    outer loop
      vertex 1.15282 19.2352 7
      vertex 6.76228 18.1537 7
      vertex 6.63857 18.5917 7
    endloop
  endfacet
  facet normal 0 0 1
    outer loop
      vertex -0.438644 -15.4905 7
      vertex 6.92134 -14.4375 7
      vertex -0.438644 9.22849 7
    endloop
  endfacet
  facet normal 0 0 1
    outer loop
      vertex 1.43509 19.6072 7
      vertex 6.63857 18.5917 7
      vertex 6.47951 18.9953 7
    endloop
  endfacet
  facet normal 0 0 1
    outer loop
      vertex 1.43509 19.6072 7
      vertex 6.47951 18.9953 7
      vertex 6.2851 19.3646 7
    endloop
  endfacet
  facet normal 0 0 1
    outer loop
      vertex 6.92134 -14.4375 7
      vertex -0.438644 -15.4905 7
      vertex 6.84569 -15.8845 7
    endloop
  endfacet
  facet normal -0 0 1
    outer loop
      vertex 1.43509 19.6072 7
      vertex 6.2851 19.3646 7
      vertex 6.05534 19.6995 7
    endloop
  endfacet
  facet normal 0 0 1
    outer loop
      vertex 1.43509 19.6072 7
      vertex 6.05534 19.6995 7
      vertex 5.79633 19.9948 7
    endloop
  endfacet
  facet normal 0 -0 1
    outer loop
      vertex -0.418213 -16.09 7
      vertex 6.84569 -15.8845 7
      vertex -0.438644 -15.4905 7
    endloop
  endfacet
  facet normal 0 0 1
    outer loop
      vertex 4.15346 20.7898 7
      vertex 5.79633 19.9948 7
      vertex 5.51411 20.2446 7
    endloop
  endfacet
  facet normal 0 0 1
    outer loop
      vertex 4.15346 20.7898 7
      vertex 5.51411 20.2446 7
      vertex 5.20872 20.4491 7
    endloop
  endfacet
  facet normal 0 0 1
    outer loop
      vertex 6.84569 -15.8845 7
      vertex -0.418213 -16.09 7
      vertex 6.61873 -17.1088 7
    endloop
  endfacet
  facet normal 0 0 1
    outer loop
      vertex 4.5284 20.7216 7
      vertex 5.20872 20.4491 7
      vertex 4.88016 20.6081 7
    endloop
  endfacet
  facet normal 0 0 1
    outer loop
      vertex 4.15346 20.7898 7
      vertex 5.20872 20.4491 7
      vertex 4.5284 20.7216 7
    endloop
  endfacet
  facet normal -0 -0 1
    outer loop
      vertex -0.356934 -16.6462 7
      vertex 6.61873 -17.1088 7
      vertex -0.418213 -16.09 7
    endloop
  endfacet
  facet normal 0 0 1
    outer loop
      vertex 5.79633 19.9948 7
      vertex 4.15346 20.7898 7
      vertex 1.43509 19.6072 7
    endloop
  endfacet
  facet normal 0 0 1
    outer loop
      vertex 1.43509 19.6072 7
      vertex 4.15346 20.7898 7
      vertex 3.75534 20.8125 7
    endloop
  endfacet
  facet normal 0 0 1
    outer loop
      vertex 1.67429 19.9127 7
      vertex 3.75534 20.8125 7
      vertex 3.40848 20.8025 7
    endloop
  endfacet
  facet normal 0 -0 1
    outer loop
      vertex -0.254791 -17.1592 7
      vertex 6.61873 -17.1088 7
      vertex -0.356934 -16.6462 7
    endloop
  endfacet
  facet normal 0 0 1
    outer loop
      vertex 1.67429 19.9127 7
      vertex 3.40848 20.8025 7
      vertex 3.09477 20.7727 7
    endloop
  endfacet
  facet normal 0 0 1
    outer loop
      vertex 1.87036 20.1518 7
      vertex 3.09477 20.7727 7
      vertex 2.81419 20.7229 7
    endloop
  endfacet
  facet normal 0 0 1
    outer loop
      vertex 6.61873 -17.1088 7
      vertex -0.254791 -17.1592 7
      vertex 6.24046 -18.1106 7
    endloop
  endfacet
  facet normal 0 0 1
    outer loop
      vertex 1.87036 20.1518 7
      vertex 2.81419 20.7229 7
      vertex 2.56677 20.6532 7
    endloop
  endfacet
  facet normal 0 0 1
    outer loop
      vertex 2.02335 20.3245 7
      vertex 2.56677 20.6532 7
      vertex 2.35248 20.5635 7
    endloop
  endfacet
  facet normal 0 -0 1
    outer loop
      vertex 3.21434 -19.8915 7
      vertex 6.24046 -18.1106 7
      vertex -0.254791 -17.1592 7
    endloop
  endfacet
  facet normal 0 0 1
    outer loop
      vertex 2.02335 20.3245 7
      vertex 2.35248 20.5635 7
      vertex 2.17134 20.454 7
    endloop
  endfacet
  facet normal 0 0 1
    outer loop
      vertex 2.56677 20.6532 7
      vertex 2.02335 20.3245 7
      vertex 1.87036 20.1518 7
    endloop
  endfacet
  facet normal 0 -0 1
    outer loop
      vertex 4.19783 -19.7802 7
      vertex 6.24046 -18.1106 7
      vertex 3.21434 -19.8915 7
    endloop
  endfacet
  facet normal 0 0 1
    outer loop
      vertex 3.09477 20.7727 7
      vertex 1.87036 20.1518 7
      vertex 1.67429 19.9127 7
    endloop
  endfacet
  facet normal 0 0 1
    outer loop
      vertex 3.75534 20.8125 7
      vertex 1.67429 19.9127 7
      vertex 1.43509 19.6072 7
    endloop
  endfacet
  facet normal 0 0 1
    outer loop
      vertex 5.71089 -18.8897 7
      vertex 4.19783 -19.7802 7
      vertex 5.03001 -19.4463 7
    endloop
  endfacet
  facet normal 0 0 1
    outer loop
      vertex 6.63857 18.5917 7
      vertex 1.43509 19.6072 7
      vertex 1.15282 19.2352 7
    endloop
  endfacet
  facet normal 0 0 1
    outer loop
      vertex 6.24046 -18.1106 7
      vertex 4.19783 -19.7802 7
      vertex 5.71089 -18.8897 7
    endloop
  endfacet
  facet normal 0 0 1
    outer loop
      vertex 6.85065 17.6813 7
      vertex 1.15282 19.2352 7
      vertex 0.827423 18.7967 7
    endloop
  endfacet
  facet normal 0 0 1
    outer loop
      vertex 3.21434 -19.8915 7
      vertex -0.254791 -17.1592 7
      vertex 2.75589 -19.8688 7
    endloop
  endfacet
  facet normal 0 0 1
    outer loop
      vertex 6.92134 16.6335 7
      vertex 0.827423 18.7967 7
      vertex 0.458939 18.2918 7
    endloop
  endfacet
  facet normal -0 -0 1
    outer loop
      vertex -0.111786 -17.6289 7
      vertex 2.75589 -19.8688 7
      vertex -0.254791 -17.1592 7
    endloop
  endfacet
  facet normal 0 0 1
    outer loop
      vertex 6.92134 16.6335 7
      vertex 0.458939 18.2918 7
      vertex 0.0473328 17.7205 7
    endloop
  endfacet
  facet normal 0 0 1
    outer loop
      vertex 2.75589 -19.8688 7
      vertex -0.111786 -17.6289 7
      vertex 2.32397 -19.8006 7
    endloop
  endfacet
  facet normal 0 0 1
    outer loop
      vertex 2.32397 -19.8006 7
      vertex -0.111786 -17.6289 7
      vertex 1.91858 -19.6871 7
    endloop
  endfacet
  facet normal 0 0 1
    outer loop
      vertex 6.92134 16.6335 7
      vertex 0.0473328 17.7205 7
      vertex -0.394989 17.1245 7
    endloop
  endfacet
  facet normal 0 0 1
    outer loop
      vertex 1.91858 -19.6871 7
      vertex -0.111786 -17.6289 7
      vertex 1.53973 -19.5281 7
    endloop
  endfacet
  facet normal 0 0 1
    outer loop
      vertex 1.53973 -19.5281 7
      vertex -0.111786 -17.6289 7
      vertex 1.18741 -19.3236 7
    endloop
  endfacet
  facet normal 0 0 1
    outer loop
      vertex 1.18741 -19.3236 7
      vertex -0.111786 -17.6289 7
      vertex 0.861603 -19.0738 7
    endloop
  endfacet
  facet normal 0 0 1
    outer loop
      vertex 6.92134 16.6335 7
      vertex -0.394989 17.1245 7
      vertex -0.855743 16.5451 7
    endloop
  endfacet
  facet normal 0 0 1
    outer loop
      vertex 0.861603 -19.0738 7
      vertex -0.111786 -17.6289 7
      vertex 0.562347 -18.7785 7
    endloop
  endfacet
  facet normal 0 0 1
    outer loop
      vertex 0.562347 -18.7785 7
      vertex -0.111786 -17.6289 7
      vertex 0.296768 -18.4386 7
    endloop
  endfacet
  facet normal 0 0 1
    outer loop
      vertex 6.92134 16.6335 7
      vertex -0.855743 16.5451 7
      vertex -0.438644 9.22849 7
    endloop
  endfacet
  facet normal -0 0 1
    outer loop
      vertex -1.33492 15.9822 7
      vertex -0.438644 9.22849 7
      vertex -0.855743 16.5451 7
    endloop
  endfacet
  facet normal -0 0 1
    outer loop
      vertex -1.83249 15.4359 7
      vertex -0.438644 9.22849 7
      vertex -1.33492 15.9822 7
    endloop
  endfacet
  facet normal -0 0 1
    outer loop
      vertex -2.34846 14.9062 7
      vertex -0.438644 9.22849 7
      vertex -1.83249 15.4359 7
    endloop
  endfacet
  facet normal -0 0 1
    outer loop
      vertex -2.88284 14.3931 7
      vertex -0.438644 9.22849 7
      vertex -2.34846 14.9062 7
    endloop
  endfacet
  facet normal -0 0 1
    outer loop
      vertex -3.43564 13.8965 7
      vertex -0.438644 9.22849 7
      vertex -2.88284 14.3931 7
    endloop
  endfacet
  facet normal -0 0 1
    outer loop
      vertex -4.02448 13.4118 7
      vertex -0.438644 9.22849 7
      vertex -3.43564 13.8965 7
    endloop
  endfacet
  facet normal -0 0 1
    outer loop
      vertex -4.66699 12.9337 7
      vertex -0.438644 9.22849 7
      vertex -4.02448 13.4118 7
    endloop
  endfacet
  facet normal 0 0 1
    outer loop
      vertex -0.438644 9.22849 7
      vertex -4.66699 12.9337 7
      vertex -2.31505 7.81918 7
    endloop
  endfacet
  facet normal -0 0 1
    outer loop
      vertex -5.36317 12.4622 7
      vertex -2.31505 7.81918 7
      vertex -4.66699 12.9337 7
    endloop
  endfacet
  facet normal -0 0 1
    outer loop
      vertex -6.11304 11.9974 7
      vertex -2.31505 7.81918 7
      vertex -5.36317 12.4622 7
    endloop
  endfacet
  facet normal 0 0 1
    outer loop
      vertex -2.31505 7.81918 7
      vertex -6.11304 11.9974 7
      vertex -4.00771 6.62669 7
    endloop
  endfacet
  facet normal -0 0 1
    outer loop
      vertex -6.91656 11.5391 7
      vertex -4.00771 6.62669 7
      vertex -6.11304 11.9974 7
    endloop
  endfacet
  facet normal -0 0 1
    outer loop
      vertex -7.77377 11.0875 7
      vertex -4.00771 6.62669 7
      vertex -6.91656 11.5391 7
    endloop
  endfacet
  facet normal 0 0 1
    outer loop
      vertex -4.00771 6.62669 7
      vertex -7.77377 11.0875 7
      vertex -5.5166 5.65102 7
    endloop
  endfacet
  facet normal -0 0 1
    outer loop
      vertex -8.68465 10.6425 7
      vertex -5.5166 5.65102 7
      vertex -7.77377 11.0875 7
    endloop
  endfacet
  facet normal 0 0 1
    outer loop
      vertex -5.5166 5.65102 7
      vertex -8.68465 10.6425 7
      vertex -6.84175 4.89217 7
    endloop
  endfacet
  facet normal -0 0 1
    outer loop
      vertex -9.28523 10.3557 7
      vertex -6.84175 4.89217 7
      vertex -8.68465 10.6425 7
    endloop
  endfacet
  facet normal -0 0 1
    outer loop
      vertex -9.83159 10.0844 7
      vertex -6.84175 4.89217 7
      vertex -9.28523 10.3557 7
    endloop
  endfacet
  facet normal 0 0 1
    outer loop
      vertex -6.84175 4.89217 7
      vertex -9.83159 10.0844 7
      vertex -7.98314 4.35013 7
    endloop
  endfacet
  facet normal -0 0 1
    outer loop
      vertex -10.3237 9.82857 7
      vertex -7.98314 4.35013 7
      vertex -9.83159 10.0844 7
    endloop
  endfacet
  facet normal -0 0 1
    outer loop
      vertex -10.7615 9.58829 7
      vertex -7.98314 4.35013 7
      vertex -10.3237 9.82857 7
    endloop
  endfacet
  facet normal 0 0 1
    outer loop
      vertex -7.98314 4.35013 7
      vertex -10.7615 9.58829 7
      vertex -8.94077 4.0249 7
    endloop
  endfacet
  facet normal -0 0 1
    outer loop
      vertex -11.1452 9.36351 7
      vertex -8.94077 4.0249 7
      vertex -10.7615 9.58829 7
    endloop
  endfacet
  facet normal -0 0 1
    outer loop
      vertex -11.7366 4.82449 7
      vertex -8.94077 4.0249 7
      vertex -11.1452 9.36351 7
    endloop
  endfacet
  facet normal 0 0 1
    outer loop
      vertex -8.94077 4.0249 7
      vertex -11.4794 4.58359 7
      vertex -9.71465 3.91649 7
    endloop
  endfacet
  facet normal -0 -0 1
    outer loop
      vertex -11.2116 4.37976 7
      vertex -9.71465 3.91649 7
      vertex -11.4794 4.58359 7
    endloop
  endfacet
  facet normal 0 0 1
    outer loop
      vertex -9.71465 3.91649 7
      vertex -11.2116 4.37976 7
      vertex -10.0351 3.93503 7
    endloop
  endfacet
  facet normal 0 0 1
    outer loop
      vertex -10.345 3.99062 7
      vertex -10.9333 4.21298 7
      vertex -10.6444 4.08327 7
    endloop
  endfacet
  facet normal 0 0 1
    outer loop
      vertex -10.345 3.99062 7
      vertex -11.2116 4.37976 7
      vertex -10.9333 4.21298 7
    endloop
  endfacet
  facet normal 0 0 1
    outer loop
      vertex -12.1682 5.36711 7
      vertex -11.1452 9.36351 7
      vertex -11.4745 9.15425 7
    endloop
  endfacet
  facet normal 0 0 1
    outer loop
      vertex -10.0351 3.93503 7
      vertex -11.2116 4.37976 7
      vertex -10.345 3.99062 7
    endloop
  endfacet
  facet normal 0 0 1
    outer loop
      vertex -8.94077 4.0249 7
      vertex -11.7366 4.82449 7
      vertex -11.4794 4.58359 7
    endloop
  endfacet
  facet normal 0 0 1
    outer loop
      vertex -12.5468 7.65742 7
      vertex -11.4745 9.15425 7
      vertex -11.7496 8.96049 7
    endloop
  endfacet
  facet normal 0 0 1
    outer loop
      vertex -11.1452 9.36351 7
      vertex -11.9704 5.09 7
      vertex -11.7366 4.82449 7
    endloop
  endfacet
  facet normal 0 0 1
    outer loop
      vertex -12.4582 7.97797 7
      vertex -11.7496 8.96049 7
      vertex -11.9799 8.7598 7
    endloop
  endfacet
  facet normal 0 0 1
    outer loop
      vertex -11.1452 9.36351 7
      vertex -12.1682 5.36711 7
      vertex -11.9704 5.09 7
    endloop
  endfacet
  facet normal 0 0 1
    outer loop
      vertex -12.4582 7.97797 7
      vertex -11.9799 8.7598 7
      vertex -12.1748 8.52914 7
    endloop
  endfacet
  facet normal 0 0 1
    outer loop
      vertex -11.4745 9.15425 7
      vertex -12.6176 6.9265 7
      vertex -12.1682 5.36711 7
    endloop
  endfacet
  facet normal 0 0 1
    outer loop
      vertex -12.4582 7.97797 7
      vertex -12.1748 8.52914 7
      vertex -12.3342 8.26854 7
    endloop
  endfacet
  facet normal 0 0 1
    outer loop
      vertex -11.4745 9.15425 7
      vertex -12.5999 7.30695 7
      vertex -12.6176 6.9265 7
    endloop
  endfacet
  facet normal 0 0 1
    outer loop
      vertex -11.7496 8.96049 7
      vertex -12.4582 7.97797 7
      vertex -12.5468 7.65742 7
    endloop
  endfacet
  facet normal 0 0 1
    outer loop
      vertex -12.1682 5.36711 7
      vertex -12.6176 6.9265 7
      vertex -12.33 5.65579 7
    endloop
  endfacet
  facet normal 0 0 1
    outer loop
      vertex -11.4745 9.15425 7
      vertex -12.5468 7.65742 7
      vertex -12.5999 7.30695 7
    endloop
  endfacet
  facet normal 0 0 1
    outer loop
      vertex -12.33 5.65579 7
      vertex -12.6176 6.9265 7
      vertex -12.4558 5.95609 7
    endloop
  endfacet
  facet normal 0 0 1
    outer loop
      vertex -12.4558 5.95609 7
      vertex -12.6176 6.9265 7
      vertex -12.5457 6.26796 7
    endloop
  endfacet
  facet normal 0 0 1
    outer loop
      vertex -12.5457 6.26796 7
      vertex -12.6176 6.9265 7
      vertex -12.5997 6.59143 7
    endloop
  endfacet
  facet normal 0 0 1
    outer loop
      vertex 0.296768 -18.4386 7
      vertex -0.111786 -17.6289 7
      vertex 0.072052 -18.0554 7
    endloop
  endfacet
  facet normal 0.372385 -0.928078 0
    outer loop
      vertex 4.19783 -19.7802 1.5
      vertex 5.03001 -19.4463 7
      vertex 4.19783 -19.7802 7
    endloop
  endfacet
  facet normal 0.372385 -0.928078 0
    outer loop
      vertex 5.03001 -19.4463 7
      vertex 4.19783 -19.7802 1.5
      vertex 5.03001 -19.4463 1.5
    endloop
  endfacet
  facet normal 0.632864 -0.774263 0
    outer loop
      vertex 5.03001 -19.4463 1.5
      vertex 5.71089 -18.8897 7
      vertex 5.03001 -19.4463 7
    endloop
  endfacet
  facet normal 0.632864 -0.774263 0
    outer loop
      vertex 5.71089 -18.8897 7
      vertex 5.03001 -19.4463 1.5
      vertex 5.71089 -18.8897 1.5
    endloop
  endfacet
  facet normal 0.827048 -0.562131 0
    outer loop
      vertex 5.71089 -18.8897 7
      vertex 6.24046 -18.1106 1.5
      vertex 6.24046 -18.1106 7
    endloop
  endfacet
  facet normal 0.827048 -0.562131 0
    outer loop
      vertex 6.24046 -18.1106 1.5
      vertex 5.71089 -18.8897 7
      vertex 5.71089 -18.8897 1.5
    endloop
  endfacet
  facet normal 0.935526 -0.353257 0
    outer loop
      vertex 6.24046 -18.1106 7
      vertex 6.61873 -17.1088 1.5
      vertex 6.61873 -17.1088 7
    endloop
  endfacet
  facet normal 0.935526 -0.353257 0
    outer loop
      vertex 6.61873 -17.1088 1.5
      vertex 6.24046 -18.1106 7
      vertex 6.24046 -18.1106 1.5
    endloop
  endfacet
  facet normal 0.98325 -0.182264 0
    outer loop
      vertex 6.61873 -17.1088 7
      vertex 6.84569 -15.8845 1.5
      vertex 6.84569 -15.8845 7
    endloop
  endfacet
  facet normal 0.98325 -0.182264 0
    outer loop
      vertex 6.84569 -15.8845 1.5
      vertex 6.61873 -17.1088 7
      vertex 6.61873 -17.1088 1.5
    endloop
  endfacet
  facet normal 0.998636 -0.0522123 0
    outer loop
      vertex 6.84569 -15.8845 7
      vertex 6.92134 -14.4375 1.5
      vertex 6.92134 -14.4375 7
    endloop
  endfacet
  facet normal 0.998636 -0.0522123 0
    outer loop
      vertex 6.92134 -14.4375 1.5
      vertex 6.84569 -15.8845 7
      vertex 6.84569 -15.8845 1.5
    endloop
  endfacet
  facet normal 1 -0 0
    outer loop
      vertex 6.92134 -14.4375 7
      vertex 6.92134 16.6335 1.5
      vertex 6.92134 16.6335 7
    endloop
  endfacet
  facet normal 1 0 0
    outer loop
      vertex 6.92134 16.6335 1.5
      vertex 6.92134 -14.4375 7
      vertex 6.92134 -14.4375 1.5
    endloop
  endfacet
  facet normal 0.999467 0.0326382 0
    outer loop
      vertex 6.92134 16.6335 7
      vertex 6.90367 17.1746 1.5
      vertex 6.90367 17.1746 7
    endloop
  endfacet
  facet normal 0.999467 0.0326382 0
    outer loop
      vertex 6.90367 17.1746 1.5
      vertex 6.92134 16.6335 7
      vertex 6.92134 16.6335 1.5
    endloop
  endfacet
  facet normal 0.99457 0.104069 0
    outer loop
      vertex 6.90367 17.1746 7
      vertex 6.85065 17.6813 1.5
      vertex 6.85065 17.6813 7
    endloop
  endfacet
  facet normal 0.99457 0.104069 0
    outer loop
      vertex 6.85065 17.6813 1.5
      vertex 6.90367 17.1746 7
      vertex 6.90367 17.1746 1.5
    endloop
  endfacet
  facet normal 0.982949 0.183876 0
    outer loop
      vertex 6.85065 17.6813 7
      vertex 6.76228 18.1537 1.5
      vertex 6.76228 18.1537 7
    endloop
  endfacet
  facet normal 0.982949 0.183876 0
    outer loop
      vertex 6.76228 18.1537 1.5
      vertex 6.85065 17.6813 7
      vertex 6.85065 17.6813 1.5
    endloop
  endfacet
  facet normal 0.962344 0.271833 0
    outer loop
      vertex 6.76228 18.1537 7
      vertex 6.63857 18.5917 1.5
      vertex 6.63857 18.5917 7
    endloop
  endfacet
  facet normal 0.962344 0.271833 0
    outer loop
      vertex 6.63857 18.5917 1.5
      vertex 6.76228 18.1537 7
      vertex 6.76228 18.1537 1.5
    endloop
  endfacet
  facet normal 0.930371 0.36662 0
    outer loop
      vertex 6.63857 18.5917 7
      vertex 6.47951 18.9953 1.5
      vertex 6.47951 18.9953 7
    endloop
  endfacet
  facet normal 0.930371 0.36662 0
    outer loop
      vertex 6.47951 18.9953 1.5
      vertex 6.63857 18.5917 7
      vertex 6.63857 18.5917 1.5
    endloop
  endfacet
  facet normal 0.884856 0.465865 0
    outer loop
      vertex 6.47951 18.9953 7
      vertex 6.2851 19.3646 1.5
      vertex 6.2851 19.3646 7
    endloop
  endfacet
  facet normal 0.884856 0.465865 0
    outer loop
      vertex 6.2851 19.3646 1.5
      vertex 6.47951 18.9953 7
      vertex 6.47951 18.9953 1.5
    endloop
  endfacet
  facet normal 0.824607 0.565706 0
    outer loop
      vertex 6.2851 19.3646 7
      vertex 6.05534 19.6995 1.5
      vertex 6.05534 19.6995 7
    endloop
  endfacet
  facet normal 0.824607 0.565706 0
    outer loop
      vertex 6.05534 19.6995 1.5
      vertex 6.2851 19.3646 7
      vertex 6.2851 19.3646 1.5
    endloop
  endfacet
  facet normal 0.751768 0.659428 0
    outer loop
      vertex 6.05534 19.6995 7
      vertex 5.79633 19.9948 1.5
      vertex 5.79633 19.9948 7
    endloop
  endfacet
  facet normal 0.751768 0.659428 0
    outer loop
      vertex 5.79633 19.9948 1.5
      vertex 6.05534 19.6995 7
      vertex 6.05534 19.6995 1.5
    endloop
  endfacet
  facet normal 0.66287 0.748735 -0
    outer loop
      vertex 5.79633 19.9948 1.5
      vertex 5.51411 20.2446 7
      vertex 5.79633 19.9948 7
    endloop
  endfacet
  facet normal 0.66287 0.748735 0
    outer loop
      vertex 5.51411 20.2446 7
      vertex 5.79633 19.9948 1.5
      vertex 5.51411 20.2446 1.5
    endloop
  endfacet
  facet normal 0.55629 0.830988 -0
    outer loop
      vertex 5.51411 20.2446 1.5
      vertex 5.20872 20.4491 7
      vertex 5.51411 20.2446 7
    endloop
  endfacet
  facet normal 0.55629 0.830988 0
    outer loop
      vertex 5.20872 20.4491 7
      vertex 5.51411 20.2446 1.5
      vertex 5.20872 20.4491 1.5
    endloop
  endfacet
  facet normal 0.435588 0.900146 -0
    outer loop
      vertex 5.20872 20.4491 1.5
      vertex 4.88016 20.6081 7
      vertex 5.20872 20.4491 7
    endloop
  endfacet
  facet normal 0.435588 0.900146 0
    outer loop
      vertex 4.88016 20.6081 7
      vertex 5.20872 20.4491 1.5
      vertex 4.88016 20.6081 1.5
    endloop
  endfacet
  facet normal 0.307248 0.95163 -0
    outer loop
      vertex 4.88016 20.6081 1.5
      vertex 4.5284 20.7216 7
      vertex 4.88016 20.6081 7
    endloop
  endfacet
  facet normal 0.307248 0.95163 0
    outer loop
      vertex 4.5284 20.7216 7
      vertex 4.88016 20.6081 1.5
      vertex 4.5284 20.7216 1.5
    endloop
  endfacet
  facet normal 0.178822 0.983881 -0
    outer loop
      vertex 4.5284 20.7216 1.5
      vertex 4.15346 20.7898 7
      vertex 4.5284 20.7216 7
    endloop
  endfacet
  facet normal 0.178822 0.983881 0
    outer loop
      vertex 4.15346 20.7898 7
      vertex 4.5284 20.7216 1.5
      vertex 4.15346 20.7898 1.5
    endloop
  endfacet
  facet normal 0.0569768 0.998376 -0
    outer loop
      vertex 4.15346 20.7898 1.5
      vertex 3.75534 20.8125 7
      vertex 4.15346 20.7898 7
    endloop
  endfacet
  facet normal 0.0569768 0.998376 0
    outer loop
      vertex 3.75534 20.8125 7
      vertex 4.15346 20.7898 1.5
      vertex 3.75534 20.8125 1.5
    endloop
  endfacet
  facet normal -0.0287142 0.999588 0
    outer loop
      vertex 3.75534 20.8125 1.5
      vertex 3.40848 20.8025 7
      vertex 3.75534 20.8125 7
    endloop
  endfacet
  facet normal -0.0287142 0.999588 0
    outer loop
      vertex 3.40848 20.8025 7
      vertex 3.75534 20.8125 1.5
      vertex 3.40848 20.8025 1.5
    endloop
  endfacet
  facet normal -0.0948091 0.995495 0
    outer loop
      vertex 3.40848 20.8025 1.5
      vertex 3.09477 20.7727 7
      vertex 3.40848 20.8025 7
    endloop
  endfacet
  facet normal -0.0948091 0.995495 0
    outer loop
      vertex 3.09477 20.7727 7
      vertex 3.40848 20.8025 1.5
      vertex 3.09477 20.7727 1.5
    endloop
  endfacet
  facet normal -0.174775 0.984608 0
    outer loop
      vertex 3.09477 20.7727 1.5
      vertex 2.81419 20.7229 7
      vertex 3.09477 20.7727 7
    endloop
  endfacet
  facet normal -0.174775 0.984608 0
    outer loop
      vertex 2.81419 20.7229 7
      vertex 3.09477 20.7727 1.5
      vertex 2.81419 20.7229 1.5
    endloop
  endfacet
  facet normal -0.27116 0.962534 0
    outer loop
      vertex 2.81419 20.7229 1.5
      vertex 2.56677 20.6532 7
      vertex 2.81419 20.7229 7
    endloop
  endfacet
  facet normal -0.27116 0.962534 0
    outer loop
      vertex 2.56677 20.6532 7
      vertex 2.81419 20.7229 1.5
      vertex 2.56677 20.6532 1.5
    endloop
  endfacet
  facet normal -0.385921 0.922532 0
    outer loop
      vertex 2.56677 20.6532 1.5
      vertex 2.35248 20.5635 7
      vertex 2.56677 20.6532 7
    endloop
  endfacet
  facet normal -0.385921 0.922532 0
    outer loop
      vertex 2.35248 20.5635 7
      vertex 2.56677 20.6532 1.5
      vertex 2.35248 20.5635 1.5
    endloop
  endfacet
  facet normal -0.517482 0.855694 0
    outer loop
      vertex 2.35248 20.5635 1.5
      vertex 2.17134 20.454 7
      vertex 2.35248 20.5635 7
    endloop
  endfacet
  facet normal -0.517482 0.855694 0
    outer loop
      vertex 2.17134 20.454 7
      vertex 2.35248 20.5635 1.5
      vertex 2.17134 20.454 1.5
    endloop
  endfacet
  facet normal -0.658433 0.752639 0
    outer loop
      vertex 2.17134 20.454 1.5
      vertex 2.02335 20.3245 7
      vertex 2.17134 20.454 7
    endloop
  endfacet
  facet normal -0.658433 0.752639 0
    outer loop
      vertex 2.02335 20.3245 7
      vertex 2.17134 20.454 1.5
      vertex 2.02335 20.3245 1.5
    endloop
  endfacet
  facet normal -0.748452 0.663189 0
    outer loop
      vertex 1.87036 20.1518 1.5
      vertex 2.02335 20.3245 7
      vertex 2.02335 20.3245 1.5
    endloop
  endfacet
  facet normal -0.748452 0.663189 0
    outer loop
      vertex 2.02335 20.3245 7
      vertex 1.87036 20.1518 1.5
      vertex 1.87036 20.1518 7
    endloop
  endfacet
  facet normal -0.773253 0.634097 0
    outer loop
      vertex 1.67429 19.9127 1.5
      vertex 1.87036 20.1518 7
      vertex 1.87036 20.1518 1.5
    endloop
  endfacet
  facet normal -0.773253 0.634097 0
    outer loop
      vertex 1.87036 20.1518 7
      vertex 1.67429 19.9127 1.5
      vertex 1.67429 19.9127 7
    endloop
  endfacet
  facet normal -0.787409 0.616431 0
    outer loop
      vertex 1.43509 19.6072 1.5
      vertex 1.67429 19.9127 7
      vertex 1.67429 19.9127 1.5
    endloop
  endfacet
  facet normal -0.787409 0.616431 0
    outer loop
      vertex 1.67429 19.9127 7
      vertex 1.43509 19.6072 1.5
      vertex 1.43509 19.6072 7
    endloop
  endfacet
  facet normal -0.796631 0.604466 0
    outer loop
      vertex 1.15282 19.2352 1.5
      vertex 1.43509 19.6072 7
      vertex 1.43509 19.6072 1.5
    endloop
  endfacet
  facet normal -0.796631 0.604466 0
    outer loop
      vertex 1.43509 19.6072 7
      vertex 1.15282 19.2352 1.5
      vertex 1.15282 19.2352 7
    endloop
  endfacet
  facet normal -0.803015 0.595959 0
    outer loop
      vertex 0.827423 18.7967 1.5
      vertex 1.15282 19.2352 7
      vertex 1.15282 19.2352 1.5
    endloop
  endfacet
  facet normal -0.803015 0.595959 0
    outer loop
      vertex 1.15282 19.2352 7
      vertex 0.827423 18.7967 1.5
      vertex 0.827423 18.7967 7
    endloop
  endfacet
  facet normal -0.807756 0.589516 0
    outer loop
      vertex 0.458939 18.2918 1.5
      vertex 0.827423 18.7967 7
      vertex 0.827423 18.7967 1.5
    endloop
  endfacet
  facet normal -0.807756 0.589516 0
    outer loop
      vertex 0.827423 18.7967 7
      vertex 0.458939 18.2918 1.5
      vertex 0.458939 18.2918 7
    endloop
  endfacet
  facet normal -0.811377 0.584523 0
    outer loop
      vertex 0.0473328 17.7205 1.5
      vertex 0.458939 18.2918 7
      vertex 0.458939 18.2918 1.5
    endloop
  endfacet
  facet normal -0.811377 0.584523 0
    outer loop
      vertex 0.458939 18.2918 7
      vertex 0.0473328 17.7205 1.5
      vertex 0.0473328 17.7205 7
    endloop
  endfacet
  facet normal -0.803012 0.595963 0
    outer loop
      vertex -0.394989 17.1245 1.5
      vertex 0.0473328 17.7205 7
      vertex 0.0473328 17.7205 1.5
    endloop
  endfacet
  facet normal -0.803012 0.595963 0
    outer loop
      vertex 0.0473328 17.7205 7
      vertex -0.394989 17.1245 1.5
      vertex -0.394989 17.1245 7
    endloop
  endfacet
  facet normal -0.782707 0.62239 0
    outer loop
      vertex -0.855743 16.5451 1.5
      vertex -0.394989 17.1245 7
      vertex -0.394989 17.1245 1.5
    endloop
  endfacet
  facet normal -0.782707 0.62239 0
    outer loop
      vertex -0.394989 17.1245 7
      vertex -0.855743 16.5451 1.5
      vertex -0.855743 16.5451 7
    endloop
  endfacet
  facet normal -0.761439 0.648236 0
    outer loop
      vertex -1.33492 15.9822 1.5
      vertex -0.855743 16.5451 7
      vertex -0.855743 16.5451 1.5
    endloop
  endfacet
  facet normal -0.761439 0.648236 0
    outer loop
      vertex -0.855743 16.5451 7
      vertex -1.33492 15.9822 1.5
      vertex -1.33492 15.9822 7
    endloop
  endfacet
  facet normal -0.739296 0.673381 0
    outer loop
      vertex -1.83249 15.4359 1.5
      vertex -1.33492 15.9822 7
      vertex -1.33492 15.9822 1.5
    endloop
  endfacet
  facet normal -0.739296 0.673381 0
    outer loop
      vertex -1.33492 15.9822 7
      vertex -1.83249 15.4359 1.5
      vertex -1.83249 15.4359 7
    endloop
  endfacet
  facet normal -0.716341 0.69775 0
    outer loop
      vertex -2.34846 14.9062 1.5
      vertex -1.83249 15.4359 7
      vertex -1.83249 15.4359 1.5
    endloop
  endfacet
  facet normal -0.716341 0.69775 0
    outer loop
      vertex -1.83249 15.4359 7
      vertex -2.34846 14.9062 1.5
      vertex -2.34846 14.9062 7
    endloop
  endfacet
  facet normal -0.692627 0.721296 0
    outer loop
      vertex -2.34846 14.9062 1.5
      vertex -2.88284 14.3931 7
      vertex -2.34846 14.9062 7
    endloop
  endfacet
  facet normal -0.692627 0.721296 0
    outer loop
      vertex -2.88284 14.3931 7
      vertex -2.34846 14.9062 1.5
      vertex -2.88284 14.3931 1.5
    endloop
  endfacet
  facet normal -0.668259 0.743929 0
    outer loop
      vertex -2.88284 14.3931 1.5
      vertex -3.43564 13.8965 7
      vertex -2.88284 14.3931 7
    endloop
  endfacet
  facet normal -0.668259 0.743929 0
    outer loop
      vertex -3.43564 13.8965 7
      vertex -2.88284 14.3931 1.5
      vertex -3.43564 13.8965 1.5
    endloop
  endfacet
  facet normal -0.635528 0.772077 0
    outer loop
      vertex -3.43564 13.8965 1.5
      vertex -4.02448 13.4118 7
      vertex -3.43564 13.8965 7
    endloop
  endfacet
  facet normal -0.635528 0.772077 0
    outer loop
      vertex -4.02448 13.4118 7
      vertex -3.43564 13.8965 1.5
      vertex -4.02448 13.4118 1.5
    endloop
  endfacet
  facet normal -0.596959 0.802271 0
    outer loop
      vertex -4.02448 13.4118 1.5
      vertex -4.66699 12.9337 7
      vertex -4.02448 13.4118 7
    endloop
  endfacet
  facet normal -0.596959 0.802271 0
    outer loop
      vertex -4.66699 12.9337 7
      vertex -4.02448 13.4118 1.5
      vertex -4.66699 12.9337 1.5
    endloop
  endfacet
  facet normal -0.560733 0.827997 0
    outer loop
      vertex -4.66699 12.9337 1.5
      vertex -5.36317 12.4622 7
      vertex -4.66699 12.9337 7
    endloop
  endfacet
  facet normal -0.560733 0.827997 0
    outer loop
      vertex -5.36317 12.4622 7
      vertex -4.66699 12.9337 1.5
      vertex -5.36317 12.4622 1.5
    endloop
  endfacet
  facet normal -0.526894 0.849931 0
    outer loop
      vertex -5.36317 12.4622 1.5
      vertex -6.11304 11.9974 7
      vertex -5.36317 12.4622 7
    endloop
  endfacet
  facet normal -0.526894 0.849931 0
    outer loop
      vertex -6.11304 11.9974 7
      vertex -5.36317 12.4622 1.5
      vertex -6.11304 11.9974 1.5
    endloop
  endfacet
  facet normal -0.4954 0.868665 0
    outer loop
      vertex -6.11304 11.9974 1.5
      vertex -6.91656 11.5391 7
      vertex -6.11304 11.9974 7
    endloop
  endfacet
  facet normal -0.4954 0.868665 0
    outer loop
      vertex -6.91656 11.5391 7
      vertex -6.11304 11.9974 1.5
      vertex -6.91656 11.5391 1.5
    endloop
  endfacet
  facet normal -0.466124 0.884719 0
    outer loop
      vertex -6.91656 11.5391 1.5
      vertex -7.77377 11.0875 7
      vertex -6.91656 11.5391 7
    endloop
  endfacet
  facet normal -0.466124 0.884719 0
    outer loop
      vertex -7.77377 11.0875 7
      vertex -6.91656 11.5391 1.5
      vertex -7.77377 11.0875 1.5
    endloop
  endfacet
  facet normal -0.438977 0.898498 0
    outer loop
      vertex -7.77377 11.0875 1.5
      vertex -8.68465 10.6425 7
      vertex -7.77377 11.0875 7
    endloop
  endfacet
  facet normal -0.438977 0.898498 0
    outer loop
      vertex -8.68465 10.6425 7
      vertex -7.77377 11.0875 1.5
      vertex -8.68465 10.6425 1.5
    endloop
  endfacet
  facet normal -0.430926 0.902387 0
    outer loop
      vertex -8.68465 10.6425 1.5
      vertex -9.28523 10.3557 7
      vertex -8.68465 10.6425 7
    endloop
  endfacet
  facet normal -0.430926 0.902387 0
    outer loop
      vertex -9.28523 10.3557 7
      vertex -8.68465 10.6425 1.5
      vertex -9.28523 10.3557 1.5
    endloop
  endfacet
  facet normal -0.444771 0.895645 0
    outer loop
      vertex -9.28523 10.3557 1.5
      vertex -9.83159 10.0844 7
      vertex -9.28523 10.3557 7
    endloop
  endfacet
  facet normal -0.444771 0.895645 0
    outer loop
      vertex -9.83159 10.0844 7
      vertex -9.28523 10.3557 1.5
      vertex -9.83159 10.0844 1.5
    endloop
  endfacet
  facet normal -0.461223 0.887284 0
    outer loop
      vertex -9.83159 10.0844 1.5
      vertex -10.3237 9.82857 7
      vertex -9.83159 10.0844 7
    endloop
  endfacet
  facet normal -0.461223 0.887284 0
    outer loop
      vertex -10.3237 9.82857 7
      vertex -9.83159 10.0844 1.5
      vertex -10.3237 9.82857 1.5
    endloop
  endfacet
  facet normal -0.481092 0.87667 0
    outer loop
      vertex -10.3237 9.82857 1.5
      vertex -10.7615 9.58829 7
      vertex -10.3237 9.82857 7
    endloop
  endfacet
  facet normal -0.481092 0.87667 0
    outer loop
      vertex -10.7615 9.58829 7
      vertex -10.3237 9.82857 1.5
      vertex -10.7615 9.58829 1.5
    endloop
  endfacet
  facet normal -0.505545 0.8628 0
    outer loop
      vertex -10.7615 9.58829 1.5
      vertex -11.1452 9.36351 7
      vertex -10.7615 9.58829 7
    endloop
  endfacet
  facet normal -0.505545 0.8628 0
    outer loop
      vertex -11.1452 9.36351 7
      vertex -10.7615 9.58829 1.5
      vertex -11.1452 9.36351 1.5
    endloop
  endfacet
  facet normal -0.536266 0.844049 0
    outer loop
      vertex -11.1452 9.36351 1.5
      vertex -11.4745 9.15425 7
      vertex -11.1452 9.36351 7
    endloop
  endfacet
  facet normal -0.536266 0.844049 0
    outer loop
      vertex -11.4745 9.15425 7
      vertex -11.1452 9.36351 1.5
      vertex -11.4745 9.15425 1.5
    endloop
  endfacet
  facet normal -0.575782 0.817603 0
    outer loop
      vertex -11.4745 9.15425 1.5
      vertex -11.7496 8.96049 7
      vertex -11.4745 9.15425 7
    endloop
  endfacet
  facet normal -0.575782 0.817603 0
    outer loop
      vertex -11.7496 8.96049 7
      vertex -11.4745 9.15425 1.5
      vertex -11.7496 8.96049 1.5
    endloop
  endfacet
  facet normal -0.657018 0.753875 0
    outer loop
      vertex -11.7496 8.96049 1.5
      vertex -11.9799 8.7598 7
      vertex -11.7496 8.96049 7
    endloop
  endfacet
  facet normal -0.657018 0.753875 0
    outer loop
      vertex -11.9799 8.7598 7
      vertex -11.7496 8.96049 1.5
      vertex -11.9799 8.7598 1.5
    endloop
  endfacet
  facet normal -0.763896 0.645339 0
    outer loop
      vertex -12.1748 8.52914 1.5
      vertex -11.9799 8.7598 7
      vertex -11.9799 8.7598 1.5
    endloop
  endfacet
  facet normal -0.763896 0.645339 0
    outer loop
      vertex -11.9799 8.7598 7
      vertex -12.1748 8.52914 1.5
      vertex -12.1748 8.52914 7
    endloop
  endfacet
  facet normal -0.853041 0.521844 0
    outer loop
      vertex -12.3342 8.26854 1.5
      vertex -12.1748 8.52914 7
      vertex -12.1748 8.52914 1.5
    endloop
  endfacet
  facet normal -0.853041 0.521844 0
    outer loop
      vertex -12.1748 8.52914 7
      vertex -12.3342 8.26854 1.5
      vertex -12.3342 8.26854 7
    endloop
  endfacet
  facet normal -0.919744 0.39252 0
    outer loop
      vertex -12.4582 7.97797 1.5
      vertex -12.3342 8.26854 7
      vertex -12.3342 8.26854 1.5
    endloop
  endfacet
  facet normal -0.919744 0.39252 0
    outer loop
      vertex -12.3342 8.26854 7
      vertex -12.4582 7.97797 1.5
      vertex -12.4582 7.97797 7
    endloop
  endfacet
  facet normal -0.963887 0.266311 0
    outer loop
      vertex -12.5468 7.65742 1.5
      vertex -12.4582 7.97797 7
      vertex -12.4582 7.97797 1.5
    endloop
  endfacet
  facet normal -0.963887 0.266311 0
    outer loop
      vertex -12.4582 7.97797 7
      vertex -12.5468 7.65742 1.5
      vertex -12.5468 7.65742 7
    endloop
  endfacet
  facet normal -0.988697 0.149925 0
    outer loop
      vertex -12.5999 7.30695 1.5
      vertex -12.5468 7.65742 7
      vertex -12.5468 7.65742 1.5
    endloop
  endfacet
  facet normal -0.988697 0.149925 0
    outer loop
      vertex -12.5468 7.65742 7
      vertex -12.5999 7.30695 1.5
      vertex -12.5999 7.30695 7
    endloop
  endfacet
  facet normal -0.998918 0.0465144 0
    outer loop
      vertex -12.6176 6.9265 1.5
      vertex -12.5999 7.30695 7
      vertex -12.5999 7.30695 1.5
    endloop
  endfacet
  facet normal -0.998918 0.0465144 0
    outer loop
      vertex -12.5999 7.30695 7
      vertex -12.6176 6.9265 1.5
      vertex -12.6176 6.9265 7
    endloop
  endfacet
  facet normal -0.998564 -0.0535684 0
    outer loop
      vertex -12.5997 6.59143 1.5
      vertex -12.6176 6.9265 7
      vertex -12.6176 6.9265 1.5
    endloop
  endfacet
  facet normal -0.998564 -0.0535684 0
    outer loop
      vertex -12.6176 6.9265 7
      vertex -12.5997 6.59143 1.5
      vertex -12.5997 6.59143 7
    endloop
  endfacet
  facet normal -0.98638 -0.164482 0
    outer loop
      vertex -12.5457 6.26796 1.5
      vertex -12.5997 6.59143 7
      vertex -12.5997 6.59143 1.5
    endloop
  endfacet
  facet normal -0.98638 -0.164482 0
    outer loop
      vertex -12.5997 6.59143 7
      vertex -12.5457 6.26796 1.5
      vertex -12.5457 6.26796 7
    endloop
  endfacet
  facet normal -0.960872 -0.276993 0
    outer loop
      vertex -12.4558 5.95609 1.5
      vertex -12.5457 6.26796 7
      vertex -12.5457 6.26796 1.5
    endloop
  endfacet
  facet normal -0.960872 -0.276993 0
    outer loop
      vertex -12.5457 6.26796 7
      vertex -12.4558 5.95609 1.5
      vertex -12.4558 5.95609 7
    endloop
  endfacet
  facet normal -0.922276 -0.386531 0
    outer loop
      vertex -12.33 5.65579 1.5
      vertex -12.4558 5.95609 7
      vertex -12.4558 5.95609 1.5
    endloop
  endfacet
  facet normal -0.922276 -0.386531 0
    outer loop
      vertex -12.4558 5.95609 7
      vertex -12.33 5.65579 1.5
      vertex -12.33 5.65579 7
    endloop
  endfacet
  facet normal -0.872302 -0.488967 0
    outer loop
      vertex -12.1682 5.36711 1.5
      vertex -12.33 5.65579 7
      vertex -12.33 5.65579 1.5
    endloop
  endfacet
  facet normal -0.872302 -0.488967 0
    outer loop
      vertex -12.33 5.65579 7
      vertex -12.1682 5.36711 1.5
      vertex -12.1682 5.36711 7
    endloop
  endfacet
  facet normal -0.81397 -0.580907 0
    outer loop
      vertex -11.9704 5.09 1.5
      vertex -12.1682 5.36711 7
      vertex -12.1682 5.36711 1.5
    endloop
  endfacet
  facet normal -0.81397 -0.580907 0
    outer loop
      vertex -12.1682 5.36711 7
      vertex -11.9704 5.09 1.5
      vertex -11.9704 5.09 7
    endloop
  endfacet
  facet normal -0.750585 -0.660774 0
    outer loop
      vertex -11.7366 4.82449 1.5
      vertex -11.9704 5.09 7
      vertex -11.9704 5.09 1.5
    endloop
  endfacet
  facet normal -0.750585 -0.660774 0
    outer loop
      vertex -11.9704 5.09 7
      vertex -11.7366 4.82449 1.5
      vertex -11.7366 4.82449 7
    endloop
  endfacet
  facet normal -0.68352 -0.729931 0
    outer loop
      vertex -11.7366 4.82449 1.5
      vertex -11.4794 4.58359 7
      vertex -11.7366 4.82449 7
    endloop
  endfacet
  facet normal -0.68352 -0.729931 -0
    outer loop
      vertex -11.4794 4.58359 7
      vertex -11.7366 4.82449 1.5
      vertex -11.4794 4.58359 1.5
    endloop
  endfacet
  facet normal -0.605636 -0.795742 0
    outer loop
      vertex -11.4794 4.58359 1.5
      vertex -11.2116 4.37976 7
      vertex -11.4794 4.58359 7
    endloop
  endfacet
  facet normal -0.605636 -0.795742 -0
    outer loop
      vertex -11.2116 4.37976 7
      vertex -11.4794 4.58359 1.5
      vertex -11.2116 4.37976 1.5
    endloop
  endfacet
  facet normal -0.514012 -0.857783 0
    outer loop
      vertex -11.2116 4.37976 1.5
      vertex -10.9333 4.21298 7
      vertex -11.2116 4.37976 7
    endloop
  endfacet
  facet normal -0.514012 -0.857783 -0
    outer loop
      vertex -10.9333 4.21298 7
      vertex -11.2116 4.37976 1.5
      vertex -10.9333 4.21298 1.5
    endloop
  endfacet
  facet normal -0.409645 -0.912245 0
    outer loop
      vertex -10.9333 4.21298 1.5
      vertex -10.6444 4.08327 7
      vertex -10.9333 4.21298 7
    endloop
  endfacet
  facet normal -0.409645 -0.912245 -0
    outer loop
      vertex -10.6444 4.08327 7
      vertex -10.9333 4.21298 1.5
      vertex -10.6444 4.08327 1.5
    endloop
  endfacet
  facet normal -0.295646 -0.955298 0
    outer loop
      vertex -10.6444 4.08327 1.5
      vertex -10.345 3.99062 7
      vertex -10.6444 4.08327 7
    endloop
  endfacet
  facet normal -0.295646 -0.955298 -0
    outer loop
      vertex -10.345 3.99062 7
      vertex -10.6444 4.08327 1.5
      vertex -10.345 3.99062 1.5
    endloop
  endfacet
  facet normal -0.176544 -0.984293 0
    outer loop
      vertex -10.345 3.99062 1.5
      vertex -10.0351 3.93503 7
      vertex -10.345 3.99062 7
    endloop
  endfacet
  facet normal -0.176544 -0.984293 -0
    outer loop
      vertex -10.0351 3.93503 7
      vertex -10.345 3.99062 1.5
      vertex -10.0351 3.93503 1.5
    endloop
  endfacet
  facet normal -0.0577578 -0.998331 0
    outer loop
      vertex -10.0351 3.93503 1.5
      vertex -9.71465 3.91649 7
      vertex -10.0351 3.93503 7
    endloop
  endfacet
  facet normal -0.0577578 -0.998331 -0
    outer loop
      vertex -9.71465 3.91649 7
      vertex -10.0351 3.93503 1.5
      vertex -9.71465 3.91649 1.5
    endloop
  endfacet
  facet normal 0.138736 -0.990329 0
    outer loop
      vertex -9.71465 3.91649 1.5
      vertex -8.94077 4.0249 7
      vertex -9.71465 3.91649 7
    endloop
  endfacet
  facet normal 0.138736 -0.990329 0
    outer loop
      vertex -8.94077 4.0249 7
      vertex -9.71465 3.91649 1.5
      vertex -8.94077 4.0249 1.5
    endloop
  endfacet
  facet normal 0.321577 -0.946883 0
    outer loop
      vertex -8.94077 4.0249 1.5
      vertex -7.98314 4.35013 7
      vertex -8.94077 4.0249 7
    endloop
  endfacet
  facet normal 0.321577 -0.946883 0
    outer loop
      vertex -7.98314 4.35013 7
      vertex -8.94077 4.0249 1.5
      vertex -7.98314 4.35013 1.5
    endloop
  endfacet
  facet normal 0.428978 -0.903315 0
    outer loop
      vertex -7.98314 4.35013 1.5
      vertex -6.84175 4.89217 7
      vertex -7.98314 4.35013 7
    endloop
  endfacet
  facet normal 0.428978 -0.903315 0
    outer loop
      vertex -6.84175 4.89217 7
      vertex -7.98314 4.35013 1.5
      vertex -6.84175 4.89217 1.5
    endloop
  endfacet
  facet normal 0.496939 -0.867785 0
    outer loop
      vertex -6.84175 4.89217 1.5
      vertex -5.5166 5.65102 7
      vertex -6.84175 4.89217 7
    endloop
  endfacet
  facet normal 0.496939 -0.867785 0
    outer loop
      vertex -5.5166 5.65102 7
      vertex -6.84175 4.89217 1.5
      vertex -5.5166 5.65102 1.5
    endloop
  endfacet
  facet normal 0.54299 -0.839739 0
    outer loop
      vertex -5.5166 5.65102 1.5
      vertex -4.00771 6.62669 7
      vertex -5.5166 5.65102 7
    endloop
  endfacet
  facet normal 0.54299 -0.839739 0
    outer loop
      vertex -4.00771 6.62669 7
      vertex -5.5166 5.65102 1.5
      vertex -4.00771 6.62669 1.5
    endloop
  endfacet
  facet normal 0.575933 -0.817497 0
    outer loop
      vertex -4.00771 6.62669 1.5
      vertex -2.31505 7.81918 7
      vertex -4.00771 6.62669 7
    endloop
  endfacet
  facet normal 0.575933 -0.817497 0
    outer loop
      vertex -2.31505 7.81918 7
      vertex -4.00771 6.62669 1.5
      vertex -2.31505 7.81918 1.5
    endloop
  endfacet
  facet normal 0.600545 -0.799591 0
    outer loop
      vertex -2.31505 7.81918 1.5
      vertex -0.438644 9.22849 7
      vertex -2.31505 7.81918 7
    endloop
  endfacet
  facet normal 0.600545 -0.799591 0
    outer loop
      vertex -0.438644 9.22849 7
      vertex -2.31505 7.81918 1.5
      vertex -0.438644 9.22849 1.5
    endloop
  endfacet
  facet normal -1 0 0
    outer loop
      vertex -0.438644 -15.4905 1.5
      vertex -0.438644 9.22849 7
      vertex -0.438644 9.22849 1.5
    endloop
  endfacet
  facet normal -1 -0 0
    outer loop
      vertex -0.438644 9.22849 7
      vertex -0.438644 -15.4905 1.5
      vertex -0.438644 -15.4905 7
    endloop
  endfacet
  facet normal -0.99942 -0.034061 0
    outer loop
      vertex -0.418213 -16.09 1.5
      vertex -0.438644 -15.4905 7
      vertex -0.438644 -15.4905 1.5
    endloop
  endfacet
  facet normal -0.99942 -0.034061 0
    outer loop
      vertex -0.438644 -15.4905 7
      vertex -0.418213 -16.09 1.5
      vertex -0.418213 -16.09 7
    endloop
  endfacet
  facet normal -0.993986 -0.109504 0
    outer loop
      vertex -0.356934 -16.6462 1.5
      vertex -0.418213 -16.09 7
      vertex -0.418213 -16.09 1.5
    endloop
  endfacet
  facet normal -0.993986 -0.109504 0
    outer loop
      vertex -0.418213 -16.09 7
      vertex -0.356934 -16.6462 1.5
      vertex -0.356934 -16.6462 7
    endloop
  endfacet
  facet normal -0.980747 -0.19528 0
    outer loop
      vertex -0.254791 -17.1592 1.5
      vertex -0.356934 -16.6462 7
      vertex -0.356934 -16.6462 1.5
    endloop
  endfacet
  facet normal -0.980747 -0.19528 0
    outer loop
      vertex -0.356934 -16.6462 7
      vertex -0.254791 -17.1592 1.5
      vertex -0.254791 -17.1592 7
    endloop
  endfacet
  facet normal -0.956646 -0.291254 0
    outer loop
      vertex -0.111786 -17.6289 1.5
      vertex -0.254791 -17.1592 7
      vertex -0.254791 -17.1592 1.5
    endloop
  endfacet
  facet normal -0.956646 -0.291254 0
    outer loop
      vertex -0.254791 -17.1592 7
      vertex -0.111786 -17.6289 1.5
      vertex -0.111786 -17.6289 7
    endloop
  endfacet
  facet normal -0.918307 -0.395869 0
    outer loop
      vertex 0.072052 -18.0554 1.5
      vertex -0.111786 -17.6289 7
      vertex -0.111786 -17.6289 1.5
    endloop
  endfacet
  facet normal -0.918307 -0.395869 0
    outer loop
      vertex -0.111786 -17.6289 7
      vertex 0.072052 -18.0554 1.5
      vertex 0.072052 -18.0554 7
    endloop
  endfacet
  facet normal -0.862605 -0.505877 0
    outer loop
      vertex 0.296768 -18.4386 1.5
      vertex 0.072052 -18.0554 7
      vertex 0.072052 -18.0554 1.5
    endloop
  endfacet
  facet normal -0.862605 -0.505877 0
    outer loop
      vertex 0.072052 -18.0554 7
      vertex 0.296768 -18.4386 1.5
      vertex 0.296768 -18.4386 7
    endloop
  endfacet
  facet normal -0.788006 -0.615668 0
    outer loop
      vertex 0.562347 -18.7785 1.5
      vertex 0.296768 -18.4386 7
      vertex 0.296768 -18.4386 1.5
    endloop
  endfacet
  facet normal -0.788006 -0.615668 0
    outer loop
      vertex 0.296768 -18.4386 7
      vertex 0.562347 -18.7785 1.5
      vertex 0.562347 -18.7785 7
    endloop
  endfacet
  facet normal -0.702373 -0.711809 0
    outer loop
      vertex 0.562347 -18.7785 1.5
      vertex 0.861603 -19.0738 7
      vertex 0.562347 -18.7785 7
    endloop
  endfacet
  facet normal -0.702373 -0.711809 -0
    outer loop
      vertex 0.861603 -19.0738 7
      vertex 0.562347 -18.7785 1.5
      vertex 0.861603 -19.0738 1.5
    endloop
  endfacet
  facet normal -0.608552 -0.793514 0
    outer loop
      vertex 0.861603 -19.0738 1.5
      vertex 1.18741 -19.3236 7
      vertex 0.861603 -19.0738 7
    endloop
  endfacet
  facet normal -0.608552 -0.793514 -0
    outer loop
      vertex 1.18741 -19.3236 7
      vertex 0.861603 -19.0738 1.5
      vertex 1.18741 -19.3236 1.5
    endloop
  endfacet
  facet normal -0.501853 -0.864953 0
    outer loop
      vertex 1.18741 -19.3236 1.5
      vertex 1.53973 -19.5281 7
      vertex 1.18741 -19.3236 7
    endloop
  endfacet
  facet normal -0.501853 -0.864953 -0
    outer loop
      vertex 1.53973 -19.5281 7
      vertex 1.18741 -19.3236 1.5
      vertex 1.53973 -19.5281 1.5
    endloop
  endfacet
  facet normal -0.386987 -0.922085 0
    outer loop
      vertex 1.53973 -19.5281 1.5
      vertex 1.91858 -19.6871 7
      vertex 1.53973 -19.5281 7
    endloop
  endfacet
  facet normal -0.386987 -0.922085 -0
    outer loop
      vertex 1.91858 -19.6871 7
      vertex 1.53973 -19.5281 1.5
      vertex 1.91858 -19.6871 1.5
    endloop
  endfacet
  facet normal -0.269763 -0.962927 0
    outer loop
      vertex 1.91858 -19.6871 1.5
      vertex 2.32397 -19.8006 7
      vertex 1.91858 -19.6871 7
    endloop
  endfacet
  facet normal -0.269763 -0.962927 -0
    outer loop
      vertex 2.32397 -19.8006 7
      vertex 1.91858 -19.6871 1.5
      vertex 2.32397 -19.8006 1.5
    endloop
  endfacet
  facet normal -0.155848 -0.987781 0
    outer loop
      vertex 2.32397 -19.8006 1.5
      vertex 2.75589 -19.8688 7
      vertex 2.32397 -19.8006 7
    endloop
  endfacet
  facet normal -0.155848 -0.987781 -0
    outer loop
      vertex 2.75589 -19.8688 7
      vertex 2.32397 -19.8006 1.5
      vertex 2.75589 -19.8688 1.5
    endloop
  endfacet
  facet normal -0.0494982 -0.998774 0
    outer loop
      vertex 2.75589 -19.8688 1.5
      vertex 3.21434 -19.8915 7
      vertex 2.75589 -19.8688 7
    endloop
  endfacet
  facet normal -0.0494982 -0.998774 -0
    outer loop
      vertex 3.21434 -19.8915 7
      vertex 2.75589 -19.8688 1.5
      vertex 3.21434 -19.8915 1.5
    endloop
  endfacet
  facet normal 0.112463 -0.993656 0
    outer loop
      vertex 3.21434 -19.8915 1.5
      vertex 4.19783 -19.7802 7
      vertex 3.21434 -19.8915 7
    endloop
  endfacet
  facet normal 0.112463 -0.993656 0
    outer loop
      vertex 4.19783 -19.7802 7
      vertex 3.21434 -19.8915 1.5
      vertex 4.19783 -19.7802 1.5
    endloop
  endfacet
endsolid OpenSCAD_Model
