solid OpenSCAD_Model
  facet normal -1 0 0
    outer loop
      vertex -22.5 -22.5 0.5
      vertex -22.5 22.5 1.5
      vertex -22.5 22.5 0.5
    endloop
  endfacet
  facet normal -1 -0 0
    outer loop
      vertex -22.5 22.5 1.5
      vertex -22.5 -22.5 0.5
      vertex -22.5 -22.5 1.5
    endloop
  endfacet
  facet normal 0 0 1
    outer loop
      vertex -4.84909 -8.50983 1.5
      vertex -22.5 -22.5 1.5
      vertex -5.11469 -9.43394 1.5
    endloop
  endfacet
  facet normal 0 0 1
    outer loop
      vertex -4.54587 -7.53763 1.5
      vertex -22.5 -22.5 1.5
      vertex -4.84909 -8.50983 1.5
    endloop
  endfacet
  facet normal 0 0 1
    outer loop
      vertex -22.5 -22.5 1.5
      vertex -4.54587 -7.53763 1.5
      vertex -10.8336 14.915 1.5
    endloop
  endfacet
  facet normal 0 0 1
    outer loop
      vertex -4.20502 -6.51733 1.5
      vertex -10.8336 14.915 1.5
      vertex -4.54587 -7.53763 1.5
    endloop
  endfacet
  facet normal 0 0 1
    outer loop
      vertex -3.82652 -5.44897 1.5
      vertex -10.8336 14.915 1.5
      vertex -4.20502 -6.51733 1.5
    endloop
  endfacet
  facet normal 0 0 1
    outer loop
      vertex -10.8336 14.915 1.5
      vertex -3.82652 -5.44897 1.5
      vertex -10.4887 14.6948 1.5
    endloop
  endfacet
  facet normal 0 0 1
    outer loop
      vertex -3.4104 -4.33252 1.5
      vertex -10.4887 14.6948 1.5
      vertex -3.82652 -5.44897 1.5
    endloop
  endfacet
  facet normal 0 0 1
    outer loop
      vertex -2.95665 -3.168 1.5
      vertex -10.4887 14.6948 1.5
      vertex -3.4104 -4.33252 1.5
    endloop
  endfacet
  facet normal 0 0 1
    outer loop
      vertex -10.4887 14.6948 1.5
      vertex -2.95665 -3.168 1.5
      vertex -10.0967 14.5085 1.5
    endloop
  endfacet
  facet normal 0 0 1
    outer loop
      vertex -2.46719 -1.97473 1.5
      vertex -10.0967 14.5085 1.5
      vertex -2.95665 -3.168 1.5
    endloop
  endfacet
  facet normal 0 0 1
    outer loop
      vertex -10.0967 14.5085 1.5
      vertex -2.46719 -1.97473 1.5
      vertex -9.65758 14.356 1.5
    endloop
  endfacet
  facet normal 0 0 1
    outer loop
      vertex -1.94398 -0.772644 1.5
      vertex -9.65758 14.356 1.5
      vertex -2.46719 -1.97473 1.5
    endloop
  endfacet
  facet normal 0 0 1
    outer loop
      vertex -9.65758 14.356 1.5
      vertex -1.94398 -0.772644 1.5
      vertex -9.17145 14.2374 1.5
    endloop
  endfacet
  facet normal 0 0 1
    outer loop
      vertex -1.38704 0.438232 1.5
      vertex -9.17145 14.2374 1.5
      vertex -1.94398 -0.772644 1.5
    endloop
  endfacet
  facet normal 0 0 1
    outer loop
      vertex -9.17145 14.2374 1.5
      vertex -1.38704 0.438232 1.5
      vertex -8.63823 14.1527 1.5
    endloop
  endfacet
  facet normal 0 0 1
    outer loop
      vertex -0.796326 1.65796 1.5
      vertex -8.63823 14.1527 1.5
      vertex -1.38704 0.438232 1.5
    endloop
  endfacet
  facet normal 0 0 1
    outer loop
      vertex -8.63823 14.1527 1.5
      vertex -0.796326 1.65796 1.5
      vertex -8.05797 14.1019 1.5
    endloop
  endfacet
  facet normal 0 0 1
    outer loop
      vertex -8.05797 14.1019 1.5
      vertex -0.796326 1.65796 1.5
      vertex -7.43065 14.085 1.5
    endloop
  endfacet
  facet normal 0 0 1
    outer loop
      vertex -0.171844 2.88647 1.5
      vertex -7.43065 14.085 1.5
      vertex -0.796326 1.65796 1.5
    endloop
  endfacet
  facet normal 0 0 1
    outer loop
      vertex 0.486359 4.12383 1.5
      vertex -7.43065 14.085 1.5
      vertex -0.171844 2.88647 1.5
    endloop
  endfacet
  facet normal 0 0 1
    outer loop
      vertex 1.17834 5.37 1.5
      vertex -7.43065 14.085 1.5
      vertex 0.486359 4.12383 1.5
    endloop
  endfacet
  facet normal 0 0 1
    outer loop
      vertex 1.90628 6.62001 1.5
      vertex -7.43065 14.085 1.5
      vertex 1.17834 5.37 1.5
    endloop
  endfacet
  facet normal 0 0 1
    outer loop
      vertex 2.67238 7.86836 1.5
      vertex -7.43065 14.085 1.5
      vertex 1.90628 6.62001 1.5
    endloop
  endfacet
  facet normal 0 0 1
    outer loop
      vertex 3.47664 9.11504 1.5
      vertex -7.43065 14.085 1.5
      vertex 2.67238 7.86836 1.5
    endloop
  endfacet
  facet normal 0 0 1
    outer loop
      vertex 4.31908 10.36 1.5
      vertex -7.43065 14.085 1.5
      vertex 3.47664 9.11504 1.5
    endloop
  endfacet
  facet normal 0 0 1
    outer loop
      vertex 5.19966 11.6034 1.5
      vertex -7.43065 14.085 1.5
      vertex 4.31908 10.36 1.5
    endloop
  endfacet
  facet normal 0 0 1
    outer loop
      vertex 6.11842 12.845 1.5
      vertex -7.43065 14.085 1.5
      vertex 5.19966 11.6034 1.5
    endloop
  endfacet
  facet normal -0 0 1
    outer loop
      vertex -7.43065 14.085 1.5
      vertex 6.11842 12.845 1.5
      vertex 7.07533 14.085 1.5
    endloop
  endfacet
  facet normal 0 0 1
    outer loop
      vertex 15.5334 16.6456 1.5
      vertex 22.5 22.5 1.5
      vertex 15.5613 16.986 1.5
    endloop
  endfacet
  facet normal 0 0 1
    outer loop
      vertex 22.5 22.5 1.5
      vertex 15.5375 17.499 1.5
      vertex 15.5613 16.986 1.5
    endloop
  endfacet
  facet normal 0 0 1
    outer loop
      vertex 22.5 22.5 1.5
      vertex 15.4662 17.9689 1.5
      vertex 15.5375 17.499 1.5
    endloop
  endfacet
  facet normal 0 0 1
    outer loop
      vertex 22.5 22.5 1.5
      vertex 15.3472 18.3956 1.5
      vertex 15.4662 17.9689 1.5
    endloop
  endfacet
  facet normal 0 0 1
    outer loop
      vertex 22.5 22.5 1.5
      vertex 15.1806 18.7791 1.5
      vertex 15.3472 18.3956 1.5
    endloop
  endfacet
  facet normal 0 0 1
    outer loop
      vertex 22.5 22.5 1.5
      vertex 14.9664 19.1196 1.5
      vertex 15.1806 18.7791 1.5
    endloop
  endfacet
  facet normal 0 0 1
    outer loop
      vertex 22.5 22.5 1.5
      vertex 14.7047 19.4169 1.5
      vertex 14.9664 19.1196 1.5
    endloop
  endfacet
  facet normal 0 0 1
    outer loop
      vertex 22.5 22.5 1.5
      vertex 14.3953 19.671 1.5
      vertex 14.7047 19.4169 1.5
    endloop
  endfacet
  facet normal 0 0 1
    outer loop
      vertex 22.5 22.5 1.5
      vertex 14.0329 19.8869 1.5
      vertex 14.3953 19.671 1.5
    endloop
  endfacet
  facet normal 0 0 1
    outer loop
      vertex 22.5 22.5 1.5
      vertex 13.6118 20.0697 1.5
      vertex 14.0329 19.8869 1.5
    endloop
  endfacet
  facet normal 0 0 1
    outer loop
      vertex 22.5 22.5 1.5
      vertex 13.132 20.2192 1.5
      vertex 13.6118 20.0697 1.5
    endloop
  endfacet
  facet normal 0 0 1
    outer loop
      vertex 22.5 22.5 1.5
      vertex 12.5936 20.3355 1.5
      vertex 13.132 20.2192 1.5
    endloop
  endfacet
  facet normal 0 0 1
    outer loop
      vertex 22.5 22.5 1.5
      vertex 11.9965 20.4185 1.5
      vertex 12.5936 20.3355 1.5
    endloop
  endfacet
  facet normal 0 0 1
    outer loop
      vertex 22.5 22.5 1.5
      vertex 11.3407 20.4684 1.5
      vertex 11.9965 20.4185 1.5
    endloop
  endfacet
  facet normal 0 0 1
    outer loop
      vertex 22.5 22.5 1.5
      vertex 10.6263 20.485 1.5
      vertex 11.3407 20.4684 1.5
    endloop
  endfacet
  facet normal 0 0 1
    outer loop
      vertex 22.5 22.5 1.5
      vertex -7.43065 20.485 1.5
      vertex 10.6263 20.485 1.5
    endloop
  endfacet
  facet normal -0 0 1
    outer loop
      vertex -22.5 22.5 1.5
      vertex -7.43065 20.485 1.5
      vertex 22.5 22.5 1.5
    endloop
  endfacet
  facet normal 0 0 1
    outer loop
      vertex -7.43065 20.485 1.5
      vertex -22.5 22.5 1.5
      vertex -8.02328 20.4739 1.5
    endloop
  endfacet
  facet normal 0 0 1
    outer loop
      vertex -11.9343 18.0259 1.5
      vertex -22.5 22.5 1.5
      vertex -11.9586 17.516 1.5
    endloop
  endfacet
  facet normal 0 0 1
    outer loop
      vertex -11.8613 18.4812 1.5
      vertex -22.5 22.5 1.5
      vertex -11.9343 18.0259 1.5
    endloop
  endfacet
  facet normal 0 0 1
    outer loop
      vertex -11.7395 18.882 1.5
      vertex -22.5 22.5 1.5
      vertex -11.8613 18.4812 1.5
    endloop
  endfacet
  facet normal 0 0 1
    outer loop
      vertex -11.5691 19.2283 1.5
      vertex -22.5 22.5 1.5
      vertex -11.7395 18.882 1.5
    endloop
  endfacet
  facet normal 0 0 1
    outer loop
      vertex -11.35 19.5201 1.5
      vertex -22.5 22.5 1.5
      vertex -11.5691 19.2283 1.5
    endloop
  endfacet
  facet normal 0 0 1
    outer loop
      vertex -11.0822 19.7573 1.5
      vertex -22.5 22.5 1.5
      vertex -11.35 19.5201 1.5
    endloop
  endfacet
  facet normal 0 0 1
    outer loop
      vertex -10.7656 19.94 1.5
      vertex -22.5 22.5 1.5
      vertex -11.0822 19.7573 1.5
    endloop
  endfacet
  facet normal 0 0 1
    outer loop
      vertex -10.4054 20.0846 1.5
      vertex -22.5 22.5 1.5
      vertex -10.7656 19.94 1.5
    endloop
  endfacet
  facet normal 0 0 1
    outer loop
      vertex -10.0065 20.2069 1.5
      vertex -22.5 22.5 1.5
      vertex -10.4054 20.0846 1.5
    endloop
  endfacet
  facet normal 0 0 1
    outer loop
      vertex -9.56877 20.307 1.5
      vertex -22.5 22.5 1.5
      vertex -10.0065 20.2069 1.5
    endloop
  endfacet
  facet normal 0 0 1
    outer loop
      vertex -9.09235 20.3849 1.5
      vertex -22.5 22.5 1.5
      vertex -9.56877 20.307 1.5
    endloop
  endfacet
  facet normal 0 0 1
    outer loop
      vertex -8.57718 20.4405 1.5
      vertex -22.5 22.5 1.5
      vertex -9.09235 20.3849 1.5
    endloop
  endfacet
  facet normal 0 0 1
    outer loop
      vertex -8.02328 20.4739 1.5
      vertex -22.5 22.5 1.5
      vertex -8.57718 20.4405 1.5
    endloop
  endfacet
  facet normal 0 0 1
    outer loop
      vertex 15.4496 16.2753 1.5
      vertex 22.5 22.5 1.5
      vertex 15.5334 16.6456 1.5
    endloop
  endfacet
  facet normal 0 0 1
    outer loop
      vertex 15.3099 15.8751 1.5
      vertex 22.5 22.5 1.5
      vertex 15.4496 16.2753 1.5
    endloop
  endfacet
  facet normal 0 0 1
    outer loop
      vertex 15.1143 15.4449 1.5
      vertex 22.5 22.5 1.5
      vertex 15.3099 15.8751 1.5
    endloop
  endfacet
  facet normal 0 0 1
    outer loop
      vertex 14.8629 14.9849 1.5
      vertex 22.5 22.5 1.5
      vertex 15.1143 15.4449 1.5
    endloop
  endfacet
  facet normal 0 0 1
    outer loop
      vertex 14.5555 14.4949 1.5
      vertex 22.5 22.5 1.5
      vertex 14.8629 14.9849 1.5
    endloop
  endfacet
  facet normal 0 0 1
    outer loop
      vertex 22.5 22.5 1.5
      vertex 14.5555 14.4949 1.5
      vertex 22.5 -22.5 1.5
    endloop
  endfacet
  facet normal -0 0 1
    outer loop
      vertex 14.1923 13.975 1.5
      vertex 22.5 -22.5 1.5
      vertex 14.5555 14.4949 1.5
    endloop
  endfacet
  facet normal -0 0 1
    outer loop
      vertex 13.7934 13.4321 1.5
      vertex 22.5 -22.5 1.5
      vertex 14.1923 13.975 1.5
    endloop
  endfacet
  facet normal -0 0 1
    outer loop
      vertex 13.379 12.8732 1.5
      vertex 22.5 -22.5 1.5
      vertex 13.7934 13.4321 1.5
    endloop
  endfacet
  facet normal -0 0 1
    outer loop
      vertex 12.9491 12.2982 1.5
      vertex 22.5 -22.5 1.5
      vertex 13.379 12.8732 1.5
    endloop
  endfacet
  facet normal -0 0 1
    outer loop
      vertex 12.5037 11.7072 1.5
      vertex 22.5 -22.5 1.5
      vertex 12.9491 12.2982 1.5
    endloop
  endfacet
  facet normal -0 0 1
    outer loop
      vertex 12.0428 11.1002 1.5
      vertex 22.5 -22.5 1.5
      vertex 12.5037 11.7072 1.5
    endloop
  endfacet
  facet normal -0 0 1
    outer loop
      vertex 11.5663 10.4771 1.5
      vertex 22.5 -22.5 1.5
      vertex 12.0428 11.1002 1.5
    endloop
  endfacet
  facet normal -0 0 1
    outer loop
      vertex 11.0743 9.838 1.5
      vertex 22.5 -22.5 1.5
      vertex 11.5663 10.4771 1.5
    endloop
  endfacet
  facet normal -0 0 1
    outer loop
      vertex 10.5724 9.16843 1.5
      vertex 22.5 -22.5 1.5
      vertex 11.0743 9.838 1.5
    endloop
  endfacet
  facet normal -0 0 1
    outer loop
      vertex 10.066 8.45399 1.5
      vertex 22.5 -22.5 1.5
      vertex 10.5724 9.16843 1.5
    endloop
  endfacet
  facet normal -0 0 1
    outer loop
      vertex 9.55518 7.6947 1.5
      vertex 22.5 -22.5 1.5
      vertex 10.066 8.45399 1.5
    endloop
  endfacet
  facet normal -0 0 1
    outer loop
      vertex 9.03989 6.89056 1.5
      vertex 22.5 -22.5 1.5
      vertex 9.55518 7.6947 1.5
    endloop
  endfacet
  facet normal -0 0 1
    outer loop
      vertex 8.52016 6.04156 1.5
      vertex 22.5 -22.5 1.5
      vertex 9.03989 6.89056 1.5
    endloop
  endfacet
  facet normal -0 0 1
    outer loop
      vertex 7.99597 5.14771 1.5
      vertex 22.5 -22.5 1.5
      vertex 8.52016 6.04156 1.5
    endloop
  endfacet
  facet normal -0 0 1
    outer loop
      vertex 7.46735 4.209 1.5
      vertex 22.5 -22.5 1.5
      vertex 7.99597 5.14771 1.5
    endloop
  endfacet
  facet normal -0 0 1
    outer loop
      vertex 6.94313 3.21768 1.5
      vertex 22.5 -22.5 1.5
      vertex 7.46735 4.209 1.5
    endloop
  endfacet
  facet normal -0 0 1
    outer loop
      vertex 6.43167 2.16548 1.5
      vertex 22.5 -22.5 1.5
      vertex 6.94313 3.21768 1.5
    endloop
  endfacet
  facet normal -0 0 1
    outer loop
      vertex 5.93294 1.05238 1.5
      vertex 22.5 -22.5 1.5
      vertex 6.43167 2.16548 1.5
    endloop
  endfacet
  facet normal -0 0 1
    outer loop
      vertex 5.44693 -0.121597 1.5
      vertex 22.5 -22.5 1.5
      vertex 5.93294 1.05238 1.5
    endloop
  endfacet
  facet normal -0 0 1
    outer loop
      vertex 4.97366 -1.35651 1.5
      vertex 22.5 -22.5 1.5
      vertex 5.44693 -0.121597 1.5
    endloop
  endfacet
  facet normal -0 0 1
    outer loop
      vertex 4.51314 -2.6523 1.5
      vertex 22.5 -22.5 1.5
      vertex 4.97366 -1.35651 1.5
    endloop
  endfacet
  facet normal -0 0 1
    outer loop
      vertex 4.06534 -4.00899 1.5
      vertex 22.5 -22.5 1.5
      vertex 4.51314 -2.6523 1.5
    endloop
  endfacet
  facet normal -0 0 1
    outer loop
      vertex 3.8871 -4.60634 1.5
      vertex 22.5 -22.5 1.5
      vertex 4.06534 -4.00899 1.5
    endloop
  endfacet
  facet normal -0 0 1
    outer loop
      vertex 3.72437 -5.17381 1.5
      vertex 22.5 -22.5 1.5
      vertex 3.8871 -4.60634 1.5
    endloop
  endfacet
  facet normal -0 0 1
    outer loop
      vertex 3.57713 -5.7114 1.5
      vertex 22.5 -22.5 1.5
      vertex 3.72437 -5.17381 1.5
    endloop
  endfacet
  facet normal -0 0 1
    outer loop
      vertex 3.44542 -6.21912 1.5
      vertex 22.5 -22.5 1.5
      vertex 3.57713 -5.7114 1.5
    endloop
  endfacet
  facet normal -0 0 1
    outer loop
      vertex 3.32922 -6.69695 1.5
      vertex 22.5 -22.5 1.5
      vertex 3.44542 -6.21912 1.5
    endloop
  endfacet
  facet normal -0 0 1
    outer loop
      vertex 3.22853 -7.14491 1.5
      vertex 22.5 -22.5 1.5
      vertex 3.32922 -6.69695 1.5
    endloop
  endfacet
  facet normal -0 0 1
    outer loop
      vertex 3.14334 -7.56299 1.5
      vertex 22.5 -22.5 1.5
      vertex 3.22853 -7.14491 1.5
    endloop
  endfacet
  facet normal -0 0 1
    outer loop
      vertex 3.06479 -7.98303 1.5
      vertex 22.5 -22.5 1.5
      vertex 3.14334 -7.56299 1.5
    endloop
  endfacet
  facet normal -0 0 1
    outer loop
      vertex 2.98399 -8.43744 1.5
      vertex 22.5 -22.5 1.5
      vertex 3.06479 -7.98303 1.5
    endloop
  endfacet
  facet normal -0 0 1
    outer loop
      vertex 2.90096 -8.92622 1.5
      vertex 22.5 -22.5 1.5
      vertex 2.98399 -8.43744 1.5
    endloop
  endfacet
  facet normal -0 0 1
    outer loop
      vertex 2.81567 -9.44936 1.5
      vertex 22.5 -22.5 1.5
      vertex 2.90096 -8.92622 1.5
    endloop
  endfacet
  facet normal -0 0 1
    outer loop
      vertex 2.72813 -10.0069 1.5
      vertex 22.5 -22.5 1.5
      vertex 2.81567 -9.44936 1.5
    endloop
  endfacet
  facet normal -0 0 1
    outer loop
      vertex 2.63837 -10.5988 1.5
      vertex 22.5 -22.5 1.5
      vertex 2.72813 -10.0069 1.5
    endloop
  endfacet
  facet normal -0 0 1
    outer loop
      vertex 2.45514 -11.8465 1.5
      vertex 22.5 -22.5 1.5
      vertex 2.63837 -10.5988 1.5
    endloop
  endfacet
  facet normal -0 0 1
    outer loop
      vertex 2.36723 -12.4249 1.5
      vertex 22.5 -22.5 1.5
      vertex 2.45514 -11.8465 1.5
    endloop
  endfacet
  facet normal -0 0 1
    outer loop
      vertex 2.28264 -12.9601 1.5
      vertex 22.5 -22.5 1.5
      vertex 2.36723 -12.4249 1.5
    endloop
  endfacet
  facet normal -0 0 1
    outer loop
      vertex 2.20135 -13.4521 1.5
      vertex 22.5 -22.5 1.5
      vertex 2.28264 -12.9601 1.5
    endloop
  endfacet
  facet normal -0 0 1
    outer loop
      vertex 2.12338 -13.9009 1.5
      vertex 22.5 -22.5 1.5
      vertex 2.20135 -13.4521 1.5
    endloop
  endfacet
  facet normal -0 0 1
    outer loop
      vertex 2.04871 -14.3065 1.5
      vertex 22.5 -22.5 1.5
      vertex 2.12338 -13.9009 1.5
    endloop
  endfacet
  facet normal -0 0 1
    outer loop
      vertex 1.97734 -14.669 1.5
      vertex 22.5 -22.5 1.5
      vertex 2.04871 -14.3065 1.5
    endloop
  endfacet
  facet normal -0 0 1
    outer loop
      vertex 1.80507 -15.425 1.5
      vertex 22.5 -22.5 1.5
      vertex 1.97734 -14.669 1.5
    endloop
  endfacet
  facet normal -0 0 1
    outer loop
      vertex 1.61342 -16.1118 1.5
      vertex 22.5 -22.5 1.5
      vertex 1.80507 -15.425 1.5
    endloop
  endfacet
  facet normal -0 0 1
    outer loop
      vertex 1.40237 -16.7294 1.5
      vertex 22.5 -22.5 1.5
      vertex 1.61342 -16.1118 1.5
    endloop
  endfacet
  facet normal -0 0 1
    outer loop
      vertex 1.17195 -17.2778 1.5
      vertex 22.5 -22.5 1.5
      vertex 1.40237 -16.7294 1.5
    endloop
  endfacet
  facet normal -0 0 1
    outer loop
      vertex 0.922134 -17.757 1.5
      vertex 22.5 -22.5 1.5
      vertex 1.17195 -17.2778 1.5
    endloop
  endfacet
  facet normal -0 0 1
    outer loop
      vertex 0.652939 -18.1671 1.5
      vertex 22.5 -22.5 1.5
      vertex 0.922134 -17.757 1.5
    endloop
  endfacet
  facet normal -0 0 1
    outer loop
      vertex 0.364334 -18.508 1.5
      vertex 22.5 -22.5 1.5
      vertex 0.652939 -18.1671 1.5
    endloop
  endfacet
  facet normal -0 0 1
    outer loop
      vertex 0.0519562 -18.7921 1.5
      vertex 22.5 -22.5 1.5
      vertex 0.364334 -18.508 1.5
    endloop
  endfacet
  facet normal -0 0 1
    outer loop
      vertex -0.28862 -19.0326 1.5
      vertex 22.5 -22.5 1.5
      vertex 0.0519562 -18.7921 1.5
    endloop
  endfacet
  facet normal -0 0 1
    outer loop
      vertex -0.657425 -19.2293 1.5
      vertex 22.5 -22.5 1.5
      vertex -0.28862 -19.0326 1.5
    endloop
  endfacet
  facet normal -0 0 1
    outer loop
      vertex -1.05441 -19.3823 1.5
      vertex 22.5 -22.5 1.5
      vertex -0.657425 -19.2293 1.5
    endloop
  endfacet
  facet normal -0 0 1
    outer loop
      vertex -1.47963 -19.4916 1.5
      vertex 22.5 -22.5 1.5
      vertex -1.05441 -19.3823 1.5
    endloop
  endfacet
  facet normal -0 0 1
    outer loop
      vertex -1.93303 -19.5571 1.5
      vertex 22.5 -22.5 1.5
      vertex -1.47963 -19.4916 1.5
    endloop
  endfacet
  facet normal -0 0 1
    outer loop
      vertex -2.41464 -19.579 1.5
      vertex 22.5 -22.5 1.5
      vertex -1.93303 -19.5571 1.5
    endloop
  endfacet
  facet normal 0 0 1
    outer loop
      vertex -22.5 -22.5 1.5
      vertex -2.41464 -19.579 1.5
      vertex -2.87393 -19.5555 1.5
    endloop
  endfacet
  facet normal 0 0 1
    outer loop
      vertex -5.11469 -9.43394 1.5
      vertex -22.5 -22.5 1.5
      vertex -5.34265 -10.31 1.5
    endloop
  endfacet
  facet normal 0 0 1
    outer loop
      vertex -5.34265 -10.31 1.5
      vertex -22.5 -22.5 1.5
      vertex -5.53685 -11.1363 1.5
    endloop
  endfacet
  facet normal 0 0 1
    outer loop
      vertex -5.53685 -11.1363 1.5
      vertex -22.5 -22.5 1.5
      vertex -5.70117 -11.9116 1.5
    endloop
  endfacet
  facet normal 0 0 1
    outer loop
      vertex -5.70117 -11.9116 1.5
      vertex -22.5 -22.5 1.5
      vertex -5.83562 -12.6361 1.5
    endloop
  endfacet
  facet normal 0 0 1
    outer loop
      vertex -5.83562 -12.6361 1.5
      vertex -22.5 -22.5 1.5
      vertex -5.9402 -13.3097 1.5
    endloop
  endfacet
  facet normal 0 0 1
    outer loop
      vertex -5.9402 -13.3097 1.5
      vertex -22.5 -22.5 1.5
      vertex -6.01489 -13.9323 1.5
    endloop
  endfacet
  facet normal 0 0 1
    outer loop
      vertex -6.01489 -13.9323 1.5
      vertex -22.5 -22.5 1.5
      vertex -6.05971 -14.5041 1.5
    endloop
  endfacet
  facet normal 0 0 1
    outer loop
      vertex -6.07465 -15.025 1.5
      vertex -22.5 -22.5 1.5
      vertex -6.05417 -15.6454 1.5
    endloop
  endfacet
  facet normal 0 0 1
    outer loop
      vertex -6.05971 -14.5041 1.5
      vertex -22.5 -22.5 1.5
      vertex -6.07465 -15.025 1.5
    endloop
  endfacet
  facet normal 0 0 1
    outer loop
      vertex -22.5 -22.5 1.5
      vertex -10.8336 14.915 1.5
      vertex -11.1321 15.1716 1.5
    endloop
  endfacet
  facet normal 0 0 1
    outer loop
      vertex -22.5 -22.5 1.5
      vertex -11.1321 15.1716 1.5
      vertex -11.3847 15.4665 1.5
    endloop
  endfacet
  facet normal 0 0 1
    outer loop
      vertex -22.5 22.5 1.5
      vertex -11.3847 15.4665 1.5
      vertex -11.5913 15.7997 1.5
    endloop
  endfacet
  facet normal 0 0 1
    outer loop
      vertex -22.5 22.5 1.5
      vertex -11.5913 15.7997 1.5
      vertex -11.752 16.1713 1.5
    endloop
  endfacet
  facet normal 0 0 1
    outer loop
      vertex -22.5 22.5 1.5
      vertex -11.752 16.1713 1.5
      vertex -11.8668 16.5812 1.5
    endloop
  endfacet
  facet normal 0 0 1
    outer loop
      vertex -22.5 22.5 1.5
      vertex -11.9357 17.0294 1.5
      vertex -11.9586 17.516 1.5
    endloop
  endfacet
  facet normal 0 0 1
    outer loop
      vertex -22.5 22.5 1.5
      vertex -11.8668 16.5812 1.5
      vertex -11.9357 17.0294 1.5
    endloop
  endfacet
  facet normal 0 0 1
    outer loop
      vertex -11.3847 15.4665 1.5
      vertex -22.5 22.5 1.5
      vertex -22.5 -22.5 1.5
    endloop
  endfacet
  facet normal 0 0 1
    outer loop
      vertex -6.05417 -15.6454 1.5
      vertex -22.5 -22.5 1.5
      vertex -5.99277 -16.2211 1.5
    endloop
  endfacet
  facet normal 0 0 1
    outer loop
      vertex -5.99277 -16.2211 1.5
      vertex -22.5 -22.5 1.5
      vertex -5.89043 -16.7519 1.5
    endloop
  endfacet
  facet normal 0 0 1
    outer loop
      vertex -5.89043 -16.7519 1.5
      vertex -22.5 -22.5 1.5
      vertex -5.74713 -17.2379 1.5
    endloop
  endfacet
  facet normal 0 0 1
    outer loop
      vertex -2.41464 -19.579 1.5
      vertex -22.5 -22.5 1.5
      vertex 22.5 -22.5 1.5
    endloop
  endfacet
  facet normal 0 0 1
    outer loop
      vertex -3.30664 -19.485 1.5
      vertex -22.5 -22.5 1.5
      vertex -2.87393 -19.5555 1.5
    endloop
  endfacet
  facet normal 0 0 1
    outer loop
      vertex -3.71278 -19.3674 1.5
      vertex -22.5 -22.5 1.5
      vertex -3.30664 -19.485 1.5
    endloop
  endfacet
  facet normal 0 0 1
    outer loop
      vertex -4.09236 -19.2028 1.5
      vertex -22.5 -22.5 1.5
      vertex -3.71278 -19.3674 1.5
    endloop
  endfacet
  facet normal 0 0 1
    outer loop
      vertex -4.44536 -18.9912 1.5
      vertex -22.5 -22.5 1.5
      vertex -4.09236 -19.2028 1.5
    endloop
  endfacet
  facet normal 0 0 1
    outer loop
      vertex -4.77179 -18.7326 1.5
      vertex -22.5 -22.5 1.5
      vertex -4.44536 -18.9912 1.5
    endloop
  endfacet
  facet normal 0 0 1
    outer loop
      vertex -5.07164 -18.427 1.5
      vertex -22.5 -22.5 1.5
      vertex -4.77179 -18.7326 1.5
    endloop
  endfacet
  facet normal 0 0 1
    outer loop
      vertex -5.33775 -18.0754 1.5
      vertex -22.5 -22.5 1.5
      vertex -5.07164 -18.427 1.5
    endloop
  endfacet
  facet normal 0 0 1
    outer loop
      vertex -5.56291 -17.6791 1.5
      vertex -22.5 -22.5 1.5
      vertex -5.33775 -18.0754 1.5
    endloop
  endfacet
  facet normal 0 0 1
    outer loop
      vertex -5.74713 -17.2379 1.5
      vertex -22.5 -22.5 1.5
      vertex -5.56291 -17.6791 1.5
    endloop
  endfacet
  facet normal 1 -0 0
    outer loop
      vertex 22.5 -22.5 1.5
      vertex 22.5 22.5 0.5
      vertex 22.5 22.5 1.5
    endloop
  endfacet
  facet normal 1 0 0
    outer loop
      vertex 22.5 22.5 0.5
      vertex 22.5 -22.5 1.5
      vertex 22.5 -22.5 0.5
    endloop
  endfacet
  facet normal 0 1 -0
    outer loop
      vertex 22.5 22.5 0.5
      vertex -22.5 22.5 1.5
      vertex 22.5 22.5 1.5
    endloop
  endfacet
  facet normal 0 1 0
    outer loop
      vertex -22.5 22.5 1.5
      vertex 22.5 22.5 0.5
      vertex -22.5 22.5 0.5
    endloop
  endfacet
  facet normal 0 0 -1
    outer loop
      vertex -22.5 -22.5 0.5
      vertex 22.5 22.5 0.5
      vertex 22.5 -22.5 0.5
    endloop
  endfacet
  facet normal -0 0 -1
    outer loop
      vertex 22.5 22.5 0.5
      vertex -22.5 -22.5 0.5
      vertex -22.5 22.5 0.5
    endloop
  endfacet
  facet normal 0 -1 0
    outer loop
      vertex -22.5 -22.5 0.5
      vertex 22.5 -22.5 1.5
      vertex -22.5 -22.5 1.5
    endloop
  endfacet
  facet normal 0 -1 -0
    outer loop
      vertex 22.5 -22.5 1.5
      vertex -22.5 -22.5 0.5
      vertex 22.5 -22.5 0.5
    endloop
  endfacet
  facet normal 0 0 1
    outer loop
      vertex 15.4496 16.2753 7
      vertex 15.5613 16.986 7
      vertex 15.5375 17.499 7
    endloop
  endfacet
  facet normal 0 0 1
    outer loop
      vertex 13.6118 20.0697 7
      vertex 15.5375 17.499 7
      vertex 15.4662 17.9689 7
    endloop
  endfacet
  facet normal 0 0 1
    outer loop
      vertex 15.5613 16.986 7
      vertex 15.4496 16.2753 7
      vertex 15.5334 16.6456 7
    endloop
  endfacet
  facet normal 0 0 1
    outer loop
      vertex 14.0329 19.8869 7
      vertex 15.4662 17.9689 7
      vertex 15.3472 18.3956 7
    endloop
  endfacet
  facet normal 0 0 1
    outer loop
      vertex 13.132 20.2192 7
      vertex 15.5375 17.499 7
      vertex 13.6118 20.0697 7
    endloop
  endfacet
  facet normal 0 0 1
    outer loop
      vertex 14.0329 19.8869 7
      vertex 15.3472 18.3956 7
      vertex 15.1806 18.7791 7
    endloop
  endfacet
  facet normal 0 0 1
    outer loop
      vertex 15.5375 17.499 7
      vertex 13.132 20.2192 7
      vertex 15.4496 16.2753 7
    endloop
  endfacet
  facet normal 0 0 1
    outer loop
      vertex 14.3953 19.671 7
      vertex 15.1806 18.7791 7
      vertex 14.9664 19.1196 7
    endloop
  endfacet
  facet normal 0 0 1
    outer loop
      vertex 15.4496 16.2753 7
      vertex 13.132 20.2192 7
      vertex 15.3099 15.8751 7
    endloop
  endfacet
  facet normal 0 0 1
    outer loop
      vertex 14.3953 19.671 7
      vertex 14.9664 19.1196 7
      vertex 14.7047 19.4169 7
    endloop
  endfacet
  facet normal 0 0 1
    outer loop
      vertex 15.4662 17.9689 7
      vertex 14.0329 19.8869 7
      vertex 13.6118 20.0697 7
    endloop
  endfacet
  facet normal 0 0 1
    outer loop
      vertex 15.1806 18.7791 7
      vertex 14.3953 19.671 7
      vertex 14.0329 19.8869 7
    endloop
  endfacet
  facet normal 0 0 1
    outer loop
      vertex 15.3099 15.8751 7
      vertex 13.132 20.2192 7
      vertex 15.1143 15.4449 7
    endloop
  endfacet
  facet normal 0 0 1
    outer loop
      vertex 12.5936 20.3355 7
      vertex 15.1143 15.4449 7
      vertex 13.132 20.2192 7
    endloop
  endfacet
  facet normal 0 0 1
    outer loop
      vertex 15.1143 15.4449 7
      vertex 12.5936 20.3355 7
      vertex 14.8629 14.9849 7
    endloop
  endfacet
  facet normal 0 0 1
    outer loop
      vertex 11.9965 20.4185 7
      vertex 14.8629 14.9849 7
      vertex 12.5936 20.3355 7
    endloop
  endfacet
  facet normal 0 0 1
    outer loop
      vertex 14.8629 14.9849 7
      vertex 11.9965 20.4185 7
      vertex 14.5555 14.4949 7
    endloop
  endfacet
  facet normal 0 0 1
    outer loop
      vertex 11.3407 20.4684 7
      vertex 14.5555 14.4949 7
      vertex 11.9965 20.4185 7
    endloop
  endfacet
  facet normal 0 0 1
    outer loop
      vertex 14.5555 14.4949 7
      vertex 11.3407 20.4684 7
      vertex 14.1923 13.975 7
    endloop
  endfacet
  facet normal 0 0 1
    outer loop
      vertex 10.6263 20.485 7
      vertex 14.1923 13.975 7
      vertex 11.3407 20.4684 7
    endloop
  endfacet
  facet normal -0 0 1
    outer loop
      vertex 7.07533 14.085 7
      vertex 14.1923 13.975 7
      vertex 10.6263 20.485 7
    endloop
  endfacet
  facet normal 0 0 1
    outer loop
      vertex 14.1923 13.975 7
      vertex 7.07533 14.085 7
      vertex 13.7934 13.4321 7
    endloop
  endfacet
  facet normal 0 0 1
    outer loop
      vertex 13.379 12.8732 7
      vertex 7.07533 14.085 7
      vertex 12.9491 12.2982 7
    endloop
  endfacet
  facet normal 0 0 1
    outer loop
      vertex 12.5037 11.7072 7
      vertex 7.07533 14.085 7
      vertex 12.0428 11.1002 7
    endloop
  endfacet
  facet normal 0 0 1
    outer loop
      vertex 12.9491 12.2982 7
      vertex 7.07533 14.085 7
      vertex 12.5037 11.7072 7
    endloop
  endfacet
  facet normal 0 0 1
    outer loop
      vertex 12.0428 11.1002 7
      vertex 7.07533 14.085 7
      vertex 11.5663 10.4771 7
    endloop
  endfacet
  facet normal 0 0 1
    outer loop
      vertex 13.7934 13.4321 7
      vertex 7.07533 14.085 7
      vertex 13.379 12.8732 7
    endloop
  endfacet
  facet normal 0 0 1
    outer loop
      vertex 11.5663 10.4771 7
      vertex 7.07533 14.085 7
      vertex 11.0743 9.838 7
    endloop
  endfacet
  facet normal -0 0 1
    outer loop
      vertex 6.11842 12.845 7
      vertex 11.0743 9.838 7
      vertex 7.07533 14.085 7
    endloop
  endfacet
  facet normal 0 0 1
    outer loop
      vertex 11.0743 9.838 7
      vertex 6.11842 12.845 7
      vertex 10.5724 9.16843 7
    endloop
  endfacet
  facet normal -0 0 1
    outer loop
      vertex 5.19966 11.6034 7
      vertex 10.5724 9.16843 7
      vertex 6.11842 12.845 7
    endloop
  endfacet
  facet normal 0 0 1
    outer loop
      vertex 10.5724 9.16843 7
      vertex 5.19966 11.6034 7
      vertex 10.066 8.45399 7
    endloop
  endfacet
  facet normal 0 0 1
    outer loop
      vertex 10.066 8.45399 7
      vertex 5.19966 11.6034 7
      vertex 9.55518 7.6947 7
    endloop
  endfacet
  facet normal -0 0 1
    outer loop
      vertex 4.31908 10.36 7
      vertex 9.55518 7.6947 7
      vertex 5.19966 11.6034 7
    endloop
  endfacet
  facet normal 0 0 1
    outer loop
      vertex 9.55518 7.6947 7
      vertex 4.31908 10.36 7
      vertex 9.03989 6.89056 7
    endloop
  endfacet
  facet normal -0 0 1
    outer loop
      vertex -7.43065 20.485 7
      vertex 7.07533 14.085 7
      vertex 10.6263 20.485 7
    endloop
  endfacet
  facet normal 0 0 1
    outer loop
      vertex -7.43065 20.485 7
      vertex -7.43065 14.085 7
      vertex 7.07533 14.085 7
    endloop
  endfacet
  facet normal -0 0 1
    outer loop
      vertex -8.02328 20.4739 7
      vertex -7.43065 14.085 7
      vertex -7.43065 20.485 7
    endloop
  endfacet
  facet normal 0 0 1
    outer loop
      vertex -8.02328 20.4739 7
      vertex -8.05797 14.1019 7
      vertex -7.43065 14.085 7
    endloop
  endfacet
  facet normal 0 0 1
    outer loop
      vertex -8.63823 14.1527 7
      vertex -8.02328 20.4739 7
      vertex -8.57718 20.4405 7
    endloop
  endfacet
  facet normal 0 0 1
    outer loop
      vertex -8.02328 20.4739 7
      vertex -8.63823 14.1527 7
      vertex -8.05797 14.1019 7
    endloop
  endfacet
  facet normal 0 0 1
    outer loop
      vertex -9.17145 14.2374 7
      vertex -8.57718 20.4405 7
      vertex -9.09235 20.3849 7
    endloop
  endfacet
  facet normal 0 0 1
    outer loop
      vertex -8.57718 20.4405 7
      vertex -9.17145 14.2374 7
      vertex -8.63823 14.1527 7
    endloop
  endfacet
  facet normal 0 0 1
    outer loop
      vertex -9.65758 14.356 7
      vertex -9.09235 20.3849 7
      vertex -9.56877 20.307 7
    endloop
  endfacet
  facet normal 0 0 1
    outer loop
      vertex -9.09235 20.3849 7
      vertex -9.65758 14.356 7
      vertex -9.17145 14.2374 7
    endloop
  endfacet
  facet normal 0 0 1
    outer loop
      vertex -11.9586 17.516 7
      vertex -9.56877 20.307 7
      vertex -10.0065 20.2069 7
    endloop
  endfacet
  facet normal 0 0 1
    outer loop
      vertex -9.56877 20.307 7
      vertex -10.0967 14.5085 7
      vertex -9.65758 14.356 7
    endloop
  endfacet
  facet normal 0 0 1
    outer loop
      vertex -11.9343 18.0259 7
      vertex -10.0065 20.2069 7
      vertex -10.4054 20.0846 7
    endloop
  endfacet
  facet normal 0 0 1
    outer loop
      vertex -9.56877 20.307 7
      vertex -11.9357 17.0294 7
      vertex -10.0967 14.5085 7
    endloop
  endfacet
  facet normal 0 0 1
    outer loop
      vertex -11.8613 18.4812 7
      vertex -10.4054 20.0846 7
      vertex -10.7656 19.94 7
    endloop
  endfacet
  facet normal -0 -0 1
    outer loop
      vertex -11.8668 16.5812 7
      vertex -10.0967 14.5085 7
      vertex -11.9357 17.0294 7
    endloop
  endfacet
  facet normal 0 0 1
    outer loop
      vertex -11.5691 19.2283 7
      vertex -10.7656 19.94 7
      vertex -11.0822 19.7573 7
    endloop
  endfacet
  facet normal 0 0 1
    outer loop
      vertex -9.56877 20.307 7
      vertex -11.9586 17.516 7
      vertex -11.9357 17.0294 7
    endloop
  endfacet
  facet normal 0 0 1
    outer loop
      vertex -11.5691 19.2283 7
      vertex -11.0822 19.7573 7
      vertex -11.35 19.5201 7
    endloop
  endfacet
  facet normal 0 0 1
    outer loop
      vertex -10.0967 14.5085 7
      vertex -11.8668 16.5812 7
      vertex -10.4887 14.6948 7
    endloop
  endfacet
  facet normal 0 0 1
    outer loop
      vertex -10.7656 19.94 7
      vertex -11.5691 19.2283 7
      vertex -11.7395 18.882 7
    endloop
  endfacet
  facet normal -0 -0 1
    outer loop
      vertex -11.752 16.1713 7
      vertex -10.4887 14.6948 7
      vertex -11.8668 16.5812 7
    endloop
  endfacet
  facet normal 0 0 1
    outer loop
      vertex -10.7656 19.94 7
      vertex -11.7395 18.882 7
      vertex -11.8613 18.4812 7
    endloop
  endfacet
  facet normal 0 0 1
    outer loop
      vertex -10.4887 14.6948 7
      vertex -11.752 16.1713 7
      vertex -10.8336 14.915 7
    endloop
  endfacet
  facet normal 0 0 1
    outer loop
      vertex -10.4054 20.0846 7
      vertex -11.8613 18.4812 7
      vertex -11.9343 18.0259 7
    endloop
  endfacet
  facet normal 0 0 1
    outer loop
      vertex -10.8336 14.915 7
      vertex -11.752 16.1713 7
      vertex -11.1321 15.1716 7
    endloop
  endfacet
  facet normal 0 0 1
    outer loop
      vertex -10.0065 20.2069 7
      vertex -11.9343 18.0259 7
      vertex -11.9586 17.516 7
    endloop
  endfacet
  facet normal 0 0 1
    outer loop
      vertex -11.1321 15.1716 7
      vertex -11.752 16.1713 7
      vertex -11.3847 15.4665 7
    endloop
  endfacet
  facet normal 0 0 1
    outer loop
      vertex -11.3847 15.4665 7
      vertex -11.752 16.1713 7
      vertex -11.5913 15.7997 7
    endloop
  endfacet
  facet normal -0 0 1
    outer loop
      vertex 3.47664 9.11504 7
      vertex 9.03989 6.89056 7
      vertex 4.31908 10.36 7
    endloop
  endfacet
  facet normal 0 0 1
    outer loop
      vertex 9.03989 6.89056 7
      vertex 3.47664 9.11504 7
      vertex 8.52016 6.04156 7
    endloop
  endfacet
  facet normal 0 0 1
    outer loop
      vertex 8.52016 6.04156 7
      vertex 3.47664 9.11504 7
      vertex 7.99597 5.14771 7
    endloop
  endfacet
  facet normal -0 0 1
    outer loop
      vertex 2.67238 7.86836 7
      vertex 7.99597 5.14771 7
      vertex 3.47664 9.11504 7
    endloop
  endfacet
  facet normal 0 0 1
    outer loop
      vertex 7.99597 5.14771 7
      vertex 2.67238 7.86836 7
      vertex 7.46735 4.209 7
    endloop
  endfacet
  facet normal -0 0 1
    outer loop
      vertex 1.90628 6.62001 7
      vertex 7.46735 4.209 7
      vertex 2.67238 7.86836 7
    endloop
  endfacet
  facet normal 0 0 1
    outer loop
      vertex 7.46735 4.209 7
      vertex 1.90628 6.62001 7
      vertex 6.94313 3.21768 7
    endloop
  endfacet
  facet normal -0 0 1
    outer loop
      vertex 1.17834 5.37 7
      vertex 6.94313 3.21768 7
      vertex 1.90628 6.62001 7
    endloop
  endfacet
  facet normal 0 0 1
    outer loop
      vertex 6.94313 3.21768 7
      vertex 1.17834 5.37 7
      vertex 6.43167 2.16548 7
    endloop
  endfacet
  facet normal -0 0 1
    outer loop
      vertex 0.486359 4.12383 7
      vertex 6.43167 2.16548 7
      vertex 1.17834 5.37 7
    endloop
  endfacet
  facet normal 0 0 1
    outer loop
      vertex 6.43167 2.16548 7
      vertex 0.486359 4.12383 7
      vertex 5.93294 1.05238 7
    endloop
  endfacet
  facet normal -0 0 1
    outer loop
      vertex -0.171844 2.88647 7
      vertex 5.93294 1.05238 7
      vertex 0.486359 4.12383 7
    endloop
  endfacet
  facet normal 0 0 1
    outer loop
      vertex 5.93294 1.05238 7
      vertex -0.171844 2.88647 7
      vertex 5.44693 -0.121597 7
    endloop
  endfacet
  facet normal -0 0 1
    outer loop
      vertex -0.796326 1.65796 7
      vertex 5.44693 -0.121597 7
      vertex -0.171844 2.88647 7
    endloop
  endfacet
  facet normal 0 0 1
    outer loop
      vertex 5.44693 -0.121597 7
      vertex -0.796326 1.65796 7
      vertex 4.97366 -1.35651 7
    endloop
  endfacet
  facet normal -0 0 1
    outer loop
      vertex -1.38704 0.438232 7
      vertex 4.97366 -1.35651 7
      vertex -0.796326 1.65796 7
    endloop
  endfacet
  facet normal 0 0 1
    outer loop
      vertex 4.97366 -1.35651 7
      vertex -1.38704 0.438232 7
      vertex 4.51314 -2.6523 7
    endloop
  endfacet
  facet normal -0 0 1
    outer loop
      vertex -1.94398 -0.772644 7
      vertex 4.51314 -2.6523 7
      vertex -1.38704 0.438232 7
    endloop
  endfacet
  facet normal 0 0 1
    outer loop
      vertex 4.51314 -2.6523 7
      vertex -1.94398 -0.772644 7
      vertex 4.06534 -4.00899 7
    endloop
  endfacet
  facet normal -0 0 1
    outer loop
      vertex -2.46719 -1.97473 7
      vertex 4.06534 -4.00899 7
      vertex -1.94398 -0.772644 7
    endloop
  endfacet
  facet normal 0 0 1
    outer loop
      vertex 4.06534 -4.00899 7
      vertex -2.46719 -1.97473 7
      vertex 3.8871 -4.60634 7
    endloop
  endfacet
  facet normal -0 0 1
    outer loop
      vertex -2.95665 -3.168 7
      vertex 3.8871 -4.60634 7
      vertex -2.46719 -1.97473 7
    endloop
  endfacet
  facet normal 0 0 1
    outer loop
      vertex 3.8871 -4.60634 7
      vertex -2.95665 -3.168 7
      vertex 3.72437 -5.17381 7
    endloop
  endfacet
  facet normal 0 0 1
    outer loop
      vertex 3.72437 -5.17381 7
      vertex -2.95665 -3.168 7
      vertex 3.57713 -5.7114 7
    endloop
  endfacet
  facet normal -0 0 1
    outer loop
      vertex -3.4104 -4.33252 7
      vertex 3.57713 -5.7114 7
      vertex -2.95665 -3.168 7
    endloop
  endfacet
  facet normal 0 0 1
    outer loop
      vertex 3.57713 -5.7114 7
      vertex -3.4104 -4.33252 7
      vertex 3.44542 -6.21912 7
    endloop
  endfacet
  facet normal 0 0 1
    outer loop
      vertex 3.44542 -6.21912 7
      vertex -3.4104 -4.33252 7
      vertex 3.32922 -6.69695 7
    endloop
  endfacet
  facet normal 0 0 1
    outer loop
      vertex 3.32922 -6.69695 7
      vertex -3.4104 -4.33252 7
      vertex 3.22853 -7.14491 7
    endloop
  endfacet
  facet normal -0 0 1
    outer loop
      vertex -3.82652 -5.44897 7
      vertex 3.22853 -7.14491 7
      vertex -3.4104 -4.33252 7
    endloop
  endfacet
  facet normal 0 0 1
    outer loop
      vertex 3.22853 -7.14491 7
      vertex -3.82652 -5.44897 7
      vertex 3.14334 -7.56299 7
    endloop
  endfacet
  facet normal 0 0 1
    outer loop
      vertex 3.14334 -7.56299 7
      vertex -3.82652 -5.44897 7
      vertex 3.06479 -7.98303 7
    endloop
  endfacet
  facet normal -0 0 1
    outer loop
      vertex -4.20502 -6.51733 7
      vertex 3.06479 -7.98303 7
      vertex -3.82652 -5.44897 7
    endloop
  endfacet
  facet normal 0 0 1
    outer loop
      vertex 3.06479 -7.98303 7
      vertex -4.20502 -6.51733 7
      vertex 2.98399 -8.43744 7
    endloop
  endfacet
  facet normal 0 0 1
    outer loop
      vertex 2.98399 -8.43744 7
      vertex -4.20502 -6.51733 7
      vertex 2.90096 -8.92622 7
    endloop
  endfacet
  facet normal -0 0 1
    outer loop
      vertex -4.54587 -7.53763 7
      vertex 2.90096 -8.92622 7
      vertex -4.20502 -6.51733 7
    endloop
  endfacet
  facet normal 0 0 1
    outer loop
      vertex 2.90096 -8.92622 7
      vertex -4.54587 -7.53763 7
      vertex 2.81567 -9.44936 7
    endloop
  endfacet
  facet normal 0 0 1
    outer loop
      vertex 2.81567 -9.44936 7
      vertex -4.54587 -7.53763 7
      vertex 2.72813 -10.0069 7
    endloop
  endfacet
  facet normal -0 0 1
    outer loop
      vertex -4.84909 -8.50983 7
      vertex 2.72813 -10.0069 7
      vertex -4.54587 -7.53763 7
    endloop
  endfacet
  facet normal 0 0 1
    outer loop
      vertex 2.72813 -10.0069 7
      vertex -4.84909 -8.50983 7
      vertex 2.63837 -10.5988 7
    endloop
  endfacet
  facet normal -0 0 1
    outer loop
      vertex -5.11469 -9.43394 7
      vertex 2.63837 -10.5988 7
      vertex -4.84909 -8.50983 7
    endloop
  endfacet
  facet normal 0 0 1
    outer loop
      vertex 2.63837 -10.5988 7
      vertex -5.11469 -9.43394 7
      vertex 2.45514 -11.8465 7
    endloop
  endfacet
  facet normal -0 0 1
    outer loop
      vertex -5.34265 -10.31 7
      vertex 2.45514 -11.8465 7
      vertex -5.11469 -9.43394 7
    endloop
  endfacet
  facet normal 0 0 1
    outer loop
      vertex 2.45514 -11.8465 7
      vertex -5.34265 -10.31 7
      vertex 2.36723 -12.4249 7
    endloop
  endfacet
  facet normal -0 0 1
    outer loop
      vertex -5.53685 -11.1363 7
      vertex 2.36723 -12.4249 7
      vertex -5.34265 -10.31 7
    endloop
  endfacet
  facet normal 0 0 1
    outer loop
      vertex 2.36723 -12.4249 7
      vertex -5.53685 -11.1363 7
      vertex 2.28264 -12.9601 7
    endloop
  endfacet
  facet normal -0 0 1
    outer loop
      vertex -5.70117 -11.9116 7
      vertex 2.28264 -12.9601 7
      vertex -5.53685 -11.1363 7
    endloop
  endfacet
  facet normal 0 0 1
    outer loop
      vertex 2.28264 -12.9601 7
      vertex -5.70117 -11.9116 7
      vertex 2.20135 -13.4521 7
    endloop
  endfacet
  facet normal 0 0 1
    outer loop
      vertex 2.20135 -13.4521 7
      vertex -5.70117 -11.9116 7
      vertex 2.12338 -13.9009 7
    endloop
  endfacet
  facet normal -0 0 1
    outer loop
      vertex -5.83562 -12.6361 7
      vertex 2.12338 -13.9009 7
      vertex -5.70117 -11.9116 7
    endloop
  endfacet
  facet normal 0 0 1
    outer loop
      vertex 2.12338 -13.9009 7
      vertex -5.83562 -12.6361 7
      vertex 2.04871 -14.3065 7
    endloop
  endfacet
  facet normal -0 0 1
    outer loop
      vertex -5.9402 -13.3097 7
      vertex 2.04871 -14.3065 7
      vertex -5.83562 -12.6361 7
    endloop
  endfacet
  facet normal 0 0 1
    outer loop
      vertex 2.04871 -14.3065 7
      vertex -5.9402 -13.3097 7
      vertex 1.97734 -14.669 7
    endloop
  endfacet
  facet normal -0 0 1
    outer loop
      vertex -6.01489 -13.9323 7
      vertex 1.97734 -14.669 7
      vertex -5.9402 -13.3097 7
    endloop
  endfacet
  facet normal 0 0 1
    outer loop
      vertex 1.97734 -14.669 7
      vertex -6.01489 -13.9323 7
      vertex 1.80507 -15.425 7
    endloop
  endfacet
  facet normal -0 0 1
    outer loop
      vertex -6.05971 -14.5041 7
      vertex 1.80507 -15.425 7
      vertex -6.01489 -13.9323 7
    endloop
  endfacet
  facet normal 0 0 1
    outer loop
      vertex 1.80507 -15.425 7
      vertex -6.05971 -14.5041 7
      vertex 1.61342 -16.1118 7
    endloop
  endfacet
  facet normal -0 0 1
    outer loop
      vertex -6.07465 -15.025 7
      vertex 1.61342 -16.1118 7
      vertex -6.05971 -14.5041 7
    endloop
  endfacet
  facet normal 0 0 1
    outer loop
      vertex 1.61342 -16.1118 7
      vertex -6.07465 -15.025 7
      vertex 1.40237 -16.7294 7
    endloop
  endfacet
  facet normal -0 -0 1
    outer loop
      vertex -6.05417 -15.6454 7
      vertex 1.40237 -16.7294 7
      vertex -6.07465 -15.025 7
    endloop
  endfacet
  facet normal 0 0 1
    outer loop
      vertex 1.40237 -16.7294 7
      vertex -6.05417 -15.6454 7
      vertex 1.17195 -17.2778 7
    endloop
  endfacet
  facet normal -0 -0 1
    outer loop
      vertex -5.99277 -16.2211 7
      vertex 1.17195 -17.2778 7
      vertex -6.05417 -15.6454 7
    endloop
  endfacet
  facet normal 0 0 1
    outer loop
      vertex 1.17195 -17.2778 7
      vertex -5.99277 -16.2211 7
      vertex 0.922134 -17.757 7
    endloop
  endfacet
  facet normal -0 -0 1
    outer loop
      vertex -5.89043 -16.7519 7
      vertex 0.922134 -17.757 7
      vertex -5.99277 -16.2211 7
    endloop
  endfacet
  facet normal 0 0 1
    outer loop
      vertex 0.922134 -17.757 7
      vertex -1.47963 -19.4916 7
      vertex 0.652939 -18.1671 7
    endloop
  endfacet
  facet normal 0 0 1
    outer loop
      vertex 0.652939 -18.1671 7
      vertex -1.47963 -19.4916 7
      vertex 0.364334 -18.508 7
    endloop
  endfacet
  facet normal 0 0 1
    outer loop
      vertex 0.364334 -18.508 7
      vertex -1.47963 -19.4916 7
      vertex 0.0519562 -18.7921 7
    endloop
  endfacet
  facet normal 0 0 1
    outer loop
      vertex 0.0519562 -18.7921 7
      vertex -1.05441 -19.3823 7
      vertex -0.28862 -19.0326 7
    endloop
  endfacet
  facet normal 0 0 1
    outer loop
      vertex -0.28862 -19.0326 7
      vertex -1.05441 -19.3823 7
      vertex -0.657425 -19.2293 7
    endloop
  endfacet
  facet normal 0 0 1
    outer loop
      vertex 0.0519562 -18.7921 7
      vertex -1.47963 -19.4916 7
      vertex -1.05441 -19.3823 7
    endloop
  endfacet
  facet normal 0 0 1
    outer loop
      vertex 0.922134 -17.757 7
      vertex -1.93303 -19.5571 7
      vertex -1.47963 -19.4916 7
    endloop
  endfacet
  facet normal 0 0 1
    outer loop
      vertex 0.922134 -17.757 7
      vertex -5.89043 -16.7519 7
      vertex -1.93303 -19.5571 7
    endloop
  endfacet
  facet normal 0 0 1
    outer loop
      vertex -1.93303 -19.5571 7
      vertex -5.89043 -16.7519 7
      vertex -2.41464 -19.579 7
    endloop
  endfacet
  facet normal -0 -0 1
    outer loop
      vertex -5.74713 -17.2379 7
      vertex -2.41464 -19.579 7
      vertex -5.89043 -16.7519 7
    endloop
  endfacet
  facet normal 0 0 1
    outer loop
      vertex -2.41464 -19.579 7
      vertex -5.74713 -17.2379 7
      vertex -2.87393 -19.5555 7
    endloop
  endfacet
  facet normal -0 -0 1
    outer loop
      vertex -5.56291 -17.6791 7
      vertex -2.87393 -19.5555 7
      vertex -5.74713 -17.2379 7
    endloop
  endfacet
  facet normal 0 0 1
    outer loop
      vertex -2.87393 -19.5555 7
      vertex -5.56291 -17.6791 7
      vertex -3.30664 -19.485 7
    endloop
  endfacet
  facet normal 0 0 1
    outer loop
      vertex -3.30664 -19.485 7
      vertex -5.56291 -17.6791 7
      vertex -3.71278 -19.3674 7
    endloop
  endfacet
  facet normal 0 0 1
    outer loop
      vertex -3.71278 -19.3674 7
      vertex -5.56291 -17.6791 7
      vertex -4.09236 -19.2028 7
    endloop
  endfacet
  facet normal 0 0 1
    outer loop
      vertex -4.09236 -19.2028 7
      vertex -5.56291 -17.6791 7
      vertex -4.44536 -18.9912 7
    endloop
  endfacet
  facet normal 0 0 1
    outer loop
      vertex -4.44536 -18.9912 7
      vertex -5.56291 -17.6791 7
      vertex -4.77179 -18.7326 7
    endloop
  endfacet
  facet normal 0 0 1
    outer loop
      vertex -5.07164 -18.427 7
      vertex -5.56291 -17.6791 7
      vertex -5.33775 -18.0754 7
    endloop
  endfacet
  facet normal 0 0 1
    outer loop
      vertex -4.77179 -18.7326 7
      vertex -5.56291 -17.6791 7
      vertex -5.07164 -18.427 7
    endloop
  endfacet
  facet normal 0.143123 -0.989705 0
    outer loop
      vertex -1.93303 -19.5571 1.5
      vertex -1.47963 -19.4916 7
      vertex -1.93303 -19.5571 7
    endloop
  endfacet
  facet normal 0.143123 -0.989705 0
    outer loop
      vertex -1.47963 -19.4916 7
      vertex -1.93303 -19.5571 1.5
      vertex -1.47963 -19.4916 1.5
    endloop
  endfacet
  facet normal 0.248917 -0.968525 0
    outer loop
      vertex -1.47963 -19.4916 1.5
      vertex -1.05441 -19.3823 7
      vertex -1.47963 -19.4916 7
    endloop
  endfacet
  facet normal 0.248917 -0.968525 0
    outer loop
      vertex -1.05441 -19.3823 7
      vertex -1.47963 -19.4916 1.5
      vertex -1.05441 -19.3823 1.5
    endloop
  endfacet
  facet normal 0.359618 -0.9331 0
    outer loop
      vertex -1.05441 -19.3823 1.5
      vertex -0.657425 -19.2293 7
      vertex -1.05441 -19.3823 7
    endloop
  endfacet
  facet normal 0.359618 -0.9331 0
    outer loop
      vertex -0.657425 -19.2293 7
      vertex -1.05441 -19.3823 1.5
      vertex -0.657425 -19.2293 1.5
    endloop
  endfacet
  facet normal 0.470626 -0.882333 0
    outer loop
      vertex -0.657425 -19.2293 1.5
      vertex -0.28862 -19.0326 7
      vertex -0.657425 -19.2293 7
    endloop
  endfacet
  facet normal 0.470626 -0.882333 0
    outer loop
      vertex -0.28862 -19.0326 7
      vertex -0.657425 -19.2293 1.5
      vertex -0.28862 -19.0326 1.5
    endloop
  endfacet
  facet normal 0.576725 -0.816938 0
    outer loop
      vertex -0.28862 -19.0326 1.5
      vertex 0.0519562 -18.7921 7
      vertex -0.28862 -19.0326 7
    endloop
  endfacet
  facet normal 0.576725 -0.816938 0
    outer loop
      vertex 0.0519562 -18.7921 7
      vertex -0.28862 -19.0326 1.5
      vertex 0.0519562 -18.7921 1.5
    endloop
  endfacet
  facet normal 0.672872 -0.739759 0
    outer loop
      vertex 0.0519562 -18.7921 1.5
      vertex 0.364334 -18.508 7
      vertex 0.0519562 -18.7921 7
    endloop
  endfacet
  facet normal 0.672872 -0.739759 0
    outer loop
      vertex 0.364334 -18.508 7
      vertex 0.0519562 -18.7921 1.5
      vertex 0.364334 -18.508 1.5
    endloop
  endfacet
  facet normal 0.763202 -0.64616 0
    outer loop
      vertex 0.364334 -18.508 7
      vertex 0.652939 -18.1671 1.5
      vertex 0.652939 -18.1671 7
    endloop
  endfacet
  facet normal 0.763202 -0.64616 0
    outer loop
      vertex 0.652939 -18.1671 1.5
      vertex 0.364334 -18.508 7
      vertex 0.364334 -18.508 1.5
    endloop
  endfacet
  facet normal 0.835963 -0.548786 0
    outer loop
      vertex 0.652939 -18.1671 7
      vertex 0.922134 -17.757 1.5
      vertex 0.922134 -17.757 7
    endloop
  endfacet
  facet normal 0.835963 -0.548786 0
    outer loop
      vertex 0.922134 -17.757 1.5
      vertex 0.652939 -18.1671 7
      vertex 0.652939 -18.1671 1.5
    endloop
  endfacet
  facet normal 0.886756 -0.462238 0
    outer loop
      vertex 0.922134 -17.757 7
      vertex 1.17195 -17.2778 1.5
      vertex 1.17195 -17.2778 7
    endloop
  endfacet
  facet normal 0.886756 -0.462238 0
    outer loop
      vertex 1.17195 -17.2778 1.5
      vertex 0.922134 -17.757 7
      vertex 0.922134 -17.757 1.5
    endloop
  endfacet
  facet normal 0.921929 -0.387359 0
    outer loop
      vertex 1.17195 -17.2778 7
      vertex 1.40237 -16.7294 1.5
      vertex 1.40237 -16.7294 7
    endloop
  endfacet
  facet normal 0.921929 -0.387359 0
    outer loop
      vertex 1.40237 -16.7294 1.5
      vertex 1.17195 -17.2778 7
      vertex 1.17195 -17.2778 1.5
    endloop
  endfacet
  facet normal 0.946279 -0.323352 0
    outer loop
      vertex 1.40237 -16.7294 7
      vertex 1.61342 -16.1118 1.5
      vertex 1.61342 -16.1118 7
    endloop
  endfacet
  facet normal 0.946279 -0.323352 0
    outer loop
      vertex 1.61342 -16.1118 1.5
      vertex 1.40237 -16.7294 7
      vertex 1.40237 -16.7294 1.5
    endloop
  endfacet
  facet normal 0.963201 -0.26878 0
    outer loop
      vertex 1.61342 -16.1118 7
      vertex 1.80507 -15.425 1.5
      vertex 1.80507 -15.425 7
    endloop
  endfacet
  facet normal 0.963201 -0.26878 0
    outer loop
      vertex 1.80507 -15.425 1.5
      vertex 1.61342 -16.1118 7
      vertex 1.61342 -16.1118 1.5
    endloop
  endfacet
  facet normal 0.975005 -0.222182 0
    outer loop
      vertex 1.80507 -15.425 7
      vertex 1.97734 -14.669 1.5
      vertex 1.97734 -14.669 7
    endloop
  endfacet
  facet normal 0.975005 -0.222182 0
    outer loop
      vertex 1.97734 -14.669 1.5
      vertex 1.80507 -15.425 7
      vertex 1.80507 -15.425 1.5
    endloop
  endfacet
  facet normal 0.981161 -0.193192 0
    outer loop
      vertex 1.97734 -14.669 7
      vertex 2.04871 -14.3065 1.5
      vertex 2.04871 -14.3065 7
    endloop
  endfacet
  facet normal 0.981161 -0.193192 0
    outer loop
      vertex 2.04871 -14.3065 1.5
      vertex 1.97734 -14.669 7
      vertex 1.97734 -14.669 1.5
    endloop
  endfacet
  facet normal 0.983473 -0.181053 0
    outer loop
      vertex 2.04871 -14.3065 7
      vertex 2.12338 -13.9009 1.5
      vertex 2.12338 -13.9009 7
    endloop
  endfacet
  facet normal 0.983473 -0.181053 0
    outer loop
      vertex 2.12338 -13.9009 1.5
      vertex 2.04871 -14.3065 7
      vertex 2.04871 -14.3065 1.5
    endloop
  endfacet
  facet normal 0.985243 -0.171163 0
    outer loop
      vertex 2.12338 -13.9009 7
      vertex 2.20135 -13.4521 1.5
      vertex 2.20135 -13.4521 7
    endloop
  endfacet
  facet normal 0.985243 -0.171163 0
    outer loop
      vertex 2.20135 -13.4521 1.5
      vertex 2.12338 -13.9009 7
      vertex 2.12338 -13.9009 1.5
    endloop
  endfacet
  facet normal 0.986625 -0.163004 0
    outer loop
      vertex 2.20135 -13.4521 7
      vertex 2.28264 -12.9601 1.5
      vertex 2.28264 -12.9601 7
    endloop
  endfacet
  facet normal 0.986625 -0.163004 0
    outer loop
      vertex 2.28264 -12.9601 1.5
      vertex 2.20135 -13.4521 7
      vertex 2.20135 -13.4521 1.5
    endloop
  endfacet
  facet normal 0.987737 -0.156127 0
    outer loop
      vertex 2.28264 -12.9601 7
      vertex 2.36723 -12.4249 1.5
      vertex 2.36723 -12.4249 7
    endloop
  endfacet
  facet normal 0.987737 -0.156127 0
    outer loop
      vertex 2.36723 -12.4249 1.5
      vertex 2.28264 -12.9601 7
      vertex 2.28264 -12.9601 1.5
    endloop
  endfacet
  facet normal 0.988646 -0.150264 0
    outer loop
      vertex 2.36723 -12.4249 7
      vertex 2.45514 -11.8465 1.5
      vertex 2.45514 -11.8465 7
    endloop
  endfacet
  facet normal 0.988646 -0.150264 0
    outer loop
      vertex 2.45514 -11.8465 1.5
      vertex 2.36723 -12.4249 7
      vertex 2.36723 -12.4249 1.5
    endloop
  endfacet
  facet normal 0.98939 -0.145284 0
    outer loop
      vertex 2.45514 -11.8465 7
      vertex 2.63837 -10.5988 1.5
      vertex 2.63837 -10.5988 7
    endloop
  endfacet
  facet normal 0.98939 -0.145284 0
    outer loop
      vertex 2.63837 -10.5988 1.5
      vertex 2.45514 -11.8465 7
      vertex 2.45514 -11.8465 1.5
    endloop
  endfacet
  facet normal 0.988694 -0.149948 0
    outer loop
      vertex 2.63837 -10.5988 7
      vertex 2.72813 -10.0069 1.5
      vertex 2.72813 -10.0069 7
    endloop
  endfacet
  facet normal 0.988694 -0.149948 0
    outer loop
      vertex 2.72813 -10.0069 1.5
      vertex 2.63837 -10.5988 7
      vertex 2.63837 -10.5988 1.5
    endloop
  endfacet
  facet normal 0.987896 -0.155118 0
    outer loop
      vertex 2.72813 -10.0069 7
      vertex 2.81567 -9.44936 1.5
      vertex 2.81567 -9.44936 7
    endloop
  endfacet
  facet normal 0.987896 -0.155118 0
    outer loop
      vertex 2.81567 -9.44936 1.5
      vertex 2.72813 -10.0069 7
      vertex 2.72813 -10.0069 1.5
    endloop
  endfacet
  facet normal 0.986971 -0.160897 0
    outer loop
      vertex 2.81567 -9.44936 7
      vertex 2.90096 -8.92622 1.5
      vertex 2.90096 -8.92622 7
    endloop
  endfacet
  facet normal 0.986971 -0.160897 0
    outer loop
      vertex 2.90096 -8.92622 1.5
      vertex 2.81567 -9.44936 7
      vertex 2.81567 -9.44936 1.5
    endloop
  endfacet
  facet normal 0.985874 -0.167488 0
    outer loop
      vertex 2.90096 -8.92622 7
      vertex 2.98399 -8.43744 1.5
      vertex 2.98399 -8.43744 7
    endloop
  endfacet
  facet normal 0.985874 -0.167488 0
    outer loop
      vertex 2.98399 -8.43744 1.5
      vertex 2.90096 -8.92622 7
      vertex 2.90096 -8.92622 1.5
    endloop
  endfacet
  facet normal 0.984558 -0.175058 0
    outer loop
      vertex 2.98399 -8.43744 7
      vertex 3.06479 -7.98303 1.5
      vertex 3.06479 -7.98303 7
    endloop
  endfacet
  facet normal 0.984558 -0.175058 0
    outer loop
      vertex 3.06479 -7.98303 1.5
      vertex 2.98399 -8.43744 7
      vertex 2.98399 -8.43744 1.5
    endloop
  endfacet
  facet normal 0.982959 -0.183823 0
    outer loop
      vertex 3.06479 -7.98303 7
      vertex 3.14334 -7.56299 1.5
      vertex 3.14334 -7.56299 7
    endloop
  endfacet
  facet normal 0.982959 -0.183823 0
    outer loop
      vertex 3.14334 -7.56299 1.5
      vertex 3.06479 -7.98303 7
      vertex 3.06479 -7.98303 1.5
    endloop
  endfacet
  facet normal 0.979865 -0.199664 0
    outer loop
      vertex 3.14334 -7.56299 7
      vertex 3.22853 -7.14491 1.5
      vertex 3.22853 -7.14491 7
    endloop
  endfacet
  facet normal 0.979865 -0.199664 0
    outer loop
      vertex 3.22853 -7.14491 1.5
      vertex 3.14334 -7.56299 7
      vertex 3.14334 -7.56299 1.5
    endloop
  endfacet
  facet normal 0.975656 -0.219305 0
    outer loop
      vertex 3.22853 -7.14491 7
      vertex 3.32922 -6.69695 1.5
      vertex 3.32922 -6.69695 7
    endloop
  endfacet
  facet normal 0.975656 -0.219305 0
    outer loop
      vertex 3.32922 -6.69695 1.5
      vertex 3.22853 -7.14491 7
      vertex 3.22853 -7.14491 1.5
    endloop
  endfacet
  facet normal 0.971683 -0.236288 0
    outer loop
      vertex 3.32922 -6.69695 7
      vertex 3.44542 -6.21912 1.5
      vertex 3.44542 -6.21912 7
    endloop
  endfacet
  facet normal 0.971683 -0.236288 0
    outer loop
      vertex 3.44542 -6.21912 1.5
      vertex 3.32922 -6.69695 7
      vertex 3.32922 -6.69695 1.5
    endloop
  endfacet
  facet normal 0.967959 -0.25111 0
    outer loop
      vertex 3.44542 -6.21912 7
      vertex 3.57713 -5.7114 1.5
      vertex 3.57713 -5.7114 7
    endloop
  endfacet
  facet normal 0.967959 -0.25111 0
    outer loop
      vertex 3.57713 -5.7114 1.5
      vertex 3.44542 -6.21912 7
      vertex 3.44542 -6.21912 1.5
    endloop
  endfacet
  facet normal 0.964482 -0.26415 0
    outer loop
      vertex 3.57713 -5.7114 7
      vertex 3.72437 -5.17381 1.5
      vertex 3.72437 -5.17381 7
    endloop
  endfacet
  facet normal 0.964482 -0.26415 0
    outer loop
      vertex 3.72437 -5.17381 1.5
      vertex 3.57713 -5.7114 7
      vertex 3.57713 -5.7114 1.5
    endloop
  endfacet
  facet normal 0.961255 -0.27566 0
    outer loop
      vertex 3.72437 -5.17381 7
      vertex 3.8871 -4.60634 1.5
      vertex 3.8871 -4.60634 7
    endloop
  endfacet
  facet normal 0.961255 -0.27566 0
    outer loop
      vertex 3.8871 -4.60634 1.5
      vertex 3.72437 -5.17381 7
      vertex 3.72437 -5.17381 1.5
    endloop
  endfacet
  facet normal 0.958252 -0.285924 0
    outer loop
      vertex 3.8871 -4.60634 7
      vertex 4.06534 -4.00899 1.5
      vertex 4.06534 -4.00899 7
    endloop
  endfacet
  facet normal 0.958252 -0.285924 0
    outer loop
      vertex 4.06534 -4.00899 1.5
      vertex 3.8871 -4.60634 7
      vertex 3.8871 -4.60634 1.5
    endloop
  endfacet
  facet normal 0.949609 -0.313436 0
    outer loop
      vertex 4.06534 -4.00899 7
      vertex 4.51314 -2.6523 1.5
      vertex 4.51314 -2.6523 7
    endloop
  endfacet
  facet normal 0.949609 -0.313436 0
    outer loop
      vertex 4.51314 -2.6523 1.5
      vertex 4.06534 -4.00899 7
      vertex 4.06534 -4.00899 1.5
    endloop
  endfacet
  facet normal 0.942261 -0.33488 0
    outer loop
      vertex 4.51314 -2.6523 7
      vertex 4.97366 -1.35651 1.5
      vertex 4.97366 -1.35651 7
    endloop
  endfacet
  facet normal 0.942261 -0.33488 0
    outer loop
      vertex 4.97366 -1.35651 1.5
      vertex 4.51314 -2.6523 7
      vertex 4.51314 -2.6523 1.5
    endloop
  endfacet
  facet normal 0.933775 -0.35786 0
    outer loop
      vertex 4.97366 -1.35651 7
      vertex 5.44693 -0.121597 1.5
      vertex 5.44693 -0.121597 7
    endloop
  endfacet
  facet normal 0.933775 -0.35786 0
    outer loop
      vertex 5.44693 -0.121597 1.5
      vertex 4.97366 -1.35651 7
      vertex 4.97366 -1.35651 1.5
    endloop
  endfacet
  facet normal 0.923955 -0.382501 0
    outer loop
      vertex 5.44693 -0.121597 7
      vertex 5.93294 1.05238 1.5
      vertex 5.93294 1.05238 7
    endloop
  endfacet
  facet normal 0.923955 -0.382501 0
    outer loop
      vertex 5.93294 1.05238 1.5
      vertex 5.44693 -0.121597 7
      vertex 5.44693 -0.121597 1.5
    endloop
  endfacet
  facet normal 0.912583 -0.408891 0
    outer loop
      vertex 5.93294 1.05238 7
      vertex 6.43167 2.16548 1.5
      vertex 6.43167 2.16548 7
    endloop
  endfacet
  facet normal 0.912583 -0.408891 0
    outer loop
      vertex 6.43167 2.16548 1.5
      vertex 5.93294 1.05238 7
      vertex 5.93294 1.05238 1.5
    endloop
  endfacet
  facet normal 0.899377 -0.437174 0
    outer loop
      vertex 6.43167 2.16548 7
      vertex 6.94313 3.21768 1.5
      vertex 6.94313 3.21768 7
    endloop
  endfacet
  facet normal 0.899377 -0.437174 0
    outer loop
      vertex 6.94313 3.21768 1.5
      vertex 6.43167 2.16548 7
      vertex 6.43167 2.16548 1.5
    endloop
  endfacet
  facet normal 0.884009 -0.46747 0
    outer loop
      vertex 6.94313 3.21768 7
      vertex 7.46735 4.209 1.5
      vertex 7.46735 4.209 7
    endloop
  endfacet
  facet normal 0.884009 -0.46747 0
    outer loop
      vertex 7.46735 4.209 1.5
      vertex 6.94313 3.21768 7
      vertex 6.94313 3.21768 1.5
    endloop
  endfacet
  facet normal 0.871336 -0.490687 0
    outer loop
      vertex 7.46735 4.209 7
      vertex 7.99597 5.14771 1.5
      vertex 7.99597 5.14771 7
    endloop
  endfacet
  facet normal 0.871336 -0.490687 0
    outer loop
      vertex 7.99597 5.14771 1.5
      vertex 7.46735 4.209 7
      vertex 7.46735 4.209 1.5
    endloop
  endfacet
  facet normal 0.862614 -0.505862 0
    outer loop
      vertex 7.99597 5.14771 7
      vertex 8.52016 6.04156 1.5
      vertex 8.52016 6.04156 7
    endloop
  endfacet
  facet normal 0.862614 -0.505862 0
    outer loop
      vertex 8.52016 6.04156 1.5
      vertex 7.99597 5.14771 7
      vertex 7.99597 5.14771 1.5
    endloop
  endfacet
  facet normal 0.852881 -0.522106 0
    outer loop
      vertex 8.52016 6.04156 7
      vertex 9.03989 6.89056 1.5
      vertex 9.03989 6.89056 7
    endloop
  endfacet
  facet normal 0.852881 -0.522106 0
    outer loop
      vertex 9.03989 6.89056 1.5
      vertex 8.52016 6.04156 7
      vertex 8.52016 6.04156 1.5
    endloop
  endfacet
  facet normal 0.841967 -0.53953 0
    outer loop
      vertex 9.03989 6.89056 7
      vertex 9.55518 7.6947 1.5
      vertex 9.55518 7.6947 7
    endloop
  endfacet
  facet normal 0.841967 -0.53953 0
    outer loop
      vertex 9.55518 7.6947 1.5
      vertex 9.03989 6.89056 7
      vertex 9.03989 6.89056 1.5
    endloop
  endfacet
  facet normal 0.829703 -0.558204 0
    outer loop
      vertex 9.55518 7.6947 7
      vertex 10.066 8.45399 1.5
      vertex 10.066 8.45399 7
    endloop
  endfacet
  facet normal 0.829703 -0.558204 0
    outer loop
      vertex 10.066 8.45399 1.5
      vertex 9.55518 7.6947 7
      vertex 9.55518 7.6947 1.5
    endloop
  endfacet
  facet normal 0.815843 -0.578274 0
    outer loop
      vertex 10.066 8.45399 7
      vertex 10.5724 9.16843 1.5
      vertex 10.5724 9.16843 7
    endloop
  endfacet
  facet normal 0.815843 -0.578274 0
    outer loop
      vertex 10.5724 9.16843 1.5
      vertex 10.066 8.45399 7
      vertex 10.066 8.45399 1.5
    endloop
  endfacet
  facet normal 0.800138 -0.599816 0
    outer loop
      vertex 10.5724 9.16843 7
      vertex 11.0743 9.838 1.5
      vertex 11.0743 9.838 7
    endloop
  endfacet
  facet normal 0.800138 -0.599816 0
    outer loop
      vertex 11.0743 9.838 1.5
      vertex 10.5724 9.16843 7
      vertex 10.5724 9.16843 1.5
    endloop
  endfacet
  facet normal 0.792425 -0.609969 0
    outer loop
      vertex 11.0743 9.838 7
      vertex 11.5663 10.4771 1.5
      vertex 11.5663 10.4771 7
    endloop
  endfacet
  facet normal 0.792425 -0.609969 0
    outer loop
      vertex 11.5663 10.4771 1.5
      vertex 11.0743 9.838 7
      vertex 11.0743 9.838 1.5
    endloop
  endfacet
  facet normal 0.794367 -0.607438 0
    outer loop
      vertex 11.5663 10.4771 7
      vertex 12.0428 11.1002 1.5
      vertex 12.0428 11.1002 7
    endloop
  endfacet
  facet normal 0.794367 -0.607438 0
    outer loop
      vertex 12.0428 11.1002 1.5
      vertex 11.5663 10.4771 7
      vertex 11.5663 10.4771 1.5
    endloop
  endfacet
  facet normal 0.796431 -0.60473 0
    outer loop
      vertex 12.0428 11.1002 7
      vertex 12.5037 11.7072 1.5
      vertex 12.5037 11.7072 7
    endloop
  endfacet
  facet normal 0.796431 -0.60473 0
    outer loop
      vertex 12.5037 11.7072 1.5
      vertex 12.0428 11.1002 7
      vertex 12.0428 11.1002 1.5
    endloop
  endfacet
  facet normal 0.798585 -0.601882 0
    outer loop
      vertex 12.5037 11.7072 7
      vertex 12.9491 12.2982 1.5
      vertex 12.9491 12.2982 7
    endloop
  endfacet
  facet normal 0.798585 -0.601882 0
    outer loop
      vertex 12.9491 12.2982 1.5
      vertex 12.5037 11.7072 7
      vertex 12.5037 11.7072 1.5
    endloop
  endfacet
  facet normal 0.800874 -0.598833 0
    outer loop
      vertex 12.9491 12.2982 7
      vertex 13.379 12.8732 1.5
      vertex 13.379 12.8732 7
    endloop
  endfacet
  facet normal 0.800874 -0.598833 0
    outer loop
      vertex 13.379 12.8732 1.5
      vertex 12.9491 12.2982 7
      vertex 12.9491 12.2982 1.5
    endloop
  endfacet
  facet normal 0.80328 -0.595601 0
    outer loop
      vertex 13.379 12.8732 7
      vertex 13.7934 13.4321 1.5
      vertex 13.7934 13.4321 7
    endloop
  endfacet
  facet normal 0.80328 -0.595601 0
    outer loop
      vertex 13.7934 13.4321 1.5
      vertex 13.379 12.8732 7
      vertex 13.379 12.8732 1.5
    endloop
  endfacet
  facet normal 0.805849 -0.592121 0
    outer loop
      vertex 13.7934 13.4321 7
      vertex 14.1923 13.975 1.5
      vertex 14.1923 13.975 7
    endloop
  endfacet
  facet normal 0.805849 -0.592121 0
    outer loop
      vertex 14.1923 13.975 1.5
      vertex 13.7934 13.4321 7
      vertex 13.7934 13.4321 1.5
    endloop
  endfacet
  facet normal 0.819767 -0.572697 0
    outer loop
      vertex 14.1923 13.975 7
      vertex 14.5555 14.4949 1.5
      vertex 14.5555 14.4949 7
    endloop
  endfacet
  facet normal 0.819767 -0.572697 0
    outer loop
      vertex 14.5555 14.4949 1.5
      vertex 14.1923 13.975 7
      vertex 14.1923 13.975 1.5
    endloop
  endfacet
  facet normal 0.847148 -0.531357 0
    outer loop
      vertex 14.5555 14.4949 7
      vertex 14.8629 14.9849 1.5
      vertex 14.8629 14.9849 7
    endloop
  endfacet
  facet normal 0.847148 -0.531357 0
    outer loop
      vertex 14.8629 14.9849 1.5
      vertex 14.5555 14.4949 7
      vertex 14.5555 14.4949 1.5
    endloop
  endfacet
  facet normal 0.877492 -0.479592 0
    outer loop
      vertex 14.8629 14.9849 7
      vertex 15.1143 15.4449 1.5
      vertex 15.1143 15.4449 7
    endloop
  endfacet
  facet normal 0.877492 -0.479592 0
    outer loop
      vertex 15.1143 15.4449 1.5
      vertex 14.8629 14.9849 7
      vertex 14.8629 14.9849 1.5
    endloop
  endfacet
  facet normal 0.910326 -0.413893 0
    outer loop
      vertex 15.1143 15.4449 7
      vertex 15.3099 15.8751 1.5
      vertex 15.3099 15.8751 7
    endloop
  endfacet
  facet normal 0.910326 -0.413893 0
    outer loop
      vertex 15.3099 15.8751 1.5
      vertex 15.1143 15.4449 7
      vertex 15.1143 15.4449 1.5
    endloop
  endfacet
  facet normal 0.94414 -0.329544 0
    outer loop
      vertex 15.3099 15.8751 7
      vertex 15.4496 16.2753 1.5
      vertex 15.4496 16.2753 7
    endloop
  endfacet
  facet normal 0.94414 -0.329544 0
    outer loop
      vertex 15.4496 16.2753 1.5
      vertex 15.3099 15.8751 7
      vertex 15.3099 15.8751 1.5
    endloop
  endfacet
  facet normal 0.975328 -0.220763 0
    outer loop
      vertex 15.4496 16.2753 7
      vertex 15.5334 16.6456 1.5
      vertex 15.5334 16.6456 7
    endloop
  endfacet
  facet normal 0.975328 -0.220763 0
    outer loop
      vertex 15.5334 16.6456 1.5
      vertex 15.4496 16.2753 7
      vertex 15.4496 16.2753 1.5
    endloop
  endfacet
  facet normal 0.996649 -0.0818031 0
    outer loop
      vertex 15.5334 16.6456 7
      vertex 15.5613 16.986 1.5
      vertex 15.5613 16.986 7
    endloop
  endfacet
  facet normal 0.996649 -0.0818031 0
    outer loop
      vertex 15.5613 16.986 1.5
      vertex 15.5334 16.6456 7
      vertex 15.5334 16.6456 1.5
    endloop
  endfacet
  facet normal 0.998925 0.0463511 0
    outer loop
      vertex 15.5613 16.986 7
      vertex 15.5375 17.499 1.5
      vertex 15.5375 17.499 7
    endloop
  endfacet
  facet normal 0.998925 0.0463511 0
    outer loop
      vertex 15.5375 17.499 1.5
      vertex 15.5613 16.986 7
      vertex 15.5613 16.986 1.5
    endloop
  endfacet
  facet normal 0.988656 0.150194 0
    outer loop
      vertex 15.5375 17.499 7
      vertex 15.4662 17.9689 1.5
      vertex 15.4662 17.9689 7
    endloop
  endfacet
  facet normal 0.988656 0.150194 0
    outer loop
      vertex 15.4662 17.9689 1.5
      vertex 15.5375 17.499 7
      vertex 15.5375 17.499 1.5
    endloop
  endfacet
  facet normal 0.96326 0.268569 0
    outer loop
      vertex 15.4662 17.9689 7
      vertex 15.3472 18.3956 1.5
      vertex 15.3472 18.3956 7
    endloop
  endfacet
  facet normal 0.96326 0.268569 0
    outer loop
      vertex 15.3472 18.3956 1.5
      vertex 15.4662 17.9689 7
      vertex 15.4662 17.9689 1.5
    endloop
  endfacet
  facet normal 0.917232 0.398354 0
    outer loop
      vertex 15.3472 18.3956 7
      vertex 15.1806 18.7791 1.5
      vertex 15.1806 18.7791 7
    endloop
  endfacet
  facet normal 0.917232 0.398354 0
    outer loop
      vertex 15.1806 18.7791 1.5
      vertex 15.3472 18.3956 7
      vertex 15.3472 18.3956 1.5
    endloop
  endfacet
  facet normal 0.846449 0.532469 0
    outer loop
      vertex 15.1806 18.7791 7
      vertex 14.9664 19.1196 1.5
      vertex 14.9664 19.1196 7
    endloop
  endfacet
  facet normal 0.846449 0.532469 0
    outer loop
      vertex 14.9664 19.1196 1.5
      vertex 15.1806 18.7791 7
      vertex 15.1806 18.7791 1.5
    endloop
  endfacet
  facet normal 0.750523 0.660844 0
    outer loop
      vertex 14.9664 19.1196 7
      vertex 14.7047 19.4169 1.5
      vertex 14.7047 19.4169 7
    endloop
  endfacet
  facet normal 0.750523 0.660844 0
    outer loop
      vertex 14.7047 19.4169 1.5
      vertex 14.9664 19.1196 7
      vertex 14.9664 19.1196 1.5
    endloop
  endfacet
  facet normal 0.634789 0.772686 -0
    outer loop
      vertex 14.7047 19.4169 1.5
      vertex 14.3953 19.671 7
      vertex 14.7047 19.4169 7
    endloop
  endfacet
  facet normal 0.634789 0.772686 0
    outer loop
      vertex 14.3953 19.671 7
      vertex 14.7047 19.4169 1.5
      vertex 14.3953 19.671 1.5
    endloop
  endfacet
  facet normal 0.511834 0.859084 -0
    outer loop
      vertex 14.3953 19.671 1.5
      vertex 14.0329 19.8869 7
      vertex 14.3953 19.671 7
    endloop
  endfacet
  facet normal 0.511834 0.859084 0
    outer loop
      vertex 14.0329 19.8869 7
      vertex 14.3953 19.671 1.5
      vertex 14.0329 19.8869 1.5
    endloop
  endfacet
  facet normal 0.398079 0.917351 -0
    outer loop
      vertex 14.0329 19.8869 1.5
      vertex 13.6118 20.0697 7
      vertex 14.0329 19.8869 7
    endloop
  endfacet
  facet normal 0.398079 0.917351 0
    outer loop
      vertex 13.6118 20.0697 7
      vertex 14.0329 19.8869 1.5
      vertex 13.6118 20.0697 1.5
    endloop
  endfacet
  facet normal 0.297502 0.954721 -0
    outer loop
      vertex 13.6118 20.0697 1.5
      vertex 13.132 20.2192 7
      vertex 13.6118 20.0697 7
    endloop
  endfacet
  facet normal 0.297502 0.954721 0
    outer loop
      vertex 13.132 20.2192 7
      vertex 13.6118 20.0697 1.5
      vertex 13.132 20.2192 1.5
    endloop
  endfacet
  facet normal 0.21111 0.977462 -0
    outer loop
      vertex 13.132 20.2192 1.5
      vertex 12.5936 20.3355 7
      vertex 13.132 20.2192 7
    endloop
  endfacet
  facet normal 0.21111 0.977462 0
    outer loop
      vertex 12.5936 20.3355 7
      vertex 13.132 20.2192 1.5
      vertex 12.5936 20.3355 1.5
    endloop
  endfacet
  facet normal 0.137795 0.990461 -0
    outer loop
      vertex 12.5936 20.3355 1.5
      vertex 11.9965 20.4185 7
      vertex 12.5936 20.3355 7
    endloop
  endfacet
  facet normal 0.137795 0.990461 0
    outer loop
      vertex 11.9965 20.4185 7
      vertex 12.5936 20.3355 1.5
      vertex 11.9965 20.4185 1.5
    endloop
  endfacet
  facet normal 0.0757809 0.997124 -0
    outer loop
      vertex 11.9965 20.4185 1.5
      vertex 11.3407 20.4684 7
      vertex 11.9965 20.4185 7
    endloop
  endfacet
  facet normal 0.0757809 0.997124 0
    outer loop
      vertex 11.3407 20.4684 7
      vertex 11.9965 20.4185 1.5
      vertex 11.3407 20.4684 1.5
    endloop
  endfacet
  facet normal 0.0232327 0.99973 -0
    outer loop
      vertex 11.3407 20.4684 1.5
      vertex 10.6263 20.485 7
      vertex 11.3407 20.4684 7
    endloop
  endfacet
  facet normal 0.0232327 0.99973 0
    outer loop
      vertex 10.6263 20.485 7
      vertex 11.3407 20.4684 1.5
      vertex 10.6263 20.485 1.5
    endloop
  endfacet
  facet normal 0 1 -0
    outer loop
      vertex 10.6263 20.485 1.5
      vertex -7.43065 20.485 7
      vertex 10.6263 20.485 7
    endloop
  endfacet
  facet normal 0 1 0
    outer loop
      vertex -7.43065 20.485 7
      vertex 10.6263 20.485 1.5
      vertex -7.43065 20.485 1.5
    endloop
  endfacet
  facet normal -0.0187408 0.999824 0
    outer loop
      vertex -7.43065 20.485 1.5
      vertex -8.02328 20.4739 7
      vertex -7.43065 20.485 7
    endloop
  endfacet
  facet normal -0.0187408 0.999824 0
    outer loop
      vertex -8.02328 20.4739 7
      vertex -7.43065 20.485 1.5
      vertex -8.02328 20.4739 1.5
    endloop
  endfacet
  facet normal -0.0601389 0.99819 0
    outer loop
      vertex -8.02328 20.4739 1.5
      vertex -8.57718 20.4405 7
      vertex -8.02328 20.4739 7
    endloop
  endfacet
  facet normal -0.0601389 0.99819 0
    outer loop
      vertex -8.57718 20.4405 7
      vertex -8.02328 20.4739 1.5
      vertex -8.57718 20.4405 1.5
    endloop
  endfacet
  facet normal -0.107338 0.994223 0
    outer loop
      vertex -8.57718 20.4405 1.5
      vertex -9.09235 20.3849 7
      vertex -8.57718 20.4405 7
    endloop
  endfacet
  facet normal -0.107338 0.994223 0
    outer loop
      vertex -9.09235 20.3849 7
      vertex -8.57718 20.4405 1.5
      vertex -9.09235 20.3849 1.5
    endloop
  endfacet
  facet normal -0.161266 0.986911 0
    outer loop
      vertex -9.09235 20.3849 1.5
      vertex -9.56877 20.307 7
      vertex -9.09235 20.3849 7
    endloop
  endfacet
  facet normal -0.161266 0.986911 0
    outer loop
      vertex -9.56877 20.307 7
      vertex -9.09235 20.3849 1.5
      vertex -9.56877 20.307 1.5
    endloop
  endfacet
  facet normal -0.222975 0.974824 0
    outer loop
      vertex -9.56877 20.307 1.5
      vertex -10.0065 20.2069 7
      vertex -9.56877 20.307 7
    endloop
  endfacet
  facet normal -0.222975 0.974824 0
    outer loop
      vertex -10.0065 20.2069 7
      vertex -9.56877 20.307 1.5
      vertex -10.0065 20.2069 1.5
    endloop
  endfacet
  facet normal -0.293176 0.956058 0
    outer loop
      vertex -10.0065 20.2069 1.5
      vertex -10.4054 20.0846 7
      vertex -10.0065 20.2069 7
    endloop
  endfacet
  facet normal -0.293176 0.956058 0
    outer loop
      vertex -10.4054 20.0846 7
      vertex -10.0065 20.2069 1.5
      vertex -10.4054 20.0846 1.5
    endloop
  endfacet
  facet normal -0.372516 0.928026 0
    outer loop
      vertex -10.4054 20.0846 1.5
      vertex -10.7656 19.94 7
      vertex -10.4054 20.0846 7
    endloop
  endfacet
  facet normal -0.372516 0.928026 0
    outer loop
      vertex -10.7656 19.94 7
      vertex -10.4054 20.0846 1.5
      vertex -10.7656 19.94 1.5
    endloop
  endfacet
  facet normal -0.499907 0.866079 0
    outer loop
      vertex -10.7656 19.94 1.5
      vertex -11.0822 19.7573 7
      vertex -10.7656 19.94 7
    endloop
  endfacet
  facet normal -0.499907 0.866079 0
    outer loop
      vertex -11.0822 19.7573 7
      vertex -10.7656 19.94 1.5
      vertex -11.0822 19.7573 1.5
    endloop
  endfacet
  facet normal -0.663034 0.748589 0
    outer loop
      vertex -11.0822 19.7573 1.5
      vertex -11.35 19.5201 7
      vertex -11.0822 19.7573 7
    endloop
  endfacet
  facet normal -0.663034 0.748589 0
    outer loop
      vertex -11.35 19.5201 7
      vertex -11.0822 19.7573 1.5
      vertex -11.35 19.5201 1.5
    endloop
  endfacet
  facet normal -0.799613 0.600515 0
    outer loop
      vertex -11.5691 19.2283 1.5
      vertex -11.35 19.5201 7
      vertex -11.35 19.5201 1.5
    endloop
  endfacet
  facet normal -0.799613 0.600515 0
    outer loop
      vertex -11.35 19.5201 7
      vertex -11.5691 19.2283 1.5
      vertex -11.5691 19.2283 7
    endloop
  endfacet
  facet normal -0.897224 0.441575 0
    outer loop
      vertex -11.7395 18.882 1.5
      vertex -11.5691 19.2283 7
      vertex -11.5691 19.2283 1.5
    endloop
  endfacet
  facet normal -0.897224 0.441575 0
    outer loop
      vertex -11.5691 19.2283 7
      vertex -11.7395 18.882 1.5
      vertex -11.7395 18.882 7
    endloop
  endfacet
  facet normal -0.956842 0.290608 0
    outer loop
      vertex -11.8613 18.4812 1.5
      vertex -11.7395 18.882 7
      vertex -11.7395 18.882 1.5
    endloop
  endfacet
  facet normal -0.956842 0.290608 0
    outer loop
      vertex -11.7395 18.882 7
      vertex -11.8613 18.4812 1.5
      vertex -11.8613 18.4812 7
    endloop
  endfacet
  facet normal -0.987377 0.158387 0
    outer loop
      vertex -11.9343 18.0259 1.5
      vertex -11.8613 18.4812 7
      vertex -11.8613 18.4812 1.5
    endloop
  endfacet
  facet normal -0.987377 0.158387 0
    outer loop
      vertex -11.8613 18.4812 7
      vertex -11.9343 18.0259 1.5
      vertex -11.9343 18.0259 7
    endloop
  endfacet
  facet normal -0.998861 0.0477086 0
    outer loop
      vertex -11.9586 17.516 1.5
      vertex -11.9343 18.0259 7
      vertex -11.9343 18.0259 1.5
    endloop
  endfacet
  facet normal -0.998861 0.0477086 0
    outer loop
      vertex -11.9343 18.0259 7
      vertex -11.9586 17.516 1.5
      vertex -11.9586 17.516 7
    endloop
  endfacet
  facet normal -0.998888 -0.0471454 0
    outer loop
      vertex -11.9357 17.0294 1.5
      vertex -11.9586 17.516 7
      vertex -11.9586 17.516 1.5
    endloop
  endfacet
  facet normal -0.998888 -0.0471454 0
    outer loop
      vertex -11.9586 17.516 7
      vertex -11.9357 17.0294 1.5
      vertex -11.9357 17.0294 7
    endloop
  endfacet
  facet normal -0.988397 -0.15189 0
    outer loop
      vertex -11.8668 16.5812 1.5
      vertex -11.9357 17.0294 7
      vertex -11.9357 17.0294 1.5
    endloop
  endfacet
  facet normal -0.988397 -0.15189 0
    outer loop
      vertex -11.9357 17.0294 7
      vertex -11.8668 16.5812 1.5
      vertex -11.8668 16.5812 7
    endloop
  endfacet
  facet normal -0.962951 -0.269675 0
    outer loop
      vertex -11.752 16.1713 1.5
      vertex -11.8668 16.5812 7
      vertex -11.8668 16.5812 1.5
    endloop
  endfacet
  facet normal -0.962951 -0.269675 0
    outer loop
      vertex -11.8668 16.5812 7
      vertex -11.752 16.1713 1.5
      vertex -11.752 16.1713 7
    endloop
  endfacet
  facet normal -0.917824 -0.396988 0
    outer loop
      vertex -11.5913 15.7997 1.5
      vertex -11.752 16.1713 7
      vertex -11.752 16.1713 1.5
    endloop
  endfacet
  facet normal -0.917824 -0.396988 0
    outer loop
      vertex -11.752 16.1713 7
      vertex -11.5913 15.7997 1.5
      vertex -11.5913 15.7997 7
    endloop
  endfacet
  facet normal -0.849871 -0.526991 0
    outer loop
      vertex -11.3847 15.4665 1.5
      vertex -11.5913 15.7997 7
      vertex -11.5913 15.7997 1.5
    endloop
  endfacet
  facet normal -0.849871 -0.526991 0
    outer loop
      vertex -11.5913 15.7997 7
      vertex -11.3847 15.4665 1.5
      vertex -11.3847 15.4665 7
    endloop
  endfacet
  facet normal -0.759564 -0.650432 0
    outer loop
      vertex -11.1321 15.1716 1.5
      vertex -11.3847 15.4665 7
      vertex -11.3847 15.4665 1.5
    endloop
  endfacet
  facet normal -0.759564 -0.650432 0
    outer loop
      vertex -11.3847 15.4665 7
      vertex -11.1321 15.1716 1.5
      vertex -11.1321 15.1716 7
    endloop
  endfacet
  facet normal -0.651914 -0.758293 0
    outer loop
      vertex -11.1321 15.1716 1.5
      vertex -10.8336 14.915 7
      vertex -11.1321 15.1716 7
    endloop
  endfacet
  facet normal -0.651914 -0.758293 -0
    outer loop
      vertex -10.8336 14.915 7
      vertex -11.1321 15.1716 1.5
      vertex -10.8336 14.915 1.5
    endloop
  endfacet
  facet normal -0.538045 -0.842916 0
    outer loop
      vertex -10.8336 14.915 1.5
      vertex -10.4887 14.6948 7
      vertex -10.8336 14.915 7
    endloop
  endfacet
  facet normal -0.538045 -0.842916 -0
    outer loop
      vertex -10.4887 14.6948 7
      vertex -10.8336 14.915 1.5
      vertex -10.4887 14.6948 1.5
    endloop
  endfacet
  facet normal -0.42928 -0.903172 0
    outer loop
      vertex -10.4887 14.6948 1.5
      vertex -10.0967 14.5085 7
      vertex -10.4887 14.6948 7
    endloop
  endfacet
  facet normal -0.42928 -0.903172 -0
    outer loop
      vertex -10.0967 14.5085 7
      vertex -10.4887 14.6948 1.5
      vertex -10.0967 14.5085 1.5
    endloop
  endfacet
  facet normal -0.327992 -0.94468 0
    outer loop
      vertex -10.0967 14.5085 1.5
      vertex -9.65758 14.356 7
      vertex -10.0967 14.5085 7
    endloop
  endfacet
  facet normal -0.327992 -0.94468 -0
    outer loop
      vertex -9.65758 14.356 7
      vertex -10.0967 14.5085 1.5
      vertex -9.65758 14.356 1.5
    endloop
  endfacet
  facet normal -0.236971 -0.971517 0
    outer loop
      vertex -9.65758 14.356 1.5
      vertex -9.17145 14.2374 7
      vertex -9.65758 14.356 7
    endloop
  endfacet
  facet normal -0.236971 -0.971517 -0
    outer loop
      vertex -9.17145 14.2374 7
      vertex -9.65758 14.356 1.5
      vertex -9.17145 14.2374 1.5
    endloop
  endfacet
  facet normal -0.156883 -0.987617 0
    outer loop
      vertex -9.17145 14.2374 1.5
      vertex -8.63823 14.1527 7
      vertex -9.17145 14.2374 7
    endloop
  endfacet
  facet normal -0.156883 -0.987617 -0
    outer loop
      vertex -8.63823 14.1527 7
      vertex -9.17145 14.2374 1.5
      vertex -8.63823 14.1527 1.5
    endloop
  endfacet
  facet normal -0.0872332 -0.996188 0
    outer loop
      vertex -8.63823 14.1527 1.5
      vertex -8.05797 14.1019 7
      vertex -8.63823 14.1527 7
    endloop
  endfacet
  facet normal -0.0872332 -0.996188 -0
    outer loop
      vertex -8.05797 14.1019 7
      vertex -8.63823 14.1527 1.5
      vertex -8.05797 14.1019 1.5
    endloop
  endfacet
  facet normal -0.0269896 -0.999636 0
    outer loop
      vertex -8.05797 14.1019 1.5
      vertex -7.43065 14.085 7
      vertex -8.05797 14.1019 7
    endloop
  endfacet
  facet normal -0.0269896 -0.999636 -0
    outer loop
      vertex -7.43065 14.085 7
      vertex -8.05797 14.1019 1.5
      vertex -7.43065 14.085 1.5
    endloop
  endfacet
  facet normal 0 -1 0
    outer loop
      vertex -7.43065 14.085 1.5
      vertex 7.07533 14.085 7
      vertex -7.43065 14.085 7
    endloop
  endfacet
  facet normal 0 -1 -0
    outer loop
      vertex 7.07533 14.085 7
      vertex -7.43065 14.085 1.5
      vertex 7.07533 14.085 1.5
    endloop
  endfacet
  facet normal -0.791672 0.610946 0
    outer loop
      vertex 6.11842 12.845 1.5
      vertex 7.07533 14.085 7
      vertex 7.07533 14.085 1.5
    endloop
  endfacet
  facet normal -0.791672 0.610946 0
    outer loop
      vertex 7.07533 14.085 7
      vertex 6.11842 12.845 1.5
      vertex 6.11842 12.845 7
    endloop
  endfacet
  facet normal -0.803861 0.594817 0
    outer loop
      vertex 5.19966 11.6034 1.5
      vertex 6.11842 12.845 7
      vertex 6.11842 12.845 1.5
    endloop
  endfacet
  facet normal -0.803861 0.594817 0
    outer loop
      vertex 6.11842 12.845 7
      vertex 5.19966 11.6034 1.5
      vertex 5.19966 11.6034 7
    endloop
  endfacet
  facet normal -0.816058 0.57797 0
    outer loop
      vertex 4.31908 10.36 1.5
      vertex 5.19966 11.6034 7
      vertex 5.19966 11.6034 1.5
    endloop
  endfacet
  facet normal -0.816058 0.57797 0
    outer loop
      vertex 5.19966 11.6034 7
      vertex 4.31908 10.36 1.5
      vertex 4.31908 10.36 7
    endloop
  endfacet
  facet normal -0.828211 0.560417 0
    outer loop
      vertex 3.47664 9.11504 1.5
      vertex 4.31908 10.36 7
      vertex 4.31908 10.36 1.5
    endloop
  endfacet
  facet normal -0.828211 0.560417 0
    outer loop
      vertex 4.31908 10.36 7
      vertex 3.47664 9.11504 1.5
      vertex 3.47664 9.11504 7
    endloop
  endfacet
  facet normal -0.840311 0.542105 0
    outer loop
      vertex 2.67238 7.86836 1.5
      vertex 3.47664 9.11504 7
      vertex 3.47664 9.11504 1.5
    endloop
  endfacet
  facet normal -0.840311 0.542105 0
    outer loop
      vertex 3.47664 9.11504 7
      vertex 2.67238 7.86836 1.5
      vertex 2.67238 7.86836 7
    endloop
  endfacet
  facet normal -0.852303 0.523048 0
    outer loop
      vertex 1.90628 6.62001 1.5
      vertex 2.67238 7.86836 7
      vertex 2.67238 7.86836 1.5
    endloop
  endfacet
  facet normal -0.852303 0.523048 0
    outer loop
      vertex 2.67238 7.86836 7
      vertex 1.90628 6.62001 1.5
      vertex 1.90628 6.62001 7
    endloop
  endfacet
  facet normal -0.864152 0.503231 0
    outer loop
      vertex 1.17834 5.37 1.5
      vertex 1.90628 6.62001 7
      vertex 1.90628 6.62001 1.5
    endloop
  endfacet
  facet normal -0.864152 0.503231 0
    outer loop
      vertex 1.90628 6.62001 7
      vertex 1.17834 5.37 1.5
      vertex 1.17834 5.37 7
    endloop
  endfacet
  facet normal -0.874256 0.485466 0
    outer loop
      vertex 0.486359 4.12383 1.5
      vertex 1.17834 5.37 7
      vertex 1.17834 5.37 1.5
    endloop
  endfacet
  facet normal -0.874256 0.485466 0
    outer loop
      vertex 1.17834 5.37 7
      vertex 0.486359 4.12383 1.5
      vertex 0.486359 4.12383 7
    endloop
  endfacet
  facet normal -0.882861 0.469634 0
    outer loop
      vertex -0.171844 2.88647 1.5
      vertex 0.486359 4.12383 7
      vertex 0.486359 4.12383 1.5
    endloop
  endfacet
  facet normal -0.882861 0.469634 0
    outer loop
      vertex 0.486359 4.12383 7
      vertex -0.171844 2.88647 1.5
      vertex -0.171844 2.88647 7
    endloop
  endfacet
  facet normal -0.89144 0.453138 0
    outer loop
      vertex -0.796326 1.65796 1.5
      vertex -0.171844 2.88647 7
      vertex -0.171844 2.88647 1.5
    endloop
  endfacet
  facet normal -0.89144 0.453138 0
    outer loop
      vertex -0.171844 2.88647 7
      vertex -0.796326 1.65796 1.5
      vertex -0.796326 1.65796 7
    endloop
  endfacet
  facet normal -0.900008 0.435874 0
    outer loop
      vertex -1.38704 0.438232 1.5
      vertex -0.796326 1.65796 7
      vertex -0.796326 1.65796 1.5
    endloop
  endfacet
  facet normal -0.900008 0.435874 0
    outer loop
      vertex -0.796326 1.65796 7
      vertex -1.38704 0.438232 1.5
      vertex -1.38704 0.438232 7
    endloop
  endfacet
  facet normal -0.908507 0.41787 0
    outer loop
      vertex -1.94398 -0.772644 1.5
      vertex -1.38704 0.438232 7
      vertex -1.38704 0.438232 1.5
    endloop
  endfacet
  facet normal -0.908507 0.41787 0
    outer loop
      vertex -1.38704 0.438232 7
      vertex -1.94398 -0.772644 1.5
      vertex -1.94398 -0.772644 7
    endloop
  endfacet
  facet normal -0.916913 0.399087 0
    outer loop
      vertex -2.46719 -1.97473 1.5
      vertex -1.94398 -0.772644 7
      vertex -1.94398 -0.772644 1.5
    endloop
  endfacet
  facet normal -0.916913 0.399087 0
    outer loop
      vertex -1.94398 -0.772644 7
      vertex -2.46719 -1.97473 1.5
      vertex -2.46719 -1.97473 7
    endloop
  endfacet
  facet normal -0.925193 0.379497 0
    outer loop
      vertex -2.95665 -3.168 1.5
      vertex -2.46719 -1.97473 7
      vertex -2.46719 -1.97473 1.5
    endloop
  endfacet
  facet normal -0.925193 0.379497 0
    outer loop
      vertex -2.46719 -1.97473 7
      vertex -2.95665 -3.168 1.5
      vertex -2.95665 -3.168 7
    endloop
  endfacet
  facet normal -0.931766 0.363059 0
    outer loop
      vertex -3.4104 -4.33252 1.5
      vertex -2.95665 -3.168 7
      vertex -2.95665 -3.168 1.5
    endloop
  endfacet
  facet normal -0.931766 0.363059 0
    outer loop
      vertex -2.95665 -3.168 7
      vertex -3.4104 -4.33252 1.5
      vertex -3.4104 -4.33252 7
    endloop
  endfacet
  facet normal -0.93703 0.349248 0
    outer loop
      vertex -3.82652 -5.44897 1.5
      vertex -3.4104 -4.33252 7
      vertex -3.4104 -4.33252 1.5
    endloop
  endfacet
  facet normal -0.93703 0.349248 0
    outer loop
      vertex -3.4104 -4.33252 7
      vertex -3.82652 -5.44897 1.5
      vertex -3.82652 -5.44897 7
    endloop
  endfacet
  facet normal -0.942595 0.333939 0
    outer loop
      vertex -4.20502 -6.51733 1.5
      vertex -3.82652 -5.44897 7
      vertex -3.82652 -5.44897 1.5
    endloop
  endfacet
  facet normal -0.942595 0.333939 0
    outer loop
      vertex -3.82652 -5.44897 7
      vertex -4.20502 -6.51733 1.5
      vertex -4.20502 -6.51733 7
    endloop
  endfacet
  facet normal -0.948473 0.316857 0
    outer loop
      vertex -4.54587 -7.53763 1.5
      vertex -4.20502 -6.51733 7
      vertex -4.20502 -6.51733 1.5
    endloop
  endfacet
  facet normal -0.948473 0.316857 0
    outer loop
      vertex -4.20502 -6.51733 7
      vertex -4.54587 -7.53763 1.5
      vertex -4.54587 -7.53763 7
    endloop
  endfacet
  facet normal -0.954645 0.297748 0
    outer loop
      vertex -4.84909 -8.50983 1.5
      vertex -4.54587 -7.53763 7
      vertex -4.54587 -7.53763 1.5
    endloop
  endfacet
  facet normal -0.954645 0.297748 0
    outer loop
      vertex -4.54587 -7.53763 7
      vertex -4.84909 -8.50983 1.5
      vertex -4.84909 -8.50983 7
    endloop
  endfacet
  facet normal -0.961094 0.276221 0
    outer loop
      vertex -5.11469 -9.43394 1.5
      vertex -4.84909 -8.50983 7
      vertex -4.84909 -8.50983 1.5
    endloop
  endfacet
  facet normal -0.961094 0.276221 0
    outer loop
      vertex -4.84909 -8.50983 7
      vertex -5.11469 -9.43394 1.5
      vertex -5.11469 -9.43394 7
    endloop
  endfacet
  facet normal -0.967771 0.251833 0
    outer loop
      vertex -5.34265 -10.31 1.5
      vertex -5.11469 -9.43394 7
      vertex -5.11469 -9.43394 1.5
    endloop
  endfacet
  facet normal -0.967771 0.251833 0
    outer loop
      vertex -5.11469 -9.43394 7
      vertex -5.34265 -10.31 1.5
      vertex -5.34265 -10.31 7
    endloop
  endfacet
  facet normal -0.973474 0.228798 0
    outer loop
      vertex -5.53685 -11.1363 1.5
      vertex -5.34265 -10.31 7
      vertex -5.34265 -10.31 1.5
    endloop
  endfacet
  facet normal -0.973474 0.228798 0
    outer loop
      vertex -5.34265 -10.31 7
      vertex -5.53685 -11.1363 1.5
      vertex -5.53685 -11.1363 7
    endloop
  endfacet
  facet normal -0.978272 0.207325 0
    outer loop
      vertex -5.70117 -11.9116 1.5
      vertex -5.53685 -11.1363 7
      vertex -5.53685 -11.1363 1.5
    endloop
  endfacet
  facet normal -0.978272 0.207325 0
    outer loop
      vertex -5.53685 -11.1363 7
      vertex -5.70117 -11.9116 1.5
      vertex -5.70117 -11.9116 7
    endloop
  endfacet
  facet normal -0.983213 0.182462 0
    outer loop
      vertex -5.83562 -12.6361 1.5
      vertex -5.70117 -11.9116 7
      vertex -5.70117 -11.9116 1.5
    endloop
  endfacet
  facet normal -0.983213 0.182462 0
    outer loop
      vertex -5.70117 -11.9116 7
      vertex -5.83562 -12.6361 1.5
      vertex -5.83562 -12.6361 7
    endloop
  endfacet
  facet normal -0.98816 0.15343 0
    outer loop
      vertex -5.9402 -13.3097 1.5
      vertex -5.83562 -12.6361 7
      vertex -5.83562 -12.6361 1.5
    endloop
  endfacet
  facet normal -0.98816 0.15343 0
    outer loop
      vertex -5.83562 -12.6361 7
      vertex -5.9402 -13.3097 1.5
      vertex -5.9402 -13.3097 7
    endloop
  endfacet
  facet normal -0.992882 0.119098 0
    outer loop
      vertex -6.01489 -13.9323 1.5
      vertex -5.9402 -13.3097 7
      vertex -5.9402 -13.3097 1.5
    endloop
  endfacet
  facet normal -0.992882 0.119098 0
    outer loop
      vertex -5.9402 -13.3097 7
      vertex -6.01489 -13.9323 1.5
      vertex -6.01489 -13.9323 7
    endloop
  endfacet
  facet normal -0.996942 0.0781389 0
    outer loop
      vertex -6.05971 -14.5041 1.5
      vertex -6.01489 -13.9323 7
      vertex -6.01489 -13.9323 1.5
    endloop
  endfacet
  facet normal -0.996942 0.0781389 0
    outer loop
      vertex -6.01489 -13.9323 7
      vertex -6.05971 -14.5041 1.5
      vertex -6.05971 -14.5041 7
    endloop
  endfacet
  facet normal -0.999589 0.0286676 0
    outer loop
      vertex -6.07465 -15.025 1.5
      vertex -6.05971 -14.5041 7
      vertex -6.05971 -14.5041 1.5
    endloop
  endfacet
  facet normal -0.999589 0.0286676 0
    outer loop
      vertex -6.05971 -14.5041 7
      vertex -6.07465 -15.025 1.5
      vertex -6.07465 -15.025 7
    endloop
  endfacet
  facet normal -0.999456 -0.0329858 0
    outer loop
      vertex -6.05417 -15.6454 1.5
      vertex -6.07465 -15.025 7
      vertex -6.07465 -15.025 1.5
    endloop
  endfacet
  facet normal -0.999456 -0.0329858 0
    outer loop
      vertex -6.07465 -15.025 7
      vertex -6.05417 -15.6454 1.5
      vertex -6.05417 -15.6454 7
    endloop
  endfacet
  facet normal -0.994359 -0.106068 0
    outer loop
      vertex -5.99277 -16.2211 1.5
      vertex -6.05417 -15.6454 7
      vertex -6.05417 -15.6454 1.5
    endloop
  endfacet
  facet normal -0.994359 -0.106068 0
    outer loop
      vertex -6.05417 -15.6454 7
      vertex -5.99277 -16.2211 1.5
      vertex -5.99277 -16.2211 7
    endloop
  endfacet
  facet normal -0.981917 -0.18931 0
    outer loop
      vertex -5.89043 -16.7519 1.5
      vertex -5.99277 -16.2211 7
      vertex -5.99277 -16.2211 1.5
    endloop
  endfacet
  facet normal -0.981917 -0.18931 0
    outer loop
      vertex -5.99277 -16.2211 7
      vertex -5.89043 -16.7519 1.5
      vertex -5.89043 -16.7519 7
    endloop
  endfacet
  facet normal -0.959175 -0.282814 0
    outer loop
      vertex -5.74713 -17.2379 1.5
      vertex -5.89043 -16.7519 7
      vertex -5.89043 -16.7519 1.5
    endloop
  endfacet
  facet normal -0.959175 -0.282814 0
    outer loop
      vertex -5.89043 -16.7519 7
      vertex -5.74713 -17.2379 1.5
      vertex -5.74713 -17.2379 7
    endloop
  endfacet
  facet normal -0.922788 -0.385309 0
    outer loop
      vertex -5.56291 -17.6791 1.5
      vertex -5.74713 -17.2379 7
      vertex -5.74713 -17.2379 1.5
    endloop
  endfacet
  facet normal -0.922788 -0.385309 0
    outer loop
      vertex -5.74713 -17.2379 7
      vertex -5.56291 -17.6791 1.5
      vertex -5.56291 -17.6791 7
    endloop
  endfacet
  facet normal -0.869501 -0.493931 0
    outer loop
      vertex -5.33775 -18.0754 1.5
      vertex -5.56291 -17.6791 7
      vertex -5.56291 -17.6791 1.5
    endloop
  endfacet
  facet normal -0.869501 -0.493931 0
    outer loop
      vertex -5.56291 -17.6791 7
      vertex -5.33775 -18.0754 1.5
      vertex -5.33775 -18.0754 7
    endloop
  endfacet
  facet normal -0.797322 -0.603554 0
    outer loop
      vertex -5.07164 -18.427 1.5
      vertex -5.33775 -18.0754 7
      vertex -5.33775 -18.0754 1.5
    endloop
  endfacet
  facet normal -0.797322 -0.603554 0
    outer loop
      vertex -5.33775 -18.0754 7
      vertex -5.07164 -18.427 1.5
      vertex -5.07164 -18.427 7
    endloop
  endfacet
  facet normal -0.713828 -0.700321 0
    outer loop
      vertex -4.77179 -18.7326 1.5
      vertex -5.07164 -18.427 7
      vertex -5.07164 -18.427 1.5
    endloop
  endfacet
  facet normal -0.713828 -0.700321 0
    outer loop
      vertex -5.07164 -18.427 7
      vertex -4.77179 -18.7326 1.5
      vertex -4.77179 -18.7326 7
    endloop
  endfacet
  facet normal -0.620993 -0.783816 0
    outer loop
      vertex -4.77179 -18.7326 1.5
      vertex -4.44536 -18.9912 7
      vertex -4.77179 -18.7326 7
    endloop
  endfacet
  facet normal -0.620993 -0.783816 -0
    outer loop
      vertex -4.44536 -18.9912 7
      vertex -4.77179 -18.7326 1.5
      vertex -4.44536 -18.9912 1.5
    endloop
  endfacet
  facet normal -0.51413 -0.857712 0
    outer loop
      vertex -4.44536 -18.9912 1.5
      vertex -4.09236 -19.2028 7
      vertex -4.44536 -18.9912 7
    endloop
  endfacet
  facet normal -0.51413 -0.857712 -0
    outer loop
      vertex -4.09236 -19.2028 7
      vertex -4.44536 -18.9912 1.5
      vertex -4.09236 -19.2028 1.5
    endloop
  endfacet
  facet normal -0.397775 -0.917483 0
    outer loop
      vertex -4.09236 -19.2028 1.5
      vertex -3.71278 -19.3674 7
      vertex -4.09236 -19.2028 7
    endloop
  endfacet
  facet normal -0.397775 -0.917483 -0
    outer loop
      vertex -3.71278 -19.3674 7
      vertex -4.09236 -19.2028 1.5
      vertex -3.71278 -19.3674 1.5
    endloop
  endfacet
  facet normal -0.278027 -0.960573 0
    outer loop
      vertex -3.71278 -19.3674 1.5
      vertex -3.30664 -19.485 7
      vertex -3.71278 -19.3674 7
    endloop
  endfacet
  facet normal -0.278027 -0.960573 -0
    outer loop
      vertex -3.30664 -19.485 7
      vertex -3.71278 -19.3674 1.5
      vertex -3.30664 -19.485 1.5
    endloop
  endfacet
  facet normal -0.160865 -0.986976 0
    outer loop
      vertex -3.30664 -19.485 1.5
      vertex -2.87393 -19.5555 7
      vertex -3.30664 -19.485 7
    endloop
  endfacet
  facet normal -0.160865 -0.986976 -0
    outer loop
      vertex -2.87393 -19.5555 7
      vertex -3.30664 -19.485 1.5
      vertex -2.87393 -19.5555 1.5
    endloop
  endfacet
  facet normal -0.0511291 -0.998692 0
    outer loop
      vertex -2.87393 -19.5555 1.5
      vertex -2.41464 -19.579 7
      vertex -2.87393 -19.5555 7
    endloop
  endfacet
  facet normal -0.0511291 -0.998692 -0
    outer loop
      vertex -2.41464 -19.579 7
      vertex -2.87393 -19.5555 1.5
      vertex -2.41464 -19.579 1.5
    endloop
  endfacet
  facet normal 0.0453545 -0.998971 0
    outer loop
      vertex -2.41464 -19.579 1.5
      vertex -1.93303 -19.5571 7
      vertex -2.41464 -19.579 7
    endloop
  endfacet
  facet normal 0.0453545 -0.998971 0
    outer loop
      vertex -1.93303 -19.5571 7
      vertex -2.41464 -19.579 1.5
      vertex -1.93303 -19.5571 1.5
    endloop
  endfacet
endsolid OpenSCAD_Model
