solid OpenSCAD_Model
  facet normal -1 0 0
    outer loop
      vertex -22.5 -22.5 0.5
      vertex -22.5 22.5 1.5
      vertex -22.5 22.5 0.5
    endloop
  endfacet
  facet normal -1 -0 0
    outer loop
      vertex -22.5 22.5 1.5
      vertex -22.5 -22.5 0.5
      vertex -22.5 -22.5 1.5
    endloop
  endfacet
  facet normal 0 0 1
    outer loop
      vertex -22.5 -22.5 1.5
      vertex -3.76912 -2.57425 1.5
      vertex -13.4801 12.4907 1.5
    endloop
  endfacet
  facet normal 0 0 1
    outer loop
      vertex 16.5174 17.4544 1.5
      vertex 22.5 22.5 1.5
      vertex 16.5279 17.7567 1.5
    endloop
  endfacet
  facet normal 0 0 1
    outer loop
      vertex 22.5 22.5 1.5
      vertex 16.5071 18.1227 1.5
      vertex 16.5279 17.7567 1.5
    endloop
  endfacet
  facet normal 0 0 1
    outer loop
      vertex 22.5 22.5 1.5
      vertex 16.4448 18.4758 1.5
      vertex 16.5071 18.1227 1.5
    endloop
  endfacet
  facet normal 0 0 1
    outer loop
      vertex 22.5 22.5 1.5
      vertex 16.3411 18.8163 1.5
      vertex 16.4448 18.4758 1.5
    endloop
  endfacet
  facet normal 0 0 1
    outer loop
      vertex 22.5 22.5 1.5
      vertex 16.1958 19.144 1.5
      vertex 16.3411 18.8163 1.5
    endloop
  endfacet
  facet normal 0 0 1
    outer loop
      vertex 22.5 22.5 1.5
      vertex 16.009 19.459 1.5
      vertex 16.1958 19.144 1.5
    endloop
  endfacet
  facet normal 0 0 1
    outer loop
      vertex 22.5 22.5 1.5
      vertex 15.7807 19.7612 1.5
      vertex 16.009 19.459 1.5
    endloop
  endfacet
  facet normal 0 0 1
    outer loop
      vertex 22.5 22.5 1.5
      vertex 15.5109 20.0507 1.5
      vertex 15.7807 19.7612 1.5
    endloop
  endfacet
  facet normal 0 0 1
    outer loop
      vertex 22.5 22.5 1.5
      vertex 15.2101 20.3137 1.5
      vertex 15.5109 20.0507 1.5
    endloop
  endfacet
  facet normal 0 0 1
    outer loop
      vertex 22.5 22.5 1.5
      vertex 14.8887 20.5361 1.5
      vertex 15.2101 20.3137 1.5
    endloop
  endfacet
  facet normal 0 0 1
    outer loop
      vertex 22.5 22.5 1.5
      vertex 14.547 20.7182 1.5
      vertex 14.8887 20.5361 1.5
    endloop
  endfacet
  facet normal 0 0 1
    outer loop
      vertex 22.5 22.5 1.5
      vertex 14.1847 20.8597 1.5
      vertex 14.547 20.7182 1.5
    endloop
  endfacet
  facet normal 0 0 1
    outer loop
      vertex 22.5 22.5 1.5
      vertex 13.8019 20.9608 1.5
      vertex 14.1847 20.8597 1.5
    endloop
  endfacet
  facet normal 0 0 1
    outer loop
      vertex 22.5 22.5 1.5
      vertex 13.3986 21.0215 1.5
      vertex 13.8019 20.9608 1.5
    endloop
  endfacet
  facet normal 0 0 1
    outer loop
      vertex 22.5 22.5 1.5
      vertex 12.9749 21.0417 1.5
      vertex 13.3986 21.0215 1.5
    endloop
  endfacet
  facet normal 0 0 1
    outer loop
      vertex 22.5 22.5 1.5
      vertex 12.7021 21.0345 1.5
      vertex 12.9749 21.0417 1.5
    endloop
  endfacet
  facet normal 0 0 1
    outer loop
      vertex 22.5 22.5 1.5
      vertex 12.4414 21.0128 1.5
      vertex 12.7021 21.0345 1.5
    endloop
  endfacet
  facet normal -0 0 1
    outer loop
      vertex -11.6399 21.0226 1.5
      vertex 12.4414 21.0128 1.5
      vertex 22.5 22.5 1.5
    endloop
  endfacet
  facet normal -0 0 1
    outer loop
      vertex -7.49498 17.1295 1.5
      vertex 7.92987 16.3677 1.5
      vertex 9.06886 18.2427 1.5
    endloop
  endfacet
  facet normal 0 0 1
    outer loop
      vertex 7.92987 16.3677 1.5
      vertex -7.02412 16.3677 1.5
      vertex 0.411865 4.27374 1.5
    endloop
  endfacet
  facet normal 0 0 1
    outer loop
      vertex -7.93097 17.8152 1.5
      vertex 9.06886 18.2427 1.5
      vertex 9.20251 18.4582 1.5
    endloop
  endfacet
  facet normal 0 0 1
    outer loop
      vertex -8.33212 18.4249 1.5
      vertex 9.20251 18.4582 1.5
      vertex 9.34006 18.6698 1.5
    endloop
  endfacet
  facet normal 0 0 1
    outer loop
      vertex -8.33212 18.4249 1.5
      vertex 9.34006 18.6698 1.5
      vertex 9.48146 18.8774 1.5
    endloop
  endfacet
  facet normal -0 0 1
    outer loop
      vertex -8.69841 18.9586 1.5
      vertex 9.48146 18.8774 1.5
      vertex 9.62674 19.0811 1.5
    endloop
  endfacet
  facet normal 0 0 1
    outer loop
      vertex -9.02983 19.4163 1.5
      vertex 9.62674 19.0811 1.5
      vertex 9.77591 19.2809 1.5
    endloop
  endfacet
  facet normal -0 0 1
    outer loop
      vertex -9.02983 19.4163 1.5
      vertex 9.77591 19.2809 1.5
      vertex 9.92896 19.4768 1.5
    endloop
  endfacet
  facet normal 0 0 1
    outer loop
      vertex -9.3264 19.798 1.5
      vertex 9.92896 19.4768 1.5
      vertex 10.0859 19.6687 1.5
    endloop
  endfacet
  facet normal -0 0 1
    outer loop
      vertex -9.3264 19.798 1.5
      vertex 10.0859 19.6687 1.5
      vertex 10.2472 19.8526 1.5
    endloop
  endfacet
  facet normal 0 0 1
    outer loop
      vertex -9.58812 20.1037 1.5
      vertex 10.2472 19.8526 1.5
      vertex 10.4135 20.0238 1.5
    endloop
  endfacet
  facet normal -0 0 1
    outer loop
      vertex -9.58812 20.1037 1.5
      vertex 10.4135 20.0238 1.5
      vertex 10.5849 20.1821 1.5
    endloop
  endfacet
  facet normal 0 0 1
    outer loop
      vertex -9.84845 20.3526 1.5
      vertex 10.5849 20.1821 1.5
      vertex 10.7611 20.3277 1.5
    endloop
  endfacet
  facet normal -0 0 1
    outer loop
      vertex -9.84845 20.3526 1.5
      vertex 10.7611 20.3277 1.5
      vertex 10.9424 20.4605 1.5
    endloop
  endfacet
  facet normal -0 0 1
    outer loop
      vertex -10.1414 20.5632 1.5
      vertex 10.9424 20.4605 1.5
      vertex 11.1286 20.5805 1.5
    endloop
  endfacet
  facet normal 0 0 1
    outer loop
      vertex -10.1414 20.5632 1.5
      vertex 11.1286 20.5805 1.5
      vertex 11.3199 20.6877 1.5
    endloop
  endfacet
  facet normal -0 0 1
    outer loop
      vertex -10.4671 20.7355 1.5
      vertex 11.3199 20.6877 1.5
      vertex 11.5199 20.7817 1.5
    endloop
  endfacet
  facet normal 0 0 1
    outer loop
      vertex -10.4671 20.7355 1.5
      vertex 11.5199 20.7817 1.5
      vertex 11.7321 20.8611 1.5
    endloop
  endfacet
  facet normal -0 0 1
    outer loop
      vertex -10.8253 20.8695 1.5
      vertex 11.7321 20.8611 1.5
      vertex 11.9564 20.9261 1.5
    endloop
  endfacet
  facet normal 0 0 1
    outer loop
      vertex 7.92987 16.3677 1.5
      vertex -7.49498 17.1295 1.5
      vertex -7.02412 16.3677 1.5
    endloop
  endfacet
  facet normal -0 0 1
    outer loop
      vertex -11.2163 20.9652 1.5
      vertex 11.9564 20.9261 1.5
      vertex 12.1928 20.9767 1.5
    endloop
  endfacet
  facet normal 0 0 1
    outer loop
      vertex 9.06886 18.2427 1.5
      vertex -7.93097 17.8152 1.5
      vertex -7.49498 17.1295 1.5
    endloop
  endfacet
  facet normal 0 0 1
    outer loop
      vertex 9.20251 18.4582 1.5
      vertex -8.33212 18.4249 1.5
      vertex -7.93097 17.8152 1.5
    endloop
  endfacet
  facet normal 0 0 1
    outer loop
      vertex 12.4414 21.0128 1.5
      vertex -11.6399 21.0226 1.5
      vertex 12.1928 20.9767 1.5
    endloop
  endfacet
  facet normal 0 0 1
    outer loop
      vertex 9.48146 18.8774 1.5
      vertex -8.69841 18.9586 1.5
      vertex -8.33212 18.4249 1.5
    endloop
  endfacet
  facet normal 0 0 1
    outer loop
      vertex 9.62674 19.0811 1.5
      vertex -9.02983 19.4163 1.5
      vertex -8.69841 18.9586 1.5
    endloop
  endfacet
  facet normal 0 0 1
    outer loop
      vertex 9.92896 19.4768 1.5
      vertex -9.3264 19.798 1.5
      vertex -9.02983 19.4163 1.5
    endloop
  endfacet
  facet normal 0 0 1
    outer loop
      vertex 10.2472 19.8526 1.5
      vertex -9.58812 20.1037 1.5
      vertex -9.3264 19.798 1.5
    endloop
  endfacet
  facet normal 0 0 1
    outer loop
      vertex 10.5849 20.1821 1.5
      vertex -9.84845 20.3526 1.5
      vertex -9.58812 20.1037 1.5
    endloop
  endfacet
  facet normal 0 0 1
    outer loop
      vertex 10.9424 20.4605 1.5
      vertex -10.1414 20.5632 1.5
      vertex -9.84845 20.3526 1.5
    endloop
  endfacet
  facet normal 0 0 1
    outer loop
      vertex 11.3199 20.6877 1.5
      vertex -10.4671 20.7355 1.5
      vertex -10.1414 20.5632 1.5
    endloop
  endfacet
  facet normal 0 0 1
    outer loop
      vertex 11.7321 20.8611 1.5
      vertex -10.8253 20.8695 1.5
      vertex -10.4671 20.7355 1.5
    endloop
  endfacet
  facet normal 0 0 1
    outer loop
      vertex 11.9564 20.9261 1.5
      vertex -11.2163 20.9652 1.5
      vertex -10.8253 20.8695 1.5
    endloop
  endfacet
  facet normal 0 0 1
    outer loop
      vertex 12.1928 20.9767 1.5
      vertex -11.6399 21.0226 1.5
      vertex -11.2163 20.9652 1.5
    endloop
  endfacet
  facet normal -0 0 1
    outer loop
      vertex -22.5 22.5 1.5
      vertex -11.6399 21.0226 1.5
      vertex 22.5 22.5 1.5
    endloop
  endfacet
  facet normal 0 0 1
    outer loop
      vertex -15.7913 18.0364 1.5
      vertex -22.5 22.5 1.5
      vertex -15.8131 17.6487 1.5
    endloop
  endfacet
  facet normal 0 0 1
    outer loop
      vertex -15.7257 18.4086 1.5
      vertex -22.5 22.5 1.5
      vertex -15.7913 18.0364 1.5
    endloop
  endfacet
  facet normal 0 0 1
    outer loop
      vertex -15.6164 18.7652 1.5
      vertex -22.5 22.5 1.5
      vertex -15.7257 18.4086 1.5
    endloop
  endfacet
  facet normal 0 0 1
    outer loop
      vertex -15.4634 19.1064 1.5
      vertex -22.5 22.5 1.5
      vertex -15.6164 18.7652 1.5
    endloop
  endfacet
  facet normal 0 0 1
    outer loop
      vertex -15.2667 19.432 1.5
      vertex -22.5 22.5 1.5
      vertex -15.4634 19.1064 1.5
    endloop
  endfacet
  facet normal 0 0 1
    outer loop
      vertex -15.0263 19.7421 1.5
      vertex -22.5 22.5 1.5
      vertex -15.2667 19.432 1.5
    endloop
  endfacet
  facet normal 0 0 1
    outer loop
      vertex -14.7421 20.0367 1.5
      vertex -22.5 22.5 1.5
      vertex -15.0263 19.7421 1.5
    endloop
  endfacet
  facet normal 0 0 1
    outer loop
      vertex -14.4256 20.3034 1.5
      vertex -22.5 22.5 1.5
      vertex -14.7421 20.0367 1.5
    endloop
  endfacet
  facet normal 0 0 1
    outer loop
      vertex -14.0886 20.529 1.5
      vertex -22.5 22.5 1.5
      vertex -14.4256 20.3034 1.5
    endloop
  endfacet
  facet normal 0 0 1
    outer loop
      vertex -13.731 20.7136 1.5
      vertex -22.5 22.5 1.5
      vertex -14.0886 20.529 1.5
    endloop
  endfacet
  facet normal 0 0 1
    outer loop
      vertex -13.3531 20.8571 1.5
      vertex -22.5 22.5 1.5
      vertex -13.731 20.7136 1.5
    endloop
  endfacet
  facet normal 0 0 1
    outer loop
      vertex -12.9546 20.9597 1.5
      vertex -22.5 22.5 1.5
      vertex -13.3531 20.8571 1.5
    endloop
  endfacet
  facet normal 0 0 1
    outer loop
      vertex -12.5356 21.0212 1.5
      vertex -22.5 22.5 1.5
      vertex -12.9546 20.9597 1.5
    endloop
  endfacet
  facet normal 0 0 1
    outer loop
      vertex -12.0961 21.0417 1.5
      vertex -22.5 22.5 1.5
      vertex -12.5356 21.0212 1.5
    endloop
  endfacet
  facet normal 0 0 1
    outer loop
      vertex -11.6399 21.0226 1.5
      vertex -22.5 22.5 1.5
      vertex -12.0961 21.0417 1.5
    endloop
  endfacet
  facet normal 0 0 1
    outer loop
      vertex 16.4858 17.1521 1.5
      vertex 22.5 22.5 1.5
      vertex 16.5174 17.4544 1.5
    endloop
  endfacet
  facet normal 0 0 1
    outer loop
      vertex 16.4333 16.8497 1.5
      vertex 22.5 22.5 1.5
      vertex 16.4858 17.1521 1.5
    endloop
  endfacet
  facet normal 0 0 1
    outer loop
      vertex 16.3597 16.5473 1.5
      vertex 22.5 22.5 1.5
      vertex 16.4333 16.8497 1.5
    endloop
  endfacet
  facet normal 0 0 1
    outer loop
      vertex 16.2651 16.2448 1.5
      vertex 22.5 22.5 1.5
      vertex 16.3597 16.5473 1.5
    endloop
  endfacet
  facet normal 0 0 1
    outer loop
      vertex 16.1495 15.9423 1.5
      vertex 22.5 22.5 1.5
      vertex 16.2651 16.2448 1.5
    endloop
  endfacet
  facet normal 0 0 1
    outer loop
      vertex 16.0129 15.6397 1.5
      vertex 22.5 22.5 1.5
      vertex 16.1495 15.9423 1.5
    endloop
  endfacet
  facet normal 0 0 1
    outer loop
      vertex 15.8508 15.3206 1.5
      vertex 22.5 22.5 1.5
      vertex 16.0129 15.6397 1.5
    endloop
  endfacet
  facet normal 0 0 1
    outer loop
      vertex 15.6588 14.9682 1.5
      vertex 22.5 22.5 1.5
      vertex 15.8508 15.3206 1.5
    endloop
  endfacet
  facet normal 0 0 1
    outer loop
      vertex 15.4368 14.5825 1.5
      vertex 22.5 22.5 1.5
      vertex 15.6588 14.9682 1.5
    endloop
  endfacet
  facet normal 0 0 1
    outer loop
      vertex 22.5 22.5 1.5
      vertex 15.4368 14.5825 1.5
      vertex 22.5 -22.5 1.5
    endloop
  endfacet
  facet normal -0 0 1
    outer loop
      vertex 15.185 14.1637 1.5
      vertex 22.5 -22.5 1.5
      vertex 15.4368 14.5825 1.5
    endloop
  endfacet
  facet normal -0 0 1
    outer loop
      vertex 14.9032 13.7116 1.5
      vertex 22.5 -22.5 1.5
      vertex 15.185 14.1637 1.5
    endloop
  endfacet
  facet normal -0 0 1
    outer loop
      vertex 14.5915 13.2263 1.5
      vertex 22.5 -22.5 1.5
      vertex 14.9032 13.7116 1.5
    endloop
  endfacet
  facet normal -0 0 1
    outer loop
      vertex 14.2499 12.7077 1.5
      vertex 22.5 -22.5 1.5
      vertex 14.5915 13.2263 1.5
    endloop
  endfacet
  facet normal -0 0 1
    outer loop
      vertex 4.29486 -2.57425 1.5
      vertex 22.5 -22.5 1.5
      vertex 14.2499 12.7077 1.5
    endloop
  endfacet
  facet normal -0 0 1
    outer loop
      vertex 4.29486 -15.1972 1.5
      vertex 22.5 -22.5 1.5
      vertex 4.29486 -2.57425 1.5
    endloop
  endfacet
  facet normal -0 0 1
    outer loop
      vertex 4.27158 -15.8775 1.5
      vertex 22.5 -22.5 1.5
      vertex 4.29486 -15.1972 1.5
    endloop
  endfacet
  facet normal -0 0 1
    outer loop
      vertex 4.20172 -16.5068 1.5
      vertex 22.5 -22.5 1.5
      vertex 4.27158 -15.8775 1.5
    endloop
  endfacet
  facet normal -0 0 1
    outer loop
      vertex 4.0853 -17.0852 1.5
      vertex 22.5 -22.5 1.5
      vertex 4.20172 -16.5068 1.5
    endloop
  endfacet
  facet normal -0 0 1
    outer loop
      vertex 3.9223 -17.6126 1.5
      vertex 22.5 -22.5 1.5
      vertex 4.0853 -17.0852 1.5
    endloop
  endfacet
  facet normal -0 0 1
    outer loop
      vertex 3.71272 -18.0891 1.5
      vertex 22.5 -22.5 1.5
      vertex 3.9223 -17.6126 1.5
    endloop
  endfacet
  facet normal -0 0 1
    outer loop
      vertex 3.45659 -18.5146 1.5
      vertex 22.5 -22.5 1.5
      vertex 3.71272 -18.0891 1.5
    endloop
  endfacet
  facet normal -0 0 1
    outer loop
      vertex 3.15387 -18.8892 1.5
      vertex 22.5 -22.5 1.5
      vertex 3.45659 -18.5146 1.5
    endloop
  endfacet
  facet normal -0 0 1
    outer loop
      vertex 2.8154 -19.2132 1.5
      vertex 22.5 -22.5 1.5
      vertex 3.15387 -18.8892 1.5
    endloop
  endfacet
  facet normal -0 0 1
    outer loop
      vertex 2.45142 -19.4873 1.5
      vertex 22.5 -22.5 1.5
      vertex 2.8154 -19.2132 1.5
    endloop
  endfacet
  facet normal -0 0 1
    outer loop
      vertex 2.06194 -19.7115 1.5
      vertex 22.5 -22.5 1.5
      vertex 2.45142 -19.4873 1.5
    endloop
  endfacet
  facet normal -0 0 1
    outer loop
      vertex 1.64693 -19.886 1.5
      vertex 22.5 -22.5 1.5
      vertex 2.06194 -19.7115 1.5
    endloop
  endfacet
  facet normal -0 0 1
    outer loop
      vertex 1.20642 -20.0106 1.5
      vertex 22.5 -22.5 1.5
      vertex 1.64693 -19.886 1.5
    endloop
  endfacet
  facet normal -0 0 1
    outer loop
      vertex 0.740402 -20.0853 1.5
      vertex 22.5 -22.5 1.5
      vertex 1.20642 -20.0106 1.5
    endloop
  endfacet
  facet normal -0 0 1
    outer loop
      vertex 0.248871 -20.1102 1.5
      vertex 22.5 -22.5 1.5
      vertex 0.740402 -20.0853 1.5
    endloop
  endfacet
  facet normal 0 0 1
    outer loop
      vertex -22.5 -22.5 1.5
      vertex 0.248871 -20.1102 1.5
      vertex -0.249268 -20.0856 1.5
    endloop
  endfacet
  facet normal 0 0 1
    outer loop
      vertex -3.76912 -2.57425 1.5
      vertex -22.5 -22.5 1.5
      vertex -3.76912 -15.1972 1.5
    endloop
  endfacet
  facet normal 0 0 1
    outer loop
      vertex -3.76912 -15.1972 1.5
      vertex -22.5 -22.5 1.5
      vertex -3.7464 -15.8844 1.5
    endloop
  endfacet
  facet normal 0 0 1
    outer loop
      vertex -3.7464 -15.8844 1.5
      vertex -22.5 -22.5 1.5
      vertex -3.67825 -16.5189 1.5
    endloop
  endfacet
  facet normal 0 0 1
    outer loop
      vertex -3.67825 -16.5189 1.5
      vertex -22.5 -22.5 1.5
      vertex -3.56468 -17.1008 1.5
    endloop
  endfacet
  facet normal 0 0 1
    outer loop
      vertex -22.5 -22.5 1.5
      vertex -13.4801 12.4907 1.5
      vertex -13.8292 13.0542 1.5
    endloop
  endfacet
  facet normal 0 0 1
    outer loop
      vertex -22.5 -22.5 1.5
      vertex -13.8292 13.0542 1.5
      vertex -14.1478 13.581 1.5
    endloop
  endfacet
  facet normal 0 0 1
    outer loop
      vertex -22.5 -22.5 1.5
      vertex -14.1478 13.581 1.5
      vertex -14.436 14.0713 1.5
    endloop
  endfacet
  facet normal 0 0 1
    outer loop
      vertex -22.5 22.5 1.5
      vertex -14.436 14.0713 1.5
      vertex -14.6937 14.525 1.5
    endloop
  endfacet
  facet normal 0 0 1
    outer loop
      vertex -22.5 22.5 1.5
      vertex -14.6937 14.525 1.5
      vertex -14.9209 14.9422 1.5
    endloop
  endfacet
  facet normal 0 0 1
    outer loop
      vertex -22.5 22.5 1.5
      vertex -14.9209 14.9422 1.5
      vertex -15.1178 15.3227 1.5
    endloop
  endfacet
  facet normal 0 0 1
    outer loop
      vertex -22.5 22.5 1.5
      vertex -15.1178 15.3227 1.5
      vertex -15.2841 15.6667 1.5
    endloop
  endfacet
  facet normal 0 0 1
    outer loop
      vertex -22.5 22.5 1.5
      vertex -15.2841 15.6667 1.5
      vertex -15.4245 15.9864 1.5
    endloop
  endfacet
  facet normal 0 0 1
    outer loop
      vertex -22.5 22.5 1.5
      vertex -15.4245 15.9864 1.5
      vertex -15.5432 16.2938 1.5
    endloop
  endfacet
  facet normal 0 0 1
    outer loop
      vertex -22.5 22.5 1.5
      vertex -15.8023 17.4021 1.5
      vertex -15.8131 17.6487 1.5
    endloop
  endfacet
  facet normal 0 0 1
    outer loop
      vertex -22.5 22.5 1.5
      vertex -15.7699 17.1433 1.5
      vertex -15.8023 17.4021 1.5
    endloop
  endfacet
  facet normal 0 0 1
    outer loop
      vertex -22.5 22.5 1.5
      vertex -15.716 16.8723 1.5
      vertex -15.7699 17.1433 1.5
    endloop
  endfacet
  facet normal 0 0 1
    outer loop
      vertex -22.5 22.5 1.5
      vertex -15.6404 16.5892 1.5
      vertex -15.716 16.8723 1.5
    endloop
  endfacet
  facet normal 0 0 1
    outer loop
      vertex -22.5 22.5 1.5
      vertex -15.5432 16.2938 1.5
      vertex -15.6404 16.5892 1.5
    endloop
  endfacet
  facet normal 0 0 1
    outer loop
      vertex -14.436 14.0713 1.5
      vertex -22.5 22.5 1.5
      vertex -22.5 -22.5 1.5
    endloop
  endfacet
  facet normal 0 0 1
    outer loop
      vertex -3.56468 -17.1008 1.5
      vertex -22.5 -22.5 1.5
      vertex -3.40569 -17.6301 1.5
    endloop
  endfacet
  facet normal 0 0 1
    outer loop
      vertex 0.248871 -20.1102 1.5
      vertex -22.5 -22.5 1.5
      vertex 22.5 -22.5 1.5
    endloop
  endfacet
  facet normal 0 0 1
    outer loop
      vertex -0.719696 -20.0116 1.5
      vertex -22.5 -22.5 1.5
      vertex -0.249268 -20.0856 1.5
    endloop
  endfacet
  facet normal 0 0 1
    outer loop
      vertex -1.1624 -19.8884 1.5
      vertex -22.5 -22.5 1.5
      vertex -0.719696 -20.0116 1.5
    endloop
  endfacet
  facet normal 0 0 1
    outer loop
      vertex -1.57741 -19.7158 1.5
      vertex -22.5 -22.5 1.5
      vertex -1.1624 -19.8884 1.5
    endloop
  endfacet
  facet normal 0 0 1
    outer loop
      vertex -1.96469 -19.4939 1.5
      vertex -22.5 -22.5 1.5
      vertex -1.57741 -19.7158 1.5
    endloop
  endfacet
  facet normal 0 0 1
    outer loop
      vertex -2.32426 -19.2227 1.5
      vertex -22.5 -22.5 1.5
      vertex -1.96469 -19.4939 1.5
    endloop
  endfacet
  facet normal 0 0 1
    outer loop
      vertex -2.65611 -18.9022 1.5
      vertex -22.5 -22.5 1.5
      vertex -2.32426 -19.2227 1.5
    endloop
  endfacet
  facet normal 0 0 1
    outer loop
      vertex -2.9514 -18.5308 1.5
      vertex -22.5 -22.5 1.5
      vertex -2.65611 -18.9022 1.5
    endloop
  endfacet
  facet normal 0 0 1
    outer loop
      vertex -3.20126 -18.1067 1.5
      vertex -22.5 -22.5 1.5
      vertex -2.9514 -18.5308 1.5
    endloop
  endfacet
  facet normal 0 0 1
    outer loop
      vertex -3.40569 -17.6301 1.5
      vertex -22.5 -22.5 1.5
      vertex -3.20126 -18.1067 1.5
    endloop
  endfacet
  facet normal 1 -0 0
    outer loop
      vertex 22.5 -22.5 1.5
      vertex 22.5 22.5 0.5
      vertex 22.5 22.5 1.5
    endloop
  endfacet
  facet normal 1 0 0
    outer loop
      vertex 22.5 22.5 0.5
      vertex 22.5 -22.5 1.5
      vertex 22.5 -22.5 0.5
    endloop
  endfacet
  facet normal 0 1 -0
    outer loop
      vertex 22.5 22.5 0.5
      vertex -22.5 22.5 1.5
      vertex 22.5 22.5 1.5
    endloop
  endfacet
  facet normal 0 1 0
    outer loop
      vertex -22.5 22.5 1.5
      vertex 22.5 22.5 0.5
      vertex -22.5 22.5 0.5
    endloop
  endfacet
  facet normal 0 0 -1
    outer loop
      vertex -22.5 -22.5 0.5
      vertex 22.5 22.5 0.5
      vertex 22.5 -22.5 0.5
    endloop
  endfacet
  facet normal -0 0 -1
    outer loop
      vertex 22.5 22.5 0.5
      vertex -22.5 -22.5 0.5
      vertex -22.5 22.5 0.5
    endloop
  endfacet
  facet normal 0 -1 0
    outer loop
      vertex -22.5 -22.5 0.5
      vertex 22.5 -22.5 1.5
      vertex -22.5 -22.5 1.5
    endloop
  endfacet
  facet normal 0 -1 -0
    outer loop
      vertex 22.5 -22.5 1.5
      vertex -22.5 -22.5 0.5
      vertex 22.5 -22.5 0.5
    endloop
  endfacet
  facet normal 0 0 1
    outer loop
      vertex 16.009 19.459 7
      vertex 16.5279 17.7567 7
      vertex 16.5071 18.1227 7
    endloop
  endfacet
  facet normal 0 0 1
    outer loop
      vertex 16.5279 17.7567 7
      vertex 16.009 19.459 7
      vertex 16.5174 17.4544 7
    endloop
  endfacet
  facet normal 0 0 1
    outer loop
      vertex 16.009 19.459 7
      vertex 16.5071 18.1227 7
      vertex 16.4448 18.4758 7
    endloop
  endfacet
  facet normal 0 0 1
    outer loop
      vertex 15.7807 19.7612 7
      vertex 16.5174 17.4544 7
      vertex 16.009 19.459 7
    endloop
  endfacet
  facet normal 0 0 1
    outer loop
      vertex 15.5109 20.0507 7
      vertex 16.5174 17.4544 7
      vertex 15.7807 19.7612 7
    endloop
  endfacet
  facet normal 0 0 1
    outer loop
      vertex 16.1958 19.144 7
      vertex 16.4448 18.4758 7
      vertex 16.3411 18.8163 7
    endloop
  endfacet
  facet normal 0 0 1
    outer loop
      vertex 16.009 19.459 7
      vertex 16.4448 18.4758 7
      vertex 16.1958 19.144 7
    endloop
  endfacet
  facet normal 0 0 1
    outer loop
      vertex 16.5174 17.4544 7
      vertex 15.5109 20.0507 7
      vertex 16.4858 17.1521 7
    endloop
  endfacet
  facet normal 0 0 1
    outer loop
      vertex 13.3986 21.0215 7
      vertex 16.4858 17.1521 7
      vertex 15.5109 20.0507 7
    endloop
  endfacet
  facet normal 0 0 1
    outer loop
      vertex 16.4858 17.1521 7
      vertex 13.3986 21.0215 7
      vertex 16.4333 16.8497 7
    endloop
  endfacet
  facet normal 0 0 1
    outer loop
      vertex 12.9749 21.0417 7
      vertex 16.4333 16.8497 7
      vertex 13.3986 21.0215 7
    endloop
  endfacet
  facet normal 0 0 1
    outer loop
      vertex 16.4333 16.8497 7
      vertex 12.9749 21.0417 7
      vertex 16.3597 16.5473 7
    endloop
  endfacet
  facet normal 0 0 1
    outer loop
      vertex 16.3597 16.5473 7
      vertex 12.9749 21.0417 7
      vertex 16.2651 16.2448 7
    endloop
  endfacet
  facet normal -0 0 1
    outer loop
      vertex 10.2472 19.8526 7
      vertex 16.2651 16.2448 7
      vertex 12.9749 21.0417 7
    endloop
  endfacet
  facet normal 0 0 1
    outer loop
      vertex 16.2651 16.2448 7
      vertex 10.2472 19.8526 7
      vertex 16.1495 15.9423 7
    endloop
  endfacet
  facet normal -0 0 1
    outer loop
      vertex 10.0859 19.6687 7
      vertex 16.1495 15.9423 7
      vertex 10.2472 19.8526 7
    endloop
  endfacet
  facet normal 0 0 1
    outer loop
      vertex 13.3986 21.0215 7
      vertex 15.5109 20.0507 7
      vertex 15.2101 20.3137 7
    endloop
  endfacet
  facet normal 0 0 1
    outer loop
      vertex 16.1495 15.9423 7
      vertex 10.0859 19.6687 7
      vertex 16.0129 15.6397 7
    endloop
  endfacet
  facet normal -0 0 1
    outer loop
      vertex 9.62674 19.0811 7
      vertex 15.8508 15.3206 7
      vertex 9.77591 19.2809 7
    endloop
  endfacet
  facet normal 0 0 1
    outer loop
      vertex 13.3986 21.0215 7
      vertex 15.2101 20.3137 7
      vertex 14.8887 20.5361 7
    endloop
  endfacet
  facet normal -0 0 1
    outer loop
      vertex 9.48146 18.8774 7
      vertex 15.6588 14.9682 7
      vertex 9.62674 19.0811 7
    endloop
  endfacet
  facet normal 0 0 1
    outer loop
      vertex 13.8019 20.9608 7
      vertex 14.8887 20.5361 7
      vertex 14.547 20.7182 7
    endloop
  endfacet
  facet normal -0 0 1
    outer loop
      vertex 9.34006 18.6698 7
      vertex 15.6588 14.9682 7
      vertex 9.48146 18.8774 7
    endloop
  endfacet
  facet normal 0 0 1
    outer loop
      vertex 13.8019 20.9608 7
      vertex 14.547 20.7182 7
      vertex 14.1847 20.8597 7
    endloop
  endfacet
  facet normal 0 0 1
    outer loop
      vertex 13.3986 21.0215 7
      vertex 14.8887 20.5361 7
      vertex 13.8019 20.9608 7
    endloop
  endfacet
  facet normal -0 0 1
    outer loop
      vertex 9.92896 19.4768 7
      vertex 16.0129 15.6397 7
      vertex 10.0859 19.6687 7
    endloop
  endfacet
  facet normal -0 0 1
    outer loop
      vertex 9.77591 19.2809 7
      vertex 15.8508 15.3206 7
      vertex 9.92896 19.4768 7
    endloop
  endfacet
  facet normal 0 0 1
    outer loop
      vertex 10.2472 19.8526 7
      vertex 12.9749 21.0417 7
      vertex 12.7021 21.0345 7
    endloop
  endfacet
  facet normal 0 0 1
    outer loop
      vertex 10.4135 20.0238 7
      vertex 12.7021 21.0345 7
      vertex 12.4414 21.0128 7
    endloop
  endfacet
  facet normal 0 0 1
    outer loop
      vertex 10.7611 20.3277 7
      vertex 12.4414 21.0128 7
      vertex 12.1928 20.9767 7
    endloop
  endfacet
  facet normal 0 0 1
    outer loop
      vertex 10.9424 20.4605 7
      vertex 12.1928 20.9767 7
      vertex 11.9564 20.9261 7
    endloop
  endfacet
  facet normal 0 0 1
    outer loop
      vertex 11.1286 20.5805 7
      vertex 11.9564 20.9261 7
      vertex 11.7321 20.8611 7
    endloop
  endfacet
  facet normal 0 0 1
    outer loop
      vertex 11.1286 20.5805 7
      vertex 11.7321 20.8611 7
      vertex 11.5199 20.7817 7
    endloop
  endfacet
  facet normal 0 0 1
    outer loop
      vertex 11.1286 20.5805 7
      vertex 11.5199 20.7817 7
      vertex 11.3199 20.6877 7
    endloop
  endfacet
  facet normal 0 0 1
    outer loop
      vertex 11.9564 20.9261 7
      vertex 11.1286 20.5805 7
      vertex 10.9424 20.4605 7
    endloop
  endfacet
  facet normal 0 0 1
    outer loop
      vertex 12.1928 20.9767 7
      vertex 10.9424 20.4605 7
      vertex 10.7611 20.3277 7
    endloop
  endfacet
  facet normal 0 0 1
    outer loop
      vertex 12.4414 21.0128 7
      vertex 10.7611 20.3277 7
      vertex 10.5849 20.1821 7
    endloop
  endfacet
  facet normal 0 0 1
    outer loop
      vertex 12.4414 21.0128 7
      vertex 10.5849 20.1821 7
      vertex 10.4135 20.0238 7
    endloop
  endfacet
  facet normal 0 0 1
    outer loop
      vertex 12.7021 21.0345 7
      vertex 10.4135 20.0238 7
      vertex 10.2472 19.8526 7
    endloop
  endfacet
  facet normal 0 0 1
    outer loop
      vertex 16.0129 15.6397 7
      vertex 9.92896 19.4768 7
      vertex 15.8508 15.3206 7
    endloop
  endfacet
  facet normal 0 0 1
    outer loop
      vertex 15.8508 15.3206 7
      vertex 9.62674 19.0811 7
      vertex 15.6588 14.9682 7
    endloop
  endfacet
  facet normal 0 0 1
    outer loop
      vertex 15.6588 14.9682 7
      vertex 9.34006 18.6698 7
      vertex 15.4368 14.5825 7
    endloop
  endfacet
  facet normal -0 0 1
    outer loop
      vertex 9.20251 18.4582 7
      vertex 15.4368 14.5825 7
      vertex 9.34006 18.6698 7
    endloop
  endfacet
  facet normal -0 0 1
    outer loop
      vertex 9.06886 18.2427 7
      vertex 15.4368 14.5825 7
      vertex 9.20251 18.4582 7
    endloop
  endfacet
  facet normal 0 0 1
    outer loop
      vertex 15.4368 14.5825 7
      vertex 9.06886 18.2427 7
      vertex 15.185 14.1637 7
    endloop
  endfacet
  facet normal 0 0 1
    outer loop
      vertex 15.185 14.1637 7
      vertex 9.06886 18.2427 7
      vertex 14.9032 13.7116 7
    endloop
  endfacet
  facet normal 0 0 1
    outer loop
      vertex 14.9032 13.7116 7
      vertex 9.06886 18.2427 7
      vertex 14.5915 13.2263 7
    endloop
  endfacet
  facet normal -0 0 1
    outer loop
      vertex 7.92987 16.3677 7
      vertex 14.5915 13.2263 7
      vertex 9.06886 18.2427 7
    endloop
  endfacet
  facet normal 0 0 1
    outer loop
      vertex 14.5915 13.2263 7
      vertex 7.92987 16.3677 7
      vertex 14.2499 12.7077 7
    endloop
  endfacet
  facet normal 0 0 1
    outer loop
      vertex 0.411865 4.27374 7
      vertex 14.2499 12.7077 7
      vertex 7.92987 16.3677 7
    endloop
  endfacet
  facet normal 0 0 1
    outer loop
      vertex -3.76912 -15.1972 7
      vertex 4.29486 -15.1972 7
      vertex 4.29486 -2.57425 7
    endloop
  endfacet
  facet normal 0 0 1
    outer loop
      vertex 4.29486 -15.1972 7
      vertex -3.76912 -15.1972 7
      vertex 4.27158 -15.8775 7
    endloop
  endfacet
  facet normal 0 -0 1
    outer loop
      vertex -3.7464 -15.8844 7
      vertex 4.27158 -15.8775 7
      vertex -3.76912 -15.1972 7
    endloop
  endfacet
  facet normal 0 0 1
    outer loop
      vertex 4.27158 -15.8775 7
      vertex -3.7464 -15.8844 7
      vertex 4.20172 -16.5068 7
    endloop
  endfacet
  facet normal 0 -0 1
    outer loop
      vertex -3.67825 -16.5189 7
      vertex 4.20172 -16.5068 7
      vertex -3.7464 -15.8844 7
    endloop
  endfacet
  facet normal 0 0 1
    outer loop
      vertex 4.20172 -16.5068 7
      vertex -3.67825 -16.5189 7
      vertex 4.0853 -17.0852 7
    endloop
  endfacet
  facet normal 0 -0 1
    outer loop
      vertex -3.56468 -17.1008 7
      vertex 4.0853 -17.0852 7
      vertex -3.67825 -16.5189 7
    endloop
  endfacet
  facet normal 0 0 1
    outer loop
      vertex 4.0853 -17.0852 7
      vertex -3.56468 -17.1008 7
      vertex 3.9223 -17.6126 7
    endloop
  endfacet
  facet normal 0 -0 1
    outer loop
      vertex 0.248871 -20.1102 7
      vertex 3.9223 -17.6126 7
      vertex -3.56468 -17.1008 7
    endloop
  endfacet
  facet normal 0 0 1
    outer loop
      vertex 3.9223 -17.6126 7
      vertex 0.740402 -20.0853 7
      vertex 3.71272 -18.0891 7
    endloop
  endfacet
  facet normal 0 0 1
    outer loop
      vertex 3.71272 -18.0891 7
      vertex 0.740402 -20.0853 7
      vertex 3.45659 -18.5146 7
    endloop
  endfacet
  facet normal 0 0 1
    outer loop
      vertex 3.45659 -18.5146 7
      vertex 0.740402 -20.0853 7
      vertex 3.15387 -18.8892 7
    endloop
  endfacet
  facet normal 0 0 1
    outer loop
      vertex 3.15387 -18.8892 7
      vertex 0.740402 -20.0853 7
      vertex 2.8154 -19.2132 7
    endloop
  endfacet
  facet normal 0 0 1
    outer loop
      vertex 14.2499 12.7077 7
      vertex 0.411865 4.27374 7
      vertex 4.29486 -2.57425 7
    endloop
  endfacet
  facet normal 0 0 1
    outer loop
      vertex -3.76912 -2.57425 7
      vertex 4.29486 -2.57425 7
      vertex 0.411865 4.27374 7
    endloop
  endfacet
  facet normal 0 0 1
    outer loop
      vertex -3.76912 -15.1972 7
      vertex 4.29486 -2.57425 7
      vertex -3.76912 -2.57425 7
    endloop
  endfacet
  facet normal 0 0 1
    outer loop
      vertex 2.45142 -19.4873 7
      vertex 1.64693 -19.886 7
      vertex 2.06194 -19.7115 7
    endloop
  endfacet
  facet normal 0 0 1
    outer loop
      vertex 2.45142 -19.4873 7
      vertex 1.20642 -20.0106 7
      vertex 1.64693 -19.886 7
    endloop
  endfacet
  facet normal 0 0 1
    outer loop
      vertex 2.45142 -19.4873 7
      vertex 0.740402 -20.0853 7
      vertex 1.20642 -20.0106 7
    endloop
  endfacet
  facet normal 0 0 1
    outer loop
      vertex 2.8154 -19.2132 7
      vertex 0.740402 -20.0853 7
      vertex 2.45142 -19.4873 7
    endloop
  endfacet
  facet normal 0 0 1
    outer loop
      vertex 0.248871 -20.1102 7
      vertex -3.56468 -17.1008 7
      vertex -0.249268 -20.0856 7
    endloop
  endfacet
  facet normal -0 -0 1
    outer loop
      vertex -3.40569 -17.6301 7
      vertex -0.249268 -20.0856 7
      vertex -3.56468 -17.1008 7
    endloop
  endfacet
  facet normal 0 0 1
    outer loop
      vertex -0.249268 -20.0856 7
      vertex -3.40569 -17.6301 7
      vertex -0.719696 -20.0116 7
    endloop
  endfacet
  facet normal 0 0 1
    outer loop
      vertex -0.719696 -20.0116 7
      vertex -3.40569 -17.6301 7
      vertex -1.1624 -19.8884 7
    endloop
  endfacet
  facet normal 0 0 1
    outer loop
      vertex -1.1624 -19.8884 7
      vertex -3.40569 -17.6301 7
      vertex -1.57741 -19.7158 7
    endloop
  endfacet
  facet normal 0 0 1
    outer loop
      vertex -1.57741 -19.7158 7
      vertex -3.40569 -17.6301 7
      vertex -1.96469 -19.4939 7
    endloop
  endfacet
  facet normal 0 0 1
    outer loop
      vertex -1.96469 -19.4939 7
      vertex -3.40569 -17.6301 7
      vertex -2.32426 -19.2227 7
    endloop
  endfacet
  facet normal -0 -0 1
    outer loop
      vertex -3.20126 -18.1067 7
      vertex -2.32426 -19.2227 7
      vertex -3.40569 -17.6301 7
    endloop
  endfacet
  facet normal 0 0 1
    outer loop
      vertex -2.32426 -19.2227 7
      vertex -3.20126 -18.1067 7
      vertex -2.65611 -18.9022 7
    endloop
  endfacet
  facet normal 0 0 1
    outer loop
      vertex 3.9223 -17.6126 7
      vertex 0.248871 -20.1102 7
      vertex 0.740402 -20.0853 7
    endloop
  endfacet
  facet normal -0 0 1
    outer loop
      vertex -13.4801 12.4907 7
      vertex 0.411865 4.27374 7
      vertex -7.02412 16.3677 7
    endloop
  endfacet
  facet normal 0 0 1
    outer loop
      vertex -13.4801 12.4907 7
      vertex -7.02412 16.3677 7
      vertex -7.49498 17.1295 7
    endloop
  endfacet
  facet normal 0 0 1
    outer loop
      vertex -14.1478 13.581 7
      vertex -7.49498 17.1295 7
      vertex -7.93097 17.8152 7
    endloop
  endfacet
  facet normal 0 0 1
    outer loop
      vertex -14.436 14.0713 7
      vertex -7.93097 17.8152 7
      vertex -8.33212 18.4249 7
    endloop
  endfacet
  facet normal 0 0 1
    outer loop
      vertex -14.9209 14.9422 7
      vertex -8.33212 18.4249 7
      vertex -8.69841 18.9586 7
    endloop
  endfacet
  facet normal 0 0 1
    outer loop
      vertex -15.1178 15.3227 7
      vertex -8.69841 18.9586 7
      vertex -9.02983 19.4163 7
    endloop
  endfacet
  facet normal 0 0 1
    outer loop
      vertex -15.4245 15.9864 7
      vertex -9.02983 19.4163 7
      vertex -9.3264 19.798 7
    endloop
  endfacet
  facet normal 0 0 1
    outer loop
      vertex -11.2163 20.9652 7
      vertex -9.3264 19.798 7
      vertex -9.58812 20.1037 7
    endloop
  endfacet
  facet normal 0 0 1
    outer loop
      vertex -10.8253 20.8695 7
      vertex -9.58812 20.1037 7
      vertex -9.84845 20.3526 7
    endloop
  endfacet
  facet normal 0 0 1
    outer loop
      vertex -10.8253 20.8695 7
      vertex -9.84845 20.3526 7
      vertex -10.1414 20.5632 7
    endloop
  endfacet
  facet normal 0 0 1
    outer loop
      vertex -10.8253 20.8695 7
      vertex -10.1414 20.5632 7
      vertex -10.4671 20.7355 7
    endloop
  endfacet
  facet normal 0 0 1
    outer loop
      vertex -9.58812 20.1037 7
      vertex -10.8253 20.8695 7
      vertex -11.2163 20.9652 7
    endloop
  endfacet
  facet normal 0 0 1
    outer loop
      vertex -9.3264 19.798 7
      vertex -11.2163 20.9652 7
      vertex -11.6399 21.0226 7
    endloop
  endfacet
  facet normal 0 0 1
    outer loop
      vertex -12.0961 21.0417 7
      vertex -9.3264 19.798 7
      vertex -11.6399 21.0226 7
    endloop
  endfacet
  facet normal 0 0 1
    outer loop
      vertex -9.3264 19.798 7
      vertex -12.0961 21.0417 7
      vertex -15.4245 15.9864 7
    endloop
  endfacet
  facet normal 0 0 1
    outer loop
      vertex -15.4245 15.9864 7
      vertex -12.0961 21.0417 7
      vertex -12.5356 21.0212 7
    endloop
  endfacet
  facet normal 0 0 1
    outer loop
      vertex -15.5432 16.2938 7
      vertex -12.5356 21.0212 7
      vertex -12.9546 20.9597 7
    endloop
  endfacet
  facet normal 0 0 1
    outer loop
      vertex -15.5432 16.2938 7
      vertex -12.9546 20.9597 7
      vertex -13.3531 20.8571 7
    endloop
  endfacet
  facet normal 0 0 1
    outer loop
      vertex 0.411865 4.27374 7
      vertex -13.4801 12.4907 7
      vertex -3.76912 -2.57425 7
    endloop
  endfacet
  facet normal 0 0 1
    outer loop
      vertex -15.5432 16.2938 7
      vertex -13.3531 20.8571 7
      vertex -13.731 20.7136 7
    endloop
  endfacet
  facet normal 0 0 1
    outer loop
      vertex -7.49498 17.1295 7
      vertex -13.8292 13.0542 7
      vertex -13.4801 12.4907 7
    endloop
  endfacet
  facet normal 0 0 1
    outer loop
      vertex -15.6404 16.5892 7
      vertex -13.731 20.7136 7
      vertex -14.0886 20.529 7
    endloop
  endfacet
  facet normal 0 0 1
    outer loop
      vertex -7.49498 17.1295 7
      vertex -14.1478 13.581 7
      vertex -13.8292 13.0542 7
    endloop
  endfacet
  facet normal 0 0 1
    outer loop
      vertex -15.6404 16.5892 7
      vertex -14.0886 20.529 7
      vertex -14.4256 20.3034 7
    endloop
  endfacet
  facet normal 0 0 1
    outer loop
      vertex -7.93097 17.8152 7
      vertex -14.436 14.0713 7
      vertex -14.1478 13.581 7
    endloop
  endfacet
  facet normal 0 0 1
    outer loop
      vertex -8.33212 18.4249 7
      vertex -14.6937 14.525 7
      vertex -14.436 14.0713 7
    endloop
  endfacet
  facet normal 0 0 1
    outer loop
      vertex -15.6404 16.5892 7
      vertex -14.4256 20.3034 7
      vertex -14.7421 20.0367 7
    endloop
  endfacet
  facet normal 0 0 1
    outer loop
      vertex -8.33212 18.4249 7
      vertex -14.9209 14.9422 7
      vertex -14.6937 14.525 7
    endloop
  endfacet
  facet normal 0 0 1
    outer loop
      vertex -15.716 16.8723 7
      vertex -14.7421 20.0367 7
      vertex -15.0263 19.7421 7
    endloop
  endfacet
  facet normal 0 0 1
    outer loop
      vertex -8.69841 18.9586 7
      vertex -15.1178 15.3227 7
      vertex -14.9209 14.9422 7
    endloop
  endfacet
  facet normal 0 0 1
    outer loop
      vertex -15.7699 17.1433 7
      vertex -15.0263 19.7421 7
      vertex -15.2667 19.432 7
    endloop
  endfacet
  facet normal 0 0 1
    outer loop
      vertex -9.02983 19.4163 7
      vertex -15.2841 15.6667 7
      vertex -15.1178 15.3227 7
    endloop
  endfacet
  facet normal 0 0 1
    outer loop
      vertex -9.02983 19.4163 7
      vertex -15.4245 15.9864 7
      vertex -15.2841 15.6667 7
    endloop
  endfacet
  facet normal 0 0 1
    outer loop
      vertex -15.7699 17.1433 7
      vertex -15.2667 19.432 7
      vertex -15.4634 19.1064 7
    endloop
  endfacet
  facet normal 0 0 1
    outer loop
      vertex -12.5356 21.0212 7
      vertex -15.5432 16.2938 7
      vertex -15.4245 15.9864 7
    endloop
  endfacet
  facet normal 0 0 1
    outer loop
      vertex -15.7699 17.1433 7
      vertex -15.4634 19.1064 7
      vertex -15.6164 18.7652 7
    endloop
  endfacet
  facet normal 0 0 1
    outer loop
      vertex -13.731 20.7136 7
      vertex -15.6404 16.5892 7
      vertex -15.5432 16.2938 7
    endloop
  endfacet
  facet normal 0 0 1
    outer loop
      vertex -14.7421 20.0367 7
      vertex -15.716 16.8723 7
      vertex -15.6404 16.5892 7
    endloop
  endfacet
  facet normal 0 0 1
    outer loop
      vertex -15.7699 17.1433 7
      vertex -15.6164 18.7652 7
      vertex -15.7257 18.4086 7
    endloop
  endfacet
  facet normal 0 0 1
    outer loop
      vertex -15.0263 19.7421 7
      vertex -15.7699 17.1433 7
      vertex -15.716 16.8723 7
    endloop
  endfacet
  facet normal -0 0 1
    outer loop
      vertex -15.7913 18.0364 7
      vertex -15.7699 17.1433 7
      vertex -15.7257 18.4086 7
    endloop
  endfacet
  facet normal 0 0 1
    outer loop
      vertex -15.7913 18.0364 7
      vertex -15.8023 17.4021 7
      vertex -15.7699 17.1433 7
    endloop
  endfacet
  facet normal 0 -0 1
    outer loop
      vertex -15.8023 17.4021 7
      vertex -15.7913 18.0364 7
      vertex -15.8131 17.6487 7
    endloop
  endfacet
  facet normal 0 0 1
    outer loop
      vertex -2.65611 -18.9022 7
      vertex -3.20126 -18.1067 7
      vertex -2.9514 -18.5308 7
    endloop
  endfacet
  facet normal 0.158383 -0.987378 0
    outer loop
      vertex 0.740402 -20.0853 1.5
      vertex 1.20642 -20.0106 7
      vertex 0.740402 -20.0853 7
    endloop
  endfacet
  facet normal 0.158383 -0.987378 0
    outer loop
      vertex 1.20642 -20.0106 7
      vertex 0.740402 -20.0853 1.5
      vertex 1.20642 -20.0106 1.5
    endloop
  endfacet
  facet normal 0.272184 -0.962245 0
    outer loop
      vertex 1.20642 -20.0106 1.5
      vertex 1.64693 -19.886 7
      vertex 1.20642 -20.0106 7
    endloop
  endfacet
  facet normal 0.272184 -0.962245 0
    outer loop
      vertex 1.64693 -19.886 7
      vertex 1.20642 -20.0106 1.5
      vertex 1.64693 -19.886 1.5
    endloop
  endfacet
  facet normal 0.387458 -0.921887 0
    outer loop
      vertex 1.64693 -19.886 1.5
      vertex 2.06194 -19.7115 7
      vertex 1.64693 -19.886 7
    endloop
  endfacet
  facet normal 0.387458 -0.921887 0
    outer loop
      vertex 2.06194 -19.7115 7
      vertex 1.64693 -19.886 1.5
      vertex 2.06194 -19.7115 1.5
    endloop
  endfacet
  facet normal 0.498985 -0.866611 0
    outer loop
      vertex 2.06194 -19.7115 1.5
      vertex 2.45142 -19.4873 7
      vertex 2.06194 -19.7115 7
    endloop
  endfacet
  facet normal 0.498985 -0.866611 0
    outer loop
      vertex 2.45142 -19.4873 7
      vertex 2.06194 -19.7115 1.5
      vertex 2.45142 -19.4873 1.5
    endloop
  endfacet
  facet normal 0.601574 -0.798817 0
    outer loop
      vertex 2.45142 -19.4873 1.5
      vertex 2.8154 -19.2132 7
      vertex 2.45142 -19.4873 7
    endloop
  endfacet
  facet normal 0.601574 -0.798817 0
    outer loop
      vertex 2.8154 -19.2132 7
      vertex 2.45142 -19.4873 1.5
      vertex 2.8154 -19.2132 1.5
    endloop
  endfacet
  facet normal 0.691434 -0.72244 0
    outer loop
      vertex 2.8154 -19.2132 1.5
      vertex 3.15387 -18.8892 7
      vertex 2.8154 -19.2132 7
    endloop
  endfacet
  facet normal 0.691434 -0.72244 0
    outer loop
      vertex 3.15387 -18.8892 7
      vertex 2.8154 -19.2132 1.5
      vertex 3.15387 -18.8892 1.5
    endloop
  endfacet
  facet normal 0.777784 -0.628532 0
    outer loop
      vertex 3.15387 -18.8892 7
      vertex 3.45659 -18.5146 1.5
      vertex 3.45659 -18.5146 7
    endloop
  endfacet
  facet normal 0.777784 -0.628532 0
    outer loop
      vertex 3.45659 -18.5146 1.5
      vertex 3.15387 -18.8892 7
      vertex 3.15387 -18.8892 1.5
    endloop
  endfacet
  facet normal 0.856779 -0.515683 0
    outer loop
      vertex 3.45659 -18.5146 7
      vertex 3.71272 -18.0891 1.5
      vertex 3.71272 -18.0891 7
    endloop
  endfacet
  facet normal 0.856779 -0.515683 0
    outer loop
      vertex 3.71272 -18.0891 1.5
      vertex 3.45659 -18.5146 7
      vertex 3.45659 -18.5146 1.5
    endloop
  endfacet
  facet normal 0.915368 -0.402619 0
    outer loop
      vertex 3.71272 -18.0891 7
      vertex 3.9223 -17.6126 1.5
      vertex 3.9223 -17.6126 7
    endloop
  endfacet
  facet normal 0.915368 -0.402619 0
    outer loop
      vertex 3.9223 -17.6126 1.5
      vertex 3.71272 -18.0891 7
      vertex 3.71272 -18.0891 1.5
    endloop
  endfacet
  facet normal 0.955419 -0.295255 0
    outer loop
      vertex 3.9223 -17.6126 7
      vertex 4.0853 -17.0852 1.5
      vertex 4.0853 -17.0852 7
    endloop
  endfacet
  facet normal 0.955419 -0.295255 0
    outer loop
      vertex 4.0853 -17.0852 1.5
      vertex 3.9223 -17.6126 7
      vertex 3.9223 -17.6126 1.5
    endloop
  endfacet
  facet normal 0.980335 -0.19734 0
    outer loop
      vertex 4.0853 -17.0852 7
      vertex 4.20172 -16.5068 1.5
      vertex 4.20172 -16.5068 7
    endloop
  endfacet
  facet normal 0.980335 -0.19734 0
    outer loop
      vertex 4.20172 -16.5068 1.5
      vertex 4.0853 -17.0852 7
      vertex 4.0853 -17.0852 1.5
    endloop
  endfacet
  facet normal 0.993895 -0.110326 0
    outer loop
      vertex 4.20172 -16.5068 7
      vertex 4.27158 -15.8775 1.5
      vertex 4.27158 -15.8775 7
    endloop
  endfacet
  facet normal 0.993895 -0.110326 0
    outer loop
      vertex 4.27158 -15.8775 1.5
      vertex 4.20172 -16.5068 7
      vertex 4.20172 -16.5068 1.5
    endloop
  endfacet
  facet normal 0.999415 -0.0342098 0
    outer loop
      vertex 4.27158 -15.8775 7
      vertex 4.29486 -15.1972 1.5
      vertex 4.29486 -15.1972 7
    endloop
  endfacet
  facet normal 0.999415 -0.0342098 0
    outer loop
      vertex 4.29486 -15.1972 1.5
      vertex 4.27158 -15.8775 7
      vertex 4.27158 -15.8775 1.5
    endloop
  endfacet
  facet normal 1 -0 0
    outer loop
      vertex 4.29486 -15.1972 7
      vertex 4.29486 -2.57425 1.5
      vertex 4.29486 -2.57425 7
    endloop
  endfacet
  facet normal 1 0 0
    outer loop
      vertex 4.29486 -2.57425 1.5
      vertex 4.29486 -15.1972 7
      vertex 4.29486 -15.1972 1.5
    endloop
  endfacet
  facet normal 0.837899 -0.545825 0
    outer loop
      vertex 4.29486 -2.57425 7
      vertex 14.2499 12.7077 1.5
      vertex 14.2499 12.7077 7
    endloop
  endfacet
  facet normal 0.837899 -0.545825 0
    outer loop
      vertex 14.2499 12.7077 1.5
      vertex 4.29486 -2.57425 7
      vertex 4.29486 -2.57425 1.5
    endloop
  endfacet
  facet normal 0.835062 -0.550155 0
    outer loop
      vertex 14.2499 12.7077 7
      vertex 14.5915 13.2263 1.5
      vertex 14.5915 13.2263 7
    endloop
  endfacet
  facet normal 0.835062 -0.550155 0
    outer loop
      vertex 14.5915 13.2263 1.5
      vertex 14.2499 12.7077 7
      vertex 14.2499 12.7077 1.5
    endloop
  endfacet
  facet normal 0.841408 -0.540401 0
    outer loop
      vertex 14.5915 13.2263 7
      vertex 14.9032 13.7116 1.5
      vertex 14.9032 13.7116 7
    endloop
  endfacet
  facet normal 0.841408 -0.540401 0
    outer loop
      vertex 14.9032 13.7116 1.5
      vertex 14.5915 13.2263 7
      vertex 14.5915 13.2263 1.5
    endloop
  endfacet
  facet normal 0.848648 -0.528958 0
    outer loop
      vertex 14.9032 13.7116 7
      vertex 15.185 14.1637 1.5
      vertex 15.185 14.1637 7
    endloop
  endfacet
  facet normal 0.848648 -0.528958 0
    outer loop
      vertex 15.185 14.1637 1.5
      vertex 14.9032 13.7116 7
      vertex 14.9032 13.7116 1.5
    endloop
  endfacet
  facet normal 0.856997 -0.515322 0
    outer loop
      vertex 15.185 14.1637 7
      vertex 15.4368 14.5825 1.5
      vertex 15.4368 14.5825 7
    endloop
  endfacet
  facet normal 0.856997 -0.515322 0
    outer loop
      vertex 15.4368 14.5825 1.5
      vertex 15.185 14.1637 7
      vertex 15.185 14.1637 1.5
    endloop
  endfacet
  facet normal 0.866713 -0.498807 0
    outer loop
      vertex 15.4368 14.5825 7
      vertex 15.6588 14.9682 1.5
      vertex 15.6588 14.9682 7
    endloop
  endfacet
  facet normal 0.866713 -0.498807 0
    outer loop
      vertex 15.6588 14.9682 1.5
      vertex 15.4368 14.5825 7
      vertex 15.4368 14.5825 1.5
    endloop
  endfacet
  facet normal 0.878108 -0.478463 0
    outer loop
      vertex 15.6588 14.9682 7
      vertex 15.8508 15.3206 1.5
      vertex 15.8508 15.3206 7
    endloop
  endfacet
  facet normal 0.878108 -0.478463 0
    outer loop
      vertex 15.8508 15.3206 1.5
      vertex 15.6588 14.9682 7
      vertex 15.6588 14.9682 1.5
    endloop
  endfacet
  facet normal 0.891614 -0.452797 0
    outer loop
      vertex 15.8508 15.3206 7
      vertex 16.0129 15.6397 1.5
      vertex 16.0129 15.6397 7
    endloop
  endfacet
  facet normal 0.891614 -0.452797 0
    outer loop
      vertex 16.0129 15.6397 1.5
      vertex 15.8508 15.3206 7
      vertex 15.8508 15.3206 1.5
    endloop
  endfacet
  facet normal 0.911363 -0.411603 0
    outer loop
      vertex 16.0129 15.6397 7
      vertex 16.1495 15.9423 1.5
      vertex 16.1495 15.9423 7
    endloop
  endfacet
  facet normal 0.911363 -0.411603 0
    outer loop
      vertex 16.1495 15.9423 1.5
      vertex 16.0129 15.6397 7
      vertex 16.0129 15.6397 1.5
    endloop
  endfacet
  facet normal 0.934117 -0.356967 0
    outer loop
      vertex 16.1495 15.9423 7
      vertex 16.2651 16.2448 1.5
      vertex 16.2651 16.2448 7
    endloop
  endfacet
  facet normal 0.934117 -0.356967 0
    outer loop
      vertex 16.2651 16.2448 1.5
      vertex 16.1495 15.9423 7
      vertex 16.1495 15.9423 1.5
    endloop
  endfacet
  facet normal 0.954407 -0.298508 0
    outer loop
      vertex 16.2651 16.2448 7
      vertex 16.3597 16.5473 1.5
      vertex 16.3597 16.5473 7
    endloop
  endfacet
  facet normal 0.954407 -0.298508 0
    outer loop
      vertex 16.3597 16.5473 1.5
      vertex 16.2651 16.2448 7
      vertex 16.2651 16.2448 1.5
    endloop
  endfacet
  facet normal 0.971669 -0.236348 0
    outer loop
      vertex 16.3597 16.5473 7
      vertex 16.4333 16.8497 1.5
      vertex 16.4333 16.8497 7
    endloop
  endfacet
  facet normal 0.971669 -0.236348 0
    outer loop
      vertex 16.4333 16.8497 1.5
      vertex 16.3597 16.5473 7
      vertex 16.3597 16.5473 1.5
    endloop
  endfacet
  facet normal 0.985232 -0.171224 0
    outer loop
      vertex 16.4333 16.8497 7
      vertex 16.4858 17.1521 1.5
      vertex 16.4858 17.1521 7
    endloop
  endfacet
  facet normal 0.985232 -0.171224 0
    outer loop
      vertex 16.4858 17.1521 1.5
      vertex 16.4333 16.8497 7
      vertex 16.4333 16.8497 1.5
    endloop
  endfacet
  facet normal 0.994603 -0.103752 0
    outer loop
      vertex 16.4858 17.1521 7
      vertex 16.5174 17.4544 1.5
      vertex 16.5174 17.4544 7
    endloop
  endfacet
  facet normal 0.994603 -0.103752 0
    outer loop
      vertex 16.5174 17.4544 1.5
      vertex 16.4858 17.1521 7
      vertex 16.4858 17.1521 1.5
    endloop
  endfacet
  facet normal 0.999398 -0.0347055 0
    outer loop
      vertex 16.5174 17.4544 7
      vertex 16.5279 17.7567 1.5
      vertex 16.5279 17.7567 7
    endloop
  endfacet
  facet normal 0.999398 -0.0347055 0
    outer loop
      vertex 16.5279 17.7567 1.5
      vertex 16.5174 17.4544 7
      vertex 16.5174 17.4544 1.5
    endloop
  endfacet
  facet normal 0.998396 0.0566206 0
    outer loop
      vertex 16.5279 17.7567 7
      vertex 16.5071 18.1227 1.5
      vertex 16.5071 18.1227 7
    endloop
  endfacet
  facet normal 0.998396 0.0566206 0
    outer loop
      vertex 16.5071 18.1227 1.5
      vertex 16.5279 17.7567 7
      vertex 16.5279 17.7567 1.5
    endloop
  endfacet
  facet normal 0.98481 0.173637 0
    outer loop
      vertex 16.5071 18.1227 7
      vertex 16.4448 18.4758 1.5
      vertex 16.4448 18.4758 7
    endloop
  endfacet
  facet normal 0.98481 0.173637 0
    outer loop
      vertex 16.4448 18.4758 1.5
      vertex 16.5071 18.1227 7
      vertex 16.5071 18.1227 1.5
    endloop
  endfacet
  facet normal 0.95655 0.291569 0
    outer loop
      vertex 16.4448 18.4758 7
      vertex 16.3411 18.8163 1.5
      vertex 16.3411 18.8163 7
    endloop
  endfacet
  facet normal 0.95655 0.291569 0
    outer loop
      vertex 16.3411 18.8163 1.5
      vertex 16.4448 18.4758 7
      vertex 16.4448 18.4758 1.5
    endloop
  endfacet
  facet normal 0.914196 0.405273 0
    outer loop
      vertex 16.3411 18.8163 7
      vertex 16.1958 19.144 1.5
      vertex 16.1958 19.144 7
    endloop
  endfacet
  facet normal 0.914196 0.405273 0
    outer loop
      vertex 16.1958 19.144 1.5
      vertex 16.3411 18.8163 7
      vertex 16.3411 18.8163 1.5
    endloop
  endfacet
  facet normal 0.860114 0.510102 0
    outer loop
      vertex 16.1958 19.144 7
      vertex 16.009 19.459 1.5
      vertex 16.009 19.459 7
    endloop
  endfacet
  facet normal 0.860114 0.510102 0
    outer loop
      vertex 16.009 19.459 1.5
      vertex 16.1958 19.144 7
      vertex 16.1958 19.144 1.5
    endloop
  endfacet
  facet normal 0.797946 0.602729 0
    outer loop
      vertex 16.009 19.459 7
      vertex 15.7807 19.7612 1.5
      vertex 15.7807 19.7612 7
    endloop
  endfacet
  facet normal 0.797946 0.602729 0
    outer loop
      vertex 15.7807 19.7612 1.5
      vertex 16.009 19.459 7
      vertex 16.009 19.459 1.5
    endloop
  endfacet
  facet normal 0.731538 0.6818 0
    outer loop
      vertex 15.7807 19.7612 7
      vertex 15.5109 20.0507 1.5
      vertex 15.5109 20.0507 7
    endloop
  endfacet
  facet normal 0.731538 0.6818 0
    outer loop
      vertex 15.5109 20.0507 1.5
      vertex 15.7807 19.7612 7
      vertex 15.7807 19.7612 1.5
    endloop
  endfacet
  facet normal 0.658099 0.752931 -0
    outer loop
      vertex 15.5109 20.0507 1.5
      vertex 15.2101 20.3137 7
      vertex 15.5109 20.0507 7
    endloop
  endfacet
  facet normal 0.658099 0.752931 0
    outer loop
      vertex 15.2101 20.3137 7
      vertex 15.5109 20.0507 1.5
      vertex 15.2101 20.3137 1.5
    endloop
  endfacet
  facet normal 0.569265 0.822154 -0
    outer loop
      vertex 15.2101 20.3137 1.5
      vertex 14.8887 20.5361 7
      vertex 15.2101 20.3137 7
    endloop
  endfacet
  facet normal 0.569265 0.822154 0
    outer loop
      vertex 14.8887 20.5361 7
      vertex 15.2101 20.3137 1.5
      vertex 14.8887 20.5361 1.5
    endloop
  endfacet
  facet normal 0.470046 0.882642 -0
    outer loop
      vertex 14.8887 20.5361 1.5
      vertex 14.547 20.7182 7
      vertex 14.8887 20.5361 7
    endloop
  endfacet
  facet normal 0.470046 0.882642 0
    outer loop
      vertex 14.547 20.7182 7
      vertex 14.8887 20.5361 1.5
      vertex 14.547 20.7182 1.5
    endloop
  endfacet
  facet normal 0.363966 0.931412 -0
    outer loop
      vertex 14.547 20.7182 1.5
      vertex 14.1847 20.8597 7
      vertex 14.547 20.7182 7
    endloop
  endfacet
  facet normal 0.363966 0.931412 0
    outer loop
      vertex 14.1847 20.8597 7
      vertex 14.547 20.7182 1.5
      vertex 14.1847 20.8597 1.5
    endloop
  endfacet
  facet normal 0.255419 0.96683 -0
    outer loop
      vertex 14.1847 20.8597 1.5
      vertex 13.8019 20.9608 7
      vertex 14.1847 20.8597 7
    endloop
  endfacet
  facet normal 0.255419 0.96683 0
    outer loop
      vertex 13.8019 20.9608 7
      vertex 14.1847 20.8597 1.5
      vertex 13.8019 20.9608 1.5
    endloop
  endfacet
  facet normal 0.148767 0.988872 -0
    outer loop
      vertex 13.8019 20.9608 1.5
      vertex 13.3986 21.0215 7
      vertex 13.8019 20.9608 7
    endloop
  endfacet
  facet normal 0.148767 0.988872 0
    outer loop
      vertex 13.3986 21.0215 7
      vertex 13.8019 20.9608 1.5
      vertex 13.3986 21.0215 1.5
    endloop
  endfacet
  facet normal 0.0476933 0.998862 -0
    outer loop
      vertex 13.3986 21.0215 1.5
      vertex 12.9749 21.0417 7
      vertex 13.3986 21.0215 7
    endloop
  endfacet
  facet normal 0.0476933 0.998862 0
    outer loop
      vertex 12.9749 21.0417 7
      vertex 13.3986 21.0215 1.5
      vertex 12.9749 21.0417 1.5
    endloop
  endfacet
  facet normal -0.0265037 0.999649 0
    outer loop
      vertex 12.9749 21.0417 1.5
      vertex 12.7021 21.0345 7
      vertex 12.9749 21.0417 7
    endloop
  endfacet
  facet normal -0.0265037 0.999649 0
    outer loop
      vertex 12.7021 21.0345 7
      vertex 12.9749 21.0417 1.5
      vertex 12.7021 21.0345 1.5
    endloop
  endfacet
  facet normal -0.0828331 0.996563 0
    outer loop
      vertex 12.7021 21.0345 1.5
      vertex 12.4414 21.0128 7
      vertex 12.7021 21.0345 7
    endloop
  endfacet
  facet normal -0.0828331 0.996563 0
    outer loop
      vertex 12.4414 21.0128 7
      vertex 12.7021 21.0345 1.5
      vertex 12.4414 21.0128 1.5
    endloop
  endfacet
  facet normal -0.143862 0.989598 0
    outer loop
      vertex 12.4414 21.0128 1.5
      vertex 12.1928 20.9767 7
      vertex 12.4414 21.0128 7
    endloop
  endfacet
  facet normal -0.143862 0.989598 0
    outer loop
      vertex 12.1928 20.9767 7
      vertex 12.4414 21.0128 1.5
      vertex 12.1928 20.9767 1.5
    endloop
  endfacet
  facet normal -0.209158 0.977882 0
    outer loop
      vertex 12.1928 20.9767 1.5
      vertex 11.9564 20.9261 7
      vertex 12.1928 20.9767 7
    endloop
  endfacet
  facet normal -0.209158 0.977882 0
    outer loop
      vertex 11.9564 20.9261 7
      vertex 12.1928 20.9767 1.5
      vertex 11.9564 20.9261 1.5
    endloop
  endfacet
  facet normal -0.278404 0.960464 0
    outer loop
      vertex 11.9564 20.9261 1.5
      vertex 11.7321 20.8611 7
      vertex 11.9564 20.9261 7
    endloop
  endfacet
  facet normal -0.278404 0.960464 0
    outer loop
      vertex 11.7321 20.8611 7
      vertex 11.9564 20.9261 1.5
      vertex 11.7321 20.8611 1.5
    endloop
  endfacet
  facet normal -0.350725 0.936479 0
    outer loop
      vertex 11.7321 20.8611 1.5
      vertex 11.5199 20.7817 7
      vertex 11.7321 20.8611 7
    endloop
  endfacet
  facet normal -0.350725 0.936479 0
    outer loop
      vertex 11.5199 20.7817 7
      vertex 11.7321 20.8611 1.5
      vertex 11.5199 20.7817 1.5
    endloop
  endfacet
  facet normal -0.424956 0.905214 0
    outer loop
      vertex 11.5199 20.7817 1.5
      vertex 11.3199 20.6877 7
      vertex 11.5199 20.7817 7
    endloop
  endfacet
  facet normal -0.424956 0.905214 0
    outer loop
      vertex 11.3199 20.6877 7
      vertex 11.5199 20.7817 1.5
      vertex 11.3199 20.6877 1.5
    endloop
  endfacet
  facet normal -0.48919 0.872177 0
    outer loop
      vertex 11.3199 20.6877 1.5
      vertex 11.1286 20.5805 7
      vertex 11.3199 20.6877 7
    endloop
  endfacet
  facet normal -0.48919 0.872177 0
    outer loop
      vertex 11.1286 20.5805 7
      vertex 11.3199 20.6877 1.5
      vertex 11.1286 20.5805 1.5
    endloop
  endfacet
  facet normal -0.541648 0.840605 0
    outer loop
      vertex 11.1286 20.5805 1.5
      vertex 10.9424 20.4605 7
      vertex 11.1286 20.5805 7
    endloop
  endfacet
  facet normal -0.541648 0.840605 0
    outer loop
      vertex 10.9424 20.4605 7
      vertex 11.1286 20.5805 1.5
      vertex 10.9424 20.4605 1.5
    endloop
  endfacet
  facet normal -0.590999 0.806673 0
    outer loop
      vertex 10.9424 20.4605 1.5
      vertex 10.7611 20.3277 7
      vertex 10.9424 20.4605 7
    endloop
  endfacet
  facet normal -0.590999 0.806673 0
    outer loop
      vertex 10.7611 20.3277 7
      vertex 10.9424 20.4605 1.5
      vertex 10.7611 20.3277 1.5
    endloop
  endfacet
  facet normal -0.636731 0.771086 0
    outer loop
      vertex 10.7611 20.3277 1.5
      vertex 10.5849 20.1821 7
      vertex 10.7611 20.3277 7
    endloop
  endfacet
  facet normal -0.636731 0.771086 0
    outer loop
      vertex 10.5849 20.1821 7
      vertex 10.7611 20.3277 1.5
      vertex 10.5849 20.1821 1.5
    endloop
  endfacet
  facet normal -0.678796 0.734327 0
    outer loop
      vertex 10.5849 20.1821 1.5
      vertex 10.4135 20.0238 7
      vertex 10.5849 20.1821 7
    endloop
  endfacet
  facet normal -0.678796 0.734327 0
    outer loop
      vertex 10.4135 20.0238 7
      vertex 10.5849 20.1821 1.5
      vertex 10.4135 20.0238 1.5
    endloop
  endfacet
  facet normal -0.717043 0.697029 0
    outer loop
      vertex 10.2472 19.8526 1.5
      vertex 10.4135 20.0238 7
      vertex 10.4135 20.0238 1.5
    endloop
  endfacet
  facet normal -0.717043 0.697029 0
    outer loop
      vertex 10.4135 20.0238 7
      vertex 10.2472 19.8526 1.5
      vertex 10.2472 19.8526 7
    endloop
  endfacet
  facet normal -0.751695 0.659511 0
    outer loop
      vertex 10.0859 19.6687 1.5
      vertex 10.2472 19.8526 7
      vertex 10.2472 19.8526 1.5
    endloop
  endfacet
  facet normal -0.751695 0.659511 0
    outer loop
      vertex 10.2472 19.8526 7
      vertex 10.0859 19.6687 1.5
      vertex 10.0859 19.6687 7
    endloop
  endfacet
  facet normal -0.774275 0.632849 0
    outer loop
      vertex 9.92896 19.4768 1.5
      vertex 10.0859 19.6687 7
      vertex 10.0859 19.6687 1.5
    endloop
  endfacet
  facet normal -0.774275 0.632849 0
    outer loop
      vertex 10.0859 19.6687 7
      vertex 9.92896 19.4768 1.5
      vertex 9.92896 19.4768 7
    endloop
  endfacet
  facet normal -0.787992 0.615686 0
    outer loop
      vertex 9.77591 19.2809 1.5
      vertex 9.92896 19.4768 7
      vertex 9.92896 19.4768 1.5
    endloop
  endfacet
  facet normal -0.787992 0.615686 0
    outer loop
      vertex 9.92896 19.4768 7
      vertex 9.77591 19.2809 1.5
      vertex 9.77591 19.2809 7
    endloop
  endfacet
  facet normal -0.801283 0.598285 0
    outer loop
      vertex 9.62674 19.0811 1.5
      vertex 9.77591 19.2809 7
      vertex 9.77591 19.2809 1.5
    endloop
  endfacet
  facet normal -0.801283 0.598285 0
    outer loop
      vertex 9.77591 19.2809 7
      vertex 9.62674 19.0811 1.5
      vertex 9.62674 19.0811 7
    endloop
  endfacet
  facet normal -0.814178 0.580615 0
    outer loop
      vertex 9.48146 18.8774 1.5
      vertex 9.62674 19.0811 7
      vertex 9.62674 19.0811 1.5
    endloop
  endfacet
  facet normal -0.814178 0.580615 0
    outer loop
      vertex 9.62674 19.0811 7
      vertex 9.48146 18.8774 1.5
      vertex 9.48146 18.8774 7
    endloop
  endfacet
  facet normal -0.826524 0.562901 0
    outer loop
      vertex 9.34006 18.6698 1.5
      vertex 9.48146 18.8774 7
      vertex 9.48146 18.8774 1.5
    endloop
  endfacet
  facet normal -0.826524 0.562901 0
    outer loop
      vertex 9.48146 18.8774 7
      vertex 9.34006 18.6698 1.5
      vertex 9.34006 18.6698 7
    endloop
  endfacet
  facet normal -0.838395 0.545063 0
    outer loop
      vertex 9.20251 18.4582 1.5
      vertex 9.34006 18.6698 7
      vertex 9.34006 18.6698 1.5
    endloop
  endfacet
  facet normal -0.838395 0.545063 0
    outer loop
      vertex 9.34006 18.6698 7
      vertex 9.20251 18.4582 1.5
      vertex 9.20251 18.4582 7
    endloop
  endfacet
  facet normal -0.849795 0.527113 0
    outer loop
      vertex 9.06886 18.2427 1.5
      vertex 9.20251 18.4582 7
      vertex 9.20251 18.4582 1.5
    endloop
  endfacet
  facet normal -0.849795 0.527113 0
    outer loop
      vertex 9.20251 18.4582 7
      vertex 9.06886 18.2427 1.5
      vertex 9.06886 18.2427 7
    endloop
  endfacet
  facet normal -0.854666 0.519178 0
    outer loop
      vertex 7.92987 16.3677 1.5
      vertex 9.06886 18.2427 7
      vertex 9.06886 18.2427 1.5
    endloop
  endfacet
  facet normal -0.854666 0.519178 0
    outer loop
      vertex 9.06886 18.2427 7
      vertex 7.92987 16.3677 1.5
      vertex 7.92987 16.3677 7
    endloop
  endfacet
  facet normal -0.849282 0.52794 0
    outer loop
      vertex 0.411865 4.27374 1.5
      vertex 7.92987 16.3677 7
      vertex 7.92987 16.3677 1.5
    endloop
  endfacet
  facet normal -0.849282 0.52794 0
    outer loop
      vertex 7.92987 16.3677 7
      vertex 0.411865 4.27374 1.5
      vertex 0.411865 4.27374 7
    endloop
  endfacet
  facet normal 0.851862 0.523767 0
    outer loop
      vertex 0.411865 4.27374 7
      vertex -7.02412 16.3677 1.5
      vertex -7.02412 16.3677 7
    endloop
  endfacet
  facet normal 0.851862 0.523767 0
    outer loop
      vertex -7.02412 16.3677 1.5
      vertex 0.411865 4.27374 7
      vertex 0.411865 4.27374 1.5
    endloop
  endfacet
  facet normal 0.850607 0.525802 0
    outer loop
      vertex -7.02412 16.3677 7
      vertex -7.49498 17.1295 1.5
      vertex -7.49498 17.1295 7
    endloop
  endfacet
  facet normal 0.850607 0.525802 0
    outer loop
      vertex -7.49498 17.1295 1.5
      vertex -7.02412 16.3677 7
      vertex -7.02412 16.3677 1.5
    endloop
  endfacet
  facet normal 0.84387 0.536547 0
    outer loop
      vertex -7.49498 17.1295 7
      vertex -7.93097 17.8152 1.5
      vertex -7.93097 17.8152 7
    endloop
  endfacet
  facet normal 0.84387 0.536547 0
    outer loop
      vertex -7.93097 17.8152 1.5
      vertex -7.49498 17.1295 7
      vertex -7.49498 17.1295 1.5
    endloop
  endfacet
  facet normal 0.835399 0.549643 0
    outer loop
      vertex -7.93097 17.8152 7
      vertex -8.33212 18.4249 1.5
      vertex -8.33212 18.4249 7
    endloop
  endfacet
  facet normal 0.835399 0.549643 0
    outer loop
      vertex -8.33212 18.4249 1.5
      vertex -7.93097 17.8152 7
      vertex -7.93097 17.8152 1.5
    endloop
  endfacet
  facet normal 0.824508 0.56585 0
    outer loop
      vertex -8.33212 18.4249 7
      vertex -8.69841 18.9586 1.5
      vertex -8.69841 18.9586 7
    endloop
  endfacet
  facet normal 0.824508 0.56585 0
    outer loop
      vertex -8.69841 18.9586 1.5
      vertex -8.33212 18.4249 7
      vertex -8.33212 18.4249 1.5
    endloop
  endfacet
  facet normal 0.809967 0.586475 0
    outer loop
      vertex -8.69841 18.9586 7
      vertex -9.02983 19.4163 1.5
      vertex -9.02983 19.4163 7
    endloop
  endfacet
  facet normal 0.809967 0.586475 0
    outer loop
      vertex -9.02983 19.4163 1.5
      vertex -8.69841 18.9586 7
      vertex -8.69841 18.9586 1.5
    endloop
  endfacet
  facet normal 0.789672 0.61353 0
    outer loop
      vertex -9.02983 19.4163 7
      vertex -9.3264 19.798 1.5
      vertex -9.3264 19.798 7
    endloop
  endfacet
  facet normal 0.789672 0.61353 0
    outer loop
      vertex -9.3264 19.798 1.5
      vertex -9.02983 19.4163 7
      vertex -9.02983 19.4163 1.5
    endloop
  endfacet
  facet normal 0.759647 0.650335 0
    outer loop
      vertex -9.3264 19.798 7
      vertex -9.58812 20.1037 1.5
      vertex -9.58812 20.1037 7
    endloop
  endfacet
  facet normal 0.759647 0.650335 0
    outer loop
      vertex -9.58812 20.1037 1.5
      vertex -9.3264 19.798 7
      vertex -9.3264 19.798 1.5
    endloop
  endfacet
  facet normal 0.690997 0.722858 -0
    outer loop
      vertex -9.58812 20.1037 1.5
      vertex -9.84845 20.3526 7
      vertex -9.58812 20.1037 7
    endloop
  endfacet
  facet normal 0.690997 0.722858 0
    outer loop
      vertex -9.84845 20.3526 7
      vertex -9.58812 20.1037 1.5
      vertex -9.84845 20.3526 1.5
    endloop
  endfacet
  facet normal 0.583636 0.812015 -0
    outer loop
      vertex -9.84845 20.3526 1.5
      vertex -10.1414 20.5632 7
      vertex -9.84845 20.3526 7
    endloop
  endfacet
  facet normal 0.583636 0.812015 0
    outer loop
      vertex -10.1414 20.5632 7
      vertex -9.84845 20.3526 1.5
      vertex -10.1414 20.5632 1.5
    endloop
  endfacet
  facet normal 0.467656 0.883911 -0
    outer loop
      vertex -10.1414 20.5632 1.5
      vertex -10.4671 20.7355 7
      vertex -10.1414 20.5632 7
    endloop
  endfacet
  facet normal 0.467656 0.883911 0
    outer loop
      vertex -10.4671 20.7355 7
      vertex -10.1414 20.5632 1.5
      vertex -10.4671 20.7355 1.5
    endloop
  endfacet
  facet normal 0.350306 0.936635 -0
    outer loop
      vertex -10.4671 20.7355 1.5
      vertex -10.8253 20.8695 7
      vertex -10.4671 20.7355 7
    endloop
  endfacet
  facet normal 0.350306 0.936635 0
    outer loop
      vertex -10.8253 20.8695 7
      vertex -10.4671 20.7355 1.5
      vertex -10.8253 20.8695 1.5
    endloop
  endfacet
  facet normal 0.237787 0.971317 -0
    outer loop
      vertex -10.8253 20.8695 1.5
      vertex -11.2163 20.9652 7
      vertex -10.8253 20.8695 7
    endloop
  endfacet
  facet normal 0.237787 0.971317 0
    outer loop
      vertex -11.2163 20.9652 7
      vertex -10.8253 20.8695 1.5
      vertex -11.2163 20.9652 1.5
    endloop
  endfacet
  facet normal 0.134357 0.990933 -0
    outer loop
      vertex -11.2163 20.9652 1.5
      vertex -11.6399 21.0226 7
      vertex -11.2163 20.9652 7
    endloop
  endfacet
  facet normal 0.134357 0.990933 0
    outer loop
      vertex -11.6399 21.0226 7
      vertex -11.2163 20.9652 1.5
      vertex -11.6399 21.0226 1.5
    endloop
  endfacet
  facet normal 0.0419363 0.99912 -0
    outer loop
      vertex -11.6399 21.0226 1.5
      vertex -12.0961 21.0417 7
      vertex -11.6399 21.0226 7
    endloop
  endfacet
  facet normal 0.0419363 0.99912 0
    outer loop
      vertex -12.0961 21.0417 7
      vertex -11.6399 21.0226 1.5
      vertex -12.0961 21.0417 1.5
    endloop
  endfacet
  facet normal -0.0466489 0.998911 0
    outer loop
      vertex -12.0961 21.0417 1.5
      vertex -12.5356 21.0212 7
      vertex -12.0961 21.0417 7
    endloop
  endfacet
  facet normal -0.0466489 0.998911 0
    outer loop
      vertex -12.5356 21.0212 7
      vertex -12.0961 21.0417 1.5
      vertex -12.5356 21.0212 1.5
    endloop
  endfacet
  facet normal -0.145284 0.98939 0
    outer loop
      vertex -12.5356 21.0212 1.5
      vertex -12.9546 20.9597 7
      vertex -12.5356 21.0212 7
    endloop
  endfacet
  facet normal -0.145284 0.98939 0
    outer loop
      vertex -12.9546 20.9597 7
      vertex -12.5356 21.0212 1.5
      vertex -12.9546 20.9597 1.5
    endloop
  endfacet
  facet normal -0.249231 0.968444 0
    outer loop
      vertex -12.9546 20.9597 1.5
      vertex -13.3531 20.8571 7
      vertex -12.9546 20.9597 7
    endloop
  endfacet
  facet normal -0.249231 0.968444 0
    outer loop
      vertex -13.3531 20.8571 7
      vertex -12.9546 20.9597 1.5
      vertex -13.3531 20.8571 1.5
    endloop
  endfacet
  facet normal -0.355074 0.934838 0
    outer loop
      vertex -13.3531 20.8571 1.5
      vertex -13.731 20.7136 7
      vertex -13.3531 20.8571 7
    endloop
  endfacet
  facet normal -0.355074 0.934838 0
    outer loop
      vertex -13.731 20.7136 7
      vertex -13.3531 20.8571 1.5
      vertex -13.731 20.7136 1.5
    endloop
  endfacet
  facet normal -0.458766 0.888557 0
    outer loop
      vertex -13.731 20.7136 1.5
      vertex -14.0886 20.529 7
      vertex -13.731 20.7136 7
    endloop
  endfacet
  facet normal -0.458766 0.888557 0
    outer loop
      vertex -14.0886 20.529 7
      vertex -13.731 20.7136 1.5
      vertex -14.0886 20.529 1.5
    endloop
  endfacet
  facet normal -0.556297 0.830984 0
    outer loop
      vertex -14.0886 20.529 1.5
      vertex -14.4256 20.3034 7
      vertex -14.0886 20.529 7
    endloop
  endfacet
  facet normal -0.556297 0.830984 0
    outer loop
      vertex -14.4256 20.3034 7
      vertex -14.0886 20.529 1.5
      vertex -14.4256 20.3034 1.5
    endloop
  endfacet
  facet normal -0.644252 0.764814 0
    outer loop
      vertex -14.4256 20.3034 1.5
      vertex -14.7421 20.0367 7
      vertex -14.4256 20.3034 7
    endloop
  endfacet
  facet normal -0.644252 0.764814 0
    outer loop
      vertex -14.7421 20.0367 7
      vertex -14.4256 20.3034 1.5
      vertex -14.7421 20.0367 1.5
    endloop
  endfacet
  facet normal -0.719778 0.694205 0
    outer loop
      vertex -15.0263 19.7421 1.5
      vertex -14.7421 20.0367 7
      vertex -14.7421 20.0367 1.5
    endloop
  endfacet
  facet normal -0.719778 0.694205 0
    outer loop
      vertex -14.7421 20.0367 7
      vertex -15.0263 19.7421 1.5
      vertex -15.0263 19.7421 7
    endloop
  endfacet
  facet normal -0.790304 0.612715 0
    outer loop
      vertex -15.2667 19.432 1.5
      vertex -15.0263 19.7421 7
      vertex -15.0263 19.7421 1.5
    endloop
  endfacet
  facet normal -0.790304 0.612715 0
    outer loop
      vertex -15.0263 19.7421 7
      vertex -15.2667 19.432 1.5
      vertex -15.2667 19.432 7
    endloop
  endfacet
  facet normal -0.855943 0.517071 0
    outer loop
      vertex -15.4634 19.1064 1.5
      vertex -15.2667 19.432 7
      vertex -15.2667 19.432 1.5
    endloop
  endfacet
  facet normal -0.855943 0.517071 0
    outer loop
      vertex -15.2667 19.432 7
      vertex -15.4634 19.1064 1.5
      vertex -15.4634 19.1064 7
    endloop
  endfacet
  facet normal -0.912435 0.409222 0
    outer loop
      vertex -15.6164 18.7652 1.5
      vertex -15.4634 19.1064 7
      vertex -15.4634 19.1064 1.5
    endloop
  endfacet
  facet normal -0.912435 0.409222 0
    outer loop
      vertex -15.4634 19.1064 7
      vertex -15.6164 18.7652 1.5
      vertex -15.6164 18.7652 7
    endloop
  endfacet
  facet normal -0.95612 0.292976 0
    outer loop
      vertex -15.7257 18.4086 1.5
      vertex -15.6164 18.7652 7
      vertex -15.6164 18.7652 1.5
    endloop
  endfacet
  facet normal -0.95612 0.292976 0
    outer loop
      vertex -15.6164 18.7652 7
      vertex -15.7257 18.4086 1.5
      vertex -15.7257 18.4086 7
    endloop
  endfacet
  facet normal -0.984833 0.173507 0
    outer loop
      vertex -15.7913 18.0364 1.5
      vertex -15.7257 18.4086 7
      vertex -15.7257 18.4086 1.5
    endloop
  endfacet
  facet normal -0.984833 0.173507 0
    outer loop
      vertex -15.7257 18.4086 7
      vertex -15.7913 18.0364 1.5
      vertex -15.7913 18.0364 7
    endloop
  endfacet
  facet normal -0.998415 0.0562731 0
    outer loop
      vertex -15.8131 17.6487 1.5
      vertex -15.7913 18.0364 7
      vertex -15.7913 18.0364 1.5
    endloop
  endfacet
  facet normal -0.998415 0.0562731 0
    outer loop
      vertex -15.7913 18.0364 7
      vertex -15.8131 17.6487 1.5
      vertex -15.8131 17.6487 7
    endloop
  endfacet
  facet normal -0.999045 -0.0436947 0
    outer loop
      vertex -15.8023 17.4021 1.5
      vertex -15.8131 17.6487 7
      vertex -15.8131 17.6487 1.5
    endloop
  endfacet
  facet normal -0.999045 -0.0436947 0
    outer loop
      vertex -15.8131 17.6487 7
      vertex -15.8023 17.4021 1.5
      vertex -15.8023 17.4021 7
    endloop
  endfacet
  facet normal -0.992257 -0.1242 0
    outer loop
      vertex -15.7699 17.1433 1.5
      vertex -15.8023 17.4021 7
      vertex -15.8023 17.4021 1.5
    endloop
  endfacet
  facet normal -0.992257 -0.1242 0
    outer loop
      vertex -15.8023 17.4021 7
      vertex -15.7699 17.1433 1.5
      vertex -15.7699 17.1433 7
    endloop
  endfacet
  facet normal -0.980738 -0.19533 0
    outer loop
      vertex -15.716 16.8723 1.5
      vertex -15.7699 17.1433 7
      vertex -15.7699 17.1433 1.5
    endloop
  endfacet
  facet normal -0.980738 -0.19533 0
    outer loop
      vertex -15.7699 17.1433 7
      vertex -15.716 16.8723 1.5
      vertex -15.716 16.8723 7
    endloop
  endfacet
  facet normal -0.966174 -0.257893 0
    outer loop
      vertex -15.6404 16.5892 1.5
      vertex -15.716 16.8723 7
      vertex -15.716 16.8723 1.5
    endloop
  endfacet
  facet normal -0.966174 -0.257893 0
    outer loop
      vertex -15.716 16.8723 7
      vertex -15.6404 16.5892 1.5
      vertex -15.6404 16.5892 7
    endloop
  endfacet
  facet normal -0.949903 -0.312544 0
    outer loop
      vertex -15.5432 16.2938 1.5
      vertex -15.6404 16.5892 7
      vertex -15.6404 16.5892 1.5
    endloop
  endfacet
  facet normal -0.949903 -0.312544 0
    outer loop
      vertex -15.6404 16.5892 7
      vertex -15.5432 16.2938 1.5
      vertex -15.5432 16.2938 7
    endloop
  endfacet
  facet normal -0.932848 -0.360269 0
    outer loop
      vertex -15.4245 15.9864 1.5
      vertex -15.5432 16.2938 7
      vertex -15.5432 16.2938 1.5
    endloop
  endfacet
  facet normal -0.932848 -0.360269 0
    outer loop
      vertex -15.5432 16.2938 7
      vertex -15.4245 15.9864 1.5
      vertex -15.4245 15.9864 7
    endloop
  endfacet
  facet normal -0.915616 -0.402054 0
    outer loop
      vertex -15.2841 15.6667 1.5
      vertex -15.4245 15.9864 7
      vertex -15.4245 15.9864 1.5
    endloop
  endfacet
  facet normal -0.915616 -0.402054 0
    outer loop
      vertex -15.4245 15.9864 7
      vertex -15.2841 15.6667 1.5
      vertex -15.2841 15.6667 7
    endloop
  endfacet
  facet normal -0.900251 -0.435371 0
    outer loop
      vertex -15.1178 15.3227 1.5
      vertex -15.2841 15.6667 7
      vertex -15.2841 15.6667 1.5
    endloop
  endfacet
  facet normal -0.900251 -0.435371 0
    outer loop
      vertex -15.2841 15.6667 7
      vertex -15.1178 15.3227 1.5
      vertex -15.1178 15.3227 7
    endloop
  endfacet
  facet normal -0.88824 -0.45938 0
    outer loop
      vertex -14.9209 14.9422 1.5
      vertex -15.1178 15.3227 7
      vertex -15.1178 15.3227 1.5
    endloop
  endfacet
  facet normal -0.88824 -0.45938 0
    outer loop
      vertex -15.1178 15.3227 7
      vertex -14.9209 14.9422 1.5
      vertex -14.9209 14.9422 7
    endloop
  endfacet
  facet normal -0.878134 -0.478415 0
    outer loop
      vertex -14.6937 14.525 1.5
      vertex -14.9209 14.9422 7
      vertex -14.9209 14.9422 1.5
    endloop
  endfacet
  facet normal -0.878134 -0.478415 0
    outer loop
      vertex -14.9209 14.9422 7
      vertex -14.6937 14.525 1.5
      vertex -14.6937 14.525 7
    endloop
  endfacet
  facet normal -0.869523 -0.493892 0
    outer loop
      vertex -14.436 14.0713 1.5
      vertex -14.6937 14.525 7
      vertex -14.6937 14.525 1.5
    endloop
  endfacet
  facet normal -0.869523 -0.493892 0
    outer loop
      vertex -14.6937 14.525 7
      vertex -14.436 14.0713 1.5
      vertex -14.436 14.0713 7
    endloop
  endfacet
  facet normal -0.862124 -0.506698 0
    outer loop
      vertex -14.1478 13.581 1.5
      vertex -14.436 14.0713 7
      vertex -14.436 14.0713 1.5
    endloop
  endfacet
  facet normal -0.862124 -0.506698 0
    outer loop
      vertex -14.436 14.0713 7
      vertex -14.1478 13.581 1.5
      vertex -14.1478 13.581 7
    endloop
  endfacet
  facet normal -0.855692 -0.517485 0
    outer loop
      vertex -13.8292 13.0542 1.5
      vertex -14.1478 13.581 7
      vertex -14.1478 13.581 1.5
    endloop
  endfacet
  facet normal -0.855692 -0.517485 0
    outer loop
      vertex -14.1478 13.581 7
      vertex -13.8292 13.0542 1.5
      vertex -13.8292 13.0542 7
    endloop
  endfacet
  facet normal -0.850083 -0.526649 0
    outer loop
      vertex -13.4801 12.4907 1.5
      vertex -13.8292 13.0542 7
      vertex -13.8292 13.0542 1.5
    endloop
  endfacet
  facet normal -0.850083 -0.526649 0
    outer loop
      vertex -13.8292 13.0542 7
      vertex -13.4801 12.4907 1.5
      vertex -13.4801 12.4907 7
    endloop
  endfacet
  facet normal -0.840509 -0.541798 0
    outer loop
      vertex -3.76912 -2.57425 1.5
      vertex -13.4801 12.4907 7
      vertex -13.4801 12.4907 1.5
    endloop
  endfacet
  facet normal -0.840509 -0.541798 0
    outer loop
      vertex -13.4801 12.4907 7
      vertex -3.76912 -2.57425 1.5
      vertex -3.76912 -2.57425 7
    endloop
  endfacet
  facet normal -1 0 0
    outer loop
      vertex -3.76912 -15.1972 1.5
      vertex -3.76912 -2.57425 7
      vertex -3.76912 -2.57425 1.5
    endloop
  endfacet
  facet normal -1 -0 0
    outer loop
      vertex -3.76912 -2.57425 7
      vertex -3.76912 -15.1972 1.5
      vertex -3.76912 -15.1972 7
    endloop
  endfacet
  facet normal -0.999454 -0.0330473 0
    outer loop
      vertex -3.7464 -15.8844 1.5
      vertex -3.76912 -15.1972 7
      vertex -3.76912 -15.1972 1.5
    endloop
  endfacet
  facet normal -0.999454 -0.0330473 0
    outer loop
      vertex -3.76912 -15.1972 7
      vertex -3.7464 -15.8844 1.5
      vertex -3.7464 -15.8844 7
    endloop
  endfacet
  facet normal -0.994282 -0.106786 0
    outer loop
      vertex -3.67825 -16.5189 1.5
      vertex -3.7464 -15.8844 7
      vertex -3.7464 -15.8844 1.5
    endloop
  endfacet
  facet normal -0.994282 -0.106786 0
    outer loop
      vertex -3.7464 -15.8844 7
      vertex -3.67825 -16.5189 1.5
      vertex -3.67825 -16.5189 7
    endloop
  endfacet
  facet normal -0.981481 -0.191561 0
    outer loop
      vertex -3.56468 -17.1008 1.5
      vertex -3.67825 -16.5189 7
      vertex -3.67825 -16.5189 1.5
    endloop
  endfacet
  facet normal -0.981481 -0.191561 0
    outer loop
      vertex -3.67825 -16.5189 7
      vertex -3.56468 -17.1008 1.5
      vertex -3.56468 -17.1008 7
    endloop
  endfacet
  facet normal -0.957723 -0.287692 0
    outer loop
      vertex -3.40569 -17.6301 1.5
      vertex -3.56468 -17.1008 7
      vertex -3.56468 -17.1008 1.5
    endloop
  endfacet
  facet normal -0.957723 -0.287692 0
    outer loop
      vertex -3.56468 -17.1008 7
      vertex -3.40569 -17.6301 1.5
      vertex -3.40569 -17.6301 7
    endloop
  endfacet
  facet normal -0.919051 -0.394139 0
    outer loop
      vertex -3.20126 -18.1067 1.5
      vertex -3.40569 -17.6301 7
      vertex -3.40569 -17.6301 1.5
    endloop
  endfacet
  facet normal -0.919051 -0.394139 0
    outer loop
      vertex -3.40569 -17.6301 7
      vertex -3.20126 -18.1067 1.5
      vertex -3.20126 -18.1067 7
    endloop
  endfacet
  facet normal -0.861563 -0.50765 0
    outer loop
      vertex -2.9514 -18.5308 1.5
      vertex -3.20126 -18.1067 7
      vertex -3.20126 -18.1067 1.5
    endloop
  endfacet
  facet normal -0.861563 -0.50765 0
    outer loop
      vertex -3.20126 -18.1067 7
      vertex -2.9514 -18.5308 1.5
      vertex -2.9514 -18.5308 7
    endloop
  endfacet
  facet normal -0.782785 -0.622292 0
    outer loop
      vertex -2.65611 -18.9022 1.5
      vertex -2.9514 -18.5308 7
      vertex -2.9514 -18.5308 1.5
    endloop
  endfacet
  facet normal -0.782785 -0.622292 0
    outer loop
      vertex -2.9514 -18.5308 7
      vertex -2.65611 -18.9022 1.5
      vertex -2.65611 -18.9022 7
    endloop
  endfacet
  facet normal -0.694696 -0.719303 0
    outer loop
      vertex -2.65611 -18.9022 1.5
      vertex -2.32426 -19.2227 7
      vertex -2.65611 -18.9022 7
    endloop
  endfacet
  facet normal -0.694696 -0.719303 -0
    outer loop
      vertex -2.32426 -19.2227 7
      vertex -2.65611 -18.9022 1.5
      vertex -2.32426 -19.2227 1.5
    endloop
  endfacet
  facet normal -0.602128 -0.798399 0
    outer loop
      vertex -2.32426 -19.2227 1.5
      vertex -1.96469 -19.4939 7
      vertex -2.32426 -19.2227 7
    endloop
  endfacet
  facet normal -0.602128 -0.798399 -0
    outer loop
      vertex -1.96469 -19.4939 7
      vertex -2.32426 -19.2227 1.5
      vertex -1.96469 -19.4939 1.5
    endloop
  endfacet
  facet normal -0.497107 -0.867689 0
    outer loop
      vertex -1.96469 -19.4939 1.5
      vertex -1.57741 -19.7158 7
      vertex -1.96469 -19.4939 7
    endloop
  endfacet
  facet normal -0.497107 -0.867689 -0
    outer loop
      vertex -1.57741 -19.7158 7
      vertex -1.96469 -19.4939 1.5
      vertex -1.57741 -19.7158 1.5
    endloop
  endfacet
  facet normal -0.383964 -0.923348 0
    outer loop
      vertex -1.57741 -19.7158 1.5
      vertex -1.1624 -19.8884 7
      vertex -1.57741 -19.7158 7
    endloop
  endfacet
  facet normal -0.383964 -0.923348 -0
    outer loop
      vertex -1.1624 -19.8884 7
      vertex -1.57741 -19.7158 1.5
      vertex -1.1624 -19.8884 1.5
    endloop
  endfacet
  facet normal -0.268224 -0.963356 0
    outer loop
      vertex -1.1624 -19.8884 1.5
      vertex -0.719696 -20.0116 7
      vertex -1.1624 -19.8884 7
    endloop
  endfacet
  facet normal -0.268224 -0.963356 -0
    outer loop
      vertex -0.719696 -20.0116 7
      vertex -1.1624 -19.8884 1.5
      vertex -0.719696 -20.0116 1.5
    endloop
  endfacet
  facet normal -0.155309 -0.987866 0
    outer loop
      vertex -0.719696 -20.0116 1.5
      vertex -0.249268 -20.0856 7
      vertex -0.719696 -20.0116 7
    endloop
  endfacet
  facet normal -0.155309 -0.987866 -0
    outer loop
      vertex -0.249268 -20.0856 7
      vertex -0.719696 -20.0116 1.5
      vertex -0.249268 -20.0856 1.5
    endloop
  endfacet
  facet normal -0.0494402 -0.998777 0
    outer loop
      vertex -0.249268 -20.0856 1.5
      vertex 0.248871 -20.1102 7
      vertex -0.249268 -20.0856 7
    endloop
  endfacet
  facet normal -0.0494402 -0.998777 -0
    outer loop
      vertex 0.248871 -20.1102 7
      vertex -0.249268 -20.0856 1.5
      vertex 0.248871 -20.1102 1.5
    endloop
  endfacet
  facet normal 0.0506288 -0.998718 0
    outer loop
      vertex 0.248871 -20.1102 1.5
      vertex 0.740402 -20.0853 7
      vertex 0.248871 -20.1102 7
    endloop
  endfacet
  facet normal 0.0506288 -0.998718 0
    outer loop
      vertex 0.740402 -20.0853 7
      vertex 0.248871 -20.1102 1.5
      vertex 0.740402 -20.0853 1.5
    endloop
  endfacet
endsolid OpenSCAD_Model
