solid OpenSCAD_Model
  facet normal -1 0 0
    outer loop
      vertex -25 25 -5
      vertex -25 8.15 23.2
      vertex -25 25 25
    endloop
  endfacet
  facet normal -1 0 0
    outer loop
      vertex -25 25 -5
      vertex -25 -8.15 23.2
      vertex -25 8.15 23.2
    endloop
  endfacet
  facet normal -1 0 0
    outer loop
      vertex -25 -25 -5
      vertex -25 -8.15 23.2
      vertex -25 25 -5
    endloop
  endfacet
  facet normal -1 0 0
    outer loop
      vertex -25 -25 25
      vertex -25 -8.15 23.2
      vertex -25 -25 -5
    endloop
  endfacet
  facet normal -1 0 0
    outer loop
      vertex -25 -8.15 23.2
      vertex -25 -25 25
      vertex -25 -8.15 25
    endloop
  endfacet
  facet normal -1 -0 0
    outer loop
      vertex -25 25 25
      vertex -25 8.15 23.2
      vertex -25 8.15 25
    endloop
  endfacet
  facet normal -3.16367e-22 1.22465e-16 1
    outer loop
      vertex 16.5867 15.996 -1.95895e-15
      vertex 24 24 -2.93915e-15
      vertex 16.6112 16.449 -2.01442e-15
    endloop
  endfacet
  facet normal 1.72807e-22 1.22464e-16 1
    outer loop
      vertex 24 24 -2.93915e-15
      vertex 16.587 16.9086 -2.0707e-15
      vertex 16.6112 16.449 -2.01442e-15
    endloop
  endfacet
  facet normal -2.58193e-22 1.22465e-16 1
    outer loop
      vertex 24 24 -2.93915e-15
      vertex 16.5239 17.2952 -2.11805e-15
      vertex 16.587 16.9086 -2.0707e-15
    endloop
  endfacet
  facet normal 1.5137e-21 1.22463e-16 1
    outer loop
      vertex 24 24 -2.93915e-15
      vertex 16.5145 17.3445 -2.12409e-15
      vertex 16.5239 17.2952 -2.11805e-15
    endloop
  endfacet
  facet normal -8.96084e-23 1.22465e-16 1
    outer loop
      vertex 24 24 -2.93915e-15
      vertex 16.4093 17.7084 -2.16865e-15
      vertex 16.5145 17.3445 -2.12409e-15
    endloop
  endfacet
  facet normal 1.55695e-21 1.22463e-16 1
    outer loop
      vertex 24 24 -2.93915e-15
      vertex 16.3937 17.7561 -2.1745e-15
      vertex 16.4093 17.7084 -2.16865e-15
    endloop
  endfacet
  facet normal -3.16852e-22 1.22465e-16 1
    outer loop
      vertex 24 24 -2.93915e-15
      vertex 16.2465 18.0971 -2.21626e-15
      vertex 16.3937 17.7561 -2.1745e-15
    endloop
  endfacet
  facet normal 1.00666e-21 1.22463e-16 1
    outer loop
      vertex 24 24 -2.93915e-15
      vertex 16.2251 18.1426 -2.22183e-15
      vertex 16.2465 18.0971 -2.21626e-15
    endloop
  endfacet
  facet normal -1.15595e-22 1.22465e-16 1
    outer loop
      vertex 24 24 -2.93915e-15
      vertex 16.0357 18.4608 -2.26079e-15
      vertex 16.2251 18.1426 -2.22183e-15
    endloop
  endfacet
  facet normal 3.20504e-22 1.22464e-16 1
    outer loop
      vertex 24 24 -2.93915e-15
      vertex 16.0088 18.5032 -2.26599e-15
      vertex 16.0357 18.4608 -2.26079e-15
    endloop
  endfacet
  facet normal -5.16983e-23 1.22465e-16 1
    outer loop
      vertex 24 24 -2.93915e-15
      vertex 15.7773 18.7986 -2.30216e-15
      vertex 16.0088 18.5032 -2.26599e-15
    endloop
  endfacet
  facet normal -1.07341e-22 1.22465e-16 1
    outer loop
      vertex 24 24 -2.93915e-15
      vertex 15.7453 18.8372 -2.3069e-15
      vertex 15.7773 18.7986 -2.30216e-15
    endloop
  endfacet
  facet normal 1.08296e-22 1.22464e-16 1
    outer loop
      vertex 24 24 -2.93915e-15
      vertex 15.4718 19.1098 -2.34028e-15
      vertex 15.7453 18.8372 -2.3069e-15
    endloop
  endfacet
  facet normal -1.21948e-21 1.22467e-16 1
    outer loop
      vertex 24 24 -2.93915e-15
      vertex 15.4352 19.1442 -2.34449e-15
      vertex 15.4718 19.1098 -2.34028e-15
    endloop
  endfacet
  facet normal 7.0722e-23 1.22465e-16 1
    outer loop
      vertex 24 24 -2.93915e-15
      vertex 15.1215 19.3867 -2.37418e-15
      vertex 15.4352 19.1442 -2.34449e-15
    endloop
  endfacet
  facet normal 9.20116e-22 1.22463e-16 1
    outer loop
      vertex 24 24 -2.93915e-15
      vertex 15.0809 19.4162 -2.3778e-15
      vertex 15.1215 19.3867 -2.37418e-15
    endloop
  endfacet
  facet normal 5.11024e-23 1.22465e-16 1
    outer loop
      vertex 24 24 -2.93915e-15
      vertex 14.7284 19.6214 -2.40293e-15
      vertex 15.0809 19.4162 -2.3778e-15
    endloop
  endfacet
  facet normal -7.26144e-22 1.22466e-16 1
    outer loop
      vertex 24 24 -2.93915e-15
      vertex 14.6844 19.6456 -2.40589e-15
      vertex 14.7284 19.6214 -2.40293e-15
    endloop
  endfacet
  facet normal 7.04508e-23 1.22465e-16 1
    outer loop
      vertex 24 24 -2.93915e-15
      vertex 14.2932 19.8135 -2.42645e-15
      vertex 14.6844 19.6456 -2.40589e-15
    endloop
  endfacet
  facet normal -1.63998e-21 1.22468e-16 1
    outer loop
      vertex 24 24 -2.93915e-15
      vertex 14.2465 19.832 -2.42871e-15
      vertex 14.2932 19.8135 -2.42645e-15
    endloop
  endfacet
  facet normal 8.94847e-23 1.22464e-16 1
    outer loop
      vertex 24 24 -2.93915e-15
      vertex 13.8165 19.9625 -2.4447e-15
      vertex 14.2465 19.832 -2.42871e-15
    endloop
  endfacet
  facet normal 7.20127e-22 1.22463e-16 1
    outer loop
      vertex 24 24 -2.93915e-15
      vertex 13.7678 19.975 -2.44623e-15
      vertex 13.8165 19.9625 -2.4447e-15
    endloop
  endfacet
  facet normal -2.31599e-22 1.22465e-16 1
    outer loop
      vertex 24 24 -2.93915e-15
      vertex 13.299 20.0683 -2.45766e-15
      vertex 13.7678 19.975 -2.44623e-15
    endloop
  endfacet
  facet normal 4.74773e-23 1.22465e-16 1
    outer loop
      vertex 24 24 -2.93915e-15
      vertex 12.7416 20.1305 -2.46528e-15
      vertex 13.299 20.0683 -2.45766e-15
    endloop
  endfacet
  facet normal 1.31336e-22 1.22464e-16 1
    outer loop
      vertex 24 24 -2.93915e-15
      vertex 12.1953 20.1492 -2.46757e-15
      vertex 12.7416 20.1305 -2.46528e-15
    endloop
  endfacet
  facet normal 0 1.22465e-16 1
    outer loop
      vertex 24 24 -2.93915e-15
      vertex -7.3069 20.1492 -2.46757e-15
      vertex 12.1953 20.1492 -2.46757e-15
    endloop
  endfacet
  facet normal -0 1.22465e-16 1
    outer loop
      vertex -24 24 -2.93915e-15
      vertex -7.3069 20.1492 -2.46757e-15
      vertex 24 24 -2.93915e-15
    endloop
  endfacet
  facet normal -5.99715e-23 1.22464e-16 1
    outer loop
      vertex -7.3069 20.1492 -2.46757e-15
      vertex -24 24 -2.93915e-15
      vertex -8.02927 20.1254 -2.46465e-15
    endloop
  endfacet
  facet normal -1.04598e-24 1.22465e-16 1
    outer loop
      vertex -24 -24 2.93915e-15
      vertex -12.6238 14.813 -1.81407e-15
      vertex -24 24 -2.93915e-15
    endloop
  endfacet
  facet normal 9.87394e-23 1.22465e-16 1
    outer loop
      vertex -12.6002 15.5277 -1.90159e-15
      vertex -24 24 -2.93915e-15
      vertex -12.6238 14.813 -1.81407e-15
    endloop
  endfacet
  facet normal -1.53847e-21 1.22463e-16 1
    outer loop
      vertex -12.5971 15.5778 -1.90773e-15
      vertex -24 24 -2.93915e-15
      vertex -12.6002 15.5277 -1.90159e-15
    endloop
  endfacet
  facet normal 1.83976e-22 1.22465e-16 1
    outer loop
      vertex -12.5264 16.2338 -1.98807e-15
      vertex -24 24 -2.93915e-15
      vertex -12.5971 15.5778 -1.90773e-15
    endloop
  endfacet
  facet normal -2.86284e-23 1.22465e-16 1
    outer loop
      vertex -12.3992 16.8805 -2.06727e-15
      vertex -24 24 -2.93915e-15
      vertex -12.5264 16.2338 -1.98807e-15
    endloop
  endfacet
  facet normal 3.29699e-23 1.22465e-16 1
    outer loop
      vertex -12.2189 17.467 -2.13909e-15
      vertex -24 24 -2.93915e-15
      vertex -12.3992 16.8805 -2.06727e-15
    endloop
  endfacet
  facet normal -1.34644e-22 1.22464e-16 1
    outer loop
      vertex -12.0069 17.9471 -2.19788e-15
      vertex -24 24 -2.93915e-15
      vertex -12.2189 17.467 -2.13909e-15
    endloop
  endfacet
  facet normal 1.15669e-21 1.22467e-16 1
    outer loop
      vertex -11.9855 17.9925 -2.20345e-15
      vertex -24 24 -2.93915e-15
      vertex -12.0069 17.9471 -2.19788e-15
    endloop
  endfacet
  facet normal -1.02816e-22 1.22464e-16 1
    outer loop
      vertex -11.6995 18.4563 -2.26025e-15
      vertex -24 24 -2.93915e-15
      vertex -11.9855 17.9925 -2.20345e-15
    endloop
  endfacet
  facet normal 2.32475e-23 1.22465e-16 1
    outer loop
      vertex -11.3614 18.8578 -2.30941e-15
      vertex -24 24 -2.93915e-15
      vertex -11.6995 18.4563 -2.26025e-15
    endloop
  endfacet
  facet normal 9.69641e-22 1.22467e-16 1
    outer loop
      vertex -11.3247 18.8922 -2.31363e-15
      vertex -24 24 -2.93915e-15
      vertex -11.3614 18.8578 -2.30941e-15
    endloop
  endfacet
  facet normal -4.78702e-23 1.22465e-16 1
    outer loop
      vertex -10.9648 19.2015 -2.35151e-15
      vertex -24 24 -2.93915e-15
      vertex -11.3247 18.8922 -2.31363e-15
    endloop
  endfacet
  facet normal -7.44666e-22 1.22463e-16 1
    outer loop
      vertex -10.9242 19.2311 -2.35513e-15
      vertex -24 24 -2.93915e-15
      vertex -10.9648 19.2015 -2.35151e-15
    endloop
  endfacet
  facet normal 6.49363e-23 1.22465e-16 1
    outer loop
      vertex -10.5039 19.4928 -2.38718e-15
      vertex -24 24 -2.93915e-15
      vertex -10.9242 19.2311 -2.35513e-15
    endloop
  endfacet
  facet normal 5.97017e-22 1.22466e-16 1
    outer loop
      vertex -10.4598 19.517 -2.39014e-15
      vertex -24 24 -2.93915e-15
      vertex -10.5039 19.4928 -2.38718e-15
    endloop
  endfacet
  facet normal 3.84242e-23 1.22465e-16 1
    outer loop
      vertex -9.97911 19.7312 -2.41637e-15
      vertex -24 24 -2.93915e-15
      vertex -10.4598 19.517 -2.39014e-15
    endloop
  endfacet
  facet normal -5.96956e-22 1.22463e-16 1
    outer loop
      vertex -9.9324 19.7497 -2.41864e-15
      vertex -24 24 -2.93915e-15
      vertex -9.97911 19.7312 -2.41637e-15
    endloop
  endfacet
  facet normal -6.47565e-23 1.22464e-16 1
    outer loop
      vertex -9.39125 19.9162 -2.43904e-15
      vertex -24 24 -2.93915e-15
      vertex -9.9324 19.7497 -2.41864e-15
    endloop
  endfacet
  facet normal 1.64817e-21 1.22471e-16 1
    outer loop
      vertex -9.34261 19.9287 -2.44057e-15
      vertex -24 24 -2.93915e-15
      vertex -9.39125 19.9162 -2.43904e-15
    endloop
  endfacet
  facet normal -1.03887e-22 1.22464e-16 1
    outer loop
      vertex -8.74106 20.0477 -2.45514e-15
      vertex -24 24 -2.93915e-15
      vertex -9.34261 19.9287 -2.44057e-15
    endloop
  endfacet
  facet normal 5.22556e-23 1.22465e-16 1
    outer loop
      vertex -8.02927 20.1254 -2.46465e-15
      vertex -24 24 -2.93915e-15
      vertex -8.74106 20.0477 -2.45514e-15
    endloop
  endfacet
  facet normal 5.72141e-22 1.22464e-16 1
    outer loop
      vertex 16.5228 15.6132 -1.91206e-15
      vertex 24 24 -2.93915e-15
      vertex 16.5867 15.996 -1.95895e-15
    endloop
  endfacet
  facet normal -3.29848e-21 1.22468e-16 1
    outer loop
      vertex 16.5134 15.5638 -1.90602e-15
      vertex 24 24 -2.93915e-15
      vertex 16.5228 15.6132 -1.91206e-15
    endloop
  endfacet
  facet normal -3.27987e-22 1.22465e-16 1
    outer loop
      vertex 16.4069 15.2009 -1.86158e-15
      vertex 24 24 -2.93915e-15
      vertex 16.5134 15.5638 -1.90602e-15
    endloop
  endfacet
  facet normal 4.46276e-21 1.22461e-16 1
    outer loop
      vertex 16.3914 15.1532 -1.85573e-15
      vertex 24 24 -2.93915e-15
      vertex 16.4069 15.2009 -1.86158e-15
    endloop
  endfacet
  facet normal -1.43239e-22 1.22465e-16 1
    outer loop
      vertex 16.2422 14.8103 -1.81374e-15
      vertex 24 24 -2.93915e-15
      vertex 16.3914 15.1532 -1.85573e-15
    endloop
  endfacet
  facet normal 4.86035e-21 1.22461e-16 1
    outer loop
      vertex 16.2208 14.7649 -1.80818e-15
      vertex 24 24 -2.93915e-15
      vertex 16.2422 14.8103 -1.81374e-15
    endloop
  endfacet
  facet normal -1.69763e-23 1.22465e-16 1
    outer loop
      vertex 24 24 -2.93915e-15
      vertex 16.2208 14.7649 -1.80818e-15
      vertex 24 -24 2.93915e-15
    endloop
  endfacet
  facet normal 1.56017e-22 1.22465e-16 1
    outer loop
      vertex 16.0291 14.442 -1.76864e-15
      vertex 24 -24 2.93915e-15
      vertex 16.2208 14.7649 -1.80818e-15
    endloop
  endfacet
  facet normal 2.1459e-21 1.22465e-16 1
    outer loop
      vertex 16.0021 14.3996 -1.76344e-15
      vertex 24 -24 2.93915e-15
      vertex 16.0291 14.442 -1.76864e-15
    endloop
  endfacet
  facet normal -2.66115e-22 1.22465e-16 1
    outer loop
      vertex 15.7678 14.0967 -1.72635e-15
      vertex 24 -24 2.93915e-15
      vertex 16.0021 14.3996 -1.76344e-15
    endloop
  endfacet
  facet normal 2.22111e-22 1.22465e-16 1
    outer loop
      vertex 15.7358 14.058 -1.72161e-15
      vertex 24 -24 2.93915e-15
      vertex 15.7678 14.0967 -1.72635e-15
    endloop
  endfacet
  facet normal 3.52397e-23 1.22465e-16 1
    outer loop
      vertex 15.4588 13.7752 -1.68697e-15
      vertex 24 -24 2.93915e-15
      vertex 15.7358 14.058 -1.72161e-15
    endloop
  endfacet
  facet normal 2.58943e-22 1.22465e-16 1
    outer loop
      vertex 15.4222 13.7408 -1.68276e-15
      vertex 24 -24 2.93915e-15
      vertex 15.4588 13.7752 -1.68697e-15
    endloop
  endfacet
  facet normal 5.97568e-24 1.22465e-16 1
    outer loop
      vertex 15.1053 13.4874 -1.65173e-15
      vertex 24 -24 2.93915e-15
      vertex 15.4222 13.7408 -1.68276e-15
    endloop
  endfacet
  facet normal 3.2473e-22 1.22465e-16 1
    outer loop
      vertex 15.0647 13.4579 -1.64812e-15
      vertex 24 -24 2.93915e-15
      vertex 15.1053 13.4874 -1.65173e-15
    endloop
  endfacet
  facet normal 7.01693e-23 1.22465e-16 1
    outer loop
      vertex 14.7108 13.2435 -1.62186e-15
      vertex 24 -24 2.93915e-15
      vertex 15.0647 13.4579 -1.64812e-15
    endloop
  endfacet
  facet normal -7.31007e-22 1.22464e-16 1
    outer loop
      vertex 14.6667 13.2193 -1.6189e-15
      vertex 24 -24 2.93915e-15
      vertex 14.7108 13.2435 -1.62186e-15
    endloop
  endfacet
  facet normal -3.27903e-23 1.22465e-16 1
    outer loop
      vertex 14.2757 13.0439 -1.59742e-15
      vertex 24 -24 2.93915e-15
      vertex 14.6667 13.2193 -1.6189e-15
    endloop
  endfacet
  facet normal 7.95929e-22 1.22465e-16 1
    outer loop
      vertex 14.229 13.0254 -1.59515e-15
      vertex 24 -24 2.93915e-15
      vertex 14.2757 13.0439 -1.59742e-15
    endloop
  endfacet
  facet normal 2.56595e-23 1.22465e-16 1
    outer loop
      vertex 13.8008 12.889 -1.57844e-15
      vertex 24 -24 2.93915e-15
      vertex 14.229 13.0254 -1.59515e-15
    endloop
  endfacet
  facet normal -1.11226e-21 1.22464e-16 1
    outer loop
      vertex 13.7522 12.8765 -1.57691e-15
      vertex 24 -24 2.93915e-15
      vertex 13.8008 12.889 -1.57844e-15
    endloop
  endfacet
  facet normal 7.68522e-23 1.22465e-16 1
    outer loop
      vertex 13.287 12.779 -1.56498e-15
      vertex 24 -24 2.93915e-15
      vertex 13.7522 12.8765 -1.57691e-15
    endloop
  endfacet
  facet normal -8.17425e-23 1.22465e-16 1
    outer loop
      vertex 12.7348 12.7143 -1.55705e-15
      vertex 24 -24 2.93915e-15
      vertex 13.287 12.779 -1.56498e-15
    endloop
  endfacet
  facet normal 4.02026e-23 1.22465e-16 1
    outer loop
      vertex -3.75978 -15.82 1.93739e-15
      vertex 12.7348 12.7143 -1.55705e-15
      vertex 12.1953 12.6948 -1.55466e-15
    endloop
  endfacet
  facet normal 0 1.22465e-16 1
    outer loop
      vertex -3.75978 -15.82 1.93739e-15
      vertex 12.1953 12.6948 -1.55466e-15
      vertex -3.75978 12.6948 -1.55466e-15
    endloop
  endfacet
  facet normal 4.12443e-24 1.22465e-16 1
    outer loop
      vertex 12.7348 12.7143 -1.55705e-15
      vertex -3.75978 -15.82 1.93739e-15
      vertex 24 -24 2.93915e-15
    endloop
  endfacet
  facet normal -3.75959e-23 1.22465e-16 1
    outer loop
      vertex -3.78279 -16.4989 2.02053e-15
      vertex 24 -24 2.93915e-15
      vertex -3.75978 -15.82 1.93739e-15
    endloop
  endfacet
  facet normal 5.43499e-22 1.22467e-16 1
    outer loop
      vertex -3.78595 -16.549 2.02667e-15
      vertex 24 -24 2.93915e-15
      vertex -3.78279 -16.4989 2.02053e-15
    endloop
  endfacet
  facet normal 1.19289e-24 1.22465e-16 1
    outer loop
      vertex -3.85495 -17.1764 2.1035e-15
      vertex 24 -24 2.93915e-15
      vertex -3.78595 -16.549 2.02667e-15
    endloop
  endfacet
  facet normal -2.17138e-24 1.22465e-16 1
    outer loop
      vertex -3.97935 -17.8017 2.18008e-15
      vertex 24 -24 2.93915e-15
      vertex -3.85495 -17.1764 2.1035e-15
    endloop
  endfacet
  facet normal -2.56832e-23 1.22465e-16 1
    outer loop
      vertex -4.15588 -18.3741 2.25018e-15
      vertex 24 -24 2.93915e-15
      vertex -3.97935 -17.8017 2.18008e-15
    endloop
  endfacet
  facet normal 4.89292e-23 1.22465e-16 1
    outer loop
      vertex -4.36288 -18.8472 2.30812e-15
      vertex 24 -24 2.93915e-15
      vertex -4.15588 -18.3741 2.25018e-15
    endloop
  endfacet
  facet normal -3.00602e-22 1.22463e-16 1
    outer loop
      vertex -4.38428 -18.8927 2.31369e-15
      vertex 24 -24 2.93915e-15
      vertex -4.36288 -18.8472 2.30812e-15
    endloop
  endfacet
  facet normal 2.84891e-24 1.22465e-16 1
    outer loop
      vertex -4.63727 -19.3144 2.36533e-15
      vertex 24 -24 2.93915e-15
      vertex -4.38428 -18.8927 2.31369e-15
    endloop
  endfacet
  facet normal -1.00408e-22 1.22464e-16 1
    outer loop
      vertex -4.66418 -19.3568 2.37053e-15
      vertex 24 -24 2.93915e-15
      vertex -4.63727 -19.3144 2.36533e-15
    endloop
  endfacet
  facet normal 4.94455e-23 1.22465e-16 1
    outer loop
      vertex -4.99521 -19.7658 2.42061e-15
      vertex 24 -24 2.93915e-15
      vertex -4.66418 -19.3568 2.37053e-15
    endloop
  endfacet
  facet normal -4.02952e-23 1.22464e-16 1
    outer loop
      vertex -5.36795 -20.1201 2.46401e-15
      vertex 24 -24 2.93915e-15
      vertex -4.99521 -19.7658 2.42061e-15
    endloop
  endfacet
  facet normal 2.40737e-23 1.22465e-16 1
    outer loop
      vertex -5.77295 -20.4204 2.50078e-15
      vertex 24 -24 2.93915e-15
      vertex -5.36795 -20.1201 2.46401e-15
    endloop
  endfacet
  facet normal -4.58007e-24 1.22465e-16 1
    outer loop
      vertex -6.20958 -20.6661 2.53087e-15
      vertex 24 -24 2.93915e-15
      vertex -5.77295 -20.4204 2.50078e-15
    endloop
  endfacet
  facet normal 1.66201e-23 1.22465e-16 1
    outer loop
      vertex -6.67714 -20.8569 2.55423e-15
      vertex 24 -24 2.93915e-15
      vertex -6.20958 -20.6661 2.53087e-15
    endloop
  endfacet
  facet normal 8.77483e-24 1.22465e-16 1
    outer loop
      vertex -7.1749 -20.9925 2.57084e-15
      vertex 24 -24 2.93915e-15
      vertex -6.67714 -20.8569 2.55423e-15
    endloop
  endfacet
  facet normal 3.58019e-23 1.22465e-16 1
    outer loop
      vertex -7.65224 -21.0663 2.57988e-15
      vertex 24 -24 2.93915e-15
      vertex -7.1749 -20.9925 2.57084e-15
    endloop
  endfacet
  facet normal -1.25346e-21 1.22451e-16 1
    outer loop
      vertex -7.70207 -21.0726 2.58065e-15
      vertex 24 -24 2.93915e-15
      vertex -7.65224 -21.0663 2.57988e-15
    endloop
  endfacet
  facet normal 3.78858e-23 1.22464e-16 1
    outer loop
      vertex -24 -24 2.93915e-15
      vertex -7.70207 -21.0726 2.58065e-15
      vertex -8.20767 -21.0972 2.58366e-15
    endloop
  endfacet
  facet normal 0 1.22465e-16 1
    outer loop
      vertex -24 -24 2.93915e-15
      vertex -8.20767 -21.0972 2.58366e-15
      vertex -8.2579 -21.0972 2.58366e-15
    endloop
  endfacet
  facet normal 1.41737e-22 1.22464e-16 1
    outer loop
      vertex -24 -24 2.93915e-15
      vertex -8.2579 -21.0972 2.58366e-15
      vertex -8.75577 -21.0723 2.58061e-15
    endloop
  endfacet
  facet normal 3.82555e-24 1.22465e-16 1
    outer loop
      vertex -12.6238 14.813 -1.81407e-15
      vertex -24 -24 2.93915e-15
      vertex -12.6238 -15.815 1.93678e-15
    endloop
  endfacet
  facet normal -1.57542e-22 1.22465e-16 1
    outer loop
      vertex -12.6238 -15.815 1.93678e-15
      vertex -24 -24 2.93915e-15
      vertex -12.6013 -16.4875 2.01914e-15
    endloop
  endfacet
  facet normal 1.36689e-21 1.22463e-16 1
    outer loop
      vertex -12.6013 -16.4875 2.01914e-15
      vertex -24 -24 2.93915e-15
      vertex -12.5982 -16.5376 2.02528e-15
    endloop
  endfacet
  facet normal -2.1889e-23 1.22465e-16 1
    outer loop
      vertex -12.5982 -16.5376 2.02528e-15
      vertex -24 -24 2.93915e-15
      vertex -12.5309 -17.1604 2.10154e-15
    endloop
  endfacet
  facet normal 0 1.22465e-16 1
    outer loop
      vertex -7.70207 -21.0726 2.58065e-15
      vertex -24 -24 2.93915e-15
      vertex 24 -24 2.93915e-15
    endloop
  endfacet
  facet normal -7.77284e-22 1.22469e-16 1
    outer loop
      vertex -8.8056 -21.066 2.57984e-15
      vertex -24 -24 2.93915e-15
      vertex -8.75577 -21.0723 2.58061e-15
    endloop
  endfacet
  facet normal 2.28524e-23 1.22465e-16 1
    outer loop
      vertex -9.27524 -20.9912 2.57068e-15
      vertex -24 -24 2.93915e-15
      vertex -8.8056 -21.066 2.57984e-15
    endloop
  endfacet
  facet normal 5.24966e-22 1.22462e-16 1
    outer loop
      vertex -9.32388 -20.9787 2.56915e-15
      vertex -24 -24 2.93915e-15
      vertex -9.27524 -20.9912 2.57068e-15
    endloop
  endfacet
  facet normal 1.98712e-23 1.22465e-16 1
    outer loop
      vertex -9.76527 -20.8541 2.5539e-15
      vertex -24 -24 2.93915e-15
      vertex -9.32388 -20.9787 2.56915e-15
    endloop
  endfacet
  facet normal -1.13408e-21 1.2247e-16 1
    outer loop
      vertex -9.81198 -20.8356 2.55163e-15
      vertex -24 -24 2.93915e-15
      vertex -9.76527 -20.8541 2.5539e-15
    endloop
  endfacet
  facet normal -5.21917e-24 1.22465e-16 1
    outer loop
      vertex -10.2251 -20.6612 2.53027e-15
      vertex -24 -24 2.93915e-15
      vertex -9.81198 -20.8356 2.55163e-15
    endloop
  endfacet
  facet normal 9.90038e-22 1.22461e-16 1
    outer loop
      vertex -10.2691 -20.637 2.52731e-15
      vertex -24 -24 2.93915e-15
      vertex -10.2251 -20.6612 2.53027e-15
    endloop
  endfacet
  facet normal -6.49797e-23 1.22465e-16 1
    outer loop
      vertex -10.6541 -20.4128 2.49984e-15
      vertex -24 -24 2.93915e-15
      vertex -10.2691 -20.637 2.52731e-15
    endloop
  endfacet
  facet normal 5.96567e-22 1.22462e-16 1
    outer loop
      vertex -10.6947 -20.3832 2.49623e-15
      vertex -24 -24 2.93915e-15
      vertex -10.6541 -20.4128 2.49984e-15
    endloop
  endfacet
  facet normal -5.98894e-23 1.22465e-16 1
    outer loop
      vertex -11.0513 -20.1091 2.46266e-15
      vertex -24 -24 2.93915e-15
      vertex -10.6947 -20.3832 2.49623e-15
    endloop
  endfacet
  facet normal -7.82768e-22 1.22467e-16 1
    outer loop
      vertex -11.088 -20.0747 2.45845e-15
      vertex -24 -24 2.93915e-15
      vertex -11.0513 -20.1091 2.46266e-15
    endloop
  endfacet
  facet normal 5.40169e-23 1.22465e-16 1
    outer loop
      vertex -11.4164 -19.7508 2.41877e-15
      vertex -24 -24 2.93915e-15
      vertex -11.088 -20.0747 2.45845e-15
    endloop
  endfacet
  facet normal -6.48341e-23 1.22465e-16 1
    outer loop
      vertex -11.4484 -19.7121 2.41404e-15
      vertex -24 -24 2.93915e-15
      vertex -11.4164 -19.7508 2.41877e-15
    endloop
  endfacet
  facet normal 8.10209e-23 1.22464e-16 1
    outer loop
      vertex -11.7399 -19.3383 2.36826e-15
      vertex -24 -24 2.93915e-15
      vertex -11.4484 -19.7121 2.41404e-15
    endloop
  endfacet
  facet normal -1.32892e-21 1.22468e-16 1
    outer loop
      vertex -11.7669 -19.2959 2.36307e-15
      vertex -24 -24 2.93915e-15
      vertex -11.7399 -19.3383 2.36826e-15
    endloop
  endfacet
  facet normal 1.19136e-22 1.22464e-16 1
    outer loop
      vertex -12.0136 -18.8724 2.3112e-15
      vertex -24 -24 2.93915e-15
      vertex -11.7669 -19.2959 2.36307e-15
    endloop
  endfacet
  facet normal -1.02029e-21 1.22467e-16 1
    outer loop
      vertex -12.035 -18.8269 2.30563e-15
      vertex -24 -24 2.93915e-15
      vertex -12.0136 -18.8724 2.3112e-15
    endloop
  endfacet
  facet normal 1.99296e-23 1.22465e-16 1
    outer loop
      vertex -12.2368 -18.3536 2.24767e-15
      vertex -24 -24 2.93915e-15
      vertex -12.035 -18.8269 2.30563e-15
    endloop
  endfacet
  facet normal 9.93018e-22 1.22463e-16 1
    outer loop
      vertex -12.2523 -18.3058 2.24182e-15
      vertex -24 -24 2.93915e-15
      vertex -12.2368 -18.3536 2.24767e-15
    endloop
  endfacet
  facet normal -1.26489e-22 1.22465e-16 1
    outer loop
      vertex -12.4093 -17.7827 2.17775e-15
      vertex -24 -24 2.93915e-15
      vertex -12.2523 -18.3058 2.24182e-15
    endloop
  endfacet
  facet normal 2.72304e-23 1.22465e-16 1
    outer loop
      vertex -12.5309 -17.1604 2.10154e-15
      vertex -24 -24 2.93915e-15
      vertex -12.4093 -17.7827 2.17775e-15
    endloop
  endfacet
  facet normal 1 0 0
    outer loop
      vertex 25 -8.15 25
      vertex 25 -25 25
      vertex 25 -8.15 23.2
    endloop
  endfacet
  facet normal 1 0 0
    outer loop
      vertex 25 8.15 23.2
      vertex 25 25 25
      vertex 25 8.15 25
    endloop
  endfacet
  facet normal 1 0 0
    outer loop
      vertex 25 25 25
      vertex 25 8.15 23.2
      vertex 25 25 -5
    endloop
  endfacet
  facet normal 1 0 0
    outer loop
      vertex 25 -8.15 23.2
      vertex 25 25 -5
      vertex 25 8.15 23.2
    endloop
  endfacet
  facet normal 1 0 0
    outer loop
      vertex 25 -25 -5
      vertex 25 -8.15 23.2
      vertex 25 -25 25
    endloop
  endfacet
  facet normal 1 0 0
    outer loop
      vertex 25 -8.15 23.2
      vertex 25 -25 -5
      vertex 25 25 -5
    endloop
  endfacet
  facet normal 0 -1 0
    outer loop
      vertex -25 -25 25
      vertex -8.15 -25 23.2
      vertex -8.15 -25 25
    endloop
  endfacet
  facet normal 0 -1 -0
    outer loop
      vertex -8.15 -25 23.2
      vertex -25 -25 -5
      vertex 8.15 -25 23.2
    endloop
  endfacet
  facet normal 0 -1 0
    outer loop
      vertex -25 -25 -5
      vertex -8.15 -25 23.2
      vertex -25 -25 25
    endloop
  endfacet
  facet normal 0 -1 0
    outer loop
      vertex 8.15 -25 23.2
      vertex 25 -25 25
      vertex 8.15 -25 25
    endloop
  endfacet
  facet normal 0 -1 0
    outer loop
      vertex 25 -25 -5
      vertex 8.15 -25 23.2
      vertex -25 -25 -5
    endloop
  endfacet
  facet normal 0 -1 0
    outer loop
      vertex 8.15 -25 23.2
      vertex 25 -25 -5
      vertex 25 -25 25
    endloop
  endfacet
  facet normal 0 0 1
    outer loop
      vertex -24 -8.15 25
      vertex -25 -8.15 25
      vertex -24 -24 25
    endloop
  endfacet
  facet normal -0 0 1
    outer loop
      vertex -24 -24 25
      vertex -8.15 -25 25
      vertex -8.15 -24 25
    endloop
  endfacet
  facet normal 0 0 1
    outer loop
      vertex -24 -24 25
      vertex -25 -25 25
      vertex -8.15 -25 25
    endloop
  endfacet
  facet normal 0 0 1
    outer loop
      vertex -25 -25 25
      vertex -24 -24 25
      vertex -25 -8.15 25
    endloop
  endfacet
  facet normal 0 0 1
    outer loop
      vertex -8.15 25 25
      vertex -24 24 25
      vertex -8.15 24 25
    endloop
  endfacet
  facet normal -0 0 1
    outer loop
      vertex -25 25 25
      vertex -24 24 25
      vertex -8.15 25 25
    endloop
  endfacet
  facet normal 0 0 1
    outer loop
      vertex -25 8.15 25
      vertex -24 24 25
      vertex -25 25 25
    endloop
  endfacet
  facet normal 0 0 1
    outer loop
      vertex -24 24 25
      vertex -25 8.15 25
      vertex -24 8.15 25
    endloop
  endfacet
  facet normal 0 0 1
    outer loop
      vertex 25 25 25
      vertex 24 24 25
      vertex 25 8.15 25
    endloop
  endfacet
  facet normal -0 0 1
    outer loop
      vertex 8.15 25 25
      vertex 24 24 25
      vertex 25 25 25
    endloop
  endfacet
  facet normal 0 0 1
    outer loop
      vertex 24 24 25
      vertex 8.15 25 25
      vertex 8.15 24 25
    endloop
  endfacet
  facet normal 0 0 1
    outer loop
      vertex 25 8.15 25
      vertex 24 24 25
      vertex 24 8.15 25
    endloop
  endfacet
  facet normal 0 0 1
    outer loop
      vertex 24 -24 25
      vertex 25 -8.15 25
      vertex 24 -8.15 25
    endloop
  endfacet
  facet normal 0 0 1
    outer loop
      vertex 25 -8.15 25
      vertex 24 -24 25
      vertex 25 -25 25
    endloop
  endfacet
  facet normal 0 0 1
    outer loop
      vertex 8.15 -25 25
      vertex 24 -24 25
      vertex 8.15 -24 25
    endloop
  endfacet
  facet normal 0 0 1
    outer loop
      vertex 24 -24 25
      vertex 8.15 -25 25
      vertex 25 -25 25
    endloop
  endfacet
  facet normal 0 1 0
    outer loop
      vertex 25 25 25
      vertex 8.15 25 23.2
      vertex 8.15 25 25
    endloop
  endfacet
  facet normal 0 1 0
    outer loop
      vertex 8.15 25 23.2
      vertex 25 25 -5
      vertex -8.15 25 23.2
    endloop
  endfacet
  facet normal 0 1 -0
    outer loop
      vertex 25 25 -5
      vertex 8.15 25 23.2
      vertex 25 25 25
    endloop
  endfacet
  facet normal 0 1 -0
    outer loop
      vertex -8.15 25 23.2
      vertex -25 25 25
      vertex -8.15 25 25
    endloop
  endfacet
  facet normal 0 1 0
    outer loop
      vertex -25 25 -5
      vertex -8.15 25 23.2
      vertex 25 25 -5
    endloop
  endfacet
  facet normal 0 1 0
    outer loop
      vertex -8.15 25 23.2
      vertex -25 25 -5
      vertex -25 25 25
    endloop
  endfacet
  facet normal 1 0 0
    outer loop
      vertex -24 -8.15 25
      vertex -24 -24 25
      vertex -24 -8.15 23.2
    endloop
  endfacet
  facet normal 1 0 0
    outer loop
      vertex -24 8.15 23.2
      vertex -24 24 25
      vertex -24 8.15 25
    endloop
  endfacet
  facet normal 1 0 0
    outer loop
      vertex -24 24 25
      vertex -24 8.15 23.2
      vertex -24 24 -2.93915e-15
    endloop
  endfacet
  facet normal 1 0 0
    outer loop
      vertex -24 -8.15 23.2
      vertex -24 24 -2.93915e-15
      vertex -24 8.15 23.2
    endloop
  endfacet
  facet normal 1 0 0
    outer loop
      vertex -24 -24 2.93915e-15
      vertex -24 -8.15 23.2
      vertex -24 -24 25
    endloop
  endfacet
  facet normal 1 0 0
    outer loop
      vertex -24 -8.15 23.2
      vertex -24 -24 2.93915e-15
      vertex -24 24 -2.93915e-15
    endloop
  endfacet
  facet normal -1 0 0
    outer loop
      vertex 24 24 -2.93915e-15
      vertex 24 8.15 23.2
      vertex 24 24 25
    endloop
  endfacet
  facet normal -1 0 0
    outer loop
      vertex 24 24 -2.93915e-15
      vertex 24 -8.15 23.2
      vertex 24 8.15 23.2
    endloop
  endfacet
  facet normal -1 0 0
    outer loop
      vertex 24 -24 2.93915e-15
      vertex 24 -8.15 23.2
      vertex 24 24 -2.93915e-15
    endloop
  endfacet
  facet normal -1 0 0
    outer loop
      vertex 24 -24 25
      vertex 24 -8.15 23.2
      vertex 24 -24 2.93915e-15
    endloop
  endfacet
  facet normal -1 0 0
    outer loop
      vertex 24 -8.15 23.2
      vertex 24 -24 25
      vertex 24 -8.15 25
    endloop
  endfacet
  facet normal -1 -0 0
    outer loop
      vertex 24 24 25
      vertex 24 8.15 23.2
      vertex 24 8.15 25
    endloop
  endfacet
  facet normal 0 1 0
    outer loop
      vertex 24 -24 25
      vertex 8.15 -24 23.2
      vertex 8.15 -24 25
    endloop
  endfacet
  facet normal 0 1 0
    outer loop
      vertex 8.15 -24 23.2
      vertex 24 -24 2.93915e-15
      vertex -8.15 -24 23.2
    endloop
  endfacet
  facet normal 0 1 -0
    outer loop
      vertex 24 -24 2.93915e-15
      vertex 8.15 -24 23.2
      vertex 24 -24 25
    endloop
  endfacet
  facet normal 0 1 -0
    outer loop
      vertex -8.15 -24 23.2
      vertex -24 -24 25
      vertex -8.15 -24 25
    endloop
  endfacet
  facet normal 0 1 0
    outer loop
      vertex -24 -24 2.93915e-15
      vertex -8.15 -24 23.2
      vertex 24 -24 2.93915e-15
    endloop
  endfacet
  facet normal 0 1 0
    outer loop
      vertex -8.15 -24 23.2
      vertex -24 -24 2.93915e-15
      vertex -24 -24 25
    endloop
  endfacet
  facet normal 0 -1 0
    outer loop
      vertex -24 24 25
      vertex -8.15 24 23.2
      vertex -8.15 24 25
    endloop
  endfacet
  facet normal 0 -1 -0
    outer loop
      vertex -8.15 24 23.2
      vertex -24 24 -2.93915e-15
      vertex 8.15 24 23.2
    endloop
  endfacet
  facet normal 0 -1 0
    outer loop
      vertex -24 24 -2.93915e-15
      vertex -8.15 24 23.2
      vertex -24 24 25
    endloop
  endfacet
  facet normal 0 -1 0
    outer loop
      vertex 8.15 24 23.2
      vertex 24 24 25
      vertex 8.15 24 25
    endloop
  endfacet
  facet normal 0 -1 0
    outer loop
      vertex 24 24 -2.93915e-15
      vertex 8.15 24 23.2
      vertex -24 24 -2.93915e-15
    endloop
  endfacet
  facet normal 0 -1 0
    outer loop
      vertex 8.15 24 23.2
      vertex 24 24 -2.93915e-15
      vertex 24 24 25
    endloop
  endfacet
  facet normal 0 0 -1
    outer loop
      vertex 16.2208 14.7649 -5
      vertex 25 25 -5
      vertex 25 -25 -5
    endloop
  endfacet
  facet normal 0 0 -1
    outer loop
      vertex 25 25 -5
      vertex 16.5867 15.996 -5
      vertex 16.6112 16.449 -5
    endloop
  endfacet
  facet normal 0 0 -1
    outer loop
      vertex 25 25 -5
      vertex 16.5228 15.6132 -5
      vertex 16.5867 15.996 -5
    endloop
  endfacet
  facet normal 0 0 -1
    outer loop
      vertex 25 25 -5
      vertex 16.5134 15.5638 -5
      vertex 16.5228 15.6132 -5
    endloop
  endfacet
  facet normal 0 0 -1
    outer loop
      vertex 25 25 -5
      vertex 16.4069 15.2009 -5
      vertex 16.5134 15.5638 -5
    endloop
  endfacet
  facet normal 0 0 -1
    outer loop
      vertex 25 25 -5
      vertex 16.3914 15.1532 -5
      vertex 16.4069 15.2009 -5
    endloop
  endfacet
  facet normal 0 0 -1
    outer loop
      vertex 25 25 -5
      vertex 16.2422 14.8103 -5
      vertex 16.3914 15.1532 -5
    endloop
  endfacet
  facet normal 0 0 -1
    outer loop
      vertex 25 25 -5
      vertex 16.2208 14.7649 -5
      vertex 16.2422 14.8103 -5
    endloop
  endfacet
  facet normal 0 0 -1
    outer loop
      vertex 25 -25 -5
      vertex 16.0291 14.442 -5
      vertex 16.2208 14.7649 -5
    endloop
  endfacet
  facet normal 0 0 -1
    outer loop
      vertex 25 -25 -5
      vertex 16.0021 14.3996 -5
      vertex 16.0291 14.442 -5
    endloop
  endfacet
  facet normal 0 0 -1
    outer loop
      vertex 25 -25 -5
      vertex 15.7678 14.0967 -5
      vertex 16.0021 14.3996 -5
    endloop
  endfacet
  facet normal 0 0 -1
    outer loop
      vertex 25 -25 -5
      vertex 15.7358 14.058 -5
      vertex 15.7678 14.0967 -5
    endloop
  endfacet
  facet normal 0 0 -1
    outer loop
      vertex 25 -25 -5
      vertex 15.4588 13.7752 -5
      vertex 15.7358 14.058 -5
    endloop
  endfacet
  facet normal 0 0 -1
    outer loop
      vertex 25 -25 -5
      vertex 15.4222 13.7408 -5
      vertex 15.4588 13.7752 -5
    endloop
  endfacet
  facet normal 0 0 -1
    outer loop
      vertex 25 -25 -5
      vertex 15.1053 13.4874 -5
      vertex 15.4222 13.7408 -5
    endloop
  endfacet
  facet normal 0 0 -1
    outer loop
      vertex 25 -25 -5
      vertex 15.0647 13.4579 -5
      vertex 15.1053 13.4874 -5
    endloop
  endfacet
  facet normal 0 0 -1
    outer loop
      vertex 25 -25 -5
      vertex 14.7108 13.2435 -5
      vertex 15.0647 13.4579 -5
    endloop
  endfacet
  facet normal 0 0 -1
    outer loop
      vertex 25 -25 -5
      vertex 14.6667 13.2193 -5
      vertex 14.7108 13.2435 -5
    endloop
  endfacet
  facet normal 0 0 -1
    outer loop
      vertex 25 -25 -5
      vertex 14.2757 13.0439 -5
      vertex 14.6667 13.2193 -5
    endloop
  endfacet
  facet normal 0 0 -1
    outer loop
      vertex 25 -25 -5
      vertex 14.229 13.0254 -5
      vertex 14.2757 13.0439 -5
    endloop
  endfacet
  facet normal 0 0 -1
    outer loop
      vertex 25 -25 -5
      vertex 13.8008 12.889 -5
      vertex 14.229 13.0254 -5
    endloop
  endfacet
  facet normal 0 0 -1
    outer loop
      vertex 25 -25 -5
      vertex 13.7522 12.8765 -5
      vertex 13.8008 12.889 -5
    endloop
  endfacet
  facet normal 0 0 -1
    outer loop
      vertex 25 -25 -5
      vertex 13.287 12.779 -5
      vertex 13.7522 12.8765 -5
    endloop
  endfacet
  facet normal 0 0 -1
    outer loop
      vertex 25 -25 -5
      vertex 12.7348 12.7143 -5
      vertex 13.287 12.779 -5
    endloop
  endfacet
  facet normal 0 0 -1
    outer loop
      vertex -3.75978 -15.82 -5
      vertex 12.7348 12.7143 -5
      vertex 25 -25 -5
    endloop
  endfacet
  facet normal 0 0 -1
    outer loop
      vertex 12.7348 12.7143 -5
      vertex -3.75978 -15.82 -5
      vertex 12.1953 12.6948 -5
    endloop
  endfacet
  facet normal 0 0 -1
    outer loop
      vertex 25 -25 -5
      vertex -3.78279 -16.4989 -5
      vertex -3.75978 -15.82 -5
    endloop
  endfacet
  facet normal 0 0 -1
    outer loop
      vertex 25 -25 -5
      vertex -3.78595 -16.549 -5
      vertex -3.78279 -16.4989 -5
    endloop
  endfacet
  facet normal 0 0 -1
    outer loop
      vertex 25 -25 -5
      vertex -3.85495 -17.1764 -5
      vertex -3.78595 -16.549 -5
    endloop
  endfacet
  facet normal 0 0 -1
    outer loop
      vertex 25 -25 -5
      vertex -3.97935 -17.8017 -5
      vertex -3.85495 -17.1764 -5
    endloop
  endfacet
  facet normal 0 0 -1
    outer loop
      vertex 25 -25 -5
      vertex -4.15588 -18.3741 -5
      vertex -3.97935 -17.8017 -5
    endloop
  endfacet
  facet normal 0 0 -1
    outer loop
      vertex 25 -25 -5
      vertex -4.36288 -18.8472 -5
      vertex -4.15588 -18.3741 -5
    endloop
  endfacet
  facet normal 0 0 -1
    outer loop
      vertex 25 -25 -5
      vertex -4.38428 -18.8927 -5
      vertex -4.36288 -18.8472 -5
    endloop
  endfacet
  facet normal 0 0 -1
    outer loop
      vertex 25 -25 -5
      vertex -4.63727 -19.3144 -5
      vertex -4.38428 -18.8927 -5
    endloop
  endfacet
  facet normal 0 0 -1
    outer loop
      vertex 25 -25 -5
      vertex -4.66418 -19.3568 -5
      vertex -4.63727 -19.3144 -5
    endloop
  endfacet
  facet normal 0 0 -1
    outer loop
      vertex 25 -25 -5
      vertex -4.99521 -19.7658 -5
      vertex -4.66418 -19.3568 -5
    endloop
  endfacet
  facet normal 0 0 -1
    outer loop
      vertex 25 -25 -5
      vertex -5.36795 -20.1201 -5
      vertex -4.99521 -19.7658 -5
    endloop
  endfacet
  facet normal 0 0 -1
    outer loop
      vertex 25 -25 -5
      vertex -5.77295 -20.4204 -5
      vertex -5.36795 -20.1201 -5
    endloop
  endfacet
  facet normal 0 0 -1
    outer loop
      vertex 25 -25 -5
      vertex -6.20958 -20.6661 -5
      vertex -5.77295 -20.4204 -5
    endloop
  endfacet
  facet normal 0 0 -1
    outer loop
      vertex 25 -25 -5
      vertex -6.67714 -20.8569 -5
      vertex -6.20958 -20.6661 -5
    endloop
  endfacet
  facet normal 0 0 -1
    outer loop
      vertex 25 -25 -5
      vertex -7.1749 -20.9925 -5
      vertex -6.67714 -20.8569 -5
    endloop
  endfacet
  facet normal 0 0 -1
    outer loop
      vertex 25 -25 -5
      vertex -7.65224 -21.0663 -5
      vertex -7.1749 -20.9925 -5
    endloop
  endfacet
  facet normal 0 0 -1
    outer loop
      vertex 25 -25 -5
      vertex -7.70207 -21.0726 -5
      vertex -7.65224 -21.0663 -5
    endloop
  endfacet
  facet normal 0 0 -1
    outer loop
      vertex -25 -25 -5
      vertex -7.70207 -21.0726 -5
      vertex 25 -25 -5
    endloop
  endfacet
  facet normal 0 0 -1
    outer loop
      vertex -7.70207 -21.0726 -5
      vertex -25 -25 -5
      vertex -8.20767 -21.0972 -5
    endloop
  endfacet
  facet normal -0 0 -1
    outer loop
      vertex -8.20767 -21.0972 -5
      vertex -25 -25 -5
      vertex -8.2579 -21.0972 -5
    endloop
  endfacet
  facet normal -0 0 -1
    outer loop
      vertex -12.6238 -15.815 -5
      vertex -25 -25 -5
      vertex -12.6238 14.813 -5
    endloop
  endfacet
  facet normal -0 0 -1
    outer loop
      vertex -12.6013 -16.4875 -5
      vertex -25 -25 -5
      vertex -12.6238 -15.815 -5
    endloop
  endfacet
  facet normal -0 0 -1
    outer loop
      vertex -12.5982 -16.5376 -5
      vertex -25 -25 -5
      vertex -12.6013 -16.4875 -5
    endloop
  endfacet
  facet normal -0 0 -1
    outer loop
      vertex -12.5309 -17.1604 -5
      vertex -25 -25 -5
      vertex -12.5982 -16.5376 -5
    endloop
  endfacet
  facet normal -0 0 -1
    outer loop
      vertex -12.4093 -17.7827 -5
      vertex -25 -25 -5
      vertex -12.5309 -17.1604 -5
    endloop
  endfacet
  facet normal -0 0 -1
    outer loop
      vertex -12.2523 -18.3058 -5
      vertex -25 -25 -5
      vertex -12.4093 -17.7827 -5
    endloop
  endfacet
  facet normal -0 0 -1
    outer loop
      vertex -12.2368 -18.3536 -5
      vertex -25 -25 -5
      vertex -12.2523 -18.3058 -5
    endloop
  endfacet
  facet normal -0 0 -1
    outer loop
      vertex -12.035 -18.8269 -5
      vertex -25 -25 -5
      vertex -12.2368 -18.3536 -5
    endloop
  endfacet
  facet normal -0 0 -1
    outer loop
      vertex -12.0136 -18.8724 -5
      vertex -25 -25 -5
      vertex -12.035 -18.8269 -5
    endloop
  endfacet
  facet normal -0 0 -1
    outer loop
      vertex -11.7669 -19.2959 -5
      vertex -25 -25 -5
      vertex -12.0136 -18.8724 -5
    endloop
  endfacet
  facet normal -0 0 -1
    outer loop
      vertex -11.7399 -19.3383 -5
      vertex -25 -25 -5
      vertex -11.7669 -19.2959 -5
    endloop
  endfacet
  facet normal -0 0 -1
    outer loop
      vertex -11.4484 -19.7121 -5
      vertex -25 -25 -5
      vertex -11.7399 -19.3383 -5
    endloop
  endfacet
  facet normal -0 0 -1
    outer loop
      vertex -11.4164 -19.7508 -5
      vertex -25 -25 -5
      vertex -11.4484 -19.7121 -5
    endloop
  endfacet
  facet normal -0 0 -1
    outer loop
      vertex -11.088 -20.0747 -5
      vertex -25 -25 -5
      vertex -11.4164 -19.7508 -5
    endloop
  endfacet
  facet normal -0 0 -1
    outer loop
      vertex -11.0513 -20.1091 -5
      vertex -25 -25 -5
      vertex -11.088 -20.0747 -5
    endloop
  endfacet
  facet normal -0 0 -1
    outer loop
      vertex -10.6947 -20.3832 -5
      vertex -25 -25 -5
      vertex -11.0513 -20.1091 -5
    endloop
  endfacet
  facet normal -0 0 -1
    outer loop
      vertex -10.6541 -20.4128 -5
      vertex -25 -25 -5
      vertex -10.6947 -20.3832 -5
    endloop
  endfacet
  facet normal -0 0 -1
    outer loop
      vertex -10.2691 -20.637 -5
      vertex -25 -25 -5
      vertex -10.6541 -20.4128 -5
    endloop
  endfacet
  facet normal -0 0 -1
    outer loop
      vertex -10.2251 -20.6612 -5
      vertex -25 -25 -5
      vertex -10.2691 -20.637 -5
    endloop
  endfacet
  facet normal -0 0 -1
    outer loop
      vertex -9.81198 -20.8356 -5
      vertex -25 -25 -5
      vertex -10.2251 -20.6612 -5
    endloop
  endfacet
  facet normal -0 0 -1
    outer loop
      vertex -9.76527 -20.8541 -5
      vertex -25 -25 -5
      vertex -9.81198 -20.8356 -5
    endloop
  endfacet
  facet normal -0 0 -1
    outer loop
      vertex -9.32388 -20.9787 -5
      vertex -25 -25 -5
      vertex -9.76527 -20.8541 -5
    endloop
  endfacet
  facet normal -0 0 -1
    outer loop
      vertex -9.27524 -20.9912 -5
      vertex -25 -25 -5
      vertex -9.32388 -20.9787 -5
    endloop
  endfacet
  facet normal -0 0 -1
    outer loop
      vertex -8.8056 -21.066 -5
      vertex -25 -25 -5
      vertex -9.27524 -20.9912 -5
    endloop
  endfacet
  facet normal -0 0 -1
    outer loop
      vertex -8.75577 -21.0723 -5
      vertex -25 -25 -5
      vertex -8.8056 -21.066 -5
    endloop
  endfacet
  facet normal -0 0 -1
    outer loop
      vertex -8.2579 -21.0972 -5
      vertex -25 -25 -5
      vertex -8.75577 -21.0723 -5
    endloop
  endfacet
  facet normal 0 0 -1
    outer loop
      vertex 16.587 16.9086 -5
      vertex 25 25 -5
      vertex 16.6112 16.449 -5
    endloop
  endfacet
  facet normal 0 0 -1
    outer loop
      vertex 16.5239 17.2952 -5
      vertex 25 25 -5
      vertex 16.587 16.9086 -5
    endloop
  endfacet
  facet normal 0 0 -1
    outer loop
      vertex 16.5145 17.3445 -5
      vertex 25 25 -5
      vertex 16.5239 17.2952 -5
    endloop
  endfacet
  facet normal 0 0 -1
    outer loop
      vertex 16.4093 17.7084 -5
      vertex 25 25 -5
      vertex 16.5145 17.3445 -5
    endloop
  endfacet
  facet normal 0 0 -1
    outer loop
      vertex 16.3937 17.7561 -5
      vertex 25 25 -5
      vertex 16.4093 17.7084 -5
    endloop
  endfacet
  facet normal 0 0 -1
    outer loop
      vertex 16.2465 18.0971 -5
      vertex 25 25 -5
      vertex 16.3937 17.7561 -5
    endloop
  endfacet
  facet normal 0 0 -1
    outer loop
      vertex 16.2251 18.1426 -5
      vertex 25 25 -5
      vertex 16.2465 18.0971 -5
    endloop
  endfacet
  facet normal 0 0 -1
    outer loop
      vertex 16.0357 18.4608 -5
      vertex 25 25 -5
      vertex 16.2251 18.1426 -5
    endloop
  endfacet
  facet normal 0 0 -1
    outer loop
      vertex 16.0088 18.5032 -5
      vertex 25 25 -5
      vertex 16.0357 18.4608 -5
    endloop
  endfacet
  facet normal 0 0 -1
    outer loop
      vertex 15.7773 18.7986 -5
      vertex 25 25 -5
      vertex 16.0088 18.5032 -5
    endloop
  endfacet
  facet normal 0 0 -1
    outer loop
      vertex 15.7453 18.8372 -5
      vertex 25 25 -5
      vertex 15.7773 18.7986 -5
    endloop
  endfacet
  facet normal 0 0 -1
    outer loop
      vertex 15.4718 19.1098 -5
      vertex 25 25 -5
      vertex 15.7453 18.8372 -5
    endloop
  endfacet
  facet normal 0 0 -1
    outer loop
      vertex 15.4352 19.1442 -5
      vertex 25 25 -5
      vertex 15.4718 19.1098 -5
    endloop
  endfacet
  facet normal 0 0 -1
    outer loop
      vertex 15.1215 19.3867 -5
      vertex 25 25 -5
      vertex 15.4352 19.1442 -5
    endloop
  endfacet
  facet normal 0 0 -1
    outer loop
      vertex 15.0809 19.4162 -5
      vertex 25 25 -5
      vertex 15.1215 19.3867 -5
    endloop
  endfacet
  facet normal 0 0 -1
    outer loop
      vertex 14.7284 19.6214 -5
      vertex 25 25 -5
      vertex 15.0809 19.4162 -5
    endloop
  endfacet
  facet normal 0 0 -1
    outer loop
      vertex 14.6844 19.6456 -5
      vertex 25 25 -5
      vertex 14.7284 19.6214 -5
    endloop
  endfacet
  facet normal 0 0 -1
    outer loop
      vertex 14.2932 19.8135 -5
      vertex 25 25 -5
      vertex 14.6844 19.6456 -5
    endloop
  endfacet
  facet normal 0 0 -1
    outer loop
      vertex 14.2465 19.832 -5
      vertex 25 25 -5
      vertex 14.2932 19.8135 -5
    endloop
  endfacet
  facet normal 0 0 -1
    outer loop
      vertex 13.8165 19.9625 -5
      vertex 25 25 -5
      vertex 14.2465 19.832 -5
    endloop
  endfacet
  facet normal 0 0 -1
    outer loop
      vertex 13.7678 19.975 -5
      vertex 25 25 -5
      vertex 13.8165 19.9625 -5
    endloop
  endfacet
  facet normal 0 0 -1
    outer loop
      vertex 13.299 20.0683 -5
      vertex 25 25 -5
      vertex 13.7678 19.975 -5
    endloop
  endfacet
  facet normal 0 0 -1
    outer loop
      vertex 12.7416 20.1305 -5
      vertex 25 25 -5
      vertex 13.299 20.0683 -5
    endloop
  endfacet
  facet normal 0 0 -1
    outer loop
      vertex 12.1953 20.1492 -5
      vertex 25 25 -5
      vertex 12.7416 20.1305 -5
    endloop
  endfacet
  facet normal 0 0 -1
    outer loop
      vertex -7.3069 20.1492 -5
      vertex 25 25 -5
      vertex 12.1953 20.1492 -5
    endloop
  endfacet
  facet normal 0 0 -1
    outer loop
      vertex -25 25 -5
      vertex -7.3069 20.1492 -5
      vertex -8.02927 20.1254 -5
    endloop
  endfacet
  facet normal 0 0 -1
    outer loop
      vertex -25 25 -5
      vertex -8.02927 20.1254 -5
      vertex -8.74106 20.0477 -5
    endloop
  endfacet
  facet normal 0 0 -1
    outer loop
      vertex -25 25 -5
      vertex -12.6238 14.813 -5
      vertex -25 -25 -5
    endloop
  endfacet
  facet normal 0 0 -1
    outer loop
      vertex -12.6238 14.813 -5
      vertex -25 25 -5
      vertex -12.6002 15.5277 -5
    endloop
  endfacet
  facet normal 0 0 -1
    outer loop
      vertex -12.6002 15.5277 -5
      vertex -25 25 -5
      vertex -12.5971 15.5778 -5
    endloop
  endfacet
  facet normal 0 0 -1
    outer loop
      vertex -12.5971 15.5778 -5
      vertex -25 25 -5
      vertex -12.5264 16.2338 -5
    endloop
  endfacet
  facet normal 0 0 -1
    outer loop
      vertex -7.3069 20.1492 -5
      vertex -25 25 -5
      vertex 25 25 -5
    endloop
  endfacet
  facet normal 0 0 -1
    outer loop
      vertex -9.34261 19.9287 -5
      vertex -25 25 -5
      vertex -8.74106 20.0477 -5
    endloop
  endfacet
  facet normal 0 0 -1
    outer loop
      vertex -9.39125 19.9162 -5
      vertex -25 25 -5
      vertex -9.34261 19.9287 -5
    endloop
  endfacet
  facet normal 0 0 -1
    outer loop
      vertex -9.9324 19.7497 -5
      vertex -25 25 -5
      vertex -9.39125 19.9162 -5
    endloop
  endfacet
  facet normal 0 0 -1
    outer loop
      vertex -9.97911 19.7312 -5
      vertex -25 25 -5
      vertex -9.9324 19.7497 -5
    endloop
  endfacet
  facet normal 0 0 -1
    outer loop
      vertex -10.4598 19.517 -5
      vertex -25 25 -5
      vertex -9.97911 19.7312 -5
    endloop
  endfacet
  facet normal 0 0 -1
    outer loop
      vertex -10.5039 19.4928 -5
      vertex -25 25 -5
      vertex -10.4598 19.517 -5
    endloop
  endfacet
  facet normal 0 0 -1
    outer loop
      vertex -10.9242 19.2311 -5
      vertex -25 25 -5
      vertex -10.5039 19.4928 -5
    endloop
  endfacet
  facet normal 0 0 -1
    outer loop
      vertex -10.9648 19.2015 -5
      vertex -25 25 -5
      vertex -10.9242 19.2311 -5
    endloop
  endfacet
  facet normal 0 0 -1
    outer loop
      vertex -11.3247 18.8922 -5
      vertex -25 25 -5
      vertex -10.9648 19.2015 -5
    endloop
  endfacet
  facet normal 0 0 -1
    outer loop
      vertex -11.3614 18.8578 -5
      vertex -25 25 -5
      vertex -11.3247 18.8922 -5
    endloop
  endfacet
  facet normal 0 0 -1
    outer loop
      vertex -11.6995 18.4563 -5
      vertex -25 25 -5
      vertex -11.3614 18.8578 -5
    endloop
  endfacet
  facet normal 0 0 -1
    outer loop
      vertex -11.9855 17.9925 -5
      vertex -25 25 -5
      vertex -11.6995 18.4563 -5
    endloop
  endfacet
  facet normal 0 0 -1
    outer loop
      vertex -12.0069 17.9471 -5
      vertex -25 25 -5
      vertex -11.9855 17.9925 -5
    endloop
  endfacet
  facet normal 0 0 -1
    outer loop
      vertex -12.2189 17.467 -5
      vertex -25 25 -5
      vertex -12.0069 17.9471 -5
    endloop
  endfacet
  facet normal 0 0 -1
    outer loop
      vertex -12.3992 16.8805 -5
      vertex -25 25 -5
      vertex -12.2189 17.467 -5
    endloop
  endfacet
  facet normal 0 0 -1
    outer loop
      vertex -12.5264 16.2338 -5
      vertex -25 25 -5
      vertex -12.3992 16.8805 -5
    endloop
  endfacet
  facet normal -0 0 -1
    outer loop
      vertex 12.1953 12.6948 -5
      vertex -3.75978 -15.82 -5
      vertex -3.75978 12.6948 -5
    endloop
  endfacet
  facet normal 0.0329345 -0.999458 0
    outer loop
      vertex -8.02927 20.1254 -5
      vertex -7.3069 20.1492 -2.46757e-15
      vertex -8.02927 20.1254 -2.46465e-15
    endloop
  endfacet
  facet normal 0.0329345 -0.999458 0
    outer loop
      vertex -7.3069 20.1492 -2.46757e-15
      vertex -8.02927 20.1254 -5
      vertex -7.3069 20.1492 -5
    endloop
  endfacet
  facet normal 0.108471 -0.9941 0
    outer loop
      vertex -8.74106 20.0477 -5
      vertex -8.02927 20.1254 -2.46465e-15
      vertex -8.74106 20.0477 -2.45514e-15
    endloop
  endfacet
  facet normal 0.108471 -0.9941 0
    outer loop
      vertex -8.02927 20.1254 -2.46465e-15
      vertex -8.74106 20.0477 -5
      vertex -8.02927 20.1254 -5
    endloop
  endfacet
  facet normal 0.194044 -0.980993 0
    outer loop
      vertex -9.34261 19.9287 -5
      vertex -8.74106 20.0477 -2.45514e-15
      vertex -9.34261 19.9287 -2.44057e-15
    endloop
  endfacet
  facet normal 0.194044 -0.980993 0
    outer loop
      vertex -8.74106 20.0477 -2.45514e-15
      vertex -9.34261 19.9287 -5
      vertex -8.74106 20.0477 -5
    endloop
  endfacet
  facet normal 0.248821 -0.968549 0
    outer loop
      vertex -9.39125 19.9162 -5
      vertex -9.34261 19.9287 -2.44057e-15
      vertex -9.39125 19.9162 -2.43904e-15
    endloop
  endfacet
  facet normal 0.248821 -0.968549 0
    outer loop
      vertex -9.34261 19.9287 -2.44057e-15
      vertex -9.39125 19.9162 -5
      vertex -9.34261 19.9287 -5
    endloop
  endfacet
  facet normal 0.294177 -0.955751 0
    outer loop
      vertex -9.9324 19.7497 -5
      vertex -9.39125 19.9162 -2.43904e-15
      vertex -9.9324 19.7497 -2.41864e-15
    endloop
  endfacet
  facet normal 0.294177 -0.955751 0
    outer loop
      vertex -9.39125 19.9162 -2.43904e-15
      vertex -9.9324 19.7497 -5
      vertex -9.39125 19.9162 -5
    endloop
  endfacet
  facet normal 0.368141 -0.92977 0
    outer loop
      vertex -9.97911 19.7312 -5
      vertex -9.9324 19.7497 -2.41864e-15
      vertex -9.97911 19.7312 -2.41637e-15
    endloop
  endfacet
  facet normal 0.368141 -0.92977 0
    outer loop
      vertex -9.9324 19.7497 -2.41864e-15
      vertex -9.97911 19.7312 -5
      vertex -9.9324 19.7497 -5
    endloop
  endfacet
  facet normal 0.406956 -0.913448 0
    outer loop
      vertex -10.4598 19.517 -5
      vertex -9.97911 19.7312 -2.41637e-15
      vertex -10.4598 19.517 -2.39014e-15
    endloop
  endfacet
  facet normal 0.406956 -0.913448 0
    outer loop
      vertex -9.97911 19.7312 -2.41637e-15
      vertex -10.4598 19.517 -5
      vertex -9.97911 19.7312 -5
    endloop
  endfacet
  facet normal 0.481744 -0.876312 0
    outer loop
      vertex -10.5039 19.4928 -5
      vertex -10.4598 19.517 -2.39014e-15
      vertex -10.5039 19.4928 -2.38718e-15
    endloop
  endfacet
  facet normal 0.481744 -0.876312 0
    outer loop
      vertex -10.4598 19.517 -2.39014e-15
      vertex -10.5039 19.4928 -5
      vertex -10.4598 19.517 -5
    endloop
  endfacet
  facet normal 0.528605 -0.848868 0
    outer loop
      vertex -10.9242 19.2311 -5
      vertex -10.5039 19.4928 -2.38718e-15
      vertex -10.9242 19.2311 -2.35513e-15
    endloop
  endfacet
  facet normal 0.528605 -0.848868 0
    outer loop
      vertex -10.5039 19.4928 -2.38718e-15
      vertex -10.9242 19.2311 -5
      vertex -10.5039 19.4928 -5
    endloop
  endfacet
  facet normal 0.587828 -0.808986 0
    outer loop
      vertex -10.9648 19.2015 -5
      vertex -10.9242 19.2311 -2.35513e-15
      vertex -10.9648 19.2015 -2.35151e-15
    endloop
  endfacet
  facet normal 0.587828 -0.808986 0
    outer loop
      vertex -10.9242 19.2311 -2.35513e-15
      vertex -10.9648 19.2015 -5
      vertex -10.9242 19.2311 -5
    endloop
  endfacet
  facet normal 0.651821 -0.758373 0
    outer loop
      vertex -11.3247 18.8922 -5
      vertex -10.9648 19.2015 -2.35151e-15
      vertex -11.3247 18.8922 -2.31363e-15
    endloop
  endfacet
  facet normal 0.651821 -0.758373 0
    outer loop
      vertex -10.9648 19.2015 -2.35151e-15
      vertex -11.3247 18.8922 -5
      vertex -10.9648 19.2015 -5
    endloop
  endfacet
  facet normal 0.684587 -0.728931 0
    outer loop
      vertex -11.3614 18.8578 -5
      vertex -11.3247 18.8922 -2.31363e-15
      vertex -11.3614 18.8578 -2.30941e-15
    endloop
  endfacet
  facet normal 0.684587 -0.728931 0
    outer loop
      vertex -11.3247 18.8922 -2.31363e-15
      vertex -11.3614 18.8578 -5
      vertex -11.3247 18.8922 -5
    endloop
  endfacet
  facet normal 0.764808 -0.644258 0
    outer loop
      vertex -11.6995 18.4563 -2.26025e-15
      vertex -11.3614 18.8578 -5
      vertex -11.3614 18.8578 -2.30941e-15
    endloop
  endfacet
  facet normal 0.764808 -0.644258 0
    outer loop
      vertex -11.3614 18.8578 -5
      vertex -11.6995 18.4563 -2.26025e-15
      vertex -11.6995 18.4563 -5
    endloop
  endfacet
  facet normal 0.851206 -0.524832 0
    outer loop
      vertex -11.9855 17.9925 -2.20345e-15
      vertex -11.6995 18.4563 -5
      vertex -11.6995 18.4563 -2.26025e-15
    endloop
  endfacet
  facet normal 0.851206 -0.524832 0
    outer loop
      vertex -11.6995 18.4563 -5
      vertex -11.9855 17.9925 -2.20345e-15
      vertex -11.9855 17.9925 -5
    endloop
  endfacet
  facet normal 0.90475 -0.425943 0
    outer loop
      vertex -12.0069 17.9471 -2.19788e-15
      vertex -11.9855 17.9925 -5
      vertex -11.9855 17.9925 -2.20345e-15
    endloop
  endfacet
  facet normal 0.90475 -0.425943 0
    outer loop
      vertex -11.9855 17.9925 -5
      vertex -12.0069 17.9471 -2.19788e-15
      vertex -12.0069 17.9471 -5
    endloop
  endfacet
  facet normal 0.914803 -0.403901 0
    outer loop
      vertex -12.2189 17.467 -2.13909e-15
      vertex -12.0069 17.9471 -5
      vertex -12.0069 17.9471 -2.19788e-15
    endloop
  endfacet
  facet normal 0.914803 -0.403901 0
    outer loop
      vertex -12.0069 17.9471 -5
      vertex -12.2189 17.467 -2.13909e-15
      vertex -12.2189 17.467 -5
    endloop
  endfacet
  facet normal 0.955817 -0.293962 0
    outer loop
      vertex -12.3992 16.8805 -2.06727e-15
      vertex -12.2189 17.467 -5
      vertex -12.2189 17.467 -2.13909e-15
    endloop
  endfacet
  facet normal 0.955817 -0.293962 0
    outer loop
      vertex -12.2189 17.467 -5
      vertex -12.3992 16.8805 -2.06727e-15
      vertex -12.3992 16.8805 -5
    endloop
  endfacet
  facet normal 0.98121 -0.192941 0
    outer loop
      vertex -12.5264 16.2338 -1.98807e-15
      vertex -12.3992 16.8805 -5
      vertex -12.3992 16.8805 -2.06727e-15
    endloop
  endfacet
  facet normal 0.98121 -0.192941 0
    outer loop
      vertex -12.3992 16.8805 -5
      vertex -12.5264 16.2338 -1.98807e-15
      vertex -12.5264 16.2338 -5
    endloop
  endfacet
  facet normal 0.994251 -0.107073 0
    outer loop
      vertex -12.5971 15.5778 -1.90773e-15
      vertex -12.5264 16.2338 -5
      vertex -12.5264 16.2338 -1.98807e-15
    endloop
  endfacet
  facet normal 0.994251 -0.107073 0
    outer loop
      vertex -12.5264 16.2338 -5
      vertex -12.5971 15.5778 -1.90773e-15
      vertex -12.5971 15.5778 -5
    endloop
  endfacet
  facet normal 0.998021 -0.062889 0
    outer loop
      vertex -12.6002 15.5277 -1.90159e-15
      vertex -12.5971 15.5778 -5
      vertex -12.5971 15.5778 -1.90773e-15
    endloop
  endfacet
  facet normal 0.998021 -0.062889 0
    outer loop
      vertex -12.5971 15.5778 -5
      vertex -12.6002 15.5277 -1.90159e-15
      vertex -12.6002 15.5277 -5
    endloop
  endfacet
  facet normal 0.999457 -0.0329475 0
    outer loop
      vertex -12.6238 14.813 -1.81407e-15
      vertex -12.6002 15.5277 -5
      vertex -12.6002 15.5277 -1.90159e-15
    endloop
  endfacet
  facet normal 0.999457 -0.0329475 0
    outer loop
      vertex -12.6002 15.5277 -5
      vertex -12.6238 14.813 -1.81407e-15
      vertex -12.6238 14.813 -5
    endloop
  endfacet
  facet normal 1 0 0
    outer loop
      vertex -12.6238 -15.815 1.93678e-15
      vertex -12.6238 14.813 -5
      vertex -12.6238 14.813 -1.81407e-15
    endloop
  endfacet
  facet normal 1 0 0
    outer loop
      vertex -12.6238 14.813 -5
      vertex -12.6238 -15.815 1.93678e-15
      vertex -12.6238 -15.815 -5
    endloop
  endfacet
  facet normal 0.999444 0.0333337 0
    outer loop
      vertex -12.6013 -16.4875 2.01914e-15
      vertex -12.6238 -15.815 -5
      vertex -12.6238 -15.815 1.93678e-15
    endloop
  endfacet
  facet normal 0.999444 0.0333337 0
    outer loop
      vertex -12.6238 -15.815 -5
      vertex -12.6013 -16.4875 2.01914e-15
      vertex -12.6013 -16.4875 -5
    endloop
  endfacet
  facet normal 0.998021 0.062889 0
    outer loop
      vertex -12.5982 -16.5376 2.02528e-15
      vertex -12.6013 -16.4875 -5
      vertex -12.6013 -16.4875 2.01914e-15
    endloop
  endfacet
  facet normal 0.998021 0.062889 0
    outer loop
      vertex -12.6013 -16.4875 -5
      vertex -12.5982 -16.5376 2.02528e-15
      vertex -12.5982 -16.5376 -5
    endloop
  endfacet
  facet normal 0.994213 0.107431 0
    outer loop
      vertex -12.5309 -17.1604 2.10154e-15
      vertex -12.5982 -16.5376 -5
      vertex -12.5982 -16.5376 2.02528e-15
    endloop
  endfacet
  facet normal 0.994213 0.107431 0
    outer loop
      vertex -12.5982 -16.5376 -5
      vertex -12.5309 -17.1604 2.10154e-15
      vertex -12.5309 -17.1604 -5
    endloop
  endfacet
  facet normal 0.981452 0.191708 0
    outer loop
      vertex -12.4093 -17.7827 2.17775e-15
      vertex -12.5309 -17.1604 -5
      vertex -12.5309 -17.1604 2.10154e-15
    endloop
  endfacet
  facet normal 0.981452 0.191708 0
    outer loop
      vertex -12.5309 -17.1604 -5
      vertex -12.4093 -17.7827 2.17775e-15
      vertex -12.4093 -17.7827 -5
    endloop
  endfacet
  facet normal 0.957799 0.287438 0
    outer loop
      vertex -12.2523 -18.3058 2.24182e-15
      vertex -12.4093 -17.7827 -5
      vertex -12.4093 -17.7827 2.17775e-15
    endloop
  endfacet
  facet normal 0.957799 0.287438 0
    outer loop
      vertex -12.4093 -17.7827 -5
      vertex -12.2523 -18.3058 2.24182e-15
      vertex -12.2523 -18.3058 -5
    endloop
  endfacet
  facet normal 0.951085 0.308928 0
    outer loop
      vertex -12.2368 -18.3536 2.24767e-15
      vertex -12.2523 -18.3058 -5
      vertex -12.2523 -18.3058 2.24182e-15
    endloop
  endfacet
  facet normal 0.951085 0.308928 0
    outer loop
      vertex -12.2523 -18.3058 -5
      vertex -12.2368 -18.3536 2.24767e-15
      vertex -12.2368 -18.3536 -5
    endloop
  endfacet
  facet normal 0.919849 0.392272 0
    outer loop
      vertex -12.035 -18.8269 2.30563e-15
      vertex -12.2368 -18.3536 -5
      vertex -12.2368 -18.3536 2.24767e-15
    endloop
  endfacet
  facet normal 0.919849 0.392272 0
    outer loop
      vertex -12.2368 -18.3536 -5
      vertex -12.035 -18.8269 2.30563e-15
      vertex -12.035 -18.8269 -5
    endloop
  endfacet
  facet normal 0.90475 0.425943 0
    outer loop
      vertex -12.0136 -18.8724 2.3112e-15
      vertex -12.035 -18.8269 -5
      vertex -12.035 -18.8269 2.30563e-15
    endloop
  endfacet
  facet normal 0.90475 0.425943 0
    outer loop
      vertex -12.035 -18.8269 -5
      vertex -12.0136 -18.8724 2.3112e-15
      vertex -12.0136 -18.8724 -5
    endloop
  endfacet
  facet normal 0.864093 0.503333 0
    outer loop
      vertex -11.7669 -19.2959 2.36307e-15
      vertex -12.0136 -18.8724 -5
      vertex -12.0136 -18.8724 2.3112e-15
    endloop
  endfacet
  facet normal 0.864093 0.503333 0
    outer loop
      vertex -12.0136 -18.8724 -5
      vertex -11.7669 -19.2959 2.36307e-15
      vertex -11.7669 -19.2959 -5
    endloop
  endfacet
  facet normal 0.844361 0.535774 0
    outer loop
      vertex -11.7399 -19.3383 2.36826e-15
      vertex -11.7669 -19.2959 -5
      vertex -11.7669 -19.2959 2.36307e-15
    endloop
  endfacet
  facet normal 0.844361 0.535774 0
    outer loop
      vertex -11.7669 -19.2959 -5
      vertex -11.7399 -19.3383 2.36826e-15
      vertex -11.7399 -19.3383 -5
    endloop
  endfacet
  facet normal 0.78846 0.615085 0
    outer loop
      vertex -11.4484 -19.7121 2.41404e-15
      vertex -11.7399 -19.3383 -5
      vertex -11.7399 -19.3383 2.36826e-15
    endloop
  endfacet
  facet normal 0.78846 0.615085 0
    outer loop
      vertex -11.7399 -19.3383 -5
      vertex -11.4484 -19.7121 2.41404e-15
      vertex -11.4484 -19.7121 -5
    endloop
  endfacet
  facet normal 0.770508 0.637431 0
    outer loop
      vertex -11.4164 -19.7508 2.41877e-15
      vertex -11.4484 -19.7121 -5
      vertex -11.4484 -19.7121 2.41404e-15
    endloop
  endfacet
  facet normal 0.770508 0.637431 0
    outer loop
      vertex -11.4484 -19.7121 -5
      vertex -11.4164 -19.7508 2.41877e-15
      vertex -11.4164 -19.7508 -5
    endloop
  endfacet
  facet normal 0.702244 0.711936 -0
    outer loop
      vertex -11.088 -20.0747 -5
      vertex -11.4164 -19.7508 2.41877e-15
      vertex -11.088 -20.0747 2.45845e-15
    endloop
  endfacet
  facet normal 0.702244 0.711936 0
    outer loop
      vertex -11.4164 -19.7508 2.41877e-15
      vertex -11.088 -20.0747 -5
      vertex -11.4164 -19.7508 -5
    endloop
  endfacet
  facet normal 0.684587 0.728931 -0
    outer loop
      vertex -11.0513 -20.1091 -5
      vertex -11.088 -20.0747 2.45845e-15
      vertex -11.0513 -20.1091 2.46266e-15
    endloop
  endfacet
  facet normal 0.684587 0.728931 0
    outer loop
      vertex -11.088 -20.0747 2.45845e-15
      vertex -11.0513 -20.1091 -5
      vertex -11.088 -20.0747 -5
    endloop
  endfacet
  facet normal 0.609365 0.79289 -0
    outer loop
      vertex -10.6947 -20.3832 -5
      vertex -11.0513 -20.1091 2.46266e-15
      vertex -10.6947 -20.3832 2.49623e-15
    endloop
  endfacet
  facet normal 0.609365 0.79289 0
    outer loop
      vertex -11.0513 -20.1091 2.46266e-15
      vertex -10.6947 -20.3832 -5
      vertex -11.0513 -20.1091 -5
    endloop
  endfacet
  facet normal 0.587828 0.808986 -0
    outer loop
      vertex -10.6541 -20.4128 -5
      vertex -10.6947 -20.3832 2.49623e-15
      vertex -10.6541 -20.4128 2.49984e-15
    endloop
  endfacet
  facet normal 0.587828 0.808986 0
    outer loop
      vertex -10.6947 -20.3832 2.49623e-15
      vertex -10.6541 -20.4128 -5
      vertex -10.6947 -20.3832 -5
    endloop
  endfacet
  facet normal 0.503447 0.864026 -0
    outer loop
      vertex -10.2691 -20.637 -5
      vertex -10.6541 -20.4128 2.49984e-15
      vertex -10.2691 -20.637 2.52731e-15
    endloop
  endfacet
  facet normal 0.503447 0.864026 0
    outer loop
      vertex -10.6541 -20.4128 2.49984e-15
      vertex -10.2691 -20.637 -5
      vertex -10.6541 -20.4128 -5
    endloop
  endfacet
  facet normal 0.481744 0.876312 -0
    outer loop
      vertex -10.2251 -20.6612 -5
      vertex -10.2691 -20.637 2.52731e-15
      vertex -10.2251 -20.6612 2.53027e-15
    endloop
  endfacet
  facet normal 0.481744 0.876312 0
    outer loop
      vertex -10.2691 -20.637 2.52731e-15
      vertex -10.2251 -20.6612 -5
      vertex -10.2691 -20.637 -5
    endloop
  endfacet
  facet normal 0.388941 0.921263 -0
    outer loop
      vertex -9.81198 -20.8356 -5
      vertex -10.2251 -20.6612 2.53027e-15
      vertex -9.81198 -20.8356 2.55163e-15
    endloop
  endfacet
  facet normal 0.388941 0.921263 0
    outer loop
      vertex -10.2251 -20.6612 2.53027e-15
      vertex -9.81198 -20.8356 -5
      vertex -10.2251 -20.6612 -5
    endloop
  endfacet
  facet normal 0.368141 0.92977 -0
    outer loop
      vertex -9.76527 -20.8541 -5
      vertex -9.81198 -20.8356 2.55163e-15
      vertex -9.76527 -20.8541 2.5539e-15
    endloop
  endfacet
  facet normal 0.368141 0.92977 0
    outer loop
      vertex -9.81198 -20.8356 2.55163e-15
      vertex -9.76527 -20.8541 -5
      vertex -9.81198 -20.8356 -5
    endloop
  endfacet
  facet normal 0.271648 0.962397 -0
    outer loop
      vertex -9.32388 -20.9787 -5
      vertex -9.76527 -20.8541 2.5539e-15
      vertex -9.32388 -20.9787 2.56915e-15
    endloop
  endfacet
  facet normal 0.271648 0.962397 0
    outer loop
      vertex -9.76527 -20.8541 2.5539e-15
      vertex -9.32388 -20.9787 -5
      vertex -9.76527 -20.8541 -5
    endloop
  endfacet
  facet normal 0.248821 0.968549 -0
    outer loop
      vertex -9.27524 -20.9912 -5
      vertex -9.32388 -20.9787 2.56915e-15
      vertex -9.27524 -20.9912 2.57068e-15
    endloop
  endfacet
  facet normal 0.248821 0.968549 0
    outer loop
      vertex -9.32388 -20.9787 2.56915e-15
      vertex -9.27524 -20.9912 -5
      vertex -9.32388 -20.9787 -5
    endloop
  endfacet
  facet normal 0.157225 0.987563 -0
    outer loop
      vertex -8.8056 -21.066 -5
      vertex -9.27524 -20.9912 2.57068e-15
      vertex -8.8056 -21.066 2.57984e-15
    endloop
  endfacet
  facet normal 0.157225 0.987563 0
    outer loop
      vertex -9.27524 -20.9912 2.57068e-15
      vertex -8.8056 -21.066 -5
      vertex -9.27524 -20.9912 -5
    endloop
  endfacet
  facet normal 0.125156 0.992137 -0
    outer loop
      vertex -8.75577 -21.0723 -5
      vertex -8.8056 -21.066 2.57984e-15
      vertex -8.75577 -21.0723 2.58061e-15
    endloop
  endfacet
  facet normal 0.125156 0.992137 0
    outer loop
      vertex -8.8056 -21.066 2.57984e-15
      vertex -8.75577 -21.0723 -5
      vertex -8.8056 -21.066 -5
    endloop
  endfacet
  facet normal 0.0499865 0.99875 -0
    outer loop
      vertex -8.2579 -21.0972 -5
      vertex -8.75577 -21.0723 2.58061e-15
      vertex -8.2579 -21.0972 2.58366e-15
    endloop
  endfacet
  facet normal 0.0499865 0.99875 0
    outer loop
      vertex -8.75577 -21.0723 2.58061e-15
      vertex -8.2579 -21.0972 -5
      vertex -8.75577 -21.0723 -5
    endloop
  endfacet
  facet normal 0 1 -0
    outer loop
      vertex -8.20767 -21.0972 -5
      vertex -8.2579 -21.0972 2.58366e-15
      vertex -8.20767 -21.0972 2.58366e-15
    endloop
  endfacet
  facet normal 0 1 0
    outer loop
      vertex -8.2579 -21.0972 2.58366e-15
      vertex -8.20767 -21.0972 -5
      vertex -8.2579 -21.0972 -5
    endloop
  endfacet
  facet normal -0.0486221 0.998817 0
    outer loop
      vertex -7.70207 -21.0726 -5
      vertex -8.20767 -21.0972 2.58366e-15
      vertex -7.70207 -21.0726 2.58065e-15
    endloop
  endfacet
  facet normal -0.0486221 0.998817 0
    outer loop
      vertex -8.20767 -21.0972 2.58366e-15
      vertex -7.70207 -21.0726 -5
      vertex -8.20767 -21.0972 -5
    endloop
  endfacet
  facet normal -0.125156 0.992137 0
    outer loop
      vertex -7.65224 -21.0663 -5
      vertex -7.70207 -21.0726 2.58065e-15
      vertex -7.65224 -21.0663 2.57988e-15
    endloop
  endfacet
  facet normal -0.125156 0.992137 0
    outer loop
      vertex -7.70207 -21.0726 2.58065e-15
      vertex -7.65224 -21.0663 -5
      vertex -7.70207 -21.0726 -5
    endloop
  endfacet
  facet normal -0.152867 0.988247 0
    outer loop
      vertex -7.1749 -20.9925 -5
      vertex -7.65224 -21.0663 2.57988e-15
      vertex -7.1749 -20.9925 2.57084e-15
    endloop
  endfacet
  facet normal -0.152867 0.988247 0
    outer loop
      vertex -7.65224 -21.0663 2.57988e-15
      vertex -7.1749 -20.9925 -5
      vertex -7.65224 -21.0663 -5
    endloop
  endfacet
  facet normal -0.26277 0.964859 0
    outer loop
      vertex -6.67714 -20.8569 -5
      vertex -7.1749 -20.9925 2.57084e-15
      vertex -6.67714 -20.8569 2.55423e-15
    endloop
  endfacet
  facet normal -0.26277 0.964859 0
    outer loop
      vertex -7.1749 -20.9925 2.57084e-15
      vertex -6.67714 -20.8569 -5
      vertex -7.1749 -20.9925 -5
    endloop
  endfacet
  facet normal -0.377795 0.925889 0
    outer loop
      vertex -6.20958 -20.6661 -5
      vertex -6.67714 -20.8569 2.55423e-15
      vertex -6.20958 -20.6661 2.53087e-15
    endloop
  endfacet
  facet normal -0.377795 0.925889 0
    outer loop
      vertex -6.67714 -20.8569 2.55423e-15
      vertex -6.20958 -20.6661 -5
      vertex -6.67714 -20.8569 -5
    endloop
  endfacet
  facet normal -0.490425 0.871484 0
    outer loop
      vertex -5.77295 -20.4204 -5
      vertex -6.20958 -20.6661 2.53087e-15
      vertex -5.77295 -20.4204 2.50078e-15
    endloop
  endfacet
  facet normal -0.490425 0.871484 0
    outer loop
      vertex -6.20958 -20.6661 2.53087e-15
      vertex -5.77295 -20.4204 -5
      vertex -6.20958 -20.6661 -5
    endloop
  endfacet
  facet normal -0.595565 0.803307 0
    outer loop
      vertex -5.36795 -20.1201 -5
      vertex -5.77295 -20.4204 2.50078e-15
      vertex -5.36795 -20.1201 2.46401e-15
    endloop
  endfacet
  facet normal -0.595565 0.803307 0
    outer loop
      vertex -5.77295 -20.4204 2.50078e-15
      vertex -5.36795 -20.1201 -5
      vertex -5.77295 -20.4204 -5
    endloop
  endfacet
  facet normal -0.689005 0.724756 0
    outer loop
      vertex -4.99521 -19.7658 -5
      vertex -5.36795 -20.1201 2.46401e-15
      vertex -4.99521 -19.7658 2.42061e-15
    endloop
  endfacet
  facet normal -0.689005 0.724756 0
    outer loop
      vertex -5.36795 -20.1201 2.46401e-15
      vertex -4.99521 -19.7658 -5
      vertex -5.36795 -20.1201 -5
    endloop
  endfacet
  facet normal -0.777297 0.629134 0
    outer loop
      vertex -4.99521 -19.7658 -5
      vertex -4.66418 -19.3568 2.37053e-15
      vertex -4.66418 -19.3568 -5
    endloop
  endfacet
  facet normal -0.777297 0.629134 0
    outer loop
      vertex -4.66418 -19.3568 2.37053e-15
      vertex -4.99521 -19.7658 -5
      vertex -4.99521 -19.7658 2.42061e-15
    endloop
  endfacet
  facet normal -0.844361 0.535774 0
    outer loop
      vertex -4.66418 -19.3568 -5
      vertex -4.63727 -19.3144 2.36533e-15
      vertex -4.63727 -19.3144 -5
    endloop
  endfacet
  facet normal -0.844361 0.535774 0
    outer loop
      vertex -4.63727 -19.3144 2.36533e-15
      vertex -4.66418 -19.3568 -5
      vertex -4.66418 -19.3568 2.37053e-15
    endloop
  endfacet
  facet normal -0.857523 0.514446 0
    outer loop
      vertex -4.63727 -19.3144 -5
      vertex -4.38428 -18.8927 2.31369e-15
      vertex -4.38428 -18.8927 -5
    endloop
  endfacet
  facet normal -0.857523 0.514446 0
    outer loop
      vertex -4.38428 -18.8927 2.31369e-15
      vertex -4.63727 -19.3144 -5
      vertex -4.63727 -19.3144 2.36533e-15
    endloop
  endfacet
  facet normal -0.90475 0.425943 0
    outer loop
      vertex -4.38428 -18.8927 -5
      vertex -4.36288 -18.8472 2.30812e-15
      vertex -4.36288 -18.8472 -5
    endloop
  endfacet
  facet normal -0.90475 0.425943 0
    outer loop
      vertex -4.36288 -18.8472 2.30812e-15
      vertex -4.38428 -18.8927 -5
      vertex -4.38428 -18.8927 2.31369e-15
    endloop
  endfacet
  facet normal -0.916157 0.400819 0
    outer loop
      vertex -4.36288 -18.8472 -5
      vertex -4.15588 -18.3741 2.25018e-15
      vertex -4.15588 -18.3741 -5
    endloop
  endfacet
  facet normal -0.916157 0.400819 0
    outer loop
      vertex -4.15588 -18.3741 2.25018e-15
      vertex -4.36288 -18.8472 -5
      vertex -4.36288 -18.8472 2.30812e-15
    endloop
  endfacet
  facet normal -0.955582 0.294725 0
    outer loop
      vertex -4.15588 -18.3741 -5
      vertex -3.97935 -17.8017 2.18008e-15
      vertex -3.97935 -17.8017 -5
    endloop
  endfacet
  facet normal -0.955582 0.294725 0
    outer loop
      vertex -3.97935 -17.8017 2.18008e-15
      vertex -4.15588 -18.3741 -5
      vertex -4.15588 -18.3741 2.25018e-15
    endloop
  endfacet
  facet normal -0.98078 0.195117 0
    outer loop
      vertex -3.97935 -17.8017 -5
      vertex -3.85495 -17.1764 2.1035e-15
      vertex -3.85495 -17.1764 -5
    endloop
  endfacet
  facet normal -0.98078 0.195117 0
    outer loop
      vertex -3.85495 -17.1764 2.1035e-15
      vertex -3.97935 -17.8017 -5
      vertex -3.97935 -17.8017 2.18008e-15
    endloop
  endfacet
  facet normal -0.994007 0.109314 0
    outer loop
      vertex -3.85495 -17.1764 -5
      vertex -3.78595 -16.549 2.02667e-15
      vertex -3.78595 -16.549 -5
    endloop
  endfacet
  facet normal -0.994007 0.109314 0
    outer loop
      vertex -3.78595 -16.549 2.02667e-15
      vertex -3.85495 -17.1764 -5
      vertex -3.85495 -17.1764 2.1035e-15
    endloop
  endfacet
  facet normal -0.998021 0.062889 0
    outer loop
      vertex -3.78595 -16.549 -5
      vertex -3.78279 -16.4989 2.02053e-15
      vertex -3.78279 -16.4989 -5
    endloop
  endfacet
  facet normal -0.998021 0.062889 0
    outer loop
      vertex -3.78279 -16.4989 2.02053e-15
      vertex -3.78595 -16.549 -5
      vertex -3.78595 -16.549 2.02667e-15
    endloop
  endfacet
  facet normal -0.999426 0.0338758 0
    outer loop
      vertex -3.78279 -16.4989 -5
      vertex -3.75978 -15.82 1.93739e-15
      vertex -3.75978 -15.82 -5
    endloop
  endfacet
  facet normal -0.999426 0.0338758 0
    outer loop
      vertex -3.75978 -15.82 1.93739e-15
      vertex -3.78279 -16.4989 -5
      vertex -3.78279 -16.4989 2.02053e-15
    endloop
  endfacet
  facet normal -1 0 0
    outer loop
      vertex -3.75978 -15.82 -5
      vertex -3.75978 12.6948 -1.55466e-15
      vertex -3.75978 12.6948 -5
    endloop
  endfacet
  facet normal -1 -0 0
    outer loop
      vertex -3.75978 12.6948 -1.55466e-15
      vertex -3.75978 -15.82 -5
      vertex -3.75978 -15.82 1.93739e-15
    endloop
  endfacet
  facet normal 0 1 -0
    outer loop
      vertex 12.1953 12.6948 -5
      vertex -3.75978 12.6948 -1.55466e-15
      vertex 12.1953 12.6948 -1.55466e-15
    endloop
  endfacet
  facet normal 0 1 0
    outer loop
      vertex -3.75978 12.6948 -1.55466e-15
      vertex 12.1953 12.6948 -5
      vertex -3.75978 12.6948 -5
    endloop
  endfacet
  facet normal -0.0360968 0.999348 0
    outer loop
      vertex 12.7348 12.7143 -5
      vertex 12.1953 12.6948 -1.55466e-15
      vertex 12.7348 12.7143 -1.55705e-15
    endloop
  endfacet
  facet normal -0.0360968 0.999348 0
    outer loop
      vertex 12.1953 12.6948 -1.55466e-15
      vertex 12.7348 12.7143 -5
      vertex 12.1953 12.6948 -5
    endloop
  endfacet
  facet normal -0.116478 0.993193 0
    outer loop
      vertex 13.287 12.779 -5
      vertex 12.7348 12.7143 -1.55705e-15
      vertex 13.287 12.779 -1.56498e-15
    endloop
  endfacet
  facet normal -0.116478 0.993193 0
    outer loop
      vertex 12.7348 12.7143 -1.55705e-15
      vertex 13.287 12.779 -5
      vertex 12.7348 12.7143 -5
    endloop
  endfacet
  facet normal -0.204998 0.978762 0
    outer loop
      vertex 13.7522 12.8765 -5
      vertex 13.287 12.779 -1.56498e-15
      vertex 13.7522 12.8765 -1.57691e-15
    endloop
  endfacet
  facet normal -0.204998 0.978762 0
    outer loop
      vertex 13.287 12.779 -1.56498e-15
      vertex 13.7522 12.8765 -5
      vertex 13.287 12.779 -5
    endloop
  endfacet
  facet normal -0.248821 0.968549 0
    outer loop
      vertex 13.8008 12.889 -5
      vertex 13.7522 12.8765 -1.57691e-15
      vertex 13.8008 12.889 -1.57844e-15
    endloop
  endfacet
  facet normal -0.248821 0.968549 0
    outer loop
      vertex 13.7522 12.8765 -1.57691e-15
      vertex 13.8008 12.889 -5
      vertex 13.7522 12.8765 -5
    endloop
  endfacet
  facet normal -0.303609 0.952797 0
    outer loop
      vertex 14.229 13.0254 -5
      vertex 13.8008 12.889 -1.57844e-15
      vertex 14.229 13.0254 -1.59515e-15
    endloop
  endfacet
  facet normal -0.303609 0.952797 0
    outer loop
      vertex 13.8008 12.889 -1.57844e-15
      vertex 14.229 13.0254 -5
      vertex 13.8008 12.889 -5
    endloop
  endfacet
  facet normal -0.368141 0.92977 0
    outer loop
      vertex 14.2757 13.0439 -5
      vertex 14.229 13.0254 -1.59515e-15
      vertex 14.2757 13.0439 -1.59742e-15
    endloop
  endfacet
  facet normal -0.368141 0.92977 0
    outer loop
      vertex 14.229 13.0254 -1.59515e-15
      vertex 14.2757 13.0439 -5
      vertex 14.229 13.0254 -5
    endloop
  endfacet
  facet normal -0.409294 0.912403 0
    outer loop
      vertex 14.6667 13.2193 -5
      vertex 14.2757 13.0439 -1.59742e-15
      vertex 14.6667 13.2193 -1.6189e-15
    endloop
  endfacet
  facet normal -0.409294 0.912403 0
    outer loop
      vertex 14.2757 13.0439 -1.59742e-15
      vertex 14.6667 13.2193 -5
      vertex 14.2757 13.0439 -5
    endloop
  endfacet
  facet normal -0.481744 0.876312 0
    outer loop
      vertex 14.7108 13.2435 -5
      vertex 14.6667 13.2193 -1.6189e-15
      vertex 14.7108 13.2435 -1.62186e-15
    endloop
  endfacet
  facet normal -0.481744 0.876312 0
    outer loop
      vertex 14.6667 13.2193 -1.6189e-15
      vertex 14.7108 13.2435 -5
      vertex 14.6667 13.2193 -5
    endloop
  endfacet
  facet normal -0.518081 0.855332 0
    outer loop
      vertex 15.0647 13.4579 -5
      vertex 14.7108 13.2435 -1.62186e-15
      vertex 15.0647 13.4579 -1.64812e-15
    endloop
  endfacet
  facet normal -0.518081 0.855332 0
    outer loop
      vertex 14.7108 13.2435 -1.62186e-15
      vertex 15.0647 13.4579 -5
      vertex 14.7108 13.2435 -5
    endloop
  endfacet
  facet normal -0.587828 0.808986 0
    outer loop
      vertex 15.1053 13.4874 -5
      vertex 15.0647 13.4579 -1.64812e-15
      vertex 15.1053 13.4874 -1.65173e-15
    endloop
  endfacet
  facet normal -0.587828 0.808986 0
    outer loop
      vertex 15.0647 13.4579 -1.64812e-15
      vertex 15.1053 13.4874 -5
      vertex 15.0647 13.4579 -5
    endloop
  endfacet
  facet normal -0.624553 0.780983 0
    outer loop
      vertex 15.4222 13.7408 -5
      vertex 15.1053 13.4874 -1.65173e-15
      vertex 15.4222 13.7408 -1.68276e-15
    endloop
  endfacet
  facet normal -0.624553 0.780983 0
    outer loop
      vertex 15.1053 13.4874 -1.65173e-15
      vertex 15.4222 13.7408 -5
      vertex 15.1053 13.4874 -5
    endloop
  endfacet
  facet normal -0.684587 0.728931 0
    outer loop
      vertex 15.4588 13.7752 -5
      vertex 15.4222 13.7408 -1.68276e-15
      vertex 15.4588 13.7752 -1.68697e-15
    endloop
  endfacet
  facet normal -0.684587 0.728931 0
    outer loop
      vertex 15.4222 13.7408 -1.68276e-15
      vertex 15.4588 13.7752 -5
      vertex 15.4222 13.7408 -5
    endloop
  endfacet
  facet normal -0.714488 0.699648 0
    outer loop
      vertex 15.4588 13.7752 -5
      vertex 15.7358 14.058 -1.72161e-15
      vertex 15.7358 14.058 -5
    endloop
  endfacet
  facet normal -0.714488 0.699648 0
    outer loop
      vertex 15.7358 14.058 -1.72161e-15
      vertex 15.4588 13.7752 -5
      vertex 15.4588 13.7752 -1.68697e-15
    endloop
  endfacet
  facet normal -0.770508 0.637431 0
    outer loop
      vertex 15.7358 14.058 -5
      vertex 15.7678 14.0967 -1.72635e-15
      vertex 15.7678 14.0967 -5
    endloop
  endfacet
  facet normal -0.770508 0.637431 0
    outer loop
      vertex 15.7678 14.0967 -1.72635e-15
      vertex 15.7358 14.058 -5
      vertex 15.7358 14.058 -1.72161e-15
    endloop
  endfacet
  facet normal -0.790862 0.611994 0
    outer loop
      vertex 15.7678 14.0967 -5
      vertex 16.0021 14.3996 -1.76344e-15
      vertex 16.0021 14.3996 -5
    endloop
  endfacet
  facet normal -0.790862 0.611994 0
    outer loop
      vertex 16.0021 14.3996 -1.76344e-15
      vertex 15.7678 14.0967 -5
      vertex 15.7678 14.0967 -1.72635e-15
    endloop
  endfacet
  facet normal -0.844361 0.535774 0
    outer loop
      vertex 16.0021 14.3996 -5
      vertex 16.0291 14.442 -1.76864e-15
      vertex 16.0291 14.442 -5
    endloop
  endfacet
  facet normal -0.844361 0.535774 0
    outer loop
      vertex 16.0291 14.442 -1.76864e-15
      vertex 16.0021 14.3996 -5
      vertex 16.0021 14.3996 -1.76344e-15
    endloop
  endfacet
  facet normal -0.859786 0.510654 0
    outer loop
      vertex 16.0291 14.442 -5
      vertex 16.2208 14.7649 -1.80818e-15
      vertex 16.2208 14.7649 -5
    endloop
  endfacet
  facet normal -0.859786 0.510654 0
    outer loop
      vertex 16.2208 14.7649 -1.80818e-15
      vertex 16.0291 14.442 -5
      vertex 16.0291 14.442 -1.76864e-15
    endloop
  endfacet
  facet normal -0.90475 0.425943 0
    outer loop
      vertex 16.2208 14.7649 -5
      vertex 16.2422 14.8103 -1.81374e-15
      vertex 16.2422 14.8103 -5
    endloop
  endfacet
  facet normal -0.90475 0.425943 0
    outer loop
      vertex 16.2422 14.8103 -1.81374e-15
      vertex 16.2208 14.7649 -5
      vertex 16.2208 14.7649 -1.80818e-15
    endloop
  endfacet
  facet normal -0.916982 0.398928 0
    outer loop
      vertex 16.2422 14.8103 -5
      vertex 16.3914 15.1532 -1.85573e-15
      vertex 16.3914 15.1532 -5
    endloop
  endfacet
  facet normal -0.916982 0.398928 0
    outer loop
      vertex 16.3914 15.1532 -1.85573e-15
      vertex 16.2422 14.8103 -5
      vertex 16.2422 14.8103 -1.81374e-15
    endloop
  endfacet
  facet normal -0.951085 0.308928 0
    outer loop
      vertex 16.3914 15.1532 -5
      vertex 16.4069 15.2009 -1.86158e-15
      vertex 16.4069 15.2009 -5
    endloop
  endfacet
  facet normal -0.951085 0.308928 0
    outer loop
      vertex 16.4069 15.2009 -1.86158e-15
      vertex 16.3914 15.1532 -5
      vertex 16.3914 15.1532 -1.85573e-15
    endloop
  endfacet
  facet normal -0.959512 0.281668 0
    outer loop
      vertex 16.4069 15.2009 -5
      vertex 16.5134 15.5638 -1.90602e-15
      vertex 16.5134 15.5638 -5
    endloop
  endfacet
  facet normal -0.959512 0.281668 0
    outer loop
      vertex 16.5134 15.5638 -1.90602e-15
      vertex 16.4069 15.2009 -5
      vertex 16.4069 15.2009 -1.86158e-15
    endloop
  endfacet
  facet normal -0.982283 0.187405 0
    outer loop
      vertex 16.5134 15.5638 -5
      vertex 16.5228 15.6132 -1.91206e-15
      vertex 16.5228 15.6132 -5
    endloop
  endfacet
  facet normal -0.982283 0.187405 0
    outer loop
      vertex 16.5228 15.6132 -1.91206e-15
      vertex 16.5134 15.5638 -5
      vertex 16.5134 15.5638 -1.90602e-15
    endloop
  endfacet
  facet normal -0.986348 0.164673 0
    outer loop
      vertex 16.5228 15.6132 -5
      vertex 16.5867 15.996 -1.95895e-15
      vertex 16.5867 15.996 -5
    endloop
  endfacet
  facet normal -0.986348 0.164673 0
    outer loop
      vertex 16.5867 15.996 -1.95895e-15
      vertex 16.5228 15.6132 -5
      vertex 16.5228 15.6132 -1.91206e-15
    endloop
  endfacet
  facet normal -0.998545 0.05392 0
    outer loop
      vertex 16.5867 15.996 -5
      vertex 16.6112 16.449 -2.01442e-15
      vertex 16.6112 16.449 -5
    endloop
  endfacet
  facet normal -0.998545 0.05392 0
    outer loop
      vertex 16.6112 16.449 -2.01442e-15
      vertex 16.5867 15.996 -5
      vertex 16.5867 15.996 -1.95895e-15
    endloop
  endfacet
  facet normal -0.998616 -0.0525849 0
    outer loop
      vertex 16.6112 16.449 -5
      vertex 16.587 16.9086 -2.0707e-15
      vertex 16.587 16.9086 -5
    endloop
  endfacet
  facet normal -0.998616 -0.0525849 0
    outer loop
      vertex 16.587 16.9086 -2.0707e-15
      vertex 16.6112 16.449 -5
      vertex 16.6112 16.449 -2.01442e-15
    endloop
  endfacet
  facet normal -0.986938 -0.161101 0
    outer loop
      vertex 16.587 16.9086 -5
      vertex 16.5239 17.2952 -2.11805e-15
      vertex 16.5239 17.2952 -5
    endloop
  endfacet
  facet normal -0.986938 -0.161101 0
    outer loop
      vertex 16.5239 17.2952 -2.11805e-15
      vertex 16.587 16.9086 -5
      vertex 16.587 16.9086 -2.0707e-15
    endloop
  endfacet
  facet normal -0.982283 -0.187405 0
    outer loop
      vertex 16.5239 17.2952 -5
      vertex 16.5145 17.3445 -2.12409e-15
      vertex 16.5145 17.3445 -5
    endloop
  endfacet
  facet normal -0.982283 -0.187405 0
    outer loop
      vertex 16.5145 17.3445 -2.12409e-15
      vertex 16.5239 17.2952 -5
      vertex 16.5239 17.2952 -2.11805e-15
    endloop
  endfacet
  facet normal -0.960639 -0.277801 0
    outer loop
      vertex 16.5145 17.3445 -5
      vertex 16.4093 17.7084 -2.16865e-15
      vertex 16.4093 17.7084 -5
    endloop
  endfacet
  facet normal -0.960639 -0.277801 0
    outer loop
      vertex 16.4093 17.7084 -2.16865e-15
      vertex 16.5145 17.3445 -5
      vertex 16.5145 17.3445 -2.12409e-15
    endloop
  endfacet
  facet normal -0.951085 -0.308928 0
    outer loop
      vertex 16.4093 17.7084 -5
      vertex 16.3937 17.7561 -2.1745e-15
      vertex 16.3937 17.7561 -5
    endloop
  endfacet
  facet normal -0.951085 -0.308928 0
    outer loop
      vertex 16.3937 17.7561 -2.1745e-15
      vertex 16.4093 17.7084 -5
      vertex 16.4093 17.7084 -2.16865e-15
    endloop
  endfacet
  facet normal -0.918037 -0.396496 0
    outer loop
      vertex 16.3937 17.7561 -5
      vertex 16.2465 18.0971 -2.21626e-15
      vertex 16.2465 18.0971 -5
    endloop
  endfacet
  facet normal -0.918037 -0.396496 0
    outer loop
      vertex 16.2465 18.0971 -2.21626e-15
      vertex 16.3937 17.7561 -5
      vertex 16.3937 17.7561 -2.1745e-15
    endloop
  endfacet
  facet normal -0.90475 -0.425943 0
    outer loop
      vertex 16.2465 18.0971 -5
      vertex 16.2251 18.1426 -2.22183e-15
      vertex 16.2251 18.1426 -5
    endloop
  endfacet
  facet normal -0.90475 -0.425943 0
    outer loop
      vertex 16.2251 18.1426 -2.22183e-15
      vertex 16.2465 18.0971 -5
      vertex 16.2465 18.0971 -2.21626e-15
    endloop
  endfacet
  facet normal -0.859309 -0.511456 0
    outer loop
      vertex 16.2251 18.1426 -5
      vertex 16.0357 18.4608 -2.26079e-15
      vertex 16.0357 18.4608 -5
    endloop
  endfacet
  facet normal -0.859309 -0.511456 0
    outer loop
      vertex 16.0357 18.4608 -2.26079e-15
      vertex 16.2251 18.1426 -5
      vertex 16.2251 18.1426 -2.22183e-15
    endloop
  endfacet
  facet normal -0.844361 -0.535774 0
    outer loop
      vertex 16.0357 18.4608 -5
      vertex 16.0088 18.5032 -2.26599e-15
      vertex 16.0088 18.5032 -5
    endloop
  endfacet
  facet normal -0.844361 -0.535774 0
    outer loop
      vertex 16.0088 18.5032 -2.26599e-15
      vertex 16.0357 18.4608 -5
      vertex 16.0357 18.4608 -2.26079e-15
    endloop
  endfacet
  facet normal -0.787144 -0.616769 0
    outer loop
      vertex 16.0088 18.5032 -5
      vertex 15.7773 18.7986 -2.30216e-15
      vertex 15.7773 18.7986 -5
    endloop
  endfacet
  facet normal -0.787144 -0.616769 0
    outer loop
      vertex 15.7773 18.7986 -2.30216e-15
      vertex 16.0088 18.5032 -5
      vertex 16.0088 18.5032 -2.26599e-15
    endloop
  endfacet
  facet normal -0.770508 -0.637431 0
    outer loop
      vertex 15.7773 18.7986 -5
      vertex 15.7453 18.8372 -2.3069e-15
      vertex 15.7453 18.8372 -5
    endloop
  endfacet
  facet normal -0.770508 -0.637431 0
    outer loop
      vertex 15.7453 18.8372 -2.3069e-15
      vertex 15.7773 18.7986 -5
      vertex 15.7773 18.7986 -2.30216e-15
    endloop
  endfacet
  facet normal -0.705841 -0.70837 0
    outer loop
      vertex 15.4718 19.1098 -5
      vertex 15.7453 18.8372 -2.3069e-15
      vertex 15.4718 19.1098 -2.34028e-15
    endloop
  endfacet
  facet normal -0.705841 -0.70837 -0
    outer loop
      vertex 15.7453 18.8372 -2.3069e-15
      vertex 15.4718 19.1098 -5
      vertex 15.7453 18.8372 -5
    endloop
  endfacet
  facet normal -0.684587 -0.728931 0
    outer loop
      vertex 15.4352 19.1442 -5
      vertex 15.4718 19.1098 -2.34028e-15
      vertex 15.4352 19.1442 -2.34449e-15
    endloop
  endfacet
  facet normal -0.684587 -0.728931 -0
    outer loop
      vertex 15.4718 19.1098 -2.34028e-15
      vertex 15.4352 19.1442 -5
      vertex 15.4718 19.1098 -5
    endloop
  endfacet
  facet normal -0.611593 -0.791172 0
    outer loop
      vertex 15.1215 19.3867 -5
      vertex 15.4352 19.1442 -2.34449e-15
      vertex 15.1215 19.3867 -2.37418e-15
    endloop
  endfacet
  facet normal -0.611593 -0.791172 -0
    outer loop
      vertex 15.4352 19.1442 -2.34449e-15
      vertex 15.1215 19.3867 -5
      vertex 15.4352 19.1442 -5
    endloop
  endfacet
  facet normal -0.587828 -0.808986 0
    outer loop
      vertex 15.0809 19.4162 -5
      vertex 15.1215 19.3867 -2.37418e-15
      vertex 15.0809 19.4162 -2.3778e-15
    endloop
  endfacet
  facet normal -0.587828 -0.808986 -0
    outer loop
      vertex 15.1215 19.3867 -2.37418e-15
      vertex 15.0809 19.4162 -5
      vertex 15.1215 19.3867 -5
    endloop
  endfacet
  facet normal -0.503122 -0.864216 0
    outer loop
      vertex 14.7284 19.6214 -5
      vertex 15.0809 19.4162 -2.3778e-15
      vertex 14.7284 19.6214 -2.40293e-15
    endloop
  endfacet
  facet normal -0.503122 -0.864216 -0
    outer loop
      vertex 15.0809 19.4162 -2.3778e-15
      vertex 14.7284 19.6214 -5
      vertex 15.0809 19.4162 -5
    endloop
  endfacet
  facet normal -0.481744 -0.876312 0
    outer loop
      vertex 14.6844 19.6456 -5
      vertex 14.7284 19.6214 -2.40293e-15
      vertex 14.6844 19.6456 -2.40589e-15
    endloop
  endfacet
  facet normal -0.481744 -0.876312 -0
    outer loop
      vertex 14.7284 19.6214 -2.40293e-15
      vertex 14.6844 19.6456 -5
      vertex 14.7284 19.6214 -5
    endloop
  endfacet
  facet normal -0.394339 -0.918965 0
    outer loop
      vertex 14.2932 19.8135 -5
      vertex 14.6844 19.6456 -2.40589e-15
      vertex 14.2932 19.8135 -2.42645e-15
    endloop
  endfacet
  facet normal -0.394339 -0.918965 -0
    outer loop
      vertex 14.6844 19.6456 -2.40589e-15
      vertex 14.2932 19.8135 -5
      vertex 14.6844 19.6456 -5
    endloop
  endfacet
  facet normal -0.368141 -0.92977 0
    outer loop
      vertex 14.2465 19.832 -5
      vertex 14.2932 19.8135 -2.42645e-15
      vertex 14.2465 19.832 -2.42871e-15
    endloop
  endfacet
  facet normal -0.368141 -0.92977 -0
    outer loop
      vertex 14.2932 19.8135 -2.42645e-15
      vertex 14.2465 19.832 -5
      vertex 14.2932 19.8135 -5
    endloop
  endfacet
  facet normal -0.290545 -0.956861 0
    outer loop
      vertex 13.8165 19.9625 -5
      vertex 14.2465 19.832 -2.42871e-15
      vertex 13.8165 19.9625 -2.4447e-15
    endloop
  endfacet
  facet normal -0.290545 -0.956861 -0
    outer loop
      vertex 14.2465 19.832 -2.42871e-15
      vertex 13.8165 19.9625 -5
      vertex 14.2465 19.832 -5
    endloop
  endfacet
  facet normal -0.248821 -0.968549 0
    outer loop
      vertex 13.7678 19.975 -5
      vertex 13.8165 19.9625 -2.4447e-15
      vertex 13.7678 19.975 -2.44623e-15
    endloop
  endfacet
  facet normal -0.248821 -0.968549 -0
    outer loop
      vertex 13.8165 19.9625 -2.4447e-15
      vertex 13.7678 19.975 -5
      vertex 13.8165 19.9625 -5
    endloop
  endfacet
  facet normal -0.195152 -0.980773 0
    outer loop
      vertex 13.299 20.0683 -5
      vertex 13.7678 19.975 -2.44623e-15
      vertex 13.299 20.0683 -2.45766e-15
    endloop
  endfacet
  facet normal -0.195152 -0.980773 -0
    outer loop
      vertex 13.7678 19.975 -2.44623e-15
      vertex 13.299 20.0683 -5
      vertex 13.7678 19.975 -5
    endloop
  endfacet
  facet normal -0.110975 -0.993823 0
    outer loop
      vertex 12.7416 20.1305 -5
      vertex 13.299 20.0683 -2.45766e-15
      vertex 12.7416 20.1305 -2.46528e-15
    endloop
  endfacet
  facet normal -0.110975 -0.993823 -0
    outer loop
      vertex 13.299 20.0683 -2.45766e-15
      vertex 12.7416 20.1305 -5
      vertex 13.299 20.0683 -5
    endloop
  endfacet
  facet normal -0.0341383 -0.999417 0
    outer loop
      vertex 12.1953 20.1492 -5
      vertex 12.7416 20.1305 -2.46528e-15
      vertex 12.1953 20.1492 -2.46757e-15
    endloop
  endfacet
  facet normal -0.0341383 -0.999417 -0
    outer loop
      vertex 12.7416 20.1305 -2.46528e-15
      vertex 12.1953 20.1492 -5
      vertex 12.7416 20.1305 -5
    endloop
  endfacet
  facet normal 0 -1 0
    outer loop
      vertex -7.3069 20.1492 -5
      vertex 12.1953 20.1492 -2.46757e-15
      vertex -7.3069 20.1492 -2.46757e-15
    endloop
  endfacet
  facet normal 0 -1 -0
    outer loop
      vertex 12.1953 20.1492 -2.46757e-15
      vertex -7.3069 20.1492 -5
      vertex 12.1953 20.1492 -5
    endloop
  endfacet
  facet normal -0 1.17015e-07 1
    outer loop
      vertex -25 8.15 23.2
      vertex -24 -8.15 23.2
      vertex -24 8.15 23.2
    endloop
  endfacet
  facet normal 0 1.17015e-07 1
    outer loop
      vertex -24 -8.15 23.2
      vertex -25 8.15 23.2
      vertex -25 -8.15 23.2
    endloop
  endfacet
  facet normal 0 1 -0
    outer loop
      vertex -24 -8.15 23.2
      vertex -25 -8.15 25
      vertex -24 -8.15 25
    endloop
  endfacet
  facet normal 0 1 0
    outer loop
      vertex -25 -8.15 25
      vertex -24 -8.15 23.2
      vertex -25 -8.15 23.2
    endloop
  endfacet
  facet normal 0 -1 0
    outer loop
      vertex -25 8.15 23.2
      vertex -24 8.15 25
      vertex -25 8.15 25
    endloop
  endfacet
  facet normal 0 -1 -0
    outer loop
      vertex -24 8.15 25
      vertex -25 8.15 23.2
      vertex -24 8.15 23.2
    endloop
  endfacet
  facet normal -0 1.17015e-07 1
    outer loop
      vertex 24 8.15 23.2
      vertex 25 -8.15 23.2
      vertex 25 8.15 23.2
    endloop
  endfacet
  facet normal 0 1.17015e-07 1
    outer loop
      vertex 25 -8.15 23.2
      vertex 24 8.15 23.2
      vertex 24 -8.15 23.2
    endloop
  endfacet
  facet normal 0 1 -0
    outer loop
      vertex 25 -8.15 23.2
      vertex 24 -8.15 25
      vertex 25 -8.15 25
    endloop
  endfacet
  facet normal 0 1 0
    outer loop
      vertex 24 -8.15 25
      vertex 25 -8.15 23.2
      vertex 24 -8.15 23.2
    endloop
  endfacet
  facet normal 0 -1 0
    outer loop
      vertex 24 8.15 23.2
      vertex 25 8.15 25
      vertex 24 8.15 25
    endloop
  endfacet
  facet normal 0 -1 -0
    outer loop
      vertex 25 8.15 25
      vertex 24 8.15 23.2
      vertex 25 8.15 23.2
    endloop
  endfacet
  facet normal 1 -0 0
    outer loop
      vertex -8.15 -25 25
      vertex -8.15 -24 23.2
      vertex -8.15 -24 25
    endloop
  endfacet
  facet normal 1 0 0
    outer loop
      vertex -8.15 -24 23.2
      vertex -8.15 -25 25
      vertex -8.15 -25 23.2
    endloop
  endfacet
  facet normal -0 0 1
    outer loop
      vertex -8.15 -24 23.2
      vertex 8.15 -25 23.2
      vertex 8.15 -24 23.2
    endloop
  endfacet
  facet normal 0 0 1
    outer loop
      vertex 8.15 -25 23.2
      vertex -8.15 -24 23.2
      vertex -8.15 -25 23.2
    endloop
  endfacet
  facet normal -1 0 0
    outer loop
      vertex 8.15 -25 23.2
      vertex 8.15 -24 25
      vertex 8.15 -24 23.2
    endloop
  endfacet
  facet normal -1 -0 0
    outer loop
      vertex 8.15 -24 25
      vertex 8.15 -25 23.2
      vertex 8.15 -25 25
    endloop
  endfacet
  facet normal 1 -0 0
    outer loop
      vertex -8.15 24 25
      vertex -8.15 25 23.2
      vertex -8.15 25 25
    endloop
  endfacet
  facet normal 1 0 0
    outer loop
      vertex -8.15 25 23.2
      vertex -8.15 24 25
      vertex -8.15 24 23.2
    endloop
  endfacet
  facet normal -0 0 1
    outer loop
      vertex -8.15 25 23.2
      vertex 8.15 24 23.2
      vertex 8.15 25 23.2
    endloop
  endfacet
  facet normal 0 0 1
    outer loop
      vertex 8.15 24 23.2
      vertex -8.15 25 23.2
      vertex -8.15 24 23.2
    endloop
  endfacet
  facet normal -1 0 0
    outer loop
      vertex 8.15 24 23.2
      vertex 8.15 25 25
      vertex 8.15 25 23.2
    endloop
  endfacet
  facet normal -1 -0 0
    outer loop
      vertex 8.15 25 25
      vertex 8.15 24 23.2
      vertex 8.15 24 25
    endloop
  endfacet
endsolid OpenSCAD_Model
