solid OpenSCAD_Model
  facet normal -1 0 0
    outer loop
      vertex -25 25 -5
      vertex -25 8.15 23.2
      vertex -25 25 25
    endloop
  endfacet
  facet normal -1 0 0
    outer loop
      vertex -25 25 -5
      vertex -25 -8.15 23.2
      vertex -25 8.15 23.2
    endloop
  endfacet
  facet normal -1 0 0
    outer loop
      vertex -25 -25 -5
      vertex -25 -8.15 23.2
      vertex -25 25 -5
    endloop
  endfacet
  facet normal -1 0 0
    outer loop
      vertex -25 -25 25
      vertex -25 -8.15 23.2
      vertex -25 -25 -5
    endloop
  endfacet
  facet normal -1 0 0
    outer loop
      vertex -25 -8.15 23.2
      vertex -25 -25 25
      vertex -25 -8.15 25
    endloop
  endfacet
  facet normal -1 -0 0
    outer loop
      vertex -25 25 25
      vertex -25 8.15 23.2
      vertex -25 8.15 25
    endloop
  endfacet
  facet normal -1.472e-24 1.22465e-16 1
    outer loop
      vertex 24 24 -2.93915e-15
      vertex 4.64624 15.1972 -1.86112e-15
      vertex 24 -24 2.93915e-15
    endloop
  endfacet
  facet normal -7.4299e-23 1.22465e-16 1
    outer loop
      vertex 24 24 -2.93915e-15
      vertex 4.62325 15.8775 -1.94443e-15
      vertex 4.64624 15.1972 -1.86112e-15
    endloop
  endfacet
  facet normal 8.81804e-22 1.22463e-16 1
    outer loop
      vertex 24 24 -2.93915e-15
      vertex 4.62009 15.9276 -1.95057e-15
      vertex 4.62325 15.8775 -1.94443e-15
    endloop
  endfacet
  facet normal -7.66938e-23 1.22465e-16 1
    outer loop
      vertex 24 24 -2.93915e-15
      vertex 4.55109 16.5569 -2.02764e-15
      vertex 4.62009 15.9276 -1.95057e-15
    endloop
  endfacet
  facet normal 7.56684e-23 1.22464e-16 1
    outer loop
      vertex 24 24 -2.93915e-15
      vertex 4.42667 17.1846 -2.10451e-15
      vertex 4.55109 16.5569 -2.02764e-15
    endloop
  endfacet
  facet normal -5.21091e-23 1.22465e-16 1
    outer loop
      vertex 24 24 -2.93915e-15
      vertex 4.25015 17.7598 -2.17495e-15
      vertex 4.42667 17.1846 -2.10451e-15
    endloop
  endfacet
  facet normal -7.83048e-24 1.22465e-16 1
    outer loop
      vertex 24 24 -2.93915e-15
      vertex 4.04315 18.2363 -2.23331e-15
      vertex 4.25015 17.7598 -2.17495e-15
    endloop
  endfacet
  facet normal 4.58194e-22 1.22463e-16 1
    outer loop
      vertex 24 24 -2.93915e-15
      vertex 4.02176 18.2818 -2.23887e-15
      vertex 4.04315 18.2363 -2.23331e-15
    endloop
  endfacet
  facet normal -3.03954e-23 1.22465e-16 1
    outer loop
      vertex 24 24 -2.93915e-15
      vertex 3.76875 18.7073 -2.29099e-15
      vertex 4.02176 18.2818 -2.23887e-15
    endloop
  endfacet
  facet normal 1.51081e-22 1.22464e-16 1
    outer loop
      vertex 24 24 -2.93915e-15
      vertex 3.74184 18.7497 -2.29618e-15
      vertex 3.76875 18.7073 -2.29099e-15
    endloop
  endfacet
  facet normal -3.73737e-23 1.22465e-16 1
    outer loop
      vertex 24 24 -2.93915e-15
      vertex 3.41083 19.163 -2.3468e-15
      vertex 3.74184 18.7497 -2.29618e-15
    endloop
  endfacet
  facet normal -2.76368e-23 1.22465e-16 1
    outer loop
      vertex 24 24 -2.93915e-15
      vertex 3.03809 19.5214 -2.39068e-15
      vertex 3.41083 19.163 -2.3468e-15
    endloop
  endfacet
  facet normal -1.46886e-23 1.22465e-16 1
    outer loop
      vertex 24 24 -2.93915e-15
      vertex 2.63309 19.825 -2.42786e-15
      vertex 3.03809 19.5214 -2.39068e-15
    endloop
  endfacet
  facet normal 5.54032e-23 1.22464e-16 1
    outer loop
      vertex 24 24 -2.93915e-15
      vertex 2.19644 20.0735 -2.45829e-15
      vertex 2.63309 19.825 -2.42786e-15
    endloop
  endfacet
  facet normal 3.6265e-23 1.22464e-16 1
    outer loop
      vertex 24 24 -2.93915e-15
      vertex 1.72888 20.2664 -2.48192e-15
      vertex 2.19644 20.0735 -2.45829e-15
    endloop
  endfacet
  facet normal -1.25493e-22 1.22465e-16 1
    outer loop
      vertex 24 24 -2.93915e-15
      vertex 1.23114 20.4035 -2.49871e-15
      vertex 1.72888 20.2664 -2.48192e-15
    endloop
  endfacet
  facet normal 5.7296e-23 1.22464e-16 1
    outer loop
      vertex 24 24 -2.93915e-15
      vertex 0.753784 20.4782 -2.50786e-15
      vertex 1.23114 20.4035 -2.49871e-15
    endloop
  endfacet
  facet normal 1.61633e-21 1.22454e-16 1
    outer loop
      vertex 24 24 -2.93915e-15
      vertex 0.703949 20.4845 -2.50863e-15
      vertex 0.753784 20.4782 -2.50786e-15
    endloop
  endfacet
  facet normal -1.81279e-22 1.22466e-16 1
    outer loop
      vertex 24 24 -2.93915e-15
      vertex 0.198364 20.5094 -2.51168e-15
      vertex 0.703949 20.4845 -2.50863e-15
    endloop
  endfacet
  facet normal 0 1.22465e-16 1
    outer loop
      vertex 24 24 -2.93915e-15
      vertex 0.148132 20.5094 -2.51168e-15
      vertex 0.198364 20.5094 -2.51168e-15
    endloop
  endfacet
  facet normal -0 1.22465e-16 1
    outer loop
      vertex -24 24 -2.93915e-15
      vertex 0.148132 20.5094 -2.51168e-15
      vertex 24 24 -2.93915e-15
    endloop
  endfacet
  facet normal -2.81133e-23 1.22464e-16 1
    outer loop
      vertex 0.148132 20.5094 -2.51168e-15
      vertex -24 24 -2.93915e-15
      vertex -0.335693 20.4842 -2.5086e-15
    endloop
  endfacet
  facet normal 1.44011e-24 1.22465e-16 1
    outer loop
      vertex -24 -24 2.93915e-15
      vertex -4.21773 15.1972 -1.86112e-15
      vertex -24 24 -2.93915e-15
    endloop
  endfacet
  facet normal 2.91144e-23 1.22465e-16 1
    outer loop
      vertex -4.19473 15.8706 -1.94359e-15
      vertex -24 24 -2.93915e-15
      vertex -4.21773 15.1972 -1.86112e-15
    endloop
  endfacet
  facet normal -8.67277e-22 1.22463e-16 1
    outer loop
      vertex -4.19157 15.9207 -1.94973e-15
      vertex -24 24 -2.93915e-15
      vertex -4.19473 15.8706 -1.94359e-15
    endloop
  endfacet
  facet normal 4.18944e-25 1.22465e-16 1
    outer loop
      vertex -4.12257 16.5448 -2.02615e-15
      vertex -24 24 -2.93915e-15
      vertex -4.19157 15.9207 -1.94973e-15
    endloop
  endfacet
  facet normal 6.27442e-23 1.22465e-16 1
    outer loop
      vertex -3.99815 17.1688 -2.10258e-15
      vertex -24 24 -2.93915e-15
      vertex -4.12257 16.5448 -2.02615e-15
    endloop
  endfacet
  facet normal 3.60893e-23 1.22465e-16 1
    outer loop
      vertex -3.82164 17.742 -2.17277e-15
      vertex -24 24 -2.93915e-15
      vertex -3.99815 17.1688 -2.10258e-15
    endloop
  endfacet
  facet normal 5.16251e-24 1.22465e-16 1
    outer loop
      vertex -3.61464 18.2182 -2.23108e-15
      vertex -24 24 -2.93915e-15
      vertex -3.82164 17.742 -2.17277e-15
    endloop
  endfacet
  facet normal -4.49429e-22 1.22463e-16 1
    outer loop
      vertex -3.59325 18.2636 -2.23665e-15
      vertex -24 24 -2.93915e-15
      vertex -3.61464 18.2182 -2.23108e-15
    endloop
  endfacet
  facet normal -4.15641e-23 1.22465e-16 1
    outer loop
      vertex -3.34024 18.6904 -2.28892e-15
      vertex -24 24 -2.93915e-15
      vertex -3.59325 18.2636 -2.23665e-15
    endloop
  endfacet
  facet normal 9.50363e-22 1.22468e-16 1
    outer loop
      vertex -3.31332 18.7328 -2.29411e-15
      vertex -24 24 -2.93915e-15
      vertex -3.34024 18.6904 -2.28892e-15
    endloop
  endfacet
  facet normal -1.04975e-23 1.22465e-16 1
    outer loop
      vertex -2.98232 19.149 -2.34508e-15
      vertex -24 24 -2.93915e-15
      vertex -3.31332 18.7328 -2.29411e-15
    endloop
  endfacet
  facet normal -1.11643e-23 1.22465e-16 1
    outer loop
      vertex -2.61125 19.5111 -2.38942e-15
      vertex -24 24 -2.93915e-15
      vertex -2.98232 19.149 -2.34508e-15
    endloop
  endfacet
  facet normal -6.21156e-23 1.22464e-16 1
    outer loop
      vertex -2.25191 19.7883 -2.42337e-15
      vertex -24 24 -2.93915e-15
      vertex -2.61125 19.5111 -2.38942e-15
    endloop
  endfacet
  facet normal 6.28168e-22 1.22468e-16 1
    outer loop
      vertex -2.21127 19.8179 -2.42699e-15
      vertex -24 24 -2.93915e-15
      vertex -2.25191 19.7883 -2.42337e-15
    endloop
  endfacet
  facet normal -1.85475e-23 1.22465e-16 1
    outer loop
      vertex -1.82703 20.0447 -2.45477e-15
      vertex -24 24 -2.93915e-15
      vertex -2.21127 19.8179 -2.42699e-15
    endloop
  endfacet
  facet normal 3.88124e-22 1.22467e-16 1
    outer loop
      vertex -1.783 20.0689 -2.45773e-15
      vertex -24 24 -2.93915e-15
      vertex -1.82703 20.0447 -2.45477e-15
    endloop
  endfacet
  facet normal -1.17196e-22 1.22464e-16 1
    outer loop
      vertex -1.37386 20.2453 -2.47934e-15
      vertex -24 24 -2.93915e-15
      vertex -1.783 20.0689 -2.45773e-15
    endloop
  endfacet
  facet normal 9.28264e-22 1.2247e-16 1
    outer loop
      vertex -1.32715 20.2638 -2.4816e-15
      vertex -24 24 -2.93915e-15
      vertex -1.37386 20.2453 -2.47934e-15
    endloop
  endfacet
  facet normal -1.07542e-22 1.22464e-16 1
    outer loop
      vertex -0.893112 20.3898 -2.49704e-15
      vertex -24 24 -2.93915e-15
      vertex -1.32715 20.2638 -2.4816e-15
    endloop
  endfacet
  facet normal 1.19535e-21 1.22472e-16 1
    outer loop
      vertex -0.844467 20.4023 -2.49857e-15
      vertex -24 24 -2.93915e-15
      vertex -0.893112 20.3898 -2.49704e-15
    endloop
  endfacet
  facet normal -9.69638e-23 1.22464e-16 1
    outer loop
      vertex -0.385529 20.478 -2.50783e-15
      vertex -24 24 -2.93915e-15
      vertex -0.844467 20.4023 -2.49857e-15
    endloop
  endfacet
  facet normal 6.95868e-22 1.22469e-16 1
    outer loop
      vertex -0.335693 20.4842 -2.5086e-15
      vertex -24 24 -2.93915e-15
      vertex -0.385529 20.478 -2.50783e-15
    endloop
  endfacet
  facet normal -1.08546e-24 1.22465e-16 1
    outer loop
      vertex 4.64624 -16.1557 1.97851e-15
      vertex 24 -24 2.93915e-15
      vertex 4.64624 15.1972 -1.86112e-15
    endloop
  endfacet
  facet normal 2.22768e-23 1.22465e-16 1
    outer loop
      vertex 4.62325 -16.8357 2.06178e-15
      vertex 24 -24 2.93915e-15
      vertex 4.64624 -16.1557 1.97851e-15
    endloop
  endfacet
  facet normal 7.40963e-22 1.22467e-16 1
    outer loop
      vertex 4.62009 -16.8858 2.06792e-15
      vertex 24 -24 2.93915e-15
      vertex 4.62325 -16.8357 2.06178e-15
    endloop
  endfacet
  facet normal -2.57144e-23 1.22465e-16 1
    outer loop
      vertex 4.55109 -17.5143 2.14488e-15
      vertex 24 -24 2.93915e-15
      vertex 4.62009 -16.8858 2.06792e-15
    endloop
  endfacet
  facet normal -1.65934e-23 1.22465e-16 1
    outer loop
      vertex 4.42667 -18.1406 2.22158e-15
      vertex 24 -24 2.93915e-15
      vertex 4.55109 -17.5143 2.14488e-15
    endloop
  endfacet
  facet normal 2.99071e-23 1.22465e-16 1
    outer loop
      vertex 4.25015 -18.7138 2.29177e-15
      vertex 24 -24 2.93915e-15
      vertex 4.42667 -18.1406 2.22158e-15
    endloop
  endfacet
  facet normal -4.48061e-23 1.22464e-16 1
    outer loop
      vertex 4.04315 -19.1877 2.34981e-15
      vertex 24 -24 2.93915e-15
      vertex 4.25015 -18.7138 2.29177e-15
    endloop
  endfacet
  facet normal 6.14453e-22 1.22467e-16 1
    outer loop
      vertex 4.02176 -19.2331 2.35538e-15
      vertex 24 -24 2.93915e-15
      vertex 4.04315 -19.1877 2.34981e-15
    endloop
  endfacet
  facet normal 1.46989e-23 1.22465e-16 1
    outer loop
      vertex 3.76875 -19.6555 2.40711e-15
      vertex 24 -24 2.93915e-15
      vertex 4.02176 -19.2331 2.35538e-15
    endloop
  endfacet
  facet normal -1.23901e-22 1.22464e-16 1
    outer loop
      vertex 3.74184 -19.698 2.4123e-15
      vertex 24 -24 2.93915e-15
      vertex 3.76875 -19.6555 2.40711e-15
    endloop
  endfacet
  facet normal -2.54845e-23 1.22465e-16 1
    outer loop
      vertex 3.41083 -20.1075 2.46246e-15
      vertex 24 -24 2.93915e-15
      vertex 3.74184 -19.698 2.4123e-15
    endloop
  endfacet
  facet normal 5.31694e-23 1.22465e-16 1
    outer loop
      vertex 3.03809 -20.4624 2.50593e-15
      vertex 24 -24 2.93915e-15
      vertex 3.41083 -20.1075 2.46246e-15
    endloop
  endfacet
  facet normal -5.373e-23 1.22464e-16 1
    outer loop
      vertex 2.63309 -20.7631 2.54275e-15
      vertex 24 -24 2.93915e-15
      vertex 3.03809 -20.4624 2.50593e-15
    endloop
  endfacet
  facet normal 1.40938e-23 1.22465e-16 1
    outer loop
      vertex 2.19644 -21.0092 2.57289e-15
      vertex 24 -24 2.93915e-15
      vertex 2.63309 -20.7631 2.54275e-15
    endloop
  endfacet
  facet normal 5.71664e-23 1.22465e-16 1
    outer loop
      vertex 1.72888 -21.2003 2.59629e-15
      vertex 24 -24 2.93915e-15
      vertex 2.19644 -21.0092 2.57289e-15
    endloop
  endfacet
  facet normal -8.44801e-23 1.22464e-16 1
    outer loop
      vertex 1.23114 -21.336 2.61291e-15
      vertex 24 -24 2.93915e-15
      vertex 1.72888 -21.2003 2.59629e-15
    endloop
  endfacet
  facet normal 1.14938e-22 1.22466e-16 1
    outer loop
      vertex 0.753784 -21.41 2.62197e-15
      vertex 24 -24 2.93915e-15
      vertex 1.23114 -21.336 2.61291e-15
    endloop
  endfacet
  facet normal -1.38795e-21 1.22452e-16 1
    outer loop
      vertex 0.703949 -21.4163 2.62274e-15
      vertex 24 -24 2.93915e-15
      vertex 0.753784 -21.41 2.62197e-15
    endloop
  endfacet
  facet normal 1.72118e-22 1.22466e-16 1
    outer loop
      vertex 0.198364 -21.4409 2.62576e-15
      vertex 24 -24 2.93915e-15
      vertex 0.703949 -21.4163 2.62274e-15
    endloop
  endfacet
  facet normal -0 1.22465e-16 1
    outer loop
      vertex 0.148132 -21.4409 2.62576e-15
      vertex 24 -24 2.93915e-15
      vertex 0.198364 -21.4409 2.62576e-15
    endloop
  endfacet
  facet normal 1.9903e-23 1.22464e-16 1
    outer loop
      vertex -24 -24 2.93915e-15
      vertex 0.148132 -21.4409 2.62576e-15
      vertex -0.342834 -21.416 2.6227e-15
    endloop
  endfacet
  facet normal 1.06195e-24 1.22465e-16 1
    outer loop
      vertex -4.21773 15.1972 -1.86112e-15
      vertex -24 -24 2.93915e-15
      vertex -4.21773 -16.1557 1.97851e-15
    endloop
  endfacet
  facet normal -8.3962e-23 1.22465e-16 1
    outer loop
      vertex -4.21773 -16.1557 1.97851e-15
      vertex -24 -24 2.93915e-15
      vertex -4.19502 -16.8288 2.06093e-15
    endloop
  endfacet
  facet normal 7.64323e-22 1.22463e-16 1
    outer loop
      vertex -4.19502 -16.8288 2.06093e-15
      vertex -24 -24 2.93915e-15
      vertex -4.19186 -16.8789 2.06707e-15
    endloop
  endfacet
  facet normal -2.30021e-23 1.22465e-16 1
    outer loop
      vertex -4.19186 -16.8789 2.06707e-15
      vertex -24 -24 2.93915e-15
      vertex -4.12372 -17.5021 2.14339e-15
    endloop
  endfacet
  facet normal -2.58775e-23 1.22465e-16 1
    outer loop
      vertex -4.12372 -17.5021 2.14339e-15
      vertex -24 -24 2.93915e-15
      vertex -4.00073 -18.1248 2.21964e-15
    endloop
  endfacet
  facet normal -3.41636e-23 1.22465e-16 1
    outer loop
      vertex -4.00073 -18.1248 2.21964e-15
      vertex -24 -24 2.93915e-15
      vertex -3.82622 -18.696 2.2896e-15
    endloop
  endfacet
  facet normal 6.29862e-23 1.22464e-16 1
    outer loop
      vertex -3.82622 -18.696 2.2896e-15
      vertex -24 -24 2.93915e-15
      vertex -3.62178 -19.1695 2.34759e-15
    endloop
  endfacet
  facet normal 0 1.22465e-16 1
    outer loop
      vertex 0.148132 -21.4409 2.62576e-15
      vertex -24 -24 2.93915e-15
      vertex 24 -24 2.93915e-15
    endloop
  endfacet
  facet normal -5.9836e-22 1.2247e-16 1
    outer loop
      vertex -0.39267 -21.4097 2.62193e-15
      vertex -24 -24 2.93915e-15
      vertex -0.342834 -21.416 2.6227e-15
    endloop
  endfacet
  facet normal -8.08096e-23 1.22465e-16 1
    outer loop
      vertex -0.85704 -21.3349 2.61277e-15
      vertex -24 -24 2.93915e-15
      vertex -0.39267 -21.4097 2.62193e-15
    endloop
  endfacet
  facet normal 3.69287e-22 1.22461e-16 1
    outer loop
      vertex -0.905685 -21.3224 2.61124e-15
      vertex -24 -24 2.93915e-15
      vertex -0.85704 -21.3349 2.61277e-15
    endloop
  endfacet
  facet normal -1.58327e-23 1.22465e-16 1
    outer loop
      vertex -1.34343 -21.1977 2.59597e-15
      vertex -24 -24 2.93915e-15
      vertex -0.905685 -21.3224 2.61124e-15
    endloop
  endfacet
  facet normal 3.29734e-22 1.22462e-16 1
    outer loop
      vertex -1.39014 -21.1792 2.59371e-15
      vertex -24 -24 2.93915e-15
      vertex -1.34343 -21.1977 2.59597e-15
    endloop
  endfacet
  facet normal 2.27661e-23 1.22464e-16 1
    outer loop
      vertex -1.80128 -21.0046 2.57233e-15
      vertex -24 -24 2.93915e-15
      vertex -1.39014 -21.1792 2.59371e-15
    endloop
  endfacet
  facet normal -3.14811e-22 1.22467e-16 1
    outer loop
      vertex -1.84531 -20.9804 2.56936e-15
      vertex -24 -24 2.93915e-15
      vertex -1.80128 -21.0046 2.57233e-15
    endloop
  endfacet
  facet normal -3.16408e-23 1.22465e-16 1
    outer loop
      vertex -2.22984 -20.756 2.54188e-15
      vertex -24 -24 2.93915e-15
      vertex -1.84531 -20.9804 2.56936e-15
    endloop
  endfacet
  facet normal 3.78536e-22 1.22462e-16 1
    outer loop
      vertex -2.27048 -20.7265 2.53826e-15
      vertex -24 -24 2.93915e-15
      vertex -2.22984 -20.756 2.54188e-15
    endloop
  endfacet
  facet normal 4.74765e-25 1.22465e-16 1
    outer loop
      vertex -2.62839 -20.4521 2.50467e-15
      vertex -24 -24 2.93915e-15
      vertex -2.27048 -20.7265 2.53826e-15
    endloop
  endfacet
  facet normal -1.99278e-23 1.22465e-16 1
    outer loop
      vertex -2.99632 -20.0936 2.46075e-15
      vertex -24 -24 2.93915e-15
      vertex -2.62839 -20.4521 2.50467e-15
    endloop
  endfacet
  facet normal -4.00459e-23 1.22465e-16 1
    outer loop
      vertex -3.02834 -20.0549 2.45601e-15
      vertex -24 -24 2.93915e-15
      vertex -2.99632 -20.0936 2.46075e-15
    endloop
  endfacet
  facet normal -8.25373e-26 1.22465e-16 1
    outer loop
      vertex -3.32362 -19.6811 2.41023e-15
      vertex -24 -24 2.93915e-15
      vertex -3.02834 -20.0549 2.45601e-15
    endloop
  endfacet
  facet normal 1.24546e-22 1.22464e-16 1
    outer loop
      vertex -3.35054 -19.6386 2.40504e-15
      vertex -24 -24 2.93915e-15
      vertex -3.32362 -19.6811 2.41023e-15
    endloop
  endfacet
  facet normal 2.87498e-23 1.22465e-16 1
    outer loop
      vertex -3.60039 -19.215 2.35315e-15
      vertex -24 -24 2.93915e-15
      vertex -3.35054 -19.6386 2.40504e-15
    endloop
  endfacet
  facet normal -6.06627e-22 1.22467e-16 1
    outer loop
      vertex -3.62178 -19.1695 2.34759e-15
      vertex -24 -24 2.93915e-15
      vertex -3.60039 -19.215 2.35315e-15
    endloop
  endfacet
  facet normal 1 0 0
    outer loop
      vertex 25 -8.15 25
      vertex 25 -25 25
      vertex 25 -8.15 23.2
    endloop
  endfacet
  facet normal 1 0 0
    outer loop
      vertex 25 8.15 23.2
      vertex 25 25 25
      vertex 25 8.15 25
    endloop
  endfacet
  facet normal 1 0 0
    outer loop
      vertex 25 25 25
      vertex 25 8.15 23.2
      vertex 25 25 -5
    endloop
  endfacet
  facet normal 1 0 0
    outer loop
      vertex 25 -8.15 23.2
      vertex 25 25 -5
      vertex 25 8.15 23.2
    endloop
  endfacet
  facet normal 1 0 0
    outer loop
      vertex 25 -25 -5
      vertex 25 -8.15 23.2
      vertex 25 -25 25
    endloop
  endfacet
  facet normal 1 0 0
    outer loop
      vertex 25 -8.15 23.2
      vertex 25 -25 -5
      vertex 25 25 -5
    endloop
  endfacet
  facet normal 0 -1 0
    outer loop
      vertex -25 -25 25
      vertex -8.15 -25 23.2
      vertex -8.15 -25 25
    endloop
  endfacet
  facet normal 0 -1 -0
    outer loop
      vertex -8.15 -25 23.2
      vertex -25 -25 -5
      vertex 8.15 -25 23.2
    endloop
  endfacet
  facet normal 0 -1 0
    outer loop
      vertex -25 -25 -5
      vertex -8.15 -25 23.2
      vertex -25 -25 25
    endloop
  endfacet
  facet normal 0 -1 0
    outer loop
      vertex 8.15 -25 23.2
      vertex 25 -25 25
      vertex 8.15 -25 25
    endloop
  endfacet
  facet normal 0 -1 0
    outer loop
      vertex 25 -25 -5
      vertex 8.15 -25 23.2
      vertex -25 -25 -5
    endloop
  endfacet
  facet normal 0 -1 0
    outer loop
      vertex 8.15 -25 23.2
      vertex 25 -25 -5
      vertex 25 -25 25
    endloop
  endfacet
  facet normal 0 0 1
    outer loop
      vertex -24 -8.15 25
      vertex -25 -8.15 25
      vertex -24 -24 25
    endloop
  endfacet
  facet normal -0 0 1
    outer loop
      vertex -24 -24 25
      vertex -8.15 -25 25
      vertex -8.15 -24 25
    endloop
  endfacet
  facet normal 0 0 1
    outer loop
      vertex -24 -24 25
      vertex -25 -25 25
      vertex -8.15 -25 25
    endloop
  endfacet
  facet normal 0 0 1
    outer loop
      vertex -25 -25 25
      vertex -24 -24 25
      vertex -25 -8.15 25
    endloop
  endfacet
  facet normal 0 0 1
    outer loop
      vertex -8.15 25 25
      vertex -24 24 25
      vertex -8.15 24 25
    endloop
  endfacet
  facet normal -0 0 1
    outer loop
      vertex -25 25 25
      vertex -24 24 25
      vertex -8.15 25 25
    endloop
  endfacet
  facet normal 0 0 1
    outer loop
      vertex -25 8.15 25
      vertex -24 24 25
      vertex -25 25 25
    endloop
  endfacet
  facet normal 0 0 1
    outer loop
      vertex -24 24 25
      vertex -25 8.15 25
      vertex -24 8.15 25
    endloop
  endfacet
  facet normal 0 0 1
    outer loop
      vertex 25 25 25
      vertex 24 24 25
      vertex 25 8.15 25
    endloop
  endfacet
  facet normal -0 0 1
    outer loop
      vertex 8.15 25 25
      vertex 24 24 25
      vertex 25 25 25
    endloop
  endfacet
  facet normal 0 0 1
    outer loop
      vertex 24 24 25
      vertex 8.15 25 25
      vertex 8.15 24 25
    endloop
  endfacet
  facet normal 0 0 1
    outer loop
      vertex 25 8.15 25
      vertex 24 24 25
      vertex 24 8.15 25
    endloop
  endfacet
  facet normal 0 0 1
    outer loop
      vertex 24 -24 25
      vertex 25 -8.15 25
      vertex 24 -8.15 25
    endloop
  endfacet
  facet normal 0 0 1
    outer loop
      vertex 25 -8.15 25
      vertex 24 -24 25
      vertex 25 -25 25
    endloop
  endfacet
  facet normal 0 0 1
    outer loop
      vertex 8.15 -25 25
      vertex 24 -24 25
      vertex 8.15 -24 25
    endloop
  endfacet
  facet normal 0 0 1
    outer loop
      vertex 24 -24 25
      vertex 8.15 -25 25
      vertex 25 -25 25
    endloop
  endfacet
  facet normal 0 1 0
    outer loop
      vertex 25 25 25
      vertex 8.15 25 23.2
      vertex 8.15 25 25
    endloop
  endfacet
  facet normal 0 1 0
    outer loop
      vertex 8.15 25 23.2
      vertex 25 25 -5
      vertex -8.15 25 23.2
    endloop
  endfacet
  facet normal 0 1 -0
    outer loop
      vertex 25 25 -5
      vertex 8.15 25 23.2
      vertex 25 25 25
    endloop
  endfacet
  facet normal 0 1 -0
    outer loop
      vertex -8.15 25 23.2
      vertex -25 25 25
      vertex -8.15 25 25
    endloop
  endfacet
  facet normal 0 1 0
    outer loop
      vertex -25 25 -5
      vertex -8.15 25 23.2
      vertex 25 25 -5
    endloop
  endfacet
  facet normal 0 1 0
    outer loop
      vertex -8.15 25 23.2
      vertex -25 25 -5
      vertex -25 25 25
    endloop
  endfacet
  facet normal 1 0 0
    outer loop
      vertex -24 -8.15 25
      vertex -24 -24 25
      vertex -24 -8.15 23.2
    endloop
  endfacet
  facet normal 1 0 0
    outer loop
      vertex -24 8.15 23.2
      vertex -24 24 25
      vertex -24 8.15 25
    endloop
  endfacet
  facet normal 1 0 0
    outer loop
      vertex -24 24 25
      vertex -24 8.15 23.2
      vertex -24 24 -2.93915e-15
    endloop
  endfacet
  facet normal 1 0 0
    outer loop
      vertex -24 -8.15 23.2
      vertex -24 24 -2.93915e-15
      vertex -24 8.15 23.2
    endloop
  endfacet
  facet normal 1 0 0
    outer loop
      vertex -24 -24 2.93915e-15
      vertex -24 -8.15 23.2
      vertex -24 -24 25
    endloop
  endfacet
  facet normal 1 0 0
    outer loop
      vertex -24 -8.15 23.2
      vertex -24 -24 2.93915e-15
      vertex -24 24 -2.93915e-15
    endloop
  endfacet
  facet normal -1 0 0
    outer loop
      vertex 24 24 -2.93915e-15
      vertex 24 8.15 23.2
      vertex 24 24 25
    endloop
  endfacet
  facet normal -1 0 0
    outer loop
      vertex 24 24 -2.93915e-15
      vertex 24 -8.15 23.2
      vertex 24 8.15 23.2
    endloop
  endfacet
  facet normal -1 0 0
    outer loop
      vertex 24 -24 2.93915e-15
      vertex 24 -8.15 23.2
      vertex 24 24 -2.93915e-15
    endloop
  endfacet
  facet normal -1 0 0
    outer loop
      vertex 24 -24 25
      vertex 24 -8.15 23.2
      vertex 24 -24 2.93915e-15
    endloop
  endfacet
  facet normal -1 0 0
    outer loop
      vertex 24 -8.15 23.2
      vertex 24 -24 25
      vertex 24 -8.15 25
    endloop
  endfacet
  facet normal -1 -0 0
    outer loop
      vertex 24 24 25
      vertex 24 8.15 23.2
      vertex 24 8.15 25
    endloop
  endfacet
  facet normal 0 -1 0
    outer loop
      vertex -24 24 25
      vertex -8.15 24 23.2
      vertex -8.15 24 25
    endloop
  endfacet
  facet normal 0 -1 -0
    outer loop
      vertex -8.15 24 23.2
      vertex -24 24 -2.93915e-15
      vertex 8.15 24 23.2
    endloop
  endfacet
  facet normal 0 -1 0
    outer loop
      vertex -24 24 -2.93915e-15
      vertex -8.15 24 23.2
      vertex -24 24 25
    endloop
  endfacet
  facet normal 0 -1 0
    outer loop
      vertex 8.15 24 23.2
      vertex 24 24 25
      vertex 8.15 24 25
    endloop
  endfacet
  facet normal 0 -1 0
    outer loop
      vertex 24 24 -2.93915e-15
      vertex 8.15 24 23.2
      vertex -24 24 -2.93915e-15
    endloop
  endfacet
  facet normal 0 -1 0
    outer loop
      vertex 8.15 24 23.2
      vertex 24 24 -2.93915e-15
      vertex 24 24 25
    endloop
  endfacet
  facet normal 0 1 0
    outer loop
      vertex 24 -24 25
      vertex 8.15 -24 23.2
      vertex 8.15 -24 25
    endloop
  endfacet
  facet normal 0 1 0
    outer loop
      vertex 8.15 -24 23.2
      vertex 24 -24 2.93915e-15
      vertex -8.15 -24 23.2
    endloop
  endfacet
  facet normal 0 1 -0
    outer loop
      vertex 24 -24 2.93915e-15
      vertex 8.15 -24 23.2
      vertex 24 -24 25
    endloop
  endfacet
  facet normal 0 1 -0
    outer loop
      vertex -8.15 -24 23.2
      vertex -24 -24 25
      vertex -8.15 -24 25
    endloop
  endfacet
  facet normal 0 1 0
    outer loop
      vertex -24 -24 2.93915e-15
      vertex -8.15 -24 23.2
      vertex 24 -24 2.93915e-15
    endloop
  endfacet
  facet normal 0 1 0
    outer loop
      vertex -8.15 -24 23.2
      vertex -24 -24 2.93915e-15
      vertex -24 -24 25
    endloop
  endfacet
  facet normal 0 0 -1
    outer loop
      vertex 4.64624 15.1972 -5
      vertex 25 -25 -5
      vertex 4.64624 -16.1557 -5
    endloop
  endfacet
  facet normal 0 0 -1
    outer loop
      vertex 25 -25 -5
      vertex 4.62325 -16.8357 -5
      vertex 4.64624 -16.1557 -5
    endloop
  endfacet
  facet normal 0 0 -1
    outer loop
      vertex 25 -25 -5
      vertex 4.62009 -16.8858 -5
      vertex 4.62325 -16.8357 -5
    endloop
  endfacet
  facet normal 0 0 -1
    outer loop
      vertex 25 -25 -5
      vertex 4.55109 -17.5143 -5
      vertex 4.62009 -16.8858 -5
    endloop
  endfacet
  facet normal 0 0 -1
    outer loop
      vertex 25 -25 -5
      vertex 4.42667 -18.1406 -5
      vertex 4.55109 -17.5143 -5
    endloop
  endfacet
  facet normal 0 0 -1
    outer loop
      vertex 25 -25 -5
      vertex 4.25015 -18.7138 -5
      vertex 4.42667 -18.1406 -5
    endloop
  endfacet
  facet normal 0 0 -1
    outer loop
      vertex 25 -25 -5
      vertex 4.04315 -19.1877 -5
      vertex 4.25015 -18.7138 -5
    endloop
  endfacet
  facet normal 0 0 -1
    outer loop
      vertex 25 -25 -5
      vertex 4.02176 -19.2331 -5
      vertex 4.04315 -19.1877 -5
    endloop
  endfacet
  facet normal 0 0 -1
    outer loop
      vertex 25 -25 -5
      vertex 3.76875 -19.6555 -5
      vertex 4.02176 -19.2331 -5
    endloop
  endfacet
  facet normal 0 0 -1
    outer loop
      vertex 25 -25 -5
      vertex 3.74184 -19.698 -5
      vertex 3.76875 -19.6555 -5
    endloop
  endfacet
  facet normal 0 0 -1
    outer loop
      vertex 25 -25 -5
      vertex 3.41083 -20.1075 -5
      vertex 3.74184 -19.698 -5
    endloop
  endfacet
  facet normal 0 0 -1
    outer loop
      vertex 25 -25 -5
      vertex 3.03809 -20.4624 -5
      vertex 3.41083 -20.1075 -5
    endloop
  endfacet
  facet normal 0 0 -1
    outer loop
      vertex 25 -25 -5
      vertex 2.63309 -20.7631 -5
      vertex 3.03809 -20.4624 -5
    endloop
  endfacet
  facet normal 0 0 -1
    outer loop
      vertex 25 -25 -5
      vertex 2.19644 -21.0092 -5
      vertex 2.63309 -20.7631 -5
    endloop
  endfacet
  facet normal 0 0 -1
    outer loop
      vertex 25 -25 -5
      vertex 1.72888 -21.2003 -5
      vertex 2.19644 -21.0092 -5
    endloop
  endfacet
  facet normal 0 0 -1
    outer loop
      vertex 25 -25 -5
      vertex 1.23114 -21.336 -5
      vertex 1.72888 -21.2003 -5
    endloop
  endfacet
  facet normal 0 0 -1
    outer loop
      vertex 25 -25 -5
      vertex 0.753784 -21.41 -5
      vertex 1.23114 -21.336 -5
    endloop
  endfacet
  facet normal 0 0 -1
    outer loop
      vertex 25 -25 -5
      vertex 0.703949 -21.4163 -5
      vertex 0.753784 -21.41 -5
    endloop
  endfacet
  facet normal 0 0 -1
    outer loop
      vertex 25 -25 -5
      vertex 0.198364 -21.4409 -5
      vertex 0.703949 -21.4163 -5
    endloop
  endfacet
  facet normal 0 0 -1
    outer loop
      vertex 25 -25 -5
      vertex 0.148132 -21.4409 -5
      vertex 0.198364 -21.4409 -5
    endloop
  endfacet
  facet normal 0 0 -1
    outer loop
      vertex -25 -25 -5
      vertex 0.148132 -21.4409 -5
      vertex 25 -25 -5
    endloop
  endfacet
  facet normal -0 0 -1
    outer loop
      vertex 0.148132 -21.4409 -5
      vertex -25 -25 -5
      vertex -0.342834 -21.416 -5
    endloop
  endfacet
  facet normal -0 0 -1
    outer loop
      vertex -4.21773 -16.1557 -5
      vertex -25 -25 -5
      vertex -4.21773 15.1972 -5
    endloop
  endfacet
  facet normal -0 0 -1
    outer loop
      vertex -4.19502 -16.8288 -5
      vertex -25 -25 -5
      vertex -4.21773 -16.1557 -5
    endloop
  endfacet
  facet normal -0 0 -1
    outer loop
      vertex -4.19186 -16.8789 -5
      vertex -25 -25 -5
      vertex -4.19502 -16.8288 -5
    endloop
  endfacet
  facet normal -0 0 -1
    outer loop
      vertex -4.12372 -17.5021 -5
      vertex -25 -25 -5
      vertex -4.19186 -16.8789 -5
    endloop
  endfacet
  facet normal -0 0 -1
    outer loop
      vertex -4.00073 -18.1248 -5
      vertex -25 -25 -5
      vertex -4.12372 -17.5021 -5
    endloop
  endfacet
  facet normal -0 0 -1
    outer loop
      vertex -3.82622 -18.696 -5
      vertex -25 -25 -5
      vertex -4.00073 -18.1248 -5
    endloop
  endfacet
  facet normal -0 0 -1
    outer loop
      vertex -3.62178 -19.1695 -5
      vertex -25 -25 -5
      vertex -3.82622 -18.696 -5
    endloop
  endfacet
  facet normal -0 0 -1
    outer loop
      vertex -3.60039 -19.215 -5
      vertex -25 -25 -5
      vertex -3.62178 -19.1695 -5
    endloop
  endfacet
  facet normal -0 0 -1
    outer loop
      vertex -3.35054 -19.6386 -5
      vertex -25 -25 -5
      vertex -3.60039 -19.215 -5
    endloop
  endfacet
  facet normal -0 0 -1
    outer loop
      vertex -3.32362 -19.6811 -5
      vertex -25 -25 -5
      vertex -3.35054 -19.6386 -5
    endloop
  endfacet
  facet normal -0 0 -1
    outer loop
      vertex -3.02834 -20.0549 -5
      vertex -25 -25 -5
      vertex -3.32362 -19.6811 -5
    endloop
  endfacet
  facet normal -0 0 -1
    outer loop
      vertex -2.99632 -20.0936 -5
      vertex -25 -25 -5
      vertex -3.02834 -20.0549 -5
    endloop
  endfacet
  facet normal -0 0 -1
    outer loop
      vertex -2.62839 -20.4521 -5
      vertex -25 -25 -5
      vertex -2.99632 -20.0936 -5
    endloop
  endfacet
  facet normal -0 0 -1
    outer loop
      vertex -2.27048 -20.7265 -5
      vertex -25 -25 -5
      vertex -2.62839 -20.4521 -5
    endloop
  endfacet
  facet normal -0 0 -1
    outer loop
      vertex -2.22984 -20.756 -5
      vertex -25 -25 -5
      vertex -2.27048 -20.7265 -5
    endloop
  endfacet
  facet normal -0 0 -1
    outer loop
      vertex -1.84531 -20.9804 -5
      vertex -25 -25 -5
      vertex -2.22984 -20.756 -5
    endloop
  endfacet
  facet normal -0 0 -1
    outer loop
      vertex -1.80128 -21.0046 -5
      vertex -25 -25 -5
      vertex -1.84531 -20.9804 -5
    endloop
  endfacet
  facet normal -0 0 -1
    outer loop
      vertex -1.39014 -21.1792 -5
      vertex -25 -25 -5
      vertex -1.80128 -21.0046 -5
    endloop
  endfacet
  facet normal -0 0 -1
    outer loop
      vertex -1.34343 -21.1977 -5
      vertex -25 -25 -5
      vertex -1.39014 -21.1792 -5
    endloop
  endfacet
  facet normal -0 0 -1
    outer loop
      vertex -0.905685 -21.3224 -5
      vertex -25 -25 -5
      vertex -1.34343 -21.1977 -5
    endloop
  endfacet
  facet normal -0 0 -1
    outer loop
      vertex -0.85704 -21.3349 -5
      vertex -25 -25 -5
      vertex -0.905685 -21.3224 -5
    endloop
  endfacet
  facet normal -0 0 -1
    outer loop
      vertex -0.39267 -21.4097 -5
      vertex -25 -25 -5
      vertex -0.85704 -21.3349 -5
    endloop
  endfacet
  facet normal -0 0 -1
    outer loop
      vertex -0.342834 -21.416 -5
      vertex -25 -25 -5
      vertex -0.39267 -21.4097 -5
    endloop
  endfacet
  facet normal 0 0 -1
    outer loop
      vertex 25 -25 -5
      vertex 4.64624 15.1972 -5
      vertex 25 25 -5
    endloop
  endfacet
  facet normal 0 0 -1
    outer loop
      vertex 4.62325 15.8775 -5
      vertex 25 25 -5
      vertex 4.64624 15.1972 -5
    endloop
  endfacet
  facet normal 0 0 -1
    outer loop
      vertex 4.62009 15.9276 -5
      vertex 25 25 -5
      vertex 4.62325 15.8775 -5
    endloop
  endfacet
  facet normal 0 0 -1
    outer loop
      vertex 4.55109 16.5569 -5
      vertex 25 25 -5
      vertex 4.62009 15.9276 -5
    endloop
  endfacet
  facet normal 0 0 -1
    outer loop
      vertex 4.42667 17.1846 -5
      vertex 25 25 -5
      vertex 4.55109 16.5569 -5
    endloop
  endfacet
  facet normal 0 0 -1
    outer loop
      vertex 4.25015 17.7598 -5
      vertex 25 25 -5
      vertex 4.42667 17.1846 -5
    endloop
  endfacet
  facet normal 0 0 -1
    outer loop
      vertex 4.04315 18.2363 -5
      vertex 25 25 -5
      vertex 4.25015 17.7598 -5
    endloop
  endfacet
  facet normal 0 0 -1
    outer loop
      vertex 4.02176 18.2818 -5
      vertex 25 25 -5
      vertex 4.04315 18.2363 -5
    endloop
  endfacet
  facet normal 0 0 -1
    outer loop
      vertex 3.76875 18.7073 -5
      vertex 25 25 -5
      vertex 4.02176 18.2818 -5
    endloop
  endfacet
  facet normal 0 0 -1
    outer loop
      vertex 3.74184 18.7497 -5
      vertex 25 25 -5
      vertex 3.76875 18.7073 -5
    endloop
  endfacet
  facet normal 0 0 -1
    outer loop
      vertex 3.41083 19.163 -5
      vertex 25 25 -5
      vertex 3.74184 18.7497 -5
    endloop
  endfacet
  facet normal 0 0 -1
    outer loop
      vertex 3.03809 19.5214 -5
      vertex 25 25 -5
      vertex 3.41083 19.163 -5
    endloop
  endfacet
  facet normal 0 0 -1
    outer loop
      vertex 2.63309 19.825 -5
      vertex 25 25 -5
      vertex 3.03809 19.5214 -5
    endloop
  endfacet
  facet normal 0 0 -1
    outer loop
      vertex 2.19644 20.0735 -5
      vertex 25 25 -5
      vertex 2.63309 19.825 -5
    endloop
  endfacet
  facet normal 0 0 -1
    outer loop
      vertex 1.72888 20.2664 -5
      vertex 25 25 -5
      vertex 2.19644 20.0735 -5
    endloop
  endfacet
  facet normal 0 0 -1
    outer loop
      vertex 1.23114 20.4035 -5
      vertex 25 25 -5
      vertex 1.72888 20.2664 -5
    endloop
  endfacet
  facet normal 0 0 -1
    outer loop
      vertex 0.753784 20.4782 -5
      vertex 25 25 -5
      vertex 1.23114 20.4035 -5
    endloop
  endfacet
  facet normal 0 0 -1
    outer loop
      vertex 0.703949 20.4845 -5
      vertex 25 25 -5
      vertex 0.753784 20.4782 -5
    endloop
  endfacet
  facet normal 0 0 -1
    outer loop
      vertex 0.198364 20.5094 -5
      vertex 25 25 -5
      vertex 0.703949 20.4845 -5
    endloop
  endfacet
  facet normal 0 0 -1
    outer loop
      vertex 0.148132 20.5094 -5
      vertex 25 25 -5
      vertex 0.198364 20.5094 -5
    endloop
  endfacet
  facet normal 0 0 -1
    outer loop
      vertex -25 25 -5
      vertex 0.148132 20.5094 -5
      vertex -0.335693 20.4842 -5
    endloop
  endfacet
  facet normal 0 0 -1
    outer loop
      vertex -25 25 -5
      vertex -0.335693 20.4842 -5
      vertex -0.385529 20.478 -5
    endloop
  endfacet
  facet normal 0 0 -1
    outer loop
      vertex -25 25 -5
      vertex -0.385529 20.478 -5
      vertex -0.844467 20.4023 -5
    endloop
  endfacet
  facet normal 0 0 -1
    outer loop
      vertex -25 25 -5
      vertex -4.21773 15.1972 -5
      vertex -25 -25 -5
    endloop
  endfacet
  facet normal 0 0 -1
    outer loop
      vertex -4.21773 15.1972 -5
      vertex -25 25 -5
      vertex -4.19473 15.8706 -5
    endloop
  endfacet
  facet normal 0 0 -1
    outer loop
      vertex -4.19473 15.8706 -5
      vertex -25 25 -5
      vertex -4.19157 15.9207 -5
    endloop
  endfacet
  facet normal 0 0 -1
    outer loop
      vertex -4.19157 15.9207 -5
      vertex -25 25 -5
      vertex -4.12257 16.5448 -5
    endloop
  endfacet
  facet normal 0 0 -1
    outer loop
      vertex -4.12257 16.5448 -5
      vertex -25 25 -5
      vertex -3.99815 17.1688 -5
    endloop
  endfacet
  facet normal 0 0 -1
    outer loop
      vertex -3.99815 17.1688 -5
      vertex -25 25 -5
      vertex -3.82164 17.742 -5
    endloop
  endfacet
  facet normal 0 0 -1
    outer loop
      vertex -3.82164 17.742 -5
      vertex -25 25 -5
      vertex -3.61464 18.2182 -5
    endloop
  endfacet
  facet normal 0 0 -1
    outer loop
      vertex 0.148132 20.5094 -5
      vertex -25 25 -5
      vertex 25 25 -5
    endloop
  endfacet
  facet normal 0 0 -1
    outer loop
      vertex -0.893112 20.3898 -5
      vertex -25 25 -5
      vertex -0.844467 20.4023 -5
    endloop
  endfacet
  facet normal 0 0 -1
    outer loop
      vertex -1.32715 20.2638 -5
      vertex -25 25 -5
      vertex -0.893112 20.3898 -5
    endloop
  endfacet
  facet normal 0 0 -1
    outer loop
      vertex -1.37386 20.2453 -5
      vertex -25 25 -5
      vertex -1.32715 20.2638 -5
    endloop
  endfacet
  facet normal 0 0 -1
    outer loop
      vertex -1.783 20.0689 -5
      vertex -25 25 -5
      vertex -1.37386 20.2453 -5
    endloop
  endfacet
  facet normal 0 0 -1
    outer loop
      vertex -1.82703 20.0447 -5
      vertex -25 25 -5
      vertex -1.783 20.0689 -5
    endloop
  endfacet
  facet normal 0 0 -1
    outer loop
      vertex -2.21127 19.8179 -5
      vertex -25 25 -5
      vertex -1.82703 20.0447 -5
    endloop
  endfacet
  facet normal 0 0 -1
    outer loop
      vertex -2.25191 19.7883 -5
      vertex -25 25 -5
      vertex -2.21127 19.8179 -5
    endloop
  endfacet
  facet normal 0 0 -1
    outer loop
      vertex -2.61125 19.5111 -5
      vertex -25 25 -5
      vertex -2.25191 19.7883 -5
    endloop
  endfacet
  facet normal 0 0 -1
    outer loop
      vertex -2.98232 19.149 -5
      vertex -25 25 -5
      vertex -2.61125 19.5111 -5
    endloop
  endfacet
  facet normal 0 0 -1
    outer loop
      vertex -3.31332 18.7328 -5
      vertex -25 25 -5
      vertex -2.98232 19.149 -5
    endloop
  endfacet
  facet normal 0 0 -1
    outer loop
      vertex -3.34024 18.6904 -5
      vertex -25 25 -5
      vertex -3.31332 18.7328 -5
    endloop
  endfacet
  facet normal 0 0 -1
    outer loop
      vertex -3.59325 18.2636 -5
      vertex -25 25 -5
      vertex -3.34024 18.6904 -5
    endloop
  endfacet
  facet normal 0 0 -1
    outer loop
      vertex -3.61464 18.2182 -5
      vertex -25 25 -5
      vertex -3.59325 18.2636 -5
    endloop
  endfacet
  facet normal 0.0520298 -0.998646 0
    outer loop
      vertex -0.335693 20.4842 -5
      vertex 0.148132 20.5094 -2.51168e-15
      vertex -0.335693 20.4842 -2.5086e-15
    endloop
  endfacet
  facet normal 0.0520298 -0.998646 0
    outer loop
      vertex 0.148132 20.5094 -2.51168e-15
      vertex -0.335693 20.4842 -5
      vertex 0.148132 20.5094 -5
    endloop
  endfacet
  facet normal 0.125156 -0.992137 0
    outer loop
      vertex -0.385529 20.478 -5
      vertex -0.335693 20.4842 -2.5086e-15
      vertex -0.385529 20.478 -2.50783e-15
    endloop
  endfacet
  facet normal 0.125156 -0.992137 0
    outer loop
      vertex -0.335693 20.4842 -2.5086e-15
      vertex -0.385529 20.478 -5
      vertex -0.335693 20.4842 -5
    endloop
  endfacet
  facet normal 0.162553 -0.9867 0
    outer loop
      vertex -0.844467 20.4023 -5
      vertex -0.385529 20.478 -2.50783e-15
      vertex -0.844467 20.4023 -2.49857e-15
    endloop
  endfacet
  facet normal 0.162553 -0.9867 0
    outer loop
      vertex -0.385529 20.478 -2.50783e-15
      vertex -0.844467 20.4023 -5
      vertex -0.385529 20.478 -5
    endloop
  endfacet
  facet normal 0.248821 -0.968549 0
    outer loop
      vertex -0.893112 20.3898 -5
      vertex -0.844467 20.4023 -2.49857e-15
      vertex -0.893112 20.3898 -2.49704e-15
    endloop
  endfacet
  facet normal 0.248821 -0.968549 0
    outer loop
      vertex -0.844467 20.4023 -2.49857e-15
      vertex -0.893112 20.3898 -5
      vertex -0.844467 20.4023 -5
    endloop
  endfacet
  facet normal 0.278834 -0.960339 0
    outer loop
      vertex -1.32715 20.2638 -5
      vertex -0.893112 20.3898 -2.49704e-15
      vertex -1.32715 20.2638 -2.4816e-15
    endloop
  endfacet
  facet normal 0.278834 -0.960339 0
    outer loop
      vertex -0.893112 20.3898 -2.49704e-15
      vertex -1.32715 20.2638 -5
      vertex -0.893112 20.3898 -5
    endloop
  endfacet
  facet normal 0.368141 -0.92977 0
    outer loop
      vertex -1.37386 20.2453 -5
      vertex -1.32715 20.2638 -2.4816e-15
      vertex -1.37386 20.2453 -2.47934e-15
    endloop
  endfacet
  facet normal 0.368141 -0.92977 0
    outer loop
      vertex -1.32715 20.2638 -2.4816e-15
      vertex -1.37386 20.2453 -5
      vertex -1.32715 20.2638 -5
    endloop
  endfacet
  facet normal 0.395981 -0.918259 0
    outer loop
      vertex -1.783 20.0689 -5
      vertex -1.37386 20.2453 -2.47934e-15
      vertex -1.783 20.0689 -2.45773e-15
    endloop
  endfacet
  facet normal 0.395981 -0.918259 0
    outer loop
      vertex -1.37386 20.2453 -2.47934e-15
      vertex -1.783 20.0689 -5
      vertex -1.37386 20.2453 -5
    endloop
  endfacet
  facet normal 0.481744 -0.876312 0
    outer loop
      vertex -1.82703 20.0447 -5
      vertex -1.783 20.0689 -2.45773e-15
      vertex -1.82703 20.0447 -2.45477e-15
    endloop
  endfacet
  facet normal 0.481744 -0.876312 0
    outer loop
      vertex -1.783 20.0689 -2.45773e-15
      vertex -1.82703 20.0447 -5
      vertex -1.783 20.0689 -5
    endloop
  endfacet
  facet normal 0.508368 -0.86114 0
    outer loop
      vertex -2.21127 19.8179 -5
      vertex -1.82703 20.0447 -2.45477e-15
      vertex -2.21127 19.8179 -2.42699e-15
    endloop
  endfacet
  facet normal 0.508368 -0.86114 0
    outer loop
      vertex -1.82703 20.0447 -2.45477e-15
      vertex -2.21127 19.8179 -5
      vertex -1.82703 20.0447 -5
    endloop
  endfacet
  facet normal 0.587828 -0.808986 0
    outer loop
      vertex -2.25191 19.7883 -5
      vertex -2.21127 19.8179 -2.42699e-15
      vertex -2.25191 19.7883 -2.42337e-15
    endloop
  endfacet
  facet normal 0.587828 -0.808986 0
    outer loop
      vertex -2.21127 19.8179 -2.42699e-15
      vertex -2.25191 19.7883 -5
      vertex -2.21127 19.8179 -5
    endloop
  endfacet
  facet normal 0.610843 -0.791752 0
    outer loop
      vertex -2.61125 19.5111 -5
      vertex -2.25191 19.7883 -2.42337e-15
      vertex -2.61125 19.5111 -2.38942e-15
    endloop
  endfacet
  facet normal 0.610843 -0.791752 0
    outer loop
      vertex -2.25191 19.7883 -2.42337e-15
      vertex -2.61125 19.5111 -5
      vertex -2.25191 19.7883 -5
    endloop
  endfacet
  facet normal 0.698356 -0.715751 0
    outer loop
      vertex -2.98232 19.149 -5
      vertex -2.61125 19.5111 -2.38942e-15
      vertex -2.98232 19.149 -2.34508e-15
    endloop
  endfacet
  facet normal 0.698356 -0.715751 0
    outer loop
      vertex -2.61125 19.5111 -2.38942e-15
      vertex -2.98232 19.149 -5
      vertex -2.61125 19.5111 -5
    endloop
  endfacet
  facet normal 0.782666 -0.622442 0
    outer loop
      vertex -3.31332 18.7328 -2.29411e-15
      vertex -2.98232 19.149 -5
      vertex -2.98232 19.149 -2.34508e-15
    endloop
  endfacet
  facet normal 0.782666 -0.622442 0
    outer loop
      vertex -2.98232 19.149 -5
      vertex -3.31332 18.7328 -2.29411e-15
      vertex -3.31332 18.7328 -5
    endloop
  endfacet
  facet normal 0.844361 -0.535774 0
    outer loop
      vertex -3.34024 18.6904 -2.28892e-15
      vertex -3.31332 18.7328 -5
      vertex -3.31332 18.7328 -2.29411e-15
    endloop
  endfacet
  facet normal 0.844361 -0.535774 0
    outer loop
      vertex -3.31332 18.7328 -5
      vertex -3.34024 18.6904 -2.28892e-15
      vertex -3.34024 18.6904 -5
    endloop
  endfacet
  facet normal 0.860216 -0.50993 0
    outer loop
      vertex -3.59325 18.2636 -2.23665e-15
      vertex -3.34024 18.6904 -5
      vertex -3.34024 18.6904 -2.28892e-15
    endloop
  endfacet
  facet normal 0.860216 -0.50993 0
    outer loop
      vertex -3.34024 18.6904 -5
      vertex -3.59325 18.2636 -2.23665e-15
      vertex -3.59325 18.2636 -5
    endloop
  endfacet
  facet normal 0.90475 -0.425943 0
    outer loop
      vertex -3.61464 18.2182 -2.23108e-15
      vertex -3.59325 18.2636 -5
      vertex -3.59325 18.2636 -2.23665e-15
    endloop
  endfacet
  facet normal 0.90475 -0.425943 0
    outer loop
      vertex -3.59325 18.2636 -5
      vertex -3.61464 18.2182 -2.23108e-15
      vertex -3.61464 18.2182 -5
    endloop
  endfacet
  facet normal 0.91708 -0.398702 0
    outer loop
      vertex -3.82164 17.742 -2.17277e-15
      vertex -3.61464 18.2182 -5
      vertex -3.61464 18.2182 -2.23108e-15
    endloop
  endfacet
  facet normal 0.91708 -0.398702 0
    outer loop
      vertex -3.61464 18.2182 -5
      vertex -3.82164 17.742 -2.17277e-15
      vertex -3.82164 17.742 -5
    endloop
  endfacet
  facet normal 0.955711 -0.294308 0
    outer loop
      vertex -3.99815 17.1688 -2.10258e-15
      vertex -3.82164 17.742 -5
      vertex -3.82164 17.742 -2.17277e-15
    endloop
  endfacet
  facet normal 0.955711 -0.294308 0
    outer loop
      vertex -3.82164 17.742 -5
      vertex -3.99815 17.1688 -2.10258e-15
      vertex -3.99815 17.1688 -5
    endloop
  endfacet
  facet normal 0.9807 -0.195517 0
    outer loop
      vertex -4.12257 16.5448 -2.02615e-15
      vertex -3.99815 17.1688 -5
      vertex -3.99815 17.1688 -2.10258e-15
    endloop
  endfacet
  facet normal 0.9807 -0.195517 0
    outer loop
      vertex -3.99815 17.1688 -5
      vertex -4.12257 16.5448 -2.02615e-15
      vertex -4.12257 16.5448 -5
    endloop
  endfacet
  facet normal 0.993943 -0.109901 0
    outer loop
      vertex -4.19157 15.9207 -1.94973e-15
      vertex -4.12257 16.5448 -5
      vertex -4.12257 16.5448 -2.02615e-15
    endloop
  endfacet
  facet normal 0.993943 -0.109901 0
    outer loop
      vertex -4.12257 16.5448 -5
      vertex -4.19157 15.9207 -1.94973e-15
      vertex -4.19157 15.9207 -5
    endloop
  endfacet
  facet normal 0.998021 -0.062889 0
    outer loop
      vertex -4.19473 15.8706 -1.94359e-15
      vertex -4.19157 15.9207 -5
      vertex -4.19157 15.9207 -1.94973e-15
    endloop
  endfacet
  facet normal 0.998021 -0.062889 0
    outer loop
      vertex -4.19157 15.9207 -5
      vertex -4.19473 15.8706 -1.94359e-15
      vertex -4.19473 15.8706 -5
    endloop
  endfacet
  facet normal 0.999417 -0.03413 0
    outer loop
      vertex -4.21773 15.1972 -1.86112e-15
      vertex -4.19473 15.8706 -5
      vertex -4.19473 15.8706 -1.94359e-15
    endloop
  endfacet
  facet normal 0.999417 -0.03413 0
    outer loop
      vertex -4.19473 15.8706 -5
      vertex -4.21773 15.1972 -1.86112e-15
      vertex -4.21773 15.1972 -5
    endloop
  endfacet
  facet normal 1 0 0
    outer loop
      vertex -4.21773 -16.1557 1.97851e-15
      vertex -4.21773 15.1972 -5
      vertex -4.21773 15.1972 -1.86112e-15
    endloop
  endfacet
  facet normal 1 0 0
    outer loop
      vertex -4.21773 15.1972 -5
      vertex -4.21773 -16.1557 1.97851e-15
      vertex -4.21773 -16.1557 -5
    endloop
  endfacet
  facet normal 0.999431 0.0337154 0
    outer loop
      vertex -4.19502 -16.8288 2.06093e-15
      vertex -4.21773 -16.1557 -5
      vertex -4.21773 -16.1557 1.97851e-15
    endloop
  endfacet
  facet normal 0.999431 0.0337154 0
    outer loop
      vertex -4.21773 -16.1557 -5
      vertex -4.19502 -16.8288 2.06093e-15
      vertex -4.19502 -16.8288 -5
    endloop
  endfacet
  facet normal 0.998021 0.062889 0
    outer loop
      vertex -4.19186 -16.8789 2.06707e-15
      vertex -4.19502 -16.8288 -5
      vertex -4.19502 -16.8288 2.06093e-15
    endloop
  endfacet
  facet normal 0.998021 0.062889 0
    outer loop
      vertex -4.19502 -16.8288 -5
      vertex -4.19186 -16.8789 2.06707e-15
      vertex -4.19186 -16.8789 -5
    endloop
  endfacet
  facet normal 0.994074 0.108703 0
    outer loop
      vertex -4.12372 -17.5021 2.14339e-15
      vertex -4.19186 -16.8789 -5
      vertex -4.19186 -16.8789 2.06707e-15
    endloop
  endfacet
  facet normal 0.994074 0.108703 0
    outer loop
      vertex -4.19186 -16.8789 -5
      vertex -4.12372 -17.5021 2.14339e-15
      vertex -4.12372 -17.5021 -5
    endloop
  endfacet
  facet normal 0.981047 0.193772 0
    outer loop
      vertex -4.00073 -18.1248 2.21964e-15
      vertex -4.12372 -17.5021 -5
      vertex -4.12372 -17.5021 2.14339e-15
    endloop
  endfacet
  facet normal 0.981047 0.193772 0
    outer loop
      vertex -4.12372 -17.5021 -5
      vertex -4.00073 -18.1248 2.21964e-15
      vertex -4.00073 -18.1248 -5
    endloop
  endfacet
  facet normal 0.95636 0.292191 0
    outer loop
      vertex -3.82622 -18.696 2.2896e-15
      vertex -4.00073 -18.1248 -5
      vertex -4.00073 -18.1248 2.21964e-15
    endloop
  endfacet
  facet normal 0.95636 0.292191 0
    outer loop
      vertex -4.00073 -18.1248 -5
      vertex -3.82622 -18.696 2.2896e-15
      vertex -3.82622 -18.696 -5
    endloop
  endfacet
  facet normal 0.9181 0.396349 0
    outer loop
      vertex -3.62178 -19.1695 2.34759e-15
      vertex -3.82622 -18.696 -5
      vertex -3.82622 -18.696 2.2896e-15
    endloop
  endfacet
  facet normal 0.9181 0.396349 0
    outer loop
      vertex -3.82622 -18.696 -5
      vertex -3.62178 -19.1695 2.34759e-15
      vertex -3.62178 -19.1695 -5
    endloop
  endfacet
  facet normal 0.90475 0.425943 0
    outer loop
      vertex -3.60039 -19.215 2.35315e-15
      vertex -3.62178 -19.1695 -5
      vertex -3.62178 -19.1695 2.34759e-15
    endloop
  endfacet
  facet normal 0.90475 0.425943 0
    outer loop
      vertex -3.62178 -19.1695 -5
      vertex -3.60039 -19.215 2.35315e-15
      vertex -3.60039 -19.215 -5
    endloop
  endfacet
  facet normal 0.861377 0.507966 0
    outer loop
      vertex -3.35054 -19.6386 2.40504e-15
      vertex -3.60039 -19.215 -5
      vertex -3.60039 -19.215 2.35315e-15
    endloop
  endfacet
  facet normal 0.861377 0.507966 0
    outer loop
      vertex -3.60039 -19.215 -5
      vertex -3.35054 -19.6386 2.40504e-15
      vertex -3.35054 -19.6386 -5
    endloop
  endfacet
  facet normal 0.844361 0.535774 0
    outer loop
      vertex -3.32362 -19.6811 2.41023e-15
      vertex -3.35054 -19.6386 -5
      vertex -3.35054 -19.6386 2.40504e-15
    endloop
  endfacet
  facet normal 0.844361 0.535774 0
    outer loop
      vertex -3.35054 -19.6386 -5
      vertex -3.32362 -19.6811 2.41023e-15
      vertex -3.32362 -19.6811 -5
    endloop
  endfacet
  facet normal 0.784692 0.619886 0
    outer loop
      vertex -3.02834 -20.0549 2.45601e-15
      vertex -3.32362 -19.6811 -5
      vertex -3.32362 -19.6811 2.41023e-15
    endloop
  endfacet
  facet normal 0.784692 0.619886 0
    outer loop
      vertex -3.32362 -19.6811 -5
      vertex -3.02834 -20.0549 2.45601e-15
      vertex -3.02834 -20.0549 -5
    endloop
  endfacet
  facet normal 0.770508 0.637431 0
    outer loop
      vertex -2.99632 -20.0936 2.46075e-15
      vertex -3.02834 -20.0549 -5
      vertex -3.02834 -20.0549 2.45601e-15
    endloop
  endfacet
  facet normal 0.770508 0.637431 0
    outer loop
      vertex -3.02834 -20.0549 -5
      vertex -2.99632 -20.0936 2.46075e-15
      vertex -2.99632 -20.0936 -5
    endloop
  endfacet
  facet normal 0.69796 0.716136 -0
    outer loop
      vertex -2.62839 -20.4521 -5
      vertex -2.99632 -20.0936 2.46075e-15
      vertex -2.62839 -20.4521 2.50467e-15
    endloop
  endfacet
  facet normal 0.69796 0.716136 0
    outer loop
      vertex -2.99632 -20.0936 2.46075e-15
      vertex -2.62839 -20.4521 -5
      vertex -2.99632 -20.0936 -5
    endloop
  endfacet
  facet normal 0.608326 0.793687 -0
    outer loop
      vertex -2.27048 -20.7265 -5
      vertex -2.62839 -20.4521 2.50467e-15
      vertex -2.27048 -20.7265 2.53826e-15
    endloop
  endfacet
  facet normal 0.608326 0.793687 0
    outer loop
      vertex -2.62839 -20.4521 2.50467e-15
      vertex -2.27048 -20.7265 -5
      vertex -2.62839 -20.4521 -5
    endloop
  endfacet
  facet normal 0.587828 0.808986 -0
    outer loop
      vertex -2.22984 -20.756 -5
      vertex -2.27048 -20.7265 2.53826e-15
      vertex -2.22984 -20.756 2.54188e-15
    endloop
  endfacet
  facet normal 0.587828 0.808986 0
    outer loop
      vertex -2.27048 -20.7265 2.53826e-15
      vertex -2.22984 -20.756 -5
      vertex -2.27048 -20.7265 -5
    endloop
  endfacet
  facet normal 0.504086 0.863653 -0
    outer loop
      vertex -1.84531 -20.9804 -5
      vertex -2.22984 -20.756 2.54188e-15
      vertex -1.84531 -20.9804 2.56936e-15
    endloop
  endfacet
  facet normal 0.504086 0.863653 0
    outer loop
      vertex -2.22984 -20.756 2.54188e-15
      vertex -1.84531 -20.9804 -5
      vertex -2.22984 -20.756 -5
    endloop
  endfacet
  facet normal 0.481744 0.876312 -0
    outer loop
      vertex -1.80128 -21.0046 -5
      vertex -1.84531 -20.9804 2.56936e-15
      vertex -1.80128 -21.0046 2.57233e-15
    endloop
  endfacet
  facet normal 0.481744 0.876312 0
    outer loop
      vertex -1.84531 -20.9804 2.56936e-15
      vertex -1.80128 -21.0046 -5
      vertex -1.84531 -20.9804 -5
    endloop
  endfacet
  facet normal 0.390833 0.920462 -0
    outer loop
      vertex -1.39014 -21.1792 -5
      vertex -1.80128 -21.0046 2.57233e-15
      vertex -1.39014 -21.1792 2.59371e-15
    endloop
  endfacet
  facet normal 0.390833 0.920462 0
    outer loop
      vertex -1.80128 -21.0046 2.57233e-15
      vertex -1.39014 -21.1792 -5
      vertex -1.80128 -21.0046 -5
    endloop
  endfacet
  facet normal 0.368141 0.92977 -0
    outer loop
      vertex -1.34343 -21.1977 -5
      vertex -1.39014 -21.1792 2.59371e-15
      vertex -1.34343 -21.1977 2.59597e-15
    endloop
  endfacet
  facet normal 0.368141 0.92977 0
    outer loop
      vertex -1.39014 -21.1792 2.59371e-15
      vertex -1.34343 -21.1977 -5
      vertex -1.39014 -21.1792 -5
    endloop
  endfacet
  facet normal 0.273959 0.961741 -0
    outer loop
      vertex -0.905685 -21.3224 -5
      vertex -1.34343 -21.1977 2.59597e-15
      vertex -0.905685 -21.3224 2.61124e-15
    endloop
  endfacet
  facet normal 0.273959 0.961741 0
    outer loop
      vertex -1.34343 -21.1977 2.59597e-15
      vertex -0.905685 -21.3224 -5
      vertex -1.34343 -21.1977 -5
    endloop
  endfacet
  facet normal 0.248821 0.968549 -0
    outer loop
      vertex -0.85704 -21.3349 -5
      vertex -0.905685 -21.3224 2.61124e-15
      vertex -0.85704 -21.3349 2.61277e-15
    endloop
  endfacet
  facet normal 0.248821 0.968549 0
    outer loop
      vertex -0.905685 -21.3224 2.61124e-15
      vertex -0.85704 -21.3349 -5
      vertex -0.905685 -21.3224 -5
    endloop
  endfacet
  facet normal 0.159057 0.987269 -0
    outer loop
      vertex -0.39267 -21.4097 -5
      vertex -0.85704 -21.3349 2.61277e-15
      vertex -0.39267 -21.4097 2.62193e-15
    endloop
  endfacet
  facet normal 0.159057 0.987269 0
    outer loop
      vertex -0.85704 -21.3349 2.61277e-15
      vertex -0.39267 -21.4097 -5
      vertex -0.85704 -21.3349 -5
    endloop
  endfacet
  facet normal 0.125156 0.992137 -0
    outer loop
      vertex -0.342834 -21.416 -5
      vertex -0.39267 -21.4097 2.62193e-15
      vertex -0.342834 -21.416 2.6227e-15
    endloop
  endfacet
  facet normal 0.125156 0.992137 0
    outer loop
      vertex -0.39267 -21.4097 2.62193e-15
      vertex -0.342834 -21.416 -5
      vertex -0.39267 -21.4097 -5
    endloop
  endfacet
  facet normal 0.0507488 0.998711 -0
    outer loop
      vertex 0.148132 -21.4409 -5
      vertex -0.342834 -21.416 2.6227e-15
      vertex 0.148132 -21.4409 2.62576e-15
    endloop
  endfacet
  facet normal 0.0507488 0.998711 0
    outer loop
      vertex -0.342834 -21.416 2.6227e-15
      vertex 0.148132 -21.4409 -5
      vertex -0.342834 -21.416 -5
    endloop
  endfacet
  facet normal 0 1 -0
    outer loop
      vertex 0.198364 -21.4409 -5
      vertex 0.148132 -21.4409 2.62576e-15
      vertex 0.198364 -21.4409 2.62576e-15
    endloop
  endfacet
  facet normal 0 1 0
    outer loop
      vertex 0.148132 -21.4409 2.62576e-15
      vertex 0.198364 -21.4409 -5
      vertex 0.148132 -21.4409 -5
    endloop
  endfacet
  facet normal -0.0487138 0.998813 0
    outer loop
      vertex 0.703949 -21.4163 -5
      vertex 0.198364 -21.4409 2.62576e-15
      vertex 0.703949 -21.4163 2.62274e-15
    endloop
  endfacet
  facet normal -0.0487138 0.998813 0
    outer loop
      vertex 0.198364 -21.4409 2.62576e-15
      vertex 0.703949 -21.4163 -5
      vertex 0.198364 -21.4409 -5
    endloop
  endfacet
  facet normal -0.125156 0.992137 0
    outer loop
      vertex 0.753784 -21.41 -5
      vertex 0.703949 -21.4163 2.62274e-15
      vertex 0.753784 -21.41 2.62197e-15
    endloop
  endfacet
  facet normal -0.125156 0.992137 0
    outer loop
      vertex 0.703949 -21.4163 2.62274e-15
      vertex 0.753784 -21.41 -5
      vertex 0.703949 -21.4163 -5
    endloop
  endfacet
  facet normal -0.153109 0.988209 0
    outer loop
      vertex 1.23114 -21.336 -5
      vertex 0.753784 -21.41 2.62197e-15
      vertex 1.23114 -21.336 2.61291e-15
    endloop
  endfacet
  facet normal -0.153109 0.988209 0
    outer loop
      vertex 0.753784 -21.41 2.62197e-15
      vertex 1.23114 -21.336 -5
      vertex 0.753784 -21.41 -5
    endloop
  endfacet
  facet normal -0.263135 0.964759 0
    outer loop
      vertex 1.72888 -21.2003 -5
      vertex 1.23114 -21.336 2.61291e-15
      vertex 1.72888 -21.2003 2.59629e-15
    endloop
  endfacet
  facet normal -0.263135 0.964759 0
    outer loop
      vertex 1.23114 -21.336 2.61291e-15
      vertex 1.72888 -21.2003 -5
      vertex 1.23114 -21.336 -5
    endloop
  endfacet
  facet normal -0.378287 0.925688 0
    outer loop
      vertex 2.19644 -21.0092 -5
      vertex 1.72888 -21.2003 2.59629e-15
      vertex 2.19644 -21.0092 2.57289e-15
    endloop
  endfacet
  facet normal -0.378287 0.925688 0
    outer loop
      vertex 1.72888 -21.2003 2.59629e-15
      vertex 2.19644 -21.0092 -5
      vertex 1.72888 -21.2003 -5
    endloop
  endfacet
  facet normal -0.490966 0.871178 0
    outer loop
      vertex 2.63309 -20.7631 -5
      vertex 2.19644 -21.0092 2.57289e-15
      vertex 2.63309 -20.7631 2.54275e-15
    endloop
  endfacet
  facet normal -0.490966 0.871178 0
    outer loop
      vertex 2.19644 -21.0092 2.57289e-15
      vertex 2.63309 -20.7631 -5
      vertex 2.19644 -21.0092 -5
    endloop
  endfacet
  facet normal -0.596131 0.802887 0
    outer loop
      vertex 3.03809 -20.4624 -5
      vertex 2.63309 -20.7631 2.54275e-15
      vertex 3.03809 -20.4624 2.50593e-15
    endloop
  endfacet
  facet normal -0.596131 0.802887 0
    outer loop
      vertex 2.63309 -20.7631 2.54275e-15
      vertex 3.03809 -20.4624 -5
      vertex 2.63309 -20.7631 -5
    endloop
  endfacet
  facet normal -0.68955 0.724238 0
    outer loop
      vertex 3.41083 -20.1075 -5
      vertex 3.03809 -20.4624 2.50593e-15
      vertex 3.41083 -20.1075 2.46246e-15
    endloop
  endfacet
  facet normal -0.68955 0.724238 0
    outer loop
      vertex 3.03809 -20.4624 2.50593e-15
      vertex 3.41083 -20.1075 -5
      vertex 3.03809 -20.4624 -5
    endloop
  endfacet
  facet normal -0.77777 0.62855 0
    outer loop
      vertex 3.41083 -20.1075 -5
      vertex 3.74184 -19.698 2.4123e-15
      vertex 3.74184 -19.698 -5
    endloop
  endfacet
  facet normal -0.77777 0.62855 0
    outer loop
      vertex 3.74184 -19.698 2.4123e-15
      vertex 3.41083 -20.1075 -5
      vertex 3.41083 -20.1075 2.46246e-15
    endloop
  endfacet
  facet normal -0.844361 0.535774 0
    outer loop
      vertex 3.74184 -19.698 -5
      vertex 3.76875 -19.6555 2.40711e-15
      vertex 3.76875 -19.6555 -5
    endloop
  endfacet
  facet normal -0.844361 0.535774 0
    outer loop
      vertex 3.76875 -19.6555 2.40711e-15
      vertex 3.74184 -19.698 -5
      vertex 3.74184 -19.698 2.4123e-15
    endloop
  endfacet
  facet normal -0.857886 0.513839 0
    outer loop
      vertex 3.76875 -19.6555 -5
      vertex 4.02176 -19.2331 2.35538e-15
      vertex 4.02176 -19.2331 -5
    endloop
  endfacet
  facet normal -0.857886 0.513839 0
    outer loop
      vertex 4.02176 -19.2331 2.35538e-15
      vertex 3.76875 -19.6555 -5
      vertex 3.76875 -19.6555 2.40711e-15
    endloop
  endfacet
  facet normal -0.90475 0.425943 0
    outer loop
      vertex 4.02176 -19.2331 -5
      vertex 4.04315 -19.1877 2.34981e-15
      vertex 4.04315 -19.1877 -5
    endloop
  endfacet
  facet normal -0.90475 0.425943 0
    outer loop
      vertex 4.04315 -19.1877 2.34981e-15
      vertex 4.02176 -19.2331 -5
      vertex 4.02176 -19.2331 2.35538e-15
    endloop
  endfacet
  facet normal -0.916399 0.400266 0
    outer loop
      vertex 4.04315 -19.1877 -5
      vertex 4.25015 -18.7138 2.29177e-15
      vertex 4.25015 -18.7138 -5
    endloop
  endfacet
  facet normal -0.916399 0.400266 0
    outer loop
      vertex 4.25015 -18.7138 2.29177e-15
      vertex 4.04315 -19.1877 -5
      vertex 4.04315 -19.1877 2.34981e-15
    endloop
  endfacet
  facet normal -0.955711 0.294308 0
    outer loop
      vertex 4.25015 -18.7138 -5
      vertex 4.42667 -18.1406 2.22158e-15
      vertex 4.42667 -18.1406 -5
    endloop
  endfacet
  facet normal -0.955711 0.294308 0
    outer loop
      vertex 4.42667 -18.1406 2.22158e-15
      vertex 4.25015 -18.7138 -5
      vertex 4.25015 -18.7138 2.29177e-15
    endloop
  endfacet
  facet normal -0.980832 0.194857 0
    outer loop
      vertex 4.42667 -18.1406 -5
      vertex 4.55109 -17.5143 2.14488e-15
      vertex 4.55109 -17.5143 -5
    endloop
  endfacet
  facet normal -0.980832 0.194857 0
    outer loop
      vertex 4.55109 -17.5143 2.14488e-15
      vertex 4.42667 -18.1406 -5
      vertex 4.42667 -18.1406 2.22158e-15
    endloop
  endfacet
  facet normal -0.994027 0.109139 0
    outer loop
      vertex 4.55109 -17.5143 -5
      vertex 4.62009 -16.8858 2.06792e-15
      vertex 4.62009 -16.8858 -5
    endloop
  endfacet
  facet normal -0.994027 0.109139 0
    outer loop
      vertex 4.62009 -16.8858 2.06792e-15
      vertex 4.55109 -17.5143 -5
      vertex 4.55109 -17.5143 2.14488e-15
    endloop
  endfacet
  facet normal -0.998021 0.062889 0
    outer loop
      vertex 4.62009 -16.8858 -5
      vertex 4.62325 -16.8357 2.06178e-15
      vertex 4.62325 -16.8357 -5
    endloop
  endfacet
  facet normal -0.998021 0.062889 0
    outer loop
      vertex 4.62325 -16.8357 2.06178e-15
      vertex 4.62009 -16.8858 -5
      vertex 4.62009 -16.8858 2.06792e-15
    endloop
  endfacet
  facet normal -0.999429 0.0337987 0
    outer loop
      vertex 4.62325 -16.8357 -5
      vertex 4.64624 -16.1557 1.97851e-15
      vertex 4.64624 -16.1557 -5
    endloop
  endfacet
  facet normal -0.999429 0.0337987 0
    outer loop
      vertex 4.64624 -16.1557 1.97851e-15
      vertex 4.62325 -16.8357 -5
      vertex 4.62325 -16.8357 2.06178e-15
    endloop
  endfacet
  facet normal -1 0 0
    outer loop
      vertex 4.64624 -16.1557 -5
      vertex 4.64624 15.1972 -1.86112e-15
      vertex 4.64624 15.1972 -5
    endloop
  endfacet
  facet normal -1 -0 0
    outer loop
      vertex 4.64624 15.1972 -1.86112e-15
      vertex 4.64624 -16.1557 -5
      vertex 4.64624 -16.1557 1.97851e-15
    endloop
  endfacet
  facet normal -0.999429 -0.0337843 0
    outer loop
      vertex 4.64624 15.1972 -5
      vertex 4.62325 15.8775 -1.94443e-15
      vertex 4.62325 15.8775 -5
    endloop
  endfacet
  facet normal -0.999429 -0.0337843 0
    outer loop
      vertex 4.62325 15.8775 -1.94443e-15
      vertex 4.64624 15.1972 -5
      vertex 4.64624 15.1972 -1.86112e-15
    endloop
  endfacet
  facet normal -0.998021 -0.062889 0
    outer loop
      vertex 4.62325 15.8775 -5
      vertex 4.62009 15.9276 -1.95057e-15
      vertex 4.62009 15.9276 -5
    endloop
  endfacet
  facet normal -0.998021 -0.062889 0
    outer loop
      vertex 4.62009 15.9276 -1.95057e-15
      vertex 4.62325 15.8775 -5
      vertex 4.62325 15.8775 -1.94443e-15
    endloop
  endfacet
  facet normal -0.994043 -0.108992 0
    outer loop
      vertex 4.62009 15.9276 -5
      vertex 4.55109 16.5569 -2.02764e-15
      vertex 4.55109 16.5569 -5
    endloop
  endfacet
  facet normal -0.994043 -0.108992 0
    outer loop
      vertex 4.55109 16.5569 -2.02764e-15
      vertex 4.62009 15.9276 -5
      vertex 4.62009 15.9276 -1.95057e-15
    endloop
  endfacet
  facet normal -0.980917 -0.194428 0
    outer loop
      vertex 4.55109 16.5569 -5
      vertex 4.42667 17.1846 -2.10451e-15
      vertex 4.42667 17.1846 -5
    endloop
  endfacet
  facet normal -0.980917 -0.194428 0
    outer loop
      vertex 4.42667 17.1846 -2.10451e-15
      vertex 4.55109 16.5569 -5
      vertex 4.55109 16.5569 -2.02764e-15
    endloop
  endfacet
  facet normal -0.956 -0.293366 0
    outer loop
      vertex 4.42667 17.1846 -5
      vertex 4.25015 17.7598 -2.17495e-15
      vertex 4.25015 17.7598 -5
    endloop
  endfacet
  facet normal -0.956 -0.293366 0
    outer loop
      vertex 4.25015 17.7598 -2.17495e-15
      vertex 4.42667 17.1846 -5
      vertex 4.42667 17.1846 -2.10451e-15
    endloop
  endfacet
  facet normal -0.917188 -0.398455 0
    outer loop
      vertex 4.25015 17.7598 -5
      vertex 4.04315 18.2363 -2.23331e-15
      vertex 4.04315 18.2363 -5
    endloop
  endfacet
  facet normal -0.917188 -0.398455 0
    outer loop
      vertex 4.04315 18.2363 -2.23331e-15
      vertex 4.25015 17.7598 -5
      vertex 4.25015 17.7598 -2.17495e-15
    endloop
  endfacet
  facet normal -0.90475 -0.425943 0
    outer loop
      vertex 4.04315 18.2363 -5
      vertex 4.02176 18.2818 -2.23887e-15
      vertex 4.02176 18.2818 -5
    endloop
  endfacet
  facet normal -0.90475 -0.425943 0
    outer loop
      vertex 4.02176 18.2818 -2.23887e-15
      vertex 4.04315 18.2363 -5
      vertex 4.04315 18.2363 -2.23331e-15
    endloop
  endfacet
  facet normal -0.859558 -0.511038 0
    outer loop
      vertex 4.02176 18.2818 -5
      vertex 3.76875 18.7073 -2.29099e-15
      vertex 3.76875 18.7073 -5
    endloop
  endfacet
  facet normal -0.859558 -0.511038 0
    outer loop
      vertex 3.76875 18.7073 -2.29099e-15
      vertex 4.02176 18.2818 -5
      vertex 4.02176 18.2818 -2.23887e-15
    endloop
  endfacet
  facet normal -0.844361 -0.535774 0
    outer loop
      vertex 3.76875 18.7073 -5
      vertex 3.74184 18.7497 -2.29618e-15
      vertex 3.74184 18.7497 -5
    endloop
  endfacet
  facet normal -0.844361 -0.535774 0
    outer loop
      vertex 3.74184 18.7497 -2.29618e-15
      vertex 3.76875 18.7073 -5
      vertex 3.76875 18.7073 -2.29099e-15
    endloop
  endfacet
  facet normal -0.780529 -0.62512 0
    outer loop
      vertex 3.74184 18.7497 -5
      vertex 3.41083 19.163 -2.3468e-15
      vertex 3.41083 19.163 -5
    endloop
  endfacet
  facet normal -0.780529 -0.62512 0
    outer loop
      vertex 3.41083 19.163 -2.3468e-15
      vertex 3.74184 18.7497 -5
      vertex 3.74184 18.7497 -2.29618e-15
    endloop
  endfacet
  facet normal -0.69304 -0.720899 0
    outer loop
      vertex 3.03809 19.5214 -5
      vertex 3.41083 19.163 -2.3468e-15
      vertex 3.03809 19.5214 -2.39068e-15
    endloop
  endfacet
  facet normal -0.69304 -0.720899 -0
    outer loop
      vertex 3.41083 19.163 -2.3468e-15
      vertex 3.03809 19.5214 -5
      vertex 3.41083 19.163 -5
    endloop
  endfacet
  facet normal -0.599855 -0.800109 0
    outer loop
      vertex 2.63309 19.825 -5
      vertex 3.03809 19.5214 -2.39068e-15
      vertex 2.63309 19.825 -2.42786e-15
    endloop
  endfacet
  facet normal -0.599855 -0.800109 -0
    outer loop
      vertex 3.03809 19.5214 -2.39068e-15
      vertex 2.63309 19.825 -5
      vertex 3.03809 19.5214 -5
    endloop
  endfacet
  facet normal -0.494558 -0.869144 0
    outer loop
      vertex 2.19644 20.0735 -5
      vertex 2.63309 19.825 -2.42786e-15
      vertex 2.19644 20.0735 -2.45829e-15
    endloop
  endfacet
  facet normal -0.494558 -0.869144 -0
    outer loop
      vertex 2.63309 19.825 -2.42786e-15
      vertex 2.19644 20.0735 -5
      vertex 2.63309 19.825 -5
    endloop
  endfacet
  facet normal -0.381413 -0.924405 0
    outer loop
      vertex 1.72888 20.2664 -5
      vertex 2.19644 20.0735 -2.45829e-15
      vertex 1.72888 20.2664 -2.48192e-15
    endloop
  endfacet
  facet normal -0.381413 -0.924405 -0
    outer loop
      vertex 2.19644 20.0735 -2.45829e-15
      vertex 1.72888 20.2664 -5
      vertex 2.19644 20.0735 -5
    endloop
  endfacet
  facet normal -0.265555 -0.964096 0
    outer loop
      vertex 1.23114 20.4035 -5
      vertex 1.72888 20.2664 -2.48192e-15
      vertex 1.23114 20.4035 -2.49871e-15
    endloop
  endfacet
  facet normal -0.265555 -0.964096 -0
    outer loop
      vertex 1.72888 20.2664 -2.48192e-15
      vertex 1.23114 20.4035 -5
      vertex 1.72888 20.2664 -5
    endloop
  endfacet
  facet normal -0.154712 -0.98796 0
    outer loop
      vertex 0.753784 20.4782 -5
      vertex 1.23114 20.4035 -2.49871e-15
      vertex 0.753784 20.4782 -2.50786e-15
    endloop
  endfacet
  facet normal -0.154712 -0.98796 -0
    outer loop
      vertex 1.23114 20.4035 -2.49871e-15
      vertex 0.753784 20.4782 -5
      vertex 1.23114 20.4035 -5
    endloop
  endfacet
  facet normal -0.125156 -0.992137 0
    outer loop
      vertex 0.703949 20.4845 -5
      vertex 0.753784 20.4782 -2.50786e-15
      vertex 0.703949 20.4845 -2.50863e-15
    endloop
  endfacet
  facet normal -0.125156 -0.992137 -0
    outer loop
      vertex 0.753784 20.4782 -2.50786e-15
      vertex 0.703949 20.4845 -5
      vertex 0.753784 20.4782 -5
    endloop
  endfacet
  facet normal -0.049225 -0.998788 0
    outer loop
      vertex 0.198364 20.5094 -5
      vertex 0.703949 20.4845 -2.50863e-15
      vertex 0.198364 20.5094 -2.51168e-15
    endloop
  endfacet
  facet normal -0.049225 -0.998788 -0
    outer loop
      vertex 0.703949 20.4845 -2.50863e-15
      vertex 0.198364 20.5094 -5
      vertex 0.703949 20.4845 -5
    endloop
  endfacet
  facet normal 0 -1 0
    outer loop
      vertex 0.148132 20.5094 -5
      vertex 0.198364 20.5094 -2.51168e-15
      vertex 0.148132 20.5094 -2.51168e-15
    endloop
  endfacet
  facet normal 0 -1 -0
    outer loop
      vertex 0.198364 20.5094 -2.51168e-15
      vertex 0.148132 20.5094 -5
      vertex 0.198364 20.5094 -5
    endloop
  endfacet
  facet normal -0 1.17015e-07 1
    outer loop
      vertex -25 8.15 23.2
      vertex -24 -8.15 23.2
      vertex -24 8.15 23.2
    endloop
  endfacet
  facet normal 0 1.17015e-07 1
    outer loop
      vertex -24 -8.15 23.2
      vertex -25 8.15 23.2
      vertex -25 -8.15 23.2
    endloop
  endfacet
  facet normal 0 -1 0
    outer loop
      vertex -25 8.15 23.2
      vertex -24 8.15 25
      vertex -25 8.15 25
    endloop
  endfacet
  facet normal 0 -1 -0
    outer loop
      vertex -24 8.15 25
      vertex -25 8.15 23.2
      vertex -24 8.15 23.2
    endloop
  endfacet
  facet normal 0 1 -0
    outer loop
      vertex -24 -8.15 23.2
      vertex -25 -8.15 25
      vertex -24 -8.15 25
    endloop
  endfacet
  facet normal 0 1 0
    outer loop
      vertex -25 -8.15 25
      vertex -24 -8.15 23.2
      vertex -25 -8.15 23.2
    endloop
  endfacet
  facet normal -0 1.17015e-07 1
    outer loop
      vertex 24 8.15 23.2
      vertex 25 -8.15 23.2
      vertex 25 8.15 23.2
    endloop
  endfacet
  facet normal 0 1.17015e-07 1
    outer loop
      vertex 25 -8.15 23.2
      vertex 24 8.15 23.2
      vertex 24 -8.15 23.2
    endloop
  endfacet
  facet normal 0 -1 0
    outer loop
      vertex 24 8.15 23.2
      vertex 25 8.15 25
      vertex 24 8.15 25
    endloop
  endfacet
  facet normal 0 -1 -0
    outer loop
      vertex 25 8.15 25
      vertex 24 8.15 23.2
      vertex 25 8.15 23.2
    endloop
  endfacet
  facet normal 0 1 -0
    outer loop
      vertex 25 -8.15 23.2
      vertex 24 -8.15 25
      vertex 25 -8.15 25
    endloop
  endfacet
  facet normal 0 1 0
    outer loop
      vertex 24 -8.15 25
      vertex 25 -8.15 23.2
      vertex 24 -8.15 23.2
    endloop
  endfacet
  facet normal 1 -0 0
    outer loop
      vertex -8.15 -25 25
      vertex -8.15 -24 23.2
      vertex -8.15 -24 25
    endloop
  endfacet
  facet normal 1 0 0
    outer loop
      vertex -8.15 -24 23.2
      vertex -8.15 -25 25
      vertex -8.15 -25 23.2
    endloop
  endfacet
  facet normal -0 0 1
    outer loop
      vertex -8.15 -24 23.2
      vertex 8.15 -25 23.2
      vertex 8.15 -24 23.2
    endloop
  endfacet
  facet normal 0 0 1
    outer loop
      vertex 8.15 -25 23.2
      vertex -8.15 -24 23.2
      vertex -8.15 -25 23.2
    endloop
  endfacet
  facet normal -1 0 0
    outer loop
      vertex 8.15 -25 23.2
      vertex 8.15 -24 25
      vertex 8.15 -24 23.2
    endloop
  endfacet
  facet normal -1 -0 0
    outer loop
      vertex 8.15 -24 25
      vertex 8.15 -25 23.2
      vertex 8.15 -25 25
    endloop
  endfacet
  facet normal 1 -0 0
    outer loop
      vertex -8.15 24 25
      vertex -8.15 25 23.2
      vertex -8.15 25 25
    endloop
  endfacet
  facet normal 1 0 0
    outer loop
      vertex -8.15 25 23.2
      vertex -8.15 24 25
      vertex -8.15 24 23.2
    endloop
  endfacet
  facet normal -0 0 1
    outer loop
      vertex -8.15 25 23.2
      vertex 8.15 24 23.2
      vertex 8.15 25 23.2
    endloop
  endfacet
  facet normal 0 0 1
    outer loop
      vertex 8.15 24 23.2
      vertex -8.15 25 23.2
      vertex -8.15 24 23.2
    endloop
  endfacet
  facet normal -1 0 0
    outer loop
      vertex 8.15 24 23.2
      vertex 8.15 25 25
      vertex 8.15 25 23.2
    endloop
  endfacet
  facet normal -1 -0 0
    outer loop
      vertex 8.15 25 25
      vertex 8.15 24 23.2
      vertex 8.15 24 25
    endloop
  endfacet
endsolid OpenSCAD_Model
