solid OpenSCAD_Model
  facet normal -1 0 0
    outer loop
      vertex -25 25 -5
      vertex -25 8.15 23.2
      vertex -25 25 25
    endloop
  endfacet
  facet normal -1 0 0
    outer loop
      vertex -25 25 -5
      vertex -25 -8.15 23.2
      vertex -25 8.15 23.2
    endloop
  endfacet
  facet normal -1 0 0
    outer loop
      vertex -25 -25 -5
      vertex -25 -8.15 23.2
      vertex -25 25 -5
    endloop
  endfacet
  facet normal -1 0 0
    outer loop
      vertex -25 -25 25
      vertex -25 -8.15 23.2
      vertex -25 -25 -5
    endloop
  endfacet
  facet normal -1 0 0
    outer loop
      vertex -25 -8.15 23.2
      vertex -25 -25 25
      vertex -25 -8.15 25
    endloop
  endfacet
  facet normal -1 -0 0
    outer loop
      vertex -25 25 25
      vertex -25 8.15 23.2
      vertex -25 8.15 25
    endloop
  endfacet
  facet normal -5.29288e-25 1.22465e-16 1
    outer loop
      vertex 8.82053 -4.96664 6.08238e-16
      vertex 24 -24 2.93915e-15
      vertex 24 24 -2.93915e-15
    endloop
  endfacet
  facet normal 1.12694e-22 1.22465e-16 1
    outer loop
      vertex 24 -24 2.93915e-15
      vertex 8.88022 -5.34438 6.54497e-16
      vertex 8.90327 -5.79375 7.09529e-16
    endloop
  endfacet
  facet normal 5.01267e-24 1.22465e-16 1
    outer loop
      vertex 24 -24 2.93915e-15
      vertex 8.82053 -4.96664 6.08238e-16
      vertex 8.88022 -5.34438 6.54497e-16
    endloop
  endfacet
  facet normal 1.29115e-21 1.22464e-16 1
    outer loop
      vertex 24 24 -2.93915e-15
      vertex 8.81111 -4.9173 6.02195e-16
      vertex 8.82053 -4.96664 6.08238e-16
    endloop
  endfacet
  facet normal 8.28158e-24 1.22465e-16 1
    outer loop
      vertex 24 24 -2.93915e-15
      vertex 8.71162 -4.56107 5.58569e-16
      vertex 8.81111 -4.9173 6.02195e-16
    endloop
  endfacet
  facet normal -1.07741e-21 1.22465e-16 1
    outer loop
      vertex 24 24 -2.93915e-15
      vertex 8.69611 -4.51329 5.52719e-16
      vertex 8.71162 -4.56107 5.58569e-16
    endloop
  endfacet
  facet normal 1.32612e-22 1.22465e-16 1
    outer loop
      vertex 24 24 -2.93915e-15
      vertex 8.55681 -4.17857 5.11728e-16
      vertex 8.69611 -4.51329 5.52719e-16
    endloop
  endfacet
  facet normal -4.99101e-22 1.22465e-16 1
    outer loop
      vertex 24 24 -2.93915e-15
      vertex 8.53542 -4.13313 5.06163e-16
      vertex 8.55681 -4.17857 5.11728e-16
    endloop
  endfacet
  facet normal -6.52623e-23 1.22465e-16 1
    outer loop
      vertex 24 24 -2.93915e-15
      vertex 8.35634 -3.81993 4.67807e-16
      vertex 8.53542 -4.13313 5.06163e-16
    endloop
  endfacet
  facet normal 5.73781e-22 1.22464e-16 1
    outer loop
      vertex 24 24 -2.93915e-15
      vertex 8.32942 -3.77751 4.62612e-16
      vertex 8.35634 -3.81993 4.67807e-16
    endloop
  endfacet
  facet normal -2.31988e-23 1.22465e-16 1
    outer loop
      vertex 24 24 -2.93915e-15
      vertex 8.11055 -3.48582 4.2689e-16
      vertex 8.32942 -3.77751 4.62612e-16
    endloop
  endfacet
  facet normal -1.66348e-22 1.22465e-16 1
    outer loop
      vertex 24 24 -2.93915e-15
      vertex 8.07854 -3.44713 4.22151e-16
      vertex 8.11055 -3.48582 4.2689e-16
    endloop
  endfacet
  facet normal 4.97435e-23 1.22465e-16 1
    outer loop
      vertex 24 24 -2.93915e-15
      vertex 7.81985 -3.17694 3.89063e-16
      vertex 8.07854 -3.44713 4.22151e-16
    endloop
  endfacet
  facet normal -2.01984e-22 1.22465e-16 1
    outer loop
      vertex 24 24 -2.93915e-15
      vertex 7.78323 -3.14255 3.84851e-16
      vertex 7.81985 -3.17694 3.89063e-16
    endloop
  endfacet
  facet normal 1.05985e-23 1.22465e-16 1
    outer loop
      vertex 24 24 -2.93915e-15
      vertex 7.4834 -2.90192 3.55382e-16
      vertex 7.78323 -3.14255 3.84851e-16
    endloop
  endfacet
  facet normal -2.63741e-22 1.22465e-16 1
    outer loop
      vertex 24 24 -2.93915e-15
      vertex 7.44276 -2.87239 3.51766e-16
      vertex 7.4834 -2.90192 3.55382e-16
    endloop
  endfacet
  facet normal 4.80681e-24 1.22465e-16 1
    outer loop
      vertex 24 24 -2.93915e-15
      vertex 7.09982 -2.66878 3.26831e-16
      vertex 7.44276 -2.87239 3.51766e-16
    endloop
  endfacet
  facet normal 1.70433e-22 1.22465e-16 1
    outer loop
      vertex 24 24 -2.93915e-15
      vertex 7.0558 -2.64458 3.23867e-16
      vertex 7.09982 -2.66878 3.26831e-16
    endloop
  endfacet
  facet normal -4.97919e-26 1.22465e-16 1
    outer loop
      vertex 24 24 -2.93915e-15
      vertex 6.66977 -2.47798 3.03465e-16
      vertex 7.0558 -2.64458 3.23867e-16
    endloop
  endfacet
  facet normal -2.4813e-22 1.22465e-16 1
    outer loop
      vertex 24 24 -2.93915e-15
      vertex 6.62306 -2.45949 3.012e-16
      vertex 6.66977 -2.47798 3.03465e-16
    endloop
  endfacet
  facet normal -4.79642e-24 1.22465e-16 1
    outer loop
      vertex 24 24 -2.93915e-15
      vertex 6.19391 -2.32991 2.85332e-16
      vertex 6.62306 -2.45949 3.012e-16
    endloop
  endfacet
  facet normal 8.76376e-23 1.22465e-16 1
    outer loop
      vertex 24 24 -2.93915e-15
      vertex 6.14526 -2.31741 2.83801e-16
      vertex 6.19391 -2.32991 2.85332e-16
    endloop
  endfacet
  facet normal 1.09975e-23 1.22465e-16 1
    outer loop
      vertex 24 24 -2.93915e-15
      vertex 5.67302 -2.22487 2.72468e-16
      vertex 6.14526 -2.31741 2.83801e-16
    endloop
  endfacet
  facet normal -1.22409e-23 1.22465e-16 1
    outer loop
      vertex 24 24 -2.93915e-15
      vertex 5.10785 -2.16306 2.64898e-16
      vertex 5.67302 -2.22487 2.72468e-16
    endloop
  endfacet
  facet normal 2.05604e-24 1.22465e-16 1
    outer loop
      vertex 24 24 -2.93915e-15
      vertex 4.54939 -2.14455 2.62631e-16
      vertex 5.10785 -2.16306 2.64898e-16
    endloop
  endfacet
  facet normal 0 1.22465e-16 1
    outer loop
      vertex 24 24 -2.93915e-15
      vertex -4.05482 -2.14455 2.62631e-16
      vertex 4.54939 -2.14455 2.62631e-16
    endloop
  endfacet
  facet normal -0 1.22465e-16 1
    outer loop
      vertex -24 24 -2.93915e-15
      vertex -4.05482 -2.14455 2.62631e-16
      vertex 24 24 -2.93915e-15
    endloop
  endfacet
  facet normal -2.1317e-24 1.22465e-16 1
    outer loop
      vertex -4.05482 -2.14455 2.62631e-16
      vertex -24 24 -2.93915e-15
      vertex -4.59262 -2.16306 2.64898e-16
    endloop
  endfacet
  facet normal 1.25381e-23 1.22465e-16 1
    outer loop
      vertex -4.59262 -2.16306 2.64898e-16
      vertex -24 24 -2.93915e-15
      vertex -5.14212 -2.22487 2.72468e-16
    endloop
  endfacet
  facet normal -1.1181e-23 1.22465e-16 1
    outer loop
      vertex -5.14212 -2.22487 2.72468e-16
      vertex -24 24 -2.93915e-15
      vertex -5.60368 -2.31741 2.83801e-16
    endloop
  endfacet
  facet normal -8.72448e-23 1.22465e-16 1
    outer loop
      vertex -5.60368 -2.31741 2.83801e-16
      vertex -24 24 -2.93915e-15
      vertex -5.65233 -2.32991 2.85332e-16
    endloop
  endfacet
  facet normal 4.82495e-24 1.22465e-16 1
    outer loop
      vertex -5.65233 -2.32991 2.85332e-16
      vertex -24 24 -2.93915e-15
      vertex -6.07576 -2.45949 3.012e-16
    endloop
  endfacet
  facet normal 2.46527e-22 1.22465e-16 1
    outer loop
      vertex -6.07576 -2.45949 3.012e-16
      vertex -24 24 -2.93915e-15
      vertex -6.12247 -2.47798 3.03465e-16
    endloop
  endfacet
  facet normal 4.95208e-26 1.22465e-16 1
    outer loop
      vertex -6.12247 -2.47798 3.03465e-16
      vertex -24 24 -2.93915e-15
      vertex -6.50777 -2.64458 3.23867e-16
    endloop
  endfacet
  facet normal -1.69017e-22 1.22465e-16 1
    outer loop
      vertex -6.50777 -2.64458 3.23867e-16
      vertex -24 24 -2.93915e-15
      vertex -6.55179 -2.66878 3.26831e-16
    endloop
  endfacet
  facet normal -4.7225e-24 1.22465e-16 1
    outer loop
      vertex -6.55179 -2.66878 3.26831e-16
      vertex -24 24 -2.93915e-15
      vertex -6.89897 -2.87239 3.51766e-16
    endloop
  endfacet
  facet normal 2.6109e-22 1.22465e-16 1
    outer loop
      vertex -6.89897 -2.87239 3.51766e-16
      vertex -24 24 -2.93915e-15
      vertex -6.93961 -2.90192 3.55382e-16
    endloop
  endfacet
  facet normal -4.86292e-24 1.22465e-16 1
    outer loop
      vertex -8.32269 -4.96664 6.08238e-16
      vertex -24 -24 2.93915e-15
      vertex -8.38483 -5.34438 6.54497e-16
    endloop
  endfacet
  facet normal 5.12481e-25 1.22465e-16 1
    outer loop
      vertex -24 -24 2.93915e-15
      vertex -8.32269 -4.96664 6.08238e-16
      vertex -24 24 -2.93915e-15
    endloop
  endfacet
  facet normal -1.26084e-21 1.22464e-16 1
    outer loop
      vertex -8.31328 -4.9173 6.02195e-16
      vertex -24 24 -2.93915e-15
      vertex -8.32269 -4.96664 6.08238e-16
    endloop
  endfacet
  facet normal -7.99637e-24 1.22465e-16 1
    outer loop
      vertex -8.2097 -4.56107 5.58569e-16
      vertex -24 24 -2.93915e-15
      vertex -8.31328 -4.9173 6.02195e-16
    endloop
  endfacet
  facet normal 1.05583e-21 1.22465e-16 1
    outer loop
      vertex -8.19418 -4.51329 5.52719e-16
      vertex -24 24 -2.93915e-15
      vertex -8.2097 -4.56107 5.58569e-16
    endloop
  endfacet
  facet normal -1.27959e-22 1.22465e-16 1
    outer loop
      vertex -8.04918 -4.17857 5.11728e-16
      vertex -24 24 -2.93915e-15
      vertex -8.19418 -4.51329 5.52719e-16
    endloop
  endfacet
  facet normal 4.90429e-22 1.22465e-16 1
    outer loop
      vertex -8.02779 -4.13313 5.06163e-16
      vertex -24 24 -2.93915e-15
      vertex -8.04918 -4.17857 5.11728e-16
    endloop
  endfacet
  facet normal 6.2932e-23 1.22465e-16 1
    outer loop
      vertex -7.84135 -3.81993 4.67807e-16
      vertex -24 24 -2.93915e-15
      vertex -8.02779 -4.13313 5.06163e-16
    endloop
  endfacet
  facet normal -5.65041e-22 1.22464e-16 1
    outer loop
      vertex -7.81444 -3.77751 4.62612e-16
      vertex -24 24 -2.93915e-15
      vertex -7.84135 -3.81993 4.67807e-16
    endloop
  endfacet
  facet normal 2.23602e-23 1.22465e-16 1
    outer loop
      vertex -7.58659 -3.48582 4.2689e-16
      vertex -24 24 -2.93915e-15
      vertex -7.81444 -3.77751 4.62612e-16
    endloop
  endfacet
  facet normal 1.64122e-22 1.22465e-16 1
    outer loop
      vertex -7.55458 -3.44713 4.22151e-16
      vertex -24 24 -2.93915e-15
      vertex -7.58659 -3.48582 4.2689e-16
    endloop
  endfacet
  facet normal -4.7925e-23 1.22465e-16 1
    outer loop
      vertex -7.28529 -3.17694 3.89063e-16
      vertex -24 24 -2.93915e-15
      vertex -7.55458 -3.44713 4.22151e-16
    endloop
  endfacet
  facet normal 1.99619e-22 1.22465e-16 1
    outer loop
      vertex -7.24867 -3.14255 3.84851e-16
      vertex -24 24 -2.93915e-15
      vertex -7.28529 -3.17694 3.89063e-16
    endloop
  endfacet
  facet normal -1.02749e-23 1.22465e-16 1
    outer loop
      vertex -6.93961 -2.90192 3.55382e-16
      vertex -24 24 -2.93915e-15
      vertex -7.24867 -3.14255 3.84851e-16
    endloop
  endfacet
  facet normal 2.56864e-23 1.22465e-16 1
    outer loop
      vertex 8.87994 -6.25052 7.65468e-16
      vertex 24 -24 2.93915e-15
      vertex 8.90327 -5.79375 7.09529e-16
    endloop
  endfacet
  facet normal -7.61374e-23 1.22465e-16 1
    outer loop
      vertex 8.81946 -6.63448 8.12489e-16
      vertex 24 -24 2.93915e-15
      vertex 8.87994 -6.25052 7.65468e-16
    endloop
  endfacet
  facet normal 1.4106e-22 1.22465e-16 1
    outer loop
      vertex 8.81004 -6.68382 8.18532e-16
      vertex 24 -24 2.93915e-15
      vertex 8.81946 -6.63448 8.12489e-16
    endloop
  endfacet
  facet normal 7.83275e-23 1.22465e-16 1
    outer loop
      vertex 8.70923 -7.04509 8.62775e-16
      vertex 24 -24 2.93915e-15
      vertex 8.81004 -6.68382 8.18532e-16
    endloop
  endfacet
  facet normal -1.44324e-22 1.22465e-16 1
    outer loop
      vertex 8.69371 -7.09286 8.68625e-16
      vertex 24 -24 2.93915e-15
      vertex 8.70923 -7.04509 8.62775e-16
    endloop
  endfacet
  facet normal -1.40508e-22 1.22465e-16 1
    outer loop
      vertex 8.55257 -7.43144 9.10089e-16
      vertex 24 -24 2.93915e-15
      vertex 8.69371 -7.09286 8.68625e-16
    endloop
  endfacet
  facet normal 3.62426e-22 1.22465e-16 1
    outer loop
      vertex 8.53117 -7.47688 9.15654e-16
      vertex 24 -24 2.93915e-15
      vertex 8.55257 -7.43144 9.10089e-16
    endloop
  endfacet
  facet normal 1.41962e-22 1.22465e-16 1
    outer loop
      vertex 8.3497 -7.79276 9.54337e-16
      vertex 24 -24 2.93915e-15
      vertex 8.53117 -7.47688 9.15654e-16
    endloop
  endfacet
  facet normal -4.26686e-22 1.22464e-16 1
    outer loop
      vertex 8.32278 -7.83517 9.59532e-16
      vertex 24 -24 2.93915e-15
      vertex 8.3497 -7.79276 9.54337e-16
    endloop
  endfacet
  facet normal -5.4608e-23 1.22465e-16 1
    outer loop
      vertex 8.101 -8.12836 9.95437e-16
      vertex 24 -24 2.93915e-15
      vertex 8.32278 -7.83517 9.59532e-16
    endloop
  endfacet
  facet normal 1.2845e-22 1.22465e-16 1
    outer loop
      vertex 8.06898 -8.16705 1.00018e-15
      vertex 24 -24 2.93915e-15
      vertex 8.101 -8.12836 9.95437e-16
    endloop
  endfacet
  facet normal -3.40834e-23 1.22465e-16 1
    outer loop
      vertex 7.80685 -8.43755 1.0333e-15
      vertex 24 -24 2.93915e-15
      vertex 8.06898 -8.16705 1.00018e-15
    endloop
  endfacet
  facet normal 1.59744e-22 1.22465e-16 1
    outer loop
      vertex 7.77023 -8.47194 1.03751e-15
      vertex 24 -24 2.93915e-15
      vertex 7.80685 -8.43755 1.0333e-15
    endloop
  endfacet
  facet normal 5.27139e-23 1.22465e-16 1
    outer loop
      vertex 7.46724 -8.71284 1.06702e-15
      vertex 24 -24 2.93915e-15
      vertex 7.77023 -8.47194 1.03751e-15
    endloop
  endfacet
  facet normal 2.14952e-22 1.22465e-16 1
    outer loop
      vertex 7.42661 -8.74237 1.07063e-15
      vertex 24 -24 2.93915e-15
      vertex 7.46724 -8.71284 1.06702e-15
    endloop
  endfacet
  facet normal -1.12299e-22 1.22465e-16 1
    outer loop
      vertex 7.08217 -8.9462 1.09559e-15
      vertex 24 -24 2.93915e-15
      vertex 7.42661 -8.74237 1.07063e-15
    endloop
  endfacet
  facet normal 9.72859e-22 1.22466e-16 1
    outer loop
      vertex 7.03815 -8.9704 1.09856e-15
      vertex 24 -24 2.93915e-15
      vertex 7.08217 -8.9462 1.09559e-15
    endloop
  endfacet
  facet normal -1.43974e-22 1.22465e-16 1
    outer loop
      vertex 6.6523 -9.13718 1.11898e-15
      vertex 24 -24 2.93915e-15
      vertex 7.03815 -8.9704 1.09856e-15
    endloop
  endfacet
  facet normal 6.01039e-22 1.22465e-16 1
    outer loop
      vertex 6.60559 -9.15567 1.12125e-15
      vertex 24 -24 2.93915e-15
      vertex 6.6523 -9.13718 1.11898e-15
    endloop
  endfacet
  facet normal -5.77994e-23 1.22465e-16 1
    outer loop
      vertex 6.1783 -9.28539 1.13713e-15
      vertex 24 -24 2.93915e-15
      vertex 6.60559 -9.15567 1.12125e-15
    endloop
  endfacet
  facet normal 7.5137e-22 1.22466e-16 1
    outer loop
      vertex 6.12965 -9.29788 1.13866e-15
      vertex 24 -24 2.93915e-15
      vertex 6.1783 -9.28539 1.13713e-15
    endloop
  endfacet
  facet normal 2.79415e-23 1.22465e-16 1
    outer loop
      vertex 5.66095 -9.39053 1.15001e-15
      vertex 24 -24 2.93915e-15
      vertex 6.12965 -9.29788 1.13866e-15
    endloop
  endfacet
  facet normal 3.76015e-23 1.22465e-16 1
    outer loop
      vertex 5.10097 -9.45241 1.15759e-15
      vertex 24 -24 2.93915e-15
      vertex 5.66095 -9.39053 1.15001e-15
    endloop
  endfacet
  facet normal -1.02676e-22 1.22465e-16 1
    outer loop
      vertex 4.54939 -9.47095 1.15986e-15
      vertex 24 -24 2.93915e-15
      vertex 5.10097 -9.45241 1.15759e-15
    endloop
  endfacet
  facet normal -0 1.22465e-16 1
    outer loop
      vertex -4.05482 -9.47095 1.15986e-15
      vertex 24 -24 2.93915e-15
      vertex 4.54939 -9.47095 1.15986e-15
    endloop
  endfacet
  facet normal 1.02564e-22 1.22465e-16 1
    outer loop
      vertex -24 -24 2.93915e-15
      vertex -4.05482 -9.47095 1.15986e-15
      vertex -4.6064 -9.45241 1.15759e-15
    endloop
  endfacet
  facet normal -3.74793e-23 1.22465e-16 1
    outer loop
      vertex -24 -24 2.93915e-15
      vertex -4.6064 -9.45241 1.15759e-15
      vertex -5.16637 -9.39053 1.15001e-15
    endloop
  endfacet
  facet normal -2.77918e-23 1.22465e-16 1
    outer loop
      vertex -24 -24 2.93915e-15
      vertex -5.16637 -9.39053 1.15001e-15
      vertex -5.63509 -9.29788 1.13866e-15
    endloop
  endfacet
  facet normal -7.46454e-22 1.22466e-16 1
    outer loop
      vertex -24 -24 2.93915e-15
      vertex -5.63509 -9.29788 1.13866e-15
      vertex -5.68373 -9.28539 1.13713e-15
    endloop
  endfacet
  facet normal 5.73714e-23 1.22465e-16 1
    outer loop
      vertex -24 -24 2.93915e-15
      vertex -5.68373 -9.28539 1.13713e-15
      vertex -6.11102 -9.15567 1.12125e-15
    endloop
  endfacet
  facet normal -5.95672e-22 1.22465e-16 1
    outer loop
      vertex -24 -24 2.93915e-15
      vertex -6.11102 -9.15567 1.12125e-15
      vertex -6.15773 -9.13718 1.11898e-15
    endloop
  endfacet
  facet normal 1.4261e-22 1.22465e-16 1
    outer loop
      vertex -24 -24 2.93915e-15
      vertex -6.15773 -9.13718 1.11898e-15
      vertex -6.54358 -8.9704 1.09856e-15
    endloop
  endfacet
  facet normal -1.0914e-22 1.22465e-16 1
    outer loop
      vertex -8.38483 -5.34438 6.54497e-16
      vertex -24 -24 2.93915e-15
      vertex -8.40871 -5.79375 7.09529e-16
    endloop
  endfacet
  facet normal -2.49175e-23 1.22465e-16 1
    outer loop
      vertex -8.40871 -5.79375 7.09529e-16
      vertex -24 -24 2.93915e-15
      vertex -8.38538 -6.25052 7.65468e-16
    endloop
  endfacet
  facet normal 7.40921e-23 1.22465e-16 1
    outer loop
      vertex -8.38538 -6.25052 7.65468e-16
      vertex -24 -24 2.93915e-15
      vertex -8.32489 -6.63448 8.12489e-16
    endloop
  endfacet
  facet normal -1.37386e-22 1.22465e-16 1
    outer loop
      vertex -8.32489 -6.63448 8.12489e-16
      vertex -24 -24 2.93915e-15
      vertex -8.31548 -6.68382 8.18532e-16
    endloop
  endfacet
  facet normal -7.64394e-23 1.22465e-16 1
    outer loop
      vertex -8.31548 -6.68382 8.18532e-16
      vertex -24 -24 2.93915e-15
      vertex -8.21466 -7.04509 8.62775e-16
    endloop
  endfacet
  facet normal 1.40972e-22 1.22465e-16 1
    outer loop
      vertex -8.21466 -7.04509 8.62775e-16
      vertex -24 -24 2.93915e-15
      vertex -8.19914 -7.09286 8.68625e-16
    endloop
  endfacet
  facet normal 1.37467e-22 1.22465e-16 1
    outer loop
      vertex -8.19914 -7.09286 8.68625e-16
      vertex -24 -24 2.93915e-15
      vertex -8.058 -7.43144 9.10089e-16
    endloop
  endfacet
  facet normal 0 1.22465e-16 1
    outer loop
      vertex -4.05482 -9.47095 1.15986e-15
      vertex -24 -24 2.93915e-15
      vertex 24 -24 2.93915e-15
    endloop
  endfacet
  facet normal -9.62118e-22 1.22466e-16 1
    outer loop
      vertex -6.5876 -8.9462 1.09559e-15
      vertex -24 -24 2.93915e-15
      vertex -6.54358 -8.9704 1.09856e-15
    endloop
  endfacet
  facet normal 1.11003e-22 1.22465e-16 1
    outer loop
      vertex -6.93204 -8.74237 1.07063e-15
      vertex -24 -24 2.93915e-15
      vertex -6.5876 -8.9462 1.09559e-15
    endloop
  endfacet
  facet normal -2.12159e-22 1.22465e-16 1
    outer loop
      vertex -6.97267 -8.71284 1.06702e-15
      vertex -24 -24 2.93915e-15
      vertex -6.93204 -8.74237 1.07063e-15
    endloop
  endfacet
  facet normal -5.19948e-23 1.22465e-16 1
    outer loop
      vertex -7.27567 -8.47194 1.03751e-15
      vertex -24 -24 2.93915e-15
      vertex -6.97267 -8.71284 1.06702e-15
    endloop
  endfacet
  facet normal -1.57368e-22 1.22465e-16 1
    outer loop
      vertex -7.31229 -8.43755 1.0333e-15
      vertex -24 -24 2.93915e-15
      vertex -7.27567 -8.47194 1.03751e-15
    endloop
  endfacet
  facet normal 3.35528e-23 1.22465e-16 1
    outer loop
      vertex -7.57442 -8.16705 1.00018e-15
      vertex -24 -24 2.93915e-15
      vertex -7.31229 -8.43755 1.0333e-15
    endloop
  endfacet
  facet normal -1.26298e-22 1.22465e-16 1
    outer loop
      vertex -7.60643 -8.12836 9.95437e-16
      vertex -24 -24 2.93915e-15
      vertex -7.57442 -8.16705 1.00018e-15
    endloop
  endfacet
  facet normal 5.3657e-23 1.22465e-16 1
    outer loop
      vertex -7.82822 -7.83517 9.59532e-16
      vertex -24 -24 2.93915e-15
      vertex -7.60643 -8.12836 9.95437e-16
    endloop
  endfacet
  facet normal 4.18701e-22 1.22464e-16 1
    outer loop
      vertex -7.85513 -7.79276 9.54337e-16
      vertex -24 -24 2.93915e-15
      vertex -7.82822 -7.83517 9.59532e-16
    endloop
  endfacet
  facet normal -1.39204e-22 1.22465e-16 1
    outer loop
      vertex -8.03661 -7.47688 9.15654e-16
      vertex -24 -24 2.93915e-15
      vertex -7.85513 -7.79276 9.54337e-16
    endloop
  endfacet
  facet normal -3.54877e-22 1.22465e-16 1
    outer loop
      vertex -8.058 -7.43144 9.10089e-16
      vertex -24 -24 2.93915e-15
      vertex -8.03661 -7.47688 9.15654e-16
    endloop
  endfacet
  facet normal 1 0 0
    outer loop
      vertex 25 -8.15 25
      vertex 25 -25 25
      vertex 25 -8.15 23.2
    endloop
  endfacet
  facet normal 1 0 0
    outer loop
      vertex 25 8.15 23.2
      vertex 25 25 25
      vertex 25 8.15 25
    endloop
  endfacet
  facet normal 1 0 0
    outer loop
      vertex 25 25 25
      vertex 25 8.15 23.2
      vertex 25 25 -5
    endloop
  endfacet
  facet normal 1 0 0
    outer loop
      vertex 25 -8.15 23.2
      vertex 25 25 -5
      vertex 25 8.15 23.2
    endloop
  endfacet
  facet normal 1 0 0
    outer loop
      vertex 25 -25 -5
      vertex 25 -8.15 23.2
      vertex 25 -25 25
    endloop
  endfacet
  facet normal 1 0 0
    outer loop
      vertex 25 -8.15 23.2
      vertex 25 -25 -5
      vertex 25 25 -5
    endloop
  endfacet
  facet normal 0 -1 0
    outer loop
      vertex -25 -25 25
      vertex -8.15 -25 23.2
      vertex -8.15 -25 25
    endloop
  endfacet
  facet normal 0 -1 -0
    outer loop
      vertex -8.15 -25 23.2
      vertex -25 -25 -5
      vertex 8.15 -25 23.2
    endloop
  endfacet
  facet normal 0 -1 0
    outer loop
      vertex -25 -25 -5
      vertex -8.15 -25 23.2
      vertex -25 -25 25
    endloop
  endfacet
  facet normal 0 -1 0
    outer loop
      vertex 8.15 -25 23.2
      vertex 25 -25 25
      vertex 8.15 -25 25
    endloop
  endfacet
  facet normal 0 -1 0
    outer loop
      vertex 25 -25 -5
      vertex 8.15 -25 23.2
      vertex -25 -25 -5
    endloop
  endfacet
  facet normal 0 -1 0
    outer loop
      vertex 8.15 -25 23.2
      vertex 25 -25 -5
      vertex 25 -25 25
    endloop
  endfacet
  facet normal 0 0 1
    outer loop
      vertex -24 -8.15 25
      vertex -25 -8.15 25
      vertex -24 -24 25
    endloop
  endfacet
  facet normal -0 0 1
    outer loop
      vertex -24 -24 25
      vertex -8.15 -25 25
      vertex -8.15 -24 25
    endloop
  endfacet
  facet normal 0 0 1
    outer loop
      vertex -24 -24 25
      vertex -25 -25 25
      vertex -8.15 -25 25
    endloop
  endfacet
  facet normal 0 0 1
    outer loop
      vertex -25 -25 25
      vertex -24 -24 25
      vertex -25 -8.15 25
    endloop
  endfacet
  facet normal 0 0 1
    outer loop
      vertex -8.15 25 25
      vertex -24 24 25
      vertex -8.15 24 25
    endloop
  endfacet
  facet normal -0 0 1
    outer loop
      vertex -25 25 25
      vertex -24 24 25
      vertex -8.15 25 25
    endloop
  endfacet
  facet normal 0 0 1
    outer loop
      vertex -25 8.15 25
      vertex -24 24 25
      vertex -25 25 25
    endloop
  endfacet
  facet normal 0 0 1
    outer loop
      vertex -24 24 25
      vertex -25 8.15 25
      vertex -24 8.15 25
    endloop
  endfacet
  facet normal 0 0 1
    outer loop
      vertex 25 25 25
      vertex 24 24 25
      vertex 25 8.15 25
    endloop
  endfacet
  facet normal -0 0 1
    outer loop
      vertex 8.15 25 25
      vertex 24 24 25
      vertex 25 25 25
    endloop
  endfacet
  facet normal 0 0 1
    outer loop
      vertex 24 24 25
      vertex 8.15 25 25
      vertex 8.15 24 25
    endloop
  endfacet
  facet normal 0 0 1
    outer loop
      vertex 25 8.15 25
      vertex 24 24 25
      vertex 24 8.15 25
    endloop
  endfacet
  facet normal 0 0 1
    outer loop
      vertex 24 -24 25
      vertex 25 -8.15 25
      vertex 24 -8.15 25
    endloop
  endfacet
  facet normal 0 0 1
    outer loop
      vertex 25 -8.15 25
      vertex 24 -24 25
      vertex 25 -25 25
    endloop
  endfacet
  facet normal 0 0 1
    outer loop
      vertex 8.15 -25 25
      vertex 24 -24 25
      vertex 8.15 -24 25
    endloop
  endfacet
  facet normal 0 0 1
    outer loop
      vertex 24 -24 25
      vertex 8.15 -25 25
      vertex 25 -25 25
    endloop
  endfacet
  facet normal 0 1 0
    outer loop
      vertex 25 25 25
      vertex 8.15 25 23.2
      vertex 8.15 25 25
    endloop
  endfacet
  facet normal 0 1 0
    outer loop
      vertex 8.15 25 23.2
      vertex 25 25 -5
      vertex -8.15 25 23.2
    endloop
  endfacet
  facet normal 0 1 -0
    outer loop
      vertex 25 25 -5
      vertex 8.15 25 23.2
      vertex 25 25 25
    endloop
  endfacet
  facet normal 0 1 -0
    outer loop
      vertex -8.15 25 23.2
      vertex -25 25 25
      vertex -8.15 25 25
    endloop
  endfacet
  facet normal 0 1 0
    outer loop
      vertex -25 25 -5
      vertex -8.15 25 23.2
      vertex 25 25 -5
    endloop
  endfacet
  facet normal 0 1 0
    outer loop
      vertex -8.15 25 23.2
      vertex -25 25 -5
      vertex -25 25 25
    endloop
  endfacet
  facet normal 1 0 0
    outer loop
      vertex -24 -8.15 25
      vertex -24 -24 25
      vertex -24 -8.15 23.2
    endloop
  endfacet
  facet normal 1 0 0
    outer loop
      vertex -24 8.15 23.2
      vertex -24 24 25
      vertex -24 8.15 25
    endloop
  endfacet
  facet normal 1 0 0
    outer loop
      vertex -24 24 25
      vertex -24 8.15 23.2
      vertex -24 24 -2.93915e-15
    endloop
  endfacet
  facet normal 1 0 0
    outer loop
      vertex -24 -8.15 23.2
      vertex -24 24 -2.93915e-15
      vertex -24 8.15 23.2
    endloop
  endfacet
  facet normal 1 0 0
    outer loop
      vertex -24 -24 2.93915e-15
      vertex -24 -8.15 23.2
      vertex -24 -24 25
    endloop
  endfacet
  facet normal 1 0 0
    outer loop
      vertex -24 -8.15 23.2
      vertex -24 -24 2.93915e-15
      vertex -24 24 -2.93915e-15
    endloop
  endfacet
  facet normal -1 0 0
    outer loop
      vertex 24 24 -2.93915e-15
      vertex 24 8.15 23.2
      vertex 24 24 25
    endloop
  endfacet
  facet normal -1 0 0
    outer loop
      vertex 24 24 -2.93915e-15
      vertex 24 -8.15 23.2
      vertex 24 8.15 23.2
    endloop
  endfacet
  facet normal -1 0 0
    outer loop
      vertex 24 -24 2.93915e-15
      vertex 24 -8.15 23.2
      vertex 24 24 -2.93915e-15
    endloop
  endfacet
  facet normal -1 0 0
    outer loop
      vertex 24 -24 25
      vertex 24 -8.15 23.2
      vertex 24 -24 2.93915e-15
    endloop
  endfacet
  facet normal -1 0 0
    outer loop
      vertex 24 -8.15 23.2
      vertex 24 -24 25
      vertex 24 -8.15 25
    endloop
  endfacet
  facet normal -1 -0 0
    outer loop
      vertex 24 24 25
      vertex 24 8.15 23.2
      vertex 24 8.15 25
    endloop
  endfacet
  facet normal 0 1 0
    outer loop
      vertex 24 -24 25
      vertex 8.15 -24 23.2
      vertex 8.15 -24 25
    endloop
  endfacet
  facet normal 0 1 0
    outer loop
      vertex 8.15 -24 23.2
      vertex 24 -24 2.93915e-15
      vertex -8.15 -24 23.2
    endloop
  endfacet
  facet normal 0 1 -0
    outer loop
      vertex 24 -24 2.93915e-15
      vertex 8.15 -24 23.2
      vertex 24 -24 25
    endloop
  endfacet
  facet normal 0 1 -0
    outer loop
      vertex -8.15 -24 23.2
      vertex -24 -24 25
      vertex -8.15 -24 25
    endloop
  endfacet
  facet normal 0 1 0
    outer loop
      vertex -24 -24 2.93915e-15
      vertex -8.15 -24 23.2
      vertex 24 -24 2.93915e-15
    endloop
  endfacet
  facet normal 0 1 0
    outer loop
      vertex -8.15 -24 23.2
      vertex -24 -24 2.93915e-15
      vertex -24 -24 25
    endloop
  endfacet
  facet normal 0 -1 0
    outer loop
      vertex -24 24 25
      vertex -8.15 24 23.2
      vertex -8.15 24 25
    endloop
  endfacet
  facet normal 0 -1 -0
    outer loop
      vertex -8.15 24 23.2
      vertex -24 24 -2.93915e-15
      vertex 8.15 24 23.2
    endloop
  endfacet
  facet normal 0 -1 0
    outer loop
      vertex -24 24 -2.93915e-15
      vertex -8.15 24 23.2
      vertex -24 24 25
    endloop
  endfacet
  facet normal 0 -1 0
    outer loop
      vertex 8.15 24 23.2
      vertex 24 24 25
      vertex 8.15 24 25
    endloop
  endfacet
  facet normal 0 -1 0
    outer loop
      vertex 24 24 -2.93915e-15
      vertex 8.15 24 23.2
      vertex -24 24 -2.93915e-15
    endloop
  endfacet
  facet normal 0 -1 0
    outer loop
      vertex 8.15 24 23.2
      vertex 24 24 -2.93915e-15
      vertex 24 24 25
    endloop
  endfacet
  facet normal 0 0 -1
    outer loop
      vertex 8.88022 -5.34438 -5
      vertex 25 -25 -5
      vertex 8.90327 -5.79375 -5
    endloop
  endfacet
  facet normal 0 0 -1
    outer loop
      vertex 25 -25 -5
      vertex 8.87994 -6.25052 -5
      vertex 8.90327 -5.79375 -5
    endloop
  endfacet
  facet normal 0 0 -1
    outer loop
      vertex 25 -25 -5
      vertex 8.81946 -6.63448 -5
      vertex 8.87994 -6.25052 -5
    endloop
  endfacet
  facet normal 0 0 -1
    outer loop
      vertex 25 -25 -5
      vertex 8.81004 -6.68382 -5
      vertex 8.81946 -6.63448 -5
    endloop
  endfacet
  facet normal 0 0 -1
    outer loop
      vertex 25 -25 -5
      vertex 8.70923 -7.04509 -5
      vertex 8.81004 -6.68382 -5
    endloop
  endfacet
  facet normal 0 0 -1
    outer loop
      vertex 25 -25 -5
      vertex 8.69371 -7.09286 -5
      vertex 8.70923 -7.04509 -5
    endloop
  endfacet
  facet normal 0 0 -1
    outer loop
      vertex 25 -25 -5
      vertex 8.55257 -7.43144 -5
      vertex 8.69371 -7.09286 -5
    endloop
  endfacet
  facet normal 0 0 -1
    outer loop
      vertex 25 -25 -5
      vertex 8.53117 -7.47688 -5
      vertex 8.55257 -7.43144 -5
    endloop
  endfacet
  facet normal 0 0 -1
    outer loop
      vertex 25 -25 -5
      vertex 8.3497 -7.79276 -5
      vertex 8.53117 -7.47688 -5
    endloop
  endfacet
  facet normal 0 0 -1
    outer loop
      vertex 25 -25 -5
      vertex 8.32278 -7.83517 -5
      vertex 8.3497 -7.79276 -5
    endloop
  endfacet
  facet normal 0 0 -1
    outer loop
      vertex 25 -25 -5
      vertex 8.101 -8.12836 -5
      vertex 8.32278 -7.83517 -5
    endloop
  endfacet
  facet normal 0 0 -1
    outer loop
      vertex 25 -25 -5
      vertex 8.06898 -8.16705 -5
      vertex 8.101 -8.12836 -5
    endloop
  endfacet
  facet normal 0 0 -1
    outer loop
      vertex 25 -25 -5
      vertex 7.80685 -8.43755 -5
      vertex 8.06898 -8.16705 -5
    endloop
  endfacet
  facet normal 0 0 -1
    outer loop
      vertex 25 -25 -5
      vertex 7.77023 -8.47194 -5
      vertex 7.80685 -8.43755 -5
    endloop
  endfacet
  facet normal 0 0 -1
    outer loop
      vertex 25 -25 -5
      vertex 7.46724 -8.71284 -5
      vertex 7.77023 -8.47194 -5
    endloop
  endfacet
  facet normal 0 0 -1
    outer loop
      vertex 25 -25 -5
      vertex 7.42661 -8.74237 -5
      vertex 7.46724 -8.71284 -5
    endloop
  endfacet
  facet normal 0 0 -1
    outer loop
      vertex 25 -25 -5
      vertex 7.08217 -8.9462 -5
      vertex 7.42661 -8.74237 -5
    endloop
  endfacet
  facet normal 0 0 -1
    outer loop
      vertex 25 -25 -5
      vertex 7.03815 -8.9704 -5
      vertex 7.08217 -8.9462 -5
    endloop
  endfacet
  facet normal 0 0 -1
    outer loop
      vertex 25 -25 -5
      vertex 6.6523 -9.13718 -5
      vertex 7.03815 -8.9704 -5
    endloop
  endfacet
  facet normal 0 0 -1
    outer loop
      vertex 25 -25 -5
      vertex 6.60559 -9.15567 -5
      vertex 6.6523 -9.13718 -5
    endloop
  endfacet
  facet normal 0 0 -1
    outer loop
      vertex 25 -25 -5
      vertex 6.1783 -9.28539 -5
      vertex 6.60559 -9.15567 -5
    endloop
  endfacet
  facet normal 0 0 -1
    outer loop
      vertex 25 -25 -5
      vertex 6.12965 -9.29788 -5
      vertex 6.1783 -9.28539 -5
    endloop
  endfacet
  facet normal 0 0 -1
    outer loop
      vertex 25 -25 -5
      vertex 5.66095 -9.39053 -5
      vertex 6.12965 -9.29788 -5
    endloop
  endfacet
  facet normal 0 0 -1
    outer loop
      vertex 25 -25 -5
      vertex 5.10097 -9.45241 -5
      vertex 5.66095 -9.39053 -5
    endloop
  endfacet
  facet normal 0 0 -1
    outer loop
      vertex 25 -25 -5
      vertex 4.54939 -9.47095 -5
      vertex 5.10097 -9.45241 -5
    endloop
  endfacet
  facet normal 0 0 -1
    outer loop
      vertex 25 -25 -5
      vertex -4.05482 -9.47095 -5
      vertex 4.54939 -9.47095 -5
    endloop
  endfacet
  facet normal 0 0 -1
    outer loop
      vertex -25 -25 -5
      vertex -4.05482 -9.47095 -5
      vertex 25 -25 -5
    endloop
  endfacet
  facet normal -0 0 -1
    outer loop
      vertex -4.05482 -9.47095 -5
      vertex -25 -25 -5
      vertex -4.6064 -9.45241 -5
    endloop
  endfacet
  facet normal -0 0 -1
    outer loop
      vertex -4.6064 -9.45241 -5
      vertex -25 -25 -5
      vertex -5.16637 -9.39053 -5
    endloop
  endfacet
  facet normal -0 0 -1
    outer loop
      vertex -5.16637 -9.39053 -5
      vertex -25 -25 -5
      vertex -5.63509 -9.29788 -5
    endloop
  endfacet
  facet normal -0 0 -1
    outer loop
      vertex -5.63509 -9.29788 -5
      vertex -25 -25 -5
      vertex -5.68373 -9.28539 -5
    endloop
  endfacet
  facet normal -0 0 -1
    outer loop
      vertex -5.68373 -9.28539 -5
      vertex -25 -25 -5
      vertex -6.11102 -9.15567 -5
    endloop
  endfacet
  facet normal -0 0 -1
    outer loop
      vertex -6.11102 -9.15567 -5
      vertex -25 -25 -5
      vertex -6.15773 -9.13718 -5
    endloop
  endfacet
  facet normal -0 0 -1
    outer loop
      vertex -8.38538 -6.25052 -5
      vertex -25 -25 -5
      vertex -8.40871 -5.79375 -5
    endloop
  endfacet
  facet normal -0 0 -1
    outer loop
      vertex -8.32489 -6.63448 -5
      vertex -25 -25 -5
      vertex -8.38538 -6.25052 -5
    endloop
  endfacet
  facet normal -0 0 -1
    outer loop
      vertex -8.31548 -6.68382 -5
      vertex -25 -25 -5
      vertex -8.32489 -6.63448 -5
    endloop
  endfacet
  facet normal -0 0 -1
    outer loop
      vertex -8.21466 -7.04509 -5
      vertex -25 -25 -5
      vertex -8.31548 -6.68382 -5
    endloop
  endfacet
  facet normal -0 0 -1
    outer loop
      vertex -8.19914 -7.09286 -5
      vertex -25 -25 -5
      vertex -8.21466 -7.04509 -5
    endloop
  endfacet
  facet normal -0 0 -1
    outer loop
      vertex -8.058 -7.43144 -5
      vertex -25 -25 -5
      vertex -8.19914 -7.09286 -5
    endloop
  endfacet
  facet normal -0 0 -1
    outer loop
      vertex -8.03661 -7.47688 -5
      vertex -25 -25 -5
      vertex -8.058 -7.43144 -5
    endloop
  endfacet
  facet normal -0 0 -1
    outer loop
      vertex -7.85513 -7.79276 -5
      vertex -25 -25 -5
      vertex -8.03661 -7.47688 -5
    endloop
  endfacet
  facet normal -0 0 -1
    outer loop
      vertex -7.82822 -7.83517 -5
      vertex -25 -25 -5
      vertex -7.85513 -7.79276 -5
    endloop
  endfacet
  facet normal -0 0 -1
    outer loop
      vertex -7.60643 -8.12836 -5
      vertex -25 -25 -5
      vertex -7.82822 -7.83517 -5
    endloop
  endfacet
  facet normal -0 0 -1
    outer loop
      vertex -7.57442 -8.16705 -5
      vertex -25 -25 -5
      vertex -7.60643 -8.12836 -5
    endloop
  endfacet
  facet normal -0 0 -1
    outer loop
      vertex -7.31229 -8.43755 -5
      vertex -25 -25 -5
      vertex -7.57442 -8.16705 -5
    endloop
  endfacet
  facet normal -0 0 -1
    outer loop
      vertex -7.27567 -8.47194 -5
      vertex -25 -25 -5
      vertex -7.31229 -8.43755 -5
    endloop
  endfacet
  facet normal -0 0 -1
    outer loop
      vertex -6.97267 -8.71284 -5
      vertex -25 -25 -5
      vertex -7.27567 -8.47194 -5
    endloop
  endfacet
  facet normal -0 0 -1
    outer loop
      vertex -6.93204 -8.74237 -5
      vertex -25 -25 -5
      vertex -6.97267 -8.71284 -5
    endloop
  endfacet
  facet normal -0 0 -1
    outer loop
      vertex -6.5876 -8.9462 -5
      vertex -25 -25 -5
      vertex -6.93204 -8.74237 -5
    endloop
  endfacet
  facet normal -0 0 -1
    outer loop
      vertex -6.54358 -8.9704 -5
      vertex -25 -25 -5
      vertex -6.5876 -8.9462 -5
    endloop
  endfacet
  facet normal -0 0 -1
    outer loop
      vertex -6.15773 -9.13718 -5
      vertex -25 -25 -5
      vertex -6.54358 -8.9704 -5
    endloop
  endfacet
  facet normal 0 0 -1
    outer loop
      vertex 8.82053 -4.96664 -5
      vertex 25 -25 -5
      vertex 8.88022 -5.34438 -5
    endloop
  endfacet
  facet normal 0 0 -1
    outer loop
      vertex 25 -25 -5
      vertex 8.82053 -4.96664 -5
      vertex 25 25 -5
    endloop
  endfacet
  facet normal 0 0 -1
    outer loop
      vertex 8.81111 -4.9173 -5
      vertex 25 25 -5
      vertex 8.82053 -4.96664 -5
    endloop
  endfacet
  facet normal 0 0 -1
    outer loop
      vertex 8.71162 -4.56107 -5
      vertex 25 25 -5
      vertex 8.81111 -4.9173 -5
    endloop
  endfacet
  facet normal 0 0 -1
    outer loop
      vertex 8.69611 -4.51329 -5
      vertex 25 25 -5
      vertex 8.71162 -4.56107 -5
    endloop
  endfacet
  facet normal 0 0 -1
    outer loop
      vertex 8.55681 -4.17857 -5
      vertex 25 25 -5
      vertex 8.69611 -4.51329 -5
    endloop
  endfacet
  facet normal 0 0 -1
    outer loop
      vertex 8.53542 -4.13313 -5
      vertex 25 25 -5
      vertex 8.55681 -4.17857 -5
    endloop
  endfacet
  facet normal 0 0 -1
    outer loop
      vertex 8.35634 -3.81993 -5
      vertex 25 25 -5
      vertex 8.53542 -4.13313 -5
    endloop
  endfacet
  facet normal 0 0 -1
    outer loop
      vertex 8.32942 -3.77751 -5
      vertex 25 25 -5
      vertex 8.35634 -3.81993 -5
    endloop
  endfacet
  facet normal 0 0 -1
    outer loop
      vertex 8.11055 -3.48582 -5
      vertex 25 25 -5
      vertex 8.32942 -3.77751 -5
    endloop
  endfacet
  facet normal 0 0 -1
    outer loop
      vertex 8.07854 -3.44713 -5
      vertex 25 25 -5
      vertex 8.11055 -3.48582 -5
    endloop
  endfacet
  facet normal 0 0 -1
    outer loop
      vertex 7.81985 -3.17694 -5
      vertex 25 25 -5
      vertex 8.07854 -3.44713 -5
    endloop
  endfacet
  facet normal 0 0 -1
    outer loop
      vertex 7.78323 -3.14255 -5
      vertex 25 25 -5
      vertex 7.81985 -3.17694 -5
    endloop
  endfacet
  facet normal 0 0 -1
    outer loop
      vertex 7.4834 -2.90192 -5
      vertex 25 25 -5
      vertex 7.78323 -3.14255 -5
    endloop
  endfacet
  facet normal 0 0 -1
    outer loop
      vertex 7.44276 -2.87239 -5
      vertex 25 25 -5
      vertex 7.4834 -2.90192 -5
    endloop
  endfacet
  facet normal 0 0 -1
    outer loop
      vertex 7.09982 -2.66878 -5
      vertex 25 25 -5
      vertex 7.44276 -2.87239 -5
    endloop
  endfacet
  facet normal 0 0 -1
    outer loop
      vertex 7.0558 -2.64458 -5
      vertex 25 25 -5
      vertex 7.09982 -2.66878 -5
    endloop
  endfacet
  facet normal 0 0 -1
    outer loop
      vertex 6.66977 -2.47798 -5
      vertex 25 25 -5
      vertex 7.0558 -2.64458 -5
    endloop
  endfacet
  facet normal 0 0 -1
    outer loop
      vertex 6.62306 -2.45949 -5
      vertex 25 25 -5
      vertex 6.66977 -2.47798 -5
    endloop
  endfacet
  facet normal 0 0 -1
    outer loop
      vertex 6.19391 -2.32991 -5
      vertex 25 25 -5
      vertex 6.62306 -2.45949 -5
    endloop
  endfacet
  facet normal 0 0 -1
    outer loop
      vertex 6.14526 -2.31741 -5
      vertex 25 25 -5
      vertex 6.19391 -2.32991 -5
    endloop
  endfacet
  facet normal 0 0 -1
    outer loop
      vertex 5.67302 -2.22487 -5
      vertex 25 25 -5
      vertex 6.14526 -2.31741 -5
    endloop
  endfacet
  facet normal 0 0 -1
    outer loop
      vertex 5.10785 -2.16306 -5
      vertex 25 25 -5
      vertex 5.67302 -2.22487 -5
    endloop
  endfacet
  facet normal 0 0 -1
    outer loop
      vertex 4.54939 -2.14455 -5
      vertex 25 25 -5
      vertex 5.10785 -2.16306 -5
    endloop
  endfacet
  facet normal 0 0 -1
    outer loop
      vertex -4.05482 -2.14455 -5
      vertex 25 25 -5
      vertex 4.54939 -2.14455 -5
    endloop
  endfacet
  facet normal 0 0 -1
    outer loop
      vertex -25 25 -5
      vertex -4.05482 -2.14455 -5
      vertex -4.59262 -2.16306 -5
    endloop
  endfacet
  facet normal 0 0 -1
    outer loop
      vertex -25 25 -5
      vertex -4.59262 -2.16306 -5
      vertex -5.14212 -2.22487 -5
    endloop
  endfacet
  facet normal 0 0 -1
    outer loop
      vertex -25 25 -5
      vertex -5.14212 -2.22487 -5
      vertex -5.60368 -2.31741 -5
    endloop
  endfacet
  facet normal 0 0 -1
    outer loop
      vertex -25 25 -5
      vertex -5.60368 -2.31741 -5
      vertex -5.65233 -2.32991 -5
    endloop
  endfacet
  facet normal 0 0 -1
    outer loop
      vertex -25 25 -5
      vertex -5.65233 -2.32991 -5
      vertex -6.07576 -2.45949 -5
    endloop
  endfacet
  facet normal 0 0 -1
    outer loop
      vertex -25 25 -5
      vertex -6.07576 -2.45949 -5
      vertex -6.12247 -2.47798 -5
    endloop
  endfacet
  facet normal 0 0 -1
    outer loop
      vertex -25 25 -5
      vertex -6.12247 -2.47798 -5
      vertex -6.50777 -2.64458 -5
    endloop
  endfacet
  facet normal 0 0 -1
    outer loop
      vertex -25 25 -5
      vertex -6.50777 -2.64458 -5
      vertex -6.55179 -2.66878 -5
    endloop
  endfacet
  facet normal 0 0 -1
    outer loop
      vertex -25 25 -5
      vertex -6.55179 -2.66878 -5
      vertex -6.89897 -2.87239 -5
    endloop
  endfacet
  facet normal 0 0 -1
    outer loop
      vertex -25 25 -5
      vertex -6.89897 -2.87239 -5
      vertex -6.93961 -2.90192 -5
    endloop
  endfacet
  facet normal 0 0 -1
    outer loop
      vertex -25 25 -5
      vertex -6.93961 -2.90192 -5
      vertex -7.24867 -3.14255 -5
    endloop
  endfacet
  facet normal 0 0 -1
    outer loop
      vertex -25 -25 -5
      vertex -8.38483 -5.34438 -5
      vertex -8.40871 -5.79375 -5
    endloop
  endfacet
  facet normal 0 0 -1
    outer loop
      vertex -25 -25 -5
      vertex -8.32269 -4.96664 -5
      vertex -8.38483 -5.34438 -5
    endloop
  endfacet
  facet normal 0 0 -1
    outer loop
      vertex -25 -25 -5
      vertex -8.31328 -4.9173 -5
      vertex -8.32269 -4.96664 -5
    endloop
  endfacet
  facet normal 0 0 -1
    outer loop
      vertex -25 25 -5
      vertex -8.31328 -4.9173 -5
      vertex -25 -25 -5
    endloop
  endfacet
  facet normal 0 0 -1
    outer loop
      vertex -8.31328 -4.9173 -5
      vertex -25 25 -5
      vertex -8.2097 -4.56107 -5
    endloop
  endfacet
  facet normal 0 0 -1
    outer loop
      vertex -8.2097 -4.56107 -5
      vertex -25 25 -5
      vertex -8.19418 -4.51329 -5
    endloop
  endfacet
  facet normal 0 0 -1
    outer loop
      vertex -8.19418 -4.51329 -5
      vertex -25 25 -5
      vertex -8.04918 -4.17857 -5
    endloop
  endfacet
  facet normal 0 0 -1
    outer loop
      vertex -8.04918 -4.17857 -5
      vertex -25 25 -5
      vertex -8.02779 -4.13313 -5
    endloop
  endfacet
  facet normal 0 0 -1
    outer loop
      vertex -8.02779 -4.13313 -5
      vertex -25 25 -5
      vertex -7.84135 -3.81993 -5
    endloop
  endfacet
  facet normal 0 0 -1
    outer loop
      vertex -7.84135 -3.81993 -5
      vertex -25 25 -5
      vertex -7.81444 -3.77751 -5
    endloop
  endfacet
  facet normal 0 0 -1
    outer loop
      vertex -4.05482 -2.14455 -5
      vertex -25 25 -5
      vertex 25 25 -5
    endloop
  endfacet
  facet normal 0 0 -1
    outer loop
      vertex -7.28529 -3.17694 -5
      vertex -25 25 -5
      vertex -7.24867 -3.14255 -5
    endloop
  endfacet
  facet normal 0 0 -1
    outer loop
      vertex -7.55458 -3.44713 -5
      vertex -25 25 -5
      vertex -7.28529 -3.17694 -5
    endloop
  endfacet
  facet normal 0 0 -1
    outer loop
      vertex -7.58659 -3.48582 -5
      vertex -25 25 -5
      vertex -7.55458 -3.44713 -5
    endloop
  endfacet
  facet normal 0 0 -1
    outer loop
      vertex -7.81444 -3.77751 -5
      vertex -25 25 -5
      vertex -7.58659 -3.48582 -5
    endloop
  endfacet
  facet normal 0.0343959 -0.999408 0
    outer loop
      vertex -4.59262 -2.16306 -5
      vertex -4.05482 -2.14455 2.62631e-16
      vertex -4.59262 -2.16306 2.64898e-16
    endloop
  endfacet
  facet normal 0.0343959 -0.999408 0
    outer loop
      vertex -4.05482 -2.14455 2.62631e-16
      vertex -4.59262 -2.16306 -5
      vertex -4.05482 -2.14455 -5
    endloop
  endfacet
  facet normal 0.111785 -0.993732 0
    outer loop
      vertex -5.14212 -2.22487 -5
      vertex -4.59262 -2.16306 2.64898e-16
      vertex -5.14212 -2.22487 2.72468e-16
    endloop
  endfacet
  facet normal 0.111785 -0.993732 0
    outer loop
      vertex -4.59262 -2.16306 2.64898e-16
      vertex -5.14212 -2.22487 -5
      vertex -4.59262 -2.16306 -5
    endloop
  endfacet
  facet normal 0.19659 -0.980486 0
    outer loop
      vertex -5.60368 -2.31741 -5
      vertex -5.14212 -2.22487 2.72468e-16
      vertex -5.60368 -2.31741 2.83801e-16
    endloop
  endfacet
  facet normal 0.19659 -0.980486 0
    outer loop
      vertex -5.14212 -2.22487 2.72468e-16
      vertex -5.60368 -2.31741 -5
      vertex -5.14212 -2.22487 -5
    endloop
  endfacet
  facet normal 0.248821 -0.968549 0
    outer loop
      vertex -5.65233 -2.32991 -5
      vertex -5.60368 -2.31741 2.83801e-16
      vertex -5.65233 -2.32991 2.85332e-16
    endloop
  endfacet
  facet normal 0.248821 -0.968549 0
    outer loop
      vertex -5.60368 -2.31741 2.83801e-16
      vertex -5.65233 -2.32991 -5
      vertex -5.60368 -2.31741 -5
    endloop
  endfacet
  facet normal 0.292623 -0.956228 0
    outer loop
      vertex -6.07576 -2.45949 -5
      vertex -5.65233 -2.32991 2.85332e-16
      vertex -6.07576 -2.45949 3.012e-16
    endloop
  endfacet
  facet normal 0.292623 -0.956228 0
    outer loop
      vertex -5.65233 -2.32991 2.85332e-16
      vertex -6.07576 -2.45949 -5
      vertex -5.65233 -2.32991 -5
    endloop
  endfacet
  facet normal 0.368141 -0.92977 0
    outer loop
      vertex -6.12247 -2.47798 -5
      vertex -6.07576 -2.45949 3.012e-16
      vertex -6.12247 -2.47798 3.03465e-16
    endloop
  endfacet
  facet normal 0.368141 -0.92977 0
    outer loop
      vertex -6.07576 -2.45949 3.012e-16
      vertex -6.12247 -2.47798 -5
      vertex -6.07576 -2.45949 -5
    endloop
  endfacet
  facet normal 0.39687 -0.917875 0
    outer loop
      vertex -6.50777 -2.64458 -5
      vertex -6.12247 -2.47798 3.03465e-16
      vertex -6.50777 -2.64458 3.23867e-16
    endloop
  endfacet
  facet normal 0.39687 -0.917875 0
    outer loop
      vertex -6.12247 -2.47798 3.03465e-16
      vertex -6.50777 -2.64458 -5
      vertex -6.12247 -2.47798 -5
    endloop
  endfacet
  facet normal 0.481744 -0.876312 0
    outer loop
      vertex -6.55179 -2.66878 -5
      vertex -6.50777 -2.64458 3.23867e-16
      vertex -6.55179 -2.66878 3.26831e-16
    endloop
  endfacet
  facet normal 0.481744 -0.876312 0
    outer loop
      vertex -6.50777 -2.64458 3.23867e-16
      vertex -6.55179 -2.66878 -5
      vertex -6.50777 -2.64458 -5
    endloop
  endfacet
  facet normal 0.50589 -0.862598 0
    outer loop
      vertex -6.89897 -2.87239 -5
      vertex -6.55179 -2.66878 3.26831e-16
      vertex -6.89897 -2.87239 3.51766e-16
    endloop
  endfacet
  facet normal 0.50589 -0.862598 0
    outer loop
      vertex -6.55179 -2.66878 3.26831e-16
      vertex -6.89897 -2.87239 -5
      vertex -6.55179 -2.66878 -5
    endloop
  endfacet
  facet normal 0.587828 -0.808986 0
    outer loop
      vertex -6.93961 -2.90192 -5
      vertex -6.89897 -2.87239 3.51766e-16
      vertex -6.93961 -2.90192 3.55382e-16
    endloop
  endfacet
  facet normal 0.587828 -0.808986 0
    outer loop
      vertex -6.89897 -2.87239 3.51766e-16
      vertex -6.93961 -2.90192 -5
      vertex -6.89897 -2.87239 -5
    endloop
  endfacet
  facet normal 0.614332 -0.789048 0
    outer loop
      vertex -7.24867 -3.14255 -5
      vertex -6.93961 -2.90192 3.55382e-16
      vertex -7.24867 -3.14255 3.84851e-16
    endloop
  endfacet
  facet normal 0.614332 -0.789048 0
    outer loop
      vertex -6.93961 -2.90192 3.55382e-16
      vertex -7.24867 -3.14255 -5
      vertex -6.93961 -2.90192 -5
    endloop
  endfacet
  facet normal 0.684587 -0.728931 0
    outer loop
      vertex -7.28529 -3.17694 -5
      vertex -7.24867 -3.14255 3.84851e-16
      vertex -7.28529 -3.17694 3.89063e-16
    endloop
  endfacet
  facet normal 0.684587 -0.728931 0
    outer loop
      vertex -7.24867 -3.14255 3.84851e-16
      vertex -7.28529 -3.17694 -5
      vertex -7.24867 -3.14255 -5
    endloop
  endfacet
  facet normal 0.708286 -0.705926 0
    outer loop
      vertex -7.55458 -3.44713 4.22151e-16
      vertex -7.28529 -3.17694 -5
      vertex -7.28529 -3.17694 3.89063e-16
    endloop
  endfacet
  facet normal 0.708286 -0.705926 0
    outer loop
      vertex -7.28529 -3.17694 -5
      vertex -7.55458 -3.44713 4.22151e-16
      vertex -7.55458 -3.44713 -5
    endloop
  endfacet
  facet normal 0.770508 -0.637431 0
    outer loop
      vertex -7.58659 -3.48582 4.2689e-16
      vertex -7.55458 -3.44713 -5
      vertex -7.55458 -3.44713 4.22151e-16
    endloop
  endfacet
  facet normal 0.770508 -0.637431 0
    outer loop
      vertex -7.55458 -3.44713 -5
      vertex -7.58659 -3.48582 4.2689e-16
      vertex -7.58659 -3.48582 -5
    endloop
  endfacet
  facet normal 0.788072 -0.615583 0
    outer loop
      vertex -7.81444 -3.77751 4.62612e-16
      vertex -7.58659 -3.48582 -5
      vertex -7.58659 -3.48582 4.2689e-16
    endloop
  endfacet
  facet normal 0.788072 -0.615583 0
    outer loop
      vertex -7.58659 -3.48582 -5
      vertex -7.81444 -3.77751 4.62612e-16
      vertex -7.81444 -3.77751 -5
    endloop
  endfacet
  facet normal 0.844361 -0.535774 0
    outer loop
      vertex -7.84135 -3.81993 4.67807e-16
      vertex -7.81444 -3.77751 -5
      vertex -7.81444 -3.77751 4.62612e-16
    endloop
  endfacet
  facet normal 0.844361 -0.535774 0
    outer loop
      vertex -7.81444 -3.77751 -5
      vertex -7.84135 -3.81993 4.67807e-16
      vertex -7.84135 -3.81993 -5
    endloop
  endfacet
  facet normal 0.85929 -0.511488 0
    outer loop
      vertex -8.02779 -4.13313 5.06163e-16
      vertex -7.84135 -3.81993 -5
      vertex -7.84135 -3.81993 4.67807e-16
    endloop
  endfacet
  facet normal 0.85929 -0.511488 0
    outer loop
      vertex -7.84135 -3.81993 -5
      vertex -8.02779 -4.13313 5.06163e-16
      vertex -8.02779 -4.13313 -5
    endloop
  endfacet
  facet normal 0.90475 -0.425943 0
    outer loop
      vertex -8.04918 -4.17857 5.11728e-16
      vertex -8.02779 -4.13313 -5
      vertex -8.02779 -4.13313 5.06163e-16
    endloop
  endfacet
  facet normal 0.90475 -0.425943 0
    outer loop
      vertex -8.02779 -4.13313 -5
      vertex -8.04918 -4.17857 5.11728e-16
      vertex -8.04918 -4.17857 -5
    endloop
  endfacet
  facet normal 0.917595 -0.397516 0
    outer loop
      vertex -8.19418 -4.51329 5.52719e-16
      vertex -8.04918 -4.17857 -5
      vertex -8.04918 -4.17857 5.11728e-16
    endloop
  endfacet
  facet normal 0.917595 -0.397516 0
    outer loop
      vertex -8.04918 -4.17857 -5
      vertex -8.19418 -4.51329 5.52719e-16
      vertex -8.19418 -4.51329 -5
    endloop
  endfacet
  facet normal 0.951085 -0.308928 0
    outer loop
      vertex -8.2097 -4.56107 5.58569e-16
      vertex -8.19418 -4.51329 -5
      vertex -8.19418 -4.51329 5.52719e-16
    endloop
  endfacet
  facet normal 0.951085 -0.308928 0
    outer loop
      vertex -8.19418 -4.51329 -5
      vertex -8.2097 -4.56107 5.58569e-16
      vertex -8.2097 -4.56107 -5
    endloop
  endfacet
  facet normal 0.960235 -0.279194 0
    outer loop
      vertex -8.31328 -4.9173 6.02195e-16
      vertex -8.2097 -4.56107 -5
      vertex -8.2097 -4.56107 5.58569e-16
    endloop
  endfacet
  facet normal 0.960235 -0.279194 0
    outer loop
      vertex -8.2097 -4.56107 -5
      vertex -8.31328 -4.9173 6.02195e-16
      vertex -8.31328 -4.9173 -5
    endloop
  endfacet
  facet normal 0.982283 -0.187405 0
    outer loop
      vertex -8.32269 -4.96664 6.08238e-16
      vertex -8.31328 -4.9173 -5
      vertex -8.31328 -4.9173 6.02195e-16
    endloop
  endfacet
  facet normal 0.982283 -0.187405 0
    outer loop
      vertex -8.31328 -4.9173 -5
      vertex -8.32269 -4.96664 6.08238e-16
      vertex -8.32269 -4.96664 -5
    endloop
  endfacet
  facet normal 0.98674 -0.162311 0
    outer loop
      vertex -8.38483 -5.34438 6.54497e-16
      vertex -8.32269 -4.96664 -5
      vertex -8.32269 -4.96664 6.08238e-16
    endloop
  endfacet
  facet normal 0.98674 -0.162311 0
    outer loop
      vertex -8.32269 -4.96664 -5
      vertex -8.38483 -5.34438 6.54497e-16
      vertex -8.38483 -5.34438 -5
    endloop
  endfacet
  facet normal 0.998591 -0.053066 0
    outer loop
      vertex -8.40871 -5.79375 7.09529e-16
      vertex -8.38483 -5.34438 -5
      vertex -8.38483 -5.34438 6.54497e-16
    endloop
  endfacet
  facet normal 0.998591 -0.053066 0
    outer loop
      vertex -8.38483 -5.34438 -5
      vertex -8.40871 -5.79375 7.09529e-16
      vertex -8.40871 -5.79375 -5
    endloop
  endfacet
  facet normal 0.998698 0.0510108 0
    outer loop
      vertex -8.38538 -6.25052 7.65468e-16
      vertex -8.40871 -5.79375 -5
      vertex -8.40871 -5.79375 7.09529e-16
    endloop
  endfacet
  facet normal 0.998698 0.0510108 0
    outer loop
      vertex -8.40871 -5.79375 -5
      vertex -8.38538 -6.25052 7.65468e-16
      vertex -8.38538 -6.25052 -5
    endloop
  endfacet
  facet normal 0.987818 0.155614 0
    outer loop
      vertex -8.32489 -6.63448 8.12489e-16
      vertex -8.38538 -6.25052 -5
      vertex -8.38538 -6.25052 7.65468e-16
    endloop
  endfacet
  facet normal 0.987818 0.155614 0
    outer loop
      vertex -8.38538 -6.25052 -5
      vertex -8.32489 -6.63448 8.12489e-16
      vertex -8.32489 -6.63448 -5
    endloop
  endfacet
  facet normal 0.982283 0.187405 0
    outer loop
      vertex -8.31548 -6.68382 8.18532e-16
      vertex -8.32489 -6.63448 -5
      vertex -8.32489 -6.63448 8.12489e-16
    endloop
  endfacet
  facet normal 0.982283 0.187405 0
    outer loop
      vertex -8.32489 -6.63448 -5
      vertex -8.31548 -6.68382 8.18532e-16
      vertex -8.31548 -6.68382 -5
    endloop
  endfacet
  facet normal 0.963199 0.268789 0
    outer loop
      vertex -8.21466 -7.04509 8.62775e-16
      vertex -8.31548 -6.68382 -5
      vertex -8.31548 -6.68382 8.18532e-16
    endloop
  endfacet
  facet normal 0.963199 0.268789 0
    outer loop
      vertex -8.31548 -6.68382 -5
      vertex -8.21466 -7.04509 8.62775e-16
      vertex -8.21466 -7.04509 -5
    endloop
  endfacet
  facet normal 0.951085 0.308928 0
    outer loop
      vertex -8.19914 -7.09286 8.68625e-16
      vertex -8.21466 -7.04509 -5
      vertex -8.21466 -7.04509 8.62775e-16
    endloop
  endfacet
  facet normal 0.951085 0.308928 0
    outer loop
      vertex -8.21466 -7.04509 -5
      vertex -8.19914 -7.09286 8.68625e-16
      vertex -8.19914 -7.09286 -5
    endloop
  endfacet
  facet normal 0.923009 0.384778 0
    outer loop
      vertex -8.058 -7.43144 9.10089e-16
      vertex -8.19914 -7.09286 -5
      vertex -8.19914 -7.09286 8.68625e-16
    endloop
  endfacet
  facet normal 0.923009 0.384778 0
    outer loop
      vertex -8.19914 -7.09286 -5
      vertex -8.058 -7.43144 9.10089e-16
      vertex -8.058 -7.43144 -5
    endloop
  endfacet
  facet normal 0.90475 0.425943 0
    outer loop
      vertex -8.03661 -7.47688 9.15654e-16
      vertex -8.058 -7.43144 -5
      vertex -8.058 -7.43144 9.10089e-16
    endloop
  endfacet
  facet normal 0.90475 0.425943 0
    outer loop
      vertex -8.058 -7.43144 -5
      vertex -8.03661 -7.47688 9.15654e-16
      vertex -8.03661 -7.47688 -5
    endloop
  endfacet
  facet normal 0.867089 0.498154 0
    outer loop
      vertex -7.85513 -7.79276 9.54337e-16
      vertex -8.03661 -7.47688 -5
      vertex -8.03661 -7.47688 9.15654e-16
    endloop
  endfacet
  facet normal 0.867089 0.498154 0
    outer loop
      vertex -8.03661 -7.47688 -5
      vertex -7.85513 -7.79276 9.54337e-16
      vertex -7.85513 -7.79276 -5
    endloop
  endfacet
  facet normal 0.844361 0.535774 0
    outer loop
      vertex -7.82822 -7.83517 9.59532e-16
      vertex -7.85513 -7.79276 -5
      vertex -7.85513 -7.79276 9.54337e-16
    endloop
  endfacet
  facet normal 0.844361 0.535774 0
    outer loop
      vertex -7.85513 -7.79276 -5
      vertex -7.82822 -7.83517 9.59532e-16
      vertex -7.82822 -7.83517 -5
    endloop
  endfacet
  facet normal 0.797513 0.603302 0
    outer loop
      vertex -7.60643 -8.12836 9.95437e-16
      vertex -7.82822 -7.83517 -5
      vertex -7.82822 -7.83517 9.59532e-16
    endloop
  endfacet
  facet normal 0.797513 0.603302 0
    outer loop
      vertex -7.82822 -7.83517 -5
      vertex -7.60643 -8.12836 9.95437e-16
      vertex -7.60643 -8.12836 -5
    endloop
  endfacet
  facet normal 0.770508 0.637431 0
    outer loop
      vertex -7.57442 -8.16705 1.00018e-15
      vertex -7.60643 -8.12836 -5
      vertex -7.60643 -8.12836 9.95437e-16
    endloop
  endfacet
  facet normal 0.770508 0.637431 0
    outer loop
      vertex -7.60643 -8.12836 -5
      vertex -7.57442 -8.16705 1.00018e-15
      vertex -7.57442 -8.16705 -5
    endloop
  endfacet
  facet normal 0.718119 0.69592 0
    outer loop
      vertex -7.31229 -8.43755 1.0333e-15
      vertex -7.57442 -8.16705 -5
      vertex -7.57442 -8.16705 1.00018e-15
    endloop
  endfacet
  facet normal 0.718119 0.69592 0
    outer loop
      vertex -7.57442 -8.16705 -5
      vertex -7.31229 -8.43755 1.0333e-15
      vertex -7.31229 -8.43755 -5
    endloop
  endfacet
  facet normal 0.684587 0.728931 -0
    outer loop
      vertex -7.27567 -8.47194 -5
      vertex -7.31229 -8.43755 1.0333e-15
      vertex -7.27567 -8.47194 1.03751e-15
    endloop
  endfacet
  facet normal 0.684587 0.728931 0
    outer loop
      vertex -7.31229 -8.43755 1.0333e-15
      vertex -7.27567 -8.47194 -5
      vertex -7.31229 -8.43755 -5
    endloop
  endfacet
  facet normal 0.622346 0.782742 -0
    outer loop
      vertex -6.97267 -8.71284 -5
      vertex -7.27567 -8.47194 1.03751e-15
      vertex -6.97267 -8.71284 1.06702e-15
    endloop
  endfacet
  facet normal 0.622346 0.782742 0
    outer loop
      vertex -7.27567 -8.47194 1.03751e-15
      vertex -6.97267 -8.71284 -5
      vertex -7.27567 -8.47194 -5
    endloop
  endfacet
  facet normal 0.587828 0.808986 -0
    outer loop
      vertex -6.93204 -8.74237 -5
      vertex -6.97267 -8.71284 1.06702e-15
      vertex -6.93204 -8.74237 1.07063e-15
    endloop
  endfacet
  facet normal 0.587828 0.808986 0
    outer loop
      vertex -6.97267 -8.71284 1.06702e-15
      vertex -6.93204 -8.74237 -5
      vertex -6.97267 -8.71284 -5
    endloop
  endfacet
  facet normal 0.509278 0.860602 -0
    outer loop
      vertex -6.5876 -8.9462 -5
      vertex -6.93204 -8.74237 1.07063e-15
      vertex -6.5876 -8.9462 1.09559e-15
    endloop
  endfacet
  facet normal 0.509278 0.860602 0
    outer loop
      vertex -6.93204 -8.74237 1.07063e-15
      vertex -6.5876 -8.9462 -5
      vertex -6.93204 -8.74237 -5
    endloop
  endfacet
  facet normal 0.481744 0.876312 -0
    outer loop
      vertex -6.54358 -8.9704 -5
      vertex -6.5876 -8.9462 1.09559e-15
      vertex -6.54358 -8.9704 1.09856e-15
    endloop
  endfacet
  facet normal 0.481744 0.876312 0
    outer loop
      vertex -6.5876 -8.9462 1.09559e-15
      vertex -6.54358 -8.9704 -5
      vertex -6.5876 -8.9462 -5
    endloop
  endfacet
  facet normal 0.396761 0.917922 -0
    outer loop
      vertex -6.15773 -9.13718 -5
      vertex -6.54358 -8.9704 1.09856e-15
      vertex -6.15773 -9.13718 1.11898e-15
    endloop
  endfacet
  facet normal 0.396761 0.917922 0
    outer loop
      vertex -6.54358 -8.9704 1.09856e-15
      vertex -6.15773 -9.13718 -5
      vertex -6.54358 -8.9704 -5
    endloop
  endfacet
  facet normal 0.368141 0.92977 -0
    outer loop
      vertex -6.11102 -9.15567 -5
      vertex -6.15773 -9.13718 1.11898e-15
      vertex -6.11102 -9.15567 1.12125e-15
    endloop
  endfacet
  facet normal 0.368141 0.92977 0
    outer loop
      vertex -6.15773 -9.13718 1.11898e-15
      vertex -6.11102 -9.15567 -5
      vertex -6.15773 -9.13718 -5
    endloop
  endfacet
  facet normal 0.290484 0.95688 -0
    outer loop
      vertex -5.68373 -9.28539 -5
      vertex -6.11102 -9.15567 1.12125e-15
      vertex -5.68373 -9.28539 1.13713e-15
    endloop
  endfacet
  facet normal 0.290484 0.95688 0
    outer loop
      vertex -6.11102 -9.15567 1.12125e-15
      vertex -5.68373 -9.28539 -5
      vertex -6.11102 -9.15567 -5
    endloop
  endfacet
  facet normal 0.248821 0.968549 -0
    outer loop
      vertex -5.63509 -9.29788 -5
      vertex -5.68373 -9.28539 1.13713e-15
      vertex -5.63509 -9.29788 1.13866e-15
    endloop
  endfacet
  facet normal 0.248821 0.968549 0
    outer loop
      vertex -5.68373 -9.28539 1.13713e-15
      vertex -5.63509 -9.29788 -5
      vertex -5.68373 -9.28539 -5
    endloop
  endfacet
  facet normal 0.193917 0.981018 -0
    outer loop
      vertex -5.16637 -9.39053 -5
      vertex -5.63509 -9.29788 1.13866e-15
      vertex -5.16637 -9.39053 1.15001e-15
    endloop
  endfacet
  facet normal 0.193917 0.981018 0
    outer loop
      vertex -5.63509 -9.29788 1.13866e-15
      vertex -5.16637 -9.39053 -5
      vertex -5.63509 -9.29788 -5
    endloop
  endfacet
  facet normal 0.109828 0.993951 -0
    outer loop
      vertex -4.6064 -9.45241 -5
      vertex -5.16637 -9.39053 1.15001e-15
      vertex -4.6064 -9.45241 1.15759e-15
    endloop
  endfacet
  facet normal 0.109828 0.993951 0
    outer loop
      vertex -5.16637 -9.39053 1.15001e-15
      vertex -4.6064 -9.45241 -5
      vertex -5.16637 -9.39053 -5
    endloop
  endfacet
  facet normal 0.0335928 0.999436 -0
    outer loop
      vertex -4.05482 -9.47095 -5
      vertex -4.6064 -9.45241 1.15759e-15
      vertex -4.05482 -9.47095 1.15986e-15
    endloop
  endfacet
  facet normal 0.0335928 0.999436 0
    outer loop
      vertex -4.6064 -9.45241 1.15759e-15
      vertex -4.05482 -9.47095 -5
      vertex -4.6064 -9.45241 -5
    endloop
  endfacet
  facet normal 0 1 -0
    outer loop
      vertex 4.54939 -9.47095 -5
      vertex -4.05482 -9.47095 1.15986e-15
      vertex 4.54939 -9.47095 1.15986e-15
    endloop
  endfacet
  facet normal 0 1 0
    outer loop
      vertex -4.05482 -9.47095 1.15986e-15
      vertex 4.54939 -9.47095 -5
      vertex -4.05482 -9.47095 -5
    endloop
  endfacet
  facet normal -0.0335928 0.999436 0
    outer loop
      vertex 5.10097 -9.45241 -5
      vertex 4.54939 -9.47095 1.15986e-15
      vertex 5.10097 -9.45241 1.15759e-15
    endloop
  endfacet
  facet normal -0.0335928 0.999436 0
    outer loop
      vertex 4.54939 -9.47095 1.15986e-15
      vertex 5.10097 -9.45241 -5
      vertex 4.54939 -9.47095 -5
    endloop
  endfacet
  facet normal -0.109825 0.993951 0
    outer loop
      vertex 5.66095 -9.39053 -5
      vertex 5.10097 -9.45241 1.15759e-15
      vertex 5.66095 -9.39053 1.15001e-15
    endloop
  endfacet
  facet normal -0.109825 0.993951 0
    outer loop
      vertex 5.10097 -9.45241 1.15759e-15
      vertex 5.66095 -9.39053 -5
      vertex 5.10097 -9.45241 -5
    endloop
  endfacet
  facet normal -0.193923 0.981017 0
    outer loop
      vertex 6.12965 -9.29788 -5
      vertex 5.66095 -9.39053 1.15001e-15
      vertex 6.12965 -9.29788 1.13866e-15
    endloop
  endfacet
  facet normal -0.193923 0.981017 0
    outer loop
      vertex 5.66095 -9.39053 1.15001e-15
      vertex 6.12965 -9.29788 -5
      vertex 5.66095 -9.39053 -5
    endloop
  endfacet
  facet normal -0.248821 0.968549 0
    outer loop
      vertex 6.1783 -9.28539 -5
      vertex 6.12965 -9.29788 1.13866e-15
      vertex 6.1783 -9.28539 1.13713e-15
    endloop
  endfacet
  facet normal -0.248821 0.968549 0
    outer loop
      vertex 6.12965 -9.29788 1.13866e-15
      vertex 6.1783 -9.28539 -5
      vertex 6.12965 -9.29788 -5
    endloop
  endfacet
  facet normal -0.290484 0.95688 0
    outer loop
      vertex 6.60559 -9.15567 -5
      vertex 6.1783 -9.28539 1.13713e-15
      vertex 6.60559 -9.15567 1.12125e-15
    endloop
  endfacet
  facet normal -0.290484 0.95688 0
    outer loop
      vertex 6.1783 -9.28539 1.13713e-15
      vertex 6.60559 -9.15567 -5
      vertex 6.1783 -9.28539 -5
    endloop
  endfacet
  facet normal -0.368141 0.92977 0
    outer loop
      vertex 6.6523 -9.13718 -5
      vertex 6.60559 -9.15567 1.12125e-15
      vertex 6.6523 -9.13718 1.11898e-15
    endloop
  endfacet
  facet normal -0.368141 0.92977 0
    outer loop
      vertex 6.60559 -9.15567 1.12125e-15
      vertex 6.6523 -9.13718 -5
      vertex 6.60559 -9.15567 -5
    endloop
  endfacet
  facet normal -0.396761 0.917922 0
    outer loop
      vertex 7.03815 -8.9704 -5
      vertex 6.6523 -9.13718 1.11898e-15
      vertex 7.03815 -8.9704 1.09856e-15
    endloop
  endfacet
  facet normal -0.396761 0.917922 0
    outer loop
      vertex 6.6523 -9.13718 1.11898e-15
      vertex 7.03815 -8.9704 -5
      vertex 6.6523 -9.13718 -5
    endloop
  endfacet
  facet normal -0.481744 0.876312 0
    outer loop
      vertex 7.08217 -8.9462 -5
      vertex 7.03815 -8.9704 1.09856e-15
      vertex 7.08217 -8.9462 1.09559e-15
    endloop
  endfacet
  facet normal -0.481744 0.876312 0
    outer loop
      vertex 7.03815 -8.9704 1.09856e-15
      vertex 7.08217 -8.9462 -5
      vertex 7.03815 -8.9704 -5
    endloop
  endfacet
  facet normal -0.509278 0.860602 0
    outer loop
      vertex 7.42661 -8.74237 -5
      vertex 7.08217 -8.9462 1.09559e-15
      vertex 7.42661 -8.74237 1.07063e-15
    endloop
  endfacet
  facet normal -0.509278 0.860602 0
    outer loop
      vertex 7.08217 -8.9462 1.09559e-15
      vertex 7.42661 -8.74237 -5
      vertex 7.08217 -8.9462 -5
    endloop
  endfacet
  facet normal -0.587828 0.808986 0
    outer loop
      vertex 7.46724 -8.71284 -5
      vertex 7.42661 -8.74237 1.07063e-15
      vertex 7.46724 -8.71284 1.06702e-15
    endloop
  endfacet
  facet normal -0.587828 0.808986 0
    outer loop
      vertex 7.42661 -8.74237 1.07063e-15
      vertex 7.46724 -8.71284 -5
      vertex 7.42661 -8.74237 -5
    endloop
  endfacet
  facet normal -0.622346 0.782742 0
    outer loop
      vertex 7.77023 -8.47194 -5
      vertex 7.46724 -8.71284 1.06702e-15
      vertex 7.77023 -8.47194 1.03751e-15
    endloop
  endfacet
  facet normal -0.622346 0.782742 0
    outer loop
      vertex 7.46724 -8.71284 1.06702e-15
      vertex 7.77023 -8.47194 -5
      vertex 7.46724 -8.71284 -5
    endloop
  endfacet
  facet normal -0.684587 0.728931 0
    outer loop
      vertex 7.80685 -8.43755 -5
      vertex 7.77023 -8.47194 1.03751e-15
      vertex 7.80685 -8.43755 1.0333e-15
    endloop
  endfacet
  facet normal -0.684587 0.728931 0
    outer loop
      vertex 7.77023 -8.47194 1.03751e-15
      vertex 7.80685 -8.43755 -5
      vertex 7.77023 -8.47194 -5
    endloop
  endfacet
  facet normal -0.718119 0.69592 0
    outer loop
      vertex 7.80685 -8.43755 -5
      vertex 8.06898 -8.16705 1.00018e-15
      vertex 8.06898 -8.16705 -5
    endloop
  endfacet
  facet normal -0.718119 0.69592 0
    outer loop
      vertex 8.06898 -8.16705 1.00018e-15
      vertex 7.80685 -8.43755 -5
      vertex 7.80685 -8.43755 1.0333e-15
    endloop
  endfacet
  facet normal -0.770508 0.637431 0
    outer loop
      vertex 8.06898 -8.16705 -5
      vertex 8.101 -8.12836 9.95437e-16
      vertex 8.101 -8.12836 -5
    endloop
  endfacet
  facet normal -0.770508 0.637431 0
    outer loop
      vertex 8.101 -8.12836 9.95437e-16
      vertex 8.06898 -8.16705 -5
      vertex 8.06898 -8.16705 1.00018e-15
    endloop
  endfacet
  facet normal -0.797513 0.603302 0
    outer loop
      vertex 8.101 -8.12836 -5
      vertex 8.32278 -7.83517 9.59532e-16
      vertex 8.32278 -7.83517 -5
    endloop
  endfacet
  facet normal -0.797513 0.603302 0
    outer loop
      vertex 8.32278 -7.83517 9.59532e-16
      vertex 8.101 -8.12836 -5
      vertex 8.101 -8.12836 9.95437e-16
    endloop
  endfacet
  facet normal -0.844361 0.535774 0
    outer loop
      vertex 8.32278 -7.83517 -5
      vertex 8.3497 -7.79276 9.54337e-16
      vertex 8.3497 -7.79276 -5
    endloop
  endfacet
  facet normal -0.844361 0.535774 0
    outer loop
      vertex 8.3497 -7.79276 9.54337e-16
      vertex 8.32278 -7.83517 -5
      vertex 8.32278 -7.83517 9.59532e-16
    endloop
  endfacet
  facet normal -0.867089 0.498154 0
    outer loop
      vertex 8.3497 -7.79276 -5
      vertex 8.53117 -7.47688 9.15654e-16
      vertex 8.53117 -7.47688 -5
    endloop
  endfacet
  facet normal -0.867089 0.498154 0
    outer loop
      vertex 8.53117 -7.47688 9.15654e-16
      vertex 8.3497 -7.79276 -5
      vertex 8.3497 -7.79276 9.54337e-16
    endloop
  endfacet
  facet normal -0.90475 0.425943 0
    outer loop
      vertex 8.53117 -7.47688 -5
      vertex 8.55257 -7.43144 9.10089e-16
      vertex 8.55257 -7.43144 -5
    endloop
  endfacet
  facet normal -0.90475 0.425943 0
    outer loop
      vertex 8.55257 -7.43144 9.10089e-16
      vertex 8.53117 -7.47688 -5
      vertex 8.53117 -7.47688 9.15654e-16
    endloop
  endfacet
  facet normal -0.923009 0.384778 0
    outer loop
      vertex 8.55257 -7.43144 -5
      vertex 8.69371 -7.09286 8.68625e-16
      vertex 8.69371 -7.09286 -5
    endloop
  endfacet
  facet normal -0.923009 0.384778 0
    outer loop
      vertex 8.69371 -7.09286 8.68625e-16
      vertex 8.55257 -7.43144 -5
      vertex 8.55257 -7.43144 9.10089e-16
    endloop
  endfacet
  facet normal -0.951085 0.308928 0
    outer loop
      vertex 8.69371 -7.09286 -5
      vertex 8.70923 -7.04509 8.62775e-16
      vertex 8.70923 -7.04509 -5
    endloop
  endfacet
  facet normal -0.951085 0.308928 0
    outer loop
      vertex 8.70923 -7.04509 8.62775e-16
      vertex 8.69371 -7.09286 -5
      vertex 8.69371 -7.09286 8.68625e-16
    endloop
  endfacet
  facet normal -0.963199 0.268789 0
    outer loop
      vertex 8.70923 -7.04509 -5
      vertex 8.81004 -6.68382 8.18532e-16
      vertex 8.81004 -6.68382 -5
    endloop
  endfacet
  facet normal -0.963199 0.268789 0
    outer loop
      vertex 8.81004 -6.68382 8.18532e-16
      vertex 8.70923 -7.04509 -5
      vertex 8.70923 -7.04509 8.62775e-16
    endloop
  endfacet
  facet normal -0.982283 0.187405 0
    outer loop
      vertex 8.81004 -6.68382 -5
      vertex 8.81946 -6.63448 8.12489e-16
      vertex 8.81946 -6.63448 -5
    endloop
  endfacet
  facet normal -0.982283 0.187405 0
    outer loop
      vertex 8.81946 -6.63448 8.12489e-16
      vertex 8.81004 -6.68382 -5
      vertex 8.81004 -6.68382 8.18532e-16
    endloop
  endfacet
  facet normal -0.987818 0.155614 0
    outer loop
      vertex 8.81946 -6.63448 -5
      vertex 8.87994 -6.25052 7.65468e-16
      vertex 8.87994 -6.25052 -5
    endloop
  endfacet
  facet normal -0.987818 0.155614 0
    outer loop
      vertex 8.87994 -6.25052 7.65468e-16
      vertex 8.81946 -6.63448 -5
      vertex 8.81946 -6.63448 8.12489e-16
    endloop
  endfacet
  facet normal -0.998698 0.0510108 0
    outer loop
      vertex 8.87994 -6.25052 -5
      vertex 8.90327 -5.79375 7.09529e-16
      vertex 8.90327 -5.79375 -5
    endloop
  endfacet
  facet normal -0.998698 0.0510108 0
    outer loop
      vertex 8.90327 -5.79375 7.09529e-16
      vertex 8.87994 -6.25052 -5
      vertex 8.87994 -6.25052 7.65468e-16
    endloop
  endfacet
  facet normal -0.998686 -0.0512399 0
    outer loop
      vertex 8.90327 -5.79375 -5
      vertex 8.88022 -5.34438 6.54497e-16
      vertex 8.88022 -5.34438 -5
    endloop
  endfacet
  facet normal -0.998686 -0.0512399 0
    outer loop
      vertex 8.88022 -5.34438 6.54497e-16
      vertex 8.90327 -5.79375 -5
      vertex 8.90327 -5.79375 7.09529e-16
    endloop
  endfacet
  facet normal -0.987743 -0.156092 0
    outer loop
      vertex 8.88022 -5.34438 -5
      vertex 8.82053 -4.96664 6.08238e-16
      vertex 8.82053 -4.96664 -5
    endloop
  endfacet
  facet normal -0.987743 -0.156092 0
    outer loop
      vertex 8.82053 -4.96664 6.08238e-16
      vertex 8.88022 -5.34438 -5
      vertex 8.88022 -5.34438 6.54497e-16
    endloop
  endfacet
  facet normal -0.982283 -0.187405 0
    outer loop
      vertex 8.82053 -4.96664 -5
      vertex 8.81111 -4.9173 6.02195e-16
      vertex 8.81111 -4.9173 -5
    endloop
  endfacet
  facet normal -0.982283 -0.187405 0
    outer loop
      vertex 8.81111 -4.9173 6.02195e-16
      vertex 8.82053 -4.96664 -5
      vertex 8.82053 -4.96664 6.08238e-16
    endloop
  endfacet
  facet normal -0.963145 -0.268984 0
    outer loop
      vertex 8.81111 -4.9173 -5
      vertex 8.71162 -4.56107 5.58569e-16
      vertex 8.71162 -4.56107 -5
    endloop
  endfacet
  facet normal -0.963145 -0.268984 0
    outer loop
      vertex 8.71162 -4.56107 5.58569e-16
      vertex 8.81111 -4.9173 -5
      vertex 8.81111 -4.9173 6.02195e-16
    endloop
  endfacet
  facet normal -0.951085 -0.308928 0
    outer loop
      vertex 8.71162 -4.56107 -5
      vertex 8.69611 -4.51329 5.52719e-16
      vertex 8.69611 -4.51329 -5
    endloop
  endfacet
  facet normal -0.951085 -0.308928 0
    outer loop
      vertex 8.69611 -4.51329 5.52719e-16
      vertex 8.71162 -4.56107 -5
      vertex 8.71162 -4.56107 5.58569e-16
    endloop
  endfacet
  facet normal -0.923241 -0.384221 0
    outer loop
      vertex 8.69611 -4.51329 -5
      vertex 8.55681 -4.17857 5.11728e-16
      vertex 8.55681 -4.17857 -5
    endloop
  endfacet
  facet normal -0.923241 -0.384221 0
    outer loop
      vertex 8.55681 -4.17857 5.11728e-16
      vertex 8.69611 -4.51329 -5
      vertex 8.69611 -4.51329 5.52719e-16
    endloop
  endfacet
  facet normal -0.90475 -0.425943 0
    outer loop
      vertex 8.55681 -4.17857 -5
      vertex 8.53542 -4.13313 5.06163e-16
      vertex 8.53542 -4.13313 -5
    endloop
  endfacet
  facet normal -0.90475 -0.425943 0
    outer loop
      vertex 8.53542 -4.13313 5.06163e-16
      vertex 8.55681 -4.17857 -5
      vertex 8.55681 -4.17857 5.11728e-16
    endloop
  endfacet
  facet normal -0.868118 -0.496358 0
    outer loop
      vertex 8.53542 -4.13313 -5
      vertex 8.35634 -3.81993 4.67807e-16
      vertex 8.35634 -3.81993 -5
    endloop
  endfacet
  facet normal -0.868118 -0.496358 0
    outer loop
      vertex 8.35634 -3.81993 4.67807e-16
      vertex 8.53542 -4.13313 -5
      vertex 8.53542 -4.13313 5.06163e-16
    endloop
  endfacet
  facet normal -0.844361 -0.535774 0
    outer loop
      vertex 8.35634 -3.81993 -5
      vertex 8.32942 -3.77751 4.62612e-16
      vertex 8.32942 -3.77751 -5
    endloop
  endfacet
  facet normal -0.844361 -0.535774 0
    outer loop
      vertex 8.32942 -3.77751 4.62612e-16
      vertex 8.35634 -3.81993 -5
      vertex 8.35634 -3.81993 4.67807e-16
    endloop
  endfacet
  facet normal -0.799859 -0.600187 0
    outer loop
      vertex 8.32942 -3.77751 -5
      vertex 8.11055 -3.48582 4.2689e-16
      vertex 8.11055 -3.48582 -5
    endloop
  endfacet
  facet normal -0.799859 -0.600187 0
    outer loop
      vertex 8.11055 -3.48582 4.2689e-16
      vertex 8.32942 -3.77751 -5
      vertex 8.32942 -3.77751 4.62612e-16
    endloop
  endfacet
  facet normal -0.770508 -0.637431 0
    outer loop
      vertex 8.11055 -3.48582 -5
      vertex 8.07854 -3.44713 4.22151e-16
      vertex 8.07854 -3.44713 -5
    endloop
  endfacet
  facet normal -0.770508 -0.637431 0
    outer loop
      vertex 8.07854 -3.44713 4.22151e-16
      vertex 8.11055 -3.48582 -5
      vertex 8.11055 -3.48582 4.2689e-16
    endloop
  endfacet
  facet normal -0.722318 -0.691561 0
    outer loop
      vertex 8.07854 -3.44713 -5
      vertex 7.81985 -3.17694 3.89063e-16
      vertex 7.81985 -3.17694 -5
    endloop
  endfacet
  facet normal -0.722318 -0.691561 0
    outer loop
      vertex 7.81985 -3.17694 3.89063e-16
      vertex 8.07854 -3.44713 -5
      vertex 8.07854 -3.44713 4.22151e-16
    endloop
  endfacet
  facet normal -0.684587 -0.728931 0
    outer loop
      vertex 7.78323 -3.14255 -5
      vertex 7.81985 -3.17694 3.89063e-16
      vertex 7.78323 -3.14255 3.84851e-16
    endloop
  endfacet
  facet normal -0.684587 -0.728931 -0
    outer loop
      vertex 7.81985 -3.17694 3.89063e-16
      vertex 7.78323 -3.14255 -5
      vertex 7.81985 -3.17694 -5
    endloop
  endfacet
  facet normal -0.625904 -0.7799 0
    outer loop
      vertex 7.4834 -2.90192 -5
      vertex 7.78323 -3.14255 3.84851e-16
      vertex 7.4834 -2.90192 3.55382e-16
    endloop
  endfacet
  facet normal -0.625904 -0.7799 -0
    outer loop
      vertex 7.78323 -3.14255 3.84851e-16
      vertex 7.4834 -2.90192 -5
      vertex 7.78323 -3.14255 -5
    endloop
  endfacet
  facet normal -0.587828 -0.808986 0
    outer loop
      vertex 7.44276 -2.87239 -5
      vertex 7.4834 -2.90192 3.55382e-16
      vertex 7.44276 -2.87239 3.51766e-16
    endloop
  endfacet
  facet normal -0.587828 -0.808986 -0
    outer loop
      vertex 7.4834 -2.90192 3.55382e-16
      vertex 7.44276 -2.87239 -5
      vertex 7.4834 -2.90192 -5
    endloop
  endfacet
  facet normal -0.510524 -0.859864 0
    outer loop
      vertex 7.09982 -2.66878 -5
      vertex 7.44276 -2.87239 3.51766e-16
      vertex 7.09982 -2.66878 3.26831e-16
    endloop
  endfacet
  facet normal -0.510524 -0.859864 -0
    outer loop
      vertex 7.44276 -2.87239 3.51766e-16
      vertex 7.09982 -2.66878 -5
      vertex 7.44276 -2.87239 -5
    endloop
  endfacet
  facet normal -0.481744 -0.876312 0
    outer loop
      vertex 7.0558 -2.64458 -5
      vertex 7.09982 -2.66878 3.26831e-16
      vertex 7.0558 -2.64458 3.23867e-16
    endloop
  endfacet
  facet normal -0.481744 -0.876312 -0
    outer loop
      vertex 7.09982 -2.66878 3.26831e-16
      vertex 7.0558 -2.64458 -5
      vertex 7.09982 -2.66878 -5
    endloop
  endfacet
  facet normal -0.396235 -0.918149 0
    outer loop
      vertex 6.66977 -2.47798 -5
      vertex 7.0558 -2.64458 3.23867e-16
      vertex 6.66977 -2.47798 3.03465e-16
    endloop
  endfacet
  facet normal -0.396235 -0.918149 -0
    outer loop
      vertex 7.0558 -2.64458 3.23867e-16
      vertex 6.66977 -2.47798 -5
      vertex 7.0558 -2.64458 -5
    endloop
  endfacet
  facet normal -0.368141 -0.92977 0
    outer loop
      vertex 6.62306 -2.45949 -5
      vertex 6.66977 -2.47798 3.03465e-16
      vertex 6.62306 -2.45949 3.012e-16
    endloop
  endfacet
  facet normal -0.368141 -0.92977 -0
    outer loop
      vertex 6.66977 -2.47798 3.03465e-16
      vertex 6.62306 -2.45949 -5
      vertex 6.66977 -2.47798 -5
    endloop
  endfacet
  facet normal -0.289049 -0.957314 0
    outer loop
      vertex 6.19391 -2.32991 -5
      vertex 6.62306 -2.45949 3.012e-16
      vertex 6.19391 -2.32991 2.85332e-16
    endloop
  endfacet
  facet normal -0.289049 -0.957314 -0
    outer loop
      vertex 6.62306 -2.45949 3.012e-16
      vertex 6.19391 -2.32991 -5
      vertex 6.62306 -2.45949 -5
    endloop
  endfacet
  facet normal -0.248821 -0.968549 0
    outer loop
      vertex 6.14526 -2.31741 -5
      vertex 6.19391 -2.32991 2.85332e-16
      vertex 6.14526 -2.31741 2.83801e-16
    endloop
  endfacet
  facet normal -0.248821 -0.968549 -0
    outer loop
      vertex 6.19391 -2.32991 2.85332e-16
      vertex 6.14526 -2.31741 -5
      vertex 6.19391 -2.32991 -5
    endloop
  endfacet
  facet normal -0.19231 -0.981334 0
    outer loop
      vertex 5.67302 -2.22487 -5
      vertex 6.14526 -2.31741 2.83801e-16
      vertex 5.67302 -2.22487 2.72468e-16
    endloop
  endfacet
  facet normal -0.19231 -0.981334 -0
    outer loop
      vertex 6.14526 -2.31741 2.83801e-16
      vertex 5.67302 -2.22487 -5
      vertex 6.14526 -2.31741 -5
    endloop
  endfacet
  facet normal -0.108723 -0.994072 0
    outer loop
      vertex 5.10785 -2.16306 -5
      vertex 5.67302 -2.22487 2.72468e-16
      vertex 5.10785 -2.16306 2.64898e-16
    endloop
  endfacet
  facet normal -0.108723 -0.994072 -0
    outer loop
      vertex 5.67302 -2.22487 2.72468e-16
      vertex 5.10785 -2.16306 -5
      vertex 5.67302 -2.22487 -5
    endloop
  endfacet
  facet normal -0.0331248 -0.999451 0
    outer loop
      vertex 4.54939 -2.14455 -5
      vertex 5.10785 -2.16306 2.64898e-16
      vertex 4.54939 -2.14455 2.62631e-16
    endloop
  endfacet
  facet normal -0.0331248 -0.999451 -0
    outer loop
      vertex 5.10785 -2.16306 2.64898e-16
      vertex 4.54939 -2.14455 -5
      vertex 5.10785 -2.16306 -5
    endloop
  endfacet
  facet normal 0 -1 0
    outer loop
      vertex -4.05482 -2.14455 -5
      vertex 4.54939 -2.14455 2.62631e-16
      vertex -4.05482 -2.14455 2.62631e-16
    endloop
  endfacet
  facet normal 0 -1 -0
    outer loop
      vertex 4.54939 -2.14455 2.62631e-16
      vertex -4.05482 -2.14455 -5
      vertex 4.54939 -2.14455 -5
    endloop
  endfacet
  facet normal -0 1.17015e-07 1
    outer loop
      vertex -25 8.15 23.2
      vertex -24 -8.15 23.2
      vertex -24 8.15 23.2
    endloop
  endfacet
  facet normal 0 1.17015e-07 1
    outer loop
      vertex -24 -8.15 23.2
      vertex -25 8.15 23.2
      vertex -25 -8.15 23.2
    endloop
  endfacet
  facet normal 0 -1 0
    outer loop
      vertex -25 8.15 23.2
      vertex -24 8.15 25
      vertex -25 8.15 25
    endloop
  endfacet
  facet normal 0 -1 -0
    outer loop
      vertex -24 8.15 25
      vertex -25 8.15 23.2
      vertex -24 8.15 23.2
    endloop
  endfacet
  facet normal 0 1 -0
    outer loop
      vertex -24 -8.15 23.2
      vertex -25 -8.15 25
      vertex -24 -8.15 25
    endloop
  endfacet
  facet normal 0 1 0
    outer loop
      vertex -25 -8.15 25
      vertex -24 -8.15 23.2
      vertex -25 -8.15 23.2
    endloop
  endfacet
  facet normal -0 1.17015e-07 1
    outer loop
      vertex 24 8.15 23.2
      vertex 25 -8.15 23.2
      vertex 25 8.15 23.2
    endloop
  endfacet
  facet normal 0 1.17015e-07 1
    outer loop
      vertex 25 -8.15 23.2
      vertex 24 8.15 23.2
      vertex 24 -8.15 23.2
    endloop
  endfacet
  facet normal 0 1 -0
    outer loop
      vertex 25 -8.15 23.2
      vertex 24 -8.15 25
      vertex 25 -8.15 25
    endloop
  endfacet
  facet normal 0 1 0
    outer loop
      vertex 24 -8.15 25
      vertex 25 -8.15 23.2
      vertex 24 -8.15 23.2
    endloop
  endfacet
  facet normal 0 -1 0
    outer loop
      vertex 24 8.15 23.2
      vertex 25 8.15 25
      vertex 24 8.15 25
    endloop
  endfacet
  facet normal 0 -1 -0
    outer loop
      vertex 25 8.15 25
      vertex 24 8.15 23.2
      vertex 25 8.15 23.2
    endloop
  endfacet
  facet normal 1 -0 0
    outer loop
      vertex -8.15 -25 25
      vertex -8.15 -24 23.2
      vertex -8.15 -24 25
    endloop
  endfacet
  facet normal 1 0 0
    outer loop
      vertex -8.15 -24 23.2
      vertex -8.15 -25 25
      vertex -8.15 -25 23.2
    endloop
  endfacet
  facet normal -0 0 1
    outer loop
      vertex -8.15 -24 23.2
      vertex 8.15 -25 23.2
      vertex 8.15 -24 23.2
    endloop
  endfacet
  facet normal 0 0 1
    outer loop
      vertex 8.15 -25 23.2
      vertex -8.15 -24 23.2
      vertex -8.15 -25 23.2
    endloop
  endfacet
  facet normal -1 0 0
    outer loop
      vertex 8.15 -25 23.2
      vertex 8.15 -24 25
      vertex 8.15 -24 23.2
    endloop
  endfacet
  facet normal -1 -0 0
    outer loop
      vertex 8.15 -24 25
      vertex 8.15 -25 23.2
      vertex 8.15 -25 25
    endloop
  endfacet
  facet normal 1 -0 0
    outer loop
      vertex -8.15 24 25
      vertex -8.15 25 23.2
      vertex -8.15 25 25
    endloop
  endfacet
  facet normal 1 0 0
    outer loop
      vertex -8.15 25 23.2
      vertex -8.15 24 25
      vertex -8.15 24 23.2
    endloop
  endfacet
  facet normal -0 0 1
    outer loop
      vertex -8.15 25 23.2
      vertex 8.15 24 23.2
      vertex 8.15 25 23.2
    endloop
  endfacet
  facet normal 0 0 1
    outer loop
      vertex 8.15 24 23.2
      vertex -8.15 25 23.2
      vertex -8.15 24 23.2
    endloop
  endfacet
  facet normal -1 0 0
    outer loop
      vertex 8.15 24 23.2
      vertex 8.15 25 25
      vertex 8.15 25 23.2
    endloop
  endfacet
  facet normal -1 -0 0
    outer loop
      vertex 8.15 25 25
      vertex 8.15 24 23.2
      vertex 8.15 24 25
    endloop
  endfacet
endsolid OpenSCAD_Model
