solid OpenSCAD_Model
  facet normal -1 0 0
    outer loop
      vertex -22.5 -22.5 0.5
      vertex -22.5 22.5 1.5
      vertex -22.5 22.5 0.5
    endloop
  endfacet
  facet normal -1 -0 0
    outer loop
      vertex -22.5 22.5 1.5
      vertex -22.5 -22.5 0.5
      vertex -22.5 -22.5 1.5
    endloop
  endfacet
  facet normal -0 0 1
    outer loop
      vertex 17.3125 -14.9299 1.5
      vertex 22.5 -22.5 1.5
      vertex 22.5 22.5 1.5
    endloop
  endfacet
  facet normal 0 0 1
    outer loop
      vertex 22.5 -22.5 1.5
      vertex 17.5947 -15.9235 1.5
      vertex 17.6135 -16.3042 1.5
    endloop
  endfacet
  facet normal 0 0 1
    outer loop
      vertex 22.5 -22.5 1.5
      vertex 17.5383 -15.5675 1.5
      vertex 17.5947 -15.9235 1.5
    endloop
  endfacet
  facet normal 0 0 1
    outer loop
      vertex 22.5 -22.5 1.5
      vertex 17.4442 -15.2363 1.5
      vertex 17.5383 -15.5675 1.5
    endloop
  endfacet
  facet normal 0 0 1
    outer loop
      vertex 22.5 -22.5 1.5
      vertex 17.3125 -14.9299 1.5
      vertex 17.4442 -15.2363 1.5
    endloop
  endfacet
  facet normal 0 0 1
    outer loop
      vertex 22.5 22.5 1.5
      vertex 17.1431 -14.6482 1.5
      vertex 17.3125 -14.9299 1.5
    endloop
  endfacet
  facet normal -0 0 1
    outer loop
      vertex 15.0967 13.4977 1.5
      vertex 17.1431 -14.6482 1.5
      vertex 22.5 22.5 1.5
    endloop
  endfacet
  facet normal -0 0 1
    outer loop
      vertex 14.9025 13.1497 1.5
      vertex 17.1431 -14.6482 1.5
      vertex 15.0967 13.4977 1.5
    endloop
  endfacet
  facet normal 0 0 1
    outer loop
      vertex 17.1431 -14.6482 1.5
      vertex 14.9025 13.1497 1.5
      vertex 16.9361 -14.3913 1.5
    endloop
  endfacet
  facet normal -0 0 1
    outer loop
      vertex 14.6629 12.7885 1.5
      vertex 16.9361 -14.3913 1.5
      vertex 14.9025 13.1497 1.5
    endloop
  endfacet
  facet normal -0 0 1
    outer loop
      vertex 14.3625 12.3689 1.5
      vertex 16.9361 -14.3913 1.5
      vertex 14.6629 12.7885 1.5
    endloop
  endfacet
  facet normal 0 0 1
    outer loop
      vertex 15.6196 15.7177 1.5
      vertex 22.5 22.5 1.5
      vertex 15.6345 16.2577 1.5
    endloop
  endfacet
  facet normal 0 0 1
    outer loop
      vertex 22.5 22.5 1.5
      vertex 15.5449 17.3402 1.5
      vertex 15.6345 16.2577 1.5
    endloop
  endfacet
  facet normal 0 0 1
    outer loop
      vertex 22.5 22.5 1.5
      vertex 15.2759 18.2561 1.5
      vertex 15.5449 17.3402 1.5
    endloop
  endfacet
  facet normal 0 0 1
    outer loop
      vertex 22.5 22.5 1.5
      vertex 14.8277 19.0055 1.5
      vertex 15.2759 18.2561 1.5
    endloop
  endfacet
  facet normal 0 0 1
    outer loop
      vertex 22.5 22.5 1.5
      vertex 14.2001 19.5883 1.5
      vertex 14.8277 19.0055 1.5
    endloop
  endfacet
  facet normal 0 0 1
    outer loop
      vertex 22.5 22.5 1.5
      vertex 13.3932 20.0047 1.5
      vertex 14.2001 19.5883 1.5
    endloop
  endfacet
  facet normal 0 0 1
    outer loop
      vertex 22.5 22.5 1.5
      vertex 12.407 20.2545 1.5
      vertex 13.3932 20.0047 1.5
    endloop
  endfacet
  facet normal 0 0 1
    outer loop
      vertex 22.5 22.5 1.5
      vertex 11.2415 20.3377 1.5
      vertex 12.407 20.2545 1.5
    endloop
  endfacet
  facet normal 0 0 1
    outer loop
      vertex 22.5 22.5 1.5
      vertex -11.3725 20.3377 1.5
      vertex 11.2415 20.3377 1.5
    endloop
  endfacet
  facet normal -0 0 1
    outer loop
      vertex -22.5 22.5 1.5
      vertex -11.3725 20.3377 1.5
      vertex 22.5 22.5 1.5
    endloop
  endfacet
  facet normal 0 0 1
    outer loop
      vertex -14.6104 15.6354 1.5
      vertex -15.7342 -11.9143 1.5
      vertex -15.3855 -11.4962 1.5
    endloop
  endfacet
  facet normal 0 0 1
    outer loop
      vertex -15.0684 16.8955 1.5
      vertex -22.5 22.5 1.5
      vertex -15.7342 -11.9143 1.5
    endloop
  endfacet
  facet normal 0 0 1
    outer loop
      vertex -15.7342 -11.9143 1.5
      vertex -22.5 22.5 1.5
      vertex -15.8911 -12.1068 1.5
    endloop
  endfacet
  facet normal 0 0 1
    outer loop
      vertex -15.8911 -12.1068 1.5
      vertex -22.5 22.5 1.5
      vertex -16.0364 -12.2884 1.5
    endloop
  endfacet
  facet normal 0 0 1
    outer loop
      vertex -16.0364 -12.2884 1.5
      vertex -22.5 22.5 1.5
      vertex -16.17 -12.459 1.5
    endloop
  endfacet
  facet normal 0 0 1
    outer loop
      vertex -16.17 -12.459 1.5
      vertex -22.5 22.5 1.5
      vertex -16.2921 -12.6186 1.5
    endloop
  endfacet
  facet normal 0 0 1
    outer loop
      vertex -16.2921 -12.6186 1.5
      vertex -22.5 22.5 1.5
      vertex -16.4025 -12.7672 1.5
    endloop
  endfacet
  facet normal 0 0 1
    outer loop
      vertex -16.4025 -12.7672 1.5
      vertex -22.5 22.5 1.5
      vertex -16.504 -12.9115 1.5
    endloop
  endfacet
  facet normal 0 0 1
    outer loop
      vertex -16.504 -12.9115 1.5
      vertex -22.5 22.5 1.5
      vertex -16.5994 -13.0585 1.5
    endloop
  endfacet
  facet normal 0 0 1
    outer loop
      vertex -22.5 22.5 1.5
      vertex -15.0874 17.2627 1.5
      vertex -15.0684 17.6449 1.5
    endloop
  endfacet
  facet normal 0 0 1
    outer loop
      vertex -16.5994 -13.0585 1.5
      vertex -22.5 22.5 1.5
      vertex -16.6888 -13.2083 1.5
    endloop
  endfacet
  facet normal 0 0 1
    outer loop
      vertex -16.6888 -13.2083 1.5
      vertex -22.5 22.5 1.5
      vertex -16.7721 -13.3609 1.5
    endloop
  endfacet
  facet normal 0 0 1
    outer loop
      vertex -16.7721 -13.3609 1.5
      vertex -22.5 22.5 1.5
      vertex -16.8493 -13.5162 1.5
    endloop
  endfacet
  facet normal 0 0 1
    outer loop
      vertex -16.8493 -13.5162 1.5
      vertex -22.5 22.5 1.5
      vertex -16.9204 -13.6743 1.5
    endloop
  endfacet
  facet normal 0 0 1
    outer loop
      vertex -22.5 -22.5 1.5
      vertex -16.9204 -13.6743 1.5
      vertex -22.5 22.5 1.5
    endloop
  endfacet
  facet normal 0 0 1
    outer loop
      vertex -16.9204 -13.6743 1.5
      vertex -22.5 -22.5 1.5
      vertex -16.9855 -13.8352 1.5
    endloop
  endfacet
  facet normal 0 0 1
    outer loop
      vertex -16.9855 -13.8352 1.5
      vertex -22.5 -22.5 1.5
      vertex -17.043 -13.9997 1.5
    endloop
  endfacet
  facet normal 0 0 1
    outer loop
      vertex -17.043 -13.9997 1.5
      vertex -22.5 -22.5 1.5
      vertex -17.0917 -14.1686 1.5
    endloop
  endfacet
  facet normal 0 0 1
    outer loop
      vertex -17.0917 -14.1686 1.5
      vertex -22.5 -22.5 1.5
      vertex -17.1316 -14.3419 1.5
    endloop
  endfacet
  facet normal 0 0 1
    outer loop
      vertex -17.1316 -14.3419 1.5
      vertex -22.5 -22.5 1.5
      vertex -17.1626 -14.5197 1.5
    endloop
  endfacet
  facet normal 0 0 1
    outer loop
      vertex -17.1847 -14.7018 1.5
      vertex -22.5 -22.5 1.5
      vertex -17.198 -14.8883 1.5
    endloop
  endfacet
  facet normal 0 0 1
    outer loop
      vertex -17.1626 -14.5197 1.5
      vertex -22.5 -22.5 1.5
      vertex -17.1847 -14.7018 1.5
    endloop
  endfacet
  facet normal 0 0 1
    outer loop
      vertex -15.0111 18.0056 1.5
      vertex -22.5 22.5 1.5
      vertex -15.0684 17.6449 1.5
    endloop
  endfacet
  facet normal 0 0 1
    outer loop
      vertex -14.9157 18.3449 1.5
      vertex -22.5 22.5 1.5
      vertex -15.0111 18.0056 1.5
    endloop
  endfacet
  facet normal 0 0 1
    outer loop
      vertex -14.7822 18.6627 1.5
      vertex -22.5 22.5 1.5
      vertex -14.9157 18.3449 1.5
    endloop
  endfacet
  facet normal 0 0 1
    outer loop
      vertex -14.6104 18.9592 1.5
      vertex -22.5 22.5 1.5
      vertex -14.7822 18.6627 1.5
    endloop
  endfacet
  facet normal 0 0 1
    outer loop
      vertex -14.4005 19.2342 1.5
      vertex -22.5 22.5 1.5
      vertex -14.6104 18.9592 1.5
    endloop
  endfacet
  facet normal 0 0 1
    outer loop
      vertex -14.1525 19.4877 1.5
      vertex -22.5 22.5 1.5
      vertex -14.4005 19.2342 1.5
    endloop
  endfacet
  facet normal 0 0 1
    outer loop
      vertex -13.8665 19.7133 1.5
      vertex -22.5 22.5 1.5
      vertex -14.1525 19.4877 1.5
    endloop
  endfacet
  facet normal 0 0 1
    outer loop
      vertex -13.5435 19.9041 1.5
      vertex -22.5 22.5 1.5
      vertex -13.8665 19.7133 1.5
    endloop
  endfacet
  facet normal 0 0 1
    outer loop
      vertex -13.1834 20.0602 1.5
      vertex -22.5 22.5 1.5
      vertex -13.5435 19.9041 1.5
    endloop
  endfacet
  facet normal 0 0 1
    outer loop
      vertex -12.7863 20.1816 1.5
      vertex -22.5 22.5 1.5
      vertex -13.1834 20.0602 1.5
    endloop
  endfacet
  facet normal 0 0 1
    outer loop
      vertex -12.3521 20.2684 1.5
      vertex -22.5 22.5 1.5
      vertex -12.7863 20.1816 1.5
    endloop
  endfacet
  facet normal 0 0 1
    outer loop
      vertex -11.8808 20.3204 1.5
      vertex -22.5 22.5 1.5
      vertex -12.3521 20.2684 1.5
    endloop
  endfacet
  facet normal 0 0 1
    outer loop
      vertex -11.3725 20.3377 1.5
      vertex -22.5 22.5 1.5
      vertex -11.8808 20.3204 1.5
    endloop
  endfacet
  facet normal -0 0 1
    outer loop
      vertex 17.5947 -16.7004 1.5
      vertex 22.5 -22.5 1.5
      vertex 17.6135 -16.3042 1.5
    endloop
  endfacet
  facet normal -0 0 1
    outer loop
      vertex 17.5383 -17.0725 1.5
      vertex 22.5 -22.5 1.5
      vertex 17.5947 -16.7004 1.5
    endloop
  endfacet
  facet normal -0 0 1
    outer loop
      vertex 17.4442 -17.4204 1.5
      vertex 22.5 -22.5 1.5
      vertex 17.5383 -17.0725 1.5
    endloop
  endfacet
  facet normal -0 0 1
    outer loop
      vertex 17.3125 -17.7441 1.5
      vertex 22.5 -22.5 1.5
      vertex 17.4442 -17.4204 1.5
    endloop
  endfacet
  facet normal -0 0 1
    outer loop
      vertex 17.1431 -18.0436 1.5
      vertex 22.5 -22.5 1.5
      vertex 17.3125 -17.7441 1.5
    endloop
  endfacet
  facet normal -0 0 1
    outer loop
      vertex 16.9361 -18.319 1.5
      vertex 22.5 -22.5 1.5
      vertex 17.1431 -18.0436 1.5
    endloop
  endfacet
  facet normal -0 0 1
    outer loop
      vertex 16.6915 -18.5702 1.5
      vertex 22.5 -22.5 1.5
      vertex 16.9361 -18.319 1.5
    endloop
  endfacet
  facet normal -0 0 1
    outer loop
      vertex 16.4087 -18.792 1.5
      vertex 22.5 -22.5 1.5
      vertex 16.6915 -18.5702 1.5
    endloop
  endfacet
  facet normal -0 0 1
    outer loop
      vertex 16.0872 -18.9797 1.5
      vertex 22.5 -22.5 1.5
      vertex 16.4087 -18.792 1.5
    endloop
  endfacet
  facet normal -0 0 1
    outer loop
      vertex 15.7269 -19.1333 1.5
      vertex 22.5 -22.5 1.5
      vertex 16.0872 -18.9797 1.5
    endloop
  endfacet
  facet normal -0 0 1
    outer loop
      vertex 15.3279 -19.2527 1.5
      vertex 22.5 -22.5 1.5
      vertex 15.7269 -19.1333 1.5
    endloop
  endfacet
  facet normal -0 0 1
    outer loop
      vertex 14.8902 -19.338 1.5
      vertex 22.5 -22.5 1.5
      vertex 15.3279 -19.2527 1.5
    endloop
  endfacet
  facet normal -0 0 1
    outer loop
      vertex 14.4137 -19.3892 1.5
      vertex 22.5 -22.5 1.5
      vertex 14.8902 -19.338 1.5
    endloop
  endfacet
  facet normal -0 0 1
    outer loop
      vertex 13.8985 -19.4062 1.5
      vertex 22.5 -22.5 1.5
      vertex 14.4137 -19.3892 1.5
    endloop
  endfacet
  facet normal -0 0 1
    outer loop
      vertex -11.9155 -19.4062 1.5
      vertex 22.5 -22.5 1.5
      vertex 13.8985 -19.4062 1.5
    endloop
  endfacet
  facet normal 0 0 1
    outer loop
      vertex -22.5 -22.5 1.5
      vertex -11.9155 -19.4062 1.5
      vertex -12.6403 -19.3822 1.5
    endloop
  endfacet
  facet normal 0 0 1
    outer loop
      vertex -17.198 -14.8883 1.5
      vertex -22.5 -22.5 1.5
      vertex -17.2025 -15.0792 1.5
    endloop
  endfacet
  facet normal 0 0 1
    outer loop
      vertex -11.9155 -19.4062 1.5
      vertex -22.5 -22.5 1.5
      vertex 22.5 -22.5 1.5
    endloop
  endfacet
  facet normal 0 0 1
    outer loop
      vertex -13.3121 -19.3102 1.5
      vertex -22.5 -22.5 1.5
      vertex -12.6403 -19.3822 1.5
    endloop
  endfacet
  facet normal 0 0 1
    outer loop
      vertex -13.9308 -19.1902 1.5
      vertex -22.5 -22.5 1.5
      vertex -13.3121 -19.3102 1.5
    endloop
  endfacet
  facet normal 0 0 1
    outer loop
      vertex -14.4964 -19.0222 1.5
      vertex -22.5 -22.5 1.5
      vertex -13.9308 -19.1902 1.5
    endloop
  endfacet
  facet normal 0 0 1
    outer loop
      vertex -15.0088 -18.8062 1.5
      vertex -22.5 -22.5 1.5
      vertex -14.4964 -19.0222 1.5
    endloop
  endfacet
  facet normal 0 0 1
    outer loop
      vertex -15.4682 -18.5422 1.5
      vertex -22.5 -22.5 1.5
      vertex -15.0088 -18.8062 1.5
    endloop
  endfacet
  facet normal 0 0 1
    outer loop
      vertex -15.8745 -18.2302 1.5
      vertex -22.5 -22.5 1.5
      vertex -15.4682 -18.5422 1.5
    endloop
  endfacet
  facet normal 0 0 1
    outer loop
      vertex -16.2268 -17.8777 1.5
      vertex -22.5 -22.5 1.5
      vertex -15.8745 -18.2302 1.5
    endloop
  endfacet
  facet normal 0 0 1
    outer loop
      vertex -16.5249 -17.4926 1.5
      vertex -22.5 -22.5 1.5
      vertex -16.2268 -17.8777 1.5
    endloop
  endfacet
  facet normal 0 0 1
    outer loop
      vertex -16.7688 -17.075 1.5
      vertex -22.5 -22.5 1.5
      vertex -16.5249 -17.4926 1.5
    endloop
  endfacet
  facet normal 0 0 1
    outer loop
      vertex -16.9585 -16.6248 1.5
      vertex -22.5 -22.5 1.5
      vertex -16.7688 -17.075 1.5
    endloop
  endfacet
  facet normal 0 0 1
    outer loop
      vertex -17.094 -16.1422 1.5
      vertex -22.5 -22.5 1.5
      vertex -16.9585 -16.6248 1.5
    endloop
  endfacet
  facet normal 0 0 1
    outer loop
      vertex -17.1754 -15.627 1.5
      vertex -22.5 -22.5 1.5
      vertex -17.094 -16.1422 1.5
    endloop
  endfacet
  facet normal 0 0 1
    outer loop
      vertex -17.2025 -15.0792 1.5
      vertex -22.5 -22.5 1.5
      vertex -17.1754 -15.627 1.5
    endloop
  endfacet
  facet normal 0 0 1
    outer loop
      vertex 15.5748 15.2097 1.5
      vertex 22.5 22.5 1.5
      vertex 15.6196 15.7177 1.5
    endloop
  endfacet
  facet normal 0 0 1
    outer loop
      vertex 15.5001 14.7337 1.5
      vertex 22.5 22.5 1.5
      vertex 15.5748 15.2097 1.5
    endloop
  endfacet
  facet normal 0 0 1
    outer loop
      vertex 15.3955 14.2897 1.5
      vertex 22.5 22.5 1.5
      vertex 15.5001 14.7337 1.5
    endloop
  endfacet
  facet normal 0 0 1
    outer loop
      vertex 15.2611 13.8777 1.5
      vertex 22.5 22.5 1.5
      vertex 15.3955 14.2897 1.5
    endloop
  endfacet
  facet normal 0 0 1
    outer loop
      vertex 15.0967 13.4977 1.5
      vertex 22.5 22.5 1.5
      vertex 15.2611 13.8777 1.5
    endloop
  endfacet
  facet normal 0 0 1
    outer loop
      vertex 16.9361 -14.3913 1.5
      vertex 14.3625 12.3689 1.5
      vertex 16.6915 -14.1592 1.5
    endloop
  endfacet
  facet normal -0 0 1
    outer loop
      vertex 14.0011 11.8907 1.5
      vertex 16.6915 -14.1592 1.5
      vertex 14.3625 12.3689 1.5
    endloop
  endfacet
  facet normal -0 0 1
    outer loop
      vertex 13.5788 11.3542 1.5
      vertex 16.6915 -14.1592 1.5
      vertex 14.0011 11.8907 1.5
    endloop
  endfacet
  facet normal 0 0 1
    outer loop
      vertex 16.6915 -14.1592 1.5
      vertex 13.5788 11.3542 1.5
      vertex 16.4087 -13.9552 1.5
    endloop
  endfacet
  facet normal -0 0 1
    outer loop
      vertex 13.0956 10.7591 1.5
      vertex 16.4087 -13.9552 1.5
      vertex 13.5788 11.3542 1.5
    endloop
  endfacet
  facet normal -0 0 1
    outer loop
      vertex 12.5515 10.1057 1.5
      vertex 16.4087 -13.9552 1.5
      vertex 13.0956 10.7591 1.5
    endloop
  endfacet
  facet normal -0 0 1
    outer loop
      vertex 11.9465 9.39374 1.5
      vertex 16.4087 -13.9552 1.5
      vertex 12.5515 10.1057 1.5
    endloop
  endfacet
  facet normal 0 0 1
    outer loop
      vertex 16.4087 -13.9552 1.5
      vertex 11.9465 9.39374 1.5
      vertex 16.0872 -13.7826 1.5
    endloop
  endfacet
  facet normal 0 0 1
    outer loop
      vertex 16.0872 -13.7826 1.5
      vertex 11.9465 9.39374 1.5
      vertex 15.7269 -13.6413 1.5
    endloop
  endfacet
  facet normal 0 0 1
    outer loop
      vertex 15.7269 -13.6413 1.5
      vertex 11.9465 9.39374 1.5
      vertex 15.3279 -13.5315 1.5
    endloop
  endfacet
  facet normal 0 0 1
    outer loop
      vertex 15.3279 -13.5315 1.5
      vertex 11.9465 9.39374 1.5
      vertex 14.8902 -13.453 1.5
    endloop
  endfacet
  facet normal 0 0 1
    outer loop
      vertex 14.8902 -13.453 1.5
      vertex 11.9465 9.39374 1.5
      vertex 14.4137 -13.4059 1.5
    endloop
  endfacet
  facet normal 0 0 1
    outer loop
      vertex 14.4137 -13.4059 1.5
      vertex 11.9465 9.39374 1.5
      vertex 13.8985 -13.3902 1.5
    endloop
  endfacet
  facet normal 0 0 1
    outer loop
      vertex 13.8985 -13.3902 1.5
      vertex 11.9465 9.39374 1.5
      vertex -7.14246 -13.3902 1.5
    endloop
  endfacet
  facet normal -0 0 1
    outer loop
      vertex -11.3725 14.3217 1.5
      vertex -14.2465 -10.1572 1.5
      vertex 6.17053 14.3217 1.5
    endloop
  endfacet
  facet normal 0 0 1
    outer loop
      vertex -11.8808 14.3383 1.5
      vertex -14.2465 -10.1572 1.5
      vertex -11.3725 14.3217 1.5
    endloop
  endfacet
  facet normal 0 0 1
    outer loop
      vertex -12.3521 14.3878 1.5
      vertex -14.2465 -10.1572 1.5
      vertex -11.8808 14.3383 1.5
    endloop
  endfacet
  facet normal 0 0 1
    outer loop
      vertex -12.7863 14.4703 1.5
      vertex -14.2465 -10.1572 1.5
      vertex -12.3521 14.3878 1.5
    endloop
  endfacet
  facet normal 0 0 1
    outer loop
      vertex -13.1834 14.5859 1.5
      vertex -14.2465 -10.1572 1.5
      vertex -12.7863 14.4703 1.5
    endloop
  endfacet
  facet normal 0 0 1
    outer loop
      vertex -13.5435 14.7345 1.5
      vertex -14.2465 -10.1572 1.5
      vertex -13.1834 14.5859 1.5
    endloop
  endfacet
  facet normal 0 0 1
    outer loop
      vertex -13.8665 14.9161 1.5
      vertex -14.2465 -10.1572 1.5
      vertex -13.5435 14.7345 1.5
    endloop
  endfacet
  facet normal 0 0 1
    outer loop
      vertex -14.1525 15.1307 1.5
      vertex -14.2465 -10.1572 1.5
      vertex -13.8665 14.9161 1.5
    endloop
  endfacet
  facet normal 0 0 1
    outer loop
      vertex -14.4005 15.3726 1.5
      vertex -14.2465 -10.1572 1.5
      vertex -14.1525 15.1307 1.5
    endloop
  endfacet
  facet normal 0 0 1
    outer loop
      vertex -14.6104 15.6354 1.5
      vertex -14.2465 -10.1572 1.5
      vertex -14.4005 15.3726 1.5
    endloop
  endfacet
  facet normal 0 0 1
    outer loop
      vertex -15.7342 -11.9143 1.5
      vertex -14.6104 15.6354 1.5
      vertex -14.7822 15.9191 1.5
    endloop
  endfacet
  facet normal 0 0 1
    outer loop
      vertex -15.7342 -11.9143 1.5
      vertex -14.7822 15.9191 1.5
      vertex -14.9157 16.2236 1.5
    endloop
  endfacet
  facet normal 0 0 1
    outer loop
      vertex -15.7342 -11.9143 1.5
      vertex -14.9157 16.2236 1.5
      vertex -15.0111 16.5491 1.5
    endloop
  endfacet
  facet normal 0 0 1
    outer loop
      vertex -15.7342 -11.9143 1.5
      vertex -15.0111 16.5491 1.5
      vertex -15.0684 16.8955 1.5
    endloop
  endfacet
  facet normal 0 0 1
    outer loop
      vertex -22.5 22.5 1.5
      vertex -15.0684 16.8955 1.5
      vertex -15.0874 17.2627 1.5
    endloop
  endfacet
  facet normal 0 0 1
    outer loop
      vertex -14.6104 15.6354 1.5
      vertex -15.3855 -11.4962 1.5
      vertex -14.2465 -10.1572 1.5
    endloop
  endfacet
  facet normal 1 -0 0
    outer loop
      vertex 22.5 -22.5 1.5
      vertex 22.5 22.5 0.5
      vertex 22.5 22.5 1.5
    endloop
  endfacet
  facet normal 1 0 0
    outer loop
      vertex 22.5 22.5 0.5
      vertex 22.5 -22.5 1.5
      vertex 22.5 -22.5 0.5
    endloop
  endfacet
  facet normal 0 1 -0
    outer loop
      vertex 22.5 22.5 0.5
      vertex -22.5 22.5 1.5
      vertex 22.5 22.5 1.5
    endloop
  endfacet
  facet normal 0 1 0
    outer loop
      vertex -22.5 22.5 1.5
      vertex 22.5 22.5 0.5
      vertex -22.5 22.5 0.5
    endloop
  endfacet
  facet normal 0 0 -1
    outer loop
      vertex -22.5 -22.5 0.5
      vertex 22.5 22.5 0.5
      vertex 22.5 -22.5 0.5
    endloop
  endfacet
  facet normal -0 0 -1
    outer loop
      vertex 22.5 22.5 0.5
      vertex -22.5 -22.5 0.5
      vertex -22.5 22.5 0.5
    endloop
  endfacet
  facet normal 0 -1 0
    outer loop
      vertex -22.5 -22.5 0.5
      vertex 22.5 -22.5 1.5
      vertex -22.5 -22.5 1.5
    endloop
  endfacet
  facet normal 0 -1 -0
    outer loop
      vertex 22.5 -22.5 1.5
      vertex -22.5 -22.5 0.5
      vertex 22.5 -22.5 0.5
    endloop
  endfacet
  facet normal -0 0 1
    outer loop
      vertex -11.3725 20.3377 7
      vertex 6.17053 14.3217 7
      vertex 11.2415 20.3377 7
    endloop
  endfacet
  facet normal 0 0 1
    outer loop
      vertex -11.3725 20.3377 7
      vertex -11.3725 14.3217 7
      vertex 6.17053 14.3217 7
    endloop
  endfacet
  facet normal -0 0 1
    outer loop
      vertex -11.8808 20.3204 7
      vertex -11.3725 14.3217 7
      vertex -11.3725 20.3377 7
    endloop
  endfacet
  facet normal 0 0 1
    outer loop
      vertex -11.8808 20.3204 7
      vertex -11.8808 14.3383 7
      vertex -11.3725 14.3217 7
    endloop
  endfacet
  facet normal -0 0 1
    outer loop
      vertex -12.3521 20.2684 7
      vertex -11.8808 14.3383 7
      vertex -11.8808 20.3204 7
    endloop
  endfacet
  facet normal 0 0 1
    outer loop
      vertex -12.3521 20.2684 7
      vertex -12.3521 14.3878 7
      vertex -11.8808 14.3383 7
    endloop
  endfacet
  facet normal -0 0 1
    outer loop
      vertex -12.7863 20.1816 7
      vertex -12.3521 14.3878 7
      vertex -12.3521 20.2684 7
    endloop
  endfacet
  facet normal 0 0 1
    outer loop
      vertex -12.7863 20.1816 7
      vertex -12.7863 14.4703 7
      vertex -12.3521 14.3878 7
    endloop
  endfacet
  facet normal -0 0 1
    outer loop
      vertex -13.1834 20.0602 7
      vertex -12.7863 14.4703 7
      vertex -12.7863 20.1816 7
    endloop
  endfacet
  facet normal 0 0 1
    outer loop
      vertex -13.1834 20.0602 7
      vertex -13.1834 14.5859 7
      vertex -12.7863 14.4703 7
    endloop
  endfacet
  facet normal 0 0 1
    outer loop
      vertex -15.0684 17.6449 7
      vertex -13.1834 20.0602 7
      vertex -13.5435 19.9041 7
    endloop
  endfacet
  facet normal 0 0 1
    outer loop
      vertex -13.1834 20.0602 7
      vertex -15.0684 17.6449 7
      vertex -13.1834 14.5859 7
    endloop
  endfacet
  facet normal 0 0 1
    outer loop
      vertex -15.0684 17.6449 7
      vertex -13.5435 19.9041 7
      vertex -13.8665 19.7133 7
    endloop
  endfacet
  facet normal -0 0 1
    outer loop
      vertex -15.0874 17.2627 7
      vertex -13.1834 14.5859 7
      vertex -15.0684 17.6449 7
    endloop
  endfacet
  facet normal 0 0 1
    outer loop
      vertex -15.0684 17.6449 7
      vertex -13.8665 19.7133 7
      vertex -14.1525 19.4877 7
    endloop
  endfacet
  facet normal 0 0 1
    outer loop
      vertex -13.1834 14.5859 7
      vertex -15.0874 17.2627 7
      vertex -13.5435 14.7345 7
    endloop
  endfacet
  facet normal 0 0 1
    outer loop
      vertex -15.0684 17.6449 7
      vertex -14.1525 19.4877 7
      vertex -14.4005 19.2342 7
    endloop
  endfacet
  facet normal -0 -0 1
    outer loop
      vertex -15.0684 16.8955 7
      vertex -13.5435 14.7345 7
      vertex -15.0874 17.2627 7
    endloop
  endfacet
  facet normal 0 0 1
    outer loop
      vertex -15.0111 18.0056 7
      vertex -14.4005 19.2342 7
      vertex -14.6104 18.9592 7
    endloop
  endfacet
  facet normal 0 0 1
    outer loop
      vertex -13.5435 14.7345 7
      vertex -15.0684 16.8955 7
      vertex -13.8665 14.9161 7
    endloop
  endfacet
  facet normal 0 0 1
    outer loop
      vertex -15.0111 18.0056 7
      vertex -14.6104 18.9592 7
      vertex -14.7822 18.6627 7
    endloop
  endfacet
  facet normal 0 0 1
    outer loop
      vertex -13.8665 14.9161 7
      vertex -15.0684 16.8955 7
      vertex -14.1525 15.1307 7
    endloop
  endfacet
  facet normal 0 0 1
    outer loop
      vertex -15.0111 18.0056 7
      vertex -14.7822 18.6627 7
      vertex -14.9157 18.3449 7
    endloop
  endfacet
  facet normal 0 0 1
    outer loop
      vertex -14.4005 19.2342 7
      vertex -15.0111 18.0056 7
      vertex -15.0684 17.6449 7
    endloop
  endfacet
  facet normal 0 0 1
    outer loop
      vertex -14.1525 15.1307 7
      vertex -15.0684 16.8955 7
      vertex -14.4005 15.3726 7
    endloop
  endfacet
  facet normal 0 0 1
    outer loop
      vertex -14.4005 15.3726 7
      vertex -15.0684 16.8955 7
      vertex -14.6104 15.6354 7
    endloop
  endfacet
  facet normal 0 0 1
    outer loop
      vertex -14.6104 15.6354 7
      vertex -15.0684 16.8955 7
      vertex -14.7822 15.9191 7
    endloop
  endfacet
  facet normal 0 0 1
    outer loop
      vertex -14.9157 16.2236 7
      vertex -15.0684 16.8955 7
      vertex -15.0111 16.5491 7
    endloop
  endfacet
  facet normal 0 0 1
    outer loop
      vertex -14.7822 15.9191 7
      vertex -15.0684 16.8955 7
      vertex -14.9157 16.2236 7
    endloop
  endfacet
  facet normal 0 0 1
    outer loop
      vertex 11.2415 20.3377 7
      vertex 15.6196 15.7177 7
      vertex 15.6345 16.2577 7
    endloop
  endfacet
  facet normal 0 0 1
    outer loop
      vertex 12.407 20.2545 7
      vertex 15.6345 16.2577 7
      vertex 15.5449 17.3402 7
    endloop
  endfacet
  facet normal 0 0 1
    outer loop
      vertex 11.2415 20.3377 7
      vertex 15.6345 16.2577 7
      vertex 12.407 20.2545 7
    endloop
  endfacet
  facet normal 0 0 1
    outer loop
      vertex 15.5748 15.2097 7
      vertex 11.2415 20.3377 7
      vertex 15.5001 14.7337 7
    endloop
  endfacet
  facet normal 0 0 1
    outer loop
      vertex 13.3932 20.0047 7
      vertex 15.5449 17.3402 7
      vertex 15.2759 18.2561 7
    endloop
  endfacet
  facet normal 0 0 1
    outer loop
      vertex 15.6196 15.7177 7
      vertex 11.2415 20.3377 7
      vertex 15.5748 15.2097 7
    endloop
  endfacet
  facet normal 0 0 1
    outer loop
      vertex 15.5001 14.7337 7
      vertex 11.2415 20.3377 7
      vertex 15.3955 14.2897 7
    endloop
  endfacet
  facet normal 0 -0 1
    outer loop
      vertex 14.9025 13.1497 7
      vertex 15.3955 14.2897 7
      vertex 11.2415 20.3377 7
    endloop
  endfacet
  facet normal 0 0 1
    outer loop
      vertex 14.2001 19.5883 7
      vertex 15.2759 18.2561 7
      vertex 14.8277 19.0055 7
    endloop
  endfacet
  facet normal 0 0 1
    outer loop
      vertex 15.3955 14.2897 7
      vertex 14.9025 13.1497 7
      vertex 15.2611 13.8777 7
    endloop
  endfacet
  facet normal 0 0 1
    outer loop
      vertex 15.2611 13.8777 7
      vertex 14.9025 13.1497 7
      vertex 15.0967 13.4977 7
    endloop
  endfacet
  facet normal 0 0 1
    outer loop
      vertex 15.2759 18.2561 7
      vertex 14.2001 19.5883 7
      vertex 13.3932 20.0047 7
    endloop
  endfacet
  facet normal 0 0 1
    outer loop
      vertex 14.9025 13.1497 7
      vertex 11.2415 20.3377 7
      vertex 14.6629 12.7885 7
    endloop
  endfacet
  facet normal -0 0 1
    outer loop
      vertex 6.17053 14.3217 7
      vertex 14.6629 12.7885 7
      vertex 11.2415 20.3377 7
    endloop
  endfacet
  facet normal 0 0 1
    outer loop
      vertex 15.5449 17.3402 7
      vertex 13.3932 20.0047 7
      vertex 12.407 20.2545 7
    endloop
  endfacet
  facet normal 0 0 1
    outer loop
      vertex 14.6629 12.7885 7
      vertex 6.17053 14.3217 7
      vertex 14.3625 12.3689 7
    endloop
  endfacet
  facet normal 0 0 1
    outer loop
      vertex 14.3625 12.3689 7
      vertex 6.17053 14.3217 7
      vertex 14.0011 11.8907 7
    endloop
  endfacet
  facet normal 0 0 1
    outer loop
      vertex 14.0011 11.8907 7
      vertex 6.17053 14.3217 7
      vertex 13.5788 11.3542 7
    endloop
  endfacet
  facet normal 0 0 1
    outer loop
      vertex 13.5788 11.3542 7
      vertex 6.17053 14.3217 7
      vertex 13.0956 10.7591 7
    endloop
  endfacet
  facet normal 0 0 1
    outer loop
      vertex 13.0956 10.7591 7
      vertex 6.17053 14.3217 7
      vertex 12.5515 10.1057 7
    endloop
  endfacet
  facet normal 0 0 1
    outer loop
      vertex 12.5515 10.1057 7
      vertex 6.17053 14.3217 7
      vertex 11.9465 9.39374 7
    endloop
  endfacet
  facet normal 0 0 1
    outer loop
      vertex 6.17053 14.3217 7
      vertex -7.14246 -13.3902 7
      vertex 11.9465 9.39374 7
    endloop
  endfacet
  facet normal -0 0 1
    outer loop
      vertex -14.2465 -10.1572 7
      vertex -7.14246 -13.3902 7
      vertex 6.17053 14.3217 7
    endloop
  endfacet
  facet normal -0 0 1
    outer loop
      vertex -15.3855 -11.4962 7
      vertex -7.14246 -13.3902 7
      vertex -14.2465 -10.1572 7
    endloop
  endfacet
  facet normal 0 0 1
    outer loop
      vertex -7.14246 -13.3902 7
      vertex -15.3855 -11.4962 7
      vertex -11.9155 -19.4062 7
    endloop
  endfacet
  facet normal -0 0 1
    outer loop
      vertex -15.7342 -11.9143 7
      vertex -11.9155 -19.4062 7
      vertex -15.3855 -11.4962 7
    endloop
  endfacet
  facet normal 0 0 1
    outer loop
      vertex -11.9155 -19.4062 7
      vertex -15.7342 -11.9143 7
      vertex -12.6403 -19.3822 7
    endloop
  endfacet
  facet normal -0 0 1
    outer loop
      vertex -15.8911 -12.1068 7
      vertex -12.6403 -19.3822 7
      vertex -15.7342 -11.9143 7
    endloop
  endfacet
  facet normal 0 0 1
    outer loop
      vertex -12.6403 -19.3822 7
      vertex -15.8911 -12.1068 7
      vertex -13.3121 -19.3102 7
    endloop
  endfacet
  facet normal -0 0 1
    outer loop
      vertex -16.0364 -12.2884 7
      vertex -13.3121 -19.3102 7
      vertex -15.8911 -12.1068 7
    endloop
  endfacet
  facet normal -0 0 1
    outer loop
      vertex -16.17 -12.459 7
      vertex -13.3121 -19.3102 7
      vertex -16.0364 -12.2884 7
    endloop
  endfacet
  facet normal 0 0 1
    outer loop
      vertex -13.3121 -19.3102 7
      vertex -16.17 -12.459 7
      vertex -13.9308 -19.1902 7
    endloop
  endfacet
  facet normal -0 0 1
    outer loop
      vertex -16.2921 -12.6186 7
      vertex -13.9308 -19.1902 7
      vertex -16.17 -12.459 7
    endloop
  endfacet
  facet normal 0 0 1
    outer loop
      vertex -13.9308 -19.1902 7
      vertex -16.2921 -12.6186 7
      vertex -14.4964 -19.0222 7
    endloop
  endfacet
  facet normal -0 0 1
    outer loop
      vertex -16.4025 -12.7672 7
      vertex -14.4964 -19.0222 7
      vertex -16.2921 -12.6186 7
    endloop
  endfacet
  facet normal -0 0 1
    outer loop
      vertex -16.504 -12.9115 7
      vertex -14.4964 -19.0222 7
      vertex -16.4025 -12.7672 7
    endloop
  endfacet
  facet normal -0 0 1
    outer loop
      vertex -17.1754 -15.627 7
      vertex -14.4964 -19.0222 7
      vertex -16.504 -12.9115 7
    endloop
  endfacet
  facet normal 0 0 1
    outer loop
      vertex -14.4964 -19.0222 7
      vertex -17.1754 -15.627 7
      vertex -15.0088 -18.8062 7
    endloop
  endfacet
  facet normal -0 -0 1
    outer loop
      vertex -17.094 -16.1422 7
      vertex -15.0088 -18.8062 7
      vertex -17.1754 -15.627 7
    endloop
  endfacet
  facet normal 0 0 1
    outer loop
      vertex -15.0088 -18.8062 7
      vertex -17.094 -16.1422 7
      vertex -15.4682 -18.5422 7
    endloop
  endfacet
  facet normal 0 0 1
    outer loop
      vertex -15.8745 -18.2302 7
      vertex -17.094 -16.1422 7
      vertex -16.2268 -17.8777 7
    endloop
  endfacet
  facet normal 0 0 1
    outer loop
      vertex -17.1754 -15.627 7
      vertex -16.504 -12.9115 7
      vertex -16.5994 -13.0585 7
    endloop
  endfacet
  facet normal 0 0 1
    outer loop
      vertex -17.1754 -15.627 7
      vertex -16.5994 -13.0585 7
      vertex -16.6888 -13.2083 7
    endloop
  endfacet
  facet normal 0 0 1
    outer loop
      vertex -16.2268 -17.8777 7
      vertex -17.094 -16.1422 7
      vertex -16.5249 -17.4926 7
    endloop
  endfacet
  facet normal 0 0 1
    outer loop
      vertex -17.1754 -15.627 7
      vertex -16.6888 -13.2083 7
      vertex -16.7721 -13.3609 7
    endloop
  endfacet
  facet normal 0 0 1
    outer loop
      vertex -17.1754 -15.627 7
      vertex -16.7721 -13.3609 7
      vertex -16.8493 -13.5162 7
    endloop
  endfacet
  facet normal 0 0 1
    outer loop
      vertex -17.1754 -15.627 7
      vertex -16.8493 -13.5162 7
      vertex -16.9204 -13.6743 7
    endloop
  endfacet
  facet normal 0 0 1
    outer loop
      vertex -16.5249 -17.4926 7
      vertex -17.094 -16.1422 7
      vertex -16.7688 -17.075 7
    endloop
  endfacet
  facet normal 0 0 1
    outer loop
      vertex -17.1754 -15.627 7
      vertex -16.9204 -13.6743 7
      vertex -16.9855 -13.8352 7
    endloop
  endfacet
  facet normal 0 0 1
    outer loop
      vertex -17.1754 -15.627 7
      vertex -16.9855 -13.8352 7
      vertex -17.043 -13.9997 7
    endloop
  endfacet
  facet normal 0 0 1
    outer loop
      vertex -17.1754 -15.627 7
      vertex -17.043 -13.9997 7
      vertex -17.0917 -14.1686 7
    endloop
  endfacet
  facet normal 0 0 1
    outer loop
      vertex -16.7688 -17.075 7
      vertex -17.094 -16.1422 7
      vertex -16.9585 -16.6248 7
    endloop
  endfacet
  facet normal 0 0 1
    outer loop
      vertex -17.1754 -15.627 7
      vertex -17.0917 -14.1686 7
      vertex -17.1316 -14.3419 7
    endloop
  endfacet
  facet normal 0 0 1
    outer loop
      vertex -17.1754 -15.627 7
      vertex -17.1316 -14.3419 7
      vertex -17.1626 -14.5197 7
    endloop
  endfacet
  facet normal 0 0 1
    outer loop
      vertex -15.4682 -18.5422 7
      vertex -17.094 -16.1422 7
      vertex -15.8745 -18.2302 7
    endloop
  endfacet
  facet normal -0 0 1
    outer loop
      vertex -17.1847 -14.7018 7
      vertex -17.1754 -15.627 7
      vertex -17.1626 -14.5197 7
    endloop
  endfacet
  facet normal -0 0 1
    outer loop
      vertex -17.198 -14.8883 7
      vertex -17.1754 -15.627 7
      vertex -17.1847 -14.7018 7
    endloop
  endfacet
  facet normal 0 0 1
    outer loop
      vertex -17.1754 -15.627 7
      vertex -17.198 -14.8883 7
      vertex -17.2025 -15.0792 7
    endloop
  endfacet
  facet normal 0 0 1
    outer loop
      vertex 15.7269 -13.6413 7
      vertex 17.6135 -16.3042 7
      vertex 17.5947 -15.9235 7
    endloop
  endfacet
  facet normal 0 0 1
    outer loop
      vertex 16.0872 -13.7826 7
      vertex 17.5947 -15.9235 7
      vertex 17.5383 -15.5675 7
    endloop
  endfacet
  facet normal 0 0 1
    outer loop
      vertex 15.3279 -13.5315 7
      vertex 17.6135 -16.3042 7
      vertex 15.7269 -13.6413 7
    endloop
  endfacet
  facet normal 0 0 1
    outer loop
      vertex 16.0872 -13.7826 7
      vertex 17.5383 -15.5675 7
      vertex 17.4442 -15.2363 7
    endloop
  endfacet
  facet normal 0 0 1
    outer loop
      vertex 17.6135 -16.3042 7
      vertex 15.3279 -13.5315 7
      vertex 17.5947 -16.7004 7
    endloop
  endfacet
  facet normal 0 0 1
    outer loop
      vertex 16.0872 -13.7826 7
      vertex 17.4442 -15.2363 7
      vertex 17.3125 -14.9299 7
    endloop
  endfacet
  facet normal 0 -0 1
    outer loop
      vertex 15.7269 -19.1333 7
      vertex 17.5947 -16.7004 7
      vertex 15.3279 -13.5315 7
    endloop
  endfacet
  facet normal 0 0 1
    outer loop
      vertex 16.0872 -13.7826 7
      vertex 17.3125 -14.9299 7
      vertex 17.1431 -14.6482 7
    endloop
  endfacet
  facet normal 0 0 1
    outer loop
      vertex 17.5947 -15.9235 7
      vertex 16.0872 -13.7826 7
      vertex 15.7269 -13.6413 7
    endloop
  endfacet
  facet normal 0 0 1
    outer loop
      vertex 16.0872 -13.7826 7
      vertex 17.1431 -14.6482 7
      vertex 16.9361 -14.3913 7
    endloop
  endfacet
  facet normal 0 0 1
    outer loop
      vertex 17.5947 -16.7004 7
      vertex 15.7269 -19.1333 7
      vertex 17.5383 -17.0725 7
    endloop
  endfacet
  facet normal 0 0 1
    outer loop
      vertex 16.4087 -13.9552 7
      vertex 16.9361 -14.3913 7
      vertex 16.6915 -14.1592 7
    endloop
  endfacet
  facet normal 0 0 1
    outer loop
      vertex 16.0872 -13.7826 7
      vertex 16.9361 -14.3913 7
      vertex 16.4087 -13.9552 7
    endloop
  endfacet
  facet normal 0 0 1
    outer loop
      vertex 17.5383 -17.0725 7
      vertex 15.7269 -19.1333 7
      vertex 17.4442 -17.4204 7
    endloop
  endfacet
  facet normal 0 0 1
    outer loop
      vertex 17.4442 -17.4204 7
      vertex 16.0872 -18.9797 7
      vertex 17.3125 -17.7441 7
    endloop
  endfacet
  facet normal 0 0 1
    outer loop
      vertex 17.1431 -18.0436 7
      vertex 16.0872 -18.9797 7
      vertex 16.9361 -18.319 7
    endloop
  endfacet
  facet normal 0 0 1
    outer loop
      vertex 16.9361 -18.319 7
      vertex 16.0872 -18.9797 7
      vertex 16.6915 -18.5702 7
    endloop
  endfacet
  facet normal 0 0 1
    outer loop
      vertex 16.6915 -18.5702 7
      vertex 16.0872 -18.9797 7
      vertex 16.4087 -18.792 7
    endloop
  endfacet
  facet normal 0 0 1
    outer loop
      vertex 17.3125 -17.7441 7
      vertex 16.0872 -18.9797 7
      vertex 17.1431 -18.0436 7
    endloop
  endfacet
  facet normal 0 -0 1
    outer loop
      vertex 16.0872 -18.9797 7
      vertex 17.4442 -17.4204 7
      vertex 15.7269 -19.1333 7
    endloop
  endfacet
  facet normal 0 0 1
    outer loop
      vertex 15.3279 -13.5315 7
      vertex 15.3279 -19.2527 7
      vertex 15.7269 -19.1333 7
    endloop
  endfacet
  facet normal 0 0 1
    outer loop
      vertex 14.8902 -13.453 7
      vertex 15.3279 -19.2527 7
      vertex 15.3279 -13.5315 7
    endloop
  endfacet
  facet normal 0 0 1
    outer loop
      vertex 14.8902 -13.453 7
      vertex 14.8902 -19.338 7
      vertex 15.3279 -19.2527 7
    endloop
  endfacet
  facet normal 0 0 1
    outer loop
      vertex 14.4137 -13.4059 7
      vertex 14.8902 -19.338 7
      vertex 14.8902 -13.453 7
    endloop
  endfacet
  facet normal 0 0 1
    outer loop
      vertex 14.4137 -13.4059 7
      vertex 14.4137 -19.3892 7
      vertex 14.8902 -19.338 7
    endloop
  endfacet
  facet normal 0 0 1
    outer loop
      vertex 13.8985 -13.3902 7
      vertex 14.4137 -19.3892 7
      vertex 14.4137 -13.4059 7
    endloop
  endfacet
  facet normal 0 0 1
    outer loop
      vertex 13.8985 -13.3902 7
      vertex 13.8985 -19.4062 7
      vertex 14.4137 -19.3892 7
    endloop
  endfacet
  facet normal -0 0 1
    outer loop
      vertex -7.14246 -13.3902 7
      vertex 13.8985 -19.4062 7
      vertex 13.8985 -13.3902 7
    endloop
  endfacet
  facet normal 0 0 1
    outer loop
      vertex 13.8985 -19.4062 7
      vertex -7.14246 -13.3902 7
      vertex -11.9155 -19.4062 7
    endloop
  endfacet
  facet normal 0.1068 -0.994281 0
    outer loop
      vertex 14.4137 -19.3892 1.5
      vertex 14.8902 -19.338 7
      vertex 14.4137 -19.3892 7
    endloop
  endfacet
  facet normal 0.1068 -0.994281 0
    outer loop
      vertex 14.8902 -19.338 7
      vertex 14.4137 -19.3892 1.5
      vertex 14.8902 -19.338 1.5
    endloop
  endfacet
  facet normal 0.191291 -0.981533 0
    outer loop
      vertex 14.8902 -19.338 1.5
      vertex 15.3279 -19.2527 7
      vertex 14.8902 -19.338 7
    endloop
  endfacet
  facet normal 0.191291 -0.981533 0
    outer loop
      vertex 15.3279 -19.2527 7
      vertex 14.8902 -19.338 1.5
      vertex 15.3279 -19.2527 1.5
    endloop
  endfacet
  facet normal 0.286719 -0.958015 0
    outer loop
      vertex 15.3279 -19.2527 1.5
      vertex 15.7269 -19.1333 7
      vertex 15.3279 -19.2527 7
    endloop
  endfacet
  facet normal 0.286719 -0.958015 0
    outer loop
      vertex 15.7269 -19.1333 7
      vertex 15.3279 -19.2527 1.5
      vertex 15.7269 -19.1333 1.5
    endloop
  endfacet
  facet normal 0.392122 -0.919913 0
    outer loop
      vertex 15.7269 -19.1333 1.5
      vertex 16.0872 -18.9797 7
      vertex 15.7269 -19.1333 7
    endloop
  endfacet
  facet normal 0.392122 -0.919913 0
    outer loop
      vertex 16.0872 -18.9797 7
      vertex 15.7269 -19.1333 1.5
      vertex 16.0872 -18.9797 1.5
    endloop
  endfacet
  facet normal 0.504085 -0.863654 0
    outer loop
      vertex 16.0872 -18.9797 1.5
      vertex 16.4087 -18.792 7
      vertex 16.0872 -18.9797 7
    endloop
  endfacet
  facet normal 0.504085 -0.863654 0
    outer loop
      vertex 16.4087 -18.792 7
      vertex 16.0872 -18.9797 1.5
      vertex 16.4087 -18.792 1.5
    endloop
  endfacet
  facet normal 0.617148 -0.786847 0
    outer loop
      vertex 16.4087 -18.792 1.5
      vertex 16.6915 -18.5702 7
      vertex 16.4087 -18.792 7
    endloop
  endfacet
  facet normal 0.617148 -0.786847 0
    outer loop
      vertex 16.6915 -18.5702 7
      vertex 16.4087 -18.792 1.5
      vertex 16.6915 -18.5702 1.5
    endloop
  endfacet
  facet normal 0.716465 -0.697623 0
    outer loop
      vertex 16.6915 -18.5702 7
      vertex 16.9361 -18.319 1.5
      vertex 16.9361 -18.319 7
    endloop
  endfacet
  facet normal 0.716465 -0.697623 0
    outer loop
      vertex 16.9361 -18.319 1.5
      vertex 16.6915 -18.5702 7
      vertex 16.6915 -18.5702 1.5
    endloop
  endfacet
  facet normal 0.799383 -0.600822 0
    outer loop
      vertex 16.9361 -18.319 7
      vertex 17.1431 -18.0436 1.5
      vertex 17.1431 -18.0436 7
    endloop
  endfacet
  facet normal 0.799383 -0.600822 0
    outer loop
      vertex 17.1431 -18.0436 1.5
      vertex 16.9361 -18.319 7
      vertex 16.9361 -18.319 1.5
    endloop
  endfacet
  facet normal 0.870521 -0.492132 0
    outer loop
      vertex 17.1431 -18.0436 7
      vertex 17.3125 -17.7441 1.5
      vertex 17.3125 -17.7441 7
    endloop
  endfacet
  facet normal 0.870521 -0.492132 0
    outer loop
      vertex 17.3125 -17.7441 1.5
      vertex 17.1431 -18.0436 7
      vertex 17.1431 -18.0436 1.5
    endloop
  endfacet
  facet normal 0.926262 -0.376879 0
    outer loop
      vertex 17.3125 -17.7441 7
      vertex 17.4442 -17.4204 1.5
      vertex 17.4442 -17.4204 7
    endloop
  endfacet
  facet normal 0.926262 -0.376879 0
    outer loop
      vertex 17.4442 -17.4204 1.5
      vertex 17.3125 -17.7441 7
      vertex 17.3125 -17.7441 1.5
    endloop
  endfacet
  facet normal 0.965317 -0.261082 0
    outer loop
      vertex 17.4442 -17.4204 7
      vertex 17.5383 -17.0725 1.5
      vertex 17.5383 -17.0725 7
    endloop
  endfacet
  facet normal 0.965317 -0.261082 0
    outer loop
      vertex 17.5383 -17.0725 1.5
      vertex 17.4442 -17.4204 7
      vertex 17.4442 -17.4204 1.5
    endloop
  endfacet
  facet normal 0.988688 -0.149988 0
    outer loop
      vertex 17.5383 -17.0725 7
      vertex 17.5947 -16.7004 1.5
      vertex 17.5947 -16.7004 7
    endloop
  endfacet
  facet normal 0.988688 -0.149988 0
    outer loop
      vertex 17.5947 -16.7004 1.5
      vertex 17.5383 -17.0725 7
      vertex 17.5383 -17.0725 1.5
    endloop
  endfacet
  facet normal 0.998874 -0.0474336 0
    outer loop
      vertex 17.5947 -16.7004 7
      vertex 17.6135 -16.3042 1.5
      vertex 17.6135 -16.3042 7
    endloop
  endfacet
  facet normal 0.998874 -0.0474336 0
    outer loop
      vertex 17.6135 -16.3042 1.5
      vertex 17.5947 -16.7004 7
      vertex 17.5947 -16.7004 1.5
    endloop
  endfacet
  facet normal 0.998781 0.0493527 0
    outer loop
      vertex 17.6135 -16.3042 7
      vertex 17.5947 -15.9235 1.5
      vertex 17.5947 -15.9235 7
    endloop
  endfacet
  facet normal 0.998781 0.0493527 0
    outer loop
      vertex 17.5947 -15.9235 1.5
      vertex 17.6135 -16.3042 7
      vertex 17.6135 -16.3042 1.5
    endloop
  endfacet
  facet normal 0.987663 0.156595 0
    outer loop
      vertex 17.5947 -15.9235 7
      vertex 17.5383 -15.5675 1.5
      vertex 17.5383 -15.5675 7
    endloop
  endfacet
  facet normal 0.987663 0.156595 0
    outer loop
      vertex 17.5383 -15.5675 1.5
      vertex 17.5947 -15.9235 7
      vertex 17.5947 -15.9235 1.5
    endloop
  endfacet
  facet normal 0.961941 0.273258 0
    outer loop
      vertex 17.5383 -15.5675 7
      vertex 17.4442 -15.2363 1.5
      vertex 17.4442 -15.2363 7
    endloop
  endfacet
  facet normal 0.961941 0.273258 0
    outer loop
      vertex 17.4442 -15.2363 1.5
      vertex 17.5383 -15.5675 7
      vertex 17.5383 -15.5675 1.5
    endloop
  endfacet
  facet normal 0.918723 0.394902 0
    outer loop
      vertex 17.4442 -15.2363 7
      vertex 17.3125 -14.9299 1.5
      vertex 17.3125 -14.9299 7
    endloop
  endfacet
  facet normal 0.918723 0.394902 0
    outer loop
      vertex 17.3125 -14.9299 1.5
      vertex 17.4442 -15.2363 7
      vertex 17.4442 -15.2363 1.5
    endloop
  endfacet
  facet normal 0.857017 0.515288 0
    outer loop
      vertex 17.3125 -14.9299 7
      vertex 17.1431 -14.6482 1.5
      vertex 17.1431 -14.6482 7
    endloop
  endfacet
  facet normal 0.857017 0.515288 0
    outer loop
      vertex 17.1431 -14.6482 1.5
      vertex 17.3125 -14.9299 7
      vertex 17.3125 -14.9299 1.5
    endloop
  endfacet
  facet normal 0.778675 0.627427 0
    outer loop
      vertex 17.1431 -14.6482 7
      vertex 16.9361 -14.3913 1.5
      vertex 16.9361 -14.3913 7
    endloop
  endfacet
  facet normal 0.778675 0.627427 0
    outer loop
      vertex 16.9361 -14.3913 1.5
      vertex 17.1431 -14.6482 7
      vertex 17.1431 -14.6482 1.5
    endloop
  endfacet
  facet normal 0.688311 0.725416 -0
    outer loop
      vertex 16.9361 -14.3913 1.5
      vertex 16.6915 -14.1592 7
      vertex 16.9361 -14.3913 7
    endloop
  endfacet
  facet normal 0.688311 0.725416 0
    outer loop
      vertex 16.6915 -14.1592 7
      vertex 16.9361 -14.3913 1.5
      vertex 16.6915 -14.1592 1.5
    endloop
  endfacet
  facet normal 0.585089 0.810969 -0
    outer loop
      vertex 16.6915 -14.1592 1.5
      vertex 16.4087 -13.9552 7
      vertex 16.6915 -14.1592 7
    endloop
  endfacet
  facet normal 0.585089 0.810969 0
    outer loop
      vertex 16.4087 -13.9552 7
      vertex 16.6915 -14.1592 1.5
      vertex 16.4087 -13.9552 1.5
    endloop
  endfacet
  facet normal 0.473015 0.881054 -0
    outer loop
      vertex 16.4087 -13.9552 1.5
      vertex 16.0872 -13.7826 7
      vertex 16.4087 -13.9552 7
    endloop
  endfacet
  facet normal 0.473015 0.881054 0
    outer loop
      vertex 16.0872 -13.7826 7
      vertex 16.4087 -13.9552 1.5
      vertex 16.0872 -13.7826 1.5
    endloop
  endfacet
  facet normal 0.365025 0.930998 -0
    outer loop
      vertex 16.0872 -13.7826 1.5
      vertex 15.7269 -13.6413 7
      vertex 16.0872 -13.7826 7
    endloop
  endfacet
  facet normal 0.365025 0.930998 0
    outer loop
      vertex 15.7269 -13.6413 7
      vertex 16.0872 -13.7826 1.5
      vertex 15.7269 -13.6413 1.5
    endloop
  endfacet
  facet normal 0.265432 0.96413 -0
    outer loop
      vertex 15.7269 -13.6413 1.5
      vertex 15.3279 -13.5315 7
      vertex 15.7269 -13.6413 7
    endloop
  endfacet
  facet normal 0.265432 0.96413 0
    outer loop
      vertex 15.3279 -13.5315 7
      vertex 15.7269 -13.6413 1.5
      vertex 15.3279 -13.5315 1.5
    endloop
  endfacet
  facet normal 0.17646 0.984308 -0
    outer loop
      vertex 15.3279 -13.5315 1.5
      vertex 14.8902 -13.453 7
      vertex 15.3279 -13.5315 7
    endloop
  endfacet
  facet normal 0.17646 0.984308 0
    outer loop
      vertex 14.8902 -13.453 7
      vertex 15.3279 -13.5315 1.5
      vertex 14.8902 -13.453 1.5
    endloop
  endfacet
  facet normal 0.0983519 0.995152 -0
    outer loop
      vertex 14.8902 -13.453 1.5
      vertex 14.4137 -13.4059 7
      vertex 14.8902 -13.453 7
    endloop
  endfacet
  facet normal 0.0983519 0.995152 0
    outer loop
      vertex 14.4137 -13.4059 7
      vertex 14.8902 -13.453 1.5
      vertex 14.4137 -13.4059 1.5
    endloop
  endfacet
  facet normal 0.0304316 0.999537 -0
    outer loop
      vertex 14.4137 -13.4059 1.5
      vertex 13.8985 -13.3902 7
      vertex 14.4137 -13.4059 7
    endloop
  endfacet
  facet normal 0.0304316 0.999537 0
    outer loop
      vertex 13.8985 -13.3902 7
      vertex 14.4137 -13.4059 1.5
      vertex 13.8985 -13.3902 1.5
    endloop
  endfacet
  facet normal 0 1 -0
    outer loop
      vertex 13.8985 -13.3902 1.5
      vertex -7.14246 -13.3902 7
      vertex 13.8985 -13.3902 7
    endloop
  endfacet
  facet normal 0 1 0
    outer loop
      vertex -7.14246 -13.3902 7
      vertex 13.8985 -13.3902 1.5
      vertex -7.14246 -13.3902 1.5
    endloop
  endfacet
  facet normal 0.766525 -0.642214 0
    outer loop
      vertex -7.14246 -13.3902 7
      vertex 11.9465 9.39374 1.5
      vertex 11.9465 9.39374 7
    endloop
  endfacet
  facet normal 0.766525 -0.642214 0
    outer loop
      vertex 11.9465 9.39374 1.5
      vertex -7.14246 -13.3902 7
      vertex -7.14246 -13.3902 1.5
    endloop
  endfacet
  facet normal 0.762024 -0.647549 0
    outer loop
      vertex 11.9465 9.39374 7
      vertex 12.5515 10.1057 1.5
      vertex 12.5515 10.1057 7
    endloop
  endfacet
  facet normal 0.762024 -0.647549 0
    outer loop
      vertex 12.5515 10.1057 1.5
      vertex 11.9465 9.39374 7
      vertex 11.9465 9.39374 1.5
    endloop
  endfacet
  facet normal 0.76849 -0.639861 0
    outer loop
      vertex 12.5515 10.1057 7
      vertex 13.0956 10.7591 1.5
      vertex 13.0956 10.7591 7
    endloop
  endfacet
  facet normal 0.76849 -0.639861 0
    outer loop
      vertex 13.0956 10.7591 1.5
      vertex 12.5515 10.1057 7
      vertex 12.5515 10.1057 1.5
    endloop
  endfacet
  facet normal 0.776292 -0.630374 0
    outer loop
      vertex 13.0956 10.7591 7
      vertex 13.5788 11.3542 1.5
      vertex 13.5788 11.3542 7
    endloop
  endfacet
  facet normal 0.776292 -0.630374 0
    outer loop
      vertex 13.5788 11.3542 1.5
      vertex 13.0956 10.7591 7
      vertex 13.0956 10.7591 1.5
    endloop
  endfacet
  facet normal 0.785817 -0.618459 0
    outer loop
      vertex 13.5788 11.3542 7
      vertex 14.0011 11.8907 1.5
      vertex 14.0011 11.8907 7
    endloop
  endfacet
  facet normal 0.785817 -0.618459 0
    outer loop
      vertex 14.0011 11.8907 1.5
      vertex 13.5788 11.3542 7
      vertex 13.5788 11.3542 1.5
    endloop
  endfacet
  facet normal 0.797761 -0.602974 0
    outer loop
      vertex 14.0011 11.8907 7
      vertex 14.3625 12.3689 1.5
      vertex 14.3625 12.3689 7
    endloop
  endfacet
  facet normal 0.797761 -0.602974 0
    outer loop
      vertex 14.3625 12.3689 1.5
      vertex 14.0011 11.8907 7
      vertex 14.0011 11.8907 1.5
    endloop
  endfacet
  facet normal 0.813076 -0.582158 0
    outer loop
      vertex 14.3625 12.3689 7
      vertex 14.6629 12.7885 1.5
      vertex 14.6629 12.7885 7
    endloop
  endfacet
  facet normal 0.813076 -0.582158 0
    outer loop
      vertex 14.6629 12.7885 1.5
      vertex 14.3625 12.3689 7
      vertex 14.3625 12.3689 1.5
    endloop
  endfacet
  facet normal 0.833359 -0.552733 0
    outer loop
      vertex 14.6629 12.7885 7
      vertex 14.9025 13.1497 1.5
      vertex 14.9025 13.1497 7
    endloop
  endfacet
  facet normal 0.833359 -0.552733 0
    outer loop
      vertex 14.9025 13.1497 1.5
      vertex 14.6629 12.7885 7
      vertex 14.6629 12.7885 1.5
    endloop
  endfacet
  facet normal 0.873213 -0.487339 0
    outer loop
      vertex 14.9025 13.1497 7
      vertex 15.0967 13.4977 1.5
      vertex 15.0967 13.4977 7
    endloop
  endfacet
  facet normal 0.873213 -0.487339 0
    outer loop
      vertex 15.0967 13.4977 1.5
      vertex 14.9025 13.1497 7
      vertex 14.9025 13.1497 1.5
    endloop
  endfacet
  facet normal 0.917861 -0.396902 0
    outer loop
      vertex 15.0967 13.4977 7
      vertex 15.2611 13.8777 1.5
      vertex 15.2611 13.8777 7
    endloop
  endfacet
  facet normal 0.917861 -0.396902 0
    outer loop
      vertex 15.2611 13.8777 1.5
      vertex 15.0967 13.4977 7
      vertex 15.0967 13.4977 1.5
    endloop
  endfacet
  facet normal 0.950664 -0.310222 0
    outer loop
      vertex 15.2611 13.8777 7
      vertex 15.3955 14.2897 1.5
      vertex 15.3955 14.2897 7
    endloop
  endfacet
  facet normal 0.950664 -0.310222 0
    outer loop
      vertex 15.3955 14.2897 1.5
      vertex 15.2611 13.8777 7
      vertex 15.2611 13.8777 1.5
    endloop
  endfacet
  facet normal 0.973369 -0.229243 0
    outer loop
      vertex 15.3955 14.2897 7
      vertex 15.5001 14.7337 1.5
      vertex 15.5001 14.7337 7
    endloop
  endfacet
  facet normal 0.973369 -0.229243 0
    outer loop
      vertex 15.5001 14.7337 1.5
      vertex 15.3955 14.2897 7
      vertex 15.3955 14.2897 1.5
    endloop
  endfacet
  facet normal 0.987907 -0.15505 0
    outer loop
      vertex 15.5001 14.7337 7
      vertex 15.5748 15.2097 1.5
      vertex 15.5748 15.2097 7
    endloop
  endfacet
  facet normal 0.987907 -0.15505 0
    outer loop
      vertex 15.5748 15.2097 1.5
      vertex 15.5001 14.7337 7
      vertex 15.5001 14.7337 1.5
    endloop
  endfacet
  facet normal 0.996131 -0.0878781 0
    outer loop
      vertex 15.5748 15.2097 7
      vertex 15.6196 15.7177 1.5
      vertex 15.6196 15.7177 7
    endloop
  endfacet
  facet normal 0.996131 -0.0878781 0
    outer loop
      vertex 15.6196 15.7177 1.5
      vertex 15.5748 15.2097 7
      vertex 15.5748 15.2097 1.5
    endloop
  endfacet
  facet normal 0.999618 -0.0276534 0
    outer loop
      vertex 15.6196 15.7177 7
      vertex 15.6345 16.2577 1.5
      vertex 15.6345 16.2577 7
    endloop
  endfacet
  facet normal 0.999618 -0.0276534 0
    outer loop
      vertex 15.6345 16.2577 1.5
      vertex 15.6196 15.7177 7
      vertex 15.6196 15.7177 1.5
    endloop
  endfacet
  facet normal 0.996587 0.0825479 0
    outer loop
      vertex 15.6345 16.2577 7
      vertex 15.5449 17.3402 1.5
      vertex 15.5449 17.3402 7
    endloop
  endfacet
  facet normal 0.996587 0.0825479 0
    outer loop
      vertex 15.5449 17.3402 1.5
      vertex 15.6345 16.2577 7
      vertex 15.6345 16.2577 1.5
    endloop
  endfacet
  facet normal 0.959488 0.281748 0
    outer loop
      vertex 15.5449 17.3402 7
      vertex 15.2759 18.2561 1.5
      vertex 15.2759 18.2561 7
    endloop
  endfacet
  facet normal 0.959488 0.281748 0
    outer loop
      vertex 15.2759 18.2561 1.5
      vertex 15.5449 17.3402 7
      vertex 15.5449 17.3402 1.5
    endloop
  endfacet
  facet normal 0.85818 0.513349 0
    outer loop
      vertex 15.2759 18.2561 7
      vertex 14.8277 19.0055 1.5
      vertex 14.8277 19.0055 7
    endloop
  endfacet
  facet normal 0.85818 0.513349 0
    outer loop
      vertex 14.8277 19.0055 1.5
      vertex 15.2759 18.2561 7
      vertex 15.2759 18.2561 1.5
    endloop
  endfacet
  facet normal 0.680525 0.732725 -0
    outer loop
      vertex 14.8277 19.0055 1.5
      vertex 14.2001 19.5883 7
      vertex 14.8277 19.0055 7
    endloop
  endfacet
  facet normal 0.680525 0.732725 0
    outer loop
      vertex 14.2001 19.5883 7
      vertex 14.8277 19.0055 1.5
      vertex 14.2001 19.5883 1.5
    endloop
  endfacet
  facet normal 0.458538 0.888675 -0
    outer loop
      vertex 14.2001 19.5883 1.5
      vertex 13.3932 20.0047 7
      vertex 14.2001 19.5883 7
    endloop
  endfacet
  facet normal 0.458538 0.888675 0
    outer loop
      vertex 13.3932 20.0047 7
      vertex 14.2001 19.5883 1.5
      vertex 13.3932 20.0047 1.5
    endloop
  endfacet
  facet normal 0.245534 0.969388 -0
    outer loop
      vertex 13.3932 20.0047 1.5
      vertex 12.407 20.2545 7
      vertex 13.3932 20.0047 7
    endloop
  endfacet
  facet normal 0.245534 0.969388 0
    outer loop
      vertex 12.407 20.2545 7
      vertex 13.3932 20.0047 1.5
      vertex 12.407 20.2545 1.5
    endloop
  endfacet
  facet normal 0.0712619 0.997458 -0
    outer loop
      vertex 12.407 20.2545 1.5
      vertex 11.2415 20.3377 7
      vertex 12.407 20.2545 7
    endloop
  endfacet
  facet normal 0.0712619 0.997458 0
    outer loop
      vertex 11.2415 20.3377 7
      vertex 12.407 20.2545 1.5
      vertex 11.2415 20.3377 1.5
    endloop
  endfacet
  facet normal 0 1 -0
    outer loop
      vertex 11.2415 20.3377 1.5
      vertex -11.3725 20.3377 7
      vertex 11.2415 20.3377 7
    endloop
  endfacet
  facet normal 0 1 0
    outer loop
      vertex -11.3725 20.3377 7
      vertex 11.2415 20.3377 1.5
      vertex -11.3725 20.3377 1.5
    endloop
  endfacet
  facet normal -0.0341099 0.999418 0
    outer loop
      vertex -11.3725 20.3377 1.5
      vertex -11.8808 20.3204 7
      vertex -11.3725 20.3377 7
    endloop
  endfacet
  facet normal -0.0341099 0.999418 0
    outer loop
      vertex -11.8808 20.3204 7
      vertex -11.3725 20.3377 1.5
      vertex -11.8808 20.3204 1.5
    endloop
  endfacet
  facet normal -0.109743 0.99396 0
    outer loop
      vertex -11.8808 20.3204 1.5
      vertex -12.3521 20.2684 7
      vertex -11.8808 20.3204 7
    endloop
  endfacet
  facet normal -0.109743 0.99396 0
    outer loop
      vertex -12.3521 20.2684 7
      vertex -11.8808 20.3204 1.5
      vertex -12.3521 20.2684 1.5
    endloop
  endfacet
  facet normal -0.195878 0.980628 0
    outer loop
      vertex -12.3521 20.2684 1.5
      vertex -12.7863 20.1816 7
      vertex -12.3521 20.2684 7
    endloop
  endfacet
  facet normal -0.195878 0.980628 0
    outer loop
      vertex -12.7863 20.1816 7
      vertex -12.3521 20.2684 1.5
      vertex -12.7863 20.1816 1.5
    endloop
  endfacet
  facet normal -0.292397 0.956297 0
    outer loop
      vertex -12.7863 20.1816 1.5
      vertex -13.1834 20.0602 7
      vertex -12.7863 20.1816 7
    endloop
  endfacet
  facet normal -0.292397 0.956297 0
    outer loop
      vertex -13.1834 20.0602 7
      vertex -12.7863 20.1816 1.5
      vertex -13.1834 20.0602 1.5
    endloop
  endfacet
  facet normal -0.39781 0.917468 0
    outer loop
      vertex -13.1834 20.0602 1.5
      vertex -13.5435 19.9041 7
      vertex -13.1834 20.0602 7
    endloop
  endfacet
  facet normal -0.39781 0.917468 0
    outer loop
      vertex -13.5435 19.9041 7
      vertex -13.1834 20.0602 1.5
      vertex -13.5435 19.9041 1.5
    endloop
  endfacet
  facet normal -0.508592 0.861007 0
    outer loop
      vertex -13.5435 19.9041 1.5
      vertex -13.8665 19.7133 7
      vertex -13.5435 19.9041 7
    endloop
  endfacet
  facet normal -0.508592 0.861007 0
    outer loop
      vertex -13.8665 19.7133 7
      vertex -13.5435 19.9041 1.5
      vertex -13.8665 19.7133 1.5
    endloop
  endfacet
  facet normal -0.619238 0.785203 0
    outer loop
      vertex -13.8665 19.7133 1.5
      vertex -14.1525 19.4877 7
      vertex -13.8665 19.7133 7
    endloop
  endfacet
  facet normal -0.619238 0.785203 0
    outer loop
      vertex -14.1525 19.4877 7
      vertex -13.8665 19.7133 1.5
      vertex -14.1525 19.4877 1.5
    endloop
  endfacet
  facet normal -0.714828 0.6993 0
    outer loop
      vertex -14.4005 19.2342 1.5
      vertex -14.1525 19.4877 7
      vertex -14.1525 19.4877 1.5
    endloop
  endfacet
  facet normal -0.714828 0.6993 0
    outer loop
      vertex -14.1525 19.4877 7
      vertex -14.4005 19.2342 1.5
      vertex -14.4005 19.2342 7
    endloop
  endfacet
  facet normal -0.794917 0.606718 0
    outer loop
      vertex -14.6104 18.9592 1.5
      vertex -14.4005 19.2342 7
      vertex -14.4005 19.2342 1.5
    endloop
  endfacet
  facet normal -0.794917 0.606718 0
    outer loop
      vertex -14.4005 19.2342 7
      vertex -14.6104 18.9592 1.5
      vertex -14.6104 18.9592 7
    endloop
  endfacet
  facet normal -0.865276 0.501296 0
    outer loop
      vertex -14.7822 18.6627 1.5
      vertex -14.6104 18.9592 7
      vertex -14.6104 18.9592 1.5
    endloop
  endfacet
  facet normal -0.865276 0.501296 0
    outer loop
      vertex -14.6104 18.9592 7
      vertex -14.7822 18.6627 1.5
      vertex -14.7822 18.6627 7
    endloop
  endfacet
  facet normal -0.921903 0.38742 0
    outer loop
      vertex -14.9157 18.3449 1.5
      vertex -14.7822 18.6627 7
      vertex -14.7822 18.6627 1.5
    endloop
  endfacet
  facet normal -0.921903 0.38742 0
    outer loop
      vertex -14.7822 18.6627 7
      vertex -14.9157 18.3449 1.5
      vertex -14.9157 18.3449 7
    endloop
  endfacet
  facet normal -0.962669 0.270682 0
    outer loop
      vertex -15.0111 18.0056 1.5
      vertex -14.9157 18.3449 7
      vertex -14.9157 18.3449 1.5
    endloop
  endfacet
  facet normal -0.962669 0.270682 0
    outer loop
      vertex -14.9157 18.3449 7
      vertex -15.0111 18.0056 1.5
      vertex -15.0111 18.0056 7
    endloop
  endfacet
  facet normal -0.987638 0.156752 0
    outer loop
      vertex -15.0684 17.6449 1.5
      vertex -15.0111 18.0056 7
      vertex -15.0111 18.0056 1.5
    endloop
  endfacet
  facet normal -0.987638 0.156752 0
    outer loop
      vertex -15.0111 18.0056 7
      vertex -15.0684 17.6449 1.5
      vertex -15.0684 17.6449 7
    endloop
  endfacet
  facet normal -0.998757 0.0498501 0
    outer loop
      vertex -15.0874 17.2627 1.5
      vertex -15.0684 17.6449 7
      vertex -15.0684 17.6449 1.5
    endloop
  endfacet
  facet normal -0.998757 0.0498501 0
    outer loop
      vertex -15.0684 17.6449 7
      vertex -15.0874 17.2627 1.5
      vertex -15.0874 17.2627 7
    endloop
  endfacet
  facet normal -0.998654 -0.0518641 0
    outer loop
      vertex -15.0684 16.8955 1.5
      vertex -15.0874 17.2627 7
      vertex -15.0874 17.2627 1.5
    endloop
  endfacet
  facet normal -0.998654 -0.0518641 0
    outer loop
      vertex -15.0874 17.2627 7
      vertex -15.0684 16.8955 1.5
      vertex -15.0684 16.8955 7
    endloop
  endfacet
  facet normal -0.986614 -0.163074 0
    outer loop
      vertex -15.0111 16.5491 1.5
      vertex -15.0684 16.8955 7
      vertex -15.0684 16.8955 1.5
    endloop
  endfacet
  facet normal -0.986614 -0.163074 0
    outer loop
      vertex -15.0684 16.8955 7
      vertex -15.0111 16.5491 1.5
      vertex -15.0111 16.5491 7
    endloop
  endfacet
  facet normal -0.959627 -0.281275 0
    outer loop
      vertex -14.9157 16.2236 1.5
      vertex -15.0111 16.5491 7
      vertex -15.0111 16.5491 1.5
    endloop
  endfacet
  facet normal -0.959627 -0.281275 0
    outer loop
      vertex -15.0111 16.5491 7
      vertex -14.9157 16.2236 1.5
      vertex -14.9157 16.2236 7
    endloop
  endfacet
  facet normal -0.915795 -0.401647 0
    outer loop
      vertex -14.7822 15.9191 1.5
      vertex -14.9157 16.2236 7
      vertex -14.9157 16.2236 1.5
    endloop
  endfacet
  facet normal -0.915795 -0.401647 0
    outer loop
      vertex -14.9157 16.2236 7
      vertex -14.7822 15.9191 1.5
      vertex -14.7822 15.9191 7
    endloop
  endfacet
  facet normal -0.855448 -0.517889 0
    outer loop
      vertex -14.6104 15.6354 1.5
      vertex -14.7822 15.9191 7
      vertex -14.7822 15.9191 1.5
    endloop
  endfacet
  facet normal -0.855448 -0.517889 0
    outer loop
      vertex -14.7822 15.9191 7
      vertex -14.6104 15.6354 1.5
      vertex -14.6104 15.6354 7
    endloop
  endfacet
  facet normal -0.781329 -0.624119 0
    outer loop
      vertex -14.4005 15.3726 1.5
      vertex -14.6104 15.6354 7
      vertex -14.6104 15.6354 1.5
    endloop
  endfacet
  facet normal -0.781329 -0.624119 0
    outer loop
      vertex -14.6104 15.6354 7
      vertex -14.4005 15.3726 1.5
      vertex -14.4005 15.3726 7
    endloop
  endfacet
  facet normal -0.698132 -0.715969 0
    outer loop
      vertex -14.4005 15.3726 1.5
      vertex -14.1525 15.1307 7
      vertex -14.4005 15.3726 7
    endloop
  endfacet
  facet normal -0.698132 -0.715969 -0
    outer loop
      vertex -14.1525 15.1307 7
      vertex -14.4005 15.3726 1.5
      vertex -14.1525 15.1307 1.5
    endloop
  endfacet
  facet normal -0.6003 -0.799775 0
    outer loop
      vertex -14.1525 15.1307 1.5
      vertex -13.8665 14.9161 7
      vertex -14.1525 15.1307 7
    endloop
  endfacet
  facet normal -0.6003 -0.799775 -0
    outer loop
      vertex -13.8665 14.9161 7
      vertex -14.1525 15.1307 1.5
      vertex -13.8665 14.9161 1.5
    endloop
  endfacet
  facet normal -0.49007 -0.871683 0
    outer loop
      vertex -13.8665 14.9161 1.5
      vertex -13.5435 14.7345 7
      vertex -13.8665 14.9161 7
    endloop
  endfacet
  facet normal -0.49007 -0.871683 -0
    outer loop
      vertex -13.5435 14.7345 7
      vertex -13.8665 14.9161 1.5
      vertex -13.5435 14.7345 1.5
    endloop
  endfacet
  facet normal -0.381459 -0.924386 0
    outer loop
      vertex -13.5435 14.7345 1.5
      vertex -13.1834 14.5859 7
      vertex -13.5435 14.7345 7
    endloop
  endfacet
  facet normal -0.381459 -0.924386 -0
    outer loop
      vertex -13.1834 14.5859 7
      vertex -13.5435 14.7345 1.5
      vertex -13.1834 14.5859 1.5
    endloop
  endfacet
  facet normal -0.279415 -0.96017 0
    outer loop
      vertex -13.1834 14.5859 1.5
      vertex -12.7863 14.4703 7
      vertex -13.1834 14.5859 7
    endloop
  endfacet
  facet normal -0.279415 -0.96017 -0
    outer loop
      vertex -12.7863 14.4703 7
      vertex -13.1834 14.5859 1.5
      vertex -12.7863 14.4703 1.5
    endloop
  endfacet
  facet normal -0.186773 -0.982403 0
    outer loop
      vertex -12.7863 14.4703 1.5
      vertex -12.3521 14.3878 7
      vertex -12.7863 14.4703 7
    endloop
  endfacet
  facet normal -0.186773 -0.982403 -0
    outer loop
      vertex -12.3521 14.3878 7
      vertex -12.7863 14.4703 1.5
      vertex -12.3521 14.3878 1.5
    endloop
  endfacet
  facet normal -0.104524 -0.994522 0
    outer loop
      vertex -12.3521 14.3878 1.5
      vertex -11.8808 14.3383 7
      vertex -12.3521 14.3878 7
    endloop
  endfacet
  facet normal -0.104524 -0.994522 -0
    outer loop
      vertex -11.8808 14.3383 7
      vertex -12.3521 14.3878 1.5
      vertex -11.8808 14.3383 1.5
    endloop
  endfacet
  facet normal -0.0324617 -0.999473 0
    outer loop
      vertex -11.8808 14.3383 1.5
      vertex -11.3725 14.3217 7
      vertex -11.8808 14.3383 7
    endloop
  endfacet
  facet normal -0.0324617 -0.999473 -0
    outer loop
      vertex -11.3725 14.3217 7
      vertex -11.8808 14.3383 1.5
      vertex -11.3725 14.3217 1.5
    endloop
  endfacet
  facet normal 0 -1 0
    outer loop
      vertex -11.3725 14.3217 1.5
      vertex 6.17053 14.3217 7
      vertex -11.3725 14.3217 7
    endloop
  endfacet
  facet normal 0 -1 -0
    outer loop
      vertex 6.17053 14.3217 7
      vertex -11.3725 14.3217 1.5
      vertex 6.17053 14.3217 1.5
    endloop
  endfacet
  facet normal -0.767946 0.640515 0
    outer loop
      vertex -14.2465 -10.1572 1.5
      vertex 6.17053 14.3217 7
      vertex 6.17053 14.3217 1.5
    endloop
  endfacet
  facet normal -0.767946 0.640515 0
    outer loop
      vertex 6.17053 14.3217 7
      vertex -14.2465 -10.1572 1.5
      vertex -14.2465 -10.1572 7
    endloop
  endfacet
  facet normal -0.761704 0.647925 0
    outer loop
      vertex -15.3855 -11.4962 1.5
      vertex -14.2465 -10.1572 7
      vertex -14.2465 -10.1572 1.5
    endloop
  endfacet
  facet normal -0.761704 0.647925 0
    outer loop
      vertex -14.2465 -10.1572 7
      vertex -15.3855 -11.4962 1.5
      vertex -15.3855 -11.4962 7
    endloop
  endfacet
  facet normal -0.767877 0.640598 0
    outer loop
      vertex -15.7342 -11.9143 1.5
      vertex -15.3855 -11.4962 7
      vertex -15.3855 -11.4962 1.5
    endloop
  endfacet
  facet normal -0.767877 0.640598 0
    outer loop
      vertex -15.3855 -11.4962 7
      vertex -15.7342 -11.9143 1.5
      vertex -15.7342 -11.9143 7
    endloop
  endfacet
  facet normal -0.775179 0.631741 0
    outer loop
      vertex -15.8911 -12.1068 1.5
      vertex -15.7342 -11.9143 7
      vertex -15.7342 -11.9143 1.5
    endloop
  endfacet
  facet normal -0.775179 0.631741 0
    outer loop
      vertex -15.7342 -11.9143 7
      vertex -15.8911 -12.1068 1.5
      vertex -15.8911 -12.1068 7
    endloop
  endfacet
  facet normal -0.780837 0.624735 0
    outer loop
      vertex -16.0364 -12.2884 1.5
      vertex -15.8911 -12.1068 7
      vertex -15.8911 -12.1068 1.5
    endloop
  endfacet
  facet normal -0.780837 0.624735 0
    outer loop
      vertex -15.8911 -12.1068 7
      vertex -16.0364 -12.2884 1.5
      vertex -16.0364 -12.2884 7
    endloop
  endfacet
  facet normal -0.787182 0.61672 0
    outer loop
      vertex -16.17 -12.459 1.5
      vertex -16.0364 -12.2884 7
      vertex -16.0364 -12.2884 1.5
    endloop
  endfacet
  facet normal -0.787182 0.61672 0
    outer loop
      vertex -16.0364 -12.2884 7
      vertex -16.17 -12.459 1.5
      vertex -16.17 -12.459 7
    endloop
  endfacet
  facet normal -0.794425 0.607363 0
    outer loop
      vertex -16.2921 -12.6186 1.5
      vertex -16.17 -12.459 7
      vertex -16.17 -12.459 1.5
    endloop
  endfacet
  facet normal -0.794425 0.607363 0
    outer loop
      vertex -16.17 -12.459 7
      vertex -16.2921 -12.6186 1.5
      vertex -16.2921 -12.6186 7
    endloop
  endfacet
  facet normal -0.80283 0.596209 0
    outer loop
      vertex -16.4025 -12.7672 1.5
      vertex -16.2921 -12.6186 7
      vertex -16.2921 -12.6186 1.5
    endloop
  endfacet
  facet normal -0.80283 0.596209 0
    outer loop
      vertex -16.2921 -12.6186 7
      vertex -16.4025 -12.7672 1.5
      vertex -16.4025 -12.7672 7
    endloop
  endfacet
  facet normal -0.81773 0.575603 0
    outer loop
      vertex -16.504 -12.9115 1.5
      vertex -16.4025 -12.7672 7
      vertex -16.4025 -12.7672 1.5
    endloop
  endfacet
  facet normal -0.81773 0.575603 0
    outer loop
      vertex -16.4025 -12.7672 7
      vertex -16.504 -12.9115 1.5
      vertex -16.504 -12.9115 7
    endloop
  endfacet
  facet normal -0.838752 0.544514 0
    outer loop
      vertex -16.5994 -13.0585 1.5
      vertex -16.504 -12.9115 7
      vertex -16.504 -12.9115 1.5
    endloop
  endfacet
  facet normal -0.838752 0.544514 0
    outer loop
      vertex -16.504 -12.9115 7
      vertex -16.5994 -13.0585 1.5
      vertex -16.5994 -13.0585 7
    endloop
  endfacet
  facet normal -0.858772 0.512359 0
    outer loop
      vertex -16.6888 -13.2083 1.5
      vertex -16.5994 -13.0585 7
      vertex -16.5994 -13.0585 1.5
    endloop
  endfacet
  facet normal -0.858772 0.512359 0
    outer loop
      vertex -16.5994 -13.0585 7
      vertex -16.6888 -13.2083 1.5
      vertex -16.6888 -13.2083 7
    endloop
  endfacet
  facet normal -0.877748 0.479123 0
    outer loop
      vertex -16.7721 -13.3609 1.5
      vertex -16.6888 -13.2083 7
      vertex -16.6888 -13.2083 1.5
    endloop
  endfacet
  facet normal -0.877748 0.479123 0
    outer loop
      vertex -16.6888 -13.2083 7
      vertex -16.7721 -13.3609 1.5
      vertex -16.7721 -13.3609 7
    endloop
  endfacet
  facet normal -0.895498 0.445066 0
    outer loop
      vertex -16.8493 -13.5162 1.5
      vertex -16.7721 -13.3609 7
      vertex -16.7721 -13.3609 1.5
    endloop
  endfacet
  facet normal -0.895498 0.445066 0
    outer loop
      vertex -16.7721 -13.3609 7
      vertex -16.8493 -13.5162 1.5
      vertex -16.8493 -13.5162 7
    endloop
  endfacet
  facet normal -0.911999 0.410193 0
    outer loop
      vertex -16.9204 -13.6743 1.5
      vertex -16.8493 -13.5162 7
      vertex -16.8493 -13.5162 1.5
    endloop
  endfacet
  facet normal -0.911999 0.410193 0
    outer loop
      vertex -16.8493 -13.5162 7
      vertex -16.9204 -13.6743 1.5
      vertex -16.9204 -13.6743 7
    endloop
  endfacet
  facet normal -0.927094 0.374829 0
    outer loop
      vertex -16.9855 -13.8352 1.5
      vertex -16.9204 -13.6743 7
      vertex -16.9204 -13.6743 1.5
    endloop
  endfacet
  facet normal -0.927094 0.374829 0
    outer loop
      vertex -16.9204 -13.6743 7
      vertex -16.9855 -13.8352 1.5
      vertex -16.9855 -13.8352 7
    endloop
  endfacet
  facet normal -0.943858 0.33035 0
    outer loop
      vertex -17.043 -13.9997 1.5
      vertex -16.9855 -13.8352 7
      vertex -16.9855 -13.8352 1.5
    endloop
  endfacet
  facet normal -0.943858 0.33035 0
    outer loop
      vertex -16.9855 -13.8352 7
      vertex -17.043 -13.9997 1.5
      vertex -17.043 -13.9997 7
    endloop
  endfacet
  facet normal -0.960846 0.277082 0
    outer loop
      vertex -17.0917 -14.1686 1.5
      vertex -17.043 -13.9997 7
      vertex -17.043 -13.9997 1.5
    endloop
  endfacet
  facet normal -0.960846 0.277082 0
    outer loop
      vertex -17.043 -13.9997 7
      vertex -17.0917 -14.1686 1.5
      vertex -17.0917 -14.1686 7
    endloop
  endfacet
  facet normal -0.974562 0.22412 0
    outer loop
      vertex -17.1316 -14.3419 1.5
      vertex -17.0917 -14.1686 7
      vertex -17.0917 -14.1686 1.5
    endloop
  endfacet
  facet normal -0.974562 0.22412 0
    outer loop
      vertex -17.0917 -14.1686 7
      vertex -17.1316 -14.3419 1.5
      vertex -17.1316 -14.3419 7
    endloop
  endfacet
  facet normal -0.98512 0.171869 0
    outer loop
      vertex -17.1626 -14.5197 1.5
      vertex -17.1316 -14.3419 7
      vertex -17.1316 -14.3419 1.5
    endloop
  endfacet
  facet normal -0.98512 0.171869 0
    outer loop
      vertex -17.1316 -14.3419 7
      vertex -17.1626 -14.5197 1.5
      vertex -17.1626 -14.5197 7
    endloop
  endfacet
  facet normal -0.992691 0.120687 0
    outer loop
      vertex -17.1847 -14.7018 1.5
      vertex -17.1626 -14.5197 7
      vertex -17.1626 -14.5197 1.5
    endloop
  endfacet
  facet normal -0.992691 0.120687 0
    outer loop
      vertex -17.1626 -14.5197 7
      vertex -17.1847 -14.7018 1.5
      vertex -17.1847 -14.7018 7
    endloop
  endfacet
  facet normal -0.997472 0.0710673 0
    outer loop
      vertex -17.198 -14.8883 1.5
      vertex -17.1847 -14.7018 7
      vertex -17.1847 -14.7018 1.5
    endloop
  endfacet
  facet normal -0.997472 0.0710673 0
    outer loop
      vertex -17.1847 -14.7018 7
      vertex -17.198 -14.8883 1.5
      vertex -17.198 -14.8883 7
    endloop
  endfacet
  facet normal -0.999732 0.0231697 0
    outer loop
      vertex -17.2025 -15.0792 1.5
      vertex -17.198 -14.8883 7
      vertex -17.198 -14.8883 1.5
    endloop
  endfacet
  facet normal -0.999732 0.0231697 0
    outer loop
      vertex -17.198 -14.8883 7
      vertex -17.2025 -15.0792 1.5
      vertex -17.2025 -15.0792 7
    endloop
  endfacet
  facet normal -0.998778 -0.0494144 0
    outer loop
      vertex -17.1754 -15.627 1.5
      vertex -17.2025 -15.0792 7
      vertex -17.2025 -15.0792 1.5
    endloop
  endfacet
  facet normal -0.998778 -0.0494144 0
    outer loop
      vertex -17.2025 -15.0792 7
      vertex -17.1754 -15.627 1.5
      vertex -17.1754 -15.627 7
    endloop
  endfacet
  facet normal -0.987773 -0.155901 0
    outer loop
      vertex -17.094 -16.1422 1.5
      vertex -17.1754 -15.627 7
      vertex -17.1754 -15.627 1.5
    endloop
  endfacet
  facet normal -0.987773 -0.155901 0
    outer loop
      vertex -17.1754 -15.627 7
      vertex -17.094 -16.1422 1.5
      vertex -17.094 -16.1422 7
    endloop
  endfacet
  facet normal -0.962782 -0.27028 0
    outer loop
      vertex -16.9585 -16.6248 1.5
      vertex -17.094 -16.1422 7
      vertex -17.094 -16.1422 1.5
    endloop
  endfacet
  facet normal -0.962782 -0.27028 0
    outer loop
      vertex -17.094 -16.1422 7
      vertex -16.9585 -16.6248 1.5
      vertex -16.9585 -16.6248 7
    endloop
  endfacet
  facet normal -0.921495 -0.388389 0
    outer loop
      vertex -16.7688 -17.075 1.5
      vertex -16.9585 -16.6248 7
      vertex -16.9585 -16.6248 1.5
    endloop
  endfacet
  facet normal -0.921495 -0.388389 0
    outer loop
      vertex -16.9585 -16.6248 7
      vertex -16.7688 -17.075 1.5
      vertex -16.7688 -17.075 7
    endloop
  endfacet
  facet normal -0.863508 -0.504336 0
    outer loop
      vertex -16.5249 -17.4926 1.5
      vertex -16.7688 -17.075 7
      vertex -16.7688 -17.075 1.5
    endloop
  endfacet
  facet normal -0.863508 -0.504336 0
    outer loop
      vertex -16.7688 -17.075 7
      vertex -16.5249 -17.4926 1.5
      vertex -16.5249 -17.4926 7
    endloop
  endfacet
  facet normal -0.790717 -0.612182 0
    outer loop
      vertex -16.2268 -17.8777 1.5
      vertex -16.5249 -17.4926 7
      vertex -16.5249 -17.4926 1.5
    endloop
  endfacet
  facet normal -0.790717 -0.612182 0
    outer loop
      vertex -16.5249 -17.4926 7
      vertex -16.2268 -17.8777 1.5
      vertex -16.2268 -17.8777 7
    endloop
  endfacet
  facet normal -0.707336 -0.706877 0
    outer loop
      vertex -15.8745 -18.2302 1.5
      vertex -16.2268 -17.8777 7
      vertex -16.2268 -17.8777 1.5
    endloop
  endfacet
  facet normal -0.707336 -0.706877 0
    outer loop
      vertex -16.2268 -17.8777 7
      vertex -15.8745 -18.2302 1.5
      vertex -15.8745 -18.2302 7
    endloop
  endfacet
  facet normal -0.609079 -0.79311 0
    outer loop
      vertex -15.8745 -18.2302 1.5
      vertex -15.4682 -18.5422 7
      vertex -15.8745 -18.2302 7
    endloop
  endfacet
  facet normal -0.609079 -0.79311 -0
    outer loop
      vertex -15.4682 -18.5422 7
      vertex -15.8745 -18.2302 1.5
      vertex -15.4682 -18.5422 1.5
    endloop
  endfacet
  facet normal -0.49829 -0.867011 0
    outer loop
      vertex -15.4682 -18.5422 1.5
      vertex -15.0088 -18.8062 7
      vertex -15.4682 -18.5422 7
    endloop
  endfacet
  facet normal -0.49829 -0.867011 -0
    outer loop
      vertex -15.0088 -18.8062 7
      vertex -15.4682 -18.5422 1.5
      vertex -15.0088 -18.8062 1.5
    endloop
  endfacet
  facet normal -0.388405 -0.921489 0
    outer loop
      vertex -15.0088 -18.8062 1.5
      vertex -14.4964 -19.0222 7
      vertex -15.0088 -18.8062 7
    endloop
  endfacet
  facet normal -0.388405 -0.921489 -0
    outer loop
      vertex -14.4964 -19.0222 7
      vertex -15.0088 -18.8062 1.5
      vertex -14.4964 -19.0222 1.5
    endloop
  endfacet
  facet normal -0.284749 -0.958602 0
    outer loop
      vertex -14.4964 -19.0222 1.5
      vertex -13.9308 -19.1902 7
      vertex -14.4964 -19.0222 7
    endloop
  endfacet
  facet normal -0.284749 -0.958602 -0
    outer loop
      vertex -13.9308 -19.1902 7
      vertex -14.4964 -19.0222 1.5
      vertex -13.9308 -19.1902 1.5
    endloop
  endfacet
  facet normal -0.190404 -0.981706 0
    outer loop
      vertex -13.9308 -19.1902 1.5
      vertex -13.3121 -19.3102 7
      vertex -13.9308 -19.1902 7
    endloop
  endfacet
  facet normal -0.190404 -0.981706 -0
    outer loop
      vertex -13.3121 -19.3102 7
      vertex -13.9308 -19.1902 1.5
      vertex -13.3121 -19.3102 1.5
    endloop
  endfacet
  facet normal -0.106579 -0.994304 0
    outer loop
      vertex -13.3121 -19.3102 1.5
      vertex -12.6403 -19.3822 7
      vertex -13.3121 -19.3102 7
    endloop
  endfacet
  facet normal -0.106579 -0.994304 -0
    outer loop
      vertex -12.6403 -19.3822 7
      vertex -13.3121 -19.3102 1.5
      vertex -12.6403 -19.3822 1.5
    endloop
  endfacet
  facet normal -0.0330935 -0.999452 0
    outer loop
      vertex -12.6403 -19.3822 1.5
      vertex -11.9155 -19.4062 7
      vertex -12.6403 -19.3822 7
    endloop
  endfacet
  facet normal -0.0330935 -0.999452 -0
    outer loop
      vertex -11.9155 -19.4062 7
      vertex -12.6403 -19.3822 1.5
      vertex -11.9155 -19.4062 1.5
    endloop
  endfacet
  facet normal 0 -1 0
    outer loop
      vertex -11.9155 -19.4062 1.5
      vertex 13.8985 -19.4062 7
      vertex -11.9155 -19.4062 7
    endloop
  endfacet
  facet normal 0 -1 -0
    outer loop
      vertex 13.8985 -19.4062 7
      vertex -11.9155 -19.4062 1.5
      vertex 13.8985 -19.4062 1.5
    endloop
  endfacet
  facet normal 0.0331226 -0.999451 0
    outer loop
      vertex 13.8985 -19.4062 1.5
      vertex 14.4137 -19.3892 7
      vertex 13.8985 -19.4062 7
    endloop
  endfacet
  facet normal 0.0331226 -0.999451 0
    outer loop
      vertex 14.4137 -19.3892 7
      vertex 13.8985 -19.4062 1.5
      vertex 14.4137 -19.3892 1.5
    endloop
  endfacet
endsolid OpenSCAD_Model
