solid OpenSCAD_Model
  facet normal -1 0 0
    outer loop
      vertex -14 -14 0.5
      vertex -14 14 1.5
      vertex -14 14 0.5
    endloop
  endfacet
  facet normal -1 -0 0
    outer loop
      vertex -14 14 1.5
      vertex -14 -14 0.5
      vertex -14 -14 1.5
    endloop
  endfacet
  facet normal 0 0 1
    outer loop
      vertex 4.55975 4.28972 1.5
      vertex 14 14 1.5
      vertex 4.56197 4.34149 1.5
    endloop
  endfacet
  facet normal 0 0 1
    outer loop
      vertex 14 14 1.5
      vertex 4.56097 6.87354 1.5
      vertex 4.56197 4.34149 1.5
    endloop
  endfacet
  facet normal 0 0 1
    outer loop
      vertex 14 14 1.5
      vertex 4.55014 6.96553 1.5
      vertex 4.56097 6.87354 1.5
    endloop
  endfacet
  facet normal 0 0 1
    outer loop
      vertex 14 14 1.5
      vertex 4.52808 7.05264 1.5
      vertex 4.55014 6.96553 1.5
    endloop
  endfacet
  facet normal 0 0 1
    outer loop
      vertex 14 14 1.5
      vertex 4.49564 7.13429 1.5
      vertex 4.52808 7.05264 1.5
    endloop
  endfacet
  facet normal 0 0 1
    outer loop
      vertex 14 14 1.5
      vertex 4.45372 7.20993 1.5
      vertex 4.49564 7.13429 1.5
    endloop
  endfacet
  facet normal 0 0 1
    outer loop
      vertex 14 14 1.5
      vertex 4.4032 7.27901 1.5
      vertex 4.45372 7.20993 1.5
    endloop
  endfacet
  facet normal 0 0 1
    outer loop
      vertex 14 14 1.5
      vertex 4.34494 7.34097 1.5
      vertex 4.4032 7.27901 1.5
    endloop
  endfacet
  facet normal 0 0 1
    outer loop
      vertex 14 14 1.5
      vertex 4.27985 7.39528 1.5
      vertex 4.34494 7.34097 1.5
    endloop
  endfacet
  facet normal 0 0 1
    outer loop
      vertex 14 14 1.5
      vertex 4.20879 7.44135 1.5
      vertex 4.27985 7.39528 1.5
    endloop
  endfacet
  facet normal 0 0 1
    outer loop
      vertex 14 14 1.5
      vertex 4.13263 7.47864 1.5
      vertex 4.20879 7.44135 1.5
    endloop
  endfacet
  facet normal 0 0 1
    outer loop
      vertex 14 14 1.5
      vertex 4.05226 7.50659 1.5
      vertex 4.13263 7.47864 1.5
    endloop
  endfacet
  facet normal 0 0 1
    outer loop
      vertex 14 14 1.5
      vertex 3.96857 7.52466 1.5
      vertex 4.05226 7.50659 1.5
    endloop
  endfacet
  facet normal 0 0 1
    outer loop
      vertex 14 14 1.5
      vertex 3.88242 7.53227 1.5
      vertex 3.96857 7.52466 1.5
    endloop
  endfacet
  facet normal 0 0 1
    outer loop
      vertex 14 14 1.5
      vertex -3.64986 7.53162 1.5
      vertex 3.88242 7.53227 1.5
    endloop
  endfacet
  facet normal -0 0 1
    outer loop
      vertex -14 14 1.5
      vertex -3.64986 7.53162 1.5
      vertex 14 14 1.5
    endloop
  endfacet
  facet normal 0 0 1
    outer loop
      vertex -3.64986 7.53162 1.5
      vertex -14 14 1.5
      vertex -3.73558 7.52185 1.5
    endloop
  endfacet
  facet normal 0 0 1
    outer loop
      vertex -4.3033 6.94751 1.5
      vertex -14 14 1.5
      vertex -4.31177 6.8546 1.5
    endloop
  endfacet
  facet normal 0 0 1
    outer loop
      vertex -4.2834 7.03563 1.5
      vertex -14 14 1.5
      vertex -4.3033 6.94751 1.5
    endloop
  endfacet
  facet normal 0 0 1
    outer loop
      vertex -4.25296 7.11842 1.5
      vertex -14 14 1.5
      vertex -4.2834 7.03563 1.5
    endloop
  endfacet
  facet normal 0 0 1
    outer loop
      vertex -4.21288 7.19531 1.5
      vertex -14 14 1.5
      vertex -4.25296 7.11842 1.5
    endloop
  endfacet
  facet normal 0 0 1
    outer loop
      vertex -4.164 7.26575 1.5
      vertex -14 14 1.5
      vertex -4.21288 7.19531 1.5
    endloop
  endfacet
  facet normal 0 0 1
    outer loop
      vertex -4.10722 7.32918 1.5
      vertex -14 14 1.5
      vertex -4.164 7.26575 1.5
    endloop
  endfacet
  facet normal 0 0 1
    outer loop
      vertex -4.04343 7.38506 1.5
      vertex -14 14 1.5
      vertex -4.10722 7.32918 1.5
    endloop
  endfacet
  facet normal 0 0 1
    outer loop
      vertex -3.97348 7.43282 1.5
      vertex -14 14 1.5
      vertex -4.04343 7.38506 1.5
    endloop
  endfacet
  facet normal 0 0 1
    outer loop
      vertex -3.89827 7.47191 1.5
      vertex -14 14 1.5
      vertex -3.97348 7.43282 1.5
    endloop
  endfacet
  facet normal 0 0 1
    outer loop
      vertex -3.81868 7.50177 1.5
      vertex -14 14 1.5
      vertex -3.89827 7.47191 1.5
    endloop
  endfacet
  facet normal 0 0 1
    outer loop
      vertex -3.73558 7.52185 1.5
      vertex -14 14 1.5
      vertex -3.81868 7.50177 1.5
    endloop
  endfacet
  facet normal 0 0 1
    outer loop
      vertex 4.5466 4.20601 1.5
      vertex 14 14 1.5
      vertex 4.55975 4.28972 1.5
    endloop
  endfacet
  facet normal 0 0 1
    outer loop
      vertex 14 14 1.5
      vertex 4.5466 4.20601 1.5
      vertex 14 -14 1.5
    endloop
  endfacet
  facet normal -0 0 1
    outer loop
      vertex 4.52238 4.12607 1.5
      vertex 14 -14 1.5
      vertex 4.5466 4.20601 1.5
    endloop
  endfacet
  facet normal -0 0 1
    outer loop
      vertex 4.48798 4.05058 1.5
      vertex 14 -14 1.5
      vertex 4.52238 4.12607 1.5
    endloop
  endfacet
  facet normal -0 0 1
    outer loop
      vertex 4.44427 3.98022 1.5
      vertex 14 -14 1.5
      vertex 4.48798 4.05058 1.5
    endloop
  endfacet
  facet normal -0 0 1
    outer loop
      vertex 4.39214 3.91565 1.5
      vertex 14 -14 1.5
      vertex 4.44427 3.98022 1.5
    endloop
  endfacet
  facet normal -0 0 1
    outer loop
      vertex 4.31967 3.84673 1.5
      vertex 14 -14 1.5
      vertex 4.39214 3.91565 1.5
    endloop
  endfacet
  facet normal -0 0 1
    outer loop
      vertex 4.23787 3.78824 1.5
      vertex 14 -14 1.5
      vertex 4.31967 3.84673 1.5
    endloop
  endfacet
  facet normal -0 0 1
    outer loop
      vertex 4.14822 3.74135 1.5
      vertex 14 -14 1.5
      vertex 4.23787 3.78824 1.5
    endloop
  endfacet
  facet normal -0 0 1
    outer loop
      vertex 4.06863 3.71196 1.5
      vertex 14 -14 1.5
      vertex 4.14822 3.74135 1.5
    endloop
  endfacet
  facet normal -0 0 1
    outer loop
      vertex 3.98552 3.69208 1.5
      vertex 14 -14 1.5
      vertex 4.06863 3.71196 1.5
    endloop
  endfacet
  facet normal -0 0 1
    outer loop
      vertex 3.8998 3.68237 1.5
      vertex 14 -14 1.5
      vertex 3.98552 3.69208 1.5
    endloop
  endfacet
  facet normal -0 0 1
    outer loop
      vertex -3.64986 3.68237 1.5
      vertex 14 -14 1.5
      vertex 3.8998 3.68237 1.5
    endloop
  endfacet
  facet normal 0 0 1
    outer loop
      vertex -14 -14 1.5
      vertex -3.64986 3.68237 1.5
      vertex -3.66716 3.68347 1.5
    endloop
  endfacet
  facet normal 0 0 1
    outer loop
      vertex -14 -14 1.5
      vertex -3.66716 3.68347 1.5
      vertex -3.75244 3.69527 1.5
    endloop
  endfacet
  facet normal 0 0 1
    outer loop
      vertex -14 -14 1.5
      vertex -3.75244 3.69527 1.5
      vertex -3.83492 3.7171 1.5
    endloop
  endfacet
  facet normal 0 0 1
    outer loop
      vertex -14 -14 1.5
      vertex -3.83492 3.7171 1.5
      vertex -3.9137 3.74832 1.5
    endloop
  endfacet
  facet normal 0 0 1
    outer loop
      vertex -14 -14 1.5
      vertex -3.9137 3.74832 1.5
      vertex -4.00214 3.79723 1.5
    endloop
  endfacet
  facet normal 0 0 1
    outer loop
      vertex -14 -14 1.5
      vertex -4.00214 3.79723 1.5
      vertex -4.0825 3.85751 1.5
    endloop
  endfacet
  facet normal 0 0 1
    outer loop
      vertex -14 14 1.5
      vertex -4.31104 4.30685 1.5
      vertex -4.31177 6.8546 1.5
    endloop
  endfacet
  facet normal 0 0 1
    outer loop
      vertex -14 14 1.5
      vertex -4.3002 4.22246 1.5
      vertex -4.31104 4.30685 1.5
    endloop
  endfacet
  facet normal 0 0 1
    outer loop
      vertex -14 14 1.5
      vertex -4.27812 4.14172 1.5
      vertex -4.3002 4.22246 1.5
    endloop
  endfacet
  facet normal 0 0 1
    outer loop
      vertex -14 -14 1.5
      vertex -4.27812 4.14172 1.5
      vertex -14 14 1.5
    endloop
  endfacet
  facet normal 0 0 1
    outer loop
      vertex -4.27812 4.14172 1.5
      vertex -14 -14 1.5
      vertex -4.2457 4.06529 1.5
    endloop
  endfacet
  facet normal 0 0 1
    outer loop
      vertex -4.2457 4.06529 1.5
      vertex -14 -14 1.5
      vertex -4.20377 3.99385 1.5
    endloop
  endfacet
  facet normal 0 0 1
    outer loop
      vertex -3.64986 3.68237 1.5
      vertex -14 -14 1.5
      vertex 14 -14 1.5
    endloop
  endfacet
  facet normal 0 0 1
    outer loop
      vertex -4.15324 3.92807 1.5
      vertex -14 -14 1.5
      vertex -4.0825 3.85751 1.5
    endloop
  endfacet
  facet normal 0 0 1
    outer loop
      vertex -4.20377 3.99385 1.5
      vertex -14 -14 1.5
      vertex -4.15324 3.92807 1.5
    endloop
  endfacet
  facet normal 1 -0 0
    outer loop
      vertex 14 -14 1.5
      vertex 14 14 0.5
      vertex 14 14 1.5
    endloop
  endfacet
  facet normal 1 0 0
    outer loop
      vertex 14 14 0.5
      vertex 14 -14 1.5
      vertex 14 -14 0.5
    endloop
  endfacet
  facet normal 0 1 -0
    outer loop
      vertex 14 14 0.5
      vertex -14 14 1.5
      vertex 14 14 1.5
    endloop
  endfacet
  facet normal 0 1 0
    outer loop
      vertex -14 14 1.5
      vertex 14 14 0.5
      vertex -14 14 0.5
    endloop
  endfacet
  facet normal 0 0 -1
    outer loop
      vertex -14 -14 0.5
      vertex 14 14 0.5
      vertex 14 -14 0.5
    endloop
  endfacet
  facet normal -0 0 -1
    outer loop
      vertex 14 14 0.5
      vertex -14 -14 0.5
      vertex -14 14 0.5
    endloop
  endfacet
  facet normal 0 -1 0
    outer loop
      vertex -14 -14 0.5
      vertex 14 -14 1.5
      vertex -14 -14 1.5
    endloop
  endfacet
  facet normal 0 -1 -0
    outer loop
      vertex 14 -14 1.5
      vertex -14 -14 0.5
      vertex 14 -14 0.5
    endloop
  endfacet
  facet normal 0.999088 -0.0426961 0
    outer loop
      vertex 4.55975 4.28972 3
      vertex 4.56197 4.34149 1.5
      vertex 4.56197 4.34149 3
    endloop
  endfacet
  facet normal 0.999088 -0.0426961 0
    outer loop
      vertex 4.56197 4.34149 1.5
      vertex 4.55975 4.28972 3
      vertex 4.55975 4.28972 1.5
    endloop
  endfacet
  facet normal 0.23265 -0.97256 0
    outer loop
      vertex 3.98552 3.69208 1.5
      vertex 4.06863 3.71196 3
      vertex 3.98552 3.69208 3
    endloop
  endfacet
  facet normal 0.23265 -0.97256 0
    outer loop
      vertex 4.06863 3.71196 3
      vertex 3.98552 3.69208 1.5
      vertex 4.06863 3.71196 1.5
    endloop
  endfacet
  facet normal -0.745101 0.666952 0
    outer loop
      vertex -4.164 7.26575 1.5
      vertex -4.10722 7.32918 3
      vertex -4.10722 7.32918 1.5
    endloop
  endfacet
  facet normal -0.745101 0.666952 0
    outer loop
      vertex -4.10722 7.32918 3
      vertex -4.164 7.26575 1.5
      vertex -4.164 7.26575 3
    endloop
  endfacet
  facet normal 0.346389 -0.938091 0
    outer loop
      vertex 4.06863 3.71196 1.5
      vertex 4.14822 3.74135 3
      vertex 4.06863 3.71196 3
    endloop
  endfacet
  facet normal 0.346389 -0.938091 0
    outer loop
      vertex 4.14822 3.74135 3
      vertex 4.06863 3.71196 1.5
      vertex 4.14822 3.74135 1.5
    endloop
  endfacet
  facet normal 0.328521 0.944497 -0
    outer loop
      vertex 4.13263 7.47864 1.5
      vertex 4.05226 7.50659 3
      vertex 4.13263 7.47864 3
    endloop
  endfacet
  facet normal 0.328521 0.944497 0
    outer loop
      vertex 4.05226 7.50659 3
      vertex 4.13263 7.47864 1.5
      vertex 4.05226 7.50659 1.5
    endloop
  endfacet
  facet normal -0.483911 -0.875117 0
    outer loop
      vertex -4.00214 3.79723 1.5
      vertex -3.9137 3.74832 3
      vertex -4.00214 3.79723 3
    endloop
  endfacet
  facet normal -0.483911 -0.875117 -0
    outer loop
      vertex -3.9137 3.74832 3
      vertex -4.00214 3.79723 1.5
      vertex -3.9137 3.74832 1.5
    endloop
  endfacet
  facet normal 0.993137 0.116956 0
    outer loop
      vertex 4.56097 6.87354 3
      vertex 4.55014 6.96553 1.5
      vertex 4.55014 6.96553 3
    endloop
  endfacet
  facet normal 0.993137 0.116956 0
    outer loop
      vertex 4.55014 6.96553 1.5
      vertex 4.56097 6.87354 3
      vertex 4.56097 6.87354 1.5
    endloop
  endfacet
  facet normal 0.849475 -0.527629 0
    outer loop
      vertex 4.44427 3.98022 3
      vertex 4.48798 4.05058 1.5
      vertex 4.48798 4.05058 3
    endloop
  endfacet
  facet normal 0.849475 -0.527629 0
    outer loop
      vertex 4.48798 4.05058 1.5
      vertex 4.44427 3.98022 3
      vertex 4.44427 3.98022 1.5
    endloop
  endfacet
  facet normal 0.957054 -0.289911 0
    outer loop
      vertex 4.52238 4.12607 3
      vertex 4.5466 4.20601 1.5
      vertex 4.5466 4.20601 3
    endloop
  endfacet
  facet normal 0.957054 -0.289911 0
    outer loop
      vertex 4.5466 4.20601 1.5
      vertex 4.52238 4.12607 3
      vertex 4.52238 4.12607 1.5
    endloop
  endfacet
  facet normal 0 -1 0
    outer loop
      vertex -3.64986 3.68237 1.5
      vertex 3.8998 3.68237 3
      vertex -3.64986 3.68237 3
    endloop
  endfacet
  facet normal 0 -1 -0
    outer loop
      vertex 3.8998 3.68237 3
      vertex -3.64986 3.68237 1.5
      vertex 3.8998 3.68237 1.5
    endloop
  endfacet
  facet normal -8.71089e-05 1 0
    outer loop
      vertex 3.88242 7.53227 1.5
      vertex -3.64986 7.53162 3
      vertex 3.88242 7.53227 3
    endloop
  endfacet
  facet normal -8.71089e-05 1 0
    outer loop
      vertex -3.64986 7.53162 3
      vertex 3.88242 7.53227 1.5
      vertex -3.64986 7.53162 1.5
    endloop
  endfacet
  facet normal 1 0.000391708 0
    outer loop
      vertex 4.56197 4.34149 3
      vertex 4.56097 6.87354 1.5
      vertex 4.56097 6.87354 3
    endloop
  endfacet
  facet normal 1 0.000391708 0
    outer loop
      vertex 4.56097 6.87354 1.5
      vertex 4.56197 4.34149 3
      vertex 4.56197 4.34149 1.5
    endloop
  endfacet
  facet normal 0.689186 -0.724584 0
    outer loop
      vertex 4.31967 3.84673 1.5
      vertex 4.39214 3.91565 3
      vertex 4.31967 3.84673 3
    endloop
  endfacet
  facet normal 0.689186 -0.724584 0
    outer loop
      vertex 4.39214 3.91565 3
      vertex 4.31967 3.84673 1.5
      vertex 4.39214 3.91565 1.5
    endloop
  endfacet
  facet normal 0.778045 -0.628209 0
    outer loop
      vertex 4.39214 3.91565 3
      vertex 4.44427 3.98022 1.5
      vertex 4.44427 3.98022 3
    endloop
  endfacet
  facet normal 0.778045 -0.628209 0
    outer loop
      vertex 4.44427 3.98022 1.5
      vertex 4.39214 3.91565 3
      vertex 4.39214 3.91565 1.5
    endloop
  endfacet
  facet normal 0.463488 -0.886103 0
    outer loop
      vertex 4.14822 3.74135 1.5
      vertex 4.23787 3.78824 3
      vertex 4.14822 3.74135 3
    endloop
  endfacet
  facet normal 0.463488 -0.886103 0
    outer loop
      vertex 4.23787 3.78824 3
      vertex 4.14822 3.74135 1.5
      vertex 4.23787 3.78824 1.5
    endloop
  endfacet
  facet normal 0.909925 -0.414773 0
    outer loop
      vertex 4.48798 4.05058 3
      vertex 4.52238 4.12607 1.5
      vertex 4.52238 4.12607 3
    endloop
  endfacet
  facet normal 0.909925 -0.414773 0
    outer loop
      vertex 4.52238 4.12607 1.5
      vertex 4.48798 4.05058 3
      vertex 4.48798 4.05058 1.5
    endloop
  endfacet
  facet normal 0.987879 -0.155223 0
    outer loop
      vertex 4.5466 4.20601 3
      vertex 4.55975 4.28972 1.5
      vertex 4.55975 4.28972 3
    endloop
  endfacet
  facet normal 0.987879 -0.155223 0
    outer loop
      vertex 4.55975 4.28972 1.5
      vertex 4.5466 4.20601 3
      vertex 4.5466 4.20601 1.5
    endloop
  endfacet
  facet normal -0.995872 0.0907717 0
    outer loop
      vertex -4.31177 6.8546 1.5
      vertex -4.3033 6.94751 3
      vertex -4.3033 6.94751 1.5
    endloop
  endfacet
  facet normal -0.995872 0.0907717 0
    outer loop
      vertex -4.3033 6.94751 3
      vertex -4.31177 6.8546 1.5
      vertex -4.31177 6.8546 3
    endloop
  endfacet
  facet normal -1 -0.000287479 0
    outer loop
      vertex -4.31104 4.30685 1.5
      vertex -4.31177 6.8546 3
      vertex -4.31177 6.8546 1.5
    endloop
  endfacet
  facet normal -1 -0.000287479 0
    outer loop
      vertex -4.31177 6.8546 3
      vertex -4.31104 4.30685 1.5
      vertex -4.31104 4.30685 3
    endloop
  endfacet
  facet normal -0.862426 -0.506183 0
    outer loop
      vertex -4.20377 3.99385 1.5
      vertex -4.2457 4.06529 3
      vertex -4.2457 4.06529 1.5
    endloop
  endfacet
  facet normal -0.862426 -0.506183 0
    outer loop
      vertex -4.2457 4.06529 3
      vertex -4.20377 3.99385 1.5
      vertex -4.20377 3.99385 3
    endloop
  endfacet
  facet normal -0.368408 -0.929664 0
    outer loop
      vertex -3.9137 3.74832 1.5
      vertex -3.83492 3.7171 3
      vertex -3.9137 3.74832 3
    endloop
  endfacet
  facet normal -0.368408 -0.929664 -0
    outer loop
      vertex -3.83492 3.7171 3
      vertex -3.9137 3.74832 1.5
      vertex -3.83492 3.7171 1.5
    endloop
  endfacet
  facet normal -0.137003 -0.990571 0
    outer loop
      vertex -3.75244 3.69527 1.5
      vertex -3.66716 3.68347 3
      vertex -3.75244 3.69527 3
    endloop
  endfacet
  facet normal -0.137003 -0.990571 -0
    outer loop
      vertex -3.66716 3.68347 3
      vertex -3.75244 3.69527 1.5
      vertex -3.66716 3.68347 1.5
    endloop
  endfacet
  facet normal 0.112489 -0.993653 0
    outer loop
      vertex 3.8998 3.68237 1.5
      vertex 3.98552 3.69208 3
      vertex 3.8998 3.68237 3
    endloop
  endfacet
  facet normal 0.112489 -0.993653 0
    outer loop
      vertex 3.98552 3.69208 3
      vertex 3.8998 3.68237 1.5
      vertex 3.98552 3.69208 1.5
    endloop
  endfacet
  facet normal -0.351281 0.93627 0
    outer loop
      vertex -3.81868 7.50177 1.5
      vertex -3.89827 7.47191 3
      vertex -3.81868 7.50177 3
    endloop
  endfacet
  facet normal -0.351281 0.93627 0
    outer loop
      vertex -3.89827 7.47191 3
      vertex -3.81868 7.50177 1.5
      vertex -3.89827 7.47191 1.5
    endloop
  endfacet
  facet normal 0.088038 0.996117 -0
    outer loop
      vertex 3.96857 7.52466 1.5
      vertex 3.88242 7.53227 3
      vertex 3.96857 7.52466 3
    endloop
  endfacet
  facet normal 0.088038 0.996117 0
    outer loop
      vertex 3.88242 7.53227 3
      vertex 3.96857 7.52466 1.5
      vertex 3.88242 7.53227 1.5
    endloop
  endfacet
  facet normal 0.211001 0.977486 -0
    outer loop
      vertex 4.05226 7.50659 1.5
      vertex 3.96857 7.52466 3
      vertex 4.05226 7.50659 3
    endloop
  endfacet
  facet normal 0.211001 0.977486 0
    outer loop
      vertex 3.96857 7.52466 3
      vertex 4.05226 7.50659 1.5
      vertex 3.96857 7.52466 1.5
    endloop
  endfacet
  facet normal -0.113187 0.993574 0
    outer loop
      vertex -3.64986 7.53162 1.5
      vertex -3.73558 7.52185 3
      vertex -3.64986 7.53162 3
    endloop
  endfacet
  facet normal -0.113187 0.993574 0
    outer loop
      vertex -3.73558 7.52185 3
      vertex -3.64986 7.53162 1.5
      vertex -3.73558 7.52185 1.5
    endloop
  endfacet
  facet normal 0.807153 0.590343 0
    outer loop
      vertex 4.45372 7.20993 3
      vertex 4.4032 7.27901 1.5
      vertex 4.4032 7.27901 3
    endloop
  endfacet
  facet normal 0.807153 0.590343 0
    outer loop
      vertex 4.4032 7.27901 1.5
      vertex 4.45372 7.20993 3
      vertex 4.45372 7.20993 1.5
    endloop
  endfacet
  facet normal 0.581611 -0.813467 0
    outer loop
      vertex 4.23787 3.78824 1.5
      vertex 4.31967 3.84673 3
      vertex 4.23787 3.78824 3
    endloop
  endfacet
  facet normal 0.581611 -0.813467 0
    outer loop
      vertex 4.31967 3.84673 3
      vertex 4.23787 3.78824 1.5
      vertex 4.31967 3.84673 1.5
    endloop
  endfacet
  facet normal -0.93857 0.345088 0
    outer loop
      vertex -4.2834 7.03563 1.5
      vertex -4.25296 7.11842 3
      vertex -4.25296 7.11842 1.5
    endloop
  endfacet
  facet normal -0.93857 0.345088 0
    outer loop
      vertex -4.25296 7.11842 3
      vertex -4.2834 7.03563 1.5
      vertex -4.2834 7.03563 3
    endloop
  endfacet
  facet normal 0 0 1
    outer loop
      vertex 3.8998 3.68237 3
      vertex 4.56197 4.34149 3
      vertex 4.56097 6.87354 3
    endloop
  endfacet
  facet normal 0 0 1
    outer loop
      vertex 3.88242 7.53227 3
      vertex 4.56097 6.87354 3
      vertex 4.55014 6.96553 3
    endloop
  endfacet
  facet normal 0 -0 1
    outer loop
      vertex 3.8998 3.68237 3
      vertex 4.56097 6.87354 3
      vertex 3.88242 7.53227 3
    endloop
  endfacet
  facet normal 0 0 1
    outer loop
      vertex 3.88242 7.53227 3
      vertex 4.55014 6.96553 3
      vertex 4.52808 7.05264 3
    endloop
  endfacet
  facet normal 0 -0 1
    outer loop
      vertex 4.23787 3.78824 3
      vertex 4.56197 4.34149 3
      vertex 3.8998 3.68237 3
    endloop
  endfacet
  facet normal 0 0 1
    outer loop
      vertex 3.88242 7.53227 3
      vertex 4.52808 7.05264 3
      vertex 4.49564 7.13429 3
    endloop
  endfacet
  facet normal 0 -0 1
    outer loop
      vertex 4.31967 3.84673 3
      vertex 4.56197 4.34149 3
      vertex 4.23787 3.78824 3
    endloop
  endfacet
  facet normal 0 0 1
    outer loop
      vertex 3.88242 7.53227 3
      vertex 4.49564 7.13429 3
      vertex 4.45372 7.20993 3
    endloop
  endfacet
  facet normal 0 -0 1
    outer loop
      vertex 4.44427 3.98022 3
      vertex 4.56197 4.34149 3
      vertex 4.39214 3.91565 3
    endloop
  endfacet
  facet normal 0 0 1
    outer loop
      vertex 3.88242 7.53227 3
      vertex 4.45372 7.20993 3
      vertex 4.4032 7.27901 3
    endloop
  endfacet
  facet normal 0 0 1
    outer loop
      vertex 4.5466 4.20601 3
      vertex 4.48798 4.05058 3
      vertex 4.52238 4.12607 3
    endloop
  endfacet
  facet normal 0 0 1
    outer loop
      vertex 3.88242 7.53227 3
      vertex 4.4032 7.27901 3
      vertex 4.34494 7.34097 3
    endloop
  endfacet
  facet normal 0 0 1
    outer loop
      vertex 4.5466 4.20601 3
      vertex 4.44427 3.98022 3
      vertex 4.48798 4.05058 3
    endloop
  endfacet
  facet normal 0 0 1
    outer loop
      vertex 3.88242 7.53227 3
      vertex 4.34494 7.34097 3
      vertex 4.27985 7.39528 3
    endloop
  endfacet
  facet normal 0 0 1
    outer loop
      vertex 4.55975 4.28972 3
      vertex 4.44427 3.98022 3
      vertex 4.5466 4.20601 3
    endloop
  endfacet
  facet normal 0 0 1
    outer loop
      vertex 3.88242 7.53227 3
      vertex 4.27985 7.39528 3
      vertex 4.20879 7.44135 3
    endloop
  endfacet
  facet normal 0 0 1
    outer loop
      vertex 4.56197 4.34149 3
      vertex 4.44427 3.98022 3
      vertex 4.55975 4.28972 3
    endloop
  endfacet
  facet normal 0 0 1
    outer loop
      vertex 3.88242 7.53227 3
      vertex 4.20879 7.44135 3
      vertex 4.13263 7.47864 3
    endloop
  endfacet
  facet normal 0 -0 1
    outer loop
      vertex 4.39214 3.91565 3
      vertex 4.56197 4.34149 3
      vertex 4.31967 3.84673 3
    endloop
  endfacet
  facet normal 0 0 1
    outer loop
      vertex 3.88242 7.53227 3
      vertex 4.13263 7.47864 3
      vertex 4.05226 7.50659 3
    endloop
  endfacet
  facet normal 0 0 1
    outer loop
      vertex 4.23787 3.78824 3
      vertex 3.8998 3.68237 3
      vertex 4.14822 3.74135 3
    endloop
  endfacet
  facet normal 0 0 1
    outer loop
      vertex 3.88242 7.53227 3
      vertex 4.05226 7.50659 3
      vertex 3.96857 7.52466 3
    endloop
  endfacet
  facet normal 0 0 1
    outer loop
      vertex 4.14822 3.74135 3
      vertex 3.8998 3.68237 3
      vertex 4.06863 3.71196 3
    endloop
  endfacet
  facet normal 0 0 1
    outer loop
      vertex 4.06863 3.71196 3
      vertex 3.8998 3.68237 3
      vertex 3.98552 3.69208 3
    endloop
  endfacet
  facet normal -0 0 1
    outer loop
      vertex -3.64986 7.53162 3
      vertex 3.8998 3.68237 3
      vertex 3.88242 7.53227 3
    endloop
  endfacet
  facet normal 0 0 1
    outer loop
      vertex -3.64986 7.53162 3
      vertex -3.64986 3.68237 3
      vertex 3.8998 3.68237 3
    endloop
  endfacet
  facet normal -0 0 1
    outer loop
      vertex -4.31177 6.8546 3
      vertex -3.64986 3.68237 3
      vertex -3.64986 7.53162 3
    endloop
  endfacet
  facet normal 0 0 1
    outer loop
      vertex -4.31177 6.8546 3
      vertex -3.64986 7.53162 3
      vertex -3.73558 7.52185 3
    endloop
  endfacet
  facet normal -0 -0 1
    outer loop
      vertex -4.31104 4.30685 3
      vertex -3.64986 3.68237 3
      vertex -4.31177 6.8546 3
    endloop
  endfacet
  facet normal 0 0 1
    outer loop
      vertex -4.31177 6.8546 3
      vertex -3.73558 7.52185 3
      vertex -3.81868 7.50177 3
    endloop
  endfacet
  facet normal 0 0 1
    outer loop
      vertex -3.64986 3.68237 3
      vertex -4.31104 4.30685 3
      vertex -3.66716 3.68347 3
    endloop
  endfacet
  facet normal 0 0 1
    outer loop
      vertex -4.31177 6.8546 3
      vertex -3.81868 7.50177 3
      vertex -3.89827 7.47191 3
    endloop
  endfacet
  facet normal 0 0 1
    outer loop
      vertex -3.66716 3.68347 3
      vertex -4.31104 4.30685 3
      vertex -3.75244 3.69527 3
    endloop
  endfacet
  facet normal 0 0 1
    outer loop
      vertex -4.31177 6.8546 3
      vertex -3.89827 7.47191 3
      vertex -3.97348 7.43282 3
    endloop
  endfacet
  facet normal 0 0 1
    outer loop
      vertex -3.75244 3.69527 3
      vertex -4.31104 4.30685 3
      vertex -3.83492 3.7171 3
    endloop
  endfacet
  facet normal 0 0 1
    outer loop
      vertex -4.31177 6.8546 3
      vertex -3.97348 7.43282 3
      vertex -4.04343 7.38506 3
    endloop
  endfacet
  facet normal 0 0 1
    outer loop
      vertex -3.83492 3.7171 3
      vertex -4.31104 4.30685 3
      vertex -3.9137 3.74832 3
    endloop
  endfacet
  facet normal 0 0 1
    outer loop
      vertex -4.31177 6.8546 3
      vertex -4.04343 7.38506 3
      vertex -4.10722 7.32918 3
    endloop
  endfacet
  facet normal 0 0 1
    outer loop
      vertex -3.9137 3.74832 3
      vertex -4.31104 4.30685 3
      vertex -4.00214 3.79723 3
    endloop
  endfacet
  facet normal 0 0 1
    outer loop
      vertex -4.31177 6.8546 3
      vertex -4.10722 7.32918 3
      vertex -4.164 7.26575 3
    endloop
  endfacet
  facet normal 0 0 1
    outer loop
      vertex -4.00214 3.79723 3
      vertex -4.31104 4.30685 3
      vertex -4.0825 3.85751 3
    endloop
  endfacet
  facet normal 0 0 1
    outer loop
      vertex -4.31177 6.8546 3
      vertex -4.164 7.26575 3
      vertex -4.21288 7.19531 3
    endloop
  endfacet
  facet normal 0 0 1
    outer loop
      vertex -4.0825 3.85751 3
      vertex -4.31104 4.30685 3
      vertex -4.15324 3.92807 3
    endloop
  endfacet
  facet normal 0 0 1
    outer loop
      vertex -4.31177 6.8546 3
      vertex -4.21288 7.19531 3
      vertex -4.25296 7.11842 3
    endloop
  endfacet
  facet normal 0 0 1
    outer loop
      vertex -4.15324 3.92807 3
      vertex -4.31104 4.30685 3
      vertex -4.20377 3.99385 3
    endloop
  endfacet
  facet normal 0 0 1
    outer loop
      vertex -4.31177 6.8546 3
      vertex -4.25296 7.11842 3
      vertex -4.2834 7.03563 3
    endloop
  endfacet
  facet normal 0 0 1
    outer loop
      vertex -4.20377 3.99385 3
      vertex -4.31104 4.30685 3
      vertex -4.2457 4.06529 3
    endloop
  endfacet
  facet normal 0 0 1
    outer loop
      vertex -4.31177 6.8546 3
      vertex -4.2834 7.03563 3
      vertex -4.3033 6.94751 3
    endloop
  endfacet
  facet normal 0 0 1
    outer loop
      vertex -4.2457 4.06529 3
      vertex -4.31104 4.30685 3
      vertex -4.27812 4.14172 3
    endloop
  endfacet
  facet normal 0 0 1
    outer loop
      vertex -4.27812 4.14172 3
      vertex -4.31104 4.30685 3
      vertex -4.3002 4.22246 3
    endloop
  endfacet
  facet normal -0.975442 0.220256 0
    outer loop
      vertex -4.3033 6.94751 1.5
      vertex -4.2834 7.03563 3
      vertex -4.2834 7.03563 1.5
    endloop
  endfacet
  facet normal -0.975442 0.220256 0
    outer loop
      vertex -4.2834 7.03563 3
      vertex -4.3033 6.94751 1.5
      vertex -4.3033 6.94751 3
    endloop
  endfacet
  facet normal -0.793082 -0.609115 0
    outer loop
      vertex -4.15324 3.92807 1.5
      vertex -4.20377 3.99385 3
      vertex -4.20377 3.99385 1.5
    endloop
  endfacet
  facet normal -0.793082 -0.609115 0
    outer loop
      vertex -4.20377 3.99385 3
      vertex -4.15324 3.92807 1.5
      vertex -4.15324 3.92807 3
    endloop
  endfacet
  facet normal -0.600073 -0.799945 0
    outer loop
      vertex -4.0825 3.85751 1.5
      vertex -4.00214 3.79723 3
      vertex -4.0825 3.85751 3
    endloop
  endfacet
  facet normal -0.600073 -0.799945 -0
    outer loop
      vertex -4.00214 3.79723 3
      vertex -4.0825 3.85751 1.5
      vertex -4.00214 3.79723 1.5
    endloop
  endfacet
  facet normal -0.920584 -0.390545 0
    outer loop
      vertex -4.2457 4.06529 1.5
      vertex -4.27812 4.14172 3
      vertex -4.27812 4.14172 1.5
    endloop
  endfacet
  facet normal -0.920584 -0.390545 0
    outer loop
      vertex -4.27812 4.14172 3
      vertex -4.2457 4.06529 1.5
      vertex -4.2457 4.06529 3
    endloop
  endfacet
  facet normal -0.991861 -0.127323 0
    outer loop
      vertex -4.3002 4.22246 1.5
      vertex -4.31104 4.30685 3
      vertex -4.31104 4.30685 1.5
    endloop
  endfacet
  facet normal -0.991861 -0.127323 0
    outer loop
      vertex -4.31104 4.30685 3
      vertex -4.3002 4.22246 1.5
      vertex -4.3002 4.22246 3
    endloop
  endfacet
  facet normal -0.255937 -0.966694 0
    outer loop
      vertex -3.83492 3.7171 1.5
      vertex -3.75244 3.69527 3
      vertex -3.83492 3.7171 3
    endloop
  endfacet
  facet normal -0.255937 -0.966694 -0
    outer loop
      vertex -3.75244 3.69527 3
      vertex -3.83492 3.7171 1.5
      vertex -3.75244 3.69527 1.5
    endloop
  endfacet
  facet normal -0.0633645 -0.99799 0
    outer loop
      vertex -3.66716 3.68347 1.5
      vertex -3.64986 3.68237 3
      vertex -3.66716 3.68347 3
    endloop
  endfacet
  facet normal -0.0633645 -0.99799 -0
    outer loop
      vertex -3.64986 3.68237 3
      vertex -3.66716 3.68347 1.5
      vertex -3.64986 3.68237 1.5
    endloop
  endfacet
  facet normal -0.563896 0.825846 0
    outer loop
      vertex -3.97348 7.43282 1.5
      vertex -4.04343 7.38506 3
      vertex -3.97348 7.43282 3
    endloop
  endfacet
  facet normal -0.563896 0.825846 0
    outer loop
      vertex -4.04343 7.38506 3
      vertex -3.97348 7.43282 1.5
      vertex -4.04343 7.38506 1.5
    endloop
  endfacet
  facet normal -0.234885 0.972023 0
    outer loop
      vertex -3.73558 7.52185 1.5
      vertex -3.81868 7.50177 3
      vertex -3.73558 7.52185 3
    endloop
  endfacet
  facet normal -0.234885 0.972023 0
    outer loop
      vertex -3.81868 7.50177 3
      vertex -3.73558 7.52185 1.5
      vertex -3.81868 7.50177 1.5
    endloop
  endfacet
  facet normal -0.4612 0.887296 0
    outer loop
      vertex -3.89827 7.47191 1.5
      vertex -3.97348 7.43282 3
      vertex -3.89827 7.47191 3
    endloop
  endfacet
  facet normal -0.4612 0.887296 0
    outer loop
      vertex -3.97348 7.43282 3
      vertex -3.89827 7.47191 1.5
      vertex -3.97348 7.43282 1.5
    endloop
  endfacet
  facet normal -0.658874 0.752253 0
    outer loop
      vertex -4.04343 7.38506 1.5
      vertex -4.10722 7.32918 3
      vertex -4.04343 7.38506 3
    endloop
  endfacet
  facet normal -0.658874 0.752253 0
    outer loop
      vertex -4.10722 7.32918 3
      vertex -4.04343 7.38506 1.5
      vertex -4.10722 7.32918 1.5
    endloop
  endfacet
  facet normal 0.640609 0.767867 -0
    outer loop
      vertex 4.34494 7.34097 1.5
      vertex 4.27985 7.39528 3
      vertex 4.34494 7.34097 3
    endloop
  endfacet
  facet normal 0.640609 0.767867 0
    outer loop
      vertex 4.27985 7.39528 3
      vertex 4.34494 7.34097 1.5
      vertex 4.27985 7.39528 1.5
    endloop
  endfacet
  facet normal 0.929337 0.369234 0
    outer loop
      vertex 4.52808 7.05264 3
      vertex 4.49564 7.13429 1.5
      vertex 4.49564 7.13429 3
    endloop
  endfacet
  facet normal 0.929337 0.369234 0
    outer loop
      vertex 4.49564 7.13429 1.5
      vertex 4.52808 7.05264 3
      vertex 4.52808 7.05264 1.5
    endloop
  endfacet
  facet normal 0.969389 0.245531 0
    outer loop
      vertex 4.55014 6.96553 3
      vertex 4.52808 7.05264 1.5
      vertex 4.52808 7.05264 3
    endloop
  endfacet
  facet normal 0.969389 0.245531 0
    outer loop
      vertex 4.52808 7.05264 1.5
      vertex 4.55014 6.96553 3
      vertex 4.55014 6.96553 1.5
    endloop
  endfacet
  facet normal 0.874673 0.484714 0
    outer loop
      vertex 4.49564 7.13429 3
      vertex 4.45372 7.20993 1.5
      vertex 4.45372 7.20993 3
    endloop
  endfacet
  facet normal 0.874673 0.484714 0
    outer loop
      vertex 4.45372 7.20993 1.5
      vertex 4.49564 7.13429 3
      vertex 4.49564 7.13429 1.5
    endloop
  endfacet
  facet normal 0.728569 0.684973 0
    outer loop
      vertex 4.4032 7.27901 3
      vertex 4.34494 7.34097 1.5
      vertex 4.34494 7.34097 3
    endloop
  endfacet
  facet normal 0.728569 0.684973 0
    outer loop
      vertex 4.34494 7.34097 1.5
      vertex 4.4032 7.27901 3
      vertex 4.4032 7.27901 1.5
    endloop
  endfacet
  facet normal -0.886732 0.462283 0
    outer loop
      vertex -4.25296 7.11842 1.5
      vertex -4.21288 7.19531 3
      vertex -4.21288 7.19531 1.5
    endloop
  endfacet
  facet normal -0.886732 0.462283 0
    outer loop
      vertex -4.21288 7.19531 3
      vertex -4.25296 7.11842 1.5
      vertex -4.25296 7.11842 3
    endloop
  endfacet
  facet normal -0.821583 0.570089 0
    outer loop
      vertex -4.21288 7.19531 1.5
      vertex -4.164 7.26575 3
      vertex -4.164 7.26575 1.5
    endloop
  endfacet
  facet normal -0.821583 0.570089 0
    outer loop
      vertex -4.164 7.26575 3
      vertex -4.21288 7.19531 1.5
      vertex -4.21288 7.19531 3
    endloop
  endfacet
  facet normal -0.70619 -0.708023 0
    outer loop
      vertex -4.15324 3.92807 1.5
      vertex -4.0825 3.85751 3
      vertex -4.15324 3.92807 3
    endloop
  endfacet
  facet normal -0.70619 -0.708023 -0
    outer loop
      vertex -4.0825 3.85751 3
      vertex -4.15324 3.92807 1.5
      vertex -4.0825 3.85751 1.5
    endloop
  endfacet
  facet normal -0.964578 -0.263796 0
    outer loop
      vertex -4.27812 4.14172 1.5
      vertex -4.3002 4.22246 3
      vertex -4.3002 4.22246 1.5
    endloop
  endfacet
  facet normal -0.964578 -0.263796 0
    outer loop
      vertex -4.3002 4.22246 3
      vertex -4.27812 4.14172 1.5
      vertex -4.27812 4.14172 3
    endloop
  endfacet
  facet normal 0.543968 0.839106 -0
    outer loop
      vertex 4.27985 7.39528 1.5
      vertex 4.20879 7.44135 3
      vertex 4.27985 7.39528 3
    endloop
  endfacet
  facet normal 0.543968 0.839106 0
    outer loop
      vertex 4.20879 7.44135 3
      vertex 4.27985 7.39528 1.5
      vertex 4.20879 7.44135 1.5
    endloop
  endfacet
  facet normal 0.439785 0.898103 -0
    outer loop
      vertex 4.20879 7.44135 1.5
      vertex 4.13263 7.47864 3
      vertex 4.20879 7.44135 3
    endloop
  endfacet
  facet normal 0.439785 0.898103 0
    outer loop
      vertex 4.13263 7.47864 3
      vertex 4.20879 7.44135 1.5
      vertex 4.13263 7.47864 1.5
    endloop
  endfacet
endsolid OpenSCAD_Model
