solid OpenSCAD_Model
  facet normal -1 0 0
    outer loop
      vertex -16.5 16.5 -1
      vertex -16.5 7.15 13.3
      vertex -16.5 16.5 15
    endloop
  endfacet
  facet normal -1 0 0
    outer loop
      vertex -16.5 16.5 -1
      vertex -16.5 -7.15 13.3
      vertex -16.5 7.15 13.3
    endloop
  endfacet
  facet normal -1 0 0
    outer loop
      vertex -16.5 -16.5 -1
      vertex -16.5 -7.15 13.3
      vertex -16.5 16.5 -1
    endloop
  endfacet
  facet normal -1 0 0
    outer loop
      vertex -16.5 -16.5 15
      vertex -16.5 -7.15 13.3
      vertex -16.5 -16.5 -1
    endloop
  endfacet
  facet normal -1 0 0
    outer loop
      vertex -16.5 -7.15 13.3
      vertex -16.5 -16.5 15
      vertex -16.5 -7.15 15
    endloop
  endfacet
  facet normal -1 -0 0
    outer loop
      vertex -16.5 16.5 15
      vertex -16.5 7.15 13.3
      vertex -16.5 7.15 15
    endloop
  endfacet
  facet normal -3.07047e-24 1.22465e-16 1
    outer loop
      vertex 15.5 15.5 -1.8982e-15
      vertex 2.30977 11.8856 -1.45557e-15
      vertex 15.5 -15.5 1.8982e-15
    endloop
  endfacet
  facet normal 1.02818e-22 1.22464e-16 1
    outer loop
      vertex 15.5 15.5 -1.8982e-15
      vertex 2.30013 12.0048 -1.47017e-15
      vertex 2.30977 11.8856 -1.45557e-15
    endloop
  endfacet
  facet normal -1.26109e-22 1.22465e-16 1
    outer loop
      vertex 15.5 15.5 -1.8982e-15
      vertex 2.27457 12.1302 -1.48552e-15
      vertex 2.30013 12.0048 -1.47017e-15
    endloop
  endfacet
  facet normal 1.34998e-22 1.22464e-16 1
    outer loop
      vertex 15.5 15.5 -1.8982e-15
      vertex 2.23259 12.2526 -1.50052e-15
      vertex 2.27457 12.1302 -1.48552e-15
    endloop
  endfacet
  facet normal -7.03697e-23 1.22465e-16 1
    outer loop
      vertex 15.5 15.5 -1.8982e-15
      vertex 2.17731 12.3639 -1.51414e-15
      vertex 2.23259 12.2526 -1.50052e-15
    endloop
  endfacet
  facet normal 6.38639e-23 1.22464e-16 1
    outer loop
      vertex 15.5 15.5 -1.8982e-15
      vertex 2.10905 12.4665 -1.52671e-15
      vertex 2.17731 12.3639 -1.51414e-15
    endloop
  endfacet
  facet normal -3.55797e-23 1.22465e-16 1
    outer loop
      vertex 15.5 15.5 -1.8982e-15
      vertex 2.02899 12.5595 -1.53809e-15
      vertex 2.10905 12.4665 -1.52671e-15
    endloop
  endfacet
  facet normal -9.76736e-23 1.22465e-16 1
    outer loop
      vertex 15.5 15.5 -1.8982e-15
      vertex 1.9384 12.6417 -1.54816e-15
      vertex 2.02899 12.5595 -1.53809e-15
    endloop
  endfacet
  facet normal 4.91168e-23 1.22464e-16 1
    outer loop
      vertex 15.5 15.5 -1.8982e-15
      vertex 1.84166 12.7101 -1.55654e-15
      vertex 1.9384 12.6417 -1.54816e-15
    endloop
  endfacet
  facet normal 3.92751e-23 1.22464e-16 1
    outer loop
      vertex 15.5 15.5 -1.8982e-15
      vertex 1.73415 12.7685 -1.56369e-15
      vertex 1.84166 12.7101 -1.55654e-15
    endloop
  endfacet
  facet normal 3.65695e-24 1.22465e-16 1
    outer loop
      vertex 15.5 15.5 -1.8982e-15
      vertex 1.62007 12.8135 -1.5692e-15
      vertex 1.73415 12.7685 -1.56369e-15
    endloop
  endfacet
  facet normal 3.07998e-23 1.22465e-16 1
    outer loop
      vertex 15.5 15.5 -1.8982e-15
      vertex 1.50452 12.8434 -1.57286e-15
      vertex 1.62007 12.8135 -1.5692e-15
    endloop
  endfacet
  facet normal -1.00165e-22 1.22465e-16 1
    outer loop
      vertex 15.5 15.5 -1.8982e-15
      vertex 1.3817 12.8597 -1.57486e-15
      vertex 1.50452 12.8434 -1.57286e-15
    endloop
  endfacet
  facet normal 5.17366e-24 1.22465e-16 1
    outer loop
      vertex 15.5 15.5 -1.8982e-15
      vertex -1.2148 12.8616 -1.57509e-15
      vertex 1.3817 12.8597 -1.57486e-15
    endloop
  endfacet
  facet normal -0 1.22465e-16 1
    outer loop
      vertex -15.5 15.5 -1.8982e-15
      vertex -1.2148 12.8616 -1.57509e-15
      vertex 15.5 15.5 -1.8982e-15
    endloop
  endfacet
  facet normal 3.34768e-24 1.22465e-16 1
    outer loop
      vertex -15.5 -15.5 1.8982e-15
      vertex -2.17406 11.9384 -1.46203e-15
      vertex -15.5 15.5 -1.8982e-15
    endloop
  endfacet
  facet normal -3.34665e-23 1.22465e-16 1
    outer loop
      vertex -2.15572 12.0711 -1.47828e-15
      vertex -15.5 15.5 -1.8982e-15
      vertex -2.17406 11.9384 -1.46203e-15
    endloop
  endfacet
  facet normal 2.01364e-23 1.22465e-16 1
    outer loop
      vertex -2.12199 12.194 -1.49333e-15
      vertex -15.5 15.5 -1.8982e-15
      vertex -2.15572 12.0711 -1.47828e-15
    endloop
  endfacet
  facet normal 1.78034e-23 1.22465e-16 1
    outer loop
      vertex -2.07352 12.3096 -1.50749e-15
      vertex -15.5 15.5 -1.8982e-15
      vertex -2.12199 12.194 -1.49333e-15
    endloop
  endfacet
  facet normal -8.52685e-23 1.22464e-16 1
    outer loop
      vertex -2.03159 12.3852 -1.51674e-15
      vertex -15.5 15.5 -1.8982e-15
      vertex -2.07352 12.3096 -1.50749e-15
    endloop
  endfacet
  facet normal -3.40742e-23 1.22465e-16 1
    outer loop
      vertex -1.93687 12.515 -1.53264e-15
      vertex -15.5 15.5 -1.8982e-15
      vertex -2.03159 12.3852 -1.51674e-15
    endloop
  endfacet
  facet normal 1.47329e-22 1.22465e-16 1
    outer loop
      vertex -1.85117 12.6026 -1.54337e-15
      vertex -15.5 15.5 -1.8982e-15
      vertex -1.93687 12.515 -1.53264e-15
    endloop
  endfacet
  facet normal -1.56066e-23 1.22465e-16 1
    outer loop
      vertex -1.75876 12.6769 -1.55247e-15
      vertex -15.5 15.5 -1.8982e-15
      vertex -1.85117 12.6026 -1.54337e-15
    endloop
  endfacet
  facet normal -1.76227e-22 1.22464e-16 1
    outer loop
      vertex -1.65491 12.7414 -1.56037e-15
      vertex -15.5 15.5 -1.8982e-15
      vertex -1.75876 12.6769 -1.55247e-15
    endloop
  endfacet
  facet normal 5.77482e-23 1.22465e-16 1
    outer loop
      vertex -1.5439 12.7929 -1.56668e-15
      vertex -15.5 15.5 -1.8982e-15
      vertex -1.65491 12.7414 -1.56037e-15
    endloop
  endfacet
  facet normal 1.29367e-22 1.22465e-16 1
    outer loop
      vertex -1.43085 12.8298 -1.5712e-15
      vertex -15.5 15.5 -1.8982e-15
      vertex -1.5439 12.7929 -1.56668e-15
    endloop
  endfacet
  facet normal -3.0871e-22 1.22463e-16 1
    outer loop
      vertex -1.31366 12.8531 -1.57406e-15
      vertex -15.5 15.5 -1.8982e-15
      vertex -1.43085 12.8298 -1.5712e-15
    endloop
  endfacet
  facet normal 3.24358e-22 1.22466e-16 1
    outer loop
      vertex -1.2148 12.8616 -1.57509e-15
      vertex -15.5 15.5 -1.8982e-15
      vertex -1.31366 12.8531 -1.57406e-15
    endloop
  endfacet
  facet normal 4.05227e-24 1.22465e-16 1
    outer loop
      vertex 2.30711 -12.4794 1.52828e-15
      vertex 15.5 -15.5 1.8982e-15
      vertex 2.30977 11.8856 -1.45557e-15
    endloop
  endfacet
  facet normal -2.84297e-23 1.22465e-16 1
    outer loop
      vertex 2.28877 -12.6121 1.54454e-15
      vertex 15.5 -15.5 1.8982e-15
      vertex 2.30711 -12.4794 1.52828e-15
    endloop
  endfacet
  facet normal 1.74825e-23 1.22465e-16 1
    outer loop
      vertex 2.25507 -12.735 1.55958e-15
      vertex 15.5 -15.5 1.8982e-15
      vertex 2.28877 -12.6121 1.54454e-15
    endloop
  endfacet
  facet normal -1.69886e-23 1.22465e-16 1
    outer loop
      vertex 2.20474 -12.8539 1.57415e-15
      vertex 15.5 -15.5 1.8982e-15
      vertex 2.25507 -12.735 1.55958e-15
    endloop
  endfacet
  facet normal -8.1994e-23 1.22464e-16 1
    outer loop
      vertex 2.14224 -12.961 1.58727e-15
      vertex 15.5 -15.5 1.8982e-15
      vertex 2.20474 -12.8539 1.57415e-15
    endloop
  endfacet
  facet normal 2.53062e-23 1.22465e-16 1
    outer loop
      vertex 2.06995 -13.056 1.5989e-15
      vertex 15.5 -15.5 1.8982e-15
      vertex 2.14224 -12.961 1.58727e-15
    endloop
  endfacet
  facet normal 1.25447e-22 1.22465e-16 1
    outer loop
      vertex 1.98422 -13.1436 1.60963e-15
      vertex 15.5 -15.5 1.8982e-15
      vertex 2.06995 -13.056 1.5989e-15
    endloop
  endfacet
  facet normal -1.27234e-23 1.22465e-16 1
    outer loop
      vertex 1.89182 -13.2179 1.61873e-15
      vertex 15.5 -15.5 1.8982e-15
      vertex 1.98422 -13.1436 1.60963e-15
    endloop
  endfacet
  facet normal -1.50249e-22 1.22464e-16 1
    outer loop
      vertex 1.78798 -13.2824 1.62663e-15
      vertex 15.5 -15.5 1.8982e-15
      vertex 1.89182 -13.2179 1.61873e-15
    endloop
  endfacet
  facet normal 4.93582e-23 1.22465e-16 1
    outer loop
      vertex 1.67697 -13.3339 1.63293e-15
      vertex 15.5 -15.5 1.8982e-15
      vertex 1.78798 -13.2824 1.62663e-15
    endloop
  endfacet
  facet normal 1.12481e-22 1.22465e-16 1
    outer loop
      vertex 1.56392 -13.3708 1.63745e-15
      vertex 15.5 -15.5 1.8982e-15
      vertex 1.67697 -13.3339 1.63293e-15
    endloop
  endfacet
  facet normal -2.40528e-22 1.22463e-16 1
    outer loop
      vertex 1.44298 -13.3945 1.64035e-15
      vertex 15.5 -15.5 1.8982e-15
      vertex 1.56392 -13.3708 1.63745e-15
    endloop
  endfacet
  facet normal 2.85578e-22 1.22467e-16 1
    outer loop
      vertex 1.33047 -13.4033 1.64143e-15
      vertex 15.5 -15.5 1.8982e-15
      vertex 1.44298 -13.3945 1.64035e-15
    endloop
  endfacet
  facet normal 1.45455e-24 1.22465e-16 1
    outer loop
      vertex -1.24864 -13.4007 1.64111e-15
      vertex 15.5 -15.5 1.8982e-15
      vertex 1.33047 -13.4033 1.64143e-15
    endloop
  endfacet
  facet normal -3.71784e-24 1.22465e-16 1
    outer loop
      vertex -2.17406 11.9384 -1.46203e-15
      vertex -15.5 -15.5 1.8982e-15
      vertex -2.1767 -12.4266 1.52182e-15
    endloop
  endfacet
  facet normal 8.65203e-23 1.22464e-16 1
    outer loop
      vertex -2.1767 -12.4266 1.52182e-15
      vertex -15.5 -15.5 1.8982e-15
      vertex -2.16707 -12.5458 1.53642e-15
    endloop
  endfacet
  facet normal -3.11695e-23 1.22465e-16 1
    outer loop
      vertex -2.16707 -12.5458 1.53642e-15
      vertex -15.5 -15.5 1.8982e-15
      vertex -2.14069 -12.6748 1.55222e-15
    endloop
  endfacet
  facet normal 0 1.22465e-16 1
    outer loop
      vertex -1.24864 -13.4007 1.64111e-15
      vertex -15.5 -15.5 1.8982e-15
      vertex 15.5 -15.5 1.8982e-15
    endloop
  endfacet
  facet normal -9.01943e-23 1.22465e-16 1
    outer loop
      vertex -1.37146 -13.3844 1.63911e-15
      vertex -15.5 -15.5 1.8982e-15
      vertex -1.24864 -13.4007 1.64111e-15
    endloop
  endfacet
  facet normal 2.67221e-23 1.22465e-16 1
    outer loop
      vertex -1.487 -13.3545 1.63545e-15
      vertex -15.5 -15.5 1.8982e-15
      vertex -1.37146 -13.3844 1.63911e-15
    endloop
  endfacet
  facet normal 3.06616e-24 1.22465e-16 1
    outer loop
      vertex -1.60107 -13.3095 1.62995e-15
      vertex -15.5 -15.5 1.8982e-15
      vertex -1.487 -13.3545 1.63545e-15
    endloop
  endfacet
  facet normal -1.49069e-23 1.22465e-16 1
    outer loop
      vertex -1.70547 -13.2533 1.62306e-15
      vertex -15.5 -15.5 1.8982e-15
      vertex -1.60107 -13.3095 1.62995e-15
    endloop
  endfacet
  facet normal 8.33102e-23 1.22464e-16 1
    outer loop
      vertex -1.80534 -13.1827 1.61442e-15
      vertex -15.5 -15.5 1.8982e-15
      vertex -1.70547 -13.2533 1.62306e-15
    endloop
  endfacet
  facet normal -8.19419e-23 1.22465e-16 1
    outer loop
      vertex -1.89594 -13.1005 1.60435e-15
      vertex -15.5 -15.5 1.8982e-15
      vertex -1.80534 -13.1827 1.61442e-15
    endloop
  endfacet
  facet normal -2.96167e-23 1.22465e-16 1
    outer loop
      vertex -1.976 -13.0075 1.59296e-15
      vertex -15.5 -15.5 1.8982e-15
      vertex -1.89594 -13.1005 1.60435e-15
    endloop
  endfacet
  facet normal 5.3504e-23 1.22464e-16 1
    outer loop
      vertex -2.04425 -12.9049 1.5804e-15
      vertex -15.5 -15.5 1.8982e-15
      vertex -1.976 -13.0075 1.59296e-15
    endloop
  endfacet
  facet normal -5.89038e-23 1.22465e-16 1
    outer loop
      vertex -2.09952 -12.7936 1.56677e-15
      vertex -15.5 -15.5 1.8982e-15
      vertex -2.04425 -12.9049 1.5804e-15
    endloop
  endfacet
  facet normal 4.69712e-23 1.22464e-16 1
    outer loop
      vertex -2.14069 -12.6748 1.55222e-15
      vertex -15.5 -15.5 1.8982e-15
      vertex -2.09952 -12.7936 1.56677e-15
    endloop
  endfacet
  facet normal 1 0 0
    outer loop
      vertex 16.5 -7.15 15
      vertex 16.5 -16.5 15
      vertex 16.5 -7.15 13.3
    endloop
  endfacet
  facet normal 1 0 0
    outer loop
      vertex 16.5 7.15 13.3
      vertex 16.5 16.5 15
      vertex 16.5 7.15 15
    endloop
  endfacet
  facet normal 1 0 0
    outer loop
      vertex 16.5 16.5 15
      vertex 16.5 7.15 13.3
      vertex 16.5 16.5 -1
    endloop
  endfacet
  facet normal 1 -0 0
    outer loop
      vertex 16.5 -7.15 13.3
      vertex 16.5 16.5 -1
      vertex 16.5 7.15 13.3
    endloop
  endfacet
  facet normal 1 0 0
    outer loop
      vertex 16.5 -16.5 -1
      vertex 16.5 -7.15 13.3
      vertex 16.5 -16.5 15
    endloop
  endfacet
  facet normal 1 0 0
    outer loop
      vertex 16.5 -7.15 13.3
      vertex 16.5 -16.5 -1
      vertex 16.5 16.5 -1
    endloop
  endfacet
  facet normal 0 -1 0
    outer loop
      vertex -16.5 -16.5 15
      vertex -7.15 -16.5 13.3
      vertex -7.15 -16.5 15
    endloop
  endfacet
  facet normal 0 -1 -0
    outer loop
      vertex -7.15 -16.5 13.3
      vertex -16.5 -16.5 -1
      vertex 7.15 -16.5 13.3
    endloop
  endfacet
  facet normal 0 -1 0
    outer loop
      vertex -16.5 -16.5 -1
      vertex -7.15 -16.5 13.3
      vertex -16.5 -16.5 15
    endloop
  endfacet
  facet normal 0 -1 0
    outer loop
      vertex 7.15 -16.5 13.3
      vertex 16.5 -16.5 15
      vertex 7.15 -16.5 15
    endloop
  endfacet
  facet normal 0 -1 0
    outer loop
      vertex 16.5 -16.5 -1
      vertex 7.15 -16.5 13.3
      vertex -16.5 -16.5 -1
    endloop
  endfacet
  facet normal 0 -1 0
    outer loop
      vertex 7.15 -16.5 13.3
      vertex 16.5 -16.5 -1
      vertex 16.5 -16.5 15
    endloop
  endfacet
  facet normal 0 0 1
    outer loop
      vertex -15.5 -7.15 15
      vertex -16.5 -7.15 15
      vertex -15.5 -15.5 15
    endloop
  endfacet
  facet normal -0 0 1
    outer loop
      vertex -15.5 -15.5 15
      vertex -7.15 -16.5 15
      vertex -7.15 -15.5 15
    endloop
  endfacet
  facet normal 0 0 1
    outer loop
      vertex -15.5 -15.5 15
      vertex -16.5 -16.5 15
      vertex -7.15 -16.5 15
    endloop
  endfacet
  facet normal 0 0 1
    outer loop
      vertex -16.5 -16.5 15
      vertex -15.5 -15.5 15
      vertex -16.5 -7.15 15
    endloop
  endfacet
  facet normal 0 0 1
    outer loop
      vertex -7.15 16.5 15
      vertex -15.5 15.5 15
      vertex -7.15 15.5 15
    endloop
  endfacet
  facet normal -0 0 1
    outer loop
      vertex -16.5 16.5 15
      vertex -15.5 15.5 15
      vertex -7.15 16.5 15
    endloop
  endfacet
  facet normal 0 0 1
    outer loop
      vertex -16.5 7.15 15
      vertex -15.5 15.5 15
      vertex -16.5 16.5 15
    endloop
  endfacet
  facet normal 0 0 1
    outer loop
      vertex -15.5 15.5 15
      vertex -16.5 7.15 15
      vertex -15.5 7.15 15
    endloop
  endfacet
  facet normal 0 0 1
    outer loop
      vertex 16.5 16.5 15
      vertex 15.5 15.5 15
      vertex 16.5 7.15 15
    endloop
  endfacet
  facet normal -0 0 1
    outer loop
      vertex 7.15 16.5 15
      vertex 15.5 15.5 15
      vertex 16.5 16.5 15
    endloop
  endfacet
  facet normal 0 0 1
    outer loop
      vertex 15.5 15.5 15
      vertex 7.15 16.5 15
      vertex 7.15 15.5 15
    endloop
  endfacet
  facet normal 0 0 1
    outer loop
      vertex 16.5 7.15 15
      vertex 15.5 15.5 15
      vertex 15.5 7.15 15
    endloop
  endfacet
  facet normal 0 0 1
    outer loop
      vertex 15.5 -15.5 15
      vertex 16.5 -7.15 15
      vertex 15.5 -7.15 15
    endloop
  endfacet
  facet normal 0 0 1
    outer loop
      vertex 16.5 -7.15 15
      vertex 15.5 -15.5 15
      vertex 16.5 -16.5 15
    endloop
  endfacet
  facet normal 0 0 1
    outer loop
      vertex 7.15 -16.5 15
      vertex 15.5 -15.5 15
      vertex 7.15 -15.5 15
    endloop
  endfacet
  facet normal 0 0 1
    outer loop
      vertex 15.5 -15.5 15
      vertex 7.15 -16.5 15
      vertex 16.5 -16.5 15
    endloop
  endfacet
  facet normal 0 1 0
    outer loop
      vertex 16.5 16.5 15
      vertex 7.15 16.5 13.3
      vertex 7.15 16.5 15
    endloop
  endfacet
  facet normal 0 1 0
    outer loop
      vertex 7.15 16.5 13.3
      vertex 16.5 16.5 -1
      vertex -7.15 16.5 13.3
    endloop
  endfacet
  facet normal 0 1 -0
    outer loop
      vertex 16.5 16.5 -1
      vertex 7.15 16.5 13.3
      vertex 16.5 16.5 15
    endloop
  endfacet
  facet normal 0 1 -0
    outer loop
      vertex -7.15 16.5 13.3
      vertex -16.5 16.5 15
      vertex -7.15 16.5 15
    endloop
  endfacet
  facet normal 0 1 0
    outer loop
      vertex -16.5 16.5 -1
      vertex -7.15 16.5 13.3
      vertex 16.5 16.5 -1
    endloop
  endfacet
  facet normal 0 1 0
    outer loop
      vertex -7.15 16.5 13.3
      vertex -16.5 16.5 -1
      vertex -16.5 16.5 15
    endloop
  endfacet
  facet normal 1 0 0
    outer loop
      vertex -15.5 -7.15 15
      vertex -15.5 -15.5 15
      vertex -15.5 -7.15 13.3
    endloop
  endfacet
  facet normal 1 0 0
    outer loop
      vertex -15.5 7.15 13.3
      vertex -15.5 15.5 15
      vertex -15.5 7.15 15
    endloop
  endfacet
  facet normal 1 0 0
    outer loop
      vertex -15.5 15.5 15
      vertex -15.5 7.15 13.3
      vertex -15.5 15.5 -1.8982e-15
    endloop
  endfacet
  facet normal 1 -0 0
    outer loop
      vertex -15.5 -7.15 13.3
      vertex -15.5 15.5 -1.8982e-15
      vertex -15.5 7.15 13.3
    endloop
  endfacet
  facet normal 1 0 0
    outer loop
      vertex -15.5 -15.5 1.8982e-15
      vertex -15.5 -7.15 13.3
      vertex -15.5 -15.5 15
    endloop
  endfacet
  facet normal 1 0 0
    outer loop
      vertex -15.5 -7.15 13.3
      vertex -15.5 -15.5 1.8982e-15
      vertex -15.5 15.5 -1.8982e-15
    endloop
  endfacet
  facet normal -1 0 0
    outer loop
      vertex 15.5 15.5 -1.8982e-15
      vertex 15.5 7.15 13.3
      vertex 15.5 15.5 15
    endloop
  endfacet
  facet normal -1 0 0
    outer loop
      vertex 15.5 15.5 -1.8982e-15
      vertex 15.5 -7.15 13.3
      vertex 15.5 7.15 13.3
    endloop
  endfacet
  facet normal -1 0 0
    outer loop
      vertex 15.5 -15.5 1.8982e-15
      vertex 15.5 -7.15 13.3
      vertex 15.5 15.5 -1.8982e-15
    endloop
  endfacet
  facet normal -1 0 0
    outer loop
      vertex 15.5 -15.5 15
      vertex 15.5 -7.15 13.3
      vertex 15.5 -15.5 1.8982e-15
    endloop
  endfacet
  facet normal -1 0 0
    outer loop
      vertex 15.5 -7.15 13.3
      vertex 15.5 -15.5 15
      vertex 15.5 -7.15 15
    endloop
  endfacet
  facet normal -1 -0 0
    outer loop
      vertex 15.5 15.5 15
      vertex 15.5 7.15 13.3
      vertex 15.5 7.15 15
    endloop
  endfacet
  facet normal 0 1 0
    outer loop
      vertex 15.5 -15.5 15
      vertex 7.15 -15.5 13.3
      vertex 7.15 -15.5 15
    endloop
  endfacet
  facet normal 0 1 0
    outer loop
      vertex 7.15 -15.5 13.3
      vertex 15.5 -15.5 1.8982e-15
      vertex -7.15 -15.5 13.3
    endloop
  endfacet
  facet normal 0 1 -0
    outer loop
      vertex 15.5 -15.5 1.8982e-15
      vertex 7.15 -15.5 13.3
      vertex 15.5 -15.5 15
    endloop
  endfacet
  facet normal 0 1 -0
    outer loop
      vertex -7.15 -15.5 13.3
      vertex -15.5 -15.5 15
      vertex -7.15 -15.5 15
    endloop
  endfacet
  facet normal 0 1 0
    outer loop
      vertex -15.5 -15.5 1.8982e-15
      vertex -7.15 -15.5 13.3
      vertex 15.5 -15.5 1.8982e-15
    endloop
  endfacet
  facet normal 0 1 0
    outer loop
      vertex -7.15 -15.5 13.3
      vertex -15.5 -15.5 1.8982e-15
      vertex -15.5 -15.5 15
    endloop
  endfacet
  facet normal 0 -1 0
    outer loop
      vertex -15.5 15.5 15
      vertex -7.15 15.5 13.3
      vertex -7.15 15.5 15
    endloop
  endfacet
  facet normal 0 -1 -0
    outer loop
      vertex -7.15 15.5 13.3
      vertex -15.5 15.5 -1.8982e-15
      vertex 7.15 15.5 13.3
    endloop
  endfacet
  facet normal 0 -1 0
    outer loop
      vertex -15.5 15.5 -1.8982e-15
      vertex -7.15 15.5 13.3
      vertex -15.5 15.5 15
    endloop
  endfacet
  facet normal 0 -1 0
    outer loop
      vertex 7.15 15.5 13.3
      vertex 15.5 15.5 15
      vertex 7.15 15.5 15
    endloop
  endfacet
  facet normal 0 -1 0
    outer loop
      vertex 15.5 15.5 -1.8982e-15
      vertex 7.15 15.5 13.3
      vertex -15.5 15.5 -1.8982e-15
    endloop
  endfacet
  facet normal 0 -1 0
    outer loop
      vertex 7.15 15.5 13.3
      vertex 15.5 15.5 -1.8982e-15
      vertex 15.5 15.5 15
    endloop
  endfacet
  facet normal 0 0 -1
    outer loop
      vertex 16.5 -16.5 -1
      vertex 2.30977 11.8856 -1
      vertex 16.5 16.5 -1
    endloop
  endfacet
  facet normal 0 0 -1
    outer loop
      vertex 16.5 -16.5 -1
      vertex 2.30711 -12.4794 -1
      vertex 2.30977 11.8856 -1
    endloop
  endfacet
  facet normal 0 0 -1
    outer loop
      vertex 16.5 -16.5 -1
      vertex 2.28877 -12.6121 -1
      vertex 2.30711 -12.4794 -1
    endloop
  endfacet
  facet normal 0 0 -1
    outer loop
      vertex 16.5 -16.5 -1
      vertex 2.25507 -12.735 -1
      vertex 2.28877 -12.6121 -1
    endloop
  endfacet
  facet normal 0 0 -1
    outer loop
      vertex 16.5 -16.5 -1
      vertex 2.20474 -12.8539 -1
      vertex 2.25507 -12.735 -1
    endloop
  endfacet
  facet normal 0 0 -1
    outer loop
      vertex 16.5 -16.5 -1
      vertex 2.14224 -12.961 -1
      vertex 2.20474 -12.8539 -1
    endloop
  endfacet
  facet normal 0 0 -1
    outer loop
      vertex 16.5 -16.5 -1
      vertex 2.06995 -13.056 -1
      vertex 2.14224 -12.961 -1
    endloop
  endfacet
  facet normal 0 0 -1
    outer loop
      vertex 16.5 -16.5 -1
      vertex 1.98422 -13.1436 -1
      vertex 2.06995 -13.056 -1
    endloop
  endfacet
  facet normal 0 0 -1
    outer loop
      vertex 16.5 -16.5 -1
      vertex 1.89182 -13.2179 -1
      vertex 1.98422 -13.1436 -1
    endloop
  endfacet
  facet normal 0 0 -1
    outer loop
      vertex 16.5 -16.5 -1
      vertex 1.78798 -13.2824 -1
      vertex 1.89182 -13.2179 -1
    endloop
  endfacet
  facet normal 0 0 -1
    outer loop
      vertex 16.5 -16.5 -1
      vertex 1.67697 -13.3339 -1
      vertex 1.78798 -13.2824 -1
    endloop
  endfacet
  facet normal 0 0 -1
    outer loop
      vertex 16.5 -16.5 -1
      vertex 1.56392 -13.3708 -1
      vertex 1.67697 -13.3339 -1
    endloop
  endfacet
  facet normal 0 0 -1
    outer loop
      vertex 16.5 -16.5 -1
      vertex 1.44298 -13.3945 -1
      vertex 1.56392 -13.3708 -1
    endloop
  endfacet
  facet normal 0 0 -1
    outer loop
      vertex 16.5 -16.5 -1
      vertex 1.33047 -13.4033 -1
      vertex 1.44298 -13.3945 -1
    endloop
  endfacet
  facet normal 0 0 -1
    outer loop
      vertex 16.5 -16.5 -1
      vertex -1.24864 -13.4007 -1
      vertex 1.33047 -13.4033 -1
    endloop
  endfacet
  facet normal 0 0 -1
    outer loop
      vertex -16.5 -16.5 -1
      vertex -1.24864 -13.4007 -1
      vertex 16.5 -16.5 -1
    endloop
  endfacet
  facet normal -0 0 -1
    outer loop
      vertex -2.16707 -12.5458 -1
      vertex -16.5 -16.5 -1
      vertex -2.1767 -12.4266 -1
    endloop
  endfacet
  facet normal -0 0 -1
    outer loop
      vertex -2.14069 -12.6748 -1
      vertex -16.5 -16.5 -1
      vertex -2.16707 -12.5458 -1
    endloop
  endfacet
  facet normal -0 0 -1
    outer loop
      vertex -2.09952 -12.7936 -1
      vertex -16.5 -16.5 -1
      vertex -2.14069 -12.6748 -1
    endloop
  endfacet
  facet normal -0 0 -1
    outer loop
      vertex -2.04425 -12.9049 -1
      vertex -16.5 -16.5 -1
      vertex -2.09952 -12.7936 -1
    endloop
  endfacet
  facet normal -0 0 -1
    outer loop
      vertex -1.976 -13.0075 -1
      vertex -16.5 -16.5 -1
      vertex -2.04425 -12.9049 -1
    endloop
  endfacet
  facet normal -0 0 -1
    outer loop
      vertex -1.89594 -13.1005 -1
      vertex -16.5 -16.5 -1
      vertex -1.976 -13.0075 -1
    endloop
  endfacet
  facet normal -0 0 -1
    outer loop
      vertex -1.80534 -13.1827 -1
      vertex -16.5 -16.5 -1
      vertex -1.89594 -13.1005 -1
    endloop
  endfacet
  facet normal -0 0 -1
    outer loop
      vertex -1.70547 -13.2533 -1
      vertex -16.5 -16.5 -1
      vertex -1.80534 -13.1827 -1
    endloop
  endfacet
  facet normal -0 0 -1
    outer loop
      vertex -1.60107 -13.3095 -1
      vertex -16.5 -16.5 -1
      vertex -1.70547 -13.2533 -1
    endloop
  endfacet
  facet normal -0 0 -1
    outer loop
      vertex -1.487 -13.3545 -1
      vertex -16.5 -16.5 -1
      vertex -1.60107 -13.3095 -1
    endloop
  endfacet
  facet normal -0 0 -1
    outer loop
      vertex -1.37146 -13.3844 -1
      vertex -16.5 -16.5 -1
      vertex -1.487 -13.3545 -1
    endloop
  endfacet
  facet normal -0 0 -1
    outer loop
      vertex -1.24864 -13.4007 -1
      vertex -16.5 -16.5 -1
      vertex -1.37146 -13.3844 -1
    endloop
  endfacet
  facet normal 0 0 -1
    outer loop
      vertex 2.30013 12.0048 -1
      vertex 16.5 16.5 -1
      vertex 2.30977 11.8856 -1
    endloop
  endfacet
  facet normal 0 0 -1
    outer loop
      vertex 2.27457 12.1302 -1
      vertex 16.5 16.5 -1
      vertex 2.30013 12.0048 -1
    endloop
  endfacet
  facet normal 0 0 -1
    outer loop
      vertex 2.23259 12.2526 -1
      vertex 16.5 16.5 -1
      vertex 2.27457 12.1302 -1
    endloop
  endfacet
  facet normal 0 0 -1
    outer loop
      vertex 2.17731 12.3639 -1
      vertex 16.5 16.5 -1
      vertex 2.23259 12.2526 -1
    endloop
  endfacet
  facet normal 0 0 -1
    outer loop
      vertex 2.10905 12.4665 -1
      vertex 16.5 16.5 -1
      vertex 2.17731 12.3639 -1
    endloop
  endfacet
  facet normal 0 0 -1
    outer loop
      vertex 2.02899 12.5595 -1
      vertex 16.5 16.5 -1
      vertex 2.10905 12.4665 -1
    endloop
  endfacet
  facet normal 0 0 -1
    outer loop
      vertex 1.9384 12.6417 -1
      vertex 16.5 16.5 -1
      vertex 2.02899 12.5595 -1
    endloop
  endfacet
  facet normal 0 0 -1
    outer loop
      vertex 1.84166 12.7101 -1
      vertex 16.5 16.5 -1
      vertex 1.9384 12.6417 -1
    endloop
  endfacet
  facet normal 0 0 -1
    outer loop
      vertex 1.73415 12.7685 -1
      vertex 16.5 16.5 -1
      vertex 1.84166 12.7101 -1
    endloop
  endfacet
  facet normal 0 0 -1
    outer loop
      vertex 1.62007 12.8135 -1
      vertex 16.5 16.5 -1
      vertex 1.73415 12.7685 -1
    endloop
  endfacet
  facet normal 0 0 -1
    outer loop
      vertex 1.50452 12.8434 -1
      vertex 16.5 16.5 -1
      vertex 1.62007 12.8135 -1
    endloop
  endfacet
  facet normal 0 0 -1
    outer loop
      vertex 1.3817 12.8597 -1
      vertex 16.5 16.5 -1
      vertex 1.50452 12.8434 -1
    endloop
  endfacet
  facet normal 0 0 -1
    outer loop
      vertex -1.2148 12.8616 -1
      vertex 16.5 16.5 -1
      vertex 1.3817 12.8597 -1
    endloop
  endfacet
  facet normal 0 0 -1
    outer loop
      vertex -16.5 16.5 -1
      vertex -1.2148 12.8616 -1
      vertex -1.31366 12.8531 -1
    endloop
  endfacet
  facet normal 0 0 -1
    outer loop
      vertex -16.5 16.5 -1
      vertex -1.31366 12.8531 -1
      vertex -1.43085 12.8298 -1
    endloop
  endfacet
  facet normal 0 0 -1
    outer loop
      vertex -16.5 -16.5 -1
      vertex -2.17406 11.9384 -1
      vertex -2.1767 -12.4266 -1
    endloop
  endfacet
  facet normal 0 0 -1
    outer loop
      vertex -16.5 16.5 -1
      vertex -2.17406 11.9384 -1
      vertex -16.5 -16.5 -1
    endloop
  endfacet
  facet normal 0 0 -1
    outer loop
      vertex -2.17406 11.9384 -1
      vertex -16.5 16.5 -1
      vertex -2.15572 12.0711 -1
    endloop
  endfacet
  facet normal 0 0 -1
    outer loop
      vertex -2.15572 12.0711 -1
      vertex -16.5 16.5 -1
      vertex -2.12199 12.194 -1
    endloop
  endfacet
  facet normal 0 0 -1
    outer loop
      vertex -1.2148 12.8616 -1
      vertex -16.5 16.5 -1
      vertex 16.5 16.5 -1
    endloop
  endfacet
  facet normal 0 0 -1
    outer loop
      vertex -1.5439 12.7929 -1
      vertex -16.5 16.5 -1
      vertex -1.43085 12.8298 -1
    endloop
  endfacet
  facet normal 0 0 -1
    outer loop
      vertex -1.65491 12.7414 -1
      vertex -16.5 16.5 -1
      vertex -1.5439 12.7929 -1
    endloop
  endfacet
  facet normal 0 0 -1
    outer loop
      vertex -1.75876 12.6769 -1
      vertex -16.5 16.5 -1
      vertex -1.65491 12.7414 -1
    endloop
  endfacet
  facet normal 0 0 -1
    outer loop
      vertex -1.85117 12.6026 -1
      vertex -16.5 16.5 -1
      vertex -1.75876 12.6769 -1
    endloop
  endfacet
  facet normal 0 0 -1
    outer loop
      vertex -1.93687 12.515 -1
      vertex -16.5 16.5 -1
      vertex -1.85117 12.6026 -1
    endloop
  endfacet
  facet normal 0 0 -1
    outer loop
      vertex -2.03159 12.3852 -1
      vertex -16.5 16.5 -1
      vertex -1.93687 12.515 -1
    endloop
  endfacet
  facet normal 0 0 -1
    outer loop
      vertex -2.07352 12.3096 -1
      vertex -16.5 16.5 -1
      vertex -2.03159 12.3852 -1
    endloop
  endfacet
  facet normal 0 0 -1
    outer loop
      vertex -2.12199 12.194 -1
      vertex -16.5 16.5 -1
      vertex -2.07352 12.3096 -1
    endloop
  endfacet
  facet normal 0.195134 -0.980777 0
    outer loop
      vertex -1.43085 12.8298 -1
      vertex -1.31366 12.8531 -1.57406e-15
      vertex -1.43085 12.8298 -1.5712e-15
    endloop
  endfacet
  facet normal 0.195134 -0.980777 0
    outer loop
      vertex -1.31366 12.8531 -1.57406e-15
      vertex -1.43085 12.8298 -1
      vertex -1.31366 12.8531 -1
    endloop
  endfacet
  facet normal 0.310487 -0.950578 0
    outer loop
      vertex -1.5439 12.7929 -1
      vertex -1.43085 12.8298 -1.5712e-15
      vertex -1.5439 12.7929 -1.56668e-15
    endloop
  endfacet
  facet normal 0.310487 -0.950578 0
    outer loop
      vertex -1.43085 12.8298 -1.5712e-15
      vertex -1.5439 12.7929 -1
      vertex -1.43085 12.8298 -1
    endloop
  endfacet
  facet normal 0.420734 -0.907184 0
    outer loop
      vertex -1.65491 12.7414 -1
      vertex -1.5439 12.7929 -1.56668e-15
      vertex -1.65491 12.7414 -1.56037e-15
    endloop
  endfacet
  facet normal 0.420734 -0.907184 0
    outer loop
      vertex -1.5439 12.7929 -1.56668e-15
      vertex -1.65491 12.7414 -1
      vertex -1.5439 12.7929 -1
    endloop
  endfacet
  facet normal 0.527776 -0.849384 0
    outer loop
      vertex -1.75876 12.6769 -1
      vertex -1.65491 12.7414 -1.56037e-15
      vertex -1.75876 12.6769 -1.55247e-15
    endloop
  endfacet
  facet normal 0.527776 -0.849384 0
    outer loop
      vertex -1.65491 12.7414 -1.56037e-15
      vertex -1.75876 12.6769 -1
      vertex -1.65491 12.7414 -1
    endloop
  endfacet
  facet normal 0.626592 -0.779347 0
    outer loop
      vertex -1.85117 12.6026 -1
      vertex -1.75876 12.6769 -1.55247e-15
      vertex -1.85117 12.6026 -1.54337e-15
    endloop
  endfacet
  facet normal 0.626592 -0.779347 0
    outer loop
      vertex -1.75876 12.6769 -1.55247e-15
      vertex -1.85117 12.6026 -1
      vertex -1.75876 12.6769 -1
    endloop
  endfacet
  facet normal 0.714906 -0.699221 0
    outer loop
      vertex -1.93687 12.515 -1.53264e-15
      vertex -1.85117 12.6026 -1
      vertex -1.85117 12.6026 -1.54337e-15
    endloop
  endfacet
  facet normal 0.714906 -0.699221 0
    outer loop
      vertex -1.85117 12.6026 -1
      vertex -1.93687 12.515 -1.53264e-15
      vertex -1.93687 12.515 -1
    endloop
  endfacet
  facet normal 0.807828 -0.589419 0
    outer loop
      vertex -2.03159 12.3852 -1.51674e-15
      vertex -1.93687 12.515 -1
      vertex -1.93687 12.515 -1.53264e-15
    endloop
  endfacet
  facet normal 0.807828 -0.589419 0
    outer loop
      vertex -1.93687 12.515 -1
      vertex -2.03159 12.3852 -1.51674e-15
      vertex -2.03159 12.3852 -1
    endloop
  endfacet
  facet normal 0.874349 -0.485298 0
    outer loop
      vertex -2.07352 12.3096 -1.50749e-15
      vertex -2.03159 12.3852 -1
      vertex -2.03159 12.3852 -1.51674e-15
    endloop
  endfacet
  facet normal 0.874349 -0.485298 0
    outer loop
      vertex -2.03159 12.3852 -1
      vertex -2.07352 12.3096 -1.50749e-15
      vertex -2.07352 12.3096 -1
    endloop
  endfacet
  facet normal 0.92225 -0.386593 0
    outer loop
      vertex -2.12199 12.194 -1.49333e-15
      vertex -2.07352 12.3096 -1
      vertex -2.07352 12.3096 -1.50749e-15
    endloop
  endfacet
  facet normal 0.92225 -0.386593 0
    outer loop
      vertex -2.07352 12.3096 -1
      vertex -2.12199 12.194 -1.49333e-15
      vertex -2.12199 12.194 -1
    endloop
  endfacet
  facet normal 0.964337 -0.264678 0
    outer loop
      vertex -2.15572 12.0711 -1.47828e-15
      vertex -2.12199 12.194 -1
      vertex -2.12199 12.194 -1.49333e-15
    endloop
  endfacet
  facet normal 0.964337 -0.264678 0
    outer loop
      vertex -2.12199 12.194 -1
      vertex -2.15572 12.0711 -1.47828e-15
      vertex -2.15572 12.0711 -1
    endloop
  endfacet
  facet normal 0.990586 -0.136892 0
    outer loop
      vertex -2.17406 11.9384 -1.46203e-15
      vertex -2.15572 12.0711 -1
      vertex -2.15572 12.0711 -1.47828e-15
    endloop
  endfacet
  facet normal 0.990586 -0.136892 0
    outer loop
      vertex -2.15572 12.0711 -1
      vertex -2.17406 11.9384 -1.46203e-15
      vertex -2.17406 11.9384 -1
    endloop
  endfacet
  facet normal 1 -0.000108343 0
    outer loop
      vertex -2.1767 -12.4266 1.52182e-15
      vertex -2.17406 11.9384 -1
      vertex -2.17406 11.9384 -1.46203e-15
    endloop
  endfacet
  facet normal 1 -0.000108343 0
    outer loop
      vertex -2.17406 11.9384 -1
      vertex -2.1767 -12.4266 1.52182e-15
      vertex -2.1767 -12.4266 -1
    endloop
  endfacet
  facet normal 0.996755 0.0804905 0
    outer loop
      vertex -2.16707 -12.5458 1.53642e-15
      vertex -2.1767 -12.4266 -1
      vertex -2.1767 -12.4266 1.52182e-15
    endloop
  endfacet
  facet normal 0.996755 0.0804905 0
    outer loop
      vertex -2.1767 -12.4266 -1
      vertex -2.16707 -12.5458 1.53642e-15
      vertex -2.16707 -12.5458 -1
    endloop
  endfacet
  facet normal 0.97972 0.200371 0
    outer loop
      vertex -2.14069 -12.6748 1.55222e-15
      vertex -2.16707 -12.5458 -1
      vertex -2.16707 -12.5458 1.53642e-15
    endloop
  endfacet
  facet normal 0.97972 0.200371 0
    outer loop
      vertex -2.16707 -12.5458 -1
      vertex -2.14069 -12.6748 1.55222e-15
      vertex -2.14069 -12.6748 -1
    endloop
  endfacet
  facet normal 0.944879 0.327419 0
    outer loop
      vertex -2.09952 -12.7936 1.56677e-15
      vertex -2.14069 -12.6748 -1
      vertex -2.14069 -12.6748 1.55222e-15
    endloop
  endfacet
  facet normal 0.944879 0.327419 0
    outer loop
      vertex -2.14069 -12.6748 -1
      vertex -2.09952 -12.7936 1.56677e-15
      vertex -2.09952 -12.7936 -1
    endloop
  endfacet
  facet normal 0.895603 0.444854 0
    outer loop
      vertex -2.04425 -12.9049 1.5804e-15
      vertex -2.09952 -12.7936 -1
      vertex -2.09952 -12.7936 1.56677e-15
    endloop
  endfacet
  facet normal 0.895603 0.444854 0
    outer loop
      vertex -2.09952 -12.7936 -1
      vertex -2.04425 -12.9049 1.5804e-15
      vertex -2.04425 -12.9049 -1
    endloop
  endfacet
  facet normal 0.832678 0.553757 0
    outer loop
      vertex -1.976 -13.0075 1.59296e-15
      vertex -2.04425 -12.9049 -1
      vertex -2.04425 -12.9049 1.5804e-15
    endloop
  endfacet
  facet normal 0.832678 0.553757 0
    outer loop
      vertex -2.04425 -12.9049 -1
      vertex -1.976 -13.0075 1.59296e-15
      vertex -1.976 -13.0075 -1
    endloop
  endfacet
  facet normal 0.7577 0.652602 0
    outer loop
      vertex -1.89594 -13.1005 1.60435e-15
      vertex -1.976 -13.0075 -1
      vertex -1.976 -13.0075 1.59296e-15
    endloop
  endfacet
  facet normal 0.7577 0.652602 0
    outer loop
      vertex -1.976 -13.0075 -1
      vertex -1.89594 -13.1005 1.60435e-15
      vertex -1.89594 -13.1005 -1
    endloop
  endfacet
  facet normal 0.672108 0.740453 -0
    outer loop
      vertex -1.80534 -13.1827 -1
      vertex -1.89594 -13.1005 1.60435e-15
      vertex -1.80534 -13.1827 1.61442e-15
    endloop
  endfacet
  facet normal 0.672108 0.740453 0
    outer loop
      vertex -1.89594 -13.1005 1.60435e-15
      vertex -1.80534 -13.1827 -1
      vertex -1.89594 -13.1005 -1
    endloop
  endfacet
  facet normal 0.576933 0.816791 -0
    outer loop
      vertex -1.70547 -13.2533 -1
      vertex -1.80534 -13.1827 1.61442e-15
      vertex -1.70547 -13.2533 1.62306e-15
    endloop
  endfacet
  facet normal 0.576933 0.816791 0
    outer loop
      vertex -1.80534 -13.1827 1.61442e-15
      vertex -1.70547 -13.2533 -1
      vertex -1.80534 -13.1827 -1
    endloop
  endfacet
  facet normal 0.474384 0.880318 -0
    outer loop
      vertex -1.60107 -13.3095 -1
      vertex -1.70547 -13.2533 1.62306e-15
      vertex -1.60107 -13.3095 1.62995e-15
    endloop
  endfacet
  facet normal 0.474384 0.880318 0
    outer loop
      vertex -1.70547 -13.2533 1.62306e-15
      vertex -1.60107 -13.3095 -1
      vertex -1.70547 -13.2533 -1
    endloop
  endfacet
  facet normal 0.366622 0.93037 -0
    outer loop
      vertex -1.487 -13.3545 -1
      vertex -1.60107 -13.3095 1.62995e-15
      vertex -1.487 -13.3545 1.63545e-15
    endloop
  endfacet
  facet normal 0.366622 0.93037 0
    outer loop
      vertex -1.60107 -13.3095 1.62995e-15
      vertex -1.487 -13.3545 -1
      vertex -1.60107 -13.3095 -1
    endloop
  endfacet
  facet normal 0.250589 0.968093 -0
    outer loop
      vertex -1.37146 -13.3844 -1
      vertex -1.487 -13.3545 1.63545e-15
      vertex -1.37146 -13.3844 1.63911e-15
    endloop
  endfacet
  facet normal 0.250589 0.968093 0
    outer loop
      vertex -1.487 -13.3545 1.63545e-15
      vertex -1.37146 -13.3844 -1
      vertex -1.487 -13.3545 -1
    endloop
  endfacet
  facet normal 0.131655 0.991296 -0
    outer loop
      vertex -1.24864 -13.4007 -1
      vertex -1.37146 -13.3844 1.63911e-15
      vertex -1.24864 -13.4007 1.64111e-15
    endloop
  endfacet
  facet normal 0.131655 0.991296 0
    outer loop
      vertex -1.37146 -13.3844 1.63911e-15
      vertex -1.24864 -13.4007 -1
      vertex -1.37146 -13.3844 -1
    endloop
  endfacet
  facet normal 0.000993935 1 -0
    outer loop
      vertex 1.33047 -13.4033 -1
      vertex -1.24864 -13.4007 1.64111e-15
      vertex 1.33047 -13.4033 1.64143e-15
    endloop
  endfacet
  facet normal 0.000993935 1 0
    outer loop
      vertex -1.24864 -13.4007 1.64111e-15
      vertex 1.33047 -13.4033 -1
      vertex -1.24864 -13.4007 -1
    endloop
  endfacet
  facet normal -0.0776168 0.996983 0
    outer loop
      vertex 1.44298 -13.3945 -1
      vertex 1.33047 -13.4033 1.64143e-15
      vertex 1.44298 -13.3945 1.64035e-15
    endloop
  endfacet
  facet normal -0.0776168 0.996983 0
    outer loop
      vertex 1.33047 -13.4033 1.64143e-15
      vertex 1.44298 -13.3945 -1
      vertex 1.33047 -13.4033 -1
    endloop
  endfacet
  facet normal -0.192043 0.981387 0
    outer loop
      vertex 1.56392 -13.3708 -1
      vertex 1.44298 -13.3945 1.64035e-15
      vertex 1.56392 -13.3708 1.63745e-15
    endloop
  endfacet
  facet normal -0.192043 0.981387 0
    outer loop
      vertex 1.44298 -13.3945 1.64035e-15
      vertex 1.56392 -13.3708 -1
      vertex 1.44298 -13.3945 -1
    endloop
  endfacet
  facet normal -0.310487 0.950578 0
    outer loop
      vertex 1.67697 -13.3339 -1
      vertex 1.56392 -13.3708 1.63745e-15
      vertex 1.67697 -13.3339 1.63293e-15
    endloop
  endfacet
  facet normal -0.310487 0.950578 0
    outer loop
      vertex 1.56392 -13.3708 1.63745e-15
      vertex 1.67697 -13.3339 -1
      vertex 1.56392 -13.3708 -1
    endloop
  endfacet
  facet normal -0.420734 0.907184 0
    outer loop
      vertex 1.78798 -13.2824 -1
      vertex 1.67697 -13.3339 1.63293e-15
      vertex 1.78798 -13.2824 1.62663e-15
    endloop
  endfacet
  facet normal -0.420734 0.907184 0
    outer loop
      vertex 1.67697 -13.3339 1.63293e-15
      vertex 1.78798 -13.2824 -1
      vertex 1.67697 -13.3339 -1
    endloop
  endfacet
  facet normal -0.527832 0.849349 0
    outer loop
      vertex 1.89182 -13.2179 -1
      vertex 1.78798 -13.2824 1.62663e-15
      vertex 1.89182 -13.2179 1.61873e-15
    endloop
  endfacet
  facet normal -0.527832 0.849349 0
    outer loop
      vertex 1.78798 -13.2824 1.62663e-15
      vertex 1.89182 -13.2179 -1
      vertex 1.78798 -13.2824 -1
    endloop
  endfacet
  facet normal -0.626592 0.779347 0
    outer loop
      vertex 1.98422 -13.1436 -1
      vertex 1.89182 -13.2179 1.61873e-15
      vertex 1.98422 -13.1436 1.60963e-15
    endloop
  endfacet
  facet normal -0.626592 0.779347 0
    outer loop
      vertex 1.89182 -13.2179 1.61873e-15
      vertex 1.98422 -13.1436 -1
      vertex 1.89182 -13.2179 -1
    endloop
  endfacet
  facet normal -0.714843 0.699284 0
    outer loop
      vertex 1.98422 -13.1436 -1
      vertex 2.06995 -13.056 1.5989e-15
      vertex 2.06995 -13.056 -1
    endloop
  endfacet
  facet normal -0.714843 0.699284 0
    outer loop
      vertex 2.06995 -13.056 1.5989e-15
      vertex 1.98422 -13.1436 -1
      vertex 1.98422 -13.1436 1.60963e-15
    endloop
  endfacet
  facet normal -0.795637 0.605774 0
    outer loop
      vertex 2.06995 -13.056 -1
      vertex 2.14224 -12.961 1.58727e-15
      vertex 2.14224 -12.961 -1
    endloop
  endfacet
  facet normal -0.795637 0.605774 0
    outer loop
      vertex 2.14224 -12.961 1.58727e-15
      vertex 2.06995 -13.056 -1
      vertex 2.06995 -13.056 1.5989e-15
    endloop
  endfacet
  facet normal -0.863694 0.504016 0
    outer loop
      vertex 2.14224 -12.961 -1
      vertex 2.20474 -12.8539 1.57415e-15
      vertex 2.20474 -12.8539 -1
    endloop
  endfacet
  facet normal -0.863694 0.504016 0
    outer loop
      vertex 2.20474 -12.8539 1.57415e-15
      vertex 2.14224 -12.961 -1
      vertex 2.14224 -12.961 1.58727e-15
    endloop
  endfacet
  facet normal -0.920962 0.389652 0
    outer loop
      vertex 2.20474 -12.8539 -1
      vertex 2.25507 -12.735 1.55958e-15
      vertex 2.25507 -12.735 -1
    endloop
  endfacet
  facet normal -0.920962 0.389652 0
    outer loop
      vertex 2.25507 -12.735 1.55958e-15
      vertex 2.20474 -12.8539 -1
      vertex 2.20474 -12.8539 1.57415e-15
    endloop
  endfacet
  facet normal -0.964368 0.264566 0
    outer loop
      vertex 2.25507 -12.735 -1
      vertex 2.28877 -12.6121 1.54454e-15
      vertex 2.28877 -12.6121 -1
    endloop
  endfacet
  facet normal -0.964368 0.264566 0
    outer loop
      vertex 2.28877 -12.6121 1.54454e-15
      vertex 2.25507 -12.735 -1
      vertex 2.25507 -12.735 1.55958e-15
    endloop
  endfacet
  facet normal -0.990586 0.136892 0
    outer loop
      vertex 2.28877 -12.6121 -1
      vertex 2.30711 -12.4794 1.52828e-15
      vertex 2.30711 -12.4794 -1
    endloop
  endfacet
  facet normal -0.990586 0.136892 0
    outer loop
      vertex 2.30711 -12.4794 1.52828e-15
      vertex 2.28877 -12.6121 -1
      vertex 2.28877 -12.6121 1.54454e-15
    endloop
  endfacet
  facet normal -1 0.000108969 0
    outer loop
      vertex 2.30711 -12.4794 -1
      vertex 2.30977 11.8856 -1.45557e-15
      vertex 2.30977 11.8856 -1
    endloop
  endfacet
  facet normal -1 0.000108969 0
    outer loop
      vertex 2.30977 11.8856 -1.45557e-15
      vertex 2.30711 -12.4794 -1
      vertex 2.30711 -12.4794 1.52828e-15
    endloop
  endfacet
  facet normal -0.996745 -0.0806172 0
    outer loop
      vertex 2.30977 11.8856 -1
      vertex 2.30013 12.0048 -1.47017e-15
      vertex 2.30013 12.0048 -1
    endloop
  endfacet
  facet normal -0.996745 -0.0806172 0
    outer loop
      vertex 2.30013 12.0048 -1.47017e-15
      vertex 2.30977 11.8856 -1
      vertex 2.30977 11.8856 -1.45557e-15
    endloop
  endfacet
  facet normal -0.97983 -0.199831 0
    outer loop
      vertex 2.30013 12.0048 -1
      vertex 2.27457 12.1302 -1.48552e-15
      vertex 2.27457 12.1302 -1
    endloop
  endfacet
  facet normal -0.97983 -0.199831 0
    outer loop
      vertex 2.27457 12.1302 -1.48552e-15
      vertex 2.30013 12.0048 -1
      vertex 2.30013 12.0048 -1.47017e-15
    endloop
  endfacet
  facet normal -0.945986 -0.324207 0
    outer loop
      vertex 2.27457 12.1302 -1
      vertex 2.23259 12.2526 -1.50052e-15
      vertex 2.23259 12.2526 -1
    endloop
  endfacet
  facet normal -0.945986 -0.324207 0
    outer loop
      vertex 2.23259 12.2526 -1.50052e-15
      vertex 2.27457 12.1302 -1
      vertex 2.27457 12.1302 -1.48552e-15
    endloop
  endfacet
  facet normal -0.895554 -0.444952 0
    outer loop
      vertex 2.23259 12.2526 -1
      vertex 2.17731 12.3639 -1.51414e-15
      vertex 2.17731 12.3639 -1
    endloop
  endfacet
  facet normal -0.895554 -0.444952 0
    outer loop
      vertex 2.17731 12.3639 -1.51414e-15
      vertex 2.23259 12.2526 -1
      vertex 2.23259 12.2526 -1.50052e-15
    endloop
  endfacet
  facet normal -0.832678 -0.553757 0
    outer loop
      vertex 2.17731 12.3639 -1
      vertex 2.10905 12.4665 -1.52671e-15
      vertex 2.10905 12.4665 -1
    endloop
  endfacet
  facet normal -0.832678 -0.553757 0
    outer loop
      vertex 2.10905 12.4665 -1.52671e-15
      vertex 2.17731 12.3639 -1
      vertex 2.17731 12.3639 -1.51414e-15
    endloop
  endfacet
  facet normal -0.7577 -0.652602 0
    outer loop
      vertex 2.10905 12.4665 -1
      vertex 2.02899 12.5595 -1.53809e-15
      vertex 2.02899 12.5595 -1
    endloop
  endfacet
  facet normal -0.7577 -0.652602 0
    outer loop
      vertex 2.02899 12.5595 -1.53809e-15
      vertex 2.10905 12.4665 -1
      vertex 2.10905 12.4665 -1.52671e-15
    endloop
  endfacet
  facet normal -0.672108 -0.740453 0
    outer loop
      vertex 1.9384 12.6417 -1
      vertex 2.02899 12.5595 -1.53809e-15
      vertex 1.9384 12.6417 -1.54816e-15
    endloop
  endfacet
  facet normal -0.672108 -0.740453 -0
    outer loop
      vertex 2.02899 12.5595 -1.53809e-15
      vertex 1.9384 12.6417 -1
      vertex 2.02899 12.5595 -1
    endloop
  endfacet
  facet normal -0.577431 -0.816439 0
    outer loop
      vertex 1.84166 12.7101 -1
      vertex 1.9384 12.6417 -1.54816e-15
      vertex 1.84166 12.7101 -1.55654e-15
    endloop
  endfacet
  facet normal -0.577431 -0.816439 -0
    outer loop
      vertex 1.9384 12.6417 -1.54816e-15
      vertex 1.84166 12.7101 -1
      vertex 1.9384 12.6417 -1
    endloop
  endfacet
  facet normal -0.477191 -0.8788 0
    outer loop
      vertex 1.73415 12.7685 -1
      vertex 1.84166 12.7101 -1.55654e-15
      vertex 1.73415 12.7685 -1.56369e-15
    endloop
  endfacet
  facet normal -0.477191 -0.8788 -0
    outer loop
      vertex 1.84166 12.7101 -1.55654e-15
      vertex 1.73415 12.7685 -1
      vertex 1.84166 12.7101 -1
    endloop
  endfacet
  facet normal -0.366622 -0.93037 0
    outer loop
      vertex 1.62007 12.8135 -1
      vertex 1.73415 12.7685 -1.56369e-15
      vertex 1.62007 12.8135 -1.5692e-15
    endloop
  endfacet
  facet normal -0.366622 -0.93037 -0
    outer loop
      vertex 1.73415 12.7685 -1.56369e-15
      vertex 1.62007 12.8135 -1
      vertex 1.73415 12.7685 -1
    endloop
  endfacet
  facet normal -0.250558 -0.968101 0
    outer loop
      vertex 1.50452 12.8434 -1
      vertex 1.62007 12.8135 -1.5692e-15
      vertex 1.50452 12.8434 -1.57286e-15
    endloop
  endfacet
  facet normal -0.250558 -0.968101 -0
    outer loop
      vertex 1.62007 12.8135 -1.5692e-15
      vertex 1.50452 12.8434 -1
      vertex 1.62007 12.8135 -1
    endloop
  endfacet
  facet normal -0.131655 -0.991296 0
    outer loop
      vertex 1.3817 12.8597 -1
      vertex 1.50452 12.8434 -1.57286e-15
      vertex 1.3817 12.8597 -1.57486e-15
    endloop
  endfacet
  facet normal -0.131655 -0.991296 -0
    outer loop
      vertex 1.50452 12.8434 -1.57286e-15
      vertex 1.3817 12.8597 -1
      vertex 1.50452 12.8434 -1
    endloop
  endfacet
  facet normal -0.000734585 -1 0
    outer loop
      vertex -1.2148 12.8616 -1
      vertex 1.3817 12.8597 -1.57486e-15
      vertex -1.2148 12.8616 -1.57509e-15
    endloop
  endfacet
  facet normal -0.000734585 -1 -0
    outer loop
      vertex 1.3817 12.8597 -1.57486e-15
      vertex -1.2148 12.8616 -1
      vertex 1.3817 12.8597 -1
    endloop
  endfacet
  facet normal 0.0851961 -0.996364 0
    outer loop
      vertex -1.31366 12.8531 -1
      vertex -1.2148 12.8616 -1.57509e-15
      vertex -1.31366 12.8531 -1.57406e-15
    endloop
  endfacet
  facet normal 0.0851961 -0.996364 0
    outer loop
      vertex -1.2148 12.8616 -1.57509e-15
      vertex -1.31366 12.8531 -1
      vertex -1.2148 12.8616 -1
    endloop
  endfacet
  facet normal -0 0 1
    outer loop
      vertex -16.5 7.15 13.3
      vertex -15.5 -7.15 13.3
      vertex -15.5 7.15 13.3
    endloop
  endfacet
  facet normal 0 0 1
    outer loop
      vertex -15.5 -7.15 13.3
      vertex -16.5 7.15 13.3
      vertex -16.5 -7.15 13.3
    endloop
  endfacet
  facet normal 0 -1 0
    outer loop
      vertex -16.5 7.15 13.3
      vertex -15.5 7.15 15
      vertex -16.5 7.15 15
    endloop
  endfacet
  facet normal 0 -1 -0
    outer loop
      vertex -15.5 7.15 15
      vertex -16.5 7.15 13.3
      vertex -15.5 7.15 13.3
    endloop
  endfacet
  facet normal 0 1 -0
    outer loop
      vertex -15.5 -7.15 13.3
      vertex -16.5 -7.15 15
      vertex -15.5 -7.15 15
    endloop
  endfacet
  facet normal 0 1 0
    outer loop
      vertex -16.5 -7.15 15
      vertex -15.5 -7.15 13.3
      vertex -16.5 -7.15 13.3
    endloop
  endfacet
  facet normal -0 0 1
    outer loop
      vertex 15.5 7.15 13.3
      vertex 16.5 -7.15 13.3
      vertex 16.5 7.15 13.3
    endloop
  endfacet
  facet normal 0 0 1
    outer loop
      vertex 16.5 -7.15 13.3
      vertex 15.5 7.15 13.3
      vertex 15.5 -7.15 13.3
    endloop
  endfacet
  facet normal 0 1 -0
    outer loop
      vertex 16.5 -7.15 13.3
      vertex 15.5 -7.15 15
      vertex 16.5 -7.15 15
    endloop
  endfacet
  facet normal 0 1 0
    outer loop
      vertex 15.5 -7.15 15
      vertex 16.5 -7.15 13.3
      vertex 15.5 -7.15 13.3
    endloop
  endfacet
  facet normal 0 -1 0
    outer loop
      vertex 15.5 7.15 13.3
      vertex 16.5 7.15 15
      vertex 15.5 7.15 15
    endloop
  endfacet
  facet normal 0 -1 -0
    outer loop
      vertex 16.5 7.15 15
      vertex 15.5 7.15 13.3
      vertex 16.5 7.15 13.3
    endloop
  endfacet
  facet normal 1 -0 0
    outer loop
      vertex -7.15 -16.5 15
      vertex -7.15 -15.5 13.3
      vertex -7.15 -15.5 15
    endloop
  endfacet
  facet normal 1 0 0
    outer loop
      vertex -7.15 -15.5 13.3
      vertex -7.15 -16.5 15
      vertex -7.15 -16.5 13.3
    endloop
  endfacet
  facet normal -0 0 1
    outer loop
      vertex -7.15 -15.5 13.3
      vertex 7.15 -16.5 13.3
      vertex 7.15 -15.5 13.3
    endloop
  endfacet
  facet normal 0 0 1
    outer loop
      vertex 7.15 -16.5 13.3
      vertex -7.15 -15.5 13.3
      vertex -7.15 -16.5 13.3
    endloop
  endfacet
  facet normal -1 0 0
    outer loop
      vertex 7.15 -16.5 13.3
      vertex 7.15 -15.5 15
      vertex 7.15 -15.5 13.3
    endloop
  endfacet
  facet normal -1 -0 0
    outer loop
      vertex 7.15 -15.5 15
      vertex 7.15 -16.5 13.3
      vertex 7.15 -16.5 15
    endloop
  endfacet
  facet normal 1 -0 0
    outer loop
      vertex -7.15 15.5 15
      vertex -7.15 16.5 13.3
      vertex -7.15 16.5 15
    endloop
  endfacet
  facet normal 1 0 0
    outer loop
      vertex -7.15 16.5 13.3
      vertex -7.15 15.5 15
      vertex -7.15 15.5 13.3
    endloop
  endfacet
  facet normal -0 0 1
    outer loop
      vertex -7.15 16.5 13.3
      vertex 7.15 15.5 13.3
      vertex 7.15 16.5 13.3
    endloop
  endfacet
  facet normal 0 0 1
    outer loop
      vertex 7.15 15.5 13.3
      vertex -7.15 16.5 13.3
      vertex -7.15 15.5 13.3
    endloop
  endfacet
  facet normal -1 0 0
    outer loop
      vertex 7.15 15.5 13.3
      vertex 7.15 16.5 15
      vertex 7.15 16.5 13.3
    endloop
  endfacet
  facet normal -1 -0 0
    outer loop
      vertex 7.15 16.5 15
      vertex 7.15 15.5 13.3
      vertex 7.15 15.5 15
    endloop
  endfacet
endsolid OpenSCAD_Model
