solid OpenSCAD_Model
  facet normal -1 0 0
    outer loop
      vertex -16.5 16.5 -1
      vertex -16.5 7.15 13.3
      vertex -16.5 16.5 15
    endloop
  endfacet
  facet normal -1 0 0
    outer loop
      vertex -16.5 16.5 -1
      vertex -16.5 -7.15 13.3
      vertex -16.5 7.15 13.3
    endloop
  endfacet
  facet normal -1 0 0
    outer loop
      vertex -16.5 -16.5 -1
      vertex -16.5 -7.15 13.3
      vertex -16.5 16.5 -1
    endloop
  endfacet
  facet normal -1 0 0
    outer loop
      vertex -16.5 -16.5 15
      vertex -16.5 -7.15 13.3
      vertex -16.5 -16.5 -1
    endloop
  endfacet
  facet normal -1 0 0
    outer loop
      vertex -16.5 -7.15 13.3
      vertex -16.5 -16.5 15
      vertex -16.5 -7.15 15
    endloop
  endfacet
  facet normal -1 -0 0
    outer loop
      vertex -16.5 16.5 15
      vertex -16.5 7.15 13.3
      vertex -16.5 7.15 15
    endloop
  endfacet
  facet normal 5.43763e-25 1.22465e-16 1
    outer loop
      vertex -15.5 15.5 -1.8982e-15
      vertex -2.04739 -0.307571 3.76666e-17
      vertex -6.9323 11.8037 -1.44554e-15
    endloop
  endfacet
  facet normal -5.95401e-24 1.22465e-16 1
    outer loop
      vertex -2.04739 -0.307571 3.76666e-17
      vertex -15.5 -15.5 1.8982e-15
      vertex -6.88658 -12.3162 1.5083e-15
    endloop
  endfacet
  facet normal -3.94546e-23 1.22465e-16 1
    outer loop
      vertex -6.88658 -12.3162 1.5083e-15
      vertex -15.5 -15.5 1.8982e-15
      vertex -6.92241 -12.4376 1.52317e-15
    endloop
  endfacet
  facet normal -4.88629e-23 1.22465e-16 1
    outer loop
      vertex -6.92241 -12.4376 1.52317e-15
      vertex -15.5 -15.5 1.8982e-15
      vertex -6.94392 -12.5588 1.53801e-15
    endloop
  endfacet
  facet normal -1.27374e-22 1.22464e-16 1
    outer loop
      vertex -15.5 15.5 -1.8982e-15
      vertex -6.9323 11.8037 -1.44554e-15
      vertex -6.96609 11.9297 -1.46097e-15
    endloop
  endfacet
  facet normal -3.45884e-23 1.22465e-16 1
    outer loop
      vertex 15.5 -15.5 1.8982e-15
      vertex 7.38641 -12.5963 1.5426e-15
      vertex 7.38765 -12.7241 1.55825e-15
    endloop
  endfacet
  facet normal -4.94901e-23 1.22465e-16 1
    outer loop
      vertex 7.32472 11.7752 -1.44204e-15
      vertex 15.5 15.5 -1.8982e-15
      vertex 7.36079 11.8966 -1.45691e-15
    endloop
  endfacet
  facet normal 2.8184e-22 1.22465e-16 1
    outer loop
      vertex 15.5 -15.5 1.8982e-15
      vertex 7.36819 -12.4707 1.52722e-15
      vertex 7.38641 -12.5963 1.5426e-15
    endloop
  endfacet
  facet normal -7.1089e-24 1.22465e-16 1
    outer loop
      vertex 2.48633 -0.307159 3.76162e-17
      vertex 15.5 15.5 -1.8982e-15
      vertex 7.32472 11.7752 -1.44204e-15
    endloop
  endfacet
  facet normal -1.12702e-22 1.22464e-16 1
    outer loop
      vertex 15.5 -15.5 1.8982e-15
      vertex 7.3344 -12.3447 1.51179e-15
      vertex 7.36819 -12.4707 1.52722e-15
    endloop
  endfacet
  facet normal 2.33233e-26 1.22465e-16 1
    outer loop
      vertex 15.5 15.5 -1.8982e-15
      vertex 2.48633 -0.307159 3.76162e-17
      vertex 15.5 -15.5 1.8982e-15
    endloop
  endfacet
  facet normal 2.03377e-25 1.22465e-16 1
    outer loop
      vertex 15.5 -15.5 1.8982e-15
      vertex 2.48633 -0.307159 3.76162e-17
      vertex 7.3344 -12.3447 1.51179e-15
    endloop
  endfacet
  facet normal 2.57161e-22 1.22464e-16 1
    outer loop
      vertex 7.38264 12.0178 -1.47175e-15
      vertex 15.5 15.5 -1.8982e-15
      vertex 7.38934 12.138 -1.48647e-15
    endloop
  endfacet
  facet normal 1.13298e-22 1.22464e-16 1
    outer loop
      vertex 15.5 15.5 -1.8982e-15
      vertex 7.37993 12.2561 -1.50095e-15
      vertex 7.38934 12.138 -1.48647e-15
    endloop
  endfacet
  facet normal 2.9635e-24 1.22465e-16 1
    outer loop
      vertex 15.5 15.5 -1.8982e-15
      vertex 7.35229 12.3746 -1.51545e-15
      vertex 7.37993 12.2561 -1.50095e-15
    endloop
  endfacet
  facet normal -2.58675e-22 1.22465e-16 1
    outer loop
      vertex 15.5 15.5 -1.8982e-15
      vertex 7.30675 12.484 -1.52885e-15
      vertex 7.35229 12.3746 -1.51545e-15
    endloop
  endfacet
  facet normal 1.4341e-22 1.22464e-16 1
    outer loop
      vertex 15.5 15.5 -1.8982e-15
      vertex 7.24207 12.5856 -1.54129e-15
      vertex 7.30675 12.484 -1.52885e-15
    endloop
  endfacet
  facet normal -1.50445e-22 1.22465e-16 1
    outer loop
      vertex 15.5 15.5 -1.8982e-15
      vertex 7.15778 12.6765 -1.55243e-15
      vertex 7.24207 12.5856 -1.54129e-15
    endloop
  endfacet
  facet normal 9.4437e-24 1.22465e-16 1
    outer loop
      vertex 15.5 15.5 -1.8982e-15
      vertex 7.06024 12.7491 -1.56132e-15
      vertex 7.15778 12.6765 -1.55243e-15
    endloop
  endfacet
  facet normal -5.12213e-23 1.22465e-16 1
    outer loop
      vertex 15.5 15.5 -1.8982e-15
      vertex 6.94902 12.8049 -1.56815e-15
      vertex 7.06024 12.7491 -1.56132e-15
    endloop
  endfacet
  facet normal 2.88424e-22 1.22464e-16 1
    outer loop
      vertex 15.5 15.5 -1.8982e-15
      vertex 6.82961 12.8415 -1.57263e-15
      vertex 6.94902 12.8049 -1.56815e-15
    endloop
  endfacet
  facet normal -2.10343e-22 1.22465e-16 1
    outer loop
      vertex 15.5 15.5 -1.8982e-15
      vertex 6.70427 12.8597 -1.57486e-15
      vertex 6.82961 12.8415 -1.57263e-15
    endloop
  endfacet
  facet normal -9.45406e-24 1.22465e-16 1
    outer loop
      vertex 15.5 15.5 -1.8982e-15
      vertex 4.14304 12.8625 -1.5752e-15
      vertex 6.70427 12.8597 -1.57486e-15
    endloop
  endfacet
  facet normal 7.04873e-22 1.22462e-16 1
    outer loop
      vertex 15.5 15.5 -1.8982e-15
      vertex 4.0511 12.8586 -1.57472e-15
      vertex 4.14304 12.8625 -1.5752e-15
    endloop
  endfacet
  facet normal -5.42399e-24 1.22465e-16 1
    outer loop
      vertex -3.67227 12.8601 -1.57491e-15
      vertex 4.0511 12.8586 -1.57472e-15
      vertex 15.5 15.5 -1.8982e-15
    endloop
  endfacet
  facet normal -2.55606e-24 1.22465e-16 1
    outer loop
      vertex 2.88661 12.0043 -1.47011e-15
      vertex -2.5033 12.0523 -1.47598e-15
      vertex 0.2173 5.33582 -6.53449e-16
    endloop
  endfacet
  facet normal -3.97646e-25 1.22465e-16 1
    outer loop
      vertex 2.95987 12.1424 -1.48701e-15
      vertex -2.5033 12.0523 -1.47598e-15
      vertex 2.88661 12.0043 -1.47011e-15
    endloop
  endfacet
  facet normal -2.64195e-24 1.22465e-16 1
    outer loop
      vertex -2.56587 12.1731 -1.49078e-15
      vertex 2.95987 12.1424 -1.48701e-15
      vertex 3.04651 12.2718 -1.50287e-15
    endloop
  endfacet
  facet normal 5.81499e-24 1.22464e-16 1
    outer loop
      vertex -2.63904 12.2839 -1.50434e-15
      vertex 3.04651 12.2718 -1.50287e-15
      vertex 3.14522 12.3915 -1.51752e-15
    endloop
  endfacet
  facet normal -4.26315e-24 1.22465e-16 1
    outer loop
      vertex -2.73959 12.4053 -1.51921e-15
      vertex 3.14522 12.3915 -1.51752e-15
      vertex 3.25464 12.5002 -1.53083e-15
    endloop
  endfacet
  facet normal 1.72554e-24 1.22464e-16 1
    outer loop
      vertex -2.85338 12.5151 -1.53265e-15
      vertex 3.25464 12.5002 -1.53083e-15
      vertex 3.37343 12.5968 -1.54266e-15
    endloop
  endfacet
  facet normal 2.19466e-24 1.22465e-16 1
    outer loop
      vertex -2.97536 12.6096 -1.54424e-15
      vertex 3.37343 12.5968 -1.54266e-15
      vertex 3.5002 12.6801 -1.55287e-15
    endloop
  endfacet
  facet normal -8.55073e-24 1.22465e-16 1
    outer loop
      vertex -3.10928 12.6928 -1.55442e-15
      vertex 3.5002 12.6801 -1.55287e-15
      vertex 3.63705 12.7505 -1.56149e-15
    endloop
  endfacet
  facet normal 3.23621e-24 1.22465e-16 1
    outer loop
      vertex -3.24692 12.759 -1.56253e-15
      vertex 3.63705 12.7505 -1.56149e-15
      vertex 3.77934 12.8047 -1.56813e-15
    endloop
  endfacet
  facet normal 1.91698e-25 1.22465e-16 1
    outer loop
      vertex -3.39287 12.8108 -1.56887e-15
      vertex 3.77934 12.8047 -1.56813e-15
      vertex 3.92926 12.8422 -1.57272e-15
    endloop
  endfacet
  facet normal -4.46116e-24 1.2247e-16 1
    outer loop
      vertex -3.54179 12.8451 -1.57307e-15
      vertex 4.0511 12.8586 -1.57472e-15
      vertex -3.67227 12.8601 -1.57491e-15
    endloop
  endfacet
  facet normal -2.31015e-24 1.22465e-16 1
    outer loop
      vertex 2.95987 12.1424 -1.48701e-15
      vertex -2.56587 12.1731 -1.49078e-15
      vertex -2.5033 12.0523 -1.47598e-15
    endloop
  endfacet
  facet normal 6.50994e-24 1.22464e-16 1
    outer loop
      vertex 3.04651 12.2718 -1.50287e-15
      vertex -2.63904 12.2839 -1.50434e-15
      vertex -2.56587 12.1731 -1.49078e-15
    endloop
  endfacet
  facet normal -5.06023e-24 1.22465e-16 1
    outer loop
      vertex 3.14522 12.3915 -1.51752e-15
      vertex -2.73959 12.4053 -1.51921e-15
      vertex -2.63904 12.2839 -1.50434e-15
    endloop
  endfacet
  facet normal 2.41083e-24 1.22465e-16 1
    outer loop
      vertex 3.25464 12.5002 -1.53083e-15
      vertex -2.85338 12.5151 -1.53265e-15
      vertex -2.73959 12.4053 -1.51921e-15
    endloop
  endfacet
  facet normal 1.44577e-24 1.22464e-16 1
    outer loop
      vertex 3.37343 12.5968 -1.54266e-15
      vertex -2.97536 12.6096 -1.54424e-15
      vertex -2.85338 12.5151 -1.53265e-15
    endloop
  endfacet
  facet normal -7.90016e-24 1.22466e-16 1
    outer loop
      vertex 3.5002 12.6801 -1.55287e-15
      vertex -3.10928 12.6928 -1.55442e-15
      vertex -2.97536 12.6096 -1.54424e-15
    endloop
  endfacet
  facet normal 2.39771e-24 1.22464e-16 1
    outer loop
      vertex 3.63705 12.7505 -1.56149e-15
      vertex -3.24692 12.759 -1.56253e-15
      vertex -3.10928 12.6928 -1.55442e-15
    endloop
  endfacet
  facet normal 5.66789e-25 1.22465e-16 1
    outer loop
      vertex 3.77934 12.8047 -1.56813e-15
      vertex -3.39287 12.8108 -1.56887e-15
      vertex -3.24692 12.759 -1.56253e-15
    endloop
  endfacet
  facet normal 9.36665e-24 1.22463e-16 1
    outer loop
      vertex 3.92926 12.8422 -1.57272e-15
      vertex -3.54179 12.8451 -1.57307e-15
      vertex -3.39287 12.8108 -1.56887e-15
    endloop
  endfacet
  facet normal 9.16668e-24 1.22462e-16 1
    outer loop
      vertex 4.0511 12.8586 -1.57472e-15
      vertex -3.54179 12.8451 -1.57307e-15
      vertex 3.92926 12.8422 -1.57272e-15
    endloop
  endfacet
  facet normal -0 1.22465e-16 1
    outer loop
      vertex -15.5 15.5 -1.8982e-15
      vertex -3.67227 12.8601 -1.57491e-15
      vertex 15.5 15.5 -1.8982e-15
    endloop
  endfacet
  facet normal 1.03376e-23 1.22465e-16 1
    outer loop
      vertex -3.67227 12.8601 -1.57491e-15
      vertex -15.5 15.5 -1.8982e-15
      vertex -6.26834 12.8616 -1.57509e-15
    endloop
  endfacet
  facet normal 5.82055e-24 1.22465e-16 1
    outer loop
      vertex -6.96896 12.3043 -1.50684e-15
      vertex -15.5 15.5 -1.8982e-15
      vertex -6.98726 12.138 -1.48647e-15
    endloop
  endfacet
  facet normal -2.47342e-23 1.22465e-16 1
    outer loop
      vertex -6.93362 12.4207 -1.52109e-15
      vertex -15.5 15.5 -1.8982e-15
      vertex -6.96896 12.3043 -1.50684e-15
    endloop
  endfacet
  facet normal 1.78599e-22 1.22465e-16 1
    outer loop
      vertex -6.87869 12.5299 -1.53447e-15
      vertex -15.5 15.5 -1.8982e-15
      vertex -6.93362 12.4207 -1.52109e-15
    endloop
  endfacet
  facet normal -2.26596e-22 1.22464e-16 1
    outer loop
      vertex -6.80371 12.6289 -1.54659e-15
      vertex -15.5 15.5 -1.8982e-15
      vertex -6.87869 12.5299 -1.53447e-15
    endloop
  endfacet
  facet normal 1.91786e-22 1.22465e-16 1
    outer loop
      vertex -6.71506 12.7101 -1.55654e-15
      vertex -15.5 15.5 -1.8982e-15
      vertex -6.80371 12.6289 -1.54659e-15
    endloop
  endfacet
  facet normal -1.79818e-22 1.22464e-16 1
    outer loop
      vertex -6.61227 12.7751 -1.5645e-15
      vertex -15.5 15.5 -1.8982e-15
      vertex -6.71506 12.7101 -1.55654e-15
    endloop
  endfacet
  facet normal 1.09678e-22 1.22465e-16 1
    outer loop
      vertex -6.50087 12.8215 -1.57018e-15
      vertex -15.5 15.5 -1.8982e-15
      vertex -6.61227 12.7751 -1.5645e-15
    endloop
  endfacet
  facet normal -1.83301e-22 1.22464e-16 1
    outer loop
      vertex -6.3831 12.85 -1.57367e-15
      vertex -15.5 15.5 -1.8982e-15
      vertex -6.50087 12.8215 -1.57018e-15
    endloop
  endfacet
  facet normal 3.0445e-22 1.22466e-16 1
    outer loop
      vertex -6.26834 12.8616 -1.57509e-15
      vertex -15.5 15.5 -1.8982e-15
      vertex -6.3831 12.85 -1.57367e-15
    endloop
  endfacet
  facet normal -6.08161e-23 1.22465e-16 1
    outer loop
      vertex 7.36079 11.8966 -1.45691e-15
      vertex 15.5 15.5 -1.8982e-15
      vertex 7.38264 12.0178 -1.47175e-15
    endloop
  endfacet
  facet normal -1.43022e-22 1.22464e-16 1
    outer loop
      vertex 7.37106 -12.8453 1.57309e-15
      vertex 15.5 -15.5 1.8982e-15
      vertex 7.38765 -12.7241 1.55825e-15
    endloop
  endfacet
  facet normal -2.21887e-23 1.22465e-16 1
    outer loop
      vertex 7.33571 -12.9617 1.58735e-15
      vertex 15.5 -15.5 1.8982e-15
      vertex 7.37106 -12.8453 1.57309e-15
    endloop
  endfacet
  facet normal 1.57254e-22 1.22465e-16 1
    outer loop
      vertex 7.28078 -13.0709 1.60072e-15
      vertex 15.5 -15.5 1.8982e-15
      vertex 7.33571 -12.9617 1.58735e-15
    endloop
  endfacet
  facet normal -1.99568e-22 1.22464e-16 1
    outer loop
      vertex 7.2058 -13.1699 1.61285e-15
      vertex 15.5 -15.5 1.8982e-15
      vertex 7.28078 -13.0709 1.60072e-15
    endloop
  endfacet
  facet normal 1.69138e-22 1.22465e-16 1
    outer loop
      vertex 7.11716 -13.2511 1.6228e-15
      vertex 15.5 -15.5 1.8982e-15
      vertex 7.2058 -13.1699 1.61285e-15
    endloop
  endfacet
  facet normal -1.59875e-22 1.22464e-16 1
    outer loop
      vertex 7.01437 -13.3161 1.63075e-15
      vertex 15.5 -15.5 1.8982e-15
      vertex 7.11716 -13.2511 1.6228e-15
    endloop
  endfacet
  facet normal 9.82971e-23 1.22465e-16 1
    outer loop
      vertex 6.90297 -13.3625 1.63643e-15
      vertex 15.5 -15.5 1.8982e-15
      vertex 7.01437 -13.3161 1.63075e-15
    endloop
  endfacet
  facet normal -1.68474e-22 1.22464e-16 1
    outer loop
      vertex 6.7852 -13.391 1.63992e-15
      vertex 15.5 -15.5 1.8982e-15
      vertex 6.90297 -13.3625 1.63643e-15
    endloop
  endfacet
  facet normal 2.89074e-22 1.22466e-16 1
    outer loop
      vertex 6.67043 -13.4026 1.64135e-15
      vertex 15.5 -15.5 1.8982e-15
      vertex 6.7852 -13.391 1.63992e-15
    endloop
  endfacet
  facet normal 1.03421e-23 1.22465e-16 1
    outer loop
      vertex 4.07446 -13.4011 1.64116e-15
      vertex 15.5 -15.5 1.8982e-15
      vertex 6.67043 -13.4026 1.64135e-15
    endloop
  endfacet
  facet normal -4.48245e-24 1.2247e-16 1
    outer loop
      vertex -3.61217 -13.3996 1.64098e-15
      vertex 4.07446 -13.4011 1.64116e-15
      vertex 3.94511 -13.3861 1.63932e-15
    endloop
  endfacet
  facet normal 1.24499e-24 1.22465e-16 1
    outer loop
      vertex -2.44751 -12.5453 1.53636e-15
      vertex 2.87411 -12.5179 1.533e-15
      vertex 0.219086 -5.91475 7.24348e-16
    endloop
  endfacet
  facet normal -2.26499e-24 1.22465e-16 1
    outer loop
      vertex -2.44751 -12.5453 1.53636e-15
      vertex 2.89969 -12.5733 1.53978e-15
      vertex 2.87411 -12.5179 1.533e-15
    endloop
  endfacet
  facet normal -4.53111e-24 1.22465e-16 1
    outer loop
      vertex -2.5208 -12.6834 1.55327e-15
      vertex 2.89969 -12.5733 1.53978e-15
      vertex -2.44751 -12.5453 1.53636e-15
    endloop
  endfacet
  facet normal 3.06179e-24 1.22465e-16 1
    outer loop
      vertex 2.89969 -12.5733 1.53978e-15
      vertex -2.5208 -12.6834 1.55327e-15
      vertex 2.97189 -12.7031 1.55568e-15
    endloop
  endfacet
  facet normal 4.5814e-24 1.22465e-16 1
    outer loop
      vertex -2.6075 -12.8128 1.56912e-15
      vertex 2.97189 -12.7031 1.55568e-15
      vertex -2.5208 -12.6834 1.55327e-15
    endloop
  endfacet
  facet normal 9.90137e-24 1.22465e-16 1
    outer loop
      vertex 2.97189 -12.7031 1.55568e-15
      vertex -2.6075 -12.8128 1.56912e-15
      vertex 3.06033 -12.8311 1.57136e-15
    endloop
  endfacet
  facet normal 8.04924e-24 1.22464e-16 1
    outer loop
      vertex -2.7063 -12.9325 1.58377e-15
      vertex 3.06033 -12.8311 1.57136e-15
      vertex -2.6075 -12.8128 1.56912e-15
    endloop
  endfacet
  facet normal -4.42443e-24 1.22465e-16 1
    outer loop
      vertex 3.06033 -12.8311 1.57136e-15
      vertex -2.7063 -12.9325 1.58377e-15
      vertex 3.16057 -12.9492 1.58581e-15
    endloop
  endfacet
  facet normal -3.80926e-24 1.22465e-16 1
    outer loop
      vertex -2.81581 -13.0412 1.59709e-15
      vertex 3.16057 -12.9492 1.58581e-15
      vertex -2.7063 -12.9325 1.58377e-15
    endloop
  endfacet
  facet normal 2.45419e-24 1.22465e-16 1
    outer loop
      vertex 3.16057 -12.9492 1.58581e-15
      vertex -2.81581 -13.0412 1.59709e-15
      vertex 3.27127 -13.0561 1.59891e-15
    endloop
  endfacet
  facet normal 1.73146e-24 1.22464e-16 1
    outer loop
      vertex -2.93469 -13.1378 1.60891e-15
      vertex 3.27127 -13.0561 1.59891e-15
      vertex -2.81581 -13.0412 1.59709e-15
    endloop
  endfacet
  facet normal 1.52051e-24 1.22464e-16 1
    outer loop
      vertex 3.27127 -13.0561 1.59891e-15
      vertex -2.93469 -13.1378 1.60891e-15
      vertex 3.38812 -13.1483 1.61021e-15
    endloop
  endfacet
  facet normal 2.14676e-24 1.22465e-16 1
    outer loop
      vertex -3.06152 -13.2211 1.61912e-15
      vertex 3.38812 -13.1483 1.61021e-15
      vertex -2.93469 -13.1378 1.60891e-15
    endloop
  endfacet
  facet normal -9.28961e-24 1.22466e-16 1
    outer loop
      vertex 3.38812 -13.1483 1.61021e-15
      vertex -3.06152 -13.2211 1.61912e-15
      vertex 3.51869 -13.2318 1.62043e-15
    endloop
  endfacet
  facet normal -9.97714e-24 1.22465e-16 1
    outer loop
      vertex -3.19841 -13.2915 1.62774e-15
      vertex 3.51869 -13.2318 1.62043e-15
      vertex -3.06152 -13.2211 1.61912e-15
    endloop
  endfacet
  facet normal 5.27424e-24 1.22464e-16 1
    outer loop
      vertex 3.51869 -13.2318 1.62043e-15
      vertex -3.19841 -13.2915 1.62774e-15
      vertex 3.65266 -13.2984 1.62858e-15
    endloop
  endfacet
  facet normal 6.38162e-24 1.22465e-16 1
    outer loop
      vertex -3.34067 -13.3457 1.63438e-15
      vertex 3.65266 -13.2984 1.62858e-15
      vertex -3.19841 -13.2915 1.62774e-15
    endloop
  endfacet
  facet normal 6.56079e-24 1.22465e-16 1
    outer loop
      vertex 3.65266 -13.2984 1.62858e-15
      vertex -3.34067 -13.3457 1.63438e-15
      vertex 3.79515 -13.3506 1.63497e-15
    endloop
  endfacet
  facet normal 6.54335e-24 1.22465e-16 1
    outer loop
      vertex -3.49048 -13.3832 1.63897e-15
      vertex 3.79515 -13.3506 1.63497e-15
      vertex -3.34067 -13.3457 1.63438e-15
    endloop
  endfacet
  facet normal 9.9292e-24 1.22464e-16 1
    outer loop
      vertex 3.79515 -13.3506 1.63497e-15
      vertex -3.49048 -13.3832 1.63897e-15
      vertex 3.94511 -13.3861 1.63932e-15
    endloop
  endfacet
  facet normal 9.2103e-24 1.22462e-16 1
    outer loop
      vertex -3.61217 -13.3996 1.64098e-15
      vertex 3.94511 -13.3861 1.63932e-15
      vertex -3.49048 -13.3832 1.63897e-15
    endloop
  endfacet
  facet normal -5.46394e-24 1.22465e-16 1
    outer loop
      vertex 4.07446 -13.4011 1.64116e-15
      vertex -3.61217 -13.3996 1.64098e-15
      vertex 15.5 -15.5 1.8982e-15
    endloop
  endfacet
  facet normal 2.25471e-22 1.22463e-16 1
    outer loop
      vertex -15.5 -15.5 1.8982e-15
      vertex -3.61217 -13.3996 1.64098e-15
      vertex -3.70395 -13.4035 1.64145e-15
    endloop
  endfacet
  facet normal 5.05945e-24 1.22465e-16 1
    outer loop
      vertex -15.5 -15.5 1.8982e-15
      vertex -3.70395 -13.4035 1.64145e-15
      vertex -6.2325 -13.4007 1.64111e-15
    endloop
  endfacet
  facet normal -5.59624e-23 1.22465e-16 1
    outer loop
      vertex -15.5 15.5 -1.8982e-15
      vertex -6.96609 11.9297 -1.46097e-15
      vertex -6.98431 12.0553 -1.47634e-15
    endloop
  endfacet
  facet normal 1.5755e-22 1.22465e-16 1
    outer loop
      vertex -15.5 15.5 -1.8982e-15
      vertex -6.98431 12.0553 -1.47634e-15
      vertex -6.98726 12.138 -1.48647e-15
    endloop
  endfacet
  facet normal -8.3183e-26 1.22465e-16 1
    outer loop
      vertex -2.04739 -0.307571 3.76666e-17
      vertex -15.5 15.5 -1.8982e-15
      vertex -15.5 -15.5 1.8982e-15
    endloop
  endfacet
  facet normal -9.43605e-24 1.22465e-16 1
    outer loop
      vertex -6.94392 -12.5588 1.53801e-15
      vertex -15.5 -15.5 1.8982e-15
      vertex -6.95021 -12.6827 1.55319e-15
    endloop
  endfacet
  facet normal -3.0084e-24 1.22465e-16 1
    outer loop
      vertex -6.95021 -12.6827 1.55319e-15
      vertex -15.5 -15.5 1.8982e-15
      vertex -6.93939 -12.8009 1.56766e-15
    endloop
  endfacet
  facet normal 0 1.22465e-16 1
    outer loop
      vertex -3.61217 -13.3996 1.64098e-15
      vertex -15.5 -15.5 1.8982e-15
      vertex 15.5 -15.5 1.8982e-15
    endloop
  endfacet
  facet normal -1.33073e-22 1.22465e-16 1
    outer loop
      vertex -6.36159 -13.3835 1.639e-15
      vertex -15.5 -15.5 1.8982e-15
      vertex -6.2325 -13.4007 1.64111e-15
    endloop
  endfacet
  facet normal 1.4923e-22 1.22464e-16 1
    outer loop
      vertex -6.48393 -13.3489 1.63477e-15
      vertex -15.5 -15.5 1.8982e-15
      vertex -6.36159 -13.3835 1.639e-15
    endloop
  endfacet
  facet normal -1.48671e-22 1.22465e-16 1
    outer loop
      vertex -6.59453 -13.2984 1.62858e-15
      vertex -15.5 -15.5 1.8982e-15
      vertex -6.48393 -13.3489 1.63477e-15
    endloop
  endfacet
  facet normal 5.02185e-23 1.22464e-16 1
    outer loop
      vertex -6.6778 -13.2437 1.62189e-15
      vertex -15.5 -15.5 1.8982e-15
      vertex -6.59453 -13.2984 1.62858e-15
    endloop
  endfacet
  facet normal 6.12317e-24 1.22465e-16 1
    outer loop
      vertex -6.75374 -13.1763 1.61363e-15
      vertex -15.5 -15.5 1.8982e-15
      vertex -6.6778 -13.2437 1.62189e-15
    endloop
  endfacet
  facet normal -1.23898e-22 1.22465e-16 1
    outer loop
      vertex -6.81824 -13.099 1.60416e-15
      vertex -15.5 -15.5 1.8982e-15
      vertex -6.75374 -13.1763 1.61363e-15
    endloop
  endfacet
  facet normal 2.28774e-22 1.22464e-16 1
    outer loop
      vertex -6.86891 -13.0163 1.59404e-15
      vertex -15.5 -15.5 1.8982e-15
      vertex -6.81824 -13.099 1.60416e-15
    endloop
  endfacet
  facet normal -8.36398e-23 1.22465e-16 1
    outer loop
      vertex -6.90987 -12.9193 1.58215e-15
      vertex -15.5 -15.5 1.8982e-15
      vertex -6.86891 -13.0163 1.59404e-15
    endloop
  endfacet
  facet normal 1.11459e-22 1.22464e-16 1
    outer loop
      vertex -6.93939 -12.8009 1.56766e-15
      vertex -15.5 -15.5 1.8982e-15
      vertex -6.90987 -12.9193 1.58215e-15
    endloop
  endfacet
  facet normal 1 0 0
    outer loop
      vertex 16.5 -7.15 15
      vertex 16.5 -16.5 15
      vertex 16.5 -7.15 13.3
    endloop
  endfacet
  facet normal 1 0 0
    outer loop
      vertex 16.5 7.15 13.3
      vertex 16.5 16.5 15
      vertex 16.5 7.15 15
    endloop
  endfacet
  facet normal 1 0 0
    outer loop
      vertex 16.5 16.5 15
      vertex 16.5 7.15 13.3
      vertex 16.5 16.5 -1
    endloop
  endfacet
  facet normal 1 -0 0
    outer loop
      vertex 16.5 -7.15 13.3
      vertex 16.5 16.5 -1
      vertex 16.5 7.15 13.3
    endloop
  endfacet
  facet normal 1 0 0
    outer loop
      vertex 16.5 -16.5 -1
      vertex 16.5 -7.15 13.3
      vertex 16.5 -16.5 15
    endloop
  endfacet
  facet normal 1 0 0
    outer loop
      vertex 16.5 -7.15 13.3
      vertex 16.5 -16.5 -1
      vertex 16.5 16.5 -1
    endloop
  endfacet
  facet normal 0 -1 0
    outer loop
      vertex -16.5 -16.5 15
      vertex -7.15 -16.5 13.3
      vertex -7.15 -16.5 15
    endloop
  endfacet
  facet normal 0 -1 -0
    outer loop
      vertex -7.15 -16.5 13.3
      vertex -16.5 -16.5 -1
      vertex 7.15 -16.5 13.3
    endloop
  endfacet
  facet normal 0 -1 0
    outer loop
      vertex -16.5 -16.5 -1
      vertex -7.15 -16.5 13.3
      vertex -16.5 -16.5 15
    endloop
  endfacet
  facet normal 0 -1 0
    outer loop
      vertex 7.15 -16.5 13.3
      vertex 16.5 -16.5 15
      vertex 7.15 -16.5 15
    endloop
  endfacet
  facet normal 0 -1 0
    outer loop
      vertex 16.5 -16.5 -1
      vertex 7.15 -16.5 13.3
      vertex -16.5 -16.5 -1
    endloop
  endfacet
  facet normal 0 -1 0
    outer loop
      vertex 7.15 -16.5 13.3
      vertex 16.5 -16.5 -1
      vertex 16.5 -16.5 15
    endloop
  endfacet
  facet normal 0 0 1
    outer loop
      vertex -15.5 -7.15 15
      vertex -16.5 -7.15 15
      vertex -15.5 -15.5 15
    endloop
  endfacet
  facet normal -0 0 1
    outer loop
      vertex -15.5 -15.5 15
      vertex -7.15 -16.5 15
      vertex -7.15 -15.5 15
    endloop
  endfacet
  facet normal 0 0 1
    outer loop
      vertex -15.5 -15.5 15
      vertex -16.5 -16.5 15
      vertex -7.15 -16.5 15
    endloop
  endfacet
  facet normal 0 0 1
    outer loop
      vertex -16.5 -16.5 15
      vertex -15.5 -15.5 15
      vertex -16.5 -7.15 15
    endloop
  endfacet
  facet normal 0 0 1
    outer loop
      vertex -7.15 16.5 15
      vertex -15.5 15.5 15
      vertex -7.15 15.5 15
    endloop
  endfacet
  facet normal -0 0 1
    outer loop
      vertex -16.5 16.5 15
      vertex -15.5 15.5 15
      vertex -7.15 16.5 15
    endloop
  endfacet
  facet normal 0 0 1
    outer loop
      vertex -16.5 7.15 15
      vertex -15.5 15.5 15
      vertex -16.5 16.5 15
    endloop
  endfacet
  facet normal 0 0 1
    outer loop
      vertex -15.5 15.5 15
      vertex -16.5 7.15 15
      vertex -15.5 7.15 15
    endloop
  endfacet
  facet normal 0 0 1
    outer loop
      vertex 16.5 16.5 15
      vertex 15.5 15.5 15
      vertex 16.5 7.15 15
    endloop
  endfacet
  facet normal -0 0 1
    outer loop
      vertex 7.15 16.5 15
      vertex 15.5 15.5 15
      vertex 16.5 16.5 15
    endloop
  endfacet
  facet normal 0 0 1
    outer loop
      vertex 15.5 15.5 15
      vertex 7.15 16.5 15
      vertex 7.15 15.5 15
    endloop
  endfacet
  facet normal 0 0 1
    outer loop
      vertex 16.5 7.15 15
      vertex 15.5 15.5 15
      vertex 15.5 7.15 15
    endloop
  endfacet
  facet normal 0 0 1
    outer loop
      vertex 15.5 -15.5 15
      vertex 16.5 -7.15 15
      vertex 15.5 -7.15 15
    endloop
  endfacet
  facet normal 0 0 1
    outer loop
      vertex 16.5 -7.15 15
      vertex 15.5 -15.5 15
      vertex 16.5 -16.5 15
    endloop
  endfacet
  facet normal 0 0 1
    outer loop
      vertex 7.15 -16.5 15
      vertex 15.5 -15.5 15
      vertex 7.15 -15.5 15
    endloop
  endfacet
  facet normal 0 0 1
    outer loop
      vertex 15.5 -15.5 15
      vertex 7.15 -16.5 15
      vertex 16.5 -16.5 15
    endloop
  endfacet
  facet normal 0 1 0
    outer loop
      vertex 16.5 16.5 15
      vertex 7.15 16.5 13.3
      vertex 7.15 16.5 15
    endloop
  endfacet
  facet normal 0 1 0
    outer loop
      vertex 7.15 16.5 13.3
      vertex 16.5 16.5 -1
      vertex -7.15 16.5 13.3
    endloop
  endfacet
  facet normal 0 1 -0
    outer loop
      vertex 16.5 16.5 -1
      vertex 7.15 16.5 13.3
      vertex 16.5 16.5 15
    endloop
  endfacet
  facet normal 0 1 -0
    outer loop
      vertex -7.15 16.5 13.3
      vertex -16.5 16.5 15
      vertex -7.15 16.5 15
    endloop
  endfacet
  facet normal 0 1 0
    outer loop
      vertex -16.5 16.5 -1
      vertex -7.15 16.5 13.3
      vertex 16.5 16.5 -1
    endloop
  endfacet
  facet normal 0 1 0
    outer loop
      vertex -7.15 16.5 13.3
      vertex -16.5 16.5 -1
      vertex -16.5 16.5 15
    endloop
  endfacet
  facet normal 1 0 0
    outer loop
      vertex -15.5 -7.15 15
      vertex -15.5 -15.5 15
      vertex -15.5 -7.15 13.3
    endloop
  endfacet
  facet normal 1 0 0
    outer loop
      vertex -15.5 7.15 13.3
      vertex -15.5 15.5 15
      vertex -15.5 7.15 15
    endloop
  endfacet
  facet normal 1 0 0
    outer loop
      vertex -15.5 15.5 15
      vertex -15.5 7.15 13.3
      vertex -15.5 15.5 -1.8982e-15
    endloop
  endfacet
  facet normal 1 -0 0
    outer loop
      vertex -15.5 -7.15 13.3
      vertex -15.5 15.5 -1.8982e-15
      vertex -15.5 7.15 13.3
    endloop
  endfacet
  facet normal 1 0 0
    outer loop
      vertex -15.5 -15.5 1.8982e-15
      vertex -15.5 -7.15 13.3
      vertex -15.5 -15.5 15
    endloop
  endfacet
  facet normal 1 0 0
    outer loop
      vertex -15.5 -7.15 13.3
      vertex -15.5 -15.5 1.8982e-15
      vertex -15.5 15.5 -1.8982e-15
    endloop
  endfacet
  facet normal -1 0 0
    outer loop
      vertex 15.5 15.5 -1.8982e-15
      vertex 15.5 7.15 13.3
      vertex 15.5 15.5 15
    endloop
  endfacet
  facet normal -1 0 0
    outer loop
      vertex 15.5 15.5 -1.8982e-15
      vertex 15.5 -7.15 13.3
      vertex 15.5 7.15 13.3
    endloop
  endfacet
  facet normal -1 0 0
    outer loop
      vertex 15.5 -15.5 1.8982e-15
      vertex 15.5 -7.15 13.3
      vertex 15.5 15.5 -1.8982e-15
    endloop
  endfacet
  facet normal -1 0 0
    outer loop
      vertex 15.5 -15.5 15
      vertex 15.5 -7.15 13.3
      vertex 15.5 -15.5 1.8982e-15
    endloop
  endfacet
  facet normal -1 0 0
    outer loop
      vertex 15.5 -7.15 13.3
      vertex 15.5 -15.5 15
      vertex 15.5 -7.15 15
    endloop
  endfacet
  facet normal -1 -0 0
    outer loop
      vertex 15.5 15.5 15
      vertex 15.5 7.15 13.3
      vertex 15.5 7.15 15
    endloop
  endfacet
  facet normal 0 1 0
    outer loop
      vertex 15.5 -15.5 15
      vertex 7.15 -15.5 13.3
      vertex 7.15 -15.5 15
    endloop
  endfacet
  facet normal 0 1 0
    outer loop
      vertex 7.15 -15.5 13.3
      vertex 15.5 -15.5 1.8982e-15
      vertex -7.15 -15.5 13.3
    endloop
  endfacet
  facet normal 0 1 -0
    outer loop
      vertex 15.5 -15.5 1.8982e-15
      vertex 7.15 -15.5 13.3
      vertex 15.5 -15.5 15
    endloop
  endfacet
  facet normal 0 1 -0
    outer loop
      vertex -7.15 -15.5 13.3
      vertex -15.5 -15.5 15
      vertex -7.15 -15.5 15
    endloop
  endfacet
  facet normal 0 1 0
    outer loop
      vertex -15.5 -15.5 1.8982e-15
      vertex -7.15 -15.5 13.3
      vertex 15.5 -15.5 1.8982e-15
    endloop
  endfacet
  facet normal 0 1 0
    outer loop
      vertex -7.15 -15.5 13.3
      vertex -15.5 -15.5 1.8982e-15
      vertex -15.5 -15.5 15
    endloop
  endfacet
  facet normal 0 -1 0
    outer loop
      vertex -15.5 15.5 15
      vertex -7.15 15.5 13.3
      vertex -7.15 15.5 15
    endloop
  endfacet
  facet normal 0 -1 -0
    outer loop
      vertex -7.15 15.5 13.3
      vertex -15.5 15.5 -1.8982e-15
      vertex 7.15 15.5 13.3
    endloop
  endfacet
  facet normal 0 -1 0
    outer loop
      vertex -15.5 15.5 -1.8982e-15
      vertex -7.15 15.5 13.3
      vertex -15.5 15.5 15
    endloop
  endfacet
  facet normal 0 -1 0
    outer loop
      vertex 7.15 15.5 13.3
      vertex 15.5 15.5 15
      vertex 7.15 15.5 15
    endloop
  endfacet
  facet normal 0 -1 0
    outer loop
      vertex 15.5 15.5 -1.8982e-15
      vertex 7.15 15.5 13.3
      vertex -15.5 15.5 -1.8982e-15
    endloop
  endfacet
  facet normal 0 -1 0
    outer loop
      vertex 7.15 15.5 13.3
      vertex 15.5 15.5 -1.8982e-15
      vertex 15.5 15.5 15
    endloop
  endfacet
  facet normal 0 0 -1
    outer loop
      vertex 7.32472 11.7752 -1
      vertex 16.5 16.5 -1
      vertex 16.5 -16.5 -1
    endloop
  endfacet
  facet normal 0 0 -1
    outer loop
      vertex 7.38641 -12.5963 -1
      vertex 16.5 -16.5 -1
      vertex 7.38765 -12.7241 -1
    endloop
  endfacet
  facet normal 0 0 -1
    outer loop
      vertex 16.5 -16.5 -1
      vertex 7.37106 -12.8453 -1
      vertex 7.38765 -12.7241 -1
    endloop
  endfacet
  facet normal 0 0 -1
    outer loop
      vertex 16.5 -16.5 -1
      vertex 7.33571 -12.9617 -1
      vertex 7.37106 -12.8453 -1
    endloop
  endfacet
  facet normal 0 0 -1
    outer loop
      vertex 16.5 -16.5 -1
      vertex 7.28078 -13.0709 -1
      vertex 7.33571 -12.9617 -1
    endloop
  endfacet
  facet normal 0 0 -1
    outer loop
      vertex 16.5 -16.5 -1
      vertex 7.2058 -13.1699 -1
      vertex 7.28078 -13.0709 -1
    endloop
  endfacet
  facet normal 0 0 -1
    outer loop
      vertex 16.5 -16.5 -1
      vertex 7.11716 -13.2511 -1
      vertex 7.2058 -13.1699 -1
    endloop
  endfacet
  facet normal 0 0 -1
    outer loop
      vertex 16.5 -16.5 -1
      vertex 7.01437 -13.3161 -1
      vertex 7.11716 -13.2511 -1
    endloop
  endfacet
  facet normal 0 0 -1
    outer loop
      vertex 16.5 -16.5 -1
      vertex 6.90297 -13.3625 -1
      vertex 7.01437 -13.3161 -1
    endloop
  endfacet
  facet normal 0 0 -1
    outer loop
      vertex 16.5 -16.5 -1
      vertex 6.7852 -13.391 -1
      vertex 6.90297 -13.3625 -1
    endloop
  endfacet
  facet normal 0 0 -1
    outer loop
      vertex 16.5 -16.5 -1
      vertex 6.67043 -13.4026 -1
      vertex 6.7852 -13.391 -1
    endloop
  endfacet
  facet normal 0 0 -1
    outer loop
      vertex 16.5 -16.5 -1
      vertex 4.07446 -13.4011 -1
      vertex 6.67043 -13.4026 -1
    endloop
  endfacet
  facet normal 0 0 -1
    outer loop
      vertex -3.61217 -13.3996 -1
      vertex 4.07446 -13.4011 -1
      vertex 16.5 -16.5 -1
    endloop
  endfacet
  facet normal 0 0 -1
    outer loop
      vertex 4.07446 -13.4011 -1
      vertex -3.61217 -13.3996 -1
      vertex 3.94511 -13.3861 -1
    endloop
  endfacet
  facet normal -0 0 -1
    outer loop
      vertex 2.87411 -12.5179 -1
      vertex -2.44751 -12.5453 -1
      vertex 0.219086 -5.91475 -1
    endloop
  endfacet
  facet normal 0 0 -1
    outer loop
      vertex 2.89969 -12.5733 -1
      vertex -2.44751 -12.5453 -1
      vertex 2.87411 -12.5179 -1
    endloop
  endfacet
  facet normal 0 0 -1
    outer loop
      vertex -2.5208 -12.6834 -1
      vertex 2.89969 -12.5733 -1
      vertex 2.97189 -12.7031 -1
    endloop
  endfacet
  facet normal 0 0 -1
    outer loop
      vertex -2.6075 -12.8128 -1
      vertex 2.97189 -12.7031 -1
      vertex 3.06033 -12.8311 -1
    endloop
  endfacet
  facet normal 0 0 -1
    outer loop
      vertex -2.7063 -12.9325 -1
      vertex 3.06033 -12.8311 -1
      vertex 3.16057 -12.9492 -1
    endloop
  endfacet
  facet normal 0 0 -1
    outer loop
      vertex -2.81581 -13.0412 -1
      vertex 3.16057 -12.9492 -1
      vertex 3.27127 -13.0561 -1
    endloop
  endfacet
  facet normal 0 0 -1
    outer loop
      vertex -2.93469 -13.1378 -1
      vertex 3.27127 -13.0561 -1
      vertex 3.38812 -13.1483 -1
    endloop
  endfacet
  facet normal 0 0 -1
    outer loop
      vertex -3.06152 -13.2211 -1
      vertex 3.38812 -13.1483 -1
      vertex 3.51869 -13.2318 -1
    endloop
  endfacet
  facet normal 0 0 -1
    outer loop
      vertex -3.19841 -13.2915 -1
      vertex 3.51869 -13.2318 -1
      vertex 3.65266 -13.2984 -1
    endloop
  endfacet
  facet normal 0 0 -1
    outer loop
      vertex -3.34067 -13.3457 -1
      vertex 3.65266 -13.2984 -1
      vertex 3.79515 -13.3506 -1
    endloop
  endfacet
  facet normal 0 -0 -1
    outer loop
      vertex -3.49048 -13.3832 -1
      vertex 3.94511 -13.3861 -1
      vertex -3.61217 -13.3996 -1
    endloop
  endfacet
  facet normal -0 0 -1
    outer loop
      vertex 2.89969 -12.5733 -1
      vertex -2.5208 -12.6834 -1
      vertex -2.44751 -12.5453 -1
    endloop
  endfacet
  facet normal -0 0 -1
    outer loop
      vertex 2.97189 -12.7031 -1
      vertex -2.6075 -12.8128 -1
      vertex -2.5208 -12.6834 -1
    endloop
  endfacet
  facet normal -0 0 -1
    outer loop
      vertex 3.06033 -12.8311 -1
      vertex -2.7063 -12.9325 -1
      vertex -2.6075 -12.8128 -1
    endloop
  endfacet
  facet normal -0 0 -1
    outer loop
      vertex 3.16057 -12.9492 -1
      vertex -2.81581 -13.0412 -1
      vertex -2.7063 -12.9325 -1
    endloop
  endfacet
  facet normal -0 0 -1
    outer loop
      vertex 3.27127 -13.0561 -1
      vertex -2.93469 -13.1378 -1
      vertex -2.81581 -13.0412 -1
    endloop
  endfacet
  facet normal -0 0 -1
    outer loop
      vertex 3.38812 -13.1483 -1
      vertex -3.06152 -13.2211 -1
      vertex -2.93469 -13.1378 -1
    endloop
  endfacet
  facet normal -0 0 -1
    outer loop
      vertex 3.51869 -13.2318 -1
      vertex -3.19841 -13.2915 -1
      vertex -3.06152 -13.2211 -1
    endloop
  endfacet
  facet normal -0 0 -1
    outer loop
      vertex 3.65266 -13.2984 -1
      vertex -3.34067 -13.3457 -1
      vertex -3.19841 -13.2915 -1
    endloop
  endfacet
  facet normal -0 0 -1
    outer loop
      vertex 3.79515 -13.3506 -1
      vertex -3.49048 -13.3832 -1
      vertex -3.34067 -13.3457 -1
    endloop
  endfacet
  facet normal 0 0 -1
    outer loop
      vertex 3.94511 -13.3861 -1
      vertex -3.49048 -13.3832 -1
      vertex 3.79515 -13.3506 -1
    endloop
  endfacet
  facet normal 0 0 -1
    outer loop
      vertex -16.5 -16.5 -1
      vertex -3.61217 -13.3996 -1
      vertex 16.5 -16.5 -1
    endloop
  endfacet
  facet normal 0 0 -1
    outer loop
      vertex -3.61217 -13.3996 -1
      vertex -16.5 -16.5 -1
      vertex -3.70395 -13.4035 -1
    endloop
  endfacet
  facet normal -0 0 -1
    outer loop
      vertex -3.70395 -13.4035 -1
      vertex -16.5 -16.5 -1
      vertex -6.2325 -13.4007 -1
    endloop
  endfacet
  facet normal 0 0 -1
    outer loop
      vertex -6.94392 -12.5588 -1
      vertex -6.98431 12.0553 -1
      vertex -6.96609 11.9297 -1
    endloop
  endfacet
  facet normal -0 0 -1
    outer loop
      vertex -6.94392 -12.5588 -1
      vertex -16.5 -16.5 -1
      vertex -6.98431 12.0553 -1
    endloop
  endfacet
  facet normal 0 0 -1
    outer loop
      vertex -16.5 16.5 -1
      vertex -6.98431 12.0553 -1
      vertex -16.5 -16.5 -1
    endloop
  endfacet
  facet normal -0 0 -1
    outer loop
      vertex -6.93939 -12.8009 -1
      vertex -16.5 -16.5 -1
      vertex -6.95021 -12.6827 -1
    endloop
  endfacet
  facet normal -0 0 -1
    outer loop
      vertex -6.90987 -12.9193 -1
      vertex -16.5 -16.5 -1
      vertex -6.93939 -12.8009 -1
    endloop
  endfacet
  facet normal -0 0 -1
    outer loop
      vertex -6.86891 -13.0163 -1
      vertex -16.5 -16.5 -1
      vertex -6.90987 -12.9193 -1
    endloop
  endfacet
  facet normal -0 0 -1
    outer loop
      vertex -6.81824 -13.099 -1
      vertex -16.5 -16.5 -1
      vertex -6.86891 -13.0163 -1
    endloop
  endfacet
  facet normal -0 0 -1
    outer loop
      vertex -6.75374 -13.1763 -1
      vertex -16.5 -16.5 -1
      vertex -6.81824 -13.099 -1
    endloop
  endfacet
  facet normal -0 0 -1
    outer loop
      vertex -6.6778 -13.2437 -1
      vertex -16.5 -16.5 -1
      vertex -6.75374 -13.1763 -1
    endloop
  endfacet
  facet normal -0 0 -1
    outer loop
      vertex -6.59453 -13.2984 -1
      vertex -16.5 -16.5 -1
      vertex -6.6778 -13.2437 -1
    endloop
  endfacet
  facet normal -0 0 -1
    outer loop
      vertex -6.48393 -13.3489 -1
      vertex -16.5 -16.5 -1
      vertex -6.59453 -13.2984 -1
    endloop
  endfacet
  facet normal -0 0 -1
    outer loop
      vertex -6.36159 -13.3835 -1
      vertex -16.5 -16.5 -1
      vertex -6.48393 -13.3489 -1
    endloop
  endfacet
  facet normal -0 0 -1
    outer loop
      vertex -6.2325 -13.4007 -1
      vertex -16.5 -16.5 -1
      vertex -6.36159 -13.3835 -1
    endloop
  endfacet
  facet normal 0 0 -1
    outer loop
      vertex 7.37993 12.2561 -1
      vertex 16.5 16.5 -1
      vertex 7.38934 12.138 -1
    endloop
  endfacet
  facet normal 0 0 -1
    outer loop
      vertex 7.35229 12.3746 -1
      vertex 16.5 16.5 -1
      vertex 7.37993 12.2561 -1
    endloop
  endfacet
  facet normal 0 0 -1
    outer loop
      vertex 7.30675 12.484 -1
      vertex 16.5 16.5 -1
      vertex 7.35229 12.3746 -1
    endloop
  endfacet
  facet normal 0 0 -1
    outer loop
      vertex 7.24207 12.5856 -1
      vertex 16.5 16.5 -1
      vertex 7.30675 12.484 -1
    endloop
  endfacet
  facet normal 0 0 -1
    outer loop
      vertex 7.15778 12.6765 -1
      vertex 16.5 16.5 -1
      vertex 7.24207 12.5856 -1
    endloop
  endfacet
  facet normal 0 0 -1
    outer loop
      vertex 7.06024 12.7491 -1
      vertex 16.5 16.5 -1
      vertex 7.15778 12.6765 -1
    endloop
  endfacet
  facet normal 0 0 -1
    outer loop
      vertex 6.94902 12.8049 -1
      vertex 16.5 16.5 -1
      vertex 7.06024 12.7491 -1
    endloop
  endfacet
  facet normal 0 0 -1
    outer loop
      vertex 6.82961 12.8415 -1
      vertex 16.5 16.5 -1
      vertex 6.94902 12.8049 -1
    endloop
  endfacet
  facet normal 0 0 -1
    outer loop
      vertex 6.70427 12.8597 -1
      vertex 16.5 16.5 -1
      vertex 6.82961 12.8415 -1
    endloop
  endfacet
  facet normal 0 0 -1
    outer loop
      vertex 4.14304 12.8625 -1
      vertex 16.5 16.5 -1
      vertex 6.70427 12.8597 -1
    endloop
  endfacet
  facet normal 0 0 -1
    outer loop
      vertex 4.0511 12.8586 -1
      vertex 16.5 16.5 -1
      vertex 4.14304 12.8625 -1
    endloop
  endfacet
  facet normal 0 0 -1
    outer loop
      vertex -3.54179 12.8451 -1
      vertex 4.0511 12.8586 -1
      vertex 3.92926 12.8422 -1
    endloop
  endfacet
  facet normal 0 0 -1
    outer loop
      vertex -3.39287 12.8108 -1
      vertex 3.92926 12.8422 -1
      vertex 3.77934 12.8047 -1
    endloop
  endfacet
  facet normal 0 0 -1
    outer loop
      vertex -2.5033 12.0523 -1
      vertex 2.88661 12.0043 -1
      vertex 0.2173 5.33582 -1
    endloop
  endfacet
  facet normal 0 0 -1
    outer loop
      vertex -2.5033 12.0523 -1
      vertex 2.95987 12.1424 -1
      vertex 2.88661 12.0043 -1
    endloop
  endfacet
  facet normal 0 0 -1
    outer loop
      vertex -2.56587 12.1731 -1
      vertex 2.95987 12.1424 -1
      vertex -2.5033 12.0523 -1
    endloop
  endfacet
  facet normal 0 0 -1
    outer loop
      vertex 2.95987 12.1424 -1
      vertex -2.56587 12.1731 -1
      vertex 3.04651 12.2718 -1
    endloop
  endfacet
  facet normal 0 0 -1
    outer loop
      vertex -2.63904 12.2839 -1
      vertex 3.04651 12.2718 -1
      vertex -2.56587 12.1731 -1
    endloop
  endfacet
  facet normal 0 0 -1
    outer loop
      vertex 3.04651 12.2718 -1
      vertex -2.63904 12.2839 -1
      vertex 3.14522 12.3915 -1
    endloop
  endfacet
  facet normal 0 0 -1
    outer loop
      vertex -2.73959 12.4053 -1
      vertex 3.14522 12.3915 -1
      vertex -2.63904 12.2839 -1
    endloop
  endfacet
  facet normal 0 0 -1
    outer loop
      vertex 3.14522 12.3915 -1
      vertex -2.73959 12.4053 -1
      vertex 3.25464 12.5002 -1
    endloop
  endfacet
  facet normal 0 0 -1
    outer loop
      vertex -2.85338 12.5151 -1
      vertex 3.25464 12.5002 -1
      vertex -2.73959 12.4053 -1
    endloop
  endfacet
  facet normal 0 0 -1
    outer loop
      vertex 3.25464 12.5002 -1
      vertex -2.85338 12.5151 -1
      vertex 3.37343 12.5968 -1
    endloop
  endfacet
  facet normal 0 0 -1
    outer loop
      vertex -2.97536 12.6096 -1
      vertex 3.37343 12.5968 -1
      vertex -2.85338 12.5151 -1
    endloop
  endfacet
  facet normal 0 0 -1
    outer loop
      vertex 3.37343 12.5968 -1
      vertex -2.97536 12.6096 -1
      vertex 3.5002 12.6801 -1
    endloop
  endfacet
  facet normal 0 0 -1
    outer loop
      vertex -3.10928 12.6928 -1
      vertex 3.5002 12.6801 -1
      vertex -2.97536 12.6096 -1
    endloop
  endfacet
  facet normal 0 0 -1
    outer loop
      vertex 3.5002 12.6801 -1
      vertex -3.10928 12.6928 -1
      vertex 3.63705 12.7505 -1
    endloop
  endfacet
  facet normal 0 0 -1
    outer loop
      vertex -3.24692 12.759 -1
      vertex 3.63705 12.7505 -1
      vertex -3.10928 12.6928 -1
    endloop
  endfacet
  facet normal 0 0 -1
    outer loop
      vertex 3.63705 12.7505 -1
      vertex -3.24692 12.759 -1
      vertex 3.77934 12.8047 -1
    endloop
  endfacet
  facet normal 0 0 -1
    outer loop
      vertex -3.39287 12.8108 -1
      vertex 3.77934 12.8047 -1
      vertex -3.24692 12.759 -1
    endloop
  endfacet
  facet normal -0 0 -1
    outer loop
      vertex 3.92926 12.8422 -1
      vertex -3.39287 12.8108 -1
      vertex -3.54179 12.8451 -1
    endloop
  endfacet
  facet normal 0 0 -1
    outer loop
      vertex -3.67227 12.8601 -1
      vertex 4.0511 12.8586 -1
      vertex -3.54179 12.8451 -1
    endloop
  endfacet
  facet normal 0 0 -1
    outer loop
      vertex 4.0511 12.8586 -1
      vertex -3.67227 12.8601 -1
      vertex 16.5 16.5 -1
    endloop
  endfacet
  facet normal 0 0 -1
    outer loop
      vertex -16.5 16.5 -1
      vertex -3.67227 12.8601 -1
      vertex -6.26834 12.8616 -1
    endloop
  endfacet
  facet normal 0 0 -1
    outer loop
      vertex -16.5 16.5 -1
      vertex -6.26834 12.8616 -1
      vertex -6.3831 12.85 -1
    endloop
  endfacet
  facet normal 0 0 -1
    outer loop
      vertex -6.98431 12.0553 -1
      vertex -16.5 16.5 -1
      vertex -6.98726 12.138 -1
    endloop
  endfacet
  facet normal 0 0 -1
    outer loop
      vertex -6.98726 12.138 -1
      vertex -16.5 16.5 -1
      vertex -6.96896 12.3043 -1
    endloop
  endfacet
  facet normal 0 0 -1
    outer loop
      vertex -3.67227 12.8601 -1
      vertex -16.5 16.5 -1
      vertex 16.5 16.5 -1
    endloop
  endfacet
  facet normal 0 0 -1
    outer loop
      vertex -6.50087 12.8215 -1
      vertex -16.5 16.5 -1
      vertex -6.3831 12.85 -1
    endloop
  endfacet
  facet normal 0 0 -1
    outer loop
      vertex -6.61227 12.7751 -1
      vertex -16.5 16.5 -1
      vertex -6.50087 12.8215 -1
    endloop
  endfacet
  facet normal 0 0 -1
    outer loop
      vertex -6.71506 12.7101 -1
      vertex -16.5 16.5 -1
      vertex -6.61227 12.7751 -1
    endloop
  endfacet
  facet normal 0 0 -1
    outer loop
      vertex -6.80371 12.6289 -1
      vertex -16.5 16.5 -1
      vertex -6.71506 12.7101 -1
    endloop
  endfacet
  facet normal 0 0 -1
    outer loop
      vertex -6.87869 12.5299 -1
      vertex -16.5 16.5 -1
      vertex -6.80371 12.6289 -1
    endloop
  endfacet
  facet normal 0 0 -1
    outer loop
      vertex -6.93362 12.4207 -1
      vertex -16.5 16.5 -1
      vertex -6.87869 12.5299 -1
    endloop
  endfacet
  facet normal 0 0 -1
    outer loop
      vertex -6.96896 12.3043 -1
      vertex -16.5 16.5 -1
      vertex -6.93362 12.4207 -1
    endloop
  endfacet
  facet normal 0 0 -1
    outer loop
      vertex 7.36819 -12.4707 -1
      vertex 16.5 -16.5 -1
      vertex 7.38641 -12.5963 -1
    endloop
  endfacet
  facet normal 0 0 -1
    outer loop
      vertex 16.5 16.5 -1
      vertex 7.38264 12.0178 -1
      vertex 7.38934 12.138 -1
    endloop
  endfacet
  facet normal 0 0 -1
    outer loop
      vertex 7.3344 -12.3447 -1
      vertex 16.5 -16.5 -1
      vertex 7.36819 -12.4707 -1
    endloop
  endfacet
  facet normal 0 0 -1
    outer loop
      vertex 16.5 16.5 -1
      vertex 7.36079 11.8966 -1
      vertex 7.38264 12.0178 -1
    endloop
  endfacet
  facet normal 0 0 -1
    outer loop
      vertex 2.48633 -0.307159 -1
      vertex 16.5 -16.5 -1
      vertex 7.3344 -12.3447 -1
    endloop
  endfacet
  facet normal 0 0 -1
    outer loop
      vertex 16.5 16.5 -1
      vertex 7.32472 11.7752 -1
      vertex 7.36079 11.8966 -1
    endloop
  endfacet
  facet normal 0 0 -1
    outer loop
      vertex 16.5 -16.5 -1
      vertex 2.48633 -0.307159 -1
      vertex 7.32472 11.7752 -1
    endloop
  endfacet
  facet normal 0 0 -1
    outer loop
      vertex -6.88658 -12.3162 -1
      vertex -6.9323 11.8037 -1
      vertex -2.04739 -0.307571 -1
    endloop
  endfacet
  facet normal 0 0 -1
    outer loop
      vertex -6.92241 -12.4376 -1
      vertex -6.9323 11.8037 -1
      vertex -6.88658 -12.3162 -1
    endloop
  endfacet
  facet normal 0 0 -1
    outer loop
      vertex -6.96609 11.9297 -1
      vertex -6.92241 -12.4376 -1
      vertex -6.94392 -12.5588 -1
    endloop
  endfacet
  facet normal 0 0 -1
    outer loop
      vertex -16.5 -16.5 -1
      vertex -6.94392 -12.5588 -1
      vertex -6.95021 -12.6827 -1
    endloop
  endfacet
  facet normal 0 0 -1
    outer loop
      vertex -6.92241 -12.4376 -1
      vertex -6.96609 11.9297 -1
      vertex -6.9323 11.8037 -1
    endloop
  endfacet
  facet normal 0.13318 -0.991092 0
    outer loop
      vertex 3.92926 12.8422 -1
      vertex 4.0511 12.8586 -1.57472e-15
      vertex 3.92926 12.8422 -1.57272e-15
    endloop
  endfacet
  facet normal 0.13318 -0.991092 0
    outer loop
      vertex 4.0511 12.8586 -1.57472e-15
      vertex 3.92926 12.8422 -1
      vertex 4.0511 12.8586 -1
    endloop
  endfacet
  facet normal 0.242512 -0.970148 0
    outer loop
      vertex 3.77934 12.8047 -1
      vertex 3.92926 12.8422 -1.57272e-15
      vertex 3.77934 12.8047 -1.56813e-15
    endloop
  endfacet
  facet normal 0.242512 -0.970148 0
    outer loop
      vertex 3.92926 12.8422 -1.57272e-15
      vertex 3.77934 12.8047 -1
      vertex 3.92926 12.8422 -1
    endloop
  endfacet
  facet normal 0.35605 -0.934467 0
    outer loop
      vertex 3.63705 12.7505 -1
      vertex 3.77934 12.8047 -1.56813e-15
      vertex 3.63705 12.7505 -1.56149e-15
    endloop
  endfacet
  facet normal 0.35605 -0.934467 0
    outer loop
      vertex 3.77934 12.8047 -1.56813e-15
      vertex 3.63705 12.7505 -1
      vertex 3.77934 12.8047 -1
    endloop
  endfacet
  facet normal 0.457456 -0.889232 0
    outer loop
      vertex 3.5002 12.6801 -1
      vertex 3.63705 12.7505 -1.56149e-15
      vertex 3.5002 12.6801 -1.55287e-15
    endloop
  endfacet
  facet normal 0.457456 -0.889232 0
    outer loop
      vertex 3.63705 12.7505 -1.56149e-15
      vertex 3.5002 12.6801 -1
      vertex 3.63705 12.7505 -1
    endloop
  endfacet
  facet normal 0.54935 -0.835592 0
    outer loop
      vertex 3.37343 12.5968 -1
      vertex 3.5002 12.6801 -1.55287e-15
      vertex 3.37343 12.5968 -1.54266e-15
    endloop
  endfacet
  facet normal 0.54935 -0.835592 0
    outer loop
      vertex 3.5002 12.6801 -1.55287e-15
      vertex 3.37343 12.5968 -1
      vertex 3.5002 12.6801 -1
    endloop
  endfacet
  facet normal 0.630874 -0.775885 0
    outer loop
      vertex 3.25464 12.5002 -1
      vertex 3.37343 12.5968 -1.54266e-15
      vertex 3.25464 12.5002 -1.53083e-15
    endloop
  endfacet
  facet normal 0.630874 -0.775885 0
    outer loop
      vertex 3.37343 12.5968 -1.54266e-15
      vertex 3.25464 12.5002 -1
      vertex 3.37343 12.5968 -1
    endloop
  endfacet
  facet normal 0.704778 -0.709428 0
    outer loop
      vertex 3.14522 12.3915 -1
      vertex 3.25464 12.5002 -1.53083e-15
      vertex 3.14522 12.3915 -1.51752e-15
    endloop
  endfacet
  facet normal 0.704778 -0.709428 0
    outer loop
      vertex 3.25464 12.5002 -1.53083e-15
      vertex 3.14522 12.3915 -1
      vertex 3.25464 12.5002 -1
    endloop
  endfacet
  facet normal 0.771405 -0.636345 0
    outer loop
      vertex 3.04651 12.2718 -1.50287e-15
      vertex 3.14522 12.3915 -1
      vertex 3.14522 12.3915 -1.51752e-15
    endloop
  endfacet
  facet normal 0.771405 -0.636345 0
    outer loop
      vertex 3.14522 12.3915 -1
      vertex 3.04651 12.2718 -1.50287e-15
      vertex 3.04651 12.2718 -1
    endloop
  endfacet
  facet normal 0.831024 -0.556237 0
    outer loop
      vertex 2.95987 12.1424 -1.48701e-15
      vertex 3.04651 12.2718 -1
      vertex 3.04651 12.2718 -1.50287e-15
    endloop
  endfacet
  facet normal 0.831024 -0.556237 0
    outer loop
      vertex 3.04651 12.2718 -1
      vertex 2.95987 12.1424 -1.48701e-15
      vertex 2.95987 12.1424 -1
    endloop
  endfacet
  facet normal 0.883327 -0.468758 0
    outer loop
      vertex 2.88661 12.0043 -1.47011e-15
      vertex 2.95987 12.1424 -1
      vertex 2.95987 12.1424 -1.48701e-15
    endloop
  endfacet
  facet normal 0.883327 -0.468758 0
    outer loop
      vertex 2.95987 12.1424 -1
      vertex 2.88661 12.0043 -1.47011e-15
      vertex 2.88661 12.0043 -1
    endloop
  endfacet
  facet normal 0.928386 -0.371618 0
    outer loop
      vertex 0.2173 5.33582 -6.53449e-16
      vertex 2.88661 12.0043 -1
      vertex 2.88661 12.0043 -1.47011e-15
    endloop
  endfacet
  facet normal 0.928386 -0.371618 0
    outer loop
      vertex 2.88661 12.0043 -1
      vertex 0.2173 5.33582 -6.53449e-16
      vertex 0.2173 5.33582 -1
    endloop
  endfacet
  facet normal -0.92685 -0.375432 0
    outer loop
      vertex 0.2173 5.33582 -1
      vertex -2.5033 12.0523 -1.47598e-15
      vertex -2.5033 12.0523 -1
    endloop
  endfacet
  facet normal -0.92685 -0.375432 0
    outer loop
      vertex -2.5033 12.0523 -1.47598e-15
      vertex 0.2173 5.33582 -1
      vertex 0.2173 5.33582 -6.53449e-16
    endloop
  endfacet
  facet normal -0.88799 -0.459862 0
    outer loop
      vertex -2.5033 12.0523 -1
      vertex -2.56587 12.1731 -1.49078e-15
      vertex -2.56587 12.1731 -1
    endloop
  endfacet
  facet normal -0.88799 -0.459862 0
    outer loop
      vertex -2.56587 12.1731 -1.49078e-15
      vertex -2.5033 12.0523 -1
      vertex -2.5033 12.0523 -1.47598e-15
    endloop
  endfacet
  facet normal -0.834395 -0.551167 0
    outer loop
      vertex -2.56587 12.1731 -1
      vertex -2.63904 12.2839 -1.50434e-15
      vertex -2.63904 12.2839 -1
    endloop
  endfacet
  facet normal -0.834395 -0.551167 0
    outer loop
      vertex -2.63904 12.2839 -1.50434e-15
      vertex -2.56587 12.1731 -1
      vertex -2.56587 12.1731 -1.49078e-15
    endloop
  endfacet
  facet normal -0.770083 -0.637944 0
    outer loop
      vertex -2.63904 12.2839 -1
      vertex -2.73959 12.4053 -1.51921e-15
      vertex -2.73959 12.4053 -1
    endloop
  endfacet
  facet normal -0.770083 -0.637944 0
    outer loop
      vertex -2.73959 12.4053 -1.51921e-15
      vertex -2.63904 12.2839 -1
      vertex -2.63904 12.2839 -1.50434e-15
    endloop
  endfacet
  facet normal -0.694302 -0.719684 0
    outer loop
      vertex -2.85338 12.5151 -1
      vertex -2.73959 12.4053 -1.51921e-15
      vertex -2.85338 12.5151 -1.53265e-15
    endloop
  endfacet
  facet normal -0.694302 -0.719684 -0
    outer loop
      vertex -2.73959 12.4053 -1.51921e-15
      vertex -2.85338 12.5151 -1
      vertex -2.73959 12.4053 -1
    endloop
  endfacet
  facet normal -0.612797 -0.79024 0
    outer loop
      vertex -2.97536 12.6096 -1
      vertex -2.85338 12.5151 -1.53265e-15
      vertex -2.97536 12.6096 -1.54424e-15
    endloop
  endfacet
  facet normal -0.612797 -0.79024 -0
    outer loop
      vertex -2.85338 12.5151 -1.53265e-15
      vertex -2.97536 12.6096 -1
      vertex -2.85338 12.5151 -1
    endloop
  endfacet
  facet normal -0.527307 -0.849675 0
    outer loop
      vertex -3.10928 12.6928 -1
      vertex -2.97536 12.6096 -1.54424e-15
      vertex -3.10928 12.6928 -1.55442e-15
    endloop
  endfacet
  facet normal -0.527307 -0.849675 -0
    outer loop
      vertex -2.97536 12.6096 -1.54424e-15
      vertex -3.10928 12.6928 -1
      vertex -2.97536 12.6096 -1
    endloop
  endfacet
  facet normal -0.433656 -0.901078 0
    outer loop
      vertex -3.24692 12.759 -1
      vertex -3.10928 12.6928 -1.55442e-15
      vertex -3.24692 12.759 -1.56253e-15
    endloop
  endfacet
  facet normal -0.433656 -0.901078 -0
    outer loop
      vertex -3.10928 12.6928 -1.55442e-15
      vertex -3.24692 12.759 -1
      vertex -3.10928 12.6928 -1
    endloop
  endfacet
  facet normal -0.334407 -0.942429 0
    outer loop
      vertex -3.39287 12.8108 -1
      vertex -3.24692 12.759 -1.56253e-15
      vertex -3.39287 12.8108 -1.56887e-15
    endloop
  endfacet
  facet normal -0.334407 -0.942429 -0
    outer loop
      vertex -3.24692 12.759 -1.56253e-15
      vertex -3.39287 12.8108 -1
      vertex -3.24692 12.759 -1
    endloop
  endfacet
  facet normal -0.224261 -0.974529 0
    outer loop
      vertex -3.54179 12.8451 -1
      vertex -3.39287 12.8108 -1.56887e-15
      vertex -3.54179 12.8451 -1.57307e-15
    endloop
  endfacet
  facet normal -0.224261 -0.974529 -0
    outer loop
      vertex -3.39287 12.8108 -1.56887e-15
      vertex -3.54179 12.8451 -1
      vertex -3.39287 12.8108 -1
    endloop
  endfacet
  facet normal -0.114434 -0.993431 0
    outer loop
      vertex -3.67227 12.8601 -1
      vertex -3.54179 12.8451 -1.57307e-15
      vertex -3.67227 12.8601 -1.57491e-15
    endloop
  endfacet
  facet normal -0.114434 -0.993431 -0
    outer loop
      vertex -3.54179 12.8451 -1.57307e-15
      vertex -3.67227 12.8601 -1
      vertex -3.54179 12.8451 -1
    endloop
  endfacet
  facet normal -0.000581887 -1 0
    outer loop
      vertex -6.26834 12.8616 -1
      vertex -3.67227 12.8601 -1.57491e-15
      vertex -6.26834 12.8616 -1.57509e-15
    endloop
  endfacet
  facet normal -0.000581887 -1 -0
    outer loop
      vertex -3.67227 12.8601 -1.57491e-15
      vertex -6.26834 12.8616 -1
      vertex -3.67227 12.8601 -1
    endloop
  endfacet
  facet normal 0.1008 -0.994907 0
    outer loop
      vertex -6.3831 12.85 -1
      vertex -6.26834 12.8616 -1.57509e-15
      vertex -6.3831 12.85 -1.57367e-15
    endloop
  endfacet
  facet normal 0.1008 -0.994907 0
    outer loop
      vertex -6.26834 12.8616 -1.57509e-15
      vertex -6.3831 12.85 -1
      vertex -6.26834 12.8616 -1
    endloop
  endfacet
  facet normal 0.23524 -0.971937 0
    outer loop
      vertex -6.50087 12.8215 -1
      vertex -6.3831 12.85 -1.57367e-15
      vertex -6.50087 12.8215 -1.57018e-15
    endloop
  endfacet
  facet normal 0.23524 -0.971937 0
    outer loop
      vertex -6.3831 12.85 -1.57367e-15
      vertex -6.50087 12.8215 -1
      vertex -6.3831 12.85 -1
    endloop
  endfacet
  facet normal 0.384175 -0.92326 0
    outer loop
      vertex -6.61227 12.7751 -1
      vertex -6.50087 12.8215 -1.57018e-15
      vertex -6.61227 12.7751 -1.5645e-15
    endloop
  endfacet
  facet normal 0.384175 -0.92326 0
    outer loop
      vertex -6.50087 12.8215 -1.57018e-15
      vertex -6.61227 12.7751 -1
      vertex -6.50087 12.8215 -1
    endloop
  endfacet
  facet normal 0.534323 -0.84528 0
    outer loop
      vertex -6.71506 12.7101 -1
      vertex -6.61227 12.7751 -1.5645e-15
      vertex -6.71506 12.7101 -1.55654e-15
    endloop
  endfacet
  facet normal 0.534323 -0.84528 0
    outer loop
      vertex -6.61227 12.7751 -1.5645e-15
      vertex -6.71506 12.7101 -1
      vertex -6.61227 12.7751 -1
    endloop
  endfacet
  facet normal 0.675598 -0.73727 0
    outer loop
      vertex -6.80371 12.6289 -1
      vertex -6.71506 12.7101 -1.55654e-15
      vertex -6.80371 12.6289 -1.54659e-15
    endloop
  endfacet
  facet normal 0.675598 -0.73727 0
    outer loop
      vertex -6.71506 12.7101 -1.55654e-15
      vertex -6.80371 12.6289 -1
      vertex -6.71506 12.7101 -1
    endloop
  endfacet
  facet normal 0.797295 -0.60359 0
    outer loop
      vertex -6.87869 12.5299 -1.53447e-15
      vertex -6.80371 12.6289 -1
      vertex -6.80371 12.6289 -1.54659e-15
    endloop
  endfacet
  facet normal 0.797295 -0.60359 0
    outer loop
      vertex -6.80371 12.6289 -1
      vertex -6.87869 12.5299 -1.53447e-15
      vertex -6.87869 12.5299 -1
    endloop
  endfacet
  facet normal 0.893326 -0.449409 0
    outer loop
      vertex -6.93362 12.4207 -1.52109e-15
      vertex -6.87869 12.5299 -1
      vertex -6.87869 12.5299 -1.53447e-15
    endloop
  endfacet
  facet normal 0.893326 -0.449409 0
    outer loop
      vertex -6.87869 12.5299 -1
      vertex -6.93362 12.4207 -1.52109e-15
      vertex -6.93362 12.4207 -1
    endloop
  endfacet
  facet normal 0.956858 -0.290557 0
    outer loop
      vertex -6.96896 12.3043 -1.50684e-15
      vertex -6.93362 12.4207 -1
      vertex -6.93362 12.4207 -1.52109e-15
    endloop
  endfacet
  facet normal 0.956858 -0.290557 0
    outer loop
      vertex -6.93362 12.4207 -1
      vertex -6.96896 12.3043 -1.50684e-15
      vertex -6.96896 12.3043 -1
    endloop
  endfacet
  facet normal 0.994005 -0.109331 0
    outer loop
      vertex -6.98726 12.138 -1.48647e-15
      vertex -6.96896 12.3043 -1
      vertex -6.96896 12.3043 -1.50684e-15
    endloop
  endfacet
  facet normal 0.994005 -0.109331 0
    outer loop
      vertex -6.96896 12.3043 -1
      vertex -6.98726 12.138 -1.48647e-15
      vertex -6.98726 12.138 -1
    endloop
  endfacet
  facet normal 0.999367 0.0355863 0
    outer loop
      vertex -6.98431 12.0553 -1.47634e-15
      vertex -6.98726 12.138 -1
      vertex -6.98726 12.138 -1.48647e-15
    endloop
  endfacet
  facet normal 0.999367 0.0355863 0
    outer loop
      vertex -6.98726 12.138 -1
      vertex -6.98431 12.0553 -1.47634e-15
      vertex -6.98431 12.0553 -1
    endloop
  endfacet
  facet normal 0.989634 0.14361 0
    outer loop
      vertex -6.96609 11.9297 -1.46097e-15
      vertex -6.98431 12.0553 -1
      vertex -6.98431 12.0553 -1.47634e-15
    endloop
  endfacet
  facet normal 0.989634 0.14361 0
    outer loop
      vertex -6.98431 12.0553 -1
      vertex -6.96609 11.9297 -1.46097e-15
      vertex -6.96609 11.9297 -1
    endloop
  endfacet
  facet normal 0.965844 0.259126 0
    outer loop
      vertex -6.9323 11.8037 -1.44554e-15
      vertex -6.96609 11.9297 -1
      vertex -6.96609 11.9297 -1.46097e-15
    endloop
  endfacet
  facet normal 0.965844 0.259126 0
    outer loop
      vertex -6.96609 11.9297 -1
      vertex -6.9323 11.8037 -1.44554e-15
      vertex -6.9323 11.8037 -1
    endloop
  endfacet
  facet normal 0.927407 0.374055 0
    outer loop
      vertex -2.04739 -0.307571 3.76666e-17
      vertex -6.9323 11.8037 -1
      vertex -6.9323 11.8037 -1.44554e-15
    endloop
  endfacet
  facet normal 0.927407 0.374055 0
    outer loop
      vertex -6.9323 11.8037 -1
      vertex -2.04739 -0.307571 3.76666e-17
      vertex -2.04739 -0.307571 -1
    endloop
  endfacet
  facet normal 0.927522 -0.37377 0
    outer loop
      vertex -6.88658 -12.3162 1.5083e-15
      vertex -2.04739 -0.307571 -1
      vertex -2.04739 -0.307571 3.76666e-17
    endloop
  endfacet
  facet normal 0.927522 -0.37377 0
    outer loop
      vertex -2.04739 -0.307571 -1
      vertex -6.88658 -12.3162 1.5083e-15
      vertex -6.88658 -12.3162 -1
    endloop
  endfacet
  facet normal 0.959123 -0.282988 0
    outer loop
      vertex -6.92241 -12.4376 1.52317e-15
      vertex -6.88658 -12.3162 -1
      vertex -6.88658 -12.3162 1.5083e-15
    endloop
  endfacet
  facet normal 0.959123 -0.282988 0
    outer loop
      vertex -6.88658 -12.3162 -1
      vertex -6.92241 -12.4376 1.52317e-15
      vertex -6.92241 -12.4376 -1
    endloop
  endfacet
  facet normal 0.9846 -0.174825 0
    outer loop
      vertex -6.94392 -12.5588 1.53801e-15
      vertex -6.92241 -12.4376 -1
      vertex -6.92241 -12.4376 1.52317e-15
    endloop
  endfacet
  facet normal 0.9846 -0.174825 0
    outer loop
      vertex -6.92241 -12.4376 -1
      vertex -6.94392 -12.5588 1.53801e-15
      vertex -6.94392 -12.5588 -1
    endloop
  endfacet
  facet normal 0.998716 -0.0506551 0
    outer loop
      vertex -6.95021 -12.6827 1.55319e-15
      vertex -6.94392 -12.5588 -1
      vertex -6.94392 -12.5588 1.53801e-15
    endloop
  endfacet
  facet normal 0.998716 -0.0506551 0
    outer loop
      vertex -6.94392 -12.5588 -1
      vertex -6.95021 -12.6827 1.55319e-15
      vertex -6.95021 -12.6827 -1
    endloop
  endfacet
  facet normal 0.995835 0.0911734 0
    outer loop
      vertex -6.93939 -12.8009 1.56766e-15
      vertex -6.95021 -12.6827 -1
      vertex -6.95021 -12.6827 1.55319e-15
    endloop
  endfacet
  facet normal 0.995835 0.0911734 0
    outer loop
      vertex -6.95021 -12.6827 -1
      vertex -6.93939 -12.8009 1.56766e-15
      vertex -6.93939 -12.8009 -1
    endloop
  endfacet
  facet normal 0.970267 0.242035 0
    outer loop
      vertex -6.90987 -12.9193 1.58215e-15
      vertex -6.93939 -12.8009 -1
      vertex -6.93939 -12.8009 1.56766e-15
    endloop
  endfacet
  facet normal 0.970267 0.242035 0
    outer loop
      vertex -6.93939 -12.8009 -1
      vertex -6.90987 -12.9193 1.58215e-15
      vertex -6.90987 -12.9193 -1
    endloop
  endfacet
  facet normal 0.921384 0.388652 0
    outer loop
      vertex -6.86891 -13.0163 1.59404e-15
      vertex -6.90987 -12.9193 -1
      vertex -6.90987 -12.9193 1.58215e-15
    endloop
  endfacet
  facet normal 0.921384 0.388652 0
    outer loop
      vertex -6.90987 -12.9193 -1
      vertex -6.86891 -13.0163 1.59404e-15
      vertex -6.86891 -13.0163 -1
    endloop
  endfacet
  facet normal 0.852538 0.522665 0
    outer loop
      vertex -6.81824 -13.099 1.60416e-15
      vertex -6.86891 -13.0163 -1
      vertex -6.86891 -13.0163 1.59404e-15
    endloop
  endfacet
  facet normal 0.852538 0.522665 0
    outer loop
      vertex -6.86891 -13.0163 -1
      vertex -6.81824 -13.099 1.60416e-15
      vertex -6.81824 -13.099 -1
    endloop
  endfacet
  facet normal 0.767886 0.640587 0
    outer loop
      vertex -6.75374 -13.1763 1.61363e-15
      vertex -6.81824 -13.099 -1
      vertex -6.81824 -13.099 1.60416e-15
    endloop
  endfacet
  facet normal 0.767886 0.640587 0
    outer loop
      vertex -6.81824 -13.099 -1
      vertex -6.75374 -13.1763 1.61363e-15
      vertex -6.75374 -13.1763 -1
    endloop
  endfacet
  facet normal 0.663944 0.747782 -0
    outer loop
      vertex -6.6778 -13.2437 -1
      vertex -6.75374 -13.1763 1.61363e-15
      vertex -6.6778 -13.2437 1.62189e-15
    endloop
  endfacet
  facet normal 0.663944 0.747782 0
    outer loop
      vertex -6.75374 -13.1763 1.61363e-15
      vertex -6.6778 -13.2437 -1
      vertex -6.75374 -13.1763 -1
    endloop
  endfacet
  facet normal 0.54864 0.836059 -0
    outer loop
      vertex -6.59453 -13.2984 -1
      vertex -6.6778 -13.2437 1.62189e-15
      vertex -6.59453 -13.2984 1.62858e-15
    endloop
  endfacet
  facet normal 0.54864 0.836059 0
    outer loop
      vertex -6.6778 -13.2437 1.62189e-15
      vertex -6.59453 -13.2984 -1
      vertex -6.6778 -13.2437 -1
    endloop
  endfacet
  facet normal 0.415617 0.90954 -0
    outer loop
      vertex -6.48393 -13.3489 -1
      vertex -6.59453 -13.2984 1.62858e-15
      vertex -6.48393 -13.3489 1.63477e-15
    endloop
  endfacet
  facet normal 0.415617 0.90954 0
    outer loop
      vertex -6.59453 -13.2984 1.62858e-15
      vertex -6.48393 -13.3489 -1
      vertex -6.59453 -13.2984 -1
    endloop
  endfacet
  facet normal 0.27174 0.962371 -0
    outer loop
      vertex -6.36159 -13.3835 -1
      vertex -6.48393 -13.3489 1.63477e-15
      vertex -6.36159 -13.3835 1.639e-15
    endloop
  endfacet
  facet normal 0.27174 0.962371 0
    outer loop
      vertex -6.48393 -13.3489 1.63477e-15
      vertex -6.36159 -13.3835 -1
      vertex -6.48393 -13.3489 -1
    endloop
  endfacet
  facet normal 0.132279 0.991213 -0
    outer loop
      vertex -6.2325 -13.4007 -1
      vertex -6.36159 -13.3835 1.639e-15
      vertex -6.2325 -13.4007 1.64111e-15
    endloop
  endfacet
  facet normal 0.132279 0.991213 0
    outer loop
      vertex -6.36159 -13.3835 1.639e-15
      vertex -6.2325 -13.4007 -1
      vertex -6.36159 -13.3835 -1
    endloop
  endfacet
  facet normal 0.0010983 0.999999 -0
    outer loop
      vertex -3.70395 -13.4035 -1
      vertex -6.2325 -13.4007 1.64111e-15
      vertex -3.70395 -13.4035 1.64145e-15
    endloop
  endfacet
  facet normal 0.0010983 0.999999 0
    outer loop
      vertex -6.2325 -13.4007 1.64111e-15
      vertex -3.70395 -13.4035 -1
      vertex -6.2325 -13.4007 -1
    endloop
  endfacet
  facet normal -0.0421902 0.99911 0
    outer loop
      vertex -3.61217 -13.3996 -1
      vertex -3.70395 -13.4035 1.64145e-15
      vertex -3.61217 -13.3996 1.64098e-15
    endloop
  endfacet
  facet normal -0.0421902 0.99911 0
    outer loop
      vertex -3.70395 -13.4035 1.64145e-15
      vertex -3.61217 -13.3996 -1
      vertex -3.70395 -13.4035 -1
    endloop
  endfacet
  facet normal -0.133344 0.99107 0
    outer loop
      vertex -3.49048 -13.3832 -1
      vertex -3.61217 -13.3996 1.64098e-15
      vertex -3.49048 -13.3832 1.63897e-15
    endloop
  endfacet
  facet normal -0.133344 0.99107 0
    outer loop
      vertex -3.61217 -13.3996 1.64098e-15
      vertex -3.49048 -13.3832 -1
      vertex -3.61217 -13.3996 -1
    endloop
  endfacet
  facet normal -0.242675 0.970108 0
    outer loop
      vertex -3.34067 -13.3457 -1
      vertex -3.49048 -13.3832 1.63897e-15
      vertex -3.34067 -13.3457 1.63438e-15
    endloop
  endfacet
  facet normal -0.242675 0.970108 0
    outer loop
      vertex -3.49048 -13.3832 1.63897e-15
      vertex -3.34067 -13.3457 -1
      vertex -3.49048 -13.3832 -1
    endloop
  endfacet
  facet normal -0.356116 0.934442 0
    outer loop
      vertex -3.19841 -13.2915 -1
      vertex -3.34067 -13.3457 1.63438e-15
      vertex -3.19841 -13.2915 1.62774e-15
    endloop
  endfacet
  facet normal -0.356116 0.934442 0
    outer loop
      vertex -3.34067 -13.3457 1.63438e-15
      vertex -3.19841 -13.2915 -1
      vertex -3.34067 -13.3457 -1
    endloop
  endfacet
  facet normal -0.457375 0.889274 0
    outer loop
      vertex -3.06152 -13.2211 -1
      vertex -3.19841 -13.2915 1.62774e-15
      vertex -3.06152 -13.2211 1.61912e-15
    endloop
  endfacet
  facet normal -0.457375 0.889274 0
    outer loop
      vertex -3.19841 -13.2915 1.62774e-15
      vertex -3.06152 -13.2211 -1
      vertex -3.19841 -13.2915 -1
    endloop
  endfacet
  facet normal -0.549166 0.835713 0
    outer loop
      vertex -2.93469 -13.1378 -1
      vertex -3.06152 -13.2211 1.61912e-15
      vertex -2.93469 -13.1378 1.60891e-15
    endloop
  endfacet
  facet normal -0.549166 0.835713 0
    outer loop
      vertex -3.06152 -13.2211 1.61912e-15
      vertex -2.93469 -13.1378 -1
      vertex -3.06152 -13.2211 -1
    endloop
  endfacet
  facet normal -0.630581 0.776123 0
    outer loop
      vertex -2.81581 -13.0412 -1
      vertex -2.93469 -13.1378 1.60891e-15
      vertex -2.81581 -13.0412 1.59709e-15
    endloop
  endfacet
  facet normal -0.630581 0.776123 0
    outer loop
      vertex -2.93469 -13.1378 1.60891e-15
      vertex -2.81581 -13.0412 -1
      vertex -2.93469 -13.1378 -1
    endloop
  endfacet
  facet normal -0.704481 0.709722 0
    outer loop
      vertex -2.7063 -12.9325 -1
      vertex -2.81581 -13.0412 1.59709e-15
      vertex -2.7063 -12.9325 1.58377e-15
    endloop
  endfacet
  facet normal -0.704481 0.709722 0
    outer loop
      vertex -2.81581 -13.0412 1.59709e-15
      vertex -2.7063 -12.9325 -1
      vertex -2.81581 -13.0412 -1
    endloop
  endfacet
  facet normal -0.771115 0.636696 0
    outer loop
      vertex -2.7063 -12.9325 -1
      vertex -2.6075 -12.8128 1.56912e-15
      vertex -2.6075 -12.8128 -1
    endloop
  endfacet
  facet normal -0.771115 0.636696 0
    outer loop
      vertex -2.6075 -12.8128 1.56912e-15
      vertex -2.7063 -12.9325 -1
      vertex -2.7063 -12.9325 1.58377e-15
    endloop
  endfacet
  facet normal -0.830843 0.556507 0
    outer loop
      vertex -2.6075 -12.8128 -1
      vertex -2.5208 -12.6834 1.55327e-15
      vertex -2.5208 -12.6834 -1
    endloop
  endfacet
  facet normal -0.830843 0.556507 0
    outer loop
      vertex -2.5208 -12.6834 1.55327e-15
      vertex -2.6075 -12.8128 -1
      vertex -2.6075 -12.8128 1.56912e-15
    endloop
  endfacet
  facet normal -0.883246 0.46891 0
    outer loop
      vertex -2.5208 -12.6834 -1
      vertex -2.44751 -12.5453 1.53636e-15
      vertex -2.44751 -12.5453 -1
    endloop
  endfacet
  facet normal -0.883246 0.46891 0
    outer loop
      vertex -2.44751 -12.5453 1.53636e-15
      vertex -2.5208 -12.6834 -1
      vertex -2.5208 -12.6834 1.55327e-15
    endloop
  endfacet
  facet normal -0.927782 0.373122 0
    outer loop
      vertex -2.44751 -12.5453 -1
      vertex 0.219086 -5.91475 7.24348e-16
      vertex 0.219086 -5.91475 -1
    endloop
  endfacet
  facet normal -0.927782 0.373122 0
    outer loop
      vertex 0.219086 -5.91475 7.24348e-16
      vertex -2.44751 -12.5453 -1
      vertex -2.44751 -12.5453 1.53636e-15
    endloop
  endfacet
  facet normal 0.927808 0.373057 0
    outer loop
      vertex 2.87411 -12.5179 1.533e-15
      vertex 0.219086 -5.91475 -1
      vertex 0.219086 -5.91475 7.24348e-16
    endloop
  endfacet
  facet normal 0.927808 0.373057 0
    outer loop
      vertex 0.219086 -5.91475 -1
      vertex 2.87411 -12.5179 1.533e-15
      vertex 2.87411 -12.5179 -1
    endloop
  endfacet
  facet normal 0.907813 0.419376 0
    outer loop
      vertex 2.89969 -12.5733 1.53978e-15
      vertex 2.87411 -12.5179 -1
      vertex 2.87411 -12.5179 1.533e-15
    endloop
  endfacet
  facet normal 0.907813 0.419376 0
    outer loop
      vertex 2.87411 -12.5179 -1
      vertex 2.89969 -12.5733 1.53978e-15
      vertex 2.89969 -12.5733 -1
    endloop
  endfacet
  facet normal 0.873973 0.485974 0
    outer loop
      vertex 2.97189 -12.7031 1.55568e-15
      vertex 2.89969 -12.5733 -1
      vertex 2.89969 -12.5733 1.53978e-15
    endloop
  endfacet
  facet normal 0.873973 0.485974 0
    outer loop
      vertex 2.89969 -12.5733 -1
      vertex 2.97189 -12.7031 1.55568e-15
      vertex 2.97189 -12.7031 -1
    endloop
  endfacet
  facet normal 0.8227 0.568475 0
    outer loop
      vertex 3.06033 -12.8311 1.57136e-15
      vertex 2.97189 -12.7031 -1
      vertex 2.97189 -12.7031 1.55568e-15
    endloop
  endfacet
  facet normal 0.8227 0.568475 0
    outer loop
      vertex 2.97189 -12.7031 -1
      vertex 3.06033 -12.8311 1.57136e-15
      vertex 3.06033 -12.8311 -1
    endloop
  endfacet
  facet normal 0.76226 0.647271 0
    outer loop
      vertex 3.16057 -12.9492 1.58581e-15
      vertex 3.06033 -12.8311 -1
      vertex 3.06033 -12.8311 1.57136e-15
    endloop
  endfacet
  facet normal 0.76226 0.647271 0
    outer loop
      vertex 3.06033 -12.8311 -1
      vertex 3.16057 -12.9492 1.58581e-15
      vertex 3.16057 -12.9492 -1
    endloop
  endfacet
  facet normal 0.694655 0.719343 -0
    outer loop
      vertex 3.27127 -13.0561 -1
      vertex 3.16057 -12.9492 1.58581e-15
      vertex 3.27127 -13.0561 1.59891e-15
    endloop
  endfacet
  facet normal 0.694655 0.719343 0
    outer loop
      vertex 3.16057 -12.9492 1.58581e-15
      vertex 3.27127 -13.0561 -1
      vertex 3.16057 -12.9492 -1
    endloop
  endfacet
  facet normal 0.619784 0.784773 -0
    outer loop
      vertex 3.38812 -13.1483 -1
      vertex 3.27127 -13.0561 1.59891e-15
      vertex 3.38812 -13.1483 1.61021e-15
    endloop
  endfacet
  facet normal 0.619784 0.784773 0
    outer loop
      vertex 3.27127 -13.0561 1.59891e-15
      vertex 3.38812 -13.1483 -1
      vertex 3.27127 -13.0561 -1
    endloop
  endfacet
  facet normal 0.538601 0.842561 -0
    outer loop
      vertex 3.51869 -13.2318 -1
      vertex 3.38812 -13.1483 1.61021e-15
      vertex 3.51869 -13.2318 1.62043e-15
    endloop
  endfacet
  facet normal 0.538601 0.842561 0
    outer loop
      vertex 3.38812 -13.1483 1.61021e-15
      vertex 3.51869 -13.2318 -1
      vertex 3.38812 -13.1483 -1
    endloop
  endfacet
  facet normal 0.445009 0.895526 -0
    outer loop
      vertex 3.65266 -13.2984 -1
      vertex 3.51869 -13.2318 1.62043e-15
      vertex 3.65266 -13.2984 1.62858e-15
    endloop
  endfacet
  facet normal 0.445009 0.895526 0
    outer loop
      vertex 3.51869 -13.2318 1.62043e-15
      vertex 3.65266 -13.2984 -1
      vertex 3.51869 -13.2318 -1
    endloop
  endfacet
  facet normal 0.343817 0.939037 -0
    outer loop
      vertex 3.79515 -13.3506 -1
      vertex 3.65266 -13.2984 1.62858e-15
      vertex 3.79515 -13.3506 1.63497e-15
    endloop
  endfacet
  facet normal 0.343817 0.939037 0
    outer loop
      vertex 3.65266 -13.2984 1.62858e-15
      vertex 3.79515 -13.3506 -1
      vertex 3.65266 -13.2984 -1
    endloop
  endfacet
  facet normal 0.230402 0.973095 -0
    outer loop
      vertex 3.94511 -13.3861 -1
      vertex 3.79515 -13.3506 1.63497e-15
      vertex 3.94511 -13.3861 1.63932e-15
    endloop
  endfacet
  facet normal 0.230402 0.973095 0
    outer loop
      vertex 3.79515 -13.3506 1.63497e-15
      vertex 3.94511 -13.3861 -1
      vertex 3.79515 -13.3506 -1
    endloop
  endfacet
  facet normal 0.11542 0.993317 -0
    outer loop
      vertex 4.07446 -13.4011 -1
      vertex 3.94511 -13.3861 1.63932e-15
      vertex 4.07446 -13.4011 1.64116e-15
    endloop
  endfacet
  facet normal 0.11542 0.993317 0
    outer loop
      vertex 3.94511 -13.3861 1.63932e-15
      vertex 4.07446 -13.4011 -1
      vertex 3.94511 -13.3861 -1
    endloop
  endfacet
  facet normal 0.000581911 1 -0
    outer loop
      vertex 6.67043 -13.4026 -1
      vertex 4.07446 -13.4011 1.64116e-15
      vertex 6.67043 -13.4026 1.64135e-15
    endloop
  endfacet
  facet normal 0.000581911 1 0
    outer loop
      vertex 4.07446 -13.4011 1.64116e-15
      vertex 6.67043 -13.4026 -1
      vertex 4.07446 -13.4011 -1
    endloop
  endfacet
  facet normal -0.100787 0.994908 0
    outer loop
      vertex 6.7852 -13.391 -1
      vertex 6.67043 -13.4026 1.64135e-15
      vertex 6.7852 -13.391 1.63992e-15
    endloop
  endfacet
  facet normal -0.100787 0.994908 0
    outer loop
      vertex 6.67043 -13.4026 1.64135e-15
      vertex 6.7852 -13.391 -1
      vertex 6.67043 -13.4026 -1
    endloop
  endfacet
  facet normal -0.23524 0.971937 0
    outer loop
      vertex 6.90297 -13.3625 -1
      vertex 6.7852 -13.391 1.63992e-15
      vertex 6.90297 -13.3625 1.63643e-15
    endloop
  endfacet
  facet normal -0.23524 0.971937 0
    outer loop
      vertex 6.7852 -13.391 1.63992e-15
      vertex 6.90297 -13.3625 -1
      vertex 6.7852 -13.391 -1
    endloop
  endfacet
  facet normal -0.384175 0.92326 0
    outer loop
      vertex 7.01437 -13.3161 -1
      vertex 6.90297 -13.3625 1.63643e-15
      vertex 7.01437 -13.3161 1.63075e-15
    endloop
  endfacet
  facet normal -0.384175 0.92326 0
    outer loop
      vertex 6.90297 -13.3625 1.63643e-15
      vertex 7.01437 -13.3161 -1
      vertex 6.90297 -13.3625 -1
    endloop
  endfacet
  facet normal -0.534323 0.84528 0
    outer loop
      vertex 7.11716 -13.2511 -1
      vertex 7.01437 -13.3161 1.63075e-15
      vertex 7.11716 -13.2511 1.6228e-15
    endloop
  endfacet
  facet normal -0.534323 0.84528 0
    outer loop
      vertex 7.01437 -13.3161 1.63075e-15
      vertex 7.11716 -13.2511 -1
      vertex 7.01437 -13.3161 -1
    endloop
  endfacet
  facet normal -0.675661 0.737212 0
    outer loop
      vertex 7.2058 -13.1699 -1
      vertex 7.11716 -13.2511 1.6228e-15
      vertex 7.2058 -13.1699 1.61285e-15
    endloop
  endfacet
  facet normal -0.675661 0.737212 0
    outer loop
      vertex 7.11716 -13.2511 1.6228e-15
      vertex 7.2058 -13.1699 -1
      vertex 7.11716 -13.2511 -1
    endloop
  endfacet
  facet normal -0.797295 0.60359 0
    outer loop
      vertex 7.2058 -13.1699 -1
      vertex 7.28078 -13.0709 1.60072e-15
      vertex 7.28078 -13.0709 -1
    endloop
  endfacet
  facet normal -0.797295 0.60359 0
    outer loop
      vertex 7.28078 -13.0709 1.60072e-15
      vertex 7.2058 -13.1699 -1
      vertex 7.2058 -13.1699 1.61285e-15
    endloop
  endfacet
  facet normal -0.893326 0.449409 0
    outer loop
      vertex 7.28078 -13.0709 -1
      vertex 7.33571 -12.9617 1.58735e-15
      vertex 7.33571 -12.9617 -1
    endloop
  endfacet
  facet normal -0.893326 0.449409 0
    outer loop
      vertex 7.33571 -12.9617 1.58735e-15
      vertex 7.28078 -13.0709 -1
      vertex 7.28078 -13.0709 1.60072e-15
    endloop
  endfacet
  facet normal -0.956823 0.290672 0
    outer loop
      vertex 7.33571 -12.9617 -1
      vertex 7.37106 -12.8453 1.57309e-15
      vertex 7.37106 -12.8453 -1
    endloop
  endfacet
  facet normal -0.956823 0.290672 0
    outer loop
      vertex 7.37106 -12.8453 1.57309e-15
      vertex 7.33571 -12.9617 -1
      vertex 7.33571 -12.9617 1.58735e-15
    endloop
  endfacet
  facet normal -0.990763 0.135603 0
    outer loop
      vertex 7.37106 -12.8453 -1
      vertex 7.38765 -12.7241 1.55825e-15
      vertex 7.38765 -12.7241 -1
    endloop
  endfacet
  facet normal -0.990763 0.135603 0
    outer loop
      vertex 7.38765 -12.7241 1.55825e-15
      vertex 7.37106 -12.8453 -1
      vertex 7.37106 -12.8453 1.57309e-15
    endloop
  endfacet
  facet normal -0.999953 -0.00966657 0
    outer loop
      vertex 7.38765 -12.7241 -1
      vertex 7.38641 -12.5963 1.5426e-15
      vertex 7.38641 -12.5963 -1
    endloop
  endfacet
  facet normal -0.999953 -0.00966657 0
    outer loop
      vertex 7.38641 -12.5963 1.5426e-15
      vertex 7.38765 -12.7241 -1
      vertex 7.38765 -12.7241 1.55825e-15
    endloop
  endfacet
  facet normal -0.989634 -0.14361 0
    outer loop
      vertex 7.38641 -12.5963 -1
      vertex 7.36819 -12.4707 1.52722e-15
      vertex 7.36819 -12.4707 -1
    endloop
  endfacet
  facet normal -0.989634 -0.14361 0
    outer loop
      vertex 7.36819 -12.4707 1.52722e-15
      vertex 7.38641 -12.5963 -1
      vertex 7.38641 -12.5963 1.5426e-15
    endloop
  endfacet
  facet normal -0.965844 -0.259126 0
    outer loop
      vertex 7.36819 -12.4707 -1
      vertex 7.3344 -12.3447 1.51179e-15
      vertex 7.3344 -12.3447 -1
    endloop
  endfacet
  facet normal -0.965844 -0.259126 0
    outer loop
      vertex 7.3344 -12.3447 1.51179e-15
      vertex 7.36819 -12.4707 -1
      vertex 7.36819 -12.4707 1.52722e-15
    endloop
  endfacet
  facet normal -0.927596 -0.373585 0
    outer loop
      vertex 7.3344 -12.3447 -1
      vertex 2.48633 -0.307159 3.76162e-17
      vertex 2.48633 -0.307159 -1
    endloop
  endfacet
  facet normal -0.927596 -0.373585 0
    outer loop
      vertex 2.48633 -0.307159 3.76162e-17
      vertex 7.3344 -12.3447 -1
      vertex 7.3344 -12.3447 1.51179e-15
    endloop
  endfacet
  facet normal -0.928332 0.371752 0
    outer loop
      vertex 2.48633 -0.307159 -1
      vertex 7.32472 11.7752 -1.44204e-15
      vertex 7.32472 11.7752 -1
    endloop
  endfacet
  facet normal -0.928332 0.371752 0
    outer loop
      vertex 7.32472 11.7752 -1.44204e-15
      vertex 2.48633 -0.307159 -1
      vertex 2.48633 -0.307159 3.76162e-17
    endloop
  endfacet
  facet normal -0.958599 0.284761 0
    outer loop
      vertex 7.32472 11.7752 -1
      vertex 7.36079 11.8966 -1.45691e-15
      vertex 7.36079 11.8966 -1
    endloop
  endfacet
  facet normal -0.958599 0.284761 0
    outer loop
      vertex 7.36079 11.8966 -1.45691e-15
      vertex 7.32472 11.7752 -1
      vertex 7.32472 11.7752 -1.44204e-15
    endloop
  endfacet
  facet normal -0.984127 0.177467 0
    outer loop
      vertex 7.36079 11.8966 -1
      vertex 7.38264 12.0178 -1.47175e-15
      vertex 7.38264 12.0178 -1
    endloop
  endfacet
  facet normal -0.984127 0.177467 0
    outer loop
      vertex 7.38264 12.0178 -1.47175e-15
      vertex 7.36079 11.8966 -1
      vertex 7.36079 11.8966 -1.45691e-15
    endloop
  endfacet
  facet normal -0.99845 0.0556526 0
    outer loop
      vertex 7.38264 12.0178 -1
      vertex 7.38934 12.138 -1.48647e-15
      vertex 7.38934 12.138 -1
    endloop
  endfacet
  facet normal -0.99845 0.0556526 0
    outer loop
      vertex 7.38934 12.138 -1.48647e-15
      vertex 7.38264 12.0178 -1
      vertex 7.38264 12.0178 -1.47175e-15
    endloop
  endfacet
  facet normal -0.996843 -0.0794025 0
    outer loop
      vertex 7.38934 12.138 -1
      vertex 7.37993 12.2561 -1.50095e-15
      vertex 7.37993 12.2561 -1
    endloop
  endfacet
  facet normal -0.996843 -0.0794025 0
    outer loop
      vertex 7.37993 12.2561 -1.50095e-15
      vertex 7.38934 12.138 -1
      vertex 7.38934 12.138 -1.48647e-15
    endloop
  endfacet
  facet normal -0.973858 -0.227158 0
    outer loop
      vertex 7.37993 12.2561 -1
      vertex 7.35229 12.3746 -1.51545e-15
      vertex 7.35229 12.3746 -1
    endloop
  endfacet
  facet normal -0.973858 -0.227158 0
    outer loop
      vertex 7.35229 12.3746 -1.51545e-15
      vertex 7.37993 12.2561 -1
      vertex 7.37993 12.2561 -1.50095e-15
    endloop
  endfacet
  facet normal -0.923153 -0.384432 0
    outer loop
      vertex 7.35229 12.3746 -1
      vertex 7.30675 12.484 -1.52885e-15
      vertex 7.30675 12.484 -1
    endloop
  endfacet
  facet normal -0.923153 -0.384432 0
    outer loop
      vertex 7.30675 12.484 -1.52885e-15
      vertex 7.35229 12.3746 -1
      vertex 7.35229 12.3746 -1.51545e-15
    endloop
  endfacet
  facet normal -0.843615 -0.536949 0
    outer loop
      vertex 7.30675 12.484 -1
      vertex 7.24207 12.5856 -1.54129e-15
      vertex 7.24207 12.5856 -1
    endloop
  endfacet
  facet normal -0.843615 -0.536949 0
    outer loop
      vertex 7.24207 12.5856 -1.54129e-15
      vertex 7.30675 12.484 -1
      vertex 7.30675 12.484 -1.52885e-15
    endloop
  endfacet
  facet normal -0.733367 -0.679832 0
    outer loop
      vertex 7.24207 12.5856 -1
      vertex 7.15778 12.6765 -1.55243e-15
      vertex 7.15778 12.6765 -1
    endloop
  endfacet
  facet normal -0.733367 -0.679832 0
    outer loop
      vertex 7.15778 12.6765 -1.55243e-15
      vertex 7.24207 12.5856 -1
      vertex 7.24207 12.5856 -1.54129e-15
    endloop
  endfacet
  facet normal -0.597105 -0.802163 0
    outer loop
      vertex 7.06024 12.7491 -1
      vertex 7.15778 12.6765 -1.55243e-15
      vertex 7.06024 12.7491 -1.56132e-15
    endloop
  endfacet
  facet normal -0.597105 -0.802163 -0
    outer loop
      vertex 7.15778 12.6765 -1.55243e-15
      vertex 7.06024 12.7491 -1
      vertex 7.15778 12.6765 -1
    endloop
  endfacet
  facet normal -0.448047 -0.89401 0
    outer loop
      vertex 6.94902 12.8049 -1
      vertex 7.06024 12.7491 -1.56132e-15
      vertex 6.94902 12.8049 -1.56815e-15
    endloop
  endfacet
  facet normal -0.448047 -0.89401 -0
    outer loop
      vertex 7.06024 12.7491 -1.56132e-15
      vertex 6.94902 12.8049 -1
      vertex 7.06024 12.7491 -1
    endloop
  endfacet
  facet normal -0.293193 -0.956053 0
    outer loop
      vertex 6.82961 12.8415 -1
      vertex 6.94902 12.8049 -1.56815e-15
      vertex 6.82961 12.8415 -1.57263e-15
    endloop
  endfacet
  facet normal -0.293193 -0.956053 -0
    outer loop
      vertex 6.94902 12.8049 -1.56815e-15
      vertex 6.82961 12.8415 -1
      vertex 6.94902 12.8049 -1
    endloop
  endfacet
  facet normal -0.143614 -0.989634 0
    outer loop
      vertex 6.70427 12.8597 -1
      vertex 6.82961 12.8415 -1.57263e-15
      vertex 6.70427 12.8597 -1.57486e-15
    endloop
  endfacet
  facet normal -0.143614 -0.989634 -0
    outer loop
      vertex 6.82961 12.8415 -1.57263e-15
      vertex 6.70427 12.8597 -1
      vertex 6.82961 12.8415 -1
    endloop
  endfacet
  facet normal -0.00109024 -0.999999 0
    outer loop
      vertex 4.14304 12.8625 -1
      vertex 6.70427 12.8597 -1.57486e-15
      vertex 4.14304 12.8625 -1.5752e-15
    endloop
  endfacet
  facet normal -0.00109024 -0.999999 -0
    outer loop
      vertex 6.70427 12.8597 -1.57486e-15
      vertex 4.14304 12.8625 -1
      vertex 6.70427 12.8597 -1
    endloop
  endfacet
  facet normal 0.0422858 -0.999106 0
    outer loop
      vertex 4.0511 12.8586 -1
      vertex 4.14304 12.8625 -1.5752e-15
      vertex 4.0511 12.8586 -1.57472e-15
    endloop
  endfacet
  facet normal 0.0422858 -0.999106 0
    outer loop
      vertex 4.14304 12.8625 -1.5752e-15
      vertex 4.0511 12.8586 -1
      vertex 4.14304 12.8625 -1
    endloop
  endfacet
  facet normal -0 0 1
    outer loop
      vertex -16.5 7.15 13.3
      vertex -15.5 -7.15 13.3
      vertex -15.5 7.15 13.3
    endloop
  endfacet
  facet normal 0 0 1
    outer loop
      vertex -15.5 -7.15 13.3
      vertex -16.5 7.15 13.3
      vertex -16.5 -7.15 13.3
    endloop
  endfacet
  facet normal 0 1 -0
    outer loop
      vertex -15.5 -7.15 13.3
      vertex -16.5 -7.15 15
      vertex -15.5 -7.15 15
    endloop
  endfacet
  facet normal 0 1 0
    outer loop
      vertex -16.5 -7.15 15
      vertex -15.5 -7.15 13.3
      vertex -16.5 -7.15 13.3
    endloop
  endfacet
  facet normal 0 -1 0
    outer loop
      vertex -16.5 7.15 13.3
      vertex -15.5 7.15 15
      vertex -16.5 7.15 15
    endloop
  endfacet
  facet normal 0 -1 -0
    outer loop
      vertex -15.5 7.15 15
      vertex -16.5 7.15 13.3
      vertex -15.5 7.15 13.3
    endloop
  endfacet
  facet normal -0 0 1
    outer loop
      vertex 15.5 7.15 13.3
      vertex 16.5 -7.15 13.3
      vertex 16.5 7.15 13.3
    endloop
  endfacet
  facet normal 0 0 1
    outer loop
      vertex 16.5 -7.15 13.3
      vertex 15.5 7.15 13.3
      vertex 15.5 -7.15 13.3
    endloop
  endfacet
  facet normal 0 1 -0
    outer loop
      vertex 16.5 -7.15 13.3
      vertex 15.5 -7.15 15
      vertex 16.5 -7.15 15
    endloop
  endfacet
  facet normal 0 1 0
    outer loop
      vertex 15.5 -7.15 15
      vertex 16.5 -7.15 13.3
      vertex 15.5 -7.15 13.3
    endloop
  endfacet
  facet normal 0 -1 0
    outer loop
      vertex 15.5 7.15 13.3
      vertex 16.5 7.15 15
      vertex 15.5 7.15 15
    endloop
  endfacet
  facet normal 0 -1 -0
    outer loop
      vertex 16.5 7.15 15
      vertex 15.5 7.15 13.3
      vertex 16.5 7.15 13.3
    endloop
  endfacet
  facet normal 1 -0 0
    outer loop
      vertex -7.15 -16.5 15
      vertex -7.15 -15.5 13.3
      vertex -7.15 -15.5 15
    endloop
  endfacet
  facet normal 1 0 0
    outer loop
      vertex -7.15 -15.5 13.3
      vertex -7.15 -16.5 15
      vertex -7.15 -16.5 13.3
    endloop
  endfacet
  facet normal -0 0 1
    outer loop
      vertex -7.15 -15.5 13.3
      vertex 7.15 -16.5 13.3
      vertex 7.15 -15.5 13.3
    endloop
  endfacet
  facet normal 0 0 1
    outer loop
      vertex 7.15 -16.5 13.3
      vertex -7.15 -15.5 13.3
      vertex -7.15 -16.5 13.3
    endloop
  endfacet
  facet normal -1 0 0
    outer loop
      vertex 7.15 -16.5 13.3
      vertex 7.15 -15.5 15
      vertex 7.15 -15.5 13.3
    endloop
  endfacet
  facet normal -1 -0 0
    outer loop
      vertex 7.15 -15.5 15
      vertex 7.15 -16.5 13.3
      vertex 7.15 -16.5 15
    endloop
  endfacet
  facet normal 1 -0 0
    outer loop
      vertex -7.15 15.5 15
      vertex -7.15 16.5 13.3
      vertex -7.15 16.5 15
    endloop
  endfacet
  facet normal 1 0 0
    outer loop
      vertex -7.15 16.5 13.3
      vertex -7.15 15.5 15
      vertex -7.15 15.5 13.3
    endloop
  endfacet
  facet normal -0 0 1
    outer loop
      vertex -7.15 16.5 13.3
      vertex 7.15 15.5 13.3
      vertex 7.15 16.5 13.3
    endloop
  endfacet
  facet normal 0 0 1
    outer loop
      vertex 7.15 15.5 13.3
      vertex -7.15 16.5 13.3
      vertex -7.15 15.5 13.3
    endloop
  endfacet
  facet normal -1 0 0
    outer loop
      vertex 7.15 15.5 13.3
      vertex 7.15 16.5 15
      vertex 7.15 16.5 13.3
    endloop
  endfacet
  facet normal -1 -0 0
    outer loop
      vertex 7.15 16.5 15
      vertex 7.15 15.5 13.3
      vertex 7.15 15.5 15
    endloop
  endfacet
endsolid OpenSCAD_Model
