solid OpenSCAD_Model
  facet normal -1 0 0
    outer loop
      vertex -14 -14 0.5
      vertex -14 14 1.5
      vertex -14 14 0.5
    endloop
  endfacet
  facet normal -1 -0 0
    outer loop
      vertex -14 14 1.5
      vertex -14 -14 0.5
      vertex -14 -14 1.5
    endloop
  endfacet
  facet normal 0 0 1
    outer loop
      vertex 14 14 1.5
      vertex 7.56271 1.28479 1.5
      vertex 14 -14 1.5
    endloop
  endfacet
  facet normal 0 0 1
    outer loop
      vertex 14 14 1.5
      vertex 7.5519 1.37679 1.5
      vertex 7.56271 1.28479 1.5
    endloop
  endfacet
  facet normal 0 0 1
    outer loop
      vertex 14 14 1.5
      vertex 7.52982 1.46388 1.5
      vertex 7.5519 1.37679 1.5
    endloop
  endfacet
  facet normal 0 0 1
    outer loop
      vertex 14 14 1.5
      vertex 7.49739 1.54553 1.5
      vertex 7.52982 1.46388 1.5
    endloop
  endfacet
  facet normal 0 0 1
    outer loop
      vertex 14 14 1.5
      vertex 7.45551 1.62119 1.5
      vertex 7.49739 1.54553 1.5
    endloop
  endfacet
  facet normal 0 0 1
    outer loop
      vertex 14 14 1.5
      vertex 7.40501 1.69026 1.5
      vertex 7.45551 1.62119 1.5
    endloop
  endfacet
  facet normal 0 0 1
    outer loop
      vertex 14 14 1.5
      vertex 7.34682 1.75223 1.5
      vertex 7.40501 1.69026 1.5
    endloop
  endfacet
  facet normal 0 0 1
    outer loop
      vertex 14 14 1.5
      vertex 7.28178 1.80652 1.5
      vertex 7.34682 1.75223 1.5
    endloop
  endfacet
  facet normal 0 0 1
    outer loop
      vertex 14 14 1.5
      vertex 7.21082 1.8526 1.5
      vertex 7.28178 1.80652 1.5
    endloop
  endfacet
  facet normal 0 0 1
    outer loop
      vertex 14 14 1.5
      vertex 7.13478 1.88988 1.5
      vertex 7.21082 1.8526 1.5
    endloop
  endfacet
  facet normal 0 0 1
    outer loop
      vertex 14 14 1.5
      vertex 7.05457 1.91783 1.5
      vertex 7.13478 1.88988 1.5
    endloop
  endfacet
  facet normal 0 0 1
    outer loop
      vertex 14 14 1.5
      vertex 6.97104 1.9359 1.5
      vertex 7.05457 1.91783 1.5
    endloop
  endfacet
  facet normal 0 0 1
    outer loop
      vertex 14 14 1.5
      vertex 6.8851 1.94353 1.5
      vertex 6.97104 1.9359 1.5
    endloop
  endfacet
  facet normal 0 0 1
    outer loop
      vertex 14 14 1.5
      vertex -6.51411 1.94286 1.5
      vertex 6.8851 1.94353 1.5
    endloop
  endfacet
  facet normal -0 0 1
    outer loop
      vertex -14 14 1.5
      vertex -6.51411 1.94286 1.5
      vertex 14 14 1.5
    endloop
  endfacet
  facet normal 0 0 1
    outer loop
      vertex -6.51411 1.94286 1.5
      vertex -14 14 1.5
      vertex -6.59984 1.93311 1.5
    endloop
  endfacet
  facet normal 0 0 1
    outer loop
      vertex -6.59984 1.93311 1.5
      vertex -14 14 1.5
      vertex -6.68294 1.91302 1.5
    endloop
  endfacet
  facet normal 0 0 1
    outer loop
      vertex -6.68294 1.91302 1.5
      vertex -14 14 1.5
      vertex -6.76253 1.88315 1.5
    endloop
  endfacet
  facet normal 0 0 1
    outer loop
      vertex -7.16756 1.35876 1.5
      vertex -14 14 1.5
      vertex -7.17603 1.26585 1.5
    endloop
  endfacet
  facet normal 0 0 1
    outer loop
      vertex -7.14766 1.44688 1.5
      vertex -14 14 1.5
      vertex -7.16756 1.35876 1.5
    endloop
  endfacet
  facet normal 0 0 1
    outer loop
      vertex -7.11722 1.52966 1.5
      vertex -14 14 1.5
      vertex -7.14766 1.44688 1.5
    endloop
  endfacet
  facet normal 0 0 1
    outer loop
      vertex -7.07713 1.60655 1.5
      vertex -14 14 1.5
      vertex -7.11722 1.52966 1.5
    endloop
  endfacet
  facet normal 0 0 1
    outer loop
      vertex -7.02826 1.677 1.5
      vertex -14 14 1.5
      vertex -7.07713 1.60655 1.5
    endloop
  endfacet
  facet normal 0 0 1
    outer loop
      vertex -6.97148 1.74043 1.5
      vertex -14 14 1.5
      vertex -7.02826 1.677 1.5
    endloop
  endfacet
  facet normal 0 0 1
    outer loop
      vertex -6.90768 1.79631 1.5
      vertex -14 14 1.5
      vertex -6.97148 1.74043 1.5
    endloop
  endfacet
  facet normal 0 0 1
    outer loop
      vertex -6.83774 1.84407 1.5
      vertex -14 14 1.5
      vertex -6.90768 1.79631 1.5
    endloop
  endfacet
  facet normal 0 0 1
    outer loop
      vertex -6.76253 1.88315 1.5
      vertex -14 14 1.5
      vertex -6.83774 1.84407 1.5
    endloop
  endfacet
  facet normal -0 0 1
    outer loop
      vertex 7.56271 -1.28096 1.5
      vertex 14 -14 1.5
      vertex 7.56271 1.28479 1.5
    endloop
  endfacet
  facet normal -0 0 1
    outer loop
      vertex 7.5519 -1.36554 1.5
      vertex 14 -14 1.5
      vertex 7.56271 -1.28096 1.5
    endloop
  endfacet
  facet normal -0 0 1
    outer loop
      vertex 7.52982 -1.4464 1.5
      vertex 14 -14 1.5
      vertex 7.5519 -1.36554 1.5
    endloop
  endfacet
  facet normal -0 0 1
    outer loop
      vertex 7.49739 -1.52287 1.5
      vertex 14 -14 1.5
      vertex 7.52982 -1.4464 1.5
    endloop
  endfacet
  facet normal -0 0 1
    outer loop
      vertex 7.45551 -1.59431 1.5
      vertex 14 -14 1.5
      vertex 7.49739 -1.52287 1.5
    endloop
  endfacet
  facet normal -0 0 1
    outer loop
      vertex 7.40501 -1.66008 1.5
      vertex 14 -14 1.5
      vertex 7.45551 -1.59431 1.5
    endloop
  endfacet
  facet normal -0 0 1
    outer loop
      vertex 7.33434 -1.73058 1.5
      vertex 14 -14 1.5
      vertex 7.40501 -1.66008 1.5
    endloop
  endfacet
  facet normal -0 0 1
    outer loop
      vertex 7.25406 -1.79079 1.5
      vertex 14 -14 1.5
      vertex 7.33434 -1.73058 1.5
    endloop
  endfacet
  facet normal -0 0 1
    outer loop
      vertex 7.16574 -1.8396 1.5
      vertex 14 -14 1.5
      vertex 7.25406 -1.79079 1.5
    endloop
  endfacet
  facet normal -0 0 1
    outer loop
      vertex 7.07089 -1.87587 1.5
      vertex 14 -14 1.5
      vertex 7.16574 -1.8396 1.5
    endloop
  endfacet
  facet normal -0 0 1
    outer loop
      vertex 6.98798 -1.89569 1.5
      vertex 14 -14 1.5
      vertex 7.07089 -1.87587 1.5
    endloop
  endfacet
  facet normal -0 0 1
    outer loop
      vertex 6.90245 -1.90536 1.5
      vertex 14 -14 1.5
      vertex 6.98798 -1.89569 1.5
    endloop
  endfacet
  facet normal -0 0 1
    outer loop
      vertex -6.51411 -1.90536 1.5
      vertex 14 -14 1.5
      vertex 6.90245 -1.90536 1.5
    endloop
  endfacet
  facet normal 0 0 1
    outer loop
      vertex -14 -14 1.5
      vertex -6.51411 -1.90536 1.5
      vertex -6.53142 -1.90427 1.5
    endloop
  endfacet
  facet normal 0 0 1
    outer loop
      vertex -14 -14 1.5
      vertex -6.53142 -1.90427 1.5
      vertex -6.6167 -1.89252 1.5
    endloop
  endfacet
  facet normal 0 0 1
    outer loop
      vertex -14 -14 1.5
      vertex -6.6167 -1.89252 1.5
      vertex -6.69917 -1.87074 1.5
    endloop
  endfacet
  facet normal 0 0 1
    outer loop
      vertex -14 -14 1.5
      vertex -6.69917 -1.87074 1.5
      vertex -6.77795 -1.8396 1.5
    endloop
  endfacet
  facet normal 0 0 1
    outer loop
      vertex -14 -14 1.5
      vertex -6.77795 -1.8396 1.5
      vertex -6.86639 -1.79079 1.5
    endloop
  endfacet
  facet normal 0 0 1
    outer loop
      vertex -14 14 1.5
      vertex -7.17529 -1.28096 1.5
      vertex -7.17603 1.26585 1.5
    endloop
  endfacet
  facet normal 0 0 1
    outer loop
      vertex -14 -14 1.5
      vertex -7.17529 -1.28096 1.5
      vertex -14 14 1.5
    endloop
  endfacet
  facet normal 0 0 1
    outer loop
      vertex -7.17529 -1.28096 1.5
      vertex -14 -14 1.5
      vertex -7.16446 -1.36554 1.5
    endloop
  endfacet
  facet normal 0 0 1
    outer loop
      vertex -7.16446 -1.36554 1.5
      vertex -14 -14 1.5
      vertex -7.14238 -1.4464 1.5
    endloop
  endfacet
  facet normal 0 0 1
    outer loop
      vertex -6.51411 -1.90536 1.5
      vertex -14 -14 1.5
      vertex 14 -14 1.5
    endloop
  endfacet
  facet normal 0 0 1
    outer loop
      vertex -6.94676 -1.73058 1.5
      vertex -14 -14 1.5
      vertex -6.86639 -1.79079 1.5
    endloop
  endfacet
  facet normal 0 0 1
    outer loop
      vertex -7.0175 -1.66008 1.5
      vertex -14 -14 1.5
      vertex -6.94676 -1.73058 1.5
    endloop
  endfacet
  facet normal 0 0 1
    outer loop
      vertex -7.06802 -1.59431 1.5
      vertex -14 -14 1.5
      vertex -7.0175 -1.66008 1.5
    endloop
  endfacet
  facet normal 0 0 1
    outer loop
      vertex -7.10995 -1.52287 1.5
      vertex -14 -14 1.5
      vertex -7.06802 -1.59431 1.5
    endloop
  endfacet
  facet normal 0 0 1
    outer loop
      vertex -7.14238 -1.4464 1.5
      vertex -14 -14 1.5
      vertex -7.10995 -1.52287 1.5
    endloop
  endfacet
  facet normal 1 -0 0
    outer loop
      vertex 14 -14 1.5
      vertex 14 14 0.5
      vertex 14 14 1.5
    endloop
  endfacet
  facet normal 1 0 0
    outer loop
      vertex 14 14 0.5
      vertex 14 -14 1.5
      vertex 14 -14 0.5
    endloop
  endfacet
  facet normal 0 1 -0
    outer loop
      vertex 14 14 0.5
      vertex -14 14 1.5
      vertex 14 14 1.5
    endloop
  endfacet
  facet normal 0 1 0
    outer loop
      vertex -14 14 1.5
      vertex 14 14 0.5
      vertex -14 14 0.5
    endloop
  endfacet
  facet normal 0 0 -1
    outer loop
      vertex -14 -14 0.5
      vertex 14 14 0.5
      vertex 14 -14 0.5
    endloop
  endfacet
  facet normal -0 0 -1
    outer loop
      vertex 14 14 0.5
      vertex -14 -14 0.5
      vertex -14 14 0.5
    endloop
  endfacet
  facet normal 0 -1 0
    outer loop
      vertex -14 -14 0.5
      vertex 14 -14 1.5
      vertex -14 -14 1.5
    endloop
  endfacet
  facet normal 0 -1 -0
    outer loop
      vertex 14 -14 1.5
      vertex -14 -14 0.5
      vertex 14 -14 0.5
    endloop
  endfacet
  facet normal 0.112397 -0.993663 0
    outer loop
      vertex 6.90245 -1.90536 1.5
      vertex 6.98798 -1.89569 3
      vertex 6.90245 -1.90536 3
    endloop
  endfacet
  facet normal 0.112397 -0.993663 0
    outer loop
      vertex 6.98798 -1.89569 3
      vertex 6.90245 -1.90536 1.5
      vertex 6.98798 -1.89569 1.5
    endloop
  endfacet
  facet normal 0.2325 -0.972596 0
    outer loop
      vertex 6.98798 -1.89569 1.5
      vertex 7.07089 -1.87587 3
      vertex 6.98798 -1.89569 3
    endloop
  endfacet
  facet normal 0.2325 -0.972596 0
    outer loop
      vertex 7.07089 -1.87587 3
      vertex 6.98798 -1.89569 1.5
      vertex 7.07089 -1.87587 1.5
    endloop
  endfacet
  facet normal -0.136481 -0.990643 0
    outer loop
      vertex -6.6167 -1.89252 1.5
      vertex -6.53142 -1.90427 3
      vertex -6.6167 -1.89252 3
    endloop
  endfacet
  facet normal -0.136481 -0.990643 -0
    outer loop
      vertex -6.53142 -1.90427 3
      vertex -6.6167 -1.89252 1.5
      vertex -6.53142 -1.90427 1.5
    endloop
  endfacet
  facet normal 0.357176 -0.934037 0
    outer loop
      vertex 7.07089 -1.87587 1.5
      vertex 7.16574 -1.8396 3
      vertex 7.07089 -1.87587 3
    endloop
  endfacet
  facet normal 0.357176 -0.934037 0
    outer loop
      vertex 7.16574 -1.8396 3
      vertex 7.07089 -1.87587 1.5
      vertex 7.16574 -1.8396 1.5
    endloop
  endfacet
  facet normal 0.793191 -0.608972 0
    outer loop
      vertex 7.40501 -1.66008 3
      vertex 7.45551 -1.59431 1.5
      vertex 7.45551 -1.59431 3
    endloop
  endfacet
  facet normal 0.793191 -0.608972 0
    outer loop
      vertex 7.45551 -1.59431 1.5
      vertex 7.40501 -1.66008 3
      vertex 7.40501 -1.66008 1.5
    endloop
  endfacet
  facet normal 0.600024 -0.799982 0
    outer loop
      vertex 7.25406 -1.79079 1.5
      vertex 7.33434 -1.73058 3
      vertex 7.25406 -1.79079 3
    endloop
  endfacet
  facet normal 0.600024 -0.799982 0
    outer loop
      vertex 7.33434 -1.73058 3
      vertex 7.25406 -1.79079 1.5
      vertex 7.33434 -1.73058 1.5
    endloop
  endfacet
  facet normal 0.96468 -0.263425 0
    outer loop
      vertex 7.52982 -1.4464 3
      vertex 7.5519 -1.36554 1.5
      vertex 7.5519 -1.36554 3
    endloop
  endfacet
  facet normal 0.96468 -0.263425 0
    outer loop
      vertex 7.5519 -1.36554 1.5
      vertex 7.52982 -1.4464 3
      vertex 7.52982 -1.4464 1.5
    endloop
  endfacet
  facet normal 0.706189 -0.708023 0
    outer loop
      vertex 7.33434 -1.73058 1.5
      vertex 7.40501 -1.66008 3
      vertex 7.33434 -1.73058 3
    endloop
  endfacet
  facet normal 0.706189 -0.708023 0
    outer loop
      vertex 7.40501 -1.66008 3
      vertex 7.33434 -1.73058 1.5
      vertex 7.40501 -1.66008 1.5
    endloop
  endfacet
  facet normal 0.211407 0.977398 -0
    outer loop
      vertex 7.05457 1.91783 1.5
      vertex 6.97104 1.9359 3
      vertex 7.05457 1.91783 3
    endloop
  endfacet
  facet normal 0.211407 0.977398 0
    outer loop
      vertex 6.97104 1.9359 3
      vertex 7.05457 1.91783 1.5
      vertex 6.97104 1.9359 1.5
    endloop
  endfacet
  facet normal 0 0 1
    outer loop
      vertex 6.8851 1.94353 3
      vertex 7.56271 1.28479 3
      vertex 7.5519 1.37679 3
    endloop
  endfacet
  facet normal 0 -0 1
    outer loop
      vertex 6.90245 -1.90536 3
      vertex 7.56271 1.28479 3
      vertex 6.8851 1.94353 3
    endloop
  endfacet
  facet normal 0 0 1
    outer loop
      vertex 6.8851 1.94353 3
      vertex 7.5519 1.37679 3
      vertex 7.52982 1.46388 3
    endloop
  endfacet
  facet normal 0 0 1
    outer loop
      vertex 7.56271 1.28479 3
      vertex 6.90245 -1.90536 3
      vertex 7.56271 -1.28096 3
    endloop
  endfacet
  facet normal 0 0 1
    outer loop
      vertex 6.8851 1.94353 3
      vertex 7.52982 1.46388 3
      vertex 7.49739 1.54553 3
    endloop
  endfacet
  facet normal 0 -0 1
    outer loop
      vertex 7.25406 -1.79079 3
      vertex 7.56271 -1.28096 3
      vertex 6.90245 -1.90536 3
    endloop
  endfacet
  facet normal 0 0 1
    outer loop
      vertex 6.8851 1.94353 3
      vertex 7.49739 1.54553 3
      vertex 7.45551 1.62119 3
    endloop
  endfacet
  facet normal 0 -0 1
    outer loop
      vertex 7.33434 -1.73058 3
      vertex 7.56271 -1.28096 3
      vertex 7.25406 -1.79079 3
    endloop
  endfacet
  facet normal 0 0 1
    outer loop
      vertex 6.8851 1.94353 3
      vertex 7.45551 1.62119 3
      vertex 7.40501 1.69026 3
    endloop
  endfacet
  facet normal 0 0 1
    outer loop
      vertex 7.5519 -1.36554 3
      vertex 7.49739 -1.52287 3
      vertex 7.52982 -1.4464 3
    endloop
  endfacet
  facet normal 0 0 1
    outer loop
      vertex 6.8851 1.94353 3
      vertex 7.40501 1.69026 3
      vertex 7.34682 1.75223 3
    endloop
  endfacet
  facet normal 0 0 1
    outer loop
      vertex 7.5519 -1.36554 3
      vertex 7.45551 -1.59431 3
      vertex 7.49739 -1.52287 3
    endloop
  endfacet
  facet normal 0 0 1
    outer loop
      vertex 6.8851 1.94353 3
      vertex 7.34682 1.75223 3
      vertex 7.28178 1.80652 3
    endloop
  endfacet
  facet normal 0 0 1
    outer loop
      vertex 7.56271 -1.28096 3
      vertex 7.45551 -1.59431 3
      vertex 7.5519 -1.36554 3
    endloop
  endfacet
  facet normal 0 0 1
    outer loop
      vertex 6.8851 1.94353 3
      vertex 7.28178 1.80652 3
      vertex 7.21082 1.8526 3
    endloop
  endfacet
  facet normal 0 -0 1
    outer loop
      vertex 7.45551 -1.59431 3
      vertex 7.56271 -1.28096 3
      vertex 7.40501 -1.66008 3
    endloop
  endfacet
  facet normal 0 0 1
    outer loop
      vertex 6.8851 1.94353 3
      vertex 7.21082 1.8526 3
      vertex 7.13478 1.88988 3
    endloop
  endfacet
  facet normal 0 -0 1
    outer loop
      vertex 7.40501 -1.66008 3
      vertex 7.56271 -1.28096 3
      vertex 7.33434 -1.73058 3
    endloop
  endfacet
  facet normal 0 0 1
    outer loop
      vertex 6.8851 1.94353 3
      vertex 7.13478 1.88988 3
      vertex 7.05457 1.91783 3
    endloop
  endfacet
  facet normal 0 0 1
    outer loop
      vertex 7.25406 -1.79079 3
      vertex 6.90245 -1.90536 3
      vertex 7.16574 -1.8396 3
    endloop
  endfacet
  facet normal 0 0 1
    outer loop
      vertex 6.8851 1.94353 3
      vertex 7.05457 1.91783 3
      vertex 6.97104 1.9359 3
    endloop
  endfacet
  facet normal 0 0 1
    outer loop
      vertex 7.16574 -1.8396 3
      vertex 6.90245 -1.90536 3
      vertex 7.07089 -1.87587 3
    endloop
  endfacet
  facet normal 0 0 1
    outer loop
      vertex 7.07089 -1.87587 3
      vertex 6.90245 -1.90536 3
      vertex 6.98798 -1.89569 3
    endloop
  endfacet
  facet normal -0 0 1
    outer loop
      vertex -6.51411 1.94286 3
      vertex 6.90245 -1.90536 3
      vertex 6.8851 1.94353 3
    endloop
  endfacet
  facet normal 0 0 1
    outer loop
      vertex -6.51411 1.94286 3
      vertex -6.51411 -1.90536 3
      vertex 6.90245 -1.90536 3
    endloop
  endfacet
  facet normal -0 0 1
    outer loop
      vertex -7.17603 1.26585 3
      vertex -6.51411 -1.90536 3
      vertex -6.51411 1.94286 3
    endloop
  endfacet
  facet normal 0 0 1
    outer loop
      vertex -7.17603 1.26585 3
      vertex -6.51411 1.94286 3
      vertex -6.59984 1.93311 3
    endloop
  endfacet
  facet normal -0 -0 1
    outer loop
      vertex -7.17529 -1.28096 3
      vertex -6.51411 -1.90536 3
      vertex -7.17603 1.26585 3
    endloop
  endfacet
  facet normal 0 0 1
    outer loop
      vertex -7.17603 1.26585 3
      vertex -6.59984 1.93311 3
      vertex -6.68294 1.91302 3
    endloop
  endfacet
  facet normal 0 0 1
    outer loop
      vertex -6.51411 -1.90536 3
      vertex -7.17529 -1.28096 3
      vertex -6.53142 -1.90427 3
    endloop
  endfacet
  facet normal 0 0 1
    outer loop
      vertex -7.17603 1.26585 3
      vertex -6.68294 1.91302 3
      vertex -6.76253 1.88315 3
    endloop
  endfacet
  facet normal 0 0 1
    outer loop
      vertex -6.53142 -1.90427 3
      vertex -7.17529 -1.28096 3
      vertex -6.6167 -1.89252 3
    endloop
  endfacet
  facet normal 0 0 1
    outer loop
      vertex -7.17603 1.26585 3
      vertex -6.76253 1.88315 3
      vertex -6.83774 1.84407 3
    endloop
  endfacet
  facet normal 0 0 1
    outer loop
      vertex -6.6167 -1.89252 3
      vertex -7.17529 -1.28096 3
      vertex -6.69917 -1.87074 3
    endloop
  endfacet
  facet normal 0 0 1
    outer loop
      vertex -7.17603 1.26585 3
      vertex -6.83774 1.84407 3
      vertex -6.90768 1.79631 3
    endloop
  endfacet
  facet normal 0 0 1
    outer loop
      vertex -6.69917 -1.87074 3
      vertex -7.17529 -1.28096 3
      vertex -6.77795 -1.8396 3
    endloop
  endfacet
  facet normal 0 0 1
    outer loop
      vertex -7.17603 1.26585 3
      vertex -6.90768 1.79631 3
      vertex -6.97148 1.74043 3
    endloop
  endfacet
  facet normal 0 0 1
    outer loop
      vertex -6.77795 -1.8396 3
      vertex -7.17529 -1.28096 3
      vertex -6.86639 -1.79079 3
    endloop
  endfacet
  facet normal 0 0 1
    outer loop
      vertex -7.17603 1.26585 3
      vertex -6.97148 1.74043 3
      vertex -7.02826 1.677 3
    endloop
  endfacet
  facet normal 0 0 1
    outer loop
      vertex -6.86639 -1.79079 3
      vertex -7.17529 -1.28096 3
      vertex -6.94676 -1.73058 3
    endloop
  endfacet
  facet normal 0 0 1
    outer loop
      vertex -7.17603 1.26585 3
      vertex -7.02826 1.677 3
      vertex -7.07713 1.60655 3
    endloop
  endfacet
  facet normal 0 0 1
    outer loop
      vertex -6.94676 -1.73058 3
      vertex -7.17529 -1.28096 3
      vertex -7.0175 -1.66008 3
    endloop
  endfacet
  facet normal 0 0 1
    outer loop
      vertex -7.17603 1.26585 3
      vertex -7.07713 1.60655 3
      vertex -7.11722 1.52966 3
    endloop
  endfacet
  facet normal 0 0 1
    outer loop
      vertex -7.0175 -1.66008 3
      vertex -7.17529 -1.28096 3
      vertex -7.06802 -1.59431 3
    endloop
  endfacet
  facet normal 0 0 1
    outer loop
      vertex -7.17603 1.26585 3
      vertex -7.11722 1.52966 3
      vertex -7.14766 1.44688 3
    endloop
  endfacet
  facet normal 0 0 1
    outer loop
      vertex -7.06802 -1.59431 3
      vertex -7.17529 -1.28096 3
      vertex -7.10995 -1.52287 3
    endloop
  endfacet
  facet normal 0 0 1
    outer loop
      vertex -7.17603 1.26585 3
      vertex -7.14766 1.44688 3
      vertex -7.16756 1.35876 3
    endloop
  endfacet
  facet normal 0 0 1
    outer loop
      vertex -7.10995 -1.52287 3
      vertex -7.17529 -1.28096 3
      vertex -7.14238 -1.4464 3
    endloop
  endfacet
  facet normal 0 0 1
    outer loop
      vertex -7.14238 -1.4464 3
      vertex -7.17529 -1.28096 3
      vertex -7.16446 -1.36554 3
    endloop
  endfacet
  facet normal 0.483729 -0.875218 0
    outer loop
      vertex 7.16574 -1.8396 1.5
      vertex 7.25406 -1.79079 3
      vertex 7.16574 -1.8396 3
    endloop
  endfacet
  facet normal 0.483729 -0.875218 0
    outer loop
      vertex 7.25406 -1.79079 3
      vertex 7.16574 -1.8396 1.5
      vertex 7.25406 -1.79079 1.5
    endloop
  endfacet
  facet normal -0.351438 0.936211 0
    outer loop
      vertex -6.68294 1.91302 1.5
      vertex -6.76253 1.88315 3
      vertex -6.68294 1.91302 3
    endloop
  endfacet
  facet normal -0.351438 0.936211 0
    outer loop
      vertex -6.76253 1.88315 3
      vertex -6.68294 1.91302 1.5
      vertex -6.76253 1.88315 1.5
    endloop
  endfacet
  facet normal -0.93855 0.345144 0
    outer loop
      vertex -7.14766 1.44688 1.5
      vertex -7.11722 1.52966 3
      vertex -7.11722 1.52966 1.5
    endloop
  endfacet
  facet normal -0.93855 0.345144 0
    outer loop
      vertex -7.11722 1.52966 3
      vertex -7.14766 1.44688 1.5
      vertex -7.14766 1.44688 3
    endloop
  endfacet
  facet normal -0.991896 -0.127051 0
    outer loop
      vertex -7.16446 -1.36554 1.5
      vertex -7.17529 -1.28096 3
      vertex -7.17529 -1.28096 1.5
    endloop
  endfacet
  facet normal -0.991896 -0.127051 0
    outer loop
      vertex -7.17529 -1.28096 3
      vertex -7.16446 -1.36554 1.5
      vertex -7.16446 -1.36554 3
    endloop
  endfacet
  facet normal -0.975442 0.220256 0
    outer loop
      vertex -7.16756 1.35876 1.5
      vertex -7.14766 1.44688 3
      vertex -7.14766 1.44688 1.5
    endloop
  endfacet
  facet normal -0.975442 0.220256 0
    outer loop
      vertex -7.14766 1.44688 3
      vertex -7.16756 1.35876 1.5
      vertex -7.16756 1.35876 3
    endloop
  endfacet
  facet normal -0.0633645 -0.99799 0
    outer loop
      vertex -6.53142 -1.90427 1.5
      vertex -6.51411 -1.90536 3
      vertex -6.53142 -1.90427 3
    endloop
  endfacet
  facet normal -0.0633645 -0.99799 -0
    outer loop
      vertex -6.51411 -1.90536 3
      vertex -6.53142 -1.90427 1.5
      vertex -6.51411 -1.90536 1.5
    endloop
  endfacet
  facet normal 0 -1 0
    outer loop
      vertex -6.51411 -1.90536 1.5
      vertex 6.90245 -1.90536 3
      vertex -6.51411 -1.90536 3
    endloop
  endfacet
  facet normal 0 -1 -0
    outer loop
      vertex 6.90245 -1.90536 3
      vertex -6.51411 -1.90536 1.5
      vertex 6.90245 -1.90536 1.5
    endloop
  endfacet
  facet normal -0.461058 0.88737 0
    outer loop
      vertex -6.76253 1.88315 1.5
      vertex -6.83774 1.84407 3
      vertex -6.76253 1.88315 3
    endloop
  endfacet
  facet normal -0.461058 0.88737 0
    outer loop
      vertex -6.83774 1.84407 3
      vertex -6.76253 1.88315 1.5
      vertex -6.83774 1.84407 1.5
    endloop
  endfacet
  facet normal 1 -0 0
    outer loop
      vertex 7.56271 -1.28096 3
      vertex 7.56271 1.28479 1.5
      vertex 7.56271 1.28479 3
    endloop
  endfacet
  facet normal 1 0 0
    outer loop
      vertex 7.56271 1.28479 1.5
      vertex 7.56271 -1.28096 3
      vertex 7.56271 -1.28096 1.5
    endloop
  endfacet
  facet normal -5.01064e-05 1 0
    outer loop
      vertex 6.8851 1.94353 1.5
      vertex -6.51411 1.94286 3
      vertex 6.8851 1.94353 3
    endloop
  endfacet
  facet normal -5.01064e-05 1 0
    outer loop
      vertex -6.51411 1.94286 3
      vertex 6.8851 1.94353 1.5
      vertex -6.51411 1.94286 1.5
    endloop
  endfacet
  facet normal 0.0884306 0.996082 -0
    outer loop
      vertex 6.97104 1.9359 1.5
      vertex 6.8851 1.94353 3
      vertex 6.97104 1.9359 3
    endloop
  endfacet
  facet normal 0.0884306 0.996082 0
    outer loop
      vertex 6.8851 1.94353 3
      vertex 6.97104 1.9359 1.5
      vertex 6.8851 1.94353 1.5
    endloop
  endfacet
  facet normal -0.658874 0.752253 0
    outer loop
      vertex -6.90768 1.79631 1.5
      vertex -6.97148 1.74043 3
      vertex -6.90768 1.79631 3
    endloop
  endfacet
  facet normal -0.658874 0.752253 0
    outer loop
      vertex -6.97148 1.74043 3
      vertex -6.90768 1.79631 1.5
      vertex -6.97148 1.74043 1.5
    endloop
  endfacet
  facet normal -0.255268 -0.96687 0
    outer loop
      vertex -6.69917 -1.87074 1.5
      vertex -6.6167 -1.89252 3
      vertex -6.69917 -1.87074 3
    endloop
  endfacet
  facet normal -0.255268 -0.96687 -0
    outer loop
      vertex -6.6167 -1.89252 3
      vertex -6.69917 -1.87074 1.5
      vertex -6.6167 -1.89252 1.5
    endloop
  endfacet
  facet normal -0.793014 -0.609204 0
    outer loop
      vertex -7.0175 -1.66008 1.5
      vertex -7.06802 -1.59431 3
      vertex -7.06802 -1.59431 1.5
    endloop
  endfacet
  facet normal -0.793014 -0.609204 0
    outer loop
      vertex -7.06802 -1.59431 3
      vertex -7.0175 -1.66008 1.5
      vertex -7.0175 -1.66008 3
    endloop
  endfacet
  facet normal -1 -0.000287584 0
    outer loop
      vertex -7.17529 -1.28096 1.5
      vertex -7.17603 1.26585 3
      vertex -7.17603 1.26585 1.5
    endloop
  endfacet
  facet normal -1 -0.000287584 0
    outer loop
      vertex -7.17603 1.26585 3
      vertex -7.17529 -1.28096 1.5
      vertex -7.17529 -1.28096 3
    endloop
  endfacet
  facet normal -0.563896 0.825846 0
    outer loop
      vertex -6.83774 1.84407 1.5
      vertex -6.90768 1.79631 3
      vertex -6.83774 1.84407 3
    endloop
  endfacet
  facet normal -0.563896 0.825846 0
    outer loop
      vertex -6.90768 1.79631 3
      vertex -6.83774 1.84407 1.5
      vertex -6.90768 1.79631 1.5
    endloop
  endfacet
  facet normal -0.113013 0.993594 0
    outer loop
      vertex -6.51411 1.94286 1.5
      vertex -6.59984 1.93311 3
      vertex -6.51411 1.94286 3
    endloop
  endfacet
  facet normal -0.113013 0.993594 0
    outer loop
      vertex -6.59984 1.93311 3
      vertex -6.51411 1.94286 1.5
      vertex -6.59984 1.93311 1.5
    endloop
  endfacet
  facet normal 0.993156 0.116793 0
    outer loop
      vertex 7.56271 1.28479 3
      vertex 7.5519 1.37679 1.5
      vertex 7.5519 1.37679 3
    endloop
  endfacet
  facet normal 0.993156 0.116793 0
    outer loop
      vertex 7.5519 1.37679 1.5
      vertex 7.56271 1.28479 3
      vertex 7.56271 1.28479 1.5
    endloop
  endfacet
  facet normal 0.544589 0.838703 -0
    outer loop
      vertex 7.28178 1.80652 1.5
      vertex 7.21082 1.8526 3
      vertex 7.28178 1.80652 3
    endloop
  endfacet
  facet normal 0.544589 0.838703 0
    outer loop
      vertex 7.21082 1.8526 3
      vertex 7.28178 1.80652 1.5
      vertex 7.21082 1.8526 1.5
    endloop
  endfacet
  facet normal -0.995872 0.0907717 0
    outer loop
      vertex -7.17603 1.26585 1.5
      vertex -7.16756 1.35876 3
      vertex -7.16756 1.35876 1.5
    endloop
  endfacet
  facet normal -0.995872 0.0907717 0
    outer loop
      vertex -7.16756 1.35876 3
      vertex -7.17603 1.26585 1.5
      vertex -7.17603 1.26585 3
    endloop
  endfacet
  facet normal -0.234885 0.972023 0
    outer loop
      vertex -6.59984 1.93311 1.5
      vertex -6.68294 1.91302 3
      vertex -6.59984 1.93311 3
    endloop
  endfacet
  facet normal -0.234885 0.972023 0
    outer loop
      vertex -6.68294 1.91302 3
      vertex -6.59984 1.93311 1.5
      vertex -6.68294 1.91302 1.5
    endloop
  endfacet
  facet normal 0.329078 0.944303 -0
    outer loop
      vertex 7.13478 1.88988 1.5
      vertex 7.05457 1.91783 3
      vertex 7.13478 1.88988 3
    endloop
  endfacet
  facet normal 0.329078 0.944303 0
    outer loop
      vertex 7.05457 1.91783 3
      vertex 7.13478 1.88988 1.5
      vertex 7.05457 1.91783 1.5
    endloop
  endfacet
  facet normal 0.991919 -0.126875 0
    outer loop
      vertex 7.5519 -1.36554 3
      vertex 7.56271 -1.28096 1.5
      vertex 7.56271 -1.28096 3
    endloop
  endfacet
  facet normal 0.991919 -0.126875 0
    outer loop
      vertex 7.56271 -1.28096 1.5
      vertex 7.5519 -1.36554 3
      vertex 7.5519 -1.36554 1.5
    endloop
  endfacet
  facet normal -0.920668 -0.390347 0
    outer loop
      vertex -7.10995 -1.52287 1.5
      vertex -7.14238 -1.4464 3
      vertex -7.14238 -1.4464 1.5
    endloop
  endfacet
  facet normal -0.920668 -0.390347 0
    outer loop
      vertex -7.14238 -1.4464 3
      vertex -7.10995 -1.52287 1.5
      vertex -7.10995 -1.52287 3
    endloop
  endfacet
  facet normal -0.705883 -0.708328 0
    outer loop
      vertex -7.0175 -1.66008 1.5
      vertex -6.94676 -1.73058 3
      vertex -7.0175 -1.66008 3
    endloop
  endfacet
  facet normal -0.705883 -0.708328 -0
    outer loop
      vertex -6.94676 -1.73058 3
      vertex -7.0175 -1.66008 1.5
      vertex -6.94676 -1.73058 1.5
    endloop
  endfacet
  facet normal -0.483217 -0.875501 0
    outer loop
      vertex -6.86639 -1.79079 1.5
      vertex -6.77795 -1.8396 3
      vertex -6.86639 -1.79079 3
    endloop
  endfacet
  facet normal -0.483217 -0.875501 -0
    outer loop
      vertex -6.77795 -1.8396 3
      vertex -6.86639 -1.79079 1.5
      vertex -6.77795 -1.8396 1.5
    endloop
  endfacet
  facet normal -0.821641 0.570006 0
    outer loop
      vertex -7.07713 1.60655 1.5
      vertex -7.02826 1.677 3
      vertex -7.02826 1.677 1.5
    endloop
  endfacet
  facet normal -0.821641 0.570006 0
    outer loop
      vertex -7.02826 1.677 3
      vertex -7.07713 1.60655 1.5
      vertex -7.07713 1.60655 3
    endloop
  endfacet
  facet normal -0.745101 0.666952 0
    outer loop
      vertex -7.02826 1.677 1.5
      vertex -6.97148 1.74043 3
      vertex -6.97148 1.74043 1.5
    endloop
  endfacet
  facet normal -0.745101 0.666952 0
    outer loop
      vertex -6.97148 1.74043 3
      vertex -7.02826 1.677 1.5
      vertex -7.02826 1.677 3
    endloop
  endfacet
  facet normal 0.728927 0.684592 0
    outer loop
      vertex 7.40501 1.69026 3
      vertex 7.34682 1.75223 1.5
      vertex 7.34682 1.75223 3
    endloop
  endfacet
  facet normal 0.728927 0.684592 0
    outer loop
      vertex 7.34682 1.75223 1.5
      vertex 7.40501 1.69026 3
      vertex 7.40501 1.69026 1.5
    endloop
  endfacet
  facet normal 0.440208 0.897896 -0
    outer loop
      vertex 7.21082 1.8526 1.5
      vertex 7.13478 1.88988 3
      vertex 7.21082 1.8526 3
    endloop
  endfacet
  facet normal 0.440208 0.897896 0
    outer loop
      vertex 7.13478 1.88988 3
      vertex 7.21082 1.8526 1.5
      vertex 7.13478 1.88988 1.5
    endloop
  endfacet
  facet normal 0.920668 -0.390347 0
    outer loop
      vertex 7.49739 -1.52287 3
      vertex 7.52982 -1.4464 1.5
      vertex 7.52982 -1.4464 3
    endloop
  endfacet
  facet normal 0.920668 -0.390347 0
    outer loop
      vertex 7.52982 -1.4464 1.5
      vertex 7.49739 -1.52287 3
      vertex 7.49739 -1.52287 1.5
    endloop
  endfacet
  facet normal -0.96468 -0.263425 0
    outer loop
      vertex -7.14238 -1.4464 1.5
      vertex -7.16446 -1.36554 3
      vertex -7.16446 -1.36554 1.5
    endloop
  endfacet
  facet normal -0.96468 -0.263425 0
    outer loop
      vertex -7.16446 -1.36554 3
      vertex -7.14238 -1.4464 1.5
      vertex -7.14238 -1.4464 3
    endloop
  endfacet
  facet normal -0.862426 -0.506183 0
    outer loop
      vertex -7.06802 -1.59431 1.5
      vertex -7.10995 -1.52287 3
      vertex -7.10995 -1.52287 1.5
    endloop
  endfacet
  facet normal -0.862426 -0.506183 0
    outer loop
      vertex -7.10995 -1.52287 3
      vertex -7.06802 -1.59431 1.5
      vertex -7.06802 -1.59431 3
    endloop
  endfacet
  facet normal -0.599587 -0.80031 0
    outer loop
      vertex -6.94676 -1.73058 1.5
      vertex -6.86639 -1.79079 3
      vertex -6.94676 -1.73058 3
    endloop
  endfacet
  facet normal -0.599587 -0.80031 -0
    outer loop
      vertex -6.86639 -1.79079 3
      vertex -6.94676 -1.73058 1.5
      vertex -6.86639 -1.79079 1.5
    endloop
  endfacet
  facet normal -0.36763 -0.929972 0
    outer loop
      vertex -6.77795 -1.8396 1.5
      vertex -6.69917 -1.87074 3
      vertex -6.77795 -1.8396 3
    endloop
  endfacet
  facet normal -0.36763 -0.929972 -0
    outer loop
      vertex -6.69917 -1.87074 3
      vertex -6.77795 -1.8396 1.5
      vertex -6.69917 -1.87074 1.5
    endloop
  endfacet
  facet normal -0.886732 0.462283 0
    outer loop
      vertex -7.11722 1.52966 1.5
      vertex -7.07713 1.60655 3
      vertex -7.07713 1.60655 1.5
    endloop
  endfacet
  facet normal -0.886732 0.462283 0
    outer loop
      vertex -7.07713 1.60655 3
      vertex -7.11722 1.52966 1.5
      vertex -7.11722 1.52966 3
    endloop
  endfacet
  facet normal 0.640857 0.76766 -0
    outer loop
      vertex 7.34682 1.75223 1.5
      vertex 7.28178 1.80652 3
      vertex 7.34682 1.75223 3
    endloop
  endfacet
  facet normal 0.640857 0.76766 0
    outer loop
      vertex 7.28178 1.80652 3
      vertex 7.34682 1.75223 1.5
      vertex 7.28178 1.80652 1.5
    endloop
  endfacet
  facet normal 0.929396 0.369084 0
    outer loop
      vertex 7.52982 1.46388 3
      vertex 7.49739 1.54553 1.5
      vertex 7.49739 1.54553 3
    endloop
  endfacet
  facet normal 0.929396 0.369084 0
    outer loop
      vertex 7.49739 1.54553 1.5
      vertex 7.52982 1.46388 3
      vertex 7.52982 1.46388 1.5
    endloop
  endfacet
  facet normal 0.969338 0.245731 0
    outer loop
      vertex 7.5519 1.37679 3
      vertex 7.52982 1.46388 1.5
      vertex 7.52982 1.46388 3
    endloop
  endfacet
  facet normal 0.969338 0.245731 0
    outer loop
      vertex 7.52982 1.46388 1.5
      vertex 7.5519 1.37679 3
      vertex 7.5519 1.37679 1.5
    endloop
  endfacet
  facet normal 0.862667 -0.505772 0
    outer loop
      vertex 7.45551 -1.59431 3
      vertex 7.49739 -1.52287 1.5
      vertex 7.49739 -1.52287 3
    endloop
  endfacet
  facet normal 0.862667 -0.505772 0
    outer loop
      vertex 7.49739 -1.52287 1.5
      vertex 7.45551 -1.59431 3
      vertex 7.45551 -1.59431 1.5
    endloop
  endfacet
  facet normal 0.874864 0.484369 0
    outer loop
      vertex 7.49739 1.54553 3
      vertex 7.45551 1.62119 1.5
      vertex 7.45551 1.62119 3
    endloop
  endfacet
  facet normal 0.874864 0.484369 0
    outer loop
      vertex 7.45551 1.62119 1.5
      vertex 7.49739 1.54553 3
      vertex 7.49739 1.54553 1.5
    endloop
  endfacet
  facet normal 0.807322 0.59011 0
    outer loop
      vertex 7.45551 1.62119 3
      vertex 7.40501 1.69026 1.5
      vertex 7.40501 1.69026 3
    endloop
  endfacet
  facet normal 0.807322 0.59011 0
    outer loop
      vertex 7.40501 1.69026 1.5
      vertex 7.45551 1.62119 3
      vertex 7.45551 1.62119 1.5
    endloop
  endfacet
endsolid OpenSCAD_Model
