solid OpenSCAD_Model
  facet normal -1 0 0
    outer loop
      vertex -16.5 16.5 -1
      vertex -16.5 7.15 13.3
      vertex -16.5 16.5 15
    endloop
  endfacet
  facet normal -1 0 0
    outer loop
      vertex -16.5 16.5 -1
      vertex -16.5 -7.15 13.3
      vertex -16.5 7.15 13.3
    endloop
  endfacet
  facet normal -1 0 0
    outer loop
      vertex -16.5 -16.5 -1
      vertex -16.5 -7.15 13.3
      vertex -16.5 16.5 -1
    endloop
  endfacet
  facet normal -1 0 0
    outer loop
      vertex -16.5 -16.5 15
      vertex -16.5 -7.15 13.3
      vertex -16.5 -16.5 -1
    endloop
  endfacet
  facet normal -1 0 0
    outer loop
      vertex -16.5 -7.15 13.3
      vertex -16.5 -16.5 15
      vertex -16.5 -7.15 15
    endloop
  endfacet
  facet normal -1 -0 0
    outer loop
      vertex -16.5 16.5 15
      vertex -16.5 7.15 13.3
      vertex -16.5 7.15 15
    endloop
  endfacet
  facet normal 1.74296e-23 1.22465e-16 1
    outer loop
      vertex 15.5 15.5 -1.8982e-15
      vertex 4.64105 1.06793 -1.30784e-16
      vertex 4.6498 0.955643 -1.17032e-16
    endloop
  endfacet
  facet normal -8.32056e-23 1.22465e-16 1
    outer loop
      vertex 5.11049 8.38344 -1.02668e-15
      vertex 4.61739 1.18869 -1.45573e-16
      vertex 4.64105 1.06793 -1.30784e-16
    endloop
  endfacet
  facet normal 7.71083e-24 1.22465e-16 1
    outer loop
      vertex 5.11049 8.38344 -1.02668e-15
      vertex 4.58046 1.30161 -1.59401e-16
      vertex 4.61739 1.18869 -1.45573e-16
    endloop
  endfacet
  facet normal 1.03669e-22 1.22465e-16 1
    outer loop
      vertex 5.11049 8.38344 -1.02668e-15
      vertex 4.52896 1.41249 -1.7298e-16
      vertex 4.58046 1.30161 -1.59401e-16
    endloop
  endfacet
  facet normal -8.28625e-23 1.22465e-16 1
    outer loop
      vertex 5.11049 8.38344 -1.02668e-15
      vertex 4.46443 1.51624 -1.85685e-16
      vertex 4.52896 1.41249 -1.7298e-16
    endloop
  endfacet
  facet normal -2.06253e-24 1.22465e-16 1
    outer loop
      vertex 5.11049 8.38344 -1.02668e-15
      vertex 4.39015 1.60858 -1.96994e-16
      vertex 4.46443 1.51624 -1.85685e-16
    endloop
  endfacet
  facet normal -2.48567e-23 1.22465e-16 1
    outer loop
      vertex 5.11049 8.38344 -1.02668e-15
      vertex 4.30252 1.69424 -2.07485e-16
      vertex 4.39015 1.60858 -1.96994e-16
    endloop
  endfacet
  facet normal -1.24217e-23 1.22465e-16 1
    outer loop
      vertex 5.11049 8.38344 -1.02668e-15
      vertex 4.20757 1.76649 -2.16333e-16
      vertex 4.30252 1.69424 -2.07485e-16
    endloop
  endfacet
  facet normal -9.61725e-24 1.22465e-16 1
    outer loop
      vertex 5.11049 8.38344 -1.02668e-15
      vertex 4.10046 1.82898 -2.23985e-16
      vertex 4.20757 1.76649 -2.16333e-16
    endloop
  endfacet
  facet normal 5.92864e-23 1.22465e-16 1
    outer loop
      vertex 5.11049 8.38344 -1.02668e-15
      vertex 3.98151 1.87929 -2.30146e-16
      vertex 4.10046 1.82898 -2.23985e-16
    endloop
  endfacet
  facet normal -5.28543e-23 1.22465e-16 1
    outer loop
      vertex 5.04704 8.38126 -1.02641e-15
      vertex 3.85864 1.91299 -2.34274e-16
      vertex 3.98151 1.87929 -2.30146e-16
    endloop
  endfacet
  facet normal 9.51151e-23 1.22465e-16 1
    outer loop
      vertex 5.04704 8.38126 -1.02641e-15
      vertex 3.72592 1.93134 -2.3652e-16
      vertex 3.85864 1.91299 -2.34274e-16
    endloop
  endfacet
  facet normal -0 1.22465e-16 1
    outer loop
      vertex -1.28996 8.38126 -1.02641e-15
      vertex 3.72592 1.93134 -2.3652e-16
      vertex 5.04704 8.38126 -1.02641e-15
    endloop
  endfacet
  facet normal -6.79851e-25 1.22465e-16 1
    outer loop
      vertex 3.72592 1.93134 -2.3652e-16
      vertex -1.28996 8.38126 -1.02641e-15
      vertex -1.28996 1.93417 -2.36868e-16
    endloop
  endfacet
  facet normal 4.51248e-24 1.22465e-16 1
    outer loop
      vertex 5.98621 9.02406 -1.10513e-15
      vertex 15.5 15.5 -1.8982e-15
      vertex 6.02182 9.14397 -1.11981e-15
    endloop
  endfacet
  facet normal 4.89954e-23 1.22465e-16 1
    outer loop
      vertex 15.5 -15.5 1.8982e-15
      vertex 6.02983 -9.78511 1.19833e-15
      vertex 6.04303 -9.9071 1.21327e-15
    endloop
  endfacet
  facet normal 6.45771e-22 1.22464e-16 1
    outer loop
      vertex 5.93687 8.91397 -1.09165e-15
      vertex 15.5 15.5 -1.8982e-15
      vertex 5.98621 9.02406 -1.10513e-15
    endloop
  endfacet
  facet normal 2.98495e-23 1.22465e-16 1
    outer loop
      vertex 15.5 -15.5 1.8982e-15
      vertex 5.99976 -9.66373 1.18347e-15
      vertex 6.02983 -9.78511 1.19833e-15
    endloop
  endfacet
  facet normal -8.22308e-26 1.22465e-16 1
    outer loop
      vertex 15.5 15.5 -1.8982e-15
      vertex 4.6498 0.955643 -1.17032e-16
      vertex 15.5 -15.5 1.8982e-15
    endloop
  endfacet
  facet normal -3.21845e-26 1.22465e-16 1
    outer loop
      vertex 4.64723 -1.62433 1.98923e-16
      vertex 15.5 -15.5 1.8982e-15
      vertex 4.6498 0.955643 -1.17032e-16
    endloop
  endfacet
  facet normal -1.0055e-23 1.22465e-16 1
    outer loop
      vertex 4.64105 1.06793 -1.30784e-16
      vertex 15.5 15.5 -1.8982e-15
      vertex 5.93687 8.91397 -1.09165e-15
    endloop
  endfacet
  facet normal 4.70367e-23 1.22465e-16 1
    outer loop
      vertex 4.63092 -1.74698 2.13943e-16
      vertex 15.5 -15.5 1.8982e-15
      vertex 4.64723 -1.62433 1.98923e-16
    endloop
  endfacet
  facet normal 3.24184e-22 1.22465e-16 1
    outer loop
      vertex 4.64105 1.06793 -1.30784e-16
      vertex 5.93687 8.91397 -1.09165e-15
      vertex 5.87398 8.81123 -1.07906e-15
    endloop
  endfacet
  facet normal -2.42235e-22 1.22464e-16 1
    outer loop
      vertex 15.5 -15.5 1.8982e-15
      vertex 5.95377 -9.54814 1.16931e-15
      vertex 5.99976 -9.66373 1.18347e-15
    endloop
  endfacet
  facet normal 2.63025e-23 1.22465e-16 1
    outer loop
      vertex 4.64105 1.06793 -1.30784e-16
      vertex 5.87398 8.81123 -1.07906e-15
      vertex 5.79605 8.71437 -1.0672e-15
    endloop
  endfacet
  facet normal 1.0582e-23 1.22465e-16 1
    outer loop
      vertex 15.5 -15.5 1.8982e-15
      vertex 4.63092 -1.74698 2.13943e-16
      vertex 5.95377 -9.54814 1.16931e-15
    endloop
  endfacet
  facet normal 1.94677e-22 1.22465e-16 1
    outer loop
      vertex 4.64105 1.06793 -1.30784e-16
      vertex 5.79605 8.71437 -1.0672e-15
      vertex 5.69388 8.61681 -1.05525e-15
    endloop
  endfacet
  facet normal -2.30719e-21 1.22464e-16 1
    outer loop
      vertex 5.95377 -9.54814 1.16931e-15
      vertex 4.63092 -1.74698 2.13943e-16
      vertex 5.89496 -9.44302 1.15644e-15
    endloop
  endfacet
  facet normal -3.47456e-22 1.22465e-16 1
    outer loop
      vertex 4.64105 1.06793 -1.30784e-16
      vertex 5.69388 8.61681 -1.05525e-15
      vertex 5.57867 8.53409 -1.04512e-15
    endloop
  endfacet
  facet normal -6.13027e-23 1.22465e-16 1
    outer loop
      vertex 4.5997 -1.86595 2.28513e-16
      vertex 5.89496 -9.44302 1.15644e-15
      vertex 4.63092 -1.74698 2.13943e-16
    endloop
  endfacet
  facet normal 1.08053e-22 1.22465e-16 1
    outer loop
      vertex 4.64105 1.06793 -1.30784e-16
      vertex 5.57867 8.53409 -1.04512e-15
      vertex 5.45615 8.46913 -1.03717e-15
    endloop
  endfacet
  facet normal 1.19369e-22 1.22465e-16 1
    outer loop
      vertex 5.89496 -9.44302 1.15644e-15
      vertex 4.5997 -1.86595 2.28513e-16
      vertex 5.82346 -9.34595 1.14455e-15
    endloop
  endfacet
  facet normal -2.10614e-22 1.22465e-16 1
    outer loop
      vertex 4.64105 1.06793 -1.30784e-16
      vertex 5.45615 8.46913 -1.03717e-15
      vertex 5.34517 8.42723 -1.03204e-15
    endloop
  endfacet
  facet normal 1.68275e-22 1.22465e-16 1
    outer loop
      vertex 4.55606 -1.97643 2.42042e-16
      vertex 5.82346 -9.34595 1.14455e-15
      vertex 4.5997 -1.86595 2.28513e-16
    endloop
  endfacet
  facet normal 2.56865e-22 1.22465e-16 1
    outer loop
      vertex 4.64105 1.06793 -1.30784e-16
      vertex 5.34517 8.42723 -1.03204e-15
      vertex 5.22578 8.39787 -1.02844e-15
    endloop
  endfacet
  facet normal 7.28385e-22 1.22465e-16 1
    outer loop
      vertex 5.82346 -9.34595 1.14455e-15
      vertex 4.55606 -1.97643 2.42042e-16
      vertex 5.72797 -9.24698 1.13243e-15
    endloop
  endfacet
  facet normal 2.44022e-23 1.22465e-16 1
    outer loop
      vertex 4.64105 1.06793 -1.30784e-16
      vertex 5.22578 8.39787 -1.02844e-15
      vertex 5.11049 8.38344 -1.02668e-15
    endloop
  endfacet
  facet normal 3.19026e-22 1.22465e-16 1
    outer loop
      vertex 3.98151 1.87929 -2.30146e-16
      vertex 5.11049 8.38344 -1.02668e-15
      vertex 5.04704 8.38126 -1.02641e-15
    endloop
  endfacet
  facet normal -1.39386e-22 1.22465e-16 1
    outer loop
      vertex 4.4977 -2.08392 2.55207e-16
      vertex 5.72797 -9.24698 1.13243e-15
      vertex 4.55606 -1.97643 2.42042e-16
    endloop
  endfacet
  facet normal -3.99704e-22 1.22465e-16 1
    outer loop
      vertex 5.72797 -9.24698 1.13243e-15
      vertex 4.4977 -2.08392 2.55207e-16
      vertex 5.61353 -9.15701 1.12141e-15
    endloop
  endfacet
  facet normal 2.09149e-23 1.22465e-16 1
    outer loop
      vertex 4.42926 -2.18071 2.6706e-16
      vertex 5.61353 -9.15701 1.12141e-15
      vertex 4.4977 -2.08392 2.55207e-16
    endloop
  endfacet
  facet normal 4.94256e-22 1.22465e-16 1
    outer loop
      vertex 5.61353 -9.15701 1.12141e-15
      vertex 4.42926 -2.18071 2.6706e-16
      vertex 5.49023 -9.08569 1.11268e-15
    endloop
  endfacet
  facet normal 7.15411e-23 1.22465e-16 1
    outer loop
      vertex 4.34703 -2.27135 2.7816e-16
      vertex 5.49023 -9.08569 1.11268e-15
      vertex 4.42926 -2.18071 2.6706e-16
    endloop
  endfacet
  facet normal 1.28212e-22 1.22465e-16 1
    outer loop
      vertex 5.49023 -9.08569 1.11268e-15
      vertex 4.34703 -2.27135 2.7816e-16
      vertex 5.35762 -9.03192 1.10609e-15
    endloop
  endfacet
  facet normal -1.06323e-23 1.22465e-16 1
    outer loop
      vertex 4.25409 -2.35147 2.87972e-16
      vertex 5.35762 -9.03192 1.10609e-15
      vertex 4.34703 -2.27135 2.7816e-16
    endloop
  endfacet
  facet normal -8.76881e-22 1.22465e-16 1
    outer loop
      vertex 5.35762 -9.03192 1.10609e-15
      vertex 4.25409 -2.35147 2.87972e-16
      vertex 5.23854 -9.00084 1.10228e-15
    endloop
  endfacet
  facet normal -5.4023e-23 1.22465e-16 1
    outer loop
      vertex 4.15146 -2.4198 2.9634e-16
      vertex 5.23854 -9.00084 1.10228e-15
      vertex 4.25409 -2.35147 2.87972e-16
    endloop
  endfacet
  facet normal 1.34432e-22 1.22465e-16 1
    outer loop
      vertex 5.23854 -9.00084 1.10228e-15
      vertex 4.15146 -2.4198 2.9634e-16
      vertex 5.11571 -8.98454 1.10029e-15
    endloop
  endfacet
  facet normal 9.48167e-23 1.22465e-16 1
    outer loop
      vertex 4.04018 -2.47516 3.0312e-16
      vertex 5.11571 -8.98454 1.10029e-15
      vertex 4.15146 -2.4198 2.9634e-16
    endloop
  endfacet
  facet normal -1.26639e-22 1.22465e-16 1
    outer loop
      vertex 3.92137 -2.51639 3.08169e-16
      vertex 5.11571 -8.98454 1.10029e-15
      vertex 4.04018 -2.47516 3.0312e-16
    endloop
  endfacet
  facet normal 1.16965e-22 1.22465e-16 1
    outer loop
      vertex 3.79237 -2.54282 3.11405e-16
      vertex 5.11571 -8.98454 1.10029e-15
      vertex 3.92137 -2.51639 3.08169e-16
    endloop
  endfacet
  facet normal -6.92163e-23 1.22465e-16 1
    outer loop
      vertex 3.67314 -2.55247 3.12588e-16
      vertex 5.11571 -8.98454 1.10029e-15
      vertex 3.79237 -2.54282 3.11405e-16
    endloop
  endfacet
  facet normal -2.8661e-24 1.22465e-16 1
    outer loop
      vertex -1.28996 -8.9818 1.09995e-15
      vertex 3.67314 -2.55247 3.12588e-16
      vertex -1.28996 -2.55272 3.12618e-16
    endloop
  endfacet
  facet normal 1.36132e-23 1.22465e-16 1
    outer loop
      vertex 3.67314 -2.55247 3.12588e-16
      vertex -1.28996 -8.9818 1.09995e-15
      vertex 5.11571 -8.98454 1.10029e-15
    endloop
  endfacet
  facet normal 1.19257e-23 1.22465e-16 1
    outer loop
      vertex 6.04066 9.26901 -1.13513e-15
      vertex 15.5 15.5 -1.8982e-15
      vertex 6.04378 11.8544 -1.45174e-15
    endloop
  endfacet
  facet normal -1.79815e-22 1.22465e-16 1
    outer loop
      vertex 15.5 15.5 -1.8982e-15
      vertex 6.03413 11.9736 -1.46634e-15
      vertex 6.04378 11.8544 -1.45174e-15
    endloop
  endfacet
  facet normal 1.167e-22 1.22464e-16 1
    outer loop
      vertex 15.5 15.5 -1.8982e-15
      vertex 6.00858 12.0989 -1.48169e-15
      vertex 6.03413 11.9736 -1.46634e-15
    endloop
  endfacet
  facet normal -8.39653e-23 1.22465e-16 1
    outer loop
      vertex 15.5 15.5 -1.8982e-15
      vertex 5.9666 12.2214 -1.49669e-15
      vertex 6.00858 12.0989 -1.48169e-15
    endloop
  endfacet
  facet normal -9.65642e-23 1.22465e-16 1
    outer loop
      vertex 15.5 15.5 -1.8982e-15
      vertex 5.91132 12.3327 -1.51031e-15
      vertex 5.9666 12.2214 -1.49669e-15
    endloop
  endfacet
  facet normal 8.32445e-23 1.22464e-16 1
    outer loop
      vertex 15.5 15.5 -1.8982e-15
      vertex 5.84306 12.4353 -1.52288e-15
      vertex 5.91132 12.3327 -1.51031e-15
    endloop
  endfacet
  facet normal -4.8462e-23 1.22465e-16 1
    outer loop
      vertex 15.5 15.5 -1.8982e-15
      vertex 5.76302 12.5282 -1.53427e-15
      vertex 5.84306 12.4353 -1.52288e-15
    endloop
  endfacet
  facet normal 1.65737e-22 1.22464e-16 1
    outer loop
      vertex 15.5 15.5 -1.8982e-15
      vertex 5.67241 12.6105 -1.54434e-15
      vertex 5.76302 12.5282 -1.53427e-15
    endloop
  endfacet
  facet normal -2.52386e-22 1.22466e-16 1
    outer loop
      vertex 15.5 15.5 -1.8982e-15
      vertex 5.57567 12.6789 -1.55272e-15
      vertex 5.67241 12.6105 -1.54434e-15
    endloop
  endfacet
  facet normal 4.8038e-23 1.22464e-16 1
    outer loop
      vertex 15.5 15.5 -1.8982e-15
      vertex 5.46815 12.7373 -1.55987e-15
      vertex 5.57567 12.6789 -1.55272e-15
    endloop
  endfacet
  facet normal 3.29818e-24 1.22465e-16 1
    outer loop
      vertex 15.5 15.5 -1.8982e-15
      vertex 5.35408 12.7822 -1.56537e-15
      vertex 5.46815 12.7373 -1.55987e-15
    endloop
  endfacet
  facet normal 3.56271e-23 1.22465e-16 1
    outer loop
      vertex 15.5 15.5 -1.8982e-15
      vertex 5.23854 12.8121 -1.56903e-15
      vertex 5.35408 12.7822 -1.56537e-15
    endloop
  endfacet
  facet normal -1.13631e-22 1.22465e-16 1
    outer loop
      vertex 15.5 15.5 -1.8982e-15
      vertex 5.11571 12.8284 -1.57103e-15
      vertex 5.23854 12.8121 -1.56903e-15
    endloop
  endfacet
  facet normal 1.36021e-24 1.22465e-16 1
    outer loop
      vertex 15.5 15.5 -1.8982e-15
      vertex -4.78099 12.8304 -1.57127e-15
      vertex 5.11571 12.8284 -1.57103e-15
    endloop
  endfacet
  facet normal -0 1.22465e-16 1
    outer loop
      vertex -15.5 15.5 -1.8982e-15
      vertex -4.78099 12.8304 -1.57127e-15
      vertex 15.5 15.5 -1.8982e-15
    endloop
  endfacet
  facet normal 1.53906e-24 1.22465e-16 1
    outer loop
      vertex -15.5 -15.5 1.8982e-15
      vertex -5.73906 11.8733 -1.45406e-15
      vertex -15.5 15.5 -1.8982e-15
    endloop
  endfacet
  facet normal -4.02382e-23 1.22465e-16 1
    outer loop
      vertex -5.72166 12.0325 -1.47356e-15
      vertex -15.5 15.5 -1.8982e-15
      vertex -5.73906 11.8733 -1.45406e-15
    endloop
  endfacet
  facet normal 1.13442e-22 1.22465e-16 1
    outer loop
      vertex -5.69084 12.1557 -1.48864e-15
      vertex -15.5 15.5 -1.8982e-15
      vertex -5.72166 12.0325 -1.47356e-15
    endloop
  endfacet
  facet normal 5.86909e-23 1.22465e-16 1
    outer loop
      vertex -5.6458 12.2717 -1.50285e-15
      vertex -15.5 15.5 -1.8982e-15
      vertex -5.69084 12.1557 -1.48864e-15
    endloop
  endfacet
  facet normal -6.9983e-23 1.22464e-16 1
    outer loop
      vertex -5.58733 12.3796 -1.51606e-15
      vertex -15.5 15.5 -1.8982e-15
      vertex -5.6458 12.2717 -1.50285e-15
    endloop
  endfacet
  facet normal 7.22162e-23 1.22465e-16 1
    outer loop
      vertex -5.51376 12.481 -1.52848e-15
      vertex -15.5 15.5 -1.8982e-15
      vertex -5.58733 12.3796 -1.51606e-15
    endloop
  endfacet
  facet normal -6.64398e-23 1.22464e-16 1
    outer loop
      vertex -5.43074 12.5689 -1.53925e-15
      vertex -15.5 15.5 -1.8982e-15
      vertex -5.51376 12.481 -1.52848e-15
    endloop
  endfacet
  facet normal -1.82903e-22 1.22464e-16 1
    outer loop
      vertex -5.33711 12.6456 -1.54864e-15
      vertex -15.5 15.5 -1.8982e-15
      vertex -5.43074 12.5689 -1.53925e-15
    endloop
  endfacet
  facet normal 9.09494e-23 1.22465e-16 1
    outer loop
      vertex -5.2339 12.7102 -1.55655e-15
      vertex -15.5 15.5 -1.8982e-15
      vertex -5.33711 12.6456 -1.54864e-15
    endloop
  endfacet
  facet normal 7.20977e-23 1.22465e-16 1
    outer loop
      vertex -5.12216 12.7617 -1.56285e-15
      vertex -15.5 15.5 -1.8982e-15
      vertex -5.2339 12.7102 -1.55655e-15
    endloop
  endfacet
  facet normal 1.10442e-22 1.22465e-16 1
    outer loop
      vertex -5.00299 12.7994 -1.56747e-15
      vertex -15.5 15.5 -1.8982e-15
      vertex -5.12216 12.7617 -1.56285e-15
    endloop
  endfacet
  facet normal -3.08693e-22 1.22463e-16 1
    outer loop
      vertex -4.88507 12.8219 -1.57023e-15
      vertex -15.5 15.5 -1.8982e-15
      vertex -5.00299 12.7994 -1.56747e-15
    endloop
  endfacet
  facet normal 3.40358e-22 1.22466e-16 1
    outer loop
      vertex -4.78099 12.8304 -1.57127e-15
      vertex -15.5 15.5 -1.8982e-15
      vertex -4.88507 12.8219 -1.57023e-15
    endloop
  endfacet
  facet normal -1.72982e-22 1.22465e-16 1
    outer loop
      vertex 6.02182 9.14397 -1.11981e-15
      vertex 15.5 15.5 -1.8982e-15
      vertex 6.04066 9.26901 -1.13513e-15
    endloop
  endfacet
  facet normal -2.16666e-24 1.22465e-16 1
    outer loop
      vertex 6.04112 -12.5076 1.53174e-15
      vertex 15.5 -15.5 1.8982e-15
      vertex 6.04303 -9.9071 1.21327e-15
    endloop
  endfacet
  facet normal -1.14438e-22 1.22464e-16 1
    outer loop
      vertex 6.02278 -12.6404 1.548e-15
      vertex 15.5 -15.5 1.8982e-15
      vertex 6.04112 -12.5076 1.53174e-15
    endloop
  endfacet
  facet normal 1.98268e-22 1.22465e-16 1
    outer loop
      vertex 5.98907 -12.7633 1.56306e-15
      vertex 15.5 -15.5 1.8982e-15
      vertex 6.02278 -12.6404 1.548e-15
    endloop
  endfacet
  facet normal 2.68577e-24 1.22465e-16 1
    outer loop
      vertex 5.93875 -12.8824 1.57763e-15
      vertex 15.5 -15.5 1.8982e-15
      vertex 5.98907 -12.7633 1.56306e-15
    endloop
  endfacet
  facet normal -8.15948e-23 1.22464e-16 1
    outer loop
      vertex 5.87625 -12.9895 1.59076e-15
      vertex 15.5 -15.5 1.8982e-15
      vertex 5.93875 -12.8824 1.57763e-15
    endloop
  endfacet
  facet normal -9.55263e-23 1.22464e-16 1
    outer loop
      vertex 5.80396 -13.0846 1.6024e-15
      vertex 15.5 -15.5 1.8982e-15
      vertex 5.87625 -12.9895 1.59076e-15
    endloop
  endfacet
  facet normal 1.14151e-22 1.22465e-16 1
    outer loop
      vertex 5.71823 -13.1724 1.61315e-15
      vertex 15.5 -15.5 1.8982e-15
      vertex 5.80396 -13.0846 1.6024e-15
    endloop
  endfacet
  facet normal -6.98096e-23 1.22464e-16 1
    outer loop
      vertex 5.62582 -13.2468 1.62226e-15
      vertex 15.5 -15.5 1.8982e-15
      vertex 5.71823 -13.1724 1.61315e-15
    endloop
  endfacet
  facet normal -6.93158e-23 1.22464e-16 1
    outer loop
      vertex 5.52199 -13.3114 1.63018e-15
      vertex 15.5 -15.5 1.8982e-15
      vertex 5.62582 -13.2468 1.62226e-15
    endloop
  endfacet
  facet normal 1.99903e-22 1.22466e-16 1
    outer loop
      vertex 5.41098 -13.363 1.6365e-15
      vertex 15.5 -15.5 1.8982e-15
      vertex 5.52199 -13.3114 1.63018e-15
    endloop
  endfacet
  facet normal 4.81462e-23 1.22465e-16 1
    outer loop
      vertex 5.29793 -13.4 1.64103e-15
      vertex 15.5 -15.5 1.8982e-15
      vertex 5.41098 -13.363 1.6365e-15
    endloop
  endfacet
  facet normal -9.94344e-23 1.22464e-16 1
    outer loop
      vertex 5.17699 -13.4237 1.64393e-15
      vertex 15.5 -15.5 1.8982e-15
      vertex 5.29793 -13.4 1.64103e-15
    endloop
  endfacet
  facet normal -1.26044e-22 1.22464e-16 1
    outer loop
      vertex 5.06448 -13.4325 1.64501e-15
      vertex 15.5 -15.5 1.8982e-15
      vertex 5.17699 -13.4237 1.64393e-15
    endloop
  endfacet
  facet normal 3.79926e-25 1.22465e-16 1
    outer loop
      vertex -4.81483 -13.4299 1.64469e-15
      vertex 15.5 -15.5 1.8982e-15
      vertex 5.06448 -13.4325 1.64501e-15
    endloop
  endfacet
  facet normal -5.79284e-25 1.22465e-16 1
    outer loop
      vertex -5.73906 11.8733 -1.45406e-15
      vertex -15.5 -15.5 1.8982e-15
      vertex -5.73972 -12.4548 1.52528e-15
    endloop
  endfacet
  facet normal -7.00408e-23 1.22465e-16 1
    outer loop
      vertex -5.73972 -12.4548 1.52528e-15
      vertex -15.5 -15.5 1.8982e-15
      vertex -5.73094 -12.5741 1.53988e-15
    endloop
  endfacet
  facet normal 6.80246e-23 1.22464e-16 1
    outer loop
      vertex -5.73094 -12.5741 1.53988e-15
      vertex -15.5 -15.5 1.8982e-15
      vertex -5.70799 -12.6958 1.55479e-15
    endloop
  endfacet
  facet normal 0 1.22465e-16 1
    outer loop
      vertex -4.81483 -13.4299 1.64469e-15
      vertex -15.5 -15.5 1.8982e-15
      vertex 15.5 -15.5 1.8982e-15
    endloop
  endfacet
  facet normal 2.08366e-22 1.22464e-16 1
    outer loop
      vertex -4.94026 -13.4144 1.6428e-15
      vertex -15.5 -15.5 1.8982e-15
      vertex -4.81483 -13.4299 1.64469e-15
    endloop
  endfacet
  facet normal -2.40652e-22 1.22466e-16 1
    outer loop
      vertex -5.06348 -13.3836 1.63902e-15
      vertex -15.5 -15.5 1.8982e-15
      vertex -4.94026 -13.4144 1.6428e-15
    endloop
  endfacet
  facet normal -2.76048e-23 1.22465e-16 1
    outer loop
      vertex -5.17961 -13.3386 1.63351e-15
      vertex -15.5 -15.5 1.8982e-15
      vertex -5.06348 -13.3836 1.63902e-15
    endloop
  endfacet
  facet normal 1.45542e-23 1.22465e-16 1
    outer loop
      vertex -5.28755 -13.2801 1.62635e-15
      vertex -15.5 -15.5 1.8982e-15
      vertex -5.17961 -13.3386 1.63351e-15
    endloop
  endfacet
  facet normal -3.76133e-23 1.22465e-16 1
    outer loop
      vertex -5.38979 -13.2059 1.61726e-15
      vertex -15.5 -15.5 1.8982e-15
      vertex -5.28755 -13.2801 1.62635e-15
    endloop
  endfacet
  facet normal 9.95904e-23 1.22464e-16 1
    outer loop
      vertex -5.4747 -13.1264 1.60752e-15
      vertex -15.5 -15.5 1.8982e-15
      vertex -5.38979 -13.2059 1.61726e-15
    endloop
  endfacet
  facet normal 8.79264e-23 1.22464e-16 1
    outer loop
      vertex -5.55399 -13.0299 1.5957e-15
      vertex -15.5 -15.5 1.8982e-15
      vertex -5.4747 -13.1264 1.60752e-15
    endloop
  endfacet
  facet normal -9.62659e-24 1.22465e-16 1
    outer loop
      vertex -5.61862 -12.9267 1.58306e-15
      vertex -15.5 -15.5 1.8982e-15
      vertex -5.55399 -13.0299 1.5957e-15
    endloop
  endfacet
  facet normal -5.30469e-23 1.22465e-16 1
    outer loop
      vertex -5.67021 -12.815 1.56938e-15
      vertex -15.5 -15.5 1.8982e-15
      vertex -5.61862 -12.9267 1.58306e-15
    endloop
  endfacet
  facet normal -3.5365e-23 1.22465e-16 1
    outer loop
      vertex -5.70799 -12.6958 1.55479e-15
      vertex -15.5 -15.5 1.8982e-15
      vertex -5.67021 -12.815 1.56938e-15
    endloop
  endfacet
  facet normal 1 0 0
    outer loop
      vertex 16.5 -7.15 15
      vertex 16.5 -16.5 15
      vertex 16.5 -7.15 13.3
    endloop
  endfacet
  facet normal 1 0 0
    outer loop
      vertex 16.5 7.15 13.3
      vertex 16.5 16.5 15
      vertex 16.5 7.15 15
    endloop
  endfacet
  facet normal 1 0 0
    outer loop
      vertex 16.5 16.5 15
      vertex 16.5 7.15 13.3
      vertex 16.5 16.5 -1
    endloop
  endfacet
  facet normal 1 -0 0
    outer loop
      vertex 16.5 -7.15 13.3
      vertex 16.5 16.5 -1
      vertex 16.5 7.15 13.3
    endloop
  endfacet
  facet normal 1 0 0
    outer loop
      vertex 16.5 -16.5 -1
      vertex 16.5 -7.15 13.3
      vertex 16.5 -16.5 15
    endloop
  endfacet
  facet normal 1 0 0
    outer loop
      vertex 16.5 -7.15 13.3
      vertex 16.5 -16.5 -1
      vertex 16.5 16.5 -1
    endloop
  endfacet
  facet normal 0 -1 0
    outer loop
      vertex -16.5 -16.5 15
      vertex -7.15 -16.5 13.3
      vertex -7.15 -16.5 15
    endloop
  endfacet
  facet normal 0 -1 -0
    outer loop
      vertex -7.15 -16.5 13.3
      vertex -16.5 -16.5 -1
      vertex 7.15 -16.5 13.3
    endloop
  endfacet
  facet normal 0 -1 0
    outer loop
      vertex -16.5 -16.5 -1
      vertex -7.15 -16.5 13.3
      vertex -16.5 -16.5 15
    endloop
  endfacet
  facet normal 0 -1 0
    outer loop
      vertex 7.15 -16.5 13.3
      vertex 16.5 -16.5 15
      vertex 7.15 -16.5 15
    endloop
  endfacet
  facet normal 0 -1 0
    outer loop
      vertex 16.5 -16.5 -1
      vertex 7.15 -16.5 13.3
      vertex -16.5 -16.5 -1
    endloop
  endfacet
  facet normal 0 -1 0
    outer loop
      vertex 7.15 -16.5 13.3
      vertex 16.5 -16.5 -1
      vertex 16.5 -16.5 15
    endloop
  endfacet
  facet normal 0 0 1
    outer loop
      vertex -15.5 -7.15 15
      vertex -16.5 -7.15 15
      vertex -15.5 -15.5 15
    endloop
  endfacet
  facet normal -0 0 1
    outer loop
      vertex -15.5 -15.5 15
      vertex -7.15 -16.5 15
      vertex -7.15 -15.5 15
    endloop
  endfacet
  facet normal 0 0 1
    outer loop
      vertex -15.5 -15.5 15
      vertex -16.5 -16.5 15
      vertex -7.15 -16.5 15
    endloop
  endfacet
  facet normal 0 0 1
    outer loop
      vertex -16.5 -16.5 15
      vertex -15.5 -15.5 15
      vertex -16.5 -7.15 15
    endloop
  endfacet
  facet normal 0 0 1
    outer loop
      vertex -7.15 16.5 15
      vertex -15.5 15.5 15
      vertex -7.15 15.5 15
    endloop
  endfacet
  facet normal -0 0 1
    outer loop
      vertex -16.5 16.5 15
      vertex -15.5 15.5 15
      vertex -7.15 16.5 15
    endloop
  endfacet
  facet normal 0 0 1
    outer loop
      vertex -16.5 7.15 15
      vertex -15.5 15.5 15
      vertex -16.5 16.5 15
    endloop
  endfacet
  facet normal 0 0 1
    outer loop
      vertex -15.5 15.5 15
      vertex -16.5 7.15 15
      vertex -15.5 7.15 15
    endloop
  endfacet
  facet normal 0 0 1
    outer loop
      vertex 16.5 16.5 15
      vertex 15.5 15.5 15
      vertex 16.5 7.15 15
    endloop
  endfacet
  facet normal -0 0 1
    outer loop
      vertex 7.15 16.5 15
      vertex 15.5 15.5 15
      vertex 16.5 16.5 15
    endloop
  endfacet
  facet normal 0 0 1
    outer loop
      vertex 15.5 15.5 15
      vertex 7.15 16.5 15
      vertex 7.15 15.5 15
    endloop
  endfacet
  facet normal 0 0 1
    outer loop
      vertex 16.5 7.15 15
      vertex 15.5 15.5 15
      vertex 15.5 7.15 15
    endloop
  endfacet
  facet normal 0 0 1
    outer loop
      vertex 15.5 -15.5 15
      vertex 16.5 -7.15 15
      vertex 15.5 -7.15 15
    endloop
  endfacet
  facet normal 0 0 1
    outer loop
      vertex 16.5 -7.15 15
      vertex 15.5 -15.5 15
      vertex 16.5 -16.5 15
    endloop
  endfacet
  facet normal 0 0 1
    outer loop
      vertex 7.15 -16.5 15
      vertex 15.5 -15.5 15
      vertex 7.15 -15.5 15
    endloop
  endfacet
  facet normal 0 0 1
    outer loop
      vertex 15.5 -15.5 15
      vertex 7.15 -16.5 15
      vertex 16.5 -16.5 15
    endloop
  endfacet
  facet normal 0 1 0
    outer loop
      vertex 16.5 16.5 15
      vertex 7.15 16.5 13.3
      vertex 7.15 16.5 15
    endloop
  endfacet
  facet normal 0 1 0
    outer loop
      vertex 7.15 16.5 13.3
      vertex 16.5 16.5 -1
      vertex -7.15 16.5 13.3
    endloop
  endfacet
  facet normal 0 1 -0
    outer loop
      vertex 16.5 16.5 -1
      vertex 7.15 16.5 13.3
      vertex 16.5 16.5 15
    endloop
  endfacet
  facet normal 0 1 -0
    outer loop
      vertex -7.15 16.5 13.3
      vertex -16.5 16.5 15
      vertex -7.15 16.5 15
    endloop
  endfacet
  facet normal 0 1 0
    outer loop
      vertex -16.5 16.5 -1
      vertex -7.15 16.5 13.3
      vertex 16.5 16.5 -1
    endloop
  endfacet
  facet normal 0 1 0
    outer loop
      vertex -7.15 16.5 13.3
      vertex -16.5 16.5 -1
      vertex -16.5 16.5 15
    endloop
  endfacet
  facet normal 1 0 0
    outer loop
      vertex -15.5 -7.15 15
      vertex -15.5 -15.5 15
      vertex -15.5 -7.15 13.3
    endloop
  endfacet
  facet normal 1 0 0
    outer loop
      vertex -15.5 7.15 13.3
      vertex -15.5 15.5 15
      vertex -15.5 7.15 15
    endloop
  endfacet
  facet normal 1 0 0
    outer loop
      vertex -15.5 15.5 15
      vertex -15.5 7.15 13.3
      vertex -15.5 15.5 -1.8982e-15
    endloop
  endfacet
  facet normal 1 -0 0
    outer loop
      vertex -15.5 -7.15 13.3
      vertex -15.5 15.5 -1.8982e-15
      vertex -15.5 7.15 13.3
    endloop
  endfacet
  facet normal 1 0 0
    outer loop
      vertex -15.5 -15.5 1.8982e-15
      vertex -15.5 -7.15 13.3
      vertex -15.5 -15.5 15
    endloop
  endfacet
  facet normal 1 0 0
    outer loop
      vertex -15.5 -7.15 13.3
      vertex -15.5 -15.5 1.8982e-15
      vertex -15.5 15.5 -1.8982e-15
    endloop
  endfacet
  facet normal -1 0 0
    outer loop
      vertex 15.5 15.5 -1.8982e-15
      vertex 15.5 7.15 13.3
      vertex 15.5 15.5 15
    endloop
  endfacet
  facet normal -1 0 0
    outer loop
      vertex 15.5 15.5 -1.8982e-15
      vertex 15.5 -7.15 13.3
      vertex 15.5 7.15 13.3
    endloop
  endfacet
  facet normal -1 0 0
    outer loop
      vertex 15.5 -15.5 1.8982e-15
      vertex 15.5 -7.15 13.3
      vertex 15.5 15.5 -1.8982e-15
    endloop
  endfacet
  facet normal -1 0 0
    outer loop
      vertex 15.5 -15.5 15
      vertex 15.5 -7.15 13.3
      vertex 15.5 -15.5 1.8982e-15
    endloop
  endfacet
  facet normal -1 0 0
    outer loop
      vertex 15.5 -7.15 13.3
      vertex 15.5 -15.5 15
      vertex 15.5 -7.15 15
    endloop
  endfacet
  facet normal -1 -0 0
    outer loop
      vertex 15.5 15.5 15
      vertex 15.5 7.15 13.3
      vertex 15.5 7.15 15
    endloop
  endfacet
  facet normal 0 1 0
    outer loop
      vertex 15.5 -15.5 15
      vertex 7.15 -15.5 13.3
      vertex 7.15 -15.5 15
    endloop
  endfacet
  facet normal 0 1 0
    outer loop
      vertex 7.15 -15.5 13.3
      vertex 15.5 -15.5 1.8982e-15
      vertex -7.15 -15.5 13.3
    endloop
  endfacet
  facet normal 0 1 -0
    outer loop
      vertex 15.5 -15.5 1.8982e-15
      vertex 7.15 -15.5 13.3
      vertex 15.5 -15.5 15
    endloop
  endfacet
  facet normal 0 1 -0
    outer loop
      vertex -7.15 -15.5 13.3
      vertex -15.5 -15.5 15
      vertex -7.15 -15.5 15
    endloop
  endfacet
  facet normal 0 1 0
    outer loop
      vertex -15.5 -15.5 1.8982e-15
      vertex -7.15 -15.5 13.3
      vertex 15.5 -15.5 1.8982e-15
    endloop
  endfacet
  facet normal 0 1 0
    outer loop
      vertex -7.15 -15.5 13.3
      vertex -15.5 -15.5 1.8982e-15
      vertex -15.5 -15.5 15
    endloop
  endfacet
  facet normal 0 -1 0
    outer loop
      vertex -15.5 15.5 15
      vertex -7.15 15.5 13.3
      vertex -7.15 15.5 15
    endloop
  endfacet
  facet normal 0 -1 -0
    outer loop
      vertex -7.15 15.5 13.3
      vertex -15.5 15.5 -1.8982e-15
      vertex 7.15 15.5 13.3
    endloop
  endfacet
  facet normal 0 -1 0
    outer loop
      vertex -15.5 15.5 -1.8982e-15
      vertex -7.15 15.5 13.3
      vertex -15.5 15.5 15
    endloop
  endfacet
  facet normal 0 -1 0
    outer loop
      vertex 7.15 15.5 13.3
      vertex 15.5 15.5 15
      vertex 7.15 15.5 15
    endloop
  endfacet
  facet normal 0 -1 0
    outer loop
      vertex 15.5 15.5 -1.8982e-15
      vertex 7.15 15.5 13.3
      vertex -15.5 15.5 -1.8982e-15
    endloop
  endfacet
  facet normal 0 -1 0
    outer loop
      vertex 7.15 15.5 13.3
      vertex 15.5 15.5 -1.8982e-15
      vertex 15.5 15.5 15
    endloop
  endfacet
  facet normal 0 0 -1
    outer loop
      vertex 4.6498 0.955643 -1
      vertex 16.5 16.5 -1
      vertex 16.5 -16.5 -1
    endloop
  endfacet
  facet normal 0 0 -1
    outer loop
      vertex 6.02983 -9.78511 -1
      vertex 16.5 -16.5 -1
      vertex 6.04303 -9.9071 -1
    endloop
  endfacet
  facet normal 0 0 -1
    outer loop
      vertex 16.5 -16.5 -1
      vertex 6.04112 -12.5076 -1
      vertex 6.04303 -9.9071 -1
    endloop
  endfacet
  facet normal 0 0 -1
    outer loop
      vertex 16.5 -16.5 -1
      vertex 6.02278 -12.6404 -1
      vertex 6.04112 -12.5076 -1
    endloop
  endfacet
  facet normal 0 0 -1
    outer loop
      vertex 16.5 -16.5 -1
      vertex 5.98907 -12.7633 -1
      vertex 6.02278 -12.6404 -1
    endloop
  endfacet
  facet normal 0 0 -1
    outer loop
      vertex 16.5 -16.5 -1
      vertex 5.93875 -12.8824 -1
      vertex 5.98907 -12.7633 -1
    endloop
  endfacet
  facet normal 0 0 -1
    outer loop
      vertex 16.5 -16.5 -1
      vertex 5.87625 -12.9895 -1
      vertex 5.93875 -12.8824 -1
    endloop
  endfacet
  facet normal 0 0 -1
    outer loop
      vertex 16.5 -16.5 -1
      vertex 5.80396 -13.0846 -1
      vertex 5.87625 -12.9895 -1
    endloop
  endfacet
  facet normal 0 0 -1
    outer loop
      vertex 16.5 -16.5 -1
      vertex 5.71823 -13.1724 -1
      vertex 5.80396 -13.0846 -1
    endloop
  endfacet
  facet normal 0 0 -1
    outer loop
      vertex 16.5 -16.5 -1
      vertex 5.62582 -13.2468 -1
      vertex 5.71823 -13.1724 -1
    endloop
  endfacet
  facet normal 0 0 -1
    outer loop
      vertex 16.5 -16.5 -1
      vertex 5.52199 -13.3114 -1
      vertex 5.62582 -13.2468 -1
    endloop
  endfacet
  facet normal 0 0 -1
    outer loop
      vertex 16.5 -16.5 -1
      vertex 5.41098 -13.363 -1
      vertex 5.52199 -13.3114 -1
    endloop
  endfacet
  facet normal 0 0 -1
    outer loop
      vertex 16.5 -16.5 -1
      vertex 5.29793 -13.4 -1
      vertex 5.41098 -13.363 -1
    endloop
  endfacet
  facet normal 0 0 -1
    outer loop
      vertex 16.5 -16.5 -1
      vertex 5.17699 -13.4237 -1
      vertex 5.29793 -13.4 -1
    endloop
  endfacet
  facet normal 0 0 -1
    outer loop
      vertex 16.5 -16.5 -1
      vertex 5.06448 -13.4325 -1
      vertex 5.17699 -13.4237 -1
    endloop
  endfacet
  facet normal 0 0 -1
    outer loop
      vertex 16.5 -16.5 -1
      vertex -4.81483 -13.4299 -1
      vertex 5.06448 -13.4325 -1
    endloop
  endfacet
  facet normal 0 0 -1
    outer loop
      vertex -16.5 -16.5 -1
      vertex -4.81483 -13.4299 -1
      vertex 16.5 -16.5 -1
    endloop
  endfacet
  facet normal -0 0 -1
    outer loop
      vertex -5.73094 -12.5741 -1
      vertex -16.5 -16.5 -1
      vertex -5.73972 -12.4548 -1
    endloop
  endfacet
  facet normal -0 0 -1
    outer loop
      vertex -5.70799 -12.6958 -1
      vertex -16.5 -16.5 -1
      vertex -5.73094 -12.5741 -1
    endloop
  endfacet
  facet normal -0 0 -1
    outer loop
      vertex -5.67021 -12.815 -1
      vertex -16.5 -16.5 -1
      vertex -5.70799 -12.6958 -1
    endloop
  endfacet
  facet normal -0 0 -1
    outer loop
      vertex -5.61862 -12.9267 -1
      vertex -16.5 -16.5 -1
      vertex -5.67021 -12.815 -1
    endloop
  endfacet
  facet normal -0 0 -1
    outer loop
      vertex -5.55399 -13.0299 -1
      vertex -16.5 -16.5 -1
      vertex -5.61862 -12.9267 -1
    endloop
  endfacet
  facet normal -0 0 -1
    outer loop
      vertex -5.4747 -13.1264 -1
      vertex -16.5 -16.5 -1
      vertex -5.55399 -13.0299 -1
    endloop
  endfacet
  facet normal -0 0 -1
    outer loop
      vertex -5.38979 -13.2059 -1
      vertex -16.5 -16.5 -1
      vertex -5.4747 -13.1264 -1
    endloop
  endfacet
  facet normal -0 0 -1
    outer loop
      vertex -5.28755 -13.2801 -1
      vertex -16.5 -16.5 -1
      vertex -5.38979 -13.2059 -1
    endloop
  endfacet
  facet normal -0 0 -1
    outer loop
      vertex -5.17961 -13.3386 -1
      vertex -16.5 -16.5 -1
      vertex -5.28755 -13.2801 -1
    endloop
  endfacet
  facet normal -0 0 -1
    outer loop
      vertex -5.06348 -13.3836 -1
      vertex -16.5 -16.5 -1
      vertex -5.17961 -13.3386 -1
    endloop
  endfacet
  facet normal -0 0 -1
    outer loop
      vertex -4.94026 -13.4144 -1
      vertex -16.5 -16.5 -1
      vertex -5.06348 -13.3836 -1
    endloop
  endfacet
  facet normal -0 0 -1
    outer loop
      vertex -4.81483 -13.4299 -1
      vertex -16.5 -16.5 -1
      vertex -4.94026 -13.4144 -1
    endloop
  endfacet
  facet normal 0 0 -1
    outer loop
      vertex 6.03413 11.9736 -1
      vertex 16.5 16.5 -1
      vertex 6.04378 11.8544 -1
    endloop
  endfacet
  facet normal 0 0 -1
    outer loop
      vertex 6.00858 12.0989 -1
      vertex 16.5 16.5 -1
      vertex 6.03413 11.9736 -1
    endloop
  endfacet
  facet normal 0 0 -1
    outer loop
      vertex 5.9666 12.2214 -1
      vertex 16.5 16.5 -1
      vertex 6.00858 12.0989 -1
    endloop
  endfacet
  facet normal 0 0 -1
    outer loop
      vertex 5.91132 12.3327 -1
      vertex 16.5 16.5 -1
      vertex 5.9666 12.2214 -1
    endloop
  endfacet
  facet normal 0 0 -1
    outer loop
      vertex 5.84306 12.4353 -1
      vertex 16.5 16.5 -1
      vertex 5.91132 12.3327 -1
    endloop
  endfacet
  facet normal 0 0 -1
    outer loop
      vertex 5.76302 12.5282 -1
      vertex 16.5 16.5 -1
      vertex 5.84306 12.4353 -1
    endloop
  endfacet
  facet normal 0 0 -1
    outer loop
      vertex 5.67241 12.6105 -1
      vertex 16.5 16.5 -1
      vertex 5.76302 12.5282 -1
    endloop
  endfacet
  facet normal 0 0 -1
    outer loop
      vertex 5.57567 12.6789 -1
      vertex 16.5 16.5 -1
      vertex 5.67241 12.6105 -1
    endloop
  endfacet
  facet normal 0 0 -1
    outer loop
      vertex 5.46815 12.7373 -1
      vertex 16.5 16.5 -1
      vertex 5.57567 12.6789 -1
    endloop
  endfacet
  facet normal 0 0 -1
    outer loop
      vertex 5.35408 12.7822 -1
      vertex 16.5 16.5 -1
      vertex 5.46815 12.7373 -1
    endloop
  endfacet
  facet normal 0 0 -1
    outer loop
      vertex 5.23854 12.8121 -1
      vertex 16.5 16.5 -1
      vertex 5.35408 12.7822 -1
    endloop
  endfacet
  facet normal 0 0 -1
    outer loop
      vertex 5.11571 12.8284 -1
      vertex 16.5 16.5 -1
      vertex 5.23854 12.8121 -1
    endloop
  endfacet
  facet normal 0 0 -1
    outer loop
      vertex -4.78099 12.8304 -1
      vertex 16.5 16.5 -1
      vertex 5.11571 12.8284 -1
    endloop
  endfacet
  facet normal 0 0 -1
    outer loop
      vertex -16.5 16.5 -1
      vertex -4.78099 12.8304 -1
      vertex -4.88507 12.8219 -1
    endloop
  endfacet
  facet normal 0 0 -1
    outer loop
      vertex -16.5 -16.5 -1
      vertex -5.73906 11.8733 -1
      vertex -5.73972 -12.4548 -1
    endloop
  endfacet
  facet normal 0 0 -1
    outer loop
      vertex -16.5 16.5 -1
      vertex -5.73906 11.8733 -1
      vertex -16.5 -16.5 -1
    endloop
  endfacet
  facet normal 0 0 -1
    outer loop
      vertex -5.73906 11.8733 -1
      vertex -16.5 16.5 -1
      vertex -5.72166 12.0325 -1
    endloop
  endfacet
  facet normal 0 0 -1
    outer loop
      vertex -4.78099 12.8304 -1
      vertex -16.5 16.5 -1
      vertex 16.5 16.5 -1
    endloop
  endfacet
  facet normal 0 0 -1
    outer loop
      vertex -5.00299 12.7994 -1
      vertex -16.5 16.5 -1
      vertex -4.88507 12.8219 -1
    endloop
  endfacet
  facet normal 0 0 -1
    outer loop
      vertex -5.12216 12.7617 -1
      vertex -16.5 16.5 -1
      vertex -5.00299 12.7994 -1
    endloop
  endfacet
  facet normal 0 0 -1
    outer loop
      vertex -5.2339 12.7102 -1
      vertex -16.5 16.5 -1
      vertex -5.12216 12.7617 -1
    endloop
  endfacet
  facet normal 0 0 -1
    outer loop
      vertex -5.33711 12.6456 -1
      vertex -16.5 16.5 -1
      vertex -5.2339 12.7102 -1
    endloop
  endfacet
  facet normal 0 0 -1
    outer loop
      vertex -5.43074 12.5689 -1
      vertex -16.5 16.5 -1
      vertex -5.33711 12.6456 -1
    endloop
  endfacet
  facet normal 0 0 -1
    outer loop
      vertex -5.51376 12.481 -1
      vertex -16.5 16.5 -1
      vertex -5.43074 12.5689 -1
    endloop
  endfacet
  facet normal 0 0 -1
    outer loop
      vertex -5.58733 12.3796 -1
      vertex -16.5 16.5 -1
      vertex -5.51376 12.481 -1
    endloop
  endfacet
  facet normal 0 0 -1
    outer loop
      vertex -5.6458 12.2717 -1
      vertex -16.5 16.5 -1
      vertex -5.58733 12.3796 -1
    endloop
  endfacet
  facet normal 0 0 -1
    outer loop
      vertex -5.69084 12.1557 -1
      vertex -16.5 16.5 -1
      vertex -5.6458 12.2717 -1
    endloop
  endfacet
  facet normal 0 0 -1
    outer loop
      vertex -5.72166 12.0325 -1
      vertex -16.5 16.5 -1
      vertex -5.69084 12.1557 -1
    endloop
  endfacet
  facet normal 0 0 -1
    outer loop
      vertex 16.5 16.5 -1
      vertex 6.04066 9.26901 -1
      vertex 6.04378 11.8544 -1
    endloop
  endfacet
  facet normal 0 0 -1
    outer loop
      vertex 5.99976 -9.66373 -1
      vertex 16.5 -16.5 -1
      vertex 6.02983 -9.78511 -1
    endloop
  endfacet
  facet normal 0 0 -1
    outer loop
      vertex 16.5 16.5 -1
      vertex 6.02182 9.14397 -1
      vertex 6.04066 9.26901 -1
    endloop
  endfacet
  facet normal 0 0 -1
    outer loop
      vertex 5.95377 -9.54814 -1
      vertex 16.5 -16.5 -1
      vertex 5.99976 -9.66373 -1
    endloop
  endfacet
  facet normal 0 0 -1
    outer loop
      vertex 16.5 16.5 -1
      vertex 5.98621 9.02406 -1
      vertex 6.02182 9.14397 -1
    endloop
  endfacet
  facet normal 0 0 -1
    outer loop
      vertex 4.63092 -1.74698 -1
      vertex 16.5 -16.5 -1
      vertex 5.95377 -9.54814 -1
    endloop
  endfacet
  facet normal 0 0 -1
    outer loop
      vertex 4.64105 1.06793 -1
      vertex 16.5 16.5 -1
      vertex 4.6498 0.955643 -1
    endloop
  endfacet
  facet normal 0 0 -1
    outer loop
      vertex 4.63092 -1.74698 -1
      vertex 5.95377 -9.54814 -1
      vertex 5.89496 -9.44302 -1
    endloop
  endfacet
  facet normal 0 -0 -1
    outer loop
      vertex 5.93687 8.91397 -1
      vertex 16.5 16.5 -1
      vertex 4.64105 1.06793 -1
    endloop
  endfacet
  facet normal 0 0 -1
    outer loop
      vertex 4.5997 -1.86595 -1
      vertex 5.89496 -9.44302 -1
      vertex 5.82346 -9.34595 -1
    endloop
  endfacet
  facet normal 0 0 -1
    outer loop
      vertex 16.5 16.5 -1
      vertex 5.93687 8.91397 -1
      vertex 5.98621 9.02406 -1
    endloop
  endfacet
  facet normal 0 0 -1
    outer loop
      vertex 4.55606 -1.97643 -1
      vertex 5.82346 -9.34595 -1
      vertex 5.72797 -9.24698 -1
    endloop
  endfacet
  facet normal 0 0 -1
    outer loop
      vertex 4.61739 1.18869 -1
      vertex 5.93687 8.91397 -1
      vertex 4.64105 1.06793 -1
    endloop
  endfacet
  facet normal 0 0 -1
    outer loop
      vertex 4.4977 -2.08392 -1
      vertex 5.72797 -9.24698 -1
      vertex 5.61353 -9.15701 -1
    endloop
  endfacet
  facet normal 0 0 -1
    outer loop
      vertex 5.93687 8.91397 -1
      vertex 4.61739 1.18869 -1
      vertex 5.87398 8.81123 -1
    endloop
  endfacet
  facet normal 0 0 -1
    outer loop
      vertex 4.42926 -2.18071 -1
      vertex 5.61353 -9.15701 -1
      vertex 5.49023 -9.08569 -1
    endloop
  endfacet
  facet normal 0 0 -1
    outer loop
      vertex 4.58046 1.30161 -1
      vertex 5.87398 8.81123 -1
      vertex 4.61739 1.18869 -1
    endloop
  endfacet
  facet normal 0 0 -1
    outer loop
      vertex 4.34703 -2.27135 -1
      vertex 5.49023 -9.08569 -1
      vertex 5.35762 -9.03192 -1
    endloop
  endfacet
  facet normal 0 0 -1
    outer loop
      vertex 5.87398 8.81123 -1
      vertex 4.58046 1.30161 -1
      vertex 5.79605 8.71437 -1
    endloop
  endfacet
  facet normal 0 0 -1
    outer loop
      vertex 4.25409 -2.35147 -1
      vertex 5.35762 -9.03192 -1
      vertex 5.23854 -9.00084 -1
    endloop
  endfacet
  facet normal 0 0 -1
    outer loop
      vertex 4.52896 1.41249 -1
      vertex 5.79605 8.71437 -1
      vertex 4.58046 1.30161 -1
    endloop
  endfacet
  facet normal 0 0 -1
    outer loop
      vertex 4.15146 -2.4198 -1
      vertex 5.23854 -9.00084 -1
      vertex 5.11571 -8.98454 -1
    endloop
  endfacet
  facet normal 0 0 -1
    outer loop
      vertex 5.79605 8.71437 -1
      vertex 4.52896 1.41249 -1
      vertex 5.69388 8.61681 -1
    endloop
  endfacet
  facet normal 0 0 -1
    outer loop
      vertex 4.46443 1.51624 -1
      vertex 5.69388 8.61681 -1
      vertex 4.52896 1.41249 -1
    endloop
  endfacet
  facet normal 0 0 -1
    outer loop
      vertex 5.69388 8.61681 -1
      vertex 4.46443 1.51624 -1
      vertex 5.57867 8.53409 -1
    endloop
  endfacet
  facet normal 0 0 -1
    outer loop
      vertex 16.5 -16.5 -1
      vertex 4.64723 -1.62433 -1
      vertex 4.6498 0.955643 -1
    endloop
  endfacet
  facet normal 0 0 -1
    outer loop
      vertex 16.5 -16.5 -1
      vertex 4.63092 -1.74698 -1
      vertex 4.64723 -1.62433 -1
    endloop
  endfacet
  facet normal 0 0 -1
    outer loop
      vertex 5.89496 -9.44302 -1
      vertex 4.5997 -1.86595 -1
      vertex 4.63092 -1.74698 -1
    endloop
  endfacet
  facet normal 0 0 -1
    outer loop
      vertex 5.82346 -9.34595 -1
      vertex 4.55606 -1.97643 -1
      vertex 4.5997 -1.86595 -1
    endloop
  endfacet
  facet normal 0 0 -1
    outer loop
      vertex 5.72797 -9.24698 -1
      vertex 4.4977 -2.08392 -1
      vertex 4.55606 -1.97643 -1
    endloop
  endfacet
  facet normal 0 0 -1
    outer loop
      vertex 5.61353 -9.15701 -1
      vertex 4.42926 -2.18071 -1
      vertex 4.4977 -2.08392 -1
    endloop
  endfacet
  facet normal 0 0 -1
    outer loop
      vertex 5.49023 -9.08569 -1
      vertex 4.34703 -2.27135 -1
      vertex 4.42926 -2.18071 -1
    endloop
  endfacet
  facet normal 0 0 -1
    outer loop
      vertex 5.35762 -9.03192 -1
      vertex 4.25409 -2.35147 -1
      vertex 4.34703 -2.27135 -1
    endloop
  endfacet
  facet normal 0 0 -1
    outer loop
      vertex 5.23854 -9.00084 -1
      vertex 4.15146 -2.4198 -1
      vertex 4.25409 -2.35147 -1
    endloop
  endfacet
  facet normal 0 0 -1
    outer loop
      vertex 5.11571 -8.98454 -1
      vertex 4.04018 -2.47516 -1
      vertex 4.15146 -2.4198 -1
    endloop
  endfacet
  facet normal 0 0 -1
    outer loop
      vertex 5.11571 -8.98454 -1
      vertex 3.92137 -2.51639 -1
      vertex 4.04018 -2.47516 -1
    endloop
  endfacet
  facet normal 0 0 -1
    outer loop
      vertex 5.11571 -8.98454 -1
      vertex 3.79237 -2.54282 -1
      vertex 3.92137 -2.51639 -1
    endloop
  endfacet
  facet normal 0 0 -1
    outer loop
      vertex 5.11571 -8.98454 -1
      vertex 3.67314 -2.55247 -1
      vertex 3.79237 -2.54282 -1
    endloop
  endfacet
  facet normal 0 0 -1
    outer loop
      vertex -1.28996 -8.9818 -1
      vertex 3.67314 -2.55247 -1
      vertex 5.11571 -8.98454 -1
    endloop
  endfacet
  facet normal 0 0 -1
    outer loop
      vertex 3.67314 -2.55247 -1
      vertex -1.28996 -8.9818 -1
      vertex -1.28996 -2.55272 -1
    endloop
  endfacet
  facet normal 0 0 -1
    outer loop
      vertex 4.39015 1.60858 -1
      vertex 5.57867 8.53409 -1
      vertex 4.46443 1.51624 -1
    endloop
  endfacet
  facet normal 0 0 -1
    outer loop
      vertex 5.57867 8.53409 -1
      vertex 4.39015 1.60858 -1
      vertex 5.45615 8.46913 -1
    endloop
  endfacet
  facet normal 0 0 -1
    outer loop
      vertex 4.30252 1.69424 -1
      vertex 5.45615 8.46913 -1
      vertex 4.39015 1.60858 -1
    endloop
  endfacet
  facet normal 0 0 -1
    outer loop
      vertex 5.45615 8.46913 -1
      vertex 4.30252 1.69424 -1
      vertex 5.34517 8.42723 -1
    endloop
  endfacet
  facet normal 0 0 -1
    outer loop
      vertex 4.20757 1.76649 -1
      vertex 5.34517 8.42723 -1
      vertex 4.30252 1.69424 -1
    endloop
  endfacet
  facet normal 0 0 -1
    outer loop
      vertex 5.34517 8.42723 -1
      vertex 4.20757 1.76649 -1
      vertex 5.22578 8.39787 -1
    endloop
  endfacet
  facet normal 0 0 -1
    outer loop
      vertex 4.10046 1.82898 -1
      vertex 5.22578 8.39787 -1
      vertex 4.20757 1.76649 -1
    endloop
  endfacet
  facet normal 0 0 -1
    outer loop
      vertex 5.22578 8.39787 -1
      vertex 4.10046 1.82898 -1
      vertex 5.11049 8.38344 -1
    endloop
  endfacet
  facet normal 0 0 -1
    outer loop
      vertex 3.98151 1.87929 -1
      vertex 5.11049 8.38344 -1
      vertex 4.10046 1.82898 -1
    endloop
  endfacet
  facet normal 0 0 -1
    outer loop
      vertex 5.11049 8.38344 -1
      vertex 3.98151 1.87929 -1
      vertex 5.04704 8.38126 -1
    endloop
  endfacet
  facet normal 0 0 -1
    outer loop
      vertex 3.85864 1.91299 -1
      vertex 5.04704 8.38126 -1
      vertex 3.98151 1.87929 -1
    endloop
  endfacet
  facet normal 0 0 -1
    outer loop
      vertex 3.72592 1.93134 -1
      vertex 5.04704 8.38126 -1
      vertex 3.85864 1.91299 -1
    endloop
  endfacet
  facet normal 0 0 -1
    outer loop
      vertex -1.28996 8.38126 -1
      vertex 3.72592 1.93134 -1
      vertex -1.28996 1.93417 -1
    endloop
  endfacet
  facet normal 0 0 -1
    outer loop
      vertex 3.72592 1.93134 -1
      vertex -1.28996 8.38126 -1
      vertex 5.04704 8.38126 -1
    endloop
  endfacet
  facet normal 0.187725 -0.982222 0
    outer loop
      vertex -5.00299 12.7994 -1
      vertex -4.88507 12.8219 -1.57023e-15
      vertex -5.00299 12.7994 -1.56747e-15
    endloop
  endfacet
  facet normal 0.187725 -0.982222 0
    outer loop
      vertex -4.88507 12.8219 -1.57023e-15
      vertex -5.00299 12.7994 -1
      vertex -4.88507 12.8219 -1
    endloop
  endfacet
  facet normal 0.301651 -0.953418 0
    outer loop
      vertex -5.12216 12.7617 -1
      vertex -5.00299 12.7994 -1.56747e-15
      vertex -5.12216 12.7617 -1.56285e-15
    endloop
  endfacet
  facet normal 0.301651 -0.953418 0
    outer loop
      vertex -5.00299 12.7994 -1.56747e-15
      vertex -5.12216 12.7617 -1
      vertex -5.00299 12.7994 -1
    endloop
  endfacet
  facet normal 0.41846 -0.908235 0
    outer loop
      vertex -5.2339 12.7102 -1
      vertex -5.12216 12.7617 -1.56285e-15
      vertex -5.2339 12.7102 -1.55655e-15
    endloop
  endfacet
  facet normal 0.41846 -0.908235 0
    outer loop
      vertex -5.12216 12.7617 -1.56285e-15
      vertex -5.2339 12.7102 -1
      vertex -5.12216 12.7617 -1
    endloop
  endfacet
  facet normal 0.530134 -0.847914 0
    outer loop
      vertex -5.33711 12.6456 -1
      vertex -5.2339 12.7102 -1.55655e-15
      vertex -5.33711 12.6456 -1.54864e-15
    endloop
  endfacet
  facet normal 0.530134 -0.847914 0
    outer loop
      vertex -5.2339 12.7102 -1.55655e-15
      vertex -5.33711 12.6456 -1
      vertex -5.2339 12.7102 -1
    endloop
  endfacet
  facet normal 0.633739 -0.773547 0
    outer loop
      vertex -5.43074 12.5689 -1
      vertex -5.33711 12.6456 -1.54864e-15
      vertex -5.43074 12.5689 -1.53925e-15
    endloop
  endfacet
  facet normal 0.633739 -0.773547 0
    outer loop
      vertex -5.33711 12.6456 -1.54864e-15
      vertex -5.43074 12.5689 -1
      vertex -5.33711 12.6456 -1
    endloop
  endfacet
  facet normal 0.727307 -0.686312 0
    outer loop
      vertex -5.51376 12.481 -1.52848e-15
      vertex -5.43074 12.5689 -1
      vertex -5.43074 12.5689 -1.53925e-15
    endloop
  endfacet
  facet normal 0.727307 -0.686312 0
    outer loop
      vertex -5.43074 12.5689 -1
      vertex -5.51376 12.481 -1.52848e-15
      vertex -5.51376 12.481 -1
    endloop
  endfacet
  facet normal 0.809415 -0.587237 0
    outer loop
      vertex -5.58733 12.3796 -1.51606e-15
      vertex -5.51376 12.481 -1
      vertex -5.51376 12.481 -1.52848e-15
    endloop
  endfacet
  facet normal 0.809415 -0.587237 0
    outer loop
      vertex -5.51376 12.481 -1
      vertex -5.58733 12.3796 -1.51606e-15
      vertex -5.58733 12.3796 -1
    endloop
  endfacet
  facet normal 0.87911 -0.47662 0
    outer loop
      vertex -5.6458 12.2717 -1.50285e-15
      vertex -5.58733 12.3796 -1
      vertex -5.58733 12.3796 -1.51606e-15
    endloop
  endfacet
  facet normal 0.87911 -0.47662 0
    outer loop
      vertex -5.58733 12.3796 -1
      vertex -5.6458 12.2717 -1.50285e-15
      vertex -5.6458 12.2717 -1
    endloop
  endfacet
  facet normal 0.932232 -0.361861 0
    outer loop
      vertex -5.69084 12.1557 -1.48864e-15
      vertex -5.6458 12.2717 -1
      vertex -5.6458 12.2717 -1.50285e-15
    endloop
  endfacet
  facet normal 0.932232 -0.361861 0
    outer loop
      vertex -5.6458 12.2717 -1
      vertex -5.69084 12.1557 -1.48864e-15
      vertex -5.69084 12.1557 -1
    endloop
  endfacet
  facet normal 0.970072 -0.242818 0
    outer loop
      vertex -5.72166 12.0325 -1.47356e-15
      vertex -5.69084 12.1557 -1
      vertex -5.69084 12.1557 -1.48864e-15
    endloop
  endfacet
  facet normal 0.970072 -0.242818 0
    outer loop
      vertex -5.69084 12.1557 -1
      vertex -5.72166 12.0325 -1.47356e-15
      vertex -5.72166 12.0325 -1
    endloop
  endfacet
  facet normal 0.994086 -0.108591 0
    outer loop
      vertex -5.73906 11.8733 -1.45406e-15
      vertex -5.72166 12.0325 -1
      vertex -5.72166 12.0325 -1.47356e-15
    endloop
  endfacet
  facet normal 0.994086 -0.108591 0
    outer loop
      vertex -5.72166 12.0325 -1
      vertex -5.73906 11.8733 -1.45406e-15
      vertex -5.73906 11.8733 -1
    endloop
  endfacet
  facet normal 1 -2.69699e-05 0
    outer loop
      vertex -5.73972 -12.4548 1.52528e-15
      vertex -5.73906 11.8733 -1
      vertex -5.73906 11.8733 -1.45406e-15
    endloop
  endfacet
  facet normal 1 -2.69699e-05 0
    outer loop
      vertex -5.73906 11.8733 -1
      vertex -5.73972 -12.4548 1.52528e-15
      vertex -5.73972 -12.4548 -1
    endloop
  endfacet
  facet normal 0.997305 0.0733688 0
    outer loop
      vertex -5.73094 -12.5741 1.53988e-15
      vertex -5.73972 -12.4548 -1
      vertex -5.73972 -12.4548 1.52528e-15
    endloop
  endfacet
  facet normal 0.997305 0.0733688 0
    outer loop
      vertex -5.73972 -12.4548 -1
      vertex -5.73094 -12.5741 1.53988e-15
      vertex -5.73094 -12.5741 -1
    endloop
  endfacet
  facet normal 0.982674 0.185345 0
    outer loop
      vertex -5.70799 -12.6958 1.55479e-15
      vertex -5.73094 -12.5741 -1
      vertex -5.73094 -12.5741 1.53988e-15
    endloop
  endfacet
  facet normal 0.982674 0.185345 0
    outer loop
      vertex -5.73094 -12.5741 -1
      vertex -5.70799 -12.6958 1.55479e-15
      vertex -5.70799 -12.6958 -1
    endloop
  endfacet
  facet normal 0.953243 0.302206 0
    outer loop
      vertex -5.67021 -12.815 1.56938e-15
      vertex -5.70799 -12.6958 -1
      vertex -5.70799 -12.6958 1.55479e-15
    endloop
  endfacet
  facet normal 0.953243 0.302206 0
    outer loop
      vertex -5.70799 -12.6958 -1
      vertex -5.67021 -12.815 1.56938e-15
      vertex -5.67021 -12.815 -1
    endloop
  endfacet
  facet normal 0.907905 0.419176 0
    outer loop
      vertex -5.61862 -12.9267 1.58306e-15
      vertex -5.67021 -12.815 -1
      vertex -5.67021 -12.815 1.56938e-15
    endloop
  endfacet
  facet normal 0.907905 0.419176 0
    outer loop
      vertex -5.67021 -12.815 -1
      vertex -5.61862 -12.9267 1.58306e-15
      vertex -5.61862 -12.9267 -1
    endloop
  endfacet
  facet normal 0.847519 0.530765 0
    outer loop
      vertex -5.55399 -13.0299 1.5957e-15
      vertex -5.61862 -12.9267 -1
      vertex -5.61862 -12.9267 1.58306e-15
    endloop
  endfacet
  facet normal 0.847519 0.530765 0
    outer loop
      vertex -5.61862 -12.9267 -1
      vertex -5.55399 -13.0299 1.5957e-15
      vertex -5.55399 -13.0299 -1
    endloop
  endfacet
  facet normal 0.772649 0.634833 0
    outer loop
      vertex -5.4747 -13.1264 1.60752e-15
      vertex -5.55399 -13.0299 -1
      vertex -5.55399 -13.0299 1.5957e-15
    endloop
  endfacet
  facet normal 0.772649 0.634833 0
    outer loop
      vertex -5.55399 -13.0299 -1
      vertex -5.4747 -13.1264 1.60752e-15
      vertex -5.4747 -13.1264 -1
    endloop
  endfacet
  facet normal 0.683439 0.730007 -0
    outer loop
      vertex -5.38979 -13.2059 -1
      vertex -5.4747 -13.1264 1.60752e-15
      vertex -5.38979 -13.2059 1.61726e-15
    endloop
  endfacet
  facet normal 0.683439 0.730007 0
    outer loop
      vertex -5.4747 -13.1264 1.60752e-15
      vertex -5.38979 -13.2059 -1
      vertex -5.4747 -13.1264 -1
    endloop
  endfacet
  facet normal 0.587482 0.809237 -0
    outer loop
      vertex -5.28755 -13.2801 -1
      vertex -5.38979 -13.2059 1.61726e-15
      vertex -5.28755 -13.2801 1.62635e-15
    endloop
  endfacet
  facet normal 0.587482 0.809237 0
    outer loop
      vertex -5.38979 -13.2059 1.61726e-15
      vertex -5.28755 -13.2801 -1
      vertex -5.38979 -13.2059 -1
    endloop
  endfacet
  facet normal 0.476307 0.879279 -0
    outer loop
      vertex -5.17961 -13.3386 -1
      vertex -5.28755 -13.2801 1.62635e-15
      vertex -5.17961 -13.3386 1.63351e-15
    endloop
  endfacet
  facet normal 0.476307 0.879279 0
    outer loop
      vertex -5.28755 -13.2801 1.62635e-15
      vertex -5.17961 -13.3386 -1
      vertex -5.28755 -13.2801 -1
    endloop
  endfacet
  facet normal 0.361613 0.932328 -0
    outer loop
      vertex -5.06348 -13.3836 -1
      vertex -5.17961 -13.3386 1.63351e-15
      vertex -5.06348 -13.3836 1.63902e-15
    endloop
  endfacet
  facet normal 0.361613 0.932328 0
    outer loop
      vertex -5.17961 -13.3386 1.63351e-15
      vertex -5.06348 -13.3836 -1
      vertex -5.17961 -13.3386 -1
    endloop
  endfacet
  facet normal 0.242564 0.970135 -0
    outer loop
      vertex -4.94026 -13.4144 -1
      vertex -5.06348 -13.3836 1.63902e-15
      vertex -4.94026 -13.4144 1.6428e-15
    endloop
  endfacet
  facet normal 0.242564 0.970135 0
    outer loop
      vertex -5.06348 -13.3836 1.63902e-15
      vertex -4.94026 -13.4144 -1
      vertex -5.06348 -13.3836 -1
    endloop
  endfacet
  facet normal 0.122668 0.992448 -0
    outer loop
      vertex -4.81483 -13.4299 -1
      vertex -4.94026 -13.4144 1.6428e-15
      vertex -4.81483 -13.4299 1.64469e-15
    endloop
  endfacet
  facet normal 0.122668 0.992448 0
    outer loop
      vertex -4.94026 -13.4144 1.6428e-15
      vertex -4.81483 -13.4299 -1
      vertex -4.94026 -13.4144 -1
    endloop
  endfacet
  facet normal 0.000259479 1 -0
    outer loop
      vertex 5.06448 -13.4325 -1
      vertex -4.81483 -13.4299 1.64469e-15
      vertex 5.06448 -13.4325 1.64501e-15
    endloop
  endfacet
  facet normal 0.000259479 1 0
    outer loop
      vertex -4.81483 -13.4299 1.64469e-15
      vertex 5.06448 -13.4325 -1
      vertex -4.81483 -13.4299 -1
    endloop
  endfacet
  facet normal -0.0777512 0.996973 0
    outer loop
      vertex 5.17699 -13.4237 -1
      vertex 5.06448 -13.4325 1.64501e-15
      vertex 5.17699 -13.4237 1.64393e-15
    endloop
  endfacet
  facet normal -0.0777512 0.996973 0
    outer loop
      vertex 5.06448 -13.4325 1.64501e-15
      vertex 5.17699 -13.4237 -1
      vertex 5.06448 -13.4325 -1
    endloop
  endfacet
  facet normal -0.19252 0.981293 0
    outer loop
      vertex 5.29793 -13.4 -1
      vertex 5.17699 -13.4237 1.64393e-15
      vertex 5.29793 -13.4 1.64103e-15
    endloop
  endfacet
  facet normal -0.19252 0.981293 0
    outer loop
      vertex 5.17699 -13.4237 1.64393e-15
      vertex 5.29793 -13.4 -1
      vertex 5.17699 -13.4237 -1
    endloop
  endfacet
  facet normal -0.311066 0.950388 0
    outer loop
      vertex 5.41098 -13.363 -1
      vertex 5.29793 -13.4 1.64103e-15
      vertex 5.41098 -13.363 1.6365e-15
    endloop
  endfacet
  facet normal -0.311066 0.950388 0
    outer loop
      vertex 5.29793 -13.4 1.64103e-15
      vertex 5.41098 -13.363 -1
      vertex 5.29793 -13.4 -1
    endloop
  endfacet
  facet normal -0.421452 0.906851 0
    outer loop
      vertex 5.52199 -13.3114 -1
      vertex 5.41098 -13.363 1.6365e-15
      vertex 5.52199 -13.3114 1.63018e-15
    endloop
  endfacet
  facet normal -0.421452 0.906851 0
    outer loop
      vertex 5.41098 -13.363 1.6365e-15
      vertex 5.52199 -13.3114 -1
      vertex 5.41098 -13.363 -1
    endloop
  endfacet
  facet normal -0.528462 0.848957 0
    outer loop
      vertex 5.62582 -13.2468 -1
      vertex 5.52199 -13.3114 1.63018e-15
      vertex 5.62582 -13.2468 1.62226e-15
    endloop
  endfacet
  facet normal -0.528462 0.848957 0
    outer loop
      vertex 5.52199 -13.3114 1.63018e-15
      vertex 5.62582 -13.2468 -1
      vertex 5.52199 -13.3114 -1
    endloop
  endfacet
  facet normal -0.627217 0.778845 0
    outer loop
      vertex 5.71823 -13.1724 -1
      vertex 5.62582 -13.2468 1.62226e-15
      vertex 5.71823 -13.1724 1.61315e-15
    endloop
  endfacet
  facet normal -0.627217 0.778845 0
    outer loop
      vertex 5.62582 -13.2468 1.62226e-15
      vertex 5.71823 -13.1724 -1
      vertex 5.62582 -13.2468 -1
    endloop
  endfacet
  facet normal -0.71533 0.698787 0
    outer loop
      vertex 5.71823 -13.1724 -1
      vertex 5.80396 -13.0846 1.6024e-15
      vertex 5.80396 -13.0846 -1
    endloop
  endfacet
  facet normal -0.71533 0.698787 0
    outer loop
      vertex 5.80396 -13.0846 1.6024e-15
      vertex 5.71823 -13.1724 -1
      vertex 5.71823 -13.1724 1.61315e-15
    endloop
  endfacet
  facet normal -0.795965 0.605342 0
    outer loop
      vertex 5.80396 -13.0846 -1
      vertex 5.87625 -12.9895 1.59076e-15
      vertex 5.87625 -12.9895 -1
    endloop
  endfacet
  facet normal -0.795965 0.605342 0
    outer loop
      vertex 5.87625 -12.9895 1.59076e-15
      vertex 5.80396 -13.0846 -1
      vertex 5.80396 -13.0846 1.6024e-15
    endloop
  endfacet
  facet normal -0.863881 0.503695 0
    outer loop
      vertex 5.87625 -12.9895 -1
      vertex 5.93875 -12.8824 1.57763e-15
      vertex 5.93875 -12.8824 -1
    endloop
  endfacet
  facet normal -0.863881 0.503695 0
    outer loop
      vertex 5.93875 -12.8824 1.57763e-15
      vertex 5.87625 -12.9895 -1
      vertex 5.87625 -12.9895 1.59076e-15
    endloop
  endfacet
  facet normal -0.92107 0.389397 0
    outer loop
      vertex 5.93875 -12.8824 -1
      vertex 5.98907 -12.7633 1.56306e-15
      vertex 5.98907 -12.7633 -1
    endloop
  endfacet
  facet normal -0.92107 0.389397 0
    outer loop
      vertex 5.98907 -12.7633 1.56306e-15
      vertex 5.93875 -12.8824 -1
      vertex 5.93875 -12.8824 1.57763e-15
    endloop
  endfacet
  facet normal -0.964409 0.264414 0
    outer loop
      vertex 5.98907 -12.7633 -1
      vertex 6.02278 -12.6404 1.548e-15
      vertex 6.02278 -12.6404 -1
    endloop
  endfacet
  facet normal -0.964409 0.264414 0
    outer loop
      vertex 6.02278 -12.6404 1.548e-15
      vertex 5.98907 -12.7633 -1
      vertex 5.98907 -12.7633 1.56306e-15
    endloop
  endfacet
  facet normal -0.99059 0.136861 0
    outer loop
      vertex 6.02278 -12.6404 -1
      vertex 6.04112 -12.5076 1.53174e-15
      vertex 6.04112 -12.5076 -1
    endloop
  endfacet
  facet normal -0.99059 0.136861 0
    outer loop
      vertex 6.04112 -12.5076 1.53174e-15
      vertex 6.02278 -12.6404 -1
      vertex 6.02278 -12.6404 1.548e-15
    endloop
  endfacet
  facet normal -1 0.000733447 0
    outer loop
      vertex 6.04112 -12.5076 -1
      vertex 6.04303 -9.9071 1.21327e-15
      vertex 6.04303 -9.9071 -1
    endloop
  endfacet
  facet normal -1 0.000733447 0
    outer loop
      vertex 6.04303 -9.9071 1.21327e-15
      vertex 6.04112 -12.5076 -1
      vertex 6.04112 -12.5076 1.53174e-15
    endloop
  endfacet
  facet normal -0.994198 -0.107565 0
    outer loop
      vertex 6.04303 -9.9071 -1
      vertex 6.02983 -9.78511 1.19833e-15
      vertex 6.02983 -9.78511 -1
    endloop
  endfacet
  facet normal -0.994198 -0.107565 0
    outer loop
      vertex 6.02983 -9.78511 1.19833e-15
      vertex 6.04303 -9.9071 -1
      vertex 6.04303 -9.9071 1.21327e-15
    endloop
  endfacet
  facet normal -0.97065 -0.240497 0
    outer loop
      vertex 6.02983 -9.78511 -1
      vertex 5.99976 -9.66373 1.18347e-15
      vertex 5.99976 -9.66373 -1
    endloop
  endfacet
  facet normal -0.97065 -0.240497 0
    outer loop
      vertex 5.99976 -9.66373 1.18347e-15
      vertex 6.02983 -9.78511 -1
      vertex 6.02983 -9.78511 1.19833e-15
    endloop
  endfacet
  facet normal -0.929152 -0.369698 0
    outer loop
      vertex 5.99976 -9.66373 -1
      vertex 5.95377 -9.54814 1.16931e-15
      vertex 5.95377 -9.54814 -1
    endloop
  endfacet
  facet normal -0.929152 -0.369698 0
    outer loop
      vertex 5.95377 -9.54814 1.16931e-15
      vertex 5.99976 -9.66373 -1
      vertex 5.99976 -9.66373 1.18347e-15
    endloop
  endfacet
  facet normal -0.872713 -0.488233 0
    outer loop
      vertex 5.95377 -9.54814 -1
      vertex 5.89496 -9.44302 1.15644e-15
      vertex 5.89496 -9.44302 -1
    endloop
  endfacet
  facet normal -0.872713 -0.488233 0
    outer loop
      vertex 5.89496 -9.44302 1.15644e-15
      vertex 5.95377 -9.54814 -1
      vertex 5.95377 -9.54814 1.16931e-15
    endloop
  endfacet
  facet normal -0.805164 -0.593052 0
    outer loop
      vertex 5.89496 -9.44302 -1
      vertex 5.82346 -9.34595 1.14455e-15
      vertex 5.82346 -9.34595 -1
    endloop
  endfacet
  facet normal -0.805164 -0.593052 0
    outer loop
      vertex 5.82346 -9.34595 1.14455e-15
      vertex 5.89496 -9.44302 -1
      vertex 5.89496 -9.44302 1.15644e-15
    endloop
  endfacet
  facet normal -0.719642 -0.694345 0
    outer loop
      vertex 5.82346 -9.34595 -1
      vertex 5.72797 -9.24698 1.13243e-15
      vertex 5.72797 -9.24698 -1
    endloop
  endfacet
  facet normal -0.719642 -0.694345 0
    outer loop
      vertex 5.72797 -9.24698 1.13243e-15
      vertex 5.82346 -9.34595 -1
      vertex 5.82346 -9.34595 1.14455e-15
    endloop
  endfacet
  facet normal -0.618025 -0.786158 0
    outer loop
      vertex 5.61353 -9.15701 -1
      vertex 5.72797 -9.24698 1.13243e-15
      vertex 5.61353 -9.15701 1.12141e-15
    endloop
  endfacet
  facet normal -0.618025 -0.786158 -0
    outer loop
      vertex 5.72797 -9.24698 1.13243e-15
      vertex 5.61353 -9.15701 -1
      vertex 5.72797 -9.24698 -1
    endloop
  endfacet
  facet normal -0.500724 -0.865607 0
    outer loop
      vertex 5.49023 -9.08569 -1
      vertex 5.61353 -9.15701 1.12141e-15
      vertex 5.49023 -9.08569 1.11268e-15
    endloop
  endfacet
  facet normal -0.500724 -0.865607 -0
    outer loop
      vertex 5.61353 -9.15701 1.12141e-15
      vertex 5.49023 -9.08569 -1
      vertex 5.61353 -9.15701 -1
    endloop
  endfacet
  facet normal -0.375762 -0.926716 0
    outer loop
      vertex 5.35762 -9.03192 -1
      vertex 5.49023 -9.08569 1.11268e-15
      vertex 5.35762 -9.03192 1.10609e-15
    endloop
  endfacet
  facet normal -0.375762 -0.926716 -0
    outer loop
      vertex 5.49023 -9.08569 1.11268e-15
      vertex 5.35762 -9.03192 -1
      vertex 5.49023 -9.08569 -1
    endloop
  endfacet
  facet normal -0.252558 -0.967582 0
    outer loop
      vertex 5.23854 -9.00084 -1
      vertex 5.35762 -9.03192 1.10609e-15
      vertex 5.23854 -9.00084 1.10228e-15
    endloop
  endfacet
  facet normal -0.252558 -0.967582 -0
    outer loop
      vertex 5.35762 -9.03192 1.10609e-15
      vertex 5.23854 -9.00084 -1
      vertex 5.35762 -9.03192 -1
    endloop
  endfacet
  facet normal -0.131518 -0.991314 0
    outer loop
      vertex 5.11571 -8.98454 -1
      vertex 5.23854 -9.00084 1.10228e-15
      vertex 5.11571 -8.98454 1.10029e-15
    endloop
  endfacet
  facet normal -0.131518 -0.991314 -0
    outer loop
      vertex 5.23854 -9.00084 1.10228e-15
      vertex 5.11571 -8.98454 -1
      vertex 5.23854 -9.00084 -1
    endloop
  endfacet
  facet normal -0.000428774 -1 0
    outer loop
      vertex -1.28996 -8.9818 -1
      vertex 5.11571 -8.98454 1.10029e-15
      vertex -1.28996 -8.9818 1.09995e-15
    endloop
  endfacet
  facet normal -0.000428774 -1 -0
    outer loop
      vertex 5.11571 -8.98454 1.10029e-15
      vertex -1.28996 -8.9818 -1
      vertex 5.11571 -8.98454 -1
    endloop
  endfacet
  facet normal -1 0 0
    outer loop
      vertex -1.28996 -8.9818 -1
      vertex -1.28996 -2.55272 3.12618e-16
      vertex -1.28996 -2.55272 -1
    endloop
  endfacet
  facet normal -1 -0 0
    outer loop
      vertex -1.28996 -2.55272 3.12618e-16
      vertex -1.28996 -8.9818 -1
      vertex -1.28996 -8.9818 1.09995e-15
    endloop
  endfacet
  facet normal -4.91911e-05 1 0
    outer loop
      vertex 3.67314 -2.55247 -1
      vertex -1.28996 -2.55272 3.12618e-16
      vertex 3.67314 -2.55247 3.12588e-16
    endloop
  endfacet
  facet normal -4.91911e-05 1 0
    outer loop
      vertex -1.28996 -2.55272 3.12618e-16
      vertex 3.67314 -2.55247 -1
      vertex -1.28996 -2.55272 -1
    endloop
  endfacet
  facet normal -0.0807439 0.996735 0
    outer loop
      vertex 3.79237 -2.54282 -1
      vertex 3.67314 -2.55247 3.12588e-16
      vertex 3.79237 -2.54282 3.11405e-16
    endloop
  endfacet
  facet normal -0.0807439 0.996735 0
    outer loop
      vertex 3.67314 -2.55247 3.12588e-16
      vertex 3.79237 -2.54282 -1
      vertex 3.67314 -2.55247 -1
    endloop
  endfacet
  facet normal -0.200705 0.979652 0
    outer loop
      vertex 3.92137 -2.51639 -1
      vertex 3.79237 -2.54282 3.11405e-16
      vertex 3.92137 -2.51639 3.08169e-16
    endloop
  endfacet
  facet normal -0.200705 0.979652 0
    outer loop
      vertex 3.79237 -2.54282 3.11405e-16
      vertex 3.92137 -2.51639 -1
      vertex 3.79237 -2.54282 -1
    endloop
  endfacet
  facet normal -0.327852 0.944729 0
    outer loop
      vertex 4.04018 -2.47516 -1
      vertex 3.92137 -2.51639 3.08169e-16
      vertex 4.04018 -2.47516 3.0312e-16
    endloop
  endfacet
  facet normal -0.327852 0.944729 0
    outer loop
      vertex 3.92137 -2.51639 3.08169e-16
      vertex 4.04018 -2.47516 -1
      vertex 3.92137 -2.51639 -1
    endloop
  endfacet
  facet normal -0.445396 0.895334 0
    outer loop
      vertex 4.15146 -2.4198 -1
      vertex 4.04018 -2.47516 3.0312e-16
      vertex 4.15146 -2.4198 2.9634e-16
    endloop
  endfacet
  facet normal -0.445396 0.895334 0
    outer loop
      vertex 4.04018 -2.47516 3.0312e-16
      vertex 4.15146 -2.4198 -1
      vertex 4.04018 -2.47516 -1
    endloop
  endfacet
  facet normal -0.554186 0.832393 0
    outer loop
      vertex 4.25409 -2.35147 -1
      vertex 4.15146 -2.4198 2.9634e-16
      vertex 4.25409 -2.35147 2.87972e-16
    endloop
  endfacet
  facet normal -0.554186 0.832393 0
    outer loop
      vertex 4.15146 -2.4198 2.9634e-16
      vertex 4.25409 -2.35147 -1
      vertex 4.15146 -2.4198 -1
    endloop
  endfacet
  facet normal -0.652949 0.757401 0
    outer loop
      vertex 4.34703 -2.27135 -1
      vertex 4.25409 -2.35147 2.87972e-16
      vertex 4.34703 -2.27135 2.7816e-16
    endloop
  endfacet
  facet normal -0.652949 0.757401 0
    outer loop
      vertex 4.25409 -2.35147 2.87972e-16
      vertex 4.34703 -2.27135 -1
      vertex 4.25409 -2.35147 -1
    endloop
  endfacet
  facet normal -0.740622 0.671922 0
    outer loop
      vertex 4.34703 -2.27135 -1
      vertex 4.42926 -2.18071 2.6706e-16
      vertex 4.42926 -2.18071 -1
    endloop
  endfacet
  facet normal -0.740622 0.671922 0
    outer loop
      vertex 4.42926 -2.18071 2.6706e-16
      vertex 4.34703 -2.27135 -1
      vertex 4.34703 -2.27135 2.7816e-16
    endloop
  endfacet
  facet normal -0.816507 0.577335 0
    outer loop
      vertex 4.42926 -2.18071 -1
      vertex 4.4977 -2.08392 2.55207e-16
      vertex 4.4977 -2.08392 -1
    endloop
  endfacet
  facet normal -0.816507 0.577335 0
    outer loop
      vertex 4.4977 -2.08392 2.55207e-16
      vertex 4.42926 -2.18071 -1
      vertex 4.42926 -2.18071 2.6706e-16
    endloop
  endfacet
  facet normal -0.878824 0.477147 0
    outer loop
      vertex 4.4977 -2.08392 -1
      vertex 4.55606 -1.97643 2.42042e-16
      vertex 4.55606 -1.97643 -1
    endloop
  endfacet
  facet normal -0.878824 0.477147 0
    outer loop
      vertex 4.55606 -1.97643 2.42042e-16
      vertex 4.4977 -2.08392 -1
      vertex 4.4977 -2.08392 2.55207e-16
    endloop
  endfacet
  facet normal -0.930063 0.367401 0
    outer loop
      vertex 4.55606 -1.97643 -1
      vertex 4.5997 -1.86595 2.28513e-16
      vertex 4.5997 -1.86595 -1
    endloop
  endfacet
  facet normal -0.930063 0.367401 0
    outer loop
      vertex 4.5997 -1.86595 2.28513e-16
      vertex 4.55606 -1.97643 -1
      vertex 4.55606 -1.97643 2.42042e-16
    endloop
  endfacet
  facet normal -0.967253 0.253815 0
    outer loop
      vertex 4.5997 -1.86595 -1
      vertex 4.63092 -1.74698 2.13943e-16
      vertex 4.63092 -1.74698 -1
    endloop
  endfacet
  facet normal -0.967253 0.253815 0
    outer loop
      vertex 4.63092 -1.74698 2.13943e-16
      vertex 4.5997 -1.86595 -1
      vertex 4.5997 -1.86595 2.28513e-16
    endloop
  endfacet
  facet normal -0.991272 0.131833 0
    outer loop
      vertex 4.63092 -1.74698 -1
      vertex 4.64723 -1.62433 1.98923e-16
      vertex 4.64723 -1.62433 -1
    endloop
  endfacet
  facet normal -0.991272 0.131833 0
    outer loop
      vertex 4.64723 -1.62433 1.98923e-16
      vertex 4.63092 -1.74698 -1
      vertex 4.63092 -1.74698 2.13943e-16
    endloop
  endfacet
  facet normal -1 0.000993606 0
    outer loop
      vertex 4.64723 -1.62433 -1
      vertex 4.6498 0.955643 -1.17032e-16
      vertex 4.6498 0.955643 -1
    endloop
  endfacet
  facet normal -1 0.000993606 0
    outer loop
      vertex 4.6498 0.955643 -1.17032e-16
      vertex 4.64723 -1.62433 -1
      vertex 4.64723 -1.62433 1.98923e-16
    endloop
  endfacet
  facet normal -0.996982 -0.0776289 0
    outer loop
      vertex 4.6498 0.955643 -1
      vertex 4.64105 1.06793 -1.30784e-16
      vertex 4.64105 1.06793 -1
    endloop
  endfacet
  facet normal -0.996982 -0.0776289 0
    outer loop
      vertex 4.64105 1.06793 -1.30784e-16
      vertex 4.6498 0.955643 -1
      vertex 4.6498 0.955643 -1.17032e-16
    endloop
  endfacet
  facet normal -0.981332 -0.192323 0
    outer loop
      vertex 4.64105 1.06793 -1
      vertex 4.61739 1.18869 -1.45573e-16
      vertex 4.61739 1.18869 -1
    endloop
  endfacet
  facet normal -0.981332 -0.192323 0
    outer loop
      vertex 4.61739 1.18869 -1.45573e-16
      vertex 4.64105 1.06793 -1
      vertex 4.64105 1.06793 -1.30784e-16
    endloop
  endfacet
  facet normal -0.950466 -0.310828 0
    outer loop
      vertex 4.61739 1.18869 -1
      vertex 4.58046 1.30161 -1.59401e-16
      vertex 4.58046 1.30161 -1
    endloop
  endfacet
  facet normal -0.950466 -0.310828 0
    outer loop
      vertex 4.58046 1.30161 -1.59401e-16
      vertex 4.61739 1.18869 -1
      vertex 4.61739 1.18869 -1.45573e-16
    endloop
  endfacet
  facet normal -0.90696 -0.421218 0
    outer loop
      vertex 4.58046 1.30161 -1
      vertex 4.52896 1.41249 -1.7298e-16
      vertex 4.52896 1.41249 -1
    endloop
  endfacet
  facet normal -0.90696 -0.421218 0
    outer loop
      vertex 4.52896 1.41249 -1.7298e-16
      vertex 4.58046 1.30161 -1
      vertex 4.58046 1.30161 -1.59401e-16
    endloop
  endfacet
  facet normal -0.84914 -0.528168 0
    outer loop
      vertex 4.52896 1.41249 -1
      vertex 4.46443 1.51624 -1.85685e-16
      vertex 4.46443 1.51624 -1
    endloop
  endfacet
  facet normal -0.84914 -0.528168 0
    outer loop
      vertex 4.46443 1.51624 -1.85685e-16
      vertex 4.52896 1.41249 -1
      vertex 4.52896 1.41249 -1.7298e-16
    endloop
  endfacet
  facet normal -0.779208 -0.626765 0
    outer loop
      vertex 4.46443 1.51624 -1
      vertex 4.39015 1.60858 -1.96994e-16
      vertex 4.39015 1.60858 -1
    endloop
  endfacet
  facet normal -0.779208 -0.626765 0
    outer loop
      vertex 4.39015 1.60858 -1.96994e-16
      vertex 4.46443 1.51624 -1
      vertex 4.46443 1.51624 -1.85685e-16
    endloop
  endfacet
  facet normal -0.69903 -0.715092 0
    outer loop
      vertex 4.30252 1.69424 -1
      vertex 4.39015 1.60858 -1.96994e-16
      vertex 4.30252 1.69424 -2.07485e-16
    endloop
  endfacet
  facet normal -0.69903 -0.715092 -0
    outer loop
      vertex 4.39015 1.60858 -1.96994e-16
      vertex 4.30252 1.69424 -1
      vertex 4.39015 1.60858 -1
    endloop
  endfacet
  facet normal -0.605531 -0.795822 0
    outer loop
      vertex 4.20757 1.76649 -1
      vertex 4.30252 1.69424 -2.07485e-16
      vertex 4.20757 1.76649 -2.16333e-16
    endloop
  endfacet
  facet normal -0.605531 -0.795822 -0
    outer loop
      vertex 4.30252 1.69424 -2.07485e-16
      vertex 4.20757 1.76649 -1
      vertex 4.30252 1.69424 -1
    endloop
  endfacet
  facet normal -0.503925 -0.863748 0
    outer loop
      vertex 4.10046 1.82898 -1
      vertex 4.20757 1.76649 -2.16333e-16
      vertex 4.10046 1.82898 -2.23985e-16
    endloop
  endfacet
  facet normal -0.503925 -0.863748 -0
    outer loop
      vertex 4.20757 1.76649 -2.16333e-16
      vertex 4.10046 1.82898 -1
      vertex 4.20757 1.76649 -1
    endloop
  endfacet
  facet normal -0.389509 -0.921023 0
    outer loop
      vertex 3.98151 1.87929 -1
      vertex 4.10046 1.82898 -2.23985e-16
      vertex 3.98151 1.87929 -2.30146e-16
    endloop
  endfacet
  facet normal -0.389509 -0.921023 -0
    outer loop
      vertex 4.10046 1.82898 -2.23985e-16
      vertex 3.98151 1.87929 -1
      vertex 4.10046 1.82898 -1
    endloop
  endfacet
  facet normal -0.264566 -0.964368 0
    outer loop
      vertex 3.85864 1.91299 -1
      vertex 3.98151 1.87929 -2.30146e-16
      vertex 3.85864 1.91299 -2.34274e-16
    endloop
  endfacet
  facet normal -0.264566 -0.964368 -0
    outer loop
      vertex 3.98151 1.87929 -2.30146e-16
      vertex 3.85864 1.91299 -1
      vertex 3.98151 1.87929 -1
    endloop
  endfacet
  facet normal -0.136892 -0.990586 0
    outer loop
      vertex 3.72592 1.93134 -1
      vertex 3.85864 1.91299 -2.34274e-16
      vertex 3.72592 1.93134 -2.3652e-16
    endloop
  endfacet
  facet normal -0.136892 -0.990586 -0
    outer loop
      vertex 3.85864 1.91299 -2.34274e-16
      vertex 3.72592 1.93134 -1
      vertex 3.85864 1.91299 -1
    endloop
  endfacet
  facet normal -0.000565829 -1 0
    outer loop
      vertex -1.28996 1.93417 -1
      vertex 3.72592 1.93134 -2.3652e-16
      vertex -1.28996 1.93417 -2.36868e-16
    endloop
  endfacet
  facet normal -0.000565829 -1 -0
    outer loop
      vertex 3.72592 1.93134 -2.3652e-16
      vertex -1.28996 1.93417 -1
      vertex 3.72592 1.93134 -1
    endloop
  endfacet
  facet normal -1 0 0
    outer loop
      vertex -1.28996 1.93417 -1
      vertex -1.28996 8.38126 -1.02641e-15
      vertex -1.28996 8.38126 -1
    endloop
  endfacet
  facet normal -1 -0 0
    outer loop
      vertex -1.28996 8.38126 -1.02641e-15
      vertex -1.28996 1.93417 -1
      vertex -1.28996 1.93417 -2.36868e-16
    endloop
  endfacet
  facet normal 0 1 -0
    outer loop
      vertex 5.04704 8.38126 -1
      vertex -1.28996 8.38126 -1.02641e-15
      vertex 5.04704 8.38126 -1.02641e-15
    endloop
  endfacet
  facet normal 0 1 0
    outer loop
      vertex -1.28996 8.38126 -1.02641e-15
      vertex 5.04704 8.38126 -1
      vertex -1.28996 8.38126 -1
    endloop
  endfacet
  facet normal -0.0343712 0.999409 0
    outer loop
      vertex 5.11049 8.38344 -1
      vertex 5.04704 8.38126 -1.02641e-15
      vertex 5.11049 8.38344 -1.02668e-15
    endloop
  endfacet
  facet normal -0.0343712 0.999409 0
    outer loop
      vertex 5.04704 8.38126 -1.02641e-15
      vertex 5.11049 8.38344 -1
      vertex 5.04704 8.38126 -1
    endloop
  endfacet
  facet normal -0.124229 0.992254 0
    outer loop
      vertex 5.22578 8.39787 -1
      vertex 5.11049 8.38344 -1.02668e-15
      vertex 5.22578 8.39787 -1.02844e-15
    endloop
  endfacet
  facet normal -0.124229 0.992254 0
    outer loop
      vertex 5.11049 8.38344 -1.02668e-15
      vertex 5.22578 8.39787 -1
      vertex 5.11049 8.38344 -1
    endloop
  endfacet
  facet normal -0.238796 0.97107 0
    outer loop
      vertex 5.34517 8.42723 -1
      vertex 5.22578 8.39787 -1.02844e-15
      vertex 5.34517 8.42723 -1.03204e-15
    endloop
  endfacet
  facet normal -0.238796 0.97107 0
    outer loop
      vertex 5.22578 8.39787 -1.02844e-15
      vertex 5.34517 8.42723 -1
      vertex 5.22578 8.39787 -1
    endloop
  endfacet
  facet normal -0.353223 0.935539 0
    outer loop
      vertex 5.45615 8.46913 -1
      vertex 5.34517 8.42723 -1.03204e-15
      vertex 5.45615 8.46913 -1.03717e-15
    endloop
  endfacet
  facet normal -0.353223 0.935539 0
    outer loop
      vertex 5.34517 8.42723 -1.03204e-15
      vertex 5.45615 8.46913 -1
      vertex 5.34517 8.42723 -1
    endloop
  endfacet
  facet normal -0.468388 0.883523 0
    outer loop
      vertex 5.57867 8.53409 -1
      vertex 5.45615 8.46913 -1.03717e-15
      vertex 5.57867 8.53409 -1.04512e-15
    endloop
  endfacet
  facet normal -0.468388 0.883523 0
    outer loop
      vertex 5.45615 8.46913 -1.03717e-15
      vertex 5.57867 8.53409 -1
      vertex 5.45615 8.46913 -1
    endloop
  endfacet
  facet normal -0.583241 0.812299 0
    outer loop
      vertex 5.69388 8.61681 -1
      vertex 5.57867 8.53409 -1.04512e-15
      vertex 5.69388 8.61681 -1.05525e-15
    endloop
  endfacet
  facet normal -0.583241 0.812299 0
    outer loop
      vertex 5.57867 8.53409 -1.04512e-15
      vertex 5.69388 8.61681 -1
      vertex 5.57867 8.53409 -1
    endloop
  endfacet
  facet normal -0.690609 0.723228 0
    outer loop
      vertex 5.79605 8.71437 -1
      vertex 5.69388 8.61681 -1.05525e-15
      vertex 5.79605 8.71437 -1.0672e-15
    endloop
  endfacet
  facet normal -0.690609 0.723228 0
    outer loop
      vertex 5.69388 8.61681 -1.05525e-15
      vertex 5.79605 8.71437 -1
      vertex 5.69388 8.61681 -1
    endloop
  endfacet
  facet normal -0.779154 0.626833 0
    outer loop
      vertex 5.79605 8.71437 -1
      vertex 5.87398 8.81123 -1.07906e-15
      vertex 5.87398 8.81123 -1
    endloop
  endfacet
  facet normal -0.779154 0.626833 0
    outer loop
      vertex 5.87398 8.81123 -1.07906e-15
      vertex 5.79605 8.71437 -1
      vertex 5.79605 8.71437 -1.0672e-15
    endloop
  endfacet
  facet normal -0.852865 0.522131 0
    outer loop
      vertex 5.87398 8.81123 -1
      vertex 5.93687 8.91397 -1.09165e-15
      vertex 5.93687 8.91397 -1
    endloop
  endfacet
  facet normal -0.852865 0.522131 0
    outer loop
      vertex 5.93687 8.91397 -1.09165e-15
      vertex 5.87398 8.81123 -1
      vertex 5.87398 8.81123 -1.07906e-15
    endloop
  endfacet
  facet normal -0.912571 0.408918 0
    outer loop
      vertex 5.93687 8.91397 -1
      vertex 5.98621 9.02406 -1.10513e-15
      vertex 5.98621 9.02406 -1
    endloop
  endfacet
  facet normal -0.912571 0.408918 0
    outer loop
      vertex 5.98621 9.02406 -1.10513e-15
      vertex 5.93687 8.91397 -1
      vertex 5.93687 8.91397 -1.09165e-15
    endloop
  endfacet
  facet normal -0.958608 0.284728 0
    outer loop
      vertex 5.98621 9.02406 -1
      vertex 6.02182 9.14397 -1.11981e-15
      vertex 6.02182 9.14397 -1
    endloop
  endfacet
  facet normal -0.958608 0.284728 0
    outer loop
      vertex 6.02182 9.14397 -1.11981e-15
      vertex 5.98621 9.02406 -1
      vertex 5.98621 9.02406 -1.10513e-15
    endloop
  endfacet
  facet normal -0.988834 0.149019 0
    outer loop
      vertex 6.02182 9.14397 -1
      vertex 6.04066 9.26901 -1.13513e-15
      vertex 6.04066 9.26901 -1
    endloop
  endfacet
  facet normal -0.988834 0.149019 0
    outer loop
      vertex 6.04066 9.26901 -1.13513e-15
      vertex 6.02182 9.14397 -1
      vertex 6.02182 9.14397 -1.11981e-15
    endloop
  endfacet
  facet normal -0.999999 0.00120401 0
    outer loop
      vertex 6.04066 9.26901 -1
      vertex 6.04378 11.8544 -1.45174e-15
      vertex 6.04378 11.8544 -1
    endloop
  endfacet
  facet normal -0.999999 0.00120401 0
    outer loop
      vertex 6.04378 11.8544 -1.45174e-15
      vertex 6.04066 9.26901 -1
      vertex 6.04066 9.26901 -1.13513e-15
    endloop
  endfacet
  facet normal -0.996745 -0.0806172 0
    outer loop
      vertex 6.04378 11.8544 -1
      vertex 6.03413 11.9736 -1.46634e-15
      vertex 6.03413 11.9736 -1
    endloop
  endfacet
  facet normal -0.996745 -0.0806172 0
    outer loop
      vertex 6.03413 11.9736 -1.46634e-15
      vertex 6.04378 11.8544 -1
      vertex 6.04378 11.8544 -1.45174e-15
    endloop
  endfacet
  facet normal -0.97983 -0.199831 0
    outer loop
      vertex 6.03413 11.9736 -1
      vertex 6.00858 12.0989 -1.48169e-15
      vertex 6.00858 12.0989 -1
    endloop
  endfacet
  facet normal -0.97983 -0.199831 0
    outer loop
      vertex 6.00858 12.0989 -1.48169e-15
      vertex 6.03413 11.9736 -1
      vertex 6.03413 11.9736 -1.46634e-15
    endloop
  endfacet
  facet normal -0.945986 -0.324207 0
    outer loop
      vertex 6.00858 12.0989 -1
      vertex 5.9666 12.2214 -1.49669e-15
      vertex 5.9666 12.2214 -1
    endloop
  endfacet
  facet normal -0.945986 -0.324207 0
    outer loop
      vertex 5.9666 12.2214 -1.49669e-15
      vertex 6.00858 12.0989 -1
      vertex 6.00858 12.0989 -1.48169e-15
    endloop
  endfacet
  facet normal -0.895554 -0.444952 0
    outer loop
      vertex 5.9666 12.2214 -1
      vertex 5.91132 12.3327 -1.51031e-15
      vertex 5.91132 12.3327 -1
    endloop
  endfacet
  facet normal -0.895554 -0.444952 0
    outer loop
      vertex 5.91132 12.3327 -1.51031e-15
      vertex 5.9666 12.2214 -1
      vertex 5.9666 12.2214 -1.49669e-15
    endloop
  endfacet
  facet normal -0.832678 -0.553757 0
    outer loop
      vertex 5.91132 12.3327 -1
      vertex 5.84306 12.4353 -1.52288e-15
      vertex 5.84306 12.4353 -1
    endloop
  endfacet
  facet normal -0.832678 -0.553757 0
    outer loop
      vertex 5.84306 12.4353 -1.52288e-15
      vertex 5.91132 12.3327 -1
      vertex 5.91132 12.3327 -1.51031e-15
    endloop
  endfacet
  facet normal -0.757762 -0.652531 0
    outer loop
      vertex 5.84306 12.4353 -1
      vertex 5.76302 12.5282 -1.53427e-15
      vertex 5.76302 12.5282 -1
    endloop
  endfacet
  facet normal -0.757762 -0.652531 0
    outer loop
      vertex 5.76302 12.5282 -1.53427e-15
      vertex 5.84306 12.4353 -1
      vertex 5.84306 12.4353 -1.52288e-15
    endloop
  endfacet
  facet normal -0.672046 -0.74051 0
    outer loop
      vertex 5.67241 12.6105 -1
      vertex 5.76302 12.5282 -1.53427e-15
      vertex 5.67241 12.6105 -1.54434e-15
    endloop
  endfacet
  facet normal -0.672046 -0.74051 -0
    outer loop
      vertex 5.76302 12.5282 -1.53427e-15
      vertex 5.67241 12.6105 -1
      vertex 5.76302 12.5282 -1
    endloop
  endfacet
  facet normal -0.577431 -0.816439 0
    outer loop
      vertex 5.57567 12.6789 -1
      vertex 5.67241 12.6105 -1.54434e-15
      vertex 5.57567 12.6789 -1.55272e-15
    endloop
  endfacet
  facet normal -0.577431 -0.816439 -0
    outer loop
      vertex 5.67241 12.6105 -1.54434e-15
      vertex 5.57567 12.6789 -1
      vertex 5.67241 12.6105 -1
    endloop
  endfacet
  facet normal -0.477191 -0.8788 0
    outer loop
      vertex 5.46815 12.7373 -1
      vertex 5.57567 12.6789 -1.55272e-15
      vertex 5.46815 12.7373 -1.55987e-15
    endloop
  endfacet
  facet normal -0.477191 -0.8788 -0
    outer loop
      vertex 5.57567 12.6789 -1.55272e-15
      vertex 5.46815 12.7373 -1
      vertex 5.57567 12.6789 -1
    endloop
  endfacet
  facet normal -0.366622 -0.93037 0
    outer loop
      vertex 5.35408 12.7822 -1
      vertex 5.46815 12.7373 -1.55987e-15
      vertex 5.35408 12.7822 -1.56537e-15
    endloop
  endfacet
  facet normal -0.366622 -0.93037 -0
    outer loop
      vertex 5.46815 12.7373 -1.55987e-15
      vertex 5.35408 12.7822 -1
      vertex 5.46815 12.7373 -1
    endloop
  endfacet
  facet normal -0.250589 -0.968093 0
    outer loop
      vertex 5.23854 12.8121 -1
      vertex 5.35408 12.7822 -1.56537e-15
      vertex 5.23854 12.8121 -1.56903e-15
    endloop
  endfacet
  facet normal -0.250589 -0.968093 -0
    outer loop
      vertex 5.35408 12.7822 -1.56537e-15
      vertex 5.23854 12.8121 -1
      vertex 5.35408 12.7822 -1
    endloop
  endfacet
  facet normal -0.131639 -0.991298 0
    outer loop
      vertex 5.11571 12.8284 -1
      vertex 5.23854 12.8121 -1.56903e-15
      vertex 5.11571 12.8284 -1.57103e-15
    endloop
  endfacet
  facet normal -0.131639 -0.991298 -0
    outer loop
      vertex 5.23854 12.8121 -1.56903e-15
      vertex 5.11571 12.8284 -1
      vertex 5.23854 12.8121 -1
    endloop
  endfacet
  facet normal -0.000192726 -1 0
    outer loop
      vertex -4.78099 12.8304 -1
      vertex 5.11571 12.8284 -1.57103e-15
      vertex -4.78099 12.8304 -1.57127e-15
    endloop
  endfacet
  facet normal -0.000192726 -1 -0
    outer loop
      vertex 5.11571 12.8284 -1.57103e-15
      vertex -4.78099 12.8304 -1
      vertex 5.11571 12.8284 -1
    endloop
  endfacet
  facet normal 0.0809532 -0.996718 0
    outer loop
      vertex -4.88507 12.8219 -1
      vertex -4.78099 12.8304 -1.57127e-15
      vertex -4.88507 12.8219 -1.57023e-15
    endloop
  endfacet
  facet normal 0.0809532 -0.996718 0
    outer loop
      vertex -4.78099 12.8304 -1.57127e-15
      vertex -4.88507 12.8219 -1
      vertex -4.78099 12.8304 -1
    endloop
  endfacet
  facet normal -0 0 1
    outer loop
      vertex -16.5 7.15 13.3
      vertex -15.5 -7.15 13.3
      vertex -15.5 7.15 13.3
    endloop
  endfacet
  facet normal 0 0 1
    outer loop
      vertex -15.5 -7.15 13.3
      vertex -16.5 7.15 13.3
      vertex -16.5 -7.15 13.3
    endloop
  endfacet
  facet normal 0 1 -0
    outer loop
      vertex -15.5 -7.15 13.3
      vertex -16.5 -7.15 15
      vertex -15.5 -7.15 15
    endloop
  endfacet
  facet normal 0 1 0
    outer loop
      vertex -16.5 -7.15 15
      vertex -15.5 -7.15 13.3
      vertex -16.5 -7.15 13.3
    endloop
  endfacet
  facet normal 0 -1 0
    outer loop
      vertex -16.5 7.15 13.3
      vertex -15.5 7.15 15
      vertex -16.5 7.15 15
    endloop
  endfacet
  facet normal 0 -1 -0
    outer loop
      vertex -15.5 7.15 15
      vertex -16.5 7.15 13.3
      vertex -15.5 7.15 13.3
    endloop
  endfacet
  facet normal -0 0 1
    outer loop
      vertex 15.5 7.15 13.3
      vertex 16.5 -7.15 13.3
      vertex 16.5 7.15 13.3
    endloop
  endfacet
  facet normal 0 0 1
    outer loop
      vertex 16.5 -7.15 13.3
      vertex 15.5 7.15 13.3
      vertex 15.5 -7.15 13.3
    endloop
  endfacet
  facet normal 0 1 -0
    outer loop
      vertex 16.5 -7.15 13.3
      vertex 15.5 -7.15 15
      vertex 16.5 -7.15 15
    endloop
  endfacet
  facet normal 0 1 0
    outer loop
      vertex 15.5 -7.15 15
      vertex 16.5 -7.15 13.3
      vertex 15.5 -7.15 13.3
    endloop
  endfacet
  facet normal 0 -1 0
    outer loop
      vertex 15.5 7.15 13.3
      vertex 16.5 7.15 15
      vertex 15.5 7.15 15
    endloop
  endfacet
  facet normal 0 -1 -0
    outer loop
      vertex 16.5 7.15 15
      vertex 15.5 7.15 13.3
      vertex 16.5 7.15 13.3
    endloop
  endfacet
  facet normal 1 -0 0
    outer loop
      vertex -7.15 -16.5 15
      vertex -7.15 -15.5 13.3
      vertex -7.15 -15.5 15
    endloop
  endfacet
  facet normal 1 0 0
    outer loop
      vertex -7.15 -15.5 13.3
      vertex -7.15 -16.5 15
      vertex -7.15 -16.5 13.3
    endloop
  endfacet
  facet normal -0 0 1
    outer loop
      vertex -7.15 -15.5 13.3
      vertex 7.15 -16.5 13.3
      vertex 7.15 -15.5 13.3
    endloop
  endfacet
  facet normal 0 0 1
    outer loop
      vertex 7.15 -16.5 13.3
      vertex -7.15 -15.5 13.3
      vertex -7.15 -16.5 13.3
    endloop
  endfacet
  facet normal -1 0 0
    outer loop
      vertex 7.15 -16.5 13.3
      vertex 7.15 -15.5 15
      vertex 7.15 -15.5 13.3
    endloop
  endfacet
  facet normal -1 -0 0
    outer loop
      vertex 7.15 -15.5 15
      vertex 7.15 -16.5 13.3
      vertex 7.15 -16.5 15
    endloop
  endfacet
  facet normal 1 -0 0
    outer loop
      vertex -7.15 15.5 15
      vertex -7.15 16.5 13.3
      vertex -7.15 16.5 15
    endloop
  endfacet
  facet normal 1 0 0
    outer loop
      vertex -7.15 16.5 13.3
      vertex -7.15 15.5 15
      vertex -7.15 15.5 13.3
    endloop
  endfacet
  facet normal -0 0 1
    outer loop
      vertex -7.15 16.5 13.3
      vertex 7.15 15.5 13.3
      vertex 7.15 16.5 13.3
    endloop
  endfacet
  facet normal 0 0 1
    outer loop
      vertex 7.15 15.5 13.3
      vertex -7.15 16.5 13.3
      vertex -7.15 15.5 13.3
    endloop
  endfacet
  facet normal -1 0 0
    outer loop
      vertex 7.15 15.5 13.3
      vertex 7.15 16.5 15
      vertex 7.15 16.5 13.3
    endloop
  endfacet
  facet normal -1 -0 0
    outer loop
      vertex 7.15 16.5 15
      vertex 7.15 15.5 13.3
      vertex 7.15 15.5 15
    endloop
  endfacet
endsolid OpenSCAD_Model
