solid OpenSCAD_Model
  facet normal -1 0 0
    outer loop
      vertex -14 -14 0.5
      vertex -14 14 1.5
      vertex -14 14 0.5
    endloop
  endfacet
  facet normal -1 -0 0
    outer loop
      vertex -14 14 1.5
      vertex -14 -14 0.5
      vertex -14 -14 1.5
    endloop
  endfacet
  facet normal 0 0 1
    outer loop
      vertex 14 -14 1.5
      vertex 6.26366 -12.024 1.5
      vertex 6.2695 -12.1056 1.5
    endloop
  endfacet
  facet normal 0 0 1
    outer loop
      vertex 14 14 1.5
      vertex 6.24524 -11.937 1.5
      vertex 6.26366 -12.024 1.5
    endloop
  endfacet
  facet normal 0 0 1
    outer loop
      vertex 14 14 1.5
      vertex 6.2137 -11.845 1.5
      vertex 6.24524 -11.937 1.5
    endloop
  endfacet
  facet normal 0 0 1
    outer loop
      vertex 14 14 1.5
      vertex 0.807281 0.292999 1.5
      vertex 6.2137 -11.845 1.5
    endloop
  endfacet
  facet normal 0 0 1
    outer loop
      vertex 6.33908 12.7009 1.5
      vertex 14 14 1.5
      vertex 6.34189 12.7814 1.5
    endloop
  endfacet
  facet normal 0 0 1
    outer loop
      vertex 14 14 1.5
      vertex 6.33528 12.8414 1.5
      vertex 6.34189 12.7814 1.5
    endloop
  endfacet
  facet normal 0 0 1
    outer loop
      vertex 14 14 1.5
      vertex 6.32103 12.8972 1.5
      vertex 6.33528 12.8414 1.5
    endloop
  endfacet
  facet normal 0 0 1
    outer loop
      vertex 14 14 1.5
      vertex 6.29939 12.9486 1.5
      vertex 6.32103 12.8972 1.5
    endloop
  endfacet
  facet normal 0 0 1
    outer loop
      vertex 14 14 1.5
      vertex 6.27055 12.9951 1.5
      vertex 6.29939 12.9486 1.5
    endloop
  endfacet
  facet normal 0 0 1
    outer loop
      vertex 14 14 1.5
      vertex 6.23477 13.0367 1.5
      vertex 6.27055 12.9951 1.5
    endloop
  endfacet
  facet normal 0 0 1
    outer loop
      vertex 14 14 1.5
      vertex 6.19225 13.0728 1.5
      vertex 6.23477 13.0367 1.5
    endloop
  endfacet
  facet normal 0 0 1
    outer loop
      vertex 14 14 1.5
      vertex 6.1432 13.1034 1.5
      vertex 6.19225 13.0728 1.5
    endloop
  endfacet
  facet normal 0 0 1
    outer loop
      vertex 14 14 1.5
      vertex 6.08788 13.1281 1.5
      vertex 6.1432 13.1034 1.5
    endloop
  endfacet
  facet normal 0 0 1
    outer loop
      vertex 14 14 1.5
      vertex 6.01019 13.1501 1.5
      vertex 6.08788 13.1281 1.5
    endloop
  endfacet
  facet normal 0 0 1
    outer loop
      vertex 14 14 1.5
      vertex 5.92348 13.162 1.5
      vertex 6.01019 13.1501 1.5
    endloop
  endfacet
  facet normal 0 0 1
    outer loop
      vertex 14 14 1.5
      vertex 5.86728 13.164 1.5
      vertex 5.92348 13.162 1.5
    endloop
  endfacet
  facet normal 0 0 1
    outer loop
      vertex 14 14 1.5
      vertex 3.33911 13.1631 1.5
      vertex 5.86728 13.164 1.5
    endloop
  endfacet
  facet normal 0 0 1
    outer loop
      vertex 2.39319 12.4861 1.5
      vertex -2.16359 12.505 1.5
      vertex -2.1627 2.27299 1.5
    endloop
  endfacet
  facet normal 0 0 1
    outer loop
      vertex -2.2224 12.7658 1.5
      vertex 2.39319 12.4861 1.5
      vertex 2.44327 12.579 1.5
    endloop
  endfacet
  facet normal 0 0 1
    outer loop
      vertex -2.26057 12.8414 1.5
      vertex 2.44327 12.579 1.5
      vertex 2.51454 12.6841 1.5
    endloop
  endfacet
  facet normal 0 0 1
    outer loop
      vertex -2.30692 12.9105 1.5
      vertex 2.51454 12.6841 1.5
      vertex 2.59637 12.7814 1.5
    endloop
  endfacet
  facet normal 0 0 1
    outer loop
      vertex -2.36078 12.9725 1.5
      vertex 2.59637 12.7814 1.5
      vertex 2.68707 12.8699 1.5
    endloop
  endfacet
  facet normal 0 0 1
    outer loop
      vertex -2.42152 13.0268 1.5
      vertex 2.68707 12.8699 1.5
      vertex 2.80179 12.9607 1.5
    endloop
  endfacet
  facet normal 0 0 1
    outer loop
      vertex -2.48848 13.0728 1.5
      vertex 2.80179 12.9607 1.5
      vertex 2.92351 13.0367 1.5
    endloop
  endfacet
  facet normal 0 0 1
    outer loop
      vertex -2.56099 13.1101 1.5
      vertex 2.92351 13.0367 1.5
      vertex 3.03137 13.0889 1.5
    endloop
  endfacet
  facet normal -0 0 1
    outer loop
      vertex -2.56099 13.1101 1.5
      vertex 3.03137 13.0889 1.5
      vertex 3.14067 13.1281 1.5
    endloop
  endfacet
  facet normal -0 0 1
    outer loop
      vertex -2.6384 13.1381 1.5
      vertex 3.14067 13.1281 1.5
      vertex 3.24969 13.1534 1.5
    endloop
  endfacet
  facet normal 0 0 1
    outer loop
      vertex 2.39319 12.4861 1.5
      vertex -2.17325 12.597 1.5
      vertex -2.16359 12.505 1.5
    endloop
  endfacet
  facet normal -0 0 1
    outer loop
      vertex -2.72005 13.1562 1.5
      vertex 3.24969 13.1534 1.5
      vertex 3.33911 13.1631 1.5
    endloop
  endfacet
  facet normal 0 0 1
    outer loop
      vertex 2.39319 12.4861 1.5
      vertex -2.19308 12.6841 1.5
      vertex -2.17325 12.597 1.5
    endloop
  endfacet
  facet normal 0 0 1
    outer loop
      vertex 2.39319 12.4861 1.5
      vertex -2.2224 12.7658 1.5
      vertex -2.19308 12.6841 1.5
    endloop
  endfacet
  facet normal -0 0 1
    outer loop
      vertex -2.80528 13.1638 1.5
      vertex 3.33911 13.1631 1.5
      vertex 14 14 1.5
    endloop
  endfacet
  facet normal 0 0 1
    outer loop
      vertex 2.44327 12.579 1.5
      vertex -2.26057 12.8414 1.5
      vertex -2.2224 12.7658 1.5
    endloop
  endfacet
  facet normal 0 0 1
    outer loop
      vertex 2.51454 12.6841 1.5
      vertex -2.30692 12.9105 1.5
      vertex -2.26057 12.8414 1.5
    endloop
  endfacet
  facet normal 0 0 1
    outer loop
      vertex 2.59637 12.7814 1.5
      vertex -2.36078 12.9725 1.5
      vertex -2.30692 12.9105 1.5
    endloop
  endfacet
  facet normal 0 0 1
    outer loop
      vertex 2.68707 12.8699 1.5
      vertex -2.42152 13.0268 1.5
      vertex -2.36078 12.9725 1.5
    endloop
  endfacet
  facet normal 0 0 1
    outer loop
      vertex 2.80179 12.9607 1.5
      vertex -2.48848 13.0728 1.5
      vertex -2.42152 13.0268 1.5
    endloop
  endfacet
  facet normal 0 0 1
    outer loop
      vertex 2.92351 13.0367 1.5
      vertex -2.56099 13.1101 1.5
      vertex -2.48848 13.0728 1.5
    endloop
  endfacet
  facet normal 0 0 1
    outer loop
      vertex 3.14067 13.1281 1.5
      vertex -2.6384 13.1381 1.5
      vertex -2.56099 13.1101 1.5
    endloop
  endfacet
  facet normal 0 0 1
    outer loop
      vertex 3.24969 13.1534 1.5
      vertex -2.72005 13.1562 1.5
      vertex -2.6384 13.1381 1.5
    endloop
  endfacet
  facet normal 0 0 1
    outer loop
      vertex 3.33911 13.1631 1.5
      vertex -2.80528 13.1638 1.5
      vertex -2.72005 13.1562 1.5
    endloop
  endfacet
  facet normal -0 0 1
    outer loop
      vertex -14 14 1.5
      vertex -2.80528 13.1638 1.5
      vertex 14 14 1.5
    endloop
  endfacet
  facet normal 0 0 1
    outer loop
      vertex -6.00487 12.579 1.5
      vertex -14 14 1.5
      vertex -6.01248 12.4861 1.5
    endloop
  endfacet
  facet normal 0 0 1
    outer loop
      vertex -5.9868 12.6671 1.5
      vertex -14 14 1.5
      vertex -6.00487 12.579 1.5
    endloop
  endfacet
  facet normal 0 0 1
    outer loop
      vertex -5.95885 12.7499 1.5
      vertex -14 14 1.5
      vertex -5.9868 12.6671 1.5
    endloop
  endfacet
  facet normal 0 0 1
    outer loop
      vertex -5.92155 12.8268 1.5
      vertex -14 14 1.5
      vertex -5.95885 12.7499 1.5
    endloop
  endfacet
  facet normal 0 0 1
    outer loop
      vertex -5.87549 12.8972 1.5
      vertex -14 14 1.5
      vertex -5.92155 12.8268 1.5
    endloop
  endfacet
  facet normal 0 0 1
    outer loop
      vertex -5.82118 12.9607 1.5
      vertex -14 14 1.5
      vertex -5.87549 12.8972 1.5
    endloop
  endfacet
  facet normal 0 0 1
    outer loop
      vertex -5.75922 13.0166 1.5
      vertex -14 14 1.5
      vertex -5.82118 12.9607 1.5
    endloop
  endfacet
  facet normal 0 0 1
    outer loop
      vertex -5.69014 13.0643 1.5
      vertex -14 14 1.5
      vertex -5.75922 13.0166 1.5
    endloop
  endfacet
  facet normal 0 0 1
    outer loop
      vertex -5.6145 13.1034 1.5
      vertex -14 14 1.5
      vertex -5.69014 13.0643 1.5
    endloop
  endfacet
  facet normal 0 0 1
    outer loop
      vertex -5.53285 13.1333 1.5
      vertex -14 14 1.5
      vertex -5.6145 13.1034 1.5
    endloop
  endfacet
  facet normal 0 0 1
    outer loop
      vertex -5.44574 13.1534 1.5
      vertex -14 14 1.5
      vertex -5.53285 13.1333 1.5
    endloop
  endfacet
  facet normal 0 0 1
    outer loop
      vertex -5.35374 13.1631 1.5
      vertex -14 14 1.5
      vertex -5.44574 13.1534 1.5
    endloop
  endfacet
  facet normal 0 0 1
    outer loop
      vertex -2.80528 13.1638 1.5
      vertex -14 14 1.5
      vertex -5.35374 13.1631 1.5
    endloop
  endfacet
  facet normal 0 0 1
    outer loop
      vertex 6.32359 12.6149 1.5
      vertex 14 14 1.5
      vertex 6.33908 12.7009 1.5
    endloop
  endfacet
  facet normal 0 0 1
    outer loop
      vertex 6.29495 12.5238 1.5
      vertex 14 14 1.5
      vertex 6.32359 12.6149 1.5
    endloop
  endfacet
  facet normal 0 0 1
    outer loop
      vertex 0.807281 0.292999 1.5
      vertex 14 14 1.5
      vertex 6.29495 12.5238 1.5
    endloop
  endfacet
  facet normal -0 0 1
    outer loop
      vertex 6.26366 -12.024 1.5
      vertex 14 -14 1.5
      vertex 14 14 1.5
    endloop
  endfacet
  facet normal -0 0 1
    outer loop
      vertex 6.26334 -12.1812 1.5
      vertex 14 -14 1.5
      vertex 6.2695 -12.1056 1.5
    endloop
  endfacet
  facet normal -0 0 1
    outer loop
      vertex 6.25014 -12.2369 1.5
      vertex 14 -14 1.5
      vertex 6.26334 -12.1812 1.5
    endloop
  endfacet
  facet normal -0 0 1
    outer loop
      vertex 6.22989 -12.2881 1.5
      vertex 14 -14 1.5
      vertex 6.25014 -12.2369 1.5
    endloop
  endfacet
  facet normal -0 0 1
    outer loop
      vertex 6.20288 -12.3346 1.5
      vertex 14 -14 1.5
      vertex 6.22989 -12.2881 1.5
    endloop
  endfacet
  facet normal -0 0 1
    outer loop
      vertex 6.16939 -12.376 1.5
      vertex 14 -14 1.5
      vertex 6.20288 -12.3346 1.5
    endloop
  endfacet
  facet normal -0 0 1
    outer loop
      vertex 6.12973 -12.4121 1.5
      vertex 14 -14 1.5
      vertex 6.16939 -12.376 1.5
    endloop
  endfacet
  facet normal -0 0 1
    outer loop
      vertex 6.08415 -12.4426 1.5
      vertex 14 -14 1.5
      vertex 6.12973 -12.4121 1.5
    endloop
  endfacet
  facet normal -0 0 1
    outer loop
      vertex 6.01933 -12.4724 1.5
      vertex 14 -14 1.5
      vertex 6.08415 -12.4426 1.5
    endloop
  endfacet
  facet normal -0 0 1
    outer loop
      vertex 5.94629 -12.4924 1.5
      vertex 14 -14 1.5
      vertex 6.01933 -12.4724 1.5
    endloop
  endfacet
  facet normal -0 0 1
    outer loop
      vertex 5.86559 -12.5021 1.5
      vertex 14 -14 1.5
      vertex 5.94629 -12.4924 1.5
    endloop
  endfacet
  facet normal -0 0 1
    outer loop
      vertex 3.31807 -12.5028 1.5
      vertex 14 -14 1.5
      vertex 5.86559 -12.5021 1.5
    endloop
  endfacet
  facet normal -0 0 1
    outer loop
      vertex -2.78798 -12.5021 1.5
      vertex 3.31807 -12.5028 1.5
      vertex 3.22142 -12.4952 1.5
    endloop
  endfacet
  facet normal -0 0 1
    outer loop
      vertex -2.1627 -6.37999 1.5
      vertex 2.34727 -11.807 1.5
      vertex -1.09871 -4.03299 1.5
    endloop
  endfacet
  facet normal 0 0 1
    outer loop
      vertex -2.16292 -11.8261 1.5
      vertex 2.34727 -11.807 1.5
      vertex -2.1627 -6.37999 1.5
    endloop
  endfacet
  facet normal 0 0 1
    outer loop
      vertex -2.17049 -11.919 1.5
      vertex 2.34727 -11.807 1.5
      vertex -2.16292 -11.8261 1.5
    endloop
  endfacet
  facet normal 0 0 1
    outer loop
      vertex -2.18834 -12.007 1.5
      vertex 2.34727 -11.807 1.5
      vertex -2.17049 -11.919 1.5
    endloop
  endfacet
  facet normal 0 0 1
    outer loop
      vertex 2.34727 -11.807 1.5
      vertex -2.18834 -12.007 1.5
      vertex 2.38765 -11.9008 1.5
    endloop
  endfacet
  facet normal 0 0 1
    outer loop
      vertex -2.21581 -12.0898 1.5
      vertex 2.38765 -11.9008 1.5
      vertex -2.18834 -12.007 1.5
    endloop
  endfacet
  facet normal 0 0 1
    outer loop
      vertex 2.38765 -11.9008 1.5
      vertex -2.21581 -12.0898 1.5
      vertex 2.43811 -11.9899 1.5
    endloop
  endfacet
  facet normal 0 0 1
    outer loop
      vertex -2.25226 -12.1665 1.5
      vertex 2.43811 -11.9899 1.5
      vertex -2.21581 -12.0898 1.5
    endloop
  endfacet
  facet normal 0 0 1
    outer loop
      vertex 2.43811 -11.9899 1.5
      vertex -2.25226 -12.1665 1.5
      vertex 2.49765 -12.0737 1.5
    endloop
  endfacet
  facet normal 0 0 1
    outer loop
      vertex -2.29703 -12.2369 1.5
      vertex 2.49765 -12.0737 1.5
      vertex -2.25226 -12.1665 1.5
    endloop
  endfacet
  facet normal 0 0 1
    outer loop
      vertex 2.49765 -12.0737 1.5
      vertex -2.29703 -12.2369 1.5
      vertex 2.57973 -12.1665 1.5
    endloop
  endfacet
  facet normal 0 0 1
    outer loop
      vertex -2.34944 -12.3002 1.5
      vertex 2.57973 -12.1665 1.5
      vertex -2.29703 -12.2369 1.5
    endloop
  endfacet
  facet normal 0 0 1
    outer loop
      vertex 2.57973 -12.1665 1.5
      vertex -2.34944 -12.3002 1.5
      vertex 2.67175 -12.2501 1.5
    endloop
  endfacet
  facet normal 0 0 1
    outer loop
      vertex -2.40886 -12.3559 1.5
      vertex 2.67175 -12.2501 1.5
      vertex -2.34944 -12.3002 1.5
    endloop
  endfacet
  facet normal 0 0 1
    outer loop
      vertex 2.67175 -12.2501 1.5
      vertex -2.40886 -12.3559 1.5
      vertex 2.77203 -12.3234 1.5
    endloop
  endfacet
  facet normal 0 0 1
    outer loop
      vertex -2.47462 -12.4036 1.5
      vertex 2.77203 -12.3234 1.5
      vertex -2.40886 -12.3559 1.5
    endloop
  endfacet
  facet normal 0 0 1
    outer loop
      vertex 2.77203 -12.3234 1.5
      vertex -2.47462 -12.4036 1.5
      vertex 2.87885 -12.3855 1.5
    endloop
  endfacet
  facet normal 0 0 1
    outer loop
      vertex -2.54608 -12.4426 1.5
      vertex 2.87885 -12.3855 1.5
      vertex -2.47462 -12.4036 1.5
    endloop
  endfacet
  facet normal 0 0 1
    outer loop
      vertex 2.87885 -12.3855 1.5
      vertex -2.54608 -12.4426 1.5
      vertex 2.99049 -12.4355 1.5
    endloop
  endfacet
  facet normal 0 0 1
    outer loop
      vertex -2.62256 -12.4724 1.5
      vertex 2.99049 -12.4355 1.5
      vertex -2.54608 -12.4426 1.5
    endloop
  endfacet
  facet normal 0 0 1
    outer loop
      vertex 2.99049 -12.4355 1.5
      vertex -2.62256 -12.4724 1.5
      vertex 3.10526 -12.4724 1.5
    endloop
  endfacet
  facet normal 0 0 1
    outer loop
      vertex -2.70341 -12.4924 1.5
      vertex 3.10526 -12.4724 1.5
      vertex -2.62256 -12.4724 1.5
    endloop
  endfacet
  facet normal 0 0 1
    outer loop
      vertex 3.10526 -12.4724 1.5
      vertex -2.70341 -12.4924 1.5
      vertex 3.22142 -12.4952 1.5
    endloop
  endfacet
  facet normal 0 0 1
    outer loop
      vertex -2.78798 -12.5021 1.5
      vertex 3.22142 -12.4952 1.5
      vertex -2.70341 -12.4924 1.5
    endloop
  endfacet
  facet normal 0 0 1
    outer loop
      vertex 3.31807 -12.5028 1.5
      vertex -2.78798 -12.5021 1.5
      vertex 14 -14 1.5
    endloop
  endfacet
  facet normal 0 0 1
    outer loop
      vertex -14 -14 1.5
      vertex -2.78798 -12.5021 1.5
      vertex -5.35374 -12.5021 1.5
    endloop
  endfacet
  facet normal 0 0 1
    outer loop
      vertex -14 14 1.5
      vertex -6.01183 -11.845 1.5
      vertex -6.01248 12.4861 1.5
    endloop
  endfacet
  facet normal 0 0 1
    outer loop
      vertex -14 -14 1.5
      vertex -6.01183 -11.845 1.5
      vertex -14 14 1.5
    endloop
  endfacet
  facet normal 0 0 1
    outer loop
      vertex -6.01183 -11.845 1.5
      vertex -14 -14 1.5
      vertex -6.00208 -11.937 1.5
    endloop
  endfacet
  facet normal 0 0 1
    outer loop
      vertex -2.78798 -12.5021 1.5
      vertex -14 -14 1.5
      vertex 14 -14 1.5
    endloop
  endfacet
  facet normal 0 0 1
    outer loop
      vertex -5.42772 -12.4952 1.5
      vertex -14 -14 1.5
      vertex -5.35374 -12.5021 1.5
    endloop
  endfacet
  facet normal 0 0 1
    outer loop
      vertex -5.51584 -12.4772 1.5
      vertex -14 -14 1.5
      vertex -5.42772 -12.4952 1.5
    endloop
  endfacet
  facet normal 0 0 1
    outer loop
      vertex -5.59863 -12.4493 1.5
      vertex -14 -14 1.5
      vertex -5.51584 -12.4772 1.5
    endloop
  endfacet
  facet normal 0 0 1
    outer loop
      vertex -5.67552 -12.4121 1.5
      vertex -14 -14 1.5
      vertex -5.59863 -12.4493 1.5
    endloop
  endfacet
  facet normal 0 0 1
    outer loop
      vertex -5.74596 -12.3661 1.5
      vertex -14 -14 1.5
      vertex -5.67552 -12.4121 1.5
    endloop
  endfacet
  facet normal 0 0 1
    outer loop
      vertex -5.80939 -12.312 1.5
      vertex -14 -14 1.5
      vertex -5.74596 -12.3661 1.5
    endloop
  endfacet
  facet normal 0 0 1
    outer loop
      vertex -5.86526 -12.2501 1.5
      vertex -14 -14 1.5
      vertex -5.80939 -12.312 1.5
    endloop
  endfacet
  facet normal 0 0 1
    outer loop
      vertex -5.91302 -12.1812 1.5
      vertex -14 -14 1.5
      vertex -5.86526 -12.2501 1.5
    endloop
  endfacet
  facet normal 0 0 1
    outer loop
      vertex -5.95212 -12.1056 1.5
      vertex -14 -14 1.5
      vertex -5.91302 -12.1812 1.5
    endloop
  endfacet
  facet normal 0 0 1
    outer loop
      vertex -5.98198 -12.024 1.5
      vertex -14 -14 1.5
      vertex -5.95212 -12.1056 1.5
    endloop
  endfacet
  facet normal 0 0 1
    outer loop
      vertex -6.00208 -11.937 1.5
      vertex -14 -14 1.5
      vertex -5.98198 -12.024 1.5
    endloop
  endfacet
  facet normal 1 -0 0
    outer loop
      vertex 14 -14 1.5
      vertex 14 14 0.5
      vertex 14 14 1.5
    endloop
  endfacet
  facet normal 1 0 0
    outer loop
      vertex 14 14 0.5
      vertex 14 -14 1.5
      vertex 14 -14 0.5
    endloop
  endfacet
  facet normal 0 1 -0
    outer loop
      vertex 14 14 0.5
      vertex -14 14 1.5
      vertex 14 14 1.5
    endloop
  endfacet
  facet normal 0 1 0
    outer loop
      vertex -14 14 1.5
      vertex 14 14 0.5
      vertex -14 14 0.5
    endloop
  endfacet
  facet normal 0 0 -1
    outer loop
      vertex -14 -14 0.5
      vertex 14 14 0.5
      vertex 14 -14 0.5
    endloop
  endfacet
  facet normal -0 0 -1
    outer loop
      vertex 14 14 0.5
      vertex -14 -14 0.5
      vertex -14 14 0.5
    endloop
  endfacet
  facet normal 0 -1 0
    outer loop
      vertex -14 -14 0.5
      vertex 14 -14 1.5
      vertex -14 -14 1.5
    endloop
  endfacet
  facet normal 0 -1 -0
    outer loop
      vertex 14 -14 1.5
      vertex -14 -14 0.5
      vertex 14 -14 0.5
    endloop
  endfacet
  facet normal 0 0 1
    outer loop
      vertex 6.08788 13.1281 3
      vertex 6.34189 12.7814 3
      vertex 6.33528 12.8414 3
    endloop
  endfacet
  facet normal 0 0 1
    outer loop
      vertex 6.34189 12.7814 3
      vertex 6.08788 13.1281 3
      vertex 6.33908 12.7009 3
    endloop
  endfacet
  facet normal 0 0 1
    outer loop
      vertex 6.1432 13.1034 3
      vertex 6.33528 12.8414 3
      vertex 6.32103 12.8972 3
    endloop
  endfacet
  facet normal 0 0 1
    outer loop
      vertex 6.19225 13.0728 3
      vertex 6.32103 12.8972 3
      vertex 6.29939 12.9486 3
    endloop
  endfacet
  facet normal 0 0 1
    outer loop
      vertex 6.01019 13.1501 3
      vertex 6.33908 12.7009 3
      vertex 6.08788 13.1281 3
    endloop
  endfacet
  facet normal 0 0 1
    outer loop
      vertex 6.19225 13.0728 3
      vertex 6.29939 12.9486 3
      vertex 6.27055 12.9951 3
    endloop
  endfacet
  facet normal 0 0 1
    outer loop
      vertex 6.19225 13.0728 3
      vertex 6.27055 12.9951 3
      vertex 6.23477 13.0367 3
    endloop
  endfacet
  facet normal 0 0 1
    outer loop
      vertex 6.32103 12.8972 3
      vertex 6.19225 13.0728 3
      vertex 6.1432 13.1034 3
    endloop
  endfacet
  facet normal 0 0 1
    outer loop
      vertex 6.33528 12.8414 3
      vertex 6.1432 13.1034 3
      vertex 6.08788 13.1281 3
    endloop
  endfacet
  facet normal 0 0 1
    outer loop
      vertex 6.33908 12.7009 3
      vertex 6.01019 13.1501 3
      vertex 6.32359 12.6149 3
    endloop
  endfacet
  facet normal 0 0 1
    outer loop
      vertex 5.92348 13.162 3
      vertex 6.32359 12.6149 3
      vertex 6.01019 13.1501 3
    endloop
  endfacet
  facet normal 0 0 1
    outer loop
      vertex 5.86728 13.164 3
      vertex 6.32359 12.6149 3
      vertex 5.92348 13.162 3
    endloop
  endfacet
  facet normal 0 0 1
    outer loop
      vertex 6.32359 12.6149 3
      vertex 5.86728 13.164 3
      vertex 6.29495 12.5238 3
    endloop
  endfacet
  facet normal -0 0 1
    outer loop
      vertex 3.33911 13.1631 3
      vertex 6.29495 12.5238 3
      vertex 5.86728 13.164 3
    endloop
  endfacet
  facet normal 0 0 1
    outer loop
      vertex 3.14067 13.1281 3
      vertex 3.33911 13.1631 3
      vertex 3.24969 13.1534 3
    endloop
  endfacet
  facet normal 0 0 1
    outer loop
      vertex 3.03137 13.0889 3
      vertex 3.33911 13.1631 3
      vertex 3.14067 13.1281 3
    endloop
  endfacet
  facet normal 0 0 1
    outer loop
      vertex 3.33911 13.1631 3
      vertex 3.03137 13.0889 3
      vertex 2.92351 13.0367 3
    endloop
  endfacet
  facet normal 0 0 1
    outer loop
      vertex 3.33911 13.1631 3
      vertex 2.92351 13.0367 3
      vertex 2.80179 12.9607 3
    endloop
  endfacet
  facet normal 0 0 1
    outer loop
      vertex 2.68707 12.8699 3
      vertex 3.33911 13.1631 3
      vertex 2.80179 12.9607 3
    endloop
  endfacet
  facet normal 0 0 1
    outer loop
      vertex 3.33911 13.1631 3
      vertex 2.68707 12.8699 3
      vertex 2.39319 12.4861 3
    endloop
  endfacet
  facet normal 0 0 1
    outer loop
      vertex 2.39319 12.4861 3
      vertex 2.68707 12.8699 3
      vertex 2.59637 12.7814 3
    endloop
  endfacet
  facet normal 0 0 1
    outer loop
      vertex 2.39319 12.4861 3
      vertex 2.59637 12.7814 3
      vertex 2.51454 12.6841 3
    endloop
  endfacet
  facet normal 0 0 1
    outer loop
      vertex 2.39319 12.4861 3
      vertex 2.51454 12.6841 3
      vertex 2.44327 12.579 3
    endloop
  endfacet
  facet normal 0 0 1
    outer loop
      vertex 3.33911 13.1631 3
      vertex 2.39319 12.4861 3
      vertex 6.29495 12.5238 3
    endloop
  endfacet
  facet normal -0 0 1
    outer loop
      vertex 2.39319 12.4861 3
      vertex 0.807281 0.292999 3
      vertex 6.29495 12.5238 3
    endloop
  endfacet
  facet normal -0 0 1
    outer loop
      vertex -2.1627 2.27299 3
      vertex 0.807281 0.292999 3
      vertex 2.39319 12.4861 3
    endloop
  endfacet
  facet normal 0 0 1
    outer loop
      vertex 0.807281 0.292999 3
      vertex -2.1627 2.27299 3
      vertex -1.09871 -4.03299 3
    endloop
  endfacet
  facet normal 0 0 1
    outer loop
      vertex -2.1627 2.27299 3
      vertex -2.1627 -6.37999 3
      vertex -1.09871 -4.03299 3
    endloop
  endfacet
  facet normal 0 0 1
    outer loop
      vertex -6.01183 -11.845 3
      vertex -2.1627 -6.37999 3
      vertex -2.1627 2.27299 3
    endloop
  endfacet
  facet normal -0 0 1
    outer loop
      vertex -6.01248 12.4861 3
      vertex -2.1627 2.27299 3
      vertex -2.16359 12.505 3
    endloop
  endfacet
  facet normal 0 0 1
    outer loop
      vertex -2.1627 -6.37999 3
      vertex -6.01183 -11.845 3
      vertex -2.16292 -11.8261 3
    endloop
  endfacet
  facet normal 0 0 1
    outer loop
      vertex -2.80528 13.1638 3
      vertex -2.16359 12.505 3
      vertex -2.17325 12.597 3
    endloop
  endfacet
  facet normal 0 -0 1
    outer loop
      vertex -5.35374 -12.5021 3
      vertex -2.16292 -11.8261 3
      vertex -6.01183 -11.845 3
    endloop
  endfacet
  facet normal 0 0 1
    outer loop
      vertex -2.80528 13.1638 3
      vertex -2.17325 12.597 3
      vertex -2.19308 12.6841 3
    endloop
  endfacet
  facet normal 0 0 1
    outer loop
      vertex -2.16292 -11.8261 3
      vertex -2.78798 -12.5021 3
      vertex -2.17049 -11.919 3
    endloop
  endfacet
  facet normal 0 0 1
    outer loop
      vertex -2.80528 13.1638 3
      vertex -2.19308 12.6841 3
      vertex -2.2224 12.7658 3
    endloop
  endfacet
  facet normal 0 0 1
    outer loop
      vertex -2.17049 -11.919 3
      vertex -2.78798 -12.5021 3
      vertex -2.18834 -12.007 3
    endloop
  endfacet
  facet normal 0 0 1
    outer loop
      vertex -2.80528 13.1638 3
      vertex -2.2224 12.7658 3
      vertex -2.26057 12.8414 3
    endloop
  endfacet
  facet normal 0 0 1
    outer loop
      vertex -2.1627 2.27299 3
      vertex -6.01248 12.4861 3
      vertex -6.01183 -11.845 3
    endloop
  endfacet
  facet normal 0 0 1
    outer loop
      vertex -2.80528 13.1638 3
      vertex -2.26057 12.8414 3
      vertex -2.30692 12.9105 3
    endloop
  endfacet
  facet normal 0 0 1
    outer loop
      vertex -2.18834 -12.007 3
      vertex -2.78798 -12.5021 3
      vertex -2.21581 -12.0898 3
    endloop
  endfacet
  facet normal 0 0 1
    outer loop
      vertex -2.80528 13.1638 3
      vertex -2.30692 12.9105 3
      vertex -2.36078 12.9725 3
    endloop
  endfacet
  facet normal 0 0 1
    outer loop
      vertex -2.21581 -12.0898 3
      vertex -2.78798 -12.5021 3
      vertex -2.25226 -12.1665 3
    endloop
  endfacet
  facet normal 0 0 1
    outer loop
      vertex -2.80528 13.1638 3
      vertex -2.36078 12.9725 3
      vertex -2.42152 13.0268 3
    endloop
  endfacet
  facet normal 0 0 1
    outer loop
      vertex -2.25226 -12.1665 3
      vertex -2.78798 -12.5021 3
      vertex -2.29703 -12.2369 3
    endloop
  endfacet
  facet normal 0 0 1
    outer loop
      vertex -2.80528 13.1638 3
      vertex -2.42152 13.0268 3
      vertex -2.48848 13.0728 3
    endloop
  endfacet
  facet normal 0 0 1
    outer loop
      vertex -2.29703 -12.2369 3
      vertex -2.78798 -12.5021 3
      vertex -2.34944 -12.3002 3
    endloop
  endfacet
  facet normal 0 0 1
    outer loop
      vertex -2.80528 13.1638 3
      vertex -2.48848 13.0728 3
      vertex -2.56099 13.1101 3
    endloop
  endfacet
  facet normal 0 0 1
    outer loop
      vertex -2.34944 -12.3002 3
      vertex -2.78798 -12.5021 3
      vertex -2.40886 -12.3559 3
    endloop
  endfacet
  facet normal 0 0 1
    outer loop
      vertex -2.80528 13.1638 3
      vertex -2.56099 13.1101 3
      vertex -2.6384 13.1381 3
    endloop
  endfacet
  facet normal 0 0 1
    outer loop
      vertex -2.40886 -12.3559 3
      vertex -2.78798 -12.5021 3
      vertex -2.47462 -12.4036 3
    endloop
  endfacet
  facet normal 0 0 1
    outer loop
      vertex -2.80528 13.1638 3
      vertex -2.6384 13.1381 3
      vertex -2.72005 13.1562 3
    endloop
  endfacet
  facet normal 0 0 1
    outer loop
      vertex -2.47462 -12.4036 3
      vertex -2.78798 -12.5021 3
      vertex -2.54608 -12.4426 3
    endloop
  endfacet
  facet normal 0 0 1
    outer loop
      vertex -2.16359 12.505 3
      vertex -2.80528 13.1638 3
      vertex -6.01248 12.4861 3
    endloop
  endfacet
  facet normal 0 0 1
    outer loop
      vertex -6.01248 12.4861 3
      vertex -2.80528 13.1638 3
      vertex -5.35374 13.1631 3
    endloop
  endfacet
  facet normal 0 0 1
    outer loop
      vertex -2.54608 -12.4426 3
      vertex -2.78798 -12.5021 3
      vertex -2.62256 -12.4724 3
    endloop
  endfacet
  facet normal 0 0 1
    outer loop
      vertex -2.62256 -12.4724 3
      vertex -2.78798 -12.5021 3
      vertex -2.70341 -12.4924 3
    endloop
  endfacet
  facet normal 0 0 1
    outer loop
      vertex -6.01248 12.4861 3
      vertex -5.35374 13.1631 3
      vertex -5.44574 13.1534 3
    endloop
  endfacet
  facet normal 0 0 1
    outer loop
      vertex -2.16292 -11.8261 3
      vertex -5.35374 -12.5021 3
      vertex -2.78798 -12.5021 3
    endloop
  endfacet
  facet normal 0 0 1
    outer loop
      vertex -6.01248 12.4861 3
      vertex -5.44574 13.1534 3
      vertex -5.53285 13.1333 3
    endloop
  endfacet
  facet normal 0 0 1
    outer loop
      vertex -5.35374 -12.5021 3
      vertex -6.01183 -11.845 3
      vertex -5.42772 -12.4952 3
    endloop
  endfacet
  facet normal 0 0 1
    outer loop
      vertex -6.01248 12.4861 3
      vertex -5.53285 13.1333 3
      vertex -5.6145 13.1034 3
    endloop
  endfacet
  facet normal 0 0 1
    outer loop
      vertex -5.42772 -12.4952 3
      vertex -6.01183 -11.845 3
      vertex -5.51584 -12.4772 3
    endloop
  endfacet
  facet normal 0 0 1
    outer loop
      vertex -6.01248 12.4861 3
      vertex -5.6145 13.1034 3
      vertex -5.69014 13.0643 3
    endloop
  endfacet
  facet normal 0 0 1
    outer loop
      vertex -5.51584 -12.4772 3
      vertex -6.01183 -11.845 3
      vertex -5.59863 -12.4493 3
    endloop
  endfacet
  facet normal 0 0 1
    outer loop
      vertex -6.01248 12.4861 3
      vertex -5.69014 13.0643 3
      vertex -5.75922 13.0166 3
    endloop
  endfacet
  facet normal 0 0 1
    outer loop
      vertex -5.59863 -12.4493 3
      vertex -6.01183 -11.845 3
      vertex -5.67552 -12.4121 3
    endloop
  endfacet
  facet normal 0 0 1
    outer loop
      vertex -6.01248 12.4861 3
      vertex -5.75922 13.0166 3
      vertex -5.82118 12.9607 3
    endloop
  endfacet
  facet normal 0 0 1
    outer loop
      vertex -5.67552 -12.4121 3
      vertex -6.01183 -11.845 3
      vertex -5.74596 -12.3661 3
    endloop
  endfacet
  facet normal 0 0 1
    outer loop
      vertex -6.01248 12.4861 3
      vertex -5.82118 12.9607 3
      vertex -5.87549 12.8972 3
    endloop
  endfacet
  facet normal 0 0 1
    outer loop
      vertex -5.74596 -12.3661 3
      vertex -6.01183 -11.845 3
      vertex -5.80939 -12.312 3
    endloop
  endfacet
  facet normal 0 0 1
    outer loop
      vertex -6.01248 12.4861 3
      vertex -5.87549 12.8972 3
      vertex -5.92155 12.8268 3
    endloop
  endfacet
  facet normal 0 0 1
    outer loop
      vertex -5.80939 -12.312 3
      vertex -6.01183 -11.845 3
      vertex -5.86526 -12.2501 3
    endloop
  endfacet
  facet normal 0 0 1
    outer loop
      vertex -6.01248 12.4861 3
      vertex -5.92155 12.8268 3
      vertex -5.95885 12.7499 3
    endloop
  endfacet
  facet normal 0 0 1
    outer loop
      vertex -5.86526 -12.2501 3
      vertex -6.01183 -11.845 3
      vertex -5.91302 -12.1812 3
    endloop
  endfacet
  facet normal 0 0 1
    outer loop
      vertex -6.01248 12.4861 3
      vertex -5.95885 12.7499 3
      vertex -5.9868 12.6671 3
    endloop
  endfacet
  facet normal 0 0 1
    outer loop
      vertex -5.91302 -12.1812 3
      vertex -6.01183 -11.845 3
      vertex -5.95212 -12.1056 3
    endloop
  endfacet
  facet normal 0 0 1
    outer loop
      vertex -6.01248 12.4861 3
      vertex -5.9868 12.6671 3
      vertex -6.00487 12.579 3
    endloop
  endfacet
  facet normal 0 0 1
    outer loop
      vertex -5.95212 -12.1056 3
      vertex -6.01183 -11.845 3
      vertex -5.98198 -12.024 3
    endloop
  endfacet
  facet normal 0 0 1
    outer loop
      vertex -5.98198 -12.024 3
      vertex -6.01183 -11.845 3
      vertex -6.00208 -11.937 3
    endloop
  endfacet
  facet normal 0 0 1
    outer loop
      vertex 5.94629 -12.4924 3
      vertex 6.2695 -12.1056 3
      vertex 6.26366 -12.024 3
    endloop
  endfacet
  facet normal 0 0 1
    outer loop
      vertex 6.2695 -12.1056 3
      vertex 5.94629 -12.4924 3
      vertex 6.26334 -12.1812 3
    endloop
  endfacet
  facet normal 0 0 1
    outer loop
      vertex 5.86559 -12.5021 3
      vertex 6.26366 -12.024 3
      vertex 6.24524 -11.937 3
    endloop
  endfacet
  facet normal 0 -0 1
    outer loop
      vertex 6.01933 -12.4724 3
      vertex 6.26334 -12.1812 3
      vertex 5.94629 -12.4924 3
    endloop
  endfacet
  facet normal 0 0 1
    outer loop
      vertex 5.86559 -12.5021 3
      vertex 6.24524 -11.937 3
      vertex 6.2137 -11.845 3
    endloop
  endfacet
  facet normal 0 0 1
    outer loop
      vertex 6.26334 -12.1812 3
      vertex 6.01933 -12.4724 3
      vertex 6.25014 -12.2369 3
    endloop
  endfacet
  facet normal 0 0 1
    outer loop
      vertex 6.25014 -12.2369 3
      vertex 6.08415 -12.4426 3
      vertex 6.22989 -12.2881 3
    endloop
  endfacet
  facet normal 0 0 1
    outer loop
      vertex 6.22989 -12.2881 3
      vertex 6.08415 -12.4426 3
      vertex 6.20288 -12.3346 3
    endloop
  endfacet
  facet normal 0 0 1
    outer loop
      vertex 6.16939 -12.376 3
      vertex 6.08415 -12.4426 3
      vertex 6.12973 -12.4121 3
    endloop
  endfacet
  facet normal 0 0 1
    outer loop
      vertex 6.20288 -12.3346 3
      vertex 6.08415 -12.4426 3
      vertex 6.16939 -12.376 3
    endloop
  endfacet
  facet normal 0 -0 1
    outer loop
      vertex 6.08415 -12.4426 3
      vertex 6.25014 -12.2369 3
      vertex 6.01933 -12.4724 3
    endloop
  endfacet
  facet normal 0 0 1
    outer loop
      vertex 6.26366 -12.024 3
      vertex 5.86559 -12.5021 3
      vertex 5.94629 -12.4924 3
    endloop
  endfacet
  facet normal 0 0 1
    outer loop
      vertex 6.2137 -11.845 3
      vertex 3.31807 -12.5028 3
      vertex 5.86559 -12.5021 3
    endloop
  endfacet
  facet normal 0 0 1
    outer loop
      vertex 2.34727 -11.807 3
      vertex 3.31807 -12.5028 3
      vertex 6.2137 -11.845 3
    endloop
  endfacet
  facet normal -0 -0 1
    outer loop
      vertex 2.87885 -12.3855 3
      vertex 3.31807 -12.5028 3
      vertex 2.34727 -11.807 3
    endloop
  endfacet
  facet normal 0 0 1
    outer loop
      vertex 3.31807 -12.5028 3
      vertex 2.99049 -12.4355 3
      vertex 3.22142 -12.4952 3
    endloop
  endfacet
  facet normal 0 0 1
    outer loop
      vertex 3.22142 -12.4952 3
      vertex 2.99049 -12.4355 3
      vertex 3.10526 -12.4724 3
    endloop
  endfacet
  facet normal 0 0 1
    outer loop
      vertex 3.31807 -12.5028 3
      vertex 2.87885 -12.3855 3
      vertex 2.99049 -12.4355 3
    endloop
  endfacet
  facet normal 0 0 1
    outer loop
      vertex 2.87885 -12.3855 3
      vertex 2.34727 -11.807 3
      vertex 2.77203 -12.3234 3
    endloop
  endfacet
  facet normal 0 0 1
    outer loop
      vertex 2.77203 -12.3234 3
      vertex 2.34727 -11.807 3
      vertex 2.67175 -12.2501 3
    endloop
  endfacet
  facet normal 0 0 1
    outer loop
      vertex 2.67175 -12.2501 3
      vertex 2.34727 -11.807 3
      vertex 2.57973 -12.1665 3
    endloop
  endfacet
  facet normal 0 0 1
    outer loop
      vertex 2.57973 -12.1665 3
      vertex 2.34727 -11.807 3
      vertex 2.49765 -12.0737 3
    endloop
  endfacet
  facet normal 0 0 1
    outer loop
      vertex 2.49765 -12.0737 3
      vertex 2.34727 -11.807 3
      vertex 2.43811 -11.9899 3
    endloop
  endfacet
  facet normal 0 0 1
    outer loop
      vertex 2.43811 -11.9899 3
      vertex 2.34727 -11.807 3
      vertex 2.38765 -11.9008 3
    endloop
  endfacet
  facet normal -0 0 1
    outer loop
      vertex -1.09871 -4.03299 3
      vertex 6.2137 -11.845 3
      vertex 0.807281 0.292999 3
    endloop
  endfacet
  facet normal 0 0 1
    outer loop
      vertex 6.2137 -11.845 3
      vertex -1.09871 -4.03299 3
      vertex 2.34727 -11.807 3
    endloop
  endfacet
  facet normal 0 -1 0
    outer loop
      vertex -5.35374 -12.5021 1.5
      vertex -2.78798 -12.5021 3
      vertex -5.35374 -12.5021 3
    endloop
  endfacet
  facet normal 0 -1 -0
    outer loop
      vertex -2.78798 -12.5021 3
      vertex -5.35374 -12.5021 1.5
      vertex -2.78798 -12.5021 1.5
    endloop
  endfacet
  facet normal 0.114189 -0.993459 0
    outer loop
      vertex -2.78798 -12.5021 1.5
      vertex -2.70341 -12.4924 3
      vertex -2.78798 -12.5021 3
    endloop
  endfacet
  facet normal 0.114189 -0.993459 0
    outer loop
      vertex -2.70341 -12.4924 3
      vertex -2.78798 -12.5021 1.5
      vertex -2.70341 -12.4924 1.5
    endloop
  endfacet
  facet normal 0.240337 -0.97069 0
    outer loop
      vertex -2.70341 -12.4924 1.5
      vertex -2.62256 -12.4724 3
      vertex -2.70341 -12.4924 3
    endloop
  endfacet
  facet normal 0.240337 -0.97069 0
    outer loop
      vertex -2.62256 -12.4724 3
      vertex -2.70341 -12.4924 1.5
      vertex -2.62256 -12.4724 1.5
    endloop
  endfacet
  facet normal 0.362913 -0.931823 0
    outer loop
      vertex -2.62256 -12.4724 1.5
      vertex -2.54608 -12.4426 3
      vertex -2.62256 -12.4724 3
    endloop
  endfacet
  facet normal 0.362913 -0.931823 0
    outer loop
      vertex -2.54608 -12.4426 3
      vertex -2.62256 -12.4724 1.5
      vertex -2.54608 -12.4426 1.5
    endloop
  endfacet
  facet normal 0.478944 -0.877845 0
    outer loop
      vertex -2.54608 -12.4426 1.5
      vertex -2.47462 -12.4036 3
      vertex -2.54608 -12.4426 3
    endloop
  endfacet
  facet normal 0.478944 -0.877845 0
    outer loop
      vertex -2.47462 -12.4036 3
      vertex -2.54608 -12.4426 1.5
      vertex -2.47462 -12.4036 1.5
    endloop
  endfacet
  facet normal 0.586752 -0.809767 0
    outer loop
      vertex -2.47462 -12.4036 1.5
      vertex -2.40886 -12.3559 3
      vertex -2.47462 -12.4036 3
    endloop
  endfacet
  facet normal 0.586752 -0.809767 0
    outer loop
      vertex -2.40886 -12.3559 3
      vertex -2.47462 -12.4036 1.5
      vertex -2.40886 -12.3559 1.5
    endloop
  endfacet
  facet normal 0.684277 -0.729222 0
    outer loop
      vertex -2.40886 -12.3559 1.5
      vertex -2.34944 -12.3002 3
      vertex -2.40886 -12.3559 3
    endloop
  endfacet
  facet normal 0.684277 -0.729222 0
    outer loop
      vertex -2.34944 -12.3002 3
      vertex -2.40886 -12.3559 1.5
      vertex -2.34944 -12.3002 1.5
    endloop
  endfacet
  facet normal 0.770272 -0.637716 0
    outer loop
      vertex -2.34944 -12.3002 3
      vertex -2.29703 -12.2369 1.5
      vertex -2.29703 -12.2369 3
    endloop
  endfacet
  facet normal 0.770272 -0.637716 0
    outer loop
      vertex -2.29703 -12.2369 1.5
      vertex -2.34944 -12.3002 3
      vertex -2.34944 -12.3002 1.5
    endloop
  endfacet
  facet normal 0.843579 -0.537006 0
    outer loop
      vertex -2.29703 -12.2369 3
      vertex -2.25226 -12.1665 1.5
      vertex -2.25226 -12.1665 3
    endloop
  endfacet
  facet normal 0.843579 -0.537006 0
    outer loop
      vertex -2.25226 -12.1665 1.5
      vertex -2.29703 -12.2369 3
      vertex -2.29703 -12.2369 1.5
    endloop
  endfacet
  facet normal 0.903394 -0.428811 0
    outer loop
      vertex -2.25226 -12.1665 3
      vertex -2.21581 -12.0898 1.5
      vertex -2.21581 -12.0898 3
    endloop
  endfacet
  facet normal 0.903394 -0.428811 0
    outer loop
      vertex -2.21581 -12.0898 1.5
      vertex -2.25226 -12.1665 3
      vertex -2.25226 -12.1665 1.5
    endloop
  endfacet
  facet normal 0.949033 -0.315177 0
    outer loop
      vertex -2.21581 -12.0898 3
      vertex -2.18834 -12.007 1.5
      vertex -2.18834 -12.007 3
    endloop
  endfacet
  facet normal 0.949033 -0.315177 0
    outer loop
      vertex -2.18834 -12.007 1.5
      vertex -2.21581 -12.0898 3
      vertex -2.21581 -12.0898 1.5
    endloop
  endfacet
  facet normal 0.980061 -0.198695 0
    outer loop
      vertex -2.18834 -12.007 3
      vertex -2.17049 -11.919 1.5
      vertex -2.17049 -11.919 3
    endloop
  endfacet
  facet normal 0.980061 -0.198695 0
    outer loop
      vertex -2.17049 -11.919 1.5
      vertex -2.18834 -12.007 3
      vertex -2.18834 -12.007 1.5
    endloop
  endfacet
  facet normal 0.996698 -0.0812027 0
    outer loop
      vertex -2.17049 -11.919 3
      vertex -2.16292 -11.8261 1.5
      vertex -2.16292 -11.8261 3
    endloop
  endfacet
  facet normal 0.996698 -0.0812027 0
    outer loop
      vertex -2.16292 -11.8261 1.5
      vertex -2.17049 -11.919 3
      vertex -2.17049 -11.919 1.5
    endloop
  endfacet
  facet normal 1 -3.92249e-05 0
    outer loop
      vertex -2.16292 -11.8261 3
      vertex -2.1627 -6.37999 1.5
      vertex -2.1627 -6.37999 3
    endloop
  endfacet
  facet normal 1 -3.92249e-05 0
    outer loop
      vertex -2.1627 -6.37999 1.5
      vertex -2.16292 -11.8261 3
      vertex -2.16292 -11.8261 1.5
    endloop
  endfacet
  facet normal 0.910779 -0.412895 0
    outer loop
      vertex -2.1627 -6.37999 3
      vertex -1.09871 -4.03299 1.5
      vertex -1.09871 -4.03299 3
    endloop
  endfacet
  facet normal 0.910779 -0.412895 0
    outer loop
      vertex -1.09871 -4.03299 1.5
      vertex -2.1627 -6.37999 3
      vertex -2.1627 -6.37999 1.5
    endloop
  endfacet
  facet normal -0.91421 -0.405242 0
    outer loop
      vertex 2.34727 -11.807 1.5
      vertex -1.09871 -4.03299 3
      vertex -1.09871 -4.03299 1.5
    endloop
  endfacet
  facet normal -0.91421 -0.405242 0
    outer loop
      vertex -1.09871 -4.03299 3
      vertex 2.34727 -11.807 1.5
      vertex 2.34727 -11.807 3
    endloop
  endfacet
  facet normal -0.918494 -0.395434 0
    outer loop
      vertex 2.38765 -11.9008 1.5
      vertex 2.34727 -11.807 3
      vertex 2.34727 -11.807 1.5
    endloop
  endfacet
  facet normal -0.918494 -0.395434 0
    outer loop
      vertex 2.34727 -11.807 3
      vertex 2.38765 -11.9008 1.5
      vertex 2.38765 -11.9008 3
    endloop
  endfacet
  facet normal -0.870099 -0.492877 0
    outer loop
      vertex 2.43811 -11.9899 1.5
      vertex 2.38765 -11.9008 3
      vertex 2.38765 -11.9008 1.5
    endloop
  endfacet
  facet normal -0.870099 -0.492877 0
    outer loop
      vertex 2.38765 -11.9008 3
      vertex 2.43811 -11.9899 1.5
      vertex 2.43811 -11.9899 3
    endloop
  endfacet
  facet normal -0.815245 -0.579116 0
    outer loop
      vertex 2.49765 -12.0737 1.5
      vertex 2.43811 -11.9899 3
      vertex 2.43811 -11.9899 1.5
    endloop
  endfacet
  facet normal -0.815245 -0.579116 0
    outer loop
      vertex 2.43811 -11.9899 3
      vertex 2.49765 -12.0737 1.5
      vertex 2.49765 -12.0737 3
    endloop
  endfacet
  facet normal -0.749342 -0.662183 0
    outer loop
      vertex 2.57973 -12.1665 1.5
      vertex 2.49765 -12.0737 3
      vertex 2.49765 -12.0737 1.5
    endloop
  endfacet
  facet normal -0.749342 -0.662183 0
    outer loop
      vertex 2.49765 -12.0737 3
      vertex 2.57973 -12.1665 1.5
      vertex 2.57973 -12.1665 3
    endloop
  endfacet
  facet normal -0.672288 -0.74029 0
    outer loop
      vertex 2.57973 -12.1665 1.5
      vertex 2.67175 -12.2501 3
      vertex 2.57973 -12.1665 3
    endloop
  endfacet
  facet normal -0.672288 -0.74029 -0
    outer loop
      vertex 2.67175 -12.2501 3
      vertex 2.57973 -12.1665 1.5
      vertex 2.67175 -12.2501 1.5
    endloop
  endfacet
  facet normal -0.590208 -0.807252 0
    outer loop
      vertex 2.67175 -12.2501 1.5
      vertex 2.77203 -12.3234 3
      vertex 2.67175 -12.2501 3
    endloop
  endfacet
  facet normal -0.590208 -0.807252 -0
    outer loop
      vertex 2.77203 -12.3234 3
      vertex 2.67175 -12.2501 1.5
      vertex 2.77203 -12.3234 1.5
    endloop
  endfacet
  facet normal -0.502642 -0.864495 0
    outer loop
      vertex 2.77203 -12.3234 1.5
      vertex 2.87885 -12.3855 3
      vertex 2.77203 -12.3234 3
    endloop
  endfacet
  facet normal -0.502642 -0.864495 -0
    outer loop
      vertex 2.87885 -12.3855 3
      vertex 2.77203 -12.3234 1.5
      vertex 2.87885 -12.3855 1.5
    endloop
  endfacet
  facet normal -0.408429 -0.91279 0
    outer loop
      vertex 2.87885 -12.3855 1.5
      vertex 2.99049 -12.4355 3
      vertex 2.87885 -12.3855 3
    endloop
  endfacet
  facet normal -0.408429 -0.91279 -0
    outer loop
      vertex 2.99049 -12.4355 3
      vertex 2.87885 -12.3855 1.5
      vertex 2.99049 -12.4355 1.5
    endloop
  endfacet
  facet normal -0.305841 -0.952083 0
    outer loop
      vertex 2.99049 -12.4355 1.5
      vertex 3.10526 -12.4724 3
      vertex 2.99049 -12.4355 3
    endloop
  endfacet
  facet normal -0.305841 -0.952083 -0
    outer loop
      vertex 3.10526 -12.4724 3
      vertex 2.99049 -12.4355 1.5
      vertex 3.10526 -12.4724 1.5
    endloop
  endfacet
  facet normal -0.192694 -0.981259 0
    outer loop
      vertex 3.10526 -12.4724 1.5
      vertex 3.22142 -12.4952 3
      vertex 3.10526 -12.4724 3
    endloop
  endfacet
  facet normal -0.192694 -0.981259 -0
    outer loop
      vertex 3.22142 -12.4952 3
      vertex 3.10526 -12.4724 1.5
      vertex 3.22142 -12.4952 1.5
    endloop
  endfacet
  facet normal -0.0783814 -0.996923 0
    outer loop
      vertex 3.22142 -12.4952 1.5
      vertex 3.31807 -12.5028 3
      vertex 3.22142 -12.4952 3
    endloop
  endfacet
  facet normal -0.0783814 -0.996923 -0
    outer loop
      vertex 3.31807 -12.5028 3
      vertex 3.22142 -12.4952 1.5
      vertex 3.31807 -12.5028 1.5
    endloop
  endfacet
  facet normal 0.000263546 -1 0
    outer loop
      vertex 3.31807 -12.5028 1.5
      vertex 5.86559 -12.5021 3
      vertex 3.31807 -12.5028 3
    endloop
  endfacet
  facet normal 0.000263546 -1 0
    outer loop
      vertex 5.86559 -12.5021 3
      vertex 3.31807 -12.5028 1.5
      vertex 5.86559 -12.5021 1.5
    endloop
  endfacet
  facet normal 0.119575 -0.992825 0
    outer loop
      vertex 5.86559 -12.5021 1.5
      vertex 5.94629 -12.4924 3
      vertex 5.86559 -12.5021 3
    endloop
  endfacet
  facet normal 0.119575 -0.992825 0
    outer loop
      vertex 5.94629 -12.4924 3
      vertex 5.86559 -12.5021 1.5
      vertex 5.94629 -12.4924 1.5
    endloop
  endfacet
  facet normal 0.264328 -0.964433 0
    outer loop
      vertex 5.94629 -12.4924 1.5
      vertex 6.01933 -12.4724 3
      vertex 5.94629 -12.4924 3
    endloop
  endfacet
  facet normal 0.264328 -0.964433 0
    outer loop
      vertex 6.01933 -12.4724 3
      vertex 5.94629 -12.4924 1.5
      vertex 6.01933 -12.4724 1.5
    endloop
  endfacet
  facet normal 0.417538 -0.908659 0
    outer loop
      vertex 6.01933 -12.4724 1.5
      vertex 6.08415 -12.4426 3
      vertex 6.01933 -12.4724 3
    endloop
  endfacet
  facet normal 0.417538 -0.908659 0
    outer loop
      vertex 6.08415 -12.4426 3
      vertex 6.01933 -12.4724 1.5
      vertex 6.08415 -12.4426 1.5
    endloop
  endfacet
  facet normal 0.555792 -0.831322 0
    outer loop
      vertex 6.08415 -12.4426 1.5
      vertex 6.12973 -12.4121 3
      vertex 6.08415 -12.4426 3
    endloop
  endfacet
  facet normal 0.555792 -0.831322 0
    outer loop
      vertex 6.12973 -12.4121 3
      vertex 6.08415 -12.4426 1.5
      vertex 6.12973 -12.4121 1.5
    endloop
  endfacet
  facet normal 0.673182 -0.739476 0
    outer loop
      vertex 6.12973 -12.4121 1.5
      vertex 6.16939 -12.376 3
      vertex 6.12973 -12.4121 3
    endloop
  endfacet
  facet normal 0.673182 -0.739476 0
    outer loop
      vertex 6.16939 -12.376 3
      vertex 6.12973 -12.4121 1.5
      vertex 6.16939 -12.376 1.5
    endloop
  endfacet
  facet normal 0.777532 -0.628844 0
    outer loop
      vertex 6.16939 -12.376 3
      vertex 6.20288 -12.3346 1.5
      vertex 6.20288 -12.3346 3
    endloop
  endfacet
  facet normal 0.777532 -0.628844 0
    outer loop
      vertex 6.20288 -12.3346 1.5
      vertex 6.16939 -12.376 3
      vertex 6.16939 -12.376 1.5
    endloop
  endfacet
  facet normal 0.864622 -0.502423 0
    outer loop
      vertex 6.20288 -12.3346 3
      vertex 6.22989 -12.2881 1.5
      vertex 6.22989 -12.2881 3
    endloop
  endfacet
  facet normal 0.864622 -0.502423 0
    outer loop
      vertex 6.22989 -12.2881 1.5
      vertex 6.20288 -12.3346 3
      vertex 6.20288 -12.3346 1.5
    endloop
  endfacet
  facet normal 0.930016 -0.36752 0
    outer loop
      vertex 6.22989 -12.2881 3
      vertex 6.25014 -12.2369 1.5
      vertex 6.25014 -12.2369 3
    endloop
  endfacet
  facet normal 0.930016 -0.36752 0
    outer loop
      vertex 6.25014 -12.2369 1.5
      vertex 6.22989 -12.2881 3
      vertex 6.22989 -12.2881 1.5
    endloop
  endfacet
  facet normal 0.973077 -0.23048 0
    outer loop
      vertex 6.25014 -12.2369 3
      vertex 6.26334 -12.1812 1.5
      vertex 6.26334 -12.1812 3
    endloop
  endfacet
  facet normal 0.973077 -0.23048 0
    outer loop
      vertex 6.26334 -12.1812 1.5
      vertex 6.25014 -12.2369 3
      vertex 6.25014 -12.2369 1.5
    endloop
  endfacet
  facet normal 0.996687 -0.0813294 0
    outer loop
      vertex 6.26334 -12.1812 3
      vertex 6.2695 -12.1056 1.5
      vertex 6.2695 -12.1056 3
    endloop
  endfacet
  facet normal 0.996687 -0.0813294 0
    outer loop
      vertex 6.2695 -12.1056 1.5
      vertex 6.26334 -12.1812 3
      vertex 6.26334 -12.1812 1.5
    endloop
  endfacet
  facet normal 0.997443 0.0714725 0
    outer loop
      vertex 6.2695 -12.1056 3
      vertex 6.26366 -12.024 1.5
      vertex 6.26366 -12.024 3
    endloop
  endfacet
  facet normal 0.997443 0.0714725 0
    outer loop
      vertex 6.26366 -12.024 1.5
      vertex 6.2695 -12.1056 3
      vertex 6.2695 -12.1056 1.5
    endloop
  endfacet
  facet normal 0.978344 0.206987 0
    outer loop
      vertex 6.26366 -12.024 3
      vertex 6.24524 -11.937 1.5
      vertex 6.24524 -11.937 3
    endloop
  endfacet
  facet normal 0.978344 0.206987 0
    outer loop
      vertex 6.24524 -11.937 1.5
      vertex 6.26366 -12.024 3
      vertex 6.26366 -12.024 1.5
    endloop
  endfacet
  facet normal 0.945917 0.324409 0
    outer loop
      vertex 6.24524 -11.937 3
      vertex 6.2137 -11.845 1.5
      vertex 6.2137 -11.845 3
    endloop
  endfacet
  facet normal 0.945917 0.324409 0
    outer loop
      vertex 6.2137 -11.845 1.5
      vertex 6.24524 -11.937 3
      vertex 6.24524 -11.937 1.5
    endloop
  endfacet
  facet normal 0.913483 0.406876 0
    outer loop
      vertex 6.2137 -11.845 3
      vertex 0.807281 0.292999 1.5
      vertex 0.807281 0.292999 3
    endloop
  endfacet
  facet normal 0.913483 0.406876 0
    outer loop
      vertex 0.807281 0.292999 1.5
      vertex 6.2137 -11.845 3
      vertex 6.2137 -11.845 1.5
    endloop
  endfacet
  facet normal 0.912373 -0.40936 0
    outer loop
      vertex 0.807281 0.292999 3
      vertex 6.29495 12.5238 1.5
      vertex 6.29495 12.5238 3
    endloop
  endfacet
  facet normal 0.912373 -0.40936 0
    outer loop
      vertex 6.29495 12.5238 1.5
      vertex 0.807281 0.292999 3
      vertex 0.807281 0.292999 1.5
    endloop
  endfacet
  facet normal 0.953932 -0.300022 0
    outer loop
      vertex 6.29495 12.5238 3
      vertex 6.32359 12.6149 1.5
      vertex 6.32359 12.6149 3
    endloop
  endfacet
  facet normal 0.953932 -0.300022 0
    outer loop
      vertex 6.32359 12.6149 1.5
      vertex 6.29495 12.5238 3
      vertex 6.29495 12.5238 1.5
    endloop
  endfacet
  facet normal 0.984184 -0.17715 0
    outer loop
      vertex 6.32359 12.6149 3
      vertex 6.33908 12.7009 1.5
      vertex 6.33908 12.7009 3
    endloop
  endfacet
  facet normal 0.984184 -0.17715 0
    outer loop
      vertex 6.33908 12.7009 1.5
      vertex 6.32359 12.6149 3
      vertex 6.32359 12.6149 1.5
    endloop
  endfacet
  facet normal 0.999392 -0.0348537 0
    outer loop
      vertex 6.33908 12.7009 3
      vertex 6.34189 12.7814 1.5
      vertex 6.34189 12.7814 3
    endloop
  endfacet
  facet normal 0.999392 -0.0348537 0
    outer loop
      vertex 6.34189 12.7814 1.5
      vertex 6.33908 12.7009 3
      vertex 6.33908 12.7009 1.5
    endloop
  endfacet
  facet normal 0.993994 0.109433 0
    outer loop
      vertex 6.34189 12.7814 3
      vertex 6.33528 12.8414 1.5
      vertex 6.33528 12.8414 3
    endloop
  endfacet
  facet normal 0.993994 0.109433 0
    outer loop
      vertex 6.33528 12.8414 1.5
      vertex 6.34189 12.7814 3
      vertex 6.34189 12.7814 1.5
    endloop
  endfacet
  facet normal 0.968915 0.247394 0
    outer loop
      vertex 6.33528 12.8414 3
      vertex 6.32103 12.8972 1.5
      vertex 6.32103 12.8972 3
    endloop
  endfacet
  facet normal 0.968915 0.247394 0
    outer loop
      vertex 6.32103 12.8972 1.5
      vertex 6.33528 12.8414 3
      vertex 6.33528 12.8414 1.5
    endloop
  endfacet
  facet normal 0.921481 0.388424 0
    outer loop
      vertex 6.32103 12.8972 3
      vertex 6.29939 12.9486 1.5
      vertex 6.29939 12.9486 3
    endloop
  endfacet
  facet normal 0.921481 0.388424 0
    outer loop
      vertex 6.29939 12.9486 1.5
      vertex 6.32103 12.8972 3
      vertex 6.32103 12.8972 1.5
    endloop
  endfacet
  facet normal 0.850182 0.526489 0
    outer loop
      vertex 6.29939 12.9486 3
      vertex 6.27055 12.9951 1.5
      vertex 6.27055 12.9951 3
    endloop
  endfacet
  facet normal 0.850182 0.526489 0
    outer loop
      vertex 6.27055 12.9951 1.5
      vertex 6.29939 12.9486 3
      vertex 6.29939 12.9486 1.5
    endloop
  endfacet
  facet normal 0.757505 0.652829 0
    outer loop
      vertex 6.27055 12.9951 3
      vertex 6.23477 13.0367 1.5
      vertex 6.23477 13.0367 3
    endloop
  endfacet
  facet normal 0.757505 0.652829 0
    outer loop
      vertex 6.23477 13.0367 1.5
      vertex 6.27055 12.9951 3
      vertex 6.27055 12.9951 1.5
    endloop
  endfacet
  facet normal 0.647974 0.761663 -0
    outer loop
      vertex 6.23477 13.0367 1.5
      vertex 6.19225 13.0728 3
      vertex 6.23477 13.0367 3
    endloop
  endfacet
  facet normal 0.647974 0.761663 0
    outer loop
      vertex 6.19225 13.0728 3
      vertex 6.23477 13.0367 1.5
      vertex 6.19225 13.0728 1.5
    endloop
  endfacet
  facet normal 0.528907 0.84868 -0
    outer loop
      vertex 6.19225 13.0728 1.5
      vertex 6.1432 13.1034 3
      vertex 6.19225 13.0728 3
    endloop
  endfacet
  facet normal 0.528907 0.84868 0
    outer loop
      vertex 6.1432 13.1034 3
      vertex 6.19225 13.0728 1.5
      vertex 6.1432 13.1034 1.5
    endloop
  endfacet
  facet normal 0.407073 0.913396 -0
    outer loop
      vertex 6.1432 13.1034 1.5
      vertex 6.08788 13.1281 3
      vertex 6.1432 13.1034 3
    endloop
  endfacet
  facet normal 0.407073 0.913396 0
    outer loop
      vertex 6.08788 13.1281 3
      vertex 6.1432 13.1034 1.5
      vertex 6.08788 13.1281 1.5
    endloop
  endfacet
  facet normal 0.273398 0.961901 -0
    outer loop
      vertex 6.08788 13.1281 1.5
      vertex 6.01019 13.1501 3
      vertex 6.08788 13.1281 3
    endloop
  endfacet
  facet normal 0.273398 0.961901 0
    outer loop
      vertex 6.01019 13.1501 3
      vertex 6.08788 13.1281 1.5
      vertex 6.01019 13.1501 1.5
    endloop
  endfacet
  facet normal 0.135634 0.990759 -0
    outer loop
      vertex 6.01019 13.1501 1.5
      vertex 5.92348 13.162 3
      vertex 6.01019 13.1501 3
    endloop
  endfacet
  facet normal 0.135634 0.990759 0
    outer loop
      vertex 5.92348 13.162 3
      vertex 6.01019 13.1501 1.5
      vertex 5.92348 13.162 1.5
    endloop
  endfacet
  facet normal 0.0350043 0.999387 -0
    outer loop
      vertex 5.92348 13.162 1.5
      vertex 5.86728 13.164 3
      vertex 5.92348 13.162 3
    endloop
  endfacet
  facet normal 0.0350043 0.999387 0
    outer loop
      vertex 5.86728 13.164 3
      vertex 5.92348 13.162 1.5
      vertex 5.86728 13.164 1.5
    endloop
  endfacet
  facet normal -0.000344024 1 0
    outer loop
      vertex 5.86728 13.164 1.5
      vertex 3.33911 13.1631 3
      vertex 5.86728 13.164 3
    endloop
  endfacet
  facet normal -0.000344024 1 0
    outer loop
      vertex 3.33911 13.1631 3
      vertex 5.86728 13.164 1.5
      vertex 3.33911 13.1631 1.5
    endloop
  endfacet
  facet normal -0.108569 0.994089 0
    outer loop
      vertex 3.33911 13.1631 1.5
      vertex 3.24969 13.1534 3
      vertex 3.33911 13.1631 3
    endloop
  endfacet
  facet normal -0.108569 0.994089 0
    outer loop
      vertex 3.24969 13.1534 3
      vertex 3.33911 13.1631 1.5
      vertex 3.24969 13.1534 1.5
    endloop
  endfacet
  facet normal -0.225915 0.974147 0
    outer loop
      vertex 3.24969 13.1534 1.5
      vertex 3.14067 13.1281 3
      vertex 3.24969 13.1534 3
    endloop
  endfacet
  facet normal -0.225915 0.974147 0
    outer loop
      vertex 3.14067 13.1281 3
      vertex 3.24969 13.1534 1.5
      vertex 3.14067 13.1281 1.5
    endloop
  endfacet
  facet normal -0.33771 0.94125 0
    outer loop
      vertex 3.14067 13.1281 1.5
      vertex 3.03137 13.0889 3
      vertex 3.14067 13.1281 3
    endloop
  endfacet
  facet normal -0.33771 0.94125 0
    outer loop
      vertex 3.03137 13.0889 3
      vertex 3.14067 13.1281 1.5
      vertex 3.03137 13.0889 1.5
    endloop
  endfacet
  facet normal -0.435511 0.900183 0
    outer loop
      vertex 3.03137 13.0889 1.5
      vertex 2.92351 13.0367 3
      vertex 3.03137 13.0889 3
    endloop
  endfacet
  facet normal -0.435511 0.900183 0
    outer loop
      vertex 2.92351 13.0367 3
      vertex 3.03137 13.0889 1.5
      vertex 2.92351 13.0367 1.5
    endloop
  endfacet
  facet normal -0.529569 0.848267 0
    outer loop
      vertex 2.92351 13.0367 1.5
      vertex 2.80179 12.9607 3
      vertex 2.92351 13.0367 3
    endloop
  endfacet
  facet normal -0.529569 0.848267 0
    outer loop
      vertex 2.80179 12.9607 3
      vertex 2.92351 13.0367 1.5
      vertex 2.80179 12.9607 1.5
    endloop
  endfacet
  facet normal -0.620655 0.784084 0
    outer loop
      vertex 2.80179 12.9607 1.5
      vertex 2.68707 12.8699 3
      vertex 2.80179 12.9607 3
    endloop
  endfacet
  facet normal -0.620655 0.784084 0
    outer loop
      vertex 2.68707 12.8699 3
      vertex 2.80179 12.9607 1.5
      vertex 2.68707 12.8699 1.5
    endloop
  endfacet
  facet normal -0.698199 0.715904 0
    outer loop
      vertex 2.68707 12.8699 1.5
      vertex 2.59637 12.7814 3
      vertex 2.68707 12.8699 3
    endloop
  endfacet
  facet normal -0.698199 0.715904 0
    outer loop
      vertex 2.59637 12.7814 3
      vertex 2.68707 12.8699 1.5
      vertex 2.59637 12.7814 1.5
    endloop
  endfacet
  facet normal -0.765232 0.643755 0
    outer loop
      vertex 2.51454 12.6841 1.5
      vertex 2.59637 12.7814 3
      vertex 2.59637 12.7814 1.5
    endloop
  endfacet
  facet normal -0.765232 0.643755 0
    outer loop
      vertex 2.59637 12.7814 3
      vertex 2.51454 12.6841 1.5
      vertex 2.51454 12.6841 3
    endloop
  endfacet
  facet normal -0.827719 0.561143 0
    outer loop
      vertex 2.44327 12.579 1.5
      vertex 2.51454 12.6841 3
      vertex 2.51454 12.6841 1.5
    endloop
  endfacet
  facet normal -0.827719 0.561143 0
    outer loop
      vertex 2.51454 12.6841 3
      vertex 2.44327 12.579 1.5
      vertex 2.44327 12.579 3
    endloop
  endfacet
  facet normal -0.880271 0.47447 0
    outer loop
      vertex 2.39319 12.4861 1.5
      vertex 2.44327 12.579 3
      vertex 2.44327 12.579 1.5
    endloop
  endfacet
  facet normal -0.880271 0.47447 0
    outer loop
      vertex 2.44327 12.579 3
      vertex 2.39319 12.4861 1.5
      vertex 2.39319 12.4861 3
    endloop
  endfacet
  facet normal -0.913255 0.407388 0
    outer loop
      vertex -2.1627 2.27299 1.5
      vertex 2.39319 12.4861 3
      vertex 2.39319 12.4861 1.5
    endloop
  endfacet
  facet normal -0.913255 0.407388 0
    outer loop
      vertex 2.39319 12.4861 3
      vertex -2.1627 2.27299 1.5
      vertex -2.1627 2.27299 3
    endloop
  endfacet
  facet normal 1 8.6494e-05 0
    outer loop
      vertex -2.1627 2.27299 3
      vertex -2.16359 12.505 1.5
      vertex -2.16359 12.505 3
    endloop
  endfacet
  facet normal 1 8.6494e-05 0
    outer loop
      vertex -2.16359 12.505 1.5
      vertex -2.1627 2.27299 3
      vertex -2.1627 2.27299 1.5
    endloop
  endfacet
  facet normal 0.994533 0.104419 0
    outer loop
      vertex -2.16359 12.505 3
      vertex -2.17325 12.597 1.5
      vertex -2.17325 12.597 3
    endloop
  endfacet
  facet normal 0.994533 0.104419 0
    outer loop
      vertex -2.17325 12.597 1.5
      vertex -2.16359 12.505 3
      vertex -2.16359 12.505 1.5
    endloop
  endfacet
  facet normal 0.97504 0.222027 0
    outer loop
      vertex -2.17325 12.597 3
      vertex -2.19308 12.6841 1.5
      vertex -2.19308 12.6841 3
    endloop
  endfacet
  facet normal 0.97504 0.222027 0
    outer loop
      vertex -2.19308 12.6841 1.5
      vertex -2.17325 12.597 3
      vertex -2.17325 12.597 1.5
    endloop
  endfacet
  facet normal 0.941187 0.337885 0
    outer loop
      vertex -2.19308 12.6841 3
      vertex -2.2224 12.7658 1.5
      vertex -2.2224 12.7658 3
    endloop
  endfacet
  facet normal 0.941187 0.337885 0
    outer loop
      vertex -2.2224 12.7658 1.5
      vertex -2.19308 12.6841 3
      vertex -2.19308 12.6841 1.5
    endloop
  endfacet
  facet normal 0.892728 0.450596 0
    outer loop
      vertex -2.2224 12.7658 3
      vertex -2.26057 12.8414 1.5
      vertex -2.26057 12.8414 3
    endloop
  endfacet
  facet normal 0.892728 0.450596 0
    outer loop
      vertex -2.26057 12.8414 1.5
      vertex -2.2224 12.7658 3
      vertex -2.2224 12.7658 1.5
    endloop
  endfacet
  facet normal 0.830438 0.557111 0
    outer loop
      vertex -2.26057 12.8414 3
      vertex -2.30692 12.9105 1.5
      vertex -2.30692 12.9105 3
    endloop
  endfacet
  facet normal 0.830438 0.557111 0
    outer loop
      vertex -2.30692 12.9105 1.5
      vertex -2.26057 12.8414 3
      vertex -2.26057 12.8414 1.5
    endloop
  endfacet
  facet normal 0.754726 0.656041 0
    outer loop
      vertex -2.30692 12.9105 3
      vertex -2.36078 12.9725 1.5
      vertex -2.36078 12.9725 3
    endloop
  endfacet
  facet normal 0.754726 0.656041 0
    outer loop
      vertex -2.36078 12.9725 1.5
      vertex -2.30692 12.9105 3
      vertex -2.30692 12.9105 1.5
    endloop
  endfacet
  facet normal 0.666488 0.745516 -0
    outer loop
      vertex -2.36078 12.9725 1.5
      vertex -2.42152 13.0268 3
      vertex -2.36078 12.9725 3
    endloop
  endfacet
  facet normal 0.666488 0.745516 0
    outer loop
      vertex -2.42152 13.0268 3
      vertex -2.36078 12.9725 1.5
      vertex -2.42152 13.0268 1.5
    endloop
  endfacet
  facet normal 0.566816 0.823845 -0
    outer loop
      vertex -2.42152 13.0268 1.5
      vertex -2.48848 13.0728 3
      vertex -2.42152 13.0268 3
    endloop
  endfacet
  facet normal 0.566816 0.823845 0
    outer loop
      vertex -2.48848 13.0728 3
      vertex -2.42152 13.0268 1.5
      vertex -2.48848 13.0728 1.5
    endloop
  endfacet
  facet normal 0.457365 0.889279 -0
    outer loop
      vertex -2.48848 13.0728 1.5
      vertex -2.56099 13.1101 3
      vertex -2.48848 13.0728 3
    endloop
  endfacet
  facet normal 0.457365 0.889279 0
    outer loop
      vertex -2.56099 13.1101 3
      vertex -2.48848 13.0728 1.5
      vertex -2.56099 13.1101 1.5
    endloop
  endfacet
  facet normal 0.339658 0.940549 -0
    outer loop
      vertex -2.56099 13.1101 1.5
      vertex -2.6384 13.1381 3
      vertex -2.56099 13.1101 3
    endloop
  endfacet
  facet normal 0.339658 0.940549 0
    outer loop
      vertex -2.6384 13.1381 3
      vertex -2.56099 13.1101 1.5
      vertex -2.6384 13.1381 1.5
    endloop
  endfacet
  facet normal 0.216042 0.976384 -0
    outer loop
      vertex -2.6384 13.1381 1.5
      vertex -2.72005 13.1562 3
      vertex -2.6384 13.1381 3
    endloop
  endfacet
  facet normal 0.216042 0.976384 0
    outer loop
      vertex -2.72005 13.1562 3
      vertex -2.6384 13.1381 1.5
      vertex -2.72005 13.1562 1.5
    endloop
  endfacet
  facet normal 0.0889762 0.996034 -0
    outer loop
      vertex -2.72005 13.1562 1.5
      vertex -2.80528 13.1638 3
      vertex -2.72005 13.1562 3
    endloop
  endfacet
  facet normal 0.0889762 0.996034 0
    outer loop
      vertex -2.80528 13.1638 3
      vertex -2.72005 13.1562 1.5
      vertex -2.80528 13.1638 1.5
    endloop
  endfacet
  facet normal -0.00025746 1 0
    outer loop
      vertex -2.80528 13.1638 1.5
      vertex -5.35374 13.1631 3
      vertex -2.80528 13.1638 3
    endloop
  endfacet
  facet normal -0.00025746 1 0
    outer loop
      vertex -5.35374 13.1631 3
      vertex -2.80528 13.1638 1.5
      vertex -5.35374 13.1631 1.5
    endloop
  endfacet
  facet normal -0.10556 0.994413 0
    outer loop
      vertex -5.35374 13.1631 1.5
      vertex -5.44574 13.1534 3
      vertex -5.35374 13.1631 3
    endloop
  endfacet
  facet normal -0.10556 0.994413 0
    outer loop
      vertex -5.44574 13.1534 3
      vertex -5.35374 13.1631 1.5
      vertex -5.44574 13.1534 1.5
    endloop
  endfacet
  facet normal -0.224623 0.974446 0
    outer loop
      vertex -5.44574 13.1534 1.5
      vertex -5.53285 13.1333 3
      vertex -5.44574 13.1534 3
    endloop
  endfacet
  facet normal -0.224623 0.974446 0
    outer loop
      vertex -5.53285 13.1333 3
      vertex -5.44574 13.1534 1.5
      vertex -5.53285 13.1333 1.5
    endloop
  endfacet
  facet normal -0.343476 0.939162 0
    outer loop
      vertex -5.53285 13.1333 1.5
      vertex -5.6145 13.1034 3
      vertex -5.53285 13.1333 3
    endloop
  endfacet
  facet normal -0.343476 0.939162 0
    outer loop
      vertex -5.6145 13.1034 3
      vertex -5.53285 13.1333 1.5
      vertex -5.6145 13.1034 1.5
    endloop
  endfacet
  facet normal -0.459145 0.888361 0
    outer loop
      vertex -5.6145 13.1034 1.5
      vertex -5.69014 13.0643 3
      vertex -5.6145 13.1034 3
    endloop
  endfacet
  facet normal -0.459145 0.888361 0
    outer loop
      vertex -5.69014 13.0643 3
      vertex -5.6145 13.1034 1.5
      vertex -5.69014 13.0643 1.5
    endloop
  endfacet
  facet normal -0.568709 0.822539 0
    outer loop
      vertex -5.69014 13.0643 1.5
      vertex -5.75922 13.0166 3
      vertex -5.69014 13.0643 3
    endloop
  endfacet
  facet normal -0.568709 0.822539 0
    outer loop
      vertex -5.75922 13.0166 3
      vertex -5.69014 13.0643 1.5
      vertex -5.75922 13.0166 1.5
    endloop
  endfacet
  facet normal -0.669682 0.742648 0
    outer loop
      vertex -5.75922 13.0166 1.5
      vertex -5.82118 12.9607 3
      vertex -5.75922 13.0166 3
    endloop
  endfacet
  facet normal -0.669682 0.742648 0
    outer loop
      vertex -5.82118 12.9607 3
      vertex -5.75922 13.0166 1.5
      vertex -5.82118 12.9607 1.5
    endloop
  endfacet
  facet normal -0.759631 0.650355 0
    outer loop
      vertex -5.87549 12.8972 1.5
      vertex -5.82118 12.9607 3
      vertex -5.82118 12.9607 1.5
    endloop
  endfacet
  facet normal -0.759631 0.650355 0
    outer loop
      vertex -5.82118 12.9607 3
      vertex -5.87549 12.8972 1.5
      vertex -5.87549 12.8972 3
    endloop
  endfacet
  facet normal -0.836899 0.547357 0
    outer loop
      vertex -5.92155 12.8268 1.5
      vertex -5.87549 12.8972 3
      vertex -5.87549 12.8972 1.5
    endloop
  endfacet
  facet normal -0.836899 0.547357 0
    outer loop
      vertex -5.87549 12.8972 3
      vertex -5.92155 12.8268 1.5
      vertex -5.92155 12.8268 3
    endloop
  endfacet
  facet normal -0.899755 0.436396 0
    outer loop
      vertex -5.95885 12.7499 1.5
      vertex -5.92155 12.8268 3
      vertex -5.92155 12.8268 1.5
    endloop
  endfacet
  facet normal -0.899755 0.436396 0
    outer loop
      vertex -5.92155 12.8268 3
      vertex -5.95885 12.7499 1.5
      vertex -5.95885 12.7499 3
    endloop
  endfacet
  facet normal -0.947454 0.319892 0
    outer loop
      vertex -5.9868 12.6671 1.5
      vertex -5.95885 12.7499 3
      vertex -5.95885 12.7499 1.5
    endloop
  endfacet
  facet normal -0.947454 0.319892 0
    outer loop
      vertex -5.95885 12.7499 3
      vertex -5.9868 12.6671 1.5
      vertex -5.9868 12.6671 3
    endloop
  endfacet
  facet normal -0.979623 0.200844 0
    outer loop
      vertex -6.00487 12.579 1.5
      vertex -5.9868 12.6671 3
      vertex -5.9868 12.6671 1.5
    endloop
  endfacet
  facet normal -0.979623 0.200844 0
    outer loop
      vertex -5.9868 12.6671 3
      vertex -6.00487 12.579 1.5
      vertex -6.00487 12.579 3
    endloop
  endfacet
  facet normal -0.996659 0.0816772 0
    outer loop
      vertex -6.01248 12.4861 1.5
      vertex -6.00487 12.579 3
      vertex -6.00487 12.579 1.5
    endloop
  endfacet
  facet normal -0.996659 0.0816772 0
    outer loop
      vertex -6.00487 12.579 3
      vertex -6.01248 12.4861 1.5
      vertex -6.01248 12.4861 3
    endloop
  endfacet
  facet normal -1 -2.69666e-05 0
    outer loop
      vertex -6.01183 -11.845 1.5
      vertex -6.01248 12.4861 3
      vertex -6.01248 12.4861 1.5
    endloop
  endfacet
  facet normal -1 -2.69666e-05 0
    outer loop
      vertex -6.01248 12.4861 3
      vertex -6.01183 -11.845 1.5
      vertex -6.01183 -11.845 3
    endloop
  endfacet
  facet normal -0.994427 -0.105432 0
    outer loop
      vertex -6.00208 -11.937 1.5
      vertex -6.01183 -11.845 3
      vertex -6.01183 -11.845 1.5
    endloop
  endfacet
  facet normal -0.994427 -0.105432 0
    outer loop
      vertex -6.01183 -11.845 3
      vertex -6.00208 -11.937 1.5
      vertex -6.00208 -11.937 3
    endloop
  endfacet
  facet normal -0.974374 -0.224934 0
    outer loop
      vertex -5.98198 -12.024 1.5
      vertex -6.00208 -11.937 3
      vertex -6.00208 -11.937 1.5
    endloop
  endfacet
  facet normal -0.974374 -0.224934 0
    outer loop
      vertex -6.00208 -11.937 3
      vertex -5.98198 -12.024 1.5
      vertex -5.98198 -12.024 3
    endloop
  endfacet
  facet normal -0.939037 -0.343816 0
    outer loop
      vertex -5.95212 -12.1056 1.5
      vertex -5.98198 -12.024 3
      vertex -5.98198 -12.024 1.5
    endloop
  endfacet
  facet normal -0.939037 -0.343816 0
    outer loop
      vertex -5.98198 -12.024 3
      vertex -5.95212 -12.1056 1.5
      vertex -5.95212 -12.1056 3
    endloop
  endfacet
  facet normal -0.888134 -0.459584 0
    outer loop
      vertex -5.91302 -12.1812 1.5
      vertex -5.95212 -12.1056 3
      vertex -5.95212 -12.1056 1.5
    endloop
  endfacet
  facet normal -0.888134 -0.459584 0
    outer loop
      vertex -5.95212 -12.1056 3
      vertex -5.91302 -12.1812 1.5
      vertex -5.91302 -12.1812 3
    endloop
  endfacet
  facet normal -0.822127 -0.569305 0
    outer loop
      vertex -5.86526 -12.2501 1.5
      vertex -5.91302 -12.1812 3
      vertex -5.91302 -12.1812 1.5
    endloop
  endfacet
  facet normal -0.822127 -0.569305 0
    outer loop
      vertex -5.91302 -12.1812 3
      vertex -5.86526 -12.2501 1.5
      vertex -5.86526 -12.2501 3
    endloop
  endfacet
  facet normal -0.741991 -0.67041 0
    outer loop
      vertex -5.80939 -12.312 1.5
      vertex -5.86526 -12.2501 3
      vertex -5.86526 -12.2501 1.5
    endloop
  endfacet
  facet normal -0.741991 -0.67041 0
    outer loop
      vertex -5.86526 -12.2501 3
      vertex -5.80939 -12.312 1.5
      vertex -5.80939 -12.312 3
    endloop
  endfacet
  facet normal -0.64951 -0.760353 0
    outer loop
      vertex -5.80939 -12.312 1.5
      vertex -5.74596 -12.3661 3
      vertex -5.80939 -12.312 3
    endloop
  endfacet
  facet normal -0.64951 -0.760353 -0
    outer loop
      vertex -5.74596 -12.3661 3
      vertex -5.80939 -12.312 1.5
      vertex -5.74596 -12.3661 1.5
    endloop
  endfacet
  facet normal -0.546467 -0.837481 0
    outer loop
      vertex -5.74596 -12.3661 1.5
      vertex -5.67552 -12.4121 3
      vertex -5.74596 -12.3661 3
    endloop
  endfacet
  facet normal -0.546467 -0.837481 -0
    outer loop
      vertex -5.67552 -12.4121 3
      vertex -5.74596 -12.3661 1.5
      vertex -5.67552 -12.4121 1.5
    endloop
  endfacet
  facet normal -0.435383 -0.900245 0
    outer loop
      vertex -5.67552 -12.4121 1.5
      vertex -5.59863 -12.4493 3
      vertex -5.67552 -12.4121 3
    endloop
  endfacet
  facet normal -0.435383 -0.900245 -0
    outer loop
      vertex -5.59863 -12.4493 3
      vertex -5.67552 -12.4121 1.5
      vertex -5.59863 -12.4493 1.5
    endloop
  endfacet
  facet normal -0.319108 -0.947718 0
    outer loop
      vertex -5.59863 -12.4493 1.5
      vertex -5.51584 -12.4772 3
      vertex -5.59863 -12.4493 3
    endloop
  endfacet
  facet normal -0.319108 -0.947718 -0
    outer loop
      vertex -5.51584 -12.4772 3
      vertex -5.59863 -12.4493 1.5
      vertex -5.51584 -12.4772 1.5
    endloop
  endfacet
  facet normal -0.200193 -0.979757 0
    outer loop
      vertex -5.51584 -12.4772 1.5
      vertex -5.42772 -12.4952 3
      vertex -5.51584 -12.4772 3
    endloop
  endfacet
  facet normal -0.200193 -0.979757 -0
    outer loop
      vertex -5.42772 -12.4952 3
      vertex -5.51584 -12.4772 1.5
      vertex -5.42772 -12.4952 1.5
    endloop
  endfacet
  facet normal -0.0932389 -0.995644 0
    outer loop
      vertex -5.42772 -12.4952 1.5
      vertex -5.35374 -12.5021 3
      vertex -5.42772 -12.4952 3
    endloop
  endfacet
  facet normal -0.0932389 -0.995644 -0
    outer loop
      vertex -5.35374 -12.5021 3
      vertex -5.42772 -12.4952 1.5
      vertex -5.35374 -12.5021 1.5
    endloop
  endfacet
endsolid OpenSCAD_Model
