solid OpenSCAD_Model
  facet normal -1 0 0
    outer loop
      vertex -16.5 16.5 -1
      vertex -16.5 7.15 13.3
      vertex -16.5 16.5 15
    endloop
  endfacet
  facet normal -1 0 0
    outer loop
      vertex -16.5 16.5 -1
      vertex -16.5 -7.15 13.3
      vertex -16.5 7.15 13.3
    endloop
  endfacet
  facet normal -1 0 0
    outer loop
      vertex -16.5 -16.5 -1
      vertex -16.5 -7.15 13.3
      vertex -16.5 16.5 -1
    endloop
  endfacet
  facet normal -1 0 0
    outer loop
      vertex -16.5 -16.5 15
      vertex -16.5 -7.15 13.3
      vertex -16.5 -16.5 -1
    endloop
  endfacet
  facet normal -1 0 0
    outer loop
      vertex -16.5 -7.15 13.3
      vertex -16.5 -16.5 15
      vertex -16.5 -7.15 15
    endloop
  endfacet
  facet normal -1 -0 0
    outer loop
      vertex -16.5 16.5 15
      vertex -16.5 7.15 13.3
      vertex -16.5 7.15 15
    endloop
  endfacet
  facet normal 1.47898e-23 1.22465e-16 1
    outer loop
      vertex 7.33588 5.9471 -7.28309e-16
      vertex 15.5 15.5 -1.8982e-15
      vertex 7.33846 8.4951 -1.04035e-15
    endloop
  endfacet
  facet normal 1.04869e-22 1.22465e-16 1
    outer loop
      vertex 15.5 15.5 -1.8982e-15
      vertex 7.33 8.61057 -1.05449e-15
      vertex 7.33846 8.4951 -1.04035e-15
    endloop
  endfacet
  facet normal -2.11497e-22 1.22465e-16 1
    outer loop
      vertex 15.5 15.5 -1.8982e-15
      vertex 7.30692 8.73596 -1.06985e-15
      vertex 7.33 8.61057 -1.05449e-15
    endloop
  endfacet
  facet normal -3.39049e-22 1.22465e-16 1
    outer loop
      vertex 15.5 15.5 -1.8982e-15
      vertex 7.27074 8.85146 -1.08399e-15
      vertex 7.30692 8.73596 -1.06985e-15
    endloop
  endfacet
  facet normal 7.1515e-24 1.22465e-16 1
    outer loop
      vertex 15.5 15.5 -1.8982e-15
      vertex 7.22035 8.96327 -1.09768e-15
      vertex 7.27074 8.85146 -1.08399e-15
    endloop
  endfacet
  facet normal 8.64374e-23 1.22465e-16 1
    outer loop
      vertex 15.5 15.5 -1.8982e-15
      vertex 7.15736 9.0666 -1.11034e-15
      vertex 7.22035 8.96327 -1.09768e-15
    endloop
  endfacet
  facet normal 9.30851e-23 1.22465e-16 1
    outer loop
      vertex 15.5 15.5 -1.8982e-15
      vertex 7.08272 9.16042 -1.12183e-15
      vertex 7.15736 9.0666 -1.11034e-15
    endloop
  endfacet
  facet normal 7.14284e-24 1.22465e-16 1
    outer loop
      vertex 5.60603 11.9476 -1.46316e-15
      vertex 7.08272 9.16042 -1.12183e-15
      vertex 15.5 15.5 -1.8982e-15
    endloop
  endfacet
  facet normal -6.56241e-22 1.22464e-16 1
    outer loop
      vertex 7.08272 9.16042 -1.12183e-15
      vertex 5.60603 11.9476 -1.46316e-15
      vertex 6.99745 9.24364 -1.13202e-15
    endloop
  endfacet
  facet normal -1.57403e-21 1.22464e-16 1
    outer loop
      vertex 5.61446 11.8321 -1.44901e-15
      vertex 6.99745 9.24364 -1.13202e-15
      vertex 5.60603 11.9476 -1.46316e-15
    endloop
  endfacet
  facet normal -3.68497e-22 1.22464e-16 1
    outer loop
      vertex 6.99745 9.24364 -1.13202e-15
      vertex 5.61446 11.8321 -1.44901e-15
      vertex 6.90265 9.31529 -1.14079e-15
    endloop
  endfacet
  facet normal 1.30501e-21 1.22465e-16 1
    outer loop
      vertex 6.90265 9.31529 -1.14079e-15
      vertex 5.61446 11.8321 -1.44901e-15
      vertex 6.79939 9.37447 -1.14804e-15
    endloop
  endfacet
  facet normal -3.91985e-22 1.22465e-16 1
    outer loop
      vertex 6.79939 9.37447 -1.14804e-15
      vertex 5.61446 11.8321 -1.44901e-15
      vertex 6.68889 9.4203 -1.15365e-15
    endloop
  endfacet
  facet normal -3.35385e-22 1.22465e-16 1
    outer loop
      vertex 6.68889 9.4203 -1.15365e-15
      vertex 5.61446 11.8321 -1.44901e-15
      vertex 6.56865 9.45288 -1.15764e-15
    endloop
  endfacet
  facet normal 4.91885e-23 1.22465e-16 1
    outer loop
      vertex 6.44716 9.46919 -1.15964e-15
      vertex 5.61446 11.8321 -1.44901e-15
      vertex 5.61464 9.47174 -1.15995e-15
    endloop
  endfacet
  facet normal -1.8073e-22 1.22465e-16 1
    outer loop
      vertex 6.56865 9.45288 -1.15764e-15
      vertex 5.61446 11.8321 -1.44901e-15
      vertex 6.44716 9.46919 -1.15964e-15
    endloop
  endfacet
  facet normal 2.81488e-24 1.22465e-16 1
    outer loop
      vertex 15.5 15.5 -1.8982e-15
      vertex 5.58299 12.073 -1.47851e-15
      vertex 5.60603 11.9476 -1.46316e-15
    endloop
  endfacet
  facet normal 2.66734e-23 1.22465e-16 1
    outer loop
      vertex 15.5 15.5 -1.8982e-15
      vertex 5.54689 12.1885 -1.49266e-15
      vertex 5.58299 12.073 -1.47851e-15
    endloop
  endfacet
  facet normal 9.10589e-24 1.22465e-16 1
    outer loop
      vertex 15.5 15.5 -1.8982e-15
      vertex 5.49657 12.3003 -1.50635e-15
      vertex 5.54689 12.1885 -1.49266e-15
    endloop
  endfacet
  facet normal -2.25474e-22 1.22465e-16 1
    outer loop
      vertex 15.5 15.5 -1.8982e-15
      vertex 5.43365 12.4036 -1.519e-15
      vertex 5.49657 12.3003 -1.50635e-15
    endloop
  endfacet
  facet normal 4.55657e-23 1.22465e-16 1
    outer loop
      vertex 15.5 15.5 -1.8982e-15
      vertex 5.35909 12.4974 -1.53049e-15
      vertex 5.43365 12.4036 -1.519e-15
    endloop
  endfacet
  facet normal -7.24694e-23 1.22465e-16 1
    outer loop
      vertex 15.5 15.5 -1.8982e-15
      vertex 5.27388 12.5806 -1.54068e-15
      vertex 5.35909 12.4974 -1.53049e-15
    endloop
  endfacet
  facet normal 4.21921e-23 1.22465e-16 1
    outer loop
      vertex 15.5 15.5 -1.8982e-15
      vertex 5.17909 12.6523 -1.54946e-15
      vertex 5.27388 12.5806 -1.54068e-15
    endloop
  endfacet
  facet normal -3.55788e-23 1.22465e-16 1
    outer loop
      vertex 15.5 15.5 -1.8982e-15
      vertex 5.07582 12.7115 -1.5567e-15
      vertex 5.17909 12.6523 -1.54946e-15
    endloop
  endfacet
  facet normal 2.43904e-22 1.22464e-16 1
    outer loop
      vertex 15.5 15.5 -1.8982e-15
      vertex 4.96526 12.7573 -1.56232e-15
      vertex 5.07582 12.7115 -1.5567e-15
    endloop
  endfacet
  facet normal -2.97668e-22 1.22466e-16 1
    outer loop
      vertex 15.5 15.5 -1.8982e-15
      vertex 4.84491 12.7899 -1.56631e-15
      vertex 4.96526 12.7573 -1.56232e-15
    endloop
  endfacet
  facet normal 4.5575e-22 1.22463e-16 1
    outer loop
      vertex 15.5 15.5 -1.8982e-15
      vertex 4.72325 12.8062 -1.56831e-15
      vertex 4.84491 12.7899 -1.56631e-15
    endloop
  endfacet
  facet normal -3.54652e-23 1.22465e-16 1
    outer loop
      vertex 15.5 15.5 -1.8982e-15
      vertex 2.12685 12.8081 -1.56854e-15
      vertex 4.72325 12.8062 -1.56831e-15
    endloop
  endfacet
  facet normal -0 1.22465e-16 1
    outer loop
      vertex -15.5 15.5 -1.8982e-15
      vertex 2.12685 12.8081 -1.56854e-15
      vertex 15.5 15.5 -1.8982e-15
    endloop
  endfacet
  facet normal 3.05199e-22 1.22467e-16 1
    outer loop
      vertex 2.12685 12.8081 -1.56854e-15
      vertex -15.5 15.5 -1.8982e-15
      vertex 2.02798 12.7997 -1.56751e-15
    endloop
  endfacet
  facet normal 0 1.22465e-16 1
    outer loop
      vertex 1.16759 11.8849 -1.45548e-15
      vertex -6.23531 9.47198 -1.15998e-15
      vertex 1.16481 9.47198 -1.15998e-15
    endloop
  endfacet
  facet normal 6.0168e-23 1.22465e-16 1
    outer loop
      vertex 1.18593 12.0176 -1.47173e-15
      vertex -6.23531 9.47198 -1.15998e-15
      vertex 1.16759 11.8849 -1.45548e-15
    endloop
  endfacet
  facet normal 1.92199e-22 1.22464e-16 1
    outer loop
      vertex 1.21965 12.1405 -1.48678e-15
      vertex -6.23531 9.47198 -1.15998e-15
      vertex 1.18593 12.0176 -1.47173e-15
    endloop
  endfacet
  facet normal -2.84412e-23 1.22465e-16 1
    outer loop
      vertex 1.26813 12.2561 -1.50094e-15
      vertex -6.23531 9.47198 -1.15998e-15
      vertex 1.21965 12.1405 -1.48678e-15
    endloop
  endfacet
  facet normal -4.56854e-22 1.22466e-16 1
    outer loop
      vertex 1.31006 12.3317 -1.51019e-15
      vertex -6.23531 9.47198 -1.15998e-15
      vertex 1.26813 12.2561 -1.50094e-15
    endloop
  endfacet
  facet normal 1.07828e-22 1.22464e-16 1
    outer loop
      vertex 1.40477 12.4615 -1.52609e-15
      vertex -6.23531 9.47198 -1.15998e-15
      vertex 1.31006 12.3317 -1.51019e-15
    endloop
  endfacet
  facet normal 2.61111e-22 1.22464e-16 1
    outer loop
      vertex 1.49048 12.5491 -1.53682e-15
      vertex -6.23531 9.47198 -1.15998e-15
      vertex 1.40477 12.4615 -1.52609e-15
    endloop
  endfacet
  facet normal -1.60671e-23 1.22465e-16 1
    outer loop
      vertex -15.5 15.5 -1.8982e-15
      vertex 1.49048 12.5491 -1.53682e-15
      vertex 1.5829 12.6234 -1.54592e-15
    endloop
  endfacet
  facet normal 6.35133e-23 1.22465e-16 1
    outer loop
      vertex -15.5 15.5 -1.8982e-15
      vertex 1.5829 12.6234 -1.54592e-15
      vertex 1.68674 12.6879 -1.55382e-15
    endloop
  endfacet
  facet normal 5.22526e-23 1.22465e-16 1
    outer loop
      vertex -15.5 15.5 -1.8982e-15
      vertex 1.68674 12.6879 -1.55382e-15
      vertex 1.79774 12.7394 -1.56013e-15
    endloop
  endfacet
  facet normal 1.27177e-24 1.22465e-16 1
    outer loop
      vertex 1.49048 12.5491 -1.53682e-15
      vertex -15.5 15.5 -1.8982e-15
      vertex -6.23531 9.47198 -1.15998e-15
    endloop
  endfacet
  facet normal 2.50994e-22 1.22465e-16 1
    outer loop
      vertex -6.23531 9.47198 -1.15998e-15
      vertex -15.5 15.5 -1.8982e-15
      vertex -6.29764 9.46954 -1.15968e-15
    endloop
  endfacet
  facet normal -3.8145e-22 1.22464e-16 1
    outer loop
      vertex -6.29764 9.46954 -1.15968e-15
      vertex -15.5 15.5 -1.8982e-15
      vertex -6.39537 9.45665 -1.15811e-15
    endloop
  endfacet
  facet normal 1.66788e-22 1.22465e-16 1
    outer loop
      vertex -6.9696 8.80537 -1.07835e-15
      vertex -15.5 15.5 -1.8982e-15
      vertex -6.97147 8.67285 -1.06212e-15
    endloop
  endfacet
  facet normal -4.2737e-22 1.22464e-16 1
    outer loop
      vertex -6.95026 8.92668 -1.0932e-15
      vertex -15.5 15.5 -1.8982e-15
      vertex -6.9696 8.80537 -1.07835e-15
    endloop
  endfacet
  facet normal 4.08684e-23 1.22465e-16 1
    outer loop
      vertex -6.91945 9.02502 -1.10525e-15
      vertex -15.5 15.5 -1.8982e-15
      vertex -6.95026 8.92668 -1.0932e-15
    endloop
  endfacet
  facet normal 3.83329e-22 1.22465e-16 1
    outer loop
      vertex -6.87653 9.11604 -1.11639e-15
      vertex -15.5 15.5 -1.8982e-15
      vertex -6.91945 9.02502 -1.10525e-15
    endloop
  endfacet
  facet normal -2.46627e-22 1.22464e-16 1
    outer loop
      vertex -6.81967 9.20158 -1.12687e-15
      vertex -15.5 15.5 -1.8982e-15
      vertex -6.87653 9.11604 -1.11639e-15
    endloop
  endfacet
  facet normal 1.50106e-22 1.22465e-16 1
    outer loop
      vertex -6.75131 9.27702 -1.13611e-15
      vertex -15.5 15.5 -1.8982e-15
      vertex -6.81967 9.20158 -1.12687e-15
    endloop
  endfacet
  facet normal -1.33799e-23 1.22465e-16 1
    outer loop
      vertex -6.67241 9.34128 -1.14398e-15
      vertex -15.5 15.5 -1.8982e-15
      vertex -6.75131 9.27702 -1.13611e-15
    endloop
  endfacet
  facet normal -3.31399e-23 1.22465e-16 1
    outer loop
      vertex -6.58414 9.3934 -1.15036e-15
      vertex -15.5 15.5 -1.8982e-15
      vertex -6.67241 9.34128 -1.14398e-15
    endloop
  endfacet
  facet normal 1.08712e-22 1.22465e-16 1
    outer loop
      vertex -6.49126 9.43158 -1.15504e-15
      vertex -15.5 15.5 -1.8982e-15
      vertex -6.58414 9.3934 -1.15036e-15
    endloop
  endfacet
  facet normal -2.69512e-22 1.22464e-16 1
    outer loop
      vertex -6.39537 9.45665 -1.15811e-15
      vertex -15.5 15.5 -1.8982e-15
      vertex -6.49126 9.43158 -1.15504e-15
    endloop
  endfacet
  facet normal -1.91526e-22 1.22463e-16 1
    outer loop
      vertex 1.9108 12.7763 -1.56465e-15
      vertex -15.5 15.5 -1.8982e-15
      vertex 1.79774 12.7394 -1.56013e-15
    endloop
  endfacet
  facet normal 1.17515e-22 1.22465e-16 1
    outer loop
      vertex 2.02798 12.7997 -1.56751e-15
      vertex -15.5 15.5 -1.8982e-15
      vertex 1.9108 12.7763 -1.56465e-15
    endloop
  endfacet
  facet normal -6.13055e-23 1.22465e-16 1
    outer loop
      vertex 7.32045 5.82167 -7.12949e-16
      vertex 15.5 15.5 -1.8982e-15
      vertex 7.33588 5.9471 -7.28309e-16
    endloop
  endfacet
  facet normal 2.74491e-22 1.22464e-16 1
    outer loop
      vertex 7.28984 5.69847 -6.97861e-16
      vertex 15.5 15.5 -1.8982e-15
      vertex 7.32045 5.82167 -7.12949e-16
    endloop
  endfacet
  facet normal -1.65853e-24 1.22465e-16 1
    outer loop
      vertex 15.5 15.5 -1.8982e-15
      vertex 7.28984 5.69847 -6.97861e-16
      vertex 15.5 -15.5 1.8982e-15
    endloop
  endfacet
  facet normal 1.10548e-22 1.22465e-16 1
    outer loop
      vertex 7.24696 5.58569 -6.8405e-16
      vertex 15.5 -15.5 1.8982e-15
      vertex 7.28984 5.69847 -6.97861e-16
    endloop
  endfacet
  facet normal -5.74651e-23 1.22465e-16 1
    outer loop
      vertex 7.18976 5.47751 -6.70801e-16
      vertex 15.5 -15.5 1.8982e-15
      vertex 7.24696 5.58569 -6.8405e-16
    endloop
  endfacet
  facet normal 6.75429e-24 1.22465e-16 1
    outer loop
      vertex 7.12044 5.37849 -6.58676e-16
      vertex 15.5 -15.5 1.8982e-15
      vertex 7.18976 5.47751 -6.70801e-16
    endloop
  endfacet
  facet normal 1.3562e-22 1.22465e-16 1
    outer loop
      vertex 7.04002 5.28973 -6.47806e-16
      vertex 15.5 -15.5 1.8982e-15
      vertex 7.12044 5.37849 -6.58676e-16
    endloop
  endfacet
  facet normal -1.03194e-22 1.22465e-16 1
    outer loop
      vertex 6.9496 5.21216 -6.38305e-16
      vertex 15.5 -15.5 1.8982e-15
      vertex 7.04002 5.28973 -6.47806e-16
    endloop
  endfacet
  facet normal -1.661e-22 1.22465e-16 1
    outer loop
      vertex 5.61189 -12.5329 1.53484e-15
      vertex 6.9496 5.21216 -6.38305e-16
      vertex 6.85033 5.14671 -6.30291e-16
    endloop
  endfacet
  facet normal 1.9273e-23 1.22465e-16 1
    outer loop
      vertex 5.61189 -12.5329 1.53484e-15
      vertex 6.85033 5.14671 -6.30291e-16
      vertex 6.74335 5.09424 -6.23864e-16
    endloop
  endfacet
  facet normal 1.72064e-22 1.22465e-16 1
    outer loop
      vertex 5.61189 -12.5329 1.53484e-15
      vertex 6.74335 5.09424 -6.23864e-16
      vertex 6.62624 5.05473 -6.19026e-16
    endloop
  endfacet
  facet normal -2.0423e-22 1.22465e-16 1
    outer loop
      vertex 5.61189 -12.5329 1.53484e-15
      vertex 6.62624 5.05473 -6.19026e-16
      vertex 6.50746 5.03101 -6.16121e-16
    endloop
  endfacet
  facet normal 2.98916e-22 1.22465e-16 1
    outer loop
      vertex 5.61189 -12.5329 1.53484e-15
      vertex 6.50746 5.03101 -6.16121e-16
      vertex 6.39606 5.02223 -6.15046e-16
    endloop
  endfacet
  facet normal -1.88646e-23 1.22465e-16 1
    outer loop
      vertex 5.61189 -12.5329 1.53484e-15
      vertex 6.39606 5.02223 -6.15046e-16
      vertex 5.61465 5.02206 -6.15025e-16
    endloop
  endfacet
  facet normal -6.14896e-25 1.22465e-16 1
    outer loop
      vertex 6.9496 5.21216 -6.38305e-16
      vertex 5.61189 -12.5329 1.53484e-15
      vertex 15.5 -15.5 1.8982e-15
    endloop
  endfacet
  facet normal 1.24062e-23 1.22465e-16 1
    outer loop
      vertex 5.59648 -12.6583 1.5502e-15
      vertex 15.5 -15.5 1.8982e-15
      vertex 5.61189 -12.5329 1.53484e-15
    endloop
  endfacet
  facet normal -4.37421e-23 1.22465e-16 1
    outer loop
      vertex 5.56592 -12.7815 1.56528e-15
      vertex 15.5 -15.5 1.8982e-15
      vertex 5.59648 -12.6583 1.5502e-15
    endloop
  endfacet
  facet normal 1.93141e-23 1.22465e-16 1
    outer loop
      vertex 5.52313 -12.8943 1.57909e-15
      vertex 15.5 -15.5 1.8982e-15
      vertex 5.56592 -12.7815 1.56528e-15
    endloop
  endfacet
  facet normal -4.65279e-23 1.22465e-16 1
    outer loop
      vertex 5.466 -13.0025 1.59235e-15
      vertex 15.5 -15.5 1.8982e-15
      vertex 5.52313 -12.8943 1.57909e-15
    endloop
  endfacet
  facet normal 3.27001e-23 1.22465e-16 1
    outer loop
      vertex 5.39674 -13.1015 1.60447e-15
      vertex 15.5 -15.5 1.8982e-15
      vertex 5.466 -13.0025 1.59235e-15
    endloop
  endfacet
  facet normal 1.49985e-22 1.22465e-16 1
    outer loop
      vertex 5.31641 -13.1902 1.61534e-15
      vertex 15.5 -15.5 1.8982e-15
      vertex 5.39674 -13.1015 1.60447e-15
    endloop
  endfacet
  facet normal -1.475e-22 1.22464e-16 1
    outer loop
      vertex 5.22603 -13.2678 1.62484e-15
      vertex 15.5 -15.5 1.8982e-15
      vertex 5.31641 -13.1902 1.61534e-15
    endloop
  endfacet
  facet normal -7.94478e-23 1.22464e-16 1
    outer loop
      vertex 5.12677 -13.3333 1.63286e-15
      vertex 15.5 -15.5 1.8982e-15
      vertex 5.22603 -13.2678 1.62484e-15
    endloop
  endfacet
  facet normal 2.69763e-24 1.22465e-16 1
    outer loop
      vertex 5.01978 -13.3858 1.63928e-15
      vertex 15.5 -15.5 1.8982e-15
      vertex 5.12677 -13.3333 1.63286e-15
    endloop
  endfacet
  facet normal 2.29691e-22 1.22466e-16 1
    outer loop
      vertex 4.90259 -13.4253 1.64412e-15
      vertex 15.5 -15.5 1.8982e-15
      vertex 5.01978 -13.3858 1.63928e-15
    endloop
  endfacet
  facet normal -2.53314e-22 1.22463e-16 1
    outer loop
      vertex 4.78369 -13.449 1.64702e-15
      vertex 15.5 -15.5 1.8982e-15
      vertex 4.90259 -13.4253 1.64412e-15
    endloop
  endfacet
  facet normal 1.09621e-22 1.22465e-16 1
    outer loop
      vertex 4.6721 -13.4578 1.6481e-15
      vertex 15.5 -15.5 1.8982e-15
      vertex 4.78369 -13.449 1.64702e-15
    endloop
  endfacet
  facet normal 1.0431e-23 1.22465e-16 1
    outer loop
      vertex 2.34627 -13.4551 1.64777e-15
      vertex 15.5 -15.5 1.8982e-15
      vertex 4.6721 -13.4578 1.6481e-15
    endloop
  endfacet
  facet normal -8.37068e-23 1.22465e-16 1
    outer loop
      vertex -15.5 -15.5 1.8982e-15
      vertex 2.34627 -13.4551 1.64777e-15
      vertex 2.21587 -13.4385 1.64574e-15
    endloop
  endfacet
  facet normal 1.18949e-22 1.22465e-16 1
    outer loop
      vertex -15.5 15.5 -1.8982e-15
      vertex -6.95531 8.54185 -1.04608e-15
      vertex -6.97147 8.67285 -1.06212e-15
    endloop
  endfacet
  facet normal -6.90081e-23 1.22465e-16 1
    outer loop
      vertex -15.5 15.5 -1.8982e-15
      vertex -6.92155 8.40617 -1.02946e-15
      vertex -6.95531 8.54185 -1.04608e-15
    endloop
  endfacet
  facet normal 2.22887e-24 1.22465e-16 1
    outer loop
      vertex -15.5 -15.5 1.8982e-15
      vertex -6.92155 8.40617 -1.02946e-15
      vertex -15.5 15.5 -1.8982e-15
    endloop
  endfacet
  facet normal 2.12009e-24 1.22465e-16 1
    outer loop
      vertex -6.92155 8.40617 -1.02946e-15
      vertex -15.5 -15.5 1.8982e-15
      vertex 1.14839 -12.5309 1.53459e-15
    endloop
  endfacet
  facet normal -9.84265e-23 1.22465e-16 1
    outer loop
      vertex 1.14839 -12.5309 1.53459e-15
      vertex -15.5 -15.5 1.8982e-15
      vertex 1.19278 -12.6361 1.54747e-15
    endloop
  endfacet
  facet normal 0 1.22465e-16 1
    outer loop
      vertex 2.34627 -13.4551 1.64777e-15
      vertex -15.5 -15.5 1.8982e-15
      vertex 15.5 -15.5 1.8982e-15
    endloop
  endfacet
  facet normal 1.07287e-22 1.22464e-16 1
    outer loop
      vertex 2.0899 -13.408 1.642e-15
      vertex -15.5 -15.5 1.8982e-15
      vertex 2.21587 -13.4385 1.64574e-15
    endloop
  endfacet
  facet normal -7.93049e-23 1.22465e-16 1
    outer loop
      vertex 1.96252 -13.3624 1.63642e-15
      vertex -15.5 -15.5 1.8982e-15
      vertex 2.0899 -13.408 1.642e-15
    endloop
  endfacet
  facet normal 4.25603e-23 1.22464e-16 1
    outer loop
      vertex 1.82355 -13.2957 1.62826e-15
      vertex -15.5 -15.5 1.8982e-15
      vertex 1.96252 -13.3624 1.63642e-15
    endloop
  endfacet
  facet normal 1.00152e-23 1.22465e-16 1
    outer loop
      vertex 1.6877 -13.2114 1.61793e-15
      vertex -15.5 -15.5 1.8982e-15
      vertex 1.82355 -13.2957 1.62826e-15
    endloop
  endfacet
  facet normal -1.20656e-23 1.22465e-16 1
    outer loop
      vertex 1.56325 -13.115 1.60613e-15
      vertex -15.5 -15.5 1.8982e-15
      vertex 1.6877 -13.2114 1.61793e-15
    endloop
  endfacet
  facet normal -5.84761e-23 1.22465e-16 1
    outer loop
      vertex 1.44887 -13.0062 1.5928e-15
      vertex -15.5 -15.5 1.8982e-15
      vertex 1.56325 -13.115 1.60613e-15
    endloop
  endfacet
  facet normal 3.69966e-24 1.22465e-16 1
    outer loop
      vertex 1.34435 -12.8835 1.57777e-15
      vertex -15.5 -15.5 1.8982e-15
      vertex 1.44887 -13.0062 1.5928e-15
    endloop
  endfacet
  facet normal 7.14338e-23 1.22464e-16 1
    outer loop
      vertex 1.25623 -12.7543 1.56195e-15
      vertex -15.5 -15.5 1.8982e-15
      vertex 1.34435 -12.8835 1.57777e-15
    endloop
  endfacet
  facet normal -7.15446e-24 1.22465e-16 1
    outer loop
      vertex 1.19278 -12.6361 1.54747e-15
      vertex -15.5 -15.5 1.8982e-15
      vertex 1.25623 -12.7543 1.56195e-15
    endloop
  endfacet
  facet normal 1 0 0
    outer loop
      vertex 16.5 -7.15 15
      vertex 16.5 -16.5 15
      vertex 16.5 -7.15 13.3
    endloop
  endfacet
  facet normal 1 0 0
    outer loop
      vertex 16.5 7.15 13.3
      vertex 16.5 16.5 15
      vertex 16.5 7.15 15
    endloop
  endfacet
  facet normal 1 0 0
    outer loop
      vertex 16.5 16.5 15
      vertex 16.5 7.15 13.3
      vertex 16.5 16.5 -1
    endloop
  endfacet
  facet normal 1 -0 0
    outer loop
      vertex 16.5 -7.15 13.3
      vertex 16.5 16.5 -1
      vertex 16.5 7.15 13.3
    endloop
  endfacet
  facet normal 1 0 0
    outer loop
      vertex 16.5 -16.5 -1
      vertex 16.5 -7.15 13.3
      vertex 16.5 -16.5 15
    endloop
  endfacet
  facet normal 1 0 0
    outer loop
      vertex 16.5 -7.15 13.3
      vertex 16.5 -16.5 -1
      vertex 16.5 16.5 -1
    endloop
  endfacet
  facet normal 0 -1 0
    outer loop
      vertex -16.5 -16.5 15
      vertex -7.15 -16.5 13.3
      vertex -7.15 -16.5 15
    endloop
  endfacet
  facet normal 0 -1 -0
    outer loop
      vertex -7.15 -16.5 13.3
      vertex -16.5 -16.5 -1
      vertex 7.15 -16.5 13.3
    endloop
  endfacet
  facet normal 0 -1 0
    outer loop
      vertex -16.5 -16.5 -1
      vertex -7.15 -16.5 13.3
      vertex -16.5 -16.5 15
    endloop
  endfacet
  facet normal 0 -1 0
    outer loop
      vertex 7.15 -16.5 13.3
      vertex 16.5 -16.5 15
      vertex 7.15 -16.5 15
    endloop
  endfacet
  facet normal 0 -1 0
    outer loop
      vertex 16.5 -16.5 -1
      vertex 7.15 -16.5 13.3
      vertex -16.5 -16.5 -1
    endloop
  endfacet
  facet normal 0 -1 0
    outer loop
      vertex 7.15 -16.5 13.3
      vertex 16.5 -16.5 -1
      vertex 16.5 -16.5 15
    endloop
  endfacet
  facet normal 0 0 1
    outer loop
      vertex -15.5 -7.15 15
      vertex -16.5 -7.15 15
      vertex -15.5 -15.5 15
    endloop
  endfacet
  facet normal -0 0 1
    outer loop
      vertex -15.5 -15.5 15
      vertex -7.15 -16.5 15
      vertex -7.15 -15.5 15
    endloop
  endfacet
  facet normal 0 0 1
    outer loop
      vertex -15.5 -15.5 15
      vertex -16.5 -16.5 15
      vertex -7.15 -16.5 15
    endloop
  endfacet
  facet normal 0 0 1
    outer loop
      vertex -16.5 -16.5 15
      vertex -15.5 -15.5 15
      vertex -16.5 -7.15 15
    endloop
  endfacet
  facet normal 0 0 1
    outer loop
      vertex -7.15 16.5 15
      vertex -15.5 15.5 15
      vertex -7.15 15.5 15
    endloop
  endfacet
  facet normal -0 0 1
    outer loop
      vertex -16.5 16.5 15
      vertex -15.5 15.5 15
      vertex -7.15 16.5 15
    endloop
  endfacet
  facet normal 0 0 1
    outer loop
      vertex -16.5 7.15 15
      vertex -15.5 15.5 15
      vertex -16.5 16.5 15
    endloop
  endfacet
  facet normal 0 0 1
    outer loop
      vertex -15.5 15.5 15
      vertex -16.5 7.15 15
      vertex -15.5 7.15 15
    endloop
  endfacet
  facet normal 0 0 1
    outer loop
      vertex 16.5 16.5 15
      vertex 15.5 15.5 15
      vertex 16.5 7.15 15
    endloop
  endfacet
  facet normal -0 0 1
    outer loop
      vertex 7.15 16.5 15
      vertex 15.5 15.5 15
      vertex 16.5 16.5 15
    endloop
  endfacet
  facet normal 0 0 1
    outer loop
      vertex 15.5 15.5 15
      vertex 7.15 16.5 15
      vertex 7.15 15.5 15
    endloop
  endfacet
  facet normal 0 0 1
    outer loop
      vertex 16.5 7.15 15
      vertex 15.5 15.5 15
      vertex 15.5 7.15 15
    endloop
  endfacet
  facet normal 0 0 1
    outer loop
      vertex 15.5 -15.5 15
      vertex 16.5 -7.15 15
      vertex 15.5 -7.15 15
    endloop
  endfacet
  facet normal 0 0 1
    outer loop
      vertex 16.5 -7.15 15
      vertex 15.5 -15.5 15
      vertex 16.5 -16.5 15
    endloop
  endfacet
  facet normal 0 0 1
    outer loop
      vertex 7.15 -16.5 15
      vertex 15.5 -15.5 15
      vertex 7.15 -15.5 15
    endloop
  endfacet
  facet normal 0 0 1
    outer loop
      vertex 15.5 -15.5 15
      vertex 7.15 -16.5 15
      vertex 16.5 -16.5 15
    endloop
  endfacet
  facet normal 0 1 0
    outer loop
      vertex 16.5 16.5 15
      vertex 7.15 16.5 13.3
      vertex 7.15 16.5 15
    endloop
  endfacet
  facet normal 0 1 0
    outer loop
      vertex 7.15 16.5 13.3
      vertex 16.5 16.5 -1
      vertex -7.15 16.5 13.3
    endloop
  endfacet
  facet normal 0 1 -0
    outer loop
      vertex 16.5 16.5 -1
      vertex 7.15 16.5 13.3
      vertex 16.5 16.5 15
    endloop
  endfacet
  facet normal 0 1 -0
    outer loop
      vertex -7.15 16.5 13.3
      vertex -16.5 16.5 15
      vertex -7.15 16.5 15
    endloop
  endfacet
  facet normal 0 1 0
    outer loop
      vertex -16.5 16.5 -1
      vertex -7.15 16.5 13.3
      vertex 16.5 16.5 -1
    endloop
  endfacet
  facet normal 0 1 0
    outer loop
      vertex -7.15 16.5 13.3
      vertex -16.5 16.5 -1
      vertex -16.5 16.5 15
    endloop
  endfacet
  facet normal 1 0 0
    outer loop
      vertex -15.5 -7.15 15
      vertex -15.5 -15.5 15
      vertex -15.5 -7.15 13.3
    endloop
  endfacet
  facet normal 1 0 0
    outer loop
      vertex -15.5 7.15 13.3
      vertex -15.5 15.5 15
      vertex -15.5 7.15 15
    endloop
  endfacet
  facet normal 1 0 0
    outer loop
      vertex -15.5 15.5 15
      vertex -15.5 7.15 13.3
      vertex -15.5 15.5 -1.8982e-15
    endloop
  endfacet
  facet normal 1 -0 0
    outer loop
      vertex -15.5 -7.15 13.3
      vertex -15.5 15.5 -1.8982e-15
      vertex -15.5 7.15 13.3
    endloop
  endfacet
  facet normal 1 0 0
    outer loop
      vertex -15.5 -15.5 1.8982e-15
      vertex -15.5 -7.15 13.3
      vertex -15.5 -15.5 15
    endloop
  endfacet
  facet normal 1 0 0
    outer loop
      vertex -15.5 -7.15 13.3
      vertex -15.5 -15.5 1.8982e-15
      vertex -15.5 15.5 -1.8982e-15
    endloop
  endfacet
  facet normal -1 0 0
    outer loop
      vertex 15.5 15.5 -1.8982e-15
      vertex 15.5 7.15 13.3
      vertex 15.5 15.5 15
    endloop
  endfacet
  facet normal -1 0 0
    outer loop
      vertex 15.5 15.5 -1.8982e-15
      vertex 15.5 -7.15 13.3
      vertex 15.5 7.15 13.3
    endloop
  endfacet
  facet normal -1 0 0
    outer loop
      vertex 15.5 -15.5 1.8982e-15
      vertex 15.5 -7.15 13.3
      vertex 15.5 15.5 -1.8982e-15
    endloop
  endfacet
  facet normal -1 0 0
    outer loop
      vertex 15.5 -15.5 15
      vertex 15.5 -7.15 13.3
      vertex 15.5 -15.5 1.8982e-15
    endloop
  endfacet
  facet normal -1 0 0
    outer loop
      vertex 15.5 -7.15 13.3
      vertex 15.5 -15.5 15
      vertex 15.5 -7.15 15
    endloop
  endfacet
  facet normal -1 -0 0
    outer loop
      vertex 15.5 15.5 15
      vertex 15.5 7.15 13.3
      vertex 15.5 7.15 15
    endloop
  endfacet
  facet normal 0 1 0
    outer loop
      vertex 15.5 -15.5 15
      vertex 7.15 -15.5 13.3
      vertex 7.15 -15.5 15
    endloop
  endfacet
  facet normal 0 1 0
    outer loop
      vertex 7.15 -15.5 13.3
      vertex 15.5 -15.5 1.8982e-15
      vertex -7.15 -15.5 13.3
    endloop
  endfacet
  facet normal 0 1 -0
    outer loop
      vertex 15.5 -15.5 1.8982e-15
      vertex 7.15 -15.5 13.3
      vertex 15.5 -15.5 15
    endloop
  endfacet
  facet normal 0 1 -0
    outer loop
      vertex -7.15 -15.5 13.3
      vertex -15.5 -15.5 15
      vertex -7.15 -15.5 15
    endloop
  endfacet
  facet normal 0 1 0
    outer loop
      vertex -15.5 -15.5 1.8982e-15
      vertex -7.15 -15.5 13.3
      vertex 15.5 -15.5 1.8982e-15
    endloop
  endfacet
  facet normal 0 1 0
    outer loop
      vertex -7.15 -15.5 13.3
      vertex -15.5 -15.5 1.8982e-15
      vertex -15.5 -15.5 15
    endloop
  endfacet
  facet normal 0 -1 0
    outer loop
      vertex -15.5 15.5 15
      vertex -7.15 15.5 13.3
      vertex -7.15 15.5 15
    endloop
  endfacet
  facet normal 0 -1 -0
    outer loop
      vertex -7.15 15.5 13.3
      vertex -15.5 15.5 -1.8982e-15
      vertex 7.15 15.5 13.3
    endloop
  endfacet
  facet normal 0 -1 0
    outer loop
      vertex -15.5 15.5 -1.8982e-15
      vertex -7.15 15.5 13.3
      vertex -15.5 15.5 15
    endloop
  endfacet
  facet normal 0 -1 0
    outer loop
      vertex 7.15 15.5 13.3
      vertex 15.5 15.5 15
      vertex 7.15 15.5 15
    endloop
  endfacet
  facet normal 0 -1 0
    outer loop
      vertex 15.5 15.5 -1.8982e-15
      vertex 7.15 15.5 13.3
      vertex -15.5 15.5 -1.8982e-15
    endloop
  endfacet
  facet normal 0 -1 0
    outer loop
      vertex 7.15 15.5 13.3
      vertex 15.5 15.5 -1.8982e-15
      vertex 15.5 15.5 15
    endloop
  endfacet
  facet normal 0 1.22465e-16 1
    outer loop
      vertex 1.1647 -0.920898 1.12778e-16
      vertex 1.1647 5.022 -6.15018e-16
      vertex -1.1402 5.022 -6.15018e-16
    endloop
  endfacet
  facet normal 0 0 -1
    outer loop
      vertex 7.28984 5.69847 -1
      vertex 16.5 16.5 -1
      vertex 16.5 -16.5 -1
    endloop
  endfacet
  facet normal 0 0 -1
    outer loop
      vertex 16.5 16.5 -1
      vertex 7.33588 5.9471 -1
      vertex 7.33846 8.4951 -1
    endloop
  endfacet
  facet normal 0 0 -1
    outer loop
      vertex 16.5 16.5 -1
      vertex 7.32045 5.82167 -1
      vertex 7.33588 5.9471 -1
    endloop
  endfacet
  facet normal 0 0 -1
    outer loop
      vertex 16.5 16.5 -1
      vertex 7.28984 5.69847 -1
      vertex 7.32045 5.82167 -1
    endloop
  endfacet
  facet normal 0 0 -1
    outer loop
      vertex 16.5 -16.5 -1
      vertex 7.24696 5.58569 -1
      vertex 7.28984 5.69847 -1
    endloop
  endfacet
  facet normal 0 0 -1
    outer loop
      vertex 16.5 -16.5 -1
      vertex 7.18976 5.47751 -1
      vertex 7.24696 5.58569 -1
    endloop
  endfacet
  facet normal 0 0 -1
    outer loop
      vertex 16.5 -16.5 -1
      vertex 7.12044 5.37849 -1
      vertex 7.18976 5.47751 -1
    endloop
  endfacet
  facet normal 0 0 -1
    outer loop
      vertex 16.5 -16.5 -1
      vertex 7.04002 5.28973 -1
      vertex 7.12044 5.37849 -1
    endloop
  endfacet
  facet normal 0 0 -1
    outer loop
      vertex 16.5 -16.5 -1
      vertex 6.9496 5.21216 -1
      vertex 7.04002 5.28973 -1
    endloop
  endfacet
  facet normal 0 0 -1
    outer loop
      vertex 5.61189 -12.5329 -1
      vertex 6.9496 5.21216 -1
      vertex 16.5 -16.5 -1
    endloop
  endfacet
  facet normal 0 0 -1
    outer loop
      vertex 6.9496 5.21216 -1
      vertex 5.61189 -12.5329 -1
      vertex 6.85033 5.14671 -1
    endloop
  endfacet
  facet normal 0 0 -1
    outer loop
      vertex 6.85033 5.14671 -1
      vertex 5.61189 -12.5329 -1
      vertex 6.74335 5.09424 -1
    endloop
  endfacet
  facet normal 0 0 -1
    outer loop
      vertex 6.74335 5.09424 -1
      vertex 5.61189 -12.5329 -1
      vertex 6.62624 5.05473 -1
    endloop
  endfacet
  facet normal 0 0 -1
    outer loop
      vertex 6.62624 5.05473 -1
      vertex 5.61189 -12.5329 -1
      vertex 6.50746 5.03101 -1
    endloop
  endfacet
  facet normal 0 0 -1
    outer loop
      vertex 6.50746 5.03101 -1
      vertex 5.61189 -12.5329 -1
      vertex 6.39606 5.02223 -1
    endloop
  endfacet
  facet normal 0 0 -1
    outer loop
      vertex 6.39606 5.02223 -1
      vertex 5.61189 -12.5329 -1
      vertex 5.61465 5.02206 -1
    endloop
  endfacet
  facet normal 0 0 -1
    outer loop
      vertex 16.5 -16.5 -1
      vertex 5.59648 -12.6583 -1
      vertex 5.61189 -12.5329 -1
    endloop
  endfacet
  facet normal 0 0 -1
    outer loop
      vertex 16.5 -16.5 -1
      vertex 5.56592 -12.7815 -1
      vertex 5.59648 -12.6583 -1
    endloop
  endfacet
  facet normal 0 0 -1
    outer loop
      vertex 16.5 -16.5 -1
      vertex 5.52313 -12.8943 -1
      vertex 5.56592 -12.7815 -1
    endloop
  endfacet
  facet normal 0 0 -1
    outer loop
      vertex 16.5 -16.5 -1
      vertex 5.466 -13.0025 -1
      vertex 5.52313 -12.8943 -1
    endloop
  endfacet
  facet normal 0 0 -1
    outer loop
      vertex 16.5 -16.5 -1
      vertex 5.39674 -13.1015 -1
      vertex 5.466 -13.0025 -1
    endloop
  endfacet
  facet normal 0 0 -1
    outer loop
      vertex 16.5 -16.5 -1
      vertex 5.31641 -13.1902 -1
      vertex 5.39674 -13.1015 -1
    endloop
  endfacet
  facet normal 0 0 -1
    outer loop
      vertex 16.5 -16.5 -1
      vertex 5.22603 -13.2678 -1
      vertex 5.31641 -13.1902 -1
    endloop
  endfacet
  facet normal 0 0 -1
    outer loop
      vertex 16.5 -16.5 -1
      vertex 5.12677 -13.3333 -1
      vertex 5.22603 -13.2678 -1
    endloop
  endfacet
  facet normal 0 0 -1
    outer loop
      vertex 16.5 -16.5 -1
      vertex 5.01978 -13.3858 -1
      vertex 5.12677 -13.3333 -1
    endloop
  endfacet
  facet normal 0 0 -1
    outer loop
      vertex 16.5 -16.5 -1
      vertex 4.90259 -13.4253 -1
      vertex 5.01978 -13.3858 -1
    endloop
  endfacet
  facet normal 0 0 -1
    outer loop
      vertex 16.5 -16.5 -1
      vertex 4.78369 -13.449 -1
      vertex 4.90259 -13.4253 -1
    endloop
  endfacet
  facet normal 0 0 -1
    outer loop
      vertex 16.5 -16.5 -1
      vertex 4.6721 -13.4578 -1
      vertex 4.78369 -13.449 -1
    endloop
  endfacet
  facet normal 0 0 -1
    outer loop
      vertex 16.5 -16.5 -1
      vertex 2.34627 -13.4551 -1
      vertex 4.6721 -13.4578 -1
    endloop
  endfacet
  facet normal 0 0 -1
    outer loop
      vertex -16.5 -16.5 -1
      vertex 2.34627 -13.4551 -1
      vertex 16.5 -16.5 -1
    endloop
  endfacet
  facet normal 0 0 -1
    outer loop
      vertex -6.92155 8.40617 -1
      vertex -16.5 16.5 -1
      vertex -6.95531 8.54185 -1
    endloop
  endfacet
  facet normal 0 0 -1
    outer loop
      vertex -16.5 16.5 -1
      vertex -6.92155 8.40617 -1
      vertex -16.5 -16.5 -1
    endloop
  endfacet
  facet normal -0 0 -1
    outer loop
      vertex 1.14839 -12.5309 -1
      vertex -16.5 -16.5 -1
      vertex -6.92155 8.40617 -1
    endloop
  endfacet
  facet normal -0 0 -1
    outer loop
      vertex 1.19278 -12.6361 -1
      vertex -16.5 -16.5 -1
      vertex 1.14839 -12.5309 -1
    endloop
  endfacet
  facet normal -0 0 -1
    outer loop
      vertex 1.25623 -12.7543 -1
      vertex -16.5 -16.5 -1
      vertex 1.19278 -12.6361 -1
    endloop
  endfacet
  facet normal -0 0 -1
    outer loop
      vertex 1.34435 -12.8835 -1
      vertex -16.5 -16.5 -1
      vertex 1.25623 -12.7543 -1
    endloop
  endfacet
  facet normal -0 0 -1
    outer loop
      vertex 1.44887 -13.0062 -1
      vertex -16.5 -16.5 -1
      vertex 1.34435 -12.8835 -1
    endloop
  endfacet
  facet normal -0 0 -1
    outer loop
      vertex 1.56325 -13.115 -1
      vertex -16.5 -16.5 -1
      vertex 1.44887 -13.0062 -1
    endloop
  endfacet
  facet normal -0 0 -1
    outer loop
      vertex 1.6877 -13.2114 -1
      vertex -16.5 -16.5 -1
      vertex 1.56325 -13.115 -1
    endloop
  endfacet
  facet normal -0 0 -1
    outer loop
      vertex 1.82355 -13.2957 -1
      vertex -16.5 -16.5 -1
      vertex 1.6877 -13.2114 -1
    endloop
  endfacet
  facet normal -0 0 -1
    outer loop
      vertex 1.96252 -13.3624 -1
      vertex -16.5 -16.5 -1
      vertex 1.82355 -13.2957 -1
    endloop
  endfacet
  facet normal -0 0 -1
    outer loop
      vertex 2.0899 -13.408 -1
      vertex -16.5 -16.5 -1
      vertex 1.96252 -13.3624 -1
    endloop
  endfacet
  facet normal -0 0 -1
    outer loop
      vertex 2.21587 -13.4385 -1
      vertex -16.5 -16.5 -1
      vertex 2.0899 -13.408 -1
    endloop
  endfacet
  facet normal -0 0 -1
    outer loop
      vertex 2.34627 -13.4551 -1
      vertex -16.5 -16.5 -1
      vertex 2.21587 -13.4385 -1
    endloop
  endfacet
  facet normal 0 0 -1
    outer loop
      vertex 7.33 8.61057 -1
      vertex 16.5 16.5 -1
      vertex 7.33846 8.4951 -1
    endloop
  endfacet
  facet normal 0 0 -1
    outer loop
      vertex 7.30692 8.73596 -1
      vertex 16.5 16.5 -1
      vertex 7.33 8.61057 -1
    endloop
  endfacet
  facet normal 0 0 -1
    outer loop
      vertex 7.27074 8.85146 -1
      vertex 16.5 16.5 -1
      vertex 7.30692 8.73596 -1
    endloop
  endfacet
  facet normal 0 0 -1
    outer loop
      vertex 7.22035 8.96327 -1
      vertex 16.5 16.5 -1
      vertex 7.27074 8.85146 -1
    endloop
  endfacet
  facet normal 0 0 -1
    outer loop
      vertex 7.15736 9.0666 -1
      vertex 16.5 16.5 -1
      vertex 7.22035 8.96327 -1
    endloop
  endfacet
  facet normal 0 0 -1
    outer loop
      vertex 7.08272 9.16042 -1
      vertex 16.5 16.5 -1
      vertex 7.15736 9.0666 -1
    endloop
  endfacet
  facet normal 0 0 -1
    outer loop
      vertex 5.60603 11.9476 -1
      vertex 7.08272 9.16042 -1
      vertex 6.99745 9.24364 -1
    endloop
  endfacet
  facet normal 0 0 -1
    outer loop
      vertex 5.61446 11.8321 -1
      vertex 6.99745 9.24364 -1
      vertex 6.90265 9.31529 -1
    endloop
  endfacet
  facet normal 0 0 -1
    outer loop
      vertex 5.61446 11.8321 -1
      vertex 6.90265 9.31529 -1
      vertex 6.79939 9.37447 -1
    endloop
  endfacet
  facet normal 0 0 -1
    outer loop
      vertex 5.61446 11.8321 -1
      vertex 6.79939 9.37447 -1
      vertex 6.68889 9.4203 -1
    endloop
  endfacet
  facet normal 0 0 -1
    outer loop
      vertex 5.61446 11.8321 -1
      vertex 6.68889 9.4203 -1
      vertex 6.56865 9.45288 -1
    endloop
  endfacet
  facet normal 0 0 -1
    outer loop
      vertex 5.61446 11.8321 -1
      vertex 6.56865 9.45288 -1
      vertex 6.44716 9.46919 -1
    endloop
  endfacet
  facet normal 0 0 -1
    outer loop
      vertex 5.61446 11.8321 -1
      vertex 6.44716 9.46919 -1
      vertex 5.61464 9.47174 -1
    endloop
  endfacet
  facet normal 0 0 -1
    outer loop
      vertex 6.99745 9.24364 -1
      vertex 5.61446 11.8321 -1
      vertex 5.60603 11.9476 -1
    endloop
  endfacet
  facet normal 0 0 -1
    outer loop
      vertex 7.08272 9.16042 -1
      vertex 5.60603 11.9476 -1
      vertex 5.58299 12.073 -1
    endloop
  endfacet
  facet normal 0 0 -1
    outer loop
      vertex 7.08272 9.16042 -1
      vertex 5.58299 12.073 -1
      vertex 16.5 16.5 -1
    endloop
  endfacet
  facet normal 0 0 -1
    outer loop
      vertex 5.54689 12.1885 -1
      vertex 16.5 16.5 -1
      vertex 5.58299 12.073 -1
    endloop
  endfacet
  facet normal 0 0 -1
    outer loop
      vertex 5.49657 12.3003 -1
      vertex 16.5 16.5 -1
      vertex 5.54689 12.1885 -1
    endloop
  endfacet
  facet normal 0 0 -1
    outer loop
      vertex 5.43365 12.4036 -1
      vertex 16.5 16.5 -1
      vertex 5.49657 12.3003 -1
    endloop
  endfacet
  facet normal 0 0 -1
    outer loop
      vertex 5.35909 12.4974 -1
      vertex 16.5 16.5 -1
      vertex 5.43365 12.4036 -1
    endloop
  endfacet
  facet normal 0 0 -1
    outer loop
      vertex 5.27388 12.5806 -1
      vertex 16.5 16.5 -1
      vertex 5.35909 12.4974 -1
    endloop
  endfacet
  facet normal 0 0 -1
    outer loop
      vertex 5.17909 12.6523 -1
      vertex 16.5 16.5 -1
      vertex 5.27388 12.5806 -1
    endloop
  endfacet
  facet normal 0 0 -1
    outer loop
      vertex 5.07582 12.7115 -1
      vertex 16.5 16.5 -1
      vertex 5.17909 12.6523 -1
    endloop
  endfacet
  facet normal 0 0 -1
    outer loop
      vertex 4.96526 12.7573 -1
      vertex 16.5 16.5 -1
      vertex 5.07582 12.7115 -1
    endloop
  endfacet
  facet normal 0 0 -1
    outer loop
      vertex 4.84491 12.7899 -1
      vertex 16.5 16.5 -1
      vertex 4.96526 12.7573 -1
    endloop
  endfacet
  facet normal 0 0 -1
    outer loop
      vertex 4.72325 12.8062 -1
      vertex 16.5 16.5 -1
      vertex 4.84491 12.7899 -1
    endloop
  endfacet
  facet normal 0 0 -1
    outer loop
      vertex 2.12685 12.8081 -1
      vertex 16.5 16.5 -1
      vertex 4.72325 12.8062 -1
    endloop
  endfacet
  facet normal 0 0 -1
    outer loop
      vertex -16.5 16.5 -1
      vertex 2.12685 12.8081 -1
      vertex 2.02798 12.7997 -1
    endloop
  endfacet
  facet normal 0 0 -1
    outer loop
      vertex -16.5 16.5 -1
      vertex 2.02798 12.7997 -1
      vertex 1.9108 12.7763 -1
    endloop
  endfacet
  facet normal 0 0 -1
    outer loop
      vertex -6.23531 9.47198 -1
      vertex 1.16759 11.8849 -1
      vertex 1.16481 9.47198 -1
    endloop
  endfacet
  facet normal 0 0 -1
    outer loop
      vertex -6.23531 9.47198 -1
      vertex 1.18593 12.0176 -1
      vertex 1.16759 11.8849 -1
    endloop
  endfacet
  facet normal 0 0 -1
    outer loop
      vertex -6.23531 9.47198 -1
      vertex 1.21965 12.1405 -1
      vertex 1.18593 12.0176 -1
    endloop
  endfacet
  facet normal 0 0 -1
    outer loop
      vertex -6.23531 9.47198 -1
      vertex 1.26813 12.2561 -1
      vertex 1.21965 12.1405 -1
    endloop
  endfacet
  facet normal 0 0 -1
    outer loop
      vertex -6.23531 9.47198 -1
      vertex 1.31006 12.3317 -1
      vertex 1.26813 12.2561 -1
    endloop
  endfacet
  facet normal 0 0 -1
    outer loop
      vertex -6.23531 9.47198 -1
      vertex 1.40477 12.4615 -1
      vertex 1.31006 12.3317 -1
    endloop
  endfacet
  facet normal 0 0 -1
    outer loop
      vertex -6.23531 9.47198 -1
      vertex 1.49048 12.5491 -1
      vertex 1.40477 12.4615 -1
    endloop
  endfacet
  facet normal 0 0 -1
    outer loop
      vertex -16.5 16.5 -1
      vertex 1.49048 12.5491 -1
      vertex -6.23531 9.47198 -1
    endloop
  endfacet
  facet normal 0 0 -1
    outer loop
      vertex 1.49048 12.5491 -1
      vertex -16.5 16.5 -1
      vertex 1.5829 12.6234 -1
    endloop
  endfacet
  facet normal 0 0 -1
    outer loop
      vertex 1.5829 12.6234 -1
      vertex -16.5 16.5 -1
      vertex 1.68674 12.6879 -1
    endloop
  endfacet
  facet normal 0 0 -1
    outer loop
      vertex -16.5 16.5 -1
      vertex -6.23531 9.47198 -1
      vertex -6.29764 9.46954 -1
    endloop
  endfacet
  facet normal 0 0 -1
    outer loop
      vertex -16.5 16.5 -1
      vertex -6.29764 9.46954 -1
      vertex -6.39537 9.45665 -1
    endloop
  endfacet
  facet normal 0 0 -1
    outer loop
      vertex -16.5 16.5 -1
      vertex -6.39537 9.45665 -1
      vertex -6.49126 9.43158 -1
    endloop
  endfacet
  facet normal 0 0 -1
    outer loop
      vertex -6.95531 8.54185 -1
      vertex -16.5 16.5 -1
      vertex -6.97147 8.67285 -1
    endloop
  endfacet
  facet normal 0 0 -1
    outer loop
      vertex -6.97147 8.67285 -1
      vertex -16.5 16.5 -1
      vertex -6.9696 8.80537 -1
    endloop
  endfacet
  facet normal 0 0 -1
    outer loop
      vertex -6.9696 8.80537 -1
      vertex -16.5 16.5 -1
      vertex -6.95026 8.92668 -1
    endloop
  endfacet
  facet normal 0 0 -1
    outer loop
      vertex 2.12685 12.8081 -1
      vertex -16.5 16.5 -1
      vertex 16.5 16.5 -1
    endloop
  endfacet
  facet normal 0 0 -1
    outer loop
      vertex 1.79774 12.7394 -1
      vertex -16.5 16.5 -1
      vertex 1.9108 12.7763 -1
    endloop
  endfacet
  facet normal 0 0 -1
    outer loop
      vertex 1.68674 12.6879 -1
      vertex -16.5 16.5 -1
      vertex 1.79774 12.7394 -1
    endloop
  endfacet
  facet normal 0 0 -1
    outer loop
      vertex -6.58414 9.3934 -1
      vertex -16.5 16.5 -1
      vertex -6.49126 9.43158 -1
    endloop
  endfacet
  facet normal 0 0 -1
    outer loop
      vertex -6.67241 9.34128 -1
      vertex -16.5 16.5 -1
      vertex -6.58414 9.3934 -1
    endloop
  endfacet
  facet normal 0 0 -1
    outer loop
      vertex -6.75131 9.27702 -1
      vertex -16.5 16.5 -1
      vertex -6.67241 9.34128 -1
    endloop
  endfacet
  facet normal 0 0 -1
    outer loop
      vertex -6.81967 9.20158 -1
      vertex -16.5 16.5 -1
      vertex -6.75131 9.27702 -1
    endloop
  endfacet
  facet normal 0 0 -1
    outer loop
      vertex -6.87653 9.11604 -1
      vertex -16.5 16.5 -1
      vertex -6.81967 9.20158 -1
    endloop
  endfacet
  facet normal 0 0 -1
    outer loop
      vertex -6.91945 9.02502 -1
      vertex -16.5 16.5 -1
      vertex -6.87653 9.11604 -1
    endloop
  endfacet
  facet normal 0 0 -1
    outer loop
      vertex -6.95026 8.92668 -1
      vertex -16.5 16.5 -1
      vertex -6.91945 9.02502 -1
    endloop
  endfacet
  facet normal -0 -0 -1
    outer loop
      vertex 1.1647 5.022 -1
      vertex 1.1647 -0.920898 -1
      vertex -1.1402 5.022 -1
    endloop
  endfacet
  facet normal 0.195134 -0.980777 0
    outer loop
      vertex 1.9108 12.7763 -1
      vertex 2.02798 12.7997 -1.56751e-15
      vertex 1.9108 12.7763 -1.56465e-15
    endloop
  endfacet
  facet normal 0.195134 -0.980777 0
    outer loop
      vertex 2.02798 12.7997 -1.56751e-15
      vertex 1.9108 12.7763 -1
      vertex 2.02798 12.7997 -1
    endloop
  endfacet
  facet normal 0.310487 -0.950578 0
    outer loop
      vertex 1.79774 12.7394 -1
      vertex 1.9108 12.7763 -1.56465e-15
      vertex 1.79774 12.7394 -1.56013e-15
    endloop
  endfacet
  facet normal 0.310487 -0.950578 0
    outer loop
      vertex 1.9108 12.7763 -1.56465e-15
      vertex 1.79774 12.7394 -1
      vertex 1.9108 12.7763 -1
    endloop
  endfacet
  facet normal 0.420734 -0.907184 0
    outer loop
      vertex 1.68674 12.6879 -1
      vertex 1.79774 12.7394 -1.56013e-15
      vertex 1.68674 12.6879 -1.55382e-15
    endloop
  endfacet
  facet normal 0.420734 -0.907184 0
    outer loop
      vertex 1.79774 12.7394 -1.56013e-15
      vertex 1.68674 12.6879 -1
      vertex 1.79774 12.7394 -1
    endloop
  endfacet
  facet normal 0.527832 -0.849349 0
    outer loop
      vertex 1.5829 12.6234 -1
      vertex 1.68674 12.6879 -1.55382e-15
      vertex 1.5829 12.6234 -1.54592e-15
    endloop
  endfacet
  facet normal 0.527832 -0.849349 0
    outer loop
      vertex 1.68674 12.6879 -1.55382e-15
      vertex 1.5829 12.6234 -1
      vertex 1.68674 12.6879 -1
    endloop
  endfacet
  facet normal 0.626529 -0.779398 0
    outer loop
      vertex 1.49048 12.5491 -1
      vertex 1.5829 12.6234 -1.54592e-15
      vertex 1.49048 12.5491 -1.53682e-15
    endloop
  endfacet
  facet normal 0.626529 -0.779398 0
    outer loop
      vertex 1.5829 12.6234 -1.54592e-15
      vertex 1.49048 12.5491 -1
      vertex 1.5829 12.6234 -1
    endloop
  endfacet
  facet normal 0.714906 -0.699221 0
    outer loop
      vertex 1.40477 12.4615 -1.52609e-15
      vertex 1.49048 12.5491 -1
      vertex 1.49048 12.5491 -1.53682e-15
    endloop
  endfacet
  facet normal 0.714906 -0.699221 0
    outer loop
      vertex 1.49048 12.5491 -1
      vertex 1.40477 12.4615 -1.52609e-15
      vertex 1.40477 12.4615 -1
    endloop
  endfacet
  facet normal 0.807828 -0.589419 0
    outer loop
      vertex 1.31006 12.3317 -1.51019e-15
      vertex 1.40477 12.4615 -1
      vertex 1.40477 12.4615 -1.52609e-15
    endloop
  endfacet
  facet normal 0.807828 -0.589419 0
    outer loop
      vertex 1.40477 12.4615 -1
      vertex 1.31006 12.3317 -1.51019e-15
      vertex 1.31006 12.3317 -1
    endloop
  endfacet
  facet normal 0.874349 -0.485298 0
    outer loop
      vertex 1.26813 12.2561 -1.50094e-15
      vertex 1.31006 12.3317 -1
      vertex 1.31006 12.3317 -1.51019e-15
    endloop
  endfacet
  facet normal 0.874349 -0.485298 0
    outer loop
      vertex 1.31006 12.3317 -1
      vertex 1.26813 12.2561 -1.50094e-15
      vertex 1.26813 12.2561 -1
    endloop
  endfacet
  facet normal 0.92225 -0.386593 0
    outer loop
      vertex 1.21965 12.1405 -1.48678e-15
      vertex 1.26813 12.2561 -1
      vertex 1.26813 12.2561 -1.50094e-15
    endloop
  endfacet
  facet normal 0.92225 -0.386593 0
    outer loop
      vertex 1.26813 12.2561 -1
      vertex 1.21965 12.1405 -1.48678e-15
      vertex 1.21965 12.1405 -1
    endloop
  endfacet
  facet normal 0.964345 -0.264647 0
    outer loop
      vertex 1.18593 12.0176 -1.47173e-15
      vertex 1.21965 12.1405 -1
      vertex 1.21965 12.1405 -1.48678e-15
    endloop
  endfacet
  facet normal 0.964345 -0.264647 0
    outer loop
      vertex 1.21965 12.1405 -1
      vertex 1.18593 12.0176 -1.47173e-15
      vertex 1.18593 12.0176 -1
    endloop
  endfacet
  facet normal 0.990586 -0.136892 0
    outer loop
      vertex 1.16759 11.8849 -1.45548e-15
      vertex 1.18593 12.0176 -1
      vertex 1.18593 12.0176 -1.47173e-15
    endloop
  endfacet
  facet normal 0.990586 -0.136892 0
    outer loop
      vertex 1.18593 12.0176 -1
      vertex 1.16759 11.8849 -1.45548e-15
      vertex 1.16759 11.8849 -1
    endloop
  endfacet
  facet normal 0.999999 -0.00115094 0
    outer loop
      vertex 1.16481 9.47198 -1.15998e-15
      vertex 1.16759 11.8849 -1
      vertex 1.16759 11.8849 -1.45548e-15
    endloop
  endfacet
  facet normal 0.999999 -0.00115094 0
    outer loop
      vertex 1.16759 11.8849 -1
      vertex 1.16481 9.47198 -1.15998e-15
      vertex 1.16481 9.47198 -1
    endloop
  endfacet
  facet normal 0 -1 0
    outer loop
      vertex -6.23531 9.47198 -1
      vertex 1.16481 9.47198 -1.15998e-15
      vertex -6.23531 9.47198 -1.15998e-15
    endloop
  endfacet
  facet normal 0 -1 -0
    outer loop
      vertex 1.16481 9.47198 -1.15998e-15
      vertex -6.23531 9.47198 -1
      vertex 1.16481 9.47198 -1
    endloop
  endfacet
  facet normal 0.0391377 -0.999234 0
    outer loop
      vertex -6.29764 9.46954 -1
      vertex -6.23531 9.47198 -1.15998e-15
      vertex -6.29764 9.46954 -1.15968e-15
    endloop
  endfacet
  facet normal 0.0391377 -0.999234 0
    outer loop
      vertex -6.23531 9.47198 -1.15998e-15
      vertex -6.29764 9.46954 -1
      vertex -6.23531 9.47198 -1
    endloop
  endfacet
  facet normal 0.130795 -0.991409 0
    outer loop
      vertex -6.39537 9.45665 -1
      vertex -6.29764 9.46954 -1.15968e-15
      vertex -6.39537 9.45665 -1.15811e-15
    endloop
  endfacet
  facet normal 0.130795 -0.991409 0
    outer loop
      vertex -6.29764 9.46954 -1.15968e-15
      vertex -6.39537 9.45665 -1
      vertex -6.29764 9.46954 -1
    endloop
  endfacet
  facet normal 0.252955 -0.967478 0
    outer loop
      vertex -6.49126 9.43158 -1
      vertex -6.39537 9.45665 -1.15811e-15
      vertex -6.49126 9.43158 -1.15504e-15
    endloop
  endfacet
  facet normal 0.252955 -0.967478 0
    outer loop
      vertex -6.39537 9.45665 -1.15811e-15
      vertex -6.49126 9.43158 -1
      vertex -6.39537 9.45665 -1
    endloop
  endfacet
  facet normal 0.380177 -0.924914 0
    outer loop
      vertex -6.58414 9.3934 -1
      vertex -6.49126 9.43158 -1.15504e-15
      vertex -6.58414 9.3934 -1.15036e-15
    endloop
  endfacet
  facet normal 0.380177 -0.924914 0
    outer loop
      vertex -6.49126 9.43158 -1.15504e-15
      vertex -6.58414 9.3934 -1
      vertex -6.49126 9.43158 -1
    endloop
  endfacet
  facet normal 0.508464 -0.861084 0
    outer loop
      vertex -6.67241 9.34128 -1
      vertex -6.58414 9.3934 -1.15036e-15
      vertex -6.67241 9.34128 -1.14398e-15
    endloop
  endfacet
  facet normal 0.508464 -0.861084 0
    outer loop
      vertex -6.58414 9.3934 -1.15036e-15
      vertex -6.67241 9.34128 -1
      vertex -6.58414 9.3934 -1
    endloop
  endfacet
  facet normal 0.631456 -0.775412 0
    outer loop
      vertex -6.75131 9.27702 -1
      vertex -6.67241 9.34128 -1.14398e-15
      vertex -6.75131 9.27702 -1.13611e-15
    endloop
  endfacet
  facet normal 0.631456 -0.775412 0
    outer loop
      vertex -6.67241 9.34128 -1.14398e-15
      vertex -6.75131 9.27702 -1
      vertex -6.67241 9.34128 -1
    endloop
  endfacet
  facet normal 0.741024 -0.671478 0
    outer loop
      vertex -6.81967 9.20158 -1.12687e-15
      vertex -6.75131 9.27702 -1
      vertex -6.75131 9.27702 -1.13611e-15
    endloop
  endfacet
  facet normal 0.741024 -0.671478 0
    outer loop
      vertex -6.75131 9.27702 -1
      vertex -6.81967 9.20158 -1.12687e-15
      vertex -6.81967 9.20158 -1
    endloop
  endfacet
  facet normal 0.832827 -0.553534 0
    outer loop
      vertex -6.87653 9.11604 -1.11639e-15
      vertex -6.81967 9.20158 -1
      vertex -6.81967 9.20158 -1.12687e-15
    endloop
  endfacet
  facet normal 0.832827 -0.553534 0
    outer loop
      vertex -6.81967 9.20158 -1
      vertex -6.87653 9.11604 -1.11639e-15
      vertex -6.87653 9.11604 -1
    endloop
  endfacet
  facet normal 0.904471 -0.426534 0
    outer loop
      vertex -6.91945 9.02502 -1.10525e-15
      vertex -6.87653 9.11604 -1
      vertex -6.87653 9.11604 -1.11639e-15
    endloop
  endfacet
  facet normal 0.904471 -0.426534 0
    outer loop
      vertex -6.87653 9.11604 -1
      vertex -6.91945 9.02502 -1.10525e-15
      vertex -6.91945 9.02502 -1
    endloop
  endfacet
  facet normal 0.954272 -0.298941 0
    outer loop
      vertex -6.95026 8.92668 -1.0932e-15
      vertex -6.91945 9.02502 -1
      vertex -6.91945 9.02502 -1.10525e-15
    endloop
  endfacet
  facet normal 0.954272 -0.298941 0
    outer loop
      vertex -6.91945 9.02502 -1
      vertex -6.95026 8.92668 -1.0932e-15
      vertex -6.95026 8.92668 -1
    endloop
  endfacet
  facet normal 0.987518 -0.157506 0
    outer loop
      vertex -6.9696 8.80537 -1.07835e-15
      vertex -6.95026 8.92668 -1
      vertex -6.95026 8.92668 -1.0932e-15
    endloop
  endfacet
  facet normal 0.987518 -0.157506 0
    outer loop
      vertex -6.95026 8.92668 -1
      vertex -6.9696 8.80537 -1.07835e-15
      vertex -6.9696 8.80537 -1
    endloop
  endfacet
  facet normal 0.999901 -0.0140458 0
    outer loop
      vertex -6.97147 8.67285 -1.06212e-15
      vertex -6.9696 8.80537 -1
      vertex -6.9696 8.80537 -1.07835e-15
    endloop
  endfacet
  facet normal 0.999901 -0.0140458 0
    outer loop
      vertex -6.9696 8.80537 -1
      vertex -6.97147 8.67285 -1.06212e-15
      vertex -6.97147 8.67285 -1
    endloop
  endfacet
  facet normal 0.992478 0.122427 0
    outer loop
      vertex -6.95531 8.54185 -1.04608e-15
      vertex -6.97147 8.67285 -1
      vertex -6.97147 8.67285 -1.06212e-15
    endloop
  endfacet
  facet normal 0.992478 0.122427 0
    outer loop
      vertex -6.97147 8.67285 -1
      vertex -6.95531 8.54185 -1.04608e-15
      vertex -6.95531 8.54185 -1
    endloop
  endfacet
  facet normal 0.970424 0.241406 0
    outer loop
      vertex -6.92155 8.40617 -1.02946e-15
      vertex -6.95531 8.54185 -1
      vertex -6.95531 8.54185 -1.04608e-15
    endloop
  endfacet
  facet normal 0.970424 0.241406 0
    outer loop
      vertex -6.95531 8.54185 -1
      vertex -6.92155 8.40617 -1.02946e-15
      vertex -6.92155 8.40617 -1
    endloop
  endfacet
  facet normal 0.933088 0.359648 0
    outer loop
      vertex 1.14839 -12.5309 1.53459e-15
      vertex -6.92155 8.40617 -1
      vertex -6.92155 8.40617 -1.02946e-15
    endloop
  endfacet
  facet normal 0.933088 0.359648 0
    outer loop
      vertex -6.92155 8.40617 -1
      vertex 1.14839 -12.5309 1.53459e-15
      vertex 1.14839 -12.5309 -1
    endloop
  endfacet
  facet normal 0.921275 0.388912 0
    outer loop
      vertex 1.19278 -12.6361 1.54747e-15
      vertex 1.14839 -12.5309 -1
      vertex 1.14839 -12.5309 1.53459e-15
    endloop
  endfacet
  facet normal 0.921275 0.388912 0
    outer loop
      vertex 1.14839 -12.5309 -1
      vertex 1.19278 -12.6361 1.54747e-15
      vertex 1.19278 -12.6361 -1
    endloop
  endfacet
  facet normal 0.881109 0.472912 0
    outer loop
      vertex 1.25623 -12.7543 1.56195e-15
      vertex 1.19278 -12.6361 -1
      vertex 1.19278 -12.6361 1.54747e-15
    endloop
  endfacet
  facet normal 0.881109 0.472912 0
    outer loop
      vertex 1.19278 -12.6361 -1
      vertex 1.25623 -12.7543 1.56195e-15
      vertex 1.25623 -12.7543 -1
    endloop
  endfacet
  facet normal 0.826103 0.563518 0
    outer loop
      vertex 1.34435 -12.8835 1.57777e-15
      vertex 1.25623 -12.7543 -1
      vertex 1.25623 -12.7543 1.56195e-15
    endloop
  endfacet
  facet normal 0.826103 0.563518 0
    outer loop
      vertex 1.25623 -12.7543 -1
      vertex 1.34435 -12.8835 1.57777e-15
      vertex 1.34435 -12.8835 -1
    endloop
  endfacet
  facet normal 0.76143 0.648247 0
    outer loop
      vertex 1.44887 -13.0062 1.5928e-15
      vertex 1.34435 -12.8835 -1
      vertex 1.34435 -12.8835 1.57777e-15
    endloop
  endfacet
  facet normal 0.76143 0.648247 0
    outer loop
      vertex 1.34435 -12.8835 -1
      vertex 1.44887 -13.0062 1.5928e-15
      vertex 1.44887 -13.0062 -1
    endloop
  endfacet
  facet normal 0.689196 0.724575 -0
    outer loop
      vertex 1.56325 -13.115 -1
      vertex 1.44887 -13.0062 1.5928e-15
      vertex 1.56325 -13.115 1.60613e-15
    endloop
  endfacet
  facet normal 0.689196 0.724575 0
    outer loop
      vertex 1.44887 -13.0062 1.5928e-15
      vertex 1.56325 -13.115 -1
      vertex 1.44887 -13.0062 -1
    endloop
  endfacet
  facet normal 0.612154 0.790739 -0
    outer loop
      vertex 1.6877 -13.2114 -1
      vertex 1.56325 -13.115 1.60613e-15
      vertex 1.6877 -13.2114 1.61793e-15
    endloop
  endfacet
  facet normal 0.612154 0.790739 0
    outer loop
      vertex 1.56325 -13.115 1.60613e-15
      vertex 1.6877 -13.2114 -1
      vertex 1.56325 -13.115 -1
    endloop
  endfacet
  facet normal 0.527638 0.849469 -0
    outer loop
      vertex 1.82355 -13.2957 -1
      vertex 1.6877 -13.2114 1.61793e-15
      vertex 1.82355 -13.2957 1.62826e-15
    endloop
  endfacet
  facet normal 0.527638 0.849469 0
    outer loop
      vertex 1.6877 -13.2114 1.61793e-15
      vertex 1.82355 -13.2957 -1
      vertex 1.6877 -13.2114 -1
    endloop
  endfacet
  facet normal 0.432342 0.90171 -0
    outer loop
      vertex 1.96252 -13.3624 -1
      vertex 1.82355 -13.2957 1.62826e-15
      vertex 1.96252 -13.3624 1.63642e-15
    endloop
  endfacet
  facet normal 0.432342 0.90171 0
    outer loop
      vertex 1.82355 -13.2957 1.62826e-15
      vertex 1.96252 -13.3624 -1
      vertex 1.82355 -13.2957 -1
    endloop
  endfacet
  facet normal 0.336894 0.941543 -0
    outer loop
      vertex 2.0899 -13.408 -1
      vertex 1.96252 -13.3624 1.63642e-15
      vertex 2.0899 -13.408 1.642e-15
    endloop
  endfacet
  facet normal 0.336894 0.941543 0
    outer loop
      vertex 1.96252 -13.3624 1.63642e-15
      vertex 2.0899 -13.408 -1
      vertex 1.96252 -13.3624 -1
    endloop
  endfacet
  facet normal 0.235354 0.97191 -0
    outer loop
      vertex 2.21587 -13.4385 -1
      vertex 2.0899 -13.408 1.642e-15
      vertex 2.21587 -13.4385 1.64574e-15
    endloop
  endfacet
  facet normal 0.235354 0.97191 0
    outer loop
      vertex 2.0899 -13.408 1.642e-15
      vertex 2.21587 -13.4385 -1
      vertex 2.0899 -13.408 -1
    endloop
  endfacet
  facet normal 0.126406 0.991979 -0
    outer loop
      vertex 2.34627 -13.4551 -1
      vertex 2.21587 -13.4385 1.64574e-15
      vertex 2.34627 -13.4551 1.64777e-15
    endloop
  endfacet
  facet normal 0.126406 0.991979 0
    outer loop
      vertex 2.21587 -13.4385 1.64574e-15
      vertex 2.34627 -13.4551 -1
      vertex 2.21587 -13.4385 -1
    endloop
  endfacet
  facet normal 0.00115466 0.999999 -0
    outer loop
      vertex 4.6721 -13.4578 -1
      vertex 2.34627 -13.4551 1.64777e-15
      vertex 4.6721 -13.4578 1.6481e-15
    endloop
  endfacet
  facet normal 0.00115466 0.999999 0
    outer loop
      vertex 2.34627 -13.4551 1.64777e-15
      vertex 4.6721 -13.4578 -1
      vertex 2.34627 -13.4551 -1
    endloop
  endfacet
  facet normal -0.0785207 0.996912 0
    outer loop
      vertex 4.78369 -13.449 -1
      vertex 4.6721 -13.4578 1.6481e-15
      vertex 4.78369 -13.449 1.64702e-15
    endloop
  endfacet
  facet normal -0.0785207 0.996912 0
    outer loop
      vertex 4.6721 -13.4578 1.6481e-15
      vertex 4.78369 -13.449 -1
      vertex 4.6721 -13.4578 -1
    endloop
  endfacet
  facet normal -0.195584 0.980687 0
    outer loop
      vertex 4.90259 -13.4253 -1
      vertex 4.78369 -13.449 1.64702e-15
      vertex 4.90259 -13.4253 1.64412e-15
    endloop
  endfacet
  facet normal -0.195584 0.980687 0
    outer loop
      vertex 4.78369 -13.449 1.64702e-15
      vertex 4.90259 -13.4253 -1
      vertex 4.78369 -13.449 -1
    endloop
  endfacet
  facet normal -0.319446 0.947604 0
    outer loop
      vertex 5.01978 -13.3858 -1
      vertex 4.90259 -13.4253 1.64412e-15
      vertex 5.01978 -13.3858 1.63928e-15
    endloop
  endfacet
  facet normal -0.319446 0.947604 0
    outer loop
      vertex 4.90259 -13.4253 1.64412e-15
      vertex 5.01978 -13.3858 -1
      vertex 4.90259 -13.4253 -1
    endloop
  endfacet
  facet normal -0.440337 0.897832 0
    outer loop
      vertex 5.12677 -13.3333 -1
      vertex 5.01978 -13.3858 1.63928e-15
      vertex 5.12677 -13.3333 1.63286e-15
    endloop
  endfacet
  facet normal -0.440337 0.897832 0
    outer loop
      vertex 5.01978 -13.3858 1.63928e-15
      vertex 5.12677 -13.3333 -1
      vertex 5.01978 -13.3858 -1
    endloop
  endfacet
  facet normal -0.550547 0.834804 0
    outer loop
      vertex 5.22603 -13.2678 -1
      vertex 5.12677 -13.3333 1.63286e-15
      vertex 5.22603 -13.2678 1.62484e-15
    endloop
  endfacet
  facet normal -0.550547 0.834804 0
    outer loop
      vertex 5.12677 -13.3333 1.63286e-15
      vertex 5.22603 -13.2678 -1
      vertex 5.12677 -13.3333 -1
    endloop
  endfacet
  facet normal -0.651319 0.758804 0
    outer loop
      vertex 5.31641 -13.1902 -1
      vertex 5.22603 -13.2678 1.62484e-15
      vertex 5.31641 -13.1902 1.61534e-15
    endloop
  endfacet
  facet normal -0.651319 0.758804 0
    outer loop
      vertex 5.22603 -13.2678 1.62484e-15
      vertex 5.31641 -13.1902 -1
      vertex 5.22603 -13.2678 -1
    endloop
  endfacet
  facet normal -0.741409 0.671053 0
    outer loop
      vertex 5.31641 -13.1902 -1
      vertex 5.39674 -13.1015 1.60447e-15
      vertex 5.39674 -13.1015 -1
    endloop
  endfacet
  facet normal -0.741409 0.671053 0
    outer loop
      vertex 5.39674 -13.1015 1.60447e-15
      vertex 5.31641 -13.1902 -1
      vertex 5.31641 -13.1902 1.61534e-15
    endloop
  endfacet
  facet normal -0.819386 0.573242 0
    outer loop
      vertex 5.39674 -13.1015 -1
      vertex 5.466 -13.0025 1.59235e-15
      vertex 5.466 -13.0025 -1
    endloop
  endfacet
  facet normal -0.819386 0.573242 0
    outer loop
      vertex 5.466 -13.0025 1.59235e-15
      vertex 5.39674 -13.1015 -1
      vertex 5.39674 -13.1015 1.60447e-15
    endloop
  endfacet
  facet normal -0.884306 0.466908 0
    outer loop
      vertex 5.466 -13.0025 -1
      vertex 5.52313 -12.8943 1.57909e-15
      vertex 5.52313 -12.8943 -1
    endloop
  endfacet
  facet normal -0.884306 0.466908 0
    outer loop
      vertex 5.52313 -12.8943 1.57909e-15
      vertex 5.466 -13.0025 -1
      vertex 5.466 -13.0025 1.59235e-15
    endloop
  endfacet
  facet normal -0.934976 0.354711 0
    outer loop
      vertex 5.52313 -12.8943 -1
      vertex 5.56592 -12.7815 1.56528e-15
      vertex 5.56592 -12.7815 -1
    endloop
  endfacet
  facet normal -0.934976 0.354711 0
    outer loop
      vertex 5.56592 -12.7815 1.56528e-15
      vertex 5.52313 -12.8943 -1
      vertex 5.52313 -12.8943 1.57909e-15
    endloop
  endfacet
  facet normal -0.970579 0.240782 0
    outer loop
      vertex 5.56592 -12.7815 -1
      vertex 5.59648 -12.6583 1.5502e-15
      vertex 5.59648 -12.6583 -1
    endloop
  endfacet
  facet normal -0.970579 0.240782 0
    outer loop
      vertex 5.59648 -12.6583 1.5502e-15
      vertex 5.56592 -12.7815 -1
      vertex 5.56592 -12.7815 1.56528e-15
    endloop
  endfacet
  facet normal -0.992536 0.121954 0
    outer loop
      vertex 5.59648 -12.6583 -1
      vertex 5.61189 -12.5329 1.53484e-15
      vertex 5.61189 -12.5329 -1
    endloop
  endfacet
  facet normal -0.992536 0.121954 0
    outer loop
      vertex 5.61189 -12.5329 1.53484e-15
      vertex 5.59648 -12.6583 -1
      vertex 5.59648 -12.6583 1.5502e-15
    endloop
  endfacet
  facet normal -1 0.000157325 0
    outer loop
      vertex 5.61189 -12.5329 -1
      vertex 5.61465 5.02206 -6.15025e-16
      vertex 5.61465 5.02206 -1
    endloop
  endfacet
  facet normal -1 0.000157325 0
    outer loop
      vertex 5.61465 5.02206 -6.15025e-16
      vertex 5.61189 -12.5329 -1
      vertex 5.61189 -12.5329 1.53484e-15
    endloop
  endfacet
  facet normal -0.000214802 1 0
    outer loop
      vertex 6.39606 5.02223 -1
      vertex 5.61465 5.02206 -6.15025e-16
      vertex 6.39606 5.02223 -6.15046e-16
    endloop
  endfacet
  facet normal -0.000214802 1 0
    outer loop
      vertex 5.61465 5.02206 -6.15025e-16
      vertex 6.39606 5.02223 -1
      vertex 5.61465 5.02206 -1
    endloop
  endfacet
  facet normal -0.0785132 0.996913 0
    outer loop
      vertex 6.50746 5.03101 -1
      vertex 6.39606 5.02223 -6.15046e-16
      vertex 6.50746 5.03101 -6.16121e-16
    endloop
  endfacet
  facet normal -0.0785132 0.996913 0
    outer loop
      vertex 6.39606 5.02223 -6.15046e-16
      vertex 6.50746 5.03101 -1
      vertex 6.39606 5.02223 -1
    endloop
  endfacet
  facet normal -0.195898 0.980624 0
    outer loop
      vertex 6.62624 5.05473 -1
      vertex 6.50746 5.03101 -6.16121e-16
      vertex 6.62624 5.05473 -6.19026e-16
    endloop
  endfacet
  facet normal -0.195898 0.980624 0
    outer loop
      vertex 6.50746 5.03101 -6.16121e-16
      vertex 6.62624 5.05473 -1
      vertex 6.50746 5.03101 -1
    endloop
  endfacet
  facet normal -0.319633 0.947541 0
    outer loop
      vertex 6.74335 5.09424 -1
      vertex 6.62624 5.05473 -6.19026e-16
      vertex 6.74335 5.09424 -6.23864e-16
    endloop
  endfacet
  facet normal -0.319633 0.947541 0
    outer loop
      vertex 6.62624 5.05473 -6.19026e-16
      vertex 6.74335 5.09424 -1
      vertex 6.62624 5.05473 -1
    endloop
  endfacet
  facet normal -0.440388 0.897808 0
    outer loop
      vertex 6.85033 5.14671 -1
      vertex 6.74335 5.09424 -6.23864e-16
      vertex 6.85033 5.14671 -6.30291e-16
    endloop
  endfacet
  facet normal -0.440388 0.897808 0
    outer loop
      vertex 6.74335 5.09424 -6.23864e-16
      vertex 6.85033 5.14671 -1
      vertex 6.74335 5.09424 -1
    endloop
  endfacet
  facet normal -0.550399 0.834902 0
    outer loop
      vertex 6.9496 5.21216 -1
      vertex 6.85033 5.14671 -6.30291e-16
      vertex 6.9496 5.21216 -6.38305e-16
    endloop
  endfacet
  facet normal -0.550399 0.834902 0
    outer loop
      vertex 6.85033 5.14671 -6.30291e-16
      vertex 6.9496 5.21216 -1
      vertex 6.85033 5.14671 -1
    endloop
  endfacet
  facet normal -0.651129 0.758967 0
    outer loop
      vertex 7.04002 5.28973 -1
      vertex 6.9496 5.21216 -6.38305e-16
      vertex 7.04002 5.28973 -6.47806e-16
    endloop
  endfacet
  facet normal -0.651129 0.758967 0
    outer loop
      vertex 6.9496 5.21216 -6.38305e-16
      vertex 7.04002 5.28973 -1
      vertex 6.9496 5.21216 -1
    endloop
  endfacet
  facet normal -0.741092 0.671404 0
    outer loop
      vertex 7.04002 5.28973 -1
      vertex 7.12044 5.37849 -6.58676e-16
      vertex 7.12044 5.37849 -1
    endloop
  endfacet
  facet normal -0.741092 0.671404 0
    outer loop
      vertex 7.12044 5.37849 -6.58676e-16
      vertex 7.04002 5.28973 -1
      vertex 7.04002 5.28973 -6.47806e-16
    endloop
  endfacet
  facet normal -0.81919 0.573522 0
    outer loop
      vertex 7.12044 5.37849 -1
      vertex 7.18976 5.47751 -6.70801e-16
      vertex 7.18976 5.47751 -1
    endloop
  endfacet
  facet normal -0.81919 0.573522 0
    outer loop
      vertex 7.18976 5.47751 -6.70801e-16
      vertex 7.12044 5.37849 -1
      vertex 7.12044 5.37849 -6.58676e-16
    endloop
  endfacet
  facet normal -0.884021 0.467447 0
    outer loop
      vertex 7.18976 5.47751 -1
      vertex 7.24696 5.58569 -6.8405e-16
      vertex 7.24696 5.58569 -1
    endloop
  endfacet
  facet normal -0.884021 0.467447 0
    outer loop
      vertex 7.24696 5.58569 -6.8405e-16
      vertex 7.18976 5.47751 -1
      vertex 7.18976 5.47751 -6.70801e-16
    endloop
  endfacet
  facet normal -0.934724 0.355375 0
    outer loop
      vertex 7.24696 5.58569 -1
      vertex 7.28984 5.69847 -6.97861e-16
      vertex 7.28984 5.69847 -1
    endloop
  endfacet
  facet normal -0.934724 0.355375 0
    outer loop
      vertex 7.28984 5.69847 -6.97861e-16
      vertex 7.24696 5.58569 -1
      vertex 7.24696 5.58569 -6.8405e-16
    endloop
  endfacet
  facet normal -0.970495 0.241121 0
    outer loop
      vertex 7.28984 5.69847 -1
      vertex 7.32045 5.82167 -7.12949e-16
      vertex 7.32045 5.82167 -1
    endloop
  endfacet
  facet normal -0.970495 0.241121 0
    outer loop
      vertex 7.32045 5.82167 -7.12949e-16
      vertex 7.28984 5.69847 -1
      vertex 7.28984 5.69847 -6.97861e-16
    endloop
  endfacet
  facet normal -0.992521 0.122073 0
    outer loop
      vertex 7.32045 5.82167 -1
      vertex 7.33588 5.9471 -7.28309e-16
      vertex 7.33588 5.9471 -1
    endloop
  endfacet
  facet normal -0.992521 0.122073 0
    outer loop
      vertex 7.33588 5.9471 -7.28309e-16
      vertex 7.32045 5.82167 -1
      vertex 7.32045 5.82167 -7.12949e-16
    endloop
  endfacet
  facet normal -0.999999 0.00101206 0
    outer loop
      vertex 7.33588 5.9471 -1
      vertex 7.33846 8.4951 -1.04035e-15
      vertex 7.33846 8.4951 -1
    endloop
  endfacet
  facet normal -0.999999 0.00101206 0
    outer loop
      vertex 7.33846 8.4951 -1.04035e-15
      vertex 7.33588 5.9471 -1
      vertex 7.33588 5.9471 -7.28309e-16
    endloop
  endfacet
  facet normal -0.997331 -0.0730172 0
    outer loop
      vertex 7.33846 8.4951 -1
      vertex 7.33 8.61057 -1.05449e-15
      vertex 7.33 8.61057 -1
    endloop
  endfacet
  facet normal -0.997331 -0.0730172 0
    outer loop
      vertex 7.33 8.61057 -1.05449e-15
      vertex 7.33846 8.4951 -1
      vertex 7.33846 8.4951 -1.04035e-15
    endloop
  endfacet
  facet normal -0.983471 -0.181065 0
    outer loop
      vertex 7.33 8.61057 -1
      vertex 7.30692 8.73596 -1.06985e-15
      vertex 7.30692 8.73596 -1
    endloop
  endfacet
  facet normal -0.983471 -0.181065 0
    outer loop
      vertex 7.30692 8.73596 -1.06985e-15
      vertex 7.33 8.61057 -1
      vertex 7.33 8.61057 -1.05449e-15
    endloop
  endfacet
  facet normal -0.954276 -0.298928 0
    outer loop
      vertex 7.30692 8.73596 -1
      vertex 7.27074 8.85146 -1.08399e-15
      vertex 7.27074 8.85146 -1
    endloop
  endfacet
  facet normal -0.954276 -0.298928 0
    outer loop
      vertex 7.27074 8.85146 -1.08399e-15
      vertex 7.30692 8.73596 -1
      vertex 7.30692 8.73596 -1.06985e-15
    endloop
  endfacet
  facet normal -0.911717 -0.41082 0
    outer loop
      vertex 7.27074 8.85146 -1
      vertex 7.22035 8.96327 -1.09768e-15
      vertex 7.22035 8.96327 -1
    endloop
  endfacet
  facet normal -0.911717 -0.41082 0
    outer loop
      vertex 7.22035 8.96327 -1.09768e-15
      vertex 7.27074 8.85146 -1
      vertex 7.27074 8.85146 -1.08399e-15
    endloop
  endfacet
  facet normal -0.853867 -0.520491 0
    outer loop
      vertex 7.22035 8.96327 -1
      vertex 7.15736 9.0666 -1.11034e-15
      vertex 7.15736 9.0666 -1
    endloop
  endfacet
  facet normal -0.853867 -0.520491 0
    outer loop
      vertex 7.15736 9.0666 -1.11034e-15
      vertex 7.22035 8.96327 -1
      vertex 7.22035 8.96327 -1.09768e-15
    endloop
  endfacet
  facet normal -0.782505 -0.622644 0
    outer loop
      vertex 7.15736 9.0666 -1
      vertex 7.08272 9.16042 -1.12183e-15
      vertex 7.08272 9.16042 -1
    endloop
  endfacet
  facet normal -0.782505 -0.622644 0
    outer loop
      vertex 7.08272 9.16042 -1.12183e-15
      vertex 7.15736 9.0666 -1
      vertex 7.15736 9.0666 -1.11034e-15
    endloop
  endfacet
  facet normal -0.698474 -0.715635 0
    outer loop
      vertex 6.99745 9.24364 -1
      vertex 7.08272 9.16042 -1.12183e-15
      vertex 6.99745 9.24364 -1.13202e-15
    endloop
  endfacet
  facet normal -0.698474 -0.715635 -0
    outer loop
      vertex 7.08272 9.16042 -1.12183e-15
      vertex 6.99745 9.24364 -1
      vertex 7.08272 9.16042 -1
    endloop
  endfacet
  facet normal -0.602975 -0.79776 0
    outer loop
      vertex 6.90265 9.31529 -1
      vertex 6.99745 9.24364 -1.13202e-15
      vertex 6.90265 9.31529 -1.14079e-15
    endloop
  endfacet
  facet normal -0.602975 -0.79776 -0
    outer loop
      vertex 6.99745 9.24364 -1.13202e-15
      vertex 6.90265 9.31529 -1
      vertex 6.99745 9.24364 -1
    endloop
  endfacet
  facet normal -0.497216 -0.867627 0
    outer loop
      vertex 6.79939 9.37447 -1
      vertex 6.90265 9.31529 -1.14079e-15
      vertex 6.79939 9.37447 -1.14804e-15
    endloop
  endfacet
  facet normal -0.497216 -0.867627 -0
    outer loop
      vertex 6.90265 9.31529 -1.14079e-15
      vertex 6.79939 9.37447 -1
      vertex 6.90265 9.31529 -1
    endloop
  endfacet
  facet normal -0.383148 -0.923687 0
    outer loop
      vertex 6.68889 9.4203 -1
      vertex 6.79939 9.37447 -1.14804e-15
      vertex 6.68889 9.4203 -1.15365e-15
    endloop
  endfacet
  facet normal -0.383148 -0.923687 -0
    outer loop
      vertex 6.79939 9.37447 -1.14804e-15
      vertex 6.68889 9.4203 -1
      vertex 6.79939 9.37447 -1
    endloop
  endfacet
  facet normal -0.261511 -0.965201 0
    outer loop
      vertex 6.56865 9.45288 -1
      vertex 6.68889 9.4203 -1.15365e-15
      vertex 6.56865 9.45288 -1.15764e-15
    endloop
  endfacet
  facet normal -0.261511 -0.965201 -0
    outer loop
      vertex 6.68889 9.4203 -1.15365e-15
      vertex 6.56865 9.45288 -1
      vertex 6.68889 9.4203 -1
    endloop
  endfacet
  facet normal -0.133069 -0.991107 0
    outer loop
      vertex 6.44716 9.46919 -1
      vertex 6.56865 9.45288 -1.15764e-15
      vertex 6.44716 9.46919 -1.15964e-15
    endloop
  endfacet
  facet normal -0.133069 -0.991107 -0
    outer loop
      vertex 6.56865 9.45288 -1.15764e-15
      vertex 6.44716 9.46919 -1
      vertex 6.56865 9.45288 -1
    endloop
  endfacet
  facet normal -0.00306084 -0.999995 0
    outer loop
      vertex 5.61464 9.47174 -1
      vertex 6.44716 9.46919 -1.15964e-15
      vertex 5.61464 9.47174 -1.15995e-15
    endloop
  endfacet
  facet normal -0.00306084 -0.999995 -0
    outer loop
      vertex 6.44716 9.46919 -1.15964e-15
      vertex 5.61464 9.47174 -1
      vertex 6.44716 9.46919 -1
    endloop
  endfacet
  facet normal -1 -7.75755e-05 0
    outer loop
      vertex 5.61464 9.47174 -1
      vertex 5.61446 11.8321 -1.44901e-15
      vertex 5.61446 11.8321 -1
    endloop
  endfacet
  facet normal -1 -7.75755e-05 0
    outer loop
      vertex 5.61446 11.8321 -1.44901e-15
      vertex 5.61464 9.47174 -1
      vertex 5.61464 9.47174 -1.15995e-15
    endloop
  endfacet
  facet normal -0.997351 -0.0727454 0
    outer loop
      vertex 5.61446 11.8321 -1
      vertex 5.60603 11.9476 -1.46316e-15
      vertex 5.60603 11.9476 -1
    endloop
  endfacet
  facet normal -0.997351 -0.0727454 0
    outer loop
      vertex 5.60603 11.9476 -1.46316e-15
      vertex 5.61446 11.8321 -1
      vertex 5.61446 11.8321 -1.44901e-15
    endloop
  endfacet
  facet normal -0.983531 -0.180739 0
    outer loop
      vertex 5.60603 11.9476 -1
      vertex 5.58299 12.073 -1.47851e-15
      vertex 5.58299 12.073 -1
    endloop
  endfacet
  facet normal -0.983531 -0.180739 0
    outer loop
      vertex 5.58299 12.073 -1.47851e-15
      vertex 5.60603 11.9476 -1
      vertex 5.60603 11.9476 -1.46316e-15
    endloop
  endfacet
  facet normal -0.954467 -0.298318 0
    outer loop
      vertex 5.58299 12.073 -1
      vertex 5.54689 12.1885 -1.49266e-15
      vertex 5.54689 12.1885 -1
    endloop
  endfacet
  facet normal -0.954467 -0.298318 0
    outer loop
      vertex 5.54689 12.1885 -1.49266e-15
      vertex 5.58299 12.073 -1
      vertex 5.58299 12.073 -1.47851e-15
    endloop
  endfacet
  facet normal -0.911903 -0.410406 0
    outer loop
      vertex 5.54689 12.1885 -1
      vertex 5.49657 12.3003 -1.50635e-15
      vertex 5.49657 12.3003 -1
    endloop
  endfacet
  facet normal -0.911903 -0.410406 0
    outer loop
      vertex 5.49657 12.3003 -1.50635e-15
      vertex 5.54689 12.1885 -1
      vertex 5.54689 12.1885 -1.49266e-15
    endloop
  endfacet
  facet normal -0.854147 -0.520031 0
    outer loop
      vertex 5.49657 12.3003 -1
      vertex 5.43365 12.4036 -1.519e-15
      vertex 5.43365 12.4036 -1
    endloop
  endfacet
  facet normal -0.854147 -0.520031 0
    outer loop
      vertex 5.43365 12.4036 -1.519e-15
      vertex 5.49657 12.3003 -1
      vertex 5.49657 12.3003 -1.50635e-15
    endloop
  endfacet
  facet normal -0.782815 -0.622254 0
    outer loop
      vertex 5.43365 12.4036 -1
      vertex 5.35909 12.4974 -1.53049e-15
      vertex 5.35909 12.4974 -1
    endloop
  endfacet
  facet normal -0.782815 -0.622254 0
    outer loop
      vertex 5.35909 12.4974 -1.53049e-15
      vertex 5.43365 12.4036 -1
      vertex 5.43365 12.4036 -1.519e-15
    endloop
  endfacet
  facet normal -0.69873 -0.715385 0
    outer loop
      vertex 5.27388 12.5806 -1
      vertex 5.35909 12.4974 -1.53049e-15
      vertex 5.27388 12.5806 -1.54068e-15
    endloop
  endfacet
  facet normal -0.69873 -0.715385 -0
    outer loop
      vertex 5.35909 12.4974 -1.53049e-15
      vertex 5.27388 12.5806 -1
      vertex 5.35909 12.4974 -1
    endloop
  endfacet
  facet normal -0.602955 -0.797775 0
    outer loop
      vertex 5.17909 12.6523 -1
      vertex 5.27388 12.5806 -1.54068e-15
      vertex 5.17909 12.6523 -1.54946e-15
    endloop
  endfacet
  facet normal -0.602955 -0.797775 -0
    outer loop
      vertex 5.27388 12.5806 -1.54068e-15
      vertex 5.17909 12.6523 -1
      vertex 5.27388 12.5806 -1
    endloop
  endfacet
  facet normal -0.49716 -0.867659 0
    outer loop
      vertex 5.07582 12.7115 -1
      vertex 5.17909 12.6523 -1.54946e-15
      vertex 5.07582 12.7115 -1.5567e-15
    endloop
  endfacet
  facet normal -0.49716 -0.867659 -0
    outer loop
      vertex 5.17909 12.6523 -1.54946e-15
      vertex 5.07582 12.7115 -1
      vertex 5.17909 12.6523 -1
    endloop
  endfacet
  facet normal -0.382967 -0.923762 0
    outer loop
      vertex 4.96526 12.7573 -1
      vertex 5.07582 12.7115 -1.5567e-15
      vertex 4.96526 12.7573 -1.56232e-15
    endloop
  endfacet
  facet normal -0.382967 -0.923762 -0
    outer loop
      vertex 5.07582 12.7115 -1.5567e-15
      vertex 4.96526 12.7573 -1
      vertex 5.07582 12.7115 -1
    endloop
  endfacet
  facet normal -0.261408 -0.965228 0
    outer loop
      vertex 4.84491 12.7899 -1
      vertex 4.96526 12.7573 -1.56232e-15
      vertex 4.84491 12.7899 -1.56631e-15
    endloop
  endfacet
  facet normal -0.261408 -0.965228 -0
    outer loop
      vertex 4.96526 12.7573 -1.56232e-15
      vertex 4.84491 12.7899 -1
      vertex 4.96526 12.7573 -1
    endloop
  endfacet
  facet normal -0.132888 -0.991131 0
    outer loop
      vertex 4.72325 12.8062 -1
      vertex 4.84491 12.7899 -1.56631e-15
      vertex 4.72325 12.8062 -1.56831e-15
    endloop
  endfacet
  facet normal -0.132888 -0.991131 -0
    outer loop
      vertex 4.84491 12.7899 -1.56631e-15
      vertex 4.72325 12.8062 -1
      vertex 4.84491 12.7899 -1
    endloop
  endfacet
  facet normal -0.000734611 -1 0
    outer loop
      vertex 2.12685 12.8081 -1
      vertex 4.72325 12.8062 -1.56831e-15
      vertex 2.12685 12.8081 -1.56854e-15
    endloop
  endfacet
  facet normal -0.000734611 -1 -0
    outer loop
      vertex 4.72325 12.8062 -1.56831e-15
      vertex 2.12685 12.8081 -1
      vertex 4.72325 12.8062 -1
    endloop
  endfacet
  facet normal 0.0851961 -0.996364 0
    outer loop
      vertex 2.02798 12.7997 -1
      vertex 2.12685 12.8081 -1.56854e-15
      vertex 2.02798 12.7997 -1.56751e-15
    endloop
  endfacet
  facet normal 0.0851961 -0.996364 0
    outer loop
      vertex 2.12685 12.8081 -1.56854e-15
      vertex 2.02798 12.7997 -1
      vertex 2.12685 12.8081 -1
    endloop
  endfacet
  facet normal -0.932334 -0.361598 0
    outer loop
      vertex 1.1647 -0.920898 -1
      vertex -1.1402 5.022 -6.15018e-16
      vertex -1.1402 5.022 -1
    endloop
  endfacet
  facet normal -0.932334 -0.361598 0
    outer loop
      vertex -1.1402 5.022 -6.15018e-16
      vertex 1.1647 -0.920898 -1
      vertex 1.1647 -0.920898 1.12778e-16
    endloop
  endfacet
  facet normal 0 1 -0
    outer loop
      vertex 1.1647 5.022 -1
      vertex -1.1402 5.022 -6.15018e-16
      vertex 1.1647 5.022 -6.15018e-16
    endloop
  endfacet
  facet normal 0 1 0
    outer loop
      vertex -1.1402 5.022 -6.15018e-16
      vertex 1.1647 5.022 -1
      vertex -1.1402 5.022 -1
    endloop
  endfacet
  facet normal 1 0 0
    outer loop
      vertex 1.1647 -0.920898 1.12778e-16
      vertex 1.1647 5.022 -1
      vertex 1.1647 5.022 -6.15018e-16
    endloop
  endfacet
  facet normal 1 0 0
    outer loop
      vertex 1.1647 5.022 -1
      vertex 1.1647 -0.920898 1.12778e-16
      vertex 1.1647 -0.920898 -1
    endloop
  endfacet
  facet normal -0 0 1
    outer loop
      vertex -16.5 7.15 13.3
      vertex -15.5 -7.15 13.3
      vertex -15.5 7.15 13.3
    endloop
  endfacet
  facet normal 0 0 1
    outer loop
      vertex -15.5 -7.15 13.3
      vertex -16.5 7.15 13.3
      vertex -16.5 -7.15 13.3
    endloop
  endfacet
  facet normal 0 1 -0
    outer loop
      vertex -15.5 -7.15 13.3
      vertex -16.5 -7.15 15
      vertex -15.5 -7.15 15
    endloop
  endfacet
  facet normal 0 1 0
    outer loop
      vertex -16.5 -7.15 15
      vertex -15.5 -7.15 13.3
      vertex -16.5 -7.15 13.3
    endloop
  endfacet
  facet normal 0 -1 0
    outer loop
      vertex -16.5 7.15 13.3
      vertex -15.5 7.15 15
      vertex -16.5 7.15 15
    endloop
  endfacet
  facet normal 0 -1 -0
    outer loop
      vertex -15.5 7.15 15
      vertex -16.5 7.15 13.3
      vertex -15.5 7.15 13.3
    endloop
  endfacet
  facet normal -0 0 1
    outer loop
      vertex 15.5 7.15 13.3
      vertex 16.5 -7.15 13.3
      vertex 16.5 7.15 13.3
    endloop
  endfacet
  facet normal 0 0 1
    outer loop
      vertex 16.5 -7.15 13.3
      vertex 15.5 7.15 13.3
      vertex 15.5 -7.15 13.3
    endloop
  endfacet
  facet normal 0 1 -0
    outer loop
      vertex 16.5 -7.15 13.3
      vertex 15.5 -7.15 15
      vertex 16.5 -7.15 15
    endloop
  endfacet
  facet normal 0 1 0
    outer loop
      vertex 15.5 -7.15 15
      vertex 16.5 -7.15 13.3
      vertex 15.5 -7.15 13.3
    endloop
  endfacet
  facet normal 0 -1 0
    outer loop
      vertex 15.5 7.15 13.3
      vertex 16.5 7.15 15
      vertex 15.5 7.15 15
    endloop
  endfacet
  facet normal 0 -1 -0
    outer loop
      vertex 16.5 7.15 15
      vertex 15.5 7.15 13.3
      vertex 16.5 7.15 13.3
    endloop
  endfacet
  facet normal 1 -0 0
    outer loop
      vertex -7.15 -16.5 15
      vertex -7.15 -15.5 13.3
      vertex -7.15 -15.5 15
    endloop
  endfacet
  facet normal 1 0 0
    outer loop
      vertex -7.15 -15.5 13.3
      vertex -7.15 -16.5 15
      vertex -7.15 -16.5 13.3
    endloop
  endfacet
  facet normal -0 0 1
    outer loop
      vertex -7.15 -15.5 13.3
      vertex 7.15 -16.5 13.3
      vertex 7.15 -15.5 13.3
    endloop
  endfacet
  facet normal 0 0 1
    outer loop
      vertex 7.15 -16.5 13.3
      vertex -7.15 -15.5 13.3
      vertex -7.15 -16.5 13.3
    endloop
  endfacet
  facet normal -1 0 0
    outer loop
      vertex 7.15 -16.5 13.3
      vertex 7.15 -15.5 15
      vertex 7.15 -15.5 13.3
    endloop
  endfacet
  facet normal -1 -0 0
    outer loop
      vertex 7.15 -15.5 15
      vertex 7.15 -16.5 13.3
      vertex 7.15 -16.5 15
    endloop
  endfacet
  facet normal 1 -0 0
    outer loop
      vertex -7.15 15.5 15
      vertex -7.15 16.5 13.3
      vertex -7.15 16.5 15
    endloop
  endfacet
  facet normal 1 0 0
    outer loop
      vertex -7.15 16.5 13.3
      vertex -7.15 15.5 15
      vertex -7.15 15.5 13.3
    endloop
  endfacet
  facet normal -0 0 1
    outer loop
      vertex -7.15 16.5 13.3
      vertex 7.15 15.5 13.3
      vertex 7.15 16.5 13.3
    endloop
  endfacet
  facet normal 0 0 1
    outer loop
      vertex 7.15 15.5 13.3
      vertex -7.15 16.5 13.3
      vertex -7.15 15.5 13.3
    endloop
  endfacet
  facet normal -1 0 0
    outer loop
      vertex 7.15 15.5 13.3
      vertex 7.15 16.5 15
      vertex 7.15 16.5 13.3
    endloop
  endfacet
  facet normal -1 -0 0
    outer loop
      vertex 7.15 16.5 15
      vertex 7.15 15.5 13.3
      vertex 7.15 15.5 15
    endloop
  endfacet
endsolid OpenSCAD_Model
