solid OpenSCAD_Model
  facet normal -1 0 0
    outer loop
      vertex -16.5 16.5 -1
      vertex -16.5 7.15 13.3
      vertex -16.5 16.5 15
    endloop
  endfacet
  facet normal -1 0 0
    outer loop
      vertex -16.5 16.5 -1
      vertex -16.5 -7.15 13.3
      vertex -16.5 7.15 13.3
    endloop
  endfacet
  facet normal -1 0 0
    outer loop
      vertex -16.5 -16.5 -1
      vertex -16.5 -7.15 13.3
      vertex -16.5 16.5 -1
    endloop
  endfacet
  facet normal -1 0 0
    outer loop
      vertex -16.5 -16.5 15
      vertex -16.5 -7.15 13.3
      vertex -16.5 -16.5 -1
    endloop
  endfacet
  facet normal -1 0 0
    outer loop
      vertex -16.5 -7.15 13.3
      vertex -16.5 -16.5 15
      vertex -16.5 -7.15 15
    endloop
  endfacet
  facet normal -1 -0 0
    outer loop
      vertex -16.5 16.5 15
      vertex -16.5 7.15 13.3
      vertex -16.5 7.15 15
    endloop
  endfacet
  facet normal 2.71864e-24 1.22465e-16 1
    outer loop
      vertex 7.45116 -12.3999 1.51856e-15
      vertex 15.5 -15.5 1.8982e-15
      vertex 15.5 15.5 -1.8982e-15
    endloop
  endfacet
  facet normal 2.1688e-24 1.22465e-16 1
    outer loop
      vertex 15.5 -15.5 1.8982e-15
      vertex 7.45116 -12.3999 1.51856e-15
      vertex 7.45323 -12.5276 1.53419e-15
    endloop
  endfacet
  facet normal -4.7798e-24 1.22465e-16 1
    outer loop
      vertex 15.5 15.5 -1.8982e-15
      vertex 3.59355 11.9344 -1.46154e-15
      vertex 7.45116 -12.3999 1.51856e-15
    endloop
  endfacet
  facet normal 1.77287e-22 1.22464e-16 1
    outer loop
      vertex 15.5 15.5 -1.8982e-15
      vertex 3.56389 12.0531 -1.47608e-15
      vertex 3.59355 11.9344 -1.46154e-15
    endloop
  endfacet
  facet normal -1.14587e-22 1.22465e-16 1
    outer loop
      vertex 15.5 15.5 -1.8982e-15
      vertex 3.51131 12.194 -1.49333e-15
      vertex 3.56389 12.0531 -1.47608e-15
    endloop
  endfacet
  facet normal 4.44075e-24 1.22465e-16 1
    outer loop
      vertex 15.5 15.5 -1.8982e-15
      vertex 3.44409 12.3219 -1.509e-15
      vertex 3.51131 12.194 -1.49333e-15
    endloop
  endfacet
  facet normal -2.66115e-23 1.22465e-16 1
    outer loop
      vertex 15.5 15.5 -1.8982e-15
      vertex 3.35805 12.4454 -1.52412e-15
      vertex 3.44409 12.3219 -1.509e-15
    endloop
  endfacet
  facet normal 1.16405e-22 1.22464e-16 1
    outer loop
      vertex 15.5 15.5 -1.8982e-15
      vertex 3.25984 12.553 -1.53729e-15
      vertex 3.35805 12.4454 -1.52412e-15
    endloop
  endfacet
  facet normal -1.46621e-22 1.22465e-16 1
    outer loop
      vertex 15.5 15.5 -1.8982e-15
      vertex 3.14607 12.649 -1.54905e-15
      vertex 3.25984 12.553 -1.53729e-15
    endloop
  endfacet
  facet normal 1.90026e-22 1.22464e-16 1
    outer loop
      vertex 15.5 15.5 -1.8982e-15
      vertex 3.04269 12.7164 -1.55731e-15
      vertex 3.14607 12.649 -1.54905e-15
    endloop
  endfacet
  facet normal -6.24095e-23 1.22465e-16 1
    outer loop
      vertex 15.5 15.5 -1.8982e-15
      vertex 2.9321 12.7719 -1.56411e-15
      vertex 3.04269 12.7164 -1.55731e-15
    endloop
  endfacet
  facet normal -6.76111e-23 1.22465e-16 1
    outer loop
      vertex 15.5 15.5 -1.8982e-15
      vertex 2.81517 12.8147 -1.56935e-15
      vertex 2.9321 12.7719 -1.56411e-15
    endloop
  endfacet
  facet normal 2.36266e-22 1.22464e-16 1
    outer loop
      vertex 15.5 15.5 -1.8982e-15
      vertex 2.68924 12.8451 -1.57307e-15
      vertex 2.81517 12.8147 -1.56935e-15
    endloop
  endfacet
  facet normal -3.78861e-22 1.22467e-16 1
    outer loop
      vertex 15.5 15.5 -1.8982e-15
      vertex 2.56252 12.8601 -1.57491e-15
      vertex 2.68924 12.8451 -1.57307e-15
    endloop
  endfacet
  facet normal 5.6583e-24 1.22465e-16 1
    outer loop
      vertex 15.5 15.5 -1.8982e-15
      vertex -2.16066 12.8616 -1.57509e-15
      vertex 2.56252 12.8601 -1.57491e-15
    endloop
  endfacet
  facet normal -0 1.22465e-16 1
    outer loop
      vertex -15.5 15.5 -1.8982e-15
      vertex -2.16066 12.8616 -1.57509e-15
      vertex 15.5 15.5 -1.8982e-15
    endloop
  endfacet
  facet normal -6.39335e-24 1.22465e-16 1
    outer loop
      vertex -15.5 -15.5 1.8982e-15
      vertex -7.07874 -12.3587 1.5135e-15
      vertex -15.5 15.5 -1.8982e-15
    endloop
  endfacet
  facet normal 2.55928e-24 1.22465e-16 1
    outer loop
      vertex -3.2186 11.9639 -1.46515e-15
      vertex -15.5 15.5 -1.8982e-15
      vertex -7.07874 -12.3587 1.5135e-15
    endloop
  endfacet
  facet normal -8.17456e-23 1.22464e-16 1
    outer loop
      vertex -3.18282 12.0889 -1.48046e-15
      vertex -15.5 15.5 -1.8982e-15
      vertex -3.2186 11.9639 -1.46515e-15
    endloop
  endfacet
  facet normal -4.97263e-23 1.22465e-16 1
    outer loop
      vertex -3.13348 12.2078 -1.49502e-15
      vertex -15.5 15.5 -1.8982e-15
      vertex -3.18282 12.0889 -1.48046e-15
    endloop
  endfacet
  facet normal 8.96384e-23 1.22465e-16 1
    outer loop
      vertex -3.08928 12.2905 -1.50515e-15
      vertex -15.5 15.5 -1.8982e-15
      vertex -3.13348 12.2078 -1.49502e-15
    endloop
  endfacet
  facet normal 8.22133e-25 1.22465e-16 1
    outer loop
      vertex -2.98203 12.4432 -1.52386e-15
      vertex -15.5 15.5 -1.8982e-15
      vertex -3.08928 12.2905 -1.50515e-15
    endloop
  endfacet
  facet normal 2.56015e-23 1.22465e-16 1
    outer loop
      vertex -2.88354 12.5488 -1.53679e-15
      vertex -15.5 15.5 -1.8982e-15
      vertex -2.98203 12.4432 -1.52386e-15
    endloop
  endfacet
  facet normal -2.77495e-23 1.22465e-16 1
    outer loop
      vertex -2.77057 12.6433 -1.54835e-15
      vertex -15.5 15.5 -1.8982e-15
      vertex -2.88354 12.5488 -1.53679e-15
    endloop
  endfacet
  facet normal 9.48291e-23 1.22465e-16 1
    outer loop
      vertex -2.64426 12.7241 -1.55825e-15
      vertex -15.5 15.5 -1.8982e-15
      vertex -2.77057 12.6433 -1.54835e-15
    endloop
  endfacet
  facet normal -1.14096e-22 1.22464e-16 1
    outer loop
      vertex -2.51317 12.7862 -1.56586e-15
      vertex -15.5 15.5 -1.8982e-15
      vertex -2.64426 12.7241 -1.55825e-15
    endloop
  endfacet
  facet normal 1.05881e-22 1.22465e-16 1
    outer loop
      vertex -2.37622 12.8306 -1.5713e-15
      vertex -15.5 15.5 -1.8982e-15
      vertex -2.51317 12.7862 -1.56586e-15
    endloop
  endfacet
  facet normal -2.80698e-22 1.22463e-16 1
    outer loop
      vertex -2.26041 12.8531 -1.57406e-15
      vertex -15.5 15.5 -1.8982e-15
      vertex -2.37622 12.8306 -1.5713e-15
    endloop
  endfacet
  facet normal 3.29242e-22 1.22466e-16 1
    outer loop
      vertex -2.16066 12.8616 -1.57509e-15
      vertex -15.5 15.5 -1.8982e-15
      vertex -2.26041 12.8531 -1.57406e-15
    endloop
  endfacet
  facet normal -1.59529e-22 1.22464e-16 1
    outer loop
      vertex 7.44101 -12.6503 1.54921e-15
      vertex 15.5 -15.5 1.8982e-15
      vertex 7.45323 -12.5276 1.53419e-15
    endloop
  endfacet
  facet normal 1.32357e-24 1.22465e-16 1
    outer loop
      vertex 7.41388 -12.7705 1.56393e-15
      vertex 15.5 -15.5 1.8982e-15
      vertex 7.44101 -12.6503 1.54921e-15
    endloop
  endfacet
  facet normal 1.09309e-22 1.22465e-16 1
    outer loop
      vertex 7.3712 -12.8867 1.57816e-15
      vertex 15.5 -15.5 1.8982e-15
      vertex 7.41388 -12.7705 1.56393e-15
    endloop
  endfacet
  facet normal 5.47322e-23 1.22465e-16 1
    outer loop
      vertex 7.31667 -12.9909 1.59093e-15
      vertex 15.5 -15.5 1.8982e-15
      vertex 7.3712 -12.8867 1.57816e-15
    endloop
  endfacet
  facet normal 4.35787e-25 1.22465e-16 1
    outer loop
      vertex 7.24484 -13.0912 1.60321e-15
      vertex 15.5 -15.5 1.8982e-15
      vertex 7.31667 -12.9909 1.59093e-15
    endloop
  endfacet
  facet normal -7.55713e-24 1.22465e-16 1
    outer loop
      vertex 7.16315 -13.1771 1.61372e-15
      vertex 15.5 -15.5 1.8982e-15
      vertex 7.24484 -13.0912 1.60321e-15
    endloop
  endfacet
  facet normal -7.34035e-24 1.22465e-16 1
    outer loop
      vertex 7.07057 -13.2505 1.62272e-15
      vertex 15.5 -15.5 1.8982e-15
      vertex 7.16315 -13.1771 1.61372e-15
    endloop
  endfacet
  facet normal 3.59214e-23 1.22465e-16 1
    outer loop
      vertex 6.96829 -13.3106 1.63008e-15
      vertex 15.5 -15.5 1.8982e-15
      vertex 7.07057 -13.2505 1.62272e-15
    endloop
  endfacet
  facet normal 7.00281e-23 1.22465e-16 1
    outer loop
      vertex 6.85756 -13.3563 1.63567e-15
      vertex 15.5 -15.5 1.8982e-15
      vertex 6.96829 -13.3106 1.63008e-15
    endloop
  endfacet
  facet normal -1.4555e-22 1.22464e-16 1
    outer loop
      vertex 6.73967 -13.3868 1.63941e-15
      vertex 15.5 -15.5 1.8982e-15
      vertex 6.85756 -13.3563 1.63567e-15
    endloop
  endfacet
  facet normal -1.65851e-22 1.22464e-16 1
    outer loop
      vertex 6.62723 -13.4013 1.64118e-15
      vertex 15.5 -15.5 1.8982e-15
      vertex 6.73967 -13.3868 1.63941e-15
    endloop
  endfacet
  facet normal 2.78629e-22 1.22466e-16 1
    outer loop
      vertex 6.56425 -13.4035 1.64145e-15
      vertex 15.5 -15.5 1.8982e-15
      vertex 6.62723 -13.4013 1.64118e-15
    endloop
  endfacet
  facet normal 5.048e-24 1.22465e-16 1
    outer loop
      vertex 4.00247 -13.4007 1.64111e-15
      vertex 15.5 -15.5 1.8982e-15
      vertex 6.56425 -13.4035 1.64145e-15
    endloop
  endfacet
  facet normal -5.9476e-24 1.22466e-16 1
    outer loop
      vertex -3.57176 -13.3945 1.64035e-15
      vertex 4.00247 -13.4007 1.64111e-15
      vertex 3.87845 -13.3844 1.63911e-15
    endloop
  endfacet
  facet normal -2.72115e-24 1.22465e-16 1
    outer loop
      vertex -2.6098 -12.5049 1.5314e-15
      vertex 3.00395 -12.4479 1.52443e-15
      vertex 0.219467 5.22083 -6.39367e-16
    endloop
  endfacet
  facet normal -5.13197e-24 1.22465e-16 1
    outer loop
      vertex 3.00395 -12.4479 1.52443e-15
      vertex -2.6098 -12.5049 1.5314e-15
      vertex 3.0076 -12.4794 1.52828e-15
    endloop
  endfacet
  facet normal -3.12086e-24 1.22464e-16 1
    outer loop
      vertex -2.6098 -12.5049 1.5314e-15
      vertex 3.03191 -12.6011 1.54319e-15
      vertex 3.0076 -12.4794 1.52828e-15
    endloop
  endfacet
  facet normal -4.94941e-24 1.22464e-16 1
    outer loop
      vertex -2.6454 -12.6299 1.54672e-15
      vertex 3.03191 -12.6011 1.54319e-15
      vertex -2.6098 -12.5049 1.5314e-15
    endloop
  endfacet
  facet normal -4.62979e-24 1.22464e-16 1
    outer loop
      vertex 3.03191 -12.6011 1.54319e-15
      vertex -2.6454 -12.6299 1.54672e-15
      vertex 3.07269 -12.7244 1.55829e-15
    endloop
  endfacet
  facet normal -1.6457e-24 1.22464e-16 1
    outer loop
      vertex -2.69461 -12.7488 1.56127e-15
      vertex 3.07269 -12.7244 1.55829e-15
      vertex -2.6454 -12.6299 1.54672e-15
    endloop
  endfacet
  facet normal -4.04822e-24 1.22465e-16 1
    outer loop
      vertex 3.07269 -12.7244 1.55829e-15
      vertex -2.69461 -12.7488 1.56127e-15
      vertex 3.12807 -12.8406 1.57252e-15
    endloop
  endfacet
  facet normal 5.05703e-25 1.22465e-16 1
    outer loop
      vertex -2.75853 -12.8635 1.57533e-15
      vertex 3.12807 -12.8406 1.57252e-15
      vertex -2.69461 -12.7488 1.56127e-15
    endloop
  endfacet
  facet normal 2.92688e-24 1.22465e-16 1
    outer loop
      vertex 3.12807 -12.8406 1.57252e-15
      vertex -2.75853 -12.8635 1.57533e-15
      vertex 3.19472 -12.9456 1.58537e-15
    endloop
  endfacet
  facet normal -2.43739e-24 1.22464e-16 1
    outer loop
      vertex -2.84598 -12.9842 1.59011e-15
      vertex 3.19472 -12.9456 1.58537e-15
      vertex -2.75853 -12.8635 1.57533e-15
    endloop
  endfacet
  facet normal -4.7624e-24 1.22465e-16 1
    outer loop
      vertex 3.19472 -12.9456 1.58537e-15
      vertex -2.84598 -12.9842 1.59011e-15
      vertex 3.27515 -13.0447 1.59752e-15
    endloop
  endfacet
  facet normal -3.57844e-24 1.22465e-16 1
    outer loop
      vertex -2.94449 -13.0898 1.60304e-15
      vertex 3.27515 -13.0447 1.59752e-15
      vertex -2.84598 -12.9842 1.59011e-15
    endloop
  endfacet
  facet normal -1.69586e-24 1.22465e-16 1
    outer loop
      vertex 3.27515 -13.0447 1.59752e-15
      vertex -2.94449 -13.0898 1.60304e-15
      vertex 3.37737 -13.1426 1.60951e-15
    endloop
  endfacet
  facet normal -1.91871e-24 1.22465e-16 1
    outer loop
      vertex -3.05754 -13.1843 1.61461e-15
      vertex 3.37737 -13.1426 1.60951e-15
      vertex -2.94449 -13.0898 1.60304e-15
    endloop
  endfacet
  facet normal -3.7966e-24 1.22465e-16 1
    outer loop
      vertex 3.37737 -13.1426 1.60951e-15
      vertex -3.05754 -13.1843 1.61461e-15
      vertex 3.49687 -13.2309 1.62032e-15
    endloop
  endfacet
  facet normal -6.90933e-25 1.22465e-16 1
    outer loop
      vertex -3.18394 -13.2651 1.6245e-15
      vertex 3.49687 -13.2309 1.62032e-15
      vertex -3.05754 -13.1843 1.61461e-15
    endloop
  endfacet
  facet normal 4.68822e-24 1.22464e-16 1
    outer loop
      vertex 3.49687 -13.2309 1.62032e-15
      vertex -3.18394 -13.2651 1.6245e-15
      vertex 3.6232 -13.3007 1.62886e-15
    endloop
  endfacet
  facet normal 3.05946e-24 1.22464e-16 1
    outer loop
      vertex -3.31512 -13.3272 1.63211e-15
      vertex 3.6232 -13.3007 1.62886e-15
      vertex -3.18394 -13.2651 1.6245e-15
    endloop
  endfacet
  facet normal -1.47482e-24 1.22465e-16 1
    outer loop
      vertex 3.6232 -13.3007 1.62886e-15
      vertex -3.31512 -13.3272 1.63211e-15
      vertex 3.76045 -13.3545 1.63545e-15
    endloop
  endfacet
  facet normal 2.18519e-25 1.22466e-16 1
    outer loop
      vertex -3.45215 -13.3716 1.63755e-15
      vertex 3.76045 -13.3545 1.63545e-15
      vertex -3.31512 -13.3272 1.63211e-15
    endloop
  endfacet
  facet normal 2.84932e-24 1.22464e-16 1
    outer loop
      vertex 3.76045 -13.3545 1.63545e-15
      vertex -3.45215 -13.3716 1.63755e-15
      vertex 3.87845 -13.3844 1.63911e-15
    endloop
  endfacet
  facet normal -9.44667e-25 1.22462e-16 1
    outer loop
      vertex -3.57176 -13.3945 1.64035e-15
      vertex 3.87845 -13.3844 1.63911e-15
      vertex -3.45215 -13.3716 1.63755e-15
    endloop
  endfacet
  facet normal -6.99822e-24 1.22465e-16 1
    outer loop
      vertex 4.00247 -13.4007 1.64111e-15
      vertex -3.57176 -13.3945 1.64035e-15
      vertex 15.5 -15.5 1.8982e-15
    endloop
  endfacet
  facet normal 2.53235e-22 1.22467e-16 1
    outer loop
      vertex -3.68524 -13.4033 1.64143e-15
      vertex 15.5 -15.5 1.8982e-15
      vertex -3.57176 -13.3945 1.64035e-15
    endloop
  endfacet
  facet normal 1.43683e-24 1.22465e-16 1
    outer loop
      vertex -15.5 -15.5 1.8982e-15
      vertex -3.68524 -13.4033 1.64143e-15
      vertex -6.26418 -13.4007 1.64111e-15
    endloop
  endfacet
  facet normal 1.00481e-22 1.22464e-16 1
    outer loop
      vertex -7.07874 -12.3587 1.5135e-15
      vertex -15.5 -15.5 1.8982e-15
      vertex -7.08519 -12.5157 1.53273e-15
    endloop
  endfacet
  facet normal -6.85449e-24 1.22465e-16 1
    outer loop
      vertex -7.08519 -12.5157 1.53273e-15
      vertex -15.5 -15.5 1.8982e-15
      vertex -7.07391 -12.6414 1.54813e-15
    endloop
  endfacet
  facet normal 0 1.22465e-16 1
    outer loop
      vertex -3.68524 -13.4033 1.64143e-15
      vertex -15.5 -15.5 1.8982e-15
      vertex 15.5 -15.5 1.8982e-15
    endloop
  endfacet
  facet normal -1.36558e-22 1.22465e-16 1
    outer loop
      vertex -6.38829 -13.3835 1.639e-15
      vertex -15.5 -15.5 1.8982e-15
      vertex -6.26418 -13.4007 1.64111e-15
    endloop
  endfacet
  facet normal -1.11607e-22 1.22465e-16 1
    outer loop
      vertex -6.50603 -13.3504 1.63495e-15
      vertex -15.5 -15.5 1.8982e-15
      vertex -6.38829 -13.3835 1.639e-15
    endloop
  endfacet
  facet normal 1.25184e-22 1.22464e-16 1
    outer loop
      vertex -6.61609 -13.3023 1.62906e-15
      vertex -15.5 -15.5 1.8982e-15
      vertex -6.50603 -13.3504 1.63495e-15
    endloop
  endfacet
  facet normal 8.98952e-23 1.22464e-16 1
    outer loop
      vertex -6.71724 -13.24 1.62143e-15
      vertex -15.5 -15.5 1.8982e-15
      vertex -6.61609 -13.3023 1.62906e-15
    endloop
  endfacet
  facet normal -2.1552e-23 1.22465e-16 1
    outer loop
      vertex -6.81085 -13.1618 1.61186e-15
      vertex -15.5 -15.5 1.8982e-15
      vertex -6.71724 -13.24 1.62143e-15
    endloop
  endfacet
  facet normal -1.43542e-23 1.22465e-16 1
    outer loop
      vertex -6.88802 -13.077 1.60147e-15
      vertex -15.5 -15.5 1.8982e-15
      vertex -6.81085 -13.1618 1.61186e-15
    endloop
  endfacet
  facet normal -1.34552e-22 1.22465e-16 1
    outer loop
      vertex -6.95549 -12.9786 1.58942e-15
      vertex -15.5 -15.5 1.8982e-15
      vertex -6.88802 -13.077 1.60147e-15
    endloop
  endfacet
  facet normal 6.75218e-23 1.22464e-16 1
    outer loop
      vertex -7.0097 -12.8704 1.57617e-15
      vertex -15.5 -15.5 1.8982e-15
      vertex -6.95549 -12.9786 1.58942e-15
    endloop
  endfacet
  facet normal 1.18966e-22 1.22464e-16 1
    outer loop
      vertex -7.04895 -12.7575 1.56235e-15
      vertex -15.5 -15.5 1.8982e-15
      vertex -7.0097 -12.8704 1.57617e-15
    endloop
  endfacet
  facet normal -8.96672e-23 1.22465e-16 1
    outer loop
      vertex -7.07391 -12.6414 1.54813e-15
      vertex -15.5 -15.5 1.8982e-15
      vertex -7.04895 -12.7575 1.56235e-15
    endloop
  endfacet
  facet normal 1 0 0
    outer loop
      vertex 16.5 -7.15 15
      vertex 16.5 -16.5 15
      vertex 16.5 -7.15 13.3
    endloop
  endfacet
  facet normal 1 0 0
    outer loop
      vertex 16.5 7.15 13.3
      vertex 16.5 16.5 15
      vertex 16.5 7.15 15
    endloop
  endfacet
  facet normal 1 0 0
    outer loop
      vertex 16.5 16.5 15
      vertex 16.5 7.15 13.3
      vertex 16.5 16.5 -1
    endloop
  endfacet
  facet normal 1 -0 0
    outer loop
      vertex 16.5 -7.15 13.3
      vertex 16.5 16.5 -1
      vertex 16.5 7.15 13.3
    endloop
  endfacet
  facet normal 1 0 0
    outer loop
      vertex 16.5 -16.5 -1
      vertex 16.5 -7.15 13.3
      vertex 16.5 -16.5 15
    endloop
  endfacet
  facet normal 1 0 0
    outer loop
      vertex 16.5 -7.15 13.3
      vertex 16.5 -16.5 -1
      vertex 16.5 16.5 -1
    endloop
  endfacet
  facet normal 0 -1 0
    outer loop
      vertex -16.5 -16.5 15
      vertex -7.15 -16.5 13.3
      vertex -7.15 -16.5 15
    endloop
  endfacet
  facet normal 0 -1 -0
    outer loop
      vertex -7.15 -16.5 13.3
      vertex -16.5 -16.5 -1
      vertex 7.15 -16.5 13.3
    endloop
  endfacet
  facet normal 0 -1 0
    outer loop
      vertex -16.5 -16.5 -1
      vertex -7.15 -16.5 13.3
      vertex -16.5 -16.5 15
    endloop
  endfacet
  facet normal 0 -1 0
    outer loop
      vertex 7.15 -16.5 13.3
      vertex 16.5 -16.5 15
      vertex 7.15 -16.5 15
    endloop
  endfacet
  facet normal 0 -1 0
    outer loop
      vertex 16.5 -16.5 -1
      vertex 7.15 -16.5 13.3
      vertex -16.5 -16.5 -1
    endloop
  endfacet
  facet normal 0 -1 0
    outer loop
      vertex 7.15 -16.5 13.3
      vertex 16.5 -16.5 -1
      vertex 16.5 -16.5 15
    endloop
  endfacet
  facet normal 0 0 1
    outer loop
      vertex -15.5 -7.15 15
      vertex -16.5 -7.15 15
      vertex -15.5 -15.5 15
    endloop
  endfacet
  facet normal -0 0 1
    outer loop
      vertex -15.5 -15.5 15
      vertex -7.15 -16.5 15
      vertex -7.15 -15.5 15
    endloop
  endfacet
  facet normal 0 0 1
    outer loop
      vertex -15.5 -15.5 15
      vertex -16.5 -16.5 15
      vertex -7.15 -16.5 15
    endloop
  endfacet
  facet normal 0 0 1
    outer loop
      vertex -16.5 -16.5 15
      vertex -15.5 -15.5 15
      vertex -16.5 -7.15 15
    endloop
  endfacet
  facet normal 0 0 1
    outer loop
      vertex -7.15 16.5 15
      vertex -15.5 15.5 15
      vertex -7.15 15.5 15
    endloop
  endfacet
  facet normal -0 0 1
    outer loop
      vertex -16.5 16.5 15
      vertex -15.5 15.5 15
      vertex -7.15 16.5 15
    endloop
  endfacet
  facet normal 0 0 1
    outer loop
      vertex -16.5 7.15 15
      vertex -15.5 15.5 15
      vertex -16.5 16.5 15
    endloop
  endfacet
  facet normal 0 0 1
    outer loop
      vertex -15.5 15.5 15
      vertex -16.5 7.15 15
      vertex -15.5 7.15 15
    endloop
  endfacet
  facet normal 0 0 1
    outer loop
      vertex 16.5 16.5 15
      vertex 15.5 15.5 15
      vertex 16.5 7.15 15
    endloop
  endfacet
  facet normal -0 0 1
    outer loop
      vertex 7.15 16.5 15
      vertex 15.5 15.5 15
      vertex 16.5 16.5 15
    endloop
  endfacet
  facet normal 0 0 1
    outer loop
      vertex 15.5 15.5 15
      vertex 7.15 16.5 15
      vertex 7.15 15.5 15
    endloop
  endfacet
  facet normal 0 0 1
    outer loop
      vertex 16.5 7.15 15
      vertex 15.5 15.5 15
      vertex 15.5 7.15 15
    endloop
  endfacet
  facet normal 0 0 1
    outer loop
      vertex 15.5 -15.5 15
      vertex 16.5 -7.15 15
      vertex 15.5 -7.15 15
    endloop
  endfacet
  facet normal 0 0 1
    outer loop
      vertex 16.5 -7.15 15
      vertex 15.5 -15.5 15
      vertex 16.5 -16.5 15
    endloop
  endfacet
  facet normal 0 0 1
    outer loop
      vertex 7.15 -16.5 15
      vertex 15.5 -15.5 15
      vertex 7.15 -15.5 15
    endloop
  endfacet
  facet normal 0 0 1
    outer loop
      vertex 15.5 -15.5 15
      vertex 7.15 -16.5 15
      vertex 16.5 -16.5 15
    endloop
  endfacet
  facet normal 0 1 0
    outer loop
      vertex 16.5 16.5 15
      vertex 7.15 16.5 13.3
      vertex 7.15 16.5 15
    endloop
  endfacet
  facet normal 0 1 0
    outer loop
      vertex 7.15 16.5 13.3
      vertex 16.5 16.5 -1
      vertex -7.15 16.5 13.3
    endloop
  endfacet
  facet normal 0 1 -0
    outer loop
      vertex 16.5 16.5 -1
      vertex 7.15 16.5 13.3
      vertex 16.5 16.5 15
    endloop
  endfacet
  facet normal 0 1 -0
    outer loop
      vertex -7.15 16.5 13.3
      vertex -16.5 16.5 15
      vertex -7.15 16.5 15
    endloop
  endfacet
  facet normal 0 1 0
    outer loop
      vertex -16.5 16.5 -1
      vertex -7.15 16.5 13.3
      vertex 16.5 16.5 -1
    endloop
  endfacet
  facet normal 0 1 0
    outer loop
      vertex -7.15 16.5 13.3
      vertex -16.5 16.5 -1
      vertex -16.5 16.5 15
    endloop
  endfacet
  facet normal 1 0 0
    outer loop
      vertex -15.5 -7.15 15
      vertex -15.5 -15.5 15
      vertex -15.5 -7.15 13.3
    endloop
  endfacet
  facet normal 1 0 0
    outer loop
      vertex -15.5 7.15 13.3
      vertex -15.5 15.5 15
      vertex -15.5 7.15 15
    endloop
  endfacet
  facet normal 1 0 0
    outer loop
      vertex -15.5 15.5 15
      vertex -15.5 7.15 13.3
      vertex -15.5 15.5 -1.8982e-15
    endloop
  endfacet
  facet normal 1 -0 0
    outer loop
      vertex -15.5 -7.15 13.3
      vertex -15.5 15.5 -1.8982e-15
      vertex -15.5 7.15 13.3
    endloop
  endfacet
  facet normal 1 0 0
    outer loop
      vertex -15.5 -15.5 1.8982e-15
      vertex -15.5 -7.15 13.3
      vertex -15.5 -15.5 15
    endloop
  endfacet
  facet normal 1 0 0
    outer loop
      vertex -15.5 -7.15 13.3
      vertex -15.5 -15.5 1.8982e-15
      vertex -15.5 15.5 -1.8982e-15
    endloop
  endfacet
  facet normal -1 0 0
    outer loop
      vertex 15.5 15.5 -1.8982e-15
      vertex 15.5 7.15 13.3
      vertex 15.5 15.5 15
    endloop
  endfacet
  facet normal -1 0 0
    outer loop
      vertex 15.5 15.5 -1.8982e-15
      vertex 15.5 -7.15 13.3
      vertex 15.5 7.15 13.3
    endloop
  endfacet
  facet normal -1 0 0
    outer loop
      vertex 15.5 -15.5 1.8982e-15
      vertex 15.5 -7.15 13.3
      vertex 15.5 15.5 -1.8982e-15
    endloop
  endfacet
  facet normal -1 0 0
    outer loop
      vertex 15.5 -15.5 15
      vertex 15.5 -7.15 13.3
      vertex 15.5 -15.5 1.8982e-15
    endloop
  endfacet
  facet normal -1 0 0
    outer loop
      vertex 15.5 -7.15 13.3
      vertex 15.5 -15.5 15
      vertex 15.5 -7.15 15
    endloop
  endfacet
  facet normal -1 -0 0
    outer loop
      vertex 15.5 15.5 15
      vertex 15.5 7.15 13.3
      vertex 15.5 7.15 15
    endloop
  endfacet
  facet normal 0 1 0
    outer loop
      vertex 15.5 -15.5 15
      vertex 7.15 -15.5 13.3
      vertex 7.15 -15.5 15
    endloop
  endfacet
  facet normal 0 1 0
    outer loop
      vertex 7.15 -15.5 13.3
      vertex 15.5 -15.5 1.8982e-15
      vertex -7.15 -15.5 13.3
    endloop
  endfacet
  facet normal 0 1 -0
    outer loop
      vertex 15.5 -15.5 1.8982e-15
      vertex 7.15 -15.5 13.3
      vertex 15.5 -15.5 15
    endloop
  endfacet
  facet normal 0 1 -0
    outer loop
      vertex -7.15 -15.5 13.3
      vertex -15.5 -15.5 15
      vertex -7.15 -15.5 15
    endloop
  endfacet
  facet normal 0 1 0
    outer loop
      vertex -15.5 -15.5 1.8982e-15
      vertex -7.15 -15.5 13.3
      vertex 15.5 -15.5 1.8982e-15
    endloop
  endfacet
  facet normal 0 1 0
    outer loop
      vertex -7.15 -15.5 13.3
      vertex -15.5 -15.5 1.8982e-15
      vertex -15.5 -15.5 15
    endloop
  endfacet
  facet normal 0 -1 0
    outer loop
      vertex -15.5 15.5 15
      vertex -7.15 15.5 13.3
      vertex -7.15 15.5 15
    endloop
  endfacet
  facet normal 0 -1 -0
    outer loop
      vertex -7.15 15.5 13.3
      vertex -15.5 15.5 -1.8982e-15
      vertex 7.15 15.5 13.3
    endloop
  endfacet
  facet normal 0 -1 0
    outer loop
      vertex -15.5 15.5 -1.8982e-15
      vertex -7.15 15.5 13.3
      vertex -15.5 15.5 15
    endloop
  endfacet
  facet normal 0 -1 0
    outer loop
      vertex 7.15 15.5 13.3
      vertex 15.5 15.5 15
      vertex 7.15 15.5 15
    endloop
  endfacet
  facet normal 0 -1 0
    outer loop
      vertex 15.5 15.5 -1.8982e-15
      vertex 7.15 15.5 13.3
      vertex -15.5 15.5 -1.8982e-15
    endloop
  endfacet
  facet normal 0 -1 0
    outer loop
      vertex 7.15 15.5 13.3
      vertex 15.5 15.5 -1.8982e-15
      vertex 15.5 15.5 15
    endloop
  endfacet
  facet normal 0 0 -1
    outer loop
      vertex 7.45116 -12.3999 -1
      vertex 16.5 -16.5 -1
      vertex 7.45323 -12.5276 -1
    endloop
  endfacet
  facet normal 0 0 -1
    outer loop
      vertex 16.5 -16.5 -1
      vertex 7.44101 -12.6503 -1
      vertex 7.45323 -12.5276 -1
    endloop
  endfacet
  facet normal 0 0 -1
    outer loop
      vertex 16.5 -16.5 -1
      vertex 7.41388 -12.7705 -1
      vertex 7.44101 -12.6503 -1
    endloop
  endfacet
  facet normal 0 0 -1
    outer loop
      vertex 16.5 -16.5 -1
      vertex 7.3712 -12.8867 -1
      vertex 7.41388 -12.7705 -1
    endloop
  endfacet
  facet normal 0 0 -1
    outer loop
      vertex 16.5 -16.5 -1
      vertex 7.31667 -12.9909 -1
      vertex 7.3712 -12.8867 -1
    endloop
  endfacet
  facet normal 0 0 -1
    outer loop
      vertex 16.5 -16.5 -1
      vertex 7.24484 -13.0912 -1
      vertex 7.31667 -12.9909 -1
    endloop
  endfacet
  facet normal 0 0 -1
    outer loop
      vertex 16.5 -16.5 -1
      vertex 7.16315 -13.1771 -1
      vertex 7.24484 -13.0912 -1
    endloop
  endfacet
  facet normal 0 0 -1
    outer loop
      vertex 16.5 -16.5 -1
      vertex 7.07057 -13.2505 -1
      vertex 7.16315 -13.1771 -1
    endloop
  endfacet
  facet normal 0 0 -1
    outer loop
      vertex 16.5 -16.5 -1
      vertex 6.96829 -13.3106 -1
      vertex 7.07057 -13.2505 -1
    endloop
  endfacet
  facet normal 0 0 -1
    outer loop
      vertex 16.5 -16.5 -1
      vertex 6.85756 -13.3563 -1
      vertex 6.96829 -13.3106 -1
    endloop
  endfacet
  facet normal 0 0 -1
    outer loop
      vertex 16.5 -16.5 -1
      vertex 6.73967 -13.3868 -1
      vertex 6.85756 -13.3563 -1
    endloop
  endfacet
  facet normal 0 0 -1
    outer loop
      vertex 16.5 -16.5 -1
      vertex 6.62723 -13.4013 -1
      vertex 6.73967 -13.3868 -1
    endloop
  endfacet
  facet normal 0 0 -1
    outer loop
      vertex 16.5 -16.5 -1
      vertex 6.56425 -13.4035 -1
      vertex 6.62723 -13.4013 -1
    endloop
  endfacet
  facet normal 0 0 -1
    outer loop
      vertex 16.5 -16.5 -1
      vertex 4.00247 -13.4007 -1
      vertex 6.56425 -13.4035 -1
    endloop
  endfacet
  facet normal 0 0 -1
    outer loop
      vertex -3.57176 -13.3945 -1
      vertex 4.00247 -13.4007 -1
      vertex 16.5 -16.5 -1
    endloop
  endfacet
  facet normal 0 0 -1
    outer loop
      vertex -2.6098 -12.5049 -1
      vertex 3.00395 -12.4479 -1
      vertex 3.0076 -12.4794 -1
    endloop
  endfacet
  facet normal -0 0 -1
    outer loop
      vertex 3.00395 -12.4479 -1
      vertex -2.6098 -12.5049 -1
      vertex 0.219467 5.22083 -1
    endloop
  endfacet
  facet normal 0 0 -1
    outer loop
      vertex 3.03191 -12.6011 -1
      vertex -2.6098 -12.5049 -1
      vertex 3.0076 -12.4794 -1
    endloop
  endfacet
  facet normal 0 0 -1
    outer loop
      vertex -2.6454 -12.6299 -1
      vertex 3.03191 -12.6011 -1
      vertex 3.07269 -12.7244 -1
    endloop
  endfacet
  facet normal 0 0 -1
    outer loop
      vertex -2.69461 -12.7488 -1
      vertex 3.07269 -12.7244 -1
      vertex 3.12807 -12.8406 -1
    endloop
  endfacet
  facet normal 0 0 -1
    outer loop
      vertex -2.75853 -12.8635 -1
      vertex 3.12807 -12.8406 -1
      vertex 3.19472 -12.9456 -1
    endloop
  endfacet
  facet normal 0 0 -1
    outer loop
      vertex -2.84598 -12.9842 -1
      vertex 3.19472 -12.9456 -1
      vertex 3.27515 -13.0447 -1
    endloop
  endfacet
  facet normal 0 0 -1
    outer loop
      vertex -2.94449 -13.0898 -1
      vertex 3.27515 -13.0447 -1
      vertex 3.37737 -13.1426 -1
    endloop
  endfacet
  facet normal 0 0 -1
    outer loop
      vertex -3.05754 -13.1843 -1
      vertex 3.37737 -13.1426 -1
      vertex 3.49687 -13.2309 -1
    endloop
  endfacet
  facet normal 0 0 -1
    outer loop
      vertex -3.18394 -13.2651 -1
      vertex 3.49687 -13.2309 -1
      vertex 3.6232 -13.3007 -1
    endloop
  endfacet
  facet normal 0 0 -1
    outer loop
      vertex -3.31512 -13.3272 -1
      vertex 3.6232 -13.3007 -1
      vertex 3.76045 -13.3545 -1
    endloop
  endfacet
  facet normal 0 0 -1
    outer loop
      vertex -3.45215 -13.3716 -1
      vertex 3.76045 -13.3545 -1
      vertex 3.87845 -13.3844 -1
    endloop
  endfacet
  facet normal 0 0 -1
    outer loop
      vertex 4.00247 -13.4007 -1
      vertex -3.57176 -13.3945 -1
      vertex 3.87845 -13.3844 -1
    endloop
  endfacet
  facet normal -0 0 -1
    outer loop
      vertex 3.03191 -12.6011 -1
      vertex -2.6454 -12.6299 -1
      vertex -2.6098 -12.5049 -1
    endloop
  endfacet
  facet normal -0 0 -1
    outer loop
      vertex 3.07269 -12.7244 -1
      vertex -2.69461 -12.7488 -1
      vertex -2.6454 -12.6299 -1
    endloop
  endfacet
  facet normal -0 0 -1
    outer loop
      vertex 3.12807 -12.8406 -1
      vertex -2.75853 -12.8635 -1
      vertex -2.69461 -12.7488 -1
    endloop
  endfacet
  facet normal -0 0 -1
    outer loop
      vertex 3.19472 -12.9456 -1
      vertex -2.84598 -12.9842 -1
      vertex -2.75853 -12.8635 -1
    endloop
  endfacet
  facet normal -0 0 -1
    outer loop
      vertex 3.27515 -13.0447 -1
      vertex -2.94449 -13.0898 -1
      vertex -2.84598 -12.9842 -1
    endloop
  endfacet
  facet normal -0 0 -1
    outer loop
      vertex 3.37737 -13.1426 -1
      vertex -3.05754 -13.1843 -1
      vertex -2.94449 -13.0898 -1
    endloop
  endfacet
  facet normal -0 0 -1
    outer loop
      vertex 3.49687 -13.2309 -1
      vertex -3.18394 -13.2651 -1
      vertex -3.05754 -13.1843 -1
    endloop
  endfacet
  facet normal -0 0 -1
    outer loop
      vertex 3.6232 -13.3007 -1
      vertex -3.31512 -13.3272 -1
      vertex -3.18394 -13.2651 -1
    endloop
  endfacet
  facet normal -0 0 -1
    outer loop
      vertex 3.76045 -13.3545 -1
      vertex -3.45215 -13.3716 -1
      vertex -3.31512 -13.3272 -1
    endloop
  endfacet
  facet normal -0 0 -1
    outer loop
      vertex 3.87845 -13.3844 -1
      vertex -3.57176 -13.3945 -1
      vertex -3.45215 -13.3716 -1
    endloop
  endfacet
  facet normal 0 0 -1
    outer loop
      vertex 16.5 -16.5 -1
      vertex -3.68524 -13.4033 -1
      vertex -3.57176 -13.3945 -1
    endloop
  endfacet
  facet normal 0 0 -1
    outer loop
      vertex -16.5 -16.5 -1
      vertex -3.68524 -13.4033 -1
      vertex 16.5 -16.5 -1
    endloop
  endfacet
  facet normal -0 0 -1
    outer loop
      vertex -7.07391 -12.6414 -1
      vertex -16.5 -16.5 -1
      vertex -7.08519 -12.5157 -1
    endloop
  endfacet
  facet normal -0 0 -1
    outer loop
      vertex -7.04895 -12.7575 -1
      vertex -16.5 -16.5 -1
      vertex -7.07391 -12.6414 -1
    endloop
  endfacet
  facet normal -0 0 -1
    outer loop
      vertex -7.0097 -12.8704 -1
      vertex -16.5 -16.5 -1
      vertex -7.04895 -12.7575 -1
    endloop
  endfacet
  facet normal -0 0 -1
    outer loop
      vertex -6.95549 -12.9786 -1
      vertex -16.5 -16.5 -1
      vertex -7.0097 -12.8704 -1
    endloop
  endfacet
  facet normal -0 0 -1
    outer loop
      vertex -6.88802 -13.077 -1
      vertex -16.5 -16.5 -1
      vertex -6.95549 -12.9786 -1
    endloop
  endfacet
  facet normal -0 0 -1
    outer loop
      vertex -6.81085 -13.1618 -1
      vertex -16.5 -16.5 -1
      vertex -6.88802 -13.077 -1
    endloop
  endfacet
  facet normal -0 0 -1
    outer loop
      vertex -6.71724 -13.24 -1
      vertex -16.5 -16.5 -1
      vertex -6.81085 -13.1618 -1
    endloop
  endfacet
  facet normal -0 0 -1
    outer loop
      vertex -6.61609 -13.3023 -1
      vertex -16.5 -16.5 -1
      vertex -6.71724 -13.24 -1
    endloop
  endfacet
  facet normal -0 0 -1
    outer loop
      vertex -6.50603 -13.3504 -1
      vertex -16.5 -16.5 -1
      vertex -6.61609 -13.3023 -1
    endloop
  endfacet
  facet normal -0 0 -1
    outer loop
      vertex -6.38829 -13.3835 -1
      vertex -16.5 -16.5 -1
      vertex -6.50603 -13.3504 -1
    endloop
  endfacet
  facet normal -0 0 -1
    outer loop
      vertex -6.26418 -13.4007 -1
      vertex -16.5 -16.5 -1
      vertex -6.38829 -13.3835 -1
    endloop
  endfacet
  facet normal -0 0 -1
    outer loop
      vertex -3.68524 -13.4033 -1
      vertex -16.5 -16.5 -1
      vertex -6.26418 -13.4007 -1
    endloop
  endfacet
  facet normal 0 0 -1
    outer loop
      vertex 16.5 -16.5 -1
      vertex 7.45116 -12.3999 -1
      vertex 16.5 16.5 -1
    endloop
  endfacet
  facet normal 0 0 -1
    outer loop
      vertex 3.59355 11.9344 -1
      vertex 16.5 16.5 -1
      vertex 7.45116 -12.3999 -1
    endloop
  endfacet
  facet normal 0 0 -1
    outer loop
      vertex 3.56389 12.0531 -1
      vertex 16.5 16.5 -1
      vertex 3.59355 11.9344 -1
    endloop
  endfacet
  facet normal 0 0 -1
    outer loop
      vertex 3.51131 12.194 -1
      vertex 16.5 16.5 -1
      vertex 3.56389 12.0531 -1
    endloop
  endfacet
  facet normal 0 0 -1
    outer loop
      vertex 3.44409 12.3219 -1
      vertex 16.5 16.5 -1
      vertex 3.51131 12.194 -1
    endloop
  endfacet
  facet normal 0 0 -1
    outer loop
      vertex 3.35805 12.4454 -1
      vertex 16.5 16.5 -1
      vertex 3.44409 12.3219 -1
    endloop
  endfacet
  facet normal 0 0 -1
    outer loop
      vertex 3.25984 12.553 -1
      vertex 16.5 16.5 -1
      vertex 3.35805 12.4454 -1
    endloop
  endfacet
  facet normal 0 0 -1
    outer loop
      vertex 3.14607 12.649 -1
      vertex 16.5 16.5 -1
      vertex 3.25984 12.553 -1
    endloop
  endfacet
  facet normal 0 0 -1
    outer loop
      vertex 3.04269 12.7164 -1
      vertex 16.5 16.5 -1
      vertex 3.14607 12.649 -1
    endloop
  endfacet
  facet normal 0 0 -1
    outer loop
      vertex 2.9321 12.7719 -1
      vertex 16.5 16.5 -1
      vertex 3.04269 12.7164 -1
    endloop
  endfacet
  facet normal 0 0 -1
    outer loop
      vertex 2.81517 12.8147 -1
      vertex 16.5 16.5 -1
      vertex 2.9321 12.7719 -1
    endloop
  endfacet
  facet normal 0 0 -1
    outer loop
      vertex 2.68924 12.8451 -1
      vertex 16.5 16.5 -1
      vertex 2.81517 12.8147 -1
    endloop
  endfacet
  facet normal 0 0 -1
    outer loop
      vertex 2.56252 12.8601 -1
      vertex 16.5 16.5 -1
      vertex 2.68924 12.8451 -1
    endloop
  endfacet
  facet normal 0 0 -1
    outer loop
      vertex -2.16066 12.8616 -1
      vertex 16.5 16.5 -1
      vertex 2.56252 12.8601 -1
    endloop
  endfacet
  facet normal 0 0 -1
    outer loop
      vertex -16.5 16.5 -1
      vertex -2.16066 12.8616 -1
      vertex -2.26041 12.8531 -1
    endloop
  endfacet
  facet normal 0 0 -1
    outer loop
      vertex -16.5 -16.5 -1
      vertex -7.07874 -12.3587 -1
      vertex -7.08519 -12.5157 -1
    endloop
  endfacet
  facet normal 0 0 -1
    outer loop
      vertex -16.5 16.5 -1
      vertex -7.07874 -12.3587 -1
      vertex -16.5 -16.5 -1
    endloop
  endfacet
  facet normal 0 0 -1
    outer loop
      vertex -7.07874 -12.3587 -1
      vertex -16.5 16.5 -1
      vertex -3.2186 11.9639 -1
    endloop
  endfacet
  facet normal 0 0 -1
    outer loop
      vertex -3.2186 11.9639 -1
      vertex -16.5 16.5 -1
      vertex -3.18282 12.0889 -1
    endloop
  endfacet
  facet normal 0 0 -1
    outer loop
      vertex -2.16066 12.8616 -1
      vertex -16.5 16.5 -1
      vertex 16.5 16.5 -1
    endloop
  endfacet
  facet normal 0 0 -1
    outer loop
      vertex -2.37622 12.8306 -1
      vertex -16.5 16.5 -1
      vertex -2.26041 12.8531 -1
    endloop
  endfacet
  facet normal 0 0 -1
    outer loop
      vertex -2.51317 12.7862 -1
      vertex -16.5 16.5 -1
      vertex -2.37622 12.8306 -1
    endloop
  endfacet
  facet normal 0 0 -1
    outer loop
      vertex -2.64426 12.7241 -1
      vertex -16.5 16.5 -1
      vertex -2.51317 12.7862 -1
    endloop
  endfacet
  facet normal 0 0 -1
    outer loop
      vertex -2.77057 12.6433 -1
      vertex -16.5 16.5 -1
      vertex -2.64426 12.7241 -1
    endloop
  endfacet
  facet normal 0 0 -1
    outer loop
      vertex -2.88354 12.5488 -1
      vertex -16.5 16.5 -1
      vertex -2.77057 12.6433 -1
    endloop
  endfacet
  facet normal 0 0 -1
    outer loop
      vertex -2.98203 12.4432 -1
      vertex -16.5 16.5 -1
      vertex -2.88354 12.5488 -1
    endloop
  endfacet
  facet normal 0 0 -1
    outer loop
      vertex -3.08928 12.2905 -1
      vertex -16.5 16.5 -1
      vertex -2.98203 12.4432 -1
    endloop
  endfacet
  facet normal 0 0 -1
    outer loop
      vertex -3.13348 12.2078 -1
      vertex -16.5 16.5 -1
      vertex -3.08928 12.2905 -1
    endloop
  endfacet
  facet normal 0 0 -1
    outer loop
      vertex -3.18282 12.0889 -1
      vertex -16.5 16.5 -1
      vertex -3.13348 12.2078 -1
    endloop
  endfacet
  facet normal 0.191015 -0.981587 0
    outer loop
      vertex -2.37622 12.8306 -1
      vertex -2.26041 12.8531 -1.57406e-15
      vertex -2.37622 12.8306 -1.5713e-15
    endloop
  endfacet
  facet normal 0.191015 -0.981587 0
    outer loop
      vertex -2.26041 12.8531 -1.57406e-15
      vertex -2.37622 12.8306 -1
      vertex -2.26041 12.8531 -1
    endloop
  endfacet
  facet normal 0.308427 -0.951248 0
    outer loop
      vertex -2.51317 12.7862 -1
      vertex -2.37622 12.8306 -1.5713e-15
      vertex -2.51317 12.7862 -1.56586e-15
    endloop
  endfacet
  facet normal 0.308427 -0.951248 0
    outer loop
      vertex -2.37622 12.8306 -1.5713e-15
      vertex -2.51317 12.7862 -1
      vertex -2.37622 12.8306 -1
    endloop
  endfacet
  facet normal 0.428394 -0.903592 0
    outer loop
      vertex -2.64426 12.7241 -1
      vertex -2.51317 12.7862 -1.56586e-15
      vertex -2.64426 12.7241 -1.55825e-15
    endloop
  endfacet
  facet normal 0.428394 -0.903592 0
    outer loop
      vertex -2.51317 12.7862 -1.56586e-15
      vertex -2.64426 12.7241 -1
      vertex -2.51317 12.7862 -1
    endloop
  endfacet
  facet normal 0.538843 -0.842406 0
    outer loop
      vertex -2.77057 12.6433 -1
      vertex -2.64426 12.7241 -1.55825e-15
      vertex -2.77057 12.6433 -1.54835e-15
    endloop
  endfacet
  facet normal 0.538843 -0.842406 0
    outer loop
      vertex -2.64426 12.7241 -1.55825e-15
      vertex -2.77057 12.6433 -1
      vertex -2.64426 12.7241 -1
    endloop
  endfacet
  facet normal 0.641285 -0.767303 0
    outer loop
      vertex -2.88354 12.5488 -1
      vertex -2.77057 12.6433 -1.54835e-15
      vertex -2.88354 12.5488 -1.53679e-15
    endloop
  endfacet
  facet normal 0.641285 -0.767303 0
    outer loop
      vertex -2.77057 12.6433 -1.54835e-15
      vertex -2.88354 12.5488 -1
      vertex -2.77057 12.6433 -1
    endloop
  endfacet
  facet normal 0.73135 -0.682002 0
    outer loop
      vertex -2.98203 12.4432 -1.52386e-15
      vertex -2.88354 12.5488 -1
      vertex -2.88354 12.5488 -1.53679e-15
    endloop
  endfacet
  facet normal 0.73135 -0.682002 0
    outer loop
      vertex -2.88354 12.5488 -1
      vertex -2.98203 12.4432 -1.52386e-15
      vertex -2.98203 12.4432 -1
    endloop
  endfacet
  facet normal 0.81844 -0.574592 0
    outer loop
      vertex -3.08928 12.2905 -1.50515e-15
      vertex -2.98203 12.4432 -1
      vertex -2.98203 12.4432 -1.52386e-15
    endloop
  endfacet
  facet normal 0.81844 -0.574592 0
    outer loop
      vertex -2.98203 12.4432 -1
      vertex -3.08928 12.2905 -1.50515e-15
      vertex -3.08928 12.2905 -1
    endloop
  endfacet
  facet normal 0.881925 -0.47139 0
    outer loop
      vertex -3.13348 12.2078 -1.49502e-15
      vertex -3.08928 12.2905 -1
      vertex -3.08928 12.2905 -1.50515e-15
    endloop
  endfacet
  facet normal 0.881925 -0.47139 0
    outer loop
      vertex -3.08928 12.2905 -1
      vertex -3.13348 12.2078 -1.49502e-15
      vertex -3.13348 12.2078 -1
    endloop
  endfacet
  facet normal 0.923599 -0.38336 0
    outer loop
      vertex -3.18282 12.0889 -1.48046e-15
      vertex -3.13348 12.2078 -1
      vertex -3.13348 12.2078 -1.49502e-15
    endloop
  endfacet
  facet normal 0.923599 -0.38336 0
    outer loop
      vertex -3.13348 12.2078 -1
      vertex -3.18282 12.0889 -1.48046e-15
      vertex -3.18282 12.0889 -1
    endloop
  endfacet
  facet normal 0.961422 -0.275077 0
    outer loop
      vertex -3.2186 11.9639 -1.46515e-15
      vertex -3.18282 12.0889 -1
      vertex -3.18282 12.0889 -1.48046e-15
    endloop
  endfacet
  facet normal 0.961422 -0.275077 0
    outer loop
      vertex -3.18282 12.0889 -1
      vertex -3.2186 11.9639 -1.46515e-15
      vertex -3.2186 11.9639 -1
    endloop
  endfacet
  facet normal 0.987639 -0.156744 0
    outer loop
      vertex -7.07874 -12.3587 1.5135e-15
      vertex -3.2186 11.9639 -1
      vertex -3.2186 11.9639 -1.46515e-15
    endloop
  endfacet
  facet normal 0.987639 -0.156744 0
    outer loop
      vertex -3.2186 11.9639 -1
      vertex -7.07874 -12.3587 1.5135e-15
      vertex -7.07874 -12.3587 -1
    endloop
  endfacet
  facet normal 0.999156 -0.0410732 0
    outer loop
      vertex -7.08519 -12.5157 1.53273e-15
      vertex -7.07874 -12.3587 -1
      vertex -7.07874 -12.3587 1.5135e-15
    endloop
  endfacet
  facet normal 0.999156 -0.0410732 0
    outer loop
      vertex -7.07874 -12.3587 -1
      vertex -7.08519 -12.5157 1.53273e-15
      vertex -7.08519 -12.5157 -1
    endloop
  endfacet
  facet normal 0.996 0.0893582 0
    outer loop
      vertex -7.07391 -12.6414 1.54813e-15
      vertex -7.08519 -12.5157 -1
      vertex -7.08519 -12.5157 1.53273e-15
    endloop
  endfacet
  facet normal 0.996 0.0893582 0
    outer loop
      vertex -7.08519 -12.5157 -1
      vertex -7.07391 -12.6414 1.54813e-15
      vertex -7.07391 -12.6414 -1
    endloop
  endfacet
  facet normal 0.977669 0.210152 0
    outer loop
      vertex -7.04895 -12.7575 1.56235e-15
      vertex -7.07391 -12.6414 -1
      vertex -7.07391 -12.6414 1.54813e-15
    endloop
  endfacet
  facet normal 0.977669 0.210152 0
    outer loop
      vertex -7.07391 -12.6414 -1
      vertex -7.04895 -12.7575 1.56235e-15
      vertex -7.04895 -12.7575 -1
    endloop
  endfacet
  facet normal 0.944545 0.328382 0
    outer loop
      vertex -7.0097 -12.8704 1.57617e-15
      vertex -7.04895 -12.7575 -1
      vertex -7.04895 -12.7575 1.56235e-15
    endloop
  endfacet
  facet normal 0.944545 0.328382 0
    outer loop
      vertex -7.04895 -12.7575 -1
      vertex -7.0097 -12.8704 1.57617e-15
      vertex -7.0097 -12.8704 -1
    endloop
  endfacet
  facet normal 0.893973 0.448121 0
    outer loop
      vertex -6.95549 -12.9786 1.58942e-15
      vertex -7.0097 -12.8704 -1
      vertex -7.0097 -12.8704 1.57617e-15
    endloop
  endfacet
  facet normal 0.893973 0.448121 0
    outer loop
      vertex -7.0097 -12.8704 -1
      vertex -6.95549 -12.9786 1.58942e-15
      vertex -6.95549 -12.9786 -1
    endloop
  endfacet
  facet normal 0.824862 0.565335 0
    outer loop
      vertex -6.88802 -13.077 1.60147e-15
      vertex -6.95549 -12.9786 -1
      vertex -6.95549 -12.9786 1.58942e-15
    endloop
  endfacet
  facet normal 0.824862 0.565335 0
    outer loop
      vertex -6.95549 -12.9786 -1
      vertex -6.88802 -13.077 1.60147e-15
      vertex -6.88802 -13.077 -1
    endloop
  endfacet
  facet normal 0.739536 0.673117 0
    outer loop
      vertex -6.81085 -13.1618 1.61186e-15
      vertex -6.88802 -13.077 -1
      vertex -6.88802 -13.077 1.60147e-15
    endloop
  endfacet
  facet normal 0.739536 0.673117 0
    outer loop
      vertex -6.88802 -13.077 -1
      vertex -6.81085 -13.1618 1.61186e-15
      vertex -6.81085 -13.1618 -1
    endloop
  endfacet
  facet normal 0.640959 0.767575 -0
    outer loop
      vertex -6.71724 -13.24 -1
      vertex -6.81085 -13.1618 1.61186e-15
      vertex -6.71724 -13.24 1.62143e-15
    endloop
  endfacet
  facet normal 0.640959 0.767575 0
    outer loop
      vertex -6.81085 -13.1618 1.61186e-15
      vertex -6.71724 -13.24 -1
      vertex -6.81085 -13.1618 -1
    endloop
  endfacet
  facet normal 0.524341 0.851508 -0
    outer loop
      vertex -6.61609 -13.3023 -1
      vertex -6.71724 -13.24 1.62143e-15
      vertex -6.61609 -13.3023 1.62906e-15
    endloop
  endfacet
  facet normal 0.524341 0.851508 0
    outer loop
      vertex -6.71724 -13.24 1.62143e-15
      vertex -6.61609 -13.3023 -1
      vertex -6.71724 -13.24 -1
    endloop
  endfacet
  facet normal 0.400532 0.916283 -0
    outer loop
      vertex -6.50603 -13.3504 -1
      vertex -6.61609 -13.3023 1.62906e-15
      vertex -6.50603 -13.3504 1.63495e-15
    endloop
  endfacet
  facet normal 0.400532 0.916283 0
    outer loop
      vertex -6.61609 -13.3023 1.62906e-15
      vertex -6.50603 -13.3504 -1
      vertex -6.61609 -13.3023 -1
    endloop
  endfacet
  facet normal 0.270616 0.962688 -0
    outer loop
      vertex -6.38829 -13.3835 -1
      vertex -6.50603 -13.3504 1.63495e-15
      vertex -6.38829 -13.3835 1.639e-15
    endloop
  endfacet
  facet normal 0.270616 0.962688 0
    outer loop
      vertex -6.50603 -13.3504 1.63495e-15
      vertex -6.38829 -13.3835 -1
      vertex -6.50603 -13.3504 -1
    endloop
  endfacet
  facet normal 0.137482 0.990504 -0
    outer loop
      vertex -6.26418 -13.4007 -1
      vertex -6.38829 -13.3835 1.639e-15
      vertex -6.26418 -13.4007 1.64111e-15
    endloop
  endfacet
  facet normal 0.137482 0.990504 0
    outer loop
      vertex -6.38829 -13.3835 1.639e-15
      vertex -6.26418 -13.4007 -1
      vertex -6.38829 -13.3835 -1
    endloop
  endfacet
  facet normal 0.000994006 1 -0
    outer loop
      vertex -3.68524 -13.4033 -1
      vertex -6.26418 -13.4007 1.64111e-15
      vertex -3.68524 -13.4033 1.64143e-15
    endloop
  endfacet
  facet normal 0.000994006 1 0
    outer loop
      vertex -6.26418 -13.4007 1.64111e-15
      vertex -3.68524 -13.4033 -1
      vertex -6.26418 -13.4007 -1
    endloop
  endfacet
  facet normal -0.0769528 0.997035 0
    outer loop
      vertex -3.57176 -13.3945 -1
      vertex -3.68524 -13.4033 1.64143e-15
      vertex -3.57176 -13.3945 1.64035e-15
    endloop
  endfacet
  facet normal -0.0769528 0.997035 0
    outer loop
      vertex -3.68524 -13.4033 1.64143e-15
      vertex -3.57176 -13.3945 -1
      vertex -3.68524 -13.4033 -1
    endloop
  endfacet
  facet normal -0.187941 0.98218 0
    outer loop
      vertex -3.45215 -13.3716 -1
      vertex -3.57176 -13.3945 1.64035e-15
      vertex -3.45215 -13.3716 1.63755e-15
    endloop
  endfacet
  facet normal -0.187941 0.98218 0
    outer loop
      vertex -3.57176 -13.3945 1.64035e-15
      vertex -3.45215 -13.3716 -1
      vertex -3.57176 -13.3945 -1
    endloop
  endfacet
  facet normal -0.308272 0.951298 0
    outer loop
      vertex -3.31512 -13.3272 -1
      vertex -3.45215 -13.3716 1.63755e-15
      vertex -3.31512 -13.3272 1.63211e-15
    endloop
  endfacet
  facet normal -0.308272 0.951298 0
    outer loop
      vertex -3.45215 -13.3716 1.63755e-15
      vertex -3.31512 -13.3272 -1
      vertex -3.45215 -13.3716 -1
    endloop
  endfacet
  facet normal -0.42815 0.903708 0
    outer loop
      vertex -3.18394 -13.2651 -1
      vertex -3.31512 -13.3272 1.63211e-15
      vertex -3.18394 -13.2651 1.6245e-15
    endloop
  endfacet
  facet normal -0.42815 0.903708 0
    outer loop
      vertex -3.31512 -13.3272 1.63211e-15
      vertex -3.18394 -13.2651 -1
      vertex -3.31512 -13.3272 -1
    endloop
  endfacet
  facet normal -0.538566 0.842583 0
    outer loop
      vertex -3.05754 -13.1843 -1
      vertex -3.18394 -13.2651 1.6245e-15
      vertex -3.05754 -13.1843 1.61461e-15
    endloop
  endfacet
  facet normal -0.538566 0.842583 0
    outer loop
      vertex -3.18394 -13.2651 1.6245e-15
      vertex -3.05754 -13.1843 -1
      vertex -3.18394 -13.2651 -1
    endloop
  endfacet
  facet normal -0.64103 0.767516 0
    outer loop
      vertex -2.94449 -13.0898 -1
      vertex -3.05754 -13.1843 1.61461e-15
      vertex -2.94449 -13.0898 1.60304e-15
    endloop
  endfacet
  facet normal -0.64103 0.767516 0
    outer loop
      vertex -3.05754 -13.1843 1.61461e-15
      vertex -2.94449 -13.0898 -1
      vertex -3.05754 -13.1843 -1
    endloop
  endfacet
  facet normal -0.731245 0.682115 0
    outer loop
      vertex -2.94449 -13.0898 -1
      vertex -2.84598 -12.9842 1.59011e-15
      vertex -2.84598 -12.9842 -1
    endloop
  endfacet
  facet normal -0.731245 0.682115 0
    outer loop
      vertex -2.84598 -12.9842 1.59011e-15
      vertex -2.94449 -13.0898 -1
      vertex -2.94449 -13.0898 1.60304e-15
    endloop
  endfacet
  facet normal -0.809828 0.586667 0
    outer loop
      vertex -2.84598 -12.9842 -1
      vertex -2.75853 -12.8635 1.57533e-15
      vertex -2.75853 -12.8635 -1
    endloop
  endfacet
  facet normal -0.809828 0.586667 0
    outer loop
      vertex -2.75853 -12.8635 1.57533e-15
      vertex -2.84598 -12.9842 -1
      vertex -2.84598 -12.9842 1.59011e-15
    endloop
  endfacet
  facet normal -0.873631 0.486589 0
    outer loop
      vertex -2.75853 -12.8635 -1
      vertex -2.69461 -12.7488 1.56127e-15
      vertex -2.69461 -12.7488 -1
    endloop
  endfacet
  facet normal -0.873631 0.486589 0
    outer loop
      vertex -2.69461 -12.7488 1.56127e-15
      vertex -2.75853 -12.8635 -1
      vertex -2.75853 -12.8635 1.57533e-15
    endloop
  endfacet
  facet normal -0.923934 0.382551 0
    outer loop
      vertex -2.69461 -12.7488 -1
      vertex -2.6454 -12.6299 1.54672e-15
      vertex -2.6454 -12.6299 -1
    endloop
  endfacet
  facet normal -0.923934 0.382551 0
    outer loop
      vertex -2.6454 -12.6299 1.54672e-15
      vertex -2.69461 -12.7488 -1
      vertex -2.69461 -12.7488 1.56127e-15
    endloop
  endfacet
  facet normal -0.961794 0.273776 0
    outer loop
      vertex -2.6454 -12.6299 -1
      vertex -2.6098 -12.5049 1.5314e-15
      vertex -2.6098 -12.5049 -1
    endloop
  endfacet
  facet normal -0.961794 0.273776 0
    outer loop
      vertex -2.6098 -12.5049 1.5314e-15
      vertex -2.6454 -12.6299 -1
      vertex -2.6454 -12.6299 1.54672e-15
    endloop
  endfacet
  facet normal -0.9875 0.157619 0
    outer loop
      vertex -2.6098 -12.5049 -1
      vertex 0.219467 5.22083 -6.39367e-16
      vertex 0.219467 5.22083 -1
    endloop
  endfacet
  facet normal -0.9875 0.157619 0
    outer loop
      vertex 0.219467 5.22083 -6.39367e-16
      vertex -2.6098 -12.5049 -1
      vertex -2.6098 -12.5049 1.5314e-15
    endloop
  endfacet
  facet normal 0.987809 0.155673 0
    outer loop
      vertex 3.00395 -12.4479 1.52443e-15
      vertex 0.219467 5.22083 -1
      vertex 0.219467 5.22083 -6.39367e-16
    endloop
  endfacet
  facet normal 0.987809 0.155673 0
    outer loop
      vertex 0.219467 5.22083 -1
      vertex 3.00395 -12.4479 1.52443e-15
      vertex 3.00395 -12.4479 -1
    endloop
  endfacet
  facet normal 0.993356 0.115081 0
    outer loop
      vertex 3.0076 -12.4794 1.52828e-15
      vertex 3.00395 -12.4479 -1
      vertex 3.00395 -12.4479 1.52443e-15
    endloop
  endfacet
  facet normal 0.993356 0.115081 0
    outer loop
      vertex 3.00395 -12.4479 -1
      vertex 3.0076 -12.4794 1.52828e-15
      vertex 3.0076 -12.4794 -1
    endloop
  endfacet
  facet normal 0.980637 0.195832 0
    outer loop
      vertex 3.03191 -12.6011 1.54319e-15
      vertex 3.0076 -12.4794 -1
      vertex 3.0076 -12.4794 1.52828e-15
    endloop
  endfacet
  facet normal 0.980637 0.195832 0
    outer loop
      vertex 3.0076 -12.4794 -1
      vertex 3.03191 -12.6011 1.54319e-15
      vertex 3.03191 -12.6011 -1
    endloop
  endfacet
  facet normal 0.949386 0.314112 0
    outer loop
      vertex 3.07269 -12.7244 1.55829e-15
      vertex 3.03191 -12.6011 -1
      vertex 3.03191 -12.6011 1.54319e-15
    endloop
  endfacet
  facet normal 0.949386 0.314112 0
    outer loop
      vertex 3.03191 -12.6011 -1
      vertex 3.07269 -12.7244 1.55829e-15
      vertex 3.07269 -12.7244 -1
    endloop
  endfacet
  facet normal 0.902775 0.430113 0
    outer loop
      vertex 3.12807 -12.8406 1.57252e-15
      vertex 3.07269 -12.7244 -1
      vertex 3.07269 -12.7244 1.55829e-15
    endloop
  endfacet
  facet normal 0.902775 0.430113 0
    outer loop
      vertex 3.07269 -12.7244 -1
      vertex 3.12807 -12.8406 1.57252e-15
      vertex 3.12807 -12.8406 -1
    endloop
  endfacet
  facet normal 0.844156 0.536097 0
    outer loop
      vertex 3.19472 -12.9456 1.58537e-15
      vertex 3.12807 -12.8406 -1
      vertex 3.12807 -12.8406 1.57252e-15
    endloop
  endfacet
  facet normal 0.844156 0.536097 0
    outer loop
      vertex 3.12807 -12.8406 -1
      vertex 3.19472 -12.9456 1.58537e-15
      vertex 3.19472 -12.9456 -1
    endloop
  endfacet
  facet normal 0.776666 0.629913 0
    outer loop
      vertex 3.27515 -13.0447 1.59752e-15
      vertex 3.19472 -12.9456 -1
      vertex 3.19472 -12.9456 1.58537e-15
    endloop
  endfacet
  facet normal 0.776666 0.629913 0
    outer loop
      vertex 3.19472 -12.9456 -1
      vertex 3.27515 -13.0447 1.59752e-15
      vertex 3.27515 -13.0447 -1
    endloop
  endfacet
  facet normal 0.691688 0.722197 -0
    outer loop
      vertex 3.37737 -13.1426 -1
      vertex 3.27515 -13.0447 1.59752e-15
      vertex 3.37737 -13.1426 1.60951e-15
    endloop
  endfacet
  facet normal 0.691688 0.722197 0
    outer loop
      vertex 3.27515 -13.0447 1.59752e-15
      vertex 3.37737 -13.1426 -1
      vertex 3.27515 -13.0447 -1
    endloop
  endfacet
  facet normal 0.594267 0.804268 -0
    outer loop
      vertex 3.49687 -13.2309 -1
      vertex 3.37737 -13.1426 1.60951e-15
      vertex 3.49687 -13.2309 1.62032e-15
    endloop
  endfacet
  facet normal 0.594267 0.804268 0
    outer loop
      vertex 3.37737 -13.1426 1.60951e-15
      vertex 3.49687 -13.2309 -1
      vertex 3.37737 -13.1426 -1
    endloop
  endfacet
  facet normal 0.483424 0.875386 -0
    outer loop
      vertex 3.6232 -13.3007 -1
      vertex 3.49687 -13.2309 1.62032e-15
      vertex 3.6232 -13.3007 1.62886e-15
    endloop
  endfacet
  facet normal 0.483424 0.875386 0
    outer loop
      vertex 3.49687 -13.2309 1.62032e-15
      vertex 3.6232 -13.3007 -1
      vertex 3.49687 -13.2309 -1
    endloop
  endfacet
  facet normal 0.364868 0.931059 -0
    outer loop
      vertex 3.76045 -13.3545 -1
      vertex 3.6232 -13.3007 1.62886e-15
      vertex 3.76045 -13.3545 1.63545e-15
    endloop
  endfacet
  facet normal 0.364868 0.931059 0
    outer loop
      vertex 3.6232 -13.3007 1.62886e-15
      vertex 3.76045 -13.3545 -1
      vertex 3.6232 -13.3007 -1
    endloop
  endfacet
  facet normal 0.24569 0.969348 -0
    outer loop
      vertex 3.87845 -13.3844 -1
      vertex 3.76045 -13.3545 1.63545e-15
      vertex 3.87845 -13.3844 1.63911e-15
    endloop
  endfacet
  facet normal 0.24569 0.969348 0
    outer loop
      vertex 3.76045 -13.3545 1.63545e-15
      vertex 3.87845 -13.3844 -1
      vertex 3.76045 -13.3545 -1
    endloop
  endfacet
  facet normal 0.130398 0.991462 -0
    outer loop
      vertex 4.00247 -13.4007 -1
      vertex 3.87845 -13.3844 1.63911e-15
      vertex 4.00247 -13.4007 1.64111e-15
    endloop
  endfacet
  facet normal 0.130398 0.991462 0
    outer loop
      vertex 3.87845 -13.3844 1.63911e-15
      vertex 4.00247 -13.4007 -1
      vertex 3.87845 -13.3844 -1
    endloop
  endfacet
  facet normal 0.00108405 0.999999 -0
    outer loop
      vertex 6.56425 -13.4035 -1
      vertex 4.00247 -13.4007 1.64111e-15
      vertex 6.56425 -13.4035 1.64145e-15
    endloop
  endfacet
  facet normal 0.00108405 0.999999 0
    outer loop
      vertex 4.00247 -13.4007 1.64111e-15
      vertex 6.56425 -13.4035 -1
      vertex 4.00247 -13.4007 -1
    endloop
  endfacet
  facet normal -0.0346291 0.9994 0
    outer loop
      vertex 6.62723 -13.4013 -1
      vertex 6.56425 -13.4035 1.64145e-15
      vertex 6.62723 -13.4013 1.64118e-15
    endloop
  endfacet
  facet normal -0.0346291 0.9994 0
    outer loop
      vertex 6.56425 -13.4035 1.64145e-15
      vertex 6.62723 -13.4013 -1
      vertex 6.56425 -13.4035 -1
    endloop
  endfacet
  facet normal -0.127596 0.991826 0
    outer loop
      vertex 6.73967 -13.3868 -1
      vertex 6.62723 -13.4013 1.64118e-15
      vertex 6.73967 -13.3868 1.63941e-15
    endloop
  endfacet
  facet normal -0.127596 0.991826 0
    outer loop
      vertex 6.62723 -13.4013 1.64118e-15
      vertex 6.73967 -13.3868 -1
      vertex 6.62723 -13.4013 -1
    endloop
  endfacet
  facet normal -0.25084 0.968028 0
    outer loop
      vertex 6.85756 -13.3563 -1
      vertex 6.73967 -13.3868 1.63941e-15
      vertex 6.85756 -13.3563 1.63567e-15
    endloop
  endfacet
  facet normal -0.25084 0.968028 0
    outer loop
      vertex 6.73967 -13.3868 1.63941e-15
      vertex 6.85756 -13.3563 -1
      vertex 6.73967 -13.3868 -1
    endloop
  endfacet
  facet normal -0.381493 0.924372 0
    outer loop
      vertex 6.96829 -13.3106 -1
      vertex 6.85756 -13.3563 1.63567e-15
      vertex 6.96829 -13.3106 1.63008e-15
    endloop
  endfacet
  facet normal -0.381493 0.924372 0
    outer loop
      vertex 6.85756 -13.3563 1.63567e-15
      vertex 6.96829 -13.3106 -1
      vertex 6.85756 -13.3563 -1
    endloop
  endfacet
  facet normal -0.506261 0.86238 0
    outer loop
      vertex 7.07057 -13.2505 -1
      vertex 6.96829 -13.3106 1.63008e-15
      vertex 7.07057 -13.2505 1.62272e-15
    endloop
  endfacet
  facet normal -0.506261 0.86238 0
    outer loop
      vertex 6.96829 -13.3106 1.63008e-15
      vertex 7.07057 -13.2505 -1
      vertex 6.96829 -13.3106 -1
    endloop
  endfacet
  facet normal -0.621652 0.783294 0
    outer loop
      vertex 7.16315 -13.1771 -1
      vertex 7.07057 -13.2505 1.62272e-15
      vertex 7.16315 -13.1771 1.61372e-15
    endloop
  endfacet
  facet normal -0.621652 0.783294 0
    outer loop
      vertex 7.07057 -13.2505 1.62272e-15
      vertex 7.16315 -13.1771 -1
      vertex 7.07057 -13.2505 -1
    endloop
  endfacet
  facet normal -0.724462 0.689314 0
    outer loop
      vertex 7.16315 -13.1771 -1
      vertex 7.24484 -13.0912 1.60321e-15
      vertex 7.24484 -13.0912 -1
    endloop
  endfacet
  facet normal -0.724462 0.689314 0
    outer loop
      vertex 7.24484 -13.0912 1.60321e-15
      vertex 7.16315 -13.1771 -1
      vertex 7.16315 -13.1771 1.61372e-15
    endloop
  endfacet
  facet normal -0.813031 0.582221 0
    outer loop
      vertex 7.24484 -13.0912 -1
      vertex 7.31667 -12.9909 1.59093e-15
      vertex 7.31667 -12.9909 -1
    endloop
  endfacet
  facet normal -0.813031 0.582221 0
    outer loop
      vertex 7.31667 -12.9909 1.59093e-15
      vertex 7.24484 -13.0912 -1
      vertex 7.24484 -13.0912 1.60321e-15
    endloop
  endfacet
  facet normal -0.886024 0.463639 0
    outer loop
      vertex 7.31667 -12.9909 -1
      vertex 7.3712 -12.8867 1.57816e-15
      vertex 7.3712 -12.8867 -1
    endloop
  endfacet
  facet normal -0.886024 0.463639 0
    outer loop
      vertex 7.3712 -12.8867 1.57816e-15
      vertex 7.31667 -12.9909 -1
      vertex 7.31667 -12.9909 1.59093e-15
    endloop
  endfacet
  facet normal -0.938713 0.3447 0
    outer loop
      vertex 7.3712 -12.8867 -1
      vertex 7.41388 -12.7705 1.56393e-15
      vertex 7.41388 -12.7705 -1
    endloop
  endfacet
  facet normal -0.938713 0.3447 0
    outer loop
      vertex 7.41388 -12.7705 1.56393e-15
      vertex 7.3712 -12.8867 -1
      vertex 7.3712 -12.8867 1.57816e-15
    endloop
  endfacet
  facet normal -0.975465 0.220154 0
    outer loop
      vertex 7.41388 -12.7705 -1
      vertex 7.44101 -12.6503 1.54921e-15
      vertex 7.44101 -12.6503 -1
    endloop
  endfacet
  facet normal -0.975465 0.220154 0
    outer loop
      vertex 7.44101 -12.6503 1.54921e-15
      vertex 7.41388 -12.7705 -1
      vertex 7.41388 -12.7705 1.56393e-15
    endloop
  endfacet
  facet normal -0.995069 0.099185 0
    outer loop
      vertex 7.44101 -12.6503 -1
      vertex 7.45323 -12.5276 1.53419e-15
      vertex 7.45323 -12.5276 -1
    endloop
  endfacet
  facet normal -0.995069 0.099185 0
    outer loop
      vertex 7.45323 -12.5276 1.53419e-15
      vertex 7.44101 -12.6503 -1
      vertex 7.44101 -12.6503 1.54921e-15
    endloop
  endfacet
  facet normal -0.999868 -0.0162502 0
    outer loop
      vertex 7.45323 -12.5276 -1
      vertex 7.45116 -12.3999 1.51856e-15
      vertex 7.45116 -12.3999 -1
    endloop
  endfacet
  facet normal -0.999868 -0.0162502 0
    outer loop
      vertex 7.45116 -12.3999 1.51856e-15
      vertex 7.45323 -12.5276 -1
      vertex 7.45323 -12.5276 1.53419e-15
    endloop
  endfacet
  facet normal -0.987667 -0.15657 0
    outer loop
      vertex 7.45116 -12.3999 -1
      vertex 3.59355 11.9344 -1.46154e-15
      vertex 3.59355 11.9344 -1
    endloop
  endfacet
  facet normal -0.987667 -0.15657 0
    outer loop
      vertex 3.59355 11.9344 -1.46154e-15
      vertex 7.45116 -12.3999 -1
      vertex 7.45116 -12.3999 1.51856e-15
    endloop
  endfacet
  facet normal -0.970165 -0.242448 0
    outer loop
      vertex 3.59355 11.9344 -1
      vertex 3.56389 12.0531 -1.47608e-15
      vertex 3.56389 12.0531 -1
    endloop
  endfacet
  facet normal -0.970165 -0.242448 0
    outer loop
      vertex 3.56389 12.0531 -1.47608e-15
      vertex 3.59355 11.9344 -1
      vertex 3.59355 11.9344 -1.46154e-15
    endloop
  endfacet
  facet normal -0.936874 -0.349666 0
    outer loop
      vertex 3.56389 12.0531 -1
      vertex 3.51131 12.194 -1.49333e-15
      vertex 3.51131 12.194 -1
    endloop
  endfacet
  facet normal -0.936874 -0.349666 0
    outer loop
      vertex 3.51131 12.194 -1.49333e-15
      vertex 3.56389 12.0531 -1
      vertex 3.56389 12.0531 -1.47608e-15
    endloop
  endfacet
  facet normal -0.885273 -0.465072 0
    outer loop
      vertex 3.51131 12.194 -1
      vertex 3.44409 12.3219 -1.509e-15
      vertex 3.44409 12.3219 -1
    endloop
  endfacet
  facet normal -0.885273 -0.465072 0
    outer loop
      vertex 3.44409 12.3219 -1.509e-15
      vertex 3.51131 12.194 -1
      vertex 3.51131 12.194 -1.49333e-15
    endloop
  endfacet
  facet normal -0.82044 -0.571733 0
    outer loop
      vertex 3.44409 12.3219 -1
      vertex 3.35805 12.4454 -1.52412e-15
      vertex 3.35805 12.4454 -1
    endloop
  endfacet
  facet normal -0.82044 -0.571733 0
    outer loop
      vertex 3.35805 12.4454 -1.52412e-15
      vertex 3.44409 12.3219 -1
      vertex 3.44409 12.3219 -1.509e-15
    endloop
  endfacet
  facet normal -0.738535 -0.674215 0
    outer loop
      vertex 3.35805 12.4454 -1
      vertex 3.25984 12.553 -1.53729e-15
      vertex 3.25984 12.553 -1
    endloop
  endfacet
  facet normal -0.738535 -0.674215 0
    outer loop
      vertex 3.25984 12.553 -1.53729e-15
      vertex 3.35805 12.4454 -1
      vertex 3.35805 12.4454 -1.52412e-15
    endloop
  endfacet
  facet normal -0.644991 -0.76419 0
    outer loop
      vertex 3.14607 12.649 -1
      vertex 3.25984 12.553 -1.53729e-15
      vertex 3.14607 12.649 -1.54905e-15
    endloop
  endfacet
  facet normal -0.644991 -0.76419 -0
    outer loop
      vertex 3.25984 12.553 -1.53729e-15
      vertex 3.14607 12.649 -1
      vertex 3.25984 12.553 -1
    endloop
  endfacet
  facet normal -0.54614 -0.837694 0
    outer loop
      vertex 3.04269 12.7164 -1
      vertex 3.14607 12.649 -1.54905e-15
      vertex 3.04269 12.7164 -1.55731e-15
    endloop
  endfacet
  facet normal -0.54614 -0.837694 -0
    outer loop
      vertex 3.14607 12.649 -1.54905e-15
      vertex 3.04269 12.7164 -1
      vertex 3.14607 12.649 -1
    endloop
  endfacet
  facet normal -0.448693 -0.893686 0
    outer loop
      vertex 2.9321 12.7719 -1
      vertex 3.04269 12.7164 -1.55731e-15
      vertex 2.9321 12.7719 -1.56411e-15
    endloop
  endfacet
  facet normal -0.448693 -0.893686 -0
    outer loop
      vertex 3.04269 12.7164 -1.55731e-15
      vertex 2.9321 12.7719 -1
      vertex 3.04269 12.7164 -1
    endloop
  endfacet
  facet normal -0.343956 -0.938986 0
    outer loop
      vertex 2.81517 12.8147 -1
      vertex 2.9321 12.7719 -1.56411e-15
      vertex 2.81517 12.8147 -1.56935e-15
    endloop
  endfacet
  facet normal -0.343956 -0.938986 -0
    outer loop
      vertex 2.9321 12.7719 -1.56411e-15
      vertex 2.81517 12.8147 -1
      vertex 2.9321 12.7719 -1
    endloop
  endfacet
  facet normal -0.234072 -0.972219 0
    outer loop
      vertex 2.68924 12.8451 -1
      vertex 2.81517 12.8147 -1.56935e-15
      vertex 2.68924 12.8451 -1.57307e-15
    endloop
  endfacet
  facet normal -0.234072 -0.972219 -0
    outer loop
      vertex 2.81517 12.8147 -1.56935e-15
      vertex 2.68924 12.8451 -1
      vertex 2.81517 12.8147 -1
    endloop
  endfacet
  facet normal -0.117778 -0.99304 0
    outer loop
      vertex 2.56252 12.8601 -1
      vertex 2.68924 12.8451 -1.57307e-15
      vertex 2.56252 12.8601 -1.57491e-15
    endloop
  endfacet
  facet normal -0.117778 -0.99304 -0
    outer loop
      vertex 2.68924 12.8451 -1.57307e-15
      vertex 2.56252 12.8601 -1
      vertex 2.68924 12.8451 -1
    endloop
  endfacet
  facet normal -0.000319831 -1 0
    outer loop
      vertex -2.16066 12.8616 -1
      vertex 2.56252 12.8601 -1.57491e-15
      vertex -2.16066 12.8616 -1.57509e-15
    endloop
  endfacet
  facet normal -0.000319831 -1 -0
    outer loop
      vertex 2.56252 12.8601 -1.57491e-15
      vertex -2.16066 12.8616 -1
      vertex 2.56252 12.8601 -1
    endloop
  endfacet
  facet normal 0.0844456 -0.996428 0
    outer loop
      vertex -2.26041 12.8531 -1
      vertex -2.16066 12.8616 -1.57509e-15
      vertex -2.26041 12.8531 -1.57406e-15
    endloop
  endfacet
  facet normal 0.0844456 -0.996428 0
    outer loop
      vertex -2.16066 12.8616 -1.57509e-15
      vertex -2.26041 12.8531 -1
      vertex -2.16066 12.8616 -1
    endloop
  endfacet
  facet normal -0 0 1
    outer loop
      vertex -16.5 7.15 13.3
      vertex -15.5 -7.15 13.3
      vertex -15.5 7.15 13.3
    endloop
  endfacet
  facet normal 0 0 1
    outer loop
      vertex -15.5 -7.15 13.3
      vertex -16.5 7.15 13.3
      vertex -16.5 -7.15 13.3
    endloop
  endfacet
  facet normal 0 1 -0
    outer loop
      vertex -15.5 -7.15 13.3
      vertex -16.5 -7.15 15
      vertex -15.5 -7.15 15
    endloop
  endfacet
  facet normal 0 1 0
    outer loop
      vertex -16.5 -7.15 15
      vertex -15.5 -7.15 13.3
      vertex -16.5 -7.15 13.3
    endloop
  endfacet
  facet normal 0 -1 0
    outer loop
      vertex -16.5 7.15 13.3
      vertex -15.5 7.15 15
      vertex -16.5 7.15 15
    endloop
  endfacet
  facet normal 0 -1 -0
    outer loop
      vertex -15.5 7.15 15
      vertex -16.5 7.15 13.3
      vertex -15.5 7.15 13.3
    endloop
  endfacet
  facet normal -0 0 1
    outer loop
      vertex 15.5 7.15 13.3
      vertex 16.5 -7.15 13.3
      vertex 16.5 7.15 13.3
    endloop
  endfacet
  facet normal 0 0 1
    outer loop
      vertex 16.5 -7.15 13.3
      vertex 15.5 7.15 13.3
      vertex 15.5 -7.15 13.3
    endloop
  endfacet
  facet normal 0 1 -0
    outer loop
      vertex 16.5 -7.15 13.3
      vertex 15.5 -7.15 15
      vertex 16.5 -7.15 15
    endloop
  endfacet
  facet normal 0 1 0
    outer loop
      vertex 15.5 -7.15 15
      vertex 16.5 -7.15 13.3
      vertex 15.5 -7.15 13.3
    endloop
  endfacet
  facet normal 0 -1 0
    outer loop
      vertex 15.5 7.15 13.3
      vertex 16.5 7.15 15
      vertex 15.5 7.15 15
    endloop
  endfacet
  facet normal 0 -1 -0
    outer loop
      vertex 16.5 7.15 15
      vertex 15.5 7.15 13.3
      vertex 16.5 7.15 13.3
    endloop
  endfacet
  facet normal 1 -0 0
    outer loop
      vertex -7.15 -16.5 15
      vertex -7.15 -15.5 13.3
      vertex -7.15 -15.5 15
    endloop
  endfacet
  facet normal 1 0 0
    outer loop
      vertex -7.15 -15.5 13.3
      vertex -7.15 -16.5 15
      vertex -7.15 -16.5 13.3
    endloop
  endfacet
  facet normal -0 0 1
    outer loop
      vertex -7.15 -15.5 13.3
      vertex 7.15 -16.5 13.3
      vertex 7.15 -15.5 13.3
    endloop
  endfacet
  facet normal 0 0 1
    outer loop
      vertex 7.15 -16.5 13.3
      vertex -7.15 -15.5 13.3
      vertex -7.15 -16.5 13.3
    endloop
  endfacet
  facet normal -1 0 0
    outer loop
      vertex 7.15 -16.5 13.3
      vertex 7.15 -15.5 15
      vertex 7.15 -15.5 13.3
    endloop
  endfacet
  facet normal -1 -0 0
    outer loop
      vertex 7.15 -15.5 15
      vertex 7.15 -16.5 13.3
      vertex 7.15 -16.5 15
    endloop
  endfacet
  facet normal 1 -0 0
    outer loop
      vertex -7.15 15.5 15
      vertex -7.15 16.5 13.3
      vertex -7.15 16.5 15
    endloop
  endfacet
  facet normal 1 0 0
    outer loop
      vertex -7.15 16.5 13.3
      vertex -7.15 15.5 15
      vertex -7.15 15.5 13.3
    endloop
  endfacet
  facet normal -0 0 1
    outer loop
      vertex -7.15 16.5 13.3
      vertex 7.15 15.5 13.3
      vertex 7.15 16.5 13.3
    endloop
  endfacet
  facet normal 0 0 1
    outer loop
      vertex 7.15 15.5 13.3
      vertex -7.15 16.5 13.3
      vertex -7.15 15.5 13.3
    endloop
  endfacet
  facet normal -1 0 0
    outer loop
      vertex 7.15 15.5 13.3
      vertex 7.15 16.5 15
      vertex 7.15 16.5 13.3
    endloop
  endfacet
  facet normal -1 -0 0
    outer loop
      vertex 7.15 16.5 15
      vertex 7.15 15.5 13.3
      vertex 7.15 15.5 15
    endloop
  endfacet
endsolid OpenSCAD_Model
