solid OpenSCAD_Model
  facet normal -1 0 0
    outer loop
      vertex -16.5 16.5 -1
      vertex -16.5 7.15 13.3
      vertex -16.5 16.5 15
    endloop
  endfacet
  facet normal -1 0 0
    outer loop
      vertex -16.5 16.5 -1
      vertex -16.5 -7.15 13.3
      vertex -16.5 7.15 13.3
    endloop
  endfacet
  facet normal -1 0 0
    outer loop
      vertex -16.5 -16.5 -1
      vertex -16.5 -7.15 13.3
      vertex -16.5 16.5 -1
    endloop
  endfacet
  facet normal -1 0 0
    outer loop
      vertex -16.5 -16.5 15
      vertex -16.5 -7.15 13.3
      vertex -16.5 -16.5 -1
    endloop
  endfacet
  facet normal -1 0 0
    outer loop
      vertex -16.5 -7.15 13.3
      vertex -16.5 -16.5 15
      vertex -16.5 -7.15 15
    endloop
  endfacet
  facet normal -1 -0 0
    outer loop
      vertex -16.5 16.5 15
      vertex -16.5 7.15 13.3
      vertex -16.5 7.15 15
    endloop
  endfacet
  facet normal 1.70191e-24 1.22465e-16 1
    outer loop
      vertex 8.18111 -12.3736 1.51533e-15
      vertex 15.5 -15.5 1.8982e-15
      vertex 15.5 15.5 -1.8982e-15
    endloop
  endfacet
  facet normal -1.28629e-22 1.22464e-16 1
    outer loop
      vertex 15.5 -15.5 1.8982e-15
      vertex 8.18111 -12.3736 1.51533e-15
      vertex 8.19424 -12.5051 1.53143e-15
    endloop
  endfacet
  facet normal -2.16491e-24 1.22465e-16 1
    outer loop
      vertex 15.5 15.5 -1.8982e-15
      vertex 2.44714 4.37277 -5.3551e-16
      vertex 8.18111 -12.3736 1.51533e-15
    endloop
  endfacet
  facet normal 3.60942e-22 1.22464e-16 1
    outer loop
      vertex 15.5 15.5 -1.8982e-15
      vertex 2.42601 4.42082 -5.41395e-16
      vertex 2.44714 4.37277 -5.3551e-16
    endloop
  endfacet
  facet normal -5.00809e-24 1.22465e-16 1
    outer loop
      vertex 15.5 15.5 -1.8982e-15
      vertex 2.42578 11.8856 -1.45557e-15
      vertex 2.42601 4.42082 -5.41395e-16
    endloop
  endfacet
  facet normal 3.08853e-23 1.22465e-16 1
    outer loop
      vertex 15.5 15.5 -1.8982e-15
      vertex 2.41734 12.0011 -1.46971e-15
      vertex 2.42578 11.8856 -1.45557e-15
    endloop
  endfacet
  facet normal 1.37688e-22 1.22464e-16 1
    outer loop
      vertex 15.5 15.5 -1.8982e-15
      vertex 2.39413 12.1265 -1.48506e-15
      vertex 2.41734 12.0011 -1.46971e-15
    endloop
  endfacet
  facet normal -6.65823e-24 1.22465e-16 1
    outer loop
      vertex 15.5 15.5 -1.8982e-15
      vertex 2.35643 12.2455 -1.49965e-15
      vertex 2.39413 12.1265 -1.48506e-15
    endloop
  endfacet
  facet normal -1.59196e-22 1.22465e-16 1
    outer loop
      vertex 15.5 15.5 -1.8982e-15
      vertex 2.30492 12.3572 -1.51332e-15
      vertex 2.35643 12.2455 -1.49965e-15
    endloop
  endfacet
  facet normal 8.86755e-23 1.22464e-16 1
    outer loop
      vertex 15.5 15.5 -1.8982e-15
      vertex 2.24036 12.4603 -1.52594e-15
      vertex 2.30492 12.3572 -1.51332e-15
    endloop
  endfacet
  facet normal -3.36526e-23 1.22465e-16 1
    outer loop
      vertex 15.5 15.5 -1.8982e-15
      vertex 2.1636 12.5538 -1.5374e-15
      vertex 2.24036 12.4603 -1.52594e-15
    endloop
  endfacet
  facet normal 2.82039e-23 1.22465e-16 1
    outer loop
      vertex 15.5 15.5 -1.8982e-15
      vertex 2.07555 12.6367 -1.54755e-15
      vertex 2.1636 12.5538 -1.5374e-15
    endloop
  endfacet
  facet normal -6.30701e-23 1.22465e-16 1
    outer loop
      vertex 15.5 15.5 -1.8982e-15
      vertex 1.97406 12.7101 -1.55654e-15
      vertex 2.07555 12.6367 -1.54755e-15
    endloop
  endfacet
  facet normal 3.95089e-23 1.22464e-16 1
    outer loop
      vertex 15.5 15.5 -1.8982e-15
      vertex 1.8661 12.7685 -1.56369e-15
      vertex 1.97406 12.7101 -1.55654e-15
    endloop
  endfacet
  facet normal 3.65749e-24 1.22465e-16 1
    outer loop
      vertex 15.5 15.5 -1.8982e-15
      vertex 1.74991 12.8135 -1.5692e-15
      vertex 1.8661 12.7685 -1.56369e-15
    endloop
  endfacet
  facet normal 1.59776e-22 1.22464e-16 1
    outer loop
      vertex 15.5 15.5 -1.8982e-15
      vertex 1.6266 12.8442 -1.57297e-15
      vertex 1.74991 12.8135 -1.5692e-15
    endloop
  endfacet
  facet normal -3.32372e-22 1.22466e-16 1
    outer loop
      vertex 15.5 15.5 -1.8982e-15
      vertex 1.49725 12.8601 -1.57491e-15
      vertex 1.6266 12.8442 -1.57297e-15
    endloop
  endfacet
  facet normal 1.04137e-23 1.22465e-16 1
    outer loop
      vertex 15.5 15.5 -1.8982e-15
      vertex -1.06509 12.8616 -1.57509e-15
      vertex 1.49725 12.8601 -1.57491e-15
    endloop
  endfacet
  facet normal -0 1.22465e-16 1
    outer loop
      vertex -15.5 15.5 -1.8982e-15
      vertex -1.06509 12.8616 -1.57509e-15
      vertex 15.5 15.5 -1.8982e-15
    endloop
  endfacet
  facet normal -1.53043e-24 1.22465e-16 1
    outer loop
      vertex -15.5 15.5 -1.8982e-15
      vertex -2.02394 4.42084 -5.41396e-16
      vertex -2.02307 11.9045 -1.45789e-15
    endloop
  endfacet
  facet normal -3.06832e-23 1.22465e-16 1
    outer loop
      vertex -15.5 15.5 -1.8982e-15
      vertex -2.02307 11.9045 -1.45789e-15
      vertex -2.00571 12.0638 -1.47739e-15
    endloop
  endfacet
  facet normal -1.00684e-22 1.22465e-16 1
    outer loop
      vertex -7.76509 -12.3112 1.50769e-15
      vertex -15.5 -15.5 1.8982e-15
      vertex -7.79242 -12.4894 1.52951e-15
    endloop
  endfacet
  facet normal 1.25031e-24 1.22465e-16 1
    outer loop
      vertex -15.5 -15.5 1.8982e-15
      vertex -7.76509 -12.3112 1.50769e-15
      vertex -15.5 15.5 -1.8982e-15
    endloop
  endfacet
  facet normal 2.13797e-24 1.22465e-16 1
    outer loop
      vertex -2.02394 4.42084 -5.41396e-16
      vertex -15.5 15.5 -1.8982e-15
      vertex -7.76509 -12.3112 1.50769e-15
    endloop
  endfacet
  facet normal 8.19581e-23 1.22465e-16 1
    outer loop
      vertex -1.97495 12.1869 -1.49247e-15
      vertex -15.5 15.5 -1.8982e-15
      vertex -2.00571 12.0638 -1.47739e-15
    endloop
  endfacet
  facet normal 4.22504e-23 1.22465e-16 1
    outer loop
      vertex -1.92998 12.303 -1.50668e-15
      vertex -15.5 15.5 -1.8982e-15
      vertex -1.97495 12.1869 -1.49247e-15
    endloop
  endfacet
  facet normal -5.38628e-23 1.22464e-16 1
    outer loop
      vertex -1.87158 12.4108 -1.51989e-15
      vertex -15.5 15.5 -1.8982e-15
      vertex -1.92998 12.303 -1.50668e-15
    endloop
  endfacet
  facet normal 5.35921e-23 1.22465e-16 1
    outer loop
      vertex -1.7981 12.5122 -1.5323e-15
      vertex -15.5 15.5 -1.8982e-15
      vertex -1.87158 12.4108 -1.51989e-15
    endloop
  endfacet
  facet normal -5.22916e-23 1.22464e-16 1
    outer loop
      vertex -1.71513 12.6002 -1.54308e-15
      vertex -15.5 15.5 -1.8982e-15
      vertex -1.7981 12.5122 -1.5323e-15
    endloop
  endfacet
  facet normal 8.73468e-23 1.22465e-16 1
    outer loop
      vertex -1.62155 12.6769 -1.55247e-15
      vertex -15.5 15.5 -1.8982e-15
      vertex -1.71513 12.6002 -1.54308e-15
    endloop
  endfacet
  facet normal -1.75187e-22 1.22464e-16 1
    outer loop
      vertex -1.51836 12.7414 -1.56037e-15
      vertex -15.5 15.5 -1.8982e-15
      vertex -1.62155 12.6769 -1.55247e-15
    endloop
  endfacet
  facet normal 5.72375e-23 1.22465e-16 1
    outer loop
      vertex -1.4066 12.7929 -1.56668e-15
      vertex -15.5 15.5 -1.8982e-15
      vertex -1.51836 12.7414 -1.56037e-15
    endloop
  endfacet
  facet normal 9.08346e-23 1.22465e-16 1
    outer loop
      vertex -1.28737 12.8306 -1.5713e-15
      vertex -15.5 15.5 -1.8982e-15
      vertex -1.4066 12.7929 -1.56668e-15
    endloop
  endfacet
  facet normal -2.6723e-22 1.22463e-16 1
    outer loop
      vertex -1.16933 12.8531 -1.57406e-15
      vertex -15.5 15.5 -1.8982e-15
      vertex -1.28737 12.8306 -1.5713e-15
    endloop
  endfacet
  facet normal 3.11747e-22 1.22466e-16 1
    outer loop
      vertex -1.06509 12.8616 -1.57509e-15
      vertex -15.5 15.5 -1.8982e-15
      vertex -1.16933 12.8531 -1.57406e-15
    endloop
  endfacet
  facet normal 2.61154e-22 1.22465e-16 1
    outer loop
      vertex 8.19086 -12.6317 1.54694e-15
      vertex 15.5 -15.5 1.8982e-15
      vertex 8.19424 -12.5051 1.53143e-15
    endloop
  endfacet
  facet normal -4.43211e-23 1.22465e-16 1
    outer loop
      vertex 8.17062 -12.7561 1.56217e-15
      vertex 15.5 -15.5 1.8982e-15
      vertex 8.19086 -12.6317 1.54694e-15
    endloop
  endfacet
  facet normal -1.52646e-23 1.22465e-16 1
    outer loop
      vertex 8.13287 -12.8765 1.57691e-15
      vertex 15.5 -15.5 1.8982e-15
      vertex 8.17062 -12.7561 1.56217e-15
    endloop
  endfacet
  facet normal -8.82753e-23 1.22464e-16 1
    outer loop
      vertex 8.08113 -12.9846 1.59015e-15
      vertex 15.5 -15.5 1.8982e-15
      vertex 8.13287 -12.8765 1.57691e-15
    endloop
  endfacet
  facet normal 3.89008e-23 1.22465e-16 1
    outer loop
      vertex 8.01295 -13.0856 1.60252e-15
      vertex 15.5 -15.5 1.8982e-15
      vertex 8.08113 -12.9846 1.59015e-15
    endloop
  endfacet
  facet normal -9.66067e-23 1.22464e-16 1
    outer loop
      vertex 7.93114 -13.1747 1.61343e-15
      vertex 15.5 -15.5 1.8982e-15
      vertex 8.01295 -13.0856 1.60252e-15
    endloop
  endfacet
  facet normal 1.39747e-22 1.22465e-16 1
    outer loop
      vertex 7.84027 -13.2485 1.62248e-15
      vertex 15.5 -15.5 1.8982e-15
      vertex 7.93114 -13.1747 1.61343e-15
    endloop
  endfacet
  facet normal 3.02492e-23 1.22465e-16 1
    outer loop
      vertex 7.73575 -13.3106 1.63008e-15
      vertex 15.5 -15.5 1.8982e-15
      vertex 7.84027 -13.2485 1.62248e-15
    endloop
  endfacet
  facet normal 7.43024e-23 1.22465e-16 1
    outer loop
      vertex 7.62561 -13.3563 1.63567e-15
      vertex 15.5 -15.5 1.8982e-15
      vertex 7.73575 -13.3106 1.63008e-15
    endloop
  endfacet
  facet normal -1.52696e-22 1.22464e-16 1
    outer loop
      vertex 7.50806 -13.3868 1.63941e-15
      vertex 15.5 -15.5 1.8982e-15
      vertex 7.62561 -13.3563 1.63567e-15
    endloop
  endfacet
  facet normal -1.71304e-22 1.22464e-16 1
    outer loop
      vertex 7.39584 -13.4013 1.64118e-15
      vertex 15.5 -15.5 1.8982e-15
      vertex 7.50806 -13.3868 1.63941e-15
    endloop
  endfacet
  facet normal 2.82351e-22 1.22466e-16 1
    outer loop
      vertex 7.33302 -13.4035 1.64145e-15
      vertex 15.5 -15.5 1.8982e-15
      vertex 7.39584 -13.4013 1.64118e-15
    endloop
  endfacet
  facet normal 5.04396e-24 1.22465e-16 1
    outer loop
      vertex 4.77022 -13.4007 1.64111e-15
      vertex 15.5 -15.5 1.8982e-15
      vertex 7.33302 -13.4035 1.64145e-15
    endloop
  endfacet
  facet normal -5.38484e-24 1.22466e-16 1
    outer loop
      vertex -4.28021 -13.391 1.63992e-15
      vertex 4.77022 -13.4007 1.64111e-15
      vertex 4.64519 -13.3844 1.63911e-15
    endloop
  endfacet
  facet normal 7.92911e-25 1.22465e-16 1
    outer loop
      vertex -3.30608 -12.4928 1.52993e-15
      vertex 3.70549 -12.485 1.52897e-15
      vertex 0.217682 -2.25885 2.76629e-16
    endloop
  endfacet
  facet normal 8.72869e-25 1.22465e-16 1
    outer loop
      vertex 3.70549 -12.485 1.52897e-15
      vertex -3.30608 -12.4928 1.52993e-15
      vertex 3.73695 -12.6014 1.54322e-15
    endloop
  endfacet
  facet normal -3.18925e-25 1.22465e-16 1
    outer loop
      vertex -3.33849 -12.6117 1.54449e-15
      vertex 3.73695 -12.6014 1.54322e-15
      vertex -3.30608 -12.4928 1.52993e-15
    endloop
  endfacet
  facet normal -4.54206e-25 1.22465e-16 1
    outer loop
      vertex 3.73695 -12.6014 1.54322e-15
      vertex -3.33849 -12.6117 1.54449e-15
      vertex 3.7865 -12.725 1.55836e-15
    endloop
  endfacet
  facet normal -5.23342e-24 1.22464e-16 1
    outer loop
      vertex -3.38759 -12.7316 1.55917e-15
      vertex 3.7865 -12.725 1.55836e-15
      vertex -3.33849 -12.6117 1.54449e-15
    endloop
  endfacet
  facet normal -5.3966e-24 1.22465e-16 1
    outer loop
      vertex 3.7865 -12.725 1.55836e-15
      vertex -3.38759 -12.7316 1.55917e-15
      vertex 3.8486 -12.8381 1.57221e-15
    endloop
  endfacet
  facet normal 3.31019e-24 1.22465e-16 1
    outer loop
      vertex -3.45036 -12.8443 1.57298e-15
      vertex 3.8486 -12.8381 1.57221e-15
      vertex -3.38759 -12.7316 1.55917e-15
    endloop
  endfacet
  facet normal 3.56707e-24 1.22465e-16 1
    outer loop
      vertex 3.8486 -12.8381 1.57221e-15
      vertex -3.45036 -12.8443 1.57298e-15
      vertex 3.92299 -12.9434 1.58511e-15
    endloop
  endfacet
  facet normal -4.59683e-25 1.22464e-16 1
    outer loop
      vertex -3.52798 -12.952 1.58616e-15
      vertex 3.92299 -12.9434 1.58511e-15
      vertex -3.45036 -12.8443 1.57298e-15
    endloop
  endfacet
  facet normal -2.96022e-25 1.22464e-16 1
    outer loop
      vertex 3.92299 -12.9434 1.58511e-15
      vertex -3.52798 -12.952 1.58616e-15
      vertex 4.00833 -13.04 1.59693e-15
    endloop
  endfacet
  facet normal 8.63107e-24 1.22465e-16 1
    outer loop
      vertex -3.63055 -13.0636 1.59984e-15
      vertex 4.00833 -13.04 1.59693e-15
      vertex -3.52798 -12.952 1.58616e-15
    endloop
  endfacet
  facet normal 1.03112e-23 1.22465e-16 1
    outer loop
      vertex 4.00833 -13.04 1.59693e-15
      vertex -3.63055 -13.0636 1.59984e-15
      vertex 4.11812 -13.1387 1.60903e-15
    endloop
  endfacet
  facet normal 2.79118e-24 1.22464e-16 1
    outer loop
      vertex -3.74287 -13.1595 1.61158e-15
      vertex 4.11812 -13.1387 1.60903e-15
      vertex -3.63055 -13.0636 1.59984e-15
    endloop
  endfacet
  facet normal -1.00882e-24 1.22465e-16 1
    outer loop
      vertex 4.11812 -13.1387 1.60903e-15
      vertex -3.74287 -13.1595 1.61158e-15
      vertex 4.23825 -13.2236 1.61942e-15
    endloop
  endfacet
  facet normal -3.8307e-24 1.22465e-16 1
    outer loop
      vertex -3.8685 -13.243 1.62179e-15
      vertex 4.23825 -13.2236 1.61942e-15
      vertex -3.74287 -13.1595 1.61158e-15
    endloop
  endfacet
  facet normal -3.10014e-24 1.22465e-16 1
    outer loop
      vertex 4.23825 -13.2236 1.61942e-15
      vertex -3.8685 -13.243 1.62179e-15
      vertex 4.36977 -13.295 1.62817e-15
    endloop
  endfacet
  facet normal -3.62384e-24 1.22464e-16 1
    outer loop
      vertex -3.99866 -13.3089 1.62986e-15
      vertex 4.36977 -13.295 1.62817e-15
      vertex -3.8685 -13.243 1.62179e-15
    endloop
  endfacet
  facet normal -4.73702e-24 1.22465e-16 1
    outer loop
      vertex 4.36977 -13.295 1.62817e-15
      vertex -3.99866 -13.3089 1.62986e-15
      vertex 4.50392 -13.348 1.63465e-15
    endloop
  endfacet
  facet normal -5.17652e-24 1.22465e-16 1
    outer loop
      vertex -4.13785 -13.3592 1.63603e-15
      vertex 4.50392 -13.348 1.63465e-15
      vertex -3.99866 -13.3089 1.62986e-15
    endloop
  endfacet
  facet normal -3.85078e-24 1.22464e-16 1
    outer loop
      vertex 4.50392 -13.348 1.63465e-15
      vertex -4.13785 -13.3592 1.63603e-15
      vertex 4.64519 -13.3844 1.63911e-15
    endloop
  endfacet
  facet normal -3.97304e-24 1.22464e-16 1
    outer loop
      vertex -4.28021 -13.391 1.63992e-15
      vertex 4.64519 -13.3844 1.63911e-15
      vertex -4.13785 -13.3592 1.63603e-15
    endloop
  endfacet
  facet normal -6.76458e-24 1.22465e-16 1
    outer loop
      vertex 4.77022 -13.4007 1.64111e-15
      vertex -4.28021 -13.391 1.63992e-15
      vertex 15.5 -15.5 1.8982e-15
    endloop
  endfacet
  facet normal 2.03892e-22 1.22467e-16 1
    outer loop
      vertex -4.40201 -13.4026 1.64135e-15
      vertex 15.5 -15.5 1.8982e-15
      vertex -4.28021 -13.391 1.63992e-15
    endloop
  endfacet
  facet normal 5.16919e-24 1.22465e-16 1
    outer loop
      vertex -15.5 -15.5 1.8982e-15
      vertex -4.40201 -13.4026 1.64135e-15
      vertex -7.00264 -13.4007 1.64111e-15
    endloop
  endfacet
  facet normal -1.42571e-23 1.22465e-16 1
    outer loop
      vertex -7.79242 -12.4894 1.52951e-15
      vertex -15.5 -15.5 1.8982e-15
      vertex -7.79297 -12.6113 1.54444e-15
    endloop
  endfacet
  facet normal 1.78312e-22 1.22464e-16 1
    outer loop
      vertex -7.79297 -12.6113 1.54444e-15
      vertex -15.5 -15.5 1.8982e-15
      vertex -7.77882 -12.7316 1.55917e-15
    endloop
  endfacet
  facet normal 0 1.22465e-16 1
    outer loop
      vertex -4.40201 -13.4026 1.64135e-15
      vertex -15.5 -15.5 1.8982e-15
      vertex 15.5 -15.5 1.8982e-15
    endloop
  endfacet
  facet normal -1.09322e-22 1.22465e-16 1
    outer loop
      vertex -7.1293 -13.3844 1.63911e-15
      vertex -15.5 -15.5 1.8982e-15
      vertex -7.00264 -13.4007 1.64111e-15
    endloop
  endfacet
  facet normal 1.29728e-22 1.22464e-16 1
    outer loop
      vertex -7.25101 -13.3518 1.63512e-15
      vertex -15.5 -15.5 1.8982e-15
      vertex -7.1293 -13.3844 1.63911e-15
    endloop
  endfacet
  facet normal -9.97125e-23 1.22465e-16 1
    outer loop
      vertex -7.36615 -13.3023 1.62906e-15
      vertex -15.5 -15.5 1.8982e-15
      vertex -7.25101 -13.3518 1.63512e-15
    endloop
  endfacet
  facet normal 4.32467e-23 1.22465e-16 1
    outer loop
      vertex -7.47275 -13.2352 1.62085e-15
      vertex -15.5 -15.5 1.8982e-15
      vertex -7.36615 -13.3023 1.62906e-15
    endloop
  endfacet
  facet normal 9.39794e-23 1.22464e-16 1
    outer loop
      vertex -7.5672 -13.1519 1.61065e-15
      vertex -15.5 -15.5 1.8982e-15
      vertex -7.47275 -13.2352 1.62085e-15
    endloop
  endfacet
  facet normal -9.0246e-24 1.22465e-16 1
    outer loop
      vertex -7.6423 -13.0614 1.59956e-15
      vertex -15.5 -15.5 1.8982e-15
      vertex -7.5672 -13.1519 1.61065e-15
    endloop
  endfacet
  facet normal -1.8754e-22 1.22465e-16 1
    outer loop
      vertex -7.70393 -12.9582 1.58693e-15
      vertex -15.5 -15.5 1.8982e-15
      vertex -7.6423 -13.0614 1.59956e-15
    endloop
  endfacet
  facet normal 1.63604e-22 1.22464e-16 1
    outer loop
      vertex -7.74898 -12.8489 1.57354e-15
      vertex -15.5 -15.5 1.8982e-15
      vertex -7.70393 -12.9582 1.58693e-15
    endloop
  endfacet
  facet normal -1.99396e-22 1.22465e-16 1
    outer loop
      vertex -7.77882 -12.7316 1.55917e-15
      vertex -15.5 -15.5 1.8982e-15
      vertex -7.74898 -12.8489 1.57354e-15
    endloop
  endfacet
  facet normal 1 0 0
    outer loop
      vertex 16.5 -7.15 15
      vertex 16.5 -16.5 15
      vertex 16.5 -7.15 13.3
    endloop
  endfacet
  facet normal 1 0 0
    outer loop
      vertex 16.5 7.15 13.3
      vertex 16.5 16.5 15
      vertex 16.5 7.15 15
    endloop
  endfacet
  facet normal 1 0 0
    outer loop
      vertex 16.5 16.5 15
      vertex 16.5 7.15 13.3
      vertex 16.5 16.5 -1
    endloop
  endfacet
  facet normal 1 -0 0
    outer loop
      vertex 16.5 -7.15 13.3
      vertex 16.5 16.5 -1
      vertex 16.5 7.15 13.3
    endloop
  endfacet
  facet normal 1 0 0
    outer loop
      vertex 16.5 -16.5 -1
      vertex 16.5 -7.15 13.3
      vertex 16.5 -16.5 15
    endloop
  endfacet
  facet normal 1 0 0
    outer loop
      vertex 16.5 -7.15 13.3
      vertex 16.5 -16.5 -1
      vertex 16.5 16.5 -1
    endloop
  endfacet
  facet normal 0 -1 0
    outer loop
      vertex -16.5 -16.5 15
      vertex -7.15 -16.5 13.3
      vertex -7.15 -16.5 15
    endloop
  endfacet
  facet normal 0 -1 -0
    outer loop
      vertex -7.15 -16.5 13.3
      vertex -16.5 -16.5 -1
      vertex 7.15 -16.5 13.3
    endloop
  endfacet
  facet normal 0 -1 0
    outer loop
      vertex -16.5 -16.5 -1
      vertex -7.15 -16.5 13.3
      vertex -16.5 -16.5 15
    endloop
  endfacet
  facet normal 0 -1 0
    outer loop
      vertex 7.15 -16.5 13.3
      vertex 16.5 -16.5 15
      vertex 7.15 -16.5 15
    endloop
  endfacet
  facet normal 0 -1 0
    outer loop
      vertex 16.5 -16.5 -1
      vertex 7.15 -16.5 13.3
      vertex -16.5 -16.5 -1
    endloop
  endfacet
  facet normal 0 -1 0
    outer loop
      vertex 7.15 -16.5 13.3
      vertex 16.5 -16.5 -1
      vertex 16.5 -16.5 15
    endloop
  endfacet
  facet normal 0 0 1
    outer loop
      vertex -15.5 -7.15 15
      vertex -16.5 -7.15 15
      vertex -15.5 -15.5 15
    endloop
  endfacet
  facet normal -0 0 1
    outer loop
      vertex -15.5 -15.5 15
      vertex -7.15 -16.5 15
      vertex -7.15 -15.5 15
    endloop
  endfacet
  facet normal 0 0 1
    outer loop
      vertex -15.5 -15.5 15
      vertex -16.5 -16.5 15
      vertex -7.15 -16.5 15
    endloop
  endfacet
  facet normal 0 0 1
    outer loop
      vertex -16.5 -16.5 15
      vertex -15.5 -15.5 15
      vertex -16.5 -7.15 15
    endloop
  endfacet
  facet normal 0 0 1
    outer loop
      vertex -7.15 16.5 15
      vertex -15.5 15.5 15
      vertex -7.15 15.5 15
    endloop
  endfacet
  facet normal -0 0 1
    outer loop
      vertex -16.5 16.5 15
      vertex -15.5 15.5 15
      vertex -7.15 16.5 15
    endloop
  endfacet
  facet normal 0 0 1
    outer loop
      vertex -16.5 7.15 15
      vertex -15.5 15.5 15
      vertex -16.5 16.5 15
    endloop
  endfacet
  facet normal 0 0 1
    outer loop
      vertex -15.5 15.5 15
      vertex -16.5 7.15 15
      vertex -15.5 7.15 15
    endloop
  endfacet
  facet normal 0 0 1
    outer loop
      vertex 16.5 16.5 15
      vertex 15.5 15.5 15
      vertex 16.5 7.15 15
    endloop
  endfacet
  facet normal -0 0 1
    outer loop
      vertex 7.15 16.5 15
      vertex 15.5 15.5 15
      vertex 16.5 16.5 15
    endloop
  endfacet
  facet normal 0 0 1
    outer loop
      vertex 15.5 15.5 15
      vertex 7.15 16.5 15
      vertex 7.15 15.5 15
    endloop
  endfacet
  facet normal 0 0 1
    outer loop
      vertex 16.5 7.15 15
      vertex 15.5 15.5 15
      vertex 15.5 7.15 15
    endloop
  endfacet
  facet normal 0 0 1
    outer loop
      vertex 15.5 -15.5 15
      vertex 16.5 -7.15 15
      vertex 15.5 -7.15 15
    endloop
  endfacet
  facet normal 0 0 1
    outer loop
      vertex 16.5 -7.15 15
      vertex 15.5 -15.5 15
      vertex 16.5 -16.5 15
    endloop
  endfacet
  facet normal 0 0 1
    outer loop
      vertex 7.15 -16.5 15
      vertex 15.5 -15.5 15
      vertex 7.15 -15.5 15
    endloop
  endfacet
  facet normal 0 0 1
    outer loop
      vertex 15.5 -15.5 15
      vertex 7.15 -16.5 15
      vertex 16.5 -16.5 15
    endloop
  endfacet
  facet normal 0 1 0
    outer loop
      vertex 16.5 16.5 15
      vertex 7.15 16.5 13.3
      vertex 7.15 16.5 15
    endloop
  endfacet
  facet normal 0 1 0
    outer loop
      vertex 7.15 16.5 13.3
      vertex 16.5 16.5 -1
      vertex -7.15 16.5 13.3
    endloop
  endfacet
  facet normal 0 1 -0
    outer loop
      vertex 16.5 16.5 -1
      vertex 7.15 16.5 13.3
      vertex 16.5 16.5 15
    endloop
  endfacet
  facet normal 0 1 -0
    outer loop
      vertex -7.15 16.5 13.3
      vertex -16.5 16.5 15
      vertex -7.15 16.5 15
    endloop
  endfacet
  facet normal 0 1 0
    outer loop
      vertex -16.5 16.5 -1
      vertex -7.15 16.5 13.3
      vertex 16.5 16.5 -1
    endloop
  endfacet
  facet normal 0 1 0
    outer loop
      vertex -7.15 16.5 13.3
      vertex -16.5 16.5 -1
      vertex -16.5 16.5 15
    endloop
  endfacet
  facet normal 1 0 0
    outer loop
      vertex -15.5 -7.15 15
      vertex -15.5 -15.5 15
      vertex -15.5 -7.15 13.3
    endloop
  endfacet
  facet normal 1 0 0
    outer loop
      vertex -15.5 7.15 13.3
      vertex -15.5 15.5 15
      vertex -15.5 7.15 15
    endloop
  endfacet
  facet normal 1 0 0
    outer loop
      vertex -15.5 15.5 15
      vertex -15.5 7.15 13.3
      vertex -15.5 15.5 -1.8982e-15
    endloop
  endfacet
  facet normal 1 -0 0
    outer loop
      vertex -15.5 -7.15 13.3
      vertex -15.5 15.5 -1.8982e-15
      vertex -15.5 7.15 13.3
    endloop
  endfacet
  facet normal 1 0 0
    outer loop
      vertex -15.5 -15.5 1.8982e-15
      vertex -15.5 -7.15 13.3
      vertex -15.5 -15.5 15
    endloop
  endfacet
  facet normal 1 0 0
    outer loop
      vertex -15.5 -7.15 13.3
      vertex -15.5 -15.5 1.8982e-15
      vertex -15.5 15.5 -1.8982e-15
    endloop
  endfacet
  facet normal -1 0 0
    outer loop
      vertex 15.5 15.5 -1.8982e-15
      vertex 15.5 7.15 13.3
      vertex 15.5 15.5 15
    endloop
  endfacet
  facet normal -1 0 0
    outer loop
      vertex 15.5 15.5 -1.8982e-15
      vertex 15.5 -7.15 13.3
      vertex 15.5 7.15 13.3
    endloop
  endfacet
  facet normal -1 0 0
    outer loop
      vertex 15.5 -15.5 1.8982e-15
      vertex 15.5 -7.15 13.3
      vertex 15.5 15.5 -1.8982e-15
    endloop
  endfacet
  facet normal -1 0 0
    outer loop
      vertex 15.5 -15.5 15
      vertex 15.5 -7.15 13.3
      vertex 15.5 -15.5 1.8982e-15
    endloop
  endfacet
  facet normal -1 0 0
    outer loop
      vertex 15.5 -7.15 13.3
      vertex 15.5 -15.5 15
      vertex 15.5 -7.15 15
    endloop
  endfacet
  facet normal -1 -0 0
    outer loop
      vertex 15.5 15.5 15
      vertex 15.5 7.15 13.3
      vertex 15.5 7.15 15
    endloop
  endfacet
  facet normal 0 1 0
    outer loop
      vertex 15.5 -15.5 15
      vertex 7.15 -15.5 13.3
      vertex 7.15 -15.5 15
    endloop
  endfacet
  facet normal 0 1 0
    outer loop
      vertex 7.15 -15.5 13.3
      vertex 15.5 -15.5 1.8982e-15
      vertex -7.15 -15.5 13.3
    endloop
  endfacet
  facet normal 0 1 -0
    outer loop
      vertex 15.5 -15.5 1.8982e-15
      vertex 7.15 -15.5 13.3
      vertex 15.5 -15.5 15
    endloop
  endfacet
  facet normal 0 1 -0
    outer loop
      vertex -7.15 -15.5 13.3
      vertex -15.5 -15.5 15
      vertex -7.15 -15.5 15
    endloop
  endfacet
  facet normal 0 1 0
    outer loop
      vertex -15.5 -15.5 1.8982e-15
      vertex -7.15 -15.5 13.3
      vertex 15.5 -15.5 1.8982e-15
    endloop
  endfacet
  facet normal 0 1 0
    outer loop
      vertex -7.15 -15.5 13.3
      vertex -15.5 -15.5 1.8982e-15
      vertex -15.5 -15.5 15
    endloop
  endfacet
  facet normal 0 -1 0
    outer loop
      vertex -15.5 15.5 15
      vertex -7.15 15.5 13.3
      vertex -7.15 15.5 15
    endloop
  endfacet
  facet normal 0 -1 -0
    outer loop
      vertex -7.15 15.5 13.3
      vertex -15.5 15.5 -1.8982e-15
      vertex 7.15 15.5 13.3
    endloop
  endfacet
  facet normal 0 -1 0
    outer loop
      vertex -15.5 15.5 -1.8982e-15
      vertex -7.15 15.5 13.3
      vertex -15.5 15.5 15
    endloop
  endfacet
  facet normal 0 -1 0
    outer loop
      vertex 7.15 15.5 13.3
      vertex 15.5 15.5 15
      vertex 7.15 15.5 15
    endloop
  endfacet
  facet normal 0 -1 0
    outer loop
      vertex 15.5 15.5 -1.8982e-15
      vertex 7.15 15.5 13.3
      vertex -15.5 15.5 -1.8982e-15
    endloop
  endfacet
  facet normal 0 -1 0
    outer loop
      vertex 7.15 15.5 13.3
      vertex 15.5 15.5 -1.8982e-15
      vertex 15.5 15.5 15
    endloop
  endfacet
  facet normal 0 0 -1
    outer loop
      vertex 8.18111 -12.3736 -1
      vertex 16.5 -16.5 -1
      vertex 8.19424 -12.5051 -1
    endloop
  endfacet
  facet normal 0 0 -1
    outer loop
      vertex 16.5 -16.5 -1
      vertex 8.19086 -12.6317 -1
      vertex 8.19424 -12.5051 -1
    endloop
  endfacet
  facet normal 0 0 -1
    outer loop
      vertex 16.5 -16.5 -1
      vertex 8.17062 -12.7561 -1
      vertex 8.19086 -12.6317 -1
    endloop
  endfacet
  facet normal 0 0 -1
    outer loop
      vertex 16.5 -16.5 -1
      vertex 8.13287 -12.8765 -1
      vertex 8.17062 -12.7561 -1
    endloop
  endfacet
  facet normal 0 0 -1
    outer loop
      vertex 16.5 -16.5 -1
      vertex 8.08113 -12.9846 -1
      vertex 8.13287 -12.8765 -1
    endloop
  endfacet
  facet normal 0 0 -1
    outer loop
      vertex 16.5 -16.5 -1
      vertex 8.01295 -13.0856 -1
      vertex 8.08113 -12.9846 -1
    endloop
  endfacet
  facet normal 0 0 -1
    outer loop
      vertex 16.5 -16.5 -1
      vertex 7.93114 -13.1747 -1
      vertex 8.01295 -13.0856 -1
    endloop
  endfacet
  facet normal 0 0 -1
    outer loop
      vertex 16.5 -16.5 -1
      vertex 7.84027 -13.2485 -1
      vertex 7.93114 -13.1747 -1
    endloop
  endfacet
  facet normal 0 0 -1
    outer loop
      vertex 16.5 -16.5 -1
      vertex 7.73575 -13.3106 -1
      vertex 7.84027 -13.2485 -1
    endloop
  endfacet
  facet normal 0 0 -1
    outer loop
      vertex 16.5 -16.5 -1
      vertex 7.62561 -13.3563 -1
      vertex 7.73575 -13.3106 -1
    endloop
  endfacet
  facet normal 0 0 -1
    outer loop
      vertex 16.5 -16.5 -1
      vertex 7.50806 -13.3868 -1
      vertex 7.62561 -13.3563 -1
    endloop
  endfacet
  facet normal 0 0 -1
    outer loop
      vertex 16.5 -16.5 -1
      vertex 7.39584 -13.4013 -1
      vertex 7.50806 -13.3868 -1
    endloop
  endfacet
  facet normal 0 0 -1
    outer loop
      vertex 16.5 -16.5 -1
      vertex 7.33302 -13.4035 -1
      vertex 7.39584 -13.4013 -1
    endloop
  endfacet
  facet normal 0 0 -1
    outer loop
      vertex 16.5 -16.5 -1
      vertex 4.77022 -13.4007 -1
      vertex 7.33302 -13.4035 -1
    endloop
  endfacet
  facet normal 0 0 -1
    outer loop
      vertex -4.28021 -13.391 -1
      vertex 4.77022 -13.4007 -1
      vertex 16.5 -16.5 -1
    endloop
  endfacet
  facet normal 0 0 -1
    outer loop
      vertex 4.77022 -13.4007 -1
      vertex -4.28021 -13.391 -1
      vertex 4.64519 -13.3844 -1
    endloop
  endfacet
  facet normal 0 0 -1
    outer loop
      vertex -3.30608 -12.4928 -1
      vertex 3.70549 -12.485 -1
      vertex 3.73695 -12.6014 -1
    endloop
  endfacet
  facet normal -0 0 -1
    outer loop
      vertex 3.70549 -12.485 -1
      vertex -3.30608 -12.4928 -1
      vertex 0.217682 -2.25885 -1
    endloop
  endfacet
  facet normal 0 0 -1
    outer loop
      vertex -3.33849 -12.6117 -1
      vertex 3.73695 -12.6014 -1
      vertex 3.7865 -12.725 -1
    endloop
  endfacet
  facet normal 0 0 -1
    outer loop
      vertex -3.38759 -12.7316 -1
      vertex 3.7865 -12.725 -1
      vertex 3.8486 -12.8381 -1
    endloop
  endfacet
  facet normal 0 0 -1
    outer loop
      vertex -3.45036 -12.8443 -1
      vertex 3.8486 -12.8381 -1
      vertex 3.92299 -12.9434 -1
    endloop
  endfacet
  facet normal 0 0 -1
    outer loop
      vertex -3.52798 -12.952 -1
      vertex 3.92299 -12.9434 -1
      vertex 4.00833 -13.04 -1
    endloop
  endfacet
  facet normal 0 0 -1
    outer loop
      vertex -3.63055 -13.0636 -1
      vertex 4.00833 -13.04 -1
      vertex 4.11812 -13.1387 -1
    endloop
  endfacet
  facet normal 0 0 -1
    outer loop
      vertex -3.74287 -13.1595 -1
      vertex 4.11812 -13.1387 -1
      vertex 4.23825 -13.2236 -1
    endloop
  endfacet
  facet normal 0 0 -1
    outer loop
      vertex -3.8685 -13.243 -1
      vertex 4.23825 -13.2236 -1
      vertex 4.36977 -13.295 -1
    endloop
  endfacet
  facet normal 0 0 -1
    outer loop
      vertex -3.99866 -13.3089 -1
      vertex 4.36977 -13.295 -1
      vertex 4.50392 -13.348 -1
    endloop
  endfacet
  facet normal 0 -0 -1
    outer loop
      vertex -4.13785 -13.3592 -1
      vertex 4.64519 -13.3844 -1
      vertex -4.28021 -13.391 -1
    endloop
  endfacet
  facet normal -0 0 -1
    outer loop
      vertex 3.73695 -12.6014 -1
      vertex -3.33849 -12.6117 -1
      vertex -3.30608 -12.4928 -1
    endloop
  endfacet
  facet normal -0 0 -1
    outer loop
      vertex 3.7865 -12.725 -1
      vertex -3.38759 -12.7316 -1
      vertex -3.33849 -12.6117 -1
    endloop
  endfacet
  facet normal -0 0 -1
    outer loop
      vertex 3.8486 -12.8381 -1
      vertex -3.45036 -12.8443 -1
      vertex -3.38759 -12.7316 -1
    endloop
  endfacet
  facet normal -0 0 -1
    outer loop
      vertex 3.92299 -12.9434 -1
      vertex -3.52798 -12.952 -1
      vertex -3.45036 -12.8443 -1
    endloop
  endfacet
  facet normal -0 0 -1
    outer loop
      vertex 4.00833 -13.04 -1
      vertex -3.63055 -13.0636 -1
      vertex -3.52798 -12.952 -1
    endloop
  endfacet
  facet normal -0 0 -1
    outer loop
      vertex 4.11812 -13.1387 -1
      vertex -3.74287 -13.1595 -1
      vertex -3.63055 -13.0636 -1
    endloop
  endfacet
  facet normal -0 0 -1
    outer loop
      vertex 4.23825 -13.2236 -1
      vertex -3.8685 -13.243 -1
      vertex -3.74287 -13.1595 -1
    endloop
  endfacet
  facet normal -0 0 -1
    outer loop
      vertex 4.36977 -13.295 -1
      vertex -3.99866 -13.3089 -1
      vertex -3.8685 -13.243 -1
    endloop
  endfacet
  facet normal -0 0 -1
    outer loop
      vertex 4.50392 -13.348 -1
      vertex -4.13785 -13.3592 -1
      vertex -3.99866 -13.3089 -1
    endloop
  endfacet
  facet normal 0 0 -1
    outer loop
      vertex 4.64519 -13.3844 -1
      vertex -4.13785 -13.3592 -1
      vertex 4.50392 -13.348 -1
    endloop
  endfacet
  facet normal 0 0 -1
    outer loop
      vertex 16.5 -16.5 -1
      vertex -4.40201 -13.4026 -1
      vertex -4.28021 -13.391 -1
    endloop
  endfacet
  facet normal 0 0 -1
    outer loop
      vertex -16.5 -16.5 -1
      vertex -4.40201 -13.4026 -1
      vertex 16.5 -16.5 -1
    endloop
  endfacet
  facet normal -0 0 -1
    outer loop
      vertex -4.40201 -13.4026 -1
      vertex -16.5 -16.5 -1
      vertex -7.00264 -13.4007 -1
    endloop
  endfacet
  facet normal -0 0 -1
    outer loop
      vertex -7.77882 -12.7316 -1
      vertex -16.5 -16.5 -1
      vertex -7.79297 -12.6113 -1
    endloop
  endfacet
  facet normal -0 0 -1
    outer loop
      vertex -7.74898 -12.8489 -1
      vertex -16.5 -16.5 -1
      vertex -7.77882 -12.7316 -1
    endloop
  endfacet
  facet normal -0 0 -1
    outer loop
      vertex -7.70393 -12.9582 -1
      vertex -16.5 -16.5 -1
      vertex -7.74898 -12.8489 -1
    endloop
  endfacet
  facet normal -0 0 -1
    outer loop
      vertex -7.6423 -13.0614 -1
      vertex -16.5 -16.5 -1
      vertex -7.70393 -12.9582 -1
    endloop
  endfacet
  facet normal -0 0 -1
    outer loop
      vertex -7.5672 -13.1519 -1
      vertex -16.5 -16.5 -1
      vertex -7.6423 -13.0614 -1
    endloop
  endfacet
  facet normal -0 0 -1
    outer loop
      vertex -7.47275 -13.2352 -1
      vertex -16.5 -16.5 -1
      vertex -7.5672 -13.1519 -1
    endloop
  endfacet
  facet normal -0 0 -1
    outer loop
      vertex -7.36615 -13.3023 -1
      vertex -16.5 -16.5 -1
      vertex -7.47275 -13.2352 -1
    endloop
  endfacet
  facet normal -0 0 -1
    outer loop
      vertex -7.25101 -13.3518 -1
      vertex -16.5 -16.5 -1
      vertex -7.36615 -13.3023 -1
    endloop
  endfacet
  facet normal -0 0 -1
    outer loop
      vertex -7.1293 -13.3844 -1
      vertex -16.5 -16.5 -1
      vertex -7.25101 -13.3518 -1
    endloop
  endfacet
  facet normal -0 0 -1
    outer loop
      vertex -7.00264 -13.4007 -1
      vertex -16.5 -16.5 -1
      vertex -7.1293 -13.3844 -1
    endloop
  endfacet
  facet normal 0 0 -1
    outer loop
      vertex 16.5 -16.5 -1
      vertex 8.18111 -12.3736 -1
      vertex 16.5 16.5 -1
    endloop
  endfacet
  facet normal 0 0 -1
    outer loop
      vertex 2.44714 4.37277 -1
      vertex 16.5 16.5 -1
      vertex 8.18111 -12.3736 -1
    endloop
  endfacet
  facet normal 0 0 -1
    outer loop
      vertex 2.42578 11.8856 -1
      vertex 2.44714 4.37277 -1
      vertex 2.42601 4.42082 -1
    endloop
  endfacet
  facet normal 0 0 -1
    outer loop
      vertex 2.44714 4.37277 -1
      vertex 2.42578 11.8856 -1
      vertex 16.5 16.5 -1
    endloop
  endfacet
  facet normal 0 0 -1
    outer loop
      vertex 2.41734 12.0011 -1
      vertex 16.5 16.5 -1
      vertex 2.42578 11.8856 -1
    endloop
  endfacet
  facet normal 0 0 -1
    outer loop
      vertex 2.39413 12.1265 -1
      vertex 16.5 16.5 -1
      vertex 2.41734 12.0011 -1
    endloop
  endfacet
  facet normal 0 0 -1
    outer loop
      vertex 2.35643 12.2455 -1
      vertex 16.5 16.5 -1
      vertex 2.39413 12.1265 -1
    endloop
  endfacet
  facet normal 0 0 -1
    outer loop
      vertex 2.30492 12.3572 -1
      vertex 16.5 16.5 -1
      vertex 2.35643 12.2455 -1
    endloop
  endfacet
  facet normal 0 0 -1
    outer loop
      vertex 2.24036 12.4603 -1
      vertex 16.5 16.5 -1
      vertex 2.30492 12.3572 -1
    endloop
  endfacet
  facet normal 0 0 -1
    outer loop
      vertex 2.1636 12.5538 -1
      vertex 16.5 16.5 -1
      vertex 2.24036 12.4603 -1
    endloop
  endfacet
  facet normal 0 0 -1
    outer loop
      vertex 2.07555 12.6367 -1
      vertex 16.5 16.5 -1
      vertex 2.1636 12.5538 -1
    endloop
  endfacet
  facet normal 0 0 -1
    outer loop
      vertex 1.97406 12.7101 -1
      vertex 16.5 16.5 -1
      vertex 2.07555 12.6367 -1
    endloop
  endfacet
  facet normal 0 0 -1
    outer loop
      vertex 1.8661 12.7685 -1
      vertex 16.5 16.5 -1
      vertex 1.97406 12.7101 -1
    endloop
  endfacet
  facet normal 0 0 -1
    outer loop
      vertex 1.74991 12.8135 -1
      vertex 16.5 16.5 -1
      vertex 1.8661 12.7685 -1
    endloop
  endfacet
  facet normal 0 0 -1
    outer loop
      vertex 1.6266 12.8442 -1
      vertex 16.5 16.5 -1
      vertex 1.74991 12.8135 -1
    endloop
  endfacet
  facet normal 0 0 -1
    outer loop
      vertex 1.49725 12.8601 -1
      vertex 16.5 16.5 -1
      vertex 1.6266 12.8442 -1
    endloop
  endfacet
  facet normal 0 0 -1
    outer loop
      vertex -1.06509 12.8616 -1
      vertex 16.5 16.5 -1
      vertex 1.49725 12.8601 -1
    endloop
  endfacet
  facet normal 0 0 -1
    outer loop
      vertex -16.5 16.5 -1
      vertex -1.06509 12.8616 -1
      vertex -1.16933 12.8531 -1
    endloop
  endfacet
  facet normal 0 0 -1
    outer loop
      vertex -16.5 16.5 -1
      vertex -1.16933 12.8531 -1
      vertex -1.28737 12.8306 -1
    endloop
  endfacet
  facet normal 0 0 -1
    outer loop
      vertex -16.5 16.5 -1
      vertex -2.02394 4.42084 -1
      vertex -7.76509 -12.3112 -1
    endloop
  endfacet
  facet normal 0 0 -1
    outer loop
      vertex -2.02394 4.42084 -1
      vertex -16.5 16.5 -1
      vertex -2.02307 11.9045 -1
    endloop
  endfacet
  facet normal 0 0 -1
    outer loop
      vertex -16.5 -16.5 -1
      vertex -7.79242 -12.4894 -1
      vertex -7.79297 -12.6113 -1
    endloop
  endfacet
  facet normal 0 0 -1
    outer loop
      vertex -16.5 -16.5 -1
      vertex -7.76509 -12.3112 -1
      vertex -7.79242 -12.4894 -1
    endloop
  endfacet
  facet normal 0 0 -1
    outer loop
      vertex -16.5 16.5 -1
      vertex -7.76509 -12.3112 -1
      vertex -16.5 -16.5 -1
    endloop
  endfacet
  facet normal 0 0 -1
    outer loop
      vertex -2.02307 11.9045 -1
      vertex -16.5 16.5 -1
      vertex -2.00571 12.0638 -1
    endloop
  endfacet
  facet normal 0 0 -1
    outer loop
      vertex -2.00571 12.0638 -1
      vertex -16.5 16.5 -1
      vertex -1.97495 12.1869 -1
    endloop
  endfacet
  facet normal 0 0 -1
    outer loop
      vertex -1.06509 12.8616 -1
      vertex -16.5 16.5 -1
      vertex 16.5 16.5 -1
    endloop
  endfacet
  facet normal 0 0 -1
    outer loop
      vertex -1.4066 12.7929 -1
      vertex -16.5 16.5 -1
      vertex -1.28737 12.8306 -1
    endloop
  endfacet
  facet normal 0 0 -1
    outer loop
      vertex -1.51836 12.7414 -1
      vertex -16.5 16.5 -1
      vertex -1.4066 12.7929 -1
    endloop
  endfacet
  facet normal 0 0 -1
    outer loop
      vertex -1.62155 12.6769 -1
      vertex -16.5 16.5 -1
      vertex -1.51836 12.7414 -1
    endloop
  endfacet
  facet normal 0 0 -1
    outer loop
      vertex -1.71513 12.6002 -1
      vertex -16.5 16.5 -1
      vertex -1.62155 12.6769 -1
    endloop
  endfacet
  facet normal 0 0 -1
    outer loop
      vertex -1.7981 12.5122 -1
      vertex -16.5 16.5 -1
      vertex -1.71513 12.6002 -1
    endloop
  endfacet
  facet normal 0 0 -1
    outer loop
      vertex -1.87158 12.4108 -1
      vertex -16.5 16.5 -1
      vertex -1.7981 12.5122 -1
    endloop
  endfacet
  facet normal 0 0 -1
    outer loop
      vertex -1.92998 12.303 -1
      vertex -16.5 16.5 -1
      vertex -1.87158 12.4108 -1
    endloop
  endfacet
  facet normal 0 0 -1
    outer loop
      vertex -1.97495 12.1869 -1
      vertex -16.5 16.5 -1
      vertex -1.92998 12.303 -1
    endloop
  endfacet
  facet normal 0.187538 -0.982257 0
    outer loop
      vertex -1.28737 12.8306 -1
      vertex -1.16933 12.8531 -1.57406e-15
      vertex -1.28737 12.8306 -1.5713e-15
    endloop
  endfacet
  facet normal 0.187538 -0.982257 0
    outer loop
      vertex -1.16933 12.8531 -1.57406e-15
      vertex -1.28737 12.8306 -1
      vertex -1.16933 12.8531 -1
    endloop
  endfacet
  facet normal 0.301511 -0.953463 0
    outer loop
      vertex -1.4066 12.7929 -1
      vertex -1.28737 12.8306 -1.5713e-15
      vertex -1.4066 12.7929 -1.56668e-15
    endloop
  endfacet
  facet normal 0.301511 -0.953463 0
    outer loop
      vertex -1.28737 12.8306 -1.5713e-15
      vertex -1.4066 12.7929 -1
      vertex -1.28737 12.8306 -1
    endloop
  endfacet
  facet normal 0.418413 -0.908257 0
    outer loop
      vertex -1.51836 12.7414 -1
      vertex -1.4066 12.7929 -1.56668e-15
      vertex -1.51836 12.7414 -1.56037e-15
    endloop
  endfacet
  facet normal 0.418413 -0.908257 0
    outer loop
      vertex -1.4066 12.7929 -1.56668e-15
      vertex -1.51836 12.7414 -1
      vertex -1.4066 12.7929 -1
    endloop
  endfacet
  facet normal 0.530191 -0.847879 0
    outer loop
      vertex -1.62155 12.6769 -1
      vertex -1.51836 12.7414 -1.56037e-15
      vertex -1.62155 12.6769 -1.55247e-15
    endloop
  endfacet
  facet normal 0.530191 -0.847879 0
    outer loop
      vertex -1.51836 12.7414 -1.56037e-15
      vertex -1.62155 12.6769 -1
      vertex -1.51836 12.7414 -1
    endloop
  endfacet
  facet normal 0.633924 -0.773395 0
    outer loop
      vertex -1.71513 12.6002 -1
      vertex -1.62155 12.6769 -1.55247e-15
      vertex -1.71513 12.6002 -1.54308e-15
    endloop
  endfacet
  facet normal 0.633924 -0.773395 0
    outer loop
      vertex -1.62155 12.6769 -1.55247e-15
      vertex -1.71513 12.6002 -1
      vertex -1.62155 12.6769 -1
    endloop
  endfacet
  facet normal 0.727559 -0.686045 0
    outer loop
      vertex -1.7981 12.5122 -1.5323e-15
      vertex -1.71513 12.6002 -1
      vertex -1.71513 12.6002 -1.54308e-15
    endloop
  endfacet
  facet normal 0.727559 -0.686045 0
    outer loop
      vertex -1.71513 12.6002 -1
      vertex -1.7981 12.5122 -1.5323e-15
      vertex -1.7981 12.5122 -1
    endloop
  endfacet
  facet normal 0.809705 -0.586838 0
    outer loop
      vertex -1.87158 12.4108 -1.51989e-15
      vertex -1.7981 12.5122 -1
      vertex -1.7981 12.5122 -1.5323e-15
    endloop
  endfacet
  facet normal 0.809705 -0.586838 0
    outer loop
      vertex -1.7981 12.5122 -1
      vertex -1.87158 12.4108 -1.51989e-15
      vertex -1.87158 12.4108 -1
    endloop
  endfacet
  facet normal 0.87937 -0.476139 0
    outer loop
      vertex -1.92998 12.303 -1.50668e-15
      vertex -1.87158 12.4108 -1
      vertex -1.87158 12.4108 -1.51989e-15
    endloop
  endfacet
  facet normal 0.87937 -0.476139 0
    outer loop
      vertex -1.87158 12.4108 -1
      vertex -1.92998 12.303 -1.50668e-15
      vertex -1.92998 12.303 -1
    endloop
  endfacet
  facet normal 0.932439 -0.361328 0
    outer loop
      vertex -1.97495 12.1869 -1.49247e-15
      vertex -1.92998 12.303 -1
      vertex -1.92998 12.303 -1.50668e-15
    endloop
  endfacet
  facet normal 0.932439 -0.361328 0
    outer loop
      vertex -1.92998 12.303 -1
      vertex -1.97495 12.1869 -1.49247e-15
      vertex -1.97495 12.1869 -1
    endloop
  endfacet
  facet normal 0.970185 -0.242366 0
    outer loop
      vertex -2.00571 12.0638 -1.47739e-15
      vertex -1.97495 12.1869 -1
      vertex -1.97495 12.1869 -1.49247e-15
    endloop
  endfacet
  facet normal 0.970185 -0.242366 0
    outer loop
      vertex -1.97495 12.1869 -1
      vertex -2.00571 12.0638 -1.47739e-15
      vertex -2.00571 12.0638 -1
    endloop
  endfacet
  facet normal 0.994107 -0.108403 0
    outer loop
      vertex -2.02307 11.9045 -1.45789e-15
      vertex -2.00571 12.0638 -1
      vertex -2.00571 12.0638 -1.47739e-15
    endloop
  endfacet
  facet normal 0.994107 -0.108403 0
    outer loop
      vertex -2.00571 12.0638 -1
      vertex -2.02307 11.9045 -1.45789e-15
      vertex -2.02307 11.9045 -1
    endloop
  endfacet
  facet normal 1 -0.000116219 0
    outer loop
      vertex -2.02394 4.42084 -5.41396e-16
      vertex -2.02307 11.9045 -1
      vertex -2.02307 11.9045 -1.45789e-15
    endloop
  endfacet
  facet normal 1 -0.000116219 0
    outer loop
      vertex -2.02307 11.9045 -1
      vertex -2.02394 4.42084 -5.41396e-16
      vertex -2.02394 4.42084 -1
    endloop
  endfacet
  facet normal 0.945869 -0.324549 0
    outer loop
      vertex -7.76509 -12.3112 1.50769e-15
      vertex -2.02394 4.42084 -1
      vertex -2.02394 4.42084 -5.41396e-16
    endloop
  endfacet
  facet normal 0.945869 -0.324549 0
    outer loop
      vertex -2.02394 4.42084 -1
      vertex -7.76509 -12.3112 1.50769e-15
      vertex -7.76509 -12.3112 -1
    endloop
  endfacet
  facet normal 0.988441 -0.151606 0
    outer loop
      vertex -7.79242 -12.4894 1.52951e-15
      vertex -7.76509 -12.3112 -1
      vertex -7.76509 -12.3112 1.50769e-15
    endloop
  endfacet
  facet normal 0.988441 -0.151606 0
    outer loop
      vertex -7.76509 -12.3112 -1
      vertex -7.79242 -12.4894 1.52951e-15
      vertex -7.79242 -12.4894 -1
    endloop
  endfacet
  facet normal 0.99999 -0.00450446 0
    outer loop
      vertex -7.79297 -12.6113 1.54444e-15
      vertex -7.79242 -12.4894 -1
      vertex -7.79242 -12.4894 1.52951e-15
    endloop
  endfacet
  facet normal 0.99999 -0.00450446 0
    outer loop
      vertex -7.79242 -12.4894 -1
      vertex -7.79297 -12.6113 1.54444e-15
      vertex -7.79297 -12.6113 -1
    endloop
  endfacet
  facet normal 0.993155 0.116805 0
    outer loop
      vertex -7.77882 -12.7316 1.55917e-15
      vertex -7.79297 -12.6113 -1
      vertex -7.79297 -12.6113 1.54444e-15
    endloop
  endfacet
  facet normal 0.993155 0.116805 0
    outer loop
      vertex -7.79297 -12.6113 -1
      vertex -7.77882 -12.7316 1.55917e-15
      vertex -7.77882 -12.7316 -1
    endloop
  endfacet
  facet normal 0.969133 0.246537 0
    outer loop
      vertex -7.74898 -12.8489 1.57354e-15
      vertex -7.77882 -12.7316 -1
      vertex -7.77882 -12.7316 1.55917e-15
    endloop
  endfacet
  facet normal 0.969133 0.246537 0
    outer loop
      vertex -7.77882 -12.7316 -1
      vertex -7.74898 -12.8489 1.57354e-15
      vertex -7.74898 -12.8489 -1
    endloop
  endfacet
  facet normal 0.924582 0.380983 0
    outer loop
      vertex -7.70393 -12.9582 1.58693e-15
      vertex -7.74898 -12.8489 -1
      vertex -7.74898 -12.8489 1.57354e-15
    endloop
  endfacet
  facet normal 0.924582 0.380983 0
    outer loop
      vertex -7.74898 -12.8489 -1
      vertex -7.70393 -12.9582 1.58693e-15
      vertex -7.70393 -12.9582 -1
    endloop
  endfacet
  facet normal 0.858544 0.51274 0
    outer loop
      vertex -7.6423 -13.0614 1.59956e-15
      vertex -7.70393 -12.9582 -1
      vertex -7.70393 -12.9582 1.58693e-15
    endloop
  endfacet
  facet normal 0.858544 0.51274 0
    outer loop
      vertex -7.70393 -12.9582 -1
      vertex -7.6423 -13.0614 1.59956e-15
      vertex -7.6423 -13.0614 -1
    endloop
  endfacet
  facet normal 0.769581 0.63855 0
    outer loop
      vertex -7.5672 -13.1519 1.61065e-15
      vertex -7.6423 -13.0614 -1
      vertex -7.6423 -13.0614 1.59956e-15
    endloop
  endfacet
  facet normal 0.769581 0.63855 0
    outer loop
      vertex -7.6423 -13.0614 -1
      vertex -7.5672 -13.1519 1.61065e-15
      vertex -7.5672 -13.1519 -1
    endloop
  endfacet
  facet normal 0.661365 0.750064 -0
    outer loop
      vertex -7.47275 -13.2352 -1
      vertex -7.5672 -13.1519 1.61065e-15
      vertex -7.47275 -13.2352 1.62085e-15
    endloop
  endfacet
  facet normal 0.661365 0.750064 0
    outer loop
      vertex -7.5672 -13.1519 1.61065e-15
      vertex -7.47275 -13.2352 -1
      vertex -7.5672 -13.1519 -1
    endloop
  endfacet
  facet normal 0.532328 0.846538 -0
    outer loop
      vertex -7.36615 -13.3023 -1
      vertex -7.47275 -13.2352 1.62085e-15
      vertex -7.36615 -13.3023 1.62906e-15
    endloop
  endfacet
  facet normal 0.532328 0.846538 0
    outer loop
      vertex -7.47275 -13.2352 1.62085e-15
      vertex -7.36615 -13.3023 -1
      vertex -7.47275 -13.2352 -1
    endloop
  endfacet
  facet normal 0.395153 0.918615 -0
    outer loop
      vertex -7.25101 -13.3518 -1
      vertex -7.36615 -13.3023 1.62906e-15
      vertex -7.25101 -13.3518 1.63512e-15
    endloop
  endfacet
  facet normal 0.395153 0.918615 0
    outer loop
      vertex -7.36615 -13.3023 1.62906e-15
      vertex -7.25101 -13.3518 -1
      vertex -7.36615 -13.3023 -1
    endloop
  endfacet
  facet normal 0.258688 0.965961 -0
    outer loop
      vertex -7.1293 -13.3844 -1
      vertex -7.25101 -13.3518 1.63512e-15
      vertex -7.1293 -13.3844 1.63911e-15
    endloop
  endfacet
  facet normal 0.258688 0.965961 0
    outer loop
      vertex -7.25101 -13.3518 1.63512e-15
      vertex -7.1293 -13.3844 -1
      vertex -7.25101 -13.3518 -1
    endloop
  endfacet
  facet normal 0.127725 0.99181 -0
    outer loop
      vertex -7.00264 -13.4007 -1
      vertex -7.1293 -13.3844 1.63911e-15
      vertex -7.00264 -13.4007 1.64111e-15
    endloop
  endfacet
  facet normal 0.127725 0.99181 0
    outer loop
      vertex -7.1293 -13.3844 1.63911e-15
      vertex -7.00264 -13.4007 -1
      vertex -7.1293 -13.3844 -1
    endloop
  endfacet
  facet normal 0.000733417 1 -0
    outer loop
      vertex -4.40201 -13.4026 -1
      vertex -7.00264 -13.4007 1.64111e-15
      vertex -4.40201 -13.4026 1.64135e-15
    endloop
  endfacet
  facet normal 0.000733417 1 0
    outer loop
      vertex -7.00264 -13.4007 1.64111e-15
      vertex -4.40201 -13.4026 -1
      vertex -7.00264 -13.4007 -1
    endloop
  endfacet
  facet normal -0.0950327 0.995474 0
    outer loop
      vertex -4.28021 -13.391 -1
      vertex -4.40201 -13.4026 1.64135e-15
      vertex -4.28021 -13.391 1.63992e-15
    endloop
  endfacet
  facet normal -0.0950327 0.995474 0
    outer loop
      vertex -4.40201 -13.4026 1.64135e-15
      vertex -4.28021 -13.391 -1
      vertex -4.40201 -13.4026 -1
    endloop
  endfacet
  facet normal -0.218093 0.975928 0
    outer loop
      vertex -4.13785 -13.3592 -1
      vertex -4.28021 -13.391 1.63992e-15
      vertex -4.13785 -13.3592 1.63603e-15
    endloop
  endfacet
  facet normal -0.218093 0.975928 0
    outer loop
      vertex -4.28021 -13.391 1.63992e-15
      vertex -4.13785 -13.3592 -1
      vertex -4.28021 -13.391 -1
    endloop
  endfacet
  facet normal -0.339913 0.940457 0
    outer loop
      vertex -3.99866 -13.3089 -1
      vertex -4.13785 -13.3592 1.63603e-15
      vertex -3.99866 -13.3089 1.62986e-15
    endloop
  endfacet
  facet normal -0.339913 0.940457 0
    outer loop
      vertex -4.13785 -13.3592 1.63603e-15
      vertex -3.99866 -13.3089 -1
      vertex -4.13785 -13.3592 -1
    endloop
  endfacet
  facet normal -0.451726 0.892157 0
    outer loop
      vertex -3.8685 -13.243 -1
      vertex -3.99866 -13.3089 1.62986e-15
      vertex -3.8685 -13.243 1.62179e-15
    endloop
  endfacet
  facet normal -0.451726 0.892157 0
    outer loop
      vertex -3.99866 -13.3089 1.62986e-15
      vertex -3.8685 -13.243 -1
      vertex -3.99866 -13.3089 -1
    endloop
  endfacet
  facet normal -0.553252 0.833014 0
    outer loop
      vertex -3.74287 -13.1595 -1
      vertex -3.8685 -13.243 1.62179e-15
      vertex -3.74287 -13.1595 1.61158e-15
    endloop
  endfacet
  facet normal -0.553252 0.833014 0
    outer loop
      vertex -3.8685 -13.243 1.62179e-15
      vertex -3.74287 -13.1595 -1
      vertex -3.8685 -13.243 -1
    endloop
  endfacet
  facet normal -0.649216 0.760604 0
    outer loop
      vertex -3.63055 -13.0636 -1
      vertex -3.74287 -13.1595 1.61158e-15
      vertex -3.63055 -13.0636 1.59984e-15
    endloop
  endfacet
  facet normal -0.649216 0.760604 0
    outer loop
      vertex -3.74287 -13.1595 1.61158e-15
      vertex -3.63055 -13.0636 -1
      vertex -3.74287 -13.1595 -1
    endloop
  endfacet
  facet normal -0.73646 0.676481 0
    outer loop
      vertex -3.63055 -13.0636 -1
      vertex -3.52798 -12.952 1.58616e-15
      vertex -3.52798 -12.952 -1
    endloop
  endfacet
  facet normal -0.73646 0.676481 0
    outer loop
      vertex -3.52798 -12.952 1.58616e-15
      vertex -3.63055 -13.0636 -1
      vertex -3.63055 -13.0636 1.59984e-15
    endloop
  endfacet
  facet normal -0.811091 0.584919 0
    outer loop
      vertex -3.52798 -12.952 -1
      vertex -3.45036 -12.8443 1.57298e-15
      vertex -3.45036 -12.8443 -1
    endloop
  endfacet
  facet normal -0.811091 0.584919 0
    outer loop
      vertex -3.45036 -12.8443 1.57298e-15
      vertex -3.52798 -12.952 -1
      vertex -3.52798 -12.952 1.58616e-15
    endloop
  endfacet
  facet normal -0.873789 0.486305 0
    outer loop
      vertex -3.45036 -12.8443 -1
      vertex -3.38759 -12.7316 1.55917e-15
      vertex -3.38759 -12.7316 -1
    endloop
  endfacet
  facet normal -0.873789 0.486305 0
    outer loop
      vertex -3.38759 -12.7316 1.55917e-15
      vertex -3.45036 -12.8443 -1
      vertex -3.45036 -12.8443 1.57298e-15
    endloop
  endfacet
  facet normal -0.92534 0.379137 0
    outer loop
      vertex -3.38759 -12.7316 -1
      vertex -3.33849 -12.6117 1.54449e-15
      vertex -3.33849 -12.6117 -1
    endloop
  endfacet
  facet normal -0.92534 0.379137 0
    outer loop
      vertex -3.33849 -12.6117 1.54449e-15
      vertex -3.38759 -12.7316 -1
      vertex -3.38759 -12.7316 1.55917e-15
    endloop
  endfacet
  facet normal -0.964798 0.262992 0
    outer loop
      vertex -3.33849 -12.6117 -1
      vertex -3.30608 -12.4928 1.52993e-15
      vertex -3.30608 -12.4928 -1
    endloop
  endfacet
  facet normal -0.964798 0.262992 0
    outer loop
      vertex -3.30608 -12.4928 1.52993e-15
      vertex -3.33849 -12.6117 -1
      vertex -3.33849 -12.6117 1.54449e-15
    endloop
  endfacet
  facet normal -0.945521 0.325562 0
    outer loop
      vertex -3.30608 -12.4928 -1
      vertex 0.217682 -2.25885 2.76629e-16
      vertex 0.217682 -2.25885 -1
    endloop
  endfacet
  facet normal -0.945521 0.325562 0
    outer loop
      vertex 0.217682 -2.25885 2.76629e-16
      vertex -3.30608 -12.4928 -1
      vertex -3.30608 -12.4928 1.52993e-15
    endloop
  endfacet
  facet normal 0.946464 0.322809 0
    outer loop
      vertex 3.70549 -12.485 1.52897e-15
      vertex 0.217682 -2.25885 -1
      vertex 0.217682 -2.25885 2.76629e-16
    endloop
  endfacet
  facet normal 0.946464 0.322809 0
    outer loop
      vertex 0.217682 -2.25885 -1
      vertex 3.70549 -12.485 1.52897e-15
      vertex 3.70549 -12.485 -1
    endloop
  endfacet
  facet normal 0.965343 0.260986 0
    outer loop
      vertex 3.73695 -12.6014 1.54322e-15
      vertex 3.70549 -12.485 -1
      vertex 3.70549 -12.485 1.52897e-15
    endloop
  endfacet
  facet normal 0.965343 0.260986 0
    outer loop
      vertex 3.70549 -12.485 -1
      vertex 3.73695 -12.6014 1.54322e-15
      vertex 3.73695 -12.6014 -1
    endloop
  endfacet
  facet normal 0.9282 0.372082 0
    outer loop
      vertex 3.7865 -12.725 1.55836e-15
      vertex 3.73695 -12.6014 -1
      vertex 3.73695 -12.6014 1.54322e-15
    endloop
  endfacet
  facet normal 0.9282 0.372082 0
    outer loop
      vertex 3.73695 -12.6014 -1
      vertex 3.7865 -12.725 1.55836e-15
      vertex 3.7865 -12.725 -1
    endloop
  endfacet
  facet normal 0.876573 0.48127 0
    outer loop
      vertex 3.8486 -12.8381 1.57221e-15
      vertex 3.7865 -12.725 -1
      vertex 3.7865 -12.725 1.55836e-15
    endloop
  endfacet
  facet normal 0.876573 0.48127 0
    outer loop
      vertex 3.7865 -12.725 -1
      vertex 3.8486 -12.8381 1.57221e-15
      vertex 3.8486 -12.8381 -1
    endloop
  endfacet
  facet normal 0.816761 0.576976 0
    outer loop
      vertex 3.92299 -12.9434 1.58511e-15
      vertex 3.8486 -12.8381 -1
      vertex 3.8486 -12.8381 1.57221e-15
    endloop
  endfacet
  facet normal 0.816761 0.576976 0
    outer loop
      vertex 3.8486 -12.8381 -1
      vertex 3.92299 -12.9434 1.58511e-15
      vertex 3.92299 -12.9434 -1
    endloop
  endfacet
  facet normal 0.749385 0.662134 0
    outer loop
      vertex 4.00833 -13.04 1.59693e-15
      vertex 3.92299 -12.9434 -1
      vertex 3.92299 -12.9434 1.58511e-15
    endloop
  endfacet
  facet normal 0.749385 0.662134 0
    outer loop
      vertex 3.92299 -12.9434 -1
      vertex 4.00833 -13.04 1.59693e-15
      vertex 4.00833 -13.04 -1
    endloop
  endfacet
  facet normal 0.668822 0.743423 -0
    outer loop
      vertex 4.11812 -13.1387 -1
      vertex 4.00833 -13.04 1.59693e-15
      vertex 4.11812 -13.1387 1.60903e-15
    endloop
  endfacet
  facet normal 0.668822 0.743423 0
    outer loop
      vertex 4.00833 -13.04 1.59693e-15
      vertex 4.11812 -13.1387 -1
      vertex 4.00833 -13.04 -1
    endloop
  endfacet
  facet normal 0.576862 0.816841 -0
    outer loop
      vertex 4.23825 -13.2236 -1
      vertex 4.11812 -13.1387 1.60903e-15
      vertex 4.23825 -13.2236 1.61942e-15
    endloop
  endfacet
  facet normal 0.576862 0.816841 0
    outer loop
      vertex 4.11812 -13.1387 1.60903e-15
      vertex 4.23825 -13.2236 -1
      vertex 4.11812 -13.1387 -1
    endloop
  endfacet
  facet normal 0.477258 0.878763 -0
    outer loop
      vertex 4.36977 -13.295 -1
      vertex 4.23825 -13.2236 1.61942e-15
      vertex 4.36977 -13.295 1.62817e-15
    endloop
  endfacet
  facet normal 0.477258 0.878763 0
    outer loop
      vertex 4.23825 -13.2236 1.61942e-15
      vertex 4.36977 -13.295 -1
      vertex 4.23825 -13.2236 -1
    endloop
  endfacet
  facet normal 0.36721 0.930138 -0
    outer loop
      vertex 4.50392 -13.348 -1
      vertex 4.36977 -13.295 1.62817e-15
      vertex 4.50392 -13.348 1.63465e-15
    endloop
  endfacet
  facet normal 0.36721 0.930138 0
    outer loop
      vertex 4.36977 -13.295 1.62817e-15
      vertex 4.50392 -13.348 -1
      vertex 4.36977 -13.295 -1
    endloop
  endfacet
  facet normal 0.249666 0.968332 -0
    outer loop
      vertex 4.64519 -13.3844 -1
      vertex 4.50392 -13.348 1.63465e-15
      vertex 4.64519 -13.3844 1.63911e-15
    endloop
  endfacet
  facet normal 0.249666 0.968332 0
    outer loop
      vertex 4.50392 -13.348 1.63465e-15
      vertex 4.64519 -13.3844 -1
      vertex 4.50392 -13.348 -1
    endloop
  endfacet
  facet normal 0.129365 0.991597 -0
    outer loop
      vertex 4.77022 -13.4007 -1
      vertex 4.64519 -13.3844 1.63911e-15
      vertex 4.77022 -13.4007 1.64111e-15
    endloop
  endfacet
  facet normal 0.129365 0.991597 0
    outer loop
      vertex 4.64519 -13.3844 1.63911e-15
      vertex 4.77022 -13.4007 -1
      vertex 4.64519 -13.3844 -1
    endloop
  endfacet
  facet normal 0.00108362 0.999999 -0
    outer loop
      vertex 7.33302 -13.4035 -1
      vertex 4.77022 -13.4007 1.64111e-15
      vertex 7.33302 -13.4035 1.64145e-15
    endloop
  endfacet
  facet normal 0.00108362 0.999999 0
    outer loop
      vertex 4.77022 -13.4007 1.64111e-15
      vertex 7.33302 -13.4035 -1
      vertex 4.77022 -13.4007 -1
    endloop
  endfacet
  facet normal -0.0347131 0.999397 0
    outer loop
      vertex 7.39584 -13.4013 -1
      vertex 7.33302 -13.4035 1.64145e-15
      vertex 7.39584 -13.4013 1.64118e-15
    endloop
  endfacet
  facet normal -0.0347131 0.999397 0
    outer loop
      vertex 7.33302 -13.4035 1.64145e-15
      vertex 7.39584 -13.4013 -1
      vertex 7.33302 -13.4035 -1
    endloop
  endfacet
  facet normal -0.127852 0.991793 0
    outer loop
      vertex 7.50806 -13.3868 -1
      vertex 7.39584 -13.4013 1.64118e-15
      vertex 7.50806 -13.3868 1.63941e-15
    endloop
  endfacet
  facet normal -0.127852 0.991793 0
    outer loop
      vertex 7.39584 -13.4013 1.64118e-15
      vertex 7.50806 -13.3868 -1
      vertex 7.39584 -13.4013 -1
    endloop
  endfacet
  facet normal -0.251511 0.967854 0
    outer loop
      vertex 7.62561 -13.3563 -1
      vertex 7.50806 -13.3868 1.63941e-15
      vertex 7.62561 -13.3563 1.63567e-15
    endloop
  endfacet
  facet normal -0.251511 0.967854 0
    outer loop
      vertex 7.50806 -13.3868 1.63941e-15
      vertex 7.62561 -13.3563 -1
      vertex 7.50806 -13.3868 -1
    endloop
  endfacet
  facet normal -0.383252 0.923644 0
    outer loop
      vertex 7.73575 -13.3106 -1
      vertex 7.62561 -13.3563 1.63567e-15
      vertex 7.73575 -13.3106 1.63008e-15
    endloop
  endfacet
  facet normal -0.383252 0.923644 0
    outer loop
      vertex 7.62561 -13.3563 1.63567e-15
      vertex 7.73575 -13.3106 -1
      vertex 7.62561 -13.3563 -1
    endloop
  endfacet
  facet normal -0.510429 0.85992 0
    outer loop
      vertex 7.84027 -13.2485 -1
      vertex 7.73575 -13.3106 1.63008e-15
      vertex 7.84027 -13.2485 1.62248e-15
    endloop
  endfacet
  facet normal -0.510429 0.85992 0
    outer loop
      vertex 7.73575 -13.3106 1.63008e-15
      vertex 7.84027 -13.2485 -1
      vertex 7.73575 -13.3106 -1
    endloop
  endfacet
  facet normal -0.630872 0.775887 0
    outer loop
      vertex 7.93114 -13.1747 -1
      vertex 7.84027 -13.2485 1.62248e-15
      vertex 7.93114 -13.1747 1.61343e-15
    endloop
  endfacet
  facet normal -0.630872 0.775887 0
    outer loop
      vertex 7.84027 -13.2485 1.62248e-15
      vertex 7.93114 -13.1747 -1
      vertex 7.84027 -13.2485 -1
    endloop
  endfacet
  facet normal -0.736436 0.676507 0
    outer loop
      vertex 7.93114 -13.1747 -1
      vertex 8.01295 -13.0856 1.60252e-15
      vertex 8.01295 -13.0856 -1
    endloop
  endfacet
  facet normal -0.736436 0.676507 0
    outer loop
      vertex 8.01295 -13.0856 1.60252e-15
      vertex 7.93114 -13.1747 -1
      vertex 7.93114 -13.1747 1.61343e-15
    endloop
  endfacet
  facet normal -0.828839 0.559488 0
    outer loop
      vertex 8.01295 -13.0856 -1
      vertex 8.08113 -12.9846 1.59015e-15
      vertex 8.08113 -12.9846 -1
    endloop
  endfacet
  facet normal -0.828839 0.559488 0
    outer loop
      vertex 8.08113 -12.9846 1.59015e-15
      vertex 8.01295 -13.0856 -1
      vertex 8.01295 -13.0856 1.60252e-15
    endloop
  endfacet
  facet normal -0.902009 0.431717 0
    outer loop
      vertex 8.08113 -12.9846 -1
      vertex 8.13287 -12.8765 1.57691e-15
      vertex 8.13287 -12.8765 -1
    endloop
  endfacet
  facet normal -0.902009 0.431717 0
    outer loop
      vertex 8.13287 -12.8765 1.57691e-15
      vertex 8.08113 -12.9846 -1
      vertex 8.08113 -12.9846 1.59015e-15
    endloop
  endfacet
  facet normal -0.954213 0.299129 0
    outer loop
      vertex 8.13287 -12.8765 -1
      vertex 8.17062 -12.7561 1.56217e-15
      vertex 8.17062 -12.7561 -1
    endloop
  endfacet
  facet normal -0.954213 0.299129 0
    outer loop
      vertex 8.17062 -12.7561 1.56217e-15
      vertex 8.13287 -12.8765 -1
      vertex 8.13287 -12.8765 1.57691e-15
    endloop
  endfacet
  facet normal -0.987025 0.160569 0
    outer loop
      vertex 8.17062 -12.7561 -1
      vertex 8.19086 -12.6317 1.54694e-15
      vertex 8.19086 -12.6317 -1
    endloop
  endfacet
  facet normal -0.987025 0.160569 0
    outer loop
      vertex 8.19086 -12.6317 1.54694e-15
      vertex 8.17062 -12.7561 -1
      vertex 8.17062 -12.7561 1.56217e-15
    endloop
  endfacet
  facet normal -0.999642 0.0267406 0
    outer loop
      vertex 8.19086 -12.6317 -1
      vertex 8.19424 -12.5051 1.53143e-15
      vertex 8.19424 -12.5051 -1
    endloop
  endfacet
  facet normal -0.999642 0.0267406 0
    outer loop
      vertex 8.19424 -12.5051 1.53143e-15
      vertex 8.19086 -12.6317 -1
      vertex 8.19086 -12.6317 1.54694e-15
    endloop
  endfacet
  facet normal -0.995039 -0.0994808 0
    outer loop
      vertex 8.19424 -12.5051 -1
      vertex 8.18111 -12.3736 1.51533e-15
      vertex 8.18111 -12.3736 -1
    endloop
  endfacet
  facet normal -0.995039 -0.0994808 0
    outer loop
      vertex 8.18111 -12.3736 1.51533e-15
      vertex 8.19424 -12.5051 -1
      vertex 8.19424 -12.5051 1.53143e-15
    endloop
  endfacet
  facet normal -0.946079 -0.323937 0
    outer loop
      vertex 8.18111 -12.3736 -1
      vertex 2.44714 4.37277 -5.3551e-16
      vertex 2.44714 4.37277 -1
    endloop
  endfacet
  facet normal -0.946079 -0.323937 0
    outer loop
      vertex 2.44714 4.37277 -5.3551e-16
      vertex 8.18111 -12.3736 -1
      vertex 8.18111 -12.3736 1.51533e-15
    endloop
  endfacet
  facet normal -0.915375 -0.402602 0
    outer loop
      vertex 2.44714 4.37277 -1
      vertex 2.42601 4.42082 -5.41395e-16
      vertex 2.42601 4.42082 -1
    endloop
  endfacet
  facet normal -0.915375 -0.402602 0
    outer loop
      vertex 2.42601 4.42082 -5.41395e-16
      vertex 2.44714 4.37277 -1
      vertex 2.44714 4.37277 -5.3551e-16
    endloop
  endfacet
  facet normal -1 -3.06616e-05 0
    outer loop
      vertex 2.42601 4.42082 -1
      vertex 2.42578 11.8856 -1.45557e-15
      vertex 2.42578 11.8856 -1
    endloop
  endfacet
  facet normal -1 -3.06616e-05 0
    outer loop
      vertex 2.42578 11.8856 -1.45557e-15
      vertex 2.42601 4.42082 -1
      vertex 2.42601 4.42082 -5.41395e-16
    endloop
  endfacet
  facet normal -0.99734 -0.0728861 0
    outer loop
      vertex 2.42578 11.8856 -1
      vertex 2.41734 12.0011 -1.46971e-15
      vertex 2.41734 12.0011 -1
    endloop
  endfacet
  facet normal -0.99734 -0.0728861 0
    outer loop
      vertex 2.41734 12.0011 -1.46971e-15
      vertex 2.42578 11.8856 -1
      vertex 2.42578 11.8856 -1.45557e-15
    endloop
  endfacet
  facet normal -0.9833 -0.181991 0
    outer loop
      vertex 2.41734 12.0011 -1
      vertex 2.39413 12.1265 -1.48506e-15
      vertex 2.39413 12.1265 -1
    endloop
  endfacet
  facet normal -0.9833 -0.181991 0
    outer loop
      vertex 2.39413 12.1265 -1.48506e-15
      vertex 2.41734 12.0011 -1
      vertex 2.41734 12.0011 -1.46971e-15
    endloop
  endfacet
  facet normal -0.953352 -0.301862 0
    outer loop
      vertex 2.39413 12.1265 -1
      vertex 2.35643 12.2455 -1.49965e-15
      vertex 2.35643 12.2455 -1
    endloop
  endfacet
  facet normal -0.953352 -0.301862 0
    outer loop
      vertex 2.35643 12.2455 -1.49965e-15
      vertex 2.39413 12.1265 -1
      vertex 2.39413 12.1265 -1.48506e-15
    endloop
  endfacet
  facet normal -0.907988 -0.418995 0
    outer loop
      vertex 2.35643 12.2455 -1
      vertex 2.30492 12.3572 -1.51332e-15
      vertex 2.30492 12.3572 -1
    endloop
  endfacet
  facet normal -0.907988 -0.418995 0
    outer loop
      vertex 2.30492 12.3572 -1.51332e-15
      vertex 2.35643 12.2455 -1
      vertex 2.35643 12.2455 -1.49965e-15
    endloop
  endfacet
  facet normal -0.847554 -0.530709 0
    outer loop
      vertex 2.30492 12.3572 -1
      vertex 2.24036 12.4603 -1.52594e-15
      vertex 2.24036 12.4603 -1
    endloop
  endfacet
  facet normal -0.847554 -0.530709 0
    outer loop
      vertex 2.24036 12.4603 -1.52594e-15
      vertex 2.30492 12.3572 -1
      vertex 2.30492 12.3572 -1.51332e-15
    endloop
  endfacet
  facet normal -0.773007 -0.634398 0
    outer loop
      vertex 2.24036 12.4603 -1
      vertex 2.1636 12.5538 -1.5374e-15
      vertex 2.1636 12.5538 -1
    endloop
  endfacet
  facet normal -0.773007 -0.634398 0
    outer loop
      vertex 2.1636 12.5538 -1.5374e-15
      vertex 2.24036 12.4603 -1
      vertex 2.24036 12.4603 -1.52594e-15
    endloop
  endfacet
  facet normal -0.685463 -0.728107 0
    outer loop
      vertex 2.07555 12.6367 -1
      vertex 2.1636 12.5538 -1.5374e-15
      vertex 2.07555 12.6367 -1.54755e-15
    endloop
  endfacet
  facet normal -0.685463 -0.728107 -0
    outer loop
      vertex 2.1636 12.5538 -1.5374e-15
      vertex 2.07555 12.6367 -1
      vertex 2.1636 12.5538 -1
    endloop
  endfacet
  facet normal -0.586251 -0.81013 0
    outer loop
      vertex 1.97406 12.7101 -1
      vertex 2.07555 12.6367 -1.54755e-15
      vertex 1.97406 12.7101 -1.55654e-15
    endloop
  endfacet
  facet normal -0.586251 -0.81013 -0
    outer loop
      vertex 2.07555 12.6367 -1.54755e-15
      vertex 1.97406 12.7101 -1
      vertex 2.07555 12.6367 -1
    endloop
  endfacet
  facet normal -0.475678 -0.879619 0
    outer loop
      vertex 1.8661 12.7685 -1
      vertex 1.97406 12.7101 -1.55654e-15
      vertex 1.8661 12.7685 -1.56369e-15
    endloop
  endfacet
  facet normal -0.475678 -0.879619 -0
    outer loop
      vertex 1.97406 12.7101 -1.55654e-15
      vertex 1.8661 12.7685 -1
      vertex 1.97406 12.7101 -1
    endloop
  endfacet
  facet normal -0.360809 -0.93264 0
    outer loop
      vertex 1.74991 12.8135 -1
      vertex 1.8661 12.7685 -1.56369e-15
      vertex 1.74991 12.8135 -1.5692e-15
    endloop
  endfacet
  facet normal -0.360809 -0.93264 -0
    outer loop
      vertex 1.8661 12.7685 -1.56369e-15
      vertex 1.74991 12.8135 -1
      vertex 1.8661 12.7685 -1
    endloop
  endfacet
  facet normal -0.242055 -0.970262 0
    outer loop
      vertex 1.6266 12.8442 -1
      vertex 1.74991 12.8135 -1.5692e-15
      vertex 1.6266 12.8442 -1.57297e-15
    endloop
  endfacet
  facet normal -0.242055 -0.970262 -0
    outer loop
      vertex 1.74991 12.8135 -1.5692e-15
      vertex 1.6266 12.8442 -1
      vertex 1.74991 12.8135 -1
    endloop
  endfacet
  facet normal -0.121657 -0.992572 0
    outer loop
      vertex 1.49725 12.8601 -1
      vertex 1.6266 12.8442 -1.57297e-15
      vertex 1.49725 12.8601 -1.57491e-15
    endloop
  endfacet
  facet normal -0.121657 -0.992572 -0
    outer loop
      vertex 1.6266 12.8442 -1.57297e-15
      vertex 1.49725 12.8601 -1
      vertex 1.6266 12.8442 -1
    endloop
  endfacet
  facet normal -0.000589545 -1 0
    outer loop
      vertex -1.06509 12.8616 -1
      vertex 1.49725 12.8601 -1.57491e-15
      vertex -1.06509 12.8616 -1.57509e-15
    endloop
  endfacet
  facet normal -0.000589545 -1 -0
    outer loop
      vertex 1.49725 12.8601 -1.57491e-15
      vertex -1.06509 12.8616 -1
      vertex 1.49725 12.8601 -1
    endloop
  endfacet
  facet normal 0.0808355 -0.996727 0
    outer loop
      vertex -1.16933 12.8531 -1
      vertex -1.06509 12.8616 -1.57509e-15
      vertex -1.16933 12.8531 -1.57406e-15
    endloop
  endfacet
  facet normal 0.0808355 -0.996727 0
    outer loop
      vertex -1.06509 12.8616 -1.57509e-15
      vertex -1.16933 12.8531 -1
      vertex -1.06509 12.8616 -1
    endloop
  endfacet
  facet normal -0 0 1
    outer loop
      vertex -16.5 7.15 13.3
      vertex -15.5 -7.15 13.3
      vertex -15.5 7.15 13.3
    endloop
  endfacet
  facet normal 0 0 1
    outer loop
      vertex -15.5 -7.15 13.3
      vertex -16.5 7.15 13.3
      vertex -16.5 -7.15 13.3
    endloop
  endfacet
  facet normal 0 1 -0
    outer loop
      vertex -15.5 -7.15 13.3
      vertex -16.5 -7.15 15
      vertex -15.5 -7.15 15
    endloop
  endfacet
  facet normal 0 1 0
    outer loop
      vertex -16.5 -7.15 15
      vertex -15.5 -7.15 13.3
      vertex -16.5 -7.15 13.3
    endloop
  endfacet
  facet normal 0 -1 0
    outer loop
      vertex -16.5 7.15 13.3
      vertex -15.5 7.15 15
      vertex -16.5 7.15 15
    endloop
  endfacet
  facet normal 0 -1 -0
    outer loop
      vertex -15.5 7.15 15
      vertex -16.5 7.15 13.3
      vertex -15.5 7.15 13.3
    endloop
  endfacet
  facet normal -0 0 1
    outer loop
      vertex 15.5 7.15 13.3
      vertex 16.5 -7.15 13.3
      vertex 16.5 7.15 13.3
    endloop
  endfacet
  facet normal 0 0 1
    outer loop
      vertex 16.5 -7.15 13.3
      vertex 15.5 7.15 13.3
      vertex 15.5 -7.15 13.3
    endloop
  endfacet
  facet normal 0 -1 0
    outer loop
      vertex 15.5 7.15 13.3
      vertex 16.5 7.15 15
      vertex 15.5 7.15 15
    endloop
  endfacet
  facet normal 0 -1 -0
    outer loop
      vertex 16.5 7.15 15
      vertex 15.5 7.15 13.3
      vertex 16.5 7.15 13.3
    endloop
  endfacet
  facet normal 0 1 -0
    outer loop
      vertex 16.5 -7.15 13.3
      vertex 15.5 -7.15 15
      vertex 16.5 -7.15 15
    endloop
  endfacet
  facet normal 0 1 0
    outer loop
      vertex 15.5 -7.15 15
      vertex 16.5 -7.15 13.3
      vertex 15.5 -7.15 13.3
    endloop
  endfacet
  facet normal 1 -0 0
    outer loop
      vertex -7.15 -16.5 15
      vertex -7.15 -15.5 13.3
      vertex -7.15 -15.5 15
    endloop
  endfacet
  facet normal 1 0 0
    outer loop
      vertex -7.15 -15.5 13.3
      vertex -7.15 -16.5 15
      vertex -7.15 -16.5 13.3
    endloop
  endfacet
  facet normal -0 0 1
    outer loop
      vertex -7.15 -15.5 13.3
      vertex 7.15 -16.5 13.3
      vertex 7.15 -15.5 13.3
    endloop
  endfacet
  facet normal 0 0 1
    outer loop
      vertex 7.15 -16.5 13.3
      vertex -7.15 -15.5 13.3
      vertex -7.15 -16.5 13.3
    endloop
  endfacet
  facet normal -1 0 0
    outer loop
      vertex 7.15 -16.5 13.3
      vertex 7.15 -15.5 15
      vertex 7.15 -15.5 13.3
    endloop
  endfacet
  facet normal -1 -0 0
    outer loop
      vertex 7.15 -15.5 15
      vertex 7.15 -16.5 13.3
      vertex 7.15 -16.5 15
    endloop
  endfacet
  facet normal 1 -0 0
    outer loop
      vertex -7.15 15.5 15
      vertex -7.15 16.5 13.3
      vertex -7.15 16.5 15
    endloop
  endfacet
  facet normal 1 0 0
    outer loop
      vertex -7.15 16.5 13.3
      vertex -7.15 15.5 15
      vertex -7.15 15.5 13.3
    endloop
  endfacet
  facet normal -0 0 1
    outer loop
      vertex -7.15 16.5 13.3
      vertex 7.15 15.5 13.3
      vertex 7.15 16.5 13.3
    endloop
  endfacet
  facet normal 0 0 1
    outer loop
      vertex 7.15 15.5 13.3
      vertex -7.15 16.5 13.3
      vertex -7.15 15.5 13.3
    endloop
  endfacet
  facet normal -1 0 0
    outer loop
      vertex 7.15 15.5 13.3
      vertex 7.15 16.5 15
      vertex 7.15 16.5 13.3
    endloop
  endfacet
  facet normal -1 -0 0
    outer loop
      vertex 7.15 16.5 15
      vertex 7.15 15.5 13.3
      vertex 7.15 15.5 15
    endloop
  endfacet
endsolid OpenSCAD_Model
