solid OpenSCAD_Model
  facet normal -1 0 0
    outer loop
      vertex -14 -14 0.5
      vertex -14 14 1.5
      vertex -14 14 0.5
    endloop
  endfacet
  facet normal -1 -0 0
    outer loop
      vertex -14 14 1.5
      vertex -14 -14 0.5
      vertex -14 -14 1.5
    endloop
  endfacet
  facet normal 0 0 1
    outer loop
      vertex -4.81458 9.28262 1.5
      vertex -5.40794 -11.8544 1.5
      vertex 0.904037 9.28174 1.5
    endloop
  endfacet
  facet normal 0 0 1
    outer loop
      vertex -4.89897 9.29233 1.5
      vertex -5.40794 -11.8544 1.5
      vertex -4.81458 9.28262 1.5
    endloop
  endfacet
  facet normal 0 0 1
    outer loop
      vertex -4.97972 9.31221 1.5
      vertex -5.40794 -11.8544 1.5
      vertex -4.89897 9.29233 1.5
    endloop
  endfacet
  facet normal 0 0 1
    outer loop
      vertex -5.05615 9.3416 1.5
      vertex -5.40794 -11.8544 1.5
      vertex -4.97972 9.31221 1.5
    endloop
  endfacet
  facet normal 0 0 1
    outer loop
      vertex -5.12758 9.37984 1.5
      vertex -5.40794 -11.8544 1.5
      vertex -5.05615 9.3416 1.5
    endloop
  endfacet
  facet normal 0 0 1
    outer loop
      vertex -5.2058 9.43648 1.5
      vertex -5.40794 -11.8544 1.5
      vertex -5.12758 9.37984 1.5
    endloop
  endfacet
  facet normal 0 0 1
    outer loop
      vertex -14 -14 1.5
      vertex -5.2058 9.43648 1.5
      vertex -5.27472 9.50374 1.5
    endloop
  endfacet
  facet normal 0 0 1
    outer loop
      vertex -14 14 1.5
      vertex -5.27472 9.50374 1.5
      vertex -5.33319 9.58047 1.5
    endloop
  endfacet
  facet normal 0 0 1
    outer loop
      vertex -14 14 1.5
      vertex -5.33319 9.58047 1.5
      vertex -5.3801 9.66554 1.5
    endloop
  endfacet
  facet normal 0 0 1
    outer loop
      vertex -14 14 1.5
      vertex -5.3801 9.66554 1.5
      vertex -5.40948 9.74197 1.5
    endloop
  endfacet
  facet normal 0 0 1
    outer loop
      vertex -5.2058 9.43648 1.5
      vertex -14 -14 1.5
      vertex -5.40794 -11.8544 1.5
    endloop
  endfacet
  facet normal 0 0 1
    outer loop
      vertex -14 14 1.5
      vertex -5.40948 9.74197 1.5
      vertex -5.42937 9.82271 1.5
    endloop
  endfacet
  facet normal 0 0 1
    outer loop
      vertex -5.40794 -11.8544 1.5
      vertex -14 -14 1.5
      vertex -5.42552 -11.9472 1.5
    endloop
  endfacet
  facet normal 0 0 1
    outer loop
      vertex -14 14 1.5
      vertex -5.42937 9.82271 1.5
      vertex -5.43907 9.9071 1.5
    endloop
  endfacet
  facet normal 0 0 1
    outer loop
      vertex 14 -14 1.5
      vertex 5.70616 -9.30661 1.5
      vertex 5.70682 -11.8544 1.5
    endloop
  endfacet
  facet normal 0 0 1
    outer loop
      vertex 14 14 1.5
      vertex 5.69649 -9.22221 1.5
      vertex 5.70616 -9.30661 1.5
    endloop
  endfacet
  facet normal 0 0 1
    outer loop
      vertex 14 14 1.5
      vertex 5.67665 -9.14146 1.5
      vertex 5.69649 -9.22221 1.5
    endloop
  endfacet
  facet normal 0 0 1
    outer loop
      vertex 14 14 1.5
      vertex 5.64734 -9.06505 1.5
      vertex 5.67665 -9.14146 1.5
    endloop
  endfacet
  facet normal 0 0 1
    outer loop
      vertex 14 14 1.5
      vertex 5.60054 -8.97998 1.5
      vertex 5.64734 -9.06505 1.5
    endloop
  endfacet
  facet normal 0 0 1
    outer loop
      vertex 14 14 1.5
      vertex 5.54214 -8.90323 1.5
      vertex 5.60054 -8.97998 1.5
    endloop
  endfacet
  facet normal 0 0 1
    outer loop
      vertex 14 14 1.5
      vertex 5.4733 -8.83597 1.5
      vertex 5.54214 -8.90323 1.5
    endloop
  endfacet
  facet normal 0 0 1
    outer loop
      vertex 14 14 1.5
      vertex 5.39511 -8.77934 1.5
      vertex 5.4733 -8.83597 1.5
    endloop
  endfacet
  facet normal 0 0 1
    outer loop
      vertex 5.71202 12.4548 1.5
      vertex 5.32367 -8.7411 1.5
      vertex 5.39511 -8.77934 1.5
    endloop
  endfacet
  facet normal 0 0 1
    outer loop
      vertex 5.71202 12.4548 1.5
      vertex 5.24718 -8.71172 1.5
      vertex 5.32367 -8.7411 1.5
    endloop
  endfacet
  facet normal 0 0 1
    outer loop
      vertex 5.71202 12.4548 1.5
      vertex 5.16632 -8.69183 1.5
      vertex 5.24718 -8.71172 1.5
    endloop
  endfacet
  facet normal 0 0 1
    outer loop
      vertex 5.71202 12.4548 1.5
      vertex 5.08176 -8.68213 1.5
      vertex 5.16632 -8.69183 1.5
    endloop
  endfacet
  facet normal 0 -0 1
    outer loop
      vertex 5.08176 -8.68213 1.5
      vertex 5.71202 12.4548 1.5
      vertex -0.599945 -8.68124 1.5
    endloop
  endfacet
  facet normal 0 0 1
    outer loop
      vertex 5.72964 12.5478 1.5
      vertex 14 14 1.5
      vertex 5.73544 12.6359 1.5
    endloop
  endfacet
  facet normal 0 0 1
    outer loop
      vertex 14 14 1.5
      vertex 5.72998 12.7187 1.5
      vertex 5.73544 12.6359 1.5
    endloop
  endfacet
  facet normal 0 0 1
    outer loop
      vertex 14 14 1.5
      vertex 5.71381 12.7956 1.5
      vertex 5.72998 12.7187 1.5
    endloop
  endfacet
  facet normal 0 0 1
    outer loop
      vertex 14 14 1.5
      vertex 5.68747 12.866 1.5
      vertex 5.71381 12.7956 1.5
    endloop
  endfacet
  facet normal 0 0 1
    outer loop
      vertex 14 14 1.5
      vertex 5.65152 12.9294 1.5
      vertex 5.68747 12.866 1.5
    endloop
  endfacet
  facet normal 0 0 1
    outer loop
      vertex 14 14 1.5
      vertex 5.60649 12.9853 1.5
      vertex 5.65152 12.9294 1.5
    endloop
  endfacet
  facet normal 0 0 1
    outer loop
      vertex 14 14 1.5
      vertex 5.55295 13.0331 1.5
      vertex 5.60649 12.9853 1.5
    endloop
  endfacet
  facet normal 0 0 1
    outer loop
      vertex 14 14 1.5
      vertex 5.49142 13.0722 1.5
      vertex 5.55295 13.0331 1.5
    endloop
  endfacet
  facet normal 0 0 1
    outer loop
      vertex 14 14 1.5
      vertex 5.42249 13.102 1.5
      vertex 5.49142 13.0722 1.5
    endloop
  endfacet
  facet normal 0 0 1
    outer loop
      vertex 14 14 1.5
      vertex 5.34668 13.1221 1.5
      vertex 5.42249 13.102 1.5
    endloop
  endfacet
  facet normal 0 0 1
    outer loop
      vertex 14 14 1.5
      vertex 5.26454 13.1319 1.5
      vertex 5.34668 13.1221 1.5
    endloop
  endfacet
  facet normal 0 0 1
    outer loop
      vertex 14 14 1.5
      vertex -4.81458 13.1319 1.5
      vertex 5.26454 13.1319 1.5
    endloop
  endfacet
  facet normal 0 0 1
    outer loop
      vertex -5.43214 12.5478 1.5
      vertex -14 14 1.5
      vertex -5.43973 12.4548 1.5
    endloop
  endfacet
  facet normal 0 0 1
    outer loop
      vertex -5.41425 12.6359 1.5
      vertex -14 14 1.5
      vertex -5.43214 12.5478 1.5
    endloop
  endfacet
  facet normal 0 0 1
    outer loop
      vertex -5.3867 12.7187 1.5
      vertex -14 14 1.5
      vertex -5.41425 12.6359 1.5
    endloop
  endfacet
  facet normal 0 0 1
    outer loop
      vertex -5.35017 12.7956 1.5
      vertex -14 14 1.5
      vertex -5.3867 12.7187 1.5
    endloop
  endfacet
  facet normal 0 0 1
    outer loop
      vertex -5.30533 12.866 1.5
      vertex -14 14 1.5
      vertex -5.35017 12.7956 1.5
    endloop
  endfacet
  facet normal 0 0 1
    outer loop
      vertex -5.25284 12.9294 1.5
      vertex -14 14 1.5
      vertex -5.30533 12.866 1.5
    endloop
  endfacet
  facet normal 0 0 1
    outer loop
      vertex -5.19337 12.9853 1.5
      vertex -14 14 1.5
      vertex -5.25284 12.9294 1.5
    endloop
  endfacet
  facet normal 0 0 1
    outer loop
      vertex -5.12758 13.0331 1.5
      vertex -14 14 1.5
      vertex -5.19337 12.9853 1.5
    endloop
  endfacet
  facet normal 0 0 1
    outer loop
      vertex -5.05615 13.0722 1.5
      vertex -14 14 1.5
      vertex -5.12758 13.0331 1.5
    endloop
  endfacet
  facet normal 0 0 1
    outer loop
      vertex -4.97972 13.102 1.5
      vertex -14 14 1.5
      vertex -5.05615 13.0722 1.5
    endloop
  endfacet
  facet normal 0 0 1
    outer loop
      vertex -4.89897 13.1221 1.5
      vertex -14 14 1.5
      vertex -4.97972 13.102 1.5
    endloop
  endfacet
  facet normal 0 0 1
    outer loop
      vertex -4.81458 13.1319 1.5
      vertex -14 14 1.5
      vertex -4.89897 13.1221 1.5
    endloop
  endfacet
  facet normal -0 0 1
    outer loop
      vertex -14 14 1.5
      vertex -4.81458 13.1319 1.5
      vertex 14 14 1.5
    endloop
  endfacet
  facet normal 0 0 1
    outer loop
      vertex 5.71202 12.4548 1.5
      vertex 14 14 1.5
      vertex 5.72964 12.5478 1.5
    endloop
  endfacet
  facet normal 0 0 1
    outer loop
      vertex 5.39511 -8.77934 1.5
      vertex 14 14 1.5
      vertex 5.71202 12.4548 1.5
    endloop
  endfacet
  facet normal -0 0 1
    outer loop
      vertex 5.70616 -9.30661 1.5
      vertex 14 -14 1.5
      vertex 14 14 1.5
    endloop
  endfacet
  facet normal -0 0 1
    outer loop
      vertex 5.69925 -11.9472 1.5
      vertex 14 -14 1.5
      vertex 5.70682 -11.8544 1.5
    endloop
  endfacet
  facet normal -0 0 1
    outer loop
      vertex 5.6814 -12.0353 1.5
      vertex 14 -14 1.5
      vertex 5.69925 -11.9472 1.5
    endloop
  endfacet
  facet normal -0 0 1
    outer loop
      vertex 5.65393 -12.118 1.5
      vertex 14 -14 1.5
      vertex 5.6814 -12.0353 1.5
    endloop
  endfacet
  facet normal -0 0 1
    outer loop
      vertex 5.61748 -12.1948 1.5
      vertex 14 -14 1.5
      vertex 5.65393 -12.118 1.5
    endloop
  endfacet
  facet normal -0 0 1
    outer loop
      vertex 5.57272 -12.2651 1.5
      vertex 14 -14 1.5
      vertex 5.61748 -12.1948 1.5
    endloop
  endfacet
  facet normal -0 0 1
    outer loop
      vertex 5.52029 -12.3284 1.5
      vertex 14 -14 1.5
      vertex 5.57272 -12.2651 1.5
    endloop
  endfacet
  facet normal -0 0 1
    outer loop
      vertex 5.46088 -12.3842 1.5
      vertex 14 -14 1.5
      vertex 5.52029 -12.3284 1.5
    endloop
  endfacet
  facet normal -0 0 1
    outer loop
      vertex 5.39511 -12.4318 1.5
      vertex 14 -14 1.5
      vertex 5.46088 -12.3842 1.5
    endloop
  endfacet
  facet normal -0 0 1
    outer loop
      vertex 5.32367 -12.4708 1.5
      vertex 14 -14 1.5
      vertex 5.39511 -12.4318 1.5
    endloop
  endfacet
  facet normal -0 0 1
    outer loop
      vertex 5.24718 -12.5006 1.5
      vertex 14 -14 1.5
      vertex 5.32367 -12.4708 1.5
    endloop
  endfacet
  facet normal -0 0 1
    outer loop
      vertex 5.16632 -12.5206 1.5
      vertex 14 -14 1.5
      vertex 5.24718 -12.5006 1.5
    endloop
  endfacet
  facet normal -0 0 1
    outer loop
      vertex 5.08176 -12.5304 1.5
      vertex 14 -14 1.5
      vertex 5.16632 -12.5206 1.5
    endloop
  endfacet
  facet normal -0 0 1
    outer loop
      vertex -4.92776 -12.5304 1.5
      vertex 14 -14 1.5
      vertex 5.08176 -12.5304 1.5
    endloop
  endfacet
  facet normal 0 0 1
    outer loop
      vertex -14 14 1.5
      vertex -5.43907 9.9071 1.5
      vertex -5.43973 12.4548 1.5
    endloop
  endfacet
  facet normal 0 0 1
    outer loop
      vertex -5.27472 9.50374 1.5
      vertex -14 14 1.5
      vertex -14 -14 1.5
    endloop
  endfacet
  facet normal 0 0 1
    outer loop
      vertex -5.42552 -11.9472 1.5
      vertex -14 -14 1.5
      vertex -5.43117 -12.0353 1.5
    endloop
  endfacet
  facet normal 0 0 1
    outer loop
      vertex -5.43117 -12.0353 1.5
      vertex -14 -14 1.5
      vertex -5.42531 -12.118 1.5
    endloop
  endfacet
  facet normal 0 0 1
    outer loop
      vertex -4.92776 -12.5304 1.5
      vertex -14 -14 1.5
      vertex 14 -14 1.5
    endloop
  endfacet
  facet normal 0 0 1
    outer loop
      vertex -5.0173 -12.5206 1.5
      vertex -14 -14 1.5
      vertex -4.92776 -12.5304 1.5
    endloop
  endfacet
  facet normal 0 0 1
    outer loop
      vertex -5.0993 -12.5006 1.5
      vertex -14 -14 1.5
      vertex -5.0173 -12.5206 1.5
    endloop
  endfacet
  facet normal 0 0 1
    outer loop
      vertex -5.17332 -12.4708 1.5
      vertex -14 -14 1.5
      vertex -5.0993 -12.5006 1.5
    endloop
  endfacet
  facet normal 0 0 1
    outer loop
      vertex -5.23894 -12.4318 1.5
      vertex -14 -14 1.5
      vertex -5.17332 -12.4708 1.5
    endloop
  endfacet
  facet normal 0 0 1
    outer loop
      vertex -5.29568 -12.3842 1.5
      vertex -14 -14 1.5
      vertex -5.23894 -12.4318 1.5
    endloop
  endfacet
  facet normal 0 0 1
    outer loop
      vertex -5.34314 -12.3284 1.5
      vertex -14 -14 1.5
      vertex -5.29568 -12.3842 1.5
    endloop
  endfacet
  facet normal 0 0 1
    outer loop
      vertex -5.38086 -12.2651 1.5
      vertex -14 -14 1.5
      vertex -5.34314 -12.3284 1.5
    endloop
  endfacet
  facet normal 0 0 1
    outer loop
      vertex -5.40839 -12.1948 1.5
      vertex -14 -14 1.5
      vertex -5.38086 -12.2651 1.5
    endloop
  endfacet
  facet normal 0 0 1
    outer loop
      vertex -5.42531 -12.118 1.5
      vertex -14 -14 1.5
      vertex -5.40839 -12.1948 1.5
    endloop
  endfacet
  facet normal 1 -0 0
    outer loop
      vertex 14 -14 1.5
      vertex 14 14 0.5
      vertex 14 14 1.5
    endloop
  endfacet
  facet normal 1 0 0
    outer loop
      vertex 14 14 0.5
      vertex 14 -14 1.5
      vertex 14 -14 0.5
    endloop
  endfacet
  facet normal 0 1 -0
    outer loop
      vertex 14 14 0.5
      vertex -14 14 1.5
      vertex 14 14 1.5
    endloop
  endfacet
  facet normal 0 1 0
    outer loop
      vertex -14 14 1.5
      vertex 14 14 0.5
      vertex -14 14 0.5
    endloop
  endfacet
  facet normal 0 0 -1
    outer loop
      vertex -14 -14 0.5
      vertex 14 14 0.5
      vertex 14 -14 0.5
    endloop
  endfacet
  facet normal -0 0 -1
    outer loop
      vertex 14 14 0.5
      vertex -14 -14 0.5
      vertex -14 14 0.5
    endloop
  endfacet
  facet normal 0 -1 0
    outer loop
      vertex -14 -14 0.5
      vertex 14 -14 1.5
      vertex -14 -14 1.5
    endloop
  endfacet
  facet normal 0 -1 -0
    outer loop
      vertex 14 -14 1.5
      vertex -14 -14 0.5
      vertex 14 -14 0.5
    endloop
  endfacet
  facet normal -0 0 1
    outer loop
      vertex -4.81458 13.1319 3
      vertex 0.904037 9.28174 3
      vertex 5.26454 13.1319 3
    endloop
  endfacet
  facet normal 0 0 1
    outer loop
      vertex -4.81458 13.1319 3
      vertex -4.81458 9.28262 3
      vertex 0.904037 9.28174 3
    endloop
  endfacet
  facet normal 0 0 1
    outer loop
      vertex -5.43973 12.4548 3
      vertex -4.81458 13.1319 3
      vertex -4.89897 13.1221 3
    endloop
  endfacet
  facet normal 0 0 1
    outer loop
      vertex -4.81458 13.1319 3
      vertex -5.43973 12.4548 3
      vertex -4.81458 9.28262 3
    endloop
  endfacet
  facet normal 0 0 1
    outer loop
      vertex -5.43973 12.4548 3
      vertex -4.89897 13.1221 3
      vertex -4.97972 13.102 3
    endloop
  endfacet
  facet normal -0 -0 1
    outer loop
      vertex -5.43907 9.9071 3
      vertex -4.81458 9.28262 3
      vertex -5.43973 12.4548 3
    endloop
  endfacet
  facet normal 0 0 1
    outer loop
      vertex -5.43973 12.4548 3
      vertex -4.97972 13.102 3
      vertex -5.05615 13.0722 3
    endloop
  endfacet
  facet normal 0 0 1
    outer loop
      vertex -4.81458 9.28262 3
      vertex -5.43907 9.9071 3
      vertex -4.89897 9.29233 3
    endloop
  endfacet
  facet normal 0 0 1
    outer loop
      vertex -5.43973 12.4548 3
      vertex -5.05615 13.0722 3
      vertex -5.12758 13.0331 3
    endloop
  endfacet
  facet normal 0 0 1
    outer loop
      vertex -4.89897 9.29233 3
      vertex -5.43907 9.9071 3
      vertex -4.97972 9.31221 3
    endloop
  endfacet
  facet normal 0 0 1
    outer loop
      vertex -5.43973 12.4548 3
      vertex -5.12758 13.0331 3
      vertex -5.19337 12.9853 3
    endloop
  endfacet
  facet normal 0 0 1
    outer loop
      vertex -4.97972 9.31221 3
      vertex -5.43907 9.9071 3
      vertex -5.05615 9.3416 3
    endloop
  endfacet
  facet normal 0 0 1
    outer loop
      vertex -5.43973 12.4548 3
      vertex -5.19337 12.9853 3
      vertex -5.25284 12.9294 3
    endloop
  endfacet
  facet normal 0 0 1
    outer loop
      vertex -5.05615 9.3416 3
      vertex -5.43907 9.9071 3
      vertex -5.12758 9.37984 3
    endloop
  endfacet
  facet normal 0 0 1
    outer loop
      vertex -5.43973 12.4548 3
      vertex -5.25284 12.9294 3
      vertex -5.30533 12.866 3
    endloop
  endfacet
  facet normal 0 0 1
    outer loop
      vertex -5.12758 9.37984 3
      vertex -5.43907 9.9071 3
      vertex -5.2058 9.43648 3
    endloop
  endfacet
  facet normal 0 0 1
    outer loop
      vertex -5.43973 12.4548 3
      vertex -5.30533 12.866 3
      vertex -5.35017 12.7956 3
    endloop
  endfacet
  facet normal 0 0 1
    outer loop
      vertex -5.2058 9.43648 3
      vertex -5.43907 9.9071 3
      vertex -5.27472 9.50374 3
    endloop
  endfacet
  facet normal 0 0 1
    outer loop
      vertex -5.43973 12.4548 3
      vertex -5.35017 12.7956 3
      vertex -5.3867 12.7187 3
    endloop
  endfacet
  facet normal 0 0 1
    outer loop
      vertex -5.27472 9.50374 3
      vertex -5.43907 9.9071 3
      vertex -5.33319 9.58047 3
    endloop
  endfacet
  facet normal 0 0 1
    outer loop
      vertex -5.43973 12.4548 3
      vertex -5.3867 12.7187 3
      vertex -5.41425 12.6359 3
    endloop
  endfacet
  facet normal 0 0 1
    outer loop
      vertex -5.33319 9.58047 3
      vertex -5.43907 9.9071 3
      vertex -5.3801 9.66554 3
    endloop
  endfacet
  facet normal 0 0 1
    outer loop
      vertex -5.43973 12.4548 3
      vertex -5.41425 12.6359 3
      vertex -5.43214 12.5478 3
    endloop
  endfacet
  facet normal 0 0 1
    outer loop
      vertex -5.3801 9.66554 3
      vertex -5.43907 9.9071 3
      vertex -5.40948 9.74197 3
    endloop
  endfacet
  facet normal 0 0 1
    outer loop
      vertex -5.40948 9.74197 3
      vertex -5.43907 9.9071 3
      vertex -5.42937 9.82271 3
    endloop
  endfacet
  facet normal 0 0 1
    outer loop
      vertex 5.26454 13.1319 3
      vertex 5.73544 12.6359 3
      vertex 5.72998 12.7187 3
    endloop
  endfacet
  facet normal 0 0 1
    outer loop
      vertex 5.34668 13.1221 3
      vertex 5.72998 12.7187 3
      vertex 5.71381 12.7956 3
    endloop
  endfacet
  facet normal 0 0 1
    outer loop
      vertex 5.73544 12.6359 3
      vertex 5.26454 13.1319 3
      vertex 5.72964 12.5478 3
    endloop
  endfacet
  facet normal 0 0 1
    outer loop
      vertex 5.42249 13.102 3
      vertex 5.71381 12.7956 3
      vertex 5.68747 12.866 3
    endloop
  endfacet
  facet normal 0 0 1
    outer loop
      vertex 5.42249 13.102 3
      vertex 5.68747 12.866 3
      vertex 5.65152 12.9294 3
    endloop
  endfacet
  facet normal 0 0 1
    outer loop
      vertex 5.42249 13.102 3
      vertex 5.65152 12.9294 3
      vertex 5.60649 12.9853 3
    endloop
  endfacet
  facet normal 0 0 1
    outer loop
      vertex 5.49142 13.0722 3
      vertex 5.60649 12.9853 3
      vertex 5.55295 13.0331 3
    endloop
  endfacet
  facet normal 0 0 1
    outer loop
      vertex 5.42249 13.102 3
      vertex 5.60649 12.9853 3
      vertex 5.49142 13.0722 3
    endloop
  endfacet
  facet normal 0 0 1
    outer loop
      vertex 5.71381 12.7956 3
      vertex 5.42249 13.102 3
      vertex 5.34668 13.1221 3
    endloop
  endfacet
  facet normal 0 0 1
    outer loop
      vertex 5.72998 12.7187 3
      vertex 5.34668 13.1221 3
      vertex 5.26454 13.1319 3
    endloop
  endfacet
  facet normal 0 0 1
    outer loop
      vertex 5.72964 12.5478 3
      vertex 5.26454 13.1319 3
      vertex 5.71202 12.4548 3
    endloop
  endfacet
  facet normal 0 0 1
    outer loop
      vertex 0.904037 9.28174 3
      vertex 5.71202 12.4548 3
      vertex 5.26454 13.1319 3
    endloop
  endfacet
  facet normal -0 0 1
    outer loop
      vertex 0.904037 9.28174 3
      vertex -0.599945 -8.68124 3
      vertex 5.71202 12.4548 3
    endloop
  endfacet
  facet normal 0 0 1
    outer loop
      vertex -5.40794 -11.8544 3
      vertex -0.599945 -8.68124 3
      vertex 0.904037 9.28174 3
    endloop
  endfacet
  facet normal 0 0 1
    outer loop
      vertex -0.599945 -8.68124 3
      vertex -5.40794 -11.8544 3
      vertex -4.92776 -12.5304 3
    endloop
  endfacet
  facet normal -0 0 1
    outer loop
      vertex -5.42552 -11.9472 3
      vertex -4.92776 -12.5304 3
      vertex -5.40794 -11.8544 3
    endloop
  endfacet
  facet normal 0 0 1
    outer loop
      vertex -4.92776 -12.5304 3
      vertex -5.42552 -11.9472 3
      vertex -5.0173 -12.5206 3
    endloop
  endfacet
  facet normal -0 0 1
    outer loop
      vertex -5.43117 -12.0353 3
      vertex -5.0173 -12.5206 3
      vertex -5.42552 -11.9472 3
    endloop
  endfacet
  facet normal 0 0 1
    outer loop
      vertex -5.0173 -12.5206 3
      vertex -5.43117 -12.0353 3
      vertex -5.0993 -12.5006 3
    endloop
  endfacet
  facet normal -0 -0 1
    outer loop
      vertex -5.42531 -12.118 3
      vertex -5.0993 -12.5006 3
      vertex -5.43117 -12.0353 3
    endloop
  endfacet
  facet normal 0 0 1
    outer loop
      vertex -5.0993 -12.5006 3
      vertex -5.42531 -12.118 3
      vertex -5.17332 -12.4708 3
    endloop
  endfacet
  facet normal 0 0 1
    outer loop
      vertex -5.17332 -12.4708 3
      vertex -5.42531 -12.118 3
      vertex -5.23894 -12.4318 3
    endloop
  endfacet
  facet normal 0 0 1
    outer loop
      vertex -5.23894 -12.4318 3
      vertex -5.42531 -12.118 3
      vertex -5.29568 -12.3842 3
    endloop
  endfacet
  facet normal 0 0 1
    outer loop
      vertex -5.29568 -12.3842 3
      vertex -5.42531 -12.118 3
      vertex -5.34314 -12.3284 3
    endloop
  endfacet
  facet normal 0 0 1
    outer loop
      vertex -5.34314 -12.3284 3
      vertex -5.42531 -12.118 3
      vertex -5.38086 -12.2651 3
    endloop
  endfacet
  facet normal 0 0 1
    outer loop
      vertex -5.38086 -12.2651 3
      vertex -5.42531 -12.118 3
      vertex -5.40839 -12.1948 3
    endloop
  endfacet
  facet normal 0 0 1
    outer loop
      vertex 5.08176 -8.68213 3
      vertex 5.70682 -11.8544 3
      vertex 5.70616 -9.30661 3
    endloop
  endfacet
  facet normal 0 0 1
    outer loop
      vertex 5.08176 -8.68213 3
      vertex 5.70616 -9.30661 3
      vertex 5.69649 -9.22221 3
    endloop
  endfacet
  facet normal 0 0 1
    outer loop
      vertex 5.70682 -11.8544 3
      vertex 5.08176 -8.68213 3
      vertex 5.08176 -12.5304 3
    endloop
  endfacet
  facet normal 0 0 1
    outer loop
      vertex 5.08176 -8.68213 3
      vertex 5.69649 -9.22221 3
      vertex 5.67665 -9.14146 3
    endloop
  endfacet
  facet normal 0 0 1
    outer loop
      vertex 5.70682 -11.8544 3
      vertex 5.08176 -12.5304 3
      vertex 5.69925 -11.9472 3
    endloop
  endfacet
  facet normal 0 0 1
    outer loop
      vertex 5.08176 -8.68213 3
      vertex 5.67665 -9.14146 3
      vertex 5.64734 -9.06505 3
    endloop
  endfacet
  facet normal 0 0 1
    outer loop
      vertex 5.69925 -11.9472 3
      vertex 5.08176 -12.5304 3
      vertex 5.6814 -12.0353 3
    endloop
  endfacet
  facet normal 0 0 1
    outer loop
      vertex 5.08176 -8.68213 3
      vertex 5.64734 -9.06505 3
      vertex 5.60054 -8.97998 3
    endloop
  endfacet
  facet normal 0 0 1
    outer loop
      vertex 5.6814 -12.0353 3
      vertex 5.08176 -12.5304 3
      vertex 5.65393 -12.118 3
    endloop
  endfacet
  facet normal 0 0 1
    outer loop
      vertex 5.08176 -8.68213 3
      vertex 5.60054 -8.97998 3
      vertex 5.54214 -8.90323 3
    endloop
  endfacet
  facet normal 0 0 1
    outer loop
      vertex 5.65393 -12.118 3
      vertex 5.08176 -12.5304 3
      vertex 5.61748 -12.1948 3
    endloop
  endfacet
  facet normal 0 0 1
    outer loop
      vertex 5.08176 -8.68213 3
      vertex 5.54214 -8.90323 3
      vertex 5.4733 -8.83597 3
    endloop
  endfacet
  facet normal 0 0 1
    outer loop
      vertex 5.61748 -12.1948 3
      vertex 5.08176 -12.5304 3
      vertex 5.57272 -12.2651 3
    endloop
  endfacet
  facet normal 0 0 1
    outer loop
      vertex 5.08176 -8.68213 3
      vertex 5.4733 -8.83597 3
      vertex 5.39511 -8.77934 3
    endloop
  endfacet
  facet normal 0 0 1
    outer loop
      vertex 5.57272 -12.2651 3
      vertex 5.08176 -12.5304 3
      vertex 5.52029 -12.3284 3
    endloop
  endfacet
  facet normal 0 0 1
    outer loop
      vertex 5.08176 -8.68213 3
      vertex 5.39511 -8.77934 3
      vertex 5.32367 -8.7411 3
    endloop
  endfacet
  facet normal 0 0 1
    outer loop
      vertex 5.52029 -12.3284 3
      vertex 5.08176 -12.5304 3
      vertex 5.46088 -12.3842 3
    endloop
  endfacet
  facet normal 0 0 1
    outer loop
      vertex 5.08176 -8.68213 3
      vertex 5.32367 -8.7411 3
      vertex 5.24718 -8.71172 3
    endloop
  endfacet
  facet normal 0 0 1
    outer loop
      vertex 5.46088 -12.3842 3
      vertex 5.08176 -12.5304 3
      vertex 5.39511 -12.4318 3
    endloop
  endfacet
  facet normal 0 0 1
    outer loop
      vertex 5.08176 -8.68213 3
      vertex 5.24718 -8.71172 3
      vertex 5.16632 -8.69183 3
    endloop
  endfacet
  facet normal 0 0 1
    outer loop
      vertex 5.39511 -12.4318 3
      vertex 5.08176 -12.5304 3
      vertex 5.32367 -12.4708 3
    endloop
  endfacet
  facet normal 0 0 1
    outer loop
      vertex 5.32367 -12.4708 3
      vertex 5.08176 -12.5304 3
      vertex 5.24718 -12.5006 3
    endloop
  endfacet
  facet normal 0 0 1
    outer loop
      vertex 5.24718 -12.5006 3
      vertex 5.08176 -12.5304 3
      vertex 5.16632 -12.5206 3
    endloop
  endfacet
  facet normal 0 0 1
    outer loop
      vertex -0.599945 -8.68124 3
      vertex 5.08176 -12.5304 3
      vertex 5.08176 -8.68213 3
    endloop
  endfacet
  facet normal 0 0 1
    outer loop
      vertex 5.08176 -12.5304 3
      vertex -0.599945 -8.68124 3
      vertex -4.92776 -12.5304 3
    endloop
  endfacet
  facet normal 0 -1 0
    outer loop
      vertex -4.92776 -12.5304 1.5
      vertex 5.08176 -12.5304 3
      vertex -4.92776 -12.5304 3
    endloop
  endfacet
  facet normal 0 -1 -0
    outer loop
      vertex 5.08176 -12.5304 3
      vertex -4.92776 -12.5304 1.5
      vertex 5.08176 -12.5304 1.5
    endloop
  endfacet
  facet normal 0.114189 -0.993459 0
    outer loop
      vertex 5.08176 -12.5304 1.5
      vertex 5.16632 -12.5206 3
      vertex 5.08176 -12.5304 3
    endloop
  endfacet
  facet normal 0.114189 -0.993459 0
    outer loop
      vertex 5.16632 -12.5206 3
      vertex 5.08176 -12.5304 1.5
      vertex 5.16632 -12.5206 1.5
    endloop
  endfacet
  facet normal 0.240509 -0.970647 0
    outer loop
      vertex 5.16632 -12.5206 1.5
      vertex 5.24718 -12.5006 3
      vertex 5.16632 -12.5206 3
    endloop
  endfacet
  facet normal 0.240509 -0.970647 0
    outer loop
      vertex 5.24718 -12.5006 3
      vertex 5.16632 -12.5206 1.5
      vertex 5.24718 -12.5006 1.5
    endloop
  endfacet
  facet normal 0.362688 -0.93191 0
    outer loop
      vertex 5.24718 -12.5006 1.5
      vertex 5.32367 -12.4708 3
      vertex 5.24718 -12.5006 3
    endloop
  endfacet
  facet normal 0.362688 -0.93191 0
    outer loop
      vertex 5.32367 -12.4708 3
      vertex 5.24718 -12.5006 1.5
      vertex 5.32367 -12.4708 1.5
    endloop
  endfacet
  facet normal 0.479167 -0.877724 0
    outer loop
      vertex 5.32367 -12.4708 1.5
      vertex 5.39511 -12.4318 3
      vertex 5.32367 -12.4708 3
    endloop
  endfacet
  facet normal 0.479167 -0.877724 0
    outer loop
      vertex 5.39511 -12.4318 3
      vertex 5.32367 -12.4708 1.5
      vertex 5.39511 -12.4318 1.5
    endloop
  endfacet
  facet normal 0.586629 -0.809856 0
    outer loop
      vertex 5.39511 -12.4318 1.5
      vertex 5.46088 -12.3842 3
      vertex 5.39511 -12.4318 3
    endloop
  endfacet
  facet normal 0.586629 -0.809856 0
    outer loop
      vertex 5.46088 -12.3842 3
      vertex 5.39511 -12.4318 1.5
      vertex 5.46088 -12.3842 1.5
    endloop
  endfacet
  facet normal 0.684277 -0.729222 0
    outer loop
      vertex 5.46088 -12.3842 1.5
      vertex 5.52029 -12.3284 3
      vertex 5.46088 -12.3842 3
    endloop
  endfacet
  facet normal 0.684277 -0.729222 0
    outer loop
      vertex 5.52029 -12.3284 3
      vertex 5.46088 -12.3842 1.5
      vertex 5.52029 -12.3284 1.5
    endloop
  endfacet
  facet normal 0.770256 -0.637735 0
    outer loop
      vertex 5.52029 -12.3284 3
      vertex 5.57272 -12.2651 1.5
      vertex 5.57272 -12.2651 3
    endloop
  endfacet
  facet normal 0.770256 -0.637735 0
    outer loop
      vertex 5.57272 -12.2651 1.5
      vertex 5.52029 -12.3284 3
      vertex 5.52029 -12.3284 1.5
    endloop
  endfacet
  facet normal 0.843661 -0.536875 0
    outer loop
      vertex 5.57272 -12.2651 3
      vertex 5.61748 -12.1948 1.5
      vertex 5.61748 -12.1948 3
    endloop
  endfacet
  facet normal 0.843661 -0.536875 0
    outer loop
      vertex 5.61748 -12.1948 1.5
      vertex 5.57272 -12.2651 3
      vertex 5.57272 -12.2651 1.5
    endloop
  endfacet
  facet normal 0.903361 -0.428881 0
    outer loop
      vertex 5.61748 -12.1948 3
      vertex 5.65393 -12.118 1.5
      vertex 5.65393 -12.118 3
    endloop
  endfacet
  facet normal 0.903361 -0.428881 0
    outer loop
      vertex 5.65393 -12.118 1.5
      vertex 5.61748 -12.1948 3
      vertex 5.61748 -12.1948 1.5
    endloop
  endfacet
  facet normal 0.949033 -0.315177 0
    outer loop
      vertex 5.65393 -12.118 3
      vertex 5.6814 -12.0353 1.5
      vertex 5.6814 -12.0353 3
    endloop
  endfacet
  facet normal 0.949033 -0.315177 0
    outer loop
      vertex 5.6814 -12.0353 1.5
      vertex 5.65393 -12.118 3
      vertex 5.65393 -12.118 1.5
    endloop
  endfacet
  facet normal 0.980068 -0.198662 0
    outer loop
      vertex 5.6814 -12.0353 3
      vertex 5.69925 -11.9472 1.5
      vertex 5.69925 -11.9472 3
    endloop
  endfacet
  facet normal 0.980068 -0.198662 0
    outer loop
      vertex 5.69925 -11.9472 1.5
      vertex 5.6814 -12.0353 3
      vertex 5.6814 -12.0353 1.5
    endloop
  endfacet
  facet normal 0.996697 -0.0812159 0
    outer loop
      vertex 5.69925 -11.9472 3
      vertex 5.70682 -11.8544 1.5
      vertex 5.70682 -11.8544 3
    endloop
  endfacet
  facet normal 0.996697 -0.0812159 0
    outer loop
      vertex 5.70682 -11.8544 1.5
      vertex 5.69925 -11.9472 3
      vertex 5.69925 -11.9472 1.5
    endloop
  endfacet
  facet normal 1 0.000257533 0
    outer loop
      vertex 5.70682 -11.8544 3
      vertex 5.70616 -9.30661 1.5
      vertex 5.70616 -9.30661 3
    endloop
  endfacet
  facet normal 1 0.000257533 0
    outer loop
      vertex 5.70616 -9.30661 1.5
      vertex 5.70682 -11.8544 3
      vertex 5.70682 -11.8544 1.5
    endloop
  endfacet
  facet normal 0.993494 0.113881 0
    outer loop
      vertex 5.70616 -9.30661 3
      vertex 5.69649 -9.22221 1.5
      vertex 5.69649 -9.22221 3
    endloop
  endfacet
  facet normal 0.993494 0.113881 0
    outer loop
      vertex 5.69649 -9.22221 1.5
      vertex 5.70616 -9.30661 3
      vertex 5.70616 -9.30661 1.5
    endloop
  endfacet
  facet normal 0.971127 0.238561 0
    outer loop
      vertex 5.69649 -9.22221 3
      vertex 5.67665 -9.14146 1.5
      vertex 5.67665 -9.14146 3
    endloop
  endfacet
  facet normal 0.971127 0.238561 0
    outer loop
      vertex 5.67665 -9.14146 1.5
      vertex 5.69649 -9.22221 3
      vertex 5.69649 -9.22221 1.5
    endloop
  endfacet
  facet normal 0.933667 0.358142 0
    outer loop
      vertex 5.67665 -9.14146 3
      vertex 5.64734 -9.06505 1.5
      vertex 5.64734 -9.06505 3
    endloop
  endfacet
  facet normal 0.933667 0.358142 0
    outer loop
      vertex 5.64734 -9.06505 1.5
      vertex 5.67665 -9.14146 3
      vertex 5.67665 -9.14146 1.5
    endloop
  endfacet
  facet normal 0.876166 0.482009 0
    outer loop
      vertex 5.64734 -9.06505 3
      vertex 5.60054 -8.97998 1.5
      vertex 5.60054 -8.97998 3
    endloop
  endfacet
  facet normal 0.876166 0.482009 0
    outer loop
      vertex 5.60054 -8.97998 1.5
      vertex 5.64734 -9.06505 3
      vertex 5.64734 -9.06505 1.5
    endloop
  endfacet
  facet normal 0.795842 0.605504 0
    outer loop
      vertex 5.60054 -8.97998 3
      vertex 5.54214 -8.90323 1.5
      vertex 5.54214 -8.90323 3
    endloop
  endfacet
  facet normal 0.795842 0.605504 0
    outer loop
      vertex 5.54214 -8.90323 1.5
      vertex 5.60054 -8.97998 3
      vertex 5.60054 -8.97998 1.5
    endloop
  endfacet
  facet normal 0.698815 0.715302 -0
    outer loop
      vertex 5.54214 -8.90323 1.5
      vertex 5.4733 -8.83597 3
      vertex 5.54214 -8.90323 3
    endloop
  endfacet
  facet normal 0.698815 0.715302 0
    outer loop
      vertex 5.4733 -8.83597 3
      vertex 5.54214 -8.90323 1.5
      vertex 5.4733 -8.83597 1.5
    endloop
  endfacet
  facet normal 0.586563 0.809903 -0
    outer loop
      vertex 5.4733 -8.83597 1.5
      vertex 5.39511 -8.77934 3
      vertex 5.4733 -8.83597 3
    endloop
  endfacet
  facet normal 0.586563 0.809903 0
    outer loop
      vertex 5.39511 -8.77934 3
      vertex 5.4733 -8.83597 1.5
      vertex 5.39511 -8.77934 1.5
    endloop
  endfacet
  facet normal 0.471897 0.881653 -0
    outer loop
      vertex 5.39511 -8.77934 1.5
      vertex 5.32367 -8.7411 3
      vertex 5.39511 -8.77934 3
    endloop
  endfacet
  facet normal 0.471897 0.881653 0
    outer loop
      vertex 5.32367 -8.7411 3
      vertex 5.39511 -8.77934 1.5
      vertex 5.32367 -8.7411 1.5
    endloop
  endfacet
  facet normal 0.358642 0.933475 -0
    outer loop
      vertex 5.32367 -8.7411 1.5
      vertex 5.24718 -8.71172 3
      vertex 5.32367 -8.7411 3
    endloop
  endfacet
  facet normal 0.358642 0.933475 0
    outer loop
      vertex 5.24718 -8.71172 3
      vertex 5.32367 -8.7411 1.5
      vertex 5.24718 -8.71172 1.5
    endloop
  endfacet
  facet normal 0.238782 0.971073 -0
    outer loop
      vertex 5.24718 -8.71172 1.5
      vertex 5.16632 -8.69183 3
      vertex 5.24718 -8.71172 3
    endloop
  endfacet
  facet normal 0.238782 0.971073 0
    outer loop
      vertex 5.16632 -8.69183 3
      vertex 5.24718 -8.71172 1.5
      vertex 5.16632 -8.69183 1.5
    endloop
  endfacet
  facet normal 0.114012 0.993479 -0
    outer loop
      vertex 5.16632 -8.69183 1.5
      vertex 5.08176 -8.68213 3
      vertex 5.16632 -8.69183 3
    endloop
  endfacet
  facet normal 0.114012 0.993479 0
    outer loop
      vertex 5.08176 -8.68213 3
      vertex 5.16632 -8.69183 1.5
      vertex 5.08176 -8.68213 1.5
    endloop
  endfacet
  facet normal 0.000155765 1 -0
    outer loop
      vertex 5.08176 -8.68213 1.5
      vertex -0.599945 -8.68124 3
      vertex 5.08176 -8.68213 3
    endloop
  endfacet
  facet normal 0.000155765 1 0
    outer loop
      vertex -0.599945 -8.68124 3
      vertex 5.08176 -8.68213 1.5
      vertex -0.599945 -8.68124 1.5
    endloop
  endfacet
  facet normal 0.958186 -0.286147 0
    outer loop
      vertex -0.599945 -8.68124 3
      vertex 5.71202 12.4548 1.5
      vertex 5.71202 12.4548 3
    endloop
  endfacet
  facet normal 0.958186 -0.286147 0
    outer loop
      vertex 5.71202 12.4548 1.5
      vertex -0.599945 -8.68124 3
      vertex -0.599945 -8.68124 1.5
    endloop
  endfacet
  facet normal 0.982481 -0.186363 0
    outer loop
      vertex 5.71202 12.4548 3
      vertex 5.72964 12.5478 1.5
      vertex 5.72964 12.5478 3
    endloop
  endfacet
  facet normal 0.982481 -0.186363 0
    outer loop
      vertex 5.72964 12.5478 1.5
      vertex 5.71202 12.4548 3
      vertex 5.71202 12.4548 1.5
    endloop
  endfacet
  facet normal 0.997842 -0.0656589 0
    outer loop
      vertex 5.72964 12.5478 3
      vertex 5.73544 12.6359 1.5
      vertex 5.73544 12.6359 3
    endloop
  endfacet
  facet normal 0.997842 -0.0656589 0
    outer loop
      vertex 5.73544 12.6359 1.5
      vertex 5.72964 12.5478 3
      vertex 5.72964 12.5478 1.5
    endloop
  endfacet
  facet normal 0.99783 0.0658355 0
    outer loop
      vertex 5.73544 12.6359 3
      vertex 5.72998 12.7187 1.5
      vertex 5.72998 12.7187 3
    endloop
  endfacet
  facet normal 0.99783 0.0658355 0
    outer loop
      vertex 5.72998 12.7187 1.5
      vertex 5.73544 12.6359 3
      vertex 5.73544 12.6359 1.5
    endloop
  endfacet
  facet normal 0.978583 0.205854 0
    outer loop
      vertex 5.72998 12.7187 3
      vertex 5.71381 12.7956 1.5
      vertex 5.71381 12.7956 3
    endloop
  endfacet
  facet normal 0.978583 0.205854 0
    outer loop
      vertex 5.71381 12.7956 1.5
      vertex 5.72998 12.7187 3
      vertex 5.72998 12.7187 1.5
    endloop
  endfacet
  facet normal 0.936662 0.350234 0
    outer loop
      vertex 5.71381 12.7956 3
      vertex 5.68747 12.866 1.5
      vertex 5.68747 12.866 3
    endloop
  endfacet
  facet normal 0.936662 0.350234 0
    outer loop
      vertex 5.68747 12.866 1.5
      vertex 5.71381 12.7956 3
      vertex 5.71381 12.7956 1.5
    endloop
  endfacet
  facet normal 0.869989 0.493071 0
    outer loop
      vertex 5.68747 12.866 3
      vertex 5.65152 12.9294 1.5
      vertex 5.65152 12.9294 3
    endloop
  endfacet
  facet normal 0.869989 0.493071 0
    outer loop
      vertex 5.65152 12.9294 1.5
      vertex 5.68747 12.866 3
      vertex 5.68747 12.866 1.5
    endloop
  endfacet
  facet normal 0.778644 0.627466 0
    outer loop
      vertex 5.65152 12.9294 3
      vertex 5.60649 12.9853 1.5
      vertex 5.60649 12.9853 3
    endloop
  endfacet
  facet normal 0.778644 0.627466 0
    outer loop
      vertex 5.60649 12.9853 1.5
      vertex 5.65152 12.9294 3
      vertex 5.65152 12.9294 1.5
    endloop
  endfacet
  facet normal 0.665656 0.746258 -0
    outer loop
      vertex 5.60649 12.9853 1.5
      vertex 5.55295 13.0331 3
      vertex 5.60649 12.9853 3
    endloop
  endfacet
  facet normal 0.665656 0.746258 0
    outer loop
      vertex 5.55295 13.0331 3
      vertex 5.60649 12.9853 1.5
      vertex 5.55295 13.0331 1.5
    endloop
  endfacet
  facet normal 0.536306 0.844023 -0
    outer loop
      vertex 5.55295 13.0331 1.5
      vertex 5.49142 13.0722 3
      vertex 5.55295 13.0331 3
    endloop
  endfacet
  facet normal 0.536306 0.844023 0
    outer loop
      vertex 5.49142 13.0722 3
      vertex 5.55295 13.0331 1.5
      vertex 5.49142 13.0722 1.5
    endloop
  endfacet
  facet normal 0.397471 0.917615 -0
    outer loop
      vertex 5.49142 13.0722 1.5
      vertex 5.42249 13.102 3
      vertex 5.49142 13.0722 3
    endloop
  endfacet
  facet normal 0.397471 0.917615 0
    outer loop
      vertex 5.42249 13.102 3
      vertex 5.49142 13.0722 1.5
      vertex 5.42249 13.102 1.5
    endloop
  endfacet
  facet normal 0.256064 0.96666 -0
    outer loop
      vertex 5.42249 13.102 1.5
      vertex 5.34668 13.1221 3
      vertex 5.42249 13.102 3
    endloop
  endfacet
  facet normal 0.256064 0.96666 0
    outer loop
      vertex 5.34668 13.1221 3
      vertex 5.42249 13.102 1.5
      vertex 5.34668 13.1221 1.5
    endloop
  endfacet
  facet normal 0.118061 0.993006 -0
    outer loop
      vertex 5.34668 13.1221 1.5
      vertex 5.26454 13.1319 3
      vertex 5.34668 13.1221 3
    endloop
  endfacet
  facet normal 0.118061 0.993006 0
    outer loop
      vertex 5.26454 13.1319 3
      vertex 5.34668 13.1221 1.5
      vertex 5.26454 13.1319 1.5
    endloop
  endfacet
  facet normal 0 1 -0
    outer loop
      vertex 5.26454 13.1319 1.5
      vertex -4.81458 13.1319 3
      vertex 5.26454 13.1319 3
    endloop
  endfacet
  facet normal 0 1 0
    outer loop
      vertex -4.81458 13.1319 3
      vertex 5.26454 13.1319 1.5
      vertex -4.81458 13.1319 1.5
    endloop
  endfacet
  facet normal -0.114944 0.993372 0
    outer loop
      vertex -4.81458 13.1319 1.5
      vertex -4.89897 13.1221 3
      vertex -4.81458 13.1319 3
    endloop
  endfacet
  facet normal -0.114944 0.993372 0
    outer loop
      vertex -4.89897 13.1221 3
      vertex -4.81458 13.1319 1.5
      vertex -4.89897 13.1221 1.5
    endloop
  endfacet
  facet normal -0.241327 0.970444 0
    outer loop
      vertex -4.89897 13.1221 1.5
      vertex -4.97972 13.102 3
      vertex -4.89897 13.1221 3
    endloop
  endfacet
  facet normal -0.241327 0.970444 0
    outer loop
      vertex -4.97972 13.102 3
      vertex -4.89897 13.1221 1.5
      vertex -4.97972 13.102 1.5
    endloop
  endfacet
  facet normal -0.363909 0.931435 0
    outer loop
      vertex -4.97972 13.102 1.5
      vertex -5.05615 13.0722 3
      vertex -4.97972 13.102 3
    endloop
  endfacet
  facet normal -0.363909 0.931435 0
    outer loop
      vertex -5.05615 13.0722 3
      vertex -4.97972 13.102 1.5
      vertex -5.05615 13.0722 1.5
    endloop
  endfacet
  facet normal -0.480112 0.877207 0
    outer loop
      vertex -5.05615 13.0722 1.5
      vertex -5.12758 13.0331 3
      vertex -5.05615 13.0722 3
    endloop
  endfacet
  facet normal -0.480112 0.877207 0
    outer loop
      vertex -5.12758 13.0331 3
      vertex -5.05615 13.0722 1.5
      vertex -5.12758 13.0331 1.5
    endloop
  endfacet
  facet normal -0.587435 0.809271 0
    outer loop
      vertex -5.12758 13.0331 1.5
      vertex -5.19337 12.9853 3
      vertex -5.12758 13.0331 3
    endloop
  endfacet
  facet normal -0.587435 0.809271 0
    outer loop
      vertex -5.19337 12.9853 3
      vertex -5.12758 13.0331 1.5
      vertex -5.19337 12.9853 1.5
    endloop
  endfacet
  facet normal -0.684793 0.728738 0
    outer loop
      vertex -5.19337 12.9853 1.5
      vertex -5.25284 12.9294 3
      vertex -5.19337 12.9853 3
    endloop
  endfacet
  facet normal -0.684793 0.728738 0
    outer loop
      vertex -5.25284 12.9294 3
      vertex -5.19337 12.9853 1.5
      vertex -5.25284 12.9294 1.5
    endloop
  endfacet
  facet normal -0.770419 0.637537 0
    outer loop
      vertex -5.30533 12.866 1.5
      vertex -5.25284 12.9294 3
      vertex -5.25284 12.9294 1.5
    endloop
  endfacet
  facet normal -0.770419 0.637537 0
    outer loop
      vertex -5.25284 12.9294 3
      vertex -5.30533 12.866 1.5
      vertex -5.30533 12.866 3
    endloop
  endfacet
  facet normal -0.843534 0.537076 0
    outer loop
      vertex -5.35017 12.7956 1.5
      vertex -5.30533 12.866 3
      vertex -5.30533 12.866 1.5
    endloop
  endfacet
  facet normal -0.843534 0.537076 0
    outer loop
      vertex -5.30533 12.866 3
      vertex -5.35017 12.7956 1.5
      vertex -5.35017 12.7956 3
    endloop
  endfacet
  facet normal -0.903245 0.429126 0
    outer loop
      vertex -5.3867 12.7187 1.5
      vertex -5.35017 12.7956 3
      vertex -5.35017 12.7956 1.5
    endloop
  endfacet
  facet normal -0.903245 0.429126 0
    outer loop
      vertex -5.35017 12.7956 3
      vertex -5.3867 12.7187 1.5
      vertex -5.3867 12.7187 3
    endloop
  endfacet
  facet normal -0.948875 0.315651 0
    outer loop
      vertex -5.41425 12.6359 1.5
      vertex -5.3867 12.7187 3
      vertex -5.3867 12.7187 1.5
    endloop
  endfacet
  facet normal -0.948875 0.315651 0
    outer loop
      vertex -5.3867 12.7187 3
      vertex -5.41425 12.6359 1.5
      vertex -5.41425 12.6359 3
    endloop
  endfacet
  facet normal -0.979989 0.199052 0
    outer loop
      vertex -5.43214 12.5478 1.5
      vertex -5.41425 12.6359 3
      vertex -5.41425 12.6359 1.5
    endloop
  endfacet
  facet normal -0.979989 0.199052 0
    outer loop
      vertex -5.41425 12.6359 3
      vertex -5.43214 12.5478 1.5
      vertex -5.43214 12.5478 3
    endloop
  endfacet
  facet normal -0.996685 0.0813521 0
    outer loop
      vertex -5.43973 12.4548 1.5
      vertex -5.43214 12.5478 3
      vertex -5.43214 12.5478 1.5
    endloop
  endfacet
  facet normal -0.996685 0.0813521 0
    outer loop
      vertex -5.43214 12.5478 3
      vertex -5.43973 12.4548 1.5
      vertex -5.43973 12.4548 3
    endloop
  endfacet
  facet normal -1 -0.000257533 0
    outer loop
      vertex -5.43907 9.9071 1.5
      vertex -5.43973 12.4548 3
      vertex -5.43973 12.4548 1.5
    endloop
  endfacet
  facet normal -1 -0.000257533 0
    outer loop
      vertex -5.43973 12.4548 3
      vertex -5.43907 9.9071 1.5
      vertex -5.43907 9.9071 3
    endloop
  endfacet
  facet normal -0.993454 -0.114236 0
    outer loop
      vertex -5.42937 9.82271 1.5
      vertex -5.43907 9.9071 3
      vertex -5.43907 9.9071 1.5
    endloop
  endfacet
  facet normal -0.993454 -0.114236 0
    outer loop
      vertex -5.43907 9.9071 3
      vertex -5.42937 9.82271 1.5
      vertex -5.42937 9.82271 3
    endloop
  endfacet
  facet normal -0.970989 -0.239123 0
    outer loop
      vertex -5.40948 9.74197 1.5
      vertex -5.42937 9.82271 3
      vertex -5.42937 9.82271 1.5
    endloop
  endfacet
  facet normal -0.970989 -0.239123 0
    outer loop
      vertex -5.42937 9.82271 3
      vertex -5.40948 9.74197 1.5
      vertex -5.40948 9.74197 3
    endloop
  endfacet
  facet normal -0.933379 -0.358892 0
    outer loop
      vertex -5.3801 9.66554 1.5
      vertex -5.40948 9.74197 3
      vertex -5.40948 9.74197 1.5
    endloop
  endfacet
  facet normal -0.933379 -0.358892 0
    outer loop
      vertex -5.40948 9.74197 3
      vertex -5.3801 9.66554 1.5
      vertex -5.3801 9.66554 3
    endloop
  endfacet
  facet normal -0.875701 -0.482853 0
    outer loop
      vertex -5.33319 9.58047 1.5
      vertex -5.3801 9.66554 3
      vertex -5.3801 9.66554 1.5
    endloop
  endfacet
  facet normal -0.875701 -0.482853 0
    outer loop
      vertex -5.3801 9.66554 3
      vertex -5.33319 9.58047 1.5
      vertex -5.33319 9.58047 3
    endloop
  endfacet
  facet normal -0.795403 -0.606081 0
    outer loop
      vertex -5.27472 9.50374 1.5
      vertex -5.33319 9.58047 3
      vertex -5.33319 9.58047 1.5
    endloop
  endfacet
  facet normal -0.795403 -0.606081 0
    outer loop
      vertex -5.33319 9.58047 3
      vertex -5.27472 9.50374 1.5
      vertex -5.27472 9.50374 3
    endloop
  endfacet
  facet normal -0.698419 -0.715689 0
    outer loop
      vertex -5.27472 9.50374 1.5
      vertex -5.2058 9.43648 3
      vertex -5.27472 9.50374 3
    endloop
  endfacet
  facet normal -0.698419 -0.715689 -0
    outer loop
      vertex -5.2058 9.43648 3
      vertex -5.27472 9.50374 1.5
      vertex -5.2058 9.43648 1.5
    endloop
  endfacet
  facet normal -0.586517 -0.809937 0
    outer loop
      vertex -5.2058 9.43648 1.5
      vertex -5.12758 9.37984 3
      vertex -5.2058 9.43648 3
    endloop
  endfacet
  facet normal -0.586517 -0.809937 -0
    outer loop
      vertex -5.12758 9.37984 3
      vertex -5.2058 9.43648 1.5
      vertex -5.12758 9.37984 1.5
    endloop
  endfacet
  facet normal -0.471976 -0.881612 0
    outer loop
      vertex -5.12758 9.37984 1.5
      vertex -5.05615 9.3416 3
      vertex -5.12758 9.37984 3
    endloop
  endfacet
  facet normal -0.471976 -0.881612 -0
    outer loop
      vertex -5.05615 9.3416 3
      vertex -5.12758 9.37984 1.5
      vertex -5.05615 9.3416 1.5
    endloop
  endfacet
  facet normal -0.358892 -0.933379 0
    outer loop
      vertex -5.05615 9.3416 1.5
      vertex -4.97972 9.31221 3
      vertex -5.05615 9.3416 3
    endloop
  endfacet
  facet normal -0.358892 -0.933379 -0
    outer loop
      vertex -4.97972 9.31221 3
      vertex -5.05615 9.3416 1.5
      vertex -4.97972 9.31221 1.5
    endloop
  endfacet
  facet normal -0.23908 -0.971 0
    outer loop
      vertex -4.97972 9.31221 1.5
      vertex -4.89897 9.29233 3
      vertex -4.97972 9.31221 3
    endloop
  endfacet
  facet normal -0.23908 -0.971 -0
    outer loop
      vertex -4.89897 9.29233 3
      vertex -4.97972 9.31221 1.5
      vertex -4.89897 9.29233 1.5
    endloop
  endfacet
  facet normal -0.114236 -0.993454 0
    outer loop
      vertex -4.89897 9.29233 1.5
      vertex -4.81458 9.28262 3
      vertex -4.89897 9.29233 3
    endloop
  endfacet
  facet normal -0.114236 -0.993454 -0
    outer loop
      vertex -4.81458 9.28262 3
      vertex -4.89897 9.29233 1.5
      vertex -4.81458 9.28262 1.5
    endloop
  endfacet
  facet normal -0.00015476 -1 0
    outer loop
      vertex -4.81458 9.28262 1.5
      vertex 0.904037 9.28174 3
      vertex -4.81458 9.28262 3
    endloop
  endfacet
  facet normal -0.00015476 -1 -0
    outer loop
      vertex 0.904037 9.28174 3
      vertex -4.81458 9.28262 1.5
      vertex 0.904037 9.28174 1.5
    endloop
  endfacet
  facet normal -0.958185 0.286148 0
    outer loop
      vertex -5.40794 -11.8544 1.5
      vertex 0.904037 9.28174 3
      vertex 0.904037 9.28174 1.5
    endloop
  endfacet
  facet normal -0.958185 0.286148 0
    outer loop
      vertex 0.904037 9.28174 3
      vertex -5.40794 -11.8544 1.5
      vertex -5.40794 -11.8544 3
    endloop
  endfacet
  facet normal -0.982558 0.185955 0
    outer loop
      vertex -5.42552 -11.9472 1.5
      vertex -5.40794 -11.8544 3
      vertex -5.40794 -11.8544 1.5
    endloop
  endfacet
  facet normal -0.982558 0.185955 0
    outer loop
      vertex -5.40794 -11.8544 3
      vertex -5.42552 -11.9472 1.5
      vertex -5.42552 -11.9472 3
    endloop
  endfacet
  facet normal -0.997952 0.0639713 0
    outer loop
      vertex -5.43117 -12.0353 1.5
      vertex -5.42552 -11.9472 3
      vertex -5.42552 -11.9472 1.5
    endloop
  endfacet
  facet normal -0.997952 0.0639713 0
    outer loop
      vertex -5.42552 -11.9472 3
      vertex -5.43117 -12.0353 1.5
      vertex -5.43117 -12.0353 3
    endloop
  endfacet
  facet normal -0.9975 -0.0706716 0
    outer loop
      vertex -5.42531 -12.118 1.5
      vertex -5.43117 -12.0353 3
      vertex -5.43117 -12.0353 1.5
    endloop
  endfacet
  facet normal -0.9975 -0.0706716 0
    outer loop
      vertex -5.43117 -12.0353 3
      vertex -5.42531 -12.118 1.5
      vertex -5.42531 -12.118 3
    endloop
  endfacet
  facet normal -0.976565 -0.215225 0
    outer loop
      vertex -5.40839 -12.1948 1.5
      vertex -5.42531 -12.118 3
      vertex -5.42531 -12.118 1.5
    endloop
  endfacet
  facet normal -0.976565 -0.215225 0
    outer loop
      vertex -5.42531 -12.118 3
      vertex -5.40839 -12.1948 1.5
      vertex -5.40839 -12.1948 3
    endloop
  endfacet
  facet normal -0.93121 -0.364483 0
    outer loop
      vertex -5.38086 -12.2651 1.5
      vertex -5.40839 -12.1948 3
      vertex -5.40839 -12.1948 1.5
    endloop
  endfacet
  facet normal -0.93121 -0.364483 0
    outer loop
      vertex -5.40839 -12.1948 3
      vertex -5.38086 -12.2651 1.5
      vertex -5.38086 -12.2651 3
    endloop
  endfacet
  facet normal -0.859133 -0.511753 0
    outer loop
      vertex -5.34314 -12.3284 1.5
      vertex -5.38086 -12.2651 3
      vertex -5.38086 -12.2651 1.5
    endloop
  endfacet
  facet normal -0.859133 -0.511753 0
    outer loop
      vertex -5.38086 -12.2651 3
      vertex -5.34314 -12.3284 1.5
      vertex -5.34314 -12.3284 3
    endloop
  endfacet
  facet normal -0.761518 -0.648144 0
    outer loop
      vertex -5.29568 -12.3842 1.5
      vertex -5.34314 -12.3284 3
      vertex -5.34314 -12.3284 1.5
    endloop
  endfacet
  facet normal -0.761518 -0.648144 0
    outer loop
      vertex -5.34314 -12.3284 3
      vertex -5.29568 -12.3842 1.5
      vertex -5.29568 -12.3842 3
    endloop
  endfacet
  facet normal -0.642955 -0.765904 0
    outer loop
      vertex -5.29568 -12.3842 1.5
      vertex -5.23894 -12.4318 3
      vertex -5.29568 -12.3842 3
    endloop
  endfacet
  facet normal -0.642955 -0.765904 -0
    outer loop
      vertex -5.23894 -12.4318 3
      vertex -5.29568 -12.3842 1.5
      vertex -5.23894 -12.4318 1.5
    endloop
  endfacet
  facet normal -0.510964 -0.859602 0
    outer loop
      vertex -5.23894 -12.4318 1.5
      vertex -5.17332 -12.4708 3
      vertex -5.23894 -12.4318 3
    endloop
  endfacet
  facet normal -0.510964 -0.859602 -0
    outer loop
      vertex -5.17332 -12.4708 3
      vertex -5.23894 -12.4318 1.5
      vertex -5.17332 -12.4708 1.5
    endloop
  endfacet
  facet normal -0.373138 -0.927776 0
    outer loop
      vertex -5.17332 -12.4708 1.5
      vertex -5.0993 -12.5006 3
      vertex -5.17332 -12.4708 3
    endloop
  endfacet
  facet normal -0.373138 -0.927776 -0
    outer loop
      vertex -5.0993 -12.5006 3
      vertex -5.17332 -12.4708 1.5
      vertex -5.0993 -12.5006 1.5
    endloop
  endfacet
  facet normal -0.237343 -0.971426 0
    outer loop
      vertex -5.0993 -12.5006 1.5
      vertex -5.0173 -12.5206 3
      vertex -5.0993 -12.5006 3
    endloop
  endfacet
  facet normal -0.237343 -0.971426 -0
    outer loop
      vertex -5.0173 -12.5206 3
      vertex -5.0993 -12.5006 1.5
      vertex -5.0173 -12.5206 1.5
    endloop
  endfacet
  facet normal -0.107921 -0.994159 0
    outer loop
      vertex -5.0173 -12.5206 1.5
      vertex -4.92776 -12.5304 3
      vertex -5.0173 -12.5206 3
    endloop
  endfacet
  facet normal -0.107921 -0.994159 -0
    outer loop
      vertex -4.92776 -12.5304 3
      vertex -5.0173 -12.5206 1.5
      vertex -4.92776 -12.5304 1.5
    endloop
  endfacet
endsolid OpenSCAD_Model
