solid OpenSCAD_Model
  facet normal -1 0 0
    outer loop
      vertex -16.5 16.5 -1
      vertex -16.5 7.15 13.3
      vertex -16.5 16.5 15
    endloop
  endfacet
  facet normal -1 0 0
    outer loop
      vertex -16.5 16.5 -1
      vertex -16.5 -7.15 13.3
      vertex -16.5 7.15 13.3
    endloop
  endfacet
  facet normal -1 0 0
    outer loop
      vertex -16.5 -16.5 -1
      vertex -16.5 -7.15 13.3
      vertex -16.5 16.5 -1
    endloop
  endfacet
  facet normal -1 0 0
    outer loop
      vertex -16.5 -16.5 15
      vertex -16.5 -7.15 13.3
      vertex -16.5 -16.5 -1
    endloop
  endfacet
  facet normal -1 0 0
    outer loop
      vertex -16.5 -7.15 13.3
      vertex -16.5 -16.5 15
      vertex -16.5 -7.15 15
    endloop
  endfacet
  facet normal -1 -0 0
    outer loop
      vertex -16.5 16.5 15
      vertex -16.5 7.15 13.3
      vertex -16.5 7.15 15
    endloop
  endfacet
  facet normal -2.89768e-25 1.22465e-16 1
    outer loop
      vertex 15.5 15.5 -1.8982e-15
      vertex 7.8627 1.28096 -1.56872e-16
      vertex 15.5 -15.5 1.8982e-15
    endloop
  endfacet
  facet normal -6.01081e-23 1.22465e-16 1
    outer loop
      vertex 15.5 15.5 -1.8982e-15
      vertex 7.84952 1.40314 -1.71835e-16
      vertex 7.8627 1.28096 -1.56872e-16
    endloop
  endfacet
  facet normal 2.53401e-23 1.22465e-16 1
    outer loop
      vertex 15.5 15.5 -1.8982e-15
      vertex 7.81943 1.52464 -1.86715e-16
      vertex 7.84952 1.40314 -1.71835e-16
    endloop
  endfacet
  facet normal 2.45456e-23 1.22465e-16 1
    outer loop
      vertex 15.5 15.5 -1.8982e-15
      vertex 7.77345 1.64027 -2.00876e-16
      vertex 7.81943 1.52464 -1.86715e-16
    endloop
  endfacet
  facet normal -2.19767e-23 1.22465e-16 1
    outer loop
      vertex 15.5 15.5 -1.8982e-15
      vertex 7.71468 1.74539 -2.13749e-16
      vertex 7.77345 1.64027 -2.00876e-16
    endloop
  endfacet
  facet normal 3.5817e-23 1.22465e-16 1
    outer loop
      vertex 15.5 15.5 -1.8982e-15
      vertex 7.6432 1.84245 -2.25635e-16
      vertex 7.71468 1.74539 -2.13749e-16
    endloop
  endfacet
  facet normal 2.28884e-23 1.22465e-16 1
    outer loop
      vertex 15.5 15.5 -1.8982e-15
      vertex 7.5137 1.97104 -2.41383e-16
      vertex 7.6432 1.84245 -2.25635e-16
    endloop
  endfacet
  facet normal 3.13204e-23 1.22465e-16 1
    outer loop
      vertex 15.5 15.5 -1.8982e-15
      vertex 7.43343 2.03125 -2.48756e-16
      vertex 7.5137 1.97104 -2.41383e-16
    endloop
  endfacet
  facet normal -7.84524e-23 1.22465e-16 1
    outer loop
      vertex 15.5 15.5 -1.8982e-15
      vertex 7.31026 2.10248 -2.57479e-16
      vertex 7.43343 2.03125 -2.48756e-16
    endloop
  endfacet
  facet normal 2.05006e-24 1.22465e-16 1
    outer loop
      vertex 15.5 15.5 -1.8982e-15
      vertex 7.17781 2.15616 -2.64053e-16
      vertex 7.31026 2.10248 -2.57479e-16
    endloop
  endfacet
  facet normal -3.20503e-23 1.22465e-16 1
    outer loop
      vertex 15.5 15.5 -1.8982e-15
      vertex 7.05891 2.18718 -2.67852e-16
      vertex 7.17781 2.15616 -2.64053e-16
    endloop
  endfacet
  facet normal 8.40508e-23 1.22465e-16 1
    outer loop
      vertex 15.5 15.5 -1.8982e-15
      vertex 6.93629 2.20345 -2.69844e-16
      vertex 7.05891 2.18718 -2.67852e-16
    endloop
  endfacet
  facet normal -9.63899e-25 1.22465e-16 1
    outer loop
      vertex 15.5 15.5 -1.8982e-15
      vertex -6.51411 2.20535 -2.70078e-16
      vertex 6.93629 2.20345 -2.69844e-16
    endloop
  endfacet
  facet normal -0 1.22465e-16 1
    outer loop
      vertex -15.5 15.5 -1.8982e-15
      vertex -6.51411 2.20535 -2.70078e-16
      vertex 15.5 15.5 -1.8982e-15
    endloop
  endfacet
  facet normal 1.08419e-22 1.22465e-16 1
    outer loop
      vertex -6.51411 2.20535 -2.70078e-16
      vertex -15.5 15.5 -1.8982e-15
      vertex -6.65804 2.18965 -2.68155e-16
    endloop
  endfacet
  facet normal -9.08092e-23 1.22465e-16 1
    outer loop
      vertex -6.65804 2.18965 -2.68155e-16
      vertex -15.5 15.5 -1.8982e-15
      vertex -6.77742 2.16035 -2.64567e-16
    endloop
  endfacet
  facet normal 2.72346e-23 1.22465e-16 1
    outer loop
      vertex -6.77742 2.16035 -2.64567e-16
      vertex -15.5 15.5 -1.8982e-15
      vertex -6.88838 2.11853 -2.59445e-16
    endloop
  endfacet
  facet normal 2.59609e-25 1.22465e-16 1
    outer loop
      vertex -7.47292 1.31856 -1.61477e-16
      vertex -15.5 15.5 -1.8982e-15
      vertex -7.47601 -1.26585 1.55022e-16
    endloop
  endfacet
  facet normal -1.16252e-23 1.22465e-16 1
    outer loop
      vertex -7.45407 1.44379 -1.76813e-16
      vertex -15.5 15.5 -1.8982e-15
      vertex -7.47292 1.31856 -1.61477e-16
    endloop
  endfacet
  facet normal 8.12094e-23 1.22465e-16 1
    outer loop
      vertex -7.41844 1.5638 -1.9151e-16
      vertex -15.5 15.5 -1.8982e-15
      vertex -7.45407 1.44379 -1.76813e-16
    endloop
  endfacet
  facet normal -2.54518e-23 1.22465e-16 1
    outer loop
      vertex -7.36913 1.67395 -2.05e-16
      vertex -15.5 15.5 -1.8982e-15
      vertex -7.41844 1.5638 -1.9151e-16
    endloop
  endfacet
  facet normal 1.83985e-23 1.22465e-16 1
    outer loop
      vertex -7.30621 1.77669 -2.17581e-16
      vertex -15.5 15.5 -1.8982e-15
      vertex -7.36913 1.67395 -2.05e-16
    endloop
  endfacet
  facet normal -6.36347e-23 1.22465e-16 1
    outer loop
      vertex -7.22829 1.87354 -2.29442e-16
      vertex -15.5 15.5 -1.8982e-15
      vertex -7.30621 1.77669 -2.17581e-16
    endloop
  endfacet
  facet normal 6.53379e-24 1.22465e-16 1
    outer loop
      vertex -7.12613 1.97104 -2.41383e-16
      vertex -15.5 15.5 -1.8982e-15
      vertex -7.22829 1.87354 -2.29442e-16
    endloop
  endfacet
  facet normal 3.49149e-23 1.22465e-16 1
    outer loop
      vertex -7.01091 2.05367 -2.51501e-16
      vertex -15.5 15.5 -1.8982e-15
      vertex -7.12613 1.97104 -2.41383e-16
    endloop
  endfacet
  facet normal 9.58534e-24 1.22465e-16 1
    outer loop
      vertex -6.88838 2.11853 -2.59445e-16
      vertex -15.5 15.5 -1.8982e-15
      vertex -7.01091 2.05367 -2.51501e-16
    endloop
  endfacet
  facet normal -1.56573e-24 1.22465e-16 1
    outer loop
      vertex 7.86079 -1.31863 1.61486e-16
      vertex 15.5 -15.5 1.8982e-15
      vertex 7.8627 1.28096 -1.56872e-16
    endloop
  endfacet
  facet normal 2.7309e-23 1.22465e-16 1
    outer loop
      vertex 7.84247 -1.45139 1.77743e-16
      vertex 15.5 -15.5 1.8982e-15
      vertex 7.86079 -1.31863 1.61486e-16
    endloop
  endfacet
  facet normal -7.92239e-24 1.22465e-16 1
    outer loop
      vertex 7.80875 -1.57431 1.92797e-16
      vertex 15.5 -15.5 1.8982e-15
      vertex 7.84247 -1.45139 1.77743e-16
    endloop
  endfacet
  facet normal -6.77387e-24 1.22465e-16 1
    outer loop
      vertex 7.75844 -1.69334 2.07375e-16
      vertex 15.5 -15.5 1.8982e-15
      vertex 7.80875 -1.57431 1.92797e-16
    endloop
  endfacet
  facet normal 1.18678e-23 1.22465e-16 1
    outer loop
      vertex 7.6982 -1.79752 2.20132e-16
      vertex 15.5 -15.5 1.8982e-15
      vertex 7.75844 -1.69334 2.07375e-16
    endloop
  endfacet
  facet normal 5.96869e-23 1.22465e-16 1
    outer loop
      vertex 7.6237 -1.89561 2.32146e-16
      vertex 15.5 -15.5 1.8982e-15
      vertex 7.6982 -1.79752 2.20132e-16
    endloop
  endfacet
  facet normal -1.18557e-23 1.22465e-16 1
    outer loop
      vertex 7.53804 -1.98337 2.42893e-16
      vertex 15.5 -15.5 1.8982e-15
      vertex 7.6237 -1.89561 2.32146e-16
    endloop
  endfacet
  facet normal -9.53828e-23 1.22465e-16 1
    outer loop
      vertex 7.44569 -2.05777 2.52004e-16
      vertex 15.5 -15.5 1.8982e-15
      vertex 7.53804 -1.98337 2.42893e-16
    endloop
  endfacet
  facet normal 7.48068e-23 1.22465e-16 1
    outer loop
      vertex 7.34195 -2.12242 2.59922e-16
      vertex 15.5 -15.5 1.8982e-15
      vertex 7.44569 -2.05777 2.52004e-16
    endloop
  endfacet
  facet normal -9.03935e-23 1.22465e-16 1
    outer loop
      vertex 7.23462 -2.17276 2.66086e-16
      vertex 15.5 -15.5 1.8982e-15
      vertex 7.34195 -2.12242 2.59922e-16
    endloop
  endfacet
  facet normal 4.14603e-23 1.22465e-16 1
    outer loop
      vertex 7.11816 -2.211 2.70769e-16
      vertex 15.5 -15.5 1.8982e-15
      vertex 7.23462 -2.17276 2.66086e-16
    endloop
  endfacet
  facet normal 1.82388e-23 1.22465e-16 1
    outer loop
      vertex 6.99739 -2.23473 2.73675e-16
      vertex 15.5 -15.5 1.8982e-15
      vertex 7.11816 -2.211 2.70769e-16
    endloop
  endfacet
  facet normal -7.69438e-23 1.22465e-16 1
    outer loop
      vertex 6.8851 -2.24352 2.74751e-16
      vertex 15.5 -15.5 1.8982e-15
      vertex 6.99739 -2.23473 2.73675e-16
    endloop
  endfacet
  facet normal 1.454e-24 1.22465e-16 1
    outer loop
      vertex -6.54796 -2.24094 2.74436e-16
      vertex 15.5 -15.5 1.8982e-15
      vertex 6.8851 -2.24352 2.74751e-16
    endloop
  endfacet
  facet normal -1.18158e-22 1.22465e-16 1
    outer loop
      vertex -15.5 -15.5 1.8982e-15
      vertex -6.54796 -2.24094 2.74436e-16
      vertex -6.67078 -2.22459 2.72434e-16
    endloop
  endfacet
  facet normal 9.87412e-23 1.22465e-16 1
    outer loop
      vertex -15.5 -15.5 1.8982e-15
      vertex -6.67078 -2.22459 2.72434e-16
      vertex -6.7903 -2.19315 2.68583e-16
    endloop
  endfacet
  facet normal -3.61239e-23 1.22465e-16 1
    outer loop
      vertex -15.5 -15.5 1.8982e-15
      vertex -6.7903 -2.19315 2.68583e-16
      vertex -6.90039 -2.14958 2.63248e-16
    endloop
  endfacet
  facet normal -7.53818e-23 1.22465e-16 1
    outer loop
      vertex -15.5 -15.5 1.8982e-15
      vertex -6.90039 -2.14958 2.63248e-16
      vertex -7.0079 -2.09113 2.56089e-16
    endloop
  endfacet
  facet normal -6.72777e-25 1.22465e-16 1
    outer loop
      vertex -15.5 -15.5 1.8982e-15
      vertex -7.47601 -1.26585 1.55022e-16
      vertex -15.5 15.5 -1.8982e-15
    endloop
  endfacet
  facet normal -1.08301e-23 1.22465e-16 1
    outer loop
      vertex -7.47601 -1.26585 1.55022e-16
      vertex -15.5 -15.5 1.8982e-15
      vertex -7.46638 -1.38512 1.69628e-16
    endloop
  endfacet
  facet normal 1.48862e-23 1.22465e-16 1
    outer loop
      vertex -7.46638 -1.38512 1.69628e-16
      vertex -15.5 -15.5 1.8982e-15
      vertex -7.44 -1.51416 1.85431e-16
    endloop
  endfacet
  facet normal 0 1.22465e-16 1
    outer loop
      vertex -6.54796 -2.24094 2.74436e-16
      vertex -15.5 -15.5 1.8982e-15
      vertex 15.5 -15.5 1.8982e-15
    endloop
  endfacet
  facet normal 1.12984e-22 1.22465e-16 1
    outer loop
      vertex -7.10466 -2.02258 2.47695e-16
      vertex -15.5 -15.5 1.8982e-15
      vertex -7.0079 -2.09113 2.56089e-16
    endloop
  endfacet
  facet normal 9.03383e-24 1.22465e-16 1
    outer loop
      vertex -7.19525 -1.94023 2.3761e-16
      vertex -15.5 -15.5 1.8982e-15
      vertex -7.10466 -2.02258 2.47695e-16
    endloop
  endfacet
  facet normal -9.71692e-23 1.22465e-16 1
    outer loop
      vertex -7.27531 -1.84717 2.26213e-16
      vertex -15.5 -15.5 1.8982e-15
      vertex -7.19525 -1.94023 2.3761e-16
    endloop
  endfacet
  facet normal 2.43254e-24 1.22465e-16 1
    outer loop
      vertex -7.34357 -1.74442 2.13629e-16
      vertex -15.5 -15.5 1.8982e-15
      vertex -7.27531 -1.84717 2.26213e-16
    endloop
  endfacet
  facet normal 6.499e-23 1.22465e-16 1
    outer loop
      vertex -7.39883 -1.63304 1.9999e-16
      vertex -15.5 -15.5 1.8982e-15
      vertex -7.34357 -1.74442 2.13629e-16
    endloop
  endfacet
  facet normal 1.61075e-23 1.22465e-16 1
    outer loop
      vertex -7.44 -1.51416 1.85431e-16
      vertex -15.5 -15.5 1.8982e-15
      vertex -7.39883 -1.63304 1.9999e-16
    endloop
  endfacet
  facet normal 1 0 0
    outer loop
      vertex 16.5 -7.15 15
      vertex 16.5 -16.5 15
      vertex 16.5 -7.15 13.3
    endloop
  endfacet
  facet normal 1 0 0
    outer loop
      vertex 16.5 7.15 13.3
      vertex 16.5 16.5 15
      vertex 16.5 7.15 15
    endloop
  endfacet
  facet normal 1 0 0
    outer loop
      vertex 16.5 16.5 15
      vertex 16.5 7.15 13.3
      vertex 16.5 16.5 -1
    endloop
  endfacet
  facet normal 1 -0 0
    outer loop
      vertex 16.5 -7.15 13.3
      vertex 16.5 16.5 -1
      vertex 16.5 7.15 13.3
    endloop
  endfacet
  facet normal 1 0 0
    outer loop
      vertex 16.5 -16.5 -1
      vertex 16.5 -7.15 13.3
      vertex 16.5 -16.5 15
    endloop
  endfacet
  facet normal 1 0 0
    outer loop
      vertex 16.5 -7.15 13.3
      vertex 16.5 -16.5 -1
      vertex 16.5 16.5 -1
    endloop
  endfacet
  facet normal 0 -1 0
    outer loop
      vertex -16.5 -16.5 15
      vertex -7.15 -16.5 13.3
      vertex -7.15 -16.5 15
    endloop
  endfacet
  facet normal 0 -1 -0
    outer loop
      vertex -7.15 -16.5 13.3
      vertex -16.5 -16.5 -1
      vertex 7.15 -16.5 13.3
    endloop
  endfacet
  facet normal 0 -1 0
    outer loop
      vertex -16.5 -16.5 -1
      vertex -7.15 -16.5 13.3
      vertex -16.5 -16.5 15
    endloop
  endfacet
  facet normal 0 -1 0
    outer loop
      vertex 7.15 -16.5 13.3
      vertex 16.5 -16.5 15
      vertex 7.15 -16.5 15
    endloop
  endfacet
  facet normal 0 -1 0
    outer loop
      vertex 16.5 -16.5 -1
      vertex 7.15 -16.5 13.3
      vertex -16.5 -16.5 -1
    endloop
  endfacet
  facet normal 0 -1 0
    outer loop
      vertex 7.15 -16.5 13.3
      vertex 16.5 -16.5 -1
      vertex 16.5 -16.5 15
    endloop
  endfacet
  facet normal 0 0 1
    outer loop
      vertex -15.5 -7.15 15
      vertex -16.5 -7.15 15
      vertex -15.5 -15.5 15
    endloop
  endfacet
  facet normal -0 0 1
    outer loop
      vertex -15.5 -15.5 15
      vertex -7.15 -16.5 15
      vertex -7.15 -15.5 15
    endloop
  endfacet
  facet normal 0 0 1
    outer loop
      vertex -15.5 -15.5 15
      vertex -16.5 -16.5 15
      vertex -7.15 -16.5 15
    endloop
  endfacet
  facet normal 0 0 1
    outer loop
      vertex -16.5 -16.5 15
      vertex -15.5 -15.5 15
      vertex -16.5 -7.15 15
    endloop
  endfacet
  facet normal 0 0 1
    outer loop
      vertex -7.15 16.5 15
      vertex -15.5 15.5 15
      vertex -7.15 15.5 15
    endloop
  endfacet
  facet normal -0 0 1
    outer loop
      vertex -16.5 16.5 15
      vertex -15.5 15.5 15
      vertex -7.15 16.5 15
    endloop
  endfacet
  facet normal 0 0 1
    outer loop
      vertex -16.5 7.15 15
      vertex -15.5 15.5 15
      vertex -16.5 16.5 15
    endloop
  endfacet
  facet normal 0 0 1
    outer loop
      vertex -15.5 15.5 15
      vertex -16.5 7.15 15
      vertex -15.5 7.15 15
    endloop
  endfacet
  facet normal 0 0 1
    outer loop
      vertex 16.5 16.5 15
      vertex 15.5 15.5 15
      vertex 16.5 7.15 15
    endloop
  endfacet
  facet normal -0 0 1
    outer loop
      vertex 7.15 16.5 15
      vertex 15.5 15.5 15
      vertex 16.5 16.5 15
    endloop
  endfacet
  facet normal 0 0 1
    outer loop
      vertex 15.5 15.5 15
      vertex 7.15 16.5 15
      vertex 7.15 15.5 15
    endloop
  endfacet
  facet normal 0 0 1
    outer loop
      vertex 16.5 7.15 15
      vertex 15.5 15.5 15
      vertex 15.5 7.15 15
    endloop
  endfacet
  facet normal 0 0 1
    outer loop
      vertex 15.5 -15.5 15
      vertex 16.5 -7.15 15
      vertex 15.5 -7.15 15
    endloop
  endfacet
  facet normal 0 0 1
    outer loop
      vertex 16.5 -7.15 15
      vertex 15.5 -15.5 15
      vertex 16.5 -16.5 15
    endloop
  endfacet
  facet normal 0 0 1
    outer loop
      vertex 7.15 -16.5 15
      vertex 15.5 -15.5 15
      vertex 7.15 -15.5 15
    endloop
  endfacet
  facet normal 0 0 1
    outer loop
      vertex 15.5 -15.5 15
      vertex 7.15 -16.5 15
      vertex 16.5 -16.5 15
    endloop
  endfacet
  facet normal 0 1 0
    outer loop
      vertex 16.5 16.5 15
      vertex 7.15 16.5 13.3
      vertex 7.15 16.5 15
    endloop
  endfacet
  facet normal 0 1 0
    outer loop
      vertex 7.15 16.5 13.3
      vertex 16.5 16.5 -1
      vertex -7.15 16.5 13.3
    endloop
  endfacet
  facet normal 0 1 -0
    outer loop
      vertex 16.5 16.5 -1
      vertex 7.15 16.5 13.3
      vertex 16.5 16.5 15
    endloop
  endfacet
  facet normal 0 1 -0
    outer loop
      vertex -7.15 16.5 13.3
      vertex -16.5 16.5 15
      vertex -7.15 16.5 15
    endloop
  endfacet
  facet normal 0 1 0
    outer loop
      vertex -16.5 16.5 -1
      vertex -7.15 16.5 13.3
      vertex 16.5 16.5 -1
    endloop
  endfacet
  facet normal 0 1 0
    outer loop
      vertex -7.15 16.5 13.3
      vertex -16.5 16.5 -1
      vertex -16.5 16.5 15
    endloop
  endfacet
  facet normal 1 0 0
    outer loop
      vertex -15.5 -7.15 15
      vertex -15.5 -15.5 15
      vertex -15.5 -7.15 13.3
    endloop
  endfacet
  facet normal 1 0 0
    outer loop
      vertex -15.5 7.15 13.3
      vertex -15.5 15.5 15
      vertex -15.5 7.15 15
    endloop
  endfacet
  facet normal 1 0 0
    outer loop
      vertex -15.5 15.5 15
      vertex -15.5 7.15 13.3
      vertex -15.5 15.5 -1.8982e-15
    endloop
  endfacet
  facet normal 1 -0 0
    outer loop
      vertex -15.5 -7.15 13.3
      vertex -15.5 15.5 -1.8982e-15
      vertex -15.5 7.15 13.3
    endloop
  endfacet
  facet normal 1 0 0
    outer loop
      vertex -15.5 -15.5 1.8982e-15
      vertex -15.5 -7.15 13.3
      vertex -15.5 -15.5 15
    endloop
  endfacet
  facet normal 1 0 0
    outer loop
      vertex -15.5 -7.15 13.3
      vertex -15.5 -15.5 1.8982e-15
      vertex -15.5 15.5 -1.8982e-15
    endloop
  endfacet
  facet normal -1 0 0
    outer loop
      vertex 15.5 15.5 -1.8982e-15
      vertex 15.5 7.15 13.3
      vertex 15.5 15.5 15
    endloop
  endfacet
  facet normal -1 0 0
    outer loop
      vertex 15.5 15.5 -1.8982e-15
      vertex 15.5 -7.15 13.3
      vertex 15.5 7.15 13.3
    endloop
  endfacet
  facet normal -1 0 0
    outer loop
      vertex 15.5 -15.5 1.8982e-15
      vertex 15.5 -7.15 13.3
      vertex 15.5 15.5 -1.8982e-15
    endloop
  endfacet
  facet normal -1 0 0
    outer loop
      vertex 15.5 -15.5 15
      vertex 15.5 -7.15 13.3
      vertex 15.5 -15.5 1.8982e-15
    endloop
  endfacet
  facet normal -1 0 0
    outer loop
      vertex 15.5 -7.15 13.3
      vertex 15.5 -15.5 15
      vertex 15.5 -7.15 15
    endloop
  endfacet
  facet normal -1 -0 0
    outer loop
      vertex 15.5 15.5 15
      vertex 15.5 7.15 13.3
      vertex 15.5 7.15 15
    endloop
  endfacet
  facet normal 0 1 0
    outer loop
      vertex 15.5 -15.5 15
      vertex 7.15 -15.5 13.3
      vertex 7.15 -15.5 15
    endloop
  endfacet
  facet normal 0 1 0
    outer loop
      vertex 7.15 -15.5 13.3
      vertex 15.5 -15.5 1.8982e-15
      vertex -7.15 -15.5 13.3
    endloop
  endfacet
  facet normal 0 1 -0
    outer loop
      vertex 15.5 -15.5 1.8982e-15
      vertex 7.15 -15.5 13.3
      vertex 15.5 -15.5 15
    endloop
  endfacet
  facet normal 0 1 -0
    outer loop
      vertex -7.15 -15.5 13.3
      vertex -15.5 -15.5 15
      vertex -7.15 -15.5 15
    endloop
  endfacet
  facet normal 0 1 0
    outer loop
      vertex -15.5 -15.5 1.8982e-15
      vertex -7.15 -15.5 13.3
      vertex 15.5 -15.5 1.8982e-15
    endloop
  endfacet
  facet normal 0 1 0
    outer loop
      vertex -7.15 -15.5 13.3
      vertex -15.5 -15.5 1.8982e-15
      vertex -15.5 -15.5 15
    endloop
  endfacet
  facet normal 0 -1 0
    outer loop
      vertex -15.5 15.5 15
      vertex -7.15 15.5 13.3
      vertex -7.15 15.5 15
    endloop
  endfacet
  facet normal 0 -1 -0
    outer loop
      vertex -7.15 15.5 13.3
      vertex -15.5 15.5 -1.8982e-15
      vertex 7.15 15.5 13.3
    endloop
  endfacet
  facet normal 0 -1 0
    outer loop
      vertex -15.5 15.5 -1.8982e-15
      vertex -7.15 15.5 13.3
      vertex -15.5 15.5 15
    endloop
  endfacet
  facet normal 0 -1 0
    outer loop
      vertex 7.15 15.5 13.3
      vertex 15.5 15.5 15
      vertex 7.15 15.5 15
    endloop
  endfacet
  facet normal 0 -1 0
    outer loop
      vertex 15.5 15.5 -1.8982e-15
      vertex 7.15 15.5 13.3
      vertex -15.5 15.5 -1.8982e-15
    endloop
  endfacet
  facet normal 0 -1 0
    outer loop
      vertex 7.15 15.5 13.3
      vertex 15.5 15.5 -1.8982e-15
      vertex 15.5 15.5 15
    endloop
  endfacet
  facet normal 0 0 -1
    outer loop
      vertex 16.5 -16.5 -1
      vertex 7.8627 1.28096 -1
      vertex 16.5 16.5 -1
    endloop
  endfacet
  facet normal 0 0 -1
    outer loop
      vertex 16.5 -16.5 -1
      vertex 7.86079 -1.31863 -1
      vertex 7.8627 1.28096 -1
    endloop
  endfacet
  facet normal 0 0 -1
    outer loop
      vertex 16.5 -16.5 -1
      vertex 7.84247 -1.45139 -1
      vertex 7.86079 -1.31863 -1
    endloop
  endfacet
  facet normal 0 0 -1
    outer loop
      vertex 16.5 -16.5 -1
      vertex 7.80875 -1.57431 -1
      vertex 7.84247 -1.45139 -1
    endloop
  endfacet
  facet normal 0 0 -1
    outer loop
      vertex 16.5 -16.5 -1
      vertex 7.75844 -1.69334 -1
      vertex 7.80875 -1.57431 -1
    endloop
  endfacet
  facet normal 0 0 -1
    outer loop
      vertex 16.5 -16.5 -1
      vertex 7.6982 -1.79752 -1
      vertex 7.75844 -1.69334 -1
    endloop
  endfacet
  facet normal 0 0 -1
    outer loop
      vertex 16.5 -16.5 -1
      vertex 7.6237 -1.89561 -1
      vertex 7.6982 -1.79752 -1
    endloop
  endfacet
  facet normal 0 0 -1
    outer loop
      vertex 16.5 -16.5 -1
      vertex 7.53804 -1.98337 -1
      vertex 7.6237 -1.89561 -1
    endloop
  endfacet
  facet normal 0 0 -1
    outer loop
      vertex 16.5 -16.5 -1
      vertex 7.44569 -2.05777 -1
      vertex 7.53804 -1.98337 -1
    endloop
  endfacet
  facet normal 0 0 -1
    outer loop
      vertex 16.5 -16.5 -1
      vertex 7.34195 -2.12242 -1
      vertex 7.44569 -2.05777 -1
    endloop
  endfacet
  facet normal 0 0 -1
    outer loop
      vertex 16.5 -16.5 -1
      vertex 7.23462 -2.17276 -1
      vertex 7.34195 -2.12242 -1
    endloop
  endfacet
  facet normal 0 0 -1
    outer loop
      vertex 16.5 -16.5 -1
      vertex 7.11816 -2.211 -1
      vertex 7.23462 -2.17276 -1
    endloop
  endfacet
  facet normal 0 0 -1
    outer loop
      vertex 16.5 -16.5 -1
      vertex 6.99739 -2.23473 -1
      vertex 7.11816 -2.211 -1
    endloop
  endfacet
  facet normal 0 0 -1
    outer loop
      vertex 16.5 -16.5 -1
      vertex 6.8851 -2.24352 -1
      vertex 6.99739 -2.23473 -1
    endloop
  endfacet
  facet normal 0 0 -1
    outer loop
      vertex 16.5 -16.5 -1
      vertex -6.54796 -2.24094 -1
      vertex 6.8851 -2.24352 -1
    endloop
  endfacet
  facet normal 0 0 -1
    outer loop
      vertex -16.5 -16.5 -1
      vertex -6.54796 -2.24094 -1
      vertex 16.5 -16.5 -1
    endloop
  endfacet
  facet normal -0 0 -1
    outer loop
      vertex -6.54796 -2.24094 -1
      vertex -16.5 -16.5 -1
      vertex -6.67078 -2.22459 -1
    endloop
  endfacet
  facet normal -0 0 -1
    outer loop
      vertex -6.67078 -2.22459 -1
      vertex -16.5 -16.5 -1
      vertex -6.7903 -2.19315 -1
    endloop
  endfacet
  facet normal -0 0 -1
    outer loop
      vertex -6.7903 -2.19315 -1
      vertex -16.5 -16.5 -1
      vertex -6.90039 -2.14958 -1
    endloop
  endfacet
  facet normal -0 0 -1
    outer loop
      vertex -7.46638 -1.38512 -1
      vertex -16.5 -16.5 -1
      vertex -7.47601 -1.26585 -1
    endloop
  endfacet
  facet normal -0 0 -1
    outer loop
      vertex -7.44 -1.51416 -1
      vertex -16.5 -16.5 -1
      vertex -7.46638 -1.38512 -1
    endloop
  endfacet
  facet normal -0 0 -1
    outer loop
      vertex -7.39883 -1.63304 -1
      vertex -16.5 -16.5 -1
      vertex -7.44 -1.51416 -1
    endloop
  endfacet
  facet normal -0 0 -1
    outer loop
      vertex -7.34357 -1.74442 -1
      vertex -16.5 -16.5 -1
      vertex -7.39883 -1.63304 -1
    endloop
  endfacet
  facet normal -0 0 -1
    outer loop
      vertex -7.27531 -1.84717 -1
      vertex -16.5 -16.5 -1
      vertex -7.34357 -1.74442 -1
    endloop
  endfacet
  facet normal -0 0 -1
    outer loop
      vertex -7.19525 -1.94023 -1
      vertex -16.5 -16.5 -1
      vertex -7.27531 -1.84717 -1
    endloop
  endfacet
  facet normal -0 0 -1
    outer loop
      vertex -7.10466 -2.02258 -1
      vertex -16.5 -16.5 -1
      vertex -7.19525 -1.94023 -1
    endloop
  endfacet
  facet normal -0 0 -1
    outer loop
      vertex -7.0079 -2.09113 -1
      vertex -16.5 -16.5 -1
      vertex -7.10466 -2.02258 -1
    endloop
  endfacet
  facet normal -0 0 -1
    outer loop
      vertex -6.90039 -2.14958 -1
      vertex -16.5 -16.5 -1
      vertex -7.0079 -2.09113 -1
    endloop
  endfacet
  facet normal 0 0 -1
    outer loop
      vertex 7.84952 1.40314 -1
      vertex 16.5 16.5 -1
      vertex 7.8627 1.28096 -1
    endloop
  endfacet
  facet normal 0 0 -1
    outer loop
      vertex 7.81943 1.52464 -1
      vertex 16.5 16.5 -1
      vertex 7.84952 1.40314 -1
    endloop
  endfacet
  facet normal 0 0 -1
    outer loop
      vertex 7.77345 1.64027 -1
      vertex 16.5 16.5 -1
      vertex 7.81943 1.52464 -1
    endloop
  endfacet
  facet normal 0 0 -1
    outer loop
      vertex 7.71468 1.74539 -1
      vertex 16.5 16.5 -1
      vertex 7.77345 1.64027 -1
    endloop
  endfacet
  facet normal 0 0 -1
    outer loop
      vertex 7.6432 1.84245 -1
      vertex 16.5 16.5 -1
      vertex 7.71468 1.74539 -1
    endloop
  endfacet
  facet normal 0 0 -1
    outer loop
      vertex 7.5137 1.97104 -1
      vertex 16.5 16.5 -1
      vertex 7.6432 1.84245 -1
    endloop
  endfacet
  facet normal 0 0 -1
    outer loop
      vertex 7.43343 2.03125 -1
      vertex 16.5 16.5 -1
      vertex 7.5137 1.97104 -1
    endloop
  endfacet
  facet normal 0 0 -1
    outer loop
      vertex 7.31026 2.10248 -1
      vertex 16.5 16.5 -1
      vertex 7.43343 2.03125 -1
    endloop
  endfacet
  facet normal 0 0 -1
    outer loop
      vertex 7.17781 2.15616 -1
      vertex 16.5 16.5 -1
      vertex 7.31026 2.10248 -1
    endloop
  endfacet
  facet normal 0 0 -1
    outer loop
      vertex 7.05891 2.18718 -1
      vertex 16.5 16.5 -1
      vertex 7.17781 2.15616 -1
    endloop
  endfacet
  facet normal 0 0 -1
    outer loop
      vertex 6.93629 2.20345 -1
      vertex 16.5 16.5 -1
      vertex 7.05891 2.18718 -1
    endloop
  endfacet
  facet normal 0 0 -1
    outer loop
      vertex -6.51411 2.20535 -1
      vertex 16.5 16.5 -1
      vertex 6.93629 2.20345 -1
    endloop
  endfacet
  facet normal 0 0 -1
    outer loop
      vertex -16.5 16.5 -1
      vertex -6.51411 2.20535 -1
      vertex -6.65804 2.18965 -1
    endloop
  endfacet
  facet normal 0 0 -1
    outer loop
      vertex -16.5 16.5 -1
      vertex -6.65804 2.18965 -1
      vertex -6.77742 2.16035 -1
    endloop
  endfacet
  facet normal 0 0 -1
    outer loop
      vertex -16.5 16.5 -1
      vertex -6.77742 2.16035 -1
      vertex -6.88838 2.11853 -1
    endloop
  endfacet
  facet normal 0 0 -1
    outer loop
      vertex -16.5 16.5 -1
      vertex -6.88838 2.11853 -1
      vertex -7.01091 2.05367 -1
    endloop
  endfacet
  facet normal 0 0 -1
    outer loop
      vertex -16.5 -16.5 -1
      vertex -7.47292 1.31856 -1
      vertex -7.47601 -1.26585 -1
    endloop
  endfacet
  facet normal 0 0 -1
    outer loop
      vertex -16.5 16.5 -1
      vertex -7.47292 1.31856 -1
      vertex -16.5 -16.5 -1
    endloop
  endfacet
  facet normal 0 0 -1
    outer loop
      vertex -7.47292 1.31856 -1
      vertex -16.5 16.5 -1
      vertex -7.45407 1.44379 -1
    endloop
  endfacet
  facet normal 0 0 -1
    outer loop
      vertex -7.45407 1.44379 -1
      vertex -16.5 16.5 -1
      vertex -7.41844 1.5638 -1
    endloop
  endfacet
  facet normal 0 0 -1
    outer loop
      vertex -6.51411 2.20535 -1
      vertex -16.5 16.5 -1
      vertex 16.5 16.5 -1
    endloop
  endfacet
  facet normal 0 0 -1
    outer loop
      vertex -7.12613 1.97104 -1
      vertex -16.5 16.5 -1
      vertex -7.01091 2.05367 -1
    endloop
  endfacet
  facet normal 0 0 -1
    outer loop
      vertex -7.22829 1.87354 -1
      vertex -16.5 16.5 -1
      vertex -7.12613 1.97104 -1
    endloop
  endfacet
  facet normal 0 0 -1
    outer loop
      vertex -7.30621 1.77669 -1
      vertex -16.5 16.5 -1
      vertex -7.22829 1.87354 -1
    endloop
  endfacet
  facet normal 0 0 -1
    outer loop
      vertex -7.36913 1.67395 -1
      vertex -16.5 16.5 -1
      vertex -7.30621 1.77669 -1
    endloop
  endfacet
  facet normal 0 0 -1
    outer loop
      vertex -7.41844 1.5638 -1
      vertex -16.5 16.5 -1
      vertex -7.36913 1.67395 -1
    endloop
  endfacet
  facet normal 0.238328 -0.971185 0
    outer loop
      vertex -6.77742 2.16035 -1
      vertex -6.65804 2.18965 -2.68155e-16
      vertex -6.77742 2.16035 -2.64567e-16
    endloop
  endfacet
  facet normal 0.238328 -0.971185 0
    outer loop
      vertex -6.65804 2.18965 -2.68155e-16
      vertex -6.77742 2.16035 -1
      vertex -6.65804 2.18965 -1
    endloop
  endfacet
  facet normal 0.352702 -0.935736 0
    outer loop
      vertex -6.88838 2.11853 -1
      vertex -6.77742 2.16035 -2.64567e-16
      vertex -6.88838 2.11853 -2.59445e-16
    endloop
  endfacet
  facet normal 0.352702 -0.935736 0
    outer loop
      vertex -6.77742 2.16035 -2.64567e-16
      vertex -6.88838 2.11853 -1
      vertex -6.77742 2.16035 -1
    endloop
  endfacet
  facet normal 0.467873 -0.883796 0
    outer loop
      vertex -7.01091 2.05367 -1
      vertex -6.88838 2.11853 -2.59445e-16
      vertex -7.01091 2.05367 -2.51501e-16
    endloop
  endfacet
  facet normal 0.467873 -0.883796 0
    outer loop
      vertex -6.88838 2.11853 -2.59445e-16
      vertex -7.01091 2.05367 -1
      vertex -6.88838 2.11853 -1
    endloop
  endfacet
  facet normal 0.582764 -0.812641 0
    outer loop
      vertex -7.12613 1.97104 -1
      vertex -7.01091 2.05367 -2.51501e-16
      vertex -7.12613 1.97104 -2.41383e-16
    endloop
  endfacet
  facet normal 0.582764 -0.812641 0
    outer loop
      vertex -7.01091 2.05367 -2.51501e-16
      vertex -7.12613 1.97104 -1
      vertex -7.01091 2.05367 -1
    endloop
  endfacet
  facet normal 0.690437 -0.723392 0
    outer loop
      vertex -7.22829 1.87354 -1
      vertex -7.12613 1.97104 -2.41383e-16
      vertex -7.22829 1.87354 -2.29442e-16
    endloop
  endfacet
  facet normal 0.690437 -0.723392 0
    outer loop
      vertex -7.12613 1.97104 -2.41383e-16
      vertex -7.22829 1.87354 -1
      vertex -7.12613 1.97104 -1
    endloop
  endfacet
  facet normal 0.779105 -0.626893 0
    outer loop
      vertex -7.30621 1.77669 -2.17581e-16
      vertex -7.22829 1.87354 -1
      vertex -7.22829 1.87354 -2.29442e-16
    endloop
  endfacet
  facet normal 0.779105 -0.626893 0
    outer loop
      vertex -7.22829 1.87354 -1
      vertex -7.30621 1.77669 -2.17581e-16
      vertex -7.30621 1.77669 -1
    endloop
  endfacet
  facet normal 0.852809 -0.522223 0
    outer loop
      vertex -7.36913 1.67395 -2.05e-16
      vertex -7.30621 1.77669 -1
      vertex -7.30621 1.77669 -2.17581e-16
    endloop
  endfacet
  facet normal 0.852809 -0.522223 0
    outer loop
      vertex -7.30621 1.77669 -1
      vertex -7.36913 1.67395 -2.05e-16
      vertex -7.36913 1.67395 -1
    endloop
  endfacet
  facet normal 0.912703 -0.408624 0
    outer loop
      vertex -7.41844 1.5638 -1.9151e-16
      vertex -7.36913 1.67395 -1
      vertex -7.36913 1.67395 -2.05e-16
    endloop
  endfacet
  facet normal 0.912703 -0.408624 0
    outer loop
      vertex -7.36913 1.67395 -1
      vertex -7.41844 1.5638 -1.9151e-16
      vertex -7.41844 1.5638 -1
    endloop
  endfacet
  facet normal 0.958644 -0.284607 0
    outer loop
      vertex -7.45407 1.44379 -1.76813e-16
      vertex -7.41844 1.5638 -1
      vertex -7.41844 1.5638 -1.9151e-16
    endloop
  endfacet
  facet normal 0.958644 -0.284607 0
    outer loop
      vertex -7.41844 1.5638 -1
      vertex -7.45407 1.44379 -1.76813e-16
      vertex -7.45407 1.44379 -1
    endloop
  endfacet
  facet normal 0.988866 -0.148806 0
    outer loop
      vertex -7.47292 1.31856 -1.61477e-16
      vertex -7.45407 1.44379 -1
      vertex -7.45407 1.44379 -1.76813e-16
    endloop
  endfacet
  facet normal 0.988866 -0.148806 0
    outer loop
      vertex -7.45407 1.44379 -1
      vertex -7.47292 1.31856 -1.61477e-16
      vertex -7.47292 1.31856 -1
    endloop
  endfacet
  facet normal 0.999999 -0.00119854 0
    outer loop
      vertex -7.47601 -1.26585 1.55022e-16
      vertex -7.47292 1.31856 -1
      vertex -7.47292 1.31856 -1.61477e-16
    endloop
  endfacet
  facet normal 0.999999 -0.00119854 0
    outer loop
      vertex -7.47292 1.31856 -1
      vertex -7.47601 -1.26585 1.55022e-16
      vertex -7.47601 -1.26585 -1
    endloop
  endfacet
  facet normal 0.996757 0.08047 0
    outer loop
      vertex -7.46638 -1.38512 1.69628e-16
      vertex -7.47601 -1.26585 -1
      vertex -7.47601 -1.26585 1.55022e-16
    endloop
  endfacet
  facet normal 0.996757 0.08047 0
    outer loop
      vertex -7.47601 -1.26585 -1
      vertex -7.46638 -1.38512 1.69628e-16
      vertex -7.46638 -1.38512 -1
    endloop
  endfacet
  facet normal 0.979734 0.200303 0
    outer loop
      vertex -7.44 -1.51416 1.85431e-16
      vertex -7.46638 -1.38512 -1
      vertex -7.46638 -1.38512 1.69628e-16
    endloop
  endfacet
  facet normal 0.979734 0.200303 0
    outer loop
      vertex -7.46638 -1.38512 -1
      vertex -7.44 -1.51416 1.85431e-16
      vertex -7.44 -1.51416 -1
    endloop
  endfacet
  facet normal 0.944944 0.327231 0
    outer loop
      vertex -7.39883 -1.63304 1.9999e-16
      vertex -7.44 -1.51416 -1
      vertex -7.44 -1.51416 1.85431e-16
    endloop
  endfacet
  facet normal 0.944944 0.327231 0
    outer loop
      vertex -7.44 -1.51416 -1
      vertex -7.39883 -1.63304 1.9999e-16
      vertex -7.39883 -1.63304 -1
    endloop
  endfacet
  facet normal 0.895773 0.444512 0
    outer loop
      vertex -7.34357 -1.74442 2.13629e-16
      vertex -7.39883 -1.63304 -1
      vertex -7.39883 -1.63304 1.9999e-16
    endloop
  endfacet
  facet normal 0.895773 0.444512 0
    outer loop
      vertex -7.39883 -1.63304 -1
      vertex -7.34357 -1.74442 2.13629e-16
      vertex -7.34357 -1.74442 -1
    endloop
  endfacet
  facet normal 0.832982 0.553301 0
    outer loop
      vertex -7.27531 -1.84717 2.26213e-16
      vertex -7.34357 -1.74442 -1
      vertex -7.34357 -1.74442 2.13629e-16
    endloop
  endfacet
  facet normal 0.832982 0.553301 0
    outer loop
      vertex -7.34357 -1.74442 -1
      vertex -7.27531 -1.84717 2.26213e-16
      vertex -7.27531 -1.84717 -1
    endloop
  endfacet
  facet normal 0.758071 0.652172 0
    outer loop
      vertex -7.19525 -1.94023 2.3761e-16
      vertex -7.27531 -1.84717 -1
      vertex -7.27531 -1.84717 2.26213e-16
    endloop
  endfacet
  facet normal 0.758071 0.652172 0
    outer loop
      vertex -7.27531 -1.84717 -1
      vertex -7.19525 -1.94023 2.3761e-16
      vertex -7.19525 -1.94023 -1
    endloop
  endfacet
  facet normal 0.672654 0.739957 -0
    outer loop
      vertex -7.10466 -2.02258 -1
      vertex -7.19525 -1.94023 2.3761e-16
      vertex -7.10466 -2.02258 2.47695e-16
    endloop
  endfacet
  facet normal 0.672654 0.739957 0
    outer loop
      vertex -7.19525 -1.94023 2.3761e-16
      vertex -7.10466 -2.02258 -1
      vertex -7.19525 -1.94023 -1
    endloop
  endfacet
  facet normal 0.578057 0.815997 -0
    outer loop
      vertex -7.0079 -2.09113 -1
      vertex -7.10466 -2.02258 2.47695e-16
      vertex -7.0079 -2.09113 2.56089e-16
    endloop
  endfacet
  facet normal 0.578057 0.815997 0
    outer loop
      vertex -7.10466 -2.02258 2.47695e-16
      vertex -7.0079 -2.09113 -1
      vertex -7.10466 -2.02258 -1
    endloop
  endfacet
  facet normal 0.477672 0.878538 -0
    outer loop
      vertex -6.90039 -2.14958 -1
      vertex -7.0079 -2.09113 2.56089e-16
      vertex -6.90039 -2.14958 2.63248e-16
    endloop
  endfacet
  facet normal 0.477672 0.878538 0
    outer loop
      vertex -7.0079 -2.09113 2.56089e-16
      vertex -6.90039 -2.14958 -1
      vertex -7.0079 -2.09113 -1
    endloop
  endfacet
  facet normal 0.367944 0.929848 -0
    outer loop
      vertex -6.7903 -2.19315 -1
      vertex -6.90039 -2.14958 2.63248e-16
      vertex -6.7903 -2.19315 2.68583e-16
    endloop
  endfacet
  facet normal 0.367944 0.929848 0
    outer loop
      vertex -6.90039 -2.14958 2.63248e-16
      vertex -6.7903 -2.19315 -1
      vertex -6.90039 -2.14958 -1
    endloop
  endfacet
  facet normal 0.254457 0.967084 -0
    outer loop
      vertex -6.67078 -2.22459 -1
      vertex -6.7903 -2.19315 2.68583e-16
      vertex -6.67078 -2.22459 2.72434e-16
    endloop
  endfacet
  facet normal 0.254457 0.967084 0
    outer loop
      vertex -6.7903 -2.19315 2.68583e-16
      vertex -6.67078 -2.22459 -1
      vertex -6.7903 -2.19315 -1
    endloop
  endfacet
  facet normal 0.131898 0.991263 -0
    outer loop
      vertex -6.54796 -2.24094 -1
      vertex -6.67078 -2.22459 2.72434e-16
      vertex -6.54796 -2.24094 2.74436e-16
    endloop
  endfacet
  facet normal 0.131898 0.991263 0
    outer loop
      vertex -6.67078 -2.22459 2.72434e-16
      vertex -6.54796 -2.24094 -1
      vertex -6.67078 -2.22459 -1
    endloop
  endfacet
  facet normal 0.000191969 1 -0
    outer loop
      vertex 6.8851 -2.24352 -1
      vertex -6.54796 -2.24094 2.74436e-16
      vertex 6.8851 -2.24352 2.74751e-16
    endloop
  endfacet
  facet normal 0.000191969 1 0
    outer loop
      vertex -6.54796 -2.24094 2.74436e-16
      vertex 6.8851 -2.24352 -1
      vertex -6.54796 -2.24094 -1
    endloop
  endfacet
  facet normal -0.0780328 0.996951 0
    outer loop
      vertex 6.99739 -2.23473 -1
      vertex 6.8851 -2.24352 2.74751e-16
      vertex 6.99739 -2.23473 2.73675e-16
    endloop
  endfacet
  facet normal -0.0780328 0.996951 0
    outer loop
      vertex 6.8851 -2.24352 2.74751e-16
      vertex 6.99739 -2.23473 -1
      vertex 6.8851 -2.24352 -1
    endloop
  endfacet
  facet normal -0.192777 0.981243 0
    outer loop
      vertex 7.11816 -2.211 -1
      vertex 6.99739 -2.23473 2.73675e-16
      vertex 7.11816 -2.211 2.70769e-16
    endloop
  endfacet
  facet normal -0.192777 0.981243 0
    outer loop
      vertex 6.99739 -2.23473 2.73675e-16
      vertex 7.11816 -2.211 -1
      vertex 6.99739 -2.23473 -1
    endloop
  endfacet
  facet normal -0.311967 0.950093 0
    outer loop
      vertex 7.23462 -2.17276 -1
      vertex 7.11816 -2.211 2.70769e-16
      vertex 7.23462 -2.17276 2.66086e-16
    endloop
  endfacet
  facet normal -0.311967 0.950093 0
    outer loop
      vertex 7.11816 -2.211 2.70769e-16
      vertex 7.23462 -2.17276 -1
      vertex 7.11816 -2.211 -1
    endloop
  endfacet
  facet normal -0.424625 0.905369 0
    outer loop
      vertex 7.34195 -2.12242 -1
      vertex 7.23462 -2.17276 2.66086e-16
      vertex 7.34195 -2.12242 2.59922e-16
    endloop
  endfacet
  facet normal -0.424625 0.905369 0
    outer loop
      vertex 7.23462 -2.17276 2.66086e-16
      vertex 7.34195 -2.12242 -1
      vertex 7.23462 -2.17276 -1
    endloop
  endfacet
  facet normal -0.528888 0.848692 0
    outer loop
      vertex 7.44569 -2.05777 -1
      vertex 7.34195 -2.12242 2.59922e-16
      vertex 7.44569 -2.05777 2.52004e-16
    endloop
  endfacet
  facet normal -0.528888 0.848692 0
    outer loop
      vertex 7.34195 -2.12242 2.59922e-16
      vertex 7.44569 -2.05777 -1
      vertex 7.34195 -2.12242 -1
    endloop
  endfacet
  facet normal -0.62739 0.778705 0
    outer loop
      vertex 7.53804 -1.98337 -1
      vertex 7.44569 -2.05777 2.52004e-16
      vertex 7.53804 -1.98337 2.42893e-16
    endloop
  endfacet
  facet normal -0.62739 0.778705 0
    outer loop
      vertex 7.44569 -2.05777 2.52004e-16
      vertex 7.53804 -1.98337 -1
      vertex 7.44569 -2.05777 -1
    endloop
  endfacet
  facet normal -0.715579 0.698532 0
    outer loop
      vertex 7.53804 -1.98337 -1
      vertex 7.6237 -1.89561 2.32146e-16
      vertex 7.6237 -1.89561 -1
    endloop
  endfacet
  facet normal -0.715579 0.698532 0
    outer loop
      vertex 7.6237 -1.89561 2.32146e-16
      vertex 7.53804 -1.98337 -1
      vertex 7.53804 -1.98337 2.42893e-16
    endloop
  endfacet
  facet normal -0.796403 0.604766 0
    outer loop
      vertex 7.6237 -1.89561 -1
      vertex 7.6982 -1.79752 2.20132e-16
      vertex 7.6982 -1.79752 -1
    endloop
  endfacet
  facet normal -0.796403 0.604766 0
    outer loop
      vertex 7.6982 -1.79752 2.20132e-16
      vertex 7.6237 -1.89561 -1
      vertex 7.6237 -1.89561 2.32146e-16
    endloop
  endfacet
  facet normal -0.865672 0.500611 0
    outer loop
      vertex 7.6982 -1.79752 -1
      vertex 7.75844 -1.69334 2.07375e-16
      vertex 7.75844 -1.69334 -1
    endloop
  endfacet
  facet normal -0.865672 0.500611 0
    outer loop
      vertex 7.75844 -1.69334 2.07375e-16
      vertex 7.6982 -1.79752 -1
      vertex 7.6982 -1.79752 2.20132e-16
    endloop
  endfacet
  facet normal -0.921112 0.389297 0
    outer loop
      vertex 7.75844 -1.69334 -1
      vertex 7.80875 -1.57431 1.92797e-16
      vertex 7.80875 -1.57431 -1
    endloop
  endfacet
  facet normal -0.921112 0.389297 0
    outer loop
      vertex 7.80875 -1.57431 1.92797e-16
      vertex 7.75844 -1.69334 -1
      vertex 7.75844 -1.69334 2.07375e-16
    endloop
  endfacet
  facet normal -0.96437 0.264555 0
    outer loop
      vertex 7.80875 -1.57431 -1
      vertex 7.84247 -1.45139 1.77743e-16
      vertex 7.84247 -1.45139 -1
    endloop
  endfacet
  facet normal -0.96437 0.264555 0
    outer loop
      vertex 7.84247 -1.45139 1.77743e-16
      vertex 7.80875 -1.57431 -1
      vertex 7.80875 -1.57431 1.92797e-16
    endloop
  endfacet
  facet normal -0.990606 0.136749 0
    outer loop
      vertex 7.84247 -1.45139 -1
      vertex 7.86079 -1.31863 1.61486e-16
      vertex 7.86079 -1.31863 -1
    endloop
  endfacet
  facet normal -0.990606 0.136749 0
    outer loop
      vertex 7.86079 -1.31863 1.61486e-16
      vertex 7.84247 -1.45139 -1
      vertex 7.84247 -1.45139 1.77743e-16
    endloop
  endfacet
  facet normal -1 0.00073371 0
    outer loop
      vertex 7.86079 -1.31863 -1
      vertex 7.8627 1.28096 -1.56872e-16
      vertex 7.8627 1.28096 -1
    endloop
  endfacet
  facet normal -1 0.00073371 0
    outer loop
      vertex 7.8627 1.28096 -1.56872e-16
      vertex 7.86079 -1.31863 -1
      vertex 7.86079 -1.31863 1.61486e-16
    endloop
  endfacet
  facet normal -0.994229 -0.107283 0
    outer loop
      vertex 7.8627 1.28096 -1
      vertex 7.84952 1.40314 -1.71835e-16
      vertex 7.84952 1.40314 -1
    endloop
  endfacet
  facet normal -0.994229 -0.107283 0
    outer loop
      vertex 7.84952 1.40314 -1.71835e-16
      vertex 7.8627 1.28096 -1
      vertex 7.8627 1.28096 -1.56872e-16
    endloop
  endfacet
  facet normal -0.970678 -0.240384 0
    outer loop
      vertex 7.84952 1.40314 -1
      vertex 7.81943 1.52464 -1.86715e-16
      vertex 7.81943 1.52464 -1
    endloop
  endfacet
  facet normal -0.970678 -0.240384 0
    outer loop
      vertex 7.81943 1.52464 -1.86715e-16
      vertex 7.84952 1.40314 -1
      vertex 7.84952 1.40314 -1.71835e-16
    endloop
  endfacet
  facet normal -0.929244 -0.369466 0
    outer loop
      vertex 7.81943 1.52464 -1
      vertex 7.77345 1.64027 -2.00876e-16
      vertex 7.77345 1.64027 -1
    endloop
  endfacet
  facet normal -0.929244 -0.369466 0
    outer loop
      vertex 7.77345 1.64027 -2.00876e-16
      vertex 7.81943 1.52464 -1
      vertex 7.81943 1.52464 -1.86715e-16
    endloop
  endfacet
  facet normal -0.872821 -0.48804 0
    outer loop
      vertex 7.77345 1.64027 -1
      vertex 7.71468 1.74539 -2.13749e-16
      vertex 7.71468 1.74539 -1
    endloop
  endfacet
  facet normal -0.872821 -0.48804 0
    outer loop
      vertex 7.71468 1.74539 -2.13749e-16
      vertex 7.77345 1.64027 -1
      vertex 7.77345 1.64027 -2.00876e-16
    endloop
  endfacet
  facet normal -0.80524 -0.592949 0
    outer loop
      vertex 7.71468 1.74539 -1
      vertex 7.6432 1.84245 -2.25635e-16
      vertex 7.6432 1.84245 -1
    endloop
  endfacet
  facet normal -0.80524 -0.592949 0
    outer loop
      vertex 7.6432 1.84245 -2.25635e-16
      vertex 7.71468 1.74539 -1
      vertex 7.71468 1.74539 -2.13749e-16
    endloop
  endfacet
  facet normal -0.704594 -0.709611 0
    outer loop
      vertex 7.5137 1.97104 -1
      vertex 7.6432 1.84245 -2.25635e-16
      vertex 7.5137 1.97104 -2.41383e-16
    endloop
  endfacet
  facet normal -0.704594 -0.709611 -0
    outer loop
      vertex 7.6432 1.84245 -2.25635e-16
      vertex 7.5137 1.97104 -1
      vertex 7.6432 1.84245 -1
    endloop
  endfacet
  facet normal -0.600024 -0.799982 0
    outer loop
      vertex 7.43343 2.03125 -1
      vertex 7.5137 1.97104 -2.41383e-16
      vertex 7.43343 2.03125 -2.48756e-16
    endloop
  endfacet
  facet normal -0.600024 -0.799982 -0
    outer loop
      vertex 7.5137 1.97104 -2.41383e-16
      vertex 7.43343 2.03125 -1
      vertex 7.5137 1.97104 -1
    endloop
  endfacet
  facet normal -0.500613 -0.865671 0
    outer loop
      vertex 7.31026 2.10248 -1
      vertex 7.43343 2.03125 -2.48756e-16
      vertex 7.31026 2.10248 -2.57479e-16
    endloop
  endfacet
  facet normal -0.500613 -0.865671 -0
    outer loop
      vertex 7.43343 2.03125 -2.48756e-16
      vertex 7.31026 2.10248 -1
      vertex 7.43343 2.03125 -1
    endloop
  endfacet
  facet normal -0.375621 -0.926773 0
    outer loop
      vertex 7.17781 2.15616 -1
      vertex 7.31026 2.10248 -2.57479e-16
      vertex 7.17781 2.15616 -2.64053e-16
    endloop
  endfacet
  facet normal -0.375621 -0.926773 -0
    outer loop
      vertex 7.31026 2.10248 -2.57479e-16
      vertex 7.17781 2.15616 -1
      vertex 7.31026 2.10248 -1
    endloop
  endfacet
  facet normal -0.252457 -0.967608 0
    outer loop
      vertex 7.05891 2.18718 -1
      vertex 7.17781 2.15616 -2.64053e-16
      vertex 7.05891 2.18718 -2.67852e-16
    endloop
  endfacet
  facet normal -0.252457 -0.967608 -0
    outer loop
      vertex 7.17781 2.15616 -2.64053e-16
      vertex 7.05891 2.18718 -1
      vertex 7.17781 2.15616 -1
    endloop
  endfacet
  facet normal -0.131501 -0.991316 0
    outer loop
      vertex 6.93629 2.20345 -1
      vertex 7.05891 2.18718 -2.67852e-16
      vertex 6.93629 2.20345 -2.69844e-16
    endloop
  endfacet
  facet normal -0.131501 -0.991316 -0
    outer loop
      vertex 7.05891 2.18718 -2.67852e-16
      vertex 6.93629 2.20345 -1
      vertex 7.05891 2.18718 -1
    endloop
  endfacet
  facet normal -0.000141806 -1 0
    outer loop
      vertex -6.51411 2.20535 -1
      vertex 6.93629 2.20345 -2.69844e-16
      vertex -6.51411 2.20535 -2.70078e-16
    endloop
  endfacet
  facet normal -0.000141806 -1 -0
    outer loop
      vertex 6.93629 2.20345 -2.69844e-16
      vertex -6.51411 2.20535 -1
      vertex 6.93629 2.20345 -1
    endloop
  endfacet
  facet normal 0.108453 -0.994102 0
    outer loop
      vertex -6.65804 2.18965 -1
      vertex -6.51411 2.20535 -2.70078e-16
      vertex -6.65804 2.18965 -2.68155e-16
    endloop
  endfacet
  facet normal 0.108453 -0.994102 0
    outer loop
      vertex -6.51411 2.20535 -2.70078e-16
      vertex -6.65804 2.18965 -1
      vertex -6.51411 2.20535 -1
    endloop
  endfacet
  facet normal -0 0 1
    outer loop
      vertex -16.5 7.15 13.3
      vertex -15.5 -7.15 13.3
      vertex -15.5 7.15 13.3
    endloop
  endfacet
  facet normal 0 0 1
    outer loop
      vertex -15.5 -7.15 13.3
      vertex -16.5 7.15 13.3
      vertex -16.5 -7.15 13.3
    endloop
  endfacet
  facet normal 0 1 -0
    outer loop
      vertex -15.5 -7.15 13.3
      vertex -16.5 -7.15 15
      vertex -15.5 -7.15 15
    endloop
  endfacet
  facet normal 0 1 0
    outer loop
      vertex -16.5 -7.15 15
      vertex -15.5 -7.15 13.3
      vertex -16.5 -7.15 13.3
    endloop
  endfacet
  facet normal 0 -1 0
    outer loop
      vertex -16.5 7.15 13.3
      vertex -15.5 7.15 15
      vertex -16.5 7.15 15
    endloop
  endfacet
  facet normal 0 -1 -0
    outer loop
      vertex -15.5 7.15 15
      vertex -16.5 7.15 13.3
      vertex -15.5 7.15 13.3
    endloop
  endfacet
  facet normal -0 0 1
    outer loop
      vertex 15.5 7.15 13.3
      vertex 16.5 -7.15 13.3
      vertex 16.5 7.15 13.3
    endloop
  endfacet
  facet normal 0 0 1
    outer loop
      vertex 16.5 -7.15 13.3
      vertex 15.5 7.15 13.3
      vertex 15.5 -7.15 13.3
    endloop
  endfacet
  facet normal 0 1 -0
    outer loop
      vertex 16.5 -7.15 13.3
      vertex 15.5 -7.15 15
      vertex 16.5 -7.15 15
    endloop
  endfacet
  facet normal 0 1 0
    outer loop
      vertex 15.5 -7.15 15
      vertex 16.5 -7.15 13.3
      vertex 15.5 -7.15 13.3
    endloop
  endfacet
  facet normal 0 -1 0
    outer loop
      vertex 15.5 7.15 13.3
      vertex 16.5 7.15 15
      vertex 15.5 7.15 15
    endloop
  endfacet
  facet normal 0 -1 -0
    outer loop
      vertex 16.5 7.15 15
      vertex 15.5 7.15 13.3
      vertex 16.5 7.15 13.3
    endloop
  endfacet
  facet normal 1 -0 0
    outer loop
      vertex -7.15 -16.5 15
      vertex -7.15 -15.5 13.3
      vertex -7.15 -15.5 15
    endloop
  endfacet
  facet normal 1 0 0
    outer loop
      vertex -7.15 -15.5 13.3
      vertex -7.15 -16.5 15
      vertex -7.15 -16.5 13.3
    endloop
  endfacet
  facet normal -0 0 1
    outer loop
      vertex -7.15 -15.5 13.3
      vertex 7.15 -16.5 13.3
      vertex 7.15 -15.5 13.3
    endloop
  endfacet
  facet normal 0 0 1
    outer loop
      vertex 7.15 -16.5 13.3
      vertex -7.15 -15.5 13.3
      vertex -7.15 -16.5 13.3
    endloop
  endfacet
  facet normal -1 0 0
    outer loop
      vertex 7.15 -16.5 13.3
      vertex 7.15 -15.5 15
      vertex 7.15 -15.5 13.3
    endloop
  endfacet
  facet normal -1 -0 0
    outer loop
      vertex 7.15 -15.5 15
      vertex 7.15 -16.5 13.3
      vertex 7.15 -16.5 15
    endloop
  endfacet
  facet normal 1 -0 0
    outer loop
      vertex -7.15 15.5 15
      vertex -7.15 16.5 13.3
      vertex -7.15 16.5 15
    endloop
  endfacet
  facet normal 1 0 0
    outer loop
      vertex -7.15 16.5 13.3
      vertex -7.15 15.5 15
      vertex -7.15 15.5 13.3
    endloop
  endfacet
  facet normal -0 0 1
    outer loop
      vertex -7.15 16.5 13.3
      vertex 7.15 15.5 13.3
      vertex 7.15 16.5 13.3
    endloop
  endfacet
  facet normal 0 0 1
    outer loop
      vertex 7.15 15.5 13.3
      vertex -7.15 16.5 13.3
      vertex -7.15 15.5 13.3
    endloop
  endfacet
  facet normal -1 0 0
    outer loop
      vertex 7.15 15.5 13.3
      vertex 7.15 16.5 15
      vertex 7.15 16.5 13.3
    endloop
  endfacet
  facet normal -1 -0 0
    outer loop
      vertex 7.15 16.5 15
      vertex 7.15 15.5 13.3
      vertex 7.15 15.5 15
    endloop
  endfacet
endsolid OpenSCAD_Model
