solid OpenSCAD_Model
  facet normal -1 0 0
    outer loop
      vertex -16.5 16.5 -1
      vertex -16.5 7.15 13.3
      vertex -16.5 16.5 15
    endloop
  endfacet
  facet normal -1 0 0
    outer loop
      vertex -16.5 16.5 -1
      vertex -16.5 -7.15 13.3
      vertex -16.5 7.15 13.3
    endloop
  endfacet
  facet normal -1 0 0
    outer loop
      vertex -16.5 -16.5 -1
      vertex -16.5 -7.15 13.3
      vertex -16.5 16.5 -1
    endloop
  endfacet
  facet normal -1 0 0
    outer loop
      vertex -16.5 -16.5 15
      vertex -16.5 -7.15 13.3
      vertex -16.5 -16.5 -1
    endloop
  endfacet
  facet normal -1 0 0
    outer loop
      vertex -16.5 -7.15 13.3
      vertex -16.5 -16.5 15
      vertex -16.5 -7.15 15
    endloop
  endfacet
  facet normal -1 -0 0
    outer loop
      vertex -16.5 16.5 15
      vertex -16.5 7.15 13.3
      vertex -16.5 7.15 15
    endloop
  endfacet
  facet normal -4.82907e-24 1.22465e-16 1
    outer loop
      vertex 15.5 15.5 -1.8982e-15
      vertex 7.11327 11.8856 -1.45557e-15
      vertex 15.5 -15.5 1.8982e-15
    endloop
  endfacet
  facet normal 1.59724e-22 1.22464e-16 1
    outer loop
      vertex 15.5 15.5 -1.8982e-15
      vertex 7.10362 12.0048 -1.47017e-15
      vertex 7.11327 11.8856 -1.45557e-15
    endloop
  endfacet
  facet normal -1.92618e-22 1.22465e-16 1
    outer loop
      vertex 15.5 15.5 -1.8982e-15
      vertex 7.07808 12.1302 -1.48552e-15
      vertex 7.10362 12.0048 -1.47017e-15
    endloop
  endfacet
  facet normal 2.02701e-22 1.22464e-16 1
    outer loop
      vertex 15.5 15.5 -1.8982e-15
      vertex 7.03609 12.2526 -1.50052e-15
      vertex 7.07808 12.1302 -1.48552e-15
    endloop
  endfacet
  facet normal -1.03917e-22 1.22465e-16 1
    outer loop
      vertex 15.5 15.5 -1.8982e-15
      vertex 6.98082 12.3639 -1.51414e-15
      vertex 7.03609 12.2526 -1.50052e-15
    endloop
  endfacet
  facet normal 9.27915e-23 1.22464e-16 1
    outer loop
      vertex 15.5 15.5 -1.8982e-15
      vertex 6.91257 12.4665 -1.52671e-15
      vertex 6.98082 12.3639 -1.51414e-15
    endloop
  endfacet
  facet normal -5.08391e-23 1.22465e-16 1
    outer loop
      vertex 15.5 15.5 -1.8982e-15
      vertex 6.8325 12.5595 -1.53809e-15
      vertex 6.91257 12.4665 -1.52671e-15
    endloop
  endfacet
  facet normal -1.37077e-22 1.22465e-16 1
    outer loop
      vertex 15.5 15.5 -1.8982e-15
      vertex 6.74191 12.6417 -1.54816e-15
      vertex 6.8325 12.5595 -1.53809e-15
    endloop
  endfacet
  facet normal 6.75465e-23 1.22464e-16 1
    outer loop
      vertex 15.5 15.5 -1.8982e-15
      vertex 6.64516 12.7101 -1.55654e-15
      vertex 6.74191 12.6417 -1.54816e-15
    endloop
  endfacet
  facet normal 5.27577e-23 1.22465e-16 1
    outer loop
      vertex 15.5 15.5 -1.8982e-15
      vertex 6.53764 12.7685 -1.56369e-15
      vertex 6.64516 12.7101 -1.55654e-15
    endloop
  endfacet
  facet normal 4.76216e-24 1.22465e-16 1
    outer loop
      vertex 15.5 15.5 -1.8982e-15
      vertex 6.42357 12.8135 -1.5692e-15
      vertex 6.53764 12.7685 -1.56369e-15
    endloop
  endfacet
  facet normal 3.84064e-23 1.22465e-16 1
    outer loop
      vertex 15.5 15.5 -1.8982e-15
      vertex 6.30803 12.8434 -1.57286e-15
      vertex 6.42357 12.8135 -1.5692e-15
    endloop
  endfacet
  facet normal -1.16636e-22 1.22465e-16 1
    outer loop
      vertex 15.5 15.5 -1.8982e-15
      vertex 6.1852 12.8597 -1.57486e-15
      vertex 6.30803 12.8434 -1.57286e-15
    endloop
  endfacet
  facet normal -7.43517e-24 1.22465e-16 1
    outer loop
      vertex 15.5 15.5 -1.8982e-15
      vertex 2.92653 12.8625 -1.5752e-15
      vertex 6.1852 12.8597 -1.57486e-15
    endloop
  endfacet
  facet normal -1.84481e-23 1.22465e-16 1
    outer loop
      vertex 1.9344 12.0354 -1.47392e-15
      vertex -2.27371 11.8856 -1.45557e-15
      vertex -2.2735 -2.41884 2.96222e-16
    endloop
  endfacet
  facet normal 1.99384e-23 1.22465e-16 1
    outer loop
      vertex -2.35089 12.2526 -1.50052e-15
      vertex 1.9344 12.0354 -1.47392e-15
      vertex 1.99998 12.1833 -1.49203e-15
    endloop
  endfacet
  facet normal 1.07726e-24 1.22465e-16 1
    outer loop
      vertex -2.40617 12.3639 -1.51414e-15
      vertex 1.99998 12.1833 -1.49203e-15
      vertex 2.0815 12.3199 -1.50875e-15
    endloop
  endfacet
  facet normal 9.72491e-24 1.22465e-16 1
    outer loop
      vertex -2.47443 12.4665 -1.52671e-15
      vertex 2.0815 12.3199 -1.50875e-15
      vertex 2.18835 12.4568 -1.52552e-15
    endloop
  endfacet
  facet normal 5.91913e-24 1.22465e-16 1
    outer loop
      vertex -2.55449 12.5595 -1.53809e-15
      vertex 2.18835 12.4568 -1.52552e-15
      vertex 2.31366 12.5793 -1.54052e-15
    endloop
  endfacet
  facet normal -3.51194e-24 1.22465e-16 1
    outer loop
      vertex -2.64508 12.6417 -1.54816e-15
      vertex 2.31366 12.5793 -1.54052e-15
      vertex 2.44949 12.6811 -1.55298e-15
    endloop
  endfacet
  facet normal -1.9072e-24 1.22464e-16 1
    outer loop
      vertex -2.74182 12.7101 -1.55654e-15
      vertex 2.44949 12.6811 -1.55298e-15
      vertex 2.59969 12.7649 -1.56325e-15
    endloop
  endfacet
  facet normal -3.14306e-24 1.22465e-16 1
    outer loop
      vertex -2.84933 12.7685 -1.56369e-15
      vertex 2.59969 12.7649 -1.56325e-15
      vertex 2.75513 12.8263 -1.57077e-15
    endloop
  endfacet
  facet normal 6.00195e-24 1.22465e-16 1
    outer loop
      vertex -3.07896 12.8434 -1.57286e-15
      vertex 2.75513 12.8263 -1.57077e-15
      vertex 2.92653 12.8625 -1.5752e-15
    endloop
  endfacet
  facet normal 3.97837e-24 1.22465e-16 1
    outer loop
      vertex -3.20178 12.8597 -1.57486e-15
      vertex 2.92653 12.8625 -1.5752e-15
      vertex 15.5 15.5 -1.8982e-15
    endloop
  endfacet
  facet normal -4.30556e-24 1.22464e-16 1
    outer loop
      vertex 1.9344 12.0354 -1.47392e-15
      vertex -2.28336 12.0048 -1.47017e-15
      vertex -2.27371 11.8856 -1.45557e-15
    endloop
  endfacet
  facet normal -1.08102e-23 1.22465e-16 1
    outer loop
      vertex 1.9344 12.0354 -1.47392e-15
      vertex -2.30891 12.1302 -1.48552e-15
      vertex -2.28336 12.0048 -1.47017e-15
    endloop
  endfacet
  facet normal -3.5516e-23 1.22464e-16 1
    outer loop
      vertex 1.9344 12.0354 -1.47392e-15
      vertex -2.35089 12.2526 -1.50052e-15
      vertex -2.30891 12.1302 -1.48552e-15
    endloop
  endfacet
  facet normal 1.75022e-23 1.22465e-16 1
    outer loop
      vertex 1.99998 12.1833 -1.49203e-15
      vertex -2.40617 12.3639 -1.51414e-15
      vertex -2.35089 12.2526 -1.50052e-15
    endloop
  endfacet
  facet normal -1.44058e-24 1.22464e-16 1
    outer loop
      vertex 2.0815 12.3199 -1.50875e-15
      vertex -2.47443 12.4665 -1.52671e-15
      vertex -2.40617 12.3639 -1.51414e-15
    endloop
  endfacet
  facet normal 1.00895e-23 1.22465e-16 1
    outer loop
      vertex 2.18835 12.4568 -1.52552e-15
      vertex -2.55449 12.5595 -1.53809e-15
      vertex -2.47443 12.4665 -1.52671e-15
    endloop
  endfacet
  facet normal 3.68035e-24 1.22465e-16 1
    outer loop
      vertex 2.31366 12.5793 -1.54052e-15
      vertex -2.64508 12.6417 -1.54816e-15
      vertex -2.55449 12.5595 -1.53809e-15
    endloop
  endfacet
  facet normal -1.13703e-24 1.22464e-16 1
    outer loop
      vertex 2.44949 12.6811 -1.55298e-15
      vertex -2.74182 12.7101 -1.55654e-15
      vertex -2.64508 12.6417 -1.54816e-15
    endloop
  endfacet
  facet normal -3.72719e-24 1.22464e-16 1
    outer loop
      vertex 2.59969 12.7649 -1.56325e-15
      vertex -2.84933 12.7685 -1.56369e-15
      vertex -2.74182 12.7101 -1.55654e-15
    endloop
  endfacet
  facet normal 3.2746e-24 1.22465e-16 1
    outer loop
      vertex 2.75513 12.8263 -1.57077e-15
      vertex -2.96341 12.8135 -1.5692e-15
      vertex -2.84933 12.7685 -1.56369e-15
    endloop
  endfacet
  facet normal 3.82103e-24 1.22464e-16 1
    outer loop
      vertex 2.75513 12.8263 -1.57077e-15
      vertex -3.07896 12.8434 -1.57286e-15
      vertex -2.96341 12.8135 -1.5692e-15
    endloop
  endfacet
  facet normal 3.36628e-24 1.22466e-16 1
    outer loop
      vertex 2.92653 12.8625 -1.5752e-15
      vertex -3.20178 12.8597 -1.57486e-15
      vertex -3.07896 12.8434 -1.57286e-15
    endloop
  endfacet
  facet normal -0 1.22465e-16 1
    outer loop
      vertex -15.5 15.5 -1.8982e-15
      vertex -3.20178 12.8597 -1.57486e-15
      vertex 15.5 15.5 -1.8982e-15
    endloop
  endfacet
  facet normal 5.21178e-24 1.22465e-16 1
    outer loop
      vertex -3.20178 12.8597 -1.57486e-15
      vertex -15.5 15.5 -1.8982e-15
      vertex -5.79829 12.8616 -1.57509e-15
    endloop
  endfacet
  facet normal 5.10281e-24 1.22465e-16 1
    outer loop
      vertex -15.5 -15.5 1.8982e-15
      vertex -6.75755 11.9384 -1.46203e-15
      vertex -15.5 15.5 -1.8982e-15
    endloop
  endfacet
  facet normal -5.00772e-23 1.22465e-16 1
    outer loop
      vertex -6.73921 12.0711 -1.47828e-15
      vertex -15.5 15.5 -1.8982e-15
      vertex -6.75755 11.9384 -1.46203e-15
    endloop
  endfacet
  facet normal 2.96495e-23 1.22465e-16 1
    outer loop
      vertex -6.70549 12.194 -1.49333e-15
      vertex -15.5 15.5 -1.8982e-15
      vertex -6.73921 12.0711 -1.47828e-15
    endloop
  endfacet
  facet normal 2.5819e-23 1.22465e-16 1
    outer loop
      vertex -6.65701 12.3096 -1.50749e-15
      vertex -15.5 15.5 -1.8982e-15
      vertex -6.70549 12.194 -1.49333e-15
    endloop
  endfacet
  facet normal -1.22091e-22 1.22464e-16 1
    outer loop
      vertex -6.61508 12.3852 -1.51674e-15
      vertex -15.5 15.5 -1.8982e-15
      vertex -6.65701 12.3096 -1.50749e-15
    endloop
  endfacet
  facet normal -4.80717e-23 1.22465e-16 1
    outer loop
      vertex -6.52037 12.515 -1.53264e-15
      vertex -15.5 15.5 -1.8982e-15
      vertex -6.61508 12.3852 -1.51674e-15
    endloop
  endfacet
  facet normal 2.0408e-22 1.22465e-16 1
    outer loop
      vertex -6.43466 12.6026 -1.54337e-15
      vertex -15.5 15.5 -1.8982e-15
      vertex -6.52037 12.515 -1.53264e-15
    endloop
  endfacet
  facet normal -2.12528e-23 1.22465e-16 1
    outer loop
      vertex -6.34225 12.6769 -1.55247e-15
      vertex -15.5 15.5 -1.8982e-15
      vertex -6.43466 12.6026 -1.54337e-15
    endloop
  endfacet
  facet normal -2.3518e-22 1.22464e-16 1
    outer loop
      vertex -6.2384 12.7414 -1.56037e-15
      vertex -15.5 15.5 -1.8982e-15
      vertex -6.34225 12.6769 -1.55247e-15
    endloop
  endfacet
  facet normal 7.51509e-23 1.22465e-16 1
    outer loop
      vertex -6.1274 12.7929 -1.56668e-15
      vertex -15.5 15.5 -1.8982e-15
      vertex -6.2384 12.7414 -1.56037e-15
    endloop
  endfacet
  facet normal 1.62941e-22 1.22465e-16 1
    outer loop
      vertex -6.01434 12.8298 -1.5712e-15
      vertex -15.5 15.5 -1.8982e-15
      vertex -6.1274 12.7929 -1.56668e-15
    endloop
  endfacet
  facet normal -3.70482e-22 1.22463e-16 1
    outer loop
      vertex -5.89716 12.8531 -1.57406e-15
      vertex -15.5 15.5 -1.8982e-15
      vertex -6.01434 12.8298 -1.5712e-15
    endloop
  endfacet
  facet normal 3.61015e-22 1.22466e-16 1
    outer loop
      vertex -5.79829 12.8616 -1.57509e-15
      vertex -15.5 15.5 -1.8982e-15
      vertex -5.89716 12.8531 -1.57406e-15
    endloop
  endfacet
  facet normal 6.37239e-24 1.22465e-16 1
    outer loop
      vertex 7.11063 -12.4794 1.52828e-15
      vertex 15.5 -15.5 1.8982e-15
      vertex 7.11327 11.8856 -1.45557e-15
    endloop
  endfacet
  facet normal -4.39362e-23 1.22465e-16 1
    outer loop
      vertex 7.09229 -12.6121 1.54454e-15
      vertex 15.5 -15.5 1.8982e-15
      vertex 7.11063 -12.4794 1.52828e-15
    endloop
  endfacet
  facet normal 2.66094e-23 1.22465e-16 1
    outer loop
      vertex 7.05856 -12.735 1.55958e-15
      vertex 15.5 -15.5 1.8982e-15
      vertex 7.09229 -12.6121 1.54454e-15
    endloop
  endfacet
  facet normal -2.54791e-23 1.22465e-16 1
    outer loop
      vertex 7.00824 -12.8539 1.57415e-15
      vertex 15.5 -15.5 1.8982e-15
      vertex 7.05856 -12.735 1.55958e-15
    endloop
  endfacet
  facet normal -1.21239e-22 1.22464e-16 1
    outer loop
      vertex 6.94574 -12.961 1.58727e-15
      vertex 15.5 -15.5 1.8982e-15
      vertex 7.00824 -12.8539 1.57415e-15
    endloop
  endfacet
  facet normal 3.68971e-23 1.22465e-16 1
    outer loop
      vertex 6.87344 -13.056 1.5989e-15
      vertex 15.5 -15.5 1.8982e-15
      vertex 6.94574 -12.961 1.58727e-15
    endloop
  endfacet
  facet normal 1.80147e-22 1.22465e-16 1
    outer loop
      vertex 6.78773 -13.1436 1.60963e-15
      vertex 15.5 -15.5 1.8982e-15
      vertex 6.87344 -13.056 1.5989e-15
    endloop
  endfacet
  facet normal -1.79719e-23 1.22465e-16 1
    outer loop
      vertex 6.69531 -13.2179 1.61873e-15
      vertex 15.5 -15.5 1.8982e-15
      vertex 6.78773 -13.1436 1.60963e-15
    endloop
  endfacet
  facet normal -2.08093e-22 1.22464e-16 1
    outer loop
      vertex 6.59148 -13.2824 1.62663e-15
      vertex 15.5 -15.5 1.8982e-15
      vertex 6.69531 -13.2179 1.61873e-15
    endloop
  endfacet
  facet normal 6.66767e-23 1.22465e-16 1
    outer loop
      vertex 6.48047 -13.3339 1.63293e-15
      vertex 15.5 -15.5 1.8982e-15
      vertex 6.59148 -13.2824 1.62663e-15
    endloop
  endfacet
  facet normal 1.47003e-22 1.22465e-16 1
    outer loop
      vertex 6.36742 -13.3708 1.63745e-15
      vertex 15.5 -15.5 1.8982e-15
      vertex 6.48047 -13.3339 1.63293e-15
    endloop
  endfacet
  facet normal -2.98259e-22 1.22463e-16 1
    outer loop
      vertex 6.24648 -13.3945 1.64035e-15
      vertex 15.5 -15.5 1.8982e-15
      vertex 6.36742 -13.3708 1.63745e-15
    endloop
  endfacet
  facet normal 3.23369e-22 1.22466e-16 1
    outer loop
      vertex 6.13397 -13.4033 1.64143e-15
      vertex 15.5 -15.5 1.8982e-15
      vertex 6.24648 -13.3945 1.64035e-15
    endloop
  endfacet
  facet normal 1.45122e-24 1.22465e-16 1
    outer loop
      vertex 3.55486 -13.4007 1.64111e-15
      vertex 15.5 -15.5 1.8982e-15
      vertex 6.13397 -13.4033 1.64143e-15
    endloop
  endfacet
  facet normal -4.60224e-24 1.22466e-16 1
    outer loop
      vertex -2.3717 -13.3996 1.64098e-15
      vertex 3.55486 -13.4007 1.64111e-15
      vertex 3.43202 -13.3844 1.63911e-15
    endloop
  endfacet
  facet normal -1.74787e-23 1.22465e-16 1
    outer loop
      vertex -1.28807 -12.5817 1.54081e-15
      vertex 2.62679 -12.4266 1.52182e-15
      vertex 2.62657 1.14027 -1.39643e-16
    endloop
  endfacet
  facet normal -1.72505e-24 1.22464e-16 1
    outer loop
      vertex -1.28807 -12.5817 1.54081e-15
      vertex 2.63643 -12.5458 1.53642e-15
      vertex 2.62679 -12.4266 1.52182e-15
    endloop
  endfacet
  facet normal -6.68917e-24 1.22465e-16 1
    outer loop
      vertex -1.28807 -12.5817 1.54081e-15
      vertex 2.66281 -12.6748 1.55222e-15
      vertex 2.63643 -12.5458 1.53642e-15
    endloop
  endfacet
  facet normal -1.60326e-23 1.22464e-16 1
    outer loop
      vertex -1.28807 -12.5817 1.54081e-15
      vertex 2.70396 -12.7936 1.56677e-15
      vertex 2.66281 -12.6748 1.55222e-15
    endloop
  endfacet
  facet normal 1.04489e-23 1.22465e-16 1
    outer loop
      vertex -1.3391 -12.6998 1.55528e-15
      vertex 2.70396 -12.7936 1.56677e-15
      vertex -1.28807 -12.5817 1.54081e-15
    endloop
  endfacet
  facet normal 1.23674e-23 1.22465e-16 1
    outer loop
      vertex 2.70396 -12.7936 1.56677e-15
      vertex -1.3391 -12.6998 1.55528e-15
      vertex 2.75925 -12.9049 1.5804e-15
    endloop
  endfacet
  facet normal 1.22912e-23 1.22465e-16 1
    outer loop
      vertex -1.40463 -12.8146 1.56933e-15
      vertex 2.75925 -12.9049 1.5804e-15
      vertex -1.3391 -12.6998 1.55528e-15
    endloop
  endfacet
  facet normal -1.88726e-24 1.22464e-16 1
    outer loop
      vertex 2.75925 -12.9049 1.5804e-15
      vertex -1.40463 -12.8146 1.56933e-15
      vertex 2.8275 -13.0075 1.59296e-15
    endloop
  endfacet
  facet normal 4.50872e-25 1.22464e-16 1
    outer loop
      vertex -1.47958 -12.9187 1.58208e-15
      vertex 2.8275 -13.0075 1.59296e-15
      vertex -1.40463 -12.8146 1.56933e-15
    endloop
  endfacet
  facet normal 1.01637e-23 1.22465e-16 1
    outer loop
      vertex 2.8275 -13.0075 1.59296e-15
      vertex -1.47958 -12.9187 1.58208e-15
      vertex 2.90755 -13.1005 1.60435e-15
    endloop
  endfacet
  facet normal -1.68389e-23 1.22464e-16 1
    outer loop
      vertex -1.58406 -13.0338 1.59618e-15
      vertex 2.90755 -13.1005 1.60435e-15
      vertex -1.47958 -12.9187 1.58208e-15
    endloop
  endfacet
  facet normal -1.96555e-24 1.22465e-16 1
    outer loop
      vertex 2.90755 -13.1005 1.60435e-15
      vertex -1.58406 -13.0338 1.59618e-15
      vertex 2.99815 -13.1827 1.61442e-15
    endloop
  endfacet
  facet normal 7.91171e-25 1.22465e-16 1
    outer loop
      vertex -1.69849 -13.1335 1.60839e-15
      vertex 2.99815 -13.1827 1.61442e-15
      vertex -1.58406 -13.0338 1.59618e-15
    endloop
  endfacet
  facet normal -1.26815e-23 1.22464e-16 1
    outer loop
      vertex 2.99815 -13.1827 1.61442e-15
      vertex -1.69849 -13.1335 1.60839e-15
      vertex 3.09801 -13.2533 1.62306e-15
    endloop
  endfacet
  facet normal -6.00346e-24 1.22464e-16 1
    outer loop
      vertex -1.82678 -13.2211 1.61912e-15
      vertex 3.09801 -13.2533 1.62306e-15
      vertex -1.69849 -13.1335 1.60839e-15
    endloop
  endfacet
  facet normal -2.78011e-24 1.22465e-16 1
    outer loop
      vertex 3.09801 -13.2533 1.62306e-15
      vertex -1.82678 -13.2211 1.61912e-15
      vertex 3.20241 -13.3095 1.62995e-15
    endloop
  endfacet
  facet normal 6.15936e-24 1.22465e-16 1
    outer loop
      vertex -1.96062 -13.2915 1.62774e-15
      vertex 3.20241 -13.3095 1.62995e-15
      vertex -1.82678 -13.2211 1.61912e-15
    endloop
  endfacet
  facet normal 3.91891e-24 1.22465e-16 1
    outer loop
      vertex 3.20241 -13.3095 1.62995e-15
      vertex -1.96062 -13.2915 1.62774e-15
      vertex 3.31648 -13.3545 1.63545e-15
    endloop
  endfacet
  facet normal 4.76008e-24 1.22465e-16 1
    outer loop
      vertex -2.10117 -13.3457 1.63438e-15
      vertex 3.31648 -13.3545 1.63545e-15
      vertex -1.96062 -13.2915 1.62774e-15
    endloop
  endfacet
  facet normal 4.25423e-24 1.22464e-16 1
    outer loop
      vertex 3.31648 -13.3545 1.63545e-15
      vertex -2.10117 -13.3457 1.63438e-15
      vertex 3.43202 -13.3844 1.63911e-15
    endloop
  endfacet
  facet normal 6.06459e-24 1.22465e-16 1
    outer loop
      vertex -2.2502 -13.3832 1.63897e-15
      vertex 3.43202 -13.3844 1.63911e-15
      vertex -2.10117 -13.3457 1.63438e-15
    endloop
  endfacet
  facet normal 5.53128e-24 1.22462e-16 1
    outer loop
      vertex -2.3717 -13.3996 1.64098e-15
      vertex 3.43202 -13.3844 1.63911e-15
      vertex -2.2502 -13.3832 1.63897e-15
    endloop
  endfacet
  facet normal -4.84032e-24 1.22465e-16 1
    outer loop
      vertex 3.55486 -13.4007 1.64111e-15
      vertex -2.3717 -13.3996 1.64098e-15
      vertex 15.5 -15.5 1.8982e-15
    endloop
  endfacet
  facet normal 1.2626e-22 1.22466e-16 1
    outer loop
      vertex -2.46346 -13.4035 1.64145e-15
      vertex 15.5 -15.5 1.8982e-15
      vertex -2.3717 -13.3996 1.64098e-15
    endloop
  endfacet
  facet normal 3.80163e-24 1.22465e-16 1
    outer loop
      vertex -15.5 -15.5 1.8982e-15
      vertex -2.46346 -13.4035 1.64145e-15
      vertex -5.83214 -13.4007 1.64111e-15
    endloop
  endfacet
  facet normal -5.66769e-24 1.22465e-16 1
    outer loop
      vertex -6.75755 11.9384 -1.46203e-15
      vertex -15.5 -15.5 1.8982e-15
      vertex -6.76019 -12.4266 1.52182e-15
    endloop
  endfacet
  facet normal 1.30642e-22 1.22464e-16 1
    outer loop
      vertex -6.76019 -12.4266 1.52182e-15
      vertex -15.5 -15.5 1.8982e-15
      vertex -6.75056 -12.5458 1.53642e-15
    endloop
  endfacet
  facet normal 0 1.22465e-16 1
    outer loop
      vertex -2.46346 -13.4035 1.64145e-15
      vertex -15.5 -15.5 1.8982e-15
      vertex 15.5 -15.5 1.8982e-15
    endloop
  endfacet
  facet normal -1.06422e-22 1.22465e-16 1
    outer loop
      vertex -5.95496 -13.3844 1.63911e-15
      vertex -15.5 -15.5 1.8982e-15
      vertex -5.83214 -13.4007 1.64111e-15
    endloop
  endfacet
  facet normal 3.36347e-23 1.22465e-16 1
    outer loop
      vertex -6.0705 -13.3545 1.63545e-15
      vertex -15.5 -15.5 1.8982e-15
      vertex -5.95496 -13.3844 1.63911e-15
    endloop
  endfacet
  facet normal 4.01101e-24 1.22465e-16 1
    outer loop
      vertex -6.18457 -13.3095 1.62995e-15
      vertex -15.5 -15.5 1.8982e-15
      vertex -6.0705 -13.3545 1.63545e-15
    endloop
  endfacet
  facet normal -2.00133e-23 1.22465e-16 1
    outer loop
      vertex -6.28897 -13.2533 1.62306e-15
      vertex -15.5 -15.5 1.8982e-15
      vertex -6.18457 -13.3095 1.62995e-15
    endloop
  endfacet
  facet normal 1.14125e-22 1.22464e-16 1
    outer loop
      vertex -6.38884 -13.1827 1.61442e-15
      vertex -15.5 -15.5 1.8982e-15
      vertex -6.28897 -13.2533 1.62306e-15
    endloop
  endfacet
  facet normal -1.14142e-22 1.22465e-16 1
    outer loop
      vertex -6.47943 -13.1005 1.60435e-15
      vertex -15.5 -15.5 1.8982e-15
      vertex -6.38884 -13.1827 1.61442e-15
    endloop
  endfacet
  facet normal -4.18604e-23 1.22465e-16 1
    outer loop
      vertex -6.55949 -13.0075 1.59296e-15
      vertex -15.5 -15.5 1.8982e-15
      vertex -6.47943 -13.1005 1.60435e-15
    endloop
  endfacet
  facet normal 7.66437e-23 1.22464e-16 1
    outer loop
      vertex -6.62775 -12.9049 1.5804e-15
      vertex -15.5 -15.5 1.8982e-15
      vertex -6.55949 -13.0075 1.59296e-15
    endloop
  endfacet
  facet normal -8.54739e-23 1.22465e-16 1
    outer loop
      vertex -6.68301 -12.7936 1.56677e-15
      vertex -15.5 -15.5 1.8982e-15
      vertex -6.62775 -12.9049 1.5804e-15
    endloop
  endfacet
  facet normal 6.90416e-23 1.22464e-16 1
    outer loop
      vertex -6.72418 -12.6748 1.55222e-15
      vertex -15.5 -15.5 1.8982e-15
      vertex -6.68301 -12.7936 1.56677e-15
    endloop
  endfacet
  facet normal -4.64433e-23 1.22465e-16 1
    outer loop
      vertex -6.75056 -12.5458 1.53642e-15
      vertex -15.5 -15.5 1.8982e-15
      vertex -6.72418 -12.6748 1.55222e-15
    endloop
  endfacet
  facet normal 1 0 0
    outer loop
      vertex 16.5 -7.15 15
      vertex 16.5 -16.5 15
      vertex 16.5 -7.15 13.3
    endloop
  endfacet
  facet normal 1 0 0
    outer loop
      vertex 16.5 7.15 13.3
      vertex 16.5 16.5 15
      vertex 16.5 7.15 15
    endloop
  endfacet
  facet normal 1 0 0
    outer loop
      vertex 16.5 16.5 15
      vertex 16.5 7.15 13.3
      vertex 16.5 16.5 -1
    endloop
  endfacet
  facet normal 1 -0 0
    outer loop
      vertex 16.5 -7.15 13.3
      vertex 16.5 16.5 -1
      vertex 16.5 7.15 13.3
    endloop
  endfacet
  facet normal 1 0 0
    outer loop
      vertex 16.5 -16.5 -1
      vertex 16.5 -7.15 13.3
      vertex 16.5 -16.5 15
    endloop
  endfacet
  facet normal 1 0 0
    outer loop
      vertex 16.5 -7.15 13.3
      vertex 16.5 -16.5 -1
      vertex 16.5 16.5 -1
    endloop
  endfacet
  facet normal 0 -1 0
    outer loop
      vertex -16.5 -16.5 15
      vertex -7.15 -16.5 13.3
      vertex -7.15 -16.5 15
    endloop
  endfacet
  facet normal 0 -1 -0
    outer loop
      vertex -7.15 -16.5 13.3
      vertex -16.5 -16.5 -1
      vertex 7.15 -16.5 13.3
    endloop
  endfacet
  facet normal 0 -1 0
    outer loop
      vertex -16.5 -16.5 -1
      vertex -7.15 -16.5 13.3
      vertex -16.5 -16.5 15
    endloop
  endfacet
  facet normal 0 -1 0
    outer loop
      vertex 7.15 -16.5 13.3
      vertex 16.5 -16.5 15
      vertex 7.15 -16.5 15
    endloop
  endfacet
  facet normal 0 -1 0
    outer loop
      vertex 16.5 -16.5 -1
      vertex 7.15 -16.5 13.3
      vertex -16.5 -16.5 -1
    endloop
  endfacet
  facet normal 0 -1 0
    outer loop
      vertex 7.15 -16.5 13.3
      vertex 16.5 -16.5 -1
      vertex 16.5 -16.5 15
    endloop
  endfacet
  facet normal 0 0 1
    outer loop
      vertex -15.5 -7.15 15
      vertex -16.5 -7.15 15
      vertex -15.5 -15.5 15
    endloop
  endfacet
  facet normal -0 0 1
    outer loop
      vertex -15.5 -15.5 15
      vertex -7.15 -16.5 15
      vertex -7.15 -15.5 15
    endloop
  endfacet
  facet normal 0 0 1
    outer loop
      vertex -15.5 -15.5 15
      vertex -16.5 -16.5 15
      vertex -7.15 -16.5 15
    endloop
  endfacet
  facet normal 0 0 1
    outer loop
      vertex -16.5 -16.5 15
      vertex -15.5 -15.5 15
      vertex -16.5 -7.15 15
    endloop
  endfacet
  facet normal 0 0 1
    outer loop
      vertex -7.15 16.5 15
      vertex -15.5 15.5 15
      vertex -7.15 15.5 15
    endloop
  endfacet
  facet normal -0 0 1
    outer loop
      vertex -16.5 16.5 15
      vertex -15.5 15.5 15
      vertex -7.15 16.5 15
    endloop
  endfacet
  facet normal 0 0 1
    outer loop
      vertex -16.5 7.15 15
      vertex -15.5 15.5 15
      vertex -16.5 16.5 15
    endloop
  endfacet
  facet normal 0 0 1
    outer loop
      vertex -15.5 15.5 15
      vertex -16.5 7.15 15
      vertex -15.5 7.15 15
    endloop
  endfacet
  facet normal 0 0 1
    outer loop
      vertex 16.5 16.5 15
      vertex 15.5 15.5 15
      vertex 16.5 7.15 15
    endloop
  endfacet
  facet normal -0 0 1
    outer loop
      vertex 7.15 16.5 15
      vertex 15.5 15.5 15
      vertex 16.5 16.5 15
    endloop
  endfacet
  facet normal 0 0 1
    outer loop
      vertex 15.5 15.5 15
      vertex 7.15 16.5 15
      vertex 7.15 15.5 15
    endloop
  endfacet
  facet normal 0 0 1
    outer loop
      vertex 16.5 7.15 15
      vertex 15.5 15.5 15
      vertex 15.5 7.15 15
    endloop
  endfacet
  facet normal 0 0 1
    outer loop
      vertex 15.5 -15.5 15
      vertex 16.5 -7.15 15
      vertex 15.5 -7.15 15
    endloop
  endfacet
  facet normal 0 0 1
    outer loop
      vertex 16.5 -7.15 15
      vertex 15.5 -15.5 15
      vertex 16.5 -16.5 15
    endloop
  endfacet
  facet normal 0 0 1
    outer loop
      vertex 7.15 -16.5 15
      vertex 15.5 -15.5 15
      vertex 7.15 -15.5 15
    endloop
  endfacet
  facet normal 0 0 1
    outer loop
      vertex 15.5 -15.5 15
      vertex 7.15 -16.5 15
      vertex 16.5 -16.5 15
    endloop
  endfacet
  facet normal 0 1 0
    outer loop
      vertex 16.5 16.5 15
      vertex 7.15 16.5 13.3
      vertex 7.15 16.5 15
    endloop
  endfacet
  facet normal 0 1 0
    outer loop
      vertex 7.15 16.5 13.3
      vertex 16.5 16.5 -1
      vertex -7.15 16.5 13.3
    endloop
  endfacet
  facet normal 0 1 -0
    outer loop
      vertex 16.5 16.5 -1
      vertex 7.15 16.5 13.3
      vertex 16.5 16.5 15
    endloop
  endfacet
  facet normal 0 1 -0
    outer loop
      vertex -7.15 16.5 13.3
      vertex -16.5 16.5 15
      vertex -7.15 16.5 15
    endloop
  endfacet
  facet normal 0 1 0
    outer loop
      vertex -16.5 16.5 -1
      vertex -7.15 16.5 13.3
      vertex 16.5 16.5 -1
    endloop
  endfacet
  facet normal 0 1 0
    outer loop
      vertex -7.15 16.5 13.3
      vertex -16.5 16.5 -1
      vertex -16.5 16.5 15
    endloop
  endfacet
  facet normal 1 0 0
    outer loop
      vertex -15.5 -7.15 15
      vertex -15.5 -15.5 15
      vertex -15.5 -7.15 13.3
    endloop
  endfacet
  facet normal 1 0 0
    outer loop
      vertex -15.5 7.15 13.3
      vertex -15.5 15.5 15
      vertex -15.5 7.15 15
    endloop
  endfacet
  facet normal 1 0 0
    outer loop
      vertex -15.5 15.5 15
      vertex -15.5 7.15 13.3
      vertex -15.5 15.5 -1.8982e-15
    endloop
  endfacet
  facet normal 1 -0 0
    outer loop
      vertex -15.5 -7.15 13.3
      vertex -15.5 15.5 -1.8982e-15
      vertex -15.5 7.15 13.3
    endloop
  endfacet
  facet normal 1 0 0
    outer loop
      vertex -15.5 -15.5 1.8982e-15
      vertex -15.5 -7.15 13.3
      vertex -15.5 -15.5 15
    endloop
  endfacet
  facet normal 1 0 0
    outer loop
      vertex -15.5 -7.15 13.3
      vertex -15.5 -15.5 1.8982e-15
      vertex -15.5 15.5 -1.8982e-15
    endloop
  endfacet
  facet normal -1 0 0
    outer loop
      vertex 15.5 15.5 -1.8982e-15
      vertex 15.5 7.15 13.3
      vertex 15.5 15.5 15
    endloop
  endfacet
  facet normal -1 0 0
    outer loop
      vertex 15.5 15.5 -1.8982e-15
      vertex 15.5 -7.15 13.3
      vertex 15.5 7.15 13.3
    endloop
  endfacet
  facet normal -1 0 0
    outer loop
      vertex 15.5 -15.5 1.8982e-15
      vertex 15.5 -7.15 13.3
      vertex 15.5 15.5 -1.8982e-15
    endloop
  endfacet
  facet normal -1 0 0
    outer loop
      vertex 15.5 -15.5 15
      vertex 15.5 -7.15 13.3
      vertex 15.5 -15.5 1.8982e-15
    endloop
  endfacet
  facet normal -1 0 0
    outer loop
      vertex 15.5 -7.15 13.3
      vertex 15.5 -15.5 15
      vertex 15.5 -7.15 15
    endloop
  endfacet
  facet normal -1 -0 0
    outer loop
      vertex 15.5 15.5 15
      vertex 15.5 7.15 13.3
      vertex 15.5 7.15 15
    endloop
  endfacet
  facet normal 0 1 0
    outer loop
      vertex 15.5 -15.5 15
      vertex 7.15 -15.5 13.3
      vertex 7.15 -15.5 15
    endloop
  endfacet
  facet normal 0 1 0
    outer loop
      vertex 7.15 -15.5 13.3
      vertex 15.5 -15.5 1.8982e-15
      vertex -7.15 -15.5 13.3
    endloop
  endfacet
  facet normal 0 1 -0
    outer loop
      vertex 15.5 -15.5 1.8982e-15
      vertex 7.15 -15.5 13.3
      vertex 15.5 -15.5 15
    endloop
  endfacet
  facet normal 0 1 -0
    outer loop
      vertex -7.15 -15.5 13.3
      vertex -15.5 -15.5 15
      vertex -7.15 -15.5 15
    endloop
  endfacet
  facet normal 0 1 0
    outer loop
      vertex -15.5 -15.5 1.8982e-15
      vertex -7.15 -15.5 13.3
      vertex 15.5 -15.5 1.8982e-15
    endloop
  endfacet
  facet normal 0 1 0
    outer loop
      vertex -7.15 -15.5 13.3
      vertex -15.5 -15.5 1.8982e-15
      vertex -15.5 -15.5 15
    endloop
  endfacet
  facet normal 0 -1 0
    outer loop
      vertex -15.5 15.5 15
      vertex -7.15 15.5 13.3
      vertex -7.15 15.5 15
    endloop
  endfacet
  facet normal 0 -1 -0
    outer loop
      vertex -7.15 15.5 13.3
      vertex -15.5 15.5 -1.8982e-15
      vertex 7.15 15.5 13.3
    endloop
  endfacet
  facet normal 0 -1 0
    outer loop
      vertex -15.5 15.5 -1.8982e-15
      vertex -7.15 15.5 13.3
      vertex -15.5 15.5 15
    endloop
  endfacet
  facet normal 0 -1 0
    outer loop
      vertex 7.15 15.5 13.3
      vertex 15.5 15.5 15
      vertex 7.15 15.5 15
    endloop
  endfacet
  facet normal 0 -1 0
    outer loop
      vertex 15.5 15.5 -1.8982e-15
      vertex 7.15 15.5 13.3
      vertex -15.5 15.5 -1.8982e-15
    endloop
  endfacet
  facet normal 0 -1 0
    outer loop
      vertex 7.15 15.5 13.3
      vertex 15.5 15.5 -1.8982e-15
      vertex 15.5 15.5 15
    endloop
  endfacet
  facet normal 0 0 -1
    outer loop
      vertex 16.5 -16.5 -1
      vertex 7.11327 11.8856 -1
      vertex 16.5 16.5 -1
    endloop
  endfacet
  facet normal 0 0 -1
    outer loop
      vertex 16.5 -16.5 -1
      vertex 7.11063 -12.4794 -1
      vertex 7.11327 11.8856 -1
    endloop
  endfacet
  facet normal 0 0 -1
    outer loop
      vertex 16.5 -16.5 -1
      vertex 7.09229 -12.6121 -1
      vertex 7.11063 -12.4794 -1
    endloop
  endfacet
  facet normal 0 0 -1
    outer loop
      vertex 16.5 -16.5 -1
      vertex 7.05856 -12.735 -1
      vertex 7.09229 -12.6121 -1
    endloop
  endfacet
  facet normal 0 0 -1
    outer loop
      vertex 16.5 -16.5 -1
      vertex 7.00824 -12.8539 -1
      vertex 7.05856 -12.735 -1
    endloop
  endfacet
  facet normal 0 0 -1
    outer loop
      vertex 16.5 -16.5 -1
      vertex 6.94574 -12.961 -1
      vertex 7.00824 -12.8539 -1
    endloop
  endfacet
  facet normal 0 0 -1
    outer loop
      vertex 16.5 -16.5 -1
      vertex 6.87344 -13.056 -1
      vertex 6.94574 -12.961 -1
    endloop
  endfacet
  facet normal 0 0 -1
    outer loop
      vertex 16.5 -16.5 -1
      vertex 6.78773 -13.1436 -1
      vertex 6.87344 -13.056 -1
    endloop
  endfacet
  facet normal 0 0 -1
    outer loop
      vertex 16.5 -16.5 -1
      vertex 6.69531 -13.2179 -1
      vertex 6.78773 -13.1436 -1
    endloop
  endfacet
  facet normal 0 0 -1
    outer loop
      vertex 16.5 -16.5 -1
      vertex 6.59148 -13.2824 -1
      vertex 6.69531 -13.2179 -1
    endloop
  endfacet
  facet normal 0 0 -1
    outer loop
      vertex 16.5 -16.5 -1
      vertex 6.48047 -13.3339 -1
      vertex 6.59148 -13.2824 -1
    endloop
  endfacet
  facet normal 0 0 -1
    outer loop
      vertex 16.5 -16.5 -1
      vertex 6.36742 -13.3708 -1
      vertex 6.48047 -13.3339 -1
    endloop
  endfacet
  facet normal 0 0 -1
    outer loop
      vertex 16.5 -16.5 -1
      vertex 6.24648 -13.3945 -1
      vertex 6.36742 -13.3708 -1
    endloop
  endfacet
  facet normal 0 0 -1
    outer loop
      vertex 16.5 -16.5 -1
      vertex 6.13397 -13.4033 -1
      vertex 6.24648 -13.3945 -1
    endloop
  endfacet
  facet normal 0 0 -1
    outer loop
      vertex 16.5 -16.5 -1
      vertex 3.55486 -13.4007 -1
      vertex 6.13397 -13.4033 -1
    endloop
  endfacet
  facet normal 0 0 -1
    outer loop
      vertex -2.3717 -13.3996 -1
      vertex 3.55486 -13.4007 -1
      vertex 16.5 -16.5 -1
    endloop
  endfacet
  facet normal -0 0 -1
    outer loop
      vertex 2.62679 -12.4266 -1
      vertex -1.28807 -12.5817 -1
      vertex 2.62657 1.14027 -1
    endloop
  endfacet
  facet normal -0 0 -1
    outer loop
      vertex 2.63643 -12.5458 -1
      vertex -1.28807 -12.5817 -1
      vertex 2.62679 -12.4266 -1
    endloop
  endfacet
  facet normal 0 0 -1
    outer loop
      vertex 2.66281 -12.6748 -1
      vertex -1.28807 -12.5817 -1
      vertex 2.63643 -12.5458 -1
    endloop
  endfacet
  facet normal 0 0 -1
    outer loop
      vertex 2.70396 -12.7936 -1
      vertex -1.28807 -12.5817 -1
      vertex 2.66281 -12.6748 -1
    endloop
  endfacet
  facet normal 0 0 -1
    outer loop
      vertex -1.3391 -12.6998 -1
      vertex 2.70396 -12.7936 -1
      vertex 2.75925 -12.9049 -1
    endloop
  endfacet
  facet normal 0 0 -1
    outer loop
      vertex -1.40463 -12.8146 -1
      vertex 2.75925 -12.9049 -1
      vertex 2.8275 -13.0075 -1
    endloop
  endfacet
  facet normal 0 0 -1
    outer loop
      vertex -1.47958 -12.9187 -1
      vertex 2.8275 -13.0075 -1
      vertex 2.90755 -13.1005 -1
    endloop
  endfacet
  facet normal 0 0 -1
    outer loop
      vertex -1.58406 -13.0338 -1
      vertex 2.90755 -13.1005 -1
      vertex 2.99815 -13.1827 -1
    endloop
  endfacet
  facet normal 0 0 -1
    outer loop
      vertex -1.69849 -13.1335 -1
      vertex 2.99815 -13.1827 -1
      vertex 3.09801 -13.2533 -1
    endloop
  endfacet
  facet normal 0 0 -1
    outer loop
      vertex -1.82678 -13.2211 -1
      vertex 3.09801 -13.2533 -1
      vertex 3.20241 -13.3095 -1
    endloop
  endfacet
  facet normal 0 0 -1
    outer loop
      vertex -1.96062 -13.2915 -1
      vertex 3.20241 -13.3095 -1
      vertex 3.31648 -13.3545 -1
    endloop
  endfacet
  facet normal 0 0 -1
    outer loop
      vertex -2.10117 -13.3457 -1
      vertex 3.31648 -13.3545 -1
      vertex 3.43202 -13.3844 -1
    endloop
  endfacet
  facet normal 0 0 -1
    outer loop
      vertex 3.55486 -13.4007 -1
      vertex -2.3717 -13.3996 -1
      vertex 3.43202 -13.3844 -1
    endloop
  endfacet
  facet normal 0 0 -1
    outer loop
      vertex 2.70396 -12.7936 -1
      vertex -1.3391 -12.6998 -1
      vertex -1.28807 -12.5817 -1
    endloop
  endfacet
  facet normal 0 0 -1
    outer loop
      vertex 2.75925 -12.9049 -1
      vertex -1.40463 -12.8146 -1
      vertex -1.3391 -12.6998 -1
    endloop
  endfacet
  facet normal 0 0 -1
    outer loop
      vertex 2.8275 -13.0075 -1
      vertex -1.47958 -12.9187 -1
      vertex -1.40463 -12.8146 -1
    endloop
  endfacet
  facet normal 0 0 -1
    outer loop
      vertex 2.90755 -13.1005 -1
      vertex -1.58406 -13.0338 -1
      vertex -1.47958 -12.9187 -1
    endloop
  endfacet
  facet normal 0 0 -1
    outer loop
      vertex 2.99815 -13.1827 -1
      vertex -1.69849 -13.1335 -1
      vertex -1.58406 -13.0338 -1
    endloop
  endfacet
  facet normal 0 0 -1
    outer loop
      vertex 3.09801 -13.2533 -1
      vertex -1.82678 -13.2211 -1
      vertex -1.69849 -13.1335 -1
    endloop
  endfacet
  facet normal 0 0 -1
    outer loop
      vertex 3.20241 -13.3095 -1
      vertex -1.96062 -13.2915 -1
      vertex -1.82678 -13.2211 -1
    endloop
  endfacet
  facet normal 0 0 -1
    outer loop
      vertex 3.31648 -13.3545 -1
      vertex -2.10117 -13.3457 -1
      vertex -1.96062 -13.2915 -1
    endloop
  endfacet
  facet normal 0 0 -1
    outer loop
      vertex 3.43202 -13.3844 -1
      vertex -2.2502 -13.3832 -1
      vertex -2.10117 -13.3457 -1
    endloop
  endfacet
  facet normal -0 0 -1
    outer loop
      vertex 3.43202 -13.3844 -1
      vertex -2.3717 -13.3996 -1
      vertex -2.2502 -13.3832 -1
    endloop
  endfacet
  facet normal 0 0 -1
    outer loop
      vertex -16.5 -16.5 -1
      vertex -2.3717 -13.3996 -1
      vertex 16.5 -16.5 -1
    endloop
  endfacet
  facet normal 0 0 -1
    outer loop
      vertex -2.3717 -13.3996 -1
      vertex -16.5 -16.5 -1
      vertex -2.46346 -13.4035 -1
    endloop
  endfacet
  facet normal -0 0 -1
    outer loop
      vertex -2.46346 -13.4035 -1
      vertex -16.5 -16.5 -1
      vertex -5.83214 -13.4007 -1
    endloop
  endfacet
  facet normal -0 0 -1
    outer loop
      vertex -6.75056 -12.5458 -1
      vertex -16.5 -16.5 -1
      vertex -6.76019 -12.4266 -1
    endloop
  endfacet
  facet normal -0 0 -1
    outer loop
      vertex -6.72418 -12.6748 -1
      vertex -16.5 -16.5 -1
      vertex -6.75056 -12.5458 -1
    endloop
  endfacet
  facet normal -0 0 -1
    outer loop
      vertex -6.68301 -12.7936 -1
      vertex -16.5 -16.5 -1
      vertex -6.72418 -12.6748 -1
    endloop
  endfacet
  facet normal -0 0 -1
    outer loop
      vertex -6.62775 -12.9049 -1
      vertex -16.5 -16.5 -1
      vertex -6.68301 -12.7936 -1
    endloop
  endfacet
  facet normal -0 0 -1
    outer loop
      vertex -6.55949 -13.0075 -1
      vertex -16.5 -16.5 -1
      vertex -6.62775 -12.9049 -1
    endloop
  endfacet
  facet normal -0 0 -1
    outer loop
      vertex -6.47943 -13.1005 -1
      vertex -16.5 -16.5 -1
      vertex -6.55949 -13.0075 -1
    endloop
  endfacet
  facet normal -0 0 -1
    outer loop
      vertex -6.38884 -13.1827 -1
      vertex -16.5 -16.5 -1
      vertex -6.47943 -13.1005 -1
    endloop
  endfacet
  facet normal -0 0 -1
    outer loop
      vertex -6.28897 -13.2533 -1
      vertex -16.5 -16.5 -1
      vertex -6.38884 -13.1827 -1
    endloop
  endfacet
  facet normal -0 0 -1
    outer loop
      vertex -6.18457 -13.3095 -1
      vertex -16.5 -16.5 -1
      vertex -6.28897 -13.2533 -1
    endloop
  endfacet
  facet normal -0 0 -1
    outer loop
      vertex -6.0705 -13.3545 -1
      vertex -16.5 -16.5 -1
      vertex -6.18457 -13.3095 -1
    endloop
  endfacet
  facet normal -0 0 -1
    outer loop
      vertex -5.95496 -13.3844 -1
      vertex -16.5 -16.5 -1
      vertex -6.0705 -13.3545 -1
    endloop
  endfacet
  facet normal -0 0 -1
    outer loop
      vertex -5.83214 -13.4007 -1
      vertex -16.5 -16.5 -1
      vertex -5.95496 -13.3844 -1
    endloop
  endfacet
  facet normal 0 0 -1
    outer loop
      vertex 7.10362 12.0048 -1
      vertex 16.5 16.5 -1
      vertex 7.11327 11.8856 -1
    endloop
  endfacet
  facet normal 0 0 -1
    outer loop
      vertex 7.07808 12.1302 -1
      vertex 16.5 16.5 -1
      vertex 7.10362 12.0048 -1
    endloop
  endfacet
  facet normal 0 0 -1
    outer loop
      vertex 7.03609 12.2526 -1
      vertex 16.5 16.5 -1
      vertex 7.07808 12.1302 -1
    endloop
  endfacet
  facet normal 0 0 -1
    outer loop
      vertex 6.98082 12.3639 -1
      vertex 16.5 16.5 -1
      vertex 7.03609 12.2526 -1
    endloop
  endfacet
  facet normal 0 0 -1
    outer loop
      vertex 6.91257 12.4665 -1
      vertex 16.5 16.5 -1
      vertex 6.98082 12.3639 -1
    endloop
  endfacet
  facet normal 0 0 -1
    outer loop
      vertex 6.8325 12.5595 -1
      vertex 16.5 16.5 -1
      vertex 6.91257 12.4665 -1
    endloop
  endfacet
  facet normal 0 0 -1
    outer loop
      vertex 6.74191 12.6417 -1
      vertex 16.5 16.5 -1
      vertex 6.8325 12.5595 -1
    endloop
  endfacet
  facet normal 0 0 -1
    outer loop
      vertex 6.64516 12.7101 -1
      vertex 16.5 16.5 -1
      vertex 6.74191 12.6417 -1
    endloop
  endfacet
  facet normal 0 0 -1
    outer loop
      vertex 6.53764 12.7685 -1
      vertex 16.5 16.5 -1
      vertex 6.64516 12.7101 -1
    endloop
  endfacet
  facet normal 0 0 -1
    outer loop
      vertex 6.42357 12.8135 -1
      vertex 16.5 16.5 -1
      vertex 6.53764 12.7685 -1
    endloop
  endfacet
  facet normal 0 0 -1
    outer loop
      vertex 6.30803 12.8434 -1
      vertex 16.5 16.5 -1
      vertex 6.42357 12.8135 -1
    endloop
  endfacet
  facet normal 0 0 -1
    outer loop
      vertex 6.1852 12.8597 -1
      vertex 16.5 16.5 -1
      vertex 6.30803 12.8434 -1
    endloop
  endfacet
  facet normal 0 0 -1
    outer loop
      vertex 2.92653 12.8625 -1
      vertex 16.5 16.5 -1
      vertex 6.1852 12.8597 -1
    endloop
  endfacet
  facet normal 0 0 -1
    outer loop
      vertex -3.07896 12.8434 -1
      vertex 2.92653 12.8625 -1
      vertex 2.75513 12.8263 -1
    endloop
  endfacet
  facet normal 0 0 -1
    outer loop
      vertex -2.27371 11.8856 -1
      vertex 1.9344 12.0354 -1
      vertex -2.2735 -2.41884 -1
    endloop
  endfacet
  facet normal 0 0 -1
    outer loop
      vertex -2.28336 12.0048 -1
      vertex 1.9344 12.0354 -1
      vertex -2.27371 11.8856 -1
    endloop
  endfacet
  facet normal 0 0 -1
    outer loop
      vertex -2.30891 12.1302 -1
      vertex 1.9344 12.0354 -1
      vertex -2.28336 12.0048 -1
    endloop
  endfacet
  facet normal 0 0 -1
    outer loop
      vertex -2.35089 12.2526 -1
      vertex 1.9344 12.0354 -1
      vertex -2.30891 12.1302 -1
    endloop
  endfacet
  facet normal 0 0 -1
    outer loop
      vertex 1.9344 12.0354 -1
      vertex -2.35089 12.2526 -1
      vertex 1.99998 12.1833 -1
    endloop
  endfacet
  facet normal 0 0 -1
    outer loop
      vertex -2.40617 12.3639 -1
      vertex 1.99998 12.1833 -1
      vertex -2.35089 12.2526 -1
    endloop
  endfacet
  facet normal 0 0 -1
    outer loop
      vertex 1.99998 12.1833 -1
      vertex -2.40617 12.3639 -1
      vertex 2.0815 12.3199 -1
    endloop
  endfacet
  facet normal 0 0 -1
    outer loop
      vertex -2.47443 12.4665 -1
      vertex 2.0815 12.3199 -1
      vertex -2.40617 12.3639 -1
    endloop
  endfacet
  facet normal 0 0 -1
    outer loop
      vertex 2.0815 12.3199 -1
      vertex -2.47443 12.4665 -1
      vertex 2.18835 12.4568 -1
    endloop
  endfacet
  facet normal 0 0 -1
    outer loop
      vertex -2.55449 12.5595 -1
      vertex 2.18835 12.4568 -1
      vertex -2.47443 12.4665 -1
    endloop
  endfacet
  facet normal 0 0 -1
    outer loop
      vertex 2.18835 12.4568 -1
      vertex -2.55449 12.5595 -1
      vertex 2.31366 12.5793 -1
    endloop
  endfacet
  facet normal 0 0 -1
    outer loop
      vertex -2.64508 12.6417 -1
      vertex 2.31366 12.5793 -1
      vertex -2.55449 12.5595 -1
    endloop
  endfacet
  facet normal 0 0 -1
    outer loop
      vertex 2.31366 12.5793 -1
      vertex -2.64508 12.6417 -1
      vertex 2.44949 12.6811 -1
    endloop
  endfacet
  facet normal 0 0 -1
    outer loop
      vertex -2.74182 12.7101 -1
      vertex 2.44949 12.6811 -1
      vertex -2.64508 12.6417 -1
    endloop
  endfacet
  facet normal 0 0 -1
    outer loop
      vertex 2.44949 12.6811 -1
      vertex -2.74182 12.7101 -1
      vertex 2.59969 12.7649 -1
    endloop
  endfacet
  facet normal 0 0 -1
    outer loop
      vertex -2.84933 12.7685 -1
      vertex 2.59969 12.7649 -1
      vertex -2.74182 12.7101 -1
    endloop
  endfacet
  facet normal 0 0 -1
    outer loop
      vertex 2.59969 12.7649 -1
      vertex -2.84933 12.7685 -1
      vertex 2.75513 12.8263 -1
    endloop
  endfacet
  facet normal 0 0 -1
    outer loop
      vertex -2.96341 12.8135 -1
      vertex 2.75513 12.8263 -1
      vertex -2.84933 12.7685 -1
    endloop
  endfacet
  facet normal 0 0 -1
    outer loop
      vertex -3.07896 12.8434 -1
      vertex 2.75513 12.8263 -1
      vertex -2.96341 12.8135 -1
    endloop
  endfacet
  facet normal 0 0 -1
    outer loop
      vertex 2.92653 12.8625 -1
      vertex -3.07896 12.8434 -1
      vertex -3.20178 12.8597 -1
    endloop
  endfacet
  facet normal -0 0 -1
    outer loop
      vertex 2.92653 12.8625 -1
      vertex -3.20178 12.8597 -1
      vertex 16.5 16.5 -1
    endloop
  endfacet
  facet normal 0 0 -1
    outer loop
      vertex -16.5 16.5 -1
      vertex -3.20178 12.8597 -1
      vertex -5.79829 12.8616 -1
    endloop
  endfacet
  facet normal 0 0 -1
    outer loop
      vertex -16.5 16.5 -1
      vertex -5.79829 12.8616 -1
      vertex -5.89716 12.8531 -1
    endloop
  endfacet
  facet normal 0 0 -1
    outer loop
      vertex -16.5 -16.5 -1
      vertex -6.75755 11.9384 -1
      vertex -6.76019 -12.4266 -1
    endloop
  endfacet
  facet normal 0 0 -1
    outer loop
      vertex -16.5 16.5 -1
      vertex -6.75755 11.9384 -1
      vertex -16.5 -16.5 -1
    endloop
  endfacet
  facet normal 0 0 -1
    outer loop
      vertex -6.75755 11.9384 -1
      vertex -16.5 16.5 -1
      vertex -6.73921 12.0711 -1
    endloop
  endfacet
  facet normal 0 0 -1
    outer loop
      vertex -3.20178 12.8597 -1
      vertex -16.5 16.5 -1
      vertex 16.5 16.5 -1
    endloop
  endfacet
  facet normal 0 0 -1
    outer loop
      vertex -6.01434 12.8298 -1
      vertex -16.5 16.5 -1
      vertex -5.89716 12.8531 -1
    endloop
  endfacet
  facet normal 0 0 -1
    outer loop
      vertex -6.1274 12.7929 -1
      vertex -16.5 16.5 -1
      vertex -6.01434 12.8298 -1
    endloop
  endfacet
  facet normal 0 0 -1
    outer loop
      vertex -6.2384 12.7414 -1
      vertex -16.5 16.5 -1
      vertex -6.1274 12.7929 -1
    endloop
  endfacet
  facet normal 0 0 -1
    outer loop
      vertex -6.34225 12.6769 -1
      vertex -16.5 16.5 -1
      vertex -6.2384 12.7414 -1
    endloop
  endfacet
  facet normal 0 0 -1
    outer loop
      vertex -6.43466 12.6026 -1
      vertex -16.5 16.5 -1
      vertex -6.34225 12.6769 -1
    endloop
  endfacet
  facet normal 0 0 -1
    outer loop
      vertex -6.52037 12.515 -1
      vertex -16.5 16.5 -1
      vertex -6.43466 12.6026 -1
    endloop
  endfacet
  facet normal 0 0 -1
    outer loop
      vertex -6.61508 12.3852 -1
      vertex -16.5 16.5 -1
      vertex -6.52037 12.515 -1
    endloop
  endfacet
  facet normal 0 0 -1
    outer loop
      vertex -6.65701 12.3096 -1
      vertex -16.5 16.5 -1
      vertex -6.61508 12.3852 -1
    endloop
  endfacet
  facet normal 0 0 -1
    outer loop
      vertex -6.70549 12.194 -1
      vertex -16.5 16.5 -1
      vertex -6.65701 12.3096 -1
    endloop
  endfacet
  facet normal 0 0 -1
    outer loop
      vertex -6.73921 12.0711 -1
      vertex -16.5 16.5 -1
      vertex -6.70549 12.194 -1
    endloop
  endfacet
  facet normal 0.367389 -0.930067 0
    outer loop
      vertex 2.59969 12.7649 -1
      vertex 2.75513 12.8263 -1.57077e-15
      vertex 2.59969 12.7649 -1.56325e-15
    endloop
  endfacet
  facet normal 0.367389 -0.930067 0
    outer loop
      vertex 2.75513 12.8263 -1.57077e-15
      vertex 2.59969 12.7649 -1
      vertex 2.75513 12.8263 -1
    endloop
  endfacet
  facet normal 0.48745 -0.873151 0
    outer loop
      vertex 2.44949 12.6811 -1
      vertex 2.59969 12.7649 -1.56325e-15
      vertex 2.44949 12.6811 -1.55298e-15
    endloop
  endfacet
  facet normal 0.48745 -0.873151 0
    outer loop
      vertex 2.59969 12.7649 -1.56325e-15
      vertex 2.44949 12.6811 -1
      vertex 2.59969 12.7649 -1
    endloop
  endfacet
  facet normal 0.599453 -0.80041 0
    outer loop
      vertex 2.31366 12.5793 -1
      vertex 2.44949 12.6811 -1.55298e-15
      vertex 2.31366 12.5793 -1.54052e-15
    endloop
  endfacet
  facet normal 0.599453 -0.80041 0
    outer loop
      vertex 2.44949 12.6811 -1.55298e-15
      vertex 2.31366 12.5793 -1
      vertex 2.44949 12.6811 -1
    endloop
  endfacet
  facet normal 0.699095 -0.715029 0
    outer loop
      vertex 2.18835 12.4568 -1
      vertex 2.31366 12.5793 -1.54052e-15
      vertex 2.18835 12.4568 -1.52552e-15
    endloop
  endfacet
  facet normal 0.699095 -0.715029 0
    outer loop
      vertex 2.31366 12.5793 -1.54052e-15
      vertex 2.18835 12.4568 -1
      vertex 2.31366 12.5793 -1
    endloop
  endfacet
  facet normal 0.788396 -0.615168 0
    outer loop
      vertex 2.0815 12.3199 -1.50875e-15
      vertex 2.18835 12.4568 -1
      vertex 2.18835 12.4568 -1.52552e-15
    endloop
  endfacet
  facet normal 0.788396 -0.615168 0
    outer loop
      vertex 2.18835 12.4568 -1
      vertex 2.0815 12.3199 -1.50875e-15
      vertex 2.0815 12.3199 -1
    endloop
  endfacet
  facet normal 0.858651 -0.512561 0
    outer loop
      vertex 1.99998 12.1833 -1.49203e-15
      vertex 2.0815 12.3199 -1
      vertex 2.0815 12.3199 -1.50875e-15
    endloop
  endfacet
  facet normal 0.858651 -0.512561 0
    outer loop
      vertex 2.0815 12.3199 -1
      vertex 1.99998 12.1833 -1.49203e-15
      vertex 1.99998 12.1833 -1
    endloop
  endfacet
  facet normal 0.914146 -0.405386 0
    outer loop
      vertex 1.9344 12.0354 -1.47392e-15
      vertex 1.99998 12.1833 -1
      vertex 1.99998 12.1833 -1.49203e-15
    endloop
  endfacet
  facet normal 0.914146 -0.405386 0
    outer loop
      vertex 1.99998 12.1833 -1
      vertex 1.9344 12.0354 -1.47392e-15
      vertex 1.9344 12.0354 -1
    endloop
  endfacet
  facet normal 0.960141 -0.279515 0
    outer loop
      vertex -2.2735 -2.41884 2.96222e-16
      vertex 1.9344 12.0354 -1
      vertex 1.9344 12.0354 -1.47392e-15
    endloop
  endfacet
  facet normal 0.960141 -0.279515 0
    outer loop
      vertex 1.9344 12.0354 -1
      vertex -2.2735 -2.41884 2.96222e-16
      vertex -2.2735 -2.41884 -1
    endloop
  endfacet
  facet normal -1 -1.4934e-05 0
    outer loop
      vertex -2.2735 -2.41884 -1
      vertex -2.27371 11.8856 -1.45557e-15
      vertex -2.27371 11.8856 -1
    endloop
  endfacet
  facet normal -1 -1.4934e-05 0
    outer loop
      vertex -2.27371 11.8856 -1.45557e-15
      vertex -2.2735 -2.41884 -1
      vertex -2.2735 -2.41884 2.96222e-16
    endloop
  endfacet
  facet normal -0.996745 -0.0806172 0
    outer loop
      vertex -2.27371 11.8856 -1
      vertex -2.28336 12.0048 -1.47017e-15
      vertex -2.28336 12.0048 -1
    endloop
  endfacet
  facet normal -0.996745 -0.0806172 0
    outer loop
      vertex -2.28336 12.0048 -1.47017e-15
      vertex -2.27371 11.8856 -1
      vertex -2.27371 11.8856 -1.45557e-15
    endloop
  endfacet
  facet normal -0.97983 -0.199831 0
    outer loop
      vertex -2.28336 12.0048 -1
      vertex -2.30891 12.1302 -1.48552e-15
      vertex -2.30891 12.1302 -1
    endloop
  endfacet
  facet normal -0.97983 -0.199831 0
    outer loop
      vertex -2.30891 12.1302 -1.48552e-15
      vertex -2.28336 12.0048 -1
      vertex -2.28336 12.0048 -1.47017e-15
    endloop
  endfacet
  facet normal -0.945986 -0.324207 0
    outer loop
      vertex -2.30891 12.1302 -1
      vertex -2.35089 12.2526 -1.50052e-15
      vertex -2.35089 12.2526 -1
    endloop
  endfacet
  facet normal -0.945986 -0.324207 0
    outer loop
      vertex -2.35089 12.2526 -1.50052e-15
      vertex -2.30891 12.1302 -1
      vertex -2.30891 12.1302 -1.48552e-15
    endloop
  endfacet
  facet normal -0.895554 -0.444952 0
    outer loop
      vertex -2.35089 12.2526 -1
      vertex -2.40617 12.3639 -1.51414e-15
      vertex -2.40617 12.3639 -1
    endloop
  endfacet
  facet normal -0.895554 -0.444952 0
    outer loop
      vertex -2.40617 12.3639 -1.51414e-15
      vertex -2.35089 12.2526 -1
      vertex -2.35089 12.2526 -1.50052e-15
    endloop
  endfacet
  facet normal -0.832678 -0.553757 0
    outer loop
      vertex -2.40617 12.3639 -1
      vertex -2.47443 12.4665 -1.52671e-15
      vertex -2.47443 12.4665 -1
    endloop
  endfacet
  facet normal -0.832678 -0.553757 0
    outer loop
      vertex -2.47443 12.4665 -1.52671e-15
      vertex -2.40617 12.3639 -1
      vertex -2.40617 12.3639 -1.51414e-15
    endloop
  endfacet
  facet normal -0.7577 -0.652602 0
    outer loop
      vertex -2.47443 12.4665 -1
      vertex -2.55449 12.5595 -1.53809e-15
      vertex -2.55449 12.5595 -1
    endloop
  endfacet
  facet normal -0.7577 -0.652602 0
    outer loop
      vertex -2.55449 12.5595 -1.53809e-15
      vertex -2.47443 12.4665 -1
      vertex -2.47443 12.4665 -1.52671e-15
    endloop
  endfacet
  facet normal -0.672108 -0.740453 0
    outer loop
      vertex -2.64508 12.6417 -1
      vertex -2.55449 12.5595 -1.53809e-15
      vertex -2.64508 12.6417 -1.54816e-15
    endloop
  endfacet
  facet normal -0.672108 -0.740453 -0
    outer loop
      vertex -2.55449 12.5595 -1.53809e-15
      vertex -2.64508 12.6417 -1
      vertex -2.55449 12.5595 -1
    endloop
  endfacet
  facet normal -0.577431 -0.816439 0
    outer loop
      vertex -2.74182 12.7101 -1
      vertex -2.64508 12.6417 -1.54816e-15
      vertex -2.74182 12.7101 -1.55654e-15
    endloop
  endfacet
  facet normal -0.577431 -0.816439 -0
    outer loop
      vertex -2.64508 12.6417 -1.54816e-15
      vertex -2.74182 12.7101 -1
      vertex -2.64508 12.6417 -1
    endloop
  endfacet
  facet normal -0.477191 -0.8788 0
    outer loop
      vertex -2.84933 12.7685 -1
      vertex -2.74182 12.7101 -1.55654e-15
      vertex -2.84933 12.7685 -1.56369e-15
    endloop
  endfacet
  facet normal -0.477191 -0.8788 -0
    outer loop
      vertex -2.74182 12.7101 -1.55654e-15
      vertex -2.84933 12.7685 -1
      vertex -2.74182 12.7101 -1
    endloop
  endfacet
  facet normal -0.366622 -0.93037 0
    outer loop
      vertex -2.96341 12.8135 -1
      vertex -2.84933 12.7685 -1.56369e-15
      vertex -2.96341 12.8135 -1.5692e-15
    endloop
  endfacet
  facet normal -0.366622 -0.93037 -0
    outer loop
      vertex -2.84933 12.7685 -1.56369e-15
      vertex -2.96341 12.8135 -1
      vertex -2.84933 12.7685 -1
    endloop
  endfacet
  facet normal -0.250558 -0.968101 0
    outer loop
      vertex -3.07896 12.8434 -1
      vertex -2.96341 12.8135 -1.5692e-15
      vertex -3.07896 12.8434 -1.57286e-15
    endloop
  endfacet
  facet normal -0.250558 -0.968101 -0
    outer loop
      vertex -2.96341 12.8135 -1.5692e-15
      vertex -3.07896 12.8434 -1
      vertex -2.96341 12.8135 -1
    endloop
  endfacet
  facet normal -0.131655 -0.991296 0
    outer loop
      vertex -3.20178 12.8597 -1
      vertex -3.07896 12.8434 -1.57286e-15
      vertex -3.20178 12.8597 -1.57486e-15
    endloop
  endfacet
  facet normal -0.131655 -0.991296 -0
    outer loop
      vertex -3.07896 12.8434 -1.57286e-15
      vertex -3.20178 12.8597 -1
      vertex -3.07896 12.8434 -1
    endloop
  endfacet
  facet normal -0.000734581 -1 0
    outer loop
      vertex -5.79829 12.8616 -1
      vertex -3.20178 12.8597 -1.57486e-15
      vertex -5.79829 12.8616 -1.57509e-15
    endloop
  endfacet
  facet normal -0.000734581 -1 -0
    outer loop
      vertex -3.20178 12.8597 -1.57486e-15
      vertex -5.79829 12.8616 -1
      vertex -3.20178 12.8597 -1
    endloop
  endfacet
  facet normal 0.0851961 -0.996364 0
    outer loop
      vertex -5.89716 12.8531 -1
      vertex -5.79829 12.8616 -1.57509e-15
      vertex -5.89716 12.8531 -1.57406e-15
    endloop
  endfacet
  facet normal 0.0851961 -0.996364 0
    outer loop
      vertex -5.79829 12.8616 -1.57509e-15
      vertex -5.89716 12.8531 -1
      vertex -5.79829 12.8616 -1
    endloop
  endfacet
  facet normal 0.195134 -0.980777 0
    outer loop
      vertex -6.01434 12.8298 -1
      vertex -5.89716 12.8531 -1.57406e-15
      vertex -6.01434 12.8298 -1.5712e-15
    endloop
  endfacet
  facet normal 0.195134 -0.980777 0
    outer loop
      vertex -5.89716 12.8531 -1.57406e-15
      vertex -6.01434 12.8298 -1
      vertex -5.89716 12.8531 -1
    endloop
  endfacet
  facet normal 0.310487 -0.950578 0
    outer loop
      vertex -6.1274 12.7929 -1
      vertex -6.01434 12.8298 -1.5712e-15
      vertex -6.1274 12.7929 -1.56668e-15
    endloop
  endfacet
  facet normal 0.310487 -0.950578 0
    outer loop
      vertex -6.01434 12.8298 -1.5712e-15
      vertex -6.1274 12.7929 -1
      vertex -6.01434 12.8298 -1
    endloop
  endfacet
  facet normal 0.420734 -0.907184 0
    outer loop
      vertex -6.2384 12.7414 -1
      vertex -6.1274 12.7929 -1.56668e-15
      vertex -6.2384 12.7414 -1.56037e-15
    endloop
  endfacet
  facet normal 0.420734 -0.907184 0
    outer loop
      vertex -6.1274 12.7929 -1.56668e-15
      vertex -6.2384 12.7414 -1
      vertex -6.1274 12.7929 -1
    endloop
  endfacet
  facet normal 0.527776 -0.849384 0
    outer loop
      vertex -6.34225 12.6769 -1
      vertex -6.2384 12.7414 -1.56037e-15
      vertex -6.34225 12.6769 -1.55247e-15
    endloop
  endfacet
  facet normal 0.527776 -0.849384 0
    outer loop
      vertex -6.2384 12.7414 -1.56037e-15
      vertex -6.34225 12.6769 -1
      vertex -6.2384 12.7414 -1
    endloop
  endfacet
  facet normal 0.626592 -0.779347 0
    outer loop
      vertex -6.43466 12.6026 -1
      vertex -6.34225 12.6769 -1.55247e-15
      vertex -6.43466 12.6026 -1.54337e-15
    endloop
  endfacet
  facet normal 0.626592 -0.779347 0
    outer loop
      vertex -6.34225 12.6769 -1.55247e-15
      vertex -6.43466 12.6026 -1
      vertex -6.34225 12.6769 -1
    endloop
  endfacet
  facet normal 0.714906 -0.699221 0
    outer loop
      vertex -6.52037 12.515 -1.53264e-15
      vertex -6.43466 12.6026 -1
      vertex -6.43466 12.6026 -1.54337e-15
    endloop
  endfacet
  facet normal 0.714906 -0.699221 0
    outer loop
      vertex -6.43466 12.6026 -1
      vertex -6.52037 12.515 -1.53264e-15
      vertex -6.52037 12.515 -1
    endloop
  endfacet
  facet normal 0.807828 -0.589419 0
    outer loop
      vertex -6.61508 12.3852 -1.51674e-15
      vertex -6.52037 12.515 -1
      vertex -6.52037 12.515 -1.53264e-15
    endloop
  endfacet
  facet normal 0.807828 -0.589419 0
    outer loop
      vertex -6.52037 12.515 -1
      vertex -6.61508 12.3852 -1.51674e-15
      vertex -6.61508 12.3852 -1
    endloop
  endfacet
  facet normal 0.874349 -0.485298 0
    outer loop
      vertex -6.65701 12.3096 -1.50749e-15
      vertex -6.61508 12.3852 -1
      vertex -6.61508 12.3852 -1.51674e-15
    endloop
  endfacet
  facet normal 0.874349 -0.485298 0
    outer loop
      vertex -6.61508 12.3852 -1
      vertex -6.65701 12.3096 -1.50749e-15
      vertex -6.65701 12.3096 -1
    endloop
  endfacet
  facet normal 0.92225 -0.386593 0
    outer loop
      vertex -6.70549 12.194 -1.49333e-15
      vertex -6.65701 12.3096 -1
      vertex -6.65701 12.3096 -1.50749e-15
    endloop
  endfacet
  facet normal 0.92225 -0.386593 0
    outer loop
      vertex -6.65701 12.3096 -1
      vertex -6.70549 12.194 -1.49333e-15
      vertex -6.70549 12.194 -1
    endloop
  endfacet
  facet normal 0.964337 -0.264678 0
    outer loop
      vertex -6.73921 12.0711 -1.47828e-15
      vertex -6.70549 12.194 -1
      vertex -6.70549 12.194 -1.49333e-15
    endloop
  endfacet
  facet normal 0.964337 -0.264678 0
    outer loop
      vertex -6.70549 12.194 -1
      vertex -6.73921 12.0711 -1.47828e-15
      vertex -6.73921 12.0711 -1
    endloop
  endfacet
  facet normal 0.990586 -0.136892 0
    outer loop
      vertex -6.75755 11.9384 -1.46203e-15
      vertex -6.73921 12.0711 -1
      vertex -6.73921 12.0711 -1.47828e-15
    endloop
  endfacet
  facet normal 0.990586 -0.136892 0
    outer loop
      vertex -6.73921 12.0711 -1
      vertex -6.75755 11.9384 -1.46203e-15
      vertex -6.75755 11.9384 -1
    endloop
  endfacet
  facet normal 1 -0.000108343 0
    outer loop
      vertex -6.76019 -12.4266 1.52182e-15
      vertex -6.75755 11.9384 -1
      vertex -6.75755 11.9384 -1.46203e-15
    endloop
  endfacet
  facet normal 1 -0.000108343 0
    outer loop
      vertex -6.75755 11.9384 -1
      vertex -6.76019 -12.4266 1.52182e-15
      vertex -6.76019 -12.4266 -1
    endloop
  endfacet
  facet normal 0.996755 0.0804905 0
    outer loop
      vertex -6.75056 -12.5458 1.53642e-15
      vertex -6.76019 -12.4266 -1
      vertex -6.76019 -12.4266 1.52182e-15
    endloop
  endfacet
  facet normal 0.996755 0.0804905 0
    outer loop
      vertex -6.76019 -12.4266 -1
      vertex -6.75056 -12.5458 1.53642e-15
      vertex -6.75056 -12.5458 -1
    endloop
  endfacet
  facet normal 0.97972 0.200371 0
    outer loop
      vertex -6.72418 -12.6748 1.55222e-15
      vertex -6.75056 -12.5458 -1
      vertex -6.75056 -12.5458 1.53642e-15
    endloop
  endfacet
  facet normal 0.97972 0.200371 0
    outer loop
      vertex -6.75056 -12.5458 -1
      vertex -6.72418 -12.6748 1.55222e-15
      vertex -6.72418 -12.6748 -1
    endloop
  endfacet
  facet normal 0.944879 0.327419 0
    outer loop
      vertex -6.68301 -12.7936 1.56677e-15
      vertex -6.72418 -12.6748 -1
      vertex -6.72418 -12.6748 1.55222e-15
    endloop
  endfacet
  facet normal 0.944879 0.327419 0
    outer loop
      vertex -6.72418 -12.6748 -1
      vertex -6.68301 -12.7936 1.56677e-15
      vertex -6.68301 -12.7936 -1
    endloop
  endfacet
  facet normal 0.895603 0.444854 0
    outer loop
      vertex -6.62775 -12.9049 1.5804e-15
      vertex -6.68301 -12.7936 -1
      vertex -6.68301 -12.7936 1.56677e-15
    endloop
  endfacet
  facet normal 0.895603 0.444854 0
    outer loop
      vertex -6.68301 -12.7936 -1
      vertex -6.62775 -12.9049 1.5804e-15
      vertex -6.62775 -12.9049 -1
    endloop
  endfacet
  facet normal 0.832678 0.553757 0
    outer loop
      vertex -6.55949 -13.0075 1.59296e-15
      vertex -6.62775 -12.9049 -1
      vertex -6.62775 -12.9049 1.5804e-15
    endloop
  endfacet
  facet normal 0.832678 0.553757 0
    outer loop
      vertex -6.62775 -12.9049 -1
      vertex -6.55949 -13.0075 1.59296e-15
      vertex -6.55949 -13.0075 -1
    endloop
  endfacet
  facet normal 0.7577 0.652602 0
    outer loop
      vertex -6.47943 -13.1005 1.60435e-15
      vertex -6.55949 -13.0075 -1
      vertex -6.55949 -13.0075 1.59296e-15
    endloop
  endfacet
  facet normal 0.7577 0.652602 0
    outer loop
      vertex -6.55949 -13.0075 -1
      vertex -6.47943 -13.1005 1.60435e-15
      vertex -6.47943 -13.1005 -1
    endloop
  endfacet
  facet normal 0.672108 0.740453 -0
    outer loop
      vertex -6.38884 -13.1827 -1
      vertex -6.47943 -13.1005 1.60435e-15
      vertex -6.38884 -13.1827 1.61442e-15
    endloop
  endfacet
  facet normal 0.672108 0.740453 0
    outer loop
      vertex -6.47943 -13.1005 1.60435e-15
      vertex -6.38884 -13.1827 -1
      vertex -6.47943 -13.1005 -1
    endloop
  endfacet
  facet normal 0.576933 0.816791 -0
    outer loop
      vertex -6.28897 -13.2533 -1
      vertex -6.38884 -13.1827 1.61442e-15
      vertex -6.28897 -13.2533 1.62306e-15
    endloop
  endfacet
  facet normal 0.576933 0.816791 0
    outer loop
      vertex -6.38884 -13.1827 1.61442e-15
      vertex -6.28897 -13.2533 -1
      vertex -6.38884 -13.1827 -1
    endloop
  endfacet
  facet normal 0.474384 0.880318 -0
    outer loop
      vertex -6.18457 -13.3095 -1
      vertex -6.28897 -13.2533 1.62306e-15
      vertex -6.18457 -13.3095 1.62995e-15
    endloop
  endfacet
  facet normal 0.474384 0.880318 0
    outer loop
      vertex -6.28897 -13.2533 1.62306e-15
      vertex -6.18457 -13.3095 -1
      vertex -6.28897 -13.2533 -1
    endloop
  endfacet
  facet normal 0.366622 0.93037 -0
    outer loop
      vertex -6.0705 -13.3545 -1
      vertex -6.18457 -13.3095 1.62995e-15
      vertex -6.0705 -13.3545 1.63545e-15
    endloop
  endfacet
  facet normal 0.366622 0.93037 0
    outer loop
      vertex -6.18457 -13.3095 1.62995e-15
      vertex -6.0705 -13.3545 -1
      vertex -6.18457 -13.3095 -1
    endloop
  endfacet
  facet normal 0.250589 0.968093 -0
    outer loop
      vertex -5.95496 -13.3844 -1
      vertex -6.0705 -13.3545 1.63545e-15
      vertex -5.95496 -13.3844 1.63911e-15
    endloop
  endfacet
  facet normal 0.250589 0.968093 0
    outer loop
      vertex -6.0705 -13.3545 1.63545e-15
      vertex -5.95496 -13.3844 -1
      vertex -6.0705 -13.3545 -1
    endloop
  endfacet
  facet normal 0.131655 0.991296 -0
    outer loop
      vertex -5.83214 -13.4007 -1
      vertex -5.95496 -13.3844 1.63911e-15
      vertex -5.83214 -13.4007 1.64111e-15
    endloop
  endfacet
  facet normal 0.131655 0.991296 0
    outer loop
      vertex -5.95496 -13.3844 1.63911e-15
      vertex -5.83214 -13.4007 -1
      vertex -5.95496 -13.3844 -1
    endloop
  endfacet
  facet normal 0.000824387 1 -0
    outer loop
      vertex -2.46346 -13.4035 -1
      vertex -5.83214 -13.4007 1.64111e-15
      vertex -2.46346 -13.4035 1.64145e-15
    endloop
  endfacet
  facet normal 0.000824387 1 0
    outer loop
      vertex -5.83214 -13.4007 1.64111e-15
      vertex -2.46346 -13.4035 -1
      vertex -5.83214 -13.4007 -1
    endloop
  endfacet
  facet normal -0.0422042 0.999109 0
    outer loop
      vertex -2.3717 -13.3996 -1
      vertex -2.46346 -13.4035 1.64145e-15
      vertex -2.3717 -13.3996 1.64098e-15
    endloop
  endfacet
  facet normal -0.0422042 0.999109 0
    outer loop
      vertex -2.46346 -13.4035 1.64145e-15
      vertex -2.3717 -13.3996 -1
      vertex -2.46346 -13.4035 -1
    endloop
  endfacet
  facet normal -0.133541 0.991043 0
    outer loop
      vertex -2.2502 -13.3832 -1
      vertex -2.3717 -13.3996 1.64098e-15
      vertex -2.2502 -13.3832 1.63897e-15
    endloop
  endfacet
  facet normal -0.133541 0.991043 0
    outer loop
      vertex -2.3717 -13.3996 1.64098e-15
      vertex -2.2502 -13.3832 -1
      vertex -2.3717 -13.3996 -1
    endloop
  endfacet
  facet normal -0.243867 0.969809 0
    outer loop
      vertex -2.10117 -13.3457 -1
      vertex -2.2502 -13.3832 1.63897e-15
      vertex -2.10117 -13.3457 1.63438e-15
    endloop
  endfacet
  facet normal -0.243867 0.969809 0
    outer loop
      vertex -2.2502 -13.3832 1.63897e-15
      vertex -2.10117 -13.3457 -1
      vertex -2.2502 -13.3832 -1
    endloop
  endfacet
  facet normal -0.359888 0.932995 0
    outer loop
      vertex -1.96062 -13.2915 -1
      vertex -2.10117 -13.3457 1.63438e-15
      vertex -1.96062 -13.2915 1.62774e-15
    endloop
  endfacet
  facet normal -0.359888 0.932995 0
    outer loop
      vertex -2.10117 -13.3457 1.63438e-15
      vertex -1.96062 -13.2915 -1
      vertex -2.10117 -13.3457 -1
    endloop
  endfacet
  facet normal -0.465563 0.885015 0
    outer loop
      vertex -1.82678 -13.2211 -1
      vertex -1.96062 -13.2915 1.62774e-15
      vertex -1.82678 -13.2211 1.61912e-15
    endloop
  endfacet
  facet normal -0.465563 0.885015 0
    outer loop
      vertex -1.96062 -13.2915 1.62774e-15
      vertex -1.82678 -13.2211 -1
      vertex -1.96062 -13.2915 -1
    endloop
  endfacet
  facet normal -0.564025 0.825757 0
    outer loop
      vertex -1.69849 -13.1335 -1
      vertex -1.82678 -13.2211 1.61912e-15
      vertex -1.69849 -13.1335 1.60839e-15
    endloop
  endfacet
  facet normal -0.564025 0.825757 0
    outer loop
      vertex -1.82678 -13.2211 1.61912e-15
      vertex -1.69849 -13.1335 -1
      vertex -1.82678 -13.2211 -1
    endloop
  endfacet
  facet normal -0.656816 0.754051 0
    outer loop
      vertex -1.58406 -13.0338 -1
      vertex -1.69849 -13.1335 1.60839e-15
      vertex -1.58406 -13.0338 1.59618e-15
    endloop
  endfacet
  facet normal -0.656816 0.754051 0
    outer loop
      vertex -1.69849 -13.1335 1.60839e-15
      vertex -1.58406 -13.0338 -1
      vertex -1.69849 -13.1335 -1
    endloop
  endfacet
  facet normal -0.740575 0.671974 0
    outer loop
      vertex -1.58406 -13.0338 -1
      vertex -1.47958 -12.9187 1.58208e-15
      vertex -1.47958 -12.9187 -1
    endloop
  endfacet
  facet normal -0.740575 0.671974 0
    outer loop
      vertex -1.47958 -12.9187 1.58208e-15
      vertex -1.58406 -13.0338 -1
      vertex -1.58406 -13.0338 1.59618e-15
    endloop
  endfacet
  facet normal -0.811566 0.584261 0
    outer loop
      vertex -1.47958 -12.9187 -1
      vertex -1.40463 -12.8146 1.56933e-15
      vertex -1.40463 -12.8146 -1
    endloop
  endfacet
  facet normal -0.811566 0.584261 0
    outer loop
      vertex -1.40463 -12.8146 1.56933e-15
      vertex -1.47958 -12.9187 -1
      vertex -1.47958 -12.9187 1.58208e-15
    endloop
  endfacet
  facet normal -0.86835 0.495952 0
    outer loop
      vertex -1.40463 -12.8146 -1
      vertex -1.3391 -12.6998 1.55528e-15
      vertex -1.3391 -12.6998 -1
    endloop
  endfacet
  facet normal -0.86835 0.495952 0
    outer loop
      vertex -1.3391 -12.6998 1.55528e-15
      vertex -1.40463 -12.8146 -1
      vertex -1.40463 -12.8146 1.56933e-15
    endloop
  endfacet
  facet normal -0.918025 0.396522 0
    outer loop
      vertex -1.3391 -12.6998 -1
      vertex -1.28807 -12.5817 1.54081e-15
      vertex -1.28807 -12.5817 -1
    endloop
  endfacet
  facet normal -0.918025 0.396522 0
    outer loop
      vertex -1.28807 -12.5817 1.54081e-15
      vertex -1.3391 -12.6998 -1
      vertex -1.3391 -12.6998 1.55528e-15
    endloop
  endfacet
  facet normal -0.961633 0.274338 0
    outer loop
      vertex -1.28807 -12.5817 -1
      vertex 2.62657 1.14027 -1.39643e-16
      vertex 2.62657 1.14027 -1
    endloop
  endfacet
  facet normal -0.961633 0.274338 0
    outer loop
      vertex 2.62657 1.14027 -1.39643e-16
      vertex -1.28807 -12.5817 -1
      vertex -1.28807 -12.5817 1.54081e-15
    endloop
  endfacet
  facet normal 1 1.57459e-05 0
    outer loop
      vertex 2.62679 -12.4266 1.52182e-15
      vertex 2.62657 1.14027 -1
      vertex 2.62657 1.14027 -1.39643e-16
    endloop
  endfacet
  facet normal 1 1.57459e-05 0
    outer loop
      vertex 2.62657 1.14027 -1
      vertex 2.62679 -12.4266 1.52182e-15
      vertex 2.62679 -12.4266 -1
    endloop
  endfacet
  facet normal 0.996745 0.0806172 0
    outer loop
      vertex 2.63643 -12.5458 1.53642e-15
      vertex 2.62679 -12.4266 -1
      vertex 2.62679 -12.4266 1.52182e-15
    endloop
  endfacet
  facet normal 0.996745 0.0806172 0
    outer loop
      vertex 2.62679 -12.4266 -1
      vertex 2.63643 -12.5458 1.53642e-15
      vertex 2.63643 -12.5458 -1
    endloop
  endfacet
  facet normal 0.97972 0.200371 0
    outer loop
      vertex 2.66281 -12.6748 1.55222e-15
      vertex 2.63643 -12.5458 -1
      vertex 2.63643 -12.5458 1.53642e-15
    endloop
  endfacet
  facet normal 0.97972 0.200371 0
    outer loop
      vertex 2.63643 -12.5458 -1
      vertex 2.66281 -12.6748 1.55222e-15
      vertex 2.66281 -12.6748 -1
    endloop
  endfacet
  facet normal 0.944917 0.327311 0
    outer loop
      vertex 2.70396 -12.7936 1.56677e-15
      vertex 2.66281 -12.6748 -1
      vertex 2.66281 -12.6748 1.55222e-15
    endloop
  endfacet
  facet normal 0.944917 0.327311 0
    outer loop
      vertex 2.66281 -12.6748 -1
      vertex 2.70396 -12.7936 1.56677e-15
      vertex 2.70396 -12.7936 -1
    endloop
  endfacet
  facet normal 0.895554 0.444952 0
    outer loop
      vertex 2.75925 -12.9049 1.5804e-15
      vertex 2.70396 -12.7936 -1
      vertex 2.70396 -12.7936 1.56677e-15
    endloop
  endfacet
  facet normal 0.895554 0.444952 0
    outer loop
      vertex 2.70396 -12.7936 -1
      vertex 2.75925 -12.9049 1.5804e-15
      vertex 2.75925 -12.9049 -1
    endloop
  endfacet
  facet normal 0.832678 0.553757 0
    outer loop
      vertex 2.8275 -13.0075 1.59296e-15
      vertex 2.75925 -12.9049 -1
      vertex 2.75925 -12.9049 1.5804e-15
    endloop
  endfacet
  facet normal 0.832678 0.553757 0
    outer loop
      vertex 2.75925 -12.9049 -1
      vertex 2.8275 -13.0075 1.59296e-15
      vertex 2.8275 -13.0075 -1
    endloop
  endfacet
  facet normal 0.757762 0.652531 0
    outer loop
      vertex 2.90755 -13.1005 1.60435e-15
      vertex 2.8275 -13.0075 -1
      vertex 2.8275 -13.0075 1.59296e-15
    endloop
  endfacet
  facet normal 0.757762 0.652531 0
    outer loop
      vertex 2.8275 -13.0075 -1
      vertex 2.90755 -13.1005 1.60435e-15
      vertex 2.90755 -13.1005 -1
    endloop
  endfacet
  facet normal 0.672046 0.74051 -0
    outer loop
      vertex 2.99815 -13.1827 -1
      vertex 2.90755 -13.1005 1.60435e-15
      vertex 2.99815 -13.1827 1.61442e-15
    endloop
  endfacet
  facet normal 0.672046 0.74051 0
    outer loop
      vertex 2.90755 -13.1005 1.60435e-15
      vertex 2.99815 -13.1827 -1
      vertex 2.90755 -13.1005 -1
    endloop
  endfacet
  facet normal 0.576992 0.81675 -0
    outer loop
      vertex 3.09801 -13.2533 -1
      vertex 2.99815 -13.1827 1.61442e-15
      vertex 3.09801 -13.2533 1.62306e-15
    endloop
  endfacet
  facet normal 0.576992 0.81675 0
    outer loop
      vertex 2.99815 -13.1827 1.61442e-15
      vertex 3.09801 -13.2533 -1
      vertex 2.99815 -13.1827 -1
    endloop
  endfacet
  facet normal 0.474384 0.880318 -0
    outer loop
      vertex 3.20241 -13.3095 -1
      vertex 3.09801 -13.2533 1.62306e-15
      vertex 3.20241 -13.3095 1.62995e-15
    endloop
  endfacet
  facet normal 0.474384 0.880318 0
    outer loop
      vertex 3.09801 -13.2533 1.62306e-15
      vertex 3.20241 -13.3095 -1
      vertex 3.09801 -13.2533 -1
    endloop
  endfacet
  facet normal 0.366622 0.93037 -0
    outer loop
      vertex 3.31648 -13.3545 -1
      vertex 3.20241 -13.3095 1.62995e-15
      vertex 3.31648 -13.3545 1.63545e-15
    endloop
  endfacet
  facet normal 0.366622 0.93037 0
    outer loop
      vertex 3.20241 -13.3095 1.62995e-15
      vertex 3.31648 -13.3545 -1
      vertex 3.20241 -13.3095 -1
    endloop
  endfacet
  facet normal 0.250589 0.968093 -0
    outer loop
      vertex 3.43202 -13.3844 -1
      vertex 3.31648 -13.3545 1.63545e-15
      vertex 3.43202 -13.3844 1.63911e-15
    endloop
  endfacet
  facet normal 0.250589 0.968093 0
    outer loop
      vertex 3.31648 -13.3545 1.63545e-15
      vertex 3.43202 -13.3844 -1
      vertex 3.31648 -13.3545 -1
    endloop
  endfacet
  facet normal 0.131639 0.991298 -0
    outer loop
      vertex 3.55486 -13.4007 -1
      vertex 3.43202 -13.3844 1.63911e-15
      vertex 3.55486 -13.4007 1.64111e-15
    endloop
  endfacet
  facet normal 0.131639 0.991298 0
    outer loop
      vertex 3.43202 -13.3844 1.63911e-15
      vertex 3.55486 -13.4007 -1
      vertex 3.43202 -13.3844 -1
    endloop
  endfacet
  facet normal 0.000993935 1 -0
    outer loop
      vertex 6.13397 -13.4033 -1
      vertex 3.55486 -13.4007 1.64111e-15
      vertex 6.13397 -13.4033 1.64143e-15
    endloop
  endfacet
  facet normal 0.000993935 1 0
    outer loop
      vertex 3.55486 -13.4007 1.64111e-15
      vertex 6.13397 -13.4033 -1
      vertex 3.55486 -13.4007 -1
    endloop
  endfacet
  facet normal -0.0776168 0.996983 0
    outer loop
      vertex 6.24648 -13.3945 -1
      vertex 6.13397 -13.4033 1.64143e-15
      vertex 6.24648 -13.3945 1.64035e-15
    endloop
  endfacet
  facet normal -0.0776168 0.996983 0
    outer loop
      vertex 6.13397 -13.4033 1.64143e-15
      vertex 6.24648 -13.3945 -1
      vertex 6.13397 -13.4033 -1
    endloop
  endfacet
  facet normal -0.192043 0.981387 0
    outer loop
      vertex 6.36742 -13.3708 -1
      vertex 6.24648 -13.3945 1.64035e-15
      vertex 6.36742 -13.3708 1.63745e-15
    endloop
  endfacet
  facet normal -0.192043 0.981387 0
    outer loop
      vertex 6.24648 -13.3945 1.64035e-15
      vertex 6.36742 -13.3708 -1
      vertex 6.24648 -13.3945 -1
    endloop
  endfacet
  facet normal -0.310487 0.950578 0
    outer loop
      vertex 6.48047 -13.3339 -1
      vertex 6.36742 -13.3708 1.63745e-15
      vertex 6.48047 -13.3339 1.63293e-15
    endloop
  endfacet
  facet normal -0.310487 0.950578 0
    outer loop
      vertex 6.36742 -13.3708 1.63745e-15
      vertex 6.48047 -13.3339 -1
      vertex 6.36742 -13.3708 -1
    endloop
  endfacet
  facet normal -0.420734 0.907184 0
    outer loop
      vertex 6.59148 -13.2824 -1
      vertex 6.48047 -13.3339 1.63293e-15
      vertex 6.59148 -13.2824 1.62663e-15
    endloop
  endfacet
  facet normal -0.420734 0.907184 0
    outer loop
      vertex 6.48047 -13.3339 1.63293e-15
      vertex 6.59148 -13.2824 -1
      vertex 6.48047 -13.3339 -1
    endloop
  endfacet
  facet normal -0.527832 0.849349 0
    outer loop
      vertex 6.69531 -13.2179 -1
      vertex 6.59148 -13.2824 1.62663e-15
      vertex 6.69531 -13.2179 1.61873e-15
    endloop
  endfacet
  facet normal -0.527832 0.849349 0
    outer loop
      vertex 6.59148 -13.2824 1.62663e-15
      vertex 6.69531 -13.2179 -1
      vertex 6.59148 -13.2824 -1
    endloop
  endfacet
  facet normal -0.626529 0.779398 0
    outer loop
      vertex 6.78773 -13.1436 -1
      vertex 6.69531 -13.2179 1.61873e-15
      vertex 6.78773 -13.1436 1.60963e-15
    endloop
  endfacet
  facet normal -0.626529 0.779398 0
    outer loop
      vertex 6.69531 -13.2179 1.61873e-15
      vertex 6.78773 -13.1436 -1
      vertex 6.69531 -13.2179 -1
    endloop
  endfacet
  facet normal -0.714906 0.699221 0
    outer loop
      vertex 6.78773 -13.1436 -1
      vertex 6.87344 -13.056 1.5989e-15
      vertex 6.87344 -13.056 -1
    endloop
  endfacet
  facet normal -0.714906 0.699221 0
    outer loop
      vertex 6.87344 -13.056 1.5989e-15
      vertex 6.78773 -13.1436 -1
      vertex 6.78773 -13.1436 1.60963e-15
    endloop
  endfacet
  facet normal -0.795637 0.605774 0
    outer loop
      vertex 6.87344 -13.056 -1
      vertex 6.94574 -12.961 1.58727e-15
      vertex 6.94574 -12.961 -1
    endloop
  endfacet
  facet normal -0.795637 0.605774 0
    outer loop
      vertex 6.94574 -12.961 1.58727e-15
      vertex 6.87344 -13.056 -1
      vertex 6.87344 -13.056 1.5989e-15
    endloop
  endfacet
  facet normal -0.863694 0.504016 0
    outer loop
      vertex 6.94574 -12.961 -1
      vertex 7.00824 -12.8539 1.57415e-15
      vertex 7.00824 -12.8539 -1
    endloop
  endfacet
  facet normal -0.863694 0.504016 0
    outer loop
      vertex 7.00824 -12.8539 1.57415e-15
      vertex 6.94574 -12.961 -1
      vertex 6.94574 -12.961 1.58727e-15
    endloop
  endfacet
  facet normal -0.920962 0.389652 0
    outer loop
      vertex 7.00824 -12.8539 -1
      vertex 7.05856 -12.735 1.55958e-15
      vertex 7.05856 -12.735 -1
    endloop
  endfacet
  facet normal -0.920962 0.389652 0
    outer loop
      vertex 7.05856 -12.735 1.55958e-15
      vertex 7.00824 -12.8539 -1
      vertex 7.00824 -12.8539 1.57415e-15
    endloop
  endfacet
  facet normal -0.964337 0.264678 0
    outer loop
      vertex 7.05856 -12.735 -1
      vertex 7.09229 -12.6121 1.54454e-15
      vertex 7.09229 -12.6121 -1
    endloop
  endfacet
  facet normal -0.964337 0.264678 0
    outer loop
      vertex 7.09229 -12.6121 1.54454e-15
      vertex 7.05856 -12.735 -1
      vertex 7.05856 -12.735 1.55958e-15
    endloop
  endfacet
  facet normal -0.990586 0.136892 0
    outer loop
      vertex 7.09229 -12.6121 -1
      vertex 7.11063 -12.4794 1.52828e-15
      vertex 7.11063 -12.4794 -1
    endloop
  endfacet
  facet normal -0.990586 0.136892 0
    outer loop
      vertex 7.11063 -12.4794 1.52828e-15
      vertex 7.09229 -12.6121 -1
      vertex 7.09229 -12.6121 1.54454e-15
    endloop
  endfacet
  facet normal -1 0.000108343 0
    outer loop
      vertex 7.11063 -12.4794 -1
      vertex 7.11327 11.8856 -1.45557e-15
      vertex 7.11327 11.8856 -1
    endloop
  endfacet
  facet normal -1 0.000108343 0
    outer loop
      vertex 7.11327 11.8856 -1.45557e-15
      vertex 7.11063 -12.4794 -1
      vertex 7.11063 -12.4794 1.52828e-15
    endloop
  endfacet
  facet normal -0.996745 -0.0806172 0
    outer loop
      vertex 7.11327 11.8856 -1
      vertex 7.10362 12.0048 -1.47017e-15
      vertex 7.10362 12.0048 -1
    endloop
  endfacet
  facet normal -0.996745 -0.0806172 0
    outer loop
      vertex 7.10362 12.0048 -1.47017e-15
      vertex 7.11327 11.8856 -1
      vertex 7.11327 11.8856 -1.45557e-15
    endloop
  endfacet
  facet normal -0.979854 -0.199717 0
    outer loop
      vertex 7.10362 12.0048 -1
      vertex 7.07808 12.1302 -1.48552e-15
      vertex 7.07808 12.1302 -1
    endloop
  endfacet
  facet normal -0.979854 -0.199717 0
    outer loop
      vertex 7.07808 12.1302 -1.48552e-15
      vertex 7.10362 12.0048 -1
      vertex 7.10362 12.0048 -1.47017e-15
    endloop
  endfacet
  facet normal -0.94595 -0.324312 0
    outer loop
      vertex 7.07808 12.1302 -1
      vertex 7.03609 12.2526 -1.50052e-15
      vertex 7.03609 12.2526 -1
    endloop
  endfacet
  facet normal -0.94595 -0.324312 0
    outer loop
      vertex 7.03609 12.2526 -1.50052e-15
      vertex 7.07808 12.1302 -1
      vertex 7.07808 12.1302 -1.48552e-15
    endloop
  endfacet
  facet normal -0.895603 -0.444854 0
    outer loop
      vertex 7.03609 12.2526 -1
      vertex 6.98082 12.3639 -1.51414e-15
      vertex 6.98082 12.3639 -1
    endloop
  endfacet
  facet normal -0.895603 -0.444854 0
    outer loop
      vertex 6.98082 12.3639 -1.51414e-15
      vertex 7.03609 12.2526 -1
      vertex 7.03609 12.2526 -1.50052e-15
    endloop
  endfacet
  facet normal -0.832678 -0.553757 0
    outer loop
      vertex 6.98082 12.3639 -1
      vertex 6.91257 12.4665 -1.52671e-15
      vertex 6.91257 12.4665 -1
    endloop
  endfacet
  facet normal -0.832678 -0.553757 0
    outer loop
      vertex 6.91257 12.4665 -1.52671e-15
      vertex 6.98082 12.3639 -1
      vertex 6.98082 12.3639 -1.51414e-15
    endloop
  endfacet
  facet normal -0.7577 -0.652602 0
    outer loop
      vertex 6.91257 12.4665 -1
      vertex 6.8325 12.5595 -1.53809e-15
      vertex 6.8325 12.5595 -1
    endloop
  endfacet
  facet normal -0.7577 -0.652602 0
    outer loop
      vertex 6.8325 12.5595 -1.53809e-15
      vertex 6.91257 12.4665 -1
      vertex 6.91257 12.4665 -1.52671e-15
    endloop
  endfacet
  facet normal -0.672108 -0.740453 0
    outer loop
      vertex 6.74191 12.6417 -1
      vertex 6.8325 12.5595 -1.53809e-15
      vertex 6.74191 12.6417 -1.54816e-15
    endloop
  endfacet
  facet normal -0.672108 -0.740453 -0
    outer loop
      vertex 6.8325 12.5595 -1.53809e-15
      vertex 6.74191 12.6417 -1
      vertex 6.8325 12.5595 -1
    endloop
  endfacet
  facet normal -0.577371 -0.816482 0
    outer loop
      vertex 6.64516 12.7101 -1
      vertex 6.74191 12.6417 -1.54816e-15
      vertex 6.64516 12.7101 -1.55654e-15
    endloop
  endfacet
  facet normal -0.577371 -0.816482 -0
    outer loop
      vertex 6.74191 12.6417 -1.54816e-15
      vertex 6.64516 12.7101 -1
      vertex 6.74191 12.6417 -1
    endloop
  endfacet
  facet normal -0.477191 -0.8788 0
    outer loop
      vertex 6.53764 12.7685 -1
      vertex 6.64516 12.7101 -1.55654e-15
      vertex 6.53764 12.7685 -1.56369e-15
    endloop
  endfacet
  facet normal -0.477191 -0.8788 -0
    outer loop
      vertex 6.64516 12.7101 -1.55654e-15
      vertex 6.53764 12.7685 -1
      vertex 6.64516 12.7101 -1
    endloop
  endfacet
  facet normal -0.366622 -0.93037 0
    outer loop
      vertex 6.42357 12.8135 -1
      vertex 6.53764 12.7685 -1.56369e-15
      vertex 6.42357 12.8135 -1.5692e-15
    endloop
  endfacet
  facet normal -0.366622 -0.93037 -0
    outer loop
      vertex 6.53764 12.7685 -1.56369e-15
      vertex 6.42357 12.8135 -1
      vertex 6.53764 12.7685 -1
    endloop
  endfacet
  facet normal -0.250589 -0.968093 0
    outer loop
      vertex 6.30803 12.8434 -1
      vertex 6.42357 12.8135 -1.5692e-15
      vertex 6.30803 12.8434 -1.57286e-15
    endloop
  endfacet
  facet normal -0.250589 -0.968093 -0
    outer loop
      vertex 6.42357 12.8135 -1.5692e-15
      vertex 6.30803 12.8434 -1
      vertex 6.42357 12.8135 -1
    endloop
  endfacet
  facet normal -0.131639 -0.991298 0
    outer loop
      vertex 6.1852 12.8597 -1
      vertex 6.30803 12.8434 -1.57286e-15
      vertex 6.1852 12.8597 -1.57486e-15
    endloop
  endfacet
  facet normal -0.131639 -0.991298 -0
    outer loop
      vertex 6.30803 12.8434 -1.57286e-15
      vertex 6.1852 12.8597 -1
      vertex 6.30803 12.8434 -1
    endloop
  endfacet
  facet normal -0.000856902 -1 0
    outer loop
      vertex 2.92653 12.8625 -1
      vertex 6.1852 12.8597 -1.57486e-15
      vertex 2.92653 12.8625 -1.5752e-15
    endloop
  endfacet
  facet normal -0.000856902 -1 -0
    outer loop
      vertex 6.1852 12.8597 -1.57486e-15
      vertex 2.92653 12.8625 -1
      vertex 6.1852 12.8597 -1
    endloop
  endfacet
  facet normal 0.206524 -0.978442 0
    outer loop
      vertex 2.75513 12.8263 -1
      vertex 2.92653 12.8625 -1.5752e-15
      vertex 2.75513 12.8263 -1.57077e-15
    endloop
  endfacet
  facet normal 0.206524 -0.978442 0
    outer loop
      vertex 2.92653 12.8625 -1.5752e-15
      vertex 2.75513 12.8263 -1
      vertex 2.92653 12.8625 -1
    endloop
  endfacet
  facet normal -0 0 1
    outer loop
      vertex -16.5 7.15 13.3
      vertex -15.5 -7.15 13.3
      vertex -15.5 7.15 13.3
    endloop
  endfacet
  facet normal 0 0 1
    outer loop
      vertex -15.5 -7.15 13.3
      vertex -16.5 7.15 13.3
      vertex -16.5 -7.15 13.3
    endloop
  endfacet
  facet normal 0 1 -0
    outer loop
      vertex -15.5 -7.15 13.3
      vertex -16.5 -7.15 15
      vertex -15.5 -7.15 15
    endloop
  endfacet
  facet normal 0 1 0
    outer loop
      vertex -16.5 -7.15 15
      vertex -15.5 -7.15 13.3
      vertex -16.5 -7.15 13.3
    endloop
  endfacet
  facet normal 0 -1 0
    outer loop
      vertex -16.5 7.15 13.3
      vertex -15.5 7.15 15
      vertex -16.5 7.15 15
    endloop
  endfacet
  facet normal 0 -1 -0
    outer loop
      vertex -15.5 7.15 15
      vertex -16.5 7.15 13.3
      vertex -15.5 7.15 13.3
    endloop
  endfacet
  facet normal -0 0 1
    outer loop
      vertex 15.5 7.15 13.3
      vertex 16.5 -7.15 13.3
      vertex 16.5 7.15 13.3
    endloop
  endfacet
  facet normal 0 0 1
    outer loop
      vertex 16.5 -7.15 13.3
      vertex 15.5 7.15 13.3
      vertex 15.5 -7.15 13.3
    endloop
  endfacet
  facet normal 0 -1 0
    outer loop
      vertex 15.5 7.15 13.3
      vertex 16.5 7.15 15
      vertex 15.5 7.15 15
    endloop
  endfacet
  facet normal 0 -1 -0
    outer loop
      vertex 16.5 7.15 15
      vertex 15.5 7.15 13.3
      vertex 16.5 7.15 13.3
    endloop
  endfacet
  facet normal 0 1 -0
    outer loop
      vertex 16.5 -7.15 13.3
      vertex 15.5 -7.15 15
      vertex 16.5 -7.15 15
    endloop
  endfacet
  facet normal 0 1 0
    outer loop
      vertex 15.5 -7.15 15
      vertex 16.5 -7.15 13.3
      vertex 15.5 -7.15 13.3
    endloop
  endfacet
  facet normal 1 -0 0
    outer loop
      vertex -7.15 -16.5 15
      vertex -7.15 -15.5 13.3
      vertex -7.15 -15.5 15
    endloop
  endfacet
  facet normal 1 0 0
    outer loop
      vertex -7.15 -15.5 13.3
      vertex -7.15 -16.5 15
      vertex -7.15 -16.5 13.3
    endloop
  endfacet
  facet normal -0 0 1
    outer loop
      vertex -7.15 -15.5 13.3
      vertex 7.15 -16.5 13.3
      vertex 7.15 -15.5 13.3
    endloop
  endfacet
  facet normal 0 0 1
    outer loop
      vertex 7.15 -16.5 13.3
      vertex -7.15 -15.5 13.3
      vertex -7.15 -16.5 13.3
    endloop
  endfacet
  facet normal -1 0 0
    outer loop
      vertex 7.15 -16.5 13.3
      vertex 7.15 -15.5 15
      vertex 7.15 -15.5 13.3
    endloop
  endfacet
  facet normal -1 -0 0
    outer loop
      vertex 7.15 -15.5 15
      vertex 7.15 -16.5 13.3
      vertex 7.15 -16.5 15
    endloop
  endfacet
  facet normal 1 -0 0
    outer loop
      vertex -7.15 15.5 15
      vertex -7.15 16.5 13.3
      vertex -7.15 16.5 15
    endloop
  endfacet
  facet normal 1 0 0
    outer loop
      vertex -7.15 16.5 13.3
      vertex -7.15 15.5 15
      vertex -7.15 15.5 13.3
    endloop
  endfacet
  facet normal -0 0 1
    outer loop
      vertex -7.15 16.5 13.3
      vertex 7.15 15.5 13.3
      vertex 7.15 16.5 13.3
    endloop
  endfacet
  facet normal 0 0 1
    outer loop
      vertex 7.15 15.5 13.3
      vertex -7.15 16.5 13.3
      vertex -7.15 15.5 13.3
    endloop
  endfacet
  facet normal -1 0 0
    outer loop
      vertex 7.15 15.5 13.3
      vertex 7.15 16.5 15
      vertex 7.15 16.5 13.3
    endloop
  endfacet
  facet normal -1 -0 0
    outer loop
      vertex 7.15 16.5 15
      vertex 7.15 15.5 13.3
      vertex 7.15 15.5 15
    endloop
  endfacet
endsolid OpenSCAD_Model
