solid OpenSCAD_Model
  facet normal -1 0 0
    outer loop
      vertex -14 -14 0.5
      vertex -14 14 1.5
      vertex -14 14 0.5
    endloop
  endfacet
  facet normal -1 -0 0
    outer loop
      vertex -14 14 1.5
      vertex -14 -14 0.5
      vertex -14 -14 1.5
    endloop
  endfacet
  facet normal -0 0 1
    outer loop
      vertex 5.15346 -8.95908 1.5
      vertex 14 -14 1.5
      vertex 14 14 1.5
    endloop
  endfacet
  facet normal 0 0 1
    outer loop
      vertex 14 -14 1.5
      vertex 5.31116 -9.33786 1.5
      vertex 5.31189 -11.8856 1.5
    endloop
  endfacet
  facet normal 0 0 1
    outer loop
      vertex 14 -14 1.5
      vertex 5.30032 -9.25346 1.5
      vertex 5.31116 -9.33786 1.5
    endloop
  endfacet
  facet normal 0 0 1
    outer loop
      vertex 14 -14 1.5
      vertex 5.27826 -9.17271 1.5
      vertex 5.30032 -9.25346 1.5
    endloop
  endfacet
  facet normal 0 0 1
    outer loop
      vertex 14 -14 1.5
      vertex 5.24583 -9.0963 1.5
      vertex 5.27826 -9.17271 1.5
    endloop
  endfacet
  facet normal 0 0 1
    outer loop
      vertex 14 -14 1.5
      vertex 5.20393 -9.02486 1.5
      vertex 5.24583 -9.0963 1.5
    endloop
  endfacet
  facet normal 0 0 1
    outer loop
      vertex 14 -14 1.5
      vertex 5.15346 -8.95908 1.5
      vertex 5.20393 -9.02486 1.5
    endloop
  endfacet
  facet normal 0 0 1
    outer loop
      vertex 14 14 1.5
      vertex 5.08276 -8.88852 1.5
      vertex 5.15346 -8.95908 1.5
    endloop
  endfacet
  facet normal 0 0 1
    outer loop
      vertex 14 14 1.5
      vertex 5.0025 -8.82822 1.5
      vertex 5.08276 -8.88852 1.5
    endloop
  endfacet
  facet normal 0 0 1
    outer loop
      vertex 14 14 1.5
      vertex 4.91418 -8.77931 1.5
      vertex 5.0025 -8.82822 1.5
    endloop
  endfacet
  facet normal 0 0 1
    outer loop
      vertex 14 14 1.5
      vertex 4.83554 -8.74809 1.5
      vertex 4.91418 -8.77931 1.5
    endloop
  endfacet
  facet normal 0 0 1
    outer loop
      vertex 14 14 1.5
      vertex 4.75323 -8.72626 1.5
      vertex 4.83554 -8.74809 1.5
    endloop
  endfacet
  facet normal -0 0 1
    outer loop
      vertex -1.17873 12.4455 1.5
      vertex 4.75323 -8.72626 1.5
      vertex 14 14 1.5
    endloop
  endfacet
  facet normal 0 0 1
    outer loop
      vertex 4.75323 -8.72626 1.5
      vertex -1.17873 12.4455 1.5
      vertex 4.66815 -8.71446 1.5
    endloop
  endfacet
  facet normal 0 0 1
    outer loop
      vertex 4.66815 -8.71446 1.5
      vertex -1.17873 12.4455 1.5
      vertex 4.61615 -8.71249 1.5
    endloop
  endfacet
  facet normal 0 0 1
    outer loop
      vertex 4.61615 -8.71249 1.5
      vertex -1.17873 12.4455 1.5
      vertex -1.17784 -8.71249 1.5
    endloop
  endfacet
  facet normal 0 0 1
    outer loop
      vertex 14 14 1.5
      vertex -1.18845 12.5375 1.5
      vertex -1.17873 12.4455 1.5
    endloop
  endfacet
  facet normal 0 0 1
    outer loop
      vertex 14 14 1.5
      vertex -1.20847 12.6245 1.5
      vertex -1.18845 12.5375 1.5
    endloop
  endfacet
  facet normal 0 0 1
    outer loop
      vertex 14 14 1.5
      vertex -1.23825 12.7061 1.5
      vertex -1.20847 12.6245 1.5
    endloop
  endfacet
  facet normal 0 0 1
    outer loop
      vertex 14 14 1.5
      vertex -1.27724 12.7816 1.5
      vertex -1.23825 12.7061 1.5
    endloop
  endfacet
  facet normal 0 0 1
    outer loop
      vertex 14 14 1.5
      vertex -1.32489 12.8506 1.5
      vertex -1.27724 12.7816 1.5
    endloop
  endfacet
  facet normal 0 0 1
    outer loop
      vertex 14 14 1.5
      vertex -1.38065 12.9125 1.5
      vertex -1.32489 12.8506 1.5
    endloop
  endfacet
  facet normal 0 0 1
    outer loop
      vertex 14 14 1.5
      vertex -1.44395 12.9666 1.5
      vertex -1.38065 12.9125 1.5
    endloop
  endfacet
  facet normal 0 0 1
    outer loop
      vertex 14 14 1.5
      vertex -1.51428 13.0126 1.5
      vertex -1.44395 12.9666 1.5
    endloop
  endfacet
  facet normal 0 0 1
    outer loop
      vertex 14 14 1.5
      vertex -1.59108 13.0498 1.5
      vertex -1.51428 13.0126 1.5
    endloop
  endfacet
  facet normal 0 0 1
    outer loop
      vertex 14 14 1.5
      vertex -1.67378 13.0777 1.5
      vertex -1.59108 13.0498 1.5
    endloop
  endfacet
  facet normal 0 0 1
    outer loop
      vertex 14 14 1.5
      vertex -1.76184 13.0957 1.5
      vertex -1.67378 13.0777 1.5
    endloop
  endfacet
  facet normal 0 0 1
    outer loop
      vertex 14 14 1.5
      vertex -1.85474 13.1033 1.5
      vertex -1.76184 13.0957 1.5
    endloop
  endfacet
  facet normal -0 0 1
    outer loop
      vertex -14 14 1.5
      vertex -1.85474 13.1033 1.5
      vertex 14 14 1.5
    endloop
  endfacet
  facet normal 0 0 1
    outer loop
      vertex -5.02003 12.5195 1.5
      vertex -14 14 1.5
      vertex -5.02762 12.4266 1.5
    endloop
  endfacet
  facet normal 0 0 1
    outer loop
      vertex -5.00214 12.6076 1.5
      vertex -14 14 1.5
      vertex -5.02003 12.5195 1.5
    endloop
  endfacet
  facet normal 0 0 1
    outer loop
      vertex -4.97459 12.6903 1.5
      vertex -14 14 1.5
      vertex -5.00214 12.6076 1.5
    endloop
  endfacet
  facet normal 0 0 1
    outer loop
      vertex -4.93806 12.767 1.5
      vertex -14 14 1.5
      vertex -4.97459 12.6903 1.5
    endloop
  endfacet
  facet normal 0 0 1
    outer loop
      vertex -4.89322 12.8374 1.5
      vertex -14 14 1.5
      vertex -4.93806 12.767 1.5
    endloop
  endfacet
  facet normal 0 0 1
    outer loop
      vertex -4.84073 12.9007 1.5
      vertex -14 14 1.5
      vertex -4.89322 12.8374 1.5
    endloop
  endfacet
  facet normal 0 0 1
    outer loop
      vertex -4.78127 12.9565 1.5
      vertex -14 14 1.5
      vertex -4.84073 12.9007 1.5
    endloop
  endfacet
  facet normal 0 0 1
    outer loop
      vertex -4.71547 13.0041 1.5
      vertex -14 14 1.5
      vertex -4.78127 12.9565 1.5
    endloop
  endfacet
  facet normal 0 0 1
    outer loop
      vertex -4.64404 13.0431 1.5
      vertex -14 14 1.5
      vertex -4.71547 13.0041 1.5
    endloop
  endfacet
  facet normal 0 0 1
    outer loop
      vertex -4.56761 13.0729 1.5
      vertex -14 14 1.5
      vertex -4.64404 13.0431 1.5
    endloop
  endfacet
  facet normal 0 0 1
    outer loop
      vertex -4.48686 13.0929 1.5
      vertex -14 14 1.5
      vertex -4.56761 13.0729 1.5
    endloop
  endfacet
  facet normal 0 0 1
    outer loop
      vertex -4.40247 13.1026 1.5
      vertex -14 14 1.5
      vertex -4.48686 13.0929 1.5
    endloop
  endfacet
  facet normal 0 0 1
    outer loop
      vertex -1.85474 13.1033 1.5
      vertex -14 14 1.5
      vertex -4.40247 13.1026 1.5
    endloop
  endfacet
  facet normal -0 0 1
    outer loop
      vertex 5.30342 -11.9785 1.5
      vertex 14 -14 1.5
      vertex 5.31189 -11.8856 1.5
    endloop
  endfacet
  facet normal -0 0 1
    outer loop
      vertex 5.28352 -12.0666 1.5
      vertex 14 -14 1.5
      vertex 5.30342 -11.9785 1.5
    endloop
  endfacet
  facet normal -0 0 1
    outer loop
      vertex 5.25311 -12.1493 1.5
      vertex 14 -14 1.5
      vertex 5.28352 -12.0666 1.5
    endloop
  endfacet
  facet normal -0 0 1
    outer loop
      vertex 5.21303 -12.226 1.5
      vertex 14 -14 1.5
      vertex 5.25311 -12.1493 1.5
    endloop
  endfacet
  facet normal -0 0 1
    outer loop
      vertex 5.1642 -12.2964 1.5
      vertex 14 -14 1.5
      vertex 5.21303 -12.226 1.5
    endloop
  endfacet
  facet normal -0 0 1
    outer loop
      vertex 5.10747 -12.3597 1.5
      vertex 14 -14 1.5
      vertex 5.1642 -12.2964 1.5
    endloop
  endfacet
  facet normal -0 0 1
    outer loop
      vertex 5.04373 -12.4155 1.5
      vertex 14 -14 1.5
      vertex 5.10747 -12.3597 1.5
    endloop
  endfacet
  facet normal -0 0 1
    outer loop
      vertex 4.97388 -12.4631 1.5
      vertex 14 -14 1.5
      vertex 5.04373 -12.4155 1.5
    endloop
  endfacet
  facet normal -0 0 1
    outer loop
      vertex 4.89879 -12.5021 1.5
      vertex 14 -14 1.5
      vertex 4.97388 -12.4631 1.5
    endloop
  endfacet
  facet normal -0 0 1
    outer loop
      vertex 4.81934 -12.5319 1.5
      vertex 14 -14 1.5
      vertex 4.89879 -12.5021 1.5
    endloop
  endfacet
  facet normal -0 0 1
    outer loop
      vertex 4.7364 -12.5519 1.5
      vertex 14 -14 1.5
      vertex 4.81934 -12.5319 1.5
    endloop
  endfacet
  facet normal -0 0 1
    outer loop
      vertex 4.65088 -12.5616 1.5
      vertex 14 -14 1.5
      vertex 4.7364 -12.5519 1.5
    endloop
  endfacet
  facet normal -0 0 1
    outer loop
      vertex -4.40247 -12.5616 1.5
      vertex 14 -14 1.5
      vertex 4.65088 -12.5616 1.5
    endloop
  endfacet
  facet normal 0 0 1
    outer loop
      vertex -14 14 1.5
      vertex -5.02696 -11.9045 1.5
      vertex -5.02762 12.4266 1.5
    endloop
  endfacet
  facet normal 0 0 1
    outer loop
      vertex -14 -14 1.5
      vertex -5.02696 -11.9045 1.5
      vertex -14 14 1.5
    endloop
  endfacet
  facet normal 0 0 1
    outer loop
      vertex -5.02696 -11.9045 1.5
      vertex -14 -14 1.5
      vertex -5.01726 -11.9965 1.5
    endloop
  endfacet
  facet normal 0 0 1
    outer loop
      vertex -4.40247 -12.5616 1.5
      vertex -14 -14 1.5
      vertex 14 -14 1.5
    endloop
  endfacet
  facet normal 0 0 1
    outer loop
      vertex -4.47026 -12.5547 1.5
      vertex -14 -14 1.5
      vertex -4.40247 -12.5616 1.5
    endloop
  endfacet
  facet normal 0 0 1
    outer loop
      vertex -4.55179 -12.5367 1.5
      vertex -14 -14 1.5
      vertex -4.47026 -12.5547 1.5
    endloop
  endfacet
  facet normal 0 0 1
    outer loop
      vertex -4.62914 -12.5088 1.5
      vertex -14 -14 1.5
      vertex -4.55179 -12.5367 1.5
    endloop
  endfacet
  facet normal 0 0 1
    outer loop
      vertex -4.70161 -12.4716 1.5
      vertex -14 -14 1.5
      vertex -4.62914 -12.5088 1.5
    endloop
  endfacet
  facet normal 0 0 1
    outer loop
      vertex -4.76859 -12.4256 1.5
      vertex -14 -14 1.5
      vertex -4.70161 -12.4716 1.5
    endloop
  endfacet
  facet normal 0 0 1
    outer loop
      vertex -4.82938 -12.3715 1.5
      vertex -14 -14 1.5
      vertex -4.76859 -12.4256 1.5
    endloop
  endfacet
  facet normal 0 0 1
    outer loop
      vertex -4.88332 -12.3096 1.5
      vertex -14 -14 1.5
      vertex -4.82938 -12.3715 1.5
    endloop
  endfacet
  facet normal 0 0 1
    outer loop
      vertex -4.92973 -12.2406 1.5
      vertex -14 -14 1.5
      vertex -4.88332 -12.3096 1.5
    endloop
  endfacet
  facet normal 0 0 1
    outer loop
      vertex -4.96799 -12.1651 1.5
      vertex -14 -14 1.5
      vertex -4.92973 -12.2406 1.5
    endloop
  endfacet
  facet normal 0 0 1
    outer loop
      vertex -4.99738 -12.0835 1.5
      vertex -14 -14 1.5
      vertex -4.96799 -12.1651 1.5
    endloop
  endfacet
  facet normal 0 0 1
    outer loop
      vertex -5.01726 -11.9965 1.5
      vertex -14 -14 1.5
      vertex -4.99738 -12.0835 1.5
    endloop
  endfacet
  facet normal 1 -0 0
    outer loop
      vertex 14 -14 1.5
      vertex 14 14 0.5
      vertex 14 14 1.5
    endloop
  endfacet
  facet normal 1 0 0
    outer loop
      vertex 14 14 0.5
      vertex 14 -14 1.5
      vertex 14 -14 0.5
    endloop
  endfacet
  facet normal 0 1 -0
    outer loop
      vertex 14 14 0.5
      vertex -14 14 1.5
      vertex 14 14 1.5
    endloop
  endfacet
  facet normal 0 1 0
    outer loop
      vertex -14 14 1.5
      vertex 14 14 0.5
      vertex -14 14 0.5
    endloop
  endfacet
  facet normal 0 0 -1
    outer loop
      vertex -14 -14 0.5
      vertex 14 14 0.5
      vertex 14 -14 0.5
    endloop
  endfacet
  facet normal -0 0 -1
    outer loop
      vertex 14 14 0.5
      vertex -14 -14 0.5
      vertex -14 14 0.5
    endloop
  endfacet
  facet normal 0 -1 0
    outer loop
      vertex -14 -14 0.5
      vertex 14 -14 1.5
      vertex -14 -14 1.5
    endloop
  endfacet
  facet normal 0 -1 -0
    outer loop
      vertex 14 -14 1.5
      vertex -14 -14 0.5
      vertex 14 -14 0.5
    endloop
  endfacet
  facet normal 0 0 1
    outer loop
      vertex 4.61615 -8.71249 3
      vertex 5.31189 -11.8856 3
      vertex 5.31116 -9.33786 3
    endloop
  endfacet
  facet normal 0 0 1
    outer loop
      vertex 5.15346 -8.95908 3
      vertex 5.31116 -9.33786 3
      vertex 5.30032 -9.25346 3
    endloop
  endfacet
  facet normal 0 -0 1
    outer loop
      vertex 4.65088 -12.5616 3
      vertex 5.31189 -11.8856 3
      vertex 4.61615 -8.71249 3
    endloop
  endfacet
  facet normal 0 0 1
    outer loop
      vertex 5.15346 -8.95908 3
      vertex 5.30032 -9.25346 3
      vertex 5.27826 -9.17271 3
    endloop
  endfacet
  facet normal 0 0 1
    outer loop
      vertex 5.31189 -11.8856 3
      vertex 4.65088 -12.5616 3
      vertex 5.30342 -11.9785 3
    endloop
  endfacet
  facet normal 0 0 1
    outer loop
      vertex 5.20393 -9.02486 3
      vertex 5.27826 -9.17271 3
      vertex 5.24583 -9.0963 3
    endloop
  endfacet
  facet normal 0 0 1
    outer loop
      vertex 5.30342 -11.9785 3
      vertex 4.65088 -12.5616 3
      vertex 5.28352 -12.0666 3
    endloop
  endfacet
  facet normal 0 0 1
    outer loop
      vertex 5.15346 -8.95908 3
      vertex 5.27826 -9.17271 3
      vertex 5.20393 -9.02486 3
    endloop
  endfacet
  facet normal 0 0 1
    outer loop
      vertex 5.28352 -12.0666 3
      vertex 4.65088 -12.5616 3
      vertex 5.25311 -12.1493 3
    endloop
  endfacet
  facet normal 0 0 1
    outer loop
      vertex 5.31116 -9.33786 3
      vertex 5.15346 -8.95908 3
      vertex 5.08276 -8.88852 3
    endloop
  endfacet
  facet normal 0 0 1
    outer loop
      vertex 5.25311 -12.1493 3
      vertex 4.65088 -12.5616 3
      vertex 5.21303 -12.226 3
    endloop
  endfacet
  facet normal 0 0 1
    outer loop
      vertex 5.31116 -9.33786 3
      vertex 5.08276 -8.88852 3
      vertex 5.0025 -8.82822 3
    endloop
  endfacet
  facet normal 0 0 1
    outer loop
      vertex 5.21303 -12.226 3
      vertex 4.65088 -12.5616 3
      vertex 5.1642 -12.2964 3
    endloop
  endfacet
  facet normal 0 0 1
    outer loop
      vertex 5.31116 -9.33786 3
      vertex 5.0025 -8.82822 3
      vertex 4.61615 -8.71249 3
    endloop
  endfacet
  facet normal 0 0 1
    outer loop
      vertex 5.1642 -12.2964 3
      vertex 4.65088 -12.5616 3
      vertex 5.10747 -12.3597 3
    endloop
  endfacet
  facet normal 0 0 1
    outer loop
      vertex 4.61615 -8.71249 3
      vertex 5.0025 -8.82822 3
      vertex 4.91418 -8.77931 3
    endloop
  endfacet
  facet normal 0 0 1
    outer loop
      vertex 5.10747 -12.3597 3
      vertex 4.65088 -12.5616 3
      vertex 5.04373 -12.4155 3
    endloop
  endfacet
  facet normal 0 0 1
    outer loop
      vertex 4.61615 -8.71249 3
      vertex 4.91418 -8.77931 3
      vertex 4.83554 -8.74809 3
    endloop
  endfacet
  facet normal 0 0 1
    outer loop
      vertex 5.04373 -12.4155 3
      vertex 4.65088 -12.5616 3
      vertex 4.97388 -12.4631 3
    endloop
  endfacet
  facet normal 0 0 1
    outer loop
      vertex 4.61615 -8.71249 3
      vertex 4.83554 -8.74809 3
      vertex 4.75323 -8.72626 3
    endloop
  endfacet
  facet normal 0 0 1
    outer loop
      vertex 4.97388 -12.4631 3
      vertex 4.65088 -12.5616 3
      vertex 4.89879 -12.5021 3
    endloop
  endfacet
  facet normal 0 0 1
    outer loop
      vertex 4.61615 -8.71249 3
      vertex 4.75323 -8.72626 3
      vertex 4.66815 -8.71446 3
    endloop
  endfacet
  facet normal 0 0 1
    outer loop
      vertex 4.89879 -12.5021 3
      vertex 4.65088 -12.5616 3
      vertex 4.81934 -12.5319 3
    endloop
  endfacet
  facet normal 0 0 1
    outer loop
      vertex 4.81934 -12.5319 3
      vertex 4.65088 -12.5616 3
      vertex 4.7364 -12.5519 3
    endloop
  endfacet
  facet normal -0 0 1
    outer loop
      vertex -1.17784 -8.71249 3
      vertex 4.65088 -12.5616 3
      vertex 4.61615 -8.71249 3
    endloop
  endfacet
  facet normal 0 0 1
    outer loop
      vertex -1.85474 13.1033 3
      vertex -1.17873 12.4455 3
      vertex -1.18845 12.5375 3
    endloop
  endfacet
  facet normal 0 0 1
    outer loop
      vertex -1.85474 13.1033 3
      vertex -1.18845 12.5375 3
      vertex -1.20847 12.6245 3
    endloop
  endfacet
  facet normal 0 0 1
    outer loop
      vertex -1.85474 13.1033 3
      vertex -1.20847 12.6245 3
      vertex -1.23825 12.7061 3
    endloop
  endfacet
  facet normal 0 0 1
    outer loop
      vertex -1.85474 13.1033 3
      vertex -1.23825 12.7061 3
      vertex -1.27724 12.7816 3
    endloop
  endfacet
  facet normal 0 0 1
    outer loop
      vertex -1.85474 13.1033 3
      vertex -1.27724 12.7816 3
      vertex -1.32489 12.8506 3
    endloop
  endfacet
  facet normal 0 0 1
    outer loop
      vertex -1.85474 13.1033 3
      vertex -1.32489 12.8506 3
      vertex -1.38065 12.9125 3
    endloop
  endfacet
  facet normal 0 0 1
    outer loop
      vertex -1.85474 13.1033 3
      vertex -1.38065 12.9125 3
      vertex -1.44395 12.9666 3
    endloop
  endfacet
  facet normal 0 0 1
    outer loop
      vertex -1.85474 13.1033 3
      vertex -1.44395 12.9666 3
      vertex -1.51428 13.0126 3
    endloop
  endfacet
  facet normal 0 0 1
    outer loop
      vertex -1.85474 13.1033 3
      vertex -1.51428 13.0126 3
      vertex -1.59108 13.0498 3
    endloop
  endfacet
  facet normal 0 0 1
    outer loop
      vertex -1.85474 13.1033 3
      vertex -1.59108 13.0498 3
      vertex -1.67378 13.0777 3
    endloop
  endfacet
  facet normal 0 0 1
    outer loop
      vertex -1.85474 13.1033 3
      vertex -1.67378 13.0777 3
      vertex -1.76184 13.0957 3
    endloop
  endfacet
  facet normal 0 0 1
    outer loop
      vertex -1.17873 12.4455 3
      vertex -1.85474 13.1033 3
      vertex -5.02762 12.4266 3
    endloop
  endfacet
  facet normal 0 0 1
    outer loop
      vertex -5.02762 12.4266 3
      vertex -1.85474 13.1033 3
      vertex -4.40247 13.1026 3
    endloop
  endfacet
  facet normal 0 0 1
    outer loop
      vertex -1.17784 -8.71249 3
      vertex -4.40247 -12.5616 3
      vertex 4.65088 -12.5616 3
    endloop
  endfacet
  facet normal 0 0 1
    outer loop
      vertex -1.17873 12.4455 3
      vertex -5.02762 12.4266 3
      vertex -1.17784 -8.71249 3
    endloop
  endfacet
  facet normal 0 -0 1
    outer loop
      vertex -5.02696 -11.9045 3
      vertex -1.17784 -8.71249 3
      vertex -5.02762 12.4266 3
    endloop
  endfacet
  facet normal 0 0 1
    outer loop
      vertex -5.02762 12.4266 3
      vertex -4.40247 13.1026 3
      vertex -4.48686 13.0929 3
    endloop
  endfacet
  facet normal 0 0 1
    outer loop
      vertex -1.17784 -8.71249 3
      vertex -5.02696 -11.9045 3
      vertex -4.40247 -12.5616 3
    endloop
  endfacet
  facet normal 0 0 1
    outer loop
      vertex -5.02762 12.4266 3
      vertex -4.48686 13.0929 3
      vertex -4.56761 13.0729 3
    endloop
  endfacet
  facet normal 0 0 1
    outer loop
      vertex -4.40247 -12.5616 3
      vertex -5.02696 -11.9045 3
      vertex -4.47026 -12.5547 3
    endloop
  endfacet
  facet normal 0 0 1
    outer loop
      vertex -5.02762 12.4266 3
      vertex -4.56761 13.0729 3
      vertex -4.64404 13.0431 3
    endloop
  endfacet
  facet normal 0 0 1
    outer loop
      vertex -4.47026 -12.5547 3
      vertex -5.02696 -11.9045 3
      vertex -4.55179 -12.5367 3
    endloop
  endfacet
  facet normal 0 0 1
    outer loop
      vertex -5.02762 12.4266 3
      vertex -4.64404 13.0431 3
      vertex -4.71547 13.0041 3
    endloop
  endfacet
  facet normal 0 0 1
    outer loop
      vertex -4.55179 -12.5367 3
      vertex -5.02696 -11.9045 3
      vertex -4.62914 -12.5088 3
    endloop
  endfacet
  facet normal 0 0 1
    outer loop
      vertex -5.02762 12.4266 3
      vertex -4.71547 13.0041 3
      vertex -4.78127 12.9565 3
    endloop
  endfacet
  facet normal 0 0 1
    outer loop
      vertex -4.62914 -12.5088 3
      vertex -5.02696 -11.9045 3
      vertex -4.70161 -12.4716 3
    endloop
  endfacet
  facet normal 0 0 1
    outer loop
      vertex -5.02762 12.4266 3
      vertex -4.78127 12.9565 3
      vertex -4.84073 12.9007 3
    endloop
  endfacet
  facet normal 0 0 1
    outer loop
      vertex -4.70161 -12.4716 3
      vertex -5.02696 -11.9045 3
      vertex -4.76859 -12.4256 3
    endloop
  endfacet
  facet normal 0 0 1
    outer loop
      vertex -5.02762 12.4266 3
      vertex -4.84073 12.9007 3
      vertex -4.89322 12.8374 3
    endloop
  endfacet
  facet normal 0 0 1
    outer loop
      vertex -4.76859 -12.4256 3
      vertex -5.02696 -11.9045 3
      vertex -4.82938 -12.3715 3
    endloop
  endfacet
  facet normal 0 0 1
    outer loop
      vertex -5.02762 12.4266 3
      vertex -4.89322 12.8374 3
      vertex -4.93806 12.767 3
    endloop
  endfacet
  facet normal 0 0 1
    outer loop
      vertex -4.82938 -12.3715 3
      vertex -5.02696 -11.9045 3
      vertex -4.88332 -12.3096 3
    endloop
  endfacet
  facet normal 0 0 1
    outer loop
      vertex -5.02762 12.4266 3
      vertex -4.93806 12.767 3
      vertex -4.97459 12.6903 3
    endloop
  endfacet
  facet normal 0 0 1
    outer loop
      vertex -4.88332 -12.3096 3
      vertex -5.02696 -11.9045 3
      vertex -4.92973 -12.2406 3
    endloop
  endfacet
  facet normal 0 0 1
    outer loop
      vertex -5.02762 12.4266 3
      vertex -4.97459 12.6903 3
      vertex -5.00214 12.6076 3
    endloop
  endfacet
  facet normal 0 0 1
    outer loop
      vertex -4.92973 -12.2406 3
      vertex -5.02696 -11.9045 3
      vertex -4.96799 -12.1651 3
    endloop
  endfacet
  facet normal 0 0 1
    outer loop
      vertex -5.02762 12.4266 3
      vertex -5.00214 12.6076 3
      vertex -5.02003 12.5195 3
    endloop
  endfacet
  facet normal 0 0 1
    outer loop
      vertex -4.96799 -12.1651 3
      vertex -5.02696 -11.9045 3
      vertex -4.99738 -12.0835 3
    endloop
  endfacet
  facet normal 0 0 1
    outer loop
      vertex -4.99738 -12.0835 3
      vertex -5.02696 -11.9045 3
      vertex -5.01726 -11.9965 3
    endloop
  endfacet
  facet normal 0 -1 0
    outer loop
      vertex -4.40247 -12.5616 1.5
      vertex 4.65088 -12.5616 3
      vertex -4.40247 -12.5616 3
    endloop
  endfacet
  facet normal 0 -1 -0
    outer loop
      vertex 4.65088 -12.5616 3
      vertex -4.40247 -12.5616 1.5
      vertex 4.65088 -12.5616 1.5
    endloop
  endfacet
  facet normal 0.112922 -0.993604 0
    outer loop
      vertex 4.65088 -12.5616 1.5
      vertex 4.7364 -12.5519 3
      vertex 4.65088 -12.5616 3
    endloop
  endfacet
  facet normal 0.112922 -0.993604 0
    outer loop
      vertex 4.7364 -12.5519 3
      vertex 4.65088 -12.5616 1.5
      vertex 4.7364 -12.5519 1.5
    endloop
  endfacet
  facet normal 0.234827 -0.972037 0
    outer loop
      vertex 4.7364 -12.5519 1.5
      vertex 4.81934 -12.5319 3
      vertex 4.7364 -12.5519 3
    endloop
  endfacet
  facet normal 0.234827 -0.972037 0
    outer loop
      vertex 4.81934 -12.5319 3
      vertex 4.7364 -12.5519 1.5
      vertex 4.81934 -12.5319 1.5
    endloop
  endfacet
  facet normal 0.350867 -0.936425 0
    outer loop
      vertex 4.81934 -12.5319 1.5
      vertex 4.89879 -12.5021 3
      vertex 4.81934 -12.5319 3
    endloop
  endfacet
  facet normal 0.350867 -0.936425 0
    outer loop
      vertex 4.89879 -12.5021 3
      vertex 4.81934 -12.5319 1.5
      vertex 4.89879 -12.5021 1.5
    endloop
  endfacet
  facet normal 0.460938 -0.887432 0
    outer loop
      vertex 4.89879 -12.5021 1.5
      vertex 4.97388 -12.4631 3
      vertex 4.89879 -12.5021 3
    endloop
  endfacet
  facet normal 0.460938 -0.887432 0
    outer loop
      vertex 4.97388 -12.4631 3
      vertex 4.89879 -12.5021 1.5
      vertex 4.97388 -12.4631 1.5
    endloop
  endfacet
  facet normal 0.563415 -0.826174 0
    outer loop
      vertex 4.97388 -12.4631 1.5
      vertex 5.04373 -12.4155 3
      vertex 4.97388 -12.4631 3
    endloop
  endfacet
  facet normal 0.563415 -0.826174 0
    outer loop
      vertex 5.04373 -12.4155 3
      vertex 4.97388 -12.4631 1.5
      vertex 5.04373 -12.4155 1.5
    endloop
  endfacet
  facet normal 0.658415 -0.752655 0
    outer loop
      vertex 5.04373 -12.4155 1.5
      vertex 5.10747 -12.3597 3
      vertex 5.04373 -12.4155 3
    endloop
  endfacet
  facet normal 0.658415 -0.752655 0
    outer loop
      vertex 5.10747 -12.3597 3
      vertex 5.04373 -12.4155 1.5
      vertex 5.10747 -12.3597 1.5
    endloop
  endfacet
  facet normal 0.744809 -0.667277 0
    outer loop
      vertex 5.10747 -12.3597 3
      vertex 5.1642 -12.2964 1.5
      vertex 5.1642 -12.2964 3
    endloop
  endfacet
  facet normal 0.744809 -0.667277 0
    outer loop
      vertex 5.1642 -12.2964 1.5
      vertex 5.10747 -12.3597 3
      vertex 5.10747 -12.3597 1.5
    endloop
  endfacet
  facet normal 0.821428 -0.570312 0
    outer loop
      vertex 5.1642 -12.2964 3
      vertex 5.21303 -12.226 1.5
      vertex 5.21303 -12.226 3
    endloop
  endfacet
  facet normal 0.821428 -0.570312 0
    outer loop
      vertex 5.21303 -12.226 1.5
      vertex 5.1642 -12.2964 3
      vertex 5.1642 -12.2964 1.5
    endloop
  endfacet
  facet normal 0.886469 -0.462789 0
    outer loop
      vertex 5.21303 -12.226 3
      vertex 5.25311 -12.1493 1.5
      vertex 5.25311 -12.1493 3
    endloop
  endfacet
  facet normal 0.886469 -0.462789 0
    outer loop
      vertex 5.25311 -12.1493 1.5
      vertex 5.21303 -12.226 3
      vertex 5.21303 -12.226 1.5
    endloop
  endfacet
  facet normal 0.938559 -0.345119 0
    outer loop
      vertex 5.25311 -12.1493 3
      vertex 5.28352 -12.0666 1.5
      vertex 5.28352 -12.0666 3
    endloop
  endfacet
  facet normal 0.938559 -0.345119 0
    outer loop
      vertex 5.28352 -12.0666 1.5
      vertex 5.25311 -12.1493 3
      vertex 5.25311 -12.1493 1.5
    endloop
  endfacet
  facet normal 0.975418 -0.220365 0
    outer loop
      vertex 5.28352 -12.0666 3
      vertex 5.30342 -11.9785 1.5
      vertex 5.30342 -11.9785 3
    endloop
  endfacet
  facet normal 0.975418 -0.220365 0
    outer loop
      vertex 5.30342 -11.9785 1.5
      vertex 5.28352 -12.0666 3
      vertex 5.28352 -12.0666 1.5
    endloop
  endfacet
  facet normal 0.995869 -0.0908013 0
    outer loop
      vertex 5.30342 -11.9785 3
      vertex 5.31189 -11.8856 1.5
      vertex 5.31189 -11.8856 3
    endloop
  endfacet
  facet normal 0.995869 -0.0908013 0
    outer loop
      vertex 5.31189 -11.8856 1.5
      vertex 5.30342 -11.9785 3
      vertex 5.30342 -11.9785 1.5
    endloop
  endfacet
  facet normal 1 0.000287479 0
    outer loop
      vertex 5.31189 -11.8856 3
      vertex 5.31116 -9.33786 1.5
      vertex 5.31116 -9.33786 3
    endloop
  endfacet
  facet normal 1 0.000287479 0
    outer loop
      vertex 5.31116 -9.33786 1.5
      vertex 5.31189 -11.8856 3
      vertex 5.31189 -11.8856 1.5
    endloop
  endfacet
  facet normal 0.991861 0.127323 0
    outer loop
      vertex 5.31116 -9.33786 3
      vertex 5.30032 -9.25346 1.5
      vertex 5.30032 -9.25346 3
    endloop
  endfacet
  facet normal 0.991861 0.127323 0
    outer loop
      vertex 5.30032 -9.25346 1.5
      vertex 5.31116 -9.33786 3
      vertex 5.31116 -9.33786 1.5
    endloop
  endfacet
  facet normal 0.964638 0.26358 0
    outer loop
      vertex 5.30032 -9.25346 3
      vertex 5.27826 -9.17271 1.5
      vertex 5.27826 -9.17271 3
    endloop
  endfacet
  facet normal 0.964638 0.26358 0
    outer loop
      vertex 5.27826 -9.17271 1.5
      vertex 5.30032 -9.25346 3
      vertex 5.30032 -9.25346 1.5
    endloop
  endfacet
  facet normal 0.920556 0.390611 0
    outer loop
      vertex 5.27826 -9.17271 3
      vertex 5.24583 -9.0963 1.5
      vertex 5.24583 -9.0963 3
    endloop
  endfacet
  facet normal 0.920556 0.390611 0
    outer loop
      vertex 5.24583 -9.0963 1.5
      vertex 5.27826 -9.17271 3
      vertex 5.27826 -9.17271 1.5
    endloop
  endfacet
  facet normal 0.862587 0.505909 0
    outer loop
      vertex 5.24583 -9.0963 3
      vertex 5.20393 -9.02486 1.5
      vertex 5.20393 -9.02486 3
    endloop
  endfacet
  facet normal 0.862587 0.505909 0
    outer loop
      vertex 5.20393 -9.02486 1.5
      vertex 5.24583 -9.0963 3
      vertex 5.24583 -9.0963 1.5
    endloop
  endfacet
  facet normal 0.793349 0.608768 0
    outer loop
      vertex 5.20393 -9.02486 3
      vertex 5.15346 -8.95908 1.5
      vertex 5.15346 -8.95908 3
    endloop
  endfacet
  facet normal 0.793349 0.608768 0
    outer loop
      vertex 5.15346 -8.95908 1.5
      vertex 5.20393 -9.02486 3
      vertex 5.20393 -9.02486 1.5
    endloop
  endfacet
  facet normal 0.706419 0.707794 -0
    outer loop
      vertex 5.15346 -8.95908 1.5
      vertex 5.08276 -8.88852 3
      vertex 5.15346 -8.95908 3
    endloop
  endfacet
  facet normal 0.706419 0.707794 0
    outer loop
      vertex 5.08276 -8.88852 3
      vertex 5.15346 -8.95908 1.5
      vertex 5.08276 -8.88852 1.5
    endloop
  endfacet
  facet normal 0.600681 0.799489 -0
    outer loop
      vertex 5.08276 -8.88852 1.5
      vertex 5.0025 -8.82822 3
      vertex 5.08276 -8.88852 3
    endloop
  endfacet
  facet normal 0.600681 0.799489 0
    outer loop
      vertex 5.0025 -8.82822 3
      vertex 5.08276 -8.88852 1.5
      vertex 5.0025 -8.82822 1.5
    endloop
  endfacet
  facet normal 0.484423 0.874834 -0
    outer loop
      vertex 5.0025 -8.82822 1.5
      vertex 4.91418 -8.77931 3
      vertex 5.0025 -8.82822 3
    endloop
  endfacet
  facet normal 0.484423 0.874834 0
    outer loop
      vertex 4.91418 -8.77931 3
      vertex 5.0025 -8.82822 1.5
      vertex 4.91418 -8.77931 1.5
    endloop
  endfacet
  facet normal 0.368964 0.929444 -0
    outer loop
      vertex 4.91418 -8.77931 1.5
      vertex 4.83554 -8.74809 3
      vertex 4.91418 -8.77931 3
    endloop
  endfacet
  facet normal 0.368964 0.929444 0
    outer loop
      vertex 4.83554 -8.74809 3
      vertex 4.91418 -8.77931 1.5
      vertex 4.83554 -8.74809 1.5
    endloop
  endfacet
  facet normal 0.256424 0.966564 -0
    outer loop
      vertex 4.83554 -8.74809 1.5
      vertex 4.75323 -8.72626 3
      vertex 4.83554 -8.74809 3
    endloop
  endfacet
  facet normal 0.256424 0.966564 0
    outer loop
      vertex 4.75323 -8.72626 3
      vertex 4.83554 -8.74809 1.5
      vertex 4.75323 -8.72626 1.5
    endloop
  endfacet
  facet normal 0.137317 0.990527 -0
    outer loop
      vertex 4.75323 -8.72626 1.5
      vertex 4.66815 -8.71446 3
      vertex 4.75323 -8.72626 3
    endloop
  endfacet
  facet normal 0.137317 0.990527 0
    outer loop
      vertex 4.66815 -8.71446 3
      vertex 4.75323 -8.72626 1.5
      vertex 4.66815 -8.71446 1.5
    endloop
  endfacet
  facet normal 0.037825 0.999284 -0
    outer loop
      vertex 4.66815 -8.71446 1.5
      vertex 4.61615 -8.71249 3
      vertex 4.66815 -8.71446 3
    endloop
  endfacet
  facet normal 0.037825 0.999284 0
    outer loop
      vertex 4.61615 -8.71249 3
      vertex 4.66815 -8.71446 1.5
      vertex 4.61615 -8.71249 1.5
    endloop
  endfacet
  facet normal 0 1 -0
    outer loop
      vertex 4.61615 -8.71249 1.5
      vertex -1.17784 -8.71249 3
      vertex 4.61615 -8.71249 3
    endloop
  endfacet
  facet normal 0 1 0
    outer loop
      vertex -1.17784 -8.71249 3
      vertex 4.61615 -8.71249 1.5
      vertex -1.17784 -8.71249 1.5
    endloop
  endfacet
  facet normal 1 4.18285e-05 0
    outer loop
      vertex -1.17784 -8.71249 3
      vertex -1.17873 12.4455 1.5
      vertex -1.17873 12.4455 3
    endloop
  endfacet
  facet normal 1 4.18285e-05 0
    outer loop
      vertex -1.17873 12.4455 1.5
      vertex -1.17784 -8.71249 3
      vertex -1.17784 -8.71249 1.5
    endloop
  endfacet
  facet normal 0.994461 0.105106 0
    outer loop
      vertex -1.17873 12.4455 3
      vertex -1.18845 12.5375 1.5
      vertex -1.18845 12.5375 3
    endloop
  endfacet
  facet normal 0.994461 0.105106 0
    outer loop
      vertex -1.18845 12.5375 1.5
      vertex -1.17873 12.4455 3
      vertex -1.17873 12.4455 1.5
    endloop
  endfacet
  facet normal 0.974552 0.224161 0
    outer loop
      vertex -1.18845 12.5375 3
      vertex -1.20847 12.6245 1.5
      vertex -1.20847 12.6245 3
    endloop
  endfacet
  facet normal 0.974552 0.224161 0
    outer loop
      vertex -1.20847 12.6245 1.5
      vertex -1.18845 12.5375 3
      vertex -1.18845 12.5375 1.5
    endloop
  endfacet
  facet normal 0.93932 0.343041 0
    outer loop
      vertex -1.20847 12.6245 3
      vertex -1.23825 12.7061 1.5
      vertex -1.23825 12.7061 3
    endloop
  endfacet
  facet normal 0.93932 0.343041 0
    outer loop
      vertex -1.23825 12.7061 1.5
      vertex -1.20847 12.6245 3
      vertex -1.20847 12.6245 1.5
    endloop
  endfacet
  facet normal 0.888647 0.458593 0
    outer loop
      vertex -1.23825 12.7061 3
      vertex -1.27724 12.7816 1.5
      vertex -1.27724 12.7816 3
    endloop
  endfacet
  facet normal 0.888647 0.458593 0
    outer loop
      vertex -1.27724 12.7816 1.5
      vertex -1.23825 12.7061 3
      vertex -1.23825 12.7061 1.5
    endloop
  endfacet
  facet normal 0.822723 0.568443 0
    outer loop
      vertex -1.27724 12.7816 3
      vertex -1.32489 12.8506 1.5
      vertex -1.32489 12.8506 3
    endloop
  endfacet
  facet normal 0.822723 0.568443 0
    outer loop
      vertex -1.32489 12.8506 1.5
      vertex -1.27724 12.7816 3
      vertex -1.27724 12.7816 1.5
    endloop
  endfacet
  facet normal 0.74272 0.669602 0
    outer loop
      vertex -1.32489 12.8506 3
      vertex -1.38065 12.9125 1.5
      vertex -1.38065 12.9125 3
    endloop
  endfacet
  facet normal 0.74272 0.669602 0
    outer loop
      vertex -1.38065 12.9125 1.5
      vertex -1.32489 12.8506 3
      vertex -1.32489 12.8506 1.5
    endloop
  endfacet
  facet normal 0.650233 0.759735 -0
    outer loop
      vertex -1.38065 12.9125 1.5
      vertex -1.44395 12.9666 3
      vertex -1.38065 12.9125 3
    endloop
  endfacet
  facet normal 0.650233 0.759735 0
    outer loop
      vertex -1.44395 12.9666 3
      vertex -1.38065 12.9125 1.5
      vertex -1.44395 12.9666 1.5
    endloop
  endfacet
  facet normal 0.547049 0.837101 -0
    outer loop
      vertex -1.44395 12.9666 1.5
      vertex -1.51428 13.0126 3
      vertex -1.44395 12.9666 3
    endloop
  endfacet
  facet normal 0.547049 0.837101 0
    outer loop
      vertex -1.51428 13.0126 3
      vertex -1.44395 12.9666 1.5
      vertex -1.51428 13.0126 1.5
    endloop
  endfacet
  facet normal 0.435804 0.900042 -0
    outer loop
      vertex -1.51428 13.0126 1.5
      vertex -1.59108 13.0498 3
      vertex -1.51428 13.0126 3
    endloop
  endfacet
  facet normal 0.435804 0.900042 0
    outer loop
      vertex -1.59108 13.0498 3
      vertex -1.51428 13.0126 1.5
      vertex -1.59108 13.0498 1.5
    endloop
  endfacet
  facet normal 0.319425 0.947611 -0
    outer loop
      vertex -1.59108 13.0498 1.5
      vertex -1.67378 13.0777 3
      vertex -1.59108 13.0498 3
    endloop
  endfacet
  facet normal 0.319425 0.947611 0
    outer loop
      vertex -1.67378 13.0777 3
      vertex -1.59108 13.0498 1.5
      vertex -1.67378 13.0777 1.5
    endloop
  endfacet
  facet normal 0.200326 0.979729 -0
    outer loop
      vertex -1.67378 13.0777 1.5
      vertex -1.76184 13.0957 3
      vertex -1.67378 13.0777 3
    endloop
  endfacet
  facet normal 0.200326 0.979729 0
    outer loop
      vertex -1.76184 13.0957 3
      vertex -1.67378 13.0777 1.5
      vertex -1.76184 13.0957 1.5
    endloop
  endfacet
  facet normal 0.081528 0.996671 -0
    outer loop
      vertex -1.76184 13.0957 1.5
      vertex -1.85474 13.1033 3
      vertex -1.76184 13.0957 3
    endloop
  endfacet
  facet normal 0.081528 0.996671 0
    outer loop
      vertex -1.85474 13.1033 3
      vertex -1.76184 13.0957 1.5
      vertex -1.85474 13.1033 1.5
    endloop
  endfacet
  facet normal -0.000257534 1 0
    outer loop
      vertex -1.85474 13.1033 1.5
      vertex -4.40247 13.1026 3
      vertex -1.85474 13.1033 3
    endloop
  endfacet
  facet normal -0.000257534 1 0
    outer loop
      vertex -4.40247 13.1026 3
      vertex -1.85474 13.1033 1.5
      vertex -4.40247 13.1026 1.5
    endloop
  endfacet
  facet normal -0.114413 0.993433 0
    outer loop
      vertex -4.40247 13.1026 1.5
      vertex -4.48686 13.0929 3
      vertex -4.40247 13.1026 3
    endloop
  endfacet
  facet normal -0.114413 0.993433 0
    outer loop
      vertex -4.48686 13.0929 3
      vertex -4.40247 13.1026 1.5
      vertex -4.48686 13.0929 1.5
    endloop
  endfacet
  facet normal -0.240809 0.970573 0
    outer loop
      vertex -4.48686 13.0929 1.5
      vertex -4.56761 13.0729 3
      vertex -4.48686 13.0929 3
    endloop
  endfacet
  facet normal -0.240809 0.970573 0
    outer loop
      vertex -4.56761 13.0729 3
      vertex -4.48686 13.0929 1.5
      vertex -4.56761 13.0729 1.5
    endloop
  endfacet
  facet normal -0.36294 0.931813 0
    outer loop
      vertex -4.56761 13.0729 1.5
      vertex -4.64404 13.0431 3
      vertex -4.56761 13.0729 3
    endloop
  endfacet
  facet normal -0.36294 0.931813 0
    outer loop
      vertex -4.64404 13.0431 3
      vertex -4.56761 13.0729 1.5
      vertex -4.64404 13.0431 1.5
    endloop
  endfacet
  facet normal -0.479246 0.877681 0
    outer loop
      vertex -4.64404 13.0431 1.5
      vertex -4.71547 13.0041 3
      vertex -4.64404 13.0431 3
    endloop
  endfacet
  facet normal -0.479246 0.877681 0
    outer loop
      vertex -4.71547 13.0041 3
      vertex -4.64404 13.0431 1.5
      vertex -4.71547 13.0041 1.5
    endloop
  endfacet
  facet normal -0.58645 0.809985 0
    outer loop
      vertex -4.71547 13.0041 1.5
      vertex -4.78127 12.9565 3
      vertex -4.71547 13.0041 3
    endloop
  endfacet
  facet normal -0.58645 0.809985 0
    outer loop
      vertex -4.78127 12.9565 3
      vertex -4.71547 13.0041 1.5
      vertex -4.78127 12.9565 1.5
    endloop
  endfacet
  facet normal -0.683997 0.729485 0
    outer loop
      vertex -4.78127 12.9565 1.5
      vertex -4.84073 12.9007 3
      vertex -4.78127 12.9565 3
    endloop
  endfacet
  facet normal -0.683997 0.729485 0
    outer loop
      vertex -4.84073 12.9007 3
      vertex -4.78127 12.9565 1.5
      vertex -4.84073 12.9007 1.5
    endloop
  endfacet
  facet normal -0.769891 0.638175 0
    outer loop
      vertex -4.89322 12.8374 1.5
      vertex -4.84073 12.9007 3
      vertex -4.84073 12.9007 1.5
    endloop
  endfacet
  facet normal -0.769891 0.638175 0
    outer loop
      vertex -4.84073 12.9007 3
      vertex -4.89322 12.8374 1.5
      vertex -4.89322 12.8374 3
    endloop
  endfacet
  facet normal -0.843164 0.537657 0
    outer loop
      vertex -4.93806 12.767 1.5
      vertex -4.89322 12.8374 3
      vertex -4.89322 12.8374 1.5
    endloop
  endfacet
  facet normal -0.843164 0.537657 0
    outer loop
      vertex -4.89322 12.8374 3
      vertex -4.93806 12.767 1.5
      vertex -4.93806 12.767 3
    endloop
  endfacet
  facet normal -0.903013 0.429613 0
    outer loop
      vertex -4.97459 12.6903 1.5
      vertex -4.93806 12.767 3
      vertex -4.93806 12.767 1.5
    endloop
  endfacet
  facet normal -0.903013 0.429613 0
    outer loop
      vertex -4.93806 12.767 3
      vertex -4.97459 12.6903 1.5
      vertex -4.97459 12.6903 3
    endloop
  endfacet
  facet normal -0.948771 0.315965 0
    outer loop
      vertex -5.00214 12.6076 1.5
      vertex -4.97459 12.6903 3
      vertex -4.97459 12.6903 1.5
    endloop
  endfacet
  facet normal -0.948771 0.315965 0
    outer loop
      vertex -4.97459 12.6903 3
      vertex -5.00214 12.6076 1.5
      vertex -5.00214 12.6076 3
    endloop
  endfacet
  facet normal -0.979969 0.199152 0
    outer loop
      vertex -5.02003 12.5195 1.5
      vertex -5.00214 12.6076 3
      vertex -5.00214 12.6076 1.5
    endloop
  endfacet
  facet normal -0.979969 0.199152 0
    outer loop
      vertex -5.00214 12.6076 3
      vertex -5.02003 12.5195 1.5
      vertex -5.02003 12.5195 3
    endloop
  endfacet
  facet normal -0.996683 0.0813786 0
    outer loop
      vertex -5.02762 12.4266 1.5
      vertex -5.02003 12.5195 3
      vertex -5.02003 12.5195 1.5
    endloop
  endfacet
  facet normal -0.996683 0.0813786 0
    outer loop
      vertex -5.02003 12.5195 3
      vertex -5.02762 12.4266 1.5
      vertex -5.02762 12.4266 3
    endloop
  endfacet
  facet normal -1 -2.69666e-05 0
    outer loop
      vertex -5.02696 -11.9045 1.5
      vertex -5.02762 12.4266 3
      vertex -5.02762 12.4266 1.5
    endloop
  endfacet
  facet normal -1 -2.69666e-05 0
    outer loop
      vertex -5.02762 12.4266 3
      vertex -5.02696 -11.9045 1.5
      vertex -5.02696 -11.9045 3
    endloop
  endfacet
  facet normal -0.994478 -0.104942 0
    outer loop
      vertex -5.01726 -11.9965 1.5
      vertex -5.02696 -11.9045 3
      vertex -5.02696 -11.9045 1.5
    endloop
  endfacet
  facet normal -0.994478 -0.104942 0
    outer loop
      vertex -5.02696 -11.9045 3
      vertex -5.01726 -11.9965 1.5
      vertex -5.01726 -11.9965 3
    endloop
  endfacet
  facet normal -0.974887 -0.222699 0
    outer loop
      vertex -4.99738 -12.0835 1.5
      vertex -5.01726 -11.9965 3
      vertex -5.01726 -11.9965 1.5
    endloop
  endfacet
  facet normal -0.974887 -0.222699 0
    outer loop
      vertex -5.01726 -11.9965 3
      vertex -4.99738 -12.0835 1.5
      vertex -4.99738 -12.0835 3
    endloop
  endfacet
  facet normal -0.940786 -0.339 0
    outer loop
      vertex -4.96799 -12.1651 1.5
      vertex -4.99738 -12.0835 3
      vertex -4.99738 -12.0835 1.5
    endloop
  endfacet
  facet normal -0.940786 -0.339 0
    outer loop
      vertex -4.99738 -12.0835 3
      vertex -4.96799 -12.1651 1.5
      vertex -4.96799 -12.1651 3
    endloop
  endfacet
  facet normal -0.892145 -0.451749 0
    outer loop
      vertex -4.92973 -12.2406 1.5
      vertex -4.96799 -12.1651 3
      vertex -4.96799 -12.1651 1.5
    endloop
  endfacet
  facet normal -0.892145 -0.451749 0
    outer loop
      vertex -4.96799 -12.1651 3
      vertex -4.92973 -12.2406 1.5
      vertex -4.92973 -12.2406 3
    endloop
  endfacet
  facet normal -0.829614 -0.558338 0
    outer loop
      vertex -4.88332 -12.3096 1.5
      vertex -4.92973 -12.2406 3
      vertex -4.92973 -12.2406 1.5
    endloop
  endfacet
  facet normal -0.829614 -0.558338 0
    outer loop
      vertex -4.92973 -12.2406 3
      vertex -4.88332 -12.3096 1.5
      vertex -4.88332 -12.3096 3
    endloop
  endfacet
  facet normal -0.753624 -0.657306 0
    outer loop
      vertex -4.82938 -12.3715 1.5
      vertex -4.88332 -12.3096 3
      vertex -4.88332 -12.3096 1.5
    endloop
  endfacet
  facet normal -0.753624 -0.657306 0
    outer loop
      vertex -4.88332 -12.3096 3
      vertex -4.82938 -12.3715 1.5
      vertex -4.82938 -12.3715 3
    endloop
  endfacet
  facet normal -0.665375 -0.746509 0
    outer loop
      vertex -4.82938 -12.3715 1.5
      vertex -4.76859 -12.4256 3
      vertex -4.82938 -12.3715 3
    endloop
  endfacet
  facet normal -0.665375 -0.746509 -0
    outer loop
      vertex -4.76859 -12.4256 3
      vertex -4.82938 -12.3715 1.5
      vertex -4.76859 -12.4256 1.5
    endloop
  endfacet
  facet normal -0.565835 -0.824519 0
    outer loop
      vertex -4.76859 -12.4256 1.5
      vertex -4.70161 -12.4716 3
      vertex -4.76859 -12.4256 3
    endloop
  endfacet
  facet normal -0.565835 -0.824519 -0
    outer loop
      vertex -4.70161 -12.4716 3
      vertex -4.76859 -12.4256 1.5
      vertex -4.70161 -12.4716 1.5
    endloop
  endfacet
  facet normal -0.45648 -0.889734 0
    outer loop
      vertex -4.70161 -12.4716 1.5
      vertex -4.62914 -12.5088 3
      vertex -4.70161 -12.4716 3
    endloop
  endfacet
  facet normal -0.45648 -0.889734 -0
    outer loop
      vertex -4.62914 -12.5088 3
      vertex -4.70161 -12.4716 1.5
      vertex -4.62914 -12.5088 1.5
    endloop
  endfacet
  facet normal -0.339074 -0.94076 0
    outer loop
      vertex -4.62914 -12.5088 1.5
      vertex -4.55179 -12.5367 3
      vertex -4.62914 -12.5088 3
    endloop
  endfacet
  facet normal -0.339074 -0.94076 -0
    outer loop
      vertex -4.55179 -12.5367 3
      vertex -4.62914 -12.5088 1.5
      vertex -4.55179 -12.5367 1.5
    endloop
  endfacet
  facet normal -0.215653 -0.97647 0
    outer loop
      vertex -4.55179 -12.5367 1.5
      vertex -4.47026 -12.5547 3
      vertex -4.55179 -12.5367 3
    endloop
  endfacet
  facet normal -0.215653 -0.97647 -0
    outer loop
      vertex -4.47026 -12.5547 3
      vertex -4.55179 -12.5367 1.5
      vertex -4.47026 -12.5547 1.5
    endloop
  endfacet
  facet normal -0.101875 -0.994797 0
    outer loop
      vertex -4.47026 -12.5547 1.5
      vertex -4.40247 -12.5616 3
      vertex -4.47026 -12.5547 3
    endloop
  endfacet
  facet normal -0.101875 -0.994797 -0
    outer loop
      vertex -4.40247 -12.5616 3
      vertex -4.47026 -12.5547 1.5
      vertex -4.40247 -12.5616 1.5
    endloop
  endfacet
endsolid OpenSCAD_Model
