solid OpenSCAD_Model
  facet normal -1 0 0
    outer loop
      vertex -14 -14 0.5
      vertex -14 14 1.5
      vertex -14 14 0.5
    endloop
  endfacet
  facet normal -1 -0 0
    outer loop
      vertex -14 14 1.5
      vertex -14 -14 0.5
      vertex -14 -14 1.5
    endloop
  endfacet
  facet normal -0 0 1
    outer loop
      vertex 6.97882 -5.7202 1.5
      vertex 14 -14 1.5
      vertex 14 14 1.5
    endloop
  endfacet
  facet normal 0 0 1
    outer loop
      vertex 14 -14 1.5
      vertex 7.0378 -5.98094 1.5
      vertex 7.03847 -8.4951 1.5
    endloop
  endfacet
  facet normal 0 0 1
    outer loop
      vertex 14 -14 1.5
      vertex 7.02811 -5.88895 1.5
      vertex 7.0378 -5.98094 1.5
    endloop
  endfacet
  facet normal 0 0 1
    outer loop
      vertex 14 -14 1.5
      vertex 7.00822 -5.80185 1.5
      vertex 7.02811 -5.88895 1.5
    endloop
  endfacet
  facet normal 0 0 1
    outer loop
      vertex 14 -14 1.5
      vertex 6.97882 -5.7202 1.5
      vertex 7.00822 -5.80185 1.5
    endloop
  endfacet
  facet normal 0 0 1
    outer loop
      vertex 14 14 1.5
      vertex 6.94058 -5.64456 1.5
      vertex 6.97882 -5.7202 1.5
    endloop
  endfacet
  facet normal 0 0 1
    outer loop
      vertex 14 14 1.5
      vertex 6.89417 -5.57547 1.5
      vertex 6.94058 -5.64456 1.5
    endloop
  endfacet
  facet normal 0 0 1
    outer loop
      vertex 14 14 1.5
      vertex 6.84023 -5.5135 1.5
      vertex 6.89417 -5.57547 1.5
    endloop
  endfacet
  facet normal 0 0 1
    outer loop
      vertex 14 14 1.5
      vertex 6.77943 -5.45921 1.5
      vertex 6.84023 -5.5135 1.5
    endloop
  endfacet
  facet normal 0 0 1
    outer loop
      vertex 14 14 1.5
      vertex 6.71246 -5.41315 1.5
      vertex 6.77943 -5.45921 1.5
    endloop
  endfacet
  facet normal 0 0 1
    outer loop
      vertex 14 14 1.5
      vertex 6.63997 -5.37585 1.5
      vertex 6.71246 -5.41315 1.5
    endloop
  endfacet
  facet normal -0 0 1
    outer loop
      vertex 5.31381 12.499 1.5
      vertex 6.63997 -5.37585 1.5
      vertex 14 14 1.5
    endloop
  endfacet
  facet normal 0 0 1
    outer loop
      vertex 6.63997 -5.37585 1.5
      vertex 5.31381 12.499 1.5
      vertex 6.56264 -5.3479 1.5
    endloop
  endfacet
  facet normal 0 0 1
    outer loop
      vertex 6.56264 -5.3479 1.5
      vertex 5.31381 12.499 1.5
      vertex 6.48111 -5.32983 1.5
    endloop
  endfacet
  facet normal 0 0 1
    outer loop
      vertex 6.48111 -5.32983 1.5
      vertex 5.31381 12.499 1.5
      vertex 6.39606 -5.32222 1.5
    endloop
  endfacet
  facet normal 0 0 1
    outer loop
      vertex 6.39606 -5.32222 1.5
      vertex 5.31381 12.499 1.5
      vertex 5.31468 -5.32199 1.5
    endloop
  endfacet
  facet normal 0 0 1
    outer loop
      vertex 14 14 1.5
      vertex 5.30414 12.591 1.5
      vertex 5.31381 12.499 1.5
    endloop
  endfacet
  facet normal 0 0 1
    outer loop
      vertex 14 14 1.5
      vertex 5.2843 12.6781 1.5
      vertex 5.30414 12.591 1.5
    endloop
  endfacet
  facet normal 0 0 1
    outer loop
      vertex 14 14 1.5
      vertex 5.25499 12.7598 1.5
      vertex 5.2843 12.6781 1.5
    endloop
  endfacet
  facet normal 0 0 1
    outer loop
      vertex 14 14 1.5
      vertex 5.21683 12.8354 1.5
      vertex 5.25499 12.7598 1.5
    endloop
  endfacet
  facet normal 0 0 1
    outer loop
      vertex 14 14 1.5
      vertex 5.17047 12.9045 1.5
      vertex 5.21683 12.8354 1.5
    endloop
  endfacet
  facet normal 0 0 1
    outer loop
      vertex 14 14 1.5
      vertex 5.11661 12.9665 1.5
      vertex 5.17047 12.9045 1.5
    endloop
  endfacet
  facet normal 0 0 1
    outer loop
      vertex 14 14 1.5
      vertex 5.05586 13.0208 1.5
      vertex 5.11661 12.9665 1.5
    endloop
  endfacet
  facet normal 0 0 1
    outer loop
      vertex 14 14 1.5
      vertex 4.98891 13.0668 1.5
      vertex 5.05586 13.0208 1.5
    endloop
  endfacet
  facet normal 0 0 1
    outer loop
      vertex 14 14 1.5
      vertex 4.9164 13.1041 1.5
      vertex 4.98891 13.0668 1.5
    endloop
  endfacet
  facet normal 0 0 1
    outer loop
      vertex 14 14 1.5
      vertex 4.83899 13.1321 1.5
      vertex 4.9164 13.1041 1.5
    endloop
  endfacet
  facet normal 0 0 1
    outer loop
      vertex 14 14 1.5
      vertex 4.75734 13.1501 1.5
      vertex 4.83899 13.1321 1.5
    endloop
  endfacet
  facet normal 0 0 1
    outer loop
      vertex 14 14 1.5
      vertex 4.6721 13.1578 1.5
      vertex 4.75734 13.1501 1.5
    endloop
  endfacet
  facet normal 0 0 1
    outer loop
      vertex 14 14 1.5
      vertex 2.38011 13.157 1.5
      vertex 4.6721 13.1578 1.5
    endloop
  endfacet
  facet normal 0 0 1
    outer loop
      vertex -6.65817 -8.58319 1.5
      vertex -14 -14 1.5
      vertex -6.67149 -8.67662 1.5
    endloop
  endfacet
  facet normal 0 0 1
    outer loop
      vertex -6.63194 -8.48442 1.5
      vertex -14 -14 1.5
      vertex -6.65817 -8.58319 1.5
    endloop
  endfacet
  facet normal 0 0 1
    outer loop
      vertex -14 -14 1.5
      vertex -6.63194 -8.48442 1.5
      vertex -14 14 1.5
    endloop
  endfacet
  facet normal 0 0 1
    outer loop
      vertex 1.42868 12.424 1.5
      vertex -14 14 1.5
      vertex -6.63194 -8.48442 1.5
    endloop
  endfacet
  facet normal 0 0 1
    outer loop
      vertex 1.46884 12.5187 1.5
      vertex -14 14 1.5
      vertex 1.42868 12.424 1.5
    endloop
  endfacet
  facet normal 0 0 1
    outer loop
      vertex 1.5191 12.6098 1.5
      vertex -14 14 1.5
      vertex 1.46884 12.5187 1.5
    endloop
  endfacet
  facet normal 0 0 1
    outer loop
      vertex 1.5914 12.7133 1.5
      vertex -14 14 1.5
      vertex 1.5191 12.6098 1.5
    endloop
  endfacet
  facet normal 0 0 1
    outer loop
      vertex 1.67514 12.8092 1.5
      vertex -14 14 1.5
      vertex 1.5914 12.7133 1.5
    endloop
  endfacet
  facet normal 0 0 1
    outer loop
      vertex 1.7686 12.8963 1.5
      vertex -14 14 1.5
      vertex 1.67514 12.8092 1.5
    endloop
  endfacet
  facet normal 0 0 1
    outer loop
      vertex 1.87009 12.9732 1.5
      vertex -14 14 1.5
      vertex 1.7686 12.8963 1.5
    endloop
  endfacet
  facet normal 0 0 1
    outer loop
      vertex 1.97787 13.0385 1.5
      vertex -14 14 1.5
      vertex 1.87009 12.9732 1.5
    endloop
  endfacet
  facet normal 0 0 1
    outer loop
      vertex 2.09026 13.0909 1.5
      vertex -14 14 1.5
      vertex 1.97787 13.0385 1.5
    endloop
  endfacet
  facet normal 0 0 1
    outer loop
      vertex 2.18619 13.1238 1.5
      vertex -14 14 1.5
      vertex 2.09026 13.0909 1.5
    endloop
  endfacet
  facet normal 0 0 1
    outer loop
      vertex 2.28314 13.1461 1.5
      vertex -14 14 1.5
      vertex 2.18619 13.1238 1.5
    endloop
  endfacet
  facet normal 0 0 1
    outer loop
      vertex 2.38011 13.157 1.5
      vertex -14 14 1.5
      vertex 2.28314 13.1461 1.5
    endloop
  endfacet
  facet normal -0 0 1
    outer loop
      vertex -14 14 1.5
      vertex 2.38011 13.157 1.5
      vertex 14 14 1.5
    endloop
  endfacet
  facet normal -0 0 1
    outer loop
      vertex 7.03087 -8.58798 1.5
      vertex 14 -14 1.5
      vertex 7.03847 -8.4951 1.5
    endloop
  endfacet
  facet normal -0 0 1
    outer loop
      vertex 7.01297 -8.67606 1.5
      vertex 14 -14 1.5
      vertex 7.03087 -8.58798 1.5
    endloop
  endfacet
  facet normal -0 0 1
    outer loop
      vertex 6.98543 -8.75876 1.5
      vertex 14 -14 1.5
      vertex 7.01297 -8.67606 1.5
    endloop
  endfacet
  facet normal -0 0 1
    outer loop
      vertex 6.94891 -8.83554 1.5
      vertex 14 -14 1.5
      vertex 6.98543 -8.75876 1.5
    endloop
  endfacet
  facet normal -0 0 1
    outer loop
      vertex 6.90407 -8.90587 1.5
      vertex 14 -14 1.5
      vertex 6.94891 -8.83554 1.5
    endloop
  endfacet
  facet normal -0 0 1
    outer loop
      vertex 6.85158 -8.96919 1.5
      vertex 14 -14 1.5
      vertex 6.90407 -8.90587 1.5
    endloop
  endfacet
  facet normal -0 0 1
    outer loop
      vertex 6.7921 -9.02495 1.5
      vertex 14 -14 1.5
      vertex 6.85158 -8.96919 1.5
    endloop
  endfacet
  facet normal 0 0 1
    outer loop
      vertex 5.31447 -11.8321 1.5
      vertex 6.7921 -9.02495 1.5
      vertex 6.72632 -9.0726 1.5
    endloop
  endfacet
  facet normal 0 0 1
    outer loop
      vertex 5.31447 -11.8321 1.5
      vertex 6.72632 -9.0726 1.5
      vertex 6.65488 -9.11159 1.5
    endloop
  endfacet
  facet normal 0 0 1
    outer loop
      vertex 5.31447 -11.8321 1.5
      vertex 6.65488 -9.11159 1.5
      vertex 6.57846 -9.14137 1.5
    endloop
  endfacet
  facet normal 0 0 1
    outer loop
      vertex 5.31447 -11.8321 1.5
      vertex 6.57846 -9.14137 1.5
      vertex 6.49771 -9.16139 1.5
    endloop
  endfacet
  facet normal 0 0 1
    outer loop
      vertex 5.31447 -11.8321 1.5
      vertex 6.49771 -9.16139 1.5
      vertex 6.41331 -9.17111 1.5
    endloop
  endfacet
  facet normal 0 0 1
    outer loop
      vertex 5.31447 -11.8321 1.5
      vertex 6.41331 -9.17111 1.5
      vertex 5.31468 -9.172 1.5
    endloop
  endfacet
  facet normal 0 0 1
    outer loop
      vertex 6.7921 -9.02495 1.5
      vertex 5.31447 -11.8321 1.5
      vertex 5.3069 -11.925 1.5
    endloop
  endfacet
  facet normal 0 0 1
    outer loop
      vertex 6.7921 -9.02495 1.5
      vertex 5.3069 -11.925 1.5
      vertex 14 -14 1.5
    endloop
  endfacet
  facet normal -0 0 1
    outer loop
      vertex 5.28905 -12.013 1.5
      vertex 14 -14 1.5
      vertex 5.3069 -11.925 1.5
    endloop
  endfacet
  facet normal -0 0 1
    outer loop
      vertex 5.26158 -12.0958 1.5
      vertex 14 -14 1.5
      vertex 5.28905 -12.013 1.5
    endloop
  endfacet
  facet normal -0 0 1
    outer loop
      vertex 5.22513 -12.1725 1.5
      vertex 14 -14 1.5
      vertex 5.26158 -12.0958 1.5
    endloop
  endfacet
  facet normal -0 0 1
    outer loop
      vertex 5.18036 -12.2429 1.5
      vertex 14 -14 1.5
      vertex 5.22513 -12.1725 1.5
    endloop
  endfacet
  facet normal -0 0 1
    outer loop
      vertex 5.12794 -12.3062 1.5
      vertex 14 -14 1.5
      vertex 5.18036 -12.2429 1.5
    endloop
  endfacet
  facet normal -0 0 1
    outer loop
      vertex 5.06853 -12.362 1.5
      vertex 14 -14 1.5
      vertex 5.12794 -12.3062 1.5
    endloop
  endfacet
  facet normal -0 0 1
    outer loop
      vertex 5.00276 -12.4096 1.5
      vertex 14 -14 1.5
      vertex 5.06853 -12.362 1.5
    endloop
  endfacet
  facet normal -0 0 1
    outer loop
      vertex 4.9313 -12.4486 1.5
      vertex 14 -14 1.5
      vertex 5.00276 -12.4096 1.5
    endloop
  endfacet
  facet normal -0 0 1
    outer loop
      vertex 4.85483 -12.4784 1.5
      vertex 14 -14 1.5
      vertex 4.9313 -12.4486 1.5
    endloop
  endfacet
  facet normal -0 0 1
    outer loop
      vertex 4.77397 -12.4984 1.5
      vertex 14 -14 1.5
      vertex 4.85483 -12.4784 1.5
    endloop
  endfacet
  facet normal -0 0 1
    outer loop
      vertex 4.68941 -12.5081 1.5
      vertex 14 -14 1.5
      vertex 4.77397 -12.4984 1.5
    endloop
  endfacet
  facet normal -0 0 1
    outer loop
      vertex 2.12685 -12.5081 1.5
      vertex 14 -14 1.5
      vertex 4.68941 -12.5081 1.5
    endloop
  endfacet
  facet normal 0 0 1
    outer loop
      vertex -14 -14 1.5
      vertex 2.12685 -12.5081 1.5
      vertex 2.05809 -12.5012 1.5
    endloop
  endfacet
  facet normal -0 0 1
    outer loop
      vertex -6.23531 -9.172 1.5
      vertex 1.46567 -11.851 1.5
      vertex 1.46469 -9.172 1.5
    endloop
  endfacet
  facet normal 0 0 1
    outer loop
      vertex -6.23531 -9.172 1.5
      vertex 1.4765 -11.943 1.5
      vertex 1.46567 -11.851 1.5
    endloop
  endfacet
  facet normal 0 0 1
    outer loop
      vertex -6.23531 -9.172 1.5
      vertex 1.49858 -12.03 1.5
      vertex 1.4765 -11.943 1.5
    endloop
  endfacet
  facet normal 0 0 1
    outer loop
      vertex -6.23531 -9.172 1.5
      vertex 1.53101 -12.1116 1.5
      vertex 1.49858 -12.03 1.5
    endloop
  endfacet
  facet normal 0 0 1
    outer loop
      vertex -6.23531 -9.172 1.5
      vertex 1.57294 -12.1871 1.5
      vertex 1.53101 -12.1116 1.5
    endloop
  endfacet
  facet normal 0 0 1
    outer loop
      vertex -6.23531 -9.172 1.5
      vertex 1.62346 -12.2561 1.5
      vertex 1.57294 -12.1871 1.5
    endloop
  endfacet
  facet normal 0 0 1
    outer loop
      vertex -6.23531 -9.172 1.5
      vertex 1.6817 -12.318 1.5
      vertex 1.62346 -12.2561 1.5
    endloop
  endfacet
  facet normal 0 0 1
    outer loop
      vertex -14 -14 1.5
      vertex 1.6817 -12.318 1.5
      vertex -6.23531 -9.172 1.5
    endloop
  endfacet
  facet normal 0 0 1
    outer loop
      vertex 1.6817 -12.318 1.5
      vertex -14 -14 1.5
      vertex 1.74681 -12.3721 1.5
    endloop
  endfacet
  facet normal 0 0 1
    outer loop
      vertex 1.74681 -12.3721 1.5
      vertex -14 -14 1.5
      vertex 1.81787 -12.4181 1.5
    endloop
  endfacet
  facet normal 0 0 1
    outer loop
      vertex -14 -14 1.5
      vertex -6.23531 -9.172 1.5
      vertex -6.28633 -9.16977 1.5
    endloop
  endfacet
  facet normal 0 0 1
    outer loop
      vertex -14 -14 1.5
      vertex -6.28633 -9.16977 1.5
      vertex -6.35031 -9.16006 1.5
    endloop
  endfacet
  facet normal 0 0 1
    outer loop
      vertex -14 -14 1.5
      vertex -6.35031 -9.16006 1.5
      vertex -6.40938 -9.14297 1.5
    endloop
  endfacet
  facet normal 0 0 1
    outer loop
      vertex -6.67149 -8.67662 1.5
      vertex -14 -14 1.5
      vertex -6.67247 -8.76404 1.5
    endloop
  endfacet
  facet normal 0 0 1
    outer loop
      vertex -6.67247 -8.76404 1.5
      vertex -14 -14 1.5
      vertex -6.66165 -8.8448 1.5
    endloop
  endfacet
  facet normal 0 0 1
    outer loop
      vertex 2.12685 -12.5081 1.5
      vertex -14 -14 1.5
      vertex 14 -14 1.5
    endloop
  endfacet
  facet normal 0 0 1
    outer loop
      vertex 1.9744 -12.4832 1.5
      vertex -14 -14 1.5
      vertex 2.05809 -12.5012 1.5
    endloop
  endfacet
  facet normal 0 0 1
    outer loop
      vertex 1.89403 -12.4553 1.5
      vertex -14 -14 1.5
      vertex 1.9744 -12.4832 1.5
    endloop
  endfacet
  facet normal 0 0 1
    outer loop
      vertex 1.81787 -12.4181 1.5
      vertex -14 -14 1.5
      vertex 1.89403 -12.4553 1.5
    endloop
  endfacet
  facet normal 0 0 1
    outer loop
      vertex -6.46327 -9.11884 1.5
      vertex -14 -14 1.5
      vertex -6.40938 -9.14297 1.5
    endloop
  endfacet
  facet normal 0 0 1
    outer loop
      vertex -6.51167 -9.08798 1.5
      vertex -14 -14 1.5
      vertex -6.46327 -9.11884 1.5
    endloop
  endfacet
  facet normal 0 0 1
    outer loop
      vertex -6.55434 -9.05075 1.5
      vertex -14 -14 1.5
      vertex -6.51167 -9.08798 1.5
    endloop
  endfacet
  facet normal 0 0 1
    outer loop
      vertex -6.59094 -9.00748 1.5
      vertex -14 -14 1.5
      vertex -6.55434 -9.05075 1.5
    endloop
  endfacet
  facet normal 0 0 1
    outer loop
      vertex -6.62123 -8.9585 1.5
      vertex -14 -14 1.5
      vertex -6.59094 -9.00748 1.5
    endloop
  endfacet
  facet normal 0 0 1
    outer loop
      vertex -6.64488 -8.90416 1.5
      vertex -14 -14 1.5
      vertex -6.62123 -8.9585 1.5
    endloop
  endfacet
  facet normal 0 0 1
    outer loop
      vertex -6.66165 -8.8448 1.5
      vertex -14 -14 1.5
      vertex -6.64488 -8.90416 1.5
    endloop
  endfacet
  facet normal 0 0 1
    outer loop
      vertex 1.46469 2.52399 1.5
      vertex -1.57831 -5.32199 1.5
      vertex 1.46469 -5.32199 1.5
    endloop
  endfacet
  facet normal 1 -0 0
    outer loop
      vertex 14 -14 1.5
      vertex 14 14 0.5
      vertex 14 14 1.5
    endloop
  endfacet
  facet normal 1 0 0
    outer loop
      vertex 14 14 0.5
      vertex 14 -14 1.5
      vertex 14 -14 0.5
    endloop
  endfacet
  facet normal 0 1 -0
    outer loop
      vertex 14 14 0.5
      vertex -14 14 1.5
      vertex 14 14 1.5
    endloop
  endfacet
  facet normal 0 1 0
    outer loop
      vertex -14 14 1.5
      vertex 14 14 0.5
      vertex -14 14 0.5
    endloop
  endfacet
  facet normal 0 0 -1
    outer loop
      vertex -14 -14 0.5
      vertex 14 14 0.5
      vertex 14 -14 0.5
    endloop
  endfacet
  facet normal -0 0 -1
    outer loop
      vertex 14 14 0.5
      vertex -14 -14 0.5
      vertex -14 14 0.5
    endloop
  endfacet
  facet normal 0 -1 0
    outer loop
      vertex -14 -14 0.5
      vertex 14 -14 1.5
      vertex -14 -14 1.5
    endloop
  endfacet
  facet normal 0 -1 -0
    outer loop
      vertex 14 -14 1.5
      vertex -14 -14 0.5
      vertex 14 -14 0.5
    endloop
  endfacet
  facet normal 0 0 1
    outer loop
      vertex 5.31468 -9.172 3
      vertex 7.03847 -8.4951 3
      vertex 7.0378 -5.98094 3
    endloop
  endfacet
  facet normal 0 0 1
    outer loop
      vertex 6.39606 -5.32222 3
      vertex 7.0378 -5.98094 3
      vertex 7.02811 -5.88895 3
    endloop
  endfacet
  facet normal 0 -0 1
    outer loop
      vertex 6.41331 -9.17111 3
      vertex 7.03847 -8.4951 3
      vertex 5.31468 -9.172 3
    endloop
  endfacet
  facet normal 0 0 1
    outer loop
      vertex 6.39606 -5.32222 3
      vertex 7.02811 -5.88895 3
      vertex 7.00822 -5.80185 3
    endloop
  endfacet
  facet normal 0 0 1
    outer loop
      vertex 7.03847 -8.4951 3
      vertex 6.41331 -9.17111 3
      vertex 7.03087 -8.58798 3
    endloop
  endfacet
  facet normal 0 0 1
    outer loop
      vertex 6.39606 -5.32222 3
      vertex 7.00822 -5.80185 3
      vertex 6.97882 -5.7202 3
    endloop
  endfacet
  facet normal 0 0 1
    outer loop
      vertex 7.03087 -8.58798 3
      vertex 6.41331 -9.17111 3
      vertex 7.01297 -8.67606 3
    endloop
  endfacet
  facet normal 0 0 1
    outer loop
      vertex 6.39606 -5.32222 3
      vertex 6.97882 -5.7202 3
      vertex 6.94058 -5.64456 3
    endloop
  endfacet
  facet normal 0 0 1
    outer loop
      vertex 7.01297 -8.67606 3
      vertex 6.41331 -9.17111 3
      vertex 6.98543 -8.75876 3
    endloop
  endfacet
  facet normal 0 0 1
    outer loop
      vertex 6.39606 -5.32222 3
      vertex 6.94058 -5.64456 3
      vertex 6.89417 -5.57547 3
    endloop
  endfacet
  facet normal 0 0 1
    outer loop
      vertex 6.98543 -8.75876 3
      vertex 6.41331 -9.17111 3
      vertex 6.94891 -8.83554 3
    endloop
  endfacet
  facet normal 0 0 1
    outer loop
      vertex 6.39606 -5.32222 3
      vertex 6.89417 -5.57547 3
      vertex 6.84023 -5.5135 3
    endloop
  endfacet
  facet normal 0 0 1
    outer loop
      vertex 7.0378 -5.98094 3
      vertex 5.31468 -5.32199 3
      vertex 5.31468 -9.172 3
    endloop
  endfacet
  facet normal 0 0 1
    outer loop
      vertex 6.39606 -5.32222 3
      vertex 6.84023 -5.5135 3
      vertex 6.77943 -5.45921 3
    endloop
  endfacet
  facet normal 0 0 1
    outer loop
      vertex 7.0378 -5.98094 3
      vertex 6.39606 -5.32222 3
      vertex 5.31468 -5.32199 3
    endloop
  endfacet
  facet normal 0 0 1
    outer loop
      vertex 6.39606 -5.32222 3
      vertex 6.77943 -5.45921 3
      vertex 6.71246 -5.41315 3
    endloop
  endfacet
  facet normal 0 0 1
    outer loop
      vertex 6.85158 -8.96919 3
      vertex 6.41331 -9.17111 3
      vertex 6.7921 -9.02495 3
    endloop
  endfacet
  facet normal 0 0 1
    outer loop
      vertex 6.39606 -5.32222 3
      vertex 6.71246 -5.41315 3
      vertex 6.63997 -5.37585 3
    endloop
  endfacet
  facet normal 0 0 1
    outer loop
      vertex 6.7921 -9.02495 3
      vertex 6.41331 -9.17111 3
      vertex 6.72632 -9.0726 3
    endloop
  endfacet
  facet normal 0 0 1
    outer loop
      vertex 6.39606 -5.32222 3
      vertex 6.63997 -5.37585 3
      vertex 6.56264 -5.3479 3
    endloop
  endfacet
  facet normal 0 0 1
    outer loop
      vertex 6.72632 -9.0726 3
      vertex 6.41331 -9.17111 3
      vertex 6.65488 -9.11159 3
    endloop
  endfacet
  facet normal 0 0 1
    outer loop
      vertex 6.39606 -5.32222 3
      vertex 6.56264 -5.3479 3
      vertex 6.48111 -5.32983 3
    endloop
  endfacet
  facet normal 0 0 1
    outer loop
      vertex 6.65488 -9.11159 3
      vertex 6.41331 -9.17111 3
      vertex 6.57846 -9.14137 3
    endloop
  endfacet
  facet normal 0 0 1
    outer loop
      vertex 6.57846 -9.14137 3
      vertex 6.41331 -9.17111 3
      vertex 6.49771 -9.16139 3
    endloop
  endfacet
  facet normal 0 0 1
    outer loop
      vertex 6.94891 -8.83554 3
      vertex 6.41331 -9.17111 3
      vertex 6.90407 -8.90587 3
    endloop
  endfacet
  facet normal 0 0 1
    outer loop
      vertex 6.90407 -8.90587 3
      vertex 6.41331 -9.17111 3
      vertex 6.85158 -8.96919 3
    endloop
  endfacet
  facet normal 0 0 1
    outer loop
      vertex 1.46469 -9.172 3
      vertex 5.31468 -9.172 3
      vertex 5.31468 -5.32199 3
    endloop
  endfacet
  facet normal -0 0 1
    outer loop
      vertex 1.46469 2.52399 3
      vertex 5.31468 -5.32199 3
      vertex 5.31381 12.499 3
    endloop
  endfacet
  facet normal 0 0 1
    outer loop
      vertex 1.46469 -5.32199 3
      vertex 5.31468 -5.32199 3
      vertex 1.46469 2.52399 3
    endloop
  endfacet
  facet normal 0 0 1
    outer loop
      vertex 4.6721 13.1578 3
      vertex 5.31381 12.499 3
      vertex 5.30414 12.591 3
    endloop
  endfacet
  facet normal 0 0 1
    outer loop
      vertex 1.46469 -9.172 3
      vertex 5.31468 -5.32199 3
      vertex 1.46469 -5.32199 3
    endloop
  endfacet
  facet normal 0 0 1
    outer loop
      vertex 4.6721 13.1578 3
      vertex 5.30414 12.591 3
      vertex 5.2843 12.6781 3
    endloop
  endfacet
  facet normal 0 0 1
    outer loop
      vertex 5.31468 -9.172 3
      vertex 1.46469 -9.172 3
      vertex 5.31447 -11.8321 3
    endloop
  endfacet
  facet normal 0 0 1
    outer loop
      vertex 4.6721 13.1578 3
      vertex 5.2843 12.6781 3
      vertex 5.25499 12.7598 3
    endloop
  endfacet
  facet normal 0 -0 1
    outer loop
      vertex 1.46567 -11.851 3
      vertex 5.31447 -11.8321 3
      vertex 1.46469 -9.172 3
    endloop
  endfacet
  facet normal 0 0 1
    outer loop
      vertex 4.6721 13.1578 3
      vertex 5.25499 12.7598 3
      vertex 5.21683 12.8354 3
    endloop
  endfacet
  facet normal 0 0 1
    outer loop
      vertex 5.31447 -11.8321 3
      vertex 4.68941 -12.5081 3
      vertex 5.3069 -11.925 3
    endloop
  endfacet
  facet normal 0 0 1
    outer loop
      vertex 4.6721 13.1578 3
      vertex 5.21683 12.8354 3
      vertex 5.17047 12.9045 3
    endloop
  endfacet
  facet normal 0 0 1
    outer loop
      vertex 5.3069 -11.925 3
      vertex 4.68941 -12.5081 3
      vertex 5.28905 -12.013 3
    endloop
  endfacet
  facet normal 0 0 1
    outer loop
      vertex 4.6721 13.1578 3
      vertex 5.17047 12.9045 3
      vertex 5.11661 12.9665 3
    endloop
  endfacet
  facet normal 0 0 1
    outer loop
      vertex 5.28905 -12.013 3
      vertex 4.68941 -12.5081 3
      vertex 5.26158 -12.0958 3
    endloop
  endfacet
  facet normal 0 0 1
    outer loop
      vertex 4.6721 13.1578 3
      vertex 5.11661 12.9665 3
      vertex 5.05586 13.0208 3
    endloop
  endfacet
  facet normal 0 0 1
    outer loop
      vertex 5.26158 -12.0958 3
      vertex 4.68941 -12.5081 3
      vertex 5.22513 -12.1725 3
    endloop
  endfacet
  facet normal 0 0 1
    outer loop
      vertex 4.6721 13.1578 3
      vertex 5.05586 13.0208 3
      vertex 4.98891 13.0668 3
    endloop
  endfacet
  facet normal 0 0 1
    outer loop
      vertex 5.22513 -12.1725 3
      vertex 4.68941 -12.5081 3
      vertex 5.18036 -12.2429 3
    endloop
  endfacet
  facet normal 0 0 1
    outer loop
      vertex 4.6721 13.1578 3
      vertex 4.98891 13.0668 3
      vertex 4.9164 13.1041 3
    endloop
  endfacet
  facet normal 0 0 1
    outer loop
      vertex 5.18036 -12.2429 3
      vertex 4.68941 -12.5081 3
      vertex 5.12794 -12.3062 3
    endloop
  endfacet
  facet normal 0 0 1
    outer loop
      vertex 4.6721 13.1578 3
      vertex 4.9164 13.1041 3
      vertex 4.83899 13.1321 3
    endloop
  endfacet
  facet normal 0 0 1
    outer loop
      vertex 5.12794 -12.3062 3
      vertex 4.68941 -12.5081 3
      vertex 5.06853 -12.362 3
    endloop
  endfacet
  facet normal 0 0 1
    outer loop
      vertex 4.6721 13.1578 3
      vertex 4.83899 13.1321 3
      vertex 4.75734 13.1501 3
    endloop
  endfacet
  facet normal 0 0 1
    outer loop
      vertex 5.06853 -12.362 3
      vertex 4.68941 -12.5081 3
      vertex 5.00276 -12.4096 3
    endloop
  endfacet
  facet normal 0 0 1
    outer loop
      vertex 5.31381 12.499 3
      vertex 4.6721 13.1578 3
      vertex 2.38011 13.157 3
    endloop
  endfacet
  facet normal 0 0 1
    outer loop
      vertex 5.31381 12.499 3
      vertex 2.38011 13.157 3
      vertex 1.42868 12.424 3
    endloop
  endfacet
  facet normal 0 0 1
    outer loop
      vertex 2.18619 13.1238 3
      vertex 2.38011 13.157 3
      vertex 2.28314 13.1461 3
    endloop
  endfacet
  facet normal 0 0 1
    outer loop
      vertex 2.09026 13.0909 3
      vertex 2.38011 13.157 3
      vertex 2.18619 13.1238 3
    endloop
  endfacet
  facet normal 0 0 1
    outer loop
      vertex 5.00276 -12.4096 3
      vertex 4.68941 -12.5081 3
      vertex 4.9313 -12.4486 3
    endloop
  endfacet
  facet normal 0 0 1
    outer loop
      vertex 2.38011 13.157 3
      vertex 2.09026 13.0909 3
      vertex 1.97787 13.0385 3
    endloop
  endfacet
  facet normal 0 0 1
    outer loop
      vertex 4.9313 -12.4486 3
      vertex 4.68941 -12.5081 3
      vertex 4.85483 -12.4784 3
    endloop
  endfacet
  facet normal 0 0 1
    outer loop
      vertex 2.38011 13.157 3
      vertex 1.97787 13.0385 3
      vertex 1.87009 12.9732 3
    endloop
  endfacet
  facet normal 0 0 1
    outer loop
      vertex 4.85483 -12.4784 3
      vertex 4.68941 -12.5081 3
      vertex 4.77397 -12.4984 3
    endloop
  endfacet
  facet normal 0 -0 1
    outer loop
      vertex 2.12685 -12.5081 3
      vertex 5.31447 -11.8321 3
      vertex 1.46567 -11.851 3
    endloop
  endfacet
  facet normal 0 0 1
    outer loop
      vertex 1.7686 12.8963 3
      vertex 2.38011 13.157 3
      vertex 1.87009 12.9732 3
    endloop
  endfacet
  facet normal 0 0 1
    outer loop
      vertex 5.31447 -11.8321 3
      vertex 2.12685 -12.5081 3
      vertex 4.68941 -12.5081 3
    endloop
  endfacet
  facet normal 0 0 1
    outer loop
      vertex 2.38011 13.157 3
      vertex 1.7686 12.8963 3
      vertex 1.42868 12.424 3
    endloop
  endfacet
  facet normal 0 0 1
    outer loop
      vertex 2.12685 -12.5081 3
      vertex 1.46567 -11.851 3
      vertex 2.05809 -12.5012 3
    endloop
  endfacet
  facet normal 0 0 1
    outer loop
      vertex 2.05809 -12.5012 3
      vertex 1.46567 -11.851 3
      vertex 1.9744 -12.4832 3
    endloop
  endfacet
  facet normal 0 0 1
    outer loop
      vertex 1.42868 12.424 3
      vertex 1.7686 12.8963 3
      vertex 1.67514 12.8092 3
    endloop
  endfacet
  facet normal 0 0 1
    outer loop
      vertex 1.9744 -12.4832 3
      vertex 1.46567 -11.851 3
      vertex 1.89403 -12.4553 3
    endloop
  endfacet
  facet normal 0 0 1
    outer loop
      vertex 1.42868 12.424 3
      vertex 1.67514 12.8092 3
      vertex 1.5914 12.7133 3
    endloop
  endfacet
  facet normal 0 0 1
    outer loop
      vertex 1.89403 -12.4553 3
      vertex 1.46567 -11.851 3
      vertex 1.81787 -12.4181 3
    endloop
  endfacet
  facet normal 0 0 1
    outer loop
      vertex 1.81787 -12.4181 3
      vertex 1.46567 -11.851 3
      vertex 1.74681 -12.3721 3
    endloop
  endfacet
  facet normal 0 0 1
    outer loop
      vertex 1.42868 12.424 3
      vertex 1.5914 12.7133 3
      vertex 1.5191 12.6098 3
    endloop
  endfacet
  facet normal 0 0 1
    outer loop
      vertex 1.74681 -12.3721 3
      vertex 1.46567 -11.851 3
      vertex 1.6817 -12.318 3
    endloop
  endfacet
  facet normal 0 0 1
    outer loop
      vertex 1.6817 -12.318 3
      vertex 1.46567 -11.851 3
      vertex 1.62346 -12.2561 3
    endloop
  endfacet
  facet normal 0 0 1
    outer loop
      vertex 1.42868 12.424 3
      vertex 1.5191 12.6098 3
      vertex 1.46884 12.5187 3
    endloop
  endfacet
  facet normal 0 0 1
    outer loop
      vertex 1.62346 -12.2561 3
      vertex 1.46567 -11.851 3
      vertex 1.57294 -12.1871 3
    endloop
  endfacet
  facet normal 0 0 1
    outer loop
      vertex 1.57294 -12.1871 3
      vertex 1.46567 -11.851 3
      vertex 1.53101 -12.1116 3
    endloop
  endfacet
  facet normal 0 0 1
    outer loop
      vertex 5.31381 12.499 3
      vertex 1.42868 12.424 3
      vertex 1.46469 2.52399 3
    endloop
  endfacet
  facet normal 0 0 1
    outer loop
      vertex -6.63194 -8.48442 3
      vertex 1.46469 2.52399 3
      vertex 1.42868 12.424 3
    endloop
  endfacet
  facet normal 0 0 1
    outer loop
      vertex 1.46469 2.52399 3
      vertex -6.63194 -8.48442 3
      vertex -1.57831 -5.32199 3
    endloop
  endfacet
  facet normal 0 0 1
    outer loop
      vertex -1.57831 -5.32199 3
      vertex -6.63194 -8.48442 3
      vertex -6.23531 -9.172 3
    endloop
  endfacet
  facet normal -0 0 1
    outer loop
      vertex -6.65817 -8.58319 3
      vertex -6.23531 -9.172 3
      vertex -6.63194 -8.48442 3
    endloop
  endfacet
  facet normal -0 0 1
    outer loop
      vertex -6.67149 -8.67662 3
      vertex -6.23531 -9.172 3
      vertex -6.65817 -8.58319 3
    endloop
  endfacet
  facet normal -0 0 1
    outer loop
      vertex -6.67247 -8.76404 3
      vertex -6.23531 -9.172 3
      vertex -6.67149 -8.67662 3
    endloop
  endfacet
  facet normal 0 0 1
    outer loop
      vertex -6.23531 -9.172 3
      vertex -6.67247 -8.76404 3
      vertex -6.28633 -9.16977 3
    endloop
  endfacet
  facet normal -0 -0 1
    outer loop
      vertex -6.66165 -8.8448 3
      vertex -6.28633 -9.16977 3
      vertex -6.67247 -8.76404 3
    endloop
  endfacet
  facet normal 0 0 1
    outer loop
      vertex -6.28633 -9.16977 3
      vertex -6.66165 -8.8448 3
      vertex -6.35031 -9.16006 3
    endloop
  endfacet
  facet normal 0 0 1
    outer loop
      vertex -6.35031 -9.16006 3
      vertex -6.66165 -8.8448 3
      vertex -6.40938 -9.14297 3
    endloop
  endfacet
  facet normal 0 0 1
    outer loop
      vertex -6.40938 -9.14297 3
      vertex -6.66165 -8.8448 3
      vertex -6.46327 -9.11884 3
    endloop
  endfacet
  facet normal 0 0 1
    outer loop
      vertex -6.46327 -9.11884 3
      vertex -6.66165 -8.8448 3
      vertex -6.51167 -9.08798 3
    endloop
  endfacet
  facet normal 0 0 1
    outer loop
      vertex -6.51167 -9.08798 3
      vertex -6.66165 -8.8448 3
      vertex -6.55434 -9.05075 3
    endloop
  endfacet
  facet normal 0 0 1
    outer loop
      vertex -6.55434 -9.05075 3
      vertex -6.66165 -8.8448 3
      vertex -6.59094 -9.00748 3
    endloop
  endfacet
  facet normal 0 0 1
    outer loop
      vertex -6.59094 -9.00748 3
      vertex -6.66165 -8.8448 3
      vertex -6.62123 -8.9585 3
    endloop
  endfacet
  facet normal 0 0 1
    outer loop
      vertex -6.62123 -8.9585 3
      vertex -6.66165 -8.8448 3
      vertex -6.64488 -8.90416 3
    endloop
  endfacet
  facet normal 0 0 1
    outer loop
      vertex 1.53101 -12.1116 3
      vertex 1.46567 -11.851 3
      vertex 1.49858 -12.03 3
    endloop
  endfacet
  facet normal 0 0 1
    outer loop
      vertex 1.49858 -12.03 3
      vertex 1.46567 -11.851 3
      vertex 1.4765 -11.943 3
    endloop
  endfacet
  facet normal -0 0 1
    outer loop
      vertex -1.57831 -5.32199 3
      vertex 1.46469 -9.172 3
      vertex 1.46469 -5.32199 3
    endloop
  endfacet
  facet normal 0 0 1
    outer loop
      vertex 1.46469 -9.172 3
      vertex -1.57831 -5.32199 3
      vertex -6.23531 -9.172 3
    endloop
  endfacet
  facet normal 0 -1 0
    outer loop
      vertex 2.12685 -12.5081 1.5
      vertex 4.68941 -12.5081 3
      vertex 2.12685 -12.5081 3
    endloop
  endfacet
  facet normal 0 -1 -0
    outer loop
      vertex 4.68941 -12.5081 3
      vertex 2.12685 -12.5081 1.5
      vertex 4.68941 -12.5081 1.5
    endloop
  endfacet
  facet normal 0.114189 -0.993459 0
    outer loop
      vertex 4.68941 -12.5081 1.5
      vertex 4.77397 -12.4984 3
      vertex 4.68941 -12.5081 3
    endloop
  endfacet
  facet normal 0.114189 -0.993459 0
    outer loop
      vertex 4.77397 -12.4984 3
      vertex 4.68941 -12.5081 1.5
      vertex 4.77397 -12.4984 1.5
    endloop
  endfacet
  facet normal 0.240509 -0.970647 0
    outer loop
      vertex 4.77397 -12.4984 1.5
      vertex 4.85483 -12.4784 3
      vertex 4.77397 -12.4984 3
    endloop
  endfacet
  facet normal 0.240509 -0.970647 0
    outer loop
      vertex 4.85483 -12.4784 3
      vertex 4.77397 -12.4984 1.5
      vertex 4.85483 -12.4784 1.5
    endloop
  endfacet
  facet normal 0.362913 -0.931823 0
    outer loop
      vertex 4.85483 -12.4784 1.5
      vertex 4.9313 -12.4486 3
      vertex 4.85483 -12.4784 3
    endloop
  endfacet
  facet normal 0.362913 -0.931823 0
    outer loop
      vertex 4.9313 -12.4486 3
      vertex 4.85483 -12.4784 1.5
      vertex 4.9313 -12.4486 1.5
    endloop
  endfacet
  facet normal 0.478944 -0.877845 0
    outer loop
      vertex 4.9313 -12.4486 1.5
      vertex 5.00276 -12.4096 3
      vertex 4.9313 -12.4486 3
    endloop
  endfacet
  facet normal 0.478944 -0.877845 0
    outer loop
      vertex 5.00276 -12.4096 3
      vertex 4.9313 -12.4486 1.5
      vertex 5.00276 -12.4096 1.5
    endloop
  endfacet
  facet normal 0.586629 -0.809856 0
    outer loop
      vertex 5.00276 -12.4096 1.5
      vertex 5.06853 -12.362 3
      vertex 5.00276 -12.4096 3
    endloop
  endfacet
  facet normal 0.586629 -0.809856 0
    outer loop
      vertex 5.06853 -12.362 3
      vertex 5.00276 -12.4096 1.5
      vertex 5.06853 -12.362 1.5
    endloop
  endfacet
  facet normal 0.684277 -0.729222 0
    outer loop
      vertex 5.06853 -12.362 1.5
      vertex 5.12794 -12.3062 3
      vertex 5.06853 -12.362 3
    endloop
  endfacet
  facet normal 0.684277 -0.729222 0
    outer loop
      vertex 5.12794 -12.3062 3
      vertex 5.06853 -12.362 1.5
      vertex 5.12794 -12.3062 1.5
    endloop
  endfacet
  facet normal 0.770347 -0.637625 0
    outer loop
      vertex 5.12794 -12.3062 3
      vertex 5.18036 -12.2429 1.5
      vertex 5.18036 -12.2429 3
    endloop
  endfacet
  facet normal 0.770347 -0.637625 0
    outer loop
      vertex 5.18036 -12.2429 1.5
      vertex 5.12794 -12.3062 3
      vertex 5.12794 -12.3062 1.5
    endloop
  endfacet
  facet normal 0.843579 -0.537006 0
    outer loop
      vertex 5.18036 -12.2429 3
      vertex 5.22513 -12.1725 1.5
      vertex 5.22513 -12.1725 3
    endloop
  endfacet
  facet normal 0.843579 -0.537006 0
    outer loop
      vertex 5.22513 -12.1725 1.5
      vertex 5.18036 -12.2429 3
      vertex 5.18036 -12.2429 1.5
    endloop
  endfacet
  facet normal 0.903361 -0.428881 0
    outer loop
      vertex 5.22513 -12.1725 3
      vertex 5.26158 -12.0958 1.5
      vertex 5.26158 -12.0958 3
    endloop
  endfacet
  facet normal 0.903361 -0.428881 0
    outer loop
      vertex 5.26158 -12.0958 1.5
      vertex 5.22513 -12.1725 3
      vertex 5.22513 -12.1725 1.5
    endloop
  endfacet
  facet normal 0.94905 -0.315125 0
    outer loop
      vertex 5.26158 -12.0958 3
      vertex 5.28905 -12.013 1.5
      vertex 5.28905 -12.013 3
    endloop
  endfacet
  facet normal 0.94905 -0.315125 0
    outer loop
      vertex 5.28905 -12.013 1.5
      vertex 5.26158 -12.0958 3
      vertex 5.26158 -12.0958 1.5
    endloop
  endfacet
  facet normal 0.980061 -0.198695 0
    outer loop
      vertex 5.28905 -12.013 3
      vertex 5.3069 -11.925 1.5
      vertex 5.3069 -11.925 3
    endloop
  endfacet
  facet normal 0.980061 -0.198695 0
    outer loop
      vertex 5.3069 -11.925 1.5
      vertex 5.28905 -12.013 3
      vertex 5.28905 -12.013 1.5
    endloop
  endfacet
  facet normal 0.996698 -0.0812027 0
    outer loop
      vertex 5.3069 -11.925 3
      vertex 5.31447 -11.8321 1.5
      vertex 5.31447 -11.8321 3
    endloop
  endfacet
  facet normal 0.996698 -0.0812027 0
    outer loop
      vertex 5.31447 -11.8321 1.5
      vertex 5.3069 -11.925 3
      vertex 5.3069 -11.925 1.5
    endloop
  endfacet
  facet normal 1 -8.03065e-05 0
    outer loop
      vertex 5.31447 -11.8321 3
      vertex 5.31468 -9.172 1.5
      vertex 5.31468 -9.172 3
    endloop
  endfacet
  facet normal 1 -8.03065e-05 0
    outer loop
      vertex 5.31468 -9.172 1.5
      vertex 5.31447 -11.8321 3
      vertex 5.31447 -11.8321 1.5
    endloop
  endfacet
  facet normal 0.000805555 -1 0
    outer loop
      vertex 5.31468 -9.172 1.5
      vertex 6.41331 -9.17111 3
      vertex 5.31468 -9.172 3
    endloop
  endfacet
  facet normal 0.000805555 -1 0
    outer loop
      vertex 6.41331 -9.17111 3
      vertex 5.31468 -9.172 1.5
      vertex 6.41331 -9.17111 1.5
    endloop
  endfacet
  facet normal 0.114413 -0.993433 0
    outer loop
      vertex 6.41331 -9.17111 1.5
      vertex 6.49771 -9.16139 3
      vertex 6.41331 -9.17111 3
    endloop
  endfacet
  facet normal 0.114413 -0.993433 0
    outer loop
      vertex 6.49771 -9.16139 3
      vertex 6.41331 -9.17111 1.5
      vertex 6.49771 -9.16139 1.5
    endloop
  endfacet
  facet normal 0.240636 -0.970615 0
    outer loop
      vertex 6.49771 -9.16139 1.5
      vertex 6.57846 -9.14137 3
      vertex 6.49771 -9.16139 3
    endloop
  endfacet
  facet normal 0.240636 -0.970615 0
    outer loop
      vertex 6.57846 -9.14137 3
      vertex 6.49771 -9.16139 1.5
      vertex 6.57846 -9.14137 1.5
    endloop
  endfacet
  facet normal 0.363164 -0.931725 0
    outer loop
      vertex 6.57846 -9.14137 1.5
      vertex 6.65488 -9.11159 3
      vertex 6.57846 -9.14137 3
    endloop
  endfacet
  facet normal 0.363164 -0.931725 0
    outer loop
      vertex 6.65488 -9.11159 3
      vertex 6.57846 -9.14137 1.5
      vertex 6.65488 -9.11159 1.5
    endloop
  endfacet
  facet normal 0.479023 -0.877802 0
    outer loop
      vertex 6.65488 -9.11159 1.5
      vertex 6.72632 -9.0726 3
      vertex 6.65488 -9.11159 3
    endloop
  endfacet
  facet normal 0.479023 -0.877802 0
    outer loop
      vertex 6.72632 -9.0726 3
      vertex 6.65488 -9.11159 1.5
      vertex 6.72632 -9.0726 1.5
    endloop
  endfacet
  facet normal 0.586663 -0.809831 0
    outer loop
      vertex 6.72632 -9.0726 1.5
      vertex 6.7921 -9.02495 3
      vertex 6.72632 -9.0726 3
    endloop
  endfacet
  facet normal 0.586663 -0.809831 0
    outer loop
      vertex 6.7921 -9.02495 3
      vertex 6.72632 -9.0726 1.5
      vertex 6.7921 -9.02495 1.5
    endloop
  endfacet
  facet normal 0.683904 -0.729572 0
    outer loop
      vertex 6.7921 -9.02495 1.5
      vertex 6.85158 -8.96919 3
      vertex 6.7921 -9.02495 3
    endloop
  endfacet
  facet normal 0.683904 -0.729572 0
    outer loop
      vertex 6.85158 -8.96919 3
      vertex 6.7921 -9.02495 1.5
      vertex 6.85158 -8.96919 1.5
    endloop
  endfacet
  facet normal 0.769891 -0.638175 0
    outer loop
      vertex 6.85158 -8.96919 3
      vertex 6.90407 -8.90587 1.5
      vertex 6.90407 -8.90587 3
    endloop
  endfacet
  facet normal 0.769891 -0.638175 0
    outer loop
      vertex 6.90407 -8.90587 1.5
      vertex 6.85158 -8.96919 3
      vertex 6.85158 -8.96919 1.5
    endloop
  endfacet
  facet normal 0.843164 -0.537657 0
    outer loop
      vertex 6.90407 -8.90587 3
      vertex 6.94891 -8.83554 1.5
      vertex 6.94891 -8.83554 3
    endloop
  endfacet
  facet normal 0.843164 -0.537657 0
    outer loop
      vertex 6.94891 -8.83554 1.5
      vertex 6.90407 -8.90587 3
      vertex 6.90407 -8.90587 1.5
    endloop
  endfacet
  facet normal 0.903083 -0.429467 0
    outer loop
      vertex 6.94891 -8.83554 3
      vertex 6.98543 -8.75876 1.5
      vertex 6.98543 -8.75876 3
    endloop
  endfacet
  facet normal 0.903083 -0.429467 0
    outer loop
      vertex 6.98543 -8.75876 1.5
      vertex 6.94891 -8.83554 3
      vertex 6.94891 -8.83554 1.5
    endloop
  endfacet
  facet normal 0.948771 -0.315965 0
    outer loop
      vertex 6.98543 -8.75876 3
      vertex 7.01297 -8.67606 1.5
      vertex 7.01297 -8.67606 3
    endloop
  endfacet
  facet normal 0.948771 -0.315965 0
    outer loop
      vertex 7.01297 -8.67606 1.5
      vertex 6.98543 -8.75876 3
      vertex 6.98543 -8.75876 1.5
    endloop
  endfacet
  facet normal 0.979969 -0.199152 0
    outer loop
      vertex 7.01297 -8.67606 3
      vertex 7.03087 -8.58798 1.5
      vertex 7.03087 -8.58798 3
    endloop
  endfacet
  facet normal 0.979969 -0.199152 0
    outer loop
      vertex 7.03087 -8.58798 1.5
      vertex 7.01297 -8.67606 3
      vertex 7.01297 -8.67606 1.5
    endloop
  endfacet
  facet normal 0.99667 -0.0815413 0
    outer loop
      vertex 7.03087 -8.58798 3
      vertex 7.03847 -8.4951 1.5
      vertex 7.03847 -8.4951 3
    endloop
  endfacet
  facet normal 0.99667 -0.0815413 0
    outer loop
      vertex 7.03847 -8.4951 1.5
      vertex 7.03087 -8.58798 3
      vertex 7.03087 -8.58798 1.5
    endloop
  endfacet
  facet normal 1 0.000267042 0
    outer loop
      vertex 7.03847 -8.4951 3
      vertex 7.0378 -5.98094 1.5
      vertex 7.0378 -5.98094 3
    endloop
  endfacet
  facet normal 1 0.000267042 0
    outer loop
      vertex 7.0378 -5.98094 1.5
      vertex 7.03847 -8.4951 3
      vertex 7.03847 -8.4951 1.5
    endloop
  endfacet
  facet normal 0.994499 0.104745 0
    outer loop
      vertex 7.0378 -5.98094 3
      vertex 7.02811 -5.88895 1.5
      vertex 7.02811 -5.88895 3
    endloop
  endfacet
  facet normal 0.994499 0.104745 0
    outer loop
      vertex 7.02811 -5.88895 1.5
      vertex 7.0378 -5.98094 3
      vertex 7.0378 -5.98094 1.5
    endloop
  endfacet
  facet normal 0.974921 0.222551 0
    outer loop
      vertex 7.02811 -5.88895 3
      vertex 7.00822 -5.80185 1.5
      vertex 7.00822 -5.80185 3
    endloop
  endfacet
  facet normal 0.974921 0.222551 0
    outer loop
      vertex 7.00822 -5.80185 1.5
      vertex 7.02811 -5.88895 3
      vertex 7.02811 -5.88895 1.5
    endloop
  endfacet
  facet normal 0.940852 0.338819 0
    outer loop
      vertex 7.00822 -5.80185 3
      vertex 6.97882 -5.7202 1.5
      vertex 6.97882 -5.7202 3
    endloop
  endfacet
  facet normal 0.940852 0.338819 0
    outer loop
      vertex 6.97882 -5.7202 1.5
      vertex 7.00822 -5.80185 3
      vertex 7.00822 -5.80185 1.5
    endloop
  endfacet
  facet normal 0.892438 0.45117 0
    outer loop
      vertex 6.97882 -5.7202 3
      vertex 6.94058 -5.64456 1.5
      vertex 6.94058 -5.64456 3
    endloop
  endfacet
  facet normal 0.892438 0.45117 0
    outer loop
      vertex 6.94058 -5.64456 1.5
      vertex 6.97882 -5.7202 3
      vertex 6.97882 -5.7202 1.5
    endloop
  endfacet
  facet normal 0.830071 0.557658 0
    outer loop
      vertex 6.94058 -5.64456 3
      vertex 6.89417 -5.57547 1.5
      vertex 6.89417 -5.57547 3
    endloop
  endfacet
  facet normal 0.830071 0.557658 0
    outer loop
      vertex 6.89417 -5.57547 1.5
      vertex 6.94058 -5.64456 3
      vertex 6.94058 -5.64456 1.5
    endloop
  endfacet
  facet normal 0.754266 0.656569 0
    outer loop
      vertex 6.89417 -5.57547 3
      vertex 6.84023 -5.5135 1.5
      vertex 6.84023 -5.5135 3
    endloop
  endfacet
  facet normal 0.754266 0.656569 0
    outer loop
      vertex 6.84023 -5.5135 1.5
      vertex 6.89417 -5.57547 3
      vertex 6.89417 -5.57547 1.5
    endloop
  endfacet
  facet normal 0.666105 0.745858 -0
    outer loop
      vertex 6.84023 -5.5135 1.5
      vertex 6.77943 -5.45921 3
      vertex 6.84023 -5.5135 3
    endloop
  endfacet
  facet normal 0.666105 0.745858 0
    outer loop
      vertex 6.77943 -5.45921 3
      vertex 6.84023 -5.5135 1.5
      vertex 6.77943 -5.45921 1.5
    endloop
  endfacet
  facet normal 0.566728 0.823905 -0
    outer loop
      vertex 6.77943 -5.45921 1.5
      vertex 6.71246 -5.41315 3
      vertex 6.77943 -5.45921 3
    endloop
  endfacet
  facet normal 0.566728 0.823905 0
    outer loop
      vertex 6.71246 -5.41315 3
      vertex 6.77943 -5.45921 1.5
      vertex 6.71246 -5.41315 1.5
    endloop
  endfacet
  facet normal 0.457441 0.88924 -0
    outer loop
      vertex 6.71246 -5.41315 1.5
      vertex 6.63997 -5.37585 3
      vertex 6.71246 -5.41315 3
    endloop
  endfacet
  facet normal 0.457441 0.88924 0
    outer loop
      vertex 6.63997 -5.37585 3
      vertex 6.71246 -5.41315 1.5
      vertex 6.63997 -5.37585 1.5
    endloop
  endfacet
  facet normal 0.339955 0.940442 -0
    outer loop
      vertex 6.63997 -5.37585 1.5
      vertex 6.56264 -5.3479 3
      vertex 6.63997 -5.37585 3
    endloop
  endfacet
  facet normal 0.339955 0.940442 0
    outer loop
      vertex 6.56264 -5.3479 3
      vertex 6.63997 -5.37585 1.5
      vertex 6.56264 -5.3479 1.5
    endloop
  endfacet
  facet normal 0.21635 0.976316 -0
    outer loop
      vertex 6.56264 -5.3479 1.5
      vertex 6.48111 -5.32983 3
      vertex 6.56264 -5.3479 3
    endloop
  endfacet
  facet normal 0.21635 0.976316 0
    outer loop
      vertex 6.48111 -5.32983 3
      vertex 6.56264 -5.3479 1.5
      vertex 6.48111 -5.32983 1.5
    endloop
  endfacet
  facet normal 0.0891662 0.996017 -0
    outer loop
      vertex 6.48111 -5.32983 1.5
      vertex 6.39606 -5.32222 3
      vertex 6.48111 -5.32983 3
    endloop
  endfacet
  facet normal 0.0891662 0.996017 0
    outer loop
      vertex 6.39606 -5.32222 3
      vertex 6.48111 -5.32983 1.5
      vertex 6.39606 -5.32222 1.5
    endloop
  endfacet
  facet normal 0.000211658 1 -0
    outer loop
      vertex 6.39606 -5.32222 1.5
      vertex 5.31468 -5.32199 3
      vertex 6.39606 -5.32222 3
    endloop
  endfacet
  facet normal 0.000211658 1 0
    outer loop
      vertex 5.31468 -5.32199 3
      vertex 6.39606 -5.32222 1.5
      vertex 5.31468 -5.32199 1.5
    endloop
  endfacet
  facet normal 1 4.88048e-05 0
    outer loop
      vertex 5.31468 -5.32199 3
      vertex 5.31381 12.499 1.5
      vertex 5.31381 12.499 3
    endloop
  endfacet
  facet normal 1 4.88048e-05 0
    outer loop
      vertex 5.31381 12.499 1.5
      vertex 5.31468 -5.32199 3
      vertex 5.31468 -5.32199 1.5
    endloop
  endfacet
  facet normal 0.994516 0.104582 0
    outer loop
      vertex 5.31381 12.499 3
      vertex 5.30414 12.591 1.5
      vertex 5.30414 12.591 3
    endloop
  endfacet
  facet normal 0.994516 0.104582 0
    outer loop
      vertex 5.30414 12.591 1.5
      vertex 5.31381 12.499 3
      vertex 5.31381 12.499 1.5
    endloop
  endfacet
  facet normal 0.975032 0.222064 0
    outer loop
      vertex 5.30414 12.591 3
      vertex 5.2843 12.6781 1.5
      vertex 5.2843 12.6781 3
    endloop
  endfacet
  facet normal 0.975032 0.222064 0
    outer loop
      vertex 5.2843 12.6781 1.5
      vertex 5.30414 12.591 3
      vertex 5.30414 12.591 1.5
    endloop
  endfacet
  facet normal 0.941187 0.337885 0
    outer loop
      vertex 5.2843 12.6781 3
      vertex 5.25499 12.7598 1.5
      vertex 5.25499 12.7598 3
    endloop
  endfacet
  facet normal 0.941187 0.337885 0
    outer loop
      vertex 5.25499 12.7598 1.5
      vertex 5.2843 12.6781 3
      vertex 5.2843 12.6781 1.5
    endloop
  endfacet
  facet normal 0.892837 0.45038 0
    outer loop
      vertex 5.25499 12.7598 3
      vertex 5.21683 12.8354 1.5
      vertex 5.21683 12.8354 3
    endloop
  endfacet
  facet normal 0.892837 0.45038 0
    outer loop
      vertex 5.21683 12.8354 1.5
      vertex 5.25499 12.7598 3
      vertex 5.25499 12.7598 1.5
    endloop
  endfacet
  facet normal 0.830353 0.557237 0
    outer loop
      vertex 5.21683 12.8354 3
      vertex 5.17047 12.9045 1.5
      vertex 5.17047 12.9045 3
    endloop
  endfacet
  facet normal 0.830353 0.557237 0
    outer loop
      vertex 5.17047 12.9045 1.5
      vertex 5.21683 12.8354 3
      vertex 5.21683 12.8354 1.5
    endloop
  endfacet
  facet normal 0.754726 0.656041 0
    outer loop
      vertex 5.17047 12.9045 3
      vertex 5.11661 12.9665 1.5
      vertex 5.11661 12.9665 3
    endloop
  endfacet
  facet normal 0.754726 0.656041 0
    outer loop
      vertex 5.11661 12.9665 1.5
      vertex 5.17047 12.9045 3
      vertex 5.17047 12.9045 1.5
    endloop
  endfacet
  facet normal 0.666384 0.745609 -0
    outer loop
      vertex 5.11661 12.9665 1.5
      vertex 5.05586 13.0208 3
      vertex 5.11661 12.9665 3
    endloop
  endfacet
  facet normal 0.666384 0.745609 0
    outer loop
      vertex 5.05586 13.0208 3
      vertex 5.11661 12.9665 1.5
      vertex 5.05586 13.0208 1.5
    endloop
  endfacet
  facet normal 0.566943 0.823757 -0
    outer loop
      vertex 5.05586 13.0208 1.5
      vertex 4.98891 13.0668 3
      vertex 5.05586 13.0208 3
    endloop
  endfacet
  facet normal 0.566943 0.823757 0
    outer loop
      vertex 4.98891 13.0668 3
      vertex 5.05586 13.0208 1.5
      vertex 4.98891 13.0668 1.5
    endloop
  endfacet
  facet normal 0.457365 0.889279 -0
    outer loop
      vertex 4.98891 13.0668 1.5
      vertex 4.9164 13.1041 3
      vertex 4.98891 13.0668 3
    endloop
  endfacet
  facet normal 0.457365 0.889279 0
    outer loop
      vertex 4.9164 13.1041 3
      vertex 4.98891 13.0668 1.5
      vertex 4.9164 13.1041 1.5
    endloop
  endfacet
  facet normal 0.339658 0.940549 -0
    outer loop
      vertex 4.9164 13.1041 1.5
      vertex 4.83899 13.1321 3
      vertex 4.9164 13.1041 3
    endloop
  endfacet
  facet normal 0.339658 0.940549 0
    outer loop
      vertex 4.83899 13.1321 3
      vertex 4.9164 13.1041 1.5
      vertex 4.83899 13.1321 1.5
    endloop
  endfacet
  facet normal 0.215868 0.976423 -0
    outer loop
      vertex 4.83899 13.1321 1.5
      vertex 4.75734 13.1501 3
      vertex 4.83899 13.1321 3
    endloop
  endfacet
  facet normal 0.215868 0.976423 0
    outer loop
      vertex 4.75734 13.1501 3
      vertex 4.83899 13.1321 1.5
      vertex 4.75734 13.1501 1.5
    endloop
  endfacet
  facet normal 0.0891531 0.996018 -0
    outer loop
      vertex 4.75734 13.1501 1.5
      vertex 4.6721 13.1578 3
      vertex 4.75734 13.1501 3
    endloop
  endfacet
  facet normal 0.0891531 0.996018 0
    outer loop
      vertex 4.6721 13.1578 3
      vertex 4.75734 13.1501 1.5
      vertex 4.6721 13.1578 1.5
    endloop
  endfacet
  facet normal -0.000339529 1 0
    outer loop
      vertex 4.6721 13.1578 1.5
      vertex 2.38011 13.157 3
      vertex 4.6721 13.1578 3
    endloop
  endfacet
  facet normal -0.000339529 1 0
    outer loop
      vertex 2.38011 13.157 3
      vertex 4.6721 13.1578 1.5
      vertex 2.38011 13.157 1.5
    endloop
  endfacet
  facet normal -0.111496 0.993765 0
    outer loop
      vertex 2.38011 13.157 1.5
      vertex 2.28314 13.1461 3
      vertex 2.38011 13.157 3
    endloop
  endfacet
  facet normal -0.111496 0.993765 0
    outer loop
      vertex 2.28314 13.1461 3
      vertex 2.38011 13.157 1.5
      vertex 2.28314 13.1461 1.5
    endloop
  endfacet
  facet normal -0.223941 0.974603 0
    outer loop
      vertex 2.28314 13.1461 1.5
      vertex 2.18619 13.1238 3
      vertex 2.28314 13.1461 3
    endloop
  endfacet
  facet normal -0.223941 0.974603 0
    outer loop
      vertex 2.18619 13.1238 3
      vertex 2.28314 13.1461 1.5
      vertex 2.18619 13.1238 1.5
    endloop
  endfacet
  facet normal -0.324386 0.945925 0
    outer loop
      vertex 2.18619 13.1238 1.5
      vertex 2.09026 13.0909 3
      vertex 2.18619 13.1238 3
    endloop
  endfacet
  facet normal -0.324386 0.945925 0
    outer loop
      vertex 2.09026 13.0909 3
      vertex 2.18619 13.1238 1.5
      vertex 2.09026 13.0909 1.5
    endloop
  endfacet
  facet normal -0.422885 0.906183 0
    outer loop
      vertex 2.09026 13.0909 1.5
      vertex 1.97787 13.0385 3
      vertex 2.09026 13.0909 3
    endloop
  endfacet
  facet normal -0.422885 0.906183 0
    outer loop
      vertex 1.97787 13.0385 3
      vertex 2.09026 13.0909 1.5
      vertex 1.97787 13.0385 1.5
    endloop
  endfacet
  facet normal -0.518194 0.855263 0
    outer loop
      vertex 1.97787 13.0385 1.5
      vertex 1.87009 12.9732 3
      vertex 1.97787 13.0385 3
    endloop
  endfacet
  facet normal -0.518194 0.855263 0
    outer loop
      vertex 1.87009 12.9732 3
      vertex 1.97787 13.0385 1.5
      vertex 1.87009 12.9732 1.5
    endloop
  endfacet
  facet normal -0.603733 0.797187 0
    outer loop
      vertex 1.87009 12.9732 1.5
      vertex 1.7686 12.8963 3
      vertex 1.87009 12.9732 3
    endloop
  endfacet
  facet normal -0.603733 0.797187 0
    outer loop
      vertex 1.7686 12.8963 3
      vertex 1.87009 12.9732 1.5
      vertex 1.7686 12.8963 1.5
    endloop
  endfacet
  facet normal -0.681701 0.731631 0
    outer loop
      vertex 1.7686 12.8963 1.5
      vertex 1.67514 12.8092 3
      vertex 1.7686 12.8963 3
    endloop
  endfacet
  facet normal -0.681701 0.731631 0
    outer loop
      vertex 1.67514 12.8092 3
      vertex 1.7686 12.8963 1.5
      vertex 1.67514 12.8092 1.5
    endloop
  endfacet
  facet normal -0.753459 0.657495 0
    outer loop
      vertex 1.5914 12.7133 1.5
      vertex 1.67514 12.8092 3
      vertex 1.67514 12.8092 1.5
    endloop
  endfacet
  facet normal -0.753459 0.657495 0
    outer loop
      vertex 1.67514 12.8092 3
      vertex 1.5914 12.7133 1.5
      vertex 1.5914 12.7133 3
    endloop
  endfacet
  facet normal -0.819884 0.572529 0
    outer loop
      vertex 1.5191 12.6098 1.5
      vertex 1.5914 12.7133 3
      vertex 1.5914 12.7133 1.5
    endloop
  endfacet
  facet normal -0.819884 0.572529 0
    outer loop
      vertex 1.5914 12.7133 3
      vertex 1.5191 12.6098 1.5
      vertex 1.5191 12.6098 3
    endloop
  endfacet
  facet normal -0.875565 0.483101 0
    outer loop
      vertex 1.46884 12.5187 1.5
      vertex 1.5191 12.6098 3
      vertex 1.5191 12.6098 1.5
    endloop
  endfacet
  facet normal -0.875565 0.483101 0
    outer loop
      vertex 1.5191 12.6098 3
      vertex 1.46884 12.5187 1.5
      vertex 1.46884 12.5187 3
    endloop
  endfacet
  facet normal -0.920582 0.39055 0
    outer loop
      vertex 1.42868 12.424 1.5
      vertex 1.46884 12.5187 3
      vertex 1.46884 12.5187 1.5
    endloop
  endfacet
  facet normal -0.920582 0.39055 0
    outer loop
      vertex 1.46884 12.5187 3
      vertex 1.42868 12.424 1.5
      vertex 1.42868 12.424 3
    endloop
  endfacet
  facet normal -0.933062 0.359715 0
    outer loop
      vertex -6.63194 -8.48442 1.5
      vertex 1.42868 12.424 3
      vertex 1.42868 12.424 1.5
    endloop
  endfacet
  facet normal -0.933062 0.359715 0
    outer loop
      vertex 1.42868 12.424 3
      vertex -6.63194 -8.48442 1.5
      vertex -6.63194 -8.48442 3
    endloop
  endfacet
  facet normal -0.9665 0.256668 0
    outer loop
      vertex -6.65817 -8.58319 1.5
      vertex -6.63194 -8.48442 3
      vertex -6.63194 -8.48442 1.5
    endloop
  endfacet
  facet normal -0.9665 0.256668 0
    outer loop
      vertex -6.63194 -8.48442 3
      vertex -6.65817 -8.58319 1.5
      vertex -6.65817 -8.58319 3
    endloop
  endfacet
  facet normal -0.989988 0.14115 0
    outer loop
      vertex -6.67149 -8.67662 1.5
      vertex -6.65817 -8.58319 3
      vertex -6.65817 -8.58319 1.5
    endloop
  endfacet
  facet normal -0.989988 0.14115 0
    outer loop
      vertex -6.65817 -8.58319 3
      vertex -6.67149 -8.67662 1.5
      vertex -6.67149 -8.67662 3
    endloop
  endfacet
  facet normal -0.999938 0.0111705 0
    outer loop
      vertex -6.67247 -8.76404 1.5
      vertex -6.67149 -8.67662 3
      vertex -6.67149 -8.67662 1.5
    endloop
  endfacet
  facet normal -0.999938 0.0111705 0
    outer loop
      vertex -6.67149 -8.67662 3
      vertex -6.67247 -8.76404 1.5
      vertex -6.67247 -8.76404 3
    endloop
  endfacet
  facet normal -0.991148 -0.132765 0
    outer loop
      vertex -6.66165 -8.8448 1.5
      vertex -6.67247 -8.76404 3
      vertex -6.67247 -8.76404 1.5
    endloop
  endfacet
  facet normal -0.991148 -0.132765 0
    outer loop
      vertex -6.67247 -8.76404 3
      vertex -6.66165 -8.8448 1.5
      vertex -6.66165 -8.8448 3
    endloop
  endfacet
  facet normal -0.962332 -0.271877 0
    outer loop
      vertex -6.64488 -8.90416 1.5
      vertex -6.66165 -8.8448 3
      vertex -6.66165 -8.8448 1.5
    endloop
  endfacet
  facet normal -0.962332 -0.271877 0
    outer loop
      vertex -6.66165 -8.8448 3
      vertex -6.64488 -8.90416 1.5
      vertex -6.64488 -8.90416 3
    endloop
  endfacet
  facet normal -0.916906 -0.399103 0
    outer loop
      vertex -6.62123 -8.9585 1.5
      vertex -6.64488 -8.90416 3
      vertex -6.64488 -8.90416 1.5
    endloop
  endfacet
  facet normal -0.916906 -0.399103 0
    outer loop
      vertex -6.64488 -8.90416 3
      vertex -6.62123 -8.9585 1.5
      vertex -6.62123 -8.9585 3
    endloop
  endfacet
  facet normal -0.850519 -0.525944 0
    outer loop
      vertex -6.59094 -9.00748 1.5
      vertex -6.62123 -8.9585 3
      vertex -6.62123 -8.9585 1.5
    endloop
  endfacet
  facet normal -0.850519 -0.525944 0
    outer loop
      vertex -6.62123 -8.9585 3
      vertex -6.59094 -9.00748 1.5
      vertex -6.59094 -9.00748 3
    endloop
  endfacet
  facet normal -0.763478 -0.645834 0
    outer loop
      vertex -6.55434 -9.05075 1.5
      vertex -6.59094 -9.00748 3
      vertex -6.59094 -9.00748 1.5
    endloop
  endfacet
  facet normal -0.763478 -0.645834 0
    outer loop
      vertex -6.59094 -9.00748 3
      vertex -6.55434 -9.05075 1.5
      vertex -6.55434 -9.05075 3
    endloop
  endfacet
  facet normal -0.657512 -0.753444 0
    outer loop
      vertex -6.55434 -9.05075 1.5
      vertex -6.51167 -9.08798 3
      vertex -6.55434 -9.05075 3
    endloop
  endfacet
  facet normal -0.657512 -0.753444 -0
    outer loop
      vertex -6.51167 -9.08798 3
      vertex -6.55434 -9.05075 1.5
      vertex -6.51167 -9.08798 1.5
    endloop
  endfacet
  facet normal -0.537529 -0.843245 0
    outer loop
      vertex -6.51167 -9.08798 1.5
      vertex -6.46327 -9.11884 3
      vertex -6.51167 -9.08798 3
    endloop
  endfacet
  facet normal -0.537529 -0.843245 -0
    outer loop
      vertex -6.46327 -9.11884 3
      vertex -6.51167 -9.08798 1.5
      vertex -6.46327 -9.11884 1.5
    endloop
  endfacet
  facet normal -0.408774 -0.912636 0
    outer loop
      vertex -6.46327 -9.11884 1.5
      vertex -6.40938 -9.14297 3
      vertex -6.46327 -9.11884 3
    endloop
  endfacet
  facet normal -0.408774 -0.912636 -0
    outer loop
      vertex -6.40938 -9.14297 3
      vertex -6.46327 -9.11884 1.5
      vertex -6.40938 -9.14297 1.5
    endloop
  endfacet
  facet normal -0.277932 -0.960601 0
    outer loop
      vertex -6.40938 -9.14297 1.5
      vertex -6.35031 -9.16006 3
      vertex -6.40938 -9.14297 3
    endloop
  endfacet
  facet normal -0.277932 -0.960601 -0
    outer loop
      vertex -6.35031 -9.16006 3
      vertex -6.40938 -9.14297 1.5
      vertex -6.35031 -9.16006 1.5
    endloop
  endfacet
  facet normal -0.149966 -0.988691 0
    outer loop
      vertex -6.35031 -9.16006 1.5
      vertex -6.28633 -9.16977 3
      vertex -6.35031 -9.16006 3
    endloop
  endfacet
  facet normal -0.149966 -0.988691 -0
    outer loop
      vertex -6.28633 -9.16977 3
      vertex -6.35031 -9.16006 1.5
      vertex -6.28633 -9.16977 1.5
    endloop
  endfacet
  facet normal -0.0436187 -0.999048 0
    outer loop
      vertex -6.28633 -9.16977 1.5
      vertex -6.23531 -9.172 3
      vertex -6.28633 -9.16977 3
    endloop
  endfacet
  facet normal -0.0436187 -0.999048 -0
    outer loop
      vertex -6.23531 -9.172 3
      vertex -6.28633 -9.16977 1.5
      vertex -6.23531 -9.172 1.5
    endloop
  endfacet
  facet normal 0 -1 0
    outer loop
      vertex -6.23531 -9.172 1.5
      vertex 1.46469 -9.172 3
      vertex -6.23531 -9.172 3
    endloop
  endfacet
  facet normal 0 -1 -0
    outer loop
      vertex 1.46469 -9.172 3
      vertex -6.23531 -9.172 1.5
      vertex 1.46469 -9.172 1.5
    endloop
  endfacet
  facet normal -1 -0.000364521 0
    outer loop
      vertex 1.46567 -11.851 1.5
      vertex 1.46469 -9.172 3
      vertex 1.46469 -9.172 1.5
    endloop
  endfacet
  facet normal -1 -0.000364521 0
    outer loop
      vertex 1.46469 -9.172 3
      vertex 1.46567 -11.851 1.5
      vertex 1.46567 -11.851 3
    endloop
  endfacet
  facet normal -0.993133 -0.116994 0
    outer loop
      vertex 1.4765 -11.943 1.5
      vertex 1.46567 -11.851 3
      vertex 1.46567 -11.851 1.5
    endloop
  endfacet
  facet normal -0.993133 -0.116994 0
    outer loop
      vertex 1.46567 -11.851 3
      vertex 1.4765 -11.943 1.5
      vertex 1.4765 -11.943 3
    endloop
  endfacet
  facet normal -0.969307 -0.245852 0
    outer loop
      vertex 1.49858 -12.03 1.5
      vertex 1.4765 -11.943 3
      vertex 1.4765 -11.943 1.5
    endloop
  endfacet
  facet normal -0.969307 -0.245852 0
    outer loop
      vertex 1.4765 -11.943 3
      vertex 1.49858 -12.03 1.5
      vertex 1.49858 -12.03 3
    endloop
  endfacet
  facet normal -0.929254 -0.369441 0
    outer loop
      vertex 1.53101 -12.1116 1.5
      vertex 1.49858 -12.03 3
      vertex 1.49858 -12.03 1.5
    endloop
  endfacet
  facet normal -0.929254 -0.369441 0
    outer loop
      vertex 1.49858 -12.03 3
      vertex 1.53101 -12.1116 1.5
      vertex 1.53101 -12.1116 3
    endloop
  endfacet
  facet normal -0.874349 -0.485298 0
    outer loop
      vertex 1.57294 -12.1871 1.5
      vertex 1.53101 -12.1116 3
      vertex 1.53101 -12.1116 1.5
    endloop
  endfacet
  facet normal -0.874349 -0.485298 0
    outer loop
      vertex 1.53101 -12.1116 3
      vertex 1.57294 -12.1871 1.5
      vertex 1.57294 -12.1871 3
    endloop
  endfacet
  facet normal -0.806717 -0.590938 0
    outer loop
      vertex 1.62346 -12.2561 1.5
      vertex 1.57294 -12.1871 3
      vertex 1.57294 -12.1871 1.5
    endloop
  endfacet
  facet normal -0.806717 -0.590938 0
    outer loop
      vertex 1.57294 -12.1871 3
      vertex 1.62346 -12.2561 1.5
      vertex 1.62346 -12.2561 3
    endloop
  endfacet
  facet normal -0.727984 -0.685594 0
    outer loop
      vertex 1.6817 -12.318 1.5
      vertex 1.62346 -12.2561 3
      vertex 1.62346 -12.2561 1.5
    endloop
  endfacet
  facet normal -0.727984 -0.685594 0
    outer loop
      vertex 1.62346 -12.2561 3
      vertex 1.6817 -12.318 1.5
      vertex 1.6817 -12.318 3
    endloop
  endfacet
  facet normal -0.63967 -0.768649 0
    outer loop
      vertex 1.6817 -12.318 1.5
      vertex 1.74681 -12.3721 3
      vertex 1.6817 -12.318 3
    endloop
  endfacet
  facet normal -0.63967 -0.768649 -0
    outer loop
      vertex 1.74681 -12.3721 3
      vertex 1.6817 -12.318 1.5
      vertex 1.74681 -12.3721 1.5
    endloop
  endfacet
  facet normal -0.543079 -0.839681 0
    outer loop
      vertex 1.74681 -12.3721 1.5
      vertex 1.81787 -12.4181 3
      vertex 1.74681 -12.3721 3
    endloop
  endfacet
  facet normal -0.543079 -0.839681 -0
    outer loop
      vertex 1.81787 -12.4181 3
      vertex 1.74681 -12.3721 1.5
      vertex 1.81787 -12.4181 1.5
    endloop
  endfacet
  facet normal -0.438768 -0.898601 0
    outer loop
      vertex 1.81787 -12.4181 1.5
      vertex 1.89403 -12.4553 3
      vertex 1.81787 -12.4181 3
    endloop
  endfacet
  facet normal -0.438768 -0.898601 -0
    outer loop
      vertex 1.89403 -12.4553 3
      vertex 1.81787 -12.4181 1.5
      vertex 1.89403 -12.4553 1.5
    endloop
  endfacet
  facet normal -0.32772 -0.944775 0
    outer loop
      vertex 1.89403 -12.4553 1.5
      vertex 1.9744 -12.4832 3
      vertex 1.89403 -12.4553 3
    endloop
  endfacet
  facet normal -0.32772 -0.944775 -0
    outer loop
      vertex 1.9744 -12.4832 3
      vertex 1.89403 -12.4553 1.5
      vertex 1.9744 -12.4832 1.5
    endloop
  endfacet
  facet normal -0.21032 -0.977633 0
    outer loop
      vertex 1.9744 -12.4832 1.5
      vertex 2.05809 -12.5012 3
      vertex 1.9744 -12.4832 3
    endloop
  endfacet
  facet normal -0.21032 -0.977633 -0
    outer loop
      vertex 2.05809 -12.5012 3
      vertex 1.9744 -12.4832 1.5
      vertex 2.05809 -12.5012 1.5
    endloop
  endfacet
  facet normal -0.100466 -0.994941 0
    outer loop
      vertex 2.05809 -12.5012 1.5
      vertex 2.12685 -12.5081 3
      vertex 2.05809 -12.5012 3
    endloop
  endfacet
  facet normal -0.100466 -0.994941 -0
    outer loop
      vertex 2.12685 -12.5081 3
      vertex 2.05809 -12.5012 1.5
      vertex 2.12685 -12.5081 1.5
    endloop
  endfacet
  facet normal 0.932334 -0.361598 0
    outer loop
      vertex -1.57831 -5.32199 3
      vertex 1.46469 2.52399 1.5
      vertex 1.46469 2.52399 3
    endloop
  endfacet
  facet normal 0.932334 -0.361598 0
    outer loop
      vertex 1.46469 2.52399 1.5
      vertex -1.57831 -5.32199 3
      vertex -1.57831 -5.32199 1.5
    endloop
  endfacet
  facet normal -1 0 0
    outer loop
      vertex 1.46469 -5.32199 1.5
      vertex 1.46469 2.52399 3
      vertex 1.46469 2.52399 1.5
    endloop
  endfacet
  facet normal -1 -0 0
    outer loop
      vertex 1.46469 2.52399 3
      vertex 1.46469 -5.32199 1.5
      vertex 1.46469 -5.32199 3
    endloop
  endfacet
  facet normal 0 1 -0
    outer loop
      vertex 1.46469 -5.32199 1.5
      vertex -1.57831 -5.32199 3
      vertex 1.46469 -5.32199 3
    endloop
  endfacet
  facet normal 0 1 0
    outer loop
      vertex -1.57831 -5.32199 3
      vertex 1.46469 -5.32199 1.5
      vertex -1.57831 -5.32199 1.5
    endloop
  endfacet
endsolid OpenSCAD_Model
