solid OpenSCAD_Model
  facet normal -1 0 0
    outer loop
      vertex -14 -14 0.5
      vertex -14 14 1.5
      vertex -14 14 0.5
    endloop
  endfacet
  facet normal -1 -0 0
    outer loop
      vertex -14 14 1.5
      vertex -14 -14 0.5
      vertex -14 -14 1.5
    endloop
  endfacet
  facet normal 0 0 1
    outer loop
      vertex -5.46487 9.30281 1.5
      vertex -5.01053 -11.8824 1.5
      vertex -5.38335 9.28481 1.5
    endloop
  endfacet
  facet normal 0 0 1
    outer loop
      vertex -5.38335 9.28481 1.5
      vertex -5.01053 -11.8824 1.5
      vertex -5.29829 9.27721 1.5
    endloop
  endfacet
  facet normal 0 0 1
    outer loop
      vertex -5.29829 9.27721 1.5
      vertex -5.01053 -11.8824 1.5
      vertex 1.42906 9.27699 1.5
    endloop
  endfacet
  facet normal 0 0 1
    outer loop
      vertex 6.25894 12.597 1.5
      vertex 14 14 1.5
      vertex 6.26443 12.6841 1.5
    endloop
  endfacet
  facet normal 0 0 1
    outer loop
      vertex 14 14 1.5
      vertex 6.25935 12.7658 1.5
      vertex 6.26443 12.6841 1.5
    endloop
  endfacet
  facet normal 0 0 1
    outer loop
      vertex 14 14 1.5
      vertex 6.24394 12.8414 1.5
      vertex 6.25935 12.7658 1.5
    endloop
  endfacet
  facet normal 0 0 1
    outer loop
      vertex 14 14 1.5
      vertex 6.21838 12.9105 1.5
      vertex 6.24394 12.8414 1.5
    endloop
  endfacet
  facet normal 0 0 1
    outer loop
      vertex 14 14 1.5
      vertex 6.18295 12.9725 1.5
      vertex 6.21838 12.9105 1.5
    endloop
  endfacet
  facet normal 0 0 1
    outer loop
      vertex 14 14 1.5
      vertex 6.14763 13.0166 1.5
      vertex 6.18295 12.9725 1.5
    endloop
  endfacet
  facet normal 0 0 1
    outer loop
      vertex 14 14 1.5
      vertex 6.09494 13.0643 1.5
      vertex 6.14763 13.0166 1.5
    endloop
  endfacet
  facet normal 0 0 1
    outer loop
      vertex 14 14 1.5
      vertex 6.04611 13.0963 1.5
      vertex 6.09494 13.0643 1.5
    endloop
  endfacet
  facet normal 0 0 1
    outer loop
      vertex 14 14 1.5
      vertex 5.9769 13.1281 1.5
      vertex 6.04611 13.0963 1.5
    endloop
  endfacet
  facet normal 0 0 1
    outer loop
      vertex 14 14 1.5
      vertex 5.89883 13.1501 1.5
      vertex 5.9769 13.1281 1.5
    endloop
  endfacet
  facet normal 0 0 1
    outer loop
      vertex 14 14 1.5
      vertex 5.81213 13.162 1.5
      vertex 5.89883 13.1501 1.5
    endloop
  endfacet
  facet normal 0 0 1
    outer loop
      vertex 14 14 1.5
      vertex 5.75606 13.164 1.5
      vertex 5.81213 13.162 1.5
    endloop
  endfacet
  facet normal 0 0 1
    outer loop
      vertex 14 14 1.5
      vertex -5.31555 13.163 1.5
      vertex 5.75606 13.164 1.5
    endloop
  endfacet
  facet normal 0 0 1
    outer loop
      vertex -5.93312 12.5704 1.5
      vertex -14 14 1.5
      vertex -5.9407 12.4844 1.5
    endloop
  endfacet
  facet normal 0 0 1
    outer loop
      vertex -5.91522 12.6539 1.5
      vertex -14 14 1.5
      vertex -5.93312 12.5704 1.5
    endloop
  endfacet
  facet normal 0 0 1
    outer loop
      vertex -5.88107 12.7498 1.5
      vertex -14 14 1.5
      vertex -5.91522 12.6539 1.5
    endloop
  endfacet
  facet normal 0 0 1
    outer loop
      vertex -5.83417 12.8394 1.5
      vertex -14 14 1.5
      vertex -5.88107 12.7498 1.5
    endloop
  endfacet
  facet normal 0 0 1
    outer loop
      vertex -5.7757 12.9213 1.5
      vertex -14 14 1.5
      vertex -5.83417 12.8394 1.5
    endloop
  endfacet
  facet normal 0 0 1
    outer loop
      vertex -5.70677 12.9938 1.5
      vertex -14 14 1.5
      vertex -5.7757 12.9213 1.5
    endloop
  endfacet
  facet normal 0 0 1
    outer loop
      vertex -5.62856 13.0555 1.5
      vertex -14 14 1.5
      vertex -5.70677 12.9938 1.5
    endloop
  endfacet
  facet normal 0 0 1
    outer loop
      vertex -5.55713 13.0975 1.5
      vertex -14 14 1.5
      vertex -5.62856 13.0555 1.5
    endloop
  endfacet
  facet normal 0 0 1
    outer loop
      vertex -5.4807 13.13 1.5
      vertex -14 14 1.5
      vertex -5.55713 13.0975 1.5
    endloop
  endfacet
  facet normal 0 0 1
    outer loop
      vertex -5.39995 13.1521 1.5
      vertex -14 14 1.5
      vertex -5.4807 13.13 1.5
    endloop
  endfacet
  facet normal 0 0 1
    outer loop
      vertex -5.31555 13.163 1.5
      vertex -14 14 1.5
      vertex -5.39995 13.1521 1.5
    endloop
  endfacet
  facet normal -0 0 1
    outer loop
      vertex -14 14 1.5
      vertex -5.31555 13.163 1.5
      vertex 14 14 1.5
    endloop
  endfacet
  facet normal 0 0 1
    outer loop
      vertex 6.23807 12.4861 1.5
      vertex 14 14 1.5
      vertex 6.25894 12.597 1.5
    endloop
  endfacet
  facet normal 0 0 1
    outer loop
      vertex 14 14 1.5
      vertex 6.23807 12.4861 1.5
      vertex 14 -14 1.5
    endloop
  endfacet
  facet normal -0 0 1
    outer loop
      vertex -1.13693 -11.807 1.5
      vertex 14 -14 1.5
      vertex 6.23807 12.4861 1.5
    endloop
  endfacet
  facet normal -0 0 1
    outer loop
      vertex -1.15941 -11.8638 1.5
      vertex 14 -14 1.5
      vertex -1.13693 -11.807 1.5
    endloop
  endfacet
  facet normal -0 0 1
    outer loop
      vertex -1.21286 -11.9724 1.5
      vertex 14 -14 1.5
      vertex -1.15941 -11.8638 1.5
    endloop
  endfacet
  facet normal -0 0 1
    outer loop
      vertex -1.27686 -12.0737 1.5
      vertex 14 -14 1.5
      vertex -1.21286 -11.9724 1.5
    endloop
  endfacet
  facet normal -0 0 1
    outer loop
      vertex -1.35045 -12.1665 1.5
      vertex 14 -14 1.5
      vertex -1.27686 -12.0737 1.5
    endloop
  endfacet
  facet normal -0 0 1
    outer loop
      vertex -1.43266 -12.2501 1.5
      vertex 14 -14 1.5
      vertex -1.35045 -12.1665 1.5
    endloop
  endfacet
  facet normal -0 0 1
    outer loop
      vertex -1.52257 -12.3234 1.5
      vertex 14 -14 1.5
      vertex -1.43266 -12.2501 1.5
    endloop
  endfacet
  facet normal -0 0 1
    outer loop
      vertex -1.6192 -12.3855 1.5
      vertex 14 -14 1.5
      vertex -1.52257 -12.3234 1.5
    endloop
  endfacet
  facet normal -0 0 1
    outer loop
      vertex -1.7216 -12.4355 1.5
      vertex 14 -14 1.5
      vertex -1.6192 -12.3855 1.5
    endloop
  endfacet
  facet normal -0 0 1
    outer loop
      vertex -1.82883 -12.4724 1.5
      vertex 14 -14 1.5
      vertex -1.7216 -12.4355 1.5
    endloop
  endfacet
  facet normal -0 0 1
    outer loop
      vertex -1.92117 -12.4924 1.5
      vertex 14 -14 1.5
      vertex -1.82883 -12.4724 1.5
    endloop
  endfacet
  facet normal -0 0 1
    outer loop
      vertex -2.01566 -12.5021 1.5
      vertex 14 -14 1.5
      vertex -1.92117 -12.4924 1.5
    endloop
  endfacet
  facet normal 0 0 1
    outer loop
      vertex -14 -14 1.5
      vertex -2.01566 -12.5021 1.5
      vertex -4.54875 -12.5021 1.5
    endloop
  endfacet
  facet normal 0 0 1
    outer loop
      vertex -5.54222 9.33069 1.5
      vertex -5.01053 -11.8824 1.5
      vertex -5.46487 9.30281 1.5
    endloop
  endfacet
  facet normal 0 0 1
    outer loop
      vertex -5.6147 9.36787 1.5
      vertex -5.01053 -11.8824 1.5
      vertex -5.54222 9.33069 1.5
    endloop
  endfacet
  facet normal 0 0 1
    outer loop
      vertex -14 -14 1.5
      vertex -5.01053 -11.8824 1.5
      vertex -5.6147 9.36787 1.5
    endloop
  endfacet
  facet normal 0 0 1
    outer loop
      vertex -5.01053 -11.8824 1.5
      vertex -14 -14 1.5
      vertex -5.028 -11.9724 1.5
    endloop
  endfacet
  facet normal 0 0 1
    outer loop
      vertex -14 -14 1.5
      vertex -5.6147 9.36787 1.5
      vertex -5.68167 9.41383 1.5
    endloop
  endfacet
  facet normal 0 0 1
    outer loop
      vertex -14 -14 1.5
      vertex -5.68167 9.41383 1.5
      vertex -5.74246 9.46802 1.5
    endloop
  endfacet
  facet normal 0 0 1
    outer loop
      vertex -14 14 1.5
      vertex -5.74246 9.46802 1.5
      vertex -5.7964 9.52986 1.5
    endloop
  endfacet
  facet normal 0 0 1
    outer loop
      vertex -14 14 1.5
      vertex -5.7964 9.52986 1.5
      vertex -5.84282 9.59883 1.5
    endloop
  endfacet
  facet normal 0 0 1
    outer loop
      vertex -14 14 1.5
      vertex -5.84282 9.59883 1.5
      vertex -5.88107 9.67438 1.5
    endloop
  endfacet
  facet normal 0 0 1
    outer loop
      vertex -14 14 1.5
      vertex -5.88107 9.67438 1.5
      vertex -5.91046 9.75595 1.5
    endloop
  endfacet
  facet normal 0 0 1
    outer loop
      vertex -14 14 1.5
      vertex -5.91046 9.75595 1.5
      vertex -5.93034 9.84299 1.5
    endloop
  endfacet
  facet normal 0 0 1
    outer loop
      vertex -14 14 1.5
      vertex -5.93034 9.84299 1.5
      vertex -5.94005 9.93495 1.5
    endloop
  endfacet
  facet normal 0 0 1
    outer loop
      vertex -14 14 1.5
      vertex -5.94005 9.93495 1.5
      vertex -5.9407 12.4844 1.5
    endloop
  endfacet
  facet normal 0 0 1
    outer loop
      vertex -5.74246 9.46802 1.5
      vertex -14 14 1.5
      vertex -14 -14 1.5
    endloop
  endfacet
  facet normal 0 0 1
    outer loop
      vertex -5.028 -11.9724 1.5
      vertex -14 -14 1.5
      vertex -5.03258 -12.0574 1.5
    endloop
  endfacet
  facet normal 0 0 1
    outer loop
      vertex -5.03258 -12.0574 1.5
      vertex -14 -14 1.5
      vertex -5.02734 -12.1212 1.5
    endloop
  endfacet
  facet normal 0 0 1
    outer loop
      vertex -2.01566 -12.5021 1.5
      vertex -14 -14 1.5
      vertex 14 -14 1.5
    endloop
  endfacet
  facet normal 0 0 1
    outer loop
      vertex -4.62093 -12.4952 1.5
      vertex -14 -14 1.5
      vertex -4.54875 -12.5021 1.5
    endloop
  endfacet
  facet normal 0 0 1
    outer loop
      vertex -4.7043 -12.4772 1.5
      vertex -14 -14 1.5
      vertex -4.62093 -12.4952 1.5
    endloop
  endfacet
  facet normal 0 0 1
    outer loop
      vertex -4.77956 -12.4493 1.5
      vertex -14 -14 1.5
      vertex -4.7043 -12.4772 1.5
    endloop
  endfacet
  facet normal 0 0 1
    outer loop
      vertex -4.84612 -12.4121 1.5
      vertex -14 -14 1.5
      vertex -4.77956 -12.4493 1.5
    endloop
  endfacet
  facet normal 0 0 1
    outer loop
      vertex -4.89275 -12.376 1.5
      vertex -14 -14 1.5
      vertex -4.84612 -12.4121 1.5
    endloop
  endfacet
  facet normal 0 0 1
    outer loop
      vertex -4.93317 -12.3346 1.5
      vertex -14 -14 1.5
      vertex -4.89275 -12.376 1.5
    endloop
  endfacet
  facet normal 0 0 1
    outer loop
      vertex -4.96713 -12.2881 1.5
      vertex -14 -14 1.5
      vertex -4.93317 -12.3346 1.5
    endloop
  endfacet
  facet normal 0 0 1
    outer loop
      vertex -4.99434 -12.2369 1.5
      vertex -14 -14 1.5
      vertex -4.96713 -12.2881 1.5
    endloop
  endfacet
  facet normal 0 0 1
    outer loop
      vertex -5.0145 -12.1812 1.5
      vertex -14 -14 1.5
      vertex -4.99434 -12.2369 1.5
    endloop
  endfacet
  facet normal 0 0 1
    outer loop
      vertex -5.02734 -12.1212 1.5
      vertex -14 -14 1.5
      vertex -5.0145 -12.1812 1.5
    endloop
  endfacet
  facet normal 1 -0 0
    outer loop
      vertex 14 -14 1.5
      vertex 14 14 0.5
      vertex 14 14 1.5
    endloop
  endfacet
  facet normal 1 0 0
    outer loop
      vertex 14 14 0.5
      vertex 14 -14 1.5
      vertex 14 -14 0.5
    endloop
  endfacet
  facet normal 0 1 -0
    outer loop
      vertex 14 14 0.5
      vertex -14 14 1.5
      vertex 14 14 1.5
    endloop
  endfacet
  facet normal 0 1 0
    outer loop
      vertex -14 14 1.5
      vertex 14 14 0.5
      vertex -14 14 0.5
    endloop
  endfacet
  facet normal 0 0 -1
    outer loop
      vertex -14 -14 0.5
      vertex 14 14 0.5
      vertex 14 -14 0.5
    endloop
  endfacet
  facet normal -0 0 -1
    outer loop
      vertex 14 14 0.5
      vertex -14 -14 0.5
      vertex -14 14 0.5
    endloop
  endfacet
  facet normal 0 -1 0
    outer loop
      vertex -14 -14 0.5
      vertex 14 -14 1.5
      vertex -14 -14 1.5
    endloop
  endfacet
  facet normal 0 -1 -0
    outer loop
      vertex 14 -14 1.5
      vertex -14 -14 0.5
      vertex 14 -14 0.5
    endloop
  endfacet
  facet normal -0 0 1
    outer loop
      vertex -5.31555 13.163 3
      vertex 1.42906 9.27699 3
      vertex 5.75606 13.164 3
    endloop
  endfacet
  facet normal 0 0 1
    outer loop
      vertex 1.42906 9.27699 3
      vertex -5.31555 13.163 3
      vertex -5.29829 9.27721 3
    endloop
  endfacet
  facet normal -0 0 1
    outer loop
      vertex -5.9407 12.4844 3
      vertex -5.29829 9.27721 3
      vertex -5.31555 13.163 3
    endloop
  endfacet
  facet normal 0 0 1
    outer loop
      vertex -5.70677 12.9938 3
      vertex -5.31555 13.163 3
      vertex -5.39995 13.1521 3
    endloop
  endfacet
  facet normal 0 0 1
    outer loop
      vertex -5.29829 9.27721 3
      vertex -5.9407 12.4844 3
      vertex -5.94005 9.93495 3
    endloop
  endfacet
  facet normal 0 0 1
    outer loop
      vertex -5.70677 12.9938 3
      vertex -5.39995 13.1521 3
      vertex -5.4807 13.13 3
    endloop
  endfacet
  facet normal 0 0 1
    outer loop
      vertex -5.29829 9.27721 3
      vertex -5.94005 9.93495 3
      vertex -5.38335 9.28481 3
    endloop
  endfacet
  facet normal 0 0 1
    outer loop
      vertex -5.62856 13.0555 3
      vertex -5.4807 13.13 3
      vertex -5.55713 13.0975 3
    endloop
  endfacet
  facet normal 0 0 1
    outer loop
      vertex -5.38335 9.28481 3
      vertex -5.94005 9.93495 3
      vertex -5.46487 9.30281 3
    endloop
  endfacet
  facet normal 0 0 1
    outer loop
      vertex -5.70677 12.9938 3
      vertex -5.4807 13.13 3
      vertex -5.62856 13.0555 3
    endloop
  endfacet
  facet normal 0 0 1
    outer loop
      vertex -5.46487 9.30281 3
      vertex -5.94005 9.93495 3
      vertex -5.54222 9.33069 3
    endloop
  endfacet
  facet normal 0 0 1
    outer loop
      vertex -5.31555 13.163 3
      vertex -5.70677 12.9938 3
      vertex -5.7757 12.9213 3
    endloop
  endfacet
  facet normal 0 0 1
    outer loop
      vertex -5.54222 9.33069 3
      vertex -5.94005 9.93495 3
      vertex -5.6147 9.36787 3
    endloop
  endfacet
  facet normal 0 0 1
    outer loop
      vertex -5.31555 13.163 3
      vertex -5.7757 12.9213 3
      vertex -5.83417 12.8394 3
    endloop
  endfacet
  facet normal 0 0 1
    outer loop
      vertex -5.6147 9.36787 3
      vertex -5.94005 9.93495 3
      vertex -5.68167 9.41383 3
    endloop
  endfacet
  facet normal 0 0 1
    outer loop
      vertex -5.31555 13.163 3
      vertex -5.83417 12.8394 3
      vertex -5.9407 12.4844 3
    endloop
  endfacet
  facet normal 0 0 1
    outer loop
      vertex -5.68167 9.41383 3
      vertex -5.94005 9.93495 3
      vertex -5.74246 9.46802 3
    endloop
  endfacet
  facet normal 0 0 1
    outer loop
      vertex -5.9407 12.4844 3
      vertex -5.83417 12.8394 3
      vertex -5.88107 12.7498 3
    endloop
  endfacet
  facet normal 0 0 1
    outer loop
      vertex -5.74246 9.46802 3
      vertex -5.94005 9.93495 3
      vertex -5.7964 9.52986 3
    endloop
  endfacet
  facet normal 0 0 1
    outer loop
      vertex -5.84282 9.59883 3
      vertex -5.94005 9.93495 3
      vertex -5.88107 9.67438 3
    endloop
  endfacet
  facet normal 0 0 1
    outer loop
      vertex -5.9407 12.4844 3
      vertex -5.88107 12.7498 3
      vertex -5.91522 12.6539 3
    endloop
  endfacet
  facet normal 0 0 1
    outer loop
      vertex -5.7964 9.52986 3
      vertex -5.94005 9.93495 3
      vertex -5.84282 9.59883 3
    endloop
  endfacet
  facet normal 0 0 1
    outer loop
      vertex -5.9407 12.4844 3
      vertex -5.91522 12.6539 3
      vertex -5.93312 12.5704 3
    endloop
  endfacet
  facet normal 0 0 1
    outer loop
      vertex -5.88107 9.67438 3
      vertex -5.94005 9.93495 3
      vertex -5.91046 9.75595 3
    endloop
  endfacet
  facet normal 0 0 1
    outer loop
      vertex -5.91046 9.75595 3
      vertex -5.94005 9.93495 3
      vertex -5.93034 9.84299 3
    endloop
  endfacet
  facet normal 0 0 1
    outer loop
      vertex 5.89883 13.1501 3
      vertex 6.26443 12.6841 3
      vertex 6.25935 12.7658 3
    endloop
  endfacet
  facet normal 0 0 1
    outer loop
      vertex 5.89883 13.1501 3
      vertex 6.25935 12.7658 3
      vertex 6.24394 12.8414 3
    endloop
  endfacet
  facet normal 0 0 1
    outer loop
      vertex 5.81213 13.162 3
      vertex 6.26443 12.6841 3
      vertex 5.89883 13.1501 3
    endloop
  endfacet
  facet normal 0 0 1
    outer loop
      vertex 5.9769 13.1281 3
      vertex 6.24394 12.8414 3
      vertex 6.21838 12.9105 3
    endloop
  endfacet
  facet normal 0 0 1
    outer loop
      vertex 6.04611 13.0963 3
      vertex 6.21838 12.9105 3
      vertex 6.18295 12.9725 3
    endloop
  endfacet
  facet normal 0 0 1
    outer loop
      vertex 6.04611 13.0963 3
      vertex 6.18295 12.9725 3
      vertex 6.14763 13.0166 3
    endloop
  endfacet
  facet normal 0 0 1
    outer loop
      vertex 6.04611 13.0963 3
      vertex 6.14763 13.0166 3
      vertex 6.09494 13.0643 3
    endloop
  endfacet
  facet normal 0 0 1
    outer loop
      vertex 6.21838 12.9105 3
      vertex 6.04611 13.0963 3
      vertex 5.9769 13.1281 3
    endloop
  endfacet
  facet normal 0 0 1
    outer loop
      vertex 6.24394 12.8414 3
      vertex 5.9769 13.1281 3
      vertex 5.89883 13.1501 3
    endloop
  endfacet
  facet normal 0 0 1
    outer loop
      vertex 6.26443 12.6841 3
      vertex 5.81213 13.162 3
      vertex 6.25894 12.597 3
    endloop
  endfacet
  facet normal 0 0 1
    outer loop
      vertex 5.75606 13.164 3
      vertex 6.25894 12.597 3
      vertex 5.81213 13.162 3
    endloop
  endfacet
  facet normal 0 0 1
    outer loop
      vertex 6.25894 12.597 3
      vertex 5.75606 13.164 3
      vertex 6.23807 12.4861 3
    endloop
  endfacet
  facet normal 0 0 1
    outer loop
      vertex 1.42906 9.27699 3
      vertex 6.23807 12.4861 3
      vertex 5.75606 13.164 3
    endloop
  endfacet
  facet normal -0 0 1
    outer loop
      vertex 1.42906 9.27699 3
      vertex -1.13693 -11.807 3
      vertex 6.23807 12.4861 3
    endloop
  endfacet
  facet normal 0 0 1
    outer loop
      vertex -5.01053 -11.8824 3
      vertex -1.13693 -11.807 3
      vertex 1.42906 9.27699 3
    endloop
  endfacet
  facet normal 0 -0 1
    outer loop
      vertex -2.01566 -12.5021 3
      vertex -1.13693 -11.807 3
      vertex -5.01053 -11.8824 3
    endloop
  endfacet
  facet normal 0 0 1
    outer loop
      vertex -1.13693 -11.807 3
      vertex -2.01566 -12.5021 3
      vertex -1.15941 -11.8638 3
    endloop
  endfacet
  facet normal 0 0 1
    outer loop
      vertex -1.15941 -11.8638 3
      vertex -2.01566 -12.5021 3
      vertex -1.21286 -11.9724 3
    endloop
  endfacet
  facet normal 0 0 1
    outer loop
      vertex -1.21286 -11.9724 3
      vertex -2.01566 -12.5021 3
      vertex -1.27686 -12.0737 3
    endloop
  endfacet
  facet normal 0 0 1
    outer loop
      vertex -1.27686 -12.0737 3
      vertex -2.01566 -12.5021 3
      vertex -1.35045 -12.1665 3
    endloop
  endfacet
  facet normal 0 0 1
    outer loop
      vertex -1.35045 -12.1665 3
      vertex -2.01566 -12.5021 3
      vertex -1.43266 -12.2501 3
    endloop
  endfacet
  facet normal 0 0 1
    outer loop
      vertex -1.43266 -12.2501 3
      vertex -2.01566 -12.5021 3
      vertex -1.52257 -12.3234 3
    endloop
  endfacet
  facet normal 0 0 1
    outer loop
      vertex -1.52257 -12.3234 3
      vertex -2.01566 -12.5021 3
      vertex -1.6192 -12.3855 3
    endloop
  endfacet
  facet normal 0 0 1
    outer loop
      vertex -1.6192 -12.3855 3
      vertex -2.01566 -12.5021 3
      vertex -1.7216 -12.4355 3
    endloop
  endfacet
  facet normal 0 0 1
    outer loop
      vertex -1.7216 -12.4355 3
      vertex -2.01566 -12.5021 3
      vertex -1.82883 -12.4724 3
    endloop
  endfacet
  facet normal 0 0 1
    outer loop
      vertex -1.82883 -12.4724 3
      vertex -2.01566 -12.5021 3
      vertex -1.92117 -12.4924 3
    endloop
  endfacet
  facet normal 0 0 1
    outer loop
      vertex -2.01566 -12.5021 3
      vertex -5.01053 -11.8824 3
      vertex -4.54875 -12.5021 3
    endloop
  endfacet
  facet normal 0 0 1
    outer loop
      vertex -4.54875 -12.5021 3
      vertex -5.01053 -11.8824 3
      vertex -4.62093 -12.4952 3
    endloop
  endfacet
  facet normal -0 0 1
    outer loop
      vertex -5.028 -11.9724 3
      vertex -4.62093 -12.4952 3
      vertex -5.01053 -11.8824 3
    endloop
  endfacet
  facet normal 0 0 1
    outer loop
      vertex -4.62093 -12.4952 3
      vertex -5.028 -11.9724 3
      vertex -4.7043 -12.4772 3
    endloop
  endfacet
  facet normal -0 0 1
    outer loop
      vertex -5.03258 -12.0574 3
      vertex -4.7043 -12.4772 3
      vertex -5.028 -11.9724 3
    endloop
  endfacet
  facet normal 0 0 1
    outer loop
      vertex -4.7043 -12.4772 3
      vertex -5.03258 -12.0574 3
      vertex -4.77956 -12.4493 3
    endloop
  endfacet
  facet normal 0 0 1
    outer loop
      vertex -4.77956 -12.4493 3
      vertex -5.03258 -12.0574 3
      vertex -4.84612 -12.4121 3
    endloop
  endfacet
  facet normal 0 0 1
    outer loop
      vertex -4.84612 -12.4121 3
      vertex -5.03258 -12.0574 3
      vertex -4.89275 -12.376 3
    endloop
  endfacet
  facet normal 0 0 1
    outer loop
      vertex -4.89275 -12.376 3
      vertex -5.03258 -12.0574 3
      vertex -4.93317 -12.3346 3
    endloop
  endfacet
  facet normal 0 0 1
    outer loop
      vertex -4.93317 -12.3346 3
      vertex -5.03258 -12.0574 3
      vertex -4.96713 -12.2881 3
    endloop
  endfacet
  facet normal 0 0 1
    outer loop
      vertex -4.96713 -12.2881 3
      vertex -5.03258 -12.0574 3
      vertex -4.99434 -12.2369 3
    endloop
  endfacet
  facet normal 0 0 1
    outer loop
      vertex -4.99434 -12.2369 3
      vertex -5.03258 -12.0574 3
      vertex -5.0145 -12.1812 3
    endloop
  endfacet
  facet normal 0 0 1
    outer loop
      vertex -5.0145 -12.1812 3
      vertex -5.03258 -12.0574 3
      vertex -5.02734 -12.1212 3
    endloop
  endfacet
  facet normal 0 -1 0
    outer loop
      vertex -4.54875 -12.5021 1.5
      vertex -2.01566 -12.5021 3
      vertex -4.54875 -12.5021 3
    endloop
  endfacet
  facet normal 0 -1 -0
    outer loop
      vertex -2.01566 -12.5021 3
      vertex -4.54875 -12.5021 1.5
      vertex -2.01566 -12.5021 1.5
    endloop
  endfacet
  facet normal 0.102335 -0.99475 0
    outer loop
      vertex -2.01566 -12.5021 1.5
      vertex -1.92117 -12.4924 3
      vertex -2.01566 -12.5021 3
    endloop
  endfacet
  facet normal 0.102335 -0.99475 0
    outer loop
      vertex -1.92117 -12.4924 3
      vertex -2.01566 -12.5021 1.5
      vertex -1.92117 -12.4924 1.5
    endloop
  endfacet
  facet normal 0.211866 -0.977299 0
    outer loop
      vertex -1.92117 -12.4924 1.5
      vertex -1.82883 -12.4724 3
      vertex -1.92117 -12.4924 3
    endloop
  endfacet
  facet normal 0.211866 -0.977299 0
    outer loop
      vertex -1.82883 -12.4724 3
      vertex -1.92117 -12.4924 1.5
      vertex -1.82883 -12.4724 1.5
    endloop
  endfacet
  facet normal 0.325136 -0.945667 0
    outer loop
      vertex -1.82883 -12.4724 1.5
      vertex -1.7216 -12.4355 3
      vertex -1.82883 -12.4724 3
    endloop
  endfacet
  facet normal 0.325136 -0.945667 0
    outer loop
      vertex -1.7216 -12.4355 3
      vertex -1.82883 -12.4724 1.5
      vertex -1.7216 -12.4355 1.5
    endloop
  endfacet
  facet normal 0.438461 -0.89875 0
    outer loop
      vertex -1.7216 -12.4355 1.5
      vertex -1.6192 -12.3855 3
      vertex -1.7216 -12.4355 3
    endloop
  endfacet
  facet normal 0.438461 -0.89875 0
    outer loop
      vertex -1.6192 -12.3855 3
      vertex -1.7216 -12.4355 1.5
      vertex -1.6192 -12.3855 1.5
    endloop
  endfacet
  facet normal 0.540643 -0.841252 0
    outer loop
      vertex -1.6192 -12.3855 1.5
      vertex -1.52257 -12.3234 3
      vertex -1.6192 -12.3855 3
    endloop
  endfacet
  facet normal 0.540643 -0.841252 0
    outer loop
      vertex -1.52257 -12.3234 3
      vertex -1.6192 -12.3855 1.5
      vertex -1.52257 -12.3234 1.5
    endloop
  endfacet
  facet normal 0.631998 -0.77497 0
    outer loop
      vertex -1.52257 -12.3234 1.5
      vertex -1.43266 -12.2501 3
      vertex -1.52257 -12.3234 3
    endloop
  endfacet
  facet normal 0.631998 -0.77497 0
    outer loop
      vertex -1.43266 -12.2501 3
      vertex -1.52257 -12.3234 1.5
      vertex -1.43266 -12.2501 1.5
    endloop
  endfacet
  facet normal 0.712875 -0.701291 0
    outer loop
      vertex -1.43266 -12.2501 3
      vertex -1.35045 -12.1665 1.5
      vertex -1.35045 -12.1665 3
    endloop
  endfacet
  facet normal 0.712875 -0.701291 0
    outer loop
      vertex -1.35045 -12.1665 1.5
      vertex -1.43266 -12.2501 3
      vertex -1.43266 -12.2501 1.5
    endloop
  endfacet
  facet normal 0.783787 -0.621029 0
    outer loop
      vertex -1.35045 -12.1665 3
      vertex -1.27686 -12.0737 1.5
      vertex -1.27686 -12.0737 3
    endloop
  endfacet
  facet normal 0.783787 -0.621029 0
    outer loop
      vertex -1.27686 -12.0737 1.5
      vertex -1.35045 -12.1665 3
      vertex -1.35045 -12.1665 1.5
    endloop
  endfacet
  facet normal 0.845253 -0.534367 0
    outer loop
      vertex -1.27686 -12.0737 3
      vertex -1.21286 -11.9724 1.5
      vertex -1.21286 -11.9724 3
    endloop
  endfacet
  facet normal 0.845253 -0.534367 0
    outer loop
      vertex -1.21286 -11.9724 1.5
      vertex -1.27686 -12.0737 3
      vertex -1.27686 -12.0737 1.5
    endloop
  endfacet
  facet normal 0.897282 -0.441458 0
    outer loop
      vertex -1.21286 -11.9724 3
      vertex -1.15941 -11.8638 1.5
      vertex -1.15941 -11.8638 3
    endloop
  endfacet
  facet normal 0.897282 -0.441458 0
    outer loop
      vertex -1.15941 -11.8638 1.5
      vertex -1.21286 -11.9724 3
      vertex -1.21286 -11.9724 1.5
    endloop
  endfacet
  facet normal 0.929865 -0.3679 0
    outer loop
      vertex -1.15941 -11.8638 3
      vertex -1.13693 -11.807 1.5
      vertex -1.13693 -11.807 3
    endloop
  endfacet
  facet normal 0.929865 -0.3679 0
    outer loop
      vertex -1.13693 -11.807 1.5
      vertex -1.15941 -11.8638 3
      vertex -1.15941 -11.8638 1.5
    endloop
  endfacet
  facet normal 0.956877 -0.290493 0
    outer loop
      vertex -1.13693 -11.807 3
      vertex 6.23807 12.4861 1.5
      vertex 6.23807 12.4861 3
    endloop
  endfacet
  facet normal 0.956877 -0.290493 0
    outer loop
      vertex 6.23807 12.4861 1.5
      vertex -1.13693 -11.807 3
      vertex -1.13693 -11.807 1.5
    endloop
  endfacet
  facet normal 0.982753 -0.184925 0
    outer loop
      vertex 6.23807 12.4861 3
      vertex 6.25894 12.597 1.5
      vertex 6.25894 12.597 3
    endloop
  endfacet
  facet normal 0.982753 -0.184925 0
    outer loop
      vertex 6.25894 12.597 1.5
      vertex 6.23807 12.4861 3
      vertex 6.23807 12.4861 1.5
    endloop
  endfacet
  facet normal 0.998018 -0.0629333 0
    outer loop
      vertex 6.25894 12.597 3
      vertex 6.26443 12.6841 1.5
      vertex 6.26443 12.6841 3
    endloop
  endfacet
  facet normal 0.998018 -0.0629333 0
    outer loop
      vertex 6.26443 12.6841 1.5
      vertex 6.25894 12.597 3
      vertex 6.25894 12.597 1.5
    endloop
  endfacet
  facet normal 0.998069 0.0621112 0
    outer loop
      vertex 6.26443 12.6841 3
      vertex 6.25935 12.7658 1.5
      vertex 6.25935 12.7658 3
    endloop
  endfacet
  facet normal 0.998069 0.0621112 0
    outer loop
      vertex 6.25935 12.7658 1.5
      vertex 6.26443 12.6841 3
      vertex 6.26443 12.6841 1.5
    endloop
  endfacet
  facet normal 0.979867 0.19965 0
    outer loop
      vertex 6.25935 12.7658 3
      vertex 6.24394 12.8414 1.5
      vertex 6.24394 12.8414 3
    endloop
  endfacet
  facet normal 0.979867 0.19965 0
    outer loop
      vertex 6.24394 12.8414 1.5
      vertex 6.25935 12.7658 3
      vertex 6.25935 12.7658 1.5
    endloop
  endfacet
  facet normal 0.937861 0.347011 0
    outer loop
      vertex 6.24394 12.8414 3
      vertex 6.21838 12.9105 1.5
      vertex 6.21838 12.9105 3
    endloop
  endfacet
  facet normal 0.937861 0.347011 0
    outer loop
      vertex 6.21838 12.9105 1.5
      vertex 6.24394 12.8414 3
      vertex 6.24394 12.8414 1.5
    endloop
  endfacet
  facet normal 0.868112 0.496369 0
    outer loop
      vertex 6.21838 12.9105 3
      vertex 6.18295 12.9725 1.5
      vertex 6.18295 12.9725 3
    endloop
  endfacet
  facet normal 0.868112 0.496369 0
    outer loop
      vertex 6.18295 12.9725 1.5
      vertex 6.21838 12.9105 3
      vertex 6.21838 12.9105 1.5
    endloop
  endfacet
  facet normal 0.780368 0.625321 0
    outer loop
      vertex 6.18295 12.9725 3
      vertex 6.14763 13.0166 1.5
      vertex 6.14763 13.0166 3
    endloop
  endfacet
  facet normal 0.780368 0.625321 0
    outer loop
      vertex 6.14763 13.0166 1.5
      vertex 6.18295 12.9725 3
      vertex 6.18295 12.9725 1.5
    endloop
  endfacet
  facet normal 0.671604 0.74091 -0
    outer loop
      vertex 6.14763 13.0166 1.5
      vertex 6.09494 13.0643 3
      vertex 6.14763 13.0166 3
    endloop
  endfacet
  facet normal 0.671604 0.74091 0
    outer loop
      vertex 6.09494 13.0643 3
      vertex 6.14763 13.0166 1.5
      vertex 6.09494 13.0643 1.5
    endloop
  endfacet
  facet normal 0.548108 0.836407 -0
    outer loop
      vertex 6.09494 13.0643 1.5
      vertex 6.04611 13.0963 3
      vertex 6.09494 13.0643 3
    endloop
  endfacet
  facet normal 0.548108 0.836407 0
    outer loop
      vertex 6.04611 13.0963 3
      vertex 6.09494 13.0643 1.5
      vertex 6.04611 13.0963 1.5
    endloop
  endfacet
  facet normal 0.416986 0.908913 -0
    outer loop
      vertex 6.04611 13.0963 1.5
      vertex 5.9769 13.1281 3
      vertex 6.04611 13.0963 3
    endloop
  endfacet
  facet normal 0.416986 0.908913 0
    outer loop
      vertex 5.9769 13.1281 3
      vertex 6.04611 13.0963 1.5
      vertex 5.9769 13.1281 1.5
    endloop
  endfacet
  facet normal 0.272161 0.962252 -0
    outer loop
      vertex 5.9769 13.1281 1.5
      vertex 5.89883 13.1501 3
      vertex 5.9769 13.1281 3
    endloop
  endfacet
  facet normal 0.272161 0.962252 0
    outer loop
      vertex 5.89883 13.1501 3
      vertex 5.9769 13.1281 1.5
      vertex 5.89883 13.1501 1.5
    endloop
  endfacet
  facet normal 0.135658 0.990756 -0
    outer loop
      vertex 5.89883 13.1501 1.5
      vertex 5.81213 13.162 3
      vertex 5.89883 13.1501 3
    endloop
  endfacet
  facet normal 0.135658 0.990756 0
    outer loop
      vertex 5.81213 13.162 3
      vertex 5.89883 13.1501 1.5
      vertex 5.81213 13.162 1.5
    endloop
  endfacet
  facet normal 0.0350804 0.999384 -0
    outer loop
      vertex 5.81213 13.162 1.5
      vertex 5.75606 13.164 3
      vertex 5.81213 13.162 3
    endloop
  endfacet
  facet normal 0.0350804 0.999384 0
    outer loop
      vertex 5.75606 13.164 3
      vertex 5.81213 13.162 1.5
      vertex 5.75606 13.164 1.5
    endloop
  endfacet
  facet normal -8.95824e-05 1 0
    outer loop
      vertex 5.75606 13.164 1.5
      vertex -5.31555 13.163 3
      vertex 5.75606 13.164 3
    endloop
  endfacet
  facet normal -8.95824e-05 1 0
    outer loop
      vertex -5.31555 13.163 3
      vertex 5.75606 13.164 1.5
      vertex -5.31555 13.163 1.5
    endloop
  endfacet
  facet normal -0.127499 0.991839 0
    outer loop
      vertex -5.31555 13.163 1.5
      vertex -5.39995 13.1521 3
      vertex -5.31555 13.163 3
    endloop
  endfacet
  facet normal -0.127499 0.991839 0
    outer loop
      vertex -5.39995 13.1521 3
      vertex -5.31555 13.163 1.5
      vertex -5.39995 13.1521 1.5
    endloop
  endfacet
  facet normal -0.264428 0.964405 0
    outer loop
      vertex -5.39995 13.1521 1.5
      vertex -5.4807 13.13 3
      vertex -5.39995 13.1521 3
    endloop
  endfacet
  facet normal -0.264428 0.964405 0
    outer loop
      vertex -5.4807 13.13 3
      vertex -5.39995 13.1521 1.5
      vertex -5.4807 13.13 1.5
    endloop
  endfacet
  facet normal -0.391323 0.920253 0
    outer loop
      vertex -5.4807 13.13 1.5
      vertex -5.55713 13.0975 3
      vertex -5.4807 13.13 3
    endloop
  endfacet
  facet normal -0.391323 0.920253 0
    outer loop
      vertex -5.55713 13.0975 3
      vertex -5.4807 13.13 1.5
      vertex -5.55713 13.0975 1.5
    endloop
  endfacet
  facet normal -0.506811 0.862057 0
    outer loop
      vertex -5.55713 13.0975 1.5
      vertex -5.62856 13.0555 3
      vertex -5.55713 13.0975 3
    endloop
  endfacet
  facet normal -0.506811 0.862057 0
    outer loop
      vertex -5.62856 13.0555 3
      vertex -5.55713 13.0975 1.5
      vertex -5.62856 13.0555 1.5
    endloop
  endfacet
  facet normal -0.619187 0.785243 0
    outer loop
      vertex -5.62856 13.0555 1.5
      vertex -5.70677 12.9938 3
      vertex -5.62856 13.0555 3
    endloop
  endfacet
  facet normal -0.619187 0.785243 0
    outer loop
      vertex -5.70677 12.9938 3
      vertex -5.62856 13.0555 1.5
      vertex -5.70677 12.9938 1.5
    endloop
  endfacet
  facet normal -0.724946 0.688806 0
    outer loop
      vertex -5.7757 12.9213 1.5
      vertex -5.70677 12.9938 3
      vertex -5.70677 12.9938 1.5
    endloop
  endfacet
  facet normal -0.724946 0.688806 0
    outer loop
      vertex -5.70677 12.9938 3
      vertex -5.7757 12.9213 1.5
      vertex -5.7757 12.9213 3
    endloop
  endfacet
  facet normal -0.813692 0.581296 0
    outer loop
      vertex -5.83417 12.8394 1.5
      vertex -5.7757 12.9213 3
      vertex -5.7757 12.9213 1.5
    endloop
  endfacet
  facet normal -0.813692 0.581296 0
    outer loop
      vertex -5.7757 12.9213 3
      vertex -5.83417 12.8394 1.5
      vertex -5.83417 12.8394 3
    endloop
  endfacet
  facet normal -0.886009 0.463669 0
    outer loop
      vertex -5.88107 12.7498 1.5
      vertex -5.83417 12.8394 3
      vertex -5.83417 12.8394 1.5
    endloop
  endfacet
  facet normal -0.886009 0.463669 0
    outer loop
      vertex -5.83417 12.8394 3
      vertex -5.88107 12.7498 1.5
      vertex -5.88107 12.7498 3
    endloop
  endfacet
  facet normal -0.94204 0.335501 0
    outer loop
      vertex -5.91522 12.6539 1.5
      vertex -5.88107 12.7498 3
      vertex -5.88107 12.7498 1.5
    endloop
  endfacet
  facet normal -0.94204 0.335501 0
    outer loop
      vertex -5.88107 12.7498 3
      vertex -5.91522 12.6539 1.5
      vertex -5.91522 12.6539 3
    endloop
  endfacet
  facet normal -0.977826 0.209419 0
    outer loop
      vertex -5.93312 12.5704 1.5
      vertex -5.91522 12.6539 3
      vertex -5.91522 12.6539 1.5
    endloop
  endfacet
  facet normal -0.977826 0.209419 0
    outer loop
      vertex -5.91522 12.6539 3
      vertex -5.93312 12.5704 1.5
      vertex -5.93312 12.5704 3
    endloop
  endfacet
  facet normal -0.996132 0.0878732 0
    outer loop
      vertex -5.9407 12.4844 1.5
      vertex -5.93312 12.5704 3
      vertex -5.93312 12.5704 1.5
    endloop
  endfacet
  facet normal -0.996132 0.0878732 0
    outer loop
      vertex -5.93312 12.5704 3
      vertex -5.9407 12.4844 1.5
      vertex -5.9407 12.4844 3
    endloop
  endfacet
  facet normal -1 -0.000257362 0
    outer loop
      vertex -5.94005 9.93495 1.5
      vertex -5.9407 12.4844 3
      vertex -5.9407 12.4844 1.5
    endloop
  endfacet
  facet normal -1 -0.000257362 0
    outer loop
      vertex -5.9407 12.4844 3
      vertex -5.94005 9.93495 1.5
      vertex -5.94005 9.93495 3
    endloop
  endfacet
  facet normal -0.994478 -0.104942 0
    outer loop
      vertex -5.93034 9.84299 1.5
      vertex -5.94005 9.93495 3
      vertex -5.94005 9.93495 1.5
    endloop
  endfacet
  facet normal -0.994478 -0.104942 0
    outer loop
      vertex -5.94005 9.93495 3
      vertex -5.93034 9.84299 1.5
      vertex -5.93034 9.84299 3
    endloop
  endfacet
  facet normal -0.974887 -0.222699 0
    outer loop
      vertex -5.91046 9.75595 1.5
      vertex -5.93034 9.84299 3
      vertex -5.93034 9.84299 1.5
    endloop
  endfacet
  facet normal -0.974887 -0.222699 0
    outer loop
      vertex -5.93034 9.84299 3
      vertex -5.91046 9.75595 1.5
      vertex -5.91046 9.75595 3
    endloop
  endfacet
  facet normal -0.940807 -0.338944 0
    outer loop
      vertex -5.88107 9.67438 1.5
      vertex -5.91046 9.75595 3
      vertex -5.91046 9.75595 1.5
    endloop
  endfacet
  facet normal -0.940807 -0.338944 0
    outer loop
      vertex -5.91046 9.75595 3
      vertex -5.88107 9.67438 1.5
      vertex -5.88107 9.67438 3
    endloop
  endfacet
  facet normal -0.892145 -0.451749 0
    outer loop
      vertex -5.84282 9.59883 1.5
      vertex -5.88107 9.67438 3
      vertex -5.88107 9.67438 1.5
    endloop
  endfacet
  facet normal -0.892145 -0.451749 0
    outer loop
      vertex -5.88107 9.67438 3
      vertex -5.84282 9.59883 1.5
      vertex -5.84282 9.59883 3
    endloop
  endfacet
  facet normal -0.829614 -0.558338 0
    outer loop
      vertex -5.7964 9.52986 1.5
      vertex -5.84282 9.59883 3
      vertex -5.84282 9.59883 1.5
    endloop
  endfacet
  facet normal -0.829614 -0.558338 0
    outer loop
      vertex -5.84282 9.59883 3
      vertex -5.7964 9.52986 1.5
      vertex -5.7964 9.52986 3
    endloop
  endfacet
  facet normal -0.753624 -0.657306 0
    outer loop
      vertex -5.74246 9.46802 1.5
      vertex -5.7964 9.52986 3
      vertex -5.7964 9.52986 1.5
    endloop
  endfacet
  facet normal -0.753624 -0.657306 0
    outer loop
      vertex -5.7964 9.52986 3
      vertex -5.74246 9.46802 1.5
      vertex -5.74246 9.46802 3
    endloop
  endfacet
  facet normal -0.665375 -0.746509 0
    outer loop
      vertex -5.74246 9.46802 1.5
      vertex -5.68167 9.41383 3
      vertex -5.74246 9.46802 3
    endloop
  endfacet
  facet normal -0.665375 -0.746509 -0
    outer loop
      vertex -5.68167 9.41383 3
      vertex -5.74246 9.46802 1.5
      vertex -5.68167 9.41383 1.5
    endloop
  endfacet
  facet normal -0.565835 -0.824519 0
    outer loop
      vertex -5.68167 9.41383 1.5
      vertex -5.6147 9.36787 3
      vertex -5.68167 9.41383 3
    endloop
  endfacet
  facet normal -0.565835 -0.824519 -0
    outer loop
      vertex -5.6147 9.36787 3
      vertex -5.68167 9.41383 1.5
      vertex -5.6147 9.36787 1.5
    endloop
  endfacet
  facet normal -0.45648 -0.889734 0
    outer loop
      vertex -5.6147 9.36787 1.5
      vertex -5.54222 9.33069 3
      vertex -5.6147 9.36787 3
    endloop
  endfacet
  facet normal -0.45648 -0.889734 -0
    outer loop
      vertex -5.54222 9.33069 3
      vertex -5.6147 9.36787 1.5
      vertex -5.54222 9.33069 1.5
    endloop
  endfacet
  facet normal -0.339074 -0.94076 0
    outer loop
      vertex -5.54222 9.33069 1.5
      vertex -5.46487 9.30281 3
      vertex -5.54222 9.33069 3
    endloop
  endfacet
  facet normal -0.339074 -0.94076 -0
    outer loop
      vertex -5.46487 9.30281 3
      vertex -5.54222 9.33069 1.5
      vertex -5.46487 9.30281 1.5
    endloop
  endfacet
  facet normal -0.215653 -0.97647 0
    outer loop
      vertex -5.46487 9.30281 1.5
      vertex -5.38335 9.28481 3
      vertex -5.46487 9.30281 3
    endloop
  endfacet
  facet normal -0.215653 -0.97647 -0
    outer loop
      vertex -5.38335 9.28481 3
      vertex -5.46487 9.30281 1.5
      vertex -5.38335 9.28481 1.5
    endloop
  endfacet
  facet normal -0.0889889 -0.996033 0
    outer loop
      vertex -5.38335 9.28481 1.5
      vertex -5.29829 9.27721 3
      vertex -5.38335 9.28481 3
    endloop
  endfacet
  facet normal -0.0889889 -0.996033 -0
    outer loop
      vertex -5.29829 9.27721 3
      vertex -5.38335 9.28481 1.5
      vertex -5.29829 9.27721 1.5
    endloop
  endfacet
  facet normal -3.17544e-05 -1 0
    outer loop
      vertex -5.29829 9.27721 1.5
      vertex 1.42906 9.27699 3
      vertex -5.29829 9.27721 3
    endloop
  endfacet
  facet normal -3.17544e-05 -1 -0
    outer loop
      vertex 1.42906 9.27699 3
      vertex -5.29829 9.27721 1.5
      vertex 1.42906 9.27699 1.5
    endloop
  endfacet
  facet normal -0.956677 0.291153 0
    outer loop
      vertex -5.01053 -11.8824 1.5
      vertex 1.42906 9.27699 3
      vertex 1.42906 9.27699 1.5
    endloop
  endfacet
  facet normal -0.956677 0.291153 0
    outer loop
      vertex 1.42906 9.27699 3
      vertex -5.01053 -11.8824 1.5
      vertex -5.01053 -11.8824 3
    endloop
  endfacet
  facet normal -0.981703 0.19042 0
    outer loop
      vertex -5.028 -11.9724 1.5
      vertex -5.01053 -11.8824 3
      vertex -5.01053 -11.8824 1.5
    endloop
  endfacet
  facet normal -0.981703 0.19042 0
    outer loop
      vertex -5.01053 -11.8824 3
      vertex -5.028 -11.9724 1.5
      vertex -5.028 -11.9724 3
    endloop
  endfacet
  facet normal -0.99855 0.0538302 0
    outer loop
      vertex -5.03258 -12.0574 1.5
      vertex -5.028 -11.9724 3
      vertex -5.028 -11.9724 1.5
    endloop
  endfacet
  facet normal -0.99855 0.0538302 0
    outer loop
      vertex -5.028 -11.9724 3
      vertex -5.03258 -12.0574 1.5
      vertex -5.03258 -12.0574 3
    endloop
  endfacet
  facet normal -0.996658 -0.0816855 0
    outer loop
      vertex -5.02734 -12.1212 1.5
      vertex -5.03258 -12.0574 3
      vertex -5.03258 -12.0574 1.5
    endloop
  endfacet
  facet normal -0.996658 -0.0816855 0
    outer loop
      vertex -5.03258 -12.0574 3
      vertex -5.02734 -12.1212 1.5
      vertex -5.02734 -12.1212 3
    endloop
  endfacet
  facet normal -0.977788 -0.209597 0
    outer loop
      vertex -5.0145 -12.1812 1.5
      vertex -5.02734 -12.1212 3
      vertex -5.02734 -12.1212 1.5
    endloop
  endfacet
  facet normal -0.977788 -0.209597 0
    outer loop
      vertex -5.02734 -12.1212 3
      vertex -5.0145 -12.1812 1.5
      vertex -5.0145 -12.1812 3
    endloop
  endfacet
  facet normal -0.940371 -0.340151 0
    outer loop
      vertex -4.99434 -12.2369 1.5
      vertex -5.0145 -12.1812 3
      vertex -5.0145 -12.1812 1.5
    endloop
  endfacet
  facet normal -0.940371 -0.340151 0
    outer loop
      vertex -5.0145 -12.1812 3
      vertex -4.99434 -12.2369 1.5
      vertex -4.99434 -12.2369 3
    endloop
  endfacet
  facet normal -0.883218 -0.468963 0
    outer loop
      vertex -4.96713 -12.2881 1.5
      vertex -4.99434 -12.2369 3
      vertex -4.99434 -12.2369 1.5
    endloop
  endfacet
  facet normal -0.883218 -0.468963 0
    outer loop
      vertex -4.99434 -12.2369 3
      vertex -4.96713 -12.2881 1.5
      vertex -4.96713 -12.2881 3
    endloop
  endfacet
  facet normal -0.807381 -0.59003 0
    outer loop
      vertex -4.93317 -12.3346 1.5
      vertex -4.96713 -12.2881 3
      vertex -4.96713 -12.2881 1.5
    endloop
  endfacet
  facet normal -0.807381 -0.59003 0
    outer loop
      vertex -4.96713 -12.2881 3
      vertex -4.93317 -12.3346 1.5
      vertex -4.93317 -12.3346 3
    endloop
  endfacet
  facet normal -0.715624 -0.698485 0
    outer loop
      vertex -4.89275 -12.376 1.5
      vertex -4.93317 -12.3346 3
      vertex -4.93317 -12.3346 1.5
    endloop
  endfacet
  facet normal -0.715624 -0.698485 0
    outer loop
      vertex -4.93317 -12.3346 3
      vertex -4.89275 -12.376 1.5
      vertex -4.89275 -12.376 3
    endloop
  endfacet
  facet normal -0.612184 -0.790716 0
    outer loop
      vertex -4.89275 -12.376 1.5
      vertex -4.84612 -12.4121 3
      vertex -4.89275 -12.376 3
    endloop
  endfacet
  facet normal -0.612184 -0.790716 -0
    outer loop
      vertex -4.84612 -12.4121 3
      vertex -4.89275 -12.376 1.5
      vertex -4.84612 -12.4121 1.5
    endloop
  endfacet
  facet normal -0.487732 -0.872994 0
    outer loop
      vertex -4.84612 -12.4121 1.5
      vertex -4.77956 -12.4493 3
      vertex -4.84612 -12.4121 3
    endloop
  endfacet
  facet normal -0.487732 -0.872994 -0
    outer loop
      vertex -4.77956 -12.4493 3
      vertex -4.84612 -12.4121 1.5
      vertex -4.77956 -12.4493 1.5
    endloop
  endfacet
  facet normal -0.34737 -0.937728 0
    outer loop
      vertex -4.77956 -12.4493 1.5
      vertex -4.7043 -12.4772 3
      vertex -4.77956 -12.4493 3
    endloop
  endfacet
  facet normal -0.34737 -0.937728 -0
    outer loop
      vertex -4.7043 -12.4772 3
      vertex -4.77956 -12.4493 1.5
      vertex -4.7043 -12.4772 1.5
    endloop
  endfacet
  facet normal -0.211093 -0.977466 0
    outer loop
      vertex -4.7043 -12.4772 1.5
      vertex -4.62093 -12.4952 3
      vertex -4.7043 -12.4772 3
    endloop
  endfacet
  facet normal -0.211093 -0.977466 -0
    outer loop
      vertex -4.62093 -12.4952 3
      vertex -4.7043 -12.4772 1.5
      vertex -4.62093 -12.4952 1.5
    endloop
  endfacet
  facet normal -0.095544 -0.995425 0
    outer loop
      vertex -4.62093 -12.4952 1.5
      vertex -4.54875 -12.5021 3
      vertex -4.62093 -12.4952 3
    endloop
  endfacet
  facet normal -0.095544 -0.995425 -0
    outer loop
      vertex -4.54875 -12.5021 3
      vertex -4.62093 -12.4952 1.5
      vertex -4.54875 -12.5021 1.5
    endloop
  endfacet
endsolid OpenSCAD_Model
