solid OpenSCAD_Model
  facet normal -1 0 0
    outer loop
      vertex -16.5 16.5 -1
      vertex -16.5 7.15 13.3
      vertex -16.5 16.5 15
    endloop
  endfacet
  facet normal -1 0 0
    outer loop
      vertex -16.5 16.5 -1
      vertex -16.5 -7.15 13.3
      vertex -16.5 7.15 13.3
    endloop
  endfacet
  facet normal -1 0 0
    outer loop
      vertex -16.5 -16.5 -1
      vertex -16.5 -7.15 13.3
      vertex -16.5 16.5 -1
    endloop
  endfacet
  facet normal -1 0 0
    outer loop
      vertex -16.5 -16.5 15
      vertex -16.5 -7.15 13.3
      vertex -16.5 -16.5 -1
    endloop
  endfacet
  facet normal -1 0 0
    outer loop
      vertex -16.5 -7.15 13.3
      vertex -16.5 -16.5 15
      vertex -16.5 -7.15 15
    endloop
  endfacet
  facet normal -1 -0 0
    outer loop
      vertex -16.5 16.5 15
      vertex -16.5 7.15 13.3
      vertex -16.5 7.15 15
    endloop
  endfacet
  facet normal 5.07957e-24 1.22465e-16 1
    outer loop
      vertex 6.96445 -9.47427 1.16026e-15
      vertex 15.5 -15.5 1.8982e-15
      vertex 15.5 15.5 -1.8982e-15
    endloop
  endfacet
  facet normal 5.27839e-23 1.22465e-16 1
    outer loop
      vertex 15.5 -15.5 1.8982e-15
      vertex 7.09933 -9.81636 1.20216e-15
      vertex 7.11253 -9.93835 1.2171e-15
    endloop
  endfacet
  facet normal 3.12845e-23 1.22465e-16 1
    outer loop
      vertex 15.5 -15.5 1.8982e-15
      vertex 7.06924 -9.69498 1.18729e-15
      vertex 7.09933 -9.81636 1.20216e-15
    endloop
  endfacet
  facet normal -2.85878e-22 1.22464e-16 1
    outer loop
      vertex 15.5 -15.5 1.8982e-15
      vertex 7.02325 -9.57939 1.17314e-15
      vertex 7.06924 -9.69498 1.18729e-15
    endloop
  endfacet
  facet normal -1.10018e-22 1.22465e-16 1
    outer loop
      vertex 15.5 -15.5 1.8982e-15
      vertex 6.96445 -9.47427 1.16026e-15
      vertex 7.02325 -9.57939 1.17314e-15
    endloop
  endfacet
  facet normal 6.94454e-23 1.22465e-16 1
    outer loop
      vertex 15.5 15.5 -1.8982e-15
      vertex 6.89294 -9.3772 1.14838e-15
      vertex 6.96445 -9.47427 1.16026e-15
    endloop
  endfacet
  facet normal -3.69322e-22 1.22465e-16 1
    outer loop
      vertex 15.5 15.5 -1.8982e-15
      vertex 6.79745 -9.27823 1.13626e-15
      vertex 6.89294 -9.3772 1.14838e-15
    endloop
  endfacet
  facet normal -2.72825e-22 1.22465e-16 1
    outer loop
      vertex 15.5 15.5 -1.8982e-15
      vertex 6.68301 -9.18826 1.12524e-15
      vertex 6.79745 -9.27823 1.13626e-15
    endloop
  endfacet
  facet normal 3.69961e-22 1.22465e-16 1
    outer loop
      vertex 15.5 15.5 -1.8982e-15
      vertex 6.55972 -9.11694 1.1165e-15
      vertex 6.68301 -9.18826 1.12524e-15
    endloop
  endfacet
  facet normal -5.28649e-24 1.22465e-16 1
    outer loop
      vertex 2.41927 11.8261 -1.44828e-15
      vertex 6.55972 -9.11694 1.1165e-15
      vertex 15.5 15.5 -1.8982e-15
    endloop
  endfacet
  facet normal 1.29643e-22 1.22465e-16 1
    outer loop
      vertex 6.55972 -9.11694 1.1165e-15
      vertex 2.41927 11.8261 -1.44828e-15
      vertex 6.42711 -9.06317 1.10992e-15
    endloop
  endfacet
  facet normal 5.20692e-23 1.22465e-16 1
    outer loop
      vertex 6.42711 -9.06317 1.10992e-15
      vertex 2.41927 11.8261 -1.44828e-15
      vertex 6.30803 -9.03209 1.10611e-15
    endloop
  endfacet
  facet normal 1.36459e-22 1.22465e-16 1
    outer loop
      vertex 6.30803 -9.03209 1.10611e-15
      vertex 2.41927 11.8261 -1.44828e-15
      vertex 6.1852 -9.01579 1.10412e-15
    endloop
  endfacet
  facet normal -2.32058e-23 1.22465e-16 1
    outer loop
      vertex 6.1852 -9.01579 1.10412e-15
      vertex 2.41927 11.8261 -1.44828e-15
      vertex 2.41951 -9.01306 1.10378e-15
    endloop
  endfacet
  facet normal 1.83656e-23 1.22465e-16 1
    outer loop
      vertex 15.5 15.5 -1.8982e-15
      vertex 2.40964 11.9453 -1.46288e-15
      vertex 2.41927 11.8261 -1.44828e-15
    endloop
  endfacet
  facet normal 1.60469e-22 1.22464e-16 1
    outer loop
      vertex 15.5 15.5 -1.8982e-15
      vertex 2.38408 12.0706 -1.47823e-15
      vertex 2.40964 11.9453 -1.46288e-15
    endloop
  endfacet
  facet normal -6.30435e-23 1.22465e-16 1
    outer loop
      vertex 15.5 15.5 -1.8982e-15
      vertex 2.3421 12.1931 -1.49323e-15
      vertex 2.38408 12.0706 -1.47823e-15
    endloop
  endfacet
  facet normal 6.46332e-23 1.22464e-16 1
    outer loop
      vertex 15.5 15.5 -1.8982e-15
      vertex 2.28685 12.3044 -1.50686e-15
      vertex 2.3421 12.1931 -1.49323e-15
    endloop
  endfacet
  facet normal -1.46302e-22 1.22465e-16 1
    outer loop
      vertex 15.5 15.5 -1.8982e-15
      vertex 2.21863 12.407 -1.51942e-15
      vertex 2.28685 12.3044 -1.50686e-15
    endloop
  endfacet
  facet normal 3.76098e-23 1.22465e-16 1
    outer loop
      vertex 15.5 15.5 -1.8982e-15
      vertex 2.13863 12.5 -1.53081e-15
      vertex 2.21863 12.407 -1.51942e-15
    endloop
  endfacet
  facet normal 1.30745e-22 1.22464e-16 1
    outer loop
      vertex 15.5 15.5 -1.8982e-15
      vertex 2.0481 12.5822 -1.54088e-15
      vertex 2.13863 12.5 -1.53081e-15
    endloop
  endfacet
  facet normal -3.49411e-23 1.22465e-16 1
    outer loop
      vertex 15.5 15.5 -1.8982e-15
      vertex 1.95143 12.6507 -1.54926e-15
      vertex 2.0481 12.5822 -1.54088e-15
    endloop
  endfacet
  facet normal -1.35713e-22 1.22465e-16 1
    outer loop
      vertex 15.5 15.5 -1.8982e-15
      vertex 1.84404 12.709 -1.55641e-15
      vertex 1.95143 12.6507 -1.54926e-15
    endloop
  endfacet
  facet normal 6.31892e-23 1.22464e-16 1
    outer loop
      vertex 15.5 15.5 -1.8982e-15
      vertex 1.73364 12.7527 -1.56175e-15
      vertex 1.84404 12.709 -1.55641e-15
    endloop
  endfacet
  facet normal -4.06294e-23 1.22465e-16 1
    outer loop
      vertex 15.5 15.5 -1.8982e-15
      vertex 1.61473 12.7839 -1.56557e-15
      vertex 1.73364 12.7527 -1.56175e-15
    endloop
  endfacet
  facet normal -1.0205e-22 1.22465e-16 1
    outer loop
      vertex 15.5 15.5 -1.8982e-15
      vertex 1.49211 12.8002 -1.56757e-15
      vertex 1.61473 12.7839 -1.56557e-15
    endloop
  endfacet
  facet normal 5.16766e-24 1.22465e-16 1
    outer loop
      vertex 15.5 15.5 -1.8982e-15
      vertex -1.10519 12.8021 -1.5678e-15
      vertex 1.49211 12.8002 -1.56757e-15
    endloop
  endfacet
  facet normal -0 1.22465e-16 1
    outer loop
      vertex -15.5 15.5 -1.8982e-15
      vertex -1.10519 12.8021 -1.5678e-15
      vertex 15.5 15.5 -1.8982e-15
    endloop
  endfacet
  facet normal 0 1.22465e-16 1
    outer loop
      vertex -2.06355 11.8789 -1.45474e-15
      vertex -5.76346 -9.013 1.10377e-15
      vertex -2.06644 -9.013 1.10377e-15
    endloop
  endfacet
  facet normal 1.67251e-22 1.22465e-16 1
    outer loop
      vertex -15.5 15.5 -1.8982e-15
      vertex -2.06355 11.8789 -1.45474e-15
      vertex -2.04521 12.0116 -1.471e-15
    endloop
  endfacet
  facet normal -7.70558e-22 1.22465e-16 1
    outer loop
      vertex -2.06355 11.8789 -1.45474e-15
      vertex -5.8269 -9.0152 1.10404e-15
      vertex -5.76346 -9.013 1.10377e-15
    endloop
  endfacet
  facet normal 2.55504e-23 1.22465e-16 1
    outer loop
      vertex -2.06355 11.8789 -1.45474e-15
      vertex -5.94221 -9.02963 1.10581e-15
      vertex -5.8269 -9.0152 1.10404e-15
    endloop
  endfacet
  facet normal 2.65513e-22 1.22465e-16 1
    outer loop
      vertex -2.06355 11.8789 -1.45474e-15
      vertex -6.0616 -9.05899 1.10941e-15
      vertex -5.94221 -9.02963 1.10581e-15
    endloop
  endfacet
  facet normal -2.1513e-22 1.22465e-16 1
    outer loop
      vertex -2.06355 11.8789 -1.45474e-15
      vertex -6.17256 -9.10089 1.11454e-15
      vertex -6.0616 -9.05899 1.10941e-15
    endloop
  endfacet
  facet normal -3.58947e-24 1.22465e-16 1
    outer loop
      vertex -2.06355 11.8789 -1.45474e-15
      vertex -15.5 15.5 -1.8982e-15
      vertex -6.17256 -9.10089 1.11454e-15
    endloop
  endfacet
  facet normal 8.69201e-23 1.22465e-16 1
    outer loop
      vertex -6.17256 -9.10089 1.11454e-15
      vertex -15.5 15.5 -1.8982e-15
      vertex -6.29509 -9.16585 1.12249e-15
    endloop
  endfacet
  facet normal 2.24579e-22 1.22465e-16 1
    outer loop
      vertex -6.29509 -9.16585 1.12249e-15
      vertex -15.5 15.5 -1.8982e-15
      vertex -6.41031 -9.24855 1.13262e-15
    endloop
  endfacet
  facet normal 3.09054e-24 1.22465e-16 1
    outer loop
      vertex -6.41031 -9.24855 1.13262e-15
      vertex -15.5 15.5 -1.8982e-15
      vertex -6.51233 -9.34598 1.14455e-15
    endloop
  endfacet
  facet normal 1.65231e-22 1.22465e-16 1
    outer loop
      vertex -6.51233 -9.34598 1.14455e-15
      vertex -15.5 15.5 -1.8982e-15
      vertex -6.59039 -9.44298 1.15643e-15
    endloop
  endfacet
  facet normal -6.53727e-24 1.22465e-16 1
    outer loop
      vertex -15.5 -15.5 1.8982e-15
      vertex -6.59039 -9.44298 1.15643e-15
      vertex -15.5 15.5 -1.8982e-15
    endloop
  endfacet
  facet normal 1.01337e-21 1.22463e-16 1
    outer loop
      vertex -6.59039 -9.44298 1.15643e-15
      vertex -15.5 -15.5 1.8982e-15
      vertex -6.65331 -9.54572 1.16901e-15
    endloop
  endfacet
  facet normal -1.71222e-22 1.22465e-16 1
    outer loop
      vertex -6.73825 -9.77571 1.19718e-15
      vertex -15.5 -15.5 1.8982e-15
      vertex -6.7571 -9.90076 1.21249e-15
    endloop
  endfacet
  facet normal 2.52112e-22 1.22464e-16 1
    outer loop
      vertex -6.70262 -9.65582 1.1825e-15
      vertex -15.5 -15.5 1.8982e-15
      vertex -6.73825 -9.77571 1.19718e-15
    endloop
  endfacet
  facet normal -6.15195e-22 1.22466e-16 1
    outer loop
      vertex -6.65331 -9.54572 1.16901e-15
      vertex -15.5 -15.5 1.8982e-15
      vertex -6.70262 -9.65582 1.1825e-15
    endloop
  endfacet
  facet normal -1.13775e-22 1.22464e-16 1
    outer loop
      vertex -2.01151 12.1345 -1.48604e-15
      vertex -15.5 15.5 -1.8982e-15
      vertex -2.04521 12.0116 -1.471e-15
    endloop
  endfacet
  facet normal 1.45774e-23 1.22465e-16 1
    outer loop
      vertex -1.96303 12.2501 -1.50021e-15
      vertex -15.5 15.5 -1.8982e-15
      vertex -2.01151 12.1345 -1.48604e-15
    endloop
  endfacet
  facet normal -8.93492e-23 1.22464e-16 1
    outer loop
      vertex -1.92113 12.3257 -1.50946e-15
      vertex -15.5 15.5 -1.8982e-15
      vertex -1.96303 12.2501 -1.50021e-15
    endloop
  endfacet
  facet normal 1.25368e-22 1.22465e-16 1
    outer loop
      vertex -1.82645 12.4555 -1.52536e-15
      vertex -15.5 15.5 -1.8982e-15
      vertex -1.92113 12.3257 -1.50946e-15
    endloop
  endfacet
  facet normal -6.87921e-23 1.22464e-16 1
    outer loop
      vertex -1.74078 12.5431 -1.53609e-15
      vertex -15.5 15.5 -1.8982e-15
      vertex -1.82645 12.4555 -1.52536e-15
    endloop
  endfacet
  facet normal -1.8686e-23 1.22465e-16 1
    outer loop
      vertex -1.64845 12.6174 -1.54519e-15
      vertex -15.5 15.5 -1.8982e-15
      vertex -1.74078 12.5431 -1.53609e-15
    endloop
  endfacet
  facet normal 7.51245e-23 1.22465e-16 1
    outer loop
      vertex -1.54471 12.6819 -1.55309e-15
      vertex -15.5 15.5 -1.8982e-15
      vertex -1.64845 12.6174 -1.54519e-15
    endloop
  endfacet
  facet normal -1.76781e-22 1.22464e-16 1
    outer loop
      vertex -1.43092 12.7344 -1.55952e-15
      vertex -15.5 15.5 -1.8982e-15
      vertex -1.54471 12.6819 -1.55309e-15
    endloop
  endfacet
  facet normal 7.30999e-23 1.22465e-16 1
    outer loop
      vertex -1.32091 12.7703 -1.56392e-15
      vertex -15.5 15.5 -1.8982e-15
      vertex -1.43092 12.7344 -1.55952e-15
    endloop
  endfacet
  facet normal 1.31638e-22 1.22465e-16 1
    outer loop
      vertex -1.2039 12.7937 -1.56677e-15
      vertex -15.5 15.5 -1.8982e-15
      vertex -1.32091 12.7703 -1.56392e-15
    endloop
  endfacet
  facet normal 6.82485e-23 1.22465e-16 1
    outer loop
      vertex -1.10519 12.8021 -1.5678e-15
      vertex -15.5 15.5 -1.8982e-15
      vertex -1.2039 12.7937 -1.56677e-15
    endloop
  endfacet
  facet normal -4.85007e-24 1.22465e-16 1
    outer loop
      vertex 7.11063 -12.5389 1.53557e-15
      vertex 15.5 -15.5 1.8982e-15
      vertex 7.11253 -9.93835 1.2171e-15
    endloop
  endfacet
  facet normal 1.39039e-22 1.22465e-16 1
    outer loop
      vertex 7.09229 -12.6716 1.55183e-15
      vertex 15.5 -15.5 1.8982e-15
      vertex 7.11063 -12.5389 1.53557e-15
    endloop
  endfacet
  facet normal -3.68816e-23 1.22465e-16 1
    outer loop
      vertex 7.05856 -12.7946 1.56688e-15
      vertex 15.5 -15.5 1.8982e-15
      vertex 7.09229 -12.6716 1.55183e-15
    endloop
  endfacet
  facet normal 8.72247e-25 1.22465e-16 1
    outer loop
      vertex 7.00824 -12.9136 1.58146e-15
      vertex 15.5 -15.5 1.8982e-15
      vertex 7.05856 -12.7946 1.56688e-15
    endloop
  endfacet
  facet normal -9.13851e-23 1.22464e-16 1
    outer loop
      vertex 6.94574 -13.0208 1.59459e-15
      vertex 15.5 -15.5 1.8982e-15
      vertex 7.00824 -12.9136 1.58146e-15
    endloop
  endfacet
  facet normal 1.58328e-22 1.22465e-16 1
    outer loop
      vertex 6.87344 -13.1159 1.60623e-15
      vertex 15.5 -15.5 1.8982e-15
      vertex 6.94574 -13.0208 1.59459e-15
    endloop
  endfacet
  facet normal -1.30835e-22 1.22464e-16 1
    outer loop
      vertex 6.78773 -13.2036 1.61698e-15
      vertex 15.5 -15.5 1.8982e-15
      vertex 6.87344 -13.1159 1.60623e-15
    endloop
  endfacet
  facet normal -7.72238e-23 1.22464e-16 1
    outer loop
      vertex 6.69531 -13.278 1.62609e-15
      vertex 15.5 -15.5 1.8982e-15
      vertex 6.78773 -13.2036 1.61698e-15
    endloop
  endfacet
  facet normal 2.17931e-22 1.22466e-16 1
    outer loop
      vertex 6.59148 -13.3427 1.63401e-15
      vertex 15.5 -15.5 1.8982e-15
      vertex 6.69531 -13.278 1.62609e-15
    endloop
  endfacet
  facet normal -1.06904e-22 1.22464e-16 1
    outer loop
      vertex 6.48047 -13.3943 1.64032e-15
      vertex 15.5 -15.5 1.8982e-15
      vertex 6.59148 -13.3427 1.63401e-15
    endloop
  endfacet
  facet normal 4.97217e-23 1.22465e-16 1
    outer loop
      vertex 6.36742 -13.4313 1.64485e-15
      vertex 15.5 -15.5 1.8982e-15
      vertex 6.48047 -13.3943 1.64032e-15
    endloop
  endfacet
  facet normal -1.0508e-22 1.22464e-16 1
    outer loop
      vertex 6.24648 -13.455 1.64776e-15
      vertex 15.5 -15.5 1.8982e-15
      vertex 6.36742 -13.4313 1.64485e-15
    endloop
  endfacet
  facet normal -1.29861e-22 1.22464e-16 1
    outer loop
      vertex 6.13397 -13.4638 1.64884e-15
      vertex 15.5 -15.5 1.8982e-15
      vertex 6.24648 -13.455 1.64776e-15
    endloop
  endfacet
  facet normal 3.15726e-25 1.22465e-16 1
    outer loop
      vertex -5.83214 -13.4612 1.64852e-15
      vertex 15.5 -15.5 1.8982e-15
      vertex 6.13397 -13.4638 1.64884e-15
    endloop
  endfacet
  facet normal 8.38099e-24 1.22465e-16 1
    outer loop
      vertex -6.7571 -9.90076 1.21249e-15
      vertex -15.5 -15.5 1.8982e-15
      vertex -6.76019 -12.4861 1.52911e-15
    endloop
  endfacet
  facet normal -7.47706e-23 1.22465e-16 1
    outer loop
      vertex -6.76019 -12.4861 1.52911e-15
      vertex -15.5 -15.5 1.8982e-15
      vertex -6.75056 -12.6054 1.54371e-15
    endloop
  endfacet
  facet normal 0 1.22465e-16 1
    outer loop
      vertex -5.83214 -13.4612 1.64852e-15
      vertex -15.5 -15.5 1.8982e-15
      vertex 15.5 -15.5 1.8982e-15
    endloop
  endfacet
  facet normal -1.31574e-22 1.22465e-16 1
    outer loop
      vertex -5.95496 -13.4448 1.64652e-15
      vertex -15.5 -15.5 1.8982e-15
      vertex -5.83214 -13.4612 1.64852e-15
    endloop
  endfacet
  facet normal 3.94027e-22 1.22463e-16 1
    outer loop
      vertex -6.07445 -13.4134 1.64267e-15
      vertex -15.5 -15.5 1.8982e-15
      vertex -5.95496 -13.4448 1.64652e-15
    endloop
  endfacet
  facet normal -2.03994e-23 1.22465e-16 1
    outer loop
      vertex -6.18457 -13.3698 1.63733e-15
      vertex -15.5 -15.5 1.8982e-15
      vertex -6.07445 -13.4134 1.64267e-15
    endloop
  endfacet
  facet normal 9.09161e-24 1.22465e-16 1
    outer loop
      vertex -6.29208 -13.3114 1.63017e-15
      vertex -15.5 -15.5 1.8982e-15
      vertex -6.18457 -13.3698 1.63733e-15
    endloop
  endfacet
  facet normal -1.7015e-22 1.22465e-16 1
    outer loop
      vertex -6.38884 -13.2428 1.62178e-15
      vertex -15.5 -15.5 1.8982e-15
      vertex -6.29208 -13.3114 1.63017e-15
    endloop
  endfacet
  facet normal -5.92207e-23 1.22465e-16 1
    outer loop
      vertex -6.47943 -13.1605 1.61169e-15
      vertex -15.5 -15.5 1.8982e-15
      vertex -6.38884 -13.2428 1.62178e-15
    endloop
  endfacet
  facet normal 9.29205e-23 1.22464e-16 1
    outer loop
      vertex -6.55949 -13.0674 1.6003e-15
      vertex -15.5 -15.5 1.8982e-15
      vertex -6.47943 -13.1605 1.61169e-15
    endloop
  endfacet
  facet normal -3.58942e-23 1.22465e-16 1
    outer loop
      vertex -6.62775 -12.9647 1.58771e-15
      vertex -15.5 -15.5 1.8982e-15
      vertex -6.55949 -13.0674 1.6003e-15
    endloop
  endfacet
  facet normal 4.77219e-23 1.22465e-16 1
    outer loop
      vertex -6.68301 -12.8533 1.57408e-15
      vertex -15.5 -15.5 1.8982e-15
      vertex -6.62775 -12.9647 1.58771e-15
    endloop
  endfacet
  facet normal 3.84217e-23 1.22465e-16 1
    outer loop
      vertex -6.72418 -12.7344 1.55951e-15
      vertex -15.5 -15.5 1.8982e-15
      vertex -6.68301 -12.8533 1.57408e-15
    endloop
  endfacet
  facet normal -6.09417e-23 1.22465e-16 1
    outer loop
      vertex -6.75056 -12.6054 1.54371e-15
      vertex -15.5 -15.5 1.8982e-15
      vertex -6.72418 -12.7344 1.55951e-15
    endloop
  endfacet
  facet normal 1 0 0
    outer loop
      vertex 16.5 -7.15 15
      vertex 16.5 -16.5 15
      vertex 16.5 -7.15 13.3
    endloop
  endfacet
  facet normal 1 0 0
    outer loop
      vertex 16.5 7.15 13.3
      vertex 16.5 16.5 15
      vertex 16.5 7.15 15
    endloop
  endfacet
  facet normal 1 0 0
    outer loop
      vertex 16.5 16.5 15
      vertex 16.5 7.15 13.3
      vertex 16.5 16.5 -1
    endloop
  endfacet
  facet normal 1 -0 0
    outer loop
      vertex 16.5 -7.15 13.3
      vertex 16.5 16.5 -1
      vertex 16.5 7.15 13.3
    endloop
  endfacet
  facet normal 1 0 0
    outer loop
      vertex 16.5 -16.5 -1
      vertex 16.5 -7.15 13.3
      vertex 16.5 -16.5 15
    endloop
  endfacet
  facet normal 1 0 0
    outer loop
      vertex 16.5 -7.15 13.3
      vertex 16.5 -16.5 -1
      vertex 16.5 16.5 -1
    endloop
  endfacet
  facet normal 0 -1 0
    outer loop
      vertex -16.5 -16.5 15
      vertex -7.15 -16.5 13.3
      vertex -7.15 -16.5 15
    endloop
  endfacet
  facet normal 0 -1 -0
    outer loop
      vertex -7.15 -16.5 13.3
      vertex -16.5 -16.5 -1
      vertex 7.15 -16.5 13.3
    endloop
  endfacet
  facet normal 0 -1 0
    outer loop
      vertex -16.5 -16.5 -1
      vertex -7.15 -16.5 13.3
      vertex -16.5 -16.5 15
    endloop
  endfacet
  facet normal 0 -1 0
    outer loop
      vertex 7.15 -16.5 13.3
      vertex 16.5 -16.5 15
      vertex 7.15 -16.5 15
    endloop
  endfacet
  facet normal 0 -1 0
    outer loop
      vertex 16.5 -16.5 -1
      vertex 7.15 -16.5 13.3
      vertex -16.5 -16.5 -1
    endloop
  endfacet
  facet normal 0 -1 0
    outer loop
      vertex 7.15 -16.5 13.3
      vertex 16.5 -16.5 -1
      vertex 16.5 -16.5 15
    endloop
  endfacet
  facet normal 0 0 1
    outer loop
      vertex -15.5 -7.15 15
      vertex -16.5 -7.15 15
      vertex -15.5 -15.5 15
    endloop
  endfacet
  facet normal -0 0 1
    outer loop
      vertex -15.5 -15.5 15
      vertex -7.15 -16.5 15
      vertex -7.15 -15.5 15
    endloop
  endfacet
  facet normal 0 0 1
    outer loop
      vertex -15.5 -15.5 15
      vertex -16.5 -16.5 15
      vertex -7.15 -16.5 15
    endloop
  endfacet
  facet normal 0 0 1
    outer loop
      vertex -16.5 -16.5 15
      vertex -15.5 -15.5 15
      vertex -16.5 -7.15 15
    endloop
  endfacet
  facet normal 0 0 1
    outer loop
      vertex -7.15 16.5 15
      vertex -15.5 15.5 15
      vertex -7.15 15.5 15
    endloop
  endfacet
  facet normal -0 0 1
    outer loop
      vertex -16.5 16.5 15
      vertex -15.5 15.5 15
      vertex -7.15 16.5 15
    endloop
  endfacet
  facet normal 0 0 1
    outer loop
      vertex -16.5 7.15 15
      vertex -15.5 15.5 15
      vertex -16.5 16.5 15
    endloop
  endfacet
  facet normal 0 0 1
    outer loop
      vertex -15.5 15.5 15
      vertex -16.5 7.15 15
      vertex -15.5 7.15 15
    endloop
  endfacet
  facet normal 0 0 1
    outer loop
      vertex 16.5 16.5 15
      vertex 15.5 15.5 15
      vertex 16.5 7.15 15
    endloop
  endfacet
  facet normal -0 0 1
    outer loop
      vertex 7.15 16.5 15
      vertex 15.5 15.5 15
      vertex 16.5 16.5 15
    endloop
  endfacet
  facet normal 0 0 1
    outer loop
      vertex 15.5 15.5 15
      vertex 7.15 16.5 15
      vertex 7.15 15.5 15
    endloop
  endfacet
  facet normal 0 0 1
    outer loop
      vertex 16.5 7.15 15
      vertex 15.5 15.5 15
      vertex 15.5 7.15 15
    endloop
  endfacet
  facet normal 0 0 1
    outer loop
      vertex 15.5 -15.5 15
      vertex 16.5 -7.15 15
      vertex 15.5 -7.15 15
    endloop
  endfacet
  facet normal 0 0 1
    outer loop
      vertex 16.5 -7.15 15
      vertex 15.5 -15.5 15
      vertex 16.5 -16.5 15
    endloop
  endfacet
  facet normal 0 0 1
    outer loop
      vertex 7.15 -16.5 15
      vertex 15.5 -15.5 15
      vertex 7.15 -15.5 15
    endloop
  endfacet
  facet normal 0 0 1
    outer loop
      vertex 15.5 -15.5 15
      vertex 7.15 -16.5 15
      vertex 16.5 -16.5 15
    endloop
  endfacet
  facet normal 0 1 0
    outer loop
      vertex 16.5 16.5 15
      vertex 7.15 16.5 13.3
      vertex 7.15 16.5 15
    endloop
  endfacet
  facet normal 0 1 0
    outer loop
      vertex 7.15 16.5 13.3
      vertex 16.5 16.5 -1
      vertex -7.15 16.5 13.3
    endloop
  endfacet
  facet normal 0 1 -0
    outer loop
      vertex 16.5 16.5 -1
      vertex 7.15 16.5 13.3
      vertex 16.5 16.5 15
    endloop
  endfacet
  facet normal 0 1 -0
    outer loop
      vertex -7.15 16.5 13.3
      vertex -16.5 16.5 15
      vertex -7.15 16.5 15
    endloop
  endfacet
  facet normal 0 1 0
    outer loop
      vertex -16.5 16.5 -1
      vertex -7.15 16.5 13.3
      vertex 16.5 16.5 -1
    endloop
  endfacet
  facet normal 0 1 0
    outer loop
      vertex -7.15 16.5 13.3
      vertex -16.5 16.5 -1
      vertex -16.5 16.5 15
    endloop
  endfacet
  facet normal 1 0 0
    outer loop
      vertex -15.5 -7.15 15
      vertex -15.5 -15.5 15
      vertex -15.5 -7.15 13.3
    endloop
  endfacet
  facet normal 1 0 0
    outer loop
      vertex -15.5 7.15 13.3
      vertex -15.5 15.5 15
      vertex -15.5 7.15 15
    endloop
  endfacet
  facet normal 1 0 0
    outer loop
      vertex -15.5 15.5 15
      vertex -15.5 7.15 13.3
      vertex -15.5 15.5 -1.8982e-15
    endloop
  endfacet
  facet normal 1 -0 0
    outer loop
      vertex -15.5 -7.15 13.3
      vertex -15.5 15.5 -1.8982e-15
      vertex -15.5 7.15 13.3
    endloop
  endfacet
  facet normal 1 0 0
    outer loop
      vertex -15.5 -15.5 1.8982e-15
      vertex -15.5 -7.15 13.3
      vertex -15.5 -15.5 15
    endloop
  endfacet
  facet normal 1 0 0
    outer loop
      vertex -15.5 -7.15 13.3
      vertex -15.5 -15.5 1.8982e-15
      vertex -15.5 15.5 -1.8982e-15
    endloop
  endfacet
  facet normal -1 0 0
    outer loop
      vertex 15.5 15.5 -1.8982e-15
      vertex 15.5 7.15 13.3
      vertex 15.5 15.5 15
    endloop
  endfacet
  facet normal -1 0 0
    outer loop
      vertex 15.5 15.5 -1.8982e-15
      vertex 15.5 -7.15 13.3
      vertex 15.5 7.15 13.3
    endloop
  endfacet
  facet normal -1 0 0
    outer loop
      vertex 15.5 -15.5 1.8982e-15
      vertex 15.5 -7.15 13.3
      vertex 15.5 15.5 -1.8982e-15
    endloop
  endfacet
  facet normal -1 0 0
    outer loop
      vertex 15.5 -15.5 15
      vertex 15.5 -7.15 13.3
      vertex 15.5 -15.5 1.8982e-15
    endloop
  endfacet
  facet normal -1 0 0
    outer loop
      vertex 15.5 -7.15 13.3
      vertex 15.5 -15.5 15
      vertex 15.5 -7.15 15
    endloop
  endfacet
  facet normal -1 -0 0
    outer loop
      vertex 15.5 15.5 15
      vertex 15.5 7.15 13.3
      vertex 15.5 7.15 15
    endloop
  endfacet
  facet normal 0 1 0
    outer loop
      vertex 15.5 -15.5 15
      vertex 7.15 -15.5 13.3
      vertex 7.15 -15.5 15
    endloop
  endfacet
  facet normal 0 1 0
    outer loop
      vertex 7.15 -15.5 13.3
      vertex 15.5 -15.5 1.8982e-15
      vertex -7.15 -15.5 13.3
    endloop
  endfacet
  facet normal 0 1 -0
    outer loop
      vertex 15.5 -15.5 1.8982e-15
      vertex 7.15 -15.5 13.3
      vertex 15.5 -15.5 15
    endloop
  endfacet
  facet normal 0 1 -0
    outer loop
      vertex -7.15 -15.5 13.3
      vertex -15.5 -15.5 15
      vertex -7.15 -15.5 15
    endloop
  endfacet
  facet normal 0 1 0
    outer loop
      vertex -15.5 -15.5 1.8982e-15
      vertex -7.15 -15.5 13.3
      vertex 15.5 -15.5 1.8982e-15
    endloop
  endfacet
  facet normal 0 1 0
    outer loop
      vertex -7.15 -15.5 13.3
      vertex -15.5 -15.5 1.8982e-15
      vertex -15.5 -15.5 15
    endloop
  endfacet
  facet normal 0 -1 0
    outer loop
      vertex -15.5 15.5 15
      vertex -7.15 15.5 13.3
      vertex -7.15 15.5 15
    endloop
  endfacet
  facet normal 0 -1 -0
    outer loop
      vertex -7.15 15.5 13.3
      vertex -15.5 15.5 -1.8982e-15
      vertex 7.15 15.5 13.3
    endloop
  endfacet
  facet normal 0 -1 0
    outer loop
      vertex -15.5 15.5 -1.8982e-15
      vertex -7.15 15.5 13.3
      vertex -15.5 15.5 15
    endloop
  endfacet
  facet normal 0 -1 0
    outer loop
      vertex 7.15 15.5 13.3
      vertex 15.5 15.5 15
      vertex 7.15 15.5 15
    endloop
  endfacet
  facet normal 0 -1 0
    outer loop
      vertex 15.5 15.5 -1.8982e-15
      vertex 7.15 15.5 13.3
      vertex -15.5 15.5 -1.8982e-15
    endloop
  endfacet
  facet normal 0 -1 0
    outer loop
      vertex 7.15 15.5 13.3
      vertex 15.5 15.5 -1.8982e-15
      vertex 15.5 15.5 15
    endloop
  endfacet
  facet normal 0 0 -1
    outer loop
      vertex 7.09933 -9.81636 -1
      vertex 16.5 -16.5 -1
      vertex 7.11253 -9.93835 -1
    endloop
  endfacet
  facet normal 0 0 -1
    outer loop
      vertex 16.5 -16.5 -1
      vertex 7.11063 -12.5389 -1
      vertex 7.11253 -9.93835 -1
    endloop
  endfacet
  facet normal 0 0 -1
    outer loop
      vertex 16.5 -16.5 -1
      vertex 7.09229 -12.6716 -1
      vertex 7.11063 -12.5389 -1
    endloop
  endfacet
  facet normal 0 0 -1
    outer loop
      vertex 16.5 -16.5 -1
      vertex 7.05856 -12.7946 -1
      vertex 7.09229 -12.6716 -1
    endloop
  endfacet
  facet normal 0 0 -1
    outer loop
      vertex 16.5 -16.5 -1
      vertex 7.00824 -12.9136 -1
      vertex 7.05856 -12.7946 -1
    endloop
  endfacet
  facet normal 0 0 -1
    outer loop
      vertex 16.5 -16.5 -1
      vertex 6.94574 -13.0208 -1
      vertex 7.00824 -12.9136 -1
    endloop
  endfacet
  facet normal 0 0 -1
    outer loop
      vertex 16.5 -16.5 -1
      vertex 6.87344 -13.1159 -1
      vertex 6.94574 -13.0208 -1
    endloop
  endfacet
  facet normal 0 0 -1
    outer loop
      vertex 16.5 -16.5 -1
      vertex 6.78773 -13.2036 -1
      vertex 6.87344 -13.1159 -1
    endloop
  endfacet
  facet normal 0 0 -1
    outer loop
      vertex 16.5 -16.5 -1
      vertex 6.69531 -13.278 -1
      vertex 6.78773 -13.2036 -1
    endloop
  endfacet
  facet normal 0 0 -1
    outer loop
      vertex 16.5 -16.5 -1
      vertex 6.59148 -13.3427 -1
      vertex 6.69531 -13.278 -1
    endloop
  endfacet
  facet normal 0 0 -1
    outer loop
      vertex 16.5 -16.5 -1
      vertex 6.48047 -13.3943 -1
      vertex 6.59148 -13.3427 -1
    endloop
  endfacet
  facet normal 0 0 -1
    outer loop
      vertex 16.5 -16.5 -1
      vertex 6.36742 -13.4313 -1
      vertex 6.48047 -13.3943 -1
    endloop
  endfacet
  facet normal 0 0 -1
    outer loop
      vertex 16.5 -16.5 -1
      vertex 6.24648 -13.455 -1
      vertex 6.36742 -13.4313 -1
    endloop
  endfacet
  facet normal 0 0 -1
    outer loop
      vertex 16.5 -16.5 -1
      vertex 6.13397 -13.4638 -1
      vertex 6.24648 -13.455 -1
    endloop
  endfacet
  facet normal 0 0 -1
    outer loop
      vertex 16.5 -16.5 -1
      vertex -5.83214 -13.4612 -1
      vertex 6.13397 -13.4638 -1
    endloop
  endfacet
  facet normal 0 0 -1
    outer loop
      vertex -16.5 -16.5 -1
      vertex -5.83214 -13.4612 -1
      vertex 16.5 -16.5 -1
    endloop
  endfacet
  facet normal -0 0 -1
    outer loop
      vertex -6.75056 -12.6054 -1
      vertex -16.5 -16.5 -1
      vertex -6.76019 -12.4861 -1
    endloop
  endfacet
  facet normal -0 0 -1
    outer loop
      vertex -6.72418 -12.7344 -1
      vertex -16.5 -16.5 -1
      vertex -6.75056 -12.6054 -1
    endloop
  endfacet
  facet normal -0 0 -1
    outer loop
      vertex -6.68301 -12.8533 -1
      vertex -16.5 -16.5 -1
      vertex -6.72418 -12.7344 -1
    endloop
  endfacet
  facet normal -0 0 -1
    outer loop
      vertex -6.62775 -12.9647 -1
      vertex -16.5 -16.5 -1
      vertex -6.68301 -12.8533 -1
    endloop
  endfacet
  facet normal -0 0 -1
    outer loop
      vertex -6.55949 -13.0674 -1
      vertex -16.5 -16.5 -1
      vertex -6.62775 -12.9647 -1
    endloop
  endfacet
  facet normal -0 0 -1
    outer loop
      vertex -6.47943 -13.1605 -1
      vertex -16.5 -16.5 -1
      vertex -6.55949 -13.0674 -1
    endloop
  endfacet
  facet normal -0 0 -1
    outer loop
      vertex -6.38884 -13.2428 -1
      vertex -16.5 -16.5 -1
      vertex -6.47943 -13.1605 -1
    endloop
  endfacet
  facet normal -0 0 -1
    outer loop
      vertex -6.29208 -13.3114 -1
      vertex -16.5 -16.5 -1
      vertex -6.38884 -13.2428 -1
    endloop
  endfacet
  facet normal -0 0 -1
    outer loop
      vertex -6.18457 -13.3698 -1
      vertex -16.5 -16.5 -1
      vertex -6.29208 -13.3114 -1
    endloop
  endfacet
  facet normal -0 0 -1
    outer loop
      vertex -6.07445 -13.4134 -1
      vertex -16.5 -16.5 -1
      vertex -6.18457 -13.3698 -1
    endloop
  endfacet
  facet normal -0 0 -1
    outer loop
      vertex -5.95496 -13.4448 -1
      vertex -16.5 -16.5 -1
      vertex -6.07445 -13.4134 -1
    endloop
  endfacet
  facet normal -0 0 -1
    outer loop
      vertex -5.83214 -13.4612 -1
      vertex -16.5 -16.5 -1
      vertex -5.95496 -13.4448 -1
    endloop
  endfacet
  facet normal 0 0 -1
    outer loop
      vertex 7.06924 -9.69498 -1
      vertex 16.5 -16.5 -1
      vertex 7.09933 -9.81636 -1
    endloop
  endfacet
  facet normal 0 0 -1
    outer loop
      vertex 7.02325 -9.57939 -1
      vertex 16.5 -16.5 -1
      vertex 7.06924 -9.69498 -1
    endloop
  endfacet
  facet normal 0 0 -1
    outer loop
      vertex 6.96445 -9.47427 -1
      vertex 16.5 -16.5 -1
      vertex 7.02325 -9.57939 -1
    endloop
  endfacet
  facet normal 0 0 -1
    outer loop
      vertex 16.5 -16.5 -1
      vertex 6.96445 -9.47427 -1
      vertex 16.5 16.5 -1
    endloop
  endfacet
  facet normal 0 0 -1
    outer loop
      vertex 6.89294 -9.3772 -1
      vertex 16.5 16.5 -1
      vertex 6.96445 -9.47427 -1
    endloop
  endfacet
  facet normal 0 0 -1
    outer loop
      vertex 6.79745 -9.27823 -1
      vertex 16.5 16.5 -1
      vertex 6.89294 -9.3772 -1
    endloop
  endfacet
  facet normal 0 0 -1
    outer loop
      vertex 6.68301 -9.18826 -1
      vertex 16.5 16.5 -1
      vertex 6.79745 -9.27823 -1
    endloop
  endfacet
  facet normal 0 0 -1
    outer loop
      vertex 6.55972 -9.11694 -1
      vertex 16.5 16.5 -1
      vertex 6.68301 -9.18826 -1
    endloop
  endfacet
  facet normal 0 0 -1
    outer loop
      vertex 2.41927 11.8261 -1
      vertex 6.55972 -9.11694 -1
      vertex 6.42711 -9.06317 -1
    endloop
  endfacet
  facet normal 0 0 -1
    outer loop
      vertex 2.41927 11.8261 -1
      vertex 6.42711 -9.06317 -1
      vertex 6.30803 -9.03209 -1
    endloop
  endfacet
  facet normal 0 0 -1
    outer loop
      vertex 2.41927 11.8261 -1
      vertex 6.30803 -9.03209 -1
      vertex 6.1852 -9.01579 -1
    endloop
  endfacet
  facet normal 0 0 -1
    outer loop
      vertex 2.41927 11.8261 -1
      vertex 6.1852 -9.01579 -1
      vertex 2.41951 -9.01306 -1
    endloop
  endfacet
  facet normal 0 0 -1
    outer loop
      vertex 6.55972 -9.11694 -1
      vertex 2.41927 11.8261 -1
      vertex 16.5 16.5 -1
    endloop
  endfacet
  facet normal 0 0 -1
    outer loop
      vertex 2.40964 11.9453 -1
      vertex 16.5 16.5 -1
      vertex 2.41927 11.8261 -1
    endloop
  endfacet
  facet normal 0 0 -1
    outer loop
      vertex 2.38408 12.0706 -1
      vertex 16.5 16.5 -1
      vertex 2.40964 11.9453 -1
    endloop
  endfacet
  facet normal 0 0 -1
    outer loop
      vertex 2.3421 12.1931 -1
      vertex 16.5 16.5 -1
      vertex 2.38408 12.0706 -1
    endloop
  endfacet
  facet normal 0 0 -1
    outer loop
      vertex 2.28685 12.3044 -1
      vertex 16.5 16.5 -1
      vertex 2.3421 12.1931 -1
    endloop
  endfacet
  facet normal 0 0 -1
    outer loop
      vertex 2.21863 12.407 -1
      vertex 16.5 16.5 -1
      vertex 2.28685 12.3044 -1
    endloop
  endfacet
  facet normal 0 0 -1
    outer loop
      vertex 2.13863 12.5 -1
      vertex 16.5 16.5 -1
      vertex 2.21863 12.407 -1
    endloop
  endfacet
  facet normal 0 0 -1
    outer loop
      vertex 2.0481 12.5822 -1
      vertex 16.5 16.5 -1
      vertex 2.13863 12.5 -1
    endloop
  endfacet
  facet normal 0 0 -1
    outer loop
      vertex 1.95143 12.6507 -1
      vertex 16.5 16.5 -1
      vertex 2.0481 12.5822 -1
    endloop
  endfacet
  facet normal 0 0 -1
    outer loop
      vertex 1.84404 12.709 -1
      vertex 16.5 16.5 -1
      vertex 1.95143 12.6507 -1
    endloop
  endfacet
  facet normal 0 0 -1
    outer loop
      vertex 1.73364 12.7527 -1
      vertex 16.5 16.5 -1
      vertex 1.84404 12.709 -1
    endloop
  endfacet
  facet normal 0 0 -1
    outer loop
      vertex 1.61473 12.7839 -1
      vertex 16.5 16.5 -1
      vertex 1.73364 12.7527 -1
    endloop
  endfacet
  facet normal 0 0 -1
    outer loop
      vertex 1.49211 12.8002 -1
      vertex 16.5 16.5 -1
      vertex 1.61473 12.7839 -1
    endloop
  endfacet
  facet normal 0 0 -1
    outer loop
      vertex -1.10519 12.8021 -1
      vertex 16.5 16.5 -1
      vertex 1.49211 12.8002 -1
    endloop
  endfacet
  facet normal 0 0 -1
    outer loop
      vertex -16.5 16.5 -1
      vertex -1.10519 12.8021 -1
      vertex -1.2039 12.7937 -1
    endloop
  endfacet
  facet normal 0 0 -1
    outer loop
      vertex -16.5 16.5 -1
      vertex -1.2039 12.7937 -1
      vertex -1.32091 12.7703 -1
    endloop
  endfacet
  facet normal 0 0 -1
    outer loop
      vertex -5.76346 -9.013 -1
      vertex -2.06355 11.8789 -1
      vertex -2.06644 -9.013 -1
    endloop
  endfacet
  facet normal 0 0 -1
    outer loop
      vertex -5.8269 -9.0152 -1
      vertex -2.06355 11.8789 -1
      vertex -5.76346 -9.013 -1
    endloop
  endfacet
  facet normal 0 0 -1
    outer loop
      vertex -5.94221 -9.02963 -1
      vertex -2.06355 11.8789 -1
      vertex -5.8269 -9.0152 -1
    endloop
  endfacet
  facet normal 0 0 -1
    outer loop
      vertex -6.0616 -9.05899 -1
      vertex -2.06355 11.8789 -1
      vertex -5.94221 -9.02963 -1
    endloop
  endfacet
  facet normal 0 0 -1
    outer loop
      vertex -6.17256 -9.10089 -1
      vertex -2.06355 11.8789 -1
      vertex -6.0616 -9.05899 -1
    endloop
  endfacet
  facet normal 0 0 -1
    outer loop
      vertex -6.29509 -9.16585 -1
      vertex -2.06355 11.8789 -1
      vertex -6.17256 -9.10089 -1
    endloop
  endfacet
  facet normal 0 0 -1
    outer loop
      vertex -16.5 16.5 -1
      vertex -2.06355 11.8789 -1
      vertex -6.29509 -9.16585 -1
    endloop
  endfacet
  facet normal 0 0 -1
    outer loop
      vertex -16.5 16.5 -1
      vertex -6.29509 -9.16585 -1
      vertex -6.41031 -9.24855 -1
    endloop
  endfacet
  facet normal 0 0 -1
    outer loop
      vertex -16.5 16.5 -1
      vertex -6.41031 -9.24855 -1
      vertex -6.51233 -9.34598 -1
    endloop
  endfacet
  facet normal 0 0 -1
    outer loop
      vertex -16.5 16.5 -1
      vertex -6.51233 -9.34598 -1
      vertex -6.59039 -9.44298 -1
    endloop
  endfacet
  facet normal 0 0 -1
    outer loop
      vertex -16.5 -16.5 -1
      vertex -6.59039 -9.44298 -1
      vertex -6.65331 -9.54572 -1
    endloop
  endfacet
  facet normal 0 0 -1
    outer loop
      vertex -16.5 -16.5 -1
      vertex -6.65331 -9.54572 -1
      vertex -6.70262 -9.65582 -1
    endloop
  endfacet
  facet normal 0 0 -1
    outer loop
      vertex -16.5 -16.5 -1
      vertex -6.70262 -9.65582 -1
      vertex -6.73825 -9.77571 -1
    endloop
  endfacet
  facet normal 0 0 -1
    outer loop
      vertex -16.5 -16.5 -1
      vertex -6.7571 -9.90076 -1
      vertex -6.76019 -12.4861 -1
    endloop
  endfacet
  facet normal 0 0 -1
    outer loop
      vertex -16.5 -16.5 -1
      vertex -6.73825 -9.77571 -1
      vertex -6.7571 -9.90076 -1
    endloop
  endfacet
  facet normal -0 0 -1
    outer loop
      vertex -6.59039 -9.44298 -1
      vertex -16.5 -16.5 -1
      vertex -16.5 16.5 -1
    endloop
  endfacet
  facet normal 0 0 -1
    outer loop
      vertex -2.06355 11.8789 -1
      vertex -16.5 16.5 -1
      vertex -2.04521 12.0116 -1
    endloop
  endfacet
  facet normal 0 0 -1
    outer loop
      vertex -2.04521 12.0116 -1
      vertex -16.5 16.5 -1
      vertex -2.01151 12.1345 -1
    endloop
  endfacet
  facet normal 0 0 -1
    outer loop
      vertex -1.10519 12.8021 -1
      vertex -16.5 16.5 -1
      vertex 16.5 16.5 -1
    endloop
  endfacet
  facet normal 0 0 -1
    outer loop
      vertex -1.43092 12.7344 -1
      vertex -16.5 16.5 -1
      vertex -1.32091 12.7703 -1
    endloop
  endfacet
  facet normal 0 0 -1
    outer loop
      vertex -1.54471 12.6819 -1
      vertex -16.5 16.5 -1
      vertex -1.43092 12.7344 -1
    endloop
  endfacet
  facet normal 0 0 -1
    outer loop
      vertex -1.64845 12.6174 -1
      vertex -16.5 16.5 -1
      vertex -1.54471 12.6819 -1
    endloop
  endfacet
  facet normal 0 0 -1
    outer loop
      vertex -1.74078 12.5431 -1
      vertex -16.5 16.5 -1
      vertex -1.64845 12.6174 -1
    endloop
  endfacet
  facet normal 0 0 -1
    outer loop
      vertex -1.82645 12.4555 -1
      vertex -16.5 16.5 -1
      vertex -1.74078 12.5431 -1
    endloop
  endfacet
  facet normal 0 0 -1
    outer loop
      vertex -1.92113 12.3257 -1
      vertex -16.5 16.5 -1
      vertex -1.82645 12.4555 -1
    endloop
  endfacet
  facet normal 0 0 -1
    outer loop
      vertex -1.96303 12.2501 -1
      vertex -16.5 16.5 -1
      vertex -1.92113 12.3257 -1
    endloop
  endfacet
  facet normal 0 0 -1
    outer loop
      vertex -2.01151 12.1345 -1
      vertex -16.5 16.5 -1
      vertex -1.96303 12.2501 -1
    endloop
  endfacet
  facet normal 0.195427 -0.980718 0
    outer loop
      vertex -1.32091 12.7703 -1
      vertex -1.2039 12.7937 -1.56677e-15
      vertex -1.32091 12.7703 -1.56392e-15
    endloop
  endfacet
  facet normal 0.195427 -0.980718 0
    outer loop
      vertex -1.2039 12.7937 -1.56677e-15
      vertex -1.32091 12.7703 -1
      vertex -1.2039 12.7937 -1
    endloop
  endfacet
  facet normal 0.310368 -0.950617 0
    outer loop
      vertex -1.43092 12.7344 -1
      vertex -1.32091 12.7703 -1.56392e-15
      vertex -1.43092 12.7344 -1.55952e-15
    endloop
  endfacet
  facet normal 0.310368 -0.950617 0
    outer loop
      vertex -1.32091 12.7703 -1.56392e-15
      vertex -1.43092 12.7344 -1
      vertex -1.32091 12.7703 -1
    endloop
  endfacet
  facet normal 0.418888 -0.908038 0
    outer loop
      vertex -1.54471 12.6819 -1
      vertex -1.43092 12.7344 -1.55952e-15
      vertex -1.54471 12.6819 -1.55309e-15
    endloop
  endfacet
  facet normal 0.418888 -0.908038 0
    outer loop
      vertex -1.43092 12.7344 -1.55952e-15
      vertex -1.54471 12.6819 -1
      vertex -1.43092 12.7344 -1
    endloop
  endfacet
  facet normal 0.528168 -0.84914 0
    outer loop
      vertex -1.64845 12.6174 -1
      vertex -1.54471 12.6819 -1.55309e-15
      vertex -1.64845 12.6174 -1.54519e-15
    endloop
  endfacet
  facet normal 0.528168 -0.84914 0
    outer loop
      vertex -1.54471 12.6819 -1.55309e-15
      vertex -1.64845 12.6174 -1
      vertex -1.54471 12.6819 -1
    endloop
  endfacet
  facet normal 0.626906 -0.779095 0
    outer loop
      vertex -1.74078 12.5431 -1
      vertex -1.64845 12.6174 -1.54519e-15
      vertex -1.74078 12.5431 -1.53609e-15
    endloop
  endfacet
  facet normal 0.626906 -0.779095 0
    outer loop
      vertex -1.64845 12.6174 -1.54519e-15
      vertex -1.74078 12.5431 -1
      vertex -1.64845 12.6174 -1
    endloop
  endfacet
  facet normal 0.715092 -0.69903 0
    outer loop
      vertex -1.82645 12.4555 -1.52536e-15
      vertex -1.74078 12.5431 -1
      vertex -1.74078 12.5431 -1.53609e-15
    endloop
  endfacet
  facet normal 0.715092 -0.69903 0
    outer loop
      vertex -1.74078 12.5431 -1
      vertex -1.82645 12.4555 -1.52536e-15
      vertex -1.82645 12.4555 -1
    endloop
  endfacet
  facet normal 0.807918 -0.589295 0
    outer loop
      vertex -1.92113 12.3257 -1.50946e-15
      vertex -1.82645 12.4555 -1
      vertex -1.82645 12.4555 -1.52536e-15
    endloop
  endfacet
  facet normal 0.807918 -0.589295 0
    outer loop
      vertex -1.82645 12.4555 -1
      vertex -1.92113 12.3257 -1.50946e-15
      vertex -1.92113 12.3257 -1
    endloop
  endfacet
  facet normal 0.874499 -0.485028 0
    outer loop
      vertex -1.96303 12.2501 -1.50021e-15
      vertex -1.92113 12.3257 -1
      vertex -1.92113 12.3257 -1.50946e-15
    endloop
  endfacet
  facet normal 0.874499 -0.485028 0
    outer loop
      vertex -1.92113 12.3257 -1
      vertex -1.96303 12.2501 -1.50021e-15
      vertex -1.96303 12.2501 -1
    endloop
  endfacet
  facet normal 0.92225 -0.386593 0
    outer loop
      vertex -2.01151 12.1345 -1.48604e-15
      vertex -1.96303 12.2501 -1
      vertex -1.96303 12.2501 -1.50021e-15
    endloop
  endfacet
  facet normal 0.92225 -0.386593 0
    outer loop
      vertex -1.96303 12.2501 -1
      vertex -2.01151 12.1345 -1.48604e-15
      vertex -2.01151 12.1345 -1
    endloop
  endfacet
  facet normal 0.964376 -0.264536 0
    outer loop
      vertex -2.04521 12.0116 -1.471e-15
      vertex -2.01151 12.1345 -1
      vertex -2.01151 12.1345 -1.48604e-15
    endloop
  endfacet
  facet normal 0.964376 -0.264536 0
    outer loop
      vertex -2.01151 12.1345 -1
      vertex -2.04521 12.0116 -1.471e-15
      vertex -2.04521 12.0116 -1
    endloop
  endfacet
  facet normal 0.990586 -0.136892 0
    outer loop
      vertex -2.06355 11.8789 -1.45474e-15
      vertex -2.04521 12.0116 -1
      vertex -2.04521 12.0116 -1.471e-15
    endloop
  endfacet
  facet normal 0.990586 -0.136892 0
    outer loop
      vertex -2.04521 12.0116 -1
      vertex -2.06355 11.8789 -1.45474e-15
      vertex -2.06355 11.8789 -1
    endloop
  endfacet
  facet normal 1 -0.00013804 0
    outer loop
      vertex -2.06644 -9.013 1.10377e-15
      vertex -2.06355 11.8789 -1
      vertex -2.06355 11.8789 -1.45474e-15
    endloop
  endfacet
  facet normal 1 -0.00013804 0
    outer loop
      vertex -2.06355 11.8789 -1
      vertex -2.06644 -9.013 1.10377e-15
      vertex -2.06644 -9.013 -1
    endloop
  endfacet
  facet normal 0 -1 0
    outer loop
      vertex -5.76346 -9.013 -1
      vertex -2.06644 -9.013 1.10377e-15
      vertex -5.76346 -9.013 1.10377e-15
    endloop
  endfacet
  facet normal 0 -1 -0
    outer loop
      vertex -2.06644 -9.013 1.10377e-15
      vertex -5.76346 -9.013 -1
      vertex -2.06644 -9.013 -1
    endloop
  endfacet
  facet normal 0.0346113 -0.999401 0
    outer loop
      vertex -5.8269 -9.0152 -1
      vertex -5.76346 -9.013 1.10377e-15
      vertex -5.8269 -9.0152 1.10404e-15
    endloop
  endfacet
  facet normal 0.0346113 -0.999401 0
    outer loop
      vertex -5.76346 -9.013 1.10377e-15
      vertex -5.8269 -9.0152 -1
      vertex -5.76346 -9.013 -1
    endloop
  endfacet
  facet normal 0.124212 -0.992256 0
    outer loop
      vertex -5.94221 -9.02963 -1
      vertex -5.8269 -9.0152 1.10404e-15
      vertex -5.94221 -9.02963 1.10581e-15
    endloop
  endfacet
  facet normal 0.124212 -0.992256 0
    outer loop
      vertex -5.8269 -9.0152 1.10404e-15
      vertex -5.94221 -9.02963 -1
      vertex -5.8269 -9.0152 -1
    endloop
  endfacet
  facet normal 0.238796 -0.97107 0
    outer loop
      vertex -6.0616 -9.05899 -1
      vertex -5.94221 -9.02963 1.10581e-15
      vertex -6.0616 -9.05899 1.10941e-15
    endloop
  endfacet
  facet normal 0.238796 -0.97107 0
    outer loop
      vertex -5.94221 -9.02963 1.10581e-15
      vertex -6.0616 -9.05899 -1
      vertex -5.94221 -9.02963 -1
    endloop
  endfacet
  facet normal 0.353265 -0.935523 0
    outer loop
      vertex -6.17256 -9.10089 -1
      vertex -6.0616 -9.05899 1.10941e-15
      vertex -6.17256 -9.10089 1.11454e-15
    endloop
  endfacet
  facet normal 0.353265 -0.935523 0
    outer loop
      vertex -6.0616 -9.05899 1.10941e-15
      vertex -6.17256 -9.10089 -1
      vertex -6.0616 -9.05899 -1
    endloop
  endfacet
  facet normal 0.468388 -0.883523 0
    outer loop
      vertex -6.29509 -9.16585 -1
      vertex -6.17256 -9.10089 1.11454e-15
      vertex -6.29509 -9.16585 1.12249e-15
    endloop
  endfacet
  facet normal 0.468388 -0.883523 0
    outer loop
      vertex -6.17256 -9.10089 1.11454e-15
      vertex -6.29509 -9.16585 -1
      vertex -6.17256 -9.10089 -1
    endloop
  endfacet
  facet normal 0.583119 -0.812386 0
    outer loop
      vertex -6.41031 -9.24855 -1
      vertex -6.29509 -9.16585 1.12249e-15
      vertex -6.41031 -9.24855 1.13262e-15
    endloop
  endfacet
  facet normal 0.583119 -0.812386 0
    outer loop
      vertex -6.29509 -9.16585 1.12249e-15
      vertex -6.41031 -9.24855 -1
      vertex -6.29509 -9.16585 -1
    endloop
  endfacet
  facet normal 0.69064 -0.723198 0
    outer loop
      vertex -6.51233 -9.34598 -1
      vertex -6.41031 -9.24855 1.13262e-15
      vertex -6.51233 -9.34598 1.14455e-15
    endloop
  endfacet
  facet normal 0.69064 -0.723198 0
    outer loop
      vertex -6.41031 -9.24855 1.13262e-15
      vertex -6.51233 -9.34598 -1
      vertex -6.41031 -9.24855 -1
    endloop
  endfacet
  facet normal 0.779048 -0.626964 0
    outer loop
      vertex -6.59039 -9.44298 1.15643e-15
      vertex -6.51233 -9.34598 -1
      vertex -6.51233 -9.34598 1.14455e-15
    endloop
  endfacet
  facet normal 0.779048 -0.626964 0
    outer loop
      vertex -6.51233 -9.34598 -1
      vertex -6.59039 -9.44298 1.15643e-15
      vertex -6.59039 -9.44298 -1
    endloop
  endfacet
  facet normal 0.852809 -0.522223 0
    outer loop
      vertex -6.65331 -9.54572 1.16901e-15
      vertex -6.59039 -9.44298 -1
      vertex -6.59039 -9.44298 1.15643e-15
    endloop
  endfacet
  facet normal 0.852809 -0.522223 0
    outer loop
      vertex -6.59039 -9.44298 -1
      vertex -6.65331 -9.54572 1.16901e-15
      vertex -6.65331 -9.54572 -1
    endloop
  endfacet
  facet normal 0.91264 -0.408765 0
    outer loop
      vertex -6.70262 -9.65582 1.1825e-15
      vertex -6.65331 -9.54572 -1
      vertex -6.65331 -9.54572 1.16901e-15
    endloop
  endfacet
  facet normal 0.91264 -0.408765 0
    outer loop
      vertex -6.65331 -9.54572 -1
      vertex -6.70262 -9.65582 1.1825e-15
      vertex -6.70262 -9.65582 -1
    endloop
  endfacet
  facet normal 0.958565 -0.284873 0
    outer loop
      vertex -6.73825 -9.77571 1.19718e-15
      vertex -6.70262 -9.65582 -1
      vertex -6.70262 -9.65582 1.1825e-15
    endloop
  endfacet
  facet normal 0.958565 -0.284873 0
    outer loop
      vertex -6.70262 -9.65582 -1
      vertex -6.73825 -9.77571 1.19718e-15
      vertex -6.73825 -9.77571 -1
    endloop
  endfacet
  facet normal 0.988834 -0.149019 0
    outer loop
      vertex -6.7571 -9.90076 1.21249e-15
      vertex -6.73825 -9.77571 -1
      vertex -6.73825 -9.77571 1.19718e-15
    endloop
  endfacet
  facet normal 0.988834 -0.149019 0
    outer loop
      vertex -6.73825 -9.77571 -1
      vertex -6.7571 -9.90076 1.21249e-15
      vertex -6.7571 -9.90076 -1
    endloop
  endfacet
  facet normal 0.999999 -0.00119811 0
    outer loop
      vertex -6.76019 -12.4861 1.52911e-15
      vertex -6.7571 -9.90076 -1
      vertex -6.7571 -9.90076 1.21249e-15
    endloop
  endfacet
  facet normal 0.999999 -0.00119811 0
    outer loop
      vertex -6.7571 -9.90076 -1
      vertex -6.76019 -12.4861 1.52911e-15
      vertex -6.76019 -12.4861 -1
    endloop
  endfacet
  facet normal 0.996757 0.08047 0
    outer loop
      vertex -6.75056 -12.6054 1.54371e-15
      vertex -6.76019 -12.4861 -1
      vertex -6.76019 -12.4861 1.52911e-15
    endloop
  endfacet
  facet normal 0.996757 0.08047 0
    outer loop
      vertex -6.76019 -12.4861 -1
      vertex -6.75056 -12.6054 1.54371e-15
      vertex -6.75056 -12.6054 -1
    endloop
  endfacet
  facet normal 0.979734 0.200303 0
    outer loop
      vertex -6.72418 -12.7344 1.55951e-15
      vertex -6.75056 -12.6054 -1
      vertex -6.75056 -12.6054 1.54371e-15
    endloop
  endfacet
  facet normal 0.979734 0.200303 0
    outer loop
      vertex -6.75056 -12.6054 -1
      vertex -6.72418 -12.7344 1.55951e-15
      vertex -6.72418 -12.7344 -1
    endloop
  endfacet
  facet normal 0.944957 0.327194 0
    outer loop
      vertex -6.68301 -12.8533 1.57408e-15
      vertex -6.72418 -12.7344 -1
      vertex -6.72418 -12.7344 1.55951e-15
    endloop
  endfacet
  facet normal 0.944957 0.327194 0
    outer loop
      vertex -6.72418 -12.7344 -1
      vertex -6.68301 -12.8533 1.57408e-15
      vertex -6.68301 -12.8533 -1
    endloop
  endfacet
  facet normal 0.895773 0.444512 0
    outer loop
      vertex -6.62775 -12.9647 1.58771e-15
      vertex -6.68301 -12.8533 -1
      vertex -6.68301 -12.8533 1.57408e-15
    endloop
  endfacet
  facet normal 0.895773 0.444512 0
    outer loop
      vertex -6.68301 -12.8533 -1
      vertex -6.62775 -12.9647 1.58771e-15
      vertex -6.62775 -12.9647 -1
    endloop
  endfacet
  facet normal 0.832944 0.553358 0
    outer loop
      vertex -6.55949 -13.0674 1.6003e-15
      vertex -6.62775 -12.9647 -1
      vertex -6.62775 -12.9647 1.58771e-15
    endloop
  endfacet
  facet normal 0.832944 0.553358 0
    outer loop
      vertex -6.62775 -12.9647 -1
      vertex -6.55949 -13.0674 1.6003e-15
      vertex -6.55949 -13.0674 -1
    endloop
  endfacet
  facet normal 0.758071 0.652172 0
    outer loop
      vertex -6.47943 -13.1605 1.61169e-15
      vertex -6.55949 -13.0674 -1
      vertex -6.55949 -13.0674 1.6003e-15
    endloop
  endfacet
  facet normal 0.758071 0.652172 0
    outer loop
      vertex -6.55949 -13.0674 -1
      vertex -6.47943 -13.1605 1.61169e-15
      vertex -6.47943 -13.1605 -1
    endloop
  endfacet
  facet normal 0.672654 0.739957 -0
    outer loop
      vertex -6.38884 -13.2428 -1
      vertex -6.47943 -13.1605 1.61169e-15
      vertex -6.38884 -13.2428 1.62178e-15
    endloop
  endfacet
  facet normal 0.672654 0.739957 0
    outer loop
      vertex -6.47943 -13.1605 1.61169e-15
      vertex -6.38884 -13.2428 -1
      vertex -6.47943 -13.1605 -1
    endloop
  endfacet
  facet normal 0.578057 0.815997 -0
    outer loop
      vertex -6.29208 -13.3114 -1
      vertex -6.38884 -13.2428 1.62178e-15
      vertex -6.29208 -13.3114 1.63017e-15
    endloop
  endfacet
  facet normal 0.578057 0.815997 0
    outer loop
      vertex -6.38884 -13.2428 1.62178e-15
      vertex -6.29208 -13.3114 -1
      vertex -6.38884 -13.2428 -1
    endloop
  endfacet
  facet normal 0.477769 0.878486 -0
    outer loop
      vertex -6.18457 -13.3698 -1
      vertex -6.29208 -13.3114 1.63017e-15
      vertex -6.18457 -13.3698 1.63733e-15
    endloop
  endfacet
  facet normal 0.477769 0.878486 0
    outer loop
      vertex -6.29208 -13.3114 1.63017e-15
      vertex -6.18457 -13.3698 -1
      vertex -6.29208 -13.3114 -1
    endloop
  endfacet
  facet normal 0.367856 0.929883 -0
    outer loop
      vertex -6.07445 -13.4134 -1
      vertex -6.18457 -13.3698 1.63733e-15
      vertex -6.07445 -13.4134 1.64267e-15
    endloop
  endfacet
  facet normal 0.367856 0.929883 0
    outer loop
      vertex -6.18457 -13.3698 1.63733e-15
      vertex -6.07445 -13.4134 -1
      vertex -6.18457 -13.3698 -1
    endloop
  endfacet
  facet normal 0.254402 0.967099 -0
    outer loop
      vertex -5.95496 -13.4448 -1
      vertex -6.07445 -13.4134 1.64267e-15
      vertex -5.95496 -13.4448 1.64652e-15
    endloop
  endfacet
  facet normal 0.254402 0.967099 0
    outer loop
      vertex -6.07445 -13.4134 1.64267e-15
      vertex -5.95496 -13.4448 -1
      vertex -6.07445 -13.4134 -1
    endloop
  endfacet
  facet normal 0.132019 0.991247 -0
    outer loop
      vertex -5.83214 -13.4612 -1
      vertex -5.95496 -13.4448 1.64652e-15
      vertex -5.83214 -13.4612 1.64852e-15
    endloop
  endfacet
  facet normal 0.132019 0.991247 0
    outer loop
      vertex -5.95496 -13.4448 1.64652e-15
      vertex -5.83214 -13.4612 -1
      vertex -5.95496 -13.4448 -1
    endloop
  endfacet
  facet normal 0.000214228 1 -0
    outer loop
      vertex 6.13397 -13.4638 -1
      vertex -5.83214 -13.4612 1.64852e-15
      vertex 6.13397 -13.4638 1.64884e-15
    endloop
  endfacet
  facet normal 0.000214228 1 0
    outer loop
      vertex -5.83214 -13.4612 1.64852e-15
      vertex 6.13397 -13.4638 -1
      vertex -5.83214 -13.4612 -1
    endloop
  endfacet
  facet normal -0.0777512 0.996973 0
    outer loop
      vertex 6.24648 -13.455 -1
      vertex 6.13397 -13.4638 1.64884e-15
      vertex 6.24648 -13.455 1.64776e-15
    endloop
  endfacet
  facet normal -0.0777512 0.996973 0
    outer loop
      vertex 6.13397 -13.4638 1.64884e-15
      vertex 6.24648 -13.455 -1
      vertex 6.13397 -13.4638 -1
    endloop
  endfacet
  facet normal -0.19252 0.981293 0
    outer loop
      vertex 6.36742 -13.4313 -1
      vertex 6.24648 -13.455 1.64776e-15
      vertex 6.36742 -13.4313 1.64485e-15
    endloop
  endfacet
  facet normal -0.19252 0.981293 0
    outer loop
      vertex 6.24648 -13.455 1.64776e-15
      vertex 6.36742 -13.4313 -1
      vertex 6.24648 -13.455 -1
    endloop
  endfacet
  facet normal -0.311066 0.950388 0
    outer loop
      vertex 6.48047 -13.3943 -1
      vertex 6.36742 -13.4313 1.64485e-15
      vertex 6.48047 -13.3943 1.64032e-15
    endloop
  endfacet
  facet normal -0.311066 0.950388 0
    outer loop
      vertex 6.36742 -13.4313 1.64485e-15
      vertex 6.48047 -13.3943 -1
      vertex 6.36742 -13.4313 -1
    endloop
  endfacet
  facet normal -0.421452 0.906851 0
    outer loop
      vertex 6.59148 -13.3427 -1
      vertex 6.48047 -13.3943 1.64032e-15
      vertex 6.59148 -13.3427 1.63401e-15
    endloop
  endfacet
  facet normal -0.421452 0.906851 0
    outer loop
      vertex 6.48047 -13.3943 1.64032e-15
      vertex 6.59148 -13.3427 -1
      vertex 6.48047 -13.3943 -1
    endloop
  endfacet
  facet normal -0.528462 0.848957 0
    outer loop
      vertex 6.69531 -13.278 -1
      vertex 6.59148 -13.3427 1.63401e-15
      vertex 6.69531 -13.278 1.62609e-15
    endloop
  endfacet
  facet normal -0.528462 0.848957 0
    outer loop
      vertex 6.59148 -13.3427 1.63401e-15
      vertex 6.69531 -13.278 -1
      vertex 6.59148 -13.3427 -1
    endloop
  endfacet
  facet normal -0.627154 0.778895 0
    outer loop
      vertex 6.78773 -13.2036 -1
      vertex 6.69531 -13.278 1.62609e-15
      vertex 6.78773 -13.2036 1.61698e-15
    endloop
  endfacet
  facet normal -0.627154 0.778895 0
    outer loop
      vertex 6.69531 -13.278 1.62609e-15
      vertex 6.78773 -13.2036 -1
      vertex 6.69531 -13.278 -1
    endloop
  endfacet
  facet normal -0.715392 0.698723 0
    outer loop
      vertex 6.78773 -13.2036 -1
      vertex 6.87344 -13.1159 1.60623e-15
      vertex 6.87344 -13.1159 -1
    endloop
  endfacet
  facet normal -0.715392 0.698723 0
    outer loop
      vertex 6.87344 -13.1159 1.60623e-15
      vertex 6.78773 -13.2036 -1
      vertex 6.78773 -13.2036 1.61698e-15
    endloop
  endfacet
  facet normal -0.795965 0.605342 0
    outer loop
      vertex 6.87344 -13.1159 -1
      vertex 6.94574 -13.0208 1.59459e-15
      vertex 6.94574 -13.0208 -1
    endloop
  endfacet
  facet normal -0.795965 0.605342 0
    outer loop
      vertex 6.94574 -13.0208 1.59459e-15
      vertex 6.87344 -13.1159 -1
      vertex 6.87344 -13.1159 1.60623e-15
    endloop
  endfacet
  facet normal -0.863881 0.503695 0
    outer loop
      vertex 6.94574 -13.0208 -1
      vertex 7.00824 -12.9136 1.58146e-15
      vertex 7.00824 -12.9136 -1
    endloop
  endfacet
  facet normal -0.863881 0.503695 0
    outer loop
      vertex 7.00824 -12.9136 1.58146e-15
      vertex 6.94574 -13.0208 -1
      vertex 6.94574 -13.0208 1.59459e-15
    endloop
  endfacet
  facet normal -0.92107 0.389397 0
    outer loop
      vertex 7.00824 -12.9136 -1
      vertex 7.05856 -12.7946 1.56688e-15
      vertex 7.05856 -12.7946 -1
    endloop
  endfacet
  facet normal -0.92107 0.389397 0
    outer loop
      vertex 7.05856 -12.7946 1.56688e-15
      vertex 7.00824 -12.9136 -1
      vertex 7.00824 -12.9136 1.58146e-15
    endloop
  endfacet
  facet normal -0.964379 0.264525 0
    outer loop
      vertex 7.05856 -12.7946 -1
      vertex 7.09229 -12.6716 1.55183e-15
      vertex 7.09229 -12.6716 -1
    endloop
  endfacet
  facet normal -0.964379 0.264525 0
    outer loop
      vertex 7.09229 -12.6716 1.55183e-15
      vertex 7.05856 -12.7946 -1
      vertex 7.05856 -12.7946 1.56688e-15
    endloop
  endfacet
  facet normal -0.99059 0.136861 0
    outer loop
      vertex 7.09229 -12.6716 -1
      vertex 7.11063 -12.5389 1.53557e-15
      vertex 7.11063 -12.5389 -1
    endloop
  endfacet
  facet normal -0.99059 0.136861 0
    outer loop
      vertex 7.11063 -12.5389 1.53557e-15
      vertex 7.09229 -12.6716 -1
      vertex 7.09229 -12.6716 1.55183e-15
    endloop
  endfacet
  facet normal -1 0.000733447 0
    outer loop
      vertex 7.11063 -12.5389 -1
      vertex 7.11253 -9.93835 1.2171e-15
      vertex 7.11253 -9.93835 -1
    endloop
  endfacet
  facet normal -1 0.000733447 0
    outer loop
      vertex 7.11253 -9.93835 1.2171e-15
      vertex 7.11063 -12.5389 -1
      vertex 7.11063 -12.5389 1.53557e-15
    endloop
  endfacet
  facet normal -0.994198 -0.107565 0
    outer loop
      vertex 7.11253 -9.93835 -1
      vertex 7.09933 -9.81636 1.20216e-15
      vertex 7.09933 -9.81636 -1
    endloop
  endfacet
  facet normal -0.994198 -0.107565 0
    outer loop
      vertex 7.09933 -9.81636 1.20216e-15
      vertex 7.11253 -9.93835 -1
      vertex 7.11253 -9.93835 1.2171e-15
    endloop
  endfacet
  facet normal -0.970621 -0.240612 0
    outer loop
      vertex 7.09933 -9.81636 -1
      vertex 7.06924 -9.69498 1.18729e-15
      vertex 7.06924 -9.69498 -1
    endloop
  endfacet
  facet normal -0.970621 -0.240612 0
    outer loop
      vertex 7.06924 -9.69498 1.18729e-15
      vertex 7.09933 -9.81636 -1
      vertex 7.09933 -9.81636 1.20216e-15
    endloop
  endfacet
  facet normal -0.929152 -0.369698 0
    outer loop
      vertex 7.06924 -9.69498 -1
      vertex 7.02325 -9.57939 1.17314e-15
      vertex 7.02325 -9.57939 -1
    endloop
  endfacet
  facet normal -0.929152 -0.369698 0
    outer loop
      vertex 7.02325 -9.57939 1.17314e-15
      vertex 7.06924 -9.69498 -1
      vertex 7.06924 -9.69498 1.18729e-15
    endloop
  endfacet
  facet normal -0.872713 -0.488233 0
    outer loop
      vertex 7.02325 -9.57939 -1
      vertex 6.96445 -9.47427 1.16026e-15
      vertex 6.96445 -9.47427 -1
    endloop
  endfacet
  facet normal -0.872713 -0.488233 0
    outer loop
      vertex 6.96445 -9.47427 1.16026e-15
      vertex 7.02325 -9.57939 -1
      vertex 7.02325 -9.57939 1.17314e-15
    endloop
  endfacet
  facet normal -0.805164 -0.593052 0
    outer loop
      vertex 6.96445 -9.47427 -1
      vertex 6.89294 -9.3772 1.14838e-15
      vertex 6.89294 -9.3772 -1
    endloop
  endfacet
  facet normal -0.805164 -0.593052 0
    outer loop
      vertex 6.89294 -9.3772 1.14838e-15
      vertex 6.96445 -9.47427 -1
      vertex 6.96445 -9.47427 1.16026e-15
    endloop
  endfacet
  facet normal -0.719642 -0.694345 0
    outer loop
      vertex 6.89294 -9.3772 -1
      vertex 6.79745 -9.27823 1.13626e-15
      vertex 6.79745 -9.27823 -1
    endloop
  endfacet
  facet normal -0.719642 -0.694345 0
    outer loop
      vertex 6.79745 -9.27823 1.13626e-15
      vertex 6.89294 -9.3772 -1
      vertex 6.89294 -9.3772 1.14838e-15
    endloop
  endfacet
  facet normal -0.618025 -0.786158 0
    outer loop
      vertex 6.68301 -9.18826 -1
      vertex 6.79745 -9.27823 1.13626e-15
      vertex 6.68301 -9.18826 1.12524e-15
    endloop
  endfacet
  facet normal -0.618025 -0.786158 -0
    outer loop
      vertex 6.79745 -9.27823 1.13626e-15
      vertex 6.68301 -9.18826 -1
      vertex 6.79745 -9.27823 -1
    endloop
  endfacet
  facet normal -0.500724 -0.865607 0
    outer loop
      vertex 6.55972 -9.11694 -1
      vertex 6.68301 -9.18826 1.12524e-15
      vertex 6.55972 -9.11694 1.1165e-15
    endloop
  endfacet
  facet normal -0.500724 -0.865607 -0
    outer loop
      vertex 6.68301 -9.18826 1.12524e-15
      vertex 6.55972 -9.11694 -1
      vertex 6.68301 -9.18826 -1
    endloop
  endfacet
  facet normal -0.375762 -0.926716 0
    outer loop
      vertex 6.42711 -9.06317 -1
      vertex 6.55972 -9.11694 1.1165e-15
      vertex 6.42711 -9.06317 1.10992e-15
    endloop
  endfacet
  facet normal -0.375762 -0.926716 -0
    outer loop
      vertex 6.55972 -9.11694 1.1165e-15
      vertex 6.42711 -9.06317 -1
      vertex 6.55972 -9.11694 -1
    endloop
  endfacet
  facet normal -0.252558 -0.967582 0
    outer loop
      vertex 6.30803 -9.03209 -1
      vertex 6.42711 -9.06317 1.10992e-15
      vertex 6.30803 -9.03209 1.10611e-15
    endloop
  endfacet
  facet normal -0.252558 -0.967582 -0
    outer loop
      vertex 6.42711 -9.06317 1.10992e-15
      vertex 6.30803 -9.03209 -1
      vertex 6.42711 -9.06317 -1
    endloop
  endfacet
  facet normal -0.131518 -0.991314 0
    outer loop
      vertex 6.1852 -9.01579 -1
      vertex 6.30803 -9.03209 1.10611e-15
      vertex 6.1852 -9.01579 1.10412e-15
    endloop
  endfacet
  facet normal -0.131518 -0.991314 -0
    outer loop
      vertex 6.30803 -9.03209 1.10611e-15
      vertex 6.1852 -9.01579 -1
      vertex 6.30803 -9.03209 -1
    endloop
  endfacet
  facet normal -0.000725319 -1 0
    outer loop
      vertex 2.41951 -9.01306 -1
      vertex 6.1852 -9.01579 1.10412e-15
      vertex 2.41951 -9.01306 1.10378e-15
    endloop
  endfacet
  facet normal -0.000725319 -1 -0
    outer loop
      vertex 6.1852 -9.01579 1.10412e-15
      vertex 2.41951 -9.01306 -1
      vertex 6.1852 -9.01579 -1
    endloop
  endfacet
  facet normal -1 -1.17155e-05 0
    outer loop
      vertex 2.41951 -9.01306 -1
      vertex 2.41927 11.8261 -1.44828e-15
      vertex 2.41927 11.8261 -1
    endloop
  endfacet
  facet normal -1 -1.17155e-05 0
    outer loop
      vertex 2.41927 11.8261 -1.44828e-15
      vertex 2.41951 -9.01306 -1
      vertex 2.41951 -9.01306 1.10378e-15
    endloop
  endfacet
  facet normal -0.996756 -0.0804803 0
    outer loop
      vertex 2.41927 11.8261 -1
      vertex 2.40964 11.9453 -1.46288e-15
      vertex 2.40964 11.9453 -1
    endloop
  endfacet
  facet normal -0.996756 -0.0804803 0
    outer loop
      vertex 2.40964 11.9453 -1.46288e-15
      vertex 2.41927 11.8261 -1
      vertex 2.41927 11.8261 -1.44828e-15
    endloop
  endfacet
  facet normal -0.979826 -0.199855 0
    outer loop
      vertex 2.40964 11.9453 -1
      vertex 2.38408 12.0706 -1.47823e-15
      vertex 2.38408 12.0706 -1
    endloop
  endfacet
  facet normal -0.979826 -0.199855 0
    outer loop
      vertex 2.38408 12.0706 -1.47823e-15
      vertex 2.40964 11.9453 -1
      vertex 2.40964 11.9453 -1.46288e-15
    endloop
  endfacet
  facet normal -0.945986 -0.324207 0
    outer loop
      vertex 2.38408 12.0706 -1
      vertex 2.3421 12.1931 -1.49323e-15
      vertex 2.3421 12.1931 -1
    endloop
  endfacet
  facet normal -0.945986 -0.324207 0
    outer loop
      vertex 2.3421 12.1931 -1.49323e-15
      vertex 2.38408 12.0706 -1
      vertex 2.38408 12.0706 -1.47823e-15
    endloop
  endfacet
  facet normal -0.895676 -0.444706 0
    outer loop
      vertex 2.3421 12.1931 -1
      vertex 2.28685 12.3044 -1.50686e-15
      vertex 2.28685 12.3044 -1
    endloop
  endfacet
  facet normal -0.895676 -0.444706 0
    outer loop
      vertex 2.28685 12.3044 -1.50686e-15
      vertex 2.3421 12.1931 -1
      vertex 2.3421 12.1931 -1.49323e-15
    endloop
  endfacet
  facet normal -0.832792 -0.553585 0
    outer loop
      vertex 2.28685 12.3044 -1
      vertex 2.21863 12.407 -1.51942e-15
      vertex 2.21863 12.407 -1
    endloop
  endfacet
  facet normal -0.832792 -0.553585 0
    outer loop
      vertex 2.21863 12.407 -1.51942e-15
      vertex 2.28685 12.3044 -1
      vertex 2.28685 12.3044 -1.50686e-15
    endloop
  endfacet
  facet normal -0.757894 -0.652378 0
    outer loop
      vertex 2.21863 12.407 -1
      vertex 2.13863 12.5 -1.53081e-15
      vertex 2.13863 12.5 -1
    endloop
  endfacet
  facet normal -0.757894 -0.652378 0
    outer loop
      vertex 2.13863 12.5 -1.53081e-15
      vertex 2.21863 12.407 -1
      vertex 2.21863 12.407 -1.51942e-15
    endloop
  endfacet
  facet normal -0.672356 -0.740228 0
    outer loop
      vertex 2.0481 12.5822 -1
      vertex 2.13863 12.5 -1.53081e-15
      vertex 2.0481 12.5822 -1.54088e-15
    endloop
  endfacet
  facet normal -0.672356 -0.740228 -0
    outer loop
      vertex 2.13863 12.5 -1.53081e-15
      vertex 2.0481 12.5822 -1
      vertex 2.13863 12.5 -1
    endloop
  endfacet
  facet normal -0.577821 -0.816164 0
    outer loop
      vertex 1.95143 12.6507 -1
      vertex 2.0481 12.5822 -1.54088e-15
      vertex 1.95143 12.6507 -1.54926e-15
    endloop
  endfacet
  facet normal -0.577821 -0.816164 -0
    outer loop
      vertex 2.0481 12.5822 -1.54088e-15
      vertex 1.95143 12.6507 -1
      vertex 2.0481 12.5822 -1
    endloop
  endfacet
  facet normal -0.477513 -0.878625 0
    outer loop
      vertex 1.84404 12.709 -1
      vertex 1.95143 12.6507 -1.54926e-15
      vertex 1.84404 12.709 -1.55641e-15
    endloop
  endfacet
  facet normal -0.477513 -0.878625 -0
    outer loop
      vertex 1.95143 12.6507 -1.54926e-15
      vertex 1.84404 12.709 -1
      vertex 1.95143 12.6507 -1
    endloop
  endfacet
  facet normal -0.36762 -0.929976 0
    outer loop
      vertex 1.73364 12.7527 -1
      vertex 1.84404 12.709 -1.55641e-15
      vertex 1.73364 12.7527 -1.56175e-15
    endloop
  endfacet
  facet normal -0.36762 -0.929976 -0
    outer loop
      vertex 1.84404 12.709 -1.55641e-15
      vertex 1.73364 12.7527 -1
      vertex 1.84404 12.709 -1
    endloop
  endfacet
  facet normal -0.253937 -0.967221 0
    outer loop
      vertex 1.61473 12.7839 -1
      vertex 1.73364 12.7527 -1.56175e-15
      vertex 1.61473 12.7839 -1.56557e-15
    endloop
  endfacet
  facet normal -0.253937 -0.967221 -0
    outer loop
      vertex 1.73364 12.7527 -1.56175e-15
      vertex 1.61473 12.7839 -1
      vertex 1.73364 12.7527 -1
    endloop
  endfacet
  facet normal -0.131865 -0.991268 0
    outer loop
      vertex 1.49211 12.8002 -1
      vertex 1.61473 12.7839 -1.56557e-15
      vertex 1.49211 12.8002 -1.56757e-15
    endloop
  endfacet
  facet normal -0.131865 -0.991268 -0
    outer loop
      vertex 1.61473 12.7839 -1.56557e-15
      vertex 1.49211 12.8002 -1
      vertex 1.61473 12.7839 -1
    endloop
  endfacet
  facet normal -0.000734357 -1 0
    outer loop
      vertex -1.10519 12.8021 -1
      vertex 1.49211 12.8002 -1.56757e-15
      vertex -1.10519 12.8021 -1.5678e-15
    endloop
  endfacet
  facet normal -0.000734357 -1 -0
    outer loop
      vertex 1.49211 12.8002 -1.56757e-15
      vertex -1.10519 12.8021 -1
      vertex 1.49211 12.8002 -1
    endloop
  endfacet
  facet normal 0.085174 -0.996366 0
    outer loop
      vertex -1.2039 12.7937 -1
      vertex -1.10519 12.8021 -1.5678e-15
      vertex -1.2039 12.7937 -1.56677e-15
    endloop
  endfacet
  facet normal 0.085174 -0.996366 0
    outer loop
      vertex -1.10519 12.8021 -1.5678e-15
      vertex -1.2039 12.7937 -1
      vertex -1.10519 12.8021 -1
    endloop
  endfacet
  facet normal -0 0 1
    outer loop
      vertex -16.5 7.15 13.3
      vertex -15.5 -7.15 13.3
      vertex -15.5 7.15 13.3
    endloop
  endfacet
  facet normal 0 0 1
    outer loop
      vertex -15.5 -7.15 13.3
      vertex -16.5 7.15 13.3
      vertex -16.5 -7.15 13.3
    endloop
  endfacet
  facet normal 0 1 -0
    outer loop
      vertex -15.5 -7.15 13.3
      vertex -16.5 -7.15 15
      vertex -15.5 -7.15 15
    endloop
  endfacet
  facet normal 0 1 0
    outer loop
      vertex -16.5 -7.15 15
      vertex -15.5 -7.15 13.3
      vertex -16.5 -7.15 13.3
    endloop
  endfacet
  facet normal 0 -1 0
    outer loop
      vertex -16.5 7.15 13.3
      vertex -15.5 7.15 15
      vertex -16.5 7.15 15
    endloop
  endfacet
  facet normal 0 -1 -0
    outer loop
      vertex -15.5 7.15 15
      vertex -16.5 7.15 13.3
      vertex -15.5 7.15 13.3
    endloop
  endfacet
  facet normal -0 0 1
    outer loop
      vertex 15.5 7.15 13.3
      vertex 16.5 -7.15 13.3
      vertex 16.5 7.15 13.3
    endloop
  endfacet
  facet normal 0 0 1
    outer loop
      vertex 16.5 -7.15 13.3
      vertex 15.5 7.15 13.3
      vertex 15.5 -7.15 13.3
    endloop
  endfacet
  facet normal 0 1 -0
    outer loop
      vertex 16.5 -7.15 13.3
      vertex 15.5 -7.15 15
      vertex 16.5 -7.15 15
    endloop
  endfacet
  facet normal 0 1 0
    outer loop
      vertex 15.5 -7.15 15
      vertex 16.5 -7.15 13.3
      vertex 15.5 -7.15 13.3
    endloop
  endfacet
  facet normal 0 -1 0
    outer loop
      vertex 15.5 7.15 13.3
      vertex 16.5 7.15 15
      vertex 15.5 7.15 15
    endloop
  endfacet
  facet normal 0 -1 -0
    outer loop
      vertex 16.5 7.15 15
      vertex 15.5 7.15 13.3
      vertex 16.5 7.15 13.3
    endloop
  endfacet
  facet normal 1 -0 0
    outer loop
      vertex -7.15 -16.5 15
      vertex -7.15 -15.5 13.3
      vertex -7.15 -15.5 15
    endloop
  endfacet
  facet normal 1 0 0
    outer loop
      vertex -7.15 -15.5 13.3
      vertex -7.15 -16.5 15
      vertex -7.15 -16.5 13.3
    endloop
  endfacet
  facet normal -0 0 1
    outer loop
      vertex -7.15 -15.5 13.3
      vertex 7.15 -16.5 13.3
      vertex 7.15 -15.5 13.3
    endloop
  endfacet
  facet normal 0 0 1
    outer loop
      vertex 7.15 -16.5 13.3
      vertex -7.15 -15.5 13.3
      vertex -7.15 -16.5 13.3
    endloop
  endfacet
  facet normal -1 0 0
    outer loop
      vertex 7.15 -16.5 13.3
      vertex 7.15 -15.5 15
      vertex 7.15 -15.5 13.3
    endloop
  endfacet
  facet normal -1 -0 0
    outer loop
      vertex 7.15 -15.5 15
      vertex 7.15 -16.5 13.3
      vertex 7.15 -16.5 15
    endloop
  endfacet
  facet normal 1 -0 0
    outer loop
      vertex -7.15 15.5 15
      vertex -7.15 16.5 13.3
      vertex -7.15 16.5 15
    endloop
  endfacet
  facet normal 1 0 0
    outer loop
      vertex -7.15 16.5 13.3
      vertex -7.15 15.5 15
      vertex -7.15 15.5 13.3
    endloop
  endfacet
  facet normal -0 0 1
    outer loop
      vertex -7.15 16.5 13.3
      vertex 7.15 15.5 13.3
      vertex 7.15 16.5 13.3
    endloop
  endfacet
  facet normal 0 0 1
    outer loop
      vertex 7.15 15.5 13.3
      vertex -7.15 16.5 13.3
      vertex -7.15 15.5 13.3
    endloop
  endfacet
  facet normal -1 0 0
    outer loop
      vertex 7.15 15.5 13.3
      vertex 7.15 16.5 15
      vertex 7.15 16.5 13.3
    endloop
  endfacet
  facet normal -1 -0 0
    outer loop
      vertex 7.15 16.5 15
      vertex 7.15 15.5 13.3
      vertex 7.15 15.5 15
    endloop
  endfacet
endsolid OpenSCAD_Model
