solid OpenSCAD_Model
  facet normal -1 0 0
    outer loop
      vertex -16.5 16.5 -1
      vertex -16.5 7.15 13.3
      vertex -16.5 16.5 15
    endloop
  endfacet
  facet normal -1 0 0
    outer loop
      vertex -16.5 16.5 -1
      vertex -16.5 -7.15 13.3
      vertex -16.5 7.15 13.3
    endloop
  endfacet
  facet normal -1 0 0
    outer loop
      vertex -16.5 -16.5 -1
      vertex -16.5 -7.15 13.3
      vertex -16.5 16.5 -1
    endloop
  endfacet
  facet normal -1 0 0
    outer loop
      vertex -16.5 -16.5 15
      vertex -16.5 -7.15 13.3
      vertex -16.5 -16.5 -1
    endloop
  endfacet
  facet normal -1 0 0
    outer loop
      vertex -16.5 -7.15 13.3
      vertex -16.5 -16.5 15
      vertex -16.5 -7.15 15
    endloop
  endfacet
  facet normal -1 -0 0
    outer loop
      vertex -16.5 16.5 15
      vertex -16.5 7.15 13.3
      vertex -16.5 7.15 15
    endloop
  endfacet
  facet normal -3.53881e-24 1.22465e-16 1
    outer loop
      vertex 15.5 15.5 -1.8982e-15
      vertex 7.03804 11.8786 -1.45471e-15
      vertex 15.5 -15.5 1.8982e-15
    endloop
  endfacet
  facet normal 1.59871e-22 1.22464e-16 1
    outer loop
      vertex 15.5 15.5 -1.8982e-15
      vertex 7.02841 11.9978 -1.46931e-15
      vertex 7.03804 11.8786 -1.45471e-15
    endloop
  endfacet
  facet normal -1.90237e-22 1.22465e-16 1
    outer loop
      vertex 15.5 15.5 -1.8982e-15
      vertex 7.00285 12.1232 -1.48466e-15
      vertex 7.02841 11.9978 -1.46931e-15
    endloop
  endfacet
  facet normal 2.02595e-22 1.22464e-16 1
    outer loop
      vertex 15.5 15.5 -1.8982e-15
      vertex 6.96086 12.2456 -1.49966e-15
      vertex 7.00285 12.1232 -1.48466e-15
    endloop
  endfacet
  facet normal -2.09299e-22 1.22465e-16 1
    outer loop
      vertex 15.5 15.5 -1.8982e-15
      vertex 6.90559 12.3569 -1.51329e-15
      vertex 6.96086 12.2456 -1.49966e-15
    endloop
  endfacet
  facet normal 8.98172e-23 1.22464e-16 1
    outer loop
      vertex 15.5 15.5 -1.8982e-15
      vertex 6.83734 12.4595 -1.52585e-15
      vertex 6.90559 12.3569 -1.51329e-15
    endloop
  endfacet
  facet normal 5.47997e-23 1.22465e-16 1
    outer loop
      vertex 15.5 15.5 -1.8982e-15
      vertex 6.75728 12.5525 -1.53724e-15
      vertex 6.83734 12.4595 -1.52585e-15
    endloop
  endfacet
  facet normal -1.35572e-22 1.22465e-16 1
    outer loop
      vertex 15.5 15.5 -1.8982e-15
      vertex 6.66669 12.6347 -1.54731e-15
      vertex 6.75728 12.5525 -1.53724e-15
    endloop
  endfacet
  facet normal -5.26756e-23 1.22465e-16 1
    outer loop
      vertex 15.5 15.5 -1.8982e-15
      vertex 6.56993 12.7032 -1.55569e-15
      vertex 6.66669 12.6347 -1.54731e-15
    endloop
  endfacet
  facet normal 1.7714e-22 1.22464e-16 1
    outer loop
      vertex 15.5 15.5 -1.8982e-15
      vertex 6.46242 12.7615 -1.56284e-15
      vertex 6.56993 12.7032 -1.55569e-15
    endloop
  endfacet
  facet normal 8.22188e-23 1.22464e-16 1
    outer loop
      vertex 15.5 15.5 -1.8982e-15
      vertex 6.35188 12.8052 -1.56818e-15
      vertex 6.46242 12.7615 -1.56284e-15
    endloop
  endfacet
  facet normal -4.81986e-23 1.22465e-16 1
    outer loop
      vertex 15.5 15.5 -1.8982e-15
      vertex 6.2328 12.8364 -1.572e-15
      vertex 6.35188 12.8052 -1.56818e-15
    endloop
  endfacet
  facet normal -1.16083e-22 1.22465e-16 1
    outer loop
      vertex 15.5 15.5 -1.8982e-15
      vertex 6.10999 12.8527 -1.574e-15
      vertex 6.2328 12.8364 -1.572e-15
    endloop
  endfacet
  facet normal 1.4435e-24 1.22465e-16 1
    outer loop
      vertex 15.5 15.5 -1.8982e-15
      vertex 3.53085 12.8553 -1.57431e-15
      vertex 6.10999 12.8527 -1.574e-15
    endloop
  endfacet
  facet normal 1.62118e-22 1.22464e-16 1
    outer loop
      vertex 15.5 15.5 -1.8982e-15
      vertex 3.41835 12.8465 -1.57324e-15
      vertex 3.53085 12.8553 -1.57431e-15
    endloop
  endfacet
  facet normal -2.36233e-24 1.22465e-16 1
    outer loop
      vertex -3.13011 12.8527 -1.574e-15
      vertex 3.41835 12.8465 -1.57324e-15
      vertex 15.5 15.5 -1.8982e-15
    endloop
  endfacet
  facet normal 8.13812e-25 1.22465e-16 1
    outer loop
      vertex -2.23891 11.8786 -1.45471e-15
      vertex 2.55135 1.96548 -2.40702e-16
      vertex 2.55421 11.9314 -1.46117e-15
    endloop
  endfacet
  facet normal 2.00425e-24 1.22465e-16 1
    outer loop
      vertex -2.24733 11.9941 -1.46885e-15
      vertex 2.55421 11.9314 -1.46117e-15
      vertex 2.57256 12.0641 -1.47743e-15
    endloop
  endfacet
  facet normal -6.85335e-24 1.22465e-16 1
    outer loop
      vertex -2.27037 12.1195 -1.48421e-15
      vertex 2.57256 12.0641 -1.47743e-15
      vertex 2.60626 12.187 -1.49247e-15
    endloop
  endfacet
  facet normal -1.48663e-24 1.22464e-16 1
    outer loop
      vertex -2.30647 12.235 -1.49835e-15
      vertex 2.60626 12.187 -1.49247e-15
      vertex 2.65475 12.3026 -1.50664e-15
    endloop
  endfacet
  facet normal 0 1.22465e-16 1
    outer loop
      vertex 2.55135 1.96548 -2.40702e-16
      vertex -2.23891 11.8786 -1.45471e-15
      vertex -2.23869 1.96548 -2.40702e-16
    endloop
  endfacet
  facet normal -1.11619e-23 1.22465e-16 1
    outer loop
      vertex -2.3568 12.3468 -1.51205e-15
      vertex 2.65475 12.3026 -1.50664e-15
      vertex 2.69667 12.3782 -1.51589e-15
    endloop
  endfacet
  facet normal -6.96122e-24 1.22465e-16 1
    outer loop
      vertex -2.41971 12.4501 -1.5247e-15
      vertex 2.69667 12.3782 -1.51589e-15
      vertex 2.79138 12.508 -1.53178e-15
    endloop
  endfacet
  facet normal 2.05087e-24 1.22465e-16 1
    outer loop
      vertex -2.49428 12.5439 -1.53619e-15
      vertex 2.79138 12.508 -1.53178e-15
      vertex 2.87711 12.5956 -1.54252e-15
    endloop
  endfacet
  facet normal 2.26373e-24 1.22465e-16 1
    outer loop
      vertex -2.57948 12.6271 -1.54638e-15
      vertex 2.87711 12.5956 -1.54252e-15
      vertex 2.96951 12.6699 -1.55161e-15
    endloop
  endfacet
  facet normal -1.34196e-24 1.22464e-16 1
    outer loop
      vertex -2.67427 12.6988 -1.55515e-15
      vertex 2.96951 12.6699 -1.55161e-15
      vertex 3.07335 12.7344 -1.55952e-15
    endloop
  endfacet
  facet normal -5.51242e-24 1.22466e-16 1
    outer loop
      vertex -2.77754 12.758 -1.5624e-15
      vertex 3.07335 12.7344 -1.55952e-15
      vertex 3.18436 12.7859 -1.56582e-15
    endloop
  endfacet
  facet normal 1.14296e-23 1.22465e-16 1
    outer loop
      vertex -2.88811 12.8038 -1.56801e-15
      vertex 3.18436 12.7859 -1.56582e-15
      vertex 3.29741 12.8228 -1.57034e-15
    endloop
  endfacet
  facet normal -1.17287e-24 1.22466e-16 1
    outer loop
      vertex -3.00845 12.8364 -1.572e-15
      vertex 3.41835 12.8465 -1.57324e-15
      vertex -3.13011 12.8527 -1.574e-15
    endloop
  endfacet
  facet normal 2.23433e-24 1.22465e-16 1
    outer loop
      vertex 2.55421 11.9314 -1.46117e-15
      vertex -2.24733 11.9941 -1.46885e-15
      vertex -2.23891 11.8786 -1.45471e-15
    endloop
  endfacet
  facet normal -4.3668e-24 1.22465e-16 1
    outer loop
      vertex 2.57256 12.0641 -1.47743e-15
      vertex -2.27037 12.1195 -1.48421e-15
      vertex -2.24733 11.9941 -1.46885e-15
    endloop
  endfacet
  facet normal -2.54195e-25 1.22464e-16 1
    outer loop
      vertex 2.60626 12.187 -1.49247e-15
      vertex -2.30647 12.235 -1.49835e-15
      vertex -2.27037 12.1195 -1.48421e-15
    endloop
  endfacet
  facet normal -1.28297e-23 1.22465e-16 1
    outer loop
      vertex 2.65475 12.3026 -1.50664e-15
      vertex -2.3568 12.3468 -1.51205e-15
      vertex -2.30647 12.235 -1.49835e-15
    endloop
  endfacet
  facet normal -7.00284e-24 1.22465e-16 1
    outer loop
      vertex 2.69667 12.3782 -1.51589e-15
      vertex -2.41971 12.4501 -1.5247e-15
      vertex -2.3568 12.3468 -1.51205e-15
    endloop
  endfacet
  facet normal -2.2247e-24 1.22464e-16 1
    outer loop
      vertex 2.79138 12.508 -1.53178e-15
      vertex -2.49428 12.5439 -1.53619e-15
      vertex -2.41971 12.4501 -1.5247e-15
    endloop
  endfacet
  facet normal -6.2273e-25 1.22465e-16 1
    outer loop
      vertex 2.87711 12.5956 -1.54252e-15
      vertex -2.57948 12.6271 -1.54638e-15
      vertex -2.49428 12.5439 -1.53619e-15
    endloop
  endfacet
  facet normal 6.14592e-24 1.22465e-16 1
    outer loop
      vertex 2.96951 12.6699 -1.55161e-15
      vertex -2.67427 12.6988 -1.55515e-15
      vertex -2.57948 12.6271 -1.54638e-15
    endloop
  endfacet
  facet normal -9.51626e-24 1.22465e-16 1
    outer loop
      vertex 3.07335 12.7344 -1.55952e-15
      vertex -2.77754 12.758 -1.5624e-15
      vertex -2.67427 12.6988 -1.55515e-15
    endloop
  endfacet
  facet normal 6.94477e-24 1.22463e-16 1
    outer loop
      vertex 3.18436 12.7859 -1.56582e-15
      vertex -2.88811 12.8038 -1.56801e-15
      vertex -2.77754 12.758 -1.5624e-15
    endloop
  endfacet
  facet normal 7.99079e-24 1.22466e-16 1
    outer loop
      vertex 3.29741 12.8228 -1.57034e-15
      vertex -3.00845 12.8364 -1.572e-15
      vertex -2.88811 12.8038 -1.56801e-15
    endloop
  endfacet
  facet normal 2.82513e-24 1.22463e-16 1
    outer loop
      vertex 3.41835 12.8465 -1.57324e-15
      vertex -3.00845 12.8364 -1.572e-15
      vertex 3.29741 12.8228 -1.57034e-15
    endloop
  endfacet
  facet normal -0 1.22465e-16 1
    outer loop
      vertex -15.5 15.5 -1.8982e-15
      vertex -3.13011 12.8527 -1.574e-15
      vertex 15.5 15.5 -1.8982e-15
    endloop
  endfacet
  facet normal 5.20856e-24 1.22465e-16 1
    outer loop
      vertex -3.13011 12.8527 -1.574e-15
      vertex -15.5 15.5 -1.8982e-15
      vertex -5.72972 12.8546 -1.57423e-15
    endloop
  endfacet
  facet normal 3.98377e-24 1.22465e-16 1
    outer loop
      vertex -15.5 -15.5 1.8982e-15
      vertex -6.68628 11.9276 -1.46071e-15
      vertex -15.5 15.5 -1.8982e-15
    endloop
  endfacet
  facet normal -2.04709e-22 1.22464e-16 1
    outer loop
      vertex -6.67039 12.0568 -1.47653e-15
      vertex -15.5 15.5 -1.8982e-15
      vertex -6.68628 11.9276 -1.46071e-15
    endloop
  endfacet
  facet normal 1.2054e-22 1.22465e-16 1
    outer loop
      vertex -6.63957 12.1799 -1.49161e-15
      vertex -15.5 15.5 -1.8982e-15
      vertex -6.67039 12.0568 -1.47653e-15
    endloop
  endfacet
  facet normal -1.32967e-22 1.22464e-16 1
    outer loop
      vertex -6.59453 12.296 -1.50582e-15
      vertex -15.5 15.5 -1.8982e-15
      vertex -6.63957 12.1799 -1.49161e-15
    endloop
  endfacet
  facet normal 1.0677e-22 1.22465e-16 1
    outer loop
      vertex -6.53606 12.4038 -1.51903e-15
      vertex -15.5 15.5 -1.8982e-15
      vertex -6.59453 12.296 -1.50582e-15
    endloop
  endfacet
  facet normal 7.5084e-23 1.22465e-16 1
    outer loop
      vertex -6.46249 12.5052 -1.53145e-15
      vertex -15.5 15.5 -1.8982e-15
      vertex -6.53606 12.4038 -1.51903e-15
    endloop
  endfacet
  facet normal 3.27384e-23 1.22465e-16 1
    outer loop
      vertex -6.37947 12.5932 -1.54222e-15
      vertex -15.5 15.5 -1.8982e-15
      vertex -6.46249 12.5052 -1.53145e-15
    endloop
  endfacet
  facet normal 1.06618e-23 1.22465e-16 1
    outer loop
      vertex -6.28584 12.6699 -1.55161e-15
      vertex -15.5 15.5 -1.8982e-15
      vertex -6.37947 12.5932 -1.54222e-15
    endloop
  endfacet
  facet normal -2.35862e-22 1.22464e-16 1
    outer loop
      vertex -6.18263 12.7344 -1.55952e-15
      vertex -15.5 15.5 -1.8982e-15
      vertex -6.28584 12.6699 -1.55161e-15
    endloop
  endfacet
  facet normal 2.04381e-22 1.22465e-16 1
    outer loop
      vertex -6.07089 12.7859 -1.56582e-15
      vertex -15.5 15.5 -1.8982e-15
      vertex -6.18263 12.7344 -1.55952e-15
    endloop
  endfacet
  facet normal -3.25109e-23 1.22465e-16 1
    outer loop
      vertex -5.95172 12.8236 -1.57044e-15
      vertex -15.5 15.5 -1.8982e-15
      vertex -6.07089 12.7859 -1.56582e-15
    endloop
  endfacet
  facet normal -1.33778e-22 1.22464e-16 1
    outer loop
      vertex -5.8338 12.8462 -1.5732e-15
      vertex -15.5 15.5 -1.8982e-15
      vertex -5.95172 12.8236 -1.57044e-15
    endloop
  endfacet
  facet normal 7.18482e-23 1.22465e-16 1
    outer loop
      vertex -5.72972 12.8546 -1.57423e-15
      vertex -15.5 15.5 -1.8982e-15
      vertex -5.8338 12.8462 -1.5732e-15
    endloop
  endfacet
  facet normal 7.55982e-24 1.22465e-16 1
    outer loop
      vertex 7.0354 -12.4864 1.52914e-15
      vertex 15.5 -15.5 1.8982e-15
      vertex 7.03804 11.8786 -1.45471e-15
    endloop
  endfacet
  facet normal -1.2292e-22 1.22464e-16 1
    outer loop
      vertex 7.01706 -12.6191 1.5454e-15
      vertex 15.5 -15.5 1.8982e-15
      vertex 7.0354 -12.4864 1.52914e-15
    endloop
  endfacet
  facet normal 1.32148e-22 1.22465e-16 1
    outer loop
      vertex 6.98334 -12.7421 1.56045e-15
      vertex 15.5 -15.5 1.8982e-15
      vertex 7.01706 -12.6191 1.5454e-15
    endloop
  endfacet
  facet normal 3.87735e-24 1.22465e-16 1
    outer loop
      vertex 6.93303 -12.8611 1.57503e-15
      vertex 15.5 -15.5 1.8982e-15
      vertex 6.98334 -12.7421 1.56045e-15
    endloop
  endfacet
  facet normal -8.93897e-23 1.22464e-16 1
    outer loop
      vertex 6.87051 -12.9683 1.58816e-15
      vertex 15.5 -15.5 1.8982e-15
      vertex 6.93303 -12.8611 1.57503e-15
    endloop
  endfacet
  facet normal -1.0645e-23 1.22465e-16 1
    outer loop
      vertex 6.79822 -13.0634 1.5998e-15
      vertex 15.5 -15.5 1.8982e-15
      vertex 6.87051 -12.9683 1.58816e-15
    endloop
  endfacet
  facet normal -1.35826e-22 1.22464e-16 1
    outer loop
      vertex 6.71251 -13.1511 1.61055e-15
      vertex 15.5 -15.5 1.8982e-15
      vertex 6.79822 -13.0634 1.5998e-15
    endloop
  endfacet
  facet normal 1.03949e-22 1.22465e-16 1
    outer loop
      vertex 6.6201 -13.2255 1.61966e-15
      vertex 15.5 -15.5 1.8982e-15
      vertex 6.71251 -13.1511 1.61055e-15
    endloop
  endfacet
  facet normal -7.45965e-23 1.22464e-16 1
    outer loop
      vertex 6.51625 -13.2902 1.62758e-15
      vertex 15.5 -15.5 1.8982e-15
      vertex 6.6201 -13.2255 1.61966e-15
    endloop
  endfacet
  facet normal 2.16465e-22 1.22466e-16 1
    outer loop
      vertex 6.40524 -13.3418 1.63389e-15
      vertex 15.5 -15.5 1.8982e-15
      vertex 6.51625 -13.2902 1.62758e-15
    endloop
  endfacet
  facet normal 5.20612e-23 1.22465e-16 1
    outer loop
      vertex 6.29219 -13.3788 1.63842e-15
      vertex 15.5 -15.5 1.8982e-15
      vertex 6.40524 -13.3418 1.63389e-15
    endloop
  endfacet
  facet normal -1.04457e-22 1.22464e-16 1
    outer loop
      vertex 6.17125 -13.4025 1.64133e-15
      vertex 15.5 -15.5 1.8982e-15
      vertex 6.29219 -13.3788 1.63842e-15
    endloop
  endfacet
  facet normal -1.29628e-22 1.22464e-16 1
    outer loop
      vertex 6.05875 -13.4113 1.64241e-15
      vertex 15.5 -15.5 1.8982e-15
      vertex 6.17125 -13.4025 1.64133e-15
    endloop
  endfacet
  facet normal 1.45565e-24 1.22465e-16 1
    outer loop
      vertex 3.47963 -13.4087 1.64209e-15
      vertex 15.5 -15.5 1.8982e-15
      vertex 6.05875 -13.4113 1.64241e-15
    endloop
  endfacet
  facet normal 1.83957e-24 1.22464e-16 1
    outer loop
      vertex -3.06967 -13.4025 1.64133e-15
      vertex 3.47963 -13.4087 1.64209e-15
      vertex 3.35681 -13.3923 1.64009e-15
    endloop
  endfacet
  facet normal -0 1.22465e-16 1
    outer loop
      vertex -2.23872 -2.52148 3.08793e-16
      vertex 2.55156 -12.4336 1.52268e-15
      vertex 2.55132 -2.52148 3.08793e-16
    endloop
  endfacet
  facet normal 8.54522e-24 1.22465e-16 1
    outer loop
      vertex -2.24149 -12.4864 1.52914e-15
      vertex 2.55156 -12.4336 1.52268e-15
      vertex -2.23872 -2.52148 3.08793e-16
    endloop
  endfacet
  facet normal 6.08802e-24 1.22465e-16 1
    outer loop
      vertex 2.55156 -12.4336 1.52268e-15
      vertex -2.24149 -12.4864 1.52914e-15
      vertex 2.5612 -12.5529 1.53728e-15
    endloop
  endfacet
  facet normal 3.5342e-24 1.22465e-16 1
    outer loop
      vertex -2.25688 -12.6118 1.5445e-15
      vertex 2.5612 -12.5529 1.53728e-15
      vertex -2.24149 -12.4864 1.52914e-15
    endloop
  endfacet
  facet normal 8.21048e-24 1.22464e-16 1
    outer loop
      vertex 2.5612 -12.5529 1.53728e-15
      vertex -2.25688 -12.6118 1.5445e-15
      vertex 2.58759 -12.6819 1.55309e-15
    endloop
  endfacet
  facet normal 1.06972e-23 1.22465e-16 1
    outer loop
      vertex -2.28745 -12.735 1.55959e-15
      vertex 2.58759 -12.6819 1.55309e-15
      vertex -2.25688 -12.6118 1.5445e-15
    endloop
  endfacet
  facet normal 4.19078e-24 1.22465e-16 1
    outer loop
      vertex 2.58759 -12.6819 1.55309e-15
      vertex -2.28745 -12.735 1.55959e-15
      vertex 2.62874 -12.8008 1.56765e-15
    endloop
  endfacet
  facet normal -4.37781e-25 1.22465e-16 1
    outer loop
      vertex -2.33023 -12.8478 1.5734e-15
      vertex 2.62874 -12.8008 1.56765e-15
      vertex -2.28745 -12.735 1.55959e-15
    endloop
  endfacet
  facet normal 2.15742e-24 1.22464e-16 1
    outer loop
      vertex 2.62874 -12.8008 1.56765e-15
      vertex -2.33023 -12.8478 1.5734e-15
      vertex 2.68402 -12.9122 1.58128e-15
    endloop
  endfacet
  facet normal -2.36949e-24 1.22464e-16 1
    outer loop
      vertex -2.38737 -12.956 1.58665e-15
      vertex 2.68402 -12.9122 1.58128e-15
      vertex -2.33023 -12.8478 1.5734e-15
    endloop
  endfacet
  facet normal -8.29665e-24 1.22465e-16 1
    outer loop
      vertex 2.68402 -12.9122 1.58128e-15
      vertex -2.38737 -12.956 1.58665e-15
      vertex 2.75227 -13.0149 1.59387e-15
    endloop
  endfacet
  facet normal -3.71317e-24 1.22465e-16 1
    outer loop
      vertex -2.45662 -13.055 1.59878e-15
      vertex 2.75227 -13.0149 1.59387e-15
      vertex -2.38737 -12.956 1.58665e-15
    endloop
  endfacet
  facet normal 6.85236e-25 1.22465e-16 1
    outer loop
      vertex 2.75227 -13.0149 1.59387e-15
      vertex -2.45662 -13.055 1.59878e-15
      vertex 2.83234 -13.108 1.60527e-15
    endloop
  endfacet
  facet normal -3.21612e-24 1.22464e-16 1
    outer loop
      vertex -2.53696 -13.1438 1.60965e-15
      vertex 2.83234 -13.108 1.60527e-15
      vertex -2.45662 -13.055 1.59878e-15
    endloop
  endfacet
  facet normal -4.97742e-24 1.22465e-16 1
    outer loop
      vertex 2.83234 -13.108 1.60527e-15
      vertex -2.53696 -13.1438 1.60965e-15
      vertex 2.92293 -13.1903 1.61535e-15
    endloop
  endfacet
  facet normal 7.40258e-25 1.22465e-16 1
    outer loop
      vertex -2.62733 -13.2213 1.61915e-15
      vertex 2.92293 -13.1903 1.61535e-15
      vertex -2.53696 -13.1438 1.60965e-15
    endloop
  endfacet
  facet normal 7.02817e-24 1.22464e-16 1
    outer loop
      vertex 2.92293 -13.1903 1.61535e-15
      vertex -2.62733 -13.2213 1.61915e-15
      vertex 3.01967 -13.2589 1.62374e-15
    endloop
  endfacet
  facet normal 4.05094e-24 1.22464e-16 1
    outer loop
      vertex -2.72659 -13.2868 1.62716e-15
      vertex 3.01967 -13.2589 1.62374e-15
      vertex -2.62733 -13.2213 1.61915e-15
    endloop
  endfacet
  facet normal -6.6245e-25 1.22465e-16 1
    outer loop
      vertex 3.01967 -13.2589 1.62374e-15
      vertex -2.72659 -13.2868 1.62716e-15
      vertex 3.12718 -13.3173 1.6309e-15
    endloop
  endfacet
  facet normal -2.08163e-26 1.22465e-16 1
    outer loop
      vertex -2.83359 -13.3392 1.63359e-15
      vertex 3.12718 -13.3173 1.6309e-15
      vertex -2.72659 -13.2868 1.62716e-15
    endloop
  endfacet
  facet normal -2.95887e-25 1.22465e-16 1
    outer loop
      vertex 3.12718 -13.3173 1.6309e-15
      vertex -2.83359 -13.3392 1.63359e-15
      vertex 3.2373 -13.3609 1.63624e-15
    endloop
  endfacet
  facet normal 5.79928e-24 1.22467e-16 1
    outer loop
      vertex -2.95078 -13.3788 1.63842e-15
      vertex 3.2373 -13.3609 1.63624e-15
      vertex -2.83359 -13.3392 1.63359e-15
    endloop
  endfacet
  facet normal 7.39066e-24 1.22466e-16 1
    outer loop
      vertex 3.2373 -13.3609 1.63624e-15
      vertex -2.95078 -13.3788 1.63842e-15
      vertex 3.35681 -13.3923 1.64009e-15
    endloop
  endfacet
  facet normal 2.44561e-24 1.22464e-16 1
    outer loop
      vertex -3.06967 -13.4025 1.64133e-15
      vertex 3.35681 -13.3923 1.64009e-15
      vertex -2.95078 -13.3788 1.63842e-15
    endloop
  endfacet
  facet normal 3.05586e-25 1.22462e-16 1
    outer loop
      vertex 3.47963 -13.4087 1.64209e-15
      vertex -3.06967 -13.4025 1.64133e-15
      vertex -3.18126 -13.4113 1.64241e-15
    endloop
  endfacet
  facet normal -5.59175e-25 1.22465e-16 1
    outer loop
      vertex 3.47963 -13.4087 1.64209e-15
      vertex -3.18126 -13.4113 1.64241e-15
      vertex 15.5 -15.5 1.8982e-15
    endloop
  endfacet
  facet normal 6.56961e-24 1.22465e-16 1
    outer loop
      vertex -15.5 -15.5 1.8982e-15
      vertex -3.18126 -13.4113 1.64241e-15
      vertex -5.75983 -13.4091 1.64214e-15
    endloop
  endfacet
  facet normal -2.08359e-24 1.22465e-16 1
    outer loop
      vertex -6.68628 11.9276 -1.46071e-15
      vertex -15.5 -15.5 1.8982e-15
      vertex -6.68845 -12.4336 1.52268e-15
    endloop
  endfacet
  facet normal -7.89181e-23 1.22465e-16 1
    outer loop
      vertex -6.68845 -12.4336 1.52268e-15
      vertex -15.5 -15.5 1.8982e-15
      vertex -6.67967 -12.5529 1.53728e-15
    endloop
  endfacet
  facet normal 0 1.22465e-16 1
    outer loop
      vertex -3.18126 -13.4113 1.64241e-15
      vertex -15.5 -15.5 1.8982e-15
      vertex 15.5 -15.5 1.8982e-15
    endloop
  endfacet
  facet normal -1.93757e-22 1.22466e-16 1
    outer loop
      vertex -5.88899 -13.3932 1.64019e-15
      vertex -15.5 -15.5 1.8982e-15
      vertex -5.75983 -13.4091 1.64214e-15
    endloop
  endfacet
  facet normal 9.12395e-24 1.22465e-16 1
    outer loop
      vertex -6.01221 -13.3624 1.63642e-15
      vertex -15.5 -15.5 1.8982e-15
      vertex -5.88899 -13.3932 1.64019e-15
    endloop
  endfacet
  facet normal -3.01587e-23 1.22465e-16 1
    outer loop
      vertex -6.12834 -13.3173 1.6309e-15
      vertex -15.5 -15.5 1.8982e-15
      vertex -6.01221 -13.3624 1.63642e-15
    endloop
  endfacet
  facet normal 1.49997e-23 1.22465e-16 1
    outer loop
      vertex -6.23628 -13.2589 1.62374e-15
      vertex -15.5 -15.5 1.8982e-15
      vertex -6.12834 -13.3173 1.6309e-15
    endloop
  endfacet
  facet normal -4.23481e-23 1.22465e-16 1
    outer loop
      vertex -6.33499 -13.1878 1.61504e-15
      vertex -15.5 -15.5 1.8982e-15
      vertex -6.23628 -13.2589 1.62374e-15
    endloop
  endfacet
  facet normal 1.89655e-22 1.22464e-16 1
    outer loop
      vertex -6.42589 -13.1023 1.60457e-15
      vertex -15.5 -15.5 1.8982e-15
      vertex -6.33499 -13.1878 1.61504e-15
    endloop
  endfacet
  facet normal 4.87517e-24 1.22465e-16 1
    outer loop
      vertex -6.50272 -13.0087 1.5931e-15
      vertex -15.5 -15.5 1.8982e-15
      vertex -6.42589 -13.1023 1.60457e-15
    endloop
  endfacet
  facet normal -1.13899e-23 1.22465e-16 1
    outer loop
      vertex -6.56735 -12.9054 1.58046e-15
      vertex -15.5 -15.5 1.8982e-15
      vertex -6.50272 -13.0087 1.5931e-15
    endloop
  endfacet
  facet normal -5.93007e-23 1.22465e-16 1
    outer loop
      vertex -6.61894 -12.7937 1.56678e-15
      vertex -15.5 -15.5 1.8982e-15
      vertex -6.56735 -12.9054 1.58046e-15
    endloop
  endfacet
  facet normal 4.66518e-23 1.22465e-16 1
    outer loop
      vertex -6.65672 -12.6745 1.55218e-15
      vertex -15.5 -15.5 1.8982e-15
      vertex -6.61894 -12.7937 1.56678e-15
    endloop
  endfacet
  facet normal -2.15144e-23 1.22465e-16 1
    outer loop
      vertex -6.67967 -12.5529 1.53728e-15
      vertex -15.5 -15.5 1.8982e-15
      vertex -6.65672 -12.6745 1.55218e-15
    endloop
  endfacet
  facet normal 1 0 0
    outer loop
      vertex 16.5 -7.15 15
      vertex 16.5 -16.5 15
      vertex 16.5 -7.15 13.3
    endloop
  endfacet
  facet normal 1 0 0
    outer loop
      vertex 16.5 7.15 13.3
      vertex 16.5 16.5 15
      vertex 16.5 7.15 15
    endloop
  endfacet
  facet normal 1 0 0
    outer loop
      vertex 16.5 16.5 15
      vertex 16.5 7.15 13.3
      vertex 16.5 16.5 -1
    endloop
  endfacet
  facet normal 1 -0 0
    outer loop
      vertex 16.5 -7.15 13.3
      vertex 16.5 16.5 -1
      vertex 16.5 7.15 13.3
    endloop
  endfacet
  facet normal 1 0 0
    outer loop
      vertex 16.5 -16.5 -1
      vertex 16.5 -7.15 13.3
      vertex 16.5 -16.5 15
    endloop
  endfacet
  facet normal 1 0 0
    outer loop
      vertex 16.5 -7.15 13.3
      vertex 16.5 -16.5 -1
      vertex 16.5 16.5 -1
    endloop
  endfacet
  facet normal 0 -1 0
    outer loop
      vertex -16.5 -16.5 15
      vertex -7.15 -16.5 13.3
      vertex -7.15 -16.5 15
    endloop
  endfacet
  facet normal 0 -1 -0
    outer loop
      vertex -7.15 -16.5 13.3
      vertex -16.5 -16.5 -1
      vertex 7.15 -16.5 13.3
    endloop
  endfacet
  facet normal 0 -1 0
    outer loop
      vertex -16.5 -16.5 -1
      vertex -7.15 -16.5 13.3
      vertex -16.5 -16.5 15
    endloop
  endfacet
  facet normal 0 -1 0
    outer loop
      vertex 7.15 -16.5 13.3
      vertex 16.5 -16.5 15
      vertex 7.15 -16.5 15
    endloop
  endfacet
  facet normal 0 -1 0
    outer loop
      vertex 16.5 -16.5 -1
      vertex 7.15 -16.5 13.3
      vertex -16.5 -16.5 -1
    endloop
  endfacet
  facet normal 0 -1 0
    outer loop
      vertex 7.15 -16.5 13.3
      vertex 16.5 -16.5 -1
      vertex 16.5 -16.5 15
    endloop
  endfacet
  facet normal 0 0 1
    outer loop
      vertex -15.5 -7.15 15
      vertex -16.5 -7.15 15
      vertex -15.5 -15.5 15
    endloop
  endfacet
  facet normal -0 0 1
    outer loop
      vertex -15.5 -15.5 15
      vertex -7.15 -16.5 15
      vertex -7.15 -15.5 15
    endloop
  endfacet
  facet normal 0 0 1
    outer loop
      vertex -15.5 -15.5 15
      vertex -16.5 -16.5 15
      vertex -7.15 -16.5 15
    endloop
  endfacet
  facet normal 0 0 1
    outer loop
      vertex -16.5 -16.5 15
      vertex -15.5 -15.5 15
      vertex -16.5 -7.15 15
    endloop
  endfacet
  facet normal 0 0 1
    outer loop
      vertex -7.15 16.5 15
      vertex -15.5 15.5 15
      vertex -7.15 15.5 15
    endloop
  endfacet
  facet normal -0 0 1
    outer loop
      vertex -16.5 16.5 15
      vertex -15.5 15.5 15
      vertex -7.15 16.5 15
    endloop
  endfacet
  facet normal 0 0 1
    outer loop
      vertex -16.5 7.15 15
      vertex -15.5 15.5 15
      vertex -16.5 16.5 15
    endloop
  endfacet
  facet normal 0 0 1
    outer loop
      vertex -15.5 15.5 15
      vertex -16.5 7.15 15
      vertex -15.5 7.15 15
    endloop
  endfacet
  facet normal 0 0 1
    outer loop
      vertex 16.5 16.5 15
      vertex 15.5 15.5 15
      vertex 16.5 7.15 15
    endloop
  endfacet
  facet normal -0 0 1
    outer loop
      vertex 7.15 16.5 15
      vertex 15.5 15.5 15
      vertex 16.5 16.5 15
    endloop
  endfacet
  facet normal 0 0 1
    outer loop
      vertex 15.5 15.5 15
      vertex 7.15 16.5 15
      vertex 7.15 15.5 15
    endloop
  endfacet
  facet normal 0 0 1
    outer loop
      vertex 16.5 7.15 15
      vertex 15.5 15.5 15
      vertex 15.5 7.15 15
    endloop
  endfacet
  facet normal 0 0 1
    outer loop
      vertex 15.5 -15.5 15
      vertex 16.5 -7.15 15
      vertex 15.5 -7.15 15
    endloop
  endfacet
  facet normal 0 0 1
    outer loop
      vertex 16.5 -7.15 15
      vertex 15.5 -15.5 15
      vertex 16.5 -16.5 15
    endloop
  endfacet
  facet normal 0 0 1
    outer loop
      vertex 7.15 -16.5 15
      vertex 15.5 -15.5 15
      vertex 7.15 -15.5 15
    endloop
  endfacet
  facet normal 0 0 1
    outer loop
      vertex 15.5 -15.5 15
      vertex 7.15 -16.5 15
      vertex 16.5 -16.5 15
    endloop
  endfacet
  facet normal 0 1 0
    outer loop
      vertex 16.5 16.5 15
      vertex 7.15 16.5 13.3
      vertex 7.15 16.5 15
    endloop
  endfacet
  facet normal 0 1 0
    outer loop
      vertex 7.15 16.5 13.3
      vertex 16.5 16.5 -1
      vertex -7.15 16.5 13.3
    endloop
  endfacet
  facet normal 0 1 -0
    outer loop
      vertex 16.5 16.5 -1
      vertex 7.15 16.5 13.3
      vertex 16.5 16.5 15
    endloop
  endfacet
  facet normal 0 1 -0
    outer loop
      vertex -7.15 16.5 13.3
      vertex -16.5 16.5 15
      vertex -7.15 16.5 15
    endloop
  endfacet
  facet normal 0 1 0
    outer loop
      vertex -16.5 16.5 -1
      vertex -7.15 16.5 13.3
      vertex 16.5 16.5 -1
    endloop
  endfacet
  facet normal 0 1 0
    outer loop
      vertex -7.15 16.5 13.3
      vertex -16.5 16.5 -1
      vertex -16.5 16.5 15
    endloop
  endfacet
  facet normal 1 0 0
    outer loop
      vertex -15.5 -7.15 15
      vertex -15.5 -15.5 15
      vertex -15.5 -7.15 13.3
    endloop
  endfacet
  facet normal 1 0 0
    outer loop
      vertex -15.5 7.15 13.3
      vertex -15.5 15.5 15
      vertex -15.5 7.15 15
    endloop
  endfacet
  facet normal 1 0 0
    outer loop
      vertex -15.5 15.5 15
      vertex -15.5 7.15 13.3
      vertex -15.5 15.5 -1.8982e-15
    endloop
  endfacet
  facet normal 1 -0 0
    outer loop
      vertex -15.5 -7.15 13.3
      vertex -15.5 15.5 -1.8982e-15
      vertex -15.5 7.15 13.3
    endloop
  endfacet
  facet normal 1 0 0
    outer loop
      vertex -15.5 -15.5 1.8982e-15
      vertex -15.5 -7.15 13.3
      vertex -15.5 -15.5 15
    endloop
  endfacet
  facet normal 1 0 0
    outer loop
      vertex -15.5 -7.15 13.3
      vertex -15.5 -15.5 1.8982e-15
      vertex -15.5 15.5 -1.8982e-15
    endloop
  endfacet
  facet normal -1 0 0
    outer loop
      vertex 15.5 15.5 -1.8982e-15
      vertex 15.5 7.15 13.3
      vertex 15.5 15.5 15
    endloop
  endfacet
  facet normal -1 0 0
    outer loop
      vertex 15.5 15.5 -1.8982e-15
      vertex 15.5 -7.15 13.3
      vertex 15.5 7.15 13.3
    endloop
  endfacet
  facet normal -1 0 0
    outer loop
      vertex 15.5 -15.5 1.8982e-15
      vertex 15.5 -7.15 13.3
      vertex 15.5 15.5 -1.8982e-15
    endloop
  endfacet
  facet normal -1 0 0
    outer loop
      vertex 15.5 -15.5 15
      vertex 15.5 -7.15 13.3
      vertex 15.5 -15.5 1.8982e-15
    endloop
  endfacet
  facet normal -1 0 0
    outer loop
      vertex 15.5 -7.15 13.3
      vertex 15.5 -15.5 15
      vertex 15.5 -7.15 15
    endloop
  endfacet
  facet normal -1 -0 0
    outer loop
      vertex 15.5 15.5 15
      vertex 15.5 7.15 13.3
      vertex 15.5 7.15 15
    endloop
  endfacet
  facet normal 0 1 0
    outer loop
      vertex 15.5 -15.5 15
      vertex 7.15 -15.5 13.3
      vertex 7.15 -15.5 15
    endloop
  endfacet
  facet normal 0 1 0
    outer loop
      vertex 7.15 -15.5 13.3
      vertex 15.5 -15.5 1.8982e-15
      vertex -7.15 -15.5 13.3
    endloop
  endfacet
  facet normal 0 1 -0
    outer loop
      vertex 15.5 -15.5 1.8982e-15
      vertex 7.15 -15.5 13.3
      vertex 15.5 -15.5 15
    endloop
  endfacet
  facet normal 0 1 -0
    outer loop
      vertex -7.15 -15.5 13.3
      vertex -15.5 -15.5 15
      vertex -7.15 -15.5 15
    endloop
  endfacet
  facet normal 0 1 0
    outer loop
      vertex -15.5 -15.5 1.8982e-15
      vertex -7.15 -15.5 13.3
      vertex 15.5 -15.5 1.8982e-15
    endloop
  endfacet
  facet normal 0 1 0
    outer loop
      vertex -7.15 -15.5 13.3
      vertex -15.5 -15.5 1.8982e-15
      vertex -15.5 -15.5 15
    endloop
  endfacet
  facet normal 0 -1 0
    outer loop
      vertex -15.5 15.5 15
      vertex -7.15 15.5 13.3
      vertex -7.15 15.5 15
    endloop
  endfacet
  facet normal 0 -1 -0
    outer loop
      vertex -7.15 15.5 13.3
      vertex -15.5 15.5 -1.8982e-15
      vertex 7.15 15.5 13.3
    endloop
  endfacet
  facet normal 0 -1 0
    outer loop
      vertex -15.5 15.5 -1.8982e-15
      vertex -7.15 15.5 13.3
      vertex -15.5 15.5 15
    endloop
  endfacet
  facet normal 0 -1 0
    outer loop
      vertex 7.15 15.5 13.3
      vertex 15.5 15.5 15
      vertex 7.15 15.5 15
    endloop
  endfacet
  facet normal 0 -1 0
    outer loop
      vertex 15.5 15.5 -1.8982e-15
      vertex 7.15 15.5 13.3
      vertex -15.5 15.5 -1.8982e-15
    endloop
  endfacet
  facet normal 0 -1 0
    outer loop
      vertex 7.15 15.5 13.3
      vertex 15.5 15.5 -1.8982e-15
      vertex 15.5 15.5 15
    endloop
  endfacet
  facet normal 0 0 -1
    outer loop
      vertex 16.5 -16.5 -1
      vertex 7.03804 11.8786 -1
      vertex 16.5 16.5 -1
    endloop
  endfacet
  facet normal 0 0 -1
    outer loop
      vertex 16.5 -16.5 -1
      vertex 7.0354 -12.4864 -1
      vertex 7.03804 11.8786 -1
    endloop
  endfacet
  facet normal 0 0 -1
    outer loop
      vertex 16.5 -16.5 -1
      vertex 7.01706 -12.6191 -1
      vertex 7.0354 -12.4864 -1
    endloop
  endfacet
  facet normal 0 0 -1
    outer loop
      vertex 16.5 -16.5 -1
      vertex 6.98334 -12.7421 -1
      vertex 7.01706 -12.6191 -1
    endloop
  endfacet
  facet normal 0 0 -1
    outer loop
      vertex 16.5 -16.5 -1
      vertex 6.93303 -12.8611 -1
      vertex 6.98334 -12.7421 -1
    endloop
  endfacet
  facet normal 0 0 -1
    outer loop
      vertex 16.5 -16.5 -1
      vertex 6.87051 -12.9683 -1
      vertex 6.93303 -12.8611 -1
    endloop
  endfacet
  facet normal 0 0 -1
    outer loop
      vertex 16.5 -16.5 -1
      vertex 6.79822 -13.0634 -1
      vertex 6.87051 -12.9683 -1
    endloop
  endfacet
  facet normal 0 0 -1
    outer loop
      vertex 16.5 -16.5 -1
      vertex 6.71251 -13.1511 -1
      vertex 6.79822 -13.0634 -1
    endloop
  endfacet
  facet normal 0 0 -1
    outer loop
      vertex 16.5 -16.5 -1
      vertex 6.6201 -13.2255 -1
      vertex 6.71251 -13.1511 -1
    endloop
  endfacet
  facet normal 0 0 -1
    outer loop
      vertex 16.5 -16.5 -1
      vertex 6.51625 -13.2902 -1
      vertex 6.6201 -13.2255 -1
    endloop
  endfacet
  facet normal 0 0 -1
    outer loop
      vertex 16.5 -16.5 -1
      vertex 6.40524 -13.3418 -1
      vertex 6.51625 -13.2902 -1
    endloop
  endfacet
  facet normal 0 0 -1
    outer loop
      vertex 16.5 -16.5 -1
      vertex 6.29219 -13.3788 -1
      vertex 6.40524 -13.3418 -1
    endloop
  endfacet
  facet normal 0 0 -1
    outer loop
      vertex 16.5 -16.5 -1
      vertex 6.17125 -13.4025 -1
      vertex 6.29219 -13.3788 -1
    endloop
  endfacet
  facet normal 0 0 -1
    outer loop
      vertex 16.5 -16.5 -1
      vertex 6.05875 -13.4113 -1
      vertex 6.17125 -13.4025 -1
    endloop
  endfacet
  facet normal 0 0 -1
    outer loop
      vertex 16.5 -16.5 -1
      vertex 3.47963 -13.4087 -1
      vertex 6.05875 -13.4113 -1
    endloop
  endfacet
  facet normal 0 0 -1
    outer loop
      vertex -3.06967 -13.4025 -1
      vertex 3.47963 -13.4087 -1
      vertex 16.5 -16.5 -1
    endloop
  endfacet
  facet normal 0 0 -1
    outer loop
      vertex 2.55156 -12.4336 -1
      vertex -2.23872 -2.52148 -1
      vertex 2.55132 -2.52148 -1
    endloop
  endfacet
  facet normal 0 0 -1
    outer loop
      vertex -2.24149 -12.4864 -1
      vertex 2.55156 -12.4336 -1
      vertex 2.5612 -12.5529 -1
    endloop
  endfacet
  facet normal 0 0 -1
    outer loop
      vertex -2.25688 -12.6118 -1
      vertex 2.5612 -12.5529 -1
      vertex 2.58759 -12.6819 -1
    endloop
  endfacet
  facet normal 0 0 -1
    outer loop
      vertex -2.28745 -12.735 -1
      vertex 2.58759 -12.6819 -1
      vertex 2.62874 -12.8008 -1
    endloop
  endfacet
  facet normal -0 0 -1
    outer loop
      vertex 2.55156 -12.4336 -1
      vertex -2.24149 -12.4864 -1
      vertex -2.23872 -2.52148 -1
    endloop
  endfacet
  facet normal 0 0 -1
    outer loop
      vertex -2.33023 -12.8478 -1
      vertex 2.62874 -12.8008 -1
      vertex 2.68402 -12.9122 -1
    endloop
  endfacet
  facet normal 0 0 -1
    outer loop
      vertex -2.38737 -12.956 -1
      vertex 2.68402 -12.9122 -1
      vertex 2.75227 -13.0149 -1
    endloop
  endfacet
  facet normal 0 0 -1
    outer loop
      vertex -2.45662 -13.055 -1
      vertex 2.75227 -13.0149 -1
      vertex 2.83234 -13.108 -1
    endloop
  endfacet
  facet normal 0 0 -1
    outer loop
      vertex -2.53696 -13.1438 -1
      vertex 2.83234 -13.108 -1
      vertex 2.92293 -13.1903 -1
    endloop
  endfacet
  facet normal 0 0 -1
    outer loop
      vertex -2.62733 -13.2213 -1
      vertex 2.92293 -13.1903 -1
      vertex 3.01967 -13.2589 -1
    endloop
  endfacet
  facet normal 0 0 -1
    outer loop
      vertex -2.72659 -13.2868 -1
      vertex 3.01967 -13.2589 -1
      vertex 3.12718 -13.3173 -1
    endloop
  endfacet
  facet normal 0 0 -1
    outer loop
      vertex -2.83359 -13.3392 -1
      vertex 3.12718 -13.3173 -1
      vertex 3.2373 -13.3609 -1
    endloop
  endfacet
  facet normal 0 0 -1
    outer loop
      vertex -2.95078 -13.3788 -1
      vertex 3.2373 -13.3609 -1
      vertex 3.35681 -13.3923 -1
    endloop
  endfacet
  facet normal 0 0 -1
    outer loop
      vertex 3.47963 -13.4087 -1
      vertex -3.06967 -13.4025 -1
      vertex 3.35681 -13.3923 -1
    endloop
  endfacet
  facet normal -0 0 -1
    outer loop
      vertex 2.5612 -12.5529 -1
      vertex -2.25688 -12.6118 -1
      vertex -2.24149 -12.4864 -1
    endloop
  endfacet
  facet normal -0 0 -1
    outer loop
      vertex 2.58759 -12.6819 -1
      vertex -2.28745 -12.735 -1
      vertex -2.25688 -12.6118 -1
    endloop
  endfacet
  facet normal -0 0 -1
    outer loop
      vertex 2.62874 -12.8008 -1
      vertex -2.33023 -12.8478 -1
      vertex -2.28745 -12.735 -1
    endloop
  endfacet
  facet normal -0 0 -1
    outer loop
      vertex 2.68402 -12.9122 -1
      vertex -2.38737 -12.956 -1
      vertex -2.33023 -12.8478 -1
    endloop
  endfacet
  facet normal -0 0 -1
    outer loop
      vertex 2.75227 -13.0149 -1
      vertex -2.45662 -13.055 -1
      vertex -2.38737 -12.956 -1
    endloop
  endfacet
  facet normal -0 0 -1
    outer loop
      vertex 2.83234 -13.108 -1
      vertex -2.53696 -13.1438 -1
      vertex -2.45662 -13.055 -1
    endloop
  endfacet
  facet normal -0 0 -1
    outer loop
      vertex 2.92293 -13.1903 -1
      vertex -2.62733 -13.2213 -1
      vertex -2.53696 -13.1438 -1
    endloop
  endfacet
  facet normal -0 0 -1
    outer loop
      vertex 3.01967 -13.2589 -1
      vertex -2.72659 -13.2868 -1
      vertex -2.62733 -13.2213 -1
    endloop
  endfacet
  facet normal -0 0 -1
    outer loop
      vertex 3.12718 -13.3173 -1
      vertex -2.83359 -13.3392 -1
      vertex -2.72659 -13.2868 -1
    endloop
  endfacet
  facet normal -0 0 -1
    outer loop
      vertex 3.2373 -13.3609 -1
      vertex -2.95078 -13.3788 -1
      vertex -2.83359 -13.3392 -1
    endloop
  endfacet
  facet normal -0 0 -1
    outer loop
      vertex 3.35681 -13.3923 -1
      vertex -3.06967 -13.4025 -1
      vertex -2.95078 -13.3788 -1
    endloop
  endfacet
  facet normal 0 0 -1
    outer loop
      vertex 16.5 -16.5 -1
      vertex -3.18126 -13.4113 -1
      vertex -3.06967 -13.4025 -1
    endloop
  endfacet
  facet normal 0 0 -1
    outer loop
      vertex -16.5 -16.5 -1
      vertex -3.18126 -13.4113 -1
      vertex 16.5 -16.5 -1
    endloop
  endfacet
  facet normal -0 0 -1
    outer loop
      vertex -3.18126 -13.4113 -1
      vertex -16.5 -16.5 -1
      vertex -5.75983 -13.4091 -1
    endloop
  endfacet
  facet normal -0 0 -1
    outer loop
      vertex -6.67967 -12.5529 -1
      vertex -16.5 -16.5 -1
      vertex -6.68845 -12.4336 -1
    endloop
  endfacet
  facet normal -0 0 -1
    outer loop
      vertex -6.65672 -12.6745 -1
      vertex -16.5 -16.5 -1
      vertex -6.67967 -12.5529 -1
    endloop
  endfacet
  facet normal -0 0 -1
    outer loop
      vertex -6.61894 -12.7937 -1
      vertex -16.5 -16.5 -1
      vertex -6.65672 -12.6745 -1
    endloop
  endfacet
  facet normal -0 0 -1
    outer loop
      vertex -6.56735 -12.9054 -1
      vertex -16.5 -16.5 -1
      vertex -6.61894 -12.7937 -1
    endloop
  endfacet
  facet normal -0 0 -1
    outer loop
      vertex -6.50272 -13.0087 -1
      vertex -16.5 -16.5 -1
      vertex -6.56735 -12.9054 -1
    endloop
  endfacet
  facet normal -0 0 -1
    outer loop
      vertex -6.42589 -13.1023 -1
      vertex -16.5 -16.5 -1
      vertex -6.50272 -13.0087 -1
    endloop
  endfacet
  facet normal -0 0 -1
    outer loop
      vertex -6.33499 -13.1878 -1
      vertex -16.5 -16.5 -1
      vertex -6.42589 -13.1023 -1
    endloop
  endfacet
  facet normal -0 0 -1
    outer loop
      vertex -6.23628 -13.2589 -1
      vertex -16.5 -16.5 -1
      vertex -6.33499 -13.1878 -1
    endloop
  endfacet
  facet normal -0 0 -1
    outer loop
      vertex -6.12834 -13.3173 -1
      vertex -16.5 -16.5 -1
      vertex -6.23628 -13.2589 -1
    endloop
  endfacet
  facet normal -0 0 -1
    outer loop
      vertex -6.01221 -13.3624 -1
      vertex -16.5 -16.5 -1
      vertex -6.12834 -13.3173 -1
    endloop
  endfacet
  facet normal -0 0 -1
    outer loop
      vertex -5.88899 -13.3932 -1
      vertex -16.5 -16.5 -1
      vertex -6.01221 -13.3624 -1
    endloop
  endfacet
  facet normal -0 0 -1
    outer loop
      vertex -5.75983 -13.4091 -1
      vertex -16.5 -16.5 -1
      vertex -5.88899 -13.3932 -1
    endloop
  endfacet
  facet normal 0 0 -1
    outer loop
      vertex 7.02841 11.9978 -1
      vertex 16.5 16.5 -1
      vertex 7.03804 11.8786 -1
    endloop
  endfacet
  facet normal 0 0 -1
    outer loop
      vertex 7.00285 12.1232 -1
      vertex 16.5 16.5 -1
      vertex 7.02841 11.9978 -1
    endloop
  endfacet
  facet normal 0 0 -1
    outer loop
      vertex 6.96086 12.2456 -1
      vertex 16.5 16.5 -1
      vertex 7.00285 12.1232 -1
    endloop
  endfacet
  facet normal 0 0 -1
    outer loop
      vertex 6.90559 12.3569 -1
      vertex 16.5 16.5 -1
      vertex 6.96086 12.2456 -1
    endloop
  endfacet
  facet normal 0 0 -1
    outer loop
      vertex 6.83734 12.4595 -1
      vertex 16.5 16.5 -1
      vertex 6.90559 12.3569 -1
    endloop
  endfacet
  facet normal 0 0 -1
    outer loop
      vertex 6.75728 12.5525 -1
      vertex 16.5 16.5 -1
      vertex 6.83734 12.4595 -1
    endloop
  endfacet
  facet normal 0 0 -1
    outer loop
      vertex 6.66669 12.6347 -1
      vertex 16.5 16.5 -1
      vertex 6.75728 12.5525 -1
    endloop
  endfacet
  facet normal 0 0 -1
    outer loop
      vertex 6.56993 12.7032 -1
      vertex 16.5 16.5 -1
      vertex 6.66669 12.6347 -1
    endloop
  endfacet
  facet normal 0 0 -1
    outer loop
      vertex 6.46242 12.7615 -1
      vertex 16.5 16.5 -1
      vertex 6.56993 12.7032 -1
    endloop
  endfacet
  facet normal 0 0 -1
    outer loop
      vertex 6.35188 12.8052 -1
      vertex 16.5 16.5 -1
      vertex 6.46242 12.7615 -1
    endloop
  endfacet
  facet normal 0 0 -1
    outer loop
      vertex 6.2328 12.8364 -1
      vertex 16.5 16.5 -1
      vertex 6.35188 12.8052 -1
    endloop
  endfacet
  facet normal 0 0 -1
    outer loop
      vertex 6.10999 12.8527 -1
      vertex 16.5 16.5 -1
      vertex 6.2328 12.8364 -1
    endloop
  endfacet
  facet normal 0 0 -1
    outer loop
      vertex 3.53085 12.8553 -1
      vertex 16.5 16.5 -1
      vertex 6.10999 12.8527 -1
    endloop
  endfacet
  facet normal 0 0 -1
    outer loop
      vertex 3.41835 12.8465 -1
      vertex 16.5 16.5 -1
      vertex 3.53085 12.8553 -1
    endloop
  endfacet
  facet normal 0 0 -1
    outer loop
      vertex -3.00845 12.8364 -1
      vertex 3.41835 12.8465 -1
      vertex 3.29741 12.8228 -1
    endloop
  endfacet
  facet normal 0 0 -1
    outer loop
      vertex -2.23891 11.8786 -1
      vertex 2.55135 1.96548 -1
      vertex -2.23869 1.96548 -1
    endloop
  endfacet
  facet normal 0 0 -1
    outer loop
      vertex 2.55135 1.96548 -1
      vertex -2.23891 11.8786 -1
      vertex 2.55421 11.9314 -1
    endloop
  endfacet
  facet normal 0 0 -1
    outer loop
      vertex -2.24733 11.9941 -1
      vertex 2.55421 11.9314 -1
      vertex -2.23891 11.8786 -1
    endloop
  endfacet
  facet normal 0 0 -1
    outer loop
      vertex 2.55421 11.9314 -1
      vertex -2.24733 11.9941 -1
      vertex 2.57256 12.0641 -1
    endloop
  endfacet
  facet normal 0 0 -1
    outer loop
      vertex -2.27037 12.1195 -1
      vertex 2.57256 12.0641 -1
      vertex -2.24733 11.9941 -1
    endloop
  endfacet
  facet normal 0 0 -1
    outer loop
      vertex 2.57256 12.0641 -1
      vertex -2.27037 12.1195 -1
      vertex 2.60626 12.187 -1
    endloop
  endfacet
  facet normal 0 0 -1
    outer loop
      vertex -2.30647 12.235 -1
      vertex 2.60626 12.187 -1
      vertex -2.27037 12.1195 -1
    endloop
  endfacet
  facet normal 0 0 -1
    outer loop
      vertex 2.60626 12.187 -1
      vertex -2.30647 12.235 -1
      vertex 2.65475 12.3026 -1
    endloop
  endfacet
  facet normal 0 0 -1
    outer loop
      vertex -2.3568 12.3468 -1
      vertex 2.65475 12.3026 -1
      vertex -2.30647 12.235 -1
    endloop
  endfacet
  facet normal 0 0 -1
    outer loop
      vertex 2.65475 12.3026 -1
      vertex -2.3568 12.3468 -1
      vertex 2.69667 12.3782 -1
    endloop
  endfacet
  facet normal 0 0 -1
    outer loop
      vertex -2.41971 12.4501 -1
      vertex 2.69667 12.3782 -1
      vertex -2.3568 12.3468 -1
    endloop
  endfacet
  facet normal 0 0 -1
    outer loop
      vertex 2.69667 12.3782 -1
      vertex -2.41971 12.4501 -1
      vertex 2.79138 12.508 -1
    endloop
  endfacet
  facet normal 0 0 -1
    outer loop
      vertex -2.49428 12.5439 -1
      vertex 2.79138 12.508 -1
      vertex -2.41971 12.4501 -1
    endloop
  endfacet
  facet normal 0 0 -1
    outer loop
      vertex 2.79138 12.508 -1
      vertex -2.49428 12.5439 -1
      vertex 2.87711 12.5956 -1
    endloop
  endfacet
  facet normal 0 0 -1
    outer loop
      vertex -2.57948 12.6271 -1
      vertex 2.87711 12.5956 -1
      vertex -2.49428 12.5439 -1
    endloop
  endfacet
  facet normal 0 0 -1
    outer loop
      vertex 2.87711 12.5956 -1
      vertex -2.57948 12.6271 -1
      vertex 2.96951 12.6699 -1
    endloop
  endfacet
  facet normal 0 0 -1
    outer loop
      vertex -2.67427 12.6988 -1
      vertex 2.96951 12.6699 -1
      vertex -2.57948 12.6271 -1
    endloop
  endfacet
  facet normal 0 0 -1
    outer loop
      vertex 2.96951 12.6699 -1
      vertex -2.67427 12.6988 -1
      vertex 3.07335 12.7344 -1
    endloop
  endfacet
  facet normal 0 0 -1
    outer loop
      vertex -2.77754 12.758 -1
      vertex 3.07335 12.7344 -1
      vertex -2.67427 12.6988 -1
    endloop
  endfacet
  facet normal 0 0 -1
    outer loop
      vertex 3.07335 12.7344 -1
      vertex -2.77754 12.758 -1
      vertex 3.18436 12.7859 -1
    endloop
  endfacet
  facet normal 0 0 -1
    outer loop
      vertex -2.88811 12.8038 -1
      vertex 3.18436 12.7859 -1
      vertex -2.77754 12.758 -1
    endloop
  endfacet
  facet normal 0 0 -1
    outer loop
      vertex 3.18436 12.7859 -1
      vertex -2.88811 12.8038 -1
      vertex 3.29741 12.8228 -1
    endloop
  endfacet
  facet normal 0 0 -1
    outer loop
      vertex -3.00845 12.8364 -1
      vertex 3.29741 12.8228 -1
      vertex -2.88811 12.8038 -1
    endloop
  endfacet
  facet normal -0 0 -1
    outer loop
      vertex 3.41835 12.8465 -1
      vertex -3.00845 12.8364 -1
      vertex -3.13011 12.8527 -1
    endloop
  endfacet
  facet normal 0 0 -1
    outer loop
      vertex 3.41835 12.8465 -1
      vertex -3.13011 12.8527 -1
      vertex 16.5 16.5 -1
    endloop
  endfacet
  facet normal 0 0 -1
    outer loop
      vertex -16.5 16.5 -1
      vertex -3.13011 12.8527 -1
      vertex -5.72972 12.8546 -1
    endloop
  endfacet
  facet normal 0 0 -1
    outer loop
      vertex -16.5 16.5 -1
      vertex -5.72972 12.8546 -1
      vertex -5.8338 12.8462 -1
    endloop
  endfacet
  facet normal 0 0 -1
    outer loop
      vertex -16.5 -16.5 -1
      vertex -6.68628 11.9276 -1
      vertex -6.68845 -12.4336 -1
    endloop
  endfacet
  facet normal 0 0 -1
    outer loop
      vertex -16.5 16.5 -1
      vertex -6.68628 11.9276 -1
      vertex -16.5 -16.5 -1
    endloop
  endfacet
  facet normal 0 0 -1
    outer loop
      vertex -6.68628 11.9276 -1
      vertex -16.5 16.5 -1
      vertex -6.67039 12.0568 -1
    endloop
  endfacet
  facet normal 0 0 -1
    outer loop
      vertex -3.13011 12.8527 -1
      vertex -16.5 16.5 -1
      vertex 16.5 16.5 -1
    endloop
  endfacet
  facet normal 0 0 -1
    outer loop
      vertex -5.95172 12.8236 -1
      vertex -16.5 16.5 -1
      vertex -5.8338 12.8462 -1
    endloop
  endfacet
  facet normal 0 0 -1
    outer loop
      vertex -6.07089 12.7859 -1
      vertex -16.5 16.5 -1
      vertex -5.95172 12.8236 -1
    endloop
  endfacet
  facet normal 0 0 -1
    outer loop
      vertex -6.18263 12.7344 -1
      vertex -16.5 16.5 -1
      vertex -6.07089 12.7859 -1
    endloop
  endfacet
  facet normal 0 0 -1
    outer loop
      vertex -6.28584 12.6699 -1
      vertex -16.5 16.5 -1
      vertex -6.18263 12.7344 -1
    endloop
  endfacet
  facet normal 0 0 -1
    outer loop
      vertex -6.37947 12.5932 -1
      vertex -16.5 16.5 -1
      vertex -6.28584 12.6699 -1
    endloop
  endfacet
  facet normal 0 0 -1
    outer loop
      vertex -6.46249 12.5052 -1
      vertex -16.5 16.5 -1
      vertex -6.37947 12.5932 -1
    endloop
  endfacet
  facet normal 0 0 -1
    outer loop
      vertex -6.53606 12.4038 -1
      vertex -16.5 16.5 -1
      vertex -6.46249 12.5052 -1
    endloop
  endfacet
  facet normal 0 0 -1
    outer loop
      vertex -6.59453 12.296 -1
      vertex -16.5 16.5 -1
      vertex -6.53606 12.4038 -1
    endloop
  endfacet
  facet normal 0 0 -1
    outer loop
      vertex -6.63957 12.1799 -1
      vertex -16.5 16.5 -1
      vertex -6.59453 12.296 -1
    endloop
  endfacet
  facet normal 0 0 -1
    outer loop
      vertex -6.67039 12.0568 -1
      vertex -16.5 16.5 -1
      vertex -6.63957 12.1799 -1
    endloop
  endfacet
  facet normal 0.192162 -0.981363 0
    outer loop
      vertex 3.29741 12.8228 -1
      vertex 3.41835 12.8465 -1.57324e-15
      vertex 3.29741 12.8228 -1.57034e-15
    endloop
  endfacet
  facet normal 0.192162 -0.981363 0
    outer loop
      vertex 3.41835 12.8465 -1.57324e-15
      vertex 3.29741 12.8228 -1
      vertex 3.41835 12.8465 -1
    endloop
  endfacet
  facet normal 0.310371 -0.950616 0
    outer loop
      vertex 3.18436 12.7859 -1
      vertex 3.29741 12.8228 -1.57034e-15
      vertex 3.18436 12.7859 -1.56582e-15
    endloop
  endfacet
  facet normal 0.310371 -0.950616 0
    outer loop
      vertex 3.29741 12.8228 -1.57034e-15
      vertex 3.18436 12.7859 -1
      vertex 3.29741 12.8228 -1
    endloop
  endfacet
  facet normal 0.420837 -0.907136 0
    outer loop
      vertex 3.07335 12.7344 -1
      vertex 3.18436 12.7859 -1.56582e-15
      vertex 3.07335 12.7344 -1.55952e-15
    endloop
  endfacet
  facet normal 0.420837 -0.907136 0
    outer loop
      vertex 3.18436 12.7859 -1.56582e-15
      vertex 3.07335 12.7344 -1
      vertex 3.18436 12.7859 -1
    endloop
  endfacet
  facet normal 0.527832 -0.849349 0
    outer loop
      vertex 2.96951 12.6699 -1
      vertex 3.07335 12.7344 -1.55952e-15
      vertex 2.96951 12.6699 -1.55161e-15
    endloop
  endfacet
  facet normal 0.527832 -0.849349 0
    outer loop
      vertex 3.07335 12.7344 -1.55952e-15
      vertex 2.96951 12.6699 -1
      vertex 3.07335 12.7344 -1
    endloop
  endfacet
  facet normal 0.626514 -0.77941 0
    outer loop
      vertex 2.87711 12.5956 -1
      vertex 2.96951 12.6699 -1.55161e-15
      vertex 2.87711 12.5956 -1.54252e-15
    endloop
  endfacet
  facet normal 0.626514 -0.77941 0
    outer loop
      vertex 2.96951 12.6699 -1.55161e-15
      vertex 2.87711 12.5956 -1
      vertex 2.96951 12.6699 -1
    endloop
  endfacet
  facet normal 0.714904 -0.699222 0
    outer loop
      vertex 2.79138 12.508 -1.53178e-15
      vertex 2.87711 12.5956 -1
      vertex 2.87711 12.5956 -1.54252e-15
    endloop
  endfacet
  facet normal 0.714904 -0.699222 0
    outer loop
      vertex 2.87711 12.5956 -1
      vertex 2.79138 12.508 -1.53178e-15
      vertex 2.79138 12.508 -1
    endloop
  endfacet
  facet normal 0.807828 -0.589419 0
    outer loop
      vertex 2.69667 12.3782 -1.51589e-15
      vertex 2.79138 12.508 -1
      vertex 2.79138 12.508 -1.53178e-15
    endloop
  endfacet
  facet normal 0.807828 -0.589419 0
    outer loop
      vertex 2.79138 12.508 -1
      vertex 2.69667 12.3782 -1.51589e-15
      vertex 2.69667 12.3782 -1
    endloop
  endfacet
  facet normal 0.874382 -0.485238 0
    outer loop
      vertex 2.65475 12.3026 -1.50664e-15
      vertex 2.69667 12.3782 -1
      vertex 2.69667 12.3782 -1.51589e-15
    endloop
  endfacet
  facet normal 0.874382 -0.485238 0
    outer loop
      vertex 2.69667 12.3782 -1
      vertex 2.65475 12.3026 -1.50664e-15
      vertex 2.65475 12.3026 -1
    endloop
  endfacet
  facet normal 0.922225 -0.386653 0
    outer loop
      vertex 2.60626 12.187 -1.49247e-15
      vertex 2.65475 12.3026 -1
      vertex 2.65475 12.3026 -1.50664e-15
    endloop
  endfacet
  facet normal 0.922225 -0.386653 0
    outer loop
      vertex 2.65475 12.3026 -1
      vertex 2.60626 12.187 -1.49247e-15
      vertex 2.60626 12.187 -1
    endloop
  endfacet
  facet normal 0.964368 -0.264566 0
    outer loop
      vertex 2.57256 12.0641 -1.47743e-15
      vertex 2.60626 12.187 -1
      vertex 2.60626 12.187 -1.49247e-15
    endloop
  endfacet
  facet normal 0.964368 -0.264566 0
    outer loop
      vertex 2.60626 12.187 -1
      vertex 2.57256 12.0641 -1.47743e-15
      vertex 2.57256 12.0641 -1
    endloop
  endfacet
  facet normal 0.990586 -0.136892 0
    outer loop
      vertex 2.55421 11.9314 -1.46117e-15
      vertex 2.57256 12.0641 -1
      vertex 2.57256 12.0641 -1.47743e-15
    endloop
  endfacet
  facet normal 0.990586 -0.136892 0
    outer loop
      vertex 2.57256 12.0641 -1
      vertex 2.55421 11.9314 -1.46117e-15
      vertex 2.55421 11.9314 -1
    endloop
  endfacet
  facet normal 1 -0.000287847 0
    outer loop
      vertex 2.55135 1.96548 -2.40702e-16
      vertex 2.55421 11.9314 -1
      vertex 2.55421 11.9314 -1.46117e-15
    endloop
  endfacet
  facet normal 1 -0.000287847 0
    outer loop
      vertex 2.55421 11.9314 -1
      vertex 2.55135 1.96548 -2.40702e-16
      vertex 2.55135 1.96548 -1
    endloop
  endfacet
  facet normal 0 -1 0
    outer loop
      vertex -2.23869 1.96548 -1
      vertex 2.55135 1.96548 -2.40702e-16
      vertex -2.23869 1.96548 -2.40702e-16
    endloop
  endfacet
  facet normal 0 -1 -0
    outer loop
      vertex 2.55135 1.96548 -2.40702e-16
      vertex -2.23869 1.96548 -1
      vertex 2.55135 1.96548 -1
    endloop
  endfacet
  facet normal -1 -2.15495e-05 0
    outer loop
      vertex -2.23869 1.96548 -1
      vertex -2.23891 11.8786 -1.45471e-15
      vertex -2.23891 11.8786 -1
    endloop
  endfacet
  facet normal -1 -2.15495e-05 0
    outer loop
      vertex -2.23891 11.8786 -1.45471e-15
      vertex -2.23869 1.96548 -1
      vertex -2.23869 1.96548 -2.40702e-16
    endloop
  endfacet
  facet normal -0.99735 -0.072755 0
    outer loop
      vertex -2.23891 11.8786 -1
      vertex -2.24733 11.9941 -1.46885e-15
      vertex -2.24733 11.9941 -1
    endloop
  endfacet
  facet normal -0.99735 -0.072755 0
    outer loop
      vertex -2.24733 11.9941 -1.46885e-15
      vertex -2.23891 11.8786 -1
      vertex -2.23891 11.8786 -1.45471e-15
    endloop
  endfacet
  facet normal -0.983535 -0.180718 0
    outer loop
      vertex -2.24733 11.9941 -1
      vertex -2.27037 12.1195 -1.48421e-15
      vertex -2.27037 12.1195 -1
    endloop
  endfacet
  facet normal -0.983535 -0.180718 0
    outer loop
      vertex -2.27037 12.1195 -1.48421e-15
      vertex -2.24733 11.9941 -1
      vertex -2.24733 11.9941 -1.46885e-15
    endloop
  endfacet
  facet normal -0.954455 -0.298354 0
    outer loop
      vertex -2.27037 12.1195 -1
      vertex -2.30647 12.235 -1.49835e-15
      vertex -2.30647 12.235 -1
    endloop
  endfacet
  facet normal -0.954455 -0.298354 0
    outer loop
      vertex -2.30647 12.235 -1.49835e-15
      vertex -2.27037 12.1195 -1
      vertex -2.27037 12.1195 -1.48421e-15
    endloop
  endfacet
  facet normal -0.911924 -0.41036 0
    outer loop
      vertex -2.30647 12.235 -1
      vertex -2.3568 12.3468 -1.51205e-15
      vertex -2.3568 12.3468 -1
    endloop
  endfacet
  facet normal -0.911924 -0.41036 0
    outer loop
      vertex -2.3568 12.3468 -1.51205e-15
      vertex -2.30647 12.235 -1
      vertex -2.30647 12.235 -1.49835e-15
    endloop
  endfacet
  facet normal -0.854147 -0.520031 0
    outer loop
      vertex -2.3568 12.3468 -1
      vertex -2.41971 12.4501 -1.5247e-15
      vertex -2.41971 12.4501 -1
    endloop
  endfacet
  facet normal -0.854147 -0.520031 0
    outer loop
      vertex -2.41971 12.4501 -1.5247e-15
      vertex -2.3568 12.3468 -1
      vertex -2.3568 12.3468 -1.51205e-15
    endloop
  endfacet
  facet normal -0.782766 -0.622316 0
    outer loop
      vertex -2.41971 12.4501 -1
      vertex -2.49428 12.5439 -1.53619e-15
      vertex -2.49428 12.5439 -1
    endloop
  endfacet
  facet normal -0.782766 -0.622316 0
    outer loop
      vertex -2.49428 12.5439 -1.53619e-15
      vertex -2.41971 12.4501 -1
      vertex -2.41971 12.4501 -1.5247e-15
    endloop
  endfacet
  facet normal -0.69873 -0.715385 0
    outer loop
      vertex -2.57948 12.6271 -1
      vertex -2.49428 12.5439 -1.53619e-15
      vertex -2.57948 12.6271 -1.54638e-15
    endloop
  endfacet
  facet normal -0.69873 -0.715385 -0
    outer loop
      vertex -2.49428 12.5439 -1.53619e-15
      vertex -2.57948 12.6271 -1
      vertex -2.49428 12.5439 -1
    endloop
  endfacet
  facet normal -0.603037 -0.797714 0
    outer loop
      vertex -2.67427 12.6988 -1
      vertex -2.57948 12.6271 -1.54638e-15
      vertex -2.67427 12.6988 -1.55515e-15
    endloop
  endfacet
  facet normal -0.603037 -0.797714 -0
    outer loop
      vertex -2.57948 12.6271 -1.54638e-15
      vertex -2.67427 12.6988 -1
      vertex -2.57948 12.6271 -1
    endloop
  endfacet
  facet normal -0.49716 -0.867659 0
    outer loop
      vertex -2.77754 12.758 -1
      vertex -2.67427 12.6988 -1.55515e-15
      vertex -2.77754 12.758 -1.5624e-15
    endloop
  endfacet
  facet normal -0.49716 -0.867659 -0
    outer loop
      vertex -2.67427 12.6988 -1.55515e-15
      vertex -2.77754 12.758 -1
      vertex -2.67427 12.6988 -1
    endloop
  endfacet
  facet normal -0.382967 -0.923762 0
    outer loop
      vertex -2.88811 12.8038 -1
      vertex -2.77754 12.758 -1.5624e-15
      vertex -2.88811 12.8038 -1.56801e-15
    endloop
  endfacet
  facet normal -0.382967 -0.923762 -0
    outer loop
      vertex -2.77754 12.758 -1.5624e-15
      vertex -2.88811 12.8038 -1
      vertex -2.77754 12.758 -1
    endloop
  endfacet
  facet normal -0.261294 -0.965259 0
    outer loop
      vertex -3.00845 12.8364 -1
      vertex -2.88811 12.8038 -1.56801e-15
      vertex -3.00845 12.8364 -1.572e-15
    endloop
  endfacet
  facet normal -0.261294 -0.965259 -0
    outer loop
      vertex -2.88811 12.8038 -1.56801e-15
      vertex -3.00845 12.8364 -1
      vertex -2.88811 12.8038 -1
    endloop
  endfacet
  facet normal -0.132888 -0.991131 0
    outer loop
      vertex -3.13011 12.8527 -1
      vertex -3.00845 12.8364 -1.572e-15
      vertex -3.13011 12.8527 -1.574e-15
    endloop
  endfacet
  facet normal -0.132888 -0.991131 -0
    outer loop
      vertex -3.00845 12.8364 -1.572e-15
      vertex -3.13011 12.8527 -1
      vertex -3.00845 12.8364 -1
    endloop
  endfacet
  facet normal -0.000733706 -1 0
    outer loop
      vertex -5.72972 12.8546 -1
      vertex -3.13011 12.8527 -1.574e-15
      vertex -5.72972 12.8546 -1.57423e-15
    endloop
  endfacet
  facet normal -0.000733706 -1 -0
    outer loop
      vertex -3.13011 12.8527 -1.574e-15
      vertex -5.72972 12.8546 -1
      vertex -3.13011 12.8527 -1
    endloop
  endfacet
  facet normal 0.080808 -0.99673 0
    outer loop
      vertex -5.8338 12.8462 -1
      vertex -5.72972 12.8546 -1.57423e-15
      vertex -5.8338 12.8462 -1.5732e-15
    endloop
  endfacet
  facet normal 0.080808 -0.99673 0
    outer loop
      vertex -5.72972 12.8546 -1.57423e-15
      vertex -5.8338 12.8462 -1
      vertex -5.72972 12.8546 -1
    endloop
  endfacet
  facet normal 0.187848 -0.982198 0
    outer loop
      vertex -5.95172 12.8236 -1
      vertex -5.8338 12.8462 -1.5732e-15
      vertex -5.95172 12.8236 -1.57044e-15
    endloop
  endfacet
  facet normal 0.187848 -0.982198 0
    outer loop
      vertex -5.8338 12.8462 -1.5732e-15
      vertex -5.95172 12.8236 -1
      vertex -5.8338 12.8462 -1
    endloop
  endfacet
  facet normal 0.30154 -0.953453 0
    outer loop
      vertex -6.07089 12.7859 -1
      vertex -5.95172 12.8236 -1.57044e-15
      vertex -6.07089 12.7859 -1.56582e-15
    endloop
  endfacet
  facet normal 0.30154 -0.953453 0
    outer loop
      vertex -5.95172 12.8236 -1.57044e-15
      vertex -6.07089 12.7859 -1
      vertex -5.95172 12.8236 -1
    endloop
  endfacet
  facet normal 0.418563 -0.908188 0
    outer loop
      vertex -6.18263 12.7344 -1
      vertex -6.07089 12.7859 -1.56582e-15
      vertex -6.18263 12.7344 -1.55952e-15
    endloop
  endfacet
  facet normal 0.418563 -0.908188 0
    outer loop
      vertex -6.07089 12.7859 -1.56582e-15
      vertex -6.18263 12.7344 -1
      vertex -6.07089 12.7859 -1
    endloop
  endfacet
  facet normal 0.530134 -0.847914 0
    outer loop
      vertex -6.28584 12.6699 -1
      vertex -6.18263 12.7344 -1.55952e-15
      vertex -6.28584 12.6699 -1.55161e-15
    endloop
  endfacet
  facet normal 0.530134 -0.847914 0
    outer loop
      vertex -6.18263 12.7344 -1.55952e-15
      vertex -6.28584 12.6699 -1
      vertex -6.18263 12.7344 -1
    endloop
  endfacet
  facet normal 0.633663 -0.773609 0
    outer loop
      vertex -6.37947 12.5932 -1
      vertex -6.28584 12.6699 -1.55161e-15
      vertex -6.37947 12.5932 -1.54222e-15
    endloop
  endfacet
  facet normal 0.633663 -0.773609 0
    outer loop
      vertex -6.28584 12.6699 -1.55161e-15
      vertex -6.37947 12.5932 -1
      vertex -6.28584 12.6699 -1
    endloop
  endfacet
  facet normal 0.727366 -0.686249 0
    outer loop
      vertex -6.46249 12.5052 -1.53145e-15
      vertex -6.37947 12.5932 -1
      vertex -6.37947 12.5932 -1.54222e-15
    endloop
  endfacet
  facet normal 0.727366 -0.686249 0
    outer loop
      vertex -6.37947 12.5932 -1
      vertex -6.46249 12.5052 -1.53145e-15
      vertex -6.46249 12.5052 -1
    endloop
  endfacet
  facet normal 0.809415 -0.587237 0
    outer loop
      vertex -6.53606 12.4038 -1.51903e-15
      vertex -6.46249 12.5052 -1
      vertex -6.46249 12.5052 -1.53145e-15
    endloop
  endfacet
  facet normal 0.809415 -0.587237 0
    outer loop
      vertex -6.46249 12.5052 -1
      vertex -6.53606 12.4038 -1.51903e-15
      vertex -6.53606 12.4038 -1
    endloop
  endfacet
  facet normal 0.879081 -0.476672 0
    outer loop
      vertex -6.59453 12.296 -1.50582e-15
      vertex -6.53606 12.4038 -1
      vertex -6.53606 12.4038 -1.51903e-15
    endloop
  endfacet
  facet normal 0.879081 -0.476672 0
    outer loop
      vertex -6.53606 12.4038 -1
      vertex -6.59453 12.296 -1.50582e-15
      vertex -6.59453 12.296 -1
    endloop
  endfacet
  facet normal 0.932248 -0.361819 0
    outer loop
      vertex -6.63957 12.1799 -1.49161e-15
      vertex -6.59453 12.296 -1
      vertex -6.59453 12.296 -1.50582e-15
    endloop
  endfacet
  facet normal 0.932248 -0.361819 0
    outer loop
      vertex -6.59453 12.296 -1
      vertex -6.63957 12.1799 -1.49161e-15
      vertex -6.63957 12.1799 -1
    endloop
  endfacet
  facet normal 0.970072 -0.242818 0
    outer loop
      vertex -6.67039 12.0568 -1.47653e-15
      vertex -6.63957 12.1799 -1
      vertex -6.63957 12.1799 -1.49161e-15
    endloop
  endfacet
  facet normal 0.970072 -0.242818 0
    outer loop
      vertex -6.63957 12.1799 -1
      vertex -6.67039 12.0568 -1.47653e-15
      vertex -6.67039 12.0568 -1
    endloop
  endfacet
  facet normal 0.99252 -0.122086 0
    outer loop
      vertex -6.68628 11.9276 -1.46071e-15
      vertex -6.67039 12.0568 -1
      vertex -6.67039 12.0568 -1.47653e-15
    endloop
  endfacet
  facet normal 0.99252 -0.122086 0
    outer loop
      vertex -6.67039 12.0568 -1
      vertex -6.68628 11.9276 -1.46071e-15
      vertex -6.68628 11.9276 -1
    endloop
  endfacet
  facet normal 1 -8.89424e-05 0
    outer loop
      vertex -6.68845 -12.4336 1.52268e-15
      vertex -6.68628 11.9276 -1
      vertex -6.68628 11.9276 -1.46071e-15
    endloop
  endfacet
  facet normal 1 -8.89424e-05 0
    outer loop
      vertex -6.68628 11.9276 -1
      vertex -6.68845 -12.4336 1.52268e-15
      vertex -6.68845 -12.4336 -1
    endloop
  endfacet
  facet normal 0.997305 0.0733688 0
    outer loop
      vertex -6.67967 -12.5529 1.53728e-15
      vertex -6.68845 -12.4336 -1
      vertex -6.68845 -12.4336 1.52268e-15
    endloop
  endfacet
  facet normal 0.997305 0.0733688 0
    outer loop
      vertex -6.68845 -12.4336 -1
      vertex -6.67967 -12.5529 1.53728e-15
      vertex -6.67967 -12.5529 -1
    endloop
  endfacet
  facet normal 0.982678 0.185323 0
    outer loop
      vertex -6.65672 -12.6745 1.55218e-15
      vertex -6.67967 -12.5529 -1
      vertex -6.67967 -12.5529 1.53728e-15
    endloop
  endfacet
  facet normal 0.982678 0.185323 0
    outer loop
      vertex -6.67967 -12.5529 -1
      vertex -6.65672 -12.6745 1.55218e-15
      vertex -6.65672 -12.6745 -1
    endloop
  endfacet
  facet normal 0.953231 0.302241 0
    outer loop
      vertex -6.61894 -12.7937 1.56678e-15
      vertex -6.65672 -12.6745 -1
      vertex -6.65672 -12.6745 1.55218e-15
    endloop
  endfacet
  facet normal 0.953231 0.302241 0
    outer loop
      vertex -6.65672 -12.6745 -1
      vertex -6.61894 -12.7937 1.56678e-15
      vertex -6.61894 -12.7937 -1
    endloop
  endfacet
  facet normal 0.907905 0.419176 0
    outer loop
      vertex -6.56735 -12.9054 1.58046e-15
      vertex -6.61894 -12.7937 -1
      vertex -6.61894 -12.7937 1.56678e-15
    endloop
  endfacet
  facet normal 0.907905 0.419176 0
    outer loop
      vertex -6.61894 -12.7937 -1
      vertex -6.56735 -12.9054 1.58046e-15
      vertex -6.56735 -12.9054 -1
    endloop
  endfacet
  facet normal 0.847519 0.530765 0
    outer loop
      vertex -6.50272 -13.0087 1.5931e-15
      vertex -6.56735 -12.9054 -1
      vertex -6.56735 -12.9054 1.58046e-15
    endloop
  endfacet
  facet normal 0.847519 0.530765 0
    outer loop
      vertex -6.56735 -12.9054 -1
      vertex -6.50272 -13.0087 1.5931e-15
      vertex -6.50272 -13.0087 -1
    endloop
  endfacet
  facet normal 0.773103 0.63428 0
    outer loop
      vertex -6.42589 -13.1023 1.60457e-15
      vertex -6.50272 -13.0087 -1
      vertex -6.50272 -13.0087 1.5931e-15
    endloop
  endfacet
  facet normal 0.773103 0.63428 0
    outer loop
      vertex -6.50272 -13.0087 -1
      vertex -6.42589 -13.1023 1.60457e-15
      vertex -6.42589 -13.1023 -1
    endloop
  endfacet
  facet normal 0.685262 0.728297 -0
    outer loop
      vertex -6.33499 -13.1878 -1
      vertex -6.42589 -13.1023 1.60457e-15
      vertex -6.33499 -13.1878 1.61504e-15
    endloop
  endfacet
  facet normal 0.685262 0.728297 0
    outer loop
      vertex -6.42589 -13.1023 1.60457e-15
      vertex -6.33499 -13.1878 -1
      vertex -6.42589 -13.1023 -1
    endloop
  endfacet
  facet normal 0.584166 0.811634 -0
    outer loop
      vertex -6.23628 -13.2589 -1
      vertex -6.33499 -13.1878 1.61504e-15
      vertex -6.23628 -13.2589 1.62374e-15
    endloop
  endfacet
  facet normal 0.584166 0.811634 0
    outer loop
      vertex -6.33499 -13.1878 1.61504e-15
      vertex -6.23628 -13.2589 -1
      vertex -6.33499 -13.1878 -1
    endloop
  endfacet
  facet normal 0.476307 0.879279 -0
    outer loop
      vertex -6.12834 -13.3173 -1
      vertex -6.23628 -13.2589 1.62374e-15
      vertex -6.12834 -13.3173 1.6309e-15
    endloop
  endfacet
  facet normal 0.476307 0.879279 0
    outer loop
      vertex -6.23628 -13.2589 1.62374e-15
      vertex -6.12834 -13.3173 -1
      vertex -6.23628 -13.2589 -1
    endloop
  endfacet
  facet normal 0.361613 0.932328 -0
    outer loop
      vertex -6.01221 -13.3624 -1
      vertex -6.12834 -13.3173 1.6309e-15
      vertex -6.01221 -13.3624 1.63642e-15
    endloop
  endfacet
  facet normal 0.361613 0.932328 0
    outer loop
      vertex -6.12834 -13.3173 1.6309e-15
      vertex -6.01221 -13.3624 -1
      vertex -6.12834 -13.3173 -1
    endloop
  endfacet
  facet normal 0.242677 0.970107 -0
    outer loop
      vertex -5.88899 -13.3932 -1
      vertex -6.01221 -13.3624 1.63642e-15
      vertex -5.88899 -13.3932 1.64019e-15
    endloop
  endfacet
  facet normal 0.242677 0.970107 0
    outer loop
      vertex -6.01221 -13.3624 1.63642e-15
      vertex -5.88899 -13.3932 -1
      vertex -6.01221 -13.3624 -1
    endloop
  endfacet
  facet normal 0.122057 0.992523 -0
    outer loop
      vertex -5.75983 -13.4091 -1
      vertex -5.88899 -13.3932 1.64019e-15
      vertex -5.75983 -13.4091 1.64214e-15
    endloop
  endfacet
  facet normal 0.122057 0.992523 0
    outer loop
      vertex -5.88899 -13.3932 1.64019e-15
      vertex -5.75983 -13.4091 -1
      vertex -5.88899 -13.3932 -1
    endloop
  endfacet
  facet normal 0.000840291 1 -0
    outer loop
      vertex -3.18126 -13.4113 -1
      vertex -5.75983 -13.4091 1.64214e-15
      vertex -3.18126 -13.4113 1.64241e-15
    endloop
  endfacet
  facet normal 0.000840291 1 0
    outer loop
      vertex -5.75983 -13.4091 1.64214e-15
      vertex -3.18126 -13.4113 -1
      vertex -5.75983 -13.4091 -1
    endloop
  endfacet
  facet normal -0.0783852 0.996923 0
    outer loop
      vertex -3.06967 -13.4025 -1
      vertex -3.18126 -13.4113 1.64241e-15
      vertex -3.06967 -13.4025 1.64133e-15
    endloop
  endfacet
  facet normal -0.0783852 0.996923 0
    outer loop
      vertex -3.18126 -13.4113 1.64241e-15
      vertex -3.06967 -13.4025 -1
      vertex -3.18126 -13.4113 -1
    endloop
  endfacet
  facet normal -0.195705 0.980663 0
    outer loop
      vertex -2.95078 -13.3788 -1
      vertex -3.06967 -13.4025 1.64133e-15
      vertex -2.95078 -13.3788 1.63842e-15
    endloop
  endfacet
  facet normal -0.195705 0.980663 0
    outer loop
      vertex -3.06967 -13.4025 1.64133e-15
      vertex -2.95078 -13.3788 -1
      vertex -3.06967 -13.4025 -1
    endloop
  endfacet
  facet normal -0.319446 0.947604 0
    outer loop
      vertex -2.83359 -13.3392 -1
      vertex -2.95078 -13.3788 1.63842e-15
      vertex -2.83359 -13.3392 1.63359e-15
    endloop
  endfacet
  facet normal -0.319446 0.947604 0
    outer loop
      vertex -2.95078 -13.3788 1.63842e-15
      vertex -2.83359 -13.3392 -1
      vertex -2.95078 -13.3788 -1
    endloop
  endfacet
  facet normal -0.440337 0.897832 0
    outer loop
      vertex -2.72659 -13.2868 -1
      vertex -2.83359 -13.3392 1.63359e-15
      vertex -2.72659 -13.2868 1.62716e-15
    endloop
  endfacet
  facet normal -0.440337 0.897832 0
    outer loop
      vertex -2.83359 -13.3392 1.63359e-15
      vertex -2.72659 -13.2868 -1
      vertex -2.83359 -13.3392 -1
    endloop
  endfacet
  facet normal -0.550458 0.834863 0
    outer loop
      vertex -2.62733 -13.2213 -1
      vertex -2.72659 -13.2868 1.62716e-15
      vertex -2.62733 -13.2213 1.61915e-15
    endloop
  endfacet
  facet normal -0.550458 0.834863 0
    outer loop
      vertex -2.72659 -13.2868 1.62716e-15
      vertex -2.62733 -13.2213 -1
      vertex -2.72659 -13.2868 -1
    endloop
  endfacet
  facet normal -0.651319 0.758804 0
    outer loop
      vertex -2.53696 -13.1438 -1
      vertex -2.62733 -13.2213 1.61915e-15
      vertex -2.53696 -13.1438 1.60965e-15
    endloop
  endfacet
  facet normal -0.651319 0.758804 0
    outer loop
      vertex -2.62733 -13.2213 1.61915e-15
      vertex -2.53696 -13.1438 -1
      vertex -2.62733 -13.2213 -1
    endloop
  endfacet
  facet normal -0.741409 0.671053 0
    outer loop
      vertex -2.53696 -13.1438 -1
      vertex -2.45662 -13.055 1.59878e-15
      vertex -2.45662 -13.055 -1
    endloop
  endfacet
  facet normal -0.741409 0.671053 0
    outer loop
      vertex -2.45662 -13.055 1.59878e-15
      vertex -2.53696 -13.1438 -1
      vertex -2.53696 -13.1438 1.60965e-15
    endloop
  endfacet
  facet normal -0.819487 0.573098 0
    outer loop
      vertex -2.45662 -13.055 -1
      vertex -2.38737 -12.956 1.58665e-15
      vertex -2.38737 -12.956 -1
    endloop
  endfacet
  facet normal -0.819487 0.573098 0
    outer loop
      vertex -2.38737 -12.956 1.58665e-15
      vertex -2.45662 -13.055 -1
      vertex -2.45662 -13.055 1.59878e-15
    endloop
  endfacet
  facet normal -0.884227 0.467057 0
    outer loop
      vertex -2.38737 -12.956 -1
      vertex -2.33023 -12.8478 1.5734e-15
      vertex -2.33023 -12.8478 -1
    endloop
  endfacet
  facet normal -0.884227 0.467057 0
    outer loop
      vertex -2.33023 -12.8478 1.5734e-15
      vertex -2.38737 -12.956 -1
      vertex -2.38737 -12.956 1.58665e-15
    endloop
  endfacet
  facet normal -0.934976 0.354711 0
    outer loop
      vertex -2.33023 -12.8478 -1
      vertex -2.28745 -12.735 1.55959e-15
      vertex -2.28745 -12.735 -1
    endloop
  endfacet
  facet normal -0.934976 0.354711 0
    outer loop
      vertex -2.28745 -12.735 1.55959e-15
      vertex -2.33023 -12.8478 -1
      vertex -2.33023 -12.8478 1.5734e-15
    endloop
  endfacet
  facet normal -0.970579 0.240782 0
    outer loop
      vertex -2.28745 -12.735 -1
      vertex -2.25688 -12.6118 1.5445e-15
      vertex -2.25688 -12.6118 -1
    endloop
  endfacet
  facet normal -0.970579 0.240782 0
    outer loop
      vertex -2.25688 -12.6118 1.5445e-15
      vertex -2.28745 -12.735 -1
      vertex -2.28745 -12.735 1.55959e-15
    endloop
  endfacet
  facet normal -0.99255 0.121835 0
    outer loop
      vertex -2.25688 -12.6118 -1
      vertex -2.24149 -12.4864 1.52914e-15
      vertex -2.24149 -12.4864 -1
    endloop
  endfacet
  facet normal -0.99255 0.121835 0
    outer loop
      vertex -2.24149 -12.4864 1.52914e-15
      vertex -2.25688 -12.6118 -1
      vertex -2.25688 -12.6118 1.5445e-15
    endloop
  endfacet
  facet normal -1 0.000277157 0
    outer loop
      vertex -2.24149 -12.4864 -1
      vertex -2.23872 -2.52148 3.08793e-16
      vertex -2.23872 -2.52148 -1
    endloop
  endfacet
  facet normal -1 0.000277157 0
    outer loop
      vertex -2.23872 -2.52148 3.08793e-16
      vertex -2.24149 -12.4864 -1
      vertex -2.24149 -12.4864 1.52914e-15
    endloop
  endfacet
  facet normal 0 1 -0
    outer loop
      vertex 2.55132 -2.52148 -1
      vertex -2.23872 -2.52148 3.08793e-16
      vertex 2.55132 -2.52148 3.08793e-16
    endloop
  endfacet
  facet normal 0 1 0
    outer loop
      vertex -2.23872 -2.52148 3.08793e-16
      vertex 2.55132 -2.52148 -1
      vertex -2.23872 -2.52148 -1
    endloop
  endfacet
  facet normal 1 2.46305e-05 0
    outer loop
      vertex 2.55156 -12.4336 1.52268e-15
      vertex 2.55132 -2.52148 -1
      vertex 2.55132 -2.52148 3.08793e-16
    endloop
  endfacet
  facet normal 1 2.46305e-05 0
    outer loop
      vertex 2.55132 -2.52148 -1
      vertex 2.55156 -12.4336 1.52268e-15
      vertex 2.55156 -12.4336 -1
    endloop
  endfacet
  facet normal 0.996747 0.0805967 0
    outer loop
      vertex 2.5612 -12.5529 1.53728e-15
      vertex 2.55156 -12.4336 -1
      vertex 2.55156 -12.4336 1.52268e-15
    endloop
  endfacet
  facet normal 0.996747 0.0805967 0
    outer loop
      vertex 2.55156 -12.4336 -1
      vertex 2.5612 -12.5529 1.53728e-15
      vertex 2.5612 -12.5529 -1
    endloop
  endfacet
  facet normal 0.979739 0.20028 0
    outer loop
      vertex 2.58759 -12.6819 1.55309e-15
      vertex 2.5612 -12.5529 -1
      vertex 2.5612 -12.5529 1.53728e-15
    endloop
  endfacet
  facet normal 0.979739 0.20028 0
    outer loop
      vertex 2.5612 -12.5529 -1
      vertex 2.58759 -12.6819 1.55309e-15
      vertex 2.58759 -12.6819 -1
    endloop
  endfacet
  facet normal 0.944982 0.327123 0
    outer loop
      vertex 2.62874 -12.8008 1.56765e-15
      vertex 2.58759 -12.6819 -1
      vertex 2.58759 -12.6819 1.55309e-15
    endloop
  endfacet
  facet normal 0.944982 0.327123 0
    outer loop
      vertex 2.58759 -12.6819 -1
      vertex 2.62874 -12.8008 1.56765e-15
      vertex 2.62874 -12.8008 -1
    endloop
  endfacet
  facet normal 0.895724 0.44461 0
    outer loop
      vertex 2.68402 -12.9122 1.58128e-15
      vertex 2.62874 -12.8008 -1
      vertex 2.62874 -12.8008 1.56765e-15
    endloop
  endfacet
  facet normal 0.895724 0.44461 0
    outer loop
      vertex 2.62874 -12.8008 -1
      vertex 2.68402 -12.9122 1.58128e-15
      vertex 2.68402 -12.9122 -1
    endloop
  endfacet
  facet normal 0.832944 0.553358 0
    outer loop
      vertex 2.75227 -13.0149 1.59387e-15
      vertex 2.68402 -12.9122 -1
      vertex 2.68402 -12.9122 1.58128e-15
    endloop
  endfacet
  facet normal 0.832944 0.553358 0
    outer loop
      vertex 2.68402 -12.9122 -1
      vertex 2.75227 -13.0149 1.59387e-15
      vertex 2.75227 -13.0149 -1
    endloop
  endfacet
  facet normal 0.758124 0.652111 0
    outer loop
      vertex 2.83234 -13.108 1.60527e-15
      vertex 2.75227 -13.0149 -1
      vertex 2.75227 -13.0149 1.59387e-15
    endloop
  endfacet
  facet normal 0.758124 0.652111 0
    outer loop
      vertex 2.75227 -13.0149 -1
      vertex 2.83234 -13.108 1.60527e-15
      vertex 2.83234 -13.108 -1
    endloop
  endfacet
  facet normal 0.672586 0.740019 -0
    outer loop
      vertex 2.92293 -13.1903 -1
      vertex 2.83234 -13.108 1.60527e-15
      vertex 2.92293 -13.1903 1.61535e-15
    endloop
  endfacet
  facet normal 0.672586 0.740019 0
    outer loop
      vertex 2.83234 -13.108 1.60527e-15
      vertex 2.92293 -13.1903 -1
      vertex 2.83234 -13.108 -1
    endloop
  endfacet
  facet normal 0.578117 0.815954 -0
    outer loop
      vertex 3.01967 -13.2589 -1
      vertex 2.92293 -13.1903 1.61535e-15
      vertex 3.01967 -13.2589 1.62374e-15
    endloop
  endfacet
  facet normal 0.578117 0.815954 0
    outer loop
      vertex 2.92293 -13.1903 1.61535e-15
      vertex 3.01967 -13.2589 -1
      vertex 2.92293 -13.1903 -1
    endloop
  endfacet
  facet normal 0.477769 0.878486 -0
    outer loop
      vertex 3.12718 -13.3173 -1
      vertex 3.01967 -13.2589 1.62374e-15
      vertex 3.12718 -13.3173 1.6309e-15
    endloop
  endfacet
  facet normal 0.477769 0.878486 0
    outer loop
      vertex 3.01967 -13.2589 1.62374e-15
      vertex 3.12718 -13.3173 -1
      vertex 3.01967 -13.2589 -1
    endloop
  endfacet
  facet normal 0.367856 0.929883 -0
    outer loop
      vertex 3.2373 -13.3609 -1
      vertex 3.12718 -13.3173 1.6309e-15
      vertex 3.2373 -13.3609 1.63624e-15
    endloop
  endfacet
  facet normal 0.367856 0.929883 0
    outer loop
      vertex 3.12718 -13.3173 1.6309e-15
      vertex 3.2373 -13.3609 -1
      vertex 3.12718 -13.3173 -1
    endloop
  endfacet
  facet normal 0.254487 0.967076 -0
    outer loop
      vertex 3.35681 -13.3923 -1
      vertex 3.2373 -13.3609 1.63624e-15
      vertex 3.35681 -13.3923 1.64009e-15
    endloop
  endfacet
  facet normal 0.254487 0.967076 0
    outer loop
      vertex 3.2373 -13.3609 1.63624e-15
      vertex 3.35681 -13.3923 -1
      vertex 3.2373 -13.3609 -1
    endloop
  endfacet
  facet normal 0.131898 0.991263 -0
    outer loop
      vertex 3.47963 -13.4087 -1
      vertex 3.35681 -13.3923 1.64009e-15
      vertex 3.47963 -13.4087 1.64209e-15
    endloop
  endfacet
  facet normal 0.131898 0.991263 0
    outer loop
      vertex 3.35681 -13.3923 1.64009e-15
      vertex 3.47963 -13.4087 -1
      vertex 3.35681 -13.3923 -1
    endloop
  endfacet
  facet normal 0.000993935 1 -0
    outer loop
      vertex 6.05875 -13.4113 -1
      vertex 3.47963 -13.4087 1.64209e-15
      vertex 6.05875 -13.4113 1.64241e-15
    endloop
  endfacet
  facet normal 0.000993935 1 0
    outer loop
      vertex 3.47963 -13.4087 1.64209e-15
      vertex 6.05875 -13.4113 -1
      vertex 3.47963 -13.4087 -1
    endloop
  endfacet
  facet normal -0.0777512 0.996973 0
    outer loop
      vertex 6.17125 -13.4025 -1
      vertex 6.05875 -13.4113 1.64241e-15
      vertex 6.17125 -13.4025 1.64133e-15
    endloop
  endfacet
  facet normal -0.0777512 0.996973 0
    outer loop
      vertex 6.05875 -13.4113 1.64241e-15
      vertex 6.17125 -13.4025 -1
      vertex 6.05875 -13.4113 -1
    endloop
  endfacet
  facet normal -0.19252 0.981293 0
    outer loop
      vertex 6.29219 -13.3788 -1
      vertex 6.17125 -13.4025 1.64133e-15
      vertex 6.29219 -13.3788 1.63842e-15
    endloop
  endfacet
  facet normal -0.19252 0.981293 0
    outer loop
      vertex 6.17125 -13.4025 1.64133e-15
      vertex 6.29219 -13.3788 -1
      vertex 6.17125 -13.4025 -1
    endloop
  endfacet
  facet normal -0.311066 0.950388 0
    outer loop
      vertex 6.40524 -13.3418 -1
      vertex 6.29219 -13.3788 1.63842e-15
      vertex 6.40524 -13.3418 1.63389e-15
    endloop
  endfacet
  facet normal -0.311066 0.950388 0
    outer loop
      vertex 6.29219 -13.3788 1.63842e-15
      vertex 6.40524 -13.3418 -1
      vertex 6.29219 -13.3788 -1
    endloop
  endfacet
  facet normal -0.421452 0.906851 0
    outer loop
      vertex 6.51625 -13.2902 -1
      vertex 6.40524 -13.3418 1.63389e-15
      vertex 6.51625 -13.2902 1.62758e-15
    endloop
  endfacet
  facet normal -0.421452 0.906851 0
    outer loop
      vertex 6.40524 -13.3418 1.63389e-15
      vertex 6.51625 -13.2902 -1
      vertex 6.40524 -13.3418 -1
    endloop
  endfacet
  facet normal -0.528406 0.848992 0
    outer loop
      vertex 6.6201 -13.2255 -1
      vertex 6.51625 -13.2902 1.62758e-15
      vertex 6.6201 -13.2255 1.61966e-15
    endloop
  endfacet
  facet normal -0.528406 0.848992 0
    outer loop
      vertex 6.51625 -13.2902 1.62758e-15
      vertex 6.6201 -13.2255 -1
      vertex 6.51625 -13.2902 -1
    endloop
  endfacet
  facet normal -0.627139 0.778907 0
    outer loop
      vertex 6.71251 -13.1511 -1
      vertex 6.6201 -13.2255 1.61966e-15
      vertex 6.71251 -13.1511 1.61055e-15
    endloop
  endfacet
  facet normal -0.627139 0.778907 0
    outer loop
      vertex 6.6201 -13.2255 1.61966e-15
      vertex 6.71251 -13.1511 -1
      vertex 6.6201 -13.2255 -1
    endloop
  endfacet
  facet normal -0.715392 0.698723 0
    outer loop
      vertex 6.71251 -13.1511 -1
      vertex 6.79822 -13.0634 1.5998e-15
      vertex 6.79822 -13.0634 -1
    endloop
  endfacet
  facet normal -0.715392 0.698723 0
    outer loop
      vertex 6.79822 -13.0634 1.5998e-15
      vertex 6.71251 -13.1511 -1
      vertex 6.71251 -13.1511 1.61055e-15
    endloop
  endfacet
  facet normal -0.796012 0.605281 0
    outer loop
      vertex 6.79822 -13.0634 -1
      vertex 6.87051 -12.9683 1.58816e-15
      vertex 6.87051 -12.9683 -1
    endloop
  endfacet
  facet normal -0.796012 0.605281 0
    outer loop
      vertex 6.87051 -12.9683 1.58816e-15
      vertex 6.79822 -13.0634 -1
      vertex 6.79822 -13.0634 1.5998e-15
    endloop
  endfacet
  facet normal -0.863828 0.503787 0
    outer loop
      vertex 6.87051 -12.9683 -1
      vertex 6.93303 -12.8611 1.57503e-15
      vertex 6.93303 -12.8611 -1
    endloop
  endfacet
  facet normal -0.863828 0.503787 0
    outer loop
      vertex 6.93303 -12.8611 1.57503e-15
      vertex 6.87051 -12.9683 -1
      vertex 6.87051 -12.9683 1.58816e-15
    endloop
  endfacet
  facet normal -0.921112 0.389297 0
    outer loop
      vertex 6.93303 -12.8611 -1
      vertex 6.98334 -12.7421 1.56045e-15
      vertex 6.98334 -12.7421 -1
    endloop
  endfacet
  facet normal -0.921112 0.389297 0
    outer loop
      vertex 6.98334 -12.7421 1.56045e-15
      vertex 6.93303 -12.8611 -1
      vertex 6.93303 -12.8611 1.57503e-15
    endloop
  endfacet
  facet normal -0.96437 0.264555 0
    outer loop
      vertex 6.98334 -12.7421 -1
      vertex 7.01706 -12.6191 1.5454e-15
      vertex 7.01706 -12.6191 -1
    endloop
  endfacet
  facet normal -0.96437 0.264555 0
    outer loop
      vertex 7.01706 -12.6191 1.5454e-15
      vertex 6.98334 -12.7421 -1
      vertex 6.98334 -12.7421 1.56045e-15
    endloop
  endfacet
  facet normal -0.99059 0.136861 0
    outer loop
      vertex 7.01706 -12.6191 -1
      vertex 7.0354 -12.4864 1.52914e-15
      vertex 7.0354 -12.4864 -1
    endloop
  endfacet
  facet normal -0.99059 0.136861 0
    outer loop
      vertex 7.0354 -12.4864 1.52914e-15
      vertex 7.01706 -12.6191 -1
      vertex 7.01706 -12.6191 1.5454e-15
    endloop
  endfacet
  facet normal -1 0.000108343 0
    outer loop
      vertex 7.0354 -12.4864 -1
      vertex 7.03804 11.8786 -1.45471e-15
      vertex 7.03804 11.8786 -1
    endloop
  endfacet
  facet normal -1 0.000108343 0
    outer loop
      vertex 7.03804 11.8786 -1.45471e-15
      vertex 7.0354 -12.4864 -1
      vertex 7.0354 -12.4864 1.52914e-15
    endloop
  endfacet
  facet normal -0.996755 -0.0804905 0
    outer loop
      vertex 7.03804 11.8786 -1
      vertex 7.02841 11.9978 -1.46931e-15
      vertex 7.02841 11.9978 -1
    endloop
  endfacet
  facet normal -0.996755 -0.0804905 0
    outer loop
      vertex 7.02841 11.9978 -1.46931e-15
      vertex 7.03804 11.8786 -1
      vertex 7.03804 11.8786 -1.45471e-15
    endloop
  endfacet
  facet normal -0.97983 -0.199831 0
    outer loop
      vertex 7.02841 11.9978 -1
      vertex 7.00285 12.1232 -1.48466e-15
      vertex 7.00285 12.1232 -1
    endloop
  endfacet
  facet normal -0.97983 -0.199831 0
    outer loop
      vertex 7.00285 12.1232 -1.48466e-15
      vertex 7.02841 11.9978 -1
      vertex 7.02841 11.9978 -1.46931e-15
    endloop
  endfacet
  facet normal -0.94595 -0.324312 0
    outer loop
      vertex 7.00285 12.1232 -1
      vertex 6.96086 12.2456 -1.49966e-15
      vertex 6.96086 12.2456 -1
    endloop
  endfacet
  facet normal -0.94595 -0.324312 0
    outer loop
      vertex 6.96086 12.2456 -1.49966e-15
      vertex 7.00285 12.1232 -1
      vertex 7.00285 12.1232 -1.48466e-15
    endloop
  endfacet
  facet normal -0.895627 -0.444805 0
    outer loop
      vertex 6.96086 12.2456 -1
      vertex 6.90559 12.3569 -1.51329e-15
      vertex 6.90559 12.3569 -1
    endloop
  endfacet
  facet normal -0.895627 -0.444805 0
    outer loop
      vertex 6.90559 12.3569 -1.51329e-15
      vertex 6.96086 12.2456 -1
      vertex 6.96086 12.2456 -1.49966e-15
    endloop
  endfacet
  facet normal -0.832678 -0.553757 0
    outer loop
      vertex 6.90559 12.3569 -1
      vertex 6.83734 12.4595 -1.52585e-15
      vertex 6.83734 12.4595 -1
    endloop
  endfacet
  facet normal -0.832678 -0.553757 0
    outer loop
      vertex 6.83734 12.4595 -1.52585e-15
      vertex 6.90559 12.3569 -1
      vertex 6.90559 12.3569 -1.51329e-15
    endloop
  endfacet
  facet normal -0.757647 -0.652664 0
    outer loop
      vertex 6.83734 12.4595 -1
      vertex 6.75728 12.5525 -1.53724e-15
      vertex 6.75728 12.5525 -1
    endloop
  endfacet
  facet normal -0.757647 -0.652664 0
    outer loop
      vertex 6.75728 12.5525 -1.53724e-15
      vertex 6.83734 12.4595 -1
      vertex 6.83734 12.4595 -1.52585e-15
    endloop
  endfacet
  facet normal -0.672108 -0.740453 0
    outer loop
      vertex 6.66669 12.6347 -1
      vertex 6.75728 12.5525 -1.53724e-15
      vertex 6.66669 12.6347 -1.54731e-15
    endloop
  endfacet
  facet normal -0.672108 -0.740453 -0
    outer loop
      vertex 6.75728 12.5525 -1.53724e-15
      vertex 6.66669 12.6347 -1
      vertex 6.75728 12.5525 -1
    endloop
  endfacet
  facet normal -0.577456 -0.816422 0
    outer loop
      vertex 6.56993 12.7032 -1
      vertex 6.66669 12.6347 -1.54731e-15
      vertex 6.56993 12.7032 -1.55569e-15
    endloop
  endfacet
  facet normal -0.577456 -0.816422 -0
    outer loop
      vertex 6.66669 12.6347 -1.54731e-15
      vertex 6.56993 12.7032 -1
      vertex 6.66669 12.6347 -1
    endloop
  endfacet
  facet normal -0.477095 -0.878852 0
    outer loop
      vertex 6.46242 12.7615 -1
      vertex 6.56993 12.7032 -1.55569e-15
      vertex 6.46242 12.7615 -1.56284e-15
    endloop
  endfacet
  facet normal -0.477095 -0.878852 -0
    outer loop
      vertex 6.56993 12.7032 -1.55569e-15
      vertex 6.46242 12.7615 -1
      vertex 6.56993 12.7032 -1
    endloop
  endfacet
  facet normal -0.367225 -0.930132 0
    outer loop
      vertex 6.35188 12.8052 -1
      vertex 6.46242 12.7615 -1.56284e-15
      vertex 6.35188 12.8052 -1.56818e-15
    endloop
  endfacet
  facet normal -0.367225 -0.930132 -0
    outer loop
      vertex 6.46242 12.7615 -1.56284e-15
      vertex 6.35188 12.8052 -1
      vertex 6.46242 12.7615 -1
    endloop
  endfacet
  facet normal -0.253602 -0.967309 0
    outer loop
      vertex 6.2328 12.8364 -1
      vertex 6.35188 12.8052 -1.56818e-15
      vertex 6.2328 12.8364 -1.572e-15
    endloop
  endfacet
  facet normal -0.253602 -0.967309 -0
    outer loop
      vertex 6.35188 12.8052 -1.56818e-15
      vertex 6.2328 12.8364 -1
      vertex 6.35188 12.8052 -1
    endloop
  endfacet
  facet normal -0.131655 -0.991296 0
    outer loop
      vertex 6.10999 12.8527 -1
      vertex 6.2328 12.8364 -1.572e-15
      vertex 6.10999 12.8527 -1.574e-15
    endloop
  endfacet
  facet normal -0.131655 -0.991296 -0
    outer loop
      vertex 6.2328 12.8364 -1.572e-15
      vertex 6.10999 12.8527 -1
      vertex 6.2328 12.8364 -1
    endloop
  endfacet
  facet normal -0.000993929 -1 0
    outer loop
      vertex 3.53085 12.8553 -1
      vertex 6.10999 12.8527 -1.574e-15
      vertex 3.53085 12.8553 -1.57431e-15
    endloop
  endfacet
  facet normal -0.000993929 -1 -0
    outer loop
      vertex 6.10999 12.8527 -1.574e-15
      vertex 3.53085 12.8553 -1
      vertex 6.10999 12.8527 -1
    endloop
  endfacet
  facet normal 0.0774824 -0.996994 0
    outer loop
      vertex 3.41835 12.8465 -1
      vertex 3.53085 12.8553 -1.57431e-15
      vertex 3.41835 12.8465 -1.57324e-15
    endloop
  endfacet
  facet normal 0.0774824 -0.996994 0
    outer loop
      vertex 3.53085 12.8553 -1.57431e-15
      vertex 3.41835 12.8465 -1
      vertex 3.53085 12.8553 -1
    endloop
  endfacet
  facet normal -0 0 1
    outer loop
      vertex -16.5 7.15 13.3
      vertex -15.5 -7.15 13.3
      vertex -15.5 7.15 13.3
    endloop
  endfacet
  facet normal 0 0 1
    outer loop
      vertex -15.5 -7.15 13.3
      vertex -16.5 7.15 13.3
      vertex -16.5 -7.15 13.3
    endloop
  endfacet
  facet normal 0 1 -0
    outer loop
      vertex -15.5 -7.15 13.3
      vertex -16.5 -7.15 15
      vertex -15.5 -7.15 15
    endloop
  endfacet
  facet normal 0 1 0
    outer loop
      vertex -16.5 -7.15 15
      vertex -15.5 -7.15 13.3
      vertex -16.5 -7.15 13.3
    endloop
  endfacet
  facet normal 0 -1 0
    outer loop
      vertex -16.5 7.15 13.3
      vertex -15.5 7.15 15
      vertex -16.5 7.15 15
    endloop
  endfacet
  facet normal 0 -1 -0
    outer loop
      vertex -15.5 7.15 15
      vertex -16.5 7.15 13.3
      vertex -15.5 7.15 13.3
    endloop
  endfacet
  facet normal -0 0 1
    outer loop
      vertex 15.5 7.15 13.3
      vertex 16.5 -7.15 13.3
      vertex 16.5 7.15 13.3
    endloop
  endfacet
  facet normal 0 0 1
    outer loop
      vertex 16.5 -7.15 13.3
      vertex 15.5 7.15 13.3
      vertex 15.5 -7.15 13.3
    endloop
  endfacet
  facet normal 0 1 -0
    outer loop
      vertex 16.5 -7.15 13.3
      vertex 15.5 -7.15 15
      vertex 16.5 -7.15 15
    endloop
  endfacet
  facet normal 0 1 0
    outer loop
      vertex 15.5 -7.15 15
      vertex 16.5 -7.15 13.3
      vertex 15.5 -7.15 13.3
    endloop
  endfacet
  facet normal 0 -1 0
    outer loop
      vertex 15.5 7.15 13.3
      vertex 16.5 7.15 15
      vertex 15.5 7.15 15
    endloop
  endfacet
  facet normal 0 -1 -0
    outer loop
      vertex 16.5 7.15 15
      vertex 15.5 7.15 13.3
      vertex 16.5 7.15 13.3
    endloop
  endfacet
  facet normal 1 -0 0
    outer loop
      vertex -7.15 -16.5 15
      vertex -7.15 -15.5 13.3
      vertex -7.15 -15.5 15
    endloop
  endfacet
  facet normal 1 0 0
    outer loop
      vertex -7.15 -15.5 13.3
      vertex -7.15 -16.5 15
      vertex -7.15 -16.5 13.3
    endloop
  endfacet
  facet normal -0 0 1
    outer loop
      vertex -7.15 -15.5 13.3
      vertex 7.15 -16.5 13.3
      vertex 7.15 -15.5 13.3
    endloop
  endfacet
  facet normal 0 0 1
    outer loop
      vertex 7.15 -16.5 13.3
      vertex -7.15 -15.5 13.3
      vertex -7.15 -16.5 13.3
    endloop
  endfacet
  facet normal -1 0 0
    outer loop
      vertex 7.15 -16.5 13.3
      vertex 7.15 -15.5 15
      vertex 7.15 -15.5 13.3
    endloop
  endfacet
  facet normal -1 -0 0
    outer loop
      vertex 7.15 -15.5 15
      vertex 7.15 -16.5 13.3
      vertex 7.15 -16.5 15
    endloop
  endfacet
  facet normal 1 -0 0
    outer loop
      vertex -7.15 15.5 15
      vertex -7.15 16.5 13.3
      vertex -7.15 16.5 15
    endloop
  endfacet
  facet normal 1 0 0
    outer loop
      vertex -7.15 16.5 13.3
      vertex -7.15 15.5 15
      vertex -7.15 15.5 13.3
    endloop
  endfacet
  facet normal -0 0 1
    outer loop
      vertex -7.15 16.5 13.3
      vertex 7.15 15.5 13.3
      vertex 7.15 16.5 13.3
    endloop
  endfacet
  facet normal 0 0 1
    outer loop
      vertex 7.15 15.5 13.3
      vertex -7.15 16.5 13.3
      vertex -7.15 15.5 13.3
    endloop
  endfacet
  facet normal -1 0 0
    outer loop
      vertex 7.15 15.5 13.3
      vertex 7.15 16.5 15
      vertex 7.15 16.5 13.3
    endloop
  endfacet
  facet normal -1 -0 0
    outer loop
      vertex 7.15 16.5 15
      vertex 7.15 15.5 13.3
      vertex 7.15 15.5 15
    endloop
  endfacet
endsolid OpenSCAD_Model
