solid OpenSCAD_Model
  facet normal -1 0 0
    outer loop
      vertex -14 -14 0.5
      vertex -14 14 1.5
      vertex -14 14 0.5
    endloop
  endfacet
  facet normal -1 -0 0
    outer loop
      vertex -14 14 1.5
      vertex -14 -14 0.5
      vertex -14 -14 1.5
    endloop
  endfacet
  facet normal 0 0 1
    outer loop
      vertex 14 14 1.5
      vertex 2.00978 -11.8856 1.5
      vertex 14 -14 1.5
    endloop
  endfacet
  facet normal 0 0 1
    outer loop
      vertex 14 14 1.5
      vertex 2.00903 12.4455 1.5
      vertex 2.00978 -11.8856 1.5
    endloop
  endfacet
  facet normal 0 0 1
    outer loop
      vertex 14 14 1.5
      vertex 1.9982 12.5375 1.5
      vertex 2.00903 12.4455 1.5
    endloop
  endfacet
  facet normal 0 0 1
    outer loop
      vertex 14 14 1.5
      vertex 1.97614 12.6245 1.5
      vertex 1.9982 12.5375 1.5
    endloop
  endfacet
  facet normal 0 0 1
    outer loop
      vertex 14 14 1.5
      vertex 1.9437 12.7061 1.5
      vertex 1.97614 12.6245 1.5
    endloop
  endfacet
  facet normal 0 0 1
    outer loop
      vertex 14 14 1.5
      vertex 1.90178 12.7816 1.5
      vertex 1.9437 12.7061 1.5
    endloop
  endfacet
  facet normal 0 0 1
    outer loop
      vertex 14 14 1.5
      vertex 1.85126 12.8506 1.5
      vertex 1.90178 12.7816 1.5
    endloop
  endfacet
  facet normal 0 0 1
    outer loop
      vertex 14 14 1.5
      vertex 1.793 12.9125 1.5
      vertex 1.85126 12.8506 1.5
    endloop
  endfacet
  facet normal 0 0 1
    outer loop
      vertex 14 14 1.5
      vertex 1.72791 12.9666 1.5
      vertex 1.793 12.9125 1.5
    endloop
  endfacet
  facet normal 0 0 1
    outer loop
      vertex 14 14 1.5
      vertex 1.65685 13.0126 1.5
      vertex 1.72791 12.9666 1.5
    endloop
  endfacet
  facet normal 0 0 1
    outer loop
      vertex 14 14 1.5
      vertex 1.58069 13.0498 1.5
      vertex 1.65685 13.0126 1.5
    endloop
  endfacet
  facet normal 0 0 1
    outer loop
      vertex 14 14 1.5
      vertex 1.50032 13.0777 1.5
      vertex 1.58069 13.0498 1.5
    endloop
  endfacet
  facet normal 0 0 1
    outer loop
      vertex 14 14 1.5
      vertex 1.41663 13.0957 1.5
      vertex 1.50032 13.0777 1.5
    endloop
  endfacet
  facet normal 0 0 1
    outer loop
      vertex 14 14 1.5
      vertex 1.33047 13.1033 1.5
      vertex 1.41663 13.0957 1.5
    endloop
  endfacet
  facet normal 0 0 1
    outer loop
      vertex 14 14 1.5
      vertex -1.2148 13.1026 1.5
      vertex 1.33047 13.1033 1.5
    endloop
  endfacet
  facet normal 0 0 1
    outer loop
      vertex -1.86824 12.5195 1.5
      vertex -14 14 1.5
      vertex -1.87671 12.4266 1.5
    endloop
  endfacet
  facet normal 0 0 1
    outer loop
      vertex -1.84834 12.6076 1.5
      vertex -14 14 1.5
      vertex -1.86824 12.5195 1.5
    endloop
  endfacet
  facet normal 0 0 1
    outer loop
      vertex -1.8179 12.6903 1.5
      vertex -14 14 1.5
      vertex -1.84834 12.6076 1.5
    endloop
  endfacet
  facet normal 0 0 1
    outer loop
      vertex -1.77782 12.767 1.5
      vertex -14 14 1.5
      vertex -1.8179 12.6903 1.5
    endloop
  endfacet
  facet normal 0 0 1
    outer loop
      vertex -1.72894 12.8374 1.5
      vertex -14 14 1.5
      vertex -1.77782 12.767 1.5
    endloop
  endfacet
  facet normal 0 0 1
    outer loop
      vertex -1.67216 12.9007 1.5
      vertex -14 14 1.5
      vertex -1.72894 12.8374 1.5
    endloop
  endfacet
  facet normal 0 0 1
    outer loop
      vertex -1.60837 12.9565 1.5
      vertex -14 14 1.5
      vertex -1.67216 12.9007 1.5
    endloop
  endfacet
  facet normal 0 0 1
    outer loop
      vertex -1.53842 13.0041 1.5
      vertex -14 14 1.5
      vertex -1.60837 12.9565 1.5
    endloop
  endfacet
  facet normal 0 0 1
    outer loop
      vertex -1.46321 13.0431 1.5
      vertex -14 14 1.5
      vertex -1.53842 13.0041 1.5
    endloop
  endfacet
  facet normal 0 0 1
    outer loop
      vertex -1.38362 13.0729 1.5
      vertex -14 14 1.5
      vertex -1.46321 13.0431 1.5
    endloop
  endfacet
  facet normal 0 0 1
    outer loop
      vertex -1.30052 13.0929 1.5
      vertex -14 14 1.5
      vertex -1.38362 13.0729 1.5
    endloop
  endfacet
  facet normal 0 0 1
    outer loop
      vertex -1.2148 13.1026 1.5
      vertex -14 14 1.5
      vertex -1.30052 13.0929 1.5
    endloop
  endfacet
  facet normal -0 0 1
    outer loop
      vertex -14 14 1.5
      vertex -1.2148 13.1026 1.5
      vertex 14 14 1.5
    endloop
  endfacet
  facet normal -0 0 1
    outer loop
      vertex 2.0013 -11.9785 1.5
      vertex 14 -14 1.5
      vertex 2.00978 -11.8856 1.5
    endloop
  endfacet
  facet normal -0 0 1
    outer loop
      vertex 1.9814 -12.0666 1.5
      vertex 14 -14 1.5
      vertex 2.0013 -11.9785 1.5
    endloop
  endfacet
  facet normal -0 0 1
    outer loop
      vertex 1.95097 -12.1493 1.5
      vertex 14 -14 1.5
      vertex 1.9814 -12.0666 1.5
    endloop
  endfacet
  facet normal -0 0 1
    outer loop
      vertex 1.91087 -12.226 1.5
      vertex 14 -14 1.5
      vertex 1.95097 -12.1493 1.5
    endloop
  endfacet
  facet normal -0 0 1
    outer loop
      vertex 1.862 -12.2964 1.5
      vertex 14 -14 1.5
      vertex 1.91087 -12.226 1.5
    endloop
  endfacet
  facet normal -0 0 1
    outer loop
      vertex 1.80522 -12.3597 1.5
      vertex 14 -14 1.5
      vertex 1.862 -12.2964 1.5
    endloop
  endfacet
  facet normal -0 0 1
    outer loop
      vertex 1.74142 -12.4155 1.5
      vertex 14 -14 1.5
      vertex 1.80522 -12.3597 1.5
    endloop
  endfacet
  facet normal -0 0 1
    outer loop
      vertex 1.67149 -12.4631 1.5
      vertex 14 -14 1.5
      vertex 1.74142 -12.4155 1.5
    endloop
  endfacet
  facet normal -0 0 1
    outer loop
      vertex 1.59628 -12.5021 1.5
      vertex 14 -14 1.5
      vertex 1.67149 -12.4631 1.5
    endloop
  endfacet
  facet normal -0 0 1
    outer loop
      vertex 1.51669 -12.5319 1.5
      vertex 14 -14 1.5
      vertex 1.59628 -12.5021 1.5
    endloop
  endfacet
  facet normal -0 0 1
    outer loop
      vertex 1.43358 -12.5519 1.5
      vertex 14 -14 1.5
      vertex 1.51669 -12.5319 1.5
    endloop
  endfacet
  facet normal -0 0 1
    outer loop
      vertex 1.34785 -12.5616 1.5
      vertex 14 -14 1.5
      vertex 1.43358 -12.5519 1.5
    endloop
  endfacet
  facet normal -0 0 1
    outer loop
      vertex -1.2148 -12.5616 1.5
      vertex 14 -14 1.5
      vertex 1.34785 -12.5616 1.5
    endloop
  endfacet
  facet normal 0 0 1
    outer loop
      vertex -14 14 1.5
      vertex -1.87598 -11.9045 1.5
      vertex -1.87671 12.4266 1.5
    endloop
  endfacet
  facet normal 0 0 1
    outer loop
      vertex -14 -14 1.5
      vertex -1.87598 -11.9045 1.5
      vertex -14 14 1.5
    endloop
  endfacet
  facet normal 0 0 1
    outer loop
      vertex -1.87598 -11.9045 1.5
      vertex -14 -14 1.5
      vertex -1.86514 -11.9965 1.5
    endloop
  endfacet
  facet normal 0 0 1
    outer loop
      vertex -1.86514 -11.9965 1.5
      vertex -14 -14 1.5
      vertex -1.84306 -12.0835 1.5
    endloop
  endfacet
  facet normal 0 0 1
    outer loop
      vertex -1.2148 -12.5616 1.5
      vertex -14 -14 1.5
      vertex 14 -14 1.5
    endloop
  endfacet
  facet normal 0 0 1
    outer loop
      vertex -1.28355 -12.5547 1.5
      vertex -14 -14 1.5
      vertex -1.2148 -12.5616 1.5
    endloop
  endfacet
  facet normal 0 0 1
    outer loop
      vertex -1.36725 -12.5367 1.5
      vertex -14 -14 1.5
      vertex -1.28355 -12.5547 1.5
    endloop
  endfacet
  facet normal 0 0 1
    outer loop
      vertex -1.44762 -12.5088 1.5
      vertex -14 -14 1.5
      vertex -1.36725 -12.5367 1.5
    endloop
  endfacet
  facet normal 0 0 1
    outer loop
      vertex -1.52377 -12.4716 1.5
      vertex -14 -14 1.5
      vertex -1.44762 -12.5088 1.5
    endloop
  endfacet
  facet normal 0 0 1
    outer loop
      vertex -1.59485 -12.4256 1.5
      vertex -14 -14 1.5
      vertex -1.52377 -12.4716 1.5
    endloop
  endfacet
  facet normal 0 0 1
    outer loop
      vertex -1.65994 -12.3715 1.5
      vertex -14 -14 1.5
      vertex -1.59485 -12.4256 1.5
    endloop
  endfacet
  facet normal 0 0 1
    outer loop
      vertex -1.71819 -12.3096 1.5
      vertex -14 -14 1.5
      vertex -1.65994 -12.3715 1.5
    endloop
  endfacet
  facet normal 0 0 1
    outer loop
      vertex -1.76871 -12.2406 1.5
      vertex -14 -14 1.5
      vertex -1.71819 -12.3096 1.5
    endloop
  endfacet
  facet normal 0 0 1
    outer loop
      vertex -1.81064 -12.1651 1.5
      vertex -14 -14 1.5
      vertex -1.76871 -12.2406 1.5
    endloop
  endfacet
  facet normal 0 0 1
    outer loop
      vertex -1.84306 -12.0835 1.5
      vertex -14 -14 1.5
      vertex -1.81064 -12.1651 1.5
    endloop
  endfacet
  facet normal 1 -0 0
    outer loop
      vertex 14 -14 1.5
      vertex 14 14 0.5
      vertex 14 14 1.5
    endloop
  endfacet
  facet normal 1 0 0
    outer loop
      vertex 14 14 0.5
      vertex 14 -14 1.5
      vertex 14 -14 0.5
    endloop
  endfacet
  facet normal 0 0 -1
    outer loop
      vertex -14 -14 0.5
      vertex 14 14 0.5
      vertex 14 -14 0.5
    endloop
  endfacet
  facet normal -0 0 -1
    outer loop
      vertex 14 14 0.5
      vertex -14 -14 0.5
      vertex -14 14 0.5
    endloop
  endfacet
  facet normal 0 -1 0
    outer loop
      vertex -14 -14 0.5
      vertex 14 -14 1.5
      vertex -14 -14 1.5
    endloop
  endfacet
  facet normal 0 -1 -0
    outer loop
      vertex 14 -14 1.5
      vertex -14 -14 0.5
      vertex 14 -14 0.5
    endloop
  endfacet
  facet normal 0 1 -0
    outer loop
      vertex 14 14 0.5
      vertex -14 14 1.5
      vertex 14 14 1.5
    endloop
  endfacet
  facet normal 0 1 0
    outer loop
      vertex -14 14 1.5
      vertex 14 14 0.5
      vertex -14 14 0.5
    endloop
  endfacet
  facet normal 0.112664 -0.993633 0
    outer loop
      vertex 1.34785 -12.5616 1.5
      vertex 1.43358 -12.5519 3
      vertex 1.34785 -12.5616 3
    endloop
  endfacet
  facet normal 0.112664 -0.993633 0
    outer loop
      vertex 1.43358 -12.5519 3
      vertex 1.34785 -12.5616 1.5
      vertex 1.43358 -12.5519 1.5
    endloop
  endfacet
  facet normal 0.234338 -0.972155 0
    outer loop
      vertex 1.43358 -12.5519 1.5
      vertex 1.51669 -12.5319 3
      vertex 1.43358 -12.5519 3
    endloop
  endfacet
  facet normal 0.234338 -0.972155 0
    outer loop
      vertex 1.51669 -12.5319 3
      vertex 1.43358 -12.5519 1.5
      vertex 1.51669 -12.5319 1.5
    endloop
  endfacet
  facet normal 1 3.07294e-05 0
    outer loop
      vertex 2.00978 -11.8856 3
      vertex 2.00903 12.4455 1.5
      vertex 2.00903 12.4455 3
    endloop
  endfacet
  facet normal 1 3.07294e-05 0
    outer loop
      vertex 2.00903 12.4455 1.5
      vertex 2.00978 -11.8856 3
      vertex 2.00978 -11.8856 1.5
    endloop
  endfacet
  facet normal -1 -3.01022e-05 0
    outer loop
      vertex -1.87598 -11.9045 1.5
      vertex -1.87671 12.4266 3
      vertex -1.87671 12.4266 1.5
    endloop
  endfacet
  facet normal -1 -3.01022e-05 0
    outer loop
      vertex -1.87671 12.4266 3
      vertex -1.87598 -11.9045 1.5
      vertex -1.87598 -11.9045 3
    endloop
  endfacet
  facet normal -0.112664 0.993633 0
    outer loop
      vertex -1.2148 13.1026 1.5
      vertex -1.30052 13.0929 3
      vertex -1.2148 13.1026 3
    endloop
  endfacet
  facet normal -0.112664 0.993633 0
    outer loop
      vertex -1.30052 13.0929 3
      vertex -1.2148 13.1026 1.5
      vertex -1.30052 13.0929 1.5
    endloop
  endfacet
  facet normal -0.100466 -0.994941 0
    outer loop
      vertex -1.28355 -12.5547 1.5
      vertex -1.2148 -12.5616 3
      vertex -1.28355 -12.5547 3
    endloop
  endfacet
  facet normal -0.100466 -0.994941 -0
    outer loop
      vertex -1.2148 -12.5616 3
      vertex -1.28355 -12.5547 1.5
      vertex -1.2148 -12.5616 1.5
    endloop
  endfacet
  facet normal 0 -1 0
    outer loop
      vertex -1.2148 -12.5616 1.5
      vertex 1.34785 -12.5616 3
      vertex -1.2148 -12.5616 3
    endloop
  endfacet
  facet normal 0 -1 -0
    outer loop
      vertex 1.34785 -12.5616 3
      vertex -1.2148 -12.5616 1.5
      vertex 1.34785 -12.5616 1.5
    endloop
  endfacet
  facet normal -0.727984 -0.685594 0
    outer loop
      vertex -1.65994 -12.3715 1.5
      vertex -1.71819 -12.3096 3
      vertex -1.71819 -12.3096 1.5
    endloop
  endfacet
  facet normal -0.727984 -0.685594 0
    outer loop
      vertex -1.71819 -12.3096 3
      vertex -1.65994 -12.3715 1.5
      vertex -1.65994 -12.3715 3
    endloop
  endfacet
  facet normal -0.995869 0.0908013 0
    outer loop
      vertex -1.87671 12.4266 1.5
      vertex -1.86824 12.5195 3
      vertex -1.86824 12.5195 1.5
    endloop
  endfacet
  facet normal -0.995869 0.0908013 0
    outer loop
      vertex -1.86824 12.5195 3
      vertex -1.87671 12.4266 1.5
      vertex -1.87671 12.4266 3
    endloop
  endfacet
  facet normal 0 0 1
    outer loop
      vertex -1.87598 -11.9045 3
      vertex 2.00978 -11.8856 3
      vertex 2.00903 12.4455 3
    endloop
  endfacet
  facet normal 0 0 1
    outer loop
      vertex 1.33047 13.1033 3
      vertex 2.00903 12.4455 3
      vertex 1.9982 12.5375 3
    endloop
  endfacet
  facet normal 0 -0 1
    outer loop
      vertex 1.34785 -12.5616 3
      vertex 2.00978 -11.8856 3
      vertex -1.87598 -11.9045 3
    endloop
  endfacet
  facet normal 0 0 1
    outer loop
      vertex 1.33047 13.1033 3
      vertex 1.9982 12.5375 3
      vertex 1.97614 12.6245 3
    endloop
  endfacet
  facet normal 0 0 1
    outer loop
      vertex 2.00978 -11.8856 3
      vertex 1.34785 -12.5616 3
      vertex 2.0013 -11.9785 3
    endloop
  endfacet
  facet normal 0 0 1
    outer loop
      vertex 1.33047 13.1033 3
      vertex 1.97614 12.6245 3
      vertex 1.9437 12.7061 3
    endloop
  endfacet
  facet normal 0 0 1
    outer loop
      vertex 2.0013 -11.9785 3
      vertex 1.34785 -12.5616 3
      vertex 1.9814 -12.0666 3
    endloop
  endfacet
  facet normal 0 0 1
    outer loop
      vertex 1.33047 13.1033 3
      vertex 1.9437 12.7061 3
      vertex 1.90178 12.7816 3
    endloop
  endfacet
  facet normal 0 0 1
    outer loop
      vertex 2.00903 12.4455 3
      vertex -1.87671 12.4266 3
      vertex -1.87598 -11.9045 3
    endloop
  endfacet
  facet normal 0 0 1
    outer loop
      vertex 1.33047 13.1033 3
      vertex 1.90178 12.7816 3
      vertex 1.85126 12.8506 3
    endloop
  endfacet
  facet normal 0 0 1
    outer loop
      vertex 1.9814 -12.0666 3
      vertex 1.34785 -12.5616 3
      vertex 1.95097 -12.1493 3
    endloop
  endfacet
  facet normal 0 0 1
    outer loop
      vertex 1.33047 13.1033 3
      vertex 1.85126 12.8506 3
      vertex 1.793 12.9125 3
    endloop
  endfacet
  facet normal 0 0 1
    outer loop
      vertex 1.95097 -12.1493 3
      vertex 1.34785 -12.5616 3
      vertex 1.91087 -12.226 3
    endloop
  endfacet
  facet normal 0 0 1
    outer loop
      vertex 1.33047 13.1033 3
      vertex 1.793 12.9125 3
      vertex 1.72791 12.9666 3
    endloop
  endfacet
  facet normal 0 0 1
    outer loop
      vertex 1.91087 -12.226 3
      vertex 1.34785 -12.5616 3
      vertex 1.862 -12.2964 3
    endloop
  endfacet
  facet normal 0 0 1
    outer loop
      vertex 1.33047 13.1033 3
      vertex 1.72791 12.9666 3
      vertex 1.65685 13.0126 3
    endloop
  endfacet
  facet normal 0 0 1
    outer loop
      vertex 1.862 -12.2964 3
      vertex 1.34785 -12.5616 3
      vertex 1.80522 -12.3597 3
    endloop
  endfacet
  facet normal 0 0 1
    outer loop
      vertex 1.33047 13.1033 3
      vertex 1.65685 13.0126 3
      vertex 1.58069 13.0498 3
    endloop
  endfacet
  facet normal 0 0 1
    outer loop
      vertex 1.80522 -12.3597 3
      vertex 1.34785 -12.5616 3
      vertex 1.74142 -12.4155 3
    endloop
  endfacet
  facet normal 0 0 1
    outer loop
      vertex 1.33047 13.1033 3
      vertex 1.58069 13.0498 3
      vertex 1.50032 13.0777 3
    endloop
  endfacet
  facet normal 0 0 1
    outer loop
      vertex 1.74142 -12.4155 3
      vertex 1.34785 -12.5616 3
      vertex 1.67149 -12.4631 3
    endloop
  endfacet
  facet normal 0 0 1
    outer loop
      vertex 1.33047 13.1033 3
      vertex 1.50032 13.0777 3
      vertex 1.41663 13.0957 3
    endloop
  endfacet
  facet normal 0 0 1
    outer loop
      vertex 1.67149 -12.4631 3
      vertex 1.34785 -12.5616 3
      vertex 1.59628 -12.5021 3
    endloop
  endfacet
  facet normal 0 0 1
    outer loop
      vertex 2.00903 12.4455 3
      vertex 1.33047 13.1033 3
      vertex -1.87671 12.4266 3
    endloop
  endfacet
  facet normal 0 0 1
    outer loop
      vertex -1.87671 12.4266 3
      vertex 1.33047 13.1033 3
      vertex -1.2148 13.1026 3
    endloop
  endfacet
  facet normal 0 0 1
    outer loop
      vertex 1.59628 -12.5021 3
      vertex 1.34785 -12.5616 3
      vertex 1.51669 -12.5319 3
    endloop
  endfacet
  facet normal 0 0 1
    outer loop
      vertex 1.51669 -12.5319 3
      vertex 1.34785 -12.5616 3
      vertex 1.43358 -12.5519 3
    endloop
  endfacet
  facet normal 0 0 1
    outer loop
      vertex -1.87671 12.4266 3
      vertex -1.2148 13.1026 3
      vertex -1.30052 13.0929 3
    endloop
  endfacet
  facet normal 0 0 1
    outer loop
      vertex 1.34785 -12.5616 3
      vertex -1.87598 -11.9045 3
      vertex -1.2148 -12.5616 3
    endloop
  endfacet
  facet normal 0 0 1
    outer loop
      vertex -1.87671 12.4266 3
      vertex -1.30052 13.0929 3
      vertex -1.38362 13.0729 3
    endloop
  endfacet
  facet normal 0 0 1
    outer loop
      vertex -1.2148 -12.5616 3
      vertex -1.87598 -11.9045 3
      vertex -1.28355 -12.5547 3
    endloop
  endfacet
  facet normal 0 0 1
    outer loop
      vertex -1.87671 12.4266 3
      vertex -1.38362 13.0729 3
      vertex -1.46321 13.0431 3
    endloop
  endfacet
  facet normal 0 0 1
    outer loop
      vertex -1.28355 -12.5547 3
      vertex -1.87598 -11.9045 3
      vertex -1.36725 -12.5367 3
    endloop
  endfacet
  facet normal 0 0 1
    outer loop
      vertex -1.87671 12.4266 3
      vertex -1.46321 13.0431 3
      vertex -1.53842 13.0041 3
    endloop
  endfacet
  facet normal 0 0 1
    outer loop
      vertex -1.36725 -12.5367 3
      vertex -1.87598 -11.9045 3
      vertex -1.44762 -12.5088 3
    endloop
  endfacet
  facet normal 0 0 1
    outer loop
      vertex -1.87671 12.4266 3
      vertex -1.53842 13.0041 3
      vertex -1.60837 12.9565 3
    endloop
  endfacet
  facet normal 0 0 1
    outer loop
      vertex -1.44762 -12.5088 3
      vertex -1.87598 -11.9045 3
      vertex -1.52377 -12.4716 3
    endloop
  endfacet
  facet normal 0 0 1
    outer loop
      vertex -1.87671 12.4266 3
      vertex -1.60837 12.9565 3
      vertex -1.67216 12.9007 3
    endloop
  endfacet
  facet normal 0 0 1
    outer loop
      vertex -1.52377 -12.4716 3
      vertex -1.87598 -11.9045 3
      vertex -1.59485 -12.4256 3
    endloop
  endfacet
  facet normal 0 0 1
    outer loop
      vertex -1.87671 12.4266 3
      vertex -1.67216 12.9007 3
      vertex -1.72894 12.8374 3
    endloop
  endfacet
  facet normal 0 0 1
    outer loop
      vertex -1.59485 -12.4256 3
      vertex -1.87598 -11.9045 3
      vertex -1.65994 -12.3715 3
    endloop
  endfacet
  facet normal 0 0 1
    outer loop
      vertex -1.87671 12.4266 3
      vertex -1.72894 12.8374 3
      vertex -1.77782 12.767 3
    endloop
  endfacet
  facet normal 0 0 1
    outer loop
      vertex -1.65994 -12.3715 3
      vertex -1.87598 -11.9045 3
      vertex -1.71819 -12.3096 3
    endloop
  endfacet
  facet normal 0 0 1
    outer loop
      vertex -1.87671 12.4266 3
      vertex -1.77782 12.767 3
      vertex -1.8179 12.6903 3
    endloop
  endfacet
  facet normal 0 0 1
    outer loop
      vertex -1.71819 -12.3096 3
      vertex -1.87598 -11.9045 3
      vertex -1.76871 -12.2406 3
    endloop
  endfacet
  facet normal 0 0 1
    outer loop
      vertex -1.87671 12.4266 3
      vertex -1.8179 12.6903 3
      vertex -1.84834 12.6076 3
    endloop
  endfacet
  facet normal 0 0 1
    outer loop
      vertex -1.76871 -12.2406 3
      vertex -1.87598 -11.9045 3
      vertex -1.81064 -12.1651 3
    endloop
  endfacet
  facet normal 0 0 1
    outer loop
      vertex -1.87671 12.4266 3
      vertex -1.84834 12.6076 3
      vertex -1.86824 12.5195 3
    endloop
  endfacet
  facet normal 0 0 1
    outer loop
      vertex -1.81064 -12.1651 3
      vertex -1.87598 -11.9045 3
      vertex -1.84306 -12.0835 3
    endloop
  endfacet
  facet normal 0 0 1
    outer loop
      vertex -1.84306 -12.0835 3
      vertex -1.87598 -11.9045 3
      vertex -1.86514 -11.9965 3
    endloop
  endfacet
  facet normal 0.0878629 0.996133 -0
    outer loop
      vertex 1.41663 13.0957 1.5
      vertex 1.33047 13.1033 3
      vertex 1.41663 13.0957 3
    endloop
  endfacet
  facet normal 0.0878629 0.996133 0
    outer loop
      vertex 1.33047 13.1033 3
      vertex 1.41663 13.0957 1.5
      vertex 1.33047 13.1033 1.5
    endloop
  endfacet
  facet normal -0.000257783 1 0
    outer loop
      vertex 1.33047 13.1033 1.5
      vertex -1.2148 13.1026 3
      vertex 1.33047 13.1033 3
    endloop
  endfacet
  facet normal -0.000257783 1 0
    outer loop
      vertex -1.2148 13.1026 3
      vertex 1.33047 13.1033 1.5
      vertex -1.2148 13.1026 1.5
    endloop
  endfacet
  facet normal 0.995854 -0.0909635 0
    outer loop
      vertex 2.0013 -11.9785 3
      vertex 2.00978 -11.8856 1.5
      vertex 2.00978 -11.8856 3
    endloop
  endfacet
  facet normal 0.995854 -0.0909635 0
    outer loop
      vertex 2.00978 -11.8856 1.5
      vertex 2.0013 -11.9785 3
      vertex 2.0013 -11.9785 1.5
    endloop
  endfacet
  facet normal 0.744542 -0.667576 0
    outer loop
      vertex 1.80522 -12.3597 3
      vertex 1.862 -12.2964 1.5
      vertex 1.862 -12.2964 3
    endloop
  endfacet
  facet normal 0.744542 -0.667576 0
    outer loop
      vertex 1.862 -12.2964 1.5
      vertex 1.80522 -12.3597 3
      vertex 1.80522 -12.3597 1.5
    endloop
  endfacet
  facet normal -0.929254 -0.369441 0
    outer loop
      vertex -1.81064 -12.1651 1.5
      vertex -1.84306 -12.0835 3
      vertex -1.84306 -12.0835 1.5
    endloop
  endfacet
  facet normal -0.929254 -0.369441 0
    outer loop
      vertex -1.84306 -12.0835 3
      vertex -1.81064 -12.1651 1.5
      vertex -1.81064 -12.1651 3
    endloop
  endfacet
  facet normal -0.806717 -0.590938 0
    outer loop
      vertex -1.71819 -12.3096 1.5
      vertex -1.76871 -12.2406 3
      vertex -1.76871 -12.2406 1.5
    endloop
  endfacet
  facet normal -0.806717 -0.590938 0
    outer loop
      vertex -1.76871 -12.2406 3
      vertex -1.71819 -12.3096 1.5
      vertex -1.71819 -12.3096 3
    endloop
  endfacet
  facet normal -0.21032 -0.977633 0
    outer loop
      vertex -1.36725 -12.5367 1.5
      vertex -1.28355 -12.5547 3
      vertex -1.36725 -12.5367 3
    endloop
  endfacet
  facet normal -0.21032 -0.977633 -0
    outer loop
      vertex -1.28355 -12.5547 3
      vertex -1.36725 -12.5367 1.5
      vertex -1.28355 -12.5547 1.5
    endloop
  endfacet
  facet normal -0.744542 0.667576 0
    outer loop
      vertex -1.72894 12.8374 1.5
      vertex -1.67216 12.9007 3
      vertex -1.67216 12.9007 1.5
    endloop
  endfacet
  facet normal -0.744542 0.667576 0
    outer loop
      vertex -1.67216 12.9007 3
      vertex -1.72894 12.8374 1.5
      vertex -1.72894 12.8374 3
    endloop
  endfacet
  facet normal 0.21032 0.977633 -0
    outer loop
      vertex 1.50032 13.0777 1.5
      vertex 1.41663 13.0957 3
      vertex 1.50032 13.0777 3
    endloop
  endfacet
  facet normal 0.21032 0.977633 0
    outer loop
      vertex 1.41663 13.0957 3
      vertex 1.50032 13.0777 1.5
      vertex 1.41663 13.0957 1.5
    endloop
  endfacet
  facet normal 0.350336 -0.936624 0
    outer loop
      vertex 1.51669 -12.5319 1.5
      vertex 1.59628 -12.5021 3
      vertex 1.51669 -12.5319 3
    endloop
  endfacet
  facet normal 0.350336 -0.936624 0
    outer loop
      vertex 1.59628 -12.5021 3
      vertex 1.51669 -12.5319 1.5
      vertex 1.59628 -12.5021 1.5
    endloop
  endfacet
  facet normal -0.874349 -0.485298 0
    outer loop
      vertex -1.76871 -12.2406 1.5
      vertex -1.81064 -12.1651 3
      vertex -1.81064 -12.1651 1.5
    endloop
  endfacet
  facet normal -0.874349 -0.485298 0
    outer loop
      vertex -1.81064 -12.1651 3
      vertex -1.76871 -12.2406 1.5
      vertex -1.76871 -12.2406 3
    endloop
  endfacet
  facet normal -0.969297 -0.245893 0
    outer loop
      vertex -1.84306 -12.0835 1.5
      vertex -1.86514 -11.9965 3
      vertex -1.86514 -11.9965 1.5
    endloop
  endfacet
  facet normal -0.969297 -0.245893 0
    outer loop
      vertex -1.86514 -11.9965 3
      vertex -1.84306 -12.0835 1.5
      vertex -1.84306 -12.0835 3
    endloop
  endfacet
  facet normal -0.993133 -0.116994 0
    outer loop
      vertex -1.86514 -11.9965 1.5
      vertex -1.87598 -11.9045 3
      vertex -1.87598 -11.9045 1.5
    endloop
  endfacet
  facet normal -0.993133 -0.116994 0
    outer loop
      vertex -1.87598 -11.9045 3
      vertex -1.86514 -11.9965 1.5
      vertex -1.86514 -11.9965 3
    endloop
  endfacet
  facet normal -0.542997 -0.839735 0
    outer loop
      vertex -1.59485 -12.4256 1.5
      vertex -1.52377 -12.4716 3
      vertex -1.59485 -12.4256 3
    endloop
  endfacet
  facet normal -0.542997 -0.839735 -0
    outer loop
      vertex -1.52377 -12.4716 3
      vertex -1.59485 -12.4256 1.5
      vertex -1.52377 -12.4716 1.5
    endloop
  endfacet
  facet normal -0.639759 -0.768576 0
    outer loop
      vertex -1.65994 -12.3715 1.5
      vertex -1.59485 -12.4256 3
      vertex -1.65994 -12.3715 3
    endloop
  endfacet
  facet normal -0.639759 -0.768576 -0
    outer loop
      vertex -1.59485 -12.4256 3
      vertex -1.65994 -12.3715 1.5
      vertex -1.59485 -12.4256 1.5
    endloop
  endfacet
  facet normal -0.975418 0.220365 0
    outer loop
      vertex -1.86824 12.5195 1.5
      vertex -1.84834 12.6076 3
      vertex -1.84834 12.6076 1.5
    endloop
  endfacet
  facet normal -0.975418 0.220365 0
    outer loop
      vertex -1.84834 12.6076 3
      vertex -1.86824 12.5195 1.5
      vertex -1.86824 12.5195 3
    endloop
  endfacet
  facet normal -0.938447 0.345425 0
    outer loop
      vertex -1.84834 12.6076 1.5
      vertex -1.8179 12.6903 3
      vertex -1.8179 12.6903 1.5
    endloop
  endfacet
  facet normal -0.938447 0.345425 0
    outer loop
      vertex -1.8179 12.6903 3
      vertex -1.84834 12.6076 1.5
      vertex -1.84834 12.6076 3
    endloop
  endfacet
  facet normal -0.460349 0.887738 0
    outer loop
      vertex -1.46321 13.0431 1.5
      vertex -1.53842 13.0041 3
      vertex -1.46321 13.0431 3
    endloop
  endfacet
  facet normal -0.460349 0.887738 0
    outer loop
      vertex -1.53842 13.0041 3
      vertex -1.46321 13.0431 1.5
      vertex -1.53842 13.0041 1.5
    endloop
  endfacet
  facet normal -0.234379 0.972145 0
    outer loop
      vertex -1.30052 13.0929 1.5
      vertex -1.38362 13.0729 3
      vertex -1.30052 13.0929 3
    endloop
  endfacet
  facet normal -0.234379 0.972145 0
    outer loop
      vertex -1.38362 13.0729 3
      vertex -1.30052 13.0929 1.5
      vertex -1.38362 13.0729 1.5
    endloop
  endfacet
  facet normal 0.806717 0.590938 0
    outer loop
      vertex 1.90178 12.7816 3
      vertex 1.85126 12.8506 1.5
      vertex 1.85126 12.8506 3
    endloop
  endfacet
  facet normal 0.806717 0.590938 0
    outer loop
      vertex 1.85126 12.8506 1.5
      vertex 1.90178 12.7816 3
      vertex 1.90178 12.7816 1.5
    endloop
  endfacet
  facet normal -0.32772 -0.944775 0
    outer loop
      vertex -1.44762 -12.5088 1.5
      vertex -1.36725 -12.5367 3
      vertex -1.44762 -12.5088 3
    endloop
  endfacet
  facet normal -0.32772 -0.944775 -0
    outer loop
      vertex -1.36725 -12.5367 3
      vertex -1.44762 -12.5088 1.5
      vertex -1.36725 -12.5367 1.5
    endloop
  endfacet
  facet normal -0.438768 -0.898601 0
    outer loop
      vertex -1.52377 -12.4716 1.5
      vertex -1.44762 -12.5088 3
      vertex -1.52377 -12.4716 3
    endloop
  endfacet
  facet normal -0.438768 -0.898601 -0
    outer loop
      vertex -1.44762 -12.5088 3
      vertex -1.52377 -12.4716 1.5
      vertex -1.44762 -12.5088 1.5
    endloop
  endfacet
  facet normal -0.886469 0.462789 0
    outer loop
      vertex -1.8179 12.6903 1.5
      vertex -1.77782 12.767 3
      vertex -1.77782 12.767 1.5
    endloop
  endfacet
  facet normal -0.886469 0.462789 0
    outer loop
      vertex -1.77782 12.767 3
      vertex -1.8179 12.6903 1.5
      vertex -1.8179 12.6903 3
    endloop
  endfacet
  facet normal -0.821177 0.570673 0
    outer loop
      vertex -1.77782 12.767 1.5
      vertex -1.72894 12.8374 3
      vertex -1.72894 12.8374 1.5
    endloop
  endfacet
  facet normal -0.821177 0.570673 0
    outer loop
      vertex -1.72894 12.8374 3
      vertex -1.77782 12.767 1.5
      vertex -1.77782 12.767 3
    endloop
  endfacet
  facet normal -0.658058 0.752967 0
    outer loop
      vertex -1.60837 12.9565 1.5
      vertex -1.67216 12.9007 3
      vertex -1.60837 12.9565 3
    endloop
  endfacet
  facet normal -0.658058 0.752967 0
    outer loop
      vertex -1.67216 12.9007 3
      vertex -1.60837 12.9565 1.5
      vertex -1.67216 12.9007 1.5
    endloop
  endfacet
  facet normal -0.562912 0.826517 0
    outer loop
      vertex -1.53842 13.0041 1.5
      vertex -1.60837 12.9565 3
      vertex -1.53842 13.0041 3
    endloop
  endfacet
  facet normal -0.562912 0.826517 0
    outer loop
      vertex -1.60837 12.9565 3
      vertex -1.53842 13.0041 1.5
      vertex -1.60837 12.9565 1.5
    endloop
  endfacet
  facet normal -0.350336 0.936624 0
    outer loop
      vertex -1.38362 13.0729 1.5
      vertex -1.46321 13.0431 3
      vertex -1.38362 13.0729 3
    endloop
  endfacet
  facet normal -0.350336 0.936624 0
    outer loop
      vertex -1.46321 13.0431 3
      vertex -1.38362 13.0729 1.5
      vertex -1.46321 13.0431 1.5
    endloop
  endfacet
  facet normal 0.929194 0.369592 0
    outer loop
      vertex 1.97614 12.6245 3
      vertex 1.9437 12.7061 1.5
      vertex 1.9437 12.7061 3
    endloop
  endfacet
  facet normal 0.929194 0.369592 0
    outer loop
      vertex 1.9437 12.7061 1.5
      vertex 1.97614 12.6245 3
      vertex 1.97614 12.6245 1.5
    endloop
  endfacet
  facet normal 0.969338 0.245733 0
    outer loop
      vertex 1.9982 12.5375 3
      vertex 1.97614 12.6245 1.5
      vertex 1.97614 12.6245 3
    endloop
  endfacet
  facet normal 0.969338 0.245733 0
    outer loop
      vertex 1.97614 12.6245 1.5
      vertex 1.9982 12.5375 3
      vertex 1.9982 12.5375 1.5
    endloop
  endfacet
  facet normal 0.993133 0.116994 0
    outer loop
      vertex 2.00903 12.4455 3
      vertex 1.9982 12.5375 1.5
      vertex 1.9982 12.5375 3
    endloop
  endfacet
  facet normal 0.993133 0.116994 0
    outer loop
      vertex 1.9982 12.5375 1.5
      vertex 2.00903 12.4455 3
      vertex 2.00903 12.4455 1.5
    endloop
  endfacet
  facet normal 0.543079 0.839681 -0
    outer loop
      vertex 1.72791 12.9666 1.5
      vertex 1.65685 13.0126 3
      vertex 1.72791 12.9666 3
    endloop
  endfacet
  facet normal 0.543079 0.839681 0
    outer loop
      vertex 1.65685 13.0126 3
      vertex 1.72791 12.9666 1.5
      vertex 1.65685 13.0126 1.5
    endloop
  endfacet
  facet normal 0.727894 0.68569 0
    outer loop
      vertex 1.85126 12.8506 3
      vertex 1.793 12.9125 1.5
      vertex 1.793 12.9125 3
    endloop
  endfacet
  facet normal 0.727894 0.68569 0
    outer loop
      vertex 1.793 12.9125 1.5
      vertex 1.85126 12.8506 3
      vertex 1.85126 12.8506 1.5
    endloop
  endfacet
  facet normal 0.975418 -0.220365 0
    outer loop
      vertex 1.9814 -12.0666 3
      vertex 2.0013 -11.9785 1.5
      vertex 2.0013 -11.9785 3
    endloop
  endfacet
  facet normal 0.975418 -0.220365 0
    outer loop
      vertex 2.0013 -11.9785 1.5
      vertex 1.9814 -12.0666 3
      vertex 1.9814 -12.0666 1.5
    endloop
  endfacet
  facet normal 0.938503 -0.345272 0
    outer loop
      vertex 1.95097 -12.1493 3
      vertex 1.9814 -12.0666 1.5
      vertex 1.9814 -12.0666 3
    endloop
  endfacet
  facet normal 0.938503 -0.345272 0
    outer loop
      vertex 1.9814 -12.0666 1.5
      vertex 1.95097 -12.1493 3
      vertex 1.95097 -12.1493 1.5
    endloop
  endfacet
  facet normal 0.658058 -0.752967 0
    outer loop
      vertex 1.74142 -12.4155 1.5
      vertex 1.80522 -12.3597 3
      vertex 1.74142 -12.4155 3
    endloop
  endfacet
  facet normal 0.658058 -0.752967 0
    outer loop
      vertex 1.80522 -12.3597 3
      vertex 1.74142 -12.4155 1.5
      vertex 1.80522 -12.3597 1.5
    endloop
  endfacet
  facet normal 0.874424 0.485163 0
    outer loop
      vertex 1.9437 12.7061 3
      vertex 1.90178 12.7816 1.5
      vertex 1.90178 12.7816 3
    endloop
  endfacet
  facet normal 0.874424 0.485163 0
    outer loop
      vertex 1.90178 12.7816 1.5
      vertex 1.9437 12.7061 3
      vertex 1.9437 12.7061 1.5
    endloop
  endfacet
  facet normal 0.32772 0.944775 -0
    outer loop
      vertex 1.58069 13.0498 1.5
      vertex 1.50032 13.0777 3
      vertex 1.58069 13.0498 3
    endloop
  endfacet
  facet normal 0.32772 0.944775 0
    outer loop
      vertex 1.50032 13.0777 3
      vertex 1.58069 13.0498 1.5
      vertex 1.50032 13.0777 1.5
    endloop
  endfacet
  facet normal 0.438768 0.898601 -0
    outer loop
      vertex 1.65685 13.0126 1.5
      vertex 1.58069 13.0498 3
      vertex 1.65685 13.0126 3
    endloop
  endfacet
  facet normal 0.438768 0.898601 0
    outer loop
      vertex 1.58069 13.0498 3
      vertex 1.65685 13.0126 1.5
      vertex 1.58069 13.0498 1.5
    endloop
  endfacet
  facet normal 0.639759 0.768576 -0
    outer loop
      vertex 1.793 12.9125 1.5
      vertex 1.72791 12.9666 3
      vertex 1.793 12.9125 3
    endloop
  endfacet
  facet normal 0.639759 0.768576 0
    outer loop
      vertex 1.72791 12.9666 3
      vertex 1.793 12.9125 1.5
      vertex 1.72791 12.9666 1.5
    endloop
  endfacet
  facet normal 0.562995 -0.82646 0
    outer loop
      vertex 1.67149 -12.4631 1.5
      vertex 1.74142 -12.4155 3
      vertex 1.67149 -12.4631 3
    endloop
  endfacet
  facet normal 0.562995 -0.82646 0
    outer loop
      vertex 1.74142 -12.4155 3
      vertex 1.67149 -12.4631 1.5
      vertex 1.74142 -12.4155 1.5
    endloop
  endfacet
  facet normal 0.886396 -0.462927 0
    outer loop
      vertex 1.91087 -12.226 3
      vertex 1.95097 -12.1493 1.5
      vertex 1.95097 -12.1493 3
    endloop
  endfacet
  facet normal 0.886396 -0.462927 0
    outer loop
      vertex 1.95097 -12.1493 1.5
      vertex 1.91087 -12.226 3
      vertex 1.91087 -12.226 1.5
    endloop
  endfacet
  facet normal 0.821177 -0.570673 0
    outer loop
      vertex 1.862 -12.2964 3
      vertex 1.91087 -12.226 1.5
      vertex 1.91087 -12.226 3
    endloop
  endfacet
  facet normal 0.821177 -0.570673 0
    outer loop
      vertex 1.91087 -12.226 1.5
      vertex 1.862 -12.2964 3
      vertex 1.862 -12.2964 1.5
    endloop
  endfacet
  facet normal 0.460349 -0.887738 0
    outer loop
      vertex 1.59628 -12.5021 1.5
      vertex 1.67149 -12.4631 3
      vertex 1.59628 -12.5021 3
    endloop
  endfacet
  facet normal 0.460349 -0.887738 0
    outer loop
      vertex 1.67149 -12.4631 3
      vertex 1.59628 -12.5021 1.5
      vertex 1.67149 -12.4631 1.5
    endloop
  endfacet
endsolid OpenSCAD_Model
