solid OpenSCAD_Model
  facet normal -1 0 0
    outer loop
      vertex -14 -14 0.5
      vertex -14 14 1.5
      vertex -14 14 0.5
    endloop
  endfacet
  facet normal -1 -0 0
    outer loop
      vertex -14 14 1.5
      vertex -14 -14 0.5
      vertex -14 -14 1.5
    endloop
  endfacet
  facet normal 0 0 1
    outer loop
      vertex 7.88303 12.4075 1.5
      vertex 14 14 1.5
      vertex 7.89427 12.5013 1.5
    endloop
  endfacet
  facet normal 0 0 1
    outer loop
      vertex 14 14 1.5
      vertex 7.89372 12.5903 1.5
      vertex 7.89427 12.5013 1.5
    endloop
  endfacet
  facet normal 0 0 1
    outer loop
      vertex 14 14 1.5
      vertex 7.88202 12.6742 1.5
      vertex 7.89372 12.5903 1.5
    endloop
  endfacet
  facet normal 0 0 1
    outer loop
      vertex 14 14 1.5
      vertex 7.85985 12.7522 1.5
      vertex 7.88202 12.6742 1.5
    endloop
  endfacet
  facet normal 0 0 1
    outer loop
      vertex 14 14 1.5
      vertex 7.82784 12.8239 1.5
      vertex 7.85985 12.7522 1.5
    endloop
  endfacet
  facet normal 0 0 1
    outer loop
      vertex 14 14 1.5
      vertex 7.78668 12.8886 1.5
      vertex 7.82784 12.8239 1.5
    endloop
  endfacet
  facet normal 0 0 1
    outer loop
      vertex 14 14 1.5
      vertex 7.73703 12.9459 1.5
      vertex 7.78668 12.8886 1.5
    endloop
  endfacet
  facet normal 0 0 1
    outer loop
      vertex 14 14 1.5
      vertex 7.67953 12.9952 1.5
      vertex 7.73703 12.9459 1.5
    endloop
  endfacet
  facet normal 0 0 1
    outer loop
      vertex 14 14 1.5
      vertex 7.61488 13.036 1.5
      vertex 7.67953 12.9952 1.5
    endloop
  endfacet
  facet normal 0 0 1
    outer loop
      vertex 14 14 1.5
      vertex 7.54373 13.0677 1.5
      vertex 7.61488 13.036 1.5
    endloop
  endfacet
  facet normal 0 0 1
    outer loop
      vertex 14 14 1.5
      vertex 7.46672 13.0897 1.5
      vertex 7.54373 13.0677 1.5
    endloop
  endfacet
  facet normal 0 0 1
    outer loop
      vertex 14 14 1.5
      vertex 7.38454 13.1015 1.5
      vertex 7.46672 13.0897 1.5
    endloop
  endfacet
  facet normal 0 0 1
    outer loop
      vertex 14 14 1.5
      vertex 7.33302 13.1035 1.5
      vertex 7.38454 13.1015 1.5
    endloop
  endfacet
  facet normal 0 0 1
    outer loop
      vertex 14 14 1.5
      vertex 4.80406 13.1026 1.5
      vertex 7.33302 13.1035 1.5
    endloop
  endfacet
  facet normal 0 0 1
    outer loop
      vertex -3.59396 12.4075 1.5
      vertex 3.99602 12.4075 1.5
      vertex 3.99974 12.4266 1.5
    endloop
  endfacet
  facet normal -0 0 1
    outer loop
      vertex -3.61742 12.5013 1.5
      vertex 3.99974 12.4266 1.5
      vertex 4.02556 12.5195 1.5
    endloop
  endfacet
  facet normal 0 0 1
    outer loop
      vertex 3.99602 12.4075 1.5
      vertex -3.59396 12.4075 1.5
      vertex 0.219025 1.3335 1.5
    endloop
  endfacet
  facet normal -0 0 1
    outer loop
      vertex -3.65227 12.5903 1.5
      vertex 4.02556 12.5195 1.5
      vertex 4.06256 12.6076 1.5
    endloop
  endfacet
  facet normal -0 0 1
    outer loop
      vertex -3.69742 12.6742 1.5
      vertex 4.06256 12.6076 1.5
      vertex 4.10965 12.6903 1.5
    endloop
  endfacet
  facet normal -0 0 1
    outer loop
      vertex -3.75175 12.7522 1.5
      vertex 4.10965 12.6903 1.5
      vertex 4.16568 12.767 1.5
    endloop
  endfacet
  facet normal -0 0 1
    outer loop
      vertex -3.82753 12.8374 1.5
      vertex 4.16568 12.767 1.5
      vertex 4.22958 12.8374 1.5
    endloop
  endfacet
  facet normal 0 0 1
    outer loop
      vertex -3.82753 12.8374 1.5
      vertex 4.22958 12.8374 1.5
      vertex 4.31509 12.9125 1.5
    endloop
  endfacet
  facet normal 0 0 1
    outer loop
      vertex -3.91304 12.9125 1.5
      vertex 4.31509 12.9125 1.5
      vertex 4.40842 12.9765 1.5
    endloop
  endfacet
  facet normal 0 0 1
    outer loop
      vertex -4.00636 12.9765 1.5
      vertex 4.40842 12.9765 1.5
      vertex 4.50763 13.0286 1.5
    endloop
  endfacet
  facet normal 0 0 1
    outer loop
      vertex -4.10558 13.0286 1.5
      vertex 4.50763 13.0286 1.5
      vertex 4.61084 13.0677 1.5
    endloop
  endfacet
  facet normal 0 0 1
    outer loop
      vertex -4.20879 13.0677 1.5
      vertex 4.61084 13.0677 1.5
      vertex 4.71613 13.0929 1.5
    endloop
  endfacet
  facet normal 0 0 1
    outer loop
      vertex -4.31406 13.0929 1.5
      vertex 4.71613 13.0929 1.5
      vertex 4.80406 13.1026 1.5
    endloop
  endfacet
  facet normal 0 0 1
    outer loop
      vertex -4.40201 13.1026 1.5
      vertex 4.80406 13.1026 1.5
      vertex 14 14 1.5
    endloop
  endfacet
  facet normal 0 0 1
    outer loop
      vertex 3.99974 12.4266 1.5
      vertex -3.61742 12.5013 1.5
      vertex -3.59396 12.4075 1.5
    endloop
  endfacet
  facet normal 0 0 1
    outer loop
      vertex 4.02556 12.5195 1.5
      vertex -3.65227 12.5903 1.5
      vertex -3.61742 12.5013 1.5
    endloop
  endfacet
  facet normal 0 0 1
    outer loop
      vertex 4.06256 12.6076 1.5
      vertex -3.69742 12.6742 1.5
      vertex -3.65227 12.5903 1.5
    endloop
  endfacet
  facet normal 0 0 1
    outer loop
      vertex 4.10965 12.6903 1.5
      vertex -3.75175 12.7522 1.5
      vertex -3.69742 12.6742 1.5
    endloop
  endfacet
  facet normal 0 0 1
    outer loop
      vertex 4.16568 12.767 1.5
      vertex -3.82753 12.8374 1.5
      vertex -3.75175 12.7522 1.5
    endloop
  endfacet
  facet normal 0 0 1
    outer loop
      vertex 4.31509 12.9125 1.5
      vertex -3.91304 12.9125 1.5
      vertex -3.82753 12.8374 1.5
    endloop
  endfacet
  facet normal 0 0 1
    outer loop
      vertex 4.40842 12.9765 1.5
      vertex -4.00636 12.9765 1.5
      vertex -3.91304 12.9125 1.5
    endloop
  endfacet
  facet normal 0 0 1
    outer loop
      vertex 4.50763 13.0286 1.5
      vertex -4.10558 13.0286 1.5
      vertex -4.00636 12.9765 1.5
    endloop
  endfacet
  facet normal 0 0 1
    outer loop
      vertex 4.61084 13.0677 1.5
      vertex -4.20879 13.0677 1.5
      vertex -4.10558 13.0286 1.5
    endloop
  endfacet
  facet normal 0 0 1
    outer loop
      vertex 4.71613 13.0929 1.5
      vertex -4.31406 13.0929 1.5
      vertex -4.20879 13.0677 1.5
    endloop
  endfacet
  facet normal 0 0 1
    outer loop
      vertex 4.80406 13.1026 1.5
      vertex -4.40201 13.1026 1.5
      vertex -4.31406 13.0929 1.5
    endloop
  endfacet
  facet normal -0 0 1
    outer loop
      vertex -14 14 1.5
      vertex -4.40201 13.1026 1.5
      vertex 14 14 1.5
    endloop
  endfacet
  facet normal 0 0 1
    outer loop
      vertex -7.493 12.6076 1.5
      vertex -14 14 1.5
      vertex -7.49394 12.5195 1.5
    endloop
  endfacet
  facet normal 0 0 1
    outer loop
      vertex -7.48169 12.6903 1.5
      vertex -14 14 1.5
      vertex -7.493 12.6076 1.5
    endloop
  endfacet
  facet normal 0 0 1
    outer loop
      vertex -7.46037 12.767 1.5
      vertex -14 14 1.5
      vertex -7.48169 12.6903 1.5
    endloop
  endfacet
  facet normal 0 0 1
    outer loop
      vertex -7.42937 12.8374 1.5
      vertex -14 14 1.5
      vertex -7.46037 12.767 1.5
    endloop
  endfacet
  facet normal 0 0 1
    outer loop
      vertex -7.38901 12.9007 1.5
      vertex -14 14 1.5
      vertex -7.42937 12.8374 1.5
    endloop
  endfacet
  facet normal 0 0 1
    outer loop
      vertex -7.33961 12.9565 1.5
      vertex -14 14 1.5
      vertex -7.38901 12.9007 1.5
    endloop
  endfacet
  facet normal 0 0 1
    outer loop
      vertex -7.28152 13.0041 1.5
      vertex -14 14 1.5
      vertex -7.33961 12.9565 1.5
    endloop
  endfacet
  facet normal 0 0 1
    outer loop
      vertex -7.21507 13.0431 1.5
      vertex -14 14 1.5
      vertex -7.28152 13.0041 1.5
    endloop
  endfacet
  facet normal 0 0 1
    outer loop
      vertex -7.14058 13.0729 1.5
      vertex -14 14 1.5
      vertex -7.21507 13.0431 1.5
    endloop
  endfacet
  facet normal 0 0 1
    outer loop
      vertex -7.05836 13.0929 1.5
      vertex -14 14 1.5
      vertex -7.14058 13.0729 1.5
    endloop
  endfacet
  facet normal 0 0 1
    outer loop
      vertex -6.9688 13.1026 1.5
      vertex -14 14 1.5
      vertex -7.05836 13.0929 1.5
    endloop
  endfacet
  facet normal 0 0 1
    outer loop
      vertex -4.40201 13.1026 1.5
      vertex -14 14 1.5
      vertex -6.9688 13.1026 1.5
    endloop
  endfacet
  facet normal 0 0 1
    outer loop
      vertex 2.16302 -4.27649 1.5
      vertex 14 14 1.5
      vertex 7.88303 12.4075 1.5
    endloop
  endfacet
  facet normal 0 0 1
    outer loop
      vertex 14 14 1.5
      vertex 2.16302 -4.27649 1.5
      vertex 14 -14 1.5
    endloop
  endfacet
  facet normal 0 0 1
    outer loop
      vertex 2.12579 -11.8856 1.5
      vertex 2.16302 -4.27649 1.5
      vertex 2.12602 -4.27649 1.5
    endloop
  endfacet
  facet normal 0 0 1
    outer loop
      vertex 2.16302 -4.27649 1.5
      vertex 2.12579 -11.8856 1.5
      vertex 14 -14 1.5
    endloop
  endfacet
  facet normal -0 0 1
    outer loop
      vertex 2.11821 -11.9785 1.5
      vertex 14 -14 1.5
      vertex 2.12579 -11.8856 1.5
    endloop
  endfacet
  facet normal -0 0 1
    outer loop
      vertex 2.10019 -12.0666 1.5
      vertex 14 -14 1.5
      vertex 2.11821 -11.9785 1.5
    endloop
  endfacet
  facet normal -0 0 1
    outer loop
      vertex 2.07231 -12.1493 1.5
      vertex 14 -14 1.5
      vertex 2.10019 -12.0666 1.5
    endloop
  endfacet
  facet normal -0 0 1
    outer loop
      vertex 2.0351 -12.226 1.5
      vertex 14 -14 1.5
      vertex 2.07231 -12.1493 1.5
    endloop
  endfacet
  facet normal -0 0 1
    outer loop
      vertex 1.98911 -12.2964 1.5
      vertex 14 -14 1.5
      vertex 2.0351 -12.226 1.5
    endloop
  endfacet
  facet normal -0 0 1
    outer loop
      vertex 1.93488 -12.3597 1.5
      vertex 14 -14 1.5
      vertex 1.98911 -12.2964 1.5
    endloop
  endfacet
  facet normal -0 0 1
    outer loop
      vertex 1.87296 -12.4155 1.5
      vertex 14 -14 1.5
      vertex 1.93488 -12.3597 1.5
    endloop
  endfacet
  facet normal -0 0 1
    outer loop
      vertex 1.80389 -12.4631 1.5
      vertex 14 -14 1.5
      vertex 1.87296 -12.4155 1.5
    endloop
  endfacet
  facet normal -0 0 1
    outer loop
      vertex 1.72824 -12.5021 1.5
      vertex 14 -14 1.5
      vertex 1.80389 -12.4631 1.5
    endloop
  endfacet
  facet normal -0 0 1
    outer loop
      vertex 1.64653 -12.5319 1.5
      vertex 14 -14 1.5
      vertex 1.72824 -12.5021 1.5
    endloop
  endfacet
  facet normal -0 0 1
    outer loop
      vertex 1.55933 -12.5519 1.5
      vertex 14 -14 1.5
      vertex 1.64653 -12.5319 1.5
    endloop
  endfacet
  facet normal -0 0 1
    outer loop
      vertex 1.46715 -12.5616 1.5
      vertex 14 -14 1.5
      vertex 1.55933 -12.5519 1.5
    endloop
  endfacet
  facet normal -0 0 1
    outer loop
      vertex -1.06509 -12.5616 1.5
      vertex 14 -14 1.5
      vertex 1.46715 -12.5616 1.5
    endloop
  endfacet
  facet normal 0 0 1
    outer loop
      vertex -14 -14 1.5
      vertex -1.06509 -12.5616 1.5
      vertex -1.13922 -12.5547 1.5
    endloop
  endfacet
  facet normal -0 0 1
    outer loop
      vertex -1.76097 -4.27649 1.5
      vertex -1.72308 -11.9045 1.5
      vertex -1.72397 -4.27649 1.5
    endloop
  endfacet
  facet normal 0 0 1
    outer loop
      vertex -14 14 1.5
      vertex -1.76097 -4.27649 1.5
      vertex -7.48097 12.4075 1.5
    endloop
  endfacet
  facet normal 0 0 1
    outer loop
      vertex -1.76097 -4.27649 1.5
      vertex -14 -14 1.5
      vertex -1.72308 -11.9045 1.5
    endloop
  endfacet
  facet normal 0 0 1
    outer loop
      vertex -1.72308 -11.9045 1.5
      vertex -14 -14 1.5
      vertex -1.71336 -11.9965 1.5
    endloop
  endfacet
  facet normal 0 0 1
    outer loop
      vertex -14 14 1.5
      vertex -7.48422 12.4266 1.5
      vertex -7.49394 12.5195 1.5
    endloop
  endfacet
  facet normal 0 0 1
    outer loop
      vertex -14 14 1.5
      vertex -7.48097 12.4075 1.5
      vertex -7.48422 12.4266 1.5
    endloop
  endfacet
  facet normal 0 0 1
    outer loop
      vertex -1.76097 -4.27649 1.5
      vertex -14 14 1.5
      vertex -14 -14 1.5
    endloop
  endfacet
  facet normal 0 0 1
    outer loop
      vertex -1.71336 -11.9965 1.5
      vertex -14 -14 1.5
      vertex -1.69333 -12.0835 1.5
    endloop
  endfacet
  facet normal 0 0 1
    outer loop
      vertex -1.06509 -12.5616 1.5
      vertex -14 -14 1.5
      vertex 14 -14 1.5
    endloop
  endfacet
  facet normal 0 0 1
    outer loop
      vertex -1.22746 -12.5367 1.5
      vertex -14 -14 1.5
      vertex -1.13922 -12.5547 1.5
    endloop
  endfacet
  facet normal 0 0 1
    outer loop
      vertex -1.31032 -12.5088 1.5
      vertex -14 -14 1.5
      vertex -1.22746 -12.5367 1.5
    endloop
  endfacet
  facet normal 0 0 1
    outer loop
      vertex -1.38722 -12.4716 1.5
      vertex -14 -14 1.5
      vertex -1.31032 -12.5088 1.5
    endloop
  endfacet
  facet normal 0 0 1
    outer loop
      vertex -1.45764 -12.4256 1.5
      vertex -14 -14 1.5
      vertex -1.38722 -12.4716 1.5
    endloop
  endfacet
  facet normal 0 0 1
    outer loop
      vertex -1.52103 -12.3715 1.5
      vertex -14 -14 1.5
      vertex -1.45764 -12.4256 1.5
    endloop
  endfacet
  facet normal 0 0 1
    outer loop
      vertex -1.57684 -12.3096 1.5
      vertex -14 -14 1.5
      vertex -1.52103 -12.3715 1.5
    endloop
  endfacet
  facet normal 0 0 1
    outer loop
      vertex -1.62453 -12.2406 1.5
      vertex -14 -14 1.5
      vertex -1.57684 -12.3096 1.5
    endloop
  endfacet
  facet normal 0 0 1
    outer loop
      vertex -1.66354 -12.1651 1.5
      vertex -14 -14 1.5
      vertex -1.62453 -12.2406 1.5
    endloop
  endfacet
  facet normal 0 0 1
    outer loop
      vertex -1.69333 -12.0835 1.5
      vertex -14 -14 1.5
      vertex -1.66354 -12.1651 1.5
    endloop
  endfacet
  facet normal 1 -0 0
    outer loop
      vertex 14 -14 1.5
      vertex 14 14 0.5
      vertex 14 14 1.5
    endloop
  endfacet
  facet normal 1 0 0
    outer loop
      vertex 14 14 0.5
      vertex 14 -14 1.5
      vertex 14 -14 0.5
    endloop
  endfacet
  facet normal 0 1 -0
    outer loop
      vertex 14 14 0.5
      vertex -14 14 1.5
      vertex 14 14 1.5
    endloop
  endfacet
  facet normal 0 1 0
    outer loop
      vertex -14 14 1.5
      vertex 14 14 0.5
      vertex -14 14 0.5
    endloop
  endfacet
  facet normal 0 0 -1
    outer loop
      vertex -14 -14 0.5
      vertex 14 14 0.5
      vertex 14 -14 0.5
    endloop
  endfacet
  facet normal -0 0 -1
    outer loop
      vertex 14 14 0.5
      vertex -14 -14 0.5
      vertex -14 14 0.5
    endloop
  endfacet
  facet normal 0 -1 0
    outer loop
      vertex -14 -14 0.5
      vertex 14 -14 1.5
      vertex -14 -14 1.5
    endloop
  endfacet
  facet normal 0 -1 -0
    outer loop
      vertex 14 -14 1.5
      vertex -14 -14 0.5
      vertex 14 -14 0.5
    endloop
  endfacet
  facet normal 0 0 1
    outer loop
      vertex 7.33302 13.1035 3
      vertex 7.89427 12.5013 3
      vertex 7.89372 12.5903 3
    endloop
  endfacet
  facet normal 0 0 1
    outer loop
      vertex 7.38454 13.1015 3
      vertex 7.89372 12.5903 3
      vertex 7.88202 12.6742 3
    endloop
  endfacet
  facet normal 0 0 1
    outer loop
      vertex 7.46672 13.0897 3
      vertex 7.88202 12.6742 3
      vertex 7.85985 12.7522 3
    endloop
  endfacet
  facet normal 0 0 1
    outer loop
      vertex 7.54373 13.0677 3
      vertex 7.85985 12.7522 3
      vertex 7.82784 12.8239 3
    endloop
  endfacet
  facet normal 0 0 1
    outer loop
      vertex 7.54373 13.0677 3
      vertex 7.82784 12.8239 3
      vertex 7.78668 12.8886 3
    endloop
  endfacet
  facet normal 0 0 1
    outer loop
      vertex 7.67953 12.9952 3
      vertex 7.78668 12.8886 3
      vertex 7.73703 12.9459 3
    endloop
  endfacet
  facet normal 0 0 1
    outer loop
      vertex 7.61488 13.036 3
      vertex 7.78668 12.8886 3
      vertex 7.67953 12.9952 3
    endloop
  endfacet
  facet normal 0 0 1
    outer loop
      vertex 7.54373 13.0677 3
      vertex 7.78668 12.8886 3
      vertex 7.61488 13.036 3
    endloop
  endfacet
  facet normal 0 0 1
    outer loop
      vertex 7.85985 12.7522 3
      vertex 7.54373 13.0677 3
      vertex 7.46672 13.0897 3
    endloop
  endfacet
  facet normal 0 0 1
    outer loop
      vertex 7.88202 12.6742 3
      vertex 7.46672 13.0897 3
      vertex 7.38454 13.1015 3
    endloop
  endfacet
  facet normal 0 0 1
    outer loop
      vertex 7.33302 13.1035 3
      vertex 7.89372 12.5903 3
      vertex 7.38454 13.1015 3
    endloop
  endfacet
  facet normal 0 0 1
    outer loop
      vertex 7.89427 12.5013 3
      vertex 7.33302 13.1035 3
      vertex 7.88303 12.4075 3
    endloop
  endfacet
  facet normal -0 0 1
    outer loop
      vertex 4.80406 13.1026 3
      vertex 7.88303 12.4075 3
      vertex 7.33302 13.1035 3
    endloop
  endfacet
  facet normal 0 0 1
    outer loop
      vertex 4.61084 13.0677 3
      vertex 4.80406 13.1026 3
      vertex 4.71613 13.0929 3
    endloop
  endfacet
  facet normal 0 0 1
    outer loop
      vertex 4.50763 13.0286 3
      vertex 4.80406 13.1026 3
      vertex 4.61084 13.0677 3
    endloop
  endfacet
  facet normal 0 0 1
    outer loop
      vertex 4.80406 13.1026 3
      vertex 4.50763 13.0286 3
      vertex 3.99602 12.4075 3
    endloop
  endfacet
  facet normal 0 0 1
    outer loop
      vertex 3.99602 12.4075 3
      vertex 4.50763 13.0286 3
      vertex 4.40842 12.9765 3
    endloop
  endfacet
  facet normal 0 0 1
    outer loop
      vertex 3.99602 12.4075 3
      vertex 4.40842 12.9765 3
      vertex 4.31509 12.9125 3
    endloop
  endfacet
  facet normal 0 0 1
    outer loop
      vertex 3.99602 12.4075 3
      vertex 4.31509 12.9125 3
      vertex 4.22958 12.8374 3
    endloop
  endfacet
  facet normal 0 0 1
    outer loop
      vertex 3.99602 12.4075 3
      vertex 4.22958 12.8374 3
      vertex 4.16568 12.767 3
    endloop
  endfacet
  facet normal 0 0 1
    outer loop
      vertex 3.99602 12.4075 3
      vertex 4.16568 12.767 3
      vertex 4.10965 12.6903 3
    endloop
  endfacet
  facet normal 0 0 1
    outer loop
      vertex 3.99602 12.4075 3
      vertex 4.10965 12.6903 3
      vertex 4.06256 12.6076 3
    endloop
  endfacet
  facet normal 0 0 1
    outer loop
      vertex 3.99602 12.4075 3
      vertex 4.06256 12.6076 3
      vertex 4.02556 12.5195 3
    endloop
  endfacet
  facet normal 0 0 1
    outer loop
      vertex 3.99602 12.4075 3
      vertex 4.02556 12.5195 3
      vertex 3.99974 12.4266 3
    endloop
  endfacet
  facet normal 0 0 1
    outer loop
      vertex 4.80406 13.1026 3
      vertex 3.99602 12.4075 3
      vertex 7.88303 12.4075 3
    endloop
  endfacet
  facet normal 0 0 1
    outer loop
      vertex 0.219025 1.3335 3
      vertex 7.88303 12.4075 3
      vertex 3.99602 12.4075 3
    endloop
  endfacet
  facet normal 0 0 1
    outer loop
      vertex 7.88303 12.4075 3
      vertex 0.219025 1.3335 3
      vertex 2.16302 -4.27649 3
    endloop
  endfacet
  facet normal 0 0 1
    outer loop
      vertex -1.72308 -11.9045 3
      vertex 2.12579 -11.8856 3
      vertex 2.12602 -4.27649 3
    endloop
  endfacet
  facet normal 0 -0 1
    outer loop
      vertex 1.46715 -12.5616 3
      vertex 2.12579 -11.8856 3
      vertex -1.72308 -11.9045 3
    endloop
  endfacet
  facet normal 0 0 1
    outer loop
      vertex 2.12579 -11.8856 3
      vertex 1.46715 -12.5616 3
      vertex 2.11821 -11.9785 3
    endloop
  endfacet
  facet normal 0 0 1
    outer loop
      vertex 2.11821 -11.9785 3
      vertex 1.46715 -12.5616 3
      vertex 2.10019 -12.0666 3
    endloop
  endfacet
  facet normal 0 0 1
    outer loop
      vertex 2.10019 -12.0666 3
      vertex 1.46715 -12.5616 3
      vertex 2.07231 -12.1493 3
    endloop
  endfacet
  facet normal 0 0 1
    outer loop
      vertex 2.07231 -12.1493 3
      vertex 1.46715 -12.5616 3
      vertex 2.0351 -12.226 3
    endloop
  endfacet
  facet normal 0 0 1
    outer loop
      vertex 2.0351 -12.226 3
      vertex 1.46715 -12.5616 3
      vertex 1.98911 -12.2964 3
    endloop
  endfacet
  facet normal 0 0 1
    outer loop
      vertex 1.98911 -12.2964 3
      vertex 1.46715 -12.5616 3
      vertex 1.93488 -12.3597 3
    endloop
  endfacet
  facet normal 0 0 1
    outer loop
      vertex 1.93488 -12.3597 3
      vertex 1.46715 -12.5616 3
      vertex 1.87296 -12.4155 3
    endloop
  endfacet
  facet normal 0 0 1
    outer loop
      vertex 1.80389 -12.4631 3
      vertex 1.46715 -12.5616 3
      vertex 1.72824 -12.5021 3
    endloop
  endfacet
  facet normal 0 0 1
    outer loop
      vertex 1.72824 -12.5021 3
      vertex 1.46715 -12.5616 3
      vertex 1.64653 -12.5319 3
    endloop
  endfacet
  facet normal 0 0 1
    outer loop
      vertex 1.64653 -12.5319 3
      vertex 1.46715 -12.5616 3
      vertex 1.55933 -12.5519 3
    endloop
  endfacet
  facet normal 0 0 1
    outer loop
      vertex 2.16302 -4.27649 3
      vertex 0.219025 1.3335 3
      vertex 2.12602 -4.27649 3
    endloop
  endfacet
  facet normal 0 0 1
    outer loop
      vertex -1.72397 -4.27649 3
      vertex 2.12602 -4.27649 3
      vertex 0.219025 1.3335 3
    endloop
  endfacet
  facet normal 0 -0 1
    outer loop
      vertex -1.72308 -11.9045 3
      vertex 2.12602 -4.27649 3
      vertex -1.72397 -4.27649 3
    endloop
  endfacet
  facet normal 0 0 1
    outer loop
      vertex 1.87296 -12.4155 3
      vertex 1.46715 -12.5616 3
      vertex 1.80389 -12.4631 3
    endloop
  endfacet
  facet normal 0 0 1
    outer loop
      vertex 1.46715 -12.5616 3
      vertex -1.72308 -11.9045 3
      vertex -1.06509 -12.5616 3
    endloop
  endfacet
  facet normal 0 0 1
    outer loop
      vertex -1.06509 -12.5616 3
      vertex -1.72308 -11.9045 3
      vertex -1.13922 -12.5547 3
    endloop
  endfacet
  facet normal 0 0 1
    outer loop
      vertex -1.13922 -12.5547 3
      vertex -1.72308 -11.9045 3
      vertex -1.22746 -12.5367 3
    endloop
  endfacet
  facet normal 0 0 1
    outer loop
      vertex -1.22746 -12.5367 3
      vertex -1.72308 -11.9045 3
      vertex -1.31032 -12.5088 3
    endloop
  endfacet
  facet normal 0 0 1
    outer loop
      vertex -1.31032 -12.5088 3
      vertex -1.72308 -11.9045 3
      vertex -1.38722 -12.4716 3
    endloop
  endfacet
  facet normal 0 0 1
    outer loop
      vertex -1.38722 -12.4716 3
      vertex -1.72308 -11.9045 3
      vertex -1.45764 -12.4256 3
    endloop
  endfacet
  facet normal 0 0 1
    outer loop
      vertex -1.45764 -12.4256 3
      vertex -1.72308 -11.9045 3
      vertex -1.52103 -12.3715 3
    endloop
  endfacet
  facet normal 0 0 1
    outer loop
      vertex -1.52103 -12.3715 3
      vertex -1.72308 -11.9045 3
      vertex -1.57684 -12.3096 3
    endloop
  endfacet
  facet normal 0 0 1
    outer loop
      vertex -1.57684 -12.3096 3
      vertex -1.72308 -11.9045 3
      vertex -1.62453 -12.2406 3
    endloop
  endfacet
  facet normal 0 0 1
    outer loop
      vertex -1.66354 -12.1651 3
      vertex -1.72308 -11.9045 3
      vertex -1.69333 -12.0835 3
    endloop
  endfacet
  facet normal 0 0 1
    outer loop
      vertex -1.69333 -12.0835 3
      vertex -1.72308 -11.9045 3
      vertex -1.71336 -11.9965 3
    endloop
  endfacet
  facet normal 0 0 1
    outer loop
      vertex -1.62453 -12.2406 3
      vertex -1.72308 -11.9045 3
      vertex -1.66354 -12.1651 3
    endloop
  endfacet
  facet normal 0 0 1
    outer loop
      vertex 0.219025 1.3335 3
      vertex -1.76097 -4.27649 3
      vertex -1.72397 -4.27649 3
    endloop
  endfacet
  facet normal -0 0 1
    outer loop
      vertex -7.48097 12.4075 3
      vertex 0.219025 1.3335 3
      vertex -3.59396 12.4075 3
    endloop
  endfacet
  facet normal 0 0 1
    outer loop
      vertex -3.75175 12.7522 3
      vertex -3.59396 12.4075 3
      vertex -3.61742 12.5013 3
    endloop
  endfacet
  facet normal 0 0 1
    outer loop
      vertex -3.69742 12.6742 3
      vertex -3.61742 12.5013 3
      vertex -3.65227 12.5903 3
    endloop
  endfacet
  facet normal 0 0 1
    outer loop
      vertex -3.75175 12.7522 3
      vertex -3.61742 12.5013 3
      vertex -3.69742 12.6742 3
    endloop
  endfacet
  facet normal 0 0 1
    outer loop
      vertex -3.59396 12.4075 3
      vertex -3.75175 12.7522 3
      vertex -3.82753 12.8374 3
    endloop
  endfacet
  facet normal 0 0 1
    outer loop
      vertex -3.91304 12.9125 3
      vertex -3.59396 12.4075 3
      vertex -3.82753 12.8374 3
    endloop
  endfacet
  facet normal 0 0 1
    outer loop
      vertex -3.59396 12.4075 3
      vertex -3.91304 12.9125 3
      vertex -4.40201 13.1026 3
    endloop
  endfacet
  facet normal 0 0 1
    outer loop
      vertex -4.40201 13.1026 3
      vertex -3.91304 12.9125 3
      vertex -4.00636 12.9765 3
    endloop
  endfacet
  facet normal 0 0 1
    outer loop
      vertex -4.40201 13.1026 3
      vertex -4.00636 12.9765 3
      vertex -4.10558 13.0286 3
    endloop
  endfacet
  facet normal 0 0 1
    outer loop
      vertex -4.40201 13.1026 3
      vertex -4.10558 13.0286 3
      vertex -4.20879 13.0677 3
    endloop
  endfacet
  facet normal 0 0 1
    outer loop
      vertex -4.40201 13.1026 3
      vertex -4.20879 13.0677 3
      vertex -4.31406 13.0929 3
    endloop
  endfacet
  facet normal 0 0 1
    outer loop
      vertex -3.59396 12.4075 3
      vertex -4.40201 13.1026 3
      vertex -7.48097 12.4075 3
    endloop
  endfacet
  facet normal 0 0 1
    outer loop
      vertex -7.48097 12.4075 3
      vertex -4.40201 13.1026 3
      vertex -6.9688 13.1026 3
    endloop
  endfacet
  facet normal 0 0 1
    outer loop
      vertex -7.49394 12.5195 3
      vertex -6.9688 13.1026 3
      vertex -7.05836 13.0929 3
    endloop
  endfacet
  facet normal 0 0 1
    outer loop
      vertex -7.493 12.6076 3
      vertex -7.05836 13.0929 3
      vertex -7.14058 13.0729 3
    endloop
  endfacet
  facet normal 0 0 1
    outer loop
      vertex -7.48169 12.6903 3
      vertex -7.14058 13.0729 3
      vertex -7.21507 13.0431 3
    endloop
  endfacet
  facet normal 0 0 1
    outer loop
      vertex -7.48169 12.6903 3
      vertex -7.21507 13.0431 3
      vertex -7.28152 13.0041 3
    endloop
  endfacet
  facet normal 0 0 1
    outer loop
      vertex -7.48169 12.6903 3
      vertex -7.28152 13.0041 3
      vertex -7.33961 12.9565 3
    endloop
  endfacet
  facet normal 0 0 1
    outer loop
      vertex -7.48169 12.6903 3
      vertex -7.33961 12.9565 3
      vertex -7.38901 12.9007 3
    endloop
  endfacet
  facet normal 0 0 1
    outer loop
      vertex -7.48169 12.6903 3
      vertex -7.38901 12.9007 3
      vertex -7.42937 12.8374 3
    endloop
  endfacet
  facet normal 0 0 1
    outer loop
      vertex -7.48169 12.6903 3
      vertex -7.42937 12.8374 3
      vertex -7.46037 12.767 3
    endloop
  endfacet
  facet normal 0 0 1
    outer loop
      vertex 0.219025 1.3335 3
      vertex -7.48097 12.4075 3
      vertex -1.76097 -4.27649 3
    endloop
  endfacet
  facet normal 0 0 1
    outer loop
      vertex -7.14058 13.0729 3
      vertex -7.48169 12.6903 3
      vertex -7.493 12.6076 3
    endloop
  endfacet
  facet normal 0 0 1
    outer loop
      vertex -6.9688 13.1026 3
      vertex -7.48422 12.4266 3
      vertex -7.48097 12.4075 3
    endloop
  endfacet
  facet normal 0 0 1
    outer loop
      vertex -7.05836 13.0929 3
      vertex -7.493 12.6076 3
      vertex -7.49394 12.5195 3
    endloop
  endfacet
  facet normal 0 0 1
    outer loop
      vertex -6.9688 13.1026 3
      vertex -7.49394 12.5195 3
      vertex -7.48422 12.4266 3
    endloop
  endfacet
  facet normal 0 -1 0
    outer loop
      vertex -1.06509 -12.5616 1.5
      vertex 1.46715 -12.5616 3
      vertex -1.06509 -12.5616 3
    endloop
  endfacet
  facet normal 0 -1 -0
    outer loop
      vertex 1.46715 -12.5616 3
      vertex -1.06509 -12.5616 1.5
      vertex 1.46715 -12.5616 1.5
    endloop
  endfacet
  facet normal 0.104865 -0.994486 0
    outer loop
      vertex 1.46715 -12.5616 1.5
      vertex 1.55933 -12.5519 3
      vertex 1.46715 -12.5616 3
    endloop
  endfacet
  facet normal 0.104865 -0.994486 0
    outer loop
      vertex 1.55933 -12.5519 3
      vertex 1.46715 -12.5616 1.5
      vertex 1.55933 -12.5519 1.5
    endloop
  endfacet
  facet normal 0.223913 -0.974609 0
    outer loop
      vertex 1.55933 -12.5519 1.5
      vertex 1.64653 -12.5319 3
      vertex 1.55933 -12.5519 3
    endloop
  endfacet
  facet normal 0.223913 -0.974609 0
    outer loop
      vertex 1.64653 -12.5319 3
      vertex 1.55933 -12.5519 1.5
      vertex 1.64653 -12.5319 1.5
    endloop
  endfacet
  facet normal 0.342321 -0.939583 0
    outer loop
      vertex 1.64653 -12.5319 1.5
      vertex 1.72824 -12.5021 3
      vertex 1.64653 -12.5319 3
    endloop
  endfacet
  facet normal 0.342321 -0.939583 0
    outer loop
      vertex 1.72824 -12.5021 3
      vertex 1.64653 -12.5319 1.5
      vertex 1.72824 -12.5021 1.5
    endloop
  endfacet
  facet normal 0.458223 -0.888837 0
    outer loop
      vertex 1.72824 -12.5021 1.5
      vertex 1.80389 -12.4631 3
      vertex 1.72824 -12.5021 3
    endloop
  endfacet
  facet normal 0.458223 -0.888837 0
    outer loop
      vertex 1.80389 -12.4631 3
      vertex 1.72824 -12.5021 1.5
      vertex 1.80389 -12.4631 1.5
    endloop
  endfacet
  facet normal 0.567809 -0.82316 0
    outer loop
      vertex 1.80389 -12.4631 1.5
      vertex 1.87296 -12.4155 3
      vertex 1.80389 -12.4631 3
    endloop
  endfacet
  facet normal 0.567809 -0.82316 0
    outer loop
      vertex 1.87296 -12.4155 3
      vertex 1.80389 -12.4631 1.5
      vertex 1.87296 -12.4155 1.5
    endloop
  endfacet
  facet normal 0.669147 -0.74313 0
    outer loop
      vertex 1.87296 -12.4155 1.5
      vertex 1.93488 -12.3597 3
      vertex 1.87296 -12.4155 3
    endloop
  endfacet
  facet normal 0.669147 -0.74313 0
    outer loop
      vertex 1.93488 -12.3597 3
      vertex 1.87296 -12.4155 1.5
      vertex 1.93488 -12.3597 1.5
    endloop
  endfacet
  facet normal 0.759541 -0.65046 0
    outer loop
      vertex 1.93488 -12.3597 3
      vertex 1.98911 -12.2964 1.5
      vertex 1.98911 -12.2964 3
    endloop
  endfacet
  facet normal 0.759541 -0.65046 0
    outer loop
      vertex 1.98911 -12.2964 1.5
      vertex 1.93488 -12.3597 3
      vertex 1.93488 -12.3597 1.5
    endloop
  endfacet
  facet normal 0.836934 -0.547303 0
    outer loop
      vertex 1.98911 -12.2964 3
      vertex 2.0351 -12.226 1.5
      vertex 2.0351 -12.226 3
    endloop
  endfacet
  facet normal 0.836934 -0.547303 0
    outer loop
      vertex 2.0351 -12.226 1.5
      vertex 1.98911 -12.2964 3
      vertex 1.98911 -12.2964 1.5
    endloop
  endfacet
  facet normal 0.899867 -0.436164 0
    outer loop
      vertex 2.0351 -12.226 3
      vertex 2.07231 -12.1493 1.5
      vertex 2.07231 -12.1493 3
    endloop
  endfacet
  facet normal 0.899867 -0.436164 0
    outer loop
      vertex 2.07231 -12.1493 1.5
      vertex 2.0351 -12.226 3
      vertex 2.0351 -12.226 1.5
    endloop
  endfacet
  facet normal 0.947611 -0.319425 0
    outer loop
      vertex 2.07231 -12.1493 3
      vertex 2.10019 -12.0666 1.5
      vertex 2.10019 -12.0666 3
    endloop
  endfacet
  facet normal 0.947611 -0.319425 0
    outer loop
      vertex 2.10019 -12.0666 1.5
      vertex 2.07231 -12.1493 3
      vertex 2.07231 -12.1493 1.5
    endloop
  endfacet
  facet normal 0.979703 -0.200455 0
    outer loop
      vertex 2.10019 -12.0666 3
      vertex 2.11821 -11.9785 1.5
      vertex 2.11821 -11.9785 3
    endloop
  endfacet
  facet normal 0.979703 -0.200455 0
    outer loop
      vertex 2.11821 -11.9785 1.5
      vertex 2.10019 -12.0666 3
      vertex 2.10019 -12.0666 1.5
    endloop
  endfacet
  facet normal 0.996683 -0.0813786 0
    outer loop
      vertex 2.11821 -11.9785 3
      vertex 2.12579 -11.8856 1.5
      vertex 2.12579 -11.8856 3
    endloop
  endfacet
  facet normal 0.996683 -0.0813786 0
    outer loop
      vertex 2.12579 -11.8856 1.5
      vertex 2.11821 -11.9785 3
      vertex 2.11821 -11.9785 1.5
    endloop
  endfacet
  facet normal 1 -3.008e-05 0
    outer loop
      vertex 2.12579 -11.8856 3
      vertex 2.12602 -4.27649 1.5
      vertex 2.12602 -4.27649 3
    endloop
  endfacet
  facet normal 1 -3.008e-05 0
    outer loop
      vertex 2.12602 -4.27649 1.5
      vertex 2.12579 -11.8856 3
      vertex 2.12579 -11.8856 1.5
    endloop
  endfacet
  facet normal 0 -1 0
    outer loop
      vertex 2.12602 -4.27649 1.5
      vertex 2.16302 -4.27649 3
      vertex 2.12602 -4.27649 3
    endloop
  endfacet
  facet normal 0 -1 -0
    outer loop
      vertex 2.16302 -4.27649 3
      vertex 2.12602 -4.27649 1.5
      vertex 2.16302 -4.27649 1.5
    endloop
  endfacet
  facet normal 0.94595 -0.324313 0
    outer loop
      vertex 2.16302 -4.27649 3
      vertex 7.88303 12.4075 1.5
      vertex 7.88303 12.4075 3
    endloop
  endfacet
  facet normal 0.94595 -0.324313 0
    outer loop
      vertex 7.88303 12.4075 1.5
      vertex 2.16302 -4.27649 3
      vertex 2.16302 -4.27649 1.5
    endloop
  endfacet
  facet normal 0.992889 -0.119043 0
    outer loop
      vertex 7.88303 12.4075 3
      vertex 7.89427 12.5013 1.5
      vertex 7.89427 12.5013 3
    endloop
  endfacet
  facet normal 0.992889 -0.119043 0
    outer loop
      vertex 7.89427 12.5013 1.5
      vertex 7.88303 12.4075 3
      vertex 7.88303 12.4075 1.5
    endloop
  endfacet
  facet normal 0.999981 0.00616743 0
    outer loop
      vertex 7.89427 12.5013 3
      vertex 7.89372 12.5903 1.5
      vertex 7.89372 12.5903 3
    endloop
  endfacet
  facet normal 0.999981 0.00616743 0
    outer loop
      vertex 7.89372 12.5903 1.5
      vertex 7.89427 12.5013 3
      vertex 7.89427 12.5013 1.5
    endloop
  endfacet
  facet normal 0.990395 0.138266 0
    outer loop
      vertex 7.89372 12.5903 3
      vertex 7.88202 12.6742 1.5
      vertex 7.88202 12.6742 3
    endloop
  endfacet
  facet normal 0.990395 0.138266 0
    outer loop
      vertex 7.88202 12.6742 1.5
      vertex 7.89372 12.5903 3
      vertex 7.89372 12.5903 1.5
    endloop
  endfacet
  facet normal 0.961899 0.273404 0
    outer loop
      vertex 7.88202 12.6742 3
      vertex 7.85985 12.7522 1.5
      vertex 7.85985 12.7522 3
    endloop
  endfacet
  facet normal 0.961899 0.273404 0
    outer loop
      vertex 7.85985 12.7522 1.5
      vertex 7.88202 12.6742 3
      vertex 7.88202 12.6742 1.5
    endloop
  endfacet
  facet normal 0.913056 0.407833 0
    outer loop
      vertex 7.85985 12.7522 3
      vertex 7.82784 12.8239 1.5
      vertex 7.82784 12.8239 3
    endloop
  endfacet
  facet normal 0.913056 0.407833 0
    outer loop
      vertex 7.82784 12.8239 1.5
      vertex 7.85985 12.7522 3
      vertex 7.85985 12.7522 1.5
    endloop
  endfacet
  facet normal 0.843997 0.536348 0
    outer loop
      vertex 7.82784 12.8239 3
      vertex 7.78668 12.8886 1.5
      vertex 7.78668 12.8886 3
    endloop
  endfacet
  facet normal 0.843997 0.536348 0
    outer loop
      vertex 7.78668 12.8886 1.5
      vertex 7.82784 12.8239 3
      vertex 7.82784 12.8239 1.5
    endloop
  endfacet
  facet normal 0.755809 0.654793 0
    outer loop
      vertex 7.78668 12.8886 3
      vertex 7.73703 12.9459 1.5
      vertex 7.73703 12.9459 3
    endloop
  endfacet
  facet normal 0.755809 0.654793 0
    outer loop
      vertex 7.73703 12.9459 1.5
      vertex 7.78668 12.8886 3
      vertex 7.78668 12.8886 1.5
    endloop
  endfacet
  facet normal 0.651057 0.759029 -0
    outer loop
      vertex 7.73703 12.9459 1.5
      vertex 7.67953 12.9952 3
      vertex 7.73703 12.9459 3
    endloop
  endfacet
  facet normal 0.651057 0.759029 0
    outer loop
      vertex 7.67953 12.9952 3
      vertex 7.73703 12.9459 1.5
      vertex 7.67953 12.9952 1.5
    endloop
  endfacet
  facet normal 0.533422 0.845849 -0
    outer loop
      vertex 7.67953 12.9952 1.5
      vertex 7.61488 13.036 3
      vertex 7.67953 12.9952 3
    endloop
  endfacet
  facet normal 0.533422 0.845849 0
    outer loop
      vertex 7.61488 13.036 3
      vertex 7.67953 12.9952 1.5
      vertex 7.61488 13.036 1.5
    endloop
  endfacet
  facet normal 0.406557 0.913626 -0
    outer loop
      vertex 7.61488 13.036 1.5
      vertex 7.54373 13.0677 3
      vertex 7.61488 13.036 3
    endloop
  endfacet
  facet normal 0.406557 0.913626 0
    outer loop
      vertex 7.54373 13.0677 3
      vertex 7.61488 13.036 1.5
      vertex 7.54373 13.0677 1.5
    endloop
  endfacet
  facet normal 0.274897 0.961474 -0
    outer loop
      vertex 7.54373 13.0677 1.5
      vertex 7.46672 13.0897 3
      vertex 7.54373 13.0677 3
    endloop
  endfacet
  facet normal 0.274897 0.961474 0
    outer loop
      vertex 7.46672 13.0897 3
      vertex 7.54373 13.0677 1.5
      vertex 7.46672 13.0897 1.5
    endloop
  endfacet
  facet normal 0.142425 0.989806 -0
    outer loop
      vertex 7.46672 13.0897 1.5
      vertex 7.38454 13.1015 3
      vertex 7.46672 13.0897 3
    endloop
  endfacet
  facet normal 0.142425 0.989806 0
    outer loop
      vertex 7.38454 13.1015 3
      vertex 7.46672 13.0897 1.5
      vertex 7.38454 13.1015 1.5
    endloop
  endfacet
  facet normal 0.038183 0.999271 -0
    outer loop
      vertex 7.38454 13.1015 1.5
      vertex 7.33302 13.1035 3
      vertex 7.38454 13.1015 3
    endloop
  endfacet
  facet normal 0.038183 0.999271 0
    outer loop
      vertex 7.33302 13.1035 3
      vertex 7.38454 13.1015 1.5
      vertex 7.33302 13.1035 1.5
    endloop
  endfacet
  facet normal -0.000343916 1 0
    outer loop
      vertex 7.33302 13.1035 1.5
      vertex 4.80406 13.1026 3
      vertex 7.33302 13.1035 3
    endloop
  endfacet
  facet normal -0.000343916 1 0
    outer loop
      vertex 4.80406 13.1026 3
      vertex 7.33302 13.1035 1.5
      vertex 4.80406 13.1026 1.5
    endloop
  endfacet
  facet normal -0.109864 0.993947 0
    outer loop
      vertex 4.80406 13.1026 1.5
      vertex 4.71613 13.0929 3
      vertex 4.80406 13.1026 3
    endloop
  endfacet
  facet normal -0.109864 0.993947 0
    outer loop
      vertex 4.71613 13.0929 3
      vertex 4.80406 13.1026 1.5
      vertex 4.71613 13.0929 1.5
    endloop
  endfacet
  facet normal -0.232973 0.972483 0
    outer loop
      vertex 4.71613 13.0929 1.5
      vertex 4.61084 13.0677 3
      vertex 4.71613 13.0929 3
    endloop
  endfacet
  facet normal -0.232973 0.972483 0
    outer loop
      vertex 4.61084 13.0677 3
      vertex 4.71613 13.0929 1.5
      vertex 4.61084 13.0677 1.5
    endloop
  endfacet
  facet normal -0.354333 0.935119 0
    outer loop
      vertex 4.61084 13.0677 1.5
      vertex 4.50763 13.0286 3
      vertex 4.61084 13.0677 3
    endloop
  endfacet
  facet normal -0.354333 0.935119 0
    outer loop
      vertex 4.50763 13.0286 3
      vertex 4.61084 13.0677 1.5
      vertex 4.50763 13.0286 1.5
    endloop
  endfacet
  facet normal -0.464562 0.885541 0
    outer loop
      vertex 4.50763 13.0286 1.5
      vertex 4.40842 12.9765 3
      vertex 4.50763 13.0286 3
    endloop
  endfacet
  facet normal -0.464562 0.885541 0
    outer loop
      vertex 4.40842 12.9765 3
      vertex 4.50763 13.0286 1.5
      vertex 4.40842 12.9765 1.5
    endloop
  endfacet
  facet normal -0.565911 0.824466 0
    outer loop
      vertex 4.40842 12.9765 1.5
      vertex 4.31509 12.9125 3
      vertex 4.40842 12.9765 3
    endloop
  endfacet
  facet normal -0.565911 0.824466 0
    outer loop
      vertex 4.31509 12.9125 3
      vertex 4.40842 12.9765 1.5
      vertex 4.31509 12.9125 1.5
    endloop
  endfacet
  facet normal -0.659833 0.751413 0
    outer loop
      vertex 4.31509 12.9125 1.5
      vertex 4.22958 12.8374 3
      vertex 4.31509 12.9125 3
    endloop
  endfacet
  facet normal -0.659833 0.751413 0
    outer loop
      vertex 4.22958 12.8374 3
      vertex 4.31509 12.9125 1.5
      vertex 4.22958 12.8374 1.5
    endloop
  endfacet
  facet normal -0.7401 0.672497 0
    outer loop
      vertex 4.16568 12.767 1.5
      vertex 4.22958 12.8374 3
      vertex 4.22958 12.8374 1.5
    endloop
  endfacet
  facet normal -0.7401 0.672497 0
    outer loop
      vertex 4.22958 12.8374 3
      vertex 4.16568 12.767 1.5
      vertex 4.16568 12.767 3
    endloop
  endfacet
  facet normal -0.807791 0.589469 0
    outer loop
      vertex 4.10965 12.6903 1.5
      vertex 4.16568 12.767 3
      vertex 4.16568 12.767 1.5
    endloop
  endfacet
  facet normal -0.807791 0.589469 0
    outer loop
      vertex 4.16568 12.767 3
      vertex 4.10965 12.6903 1.5
      vertex 4.10965 12.6903 3
    endloop
  endfacet
  facet normal -0.869012 0.494792 0
    outer loop
      vertex 4.06256 12.6076 1.5
      vertex 4.10965 12.6903 3
      vertex 4.10965 12.6903 1.5
    endloop
  endfacet
  facet normal -0.869012 0.494792 0
    outer loop
      vertex 4.10965 12.6903 3
      vertex 4.06256 12.6076 1.5
      vertex 4.06256 12.6076 3
    endloop
  endfacet
  facet normal -0.921939 0.387336 0
    outer loop
      vertex 4.02556 12.5195 1.5
      vertex 4.06256 12.6076 3
      vertex 4.06256 12.6076 1.5
    endloop
  endfacet
  facet normal -0.921939 0.387336 0
    outer loop
      vertex 4.06256 12.6076 3
      vertex 4.02556 12.5195 1.5
      vertex 4.02556 12.5195 3
    endloop
  endfacet
  facet normal -0.96347 0.267815 0
    outer loop
      vertex 3.99974 12.4266 1.5
      vertex 4.02556 12.5195 3
      vertex 4.02556 12.5195 1.5
    endloop
  endfacet
  facet normal -0.96347 0.267815 0
    outer loop
      vertex 4.02556 12.5195 3
      vertex 3.99974 12.4266 1.5
      vertex 3.99974 12.4266 3
    endloop
  endfacet
  facet normal -0.981562 0.191142 0
    outer loop
      vertex 3.99602 12.4075 1.5
      vertex 3.99974 12.4266 3
      vertex 3.99974 12.4266 1.5
    endloop
  endfacet
  facet normal -0.981562 0.191142 0
    outer loop
      vertex 3.99974 12.4266 3
      vertex 3.99602 12.4075 1.5
      vertex 3.99602 12.4075 3
    endloop
  endfacet
  facet normal -0.946464 0.322809 0
    outer loop
      vertex 0.219025 1.3335 1.5
      vertex 3.99602 12.4075 3
      vertex 3.99602 12.4075 1.5
    endloop
  endfacet
  facet normal -0.946464 0.322809 0
    outer loop
      vertex 3.99602 12.4075 3
      vertex 0.219025 1.3335 1.5
      vertex 0.219025 1.3335 3
    endloop
  endfacet
  facet normal 0.945521 0.325561 0
    outer loop
      vertex 0.219025 1.3335 3
      vertex -3.59396 12.4075 1.5
      vertex -3.59396 12.4075 3
    endloop
  endfacet
  facet normal 0.945521 0.325561 0
    outer loop
      vertex -3.59396 12.4075 1.5
      vertex 0.219025 1.3335 3
      vertex 0.219025 1.3335 1.5
    endloop
  endfacet
  facet normal 0.970133 0.242573 0
    outer loop
      vertex -3.59396 12.4075 3
      vertex -3.61742 12.5013 1.5
      vertex -3.61742 12.5013 3
    endloop
  endfacet
  facet normal 0.970133 0.242573 0
    outer loop
      vertex -3.61742 12.5013 1.5
      vertex -3.59396 12.4075 3
      vertex -3.59396 12.4075 1.5
    endloop
  endfacet
  facet normal 0.931245 0.364393 0
    outer loop
      vertex -3.61742 12.5013 3
      vertex -3.65227 12.5903 1.5
      vertex -3.65227 12.5903 3
    endloop
  endfacet
  facet normal 0.931245 0.364393 0
    outer loop
      vertex -3.65227 12.5903 1.5
      vertex -3.61742 12.5013 3
      vertex -3.61742 12.5013 1.5
    endloop
  endfacet
  facet normal 0.880425 0.474186 0
    outer loop
      vertex -3.65227 12.5903 3
      vertex -3.69742 12.6742 1.5
      vertex -3.69742 12.6742 3
    endloop
  endfacet
  facet normal 0.880425 0.474186 0
    outer loop
      vertex -3.69742 12.6742 1.5
      vertex -3.65227 12.5903 3
      vertex -3.65227 12.5903 1.5
    endloop
  endfacet
  facet normal 0.820542 0.571586 0
    outer loop
      vertex -3.69742 12.6742 3
      vertex -3.75175 12.7522 1.5
      vertex -3.75175 12.7522 3
    endloop
  endfacet
  facet normal 0.820542 0.571586 0
    outer loop
      vertex -3.75175 12.7522 1.5
      vertex -3.69742 12.6742 3
      vertex -3.69742 12.6742 1.5
    endloop
  endfacet
  facet normal 0.747188 0.664613 0
    outer loop
      vertex -3.75175 12.7522 3
      vertex -3.82753 12.8374 1.5
      vertex -3.82753 12.8374 3
    endloop
  endfacet
  facet normal 0.747188 0.664613 0
    outer loop
      vertex -3.82753 12.8374 1.5
      vertex -3.75175 12.7522 3
      vertex -3.75175 12.7522 1.5
    endloop
  endfacet
  facet normal 0.659833 0.751413 -0
    outer loop
      vertex -3.82753 12.8374 1.5
      vertex -3.91304 12.9125 3
      vertex -3.82753 12.8374 3
    endloop
  endfacet
  facet normal 0.659833 0.751413 0
    outer loop
      vertex -3.91304 12.9125 3
      vertex -3.82753 12.8374 1.5
      vertex -3.91304 12.9125 1.5
    endloop
  endfacet
  facet normal 0.565911 0.824466 -0
    outer loop
      vertex -3.91304 12.9125 1.5
      vertex -4.00636 12.9765 3
      vertex -3.91304 12.9125 3
    endloop
  endfacet
  facet normal 0.565911 0.824466 0
    outer loop
      vertex -4.00636 12.9765 3
      vertex -3.91304 12.9125 1.5
      vertex -4.00636 12.9765 1.5
    endloop
  endfacet
  facet normal 0.464562 0.885541 -0
    outer loop
      vertex -4.00636 12.9765 1.5
      vertex -4.10558 13.0286 3
      vertex -4.00636 12.9765 3
    endloop
  endfacet
  facet normal 0.464562 0.885541 0
    outer loop
      vertex -4.10558 13.0286 3
      vertex -4.00636 12.9765 1.5
      vertex -4.10558 13.0286 1.5
    endloop
  endfacet
  facet normal 0.354333 0.935119 -0
    outer loop
      vertex -4.10558 13.0286 1.5
      vertex -4.20879 13.0677 3
      vertex -4.10558 13.0286 3
    endloop
  endfacet
  facet normal 0.354333 0.935119 0
    outer loop
      vertex -4.20879 13.0677 3
      vertex -4.10558 13.0286 1.5
      vertex -4.20879 13.0677 1.5
    endloop
  endfacet
  facet normal 0.233005 0.972476 -0
    outer loop
      vertex -4.20879 13.0677 1.5
      vertex -4.31406 13.0929 3
      vertex -4.20879 13.0677 3
    endloop
  endfacet
  facet normal 0.233005 0.972476 0
    outer loop
      vertex -4.31406 13.0929 3
      vertex -4.20879 13.0677 1.5
      vertex -4.31406 13.0929 1.5
    endloop
  endfacet
  facet normal 0.109845 0.993949 -0
    outer loop
      vertex -4.31406 13.0929 1.5
      vertex -4.40201 13.1026 3
      vertex -4.31406 13.0929 3
    endloop
  endfacet
  facet normal 0.109845 0.993949 0
    outer loop
      vertex -4.40201 13.1026 3
      vertex -4.31406 13.0929 1.5
      vertex -4.40201 13.1026 1.5
    endloop
  endfacet
  facet normal 0 1 -0
    outer loop
      vertex -4.40201 13.1026 1.5
      vertex -6.9688 13.1026 3
      vertex -4.40201 13.1026 3
    endloop
  endfacet
  facet normal 0 1 0
    outer loop
      vertex -6.9688 13.1026 3
      vertex -4.40201 13.1026 1.5
      vertex -6.9688 13.1026 1.5
    endloop
  endfacet
  facet normal -0.107885 0.994163 0
    outer loop
      vertex -6.9688 13.1026 1.5
      vertex -7.05836 13.0929 3
      vertex -6.9688 13.1026 3
    endloop
  endfacet
  facet normal -0.107885 0.994163 0
    outer loop
      vertex -7.05836 13.0929 3
      vertex -6.9688 13.1026 1.5
      vertex -7.05836 13.0929 1.5
    endloop
  endfacet
  facet normal -0.236761 0.971568 0
    outer loop
      vertex -7.05836 13.0929 1.5
      vertex -7.14058 13.0729 3
      vertex -7.05836 13.0929 3
    endloop
  endfacet
  facet normal -0.236761 0.971568 0
    outer loop
      vertex -7.14058 13.0729 3
      vertex -7.05836 13.0929 1.5
      vertex -7.14058 13.0729 1.5
    endloop
  endfacet
  facet normal -0.371096 0.928595 0
    outer loop
      vertex -7.14058 13.0729 1.5
      vertex -7.21507 13.0431 3
      vertex -7.14058 13.0729 3
    endloop
  endfacet
  facet normal -0.371096 0.928595 0
    outer loop
      vertex -7.21507 13.0431 3
      vertex -7.14058 13.0729 1.5
      vertex -7.21507 13.0431 1.5
    endloop
  endfacet
  facet normal -0.506172 0.862433 0
    outer loop
      vertex -7.21507 13.0431 1.5
      vertex -7.28152 13.0041 3
      vertex -7.21507 13.0431 3
    endloop
  endfacet
  facet normal -0.506172 0.862433 0
    outer loop
      vertex -7.28152 13.0041 3
      vertex -7.21507 13.0431 1.5
      vertex -7.28152 13.0041 1.5
    endloop
  endfacet
  facet normal -0.634111 0.773242 0
    outer loop
      vertex -7.28152 13.0041 1.5
      vertex -7.33961 12.9565 3
      vertex -7.28152 13.0041 3
    endloop
  endfacet
  facet normal -0.634111 0.773242 0
    outer loop
      vertex -7.33961 12.9565 3
      vertex -7.28152 13.0041 1.5
      vertex -7.33961 12.9565 1.5
    endloop
  endfacet
  facet normal -0.748527 0.663104 0
    outer loop
      vertex -7.38901 12.9007 1.5
      vertex -7.33961 12.9565 3
      vertex -7.33961 12.9565 1.5
    endloop
  endfacet
  facet normal -0.748527 0.663104 0
    outer loop
      vertex -7.33961 12.9565 3
      vertex -7.38901 12.9007 1.5
      vertex -7.38901 12.9007 3
    endloop
  endfacet
  facet normal -0.843285 0.537467 0
    outer loop
      vertex -7.42937 12.8374 1.5
      vertex -7.38901 12.9007 3
      vertex -7.38901 12.9007 1.5
    endloop
  endfacet
  facet normal -0.843285 0.537467 0
    outer loop
      vertex -7.38901 12.9007 3
      vertex -7.42937 12.8374 1.5
      vertex -7.42937 12.8374 3
    endloop
  endfacet
  facet normal -0.915019 0.40341 0
    outer loop
      vertex -7.46037 12.767 1.5
      vertex -7.42937 12.8374 3
      vertex -7.42937 12.8374 1.5
    endloop
  endfacet
  facet normal -0.915019 0.40341 0
    outer loop
      vertex -7.42937 12.8374 3
      vertex -7.46037 12.767 1.5
      vertex -7.46037 12.767 3
    endloop
  endfacet
  facet normal -0.963556 0.267506 0
    outer loop
      vertex -7.48169 12.6903 1.5
      vertex -7.46037 12.767 3
      vertex -7.46037 12.767 1.5
    endloop
  endfacet
  facet normal -0.963556 0.267506 0
    outer loop
      vertex -7.46037 12.767 3
      vertex -7.48169 12.6903 1.5
      vertex -7.48169 12.6903 3
    endloop
  endfacet
  facet normal -0.990783 0.135456 0
    outer loop
      vertex -7.493 12.6076 1.5
      vertex -7.48169 12.6903 3
      vertex -7.48169 12.6903 1.5
    endloop
  endfacet
  facet normal -0.990783 0.135456 0
    outer loop
      vertex -7.48169 12.6903 3
      vertex -7.493 12.6076 1.5
      vertex -7.493 12.6076 3
    endloop
  endfacet
  facet normal -0.999942 0.0107409 0
    outer loop
      vertex -7.49394 12.5195 1.5
      vertex -7.493 12.6076 3
      vertex -7.493 12.6076 1.5
    endloop
  endfacet
  facet normal -0.999942 0.0107409 0
    outer loop
      vertex -7.493 12.6076 3
      vertex -7.49394 12.5195 1.5
      vertex -7.49394 12.5195 3
    endloop
  endfacet
  facet normal -0.994569 -0.104081 0
    outer loop
      vertex -7.48422 12.4266 1.5
      vertex -7.49394 12.5195 3
      vertex -7.49394 12.5195 1.5
    endloop
  endfacet
  facet normal -0.994569 -0.104081 0
    outer loop
      vertex -7.49394 12.5195 3
      vertex -7.48422 12.4266 1.5
      vertex -7.48422 12.4266 3
    endloop
  endfacet
  facet normal -0.985857 -0.167588 0
    outer loop
      vertex -7.48097 12.4075 1.5
      vertex -7.48422 12.4266 3
      vertex -7.48422 12.4266 1.5
    endloop
  endfacet
  facet normal -0.985857 -0.167588 0
    outer loop
      vertex -7.48422 12.4266 3
      vertex -7.48097 12.4075 1.5
      vertex -7.48097 12.4075 3
    endloop
  endfacet
  facet normal -0.94595 -0.324313 0
    outer loop
      vertex -1.76097 -4.27649 1.5
      vertex -7.48097 12.4075 3
      vertex -7.48097 12.4075 1.5
    endloop
  endfacet
  facet normal -0.94595 -0.324313 0
    outer loop
      vertex -7.48097 12.4075 3
      vertex -1.76097 -4.27649 1.5
      vertex -1.76097 -4.27649 3
    endloop
  endfacet
  facet normal 0 -1 0
    outer loop
      vertex -1.76097 -4.27649 1.5
      vertex -1.72397 -4.27649 3
      vertex -1.76097 -4.27649 3
    endloop
  endfacet
  facet normal 0 -1 -0
    outer loop
      vertex -1.72397 -4.27649 3
      vertex -1.76097 -4.27649 1.5
      vertex -1.72397 -4.27649 1.5
    endloop
  endfacet
  facet normal -1 -0.00011602 0
    outer loop
      vertex -1.72308 -11.9045 1.5
      vertex -1.72397 -4.27649 3
      vertex -1.72397 -4.27649 1.5
    endloop
  endfacet
  facet normal -1 -0.00011602 0
    outer loop
      vertex -1.72397 -4.27649 3
      vertex -1.72308 -11.9045 1.5
      vertex -1.72308 -11.9045 3
    endloop
  endfacet
  facet normal -0.994461 -0.105106 0
    outer loop
      vertex -1.71336 -11.9965 1.5
      vertex -1.72308 -11.9045 3
      vertex -1.72308 -11.9045 1.5
    endloop
  endfacet
  facet normal -0.994461 -0.105106 0
    outer loop
      vertex -1.72308 -11.9045 3
      vertex -1.71336 -11.9965 1.5
      vertex -1.71336 -11.9965 3
    endloop
  endfacet
  facet normal -0.974515 -0.224323 0
    outer loop
      vertex -1.69333 -12.0835 1.5
      vertex -1.71336 -11.9965 3
      vertex -1.71336 -11.9965 1.5
    endloop
  endfacet
  facet normal -0.974515 -0.224323 0
    outer loop
      vertex -1.71336 -11.9965 3
      vertex -1.69333 -12.0835 1.5
      vertex -1.69333 -12.0835 3
    endloop
  endfacet
  facet normal -0.93932 -0.343041 0
    outer loop
      vertex -1.66354 -12.1651 1.5
      vertex -1.69333 -12.0835 3
      vertex -1.69333 -12.0835 1.5
    endloop
  endfacet
  facet normal -0.93932 -0.343041 0
    outer loop
      vertex -1.69333 -12.0835 3
      vertex -1.66354 -12.1651 1.5
      vertex -1.66354 -12.1651 3
    endloop
  endfacet
  facet normal -0.8885 -0.458876 0
    outer loop
      vertex -1.62453 -12.2406 1.5
      vertex -1.66354 -12.1651 3
      vertex -1.66354 -12.1651 1.5
    endloop
  endfacet
  facet normal -0.8885 -0.458876 0
    outer loop
      vertex -1.66354 -12.1651 3
      vertex -1.62453 -12.2406 1.5
      vertex -1.62453 -12.2406 3
    endloop
  endfacet
  facet normal -0.822552 -0.568689 0
    outer loop
      vertex -1.57684 -12.3096 1.5
      vertex -1.62453 -12.2406 3
      vertex -1.62453 -12.2406 1.5
    endloop
  endfacet
  facet normal -0.822552 -0.568689 0
    outer loop
      vertex -1.62453 -12.2406 3
      vertex -1.57684 -12.3096 1.5
      vertex -1.57684 -12.3096 3
    endloop
  endfacet
  facet normal -0.742355 -0.670006 0
    outer loop
      vertex -1.52103 -12.3715 1.5
      vertex -1.57684 -12.3096 3
      vertex -1.57684 -12.3096 1.5
    endloop
  endfacet
  facet normal -0.742355 -0.670006 0
    outer loop
      vertex -1.57684 -12.3096 3
      vertex -1.52103 -12.3715 1.5
      vertex -1.52103 -12.3715 3
    endloop
  endfacet
  facet normal -0.649781 -0.760121 0
    outer loop
      vertex -1.52103 -12.3715 1.5
      vertex -1.45764 -12.4256 3
      vertex -1.52103 -12.3715 3
    endloop
  endfacet
  facet normal -0.649781 -0.760121 -0
    outer loop
      vertex -1.45764 -12.4256 3
      vertex -1.52103 -12.3715 1.5
      vertex -1.45764 -12.4256 1.5
    endloop
  endfacet
  facet normal -0.54655 -0.837426 0
    outer loop
      vertex -1.45764 -12.4256 1.5
      vertex -1.38722 -12.4716 3
      vertex -1.45764 -12.4256 3
    endloop
  endfacet
  facet normal -0.54655 -0.837426 -0
    outer loop
      vertex -1.38722 -12.4716 3
      vertex -1.45764 -12.4256 1.5
      vertex -1.38722 -12.4716 1.5
    endloop
  endfacet
  facet normal -0.435313 -0.900279 0
    outer loop
      vertex -1.38722 -12.4716 1.5
      vertex -1.31032 -12.5088 3
      vertex -1.38722 -12.4716 3
    endloop
  endfacet
  facet normal -0.435313 -0.900279 -0
    outer loop
      vertex -1.31032 -12.5088 3
      vertex -1.38722 -12.4716 1.5
      vertex -1.31032 -12.5088 1.5
    endloop
  endfacet
  facet normal -0.318897 -0.947789 0
    outer loop
      vertex -1.31032 -12.5088 1.5
      vertex -1.22746 -12.5367 3
      vertex -1.31032 -12.5088 3
    endloop
  endfacet
  facet normal -0.318897 -0.947789 -0
    outer loop
      vertex -1.22746 -12.5367 3
      vertex -1.31032 -12.5088 1.5
      vertex -1.22746 -12.5367 1.5
    endloop
  endfacet
  facet normal -0.199927 -0.979811 0
    outer loop
      vertex -1.22746 -12.5367 1.5
      vertex -1.13922 -12.5547 3
      vertex -1.22746 -12.5367 3
    endloop
  endfacet
  facet normal -0.199927 -0.979811 -0
    outer loop
      vertex -1.13922 -12.5547 3
      vertex -1.22746 -12.5367 1.5
      vertex -1.13922 -12.5547 1.5
    endloop
  endfacet
  facet normal -0.0932518 -0.995643 0
    outer loop
      vertex -1.13922 -12.5547 1.5
      vertex -1.06509 -12.5616 3
      vertex -1.13922 -12.5547 3
    endloop
  endfacet
  facet normal -0.0932518 -0.995643 -0
    outer loop
      vertex -1.06509 -12.5616 3
      vertex -1.13922 -12.5547 1.5
      vertex -1.06509 -12.5616 1.5
    endloop
  endfacet
endsolid OpenSCAD_Model
