solid OpenSCAD_Model
  facet normal -1 0 0
    outer loop
      vertex -14 -14 0.5
      vertex -14 14 1.5
      vertex -14 14 0.5
    endloop
  endfacet
  facet normal -1 -0 0
    outer loop
      vertex -14 14 1.5
      vertex -14 -14 0.5
      vertex -14 -14 1.5
    endloop
  endfacet
  facet normal 0 0 1
    outer loop
      vertex 14 14 1.5
      vertex 4.34915 1.59048 1.5
      vertex 4.34981 -0.955643 1.5
    endloop
  endfacet
  facet normal 0 0 1
    outer loop
      vertex 5.1676 9.29233 1.5
      vertex 4.33943 1.67604 1.5
      vertex 4.34915 1.59048 1.5
    endloop
  endfacet
  facet normal 0 0 1
    outer loop
      vertex 5.1676 9.29233 1.5
      vertex 4.31941 1.75903 1.5
      vertex 4.33943 1.67604 1.5
    endloop
  endfacet
  facet normal 0 0 1
    outer loop
      vertex 5.1676 9.29233 1.5
      vertex 4.28963 1.83856 1.5
      vertex 4.31941 1.75903 1.5
    endloop
  endfacet
  facet normal 0 0 1
    outer loop
      vertex 5.1676 9.29233 1.5
      vertex 4.25064 1.91376 1.5
      vertex 4.28963 1.83856 1.5
    endloop
  endfacet
  facet normal 0 0 1
    outer loop
      vertex 5.1676 9.29233 1.5
      vertex 4.20299 1.98373 1.5
      vertex 4.25064 1.91376 1.5
    endloop
  endfacet
  facet normal 0 0 1
    outer loop
      vertex 5.1676 9.29233 1.5
      vertex 4.14723 2.04758 1.5
      vertex 4.20299 1.98373 1.5
    endloop
  endfacet
  facet normal 0 0 1
    outer loop
      vertex 5.1676 9.29233 1.5
      vertex 4.08392 2.10442 1.5
      vertex 4.14723 2.04758 1.5
    endloop
  endfacet
  facet normal 0 0 1
    outer loop
      vertex 5.1676 9.29233 1.5
      vertex 4.0136 2.15337 1.5
      vertex 4.08392 2.10442 1.5
    endloop
  endfacet
  facet normal 0 0 1
    outer loop
      vertex 5.1676 9.29233 1.5
      vertex 3.9368 2.19354 1.5
      vertex 4.0136 2.15337 1.5
    endloop
  endfacet
  facet normal 0 0 1
    outer loop
      vertex 5.08186 9.28262 1.5
      vertex 3.8541 2.22404 1.5
      vertex 3.9368 2.19354 1.5
    endloop
  endfacet
  facet normal 0 0 1
    outer loop
      vertex 5.08186 9.28262 1.5
      vertex 3.76602 2.24399 1.5
      vertex 3.8541 2.22404 1.5
    endloop
  endfacet
  facet normal 0 0 1
    outer loop
      vertex 5.08186 9.28262 1.5
      vertex 3.67314 2.25249 1.5
      vertex 3.76602 2.24399 1.5
    endloop
  endfacet
  facet normal -0 0 1
    outer loop
      vertex -1.58995 9.28174 1.5
      vertex 3.67314 2.25249 1.5
      vertex 5.08186 9.28262 1.5
    endloop
  endfacet
  facet normal 0 0 1
    outer loop
      vertex 3.67314 2.25249 1.5
      vertex -1.58995 9.28174 1.5
      vertex -1.58995 2.25275 1.5
    endloop
  endfacet
  facet normal 0 0 1
    outer loop
      vertex 5.74304 9.9071 1.5
      vertex 14 14 1.5
      vertex 5.74304 12.4738 1.5
    endloop
  endfacet
  facet normal 0 0 1
    outer loop
      vertex 14 14 1.5
      vertex 5.73221 12.5658 1.5
      vertex 5.74304 12.4738 1.5
    endloop
  endfacet
  facet normal 0 0 1
    outer loop
      vertex 14 14 1.5
      vertex 5.71014 12.6529 1.5
      vertex 5.73221 12.5658 1.5
    endloop
  endfacet
  facet normal 0 0 1
    outer loop
      vertex 14 14 1.5
      vertex 5.6777 12.7345 1.5
      vertex 5.71014 12.6529 1.5
    endloop
  endfacet
  facet normal 0 0 1
    outer loop
      vertex 14 14 1.5
      vertex 5.63579 12.8102 1.5
      vertex 5.6777 12.7345 1.5
    endloop
  endfacet
  facet normal 0 0 1
    outer loop
      vertex 14 14 1.5
      vertex 5.58527 12.8793 1.5
      vertex 5.63579 12.8102 1.5
    endloop
  endfacet
  facet normal 0 0 1
    outer loop
      vertex 14 14 1.5
      vertex 5.52701 12.9412 1.5
      vertex 5.58527 12.8793 1.5
    endloop
  endfacet
  facet normal 0 0 1
    outer loop
      vertex 14 14 1.5
      vertex 5.46191 12.9955 1.5
      vertex 5.52701 12.9412 1.5
    endloop
  endfacet
  facet normal 0 0 1
    outer loop
      vertex 14 14 1.5
      vertex 5.39085 13.0416 1.5
      vertex 5.46191 12.9955 1.5
    endloop
  endfacet
  facet normal 0 0 1
    outer loop
      vertex 14 14 1.5
      vertex 5.3147 13.0789 1.5
      vertex 5.39085 13.0416 1.5
    endloop
  endfacet
  facet normal 0 0 1
    outer loop
      vertex 14 14 1.5
      vertex 5.23433 13.1068 1.5
      vertex 5.3147 13.0789 1.5
    endloop
  endfacet
  facet normal 0 0 1
    outer loop
      vertex 14 14 1.5
      vertex 5.15063 13.1249 1.5
      vertex 5.23433 13.1068 1.5
    endloop
  endfacet
  facet normal 0 0 1
    outer loop
      vertex 14 14 1.5
      vertex 5.06448 13.1325 1.5
      vertex 5.15063 13.1249 1.5
    endloop
  endfacet
  facet normal 0 0 1
    outer loop
      vertex 14 14 1.5
      vertex -4.78099 13.1319 1.5
      vertex 5.06448 13.1325 1.5
    endloop
  endfacet
  facet normal 0 0 1
    outer loop
      vertex -5.43211 12.5478 1.5
      vertex -14 14 1.5
      vertex -5.43973 12.4548 1.5
    endloop
  endfacet
  facet normal 0 0 1
    outer loop
      vertex -5.41405 12.6359 1.5
      vertex -14 14 1.5
      vertex -5.43211 12.5478 1.5
    endloop
  endfacet
  facet normal 0 0 1
    outer loop
      vertex -5.38609 12.7187 1.5
      vertex -14 14 1.5
      vertex -5.41405 12.6359 1.5
    endloop
  endfacet
  facet normal 0 0 1
    outer loop
      vertex -5.3488 12.7956 1.5
      vertex -14 14 1.5
      vertex -5.38609 12.7187 1.5
    endloop
  endfacet
  facet normal 0 0 1
    outer loop
      vertex -5.30273 12.866 1.5
      vertex -14 14 1.5
      vertex -5.3488 12.7956 1.5
    endloop
  endfacet
  facet normal 0 0 1
    outer loop
      vertex -5.24843 12.9294 1.5
      vertex -14 14 1.5
      vertex -5.30273 12.866 1.5
    endloop
  endfacet
  facet normal 0 0 1
    outer loop
      vertex -5.18646 12.9853 1.5
      vertex -14 14 1.5
      vertex -5.24843 12.9294 1.5
    endloop
  endfacet
  facet normal 0 0 1
    outer loop
      vertex -5.11739 13.0331 1.5
      vertex -14 14 1.5
      vertex -5.18646 12.9853 1.5
    endloop
  endfacet
  facet normal 0 0 1
    outer loop
      vertex -5.04175 13.0722 1.5
      vertex -14 14 1.5
      vertex -5.11739 13.0331 1.5
    endloop
  endfacet
  facet normal 0 0 1
    outer loop
      vertex -4.9601 13.102 1.5
      vertex -14 14 1.5
      vertex -5.04175 13.0722 1.5
    endloop
  endfacet
  facet normal 0 0 1
    outer loop
      vertex -4.87299 13.1221 1.5
      vertex -14 14 1.5
      vertex -4.9601 13.102 1.5
    endloop
  endfacet
  facet normal 0 0 1
    outer loop
      vertex -4.78099 13.1319 1.5
      vertex -14 14 1.5
      vertex -4.87299 13.1221 1.5
    endloop
  endfacet
  facet normal -0 0 1
    outer loop
      vertex -14 14 1.5
      vertex -4.78099 13.1319 1.5
      vertex 14 14 1.5
    endloop
  endfacet
  facet normal 0 0 1
    outer loop
      vertex 5.73221 9.82271 1.5
      vertex 14 14 1.5
      vertex 5.74304 9.9071 1.5
    endloop
  endfacet
  facet normal 0 0 1
    outer loop
      vertex 5.71014 9.74197 1.5
      vertex 14 14 1.5
      vertex 5.73221 9.82271 1.5
    endloop
  endfacet
  facet normal 0 0 1
    outer loop
      vertex 5.6777 9.66554 1.5
      vertex 14 14 1.5
      vertex 5.71014 9.74197 1.5
    endloop
  endfacet
  facet normal 0 0 1
    outer loop
      vertex 5.63579 9.5941 1.5
      vertex 14 14 1.5
      vertex 5.6777 9.66554 1.5
    endloop
  endfacet
  facet normal 0 0 1
    outer loop
      vertex 4.34915 1.59048 1.5
      vertex 14 14 1.5
      vertex 5.63579 9.5941 1.5
    endloop
  endfacet
  facet normal 0 0 1
    outer loop
      vertex 4.34915 1.59048 1.5
      vertex 5.63579 9.5941 1.5
      vertex 5.58527 9.52832 1.5
    endloop
  endfacet
  facet normal 0 0 1
    outer loop
      vertex 4.34915 1.59048 1.5
      vertex 5.58527 9.52832 1.5
      vertex 5.51451 9.45776 1.5
    endloop
  endfacet
  facet normal 0 0 1
    outer loop
      vertex 4.34915 1.59048 1.5
      vertex 5.51451 9.45776 1.5
      vertex 5.43416 9.39748 1.5
    endloop
  endfacet
  facet normal 0 0 1
    outer loop
      vertex 4.34915 1.59048 1.5
      vertex 5.43416 9.39748 1.5
      vertex 5.34572 9.34857 1.5
    endloop
  endfacet
  facet normal 0 0 1
    outer loop
      vertex 4.34915 1.59048 1.5
      vertex 5.34572 9.34857 1.5
      vertex 5.2507 9.31221 1.5
    endloop
  endfacet
  facet normal 0 0 1
    outer loop
      vertex 4.34915 1.59048 1.5
      vertex 5.2507 9.31221 1.5
      vertex 5.1676 9.29233 1.5
    endloop
  endfacet
  facet normal 0 0 1
    outer loop
      vertex 3.9368 2.19354 1.5
      vertex 5.1676 9.29233 1.5
      vertex 5.08186 9.28262 1.5
    endloop
  endfacet
  facet normal 0 0 1
    outer loop
      vertex 14 14 1.5
      vertex 4.34981 -0.955643 1.5
      vertex 14 -14 1.5
    endloop
  endfacet
  facet normal -0 0 1
    outer loop
      vertex 4.34222 -1.04158 1.5
      vertex 14 -14 1.5
      vertex 4.34981 -0.955643 1.5
    endloop
  endfacet
  facet normal -0 0 1
    outer loop
      vertex 4.32422 -1.12509 1.5
      vertex 14 -14 1.5
      vertex 4.34222 -1.04158 1.5
    endloop
  endfacet
  facet normal -0 0 1
    outer loop
      vertex 4.29634 -1.20532 1.5
      vertex 14 -14 1.5
      vertex 4.32422 -1.12509 1.5
    endloop
  endfacet
  facet normal -0 0 1
    outer loop
      vertex 4.25914 -1.28136 1.5
      vertex 14 -14 1.5
      vertex 4.29634 -1.20532 1.5
    endloop
  endfacet
  facet normal -0 0 1
    outer loop
      vertex 4.21318 -1.35233 1.5
      vertex 14 -14 1.5
      vertex 4.25914 -1.28136 1.5
    endloop
  endfacet
  facet normal -0 0 1
    outer loop
      vertex 4.15901 -1.41736 1.5
      vertex 14 -14 1.5
      vertex 4.21318 -1.35233 1.5
    endloop
  endfacet
  facet normal -0 0 1
    outer loop
      vertex 4.09717 -1.47556 1.5
      vertex 14 -14 1.5
      vertex 4.15901 -1.41736 1.5
    endloop
  endfacet
  facet normal -0 0 1
    outer loop
      vertex 4.0282 -1.52603 1.5
      vertex 14 -14 1.5
      vertex 4.09717 -1.47556 1.5
    endloop
  endfacet
  facet normal -0 0 1
    outer loop
      vertex 3.95265 -1.56793 1.5
      vertex 14 -14 1.5
      vertex 4.0282 -1.52603 1.5
    endloop
  endfacet
  facet normal -0 0 1
    outer loop
      vertex 3.87108 -1.60036 1.5
      vertex 14 -14 1.5
      vertex 3.95265 -1.56793 1.5
    endloop
  endfacet
  facet normal 0 0 1
    outer loop
      vertex -1.59016 -11.8474 1.5
      vertex 3.87108 -1.60036 1.5
      vertex 3.78404 -1.62242 1.5
    endloop
  endfacet
  facet normal 0 0 1
    outer loop
      vertex -1.59016 -11.8474 1.5
      vertex 3.78404 -1.62242 1.5
      vertex 3.69208 -1.63326 1.5
    endloop
  endfacet
  facet normal 0 0 1
    outer loop
      vertex -1.59016 -11.8474 1.5
      vertex 3.69208 -1.63326 1.5
      vertex -1.58995 -1.63425 1.5
    endloop
  endfacet
  facet normal 0 0 1
    outer loop
      vertex 3.87108 -1.60036 1.5
      vertex -1.59016 -11.8474 1.5
      vertex 14 -14 1.5
    endloop
  endfacet
  facet normal -0 0 1
    outer loop
      vertex -1.59776 -11.9402 1.5
      vertex 14 -14 1.5
      vertex -1.59016 -11.8474 1.5
    endloop
  endfacet
  facet normal -0 0 1
    outer loop
      vertex -1.61577 -12.0283 1.5
      vertex 14 -14 1.5
      vertex -1.59776 -11.9402 1.5
    endloop
  endfacet
  facet normal -0 0 1
    outer loop
      vertex -1.64365 -12.111 1.5
      vertex 14 -14 1.5
      vertex -1.61577 -12.0283 1.5
    endloop
  endfacet
  facet normal -0 0 1
    outer loop
      vertex -1.68083 -12.1878 1.5
      vertex 14 -14 1.5
      vertex -1.64365 -12.111 1.5
    endloop
  endfacet
  facet normal -0 0 1
    outer loop
      vertex -1.72679 -12.2581 1.5
      vertex 14 -14 1.5
      vertex -1.68083 -12.1878 1.5
    endloop
  endfacet
  facet normal -0 0 1
    outer loop
      vertex -1.78098 -12.3214 1.5
      vertex 14 -14 1.5
      vertex -1.72679 -12.2581 1.5
    endloop
  endfacet
  facet normal -0 0 1
    outer loop
      vertex -1.84282 -12.3772 1.5
      vertex 14 -14 1.5
      vertex -1.78098 -12.3214 1.5
    endloop
  endfacet
  facet normal -0 0 1
    outer loop
      vertex -1.91179 -12.4249 1.5
      vertex 14 -14 1.5
      vertex -1.84282 -12.3772 1.5
    endloop
  endfacet
  facet normal -0 0 1
    outer loop
      vertex -1.98734 -12.4638 1.5
      vertex 14 -14 1.5
      vertex -1.91179 -12.4249 1.5
    endloop
  endfacet
  facet normal -0 0 1
    outer loop
      vertex -2.06891 -12.4936 1.5
      vertex 14 -14 1.5
      vertex -1.98734 -12.4638 1.5
    endloop
  endfacet
  facet normal -0 0 1
    outer loop
      vertex -2.15594 -12.5136 1.5
      vertex 14 -14 1.5
      vertex -2.06891 -12.4936 1.5
    endloop
  endfacet
  facet normal -0 0 1
    outer loop
      vertex -2.24791 -12.5234 1.5
      vertex 14 -14 1.5
      vertex -2.15594 -12.5136 1.5
    endloop
  endfacet
  facet normal 0 0 1
    outer loop
      vertex -14 -14 1.5
      vertex -2.24791 -12.5234 1.5
      vertex -4.78099 -12.5234 1.5
    endloop
  endfacet
  facet normal 0 0 1
    outer loop
      vertex -14 14 1.5
      vertex -5.43907 -11.8663 1.5
      vertex -5.43973 12.4548 1.5
    endloop
  endfacet
  facet normal 0 0 1
    outer loop
      vertex -14 -14 1.5
      vertex -5.43907 -11.8663 1.5
      vertex -14 14 1.5
    endloop
  endfacet
  facet normal 0 0 1
    outer loop
      vertex -5.43907 -11.8663 1.5
      vertex -14 -14 1.5
      vertex -5.42932 -11.9583 1.5
    endloop
  endfacet
  facet normal 0 0 1
    outer loop
      vertex -2.24791 -12.5234 1.5
      vertex -14 -14 1.5
      vertex 14 -14 1.5
    endloop
  endfacet
  facet normal 0 0 1
    outer loop
      vertex -4.85497 -12.5164 1.5
      vertex -14 -14 1.5
      vertex -4.78099 -12.5234 1.5
    endloop
  endfacet
  facet normal 0 0 1
    outer loop
      vertex -4.94308 -12.4984 1.5
      vertex -14 -14 1.5
      vertex -4.85497 -12.5164 1.5
    endloop
  endfacet
  facet normal 0 0 1
    outer loop
      vertex -5.02588 -12.4706 1.5
      vertex -14 -14 1.5
      vertex -4.94308 -12.4984 1.5
    endloop
  endfacet
  facet normal 0 0 1
    outer loop
      vertex -5.10277 -12.4333 1.5
      vertex -14 -14 1.5
      vertex -5.02588 -12.4706 1.5
    endloop
  endfacet
  facet normal 0 0 1
    outer loop
      vertex -5.1732 -12.3874 1.5
      vertex -14 -14 1.5
      vertex -5.10277 -12.4333 1.5
    endloop
  endfacet
  facet normal 0 0 1
    outer loop
      vertex -5.23663 -12.3332 1.5
      vertex -14 -14 1.5
      vertex -5.1732 -12.3874 1.5
    endloop
  endfacet
  facet normal 0 0 1
    outer loop
      vertex -5.29251 -12.2714 1.5
      vertex -14 -14 1.5
      vertex -5.23663 -12.3332 1.5
    endloop
  endfacet
  facet normal 0 0 1
    outer loop
      vertex -5.34027 -12.2024 1.5
      vertex -14 -14 1.5
      vertex -5.29251 -12.2714 1.5
    endloop
  endfacet
  facet normal 0 0 1
    outer loop
      vertex -5.37936 -12.1269 1.5
      vertex -14 -14 1.5
      vertex -5.34027 -12.2024 1.5
    endloop
  endfacet
  facet normal 0 0 1
    outer loop
      vertex -5.40923 -12.0453 1.5
      vertex -14 -14 1.5
      vertex -5.37936 -12.1269 1.5
    endloop
  endfacet
  facet normal 0 0 1
    outer loop
      vertex -5.42932 -11.9583 1.5
      vertex -14 -14 1.5
      vertex -5.40923 -12.0453 1.5
    endloop
  endfacet
  facet normal 1 -0 0
    outer loop
      vertex 14 -14 1.5
      vertex 14 14 0.5
      vertex 14 14 1.5
    endloop
  endfacet
  facet normal 1 0 0
    outer loop
      vertex 14 14 0.5
      vertex 14 -14 1.5
      vertex 14 -14 0.5
    endloop
  endfacet
  facet normal 0 1 -0
    outer loop
      vertex 14 14 0.5
      vertex -14 14 1.5
      vertex 14 14 1.5
    endloop
  endfacet
  facet normal 0 1 0
    outer loop
      vertex -14 14 1.5
      vertex 14 14 0.5
      vertex -14 14 0.5
    endloop
  endfacet
  facet normal 0 0 -1
    outer loop
      vertex -14 -14 0.5
      vertex 14 14 0.5
      vertex 14 -14 0.5
    endloop
  endfacet
  facet normal -0 0 -1
    outer loop
      vertex 14 14 0.5
      vertex -14 -14 0.5
      vertex -14 14 0.5
    endloop
  endfacet
  facet normal 0 -1 0
    outer loop
      vertex -14 -14 0.5
      vertex 14 -14 1.5
      vertex -14 -14 1.5
    endloop
  endfacet
  facet normal 0 -1 -0
    outer loop
      vertex 14 -14 1.5
      vertex -14 -14 0.5
      vertex 14 -14 0.5
    endloop
  endfacet
  facet normal 0 0 1
    outer loop
      vertex 5.06448 13.1325 3
      vertex 5.74304 12.4738 3
      vertex 5.73221 12.5658 3
    endloop
  endfacet
  facet normal 0 -0 1
    outer loop
      vertex 5.08186 9.28262 3
      vertex 5.74304 12.4738 3
      vertex 5.06448 13.1325 3
    endloop
  endfacet
  facet normal 0 0 1
    outer loop
      vertex 5.06448 13.1325 3
      vertex 5.73221 12.5658 3
      vertex 5.71014 12.6529 3
    endloop
  endfacet
  facet normal 0 0 1
    outer loop
      vertex 5.74304 12.4738 3
      vertex 5.08186 9.28262 3
      vertex 5.74304 9.9071 3
    endloop
  endfacet
  facet normal 0 0 1
    outer loop
      vertex 5.06448 13.1325 3
      vertex 5.71014 12.6529 3
      vertex 5.6777 12.7345 3
    endloop
  endfacet
  facet normal 0 -0 1
    outer loop
      vertex 5.43416 9.39748 3
      vertex 5.74304 9.9071 3
      vertex 5.08186 9.28262 3
    endloop
  endfacet
  facet normal 0 0 1
    outer loop
      vertex 5.06448 13.1325 3
      vertex 5.6777 12.7345 3
      vertex 5.63579 12.8102 3
    endloop
  endfacet
  facet normal 0 -0 1
    outer loop
      vertex 5.51451 9.45776 3
      vertex 5.74304 9.9071 3
      vertex 5.43416 9.39748 3
    endloop
  endfacet
  facet normal 0 0 1
    outer loop
      vertex 5.06448 13.1325 3
      vertex 5.63579 12.8102 3
      vertex 5.58527 12.8793 3
    endloop
  endfacet
  facet normal 0 0 1
    outer loop
      vertex 5.74304 9.9071 3
      vertex 5.58527 9.52832 3
      vertex 5.73221 9.82271 3
    endloop
  endfacet
  facet normal 0 0 1
    outer loop
      vertex 5.06448 13.1325 3
      vertex 5.58527 12.8793 3
      vertex 5.52701 12.9412 3
    endloop
  endfacet
  facet normal 0 0 1
    outer loop
      vertex 5.71014 9.74197 3
      vertex 5.63579 9.5941 3
      vertex 5.6777 9.66554 3
    endloop
  endfacet
  facet normal 0 0 1
    outer loop
      vertex 5.06448 13.1325 3
      vertex 5.52701 12.9412 3
      vertex 5.46191 12.9955 3
    endloop
  endfacet
  facet normal 0 0 1
    outer loop
      vertex 5.71014 9.74197 3
      vertex 5.58527 9.52832 3
      vertex 5.63579 9.5941 3
    endloop
  endfacet
  facet normal 0 0 1
    outer loop
      vertex 5.06448 13.1325 3
      vertex 5.46191 12.9955 3
      vertex 5.39085 13.0416 3
    endloop
  endfacet
  facet normal 0 0 1
    outer loop
      vertex 5.73221 9.82271 3
      vertex 5.58527 9.52832 3
      vertex 5.71014 9.74197 3
    endloop
  endfacet
  facet normal 0 0 1
    outer loop
      vertex 5.06448 13.1325 3
      vertex 5.39085 13.0416 3
      vertex 5.3147 13.0789 3
    endloop
  endfacet
  facet normal 0 -0 1
    outer loop
      vertex 5.58527 9.52832 3
      vertex 5.74304 9.9071 3
      vertex 5.51451 9.45776 3
    endloop
  endfacet
  facet normal 0 0 1
    outer loop
      vertex 5.06448 13.1325 3
      vertex 5.3147 13.0789 3
      vertex 5.23433 13.1068 3
    endloop
  endfacet
  facet normal 0 0 1
    outer loop
      vertex 5.43416 9.39748 3
      vertex 5.08186 9.28262 3
      vertex 5.34572 9.34857 3
    endloop
  endfacet
  facet normal 0 0 1
    outer loop
      vertex 5.06448 13.1325 3
      vertex 5.23433 13.1068 3
      vertex 5.15063 13.1249 3
    endloop
  endfacet
  facet normal 0 0 1
    outer loop
      vertex 5.34572 9.34857 3
      vertex 5.08186 9.28262 3
      vertex 5.2507 9.31221 3
    endloop
  endfacet
  facet normal 0 0 1
    outer loop
      vertex 5.2507 9.31221 3
      vertex 5.08186 9.28262 3
      vertex 5.1676 9.29233 3
    endloop
  endfacet
  facet normal 0 0 1
    outer loop
      vertex 5.06448 13.1325 3
      vertex -1.58995 9.28174 3
      vertex 5.08186 9.28262 3
    endloop
  endfacet
  facet normal 0 0 1
    outer loop
      vertex -5.43973 12.4548 3
      vertex -1.58995 2.25275 3
      vertex -1.58995 9.28174 3
    endloop
  endfacet
  facet normal 0 0 1
    outer loop
      vertex -1.58995 2.25275 3
      vertex -5.43973 12.4548 3
      vertex -1.58995 -1.63425 3
    endloop
  endfacet
  facet normal 0 0 1
    outer loop
      vertex -1.58995 -1.63425 3
      vertex -5.43907 -11.8663 3
      vertex -1.59016 -11.8474 3
    endloop
  endfacet
  facet normal 0 -0 1
    outer loop
      vertex -2.24791 -12.5234 3
      vertex -1.59016 -11.8474 3
      vertex -5.43907 -11.8663 3
    endloop
  endfacet
  facet normal 0 0 1
    outer loop
      vertex -1.59016 -11.8474 3
      vertex -2.24791 -12.5234 3
      vertex -1.59776 -11.9402 3
    endloop
  endfacet
  facet normal 0 0 1
    outer loop
      vertex -1.59776 -11.9402 3
      vertex -2.24791 -12.5234 3
      vertex -1.61577 -12.0283 3
    endloop
  endfacet
  facet normal 0 0 1
    outer loop
      vertex -1.61577 -12.0283 3
      vertex -2.24791 -12.5234 3
      vertex -1.64365 -12.111 3
    endloop
  endfacet
  facet normal 0 0 1
    outer loop
      vertex -1.64365 -12.111 3
      vertex -2.24791 -12.5234 3
      vertex -1.68083 -12.1878 3
    endloop
  endfacet
  facet normal 0 0 1
    outer loop
      vertex -1.68083 -12.1878 3
      vertex -2.24791 -12.5234 3
      vertex -1.72679 -12.2581 3
    endloop
  endfacet
  facet normal 0 0 1
    outer loop
      vertex -1.72679 -12.2581 3
      vertex -2.24791 -12.5234 3
      vertex -1.78098 -12.3214 3
    endloop
  endfacet
  facet normal 0 0 1
    outer loop
      vertex -1.78098 -12.3214 3
      vertex -2.24791 -12.5234 3
      vertex -1.84282 -12.3772 3
    endloop
  endfacet
  facet normal 0 0 1
    outer loop
      vertex -1.84282 -12.3772 3
      vertex -2.24791 -12.5234 3
      vertex -1.91179 -12.4249 3
    endloop
  endfacet
  facet normal 0 0 1
    outer loop
      vertex -1.91179 -12.4249 3
      vertex -2.24791 -12.5234 3
      vertex -1.98734 -12.4638 3
    endloop
  endfacet
  facet normal 0 0 1
    outer loop
      vertex -1.98734 -12.4638 3
      vertex -2.24791 -12.5234 3
      vertex -2.06891 -12.4936 3
    endloop
  endfacet
  facet normal -0 0 1
    outer loop
      vertex -4.78099 13.1319 3
      vertex -1.58995 9.28174 3
      vertex 5.06448 13.1325 3
    endloop
  endfacet
  facet normal -0 0 1
    outer loop
      vertex -5.43973 12.4548 3
      vertex -1.58995 9.28174 3
      vertex -4.78099 13.1319 3
    endloop
  endfacet
  facet normal 0 0 1
    outer loop
      vertex -1.58995 -1.63425 3
      vertex -5.43973 12.4548 3
      vertex -5.43907 -11.8663 3
    endloop
  endfacet
  facet normal 0 0 1
    outer loop
      vertex -2.06891 -12.4936 3
      vertex -2.24791 -12.5234 3
      vertex -2.15594 -12.5136 3
    endloop
  endfacet
  facet normal 0 0 1
    outer loop
      vertex -5.43973 12.4548 3
      vertex -4.78099 13.1319 3
      vertex -4.87299 13.1221 3
    endloop
  endfacet
  facet normal 0 0 1
    outer loop
      vertex -2.24791 -12.5234 3
      vertex -5.43907 -11.8663 3
      vertex -4.78099 -12.5234 3
    endloop
  endfacet
  facet normal 0 0 1
    outer loop
      vertex -5.43973 12.4548 3
      vertex -4.87299 13.1221 3
      vertex -4.9601 13.102 3
    endloop
  endfacet
  facet normal 0 0 1
    outer loop
      vertex -4.78099 -12.5234 3
      vertex -5.43907 -11.8663 3
      vertex -4.85497 -12.5164 3
    endloop
  endfacet
  facet normal 0 0 1
    outer loop
      vertex -5.43973 12.4548 3
      vertex -4.9601 13.102 3
      vertex -5.04175 13.0722 3
    endloop
  endfacet
  facet normal 0 0 1
    outer loop
      vertex -4.85497 -12.5164 3
      vertex -5.43907 -11.8663 3
      vertex -4.94308 -12.4984 3
    endloop
  endfacet
  facet normal 0 0 1
    outer loop
      vertex -5.43973 12.4548 3
      vertex -5.04175 13.0722 3
      vertex -5.11739 13.0331 3
    endloop
  endfacet
  facet normal 0 0 1
    outer loop
      vertex -4.94308 -12.4984 3
      vertex -5.43907 -11.8663 3
      vertex -5.02588 -12.4706 3
    endloop
  endfacet
  facet normal 0 0 1
    outer loop
      vertex -5.43973 12.4548 3
      vertex -5.11739 13.0331 3
      vertex -5.18646 12.9853 3
    endloop
  endfacet
  facet normal 0 0 1
    outer loop
      vertex -5.02588 -12.4706 3
      vertex -5.43907 -11.8663 3
      vertex -5.10277 -12.4333 3
    endloop
  endfacet
  facet normal 0 0 1
    outer loop
      vertex -5.43973 12.4548 3
      vertex -5.18646 12.9853 3
      vertex -5.24843 12.9294 3
    endloop
  endfacet
  facet normal 0 0 1
    outer loop
      vertex -5.10277 -12.4333 3
      vertex -5.43907 -11.8663 3
      vertex -5.1732 -12.3874 3
    endloop
  endfacet
  facet normal 0 0 1
    outer loop
      vertex -5.43973 12.4548 3
      vertex -5.24843 12.9294 3
      vertex -5.30273 12.866 3
    endloop
  endfacet
  facet normal 0 0 1
    outer loop
      vertex -5.1732 -12.3874 3
      vertex -5.43907 -11.8663 3
      vertex -5.23663 -12.3332 3
    endloop
  endfacet
  facet normal 0 0 1
    outer loop
      vertex -5.43973 12.4548 3
      vertex -5.30273 12.866 3
      vertex -5.3488 12.7956 3
    endloop
  endfacet
  facet normal 0 0 1
    outer loop
      vertex -5.23663 -12.3332 3
      vertex -5.43907 -11.8663 3
      vertex -5.29251 -12.2714 3
    endloop
  endfacet
  facet normal 0 0 1
    outer loop
      vertex -5.43973 12.4548 3
      vertex -5.3488 12.7956 3
      vertex -5.38609 12.7187 3
    endloop
  endfacet
  facet normal 0 0 1
    outer loop
      vertex -5.29251 -12.2714 3
      vertex -5.43907 -11.8663 3
      vertex -5.34027 -12.2024 3
    endloop
  endfacet
  facet normal 0 0 1
    outer loop
      vertex -5.43973 12.4548 3
      vertex -5.38609 12.7187 3
      vertex -5.41405 12.6359 3
    endloop
  endfacet
  facet normal 0 0 1
    outer loop
      vertex -5.34027 -12.2024 3
      vertex -5.43907 -11.8663 3
      vertex -5.37936 -12.1269 3
    endloop
  endfacet
  facet normal 0 0 1
    outer loop
      vertex -5.43973 12.4548 3
      vertex -5.41405 12.6359 3
      vertex -5.43211 12.5478 3
    endloop
  endfacet
  facet normal 0 0 1
    outer loop
      vertex -5.37936 -12.1269 3
      vertex -5.43907 -11.8663 3
      vertex -5.40923 -12.0453 3
    endloop
  endfacet
  facet normal 0 0 1
    outer loop
      vertex -5.40923 -12.0453 3
      vertex -5.43907 -11.8663 3
      vertex -5.42932 -11.9583 3
    endloop
  endfacet
  facet normal 0 0 1
    outer loop
      vertex 3.67314 2.25249 3
      vertex 4.34981 -0.955643 3
      vertex 4.34915 1.59048 3
    endloop
  endfacet
  facet normal 0 0 1
    outer loop
      vertex 3.67314 2.25249 3
      vertex 4.34915 1.59048 3
      vertex 4.33943 1.67604 3
    endloop
  endfacet
  facet normal 0 0 1
    outer loop
      vertex 4.34981 -0.955643 3
      vertex 3.67314 2.25249 3
      vertex 3.69208 -1.63326 3
    endloop
  endfacet
  facet normal 0 0 1
    outer loop
      vertex 3.67314 2.25249 3
      vertex 4.33943 1.67604 3
      vertex 4.31941 1.75903 3
    endloop
  endfacet
  facet normal 0 0 1
    outer loop
      vertex 4.34981 -0.955643 3
      vertex 3.69208 -1.63326 3
      vertex 4.34222 -1.04158 3
    endloop
  endfacet
  facet normal 0 0 1
    outer loop
      vertex 3.67314 2.25249 3
      vertex 4.31941 1.75903 3
      vertex 4.28963 1.83856 3
    endloop
  endfacet
  facet normal 0 0 1
    outer loop
      vertex 4.34222 -1.04158 3
      vertex 3.69208 -1.63326 3
      vertex 4.32422 -1.12509 3
    endloop
  endfacet
  facet normal 0 0 1
    outer loop
      vertex 3.67314 2.25249 3
      vertex 4.28963 1.83856 3
      vertex 4.25064 1.91376 3
    endloop
  endfacet
  facet normal 0 0 1
    outer loop
      vertex 4.32422 -1.12509 3
      vertex 3.69208 -1.63326 3
      vertex 4.29634 -1.20532 3
    endloop
  endfacet
  facet normal 0 0 1
    outer loop
      vertex 3.67314 2.25249 3
      vertex 4.25064 1.91376 3
      vertex 4.20299 1.98373 3
    endloop
  endfacet
  facet normal 0 0 1
    outer loop
      vertex 4.29634 -1.20532 3
      vertex 3.69208 -1.63326 3
      vertex 4.25914 -1.28136 3
    endloop
  endfacet
  facet normal 0 0 1
    outer loop
      vertex 3.67314 2.25249 3
      vertex 4.20299 1.98373 3
      vertex 4.14723 2.04758 3
    endloop
  endfacet
  facet normal 0 0 1
    outer loop
      vertex 4.25914 -1.28136 3
      vertex 3.69208 -1.63326 3
      vertex 4.21318 -1.35233 3
    endloop
  endfacet
  facet normal 0 0 1
    outer loop
      vertex 3.67314 2.25249 3
      vertex 4.14723 2.04758 3
      vertex 4.08392 2.10442 3
    endloop
  endfacet
  facet normal 0 0 1
    outer loop
      vertex 4.21318 -1.35233 3
      vertex 3.69208 -1.63326 3
      vertex 4.15901 -1.41736 3
    endloop
  endfacet
  facet normal 0 0 1
    outer loop
      vertex 3.67314 2.25249 3
      vertex 4.08392 2.10442 3
      vertex 4.0136 2.15337 3
    endloop
  endfacet
  facet normal 0 0 1
    outer loop
      vertex 4.15901 -1.41736 3
      vertex 3.69208 -1.63326 3
      vertex 4.09717 -1.47556 3
    endloop
  endfacet
  facet normal 0 0 1
    outer loop
      vertex 3.67314 2.25249 3
      vertex 4.0136 2.15337 3
      vertex 3.9368 2.19354 3
    endloop
  endfacet
  facet normal 0 0 1
    outer loop
      vertex 4.09717 -1.47556 3
      vertex 3.69208 -1.63326 3
      vertex 4.0282 -1.52603 3
    endloop
  endfacet
  facet normal 0 0 1
    outer loop
      vertex 3.67314 2.25249 3
      vertex 3.9368 2.19354 3
      vertex 3.8541 2.22404 3
    endloop
  endfacet
  facet normal 0 0 1
    outer loop
      vertex 4.0282 -1.52603 3
      vertex 3.69208 -1.63326 3
      vertex 3.95265 -1.56793 3
    endloop
  endfacet
  facet normal 0 0 1
    outer loop
      vertex 3.67314 2.25249 3
      vertex 3.8541 2.22404 3
      vertex 3.76602 2.24399 3
    endloop
  endfacet
  facet normal 0 0 1
    outer loop
      vertex 3.95265 -1.56793 3
      vertex 3.69208 -1.63326 3
      vertex 3.87108 -1.60036 3
    endloop
  endfacet
  facet normal 0 0 1
    outer loop
      vertex 3.87108 -1.60036 3
      vertex 3.69208 -1.63326 3
      vertex 3.78404 -1.62242 3
    endloop
  endfacet
  facet normal 0 0 1
    outer loop
      vertex -1.58995 2.25275 3
      vertex 3.69208 -1.63326 3
      vertex 3.67314 2.25249 3
    endloop
  endfacet
  facet normal 0 0 1
    outer loop
      vertex 3.69208 -1.63326 3
      vertex -1.58995 2.25275 3
      vertex -1.58995 -1.63425 3
    endloop
  endfacet
  facet normal 0 -1 0
    outer loop
      vertex -4.78099 -12.5234 1.5
      vertex -2.24791 -12.5234 3
      vertex -4.78099 -12.5234 3
    endloop
  endfacet
  facet normal 0 -1 -0
    outer loop
      vertex -2.24791 -12.5234 3
      vertex -4.78099 -12.5234 1.5
      vertex -2.24791 -12.5234 1.5
    endloop
  endfacet
  facet normal 0.105106 -0.994461 0
    outer loop
      vertex -2.24791 -12.5234 1.5
      vertex -2.15594 -12.5136 3
      vertex -2.24791 -12.5234 3
    endloop
  endfacet
  facet normal 0.105106 -0.994461 0
    outer loop
      vertex -2.15594 -12.5136 3
      vertex -2.24791 -12.5234 1.5
      vertex -2.15594 -12.5136 1.5
    endloop
  endfacet
  facet normal 0.224161 -0.974552 0
    outer loop
      vertex -2.15594 -12.5136 1.5
      vertex -2.06891 -12.4936 3
      vertex -2.15594 -12.5136 3
    endloop
  endfacet
  facet normal 0.224161 -0.974552 0
    outer loop
      vertex -2.06891 -12.4936 3
      vertex -2.15594 -12.5136 1.5
      vertex -2.06891 -12.4936 1.5
    endloop
  endfacet
  facet normal 0.342984 -0.939341 0
    outer loop
      vertex -2.06891 -12.4936 1.5
      vertex -1.98734 -12.4638 3
      vertex -2.06891 -12.4936 3
    endloop
  endfacet
  facet normal 0.342984 -0.939341 0
    outer loop
      vertex -1.98734 -12.4638 3
      vertex -2.06891 -12.4936 1.5
      vertex -1.98734 -12.4638 1.5
    endloop
  endfacet
  facet normal 0.458593 -0.888647 0
    outer loop
      vertex -1.98734 -12.4638 1.5
      vertex -1.91179 -12.4249 3
      vertex -1.98734 -12.4638 3
    endloop
  endfacet
  facet normal 0.458593 -0.888647 0
    outer loop
      vertex -1.91179 -12.4249 3
      vertex -1.98734 -12.4638 1.5
      vertex -1.91179 -12.4249 1.5
    endloop
  endfacet
  facet normal 0.568443 -0.822723 0
    outer loop
      vertex -1.91179 -12.4249 1.5
      vertex -1.84282 -12.3772 3
      vertex -1.91179 -12.4249 3
    endloop
  endfacet
  facet normal 0.568443 -0.822723 0
    outer loop
      vertex -1.84282 -12.3772 3
      vertex -1.91179 -12.4249 1.5
      vertex -1.84282 -12.3772 1.5
    endloop
  endfacet
  facet normal 0.669602 -0.74272 0
    outer loop
      vertex -1.84282 -12.3772 1.5
      vertex -1.78098 -12.3214 3
      vertex -1.84282 -12.3772 3
    endloop
  endfacet
  facet normal 0.669602 -0.74272 0
    outer loop
      vertex -1.78098 -12.3214 3
      vertex -1.84282 -12.3772 1.5
      vertex -1.78098 -12.3214 1.5
    endloop
  endfacet
  facet normal 0.759735 -0.650233 0
    outer loop
      vertex -1.78098 -12.3214 3
      vertex -1.72679 -12.2581 1.5
      vertex -1.72679 -12.2581 3
    endloop
  endfacet
  facet normal 0.759735 -0.650233 0
    outer loop
      vertex -1.72679 -12.2581 1.5
      vertex -1.78098 -12.3214 3
      vertex -1.78098 -12.3214 1.5
    endloop
  endfacet
  facet normal 0.837101 -0.547049 0
    outer loop
      vertex -1.72679 -12.2581 3
      vertex -1.68083 -12.1878 1.5
      vertex -1.68083 -12.1878 3
    endloop
  endfacet
  facet normal 0.837101 -0.547049 0
    outer loop
      vertex -1.68083 -12.1878 1.5
      vertex -1.72679 -12.2581 3
      vertex -1.72679 -12.2581 1.5
    endloop
  endfacet
  facet normal 0.900042 -0.435804 0
    outer loop
      vertex -1.68083 -12.1878 3
      vertex -1.64365 -12.111 1.5
      vertex -1.64365 -12.111 3
    endloop
  endfacet
  facet normal 0.900042 -0.435804 0
    outer loop
      vertex -1.64365 -12.111 1.5
      vertex -1.68083 -12.1878 3
      vertex -1.68083 -12.1878 1.5
    endloop
  endfacet
  facet normal 0.947611 -0.319425 0
    outer loop
      vertex -1.64365 -12.111 3
      vertex -1.61577 -12.0283 1.5
      vertex -1.61577 -12.0283 3
    endloop
  endfacet
  facet normal 0.947611 -0.319425 0
    outer loop
      vertex -1.61577 -12.0283 1.5
      vertex -1.64365 -12.111 3
      vertex -1.64365 -12.111 1.5
    endloop
  endfacet
  facet normal 0.979736 -0.200293 0
    outer loop
      vertex -1.61577 -12.0283 3
      vertex -1.59776 -11.9402 1.5
      vertex -1.59776 -11.9402 3
    endloop
  endfacet
  facet normal 0.979736 -0.200293 0
    outer loop
      vertex -1.59776 -11.9402 1.5
      vertex -1.61577 -12.0283 3
      vertex -1.61577 -12.0283 1.5
    endloop
  endfacet
  facet normal 0.99667 -0.0815413 0
    outer loop
      vertex -1.59776 -11.9402 3
      vertex -1.59016 -11.8474 1.5
      vertex -1.59016 -11.8474 3
    endloop
  endfacet
  facet normal 0.99667 -0.0815413 0
    outer loop
      vertex -1.59016 -11.8474 1.5
      vertex -1.59776 -11.9402 3
      vertex -1.59776 -11.9402 1.5
    endloop
  endfacet
  facet normal 1 -2.09166e-05 0
    outer loop
      vertex -1.59016 -11.8474 3
      vertex -1.58995 -1.63425 1.5
      vertex -1.58995 -1.63425 3
    endloop
  endfacet
  facet normal 1 -2.09166e-05 0
    outer loop
      vertex -1.58995 -1.63425 1.5
      vertex -1.59016 -11.8474 3
      vertex -1.59016 -11.8474 1.5
    endloop
  endfacet
  facet normal 0.000187773 -1 0
    outer loop
      vertex -1.58995 -1.63425 1.5
      vertex 3.69208 -1.63326 3
      vertex -1.58995 -1.63425 3
    endloop
  endfacet
  facet normal 0.000187773 -1 0
    outer loop
      vertex 3.69208 -1.63326 3
      vertex -1.58995 -1.63425 1.5
      vertex 3.69208 -1.63326 1.5
    endloop
  endfacet
  facet normal 0.116994 -0.993133 0
    outer loop
      vertex 3.69208 -1.63326 1.5
      vertex 3.78404 -1.62242 3
      vertex 3.69208 -1.63326 3
    endloop
  endfacet
  facet normal 0.116994 -0.993133 0
    outer loop
      vertex 3.78404 -1.62242 3
      vertex 3.69208 -1.63326 1.5
      vertex 3.78404 -1.62242 1.5
    endloop
  endfacet
  facet normal 0.245733 -0.969338 0
    outer loop
      vertex 3.78404 -1.62242 1.5
      vertex 3.87108 -1.60036 3
      vertex 3.78404 -1.62242 3
    endloop
  endfacet
  facet normal 0.245733 -0.969338 0
    outer loop
      vertex 3.87108 -1.60036 3
      vertex 3.78404 -1.62242 1.5
      vertex 3.87108 -1.60036 1.5
    endloop
  endfacet
  facet normal 0.369382 -0.929278 0
    outer loop
      vertex 3.87108 -1.60036 1.5
      vertex 3.95265 -1.56793 3
      vertex 3.87108 -1.60036 3
    endloop
  endfacet
  facet normal 0.369382 -0.929278 0
    outer loop
      vertex 3.95265 -1.56793 3
      vertex 3.87108 -1.60036 1.5
      vertex 3.95265 -1.56793 1.5
    endloop
  endfacet
  facet normal 0.485028 -0.874499 0
    outer loop
      vertex 3.95265 -1.56793 1.5
      vertex 4.0282 -1.52603 3
      vertex 3.95265 -1.56793 3
    endloop
  endfacet
  facet normal 0.485028 -0.874499 0
    outer loop
      vertex 4.0282 -1.52603 3
      vertex 3.95265 -1.56793 1.5
      vertex 4.0282 -1.52603 1.5
    endloop
  endfacet
  facet normal 0.590589 -0.806972 0
    outer loop
      vertex 4.0282 -1.52603 1.5
      vertex 4.09717 -1.47556 3
      vertex 4.0282 -1.52603 3
    endloop
  endfacet
  facet normal 0.590589 -0.806972 0
    outer loop
      vertex 4.09717 -1.47556 3
      vertex 4.0282 -1.52603 1.5
      vertex 4.09717 -1.47556 1.5
    endloop
  endfacet
  facet normal 0.685309 -0.728253 0
    outer loop
      vertex 4.09717 -1.47556 1.5
      vertex 4.15901 -1.41736 3
      vertex 4.09717 -1.47556 3
    endloop
  endfacet
  facet normal 0.685309 -0.728253 0
    outer loop
      vertex 4.15901 -1.41736 3
      vertex 4.09717 -1.47556 1.5
      vertex 4.15901 -1.41736 1.5
    endloop
  endfacet
  facet normal 0.768369 -0.640007 0
    outer loop
      vertex 4.15901 -1.41736 3
      vertex 4.21318 -1.35233 1.5
      vertex 4.21318 -1.35233 3
    endloop
  endfacet
  facet normal 0.768369 -0.640007 0
    outer loop
      vertex 4.21318 -1.35233 1.5
      vertex 4.15901 -1.41736 3
      vertex 4.15901 -1.41736 1.5
    endloop
  endfacet
  facet normal 0.839362 -0.543573 0
    outer loop
      vertex 4.21318 -1.35233 3
      vertex 4.25914 -1.28136 1.5
      vertex 4.25914 -1.28136 3
    endloop
  endfacet
  facet normal 0.839362 -0.543573 0
    outer loop
      vertex 4.25914 -1.28136 1.5
      vertex 4.21318 -1.35233 3
      vertex 4.21318 -1.35233 1.5
    endloop
  endfacet
  facet normal 0.898252 -0.439482 0
    outer loop
      vertex 4.25914 -1.28136 3
      vertex 4.29634 -1.20532 1.5
      vertex 4.29634 -1.20532 3
    endloop
  endfacet
  facet normal 0.898252 -0.439482 0
    outer loop
      vertex 4.29634 -1.20532 1.5
      vertex 4.25914 -1.28136 3
      vertex 4.25914 -1.28136 1.5
    endloop
  endfacet
  facet normal 0.944601 -0.328221 0
    outer loop
      vertex 4.29634 -1.20532 3
      vertex 4.32422 -1.12509 1.5
      vertex 4.32422 -1.12509 3
    endloop
  endfacet
  facet normal 0.944601 -0.328221 0
    outer loop
      vertex 4.32422 -1.12509 1.5
      vertex 4.29634 -1.20532 3
      vertex 4.29634 -1.20532 1.5
    endloop
  endfacet
  facet normal 0.977538 -0.210761 0
    outer loop
      vertex 4.32422 -1.12509 3
      vertex 4.34222 -1.04158 1.5
      vertex 4.34222 -1.04158 3
    endloop
  endfacet
  facet normal 0.977538 -0.210761 0
    outer loop
      vertex 4.34222 -1.04158 1.5
      vertex 4.32422 -1.12509 3
      vertex 4.32422 -1.12509 1.5
    endloop
  endfacet
  facet normal 0.996129 -0.0879041 0
    outer loop
      vertex 4.34222 -1.04158 3
      vertex 4.34981 -0.955643 1.5
      vertex 4.34981 -0.955643 3
    endloop
  endfacet
  facet normal 0.996129 -0.0879041 0
    outer loop
      vertex 4.34981 -0.955643 1.5
      vertex 4.34222 -1.04158 3
      vertex 4.34222 -1.04158 1.5
    endloop
  endfacet
  facet normal 1 0.000257696 0
    outer loop
      vertex 4.34981 -0.955643 3
      vertex 4.34915 1.59048 1.5
      vertex 4.34915 1.59048 3
    endloop
  endfacet
  facet normal 1 0.000257696 0
    outer loop
      vertex 4.34915 1.59048 1.5
      vertex 4.34981 -0.955643 3
      vertex 4.34981 -0.955643 1.5
    endloop
  endfacet
  facet normal 0.993608 0.112882 0
    outer loop
      vertex 4.34915 1.59048 3
      vertex 4.33943 1.67604 1.5
      vertex 4.33943 1.67604 3
    endloop
  endfacet
  facet normal 0.993608 0.112882 0
    outer loop
      vertex 4.33943 1.67604 1.5
      vertex 4.34915 1.59048 3
      vertex 4.34915 1.59048 1.5
    endloop
  endfacet
  facet normal 0.972117 0.234495 0
    outer loop
      vertex 4.33943 1.67604 3
      vertex 4.31941 1.75903 1.5
      vertex 4.31941 1.75903 3
    endloop
  endfacet
  facet normal 0.972117 0.234495 0
    outer loop
      vertex 4.31941 1.75903 1.5
      vertex 4.33943 1.67604 3
      vertex 4.33943 1.67604 1.5
    endloop
  endfacet
  facet normal 0.936477 0.35073 0
    outer loop
      vertex 4.31941 1.75903 3
      vertex 4.28963 1.83856 1.5
      vertex 4.28963 1.83856 3
    endloop
  endfacet
  facet normal 0.936477 0.35073 0
    outer loop
      vertex 4.28963 1.83856 1.5
      vertex 4.31941 1.75903 3
      vertex 4.31941 1.75903 1.5
    endloop
  endfacet
  facet normal 0.887774 0.46028 0
    outer loop
      vertex 4.28963 1.83856 3
      vertex 4.25064 1.91376 1.5
      vertex 4.25064 1.91376 3
    endloop
  endfacet
  facet normal 0.887774 0.46028 0
    outer loop
      vertex 4.25064 1.91376 1.5
      vertex 4.28963 1.83856 3
      vertex 4.28963 1.83856 1.5
    endloop
  endfacet
  facet normal 0.826548 0.562867 0
    outer loop
      vertex 4.25064 1.91376 3
      vertex 4.20299 1.98373 1.5
      vertex 4.20299 1.98373 3
    endloop
  endfacet
  facet normal 0.826548 0.562867 0
    outer loop
      vertex 4.20299 1.98373 1.5
      vertex 4.25064 1.91376 3
      vertex 4.25064 1.91376 1.5
    endloop
  endfacet
  facet normal 0.753201 0.657791 0
    outer loop
      vertex 4.20299 1.98373 3
      vertex 4.14723 2.04758 1.5
      vertex 4.14723 2.04758 3
    endloop
  endfacet
  facet normal 0.753201 0.657791 0
    outer loop
      vertex 4.14723 2.04758 1.5
      vertex 4.20299 1.98373 3
      vertex 4.20299 1.98373 1.5
    endloop
  endfacet
  facet normal 0.668063 0.744105 -0
    outer loop
      vertex 4.14723 2.04758 1.5
      vertex 4.08392 2.10442 3
      vertex 4.14723 2.04758 3
    endloop
  endfacet
  facet normal 0.668063 0.744105 0
    outer loop
      vertex 4.08392 2.10442 3
      vertex 4.14723 2.04758 1.5
      vertex 4.08392 2.10442 1.5
    endloop
  endfacet
  facet normal 0.571273 0.82076 -0
    outer loop
      vertex 4.08392 2.10442 1.5
      vertex 4.0136 2.15337 3
      vertex 4.08392 2.10442 3
    endloop
  endfacet
  facet normal 0.571273 0.82076 0
    outer loop
      vertex 4.0136 2.15337 3
      vertex 4.08392 2.10442 1.5
      vertex 4.0136 2.15337 1.5
    endloop
  endfacet
  facet normal 0.463546 0.886073 -0
    outer loop
      vertex 4.0136 2.15337 1.5
      vertex 3.9368 2.19354 3
      vertex 4.0136 2.15337 3
    endloop
  endfacet
  facet normal 0.463546 0.886073 0
    outer loop
      vertex 3.9368 2.19354 3
      vertex 4.0136 2.15337 1.5
      vertex 3.9368 2.19354 1.5
    endloop
  endfacet
  facet normal 0.346034 0.938222 -0
    outer loop
      vertex 3.9368 2.19354 1.5
      vertex 3.8541 2.22404 3
      vertex 3.9368 2.19354 3
    endloop
  endfacet
  facet normal 0.346034 0.938222 0
    outer loop
      vertex 3.8541 2.22404 3
      vertex 3.9368 2.19354 1.5
      vertex 3.8541 2.22404 1.5
    endloop
  endfacet
  facet normal 0.220847 0.975308 -0
    outer loop
      vertex 3.8541 2.22404 1.5
      vertex 3.76602 2.24399 3
      vertex 3.8541 2.22404 3
    endloop
  endfacet
  facet normal 0.220847 0.975308 0
    outer loop
      vertex 3.76602 2.24399 3
      vertex 3.8541 2.22404 1.5
      vertex 3.76602 2.24399 1.5
    endloop
  endfacet
  facet normal 0.0911258 0.995839 -0
    outer loop
      vertex 3.76602 2.24399 1.5
      vertex 3.67314 2.25249 3
      vertex 3.76602 2.24399 3
    endloop
  endfacet
  facet normal 0.0911258 0.995839 0
    outer loop
      vertex 3.67314 2.25249 3
      vertex 3.76602 2.24399 1.5
      vertex 3.67314 2.25249 1.5
    endloop
  endfacet
  facet normal 4.92865e-05 1 -0
    outer loop
      vertex 3.67314 2.25249 1.5
      vertex -1.58995 2.25275 3
      vertex 3.67314 2.25249 3
    endloop
  endfacet
  facet normal 4.92865e-05 1 0
    outer loop
      vertex -1.58995 2.25275 3
      vertex 3.67314 2.25249 1.5
      vertex -1.58995 2.25275 1.5
    endloop
  endfacet
  facet normal 1 -0 0
    outer loop
      vertex -1.58995 2.25275 3
      vertex -1.58995 9.28174 1.5
      vertex -1.58995 9.28174 3
    endloop
  endfacet
  facet normal 1 0 0
    outer loop
      vertex -1.58995 9.28174 1.5
      vertex -1.58995 2.25275 3
      vertex -1.58995 2.25275 1.5
    endloop
  endfacet
  facet normal 0.000132649 -1 0
    outer loop
      vertex -1.58995 9.28174 1.5
      vertex 5.08186 9.28262 3
      vertex -1.58995 9.28174 3
    endloop
  endfacet
  facet normal 0.000132649 -1 0
    outer loop
      vertex 5.08186 9.28262 3
      vertex -1.58995 9.28174 1.5
      vertex 5.08186 9.28262 1.5
    endloop
  endfacet
  facet normal 0.112469 -0.993655 0
    outer loop
      vertex 5.08186 9.28262 1.5
      vertex 5.1676 9.29233 3
      vertex 5.08186 9.28262 3
    endloop
  endfacet
  facet normal 0.112469 -0.993655 0
    outer loop
      vertex 5.1676 9.29233 3
      vertex 5.08186 9.28262 1.5
      vertex 5.1676 9.29233 1.5
    endloop
  endfacet
  facet normal 0.232691 -0.972551 0
    outer loop
      vertex 5.1676 9.29233 1.5
      vertex 5.2507 9.31221 3
      vertex 5.1676 9.29233 3
    endloop
  endfacet
  facet normal 0.232691 -0.972551 0
    outer loop
      vertex 5.2507 9.31221 3
      vertex 5.1676 9.29233 1.5
      vertex 5.2507 9.31221 1.5
    endloop
  endfacet
  facet normal 0.357411 -0.933947 0
    outer loop
      vertex 5.2507 9.31221 1.5
      vertex 5.34572 9.34857 3
      vertex 5.2507 9.31221 3
    endloop
  endfacet
  facet normal 0.357411 -0.933947 0
    outer loop
      vertex 5.34572 9.34857 3
      vertex 5.2507 9.31221 1.5
      vertex 5.34572 9.34857 1.5
    endloop
  endfacet
  facet normal 0.483911 -0.875117 0
    outer loop
      vertex 5.34572 9.34857 1.5
      vertex 5.43416 9.39748 3
      vertex 5.34572 9.34857 3
    endloop
  endfacet
  facet normal 0.483911 -0.875117 0
    outer loop
      vertex 5.43416 9.39748 3
      vertex 5.34572 9.34857 1.5
      vertex 5.43416 9.39748 1.5
    endloop
  endfacet
  facet normal 0.600146 -0.799891 0
    outer loop
      vertex 5.43416 9.39748 1.5
      vertex 5.51451 9.45776 3
      vertex 5.43416 9.39748 3
    endloop
  endfacet
  facet normal 0.600146 -0.799891 0
    outer loop
      vertex 5.51451 9.45776 3
      vertex 5.43416 9.39748 1.5
      vertex 5.51451 9.45776 1.5
    endloop
  endfacet
  facet normal 0.706113 -0.708099 0
    outer loop
      vertex 5.51451 9.45776 1.5
      vertex 5.58527 9.52832 3
      vertex 5.51451 9.45776 3
    endloop
  endfacet
  facet normal 0.706113 -0.708099 0
    outer loop
      vertex 5.58527 9.52832 3
      vertex 5.51451 9.45776 1.5
      vertex 5.58527 9.52832 1.5
    endloop
  endfacet
  facet normal 0.793082 -0.609115 0
    outer loop
      vertex 5.58527 9.52832 3
      vertex 5.63579 9.5941 1.5
      vertex 5.63579 9.5941 3
    endloop
  endfacet
  facet normal 0.793082 -0.609115 0
    outer loop
      vertex 5.63579 9.5941 1.5
      vertex 5.58527 9.52832 3
      vertex 5.58527 9.52832 1.5
    endloop
  endfacet
  facet normal 0.862507 -0.506046 0
    outer loop
      vertex 5.63579 9.5941 3
      vertex 5.6777 9.66554 1.5
      vertex 5.6777 9.66554 3
    endloop
  endfacet
  facet normal 0.862507 -0.506046 0
    outer loop
      vertex 5.6777 9.66554 1.5
      vertex 5.63579 9.5941 3
      vertex 5.63579 9.5941 1.5
    endloop
  endfacet
  facet normal 0.920518 -0.390701 0
    outer loop
      vertex 5.6777 9.66554 3
      vertex 5.71014 9.74197 1.5
      vertex 5.71014 9.74197 3
    endloop
  endfacet
  facet normal 0.920518 -0.390701 0
    outer loop
      vertex 5.71014 9.74197 1.5
      vertex 5.6777 9.66554 3
      vertex 5.6777 9.66554 1.5
    endloop
  endfacet
  facet normal 0.964625 -0.263626 0
    outer loop
      vertex 5.71014 9.74197 3
      vertex 5.73221 9.82271 1.5
      vertex 5.73221 9.82271 3
    endloop
  endfacet
  facet normal 0.964625 -0.263626 0
    outer loop
      vertex 5.73221 9.82271 1.5
      vertex 5.71014 9.74197 3
      vertex 5.71014 9.74197 1.5
    endloop
  endfacet
  facet normal 0.991861 -0.127323 0
    outer loop
      vertex 5.73221 9.82271 3
      vertex 5.74304 9.9071 1.5
      vertex 5.74304 9.9071 3
    endloop
  endfacet
  facet normal 0.991861 -0.127323 0
    outer loop
      vertex 5.74304 9.9071 1.5
      vertex 5.73221 9.82271 3
      vertex 5.73221 9.82271 1.5
    endloop
  endfacet
  facet normal 1 -0 0
    outer loop
      vertex 5.74304 9.9071 3
      vertex 5.74304 12.4738 1.5
      vertex 5.74304 12.4738 3
    endloop
  endfacet
  facet normal 1 0 0
    outer loop
      vertex 5.74304 12.4738 1.5
      vertex 5.74304 9.9071 3
      vertex 5.74304 9.9071 1.5
    endloop
  endfacet
  facet normal 0.993137 0.116956 0
    outer loop
      vertex 5.74304 12.4738 3
      vertex 5.73221 12.5658 1.5
      vertex 5.73221 12.5658 3
    endloop
  endfacet
  facet normal 0.993137 0.116956 0
    outer loop
      vertex 5.73221 12.5658 1.5
      vertex 5.74304 12.4738 3
      vertex 5.74304 12.4738 1.5
    endloop
  endfacet
  facet normal 0.969389 0.245531 0
    outer loop
      vertex 5.73221 12.5658 3
      vertex 5.71014 12.6529 1.5
      vertex 5.71014 12.6529 3
    endloop
  endfacet
  facet normal 0.969389 0.245531 0
    outer loop
      vertex 5.71014 12.6529 1.5
      vertex 5.73221 12.5658 3
      vertex 5.73221 12.5658 1.5
    endloop
  endfacet
  facet normal 0.929337 0.369234 0
    outer loop
      vertex 5.71014 12.6529 3
      vertex 5.6777 12.7345 1.5
      vertex 5.6777 12.7345 3
    endloop
  endfacet
  facet normal 0.929337 0.369234 0
    outer loop
      vertex 5.6777 12.7345 1.5
      vertex 5.71014 12.6529 3
      vertex 5.71014 12.6529 1.5
    endloop
  endfacet
  facet normal 0.874673 0.484714 0
    outer loop
      vertex 5.6777 12.7345 3
      vertex 5.63579 12.8102 1.5
      vertex 5.63579 12.8102 3
    endloop
  endfacet
  facet normal 0.874673 0.484714 0
    outer loop
      vertex 5.63579 12.8102 1.5
      vertex 5.6777 12.7345 3
      vertex 5.6777 12.7345 1.5
    endloop
  endfacet
  facet normal 0.807153 0.590343 0
    outer loop
      vertex 5.63579 12.8102 3
      vertex 5.58527 12.8793 1.5
      vertex 5.58527 12.8793 3
    endloop
  endfacet
  facet normal 0.807153 0.590343 0
    outer loop
      vertex 5.58527 12.8793 1.5
      vertex 5.63579 12.8102 3
      vertex 5.63579 12.8102 1.5
    endloop
  endfacet
  facet normal 0.728569 0.684973 0
    outer loop
      vertex 5.58527 12.8793 3
      vertex 5.52701 12.9412 1.5
      vertex 5.52701 12.9412 3
    endloop
  endfacet
  facet normal 0.728569 0.684973 0
    outer loop
      vertex 5.52701 12.9412 1.5
      vertex 5.58527 12.8793 3
      vertex 5.58527 12.8793 1.5
    endloop
  endfacet
  facet normal 0.640609 0.767867 -0
    outer loop
      vertex 5.52701 12.9412 1.5
      vertex 5.46191 12.9955 3
      vertex 5.52701 12.9412 3
    endloop
  endfacet
  facet normal 0.640609 0.767867 0
    outer loop
      vertex 5.46191 12.9955 3
      vertex 5.52701 12.9412 1.5
      vertex 5.46191 12.9955 1.5
    endloop
  endfacet
  facet normal 0.543968 0.839106 -0
    outer loop
      vertex 5.46191 12.9955 1.5
      vertex 5.39085 13.0416 3
      vertex 5.46191 12.9955 3
    endloop
  endfacet
  facet normal 0.543968 0.839106 0
    outer loop
      vertex 5.39085 13.0416 3
      vertex 5.46191 12.9955 1.5
      vertex 5.39085 13.0416 1.5
    endloop
  endfacet
  facet normal 0.439785 0.898103 -0
    outer loop
      vertex 5.39085 13.0416 1.5
      vertex 5.3147 13.0789 3
      vertex 5.39085 13.0416 3
    endloop
  endfacet
  facet normal 0.439785 0.898103 0
    outer loop
      vertex 5.3147 13.0789 3
      vertex 5.39085 13.0416 1.5
      vertex 5.3147 13.0789 1.5
    endloop
  endfacet
  facet normal 0.328521 0.944497 -0
    outer loop
      vertex 5.3147 13.0789 1.5
      vertex 5.23433 13.1068 3
      vertex 5.3147 13.0789 3
    endloop
  endfacet
  facet normal 0.328521 0.944497 0
    outer loop
      vertex 5.23433 13.1068 3
      vertex 5.3147 13.0789 1.5
      vertex 5.23433 13.1068 1.5
    endloop
  endfacet
  facet normal 0.211001 0.977486 -0
    outer loop
      vertex 5.23433 13.1068 1.5
      vertex 5.15063 13.1249 3
      vertex 5.23433 13.1068 3
    endloop
  endfacet
  facet normal 0.211001 0.977486 0
    outer loop
      vertex 5.15063 13.1249 3
      vertex 5.23433 13.1068 1.5
      vertex 5.15063 13.1249 1.5
    endloop
  endfacet
  facet normal 0.088038 0.996117 -0
    outer loop
      vertex 5.15063 13.1249 1.5
      vertex 5.06448 13.1325 3
      vertex 5.15063 13.1249 3
    endloop
  endfacet
  facet normal 0.088038 0.996117 0
    outer loop
      vertex 5.06448 13.1325 3
      vertex 5.15063 13.1249 1.5
      vertex 5.06448 13.1325 1.5
    endloop
  endfacet
  facet normal -6.66426e-05 1 0
    outer loop
      vertex 5.06448 13.1325 1.5
      vertex -4.78099 13.1319 3
      vertex 5.06448 13.1325 3
    endloop
  endfacet
  facet normal -6.66426e-05 1 0
    outer loop
      vertex -4.78099 13.1319 3
      vertex 5.06448 13.1325 1.5
      vertex -4.78099 13.1319 1.5
    endloop
  endfacet
  facet normal -0.10556 0.994413 0
    outer loop
      vertex -4.78099 13.1319 1.5
      vertex -4.87299 13.1221 3
      vertex -4.78099 13.1319 3
    endloop
  endfacet
  facet normal -0.10556 0.994413 0
    outer loop
      vertex -4.87299 13.1221 3
      vertex -4.78099 13.1319 1.5
      vertex -4.87299 13.1221 1.5
    endloop
  endfacet
  facet normal -0.224623 0.974446 0
    outer loop
      vertex -4.87299 13.1221 1.5
      vertex -4.9601 13.102 3
      vertex -4.87299 13.1221 3
    endloop
  endfacet
  facet normal -0.224623 0.974446 0
    outer loop
      vertex -4.9601 13.102 3
      vertex -4.87299 13.1221 1.5
      vertex -4.9601 13.102 1.5
    endloop
  endfacet
  facet normal -0.343476 0.939162 0
    outer loop
      vertex -4.9601 13.102 1.5
      vertex -5.04175 13.0722 3
      vertex -4.9601 13.102 3
    endloop
  endfacet
  facet normal -0.343476 0.939162 0
    outer loop
      vertex -5.04175 13.0722 3
      vertex -4.9601 13.102 1.5
      vertex -5.04175 13.0722 1.5
    endloop
  endfacet
  facet normal -0.459145 0.888361 0
    outer loop
      vertex -5.04175 13.0722 1.5
      vertex -5.11739 13.0331 3
      vertex -5.04175 13.0722 3
    endloop
  endfacet
  facet normal -0.459145 0.888361 0
    outer loop
      vertex -5.11739 13.0331 3
      vertex -5.04175 13.0722 1.5
      vertex -5.11739 13.0331 1.5
    endloop
  endfacet
  facet normal -0.568709 0.822539 0
    outer loop
      vertex -5.11739 13.0331 1.5
      vertex -5.18646 12.9853 3
      vertex -5.11739 13.0331 3
    endloop
  endfacet
  facet normal -0.568709 0.822539 0
    outer loop
      vertex -5.18646 12.9853 3
      vertex -5.11739 13.0331 1.5
      vertex -5.18646 12.9853 1.5
    endloop
  endfacet
  facet normal -0.669682 0.742648 0
    outer loop
      vertex -5.18646 12.9853 1.5
      vertex -5.24843 12.9294 3
      vertex -5.18646 12.9853 3
    endloop
  endfacet
  facet normal -0.669682 0.742648 0
    outer loop
      vertex -5.24843 12.9294 3
      vertex -5.18646 12.9853 1.5
      vertex -5.24843 12.9294 1.5
    endloop
  endfacet
  facet normal -0.759631 0.650355 0
    outer loop
      vertex -5.30273 12.866 1.5
      vertex -5.24843 12.9294 3
      vertex -5.24843 12.9294 1.5
    endloop
  endfacet
  facet normal -0.759631 0.650355 0
    outer loop
      vertex -5.24843 12.9294 3
      vertex -5.30273 12.866 1.5
      vertex -5.30273 12.866 3
    endloop
  endfacet
  facet normal -0.836899 0.547357 0
    outer loop
      vertex -5.3488 12.7956 1.5
      vertex -5.30273 12.866 3
      vertex -5.30273 12.866 1.5
    endloop
  endfacet
  facet normal -0.836899 0.547357 0
    outer loop
      vertex -5.30273 12.866 3
      vertex -5.3488 12.7956 1.5
      vertex -5.3488 12.7956 3
    endloop
  endfacet
  facet normal -0.899755 0.436396 0
    outer loop
      vertex -5.38609 12.7187 1.5
      vertex -5.3488 12.7956 3
      vertex -5.3488 12.7956 1.5
    endloop
  endfacet
  facet normal -0.899755 0.436396 0
    outer loop
      vertex -5.3488 12.7956 3
      vertex -5.38609 12.7187 1.5
      vertex -5.38609 12.7187 3
    endloop
  endfacet
  facet normal -0.947454 0.319892 0
    outer loop
      vertex -5.41405 12.6359 1.5
      vertex -5.38609 12.7187 3
      vertex -5.38609 12.7187 1.5
    endloop
  endfacet
  facet normal -0.947454 0.319892 0
    outer loop
      vertex -5.38609 12.7187 3
      vertex -5.41405 12.6359 1.5
      vertex -5.41405 12.6359 3
    endloop
  endfacet
  facet normal -0.979623 0.200844 0
    outer loop
      vertex -5.43211 12.5478 1.5
      vertex -5.41405 12.6359 3
      vertex -5.41405 12.6359 1.5
    endloop
  endfacet
  facet normal -0.979623 0.200844 0
    outer loop
      vertex -5.41405 12.6359 3
      vertex -5.43211 12.5478 1.5
      vertex -5.43211 12.5478 3
    endloop
  endfacet
  facet normal -0.996659 0.0816772 0
    outer loop
      vertex -5.43973 12.4548 1.5
      vertex -5.43211 12.5478 3
      vertex -5.43211 12.5478 1.5
    endloop
  endfacet
  facet normal -0.996659 0.0816772 0
    outer loop
      vertex -5.43211 12.5478 3
      vertex -5.43973 12.4548 1.5
      vertex -5.43973 12.4548 3
    endloop
  endfacet
  facet normal -1 -2.69777e-05 0
    outer loop
      vertex -5.43907 -11.8663 1.5
      vertex -5.43973 12.4548 3
      vertex -5.43973 12.4548 1.5
    endloop
  endfacet
  facet normal -1 -2.69777e-05 0
    outer loop
      vertex -5.43973 12.4548 3
      vertex -5.43907 -11.8663 1.5
      vertex -5.43907 -11.8663 3
    endloop
  endfacet
  facet normal -0.994427 -0.105432 0
    outer loop
      vertex -5.42932 -11.9583 1.5
      vertex -5.43907 -11.8663 3
      vertex -5.43907 -11.8663 1.5
    endloop
  endfacet
  facet normal -0.994427 -0.105432 0
    outer loop
      vertex -5.43907 -11.8663 3
      vertex -5.42932 -11.9583 1.5
      vertex -5.42932 -11.9583 3
    endloop
  endfacet
  facet normal -0.974365 -0.224972 0
    outer loop
      vertex -5.40923 -12.0453 1.5
      vertex -5.42932 -11.9583 3
      vertex -5.42932 -11.9583 1.5
    endloop
  endfacet
  facet normal -0.974365 -0.224972 0
    outer loop
      vertex -5.42932 -11.9583 3
      vertex -5.40923 -12.0453 1.5
      vertex -5.40923 -12.0453 3
    endloop
  endfacet
  facet normal -0.939058 -0.343759 0
    outer loop
      vertex -5.37936 -12.1269 1.5
      vertex -5.40923 -12.0453 3
      vertex -5.40923 -12.0453 1.5
    endloop
  endfacet
  facet normal -0.939058 -0.343759 0
    outer loop
      vertex -5.40923 -12.0453 3
      vertex -5.37936 -12.1269 1.5
      vertex -5.37936 -12.1269 3
    endloop
  endfacet
  facet normal -0.888096 -0.459657 0
    outer loop
      vertex -5.34027 -12.2024 1.5
      vertex -5.37936 -12.1269 3
      vertex -5.37936 -12.1269 1.5
    endloop
  endfacet
  facet normal -0.888096 -0.459657 0
    outer loop
      vertex -5.37936 -12.1269 3
      vertex -5.34027 -12.2024 1.5
      vertex -5.34027 -12.2024 3
    endloop
  endfacet
  facet normal -0.822127 -0.569305 0
    outer loop
      vertex -5.29251 -12.2714 1.5
      vertex -5.34027 -12.2024 3
      vertex -5.34027 -12.2024 1.5
    endloop
  endfacet
  facet normal -0.822127 -0.569305 0
    outer loop
      vertex -5.34027 -12.2024 3
      vertex -5.29251 -12.2714 1.5
      vertex -5.29251 -12.2714 3
    endloop
  endfacet
  facet normal -0.742073 -0.670319 0
    outer loop
      vertex -5.23663 -12.3332 1.5
      vertex -5.29251 -12.2714 3
      vertex -5.29251 -12.2714 1.5
    endloop
  endfacet
  facet normal -0.742073 -0.670319 0
    outer loop
      vertex -5.29251 -12.2714 3
      vertex -5.23663 -12.3332 1.5
      vertex -5.23663 -12.3332 3
    endloop
  endfacet
  facet normal -0.649404 -0.760443 0
    outer loop
      vertex -5.23663 -12.3332 1.5
      vertex -5.1732 -12.3874 3
      vertex -5.23663 -12.3332 3
    endloop
  endfacet
  facet normal -0.649404 -0.760443 -0
    outer loop
      vertex -5.1732 -12.3874 3
      vertex -5.23663 -12.3332 1.5
      vertex -5.1732 -12.3874 1.5
    endloop
  endfacet
  facet normal -0.546467 -0.837481 0
    outer loop
      vertex -5.1732 -12.3874 1.5
      vertex -5.10277 -12.4333 3
      vertex -5.1732 -12.3874 3
    endloop
  endfacet
  facet normal -0.546467 -0.837481 -0
    outer loop
      vertex -5.10277 -12.4333 3
      vertex -5.1732 -12.3874 1.5
      vertex -5.10277 -12.4333 1.5
    endloop
  endfacet
  facet normal -0.435528 -0.900175 0
    outer loop
      vertex -5.10277 -12.4333 1.5
      vertex -5.02588 -12.4706 3
      vertex -5.10277 -12.4333 3
    endloop
  endfacet
  facet normal -0.435528 -0.900175 -0
    outer loop
      vertex -5.02588 -12.4706 3
      vertex -5.10277 -12.4333 1.5
      vertex -5.02588 -12.4706 1.5
    endloop
  endfacet
  facet normal -0.318951 -0.947771 0
    outer loop
      vertex -5.02588 -12.4706 1.5
      vertex -4.94308 -12.4984 3
      vertex -5.02588 -12.4706 3
    endloop
  endfacet
  facet normal -0.318951 -0.947771 -0
    outer loop
      vertex -4.94308 -12.4984 3
      vertex -5.02588 -12.4706 1.5
      vertex -4.94308 -12.4984 1.5
    endloop
  endfacet
  facet normal -0.200356 -0.979723 0
    outer loop
      vertex -4.94308 -12.4984 1.5
      vertex -4.85497 -12.5164 3
      vertex -4.94308 -12.4984 3
    endloop
  endfacet
  facet normal -0.200356 -0.979723 -0
    outer loop
      vertex -4.85497 -12.5164 3
      vertex -4.94308 -12.4984 1.5
      vertex -4.85497 -12.5164 1.5
    endloop
  endfacet
  facet normal -0.0932389 -0.995644 0
    outer loop
      vertex -4.85497 -12.5164 1.5
      vertex -4.78099 -12.5234 3
      vertex -4.85497 -12.5164 3
    endloop
  endfacet
  facet normal -0.0932389 -0.995644 -0
    outer loop
      vertex -4.78099 -12.5234 3
      vertex -4.85497 -12.5164 1.5
      vertex -4.78099 -12.5234 1.5
    endloop
  endfacet
endsolid OpenSCAD_Model
