solid OpenSCAD_Model
  facet normal -1 0 0
    outer loop
      vertex -16.5 16.5 -1
      vertex -16.5 7.15 13.3
      vertex -16.5 16.5 15
    endloop
  endfacet
  facet normal -1 0 0
    outer loop
      vertex -16.5 16.5 -1
      vertex -16.5 -7.15 13.3
      vertex -16.5 7.15 13.3
    endloop
  endfacet
  facet normal -1 0 0
    outer loop
      vertex -16.5 -16.5 -1
      vertex -16.5 -7.15 13.3
      vertex -16.5 16.5 -1
    endloop
  endfacet
  facet normal -1 0 0
    outer loop
      vertex -16.5 -16.5 15
      vertex -16.5 -7.15 13.3
      vertex -16.5 -16.5 -1
    endloop
  endfacet
  facet normal -1 0 0
    outer loop
      vertex -16.5 -7.15 13.3
      vertex -16.5 -16.5 15
      vertex -16.5 -7.15 15
    endloop
  endfacet
  facet normal -1 -0 0
    outer loop
      vertex -16.5 16.5 15
      vertex -16.5 7.15 13.3
      vertex -16.5 7.15 15
    endloop
  endfacet
  facet normal -7.16349e-26 1.22465e-16 1
    outer loop
      vertex 1.13588 -0.292557 3.58279e-17
      vertex 15.5 -15.5 1.8982e-15
      vertex 15.5 15.5 -1.8982e-15
    endloop
  endfacet
  facet normal 8.3462e-23 1.22465e-16 1
    outer loop
      vertex 15.5 -15.5 1.8982e-15
      vertex 6.63885 -12.6896 1.55403e-15
      vertex 6.63997 -12.8153 1.56942e-15
    endloop
  endfacet
  facet normal -5.18598e-23 1.22465e-16 1
    outer loop
      vertex 15.5 -15.5 1.8982e-15
      vertex 6.61896 -12.5624 1.53845e-15
      vertex 6.63885 -12.6896 1.55403e-15
    endloop
  endfacet
  facet normal -1.06734e-22 1.22464e-16 1
    outer loop
      vertex 15.5 -15.5 1.8982e-15
      vertex 6.58141 -12.4347 1.52281e-15
      vertex 6.61896 -12.5624 1.53845e-15
    endloop
  endfacet
  facet normal -1.48529e-22 1.22465e-16 1
    outer loop
      vertex 6.55682 11.9604 -1.46473e-15
      vertex 15.5 15.5 -1.8982e-15
      vertex 6.56863 12.083 -1.47974e-15
    endloop
  endfacet
  facet normal 1.27326e-22 1.22464e-16 1
    outer loop
      vertex 15.5 15.5 -1.8982e-15
      vertex 6.56247 12.2037 -1.49453e-15
      vertex 6.56863 12.083 -1.47974e-15
    endloop
  endfacet
  facet normal -1.09396e-23 1.22465e-16 1
    outer loop
      vertex 15.5 15.5 -1.8982e-15
      vertex 6.54163 12.3078 -1.50727e-15
      vertex 6.56247 12.2037 -1.49453e-15
    endloop
  endfacet
  facet normal 2.75837e-23 1.22465e-16 1
    outer loop
      vertex 15.5 15.5 -1.8982e-15
      vertex 6.50882 12.3985 -1.51838e-15
      vertex 6.54163 12.3078 -1.50727e-15
    endloop
  endfacet
  facet normal -3.24743e-23 1.22465e-16 1
    outer loop
      vertex 15.5 15.5 -1.8982e-15
      vertex 6.46205 12.4857 -1.52905e-15
      vertex 6.50882 12.3985 -1.51838e-15
    endloop
  endfacet
  facet normal 1.44075e-22 1.22464e-16 1
    outer loop
      vertex 15.5 15.5 -1.8982e-15
      vertex 6.40292 12.5643 -1.53868e-15
      vertex 6.46205 12.4857 -1.52905e-15
    endloop
  endfacet
  facet normal -1.95304e-22 1.22465e-16 1
    outer loop
      vertex 15.5 15.5 -1.8982e-15
      vertex 6.33232 12.6334 -1.54714e-15
      vertex 6.40292 12.5643 -1.53868e-15
    endloop
  endfacet
  facet normal -7.99547e-23 1.22465e-16 1
    outer loop
      vertex 15.5 15.5 -1.8982e-15
      vertex 6.25121 12.6918 -1.55429e-15
      vertex 6.33232 12.6334 -1.54714e-15
    endloop
  endfacet
  facet normal 1.11671e-22 1.22464e-16 1
    outer loop
      vertex 15.5 15.5 -1.8982e-15
      vertex 6.14363 12.7454 -1.56086e-15
      vertex 6.25121 12.6918 -1.55429e-15
    endloop
  endfacet
  facet normal -3.5417e-25 1.22465e-16 1
    outer loop
      vertex 15.5 15.5 -1.8982e-15
      vertex 6.02454 12.782 -1.56534e-15
      vertex 6.14363 12.7454 -1.56086e-15
    endloop
  endfacet
  facet normal -2.06722e-22 1.22465e-16 1
    outer loop
      vertex 15.5 15.5 -1.8982e-15
      vertex 5.89943 12.8002 -1.56757e-15
      vertex 6.02454 12.782 -1.56534e-15
    endloop
  endfacet
  facet normal 2.79579e-23 1.22465e-16 1
    outer loop
      vertex 15.5 15.5 -1.8982e-15
      vertex 3.31807 12.8028 -1.56789e-15
      vertex 5.89943 12.8002 -1.56757e-15
    endloop
  endfacet
  facet normal -7.29065e-22 1.22468e-16 1
    outer loop
      vertex 15.5 15.5 -1.8982e-15
      vertex 3.19884 12.7943 -1.56685e-15
      vertex 3.31807 12.8028 -1.56789e-15
    endloop
  endfacet
  facet normal -2.26274e-24 1.22465e-16 1
    outer loop
      vertex -2.75414 12.8002 -1.56757e-15
      vertex 3.19884 12.7943 -1.56685e-15
      vertex 15.5 15.5 -1.8982e-15
    endloop
  endfacet
  facet normal 3.18618e-24 1.22465e-16 1
    outer loop
      vertex 2.1266 12.0486 -1.47553e-15
      vertex -1.86272 6.44482 -7.89263e-16
      vertex -1.10179 4.76633 -5.83707e-16
    endloop
  endfacet
  facet normal -1.61226e-23 1.22464e-16 1
    outer loop
      vertex -1.98082 12.2943 -1.50562e-15
      vertex 2.1266 12.0486 -1.47553e-15
      vertex 2.19322 12.1631 -1.48955e-15
    endloop
  endfacet
  facet normal -1.0189e-23 1.22465e-16 1
    outer loop
      vertex 2.1266 12.0486 -1.47553e-15
      vertex -1.86293 11.8261 -1.44828e-15
      vertex -1.86272 6.44482 -7.89263e-16
    endloop
  endfacet
  facet normal -2.02152e-24 1.22465e-16 1
    outer loop
      vertex -2.04373 12.3976 -1.51827e-15
      vertex 2.19322 12.1631 -1.48955e-15
      vertex 2.27138 12.2706 -1.50272e-15
    endloop
  endfacet
  facet normal -7.13993e-24 1.22465e-16 1
    outer loop
      vertex -2.1183 12.4914 -1.52976e-15
      vertex 2.27138 12.2706 -1.50272e-15
      vertex 2.37714 12.3878 -1.51707e-15
    endloop
  endfacet
  facet normal 6.52472e-24 1.22465e-16 1
    outer loop
      vertex -2.1183 12.4914 -1.52976e-15
      vertex 2.37714 12.3878 -1.51707e-15
      vertex 2.49542 12.4928 -1.52993e-15
    endloop
  endfacet
  facet normal -8.67926e-24 1.22464e-16 1
    outer loop
      vertex -2.20351 12.5746 -1.53995e-15
      vertex 2.49542 12.4928 -1.52993e-15
      vertex 2.62096 12.5826 -1.54093e-15
    endloop
  endfacet
  facet normal -2.61004e-24 1.22466e-16 1
    outer loop
      vertex -2.29829 12.6463 -1.54872e-15
      vertex 2.62096 12.5826 -1.54093e-15
      vertex 2.75798 12.6601 -1.55042e-15
    endloop
  endfacet
  facet normal -1.43092e-23 1.22463e-16 1
    outer loop
      vertex -2.40157 12.7055 -1.55597e-15
      vertex 2.75798 12.6601 -1.55042e-15
      vertex 2.8978 12.7208 -1.55785e-15
    endloop
  endfacet
  facet normal 9.8939e-25 1.22466e-16 1
    outer loop
      vertex -2.51213 12.7513 -1.56158e-15
      vertex 2.8978 12.7208 -1.55785e-15
      vertex 3.04904 12.767 -1.56351e-15
    endloop
  endfacet
  facet normal -1.00568e-24 1.22466e-16 1
    outer loop
      vertex -2.63248 12.7839 -1.56557e-15
      vertex 3.19884 12.7943 -1.56685e-15
      vertex -2.75414 12.8002 -1.56757e-15
    endloop
  endfacet
  facet normal 3.03608e-23 1.22464e-16 1
    outer loop
      vertex 2.1266 12.0486 -1.47553e-15
      vertex -1.87135 11.9416 -1.46242e-15
      vertex -1.86293 11.8261 -1.44828e-15
    endloop
  endfacet
  facet normal 1.10809e-23 1.22465e-16 1
    outer loop
      vertex 2.1266 12.0486 -1.47553e-15
      vertex -1.89439 12.067 -1.47778e-15
      vertex -1.87135 11.9416 -1.46242e-15
    endloop
  endfacet
  facet normal 1.34581e-23 1.22465e-16 1
    outer loop
      vertex 2.1266 12.0486 -1.47553e-15
      vertex -1.9305 12.1824 -1.49192e-15
      vertex -1.89439 12.067 -1.47778e-15
    endloop
  endfacet
  facet normal -2.50773e-23 1.22464e-16 1
    outer loop
      vertex 2.1266 12.0486 -1.47553e-15
      vertex -1.98082 12.2943 -1.50562e-15
      vertex -1.9305 12.1824 -1.49192e-15
    endloop
  endfacet
  facet normal 2.68385e-23 1.22466e-16 1
    outer loop
      vertex 2.19322 12.1631 -1.48955e-15
      vertex -2.04373 12.3976 -1.51827e-15
      vertex -1.98082 12.2943 -1.50562e-15
    endloop
  endfacet
  facet normal -3.05648e-23 1.22464e-16 1
    outer loop
      vertex 2.27138 12.2706 -1.50272e-15
      vertex -2.1183 12.4914 -1.52976e-15
      vertex -2.04373 12.3976 -1.51827e-15
    endloop
  endfacet
  facet normal 6.56195e-24 1.22465e-16 1
    outer loop
      vertex 2.49542 12.4928 -1.52993e-15
      vertex -2.20351 12.5746 -1.53995e-15
      vertex -2.1183 12.4914 -1.52976e-15
    endloop
  endfacet
  facet normal -1.00725e-23 1.22465e-16 1
    outer loop
      vertex 2.62096 12.5826 -1.54093e-15
      vertex -2.29829 12.6463 -1.54872e-15
      vertex -2.20351 12.5746 -1.53995e-15
    endloop
  endfacet
  facet normal -7.41624e-25 1.22465e-16 1
    outer loop
      vertex 2.75798 12.6601 -1.55042e-15
      vertex -2.40157 12.7055 -1.55597e-15
      vertex -2.29829 12.6463 -1.54872e-15
    endloop
  endfacet
  facet normal -1.37777e-23 1.22463e-16 1
    outer loop
      vertex 2.8978 12.7208 -1.55785e-15
      vertex -2.51213 12.7513 -1.56158e-15
      vertex -2.40157 12.7055 -1.55597e-15
    endloop
  endfacet
  facet normal 8.64874e-25 1.22466e-16 1
    outer loop
      vertex 3.04904 12.767 -1.56351e-15
      vertex -2.63248 12.7839 -1.56557e-15
      vertex -2.51213 12.7513 -1.56158e-15
    endloop
  endfacet
  facet normal -1.23138e-25 1.22465e-16 1
    outer loop
      vertex 3.19884 12.7943 -1.56685e-15
      vertex -2.63248 12.7839 -1.56557e-15
      vertex 3.04904 12.767 -1.56351e-15
    endloop
  endfacet
  facet normal -0 1.22465e-16 1
    outer loop
      vertex -15.5 15.5 -1.8982e-15
      vertex -2.75414 12.8002 -1.56757e-15
      vertex 15.5 15.5 -1.8982e-15
    endloop
  endfacet
  facet normal 5.20077e-24 1.22465e-16 1
    outer loop
      vertex -2.75414 12.8002 -1.56757e-15
      vertex -15.5 15.5 -1.8982e-15
      vertex -5.35374 12.8021 -1.5678e-15
    endloop
  endfacet
  facet normal 1.46874e-24 1.22465e-16 1
    outer loop
      vertex -15.5 -15.5 1.8982e-15
      vertex -6.31181 11.845 -1.4506e-15
      vertex -15.5 15.5 -1.8982e-15
    endloop
  endfacet
  facet normal -4.31328e-23 1.22465e-16 1
    outer loop
      vertex -6.29442 12.0043 -1.4701e-15
      vertex -15.5 15.5 -1.8982e-15
      vertex -6.31181 11.845 -1.4506e-15
    endloop
  endfacet
  facet normal -7.28768e-23 1.22464e-16 1
    outer loop
      vertex -6.2636 12.1274 -1.48518e-15
      vertex -15.5 15.5 -1.8982e-15
      vertex -6.29442 12.0043 -1.4701e-15
    endloop
  endfacet
  facet normal 5.56469e-23 1.22465e-16 1
    outer loop
      vertex -6.21855 12.2435 -1.49939e-15
      vertex -15.5 15.5 -1.8982e-15
      vertex -6.2636 12.1274 -1.48518e-15
    endloop
  endfacet
  facet normal -8.05644e-23 1.22464e-16 1
    outer loop
      vertex -6.16008 12.3513 -1.5126e-15
      vertex -15.5 15.5 -1.8982e-15
      vertex -6.21855 12.2435 -1.49939e-15
    endloop
  endfacet
  facet normal 7.02644e-23 1.22465e-16 1
    outer loop
      vertex -6.08652 12.4527 -1.52502e-15
      vertex -15.5 15.5 -1.8982e-15
      vertex -6.16008 12.3513 -1.5126e-15
    endloop
  endfacet
  facet normal -7.58025e-23 1.22464e-16 1
    outer loop
      vertex -6.00349 12.5407 -1.53579e-15
      vertex -15.5 15.5 -1.8982e-15
      vertex -6.08652 12.4527 -1.52502e-15
    endloop
  endfacet
  facet normal 1.1398e-22 1.22465e-16 1
    outer loop
      vertex -5.90987 12.6174 -1.54519e-15
      vertex -15.5 15.5 -1.8982e-15
      vertex -6.00349 12.5407 -1.53579e-15
    endloop
  endfacet
  facet normal 9.77945e-23 1.22465e-16 1
    outer loop
      vertex -5.80666 12.6819 -1.55309e-15
      vertex -15.5 15.5 -1.8982e-15
      vertex -5.90987 12.6174 -1.54519e-15
    endloop
  endfacet
  facet normal 7.74392e-23 1.22465e-16 1
    outer loop
      vertex -5.69492 12.7334 -1.55939e-15
      vertex -15.5 15.5 -1.8982e-15
      vertex -5.80666 12.6819 -1.55309e-15
    endloop
  endfacet
  facet normal -3.02426e-22 1.22464e-16 1
    outer loop
      vertex -5.57574 12.7711 -1.56401e-15
      vertex -15.5 15.5 -1.8982e-15
      vertex -5.69492 12.7334 -1.55939e-15
    endloop
  endfacet
  facet normal 2.09386e-22 1.22465e-16 1
    outer loop
      vertex -5.45782 12.7937 -1.56677e-15
      vertex -15.5 15.5 -1.8982e-15
      vertex -5.57574 12.7711 -1.56401e-15
    endloop
  endfacet
  facet normal 7.22269e-23 1.22465e-16 1
    outer loop
      vertex -5.35374 12.8021 -1.5678e-15
      vertex -15.5 15.5 -1.8982e-15
      vertex -5.45782 12.7937 -1.56677e-15
    endloop
  endfacet
  facet normal -3.77203e-23 1.22465e-16 1
    outer loop
      vertex 6.62585 -12.916 1.58176e-15
      vertex 15.5 -15.5 1.8982e-15
      vertex 6.63997 -12.8153 1.56942e-15
    endloop
  endfacet
  facet normal 1.10507e-22 1.22465e-16 1
    outer loop
      vertex 6.59709 -13.0146 1.59383e-15
      vertex 15.5 -15.5 1.8982e-15
      vertex 6.62585 -12.916 1.58176e-15
    endloop
  endfacet
  facet normal 3.97663e-23 1.22465e-16 1
    outer loop
      vertex 6.55469 -13.1061 1.60504e-15
      vertex 15.5 -15.5 1.8982e-15
      vertex 6.59709 -13.0146 1.59383e-15
    endloop
  endfacet
  facet normal -2.39742e-22 1.22464e-16 1
    outer loop
      vertex 6.49683 -13.1921 1.61557e-15
      vertex 15.5 -15.5 1.8982e-15
      vertex 6.55469 -13.1061 1.60504e-15
    endloop
  endfacet
  facet normal 1.17939e-22 1.22465e-16 1
    outer loop
      vertex 6.42888 -13.2654 1.62454e-15
      vertex 15.5 -15.5 1.8982e-15
      vertex 6.49683 -13.1921 1.61557e-15
    endloop
  endfacet
  facet normal 7.31652e-23 1.22465e-16 1
    outer loop
      vertex 6.34979 -13.3281 1.63223e-15
      vertex 15.5 -15.5 1.8982e-15
      vertex 6.42888 -13.2654 1.62454e-15
    endloop
  endfacet
  facet normal -2.48264e-22 1.22464e-16 1
    outer loop
      vertex 6.26407 -13.378 1.63833e-15
      vertex 15.5 -15.5 1.8982e-15
      vertex 6.34979 -13.3281 1.63223e-15
    endloop
  endfacet
  facet normal 3.11507e-23 1.22465e-16 1
    outer loop
      vertex 6.16975 -13.4167 1.64307e-15
      vertex 15.5 -15.5 1.8982e-15
      vertex 6.26407 -13.378 1.63833e-15
    endloop
  endfacet
  facet normal 2.51742e-23 1.22465e-16 1
    outer loop
      vertex 6.05153 -13.4473 1.64682e-15
      vertex 15.5 -15.5 1.8982e-15
      vertex 6.16975 -13.4167 1.64307e-15
    endloop
  endfacet
  facet normal 4.49939e-22 1.22467e-16 1
    outer loop
      vertex 5.93478 -13.4618 1.64859e-15
      vertex 15.5 -15.5 1.8982e-15
      vertex 6.05153 -13.4473 1.64682e-15
    endloop
  endfacet
  facet normal -1.10221e-21 1.22459e-16 1
    outer loop
      vertex 5.86728 -13.464 1.64886e-15
      vertex 15.5 -15.5 1.8982e-15
      vertex 5.93478 -13.4618 1.64859e-15
    endloop
  endfacet
  facet normal 5.07069e-24 1.22465e-16 1
    outer loop
      vertex 3.30527 -13.4612 1.64852e-15
      vertex 15.5 -15.5 1.8982e-15
      vertex 5.86728 -13.464 1.64886e-15
    endloop
  endfacet
  facet normal -1.92668e-25 1.22462e-16 1
    outer loop
      vertex -2.6937 -13.455 1.64776e-15
      vertex 3.30527 -13.4612 1.64852e-15
      vertex 3.18242 -13.4457 1.64662e-15
    endloop
  endfacet
  facet normal -1.92082e-24 1.22465e-16 1
    outer loop
      vertex -1.86551 -12.5389 1.53557e-15
      vertex 2.11862 -12.607 1.54391e-15
      vertex -1.86284 -3.68158 4.50863e-16
    endloop
  endfacet
  facet normal -1.12918e-24 1.22465e-16 1
    outer loop
      vertex -1.88091 -12.6643 1.55093e-15
      vertex 2.11862 -12.607 1.54391e-15
      vertex -1.86551 -12.5389 1.53557e-15
    endloop
  endfacet
  facet normal -2.47743e-24 1.22465e-16 1
    outer loop
      vertex -1.91147 -12.7875 1.56602e-15
      vertex 2.11862 -12.607 1.54391e-15
      vertex -1.88091 -12.6643 1.55093e-15
    endloop
  endfacet
  facet normal -7.59376e-26 1.22465e-16 1
    outer loop
      vertex -1.95425 -12.9003 1.57983e-15
      vertex 2.11862 -12.607 1.54391e-15
      vertex -1.91147 -12.7875 1.56602e-15
    endloop
  endfacet
  facet normal 7.71277e-24 1.22465e-16 1
    outer loop
      vertex 2.11862 -12.607 1.54391e-15
      vertex -1.95425 -12.9003 1.57983e-15
      vertex 2.17859 -12.7202 1.55778e-15
    endloop
  endfacet
  facet normal 3.10602e-23 1.22464e-16 1
    outer loop
      vertex -2.0114 -13.0085 1.59308e-15
      vertex 2.17859 -12.7202 1.55778e-15
      vertex -1.95425 -12.9003 1.57983e-15
    endloop
  endfacet
  facet normal 3.07449e-24 1.22465e-16 1
    outer loop
      vertex 2.17859 -12.7202 1.55778e-15
      vertex -2.0114 -13.0085 1.59308e-15
      vertex 2.26537 -12.8512 1.57382e-15
    endloop
  endfacet
  facet normal -8.8827e-24 1.22465e-16 1
    outer loop
      vertex -2.08064 -13.1075 1.6052e-15
      vertex 2.26537 -12.8512 1.57382e-15
      vertex -2.0114 -13.0085 1.59308e-15
    endloop
  endfacet
  facet normal -3.62045e-23 1.22465e-16 1
    outer loop
      vertex 2.26537 -12.8512 1.57382e-15
      vertex -2.08064 -13.1075 1.6052e-15
      vertex 2.36765 -12.9755 1.58904e-15
    endloop
  endfacet
  facet normal -7.52384e-24 1.22464e-16 1
    outer loop
      vertex 2.36765 -12.9755 1.58904e-15
      vertex -2.08064 -13.1075 1.6052e-15
      vertex 2.47629 -13.0833 1.60225e-15
    endloop
  endfacet
  facet normal -1.34413e-23 1.22465e-16 1
    outer loop
      vertex -2.16098 -13.1962 1.61607e-15
      vertex 2.47629 -13.0833 1.60225e-15
      vertex -2.08064 -13.1075 1.6052e-15
    endloop
  endfacet
  facet normal 1.39269e-23 1.22464e-16 1
    outer loop
      vertex 2.47629 -13.0833 1.60225e-15
      vertex -2.16098 -13.1962 1.61607e-15
      vertex 2.61644 -13.1966 1.61611e-15
    endloop
  endfacet
  facet normal 1.3924e-23 1.22464e-16 1
    outer loop
      vertex -2.25136 -13.2738 1.62558e-15
      vertex 2.61644 -13.1966 1.61611e-15
      vertex -2.16098 -13.1962 1.61607e-15
    endloop
  endfacet
  facet normal 2.07748e-24 1.22465e-16 1
    outer loop
      vertex 2.61644 -13.1966 1.61611e-15
      vertex -2.25136 -13.2738 1.62558e-15
      vertex 2.76596 -13.292 1.6278e-15
    endloop
  endfacet
  facet normal 2.80391e-24 1.22465e-16 1
    outer loop
      vertex -2.35062 -13.3393 1.63359e-15
      vertex 2.76596 -13.292 1.6278e-15
      vertex -2.25136 -13.2738 1.62558e-15
    endloop
  endfacet
  facet normal 1.53293e-23 1.22464e-16 1
    outer loop
      vertex 2.76596 -13.292 1.6278e-15
      vertex -2.35062 -13.3393 1.63359e-15
      vertex 2.90024 -13.3587 1.63597e-15
    endloop
  endfacet
  facet normal 1.82501e-23 1.22465e-16 1
    outer loop
      vertex -2.45761 -13.3918 1.64002e-15
      vertex 2.90024 -13.3587 1.63597e-15
      vertex -2.35062 -13.3393 1.63359e-15
    endloop
  endfacet
  facet normal 1.38626e-23 1.22465e-16 1
    outer loop
      vertex 2.90024 -13.3587 1.63597e-15
      vertex -2.45761 -13.3918 1.64002e-15
      vertex 3.03729 -13.4097 1.64221e-15
    endloop
  endfacet
  facet normal 8.71269e-24 1.22464e-16 1
    outer loop
      vertex -2.5748 -13.4313 1.64485e-15
      vertex 3.03729 -13.4097 1.64221e-15
      vertex -2.45761 -13.3918 1.64002e-15
    endloop
  endfacet
  facet normal 1.82635e-24 1.22466e-16 1
    outer loop
      vertex 3.03729 -13.4097 1.64221e-15
      vertex -2.5748 -13.4313 1.64485e-15
      vertex 3.18242 -13.4457 1.64662e-15
    endloop
  endfacet
  facet normal -2.99009e-24 1.22464e-16 1
    outer loop
      vertex -2.6937 -13.455 1.64776e-15
      vertex 3.18242 -13.4457 1.64662e-15
      vertex -2.5748 -13.4313 1.64485e-15
    endloop
  endfacet
  facet normal 3.33256e-25 1.22462e-16 1
    outer loop
      vertex 3.30527 -13.4612 1.64852e-15
      vertex -2.6937 -13.455 1.64776e-15
      vertex -2.80528 -13.4638 1.64884e-15
    endloop
  endfacet
  facet normal -6.15346e-25 1.22465e-16 1
    outer loop
      vertex 3.30527 -13.4612 1.64852e-15
      vertex -2.80528 -13.4638 1.64884e-15
      vertex 15.5 -15.5 1.8982e-15
    endloop
  endfacet
  facet normal 1.4526e-24 1.22465e-16 1
    outer loop
      vertex -15.5 -15.5 1.8982e-15
      vertex -2.80528 -13.4638 1.64884e-15
      vertex -5.38759 -13.4612 1.64852e-15
    endloop
  endfacet
  facet normal 1.91461e-24 1.22465e-16 1
    outer loop
      vertex -6.31181 11.845 -1.4506e-15
      vertex -15.5 -15.5 1.8982e-15
      vertex -6.31247 -12.4861 1.52911e-15
    endloop
  endfacet
  facet normal -7.13844e-23 1.22465e-16 1
    outer loop
      vertex -6.31247 -12.4861 1.52911e-15
      vertex -15.5 -15.5 1.8982e-15
      vertex -6.3037 -12.6054 1.54371e-15
    endloop
  endfacet
  facet normal 7.33652e-23 1.22464e-16 1
    outer loop
      vertex -6.3037 -12.6054 1.54371e-15
      vertex -15.5 -15.5 1.8982e-15
      vertex -6.28075 -12.727 1.55861e-15
    endloop
  endfacet
  facet normal 0 1.22465e-16 1
    outer loop
      vertex -2.80528 -13.4638 1.64884e-15
      vertex -15.5 -15.5 1.8982e-15
      vertex 15.5 -15.5 1.8982e-15
    endloop
  endfacet
  facet normal 2.12356e-22 1.22464e-16 1
    outer loop
      vertex -5.51302 -13.4457 1.64662e-15
      vertex -15.5 -15.5 1.8982e-15
      vertex -5.38759 -13.4612 1.64852e-15
    endloop
  endfacet
  facet normal -2.45046e-22 1.22466e-16 1
    outer loop
      vertex -5.63623 -13.4149 1.64285e-15
      vertex -15.5 -15.5 1.8982e-15
      vertex -5.51302 -13.4457 1.64662e-15
    endloop
  endfacet
  facet normal 2.94608e-22 1.22463e-16 1
    outer loop
      vertex -5.75237 -13.3698 1.63733e-15
      vertex -15.5 -15.5 1.8982e-15
      vertex -5.63623 -13.4149 1.64285e-15
    endloop
  endfacet
  facet normal 8.79403e-24 1.22465e-16 1
    outer loop
      vertex -5.86031 -13.3114 1.63017e-15
      vertex -15.5 -15.5 1.8982e-15
      vertex -5.75237 -13.3698 1.63733e-15
    endloop
  endfacet
  facet normal -4.56088e-23 1.22465e-16 1
    outer loop
      vertex -5.96254 -13.2372 1.62108e-15
      vertex -15.5 -15.5 1.8982e-15
      vertex -5.86031 -13.3114 1.63017e-15
    endloop
  endfacet
  facet normal -1.47034e-22 1.22465e-16 1
    outer loop
      vertex -6.04991 -13.1548 1.611e-15
      vertex -15.5 -15.5 1.8982e-15
      vertex -5.96254 -13.2372 1.62108e-15
    endloop
  endfacet
  facet normal 9.22351e-23 1.22464e-16 1
    outer loop
      vertex -6.12674 -13.0612 1.59953e-15
      vertex -15.5 -15.5 1.8982e-15
      vertex -6.04991 -13.1548 1.611e-15
    endloop
  endfacet
  facet normal -8.19098e-24 1.22465e-16 1
    outer loop
      vertex -6.19138 -12.9579 1.58689e-15
      vertex -15.5 -15.5 1.8982e-15
      vertex -6.12674 -13.0612 1.59953e-15
    endloop
  endfacet
  facet normal -5.34294e-23 1.22465e-16 1
    outer loop
      vertex -6.24297 -12.8462 1.57321e-15
      vertex -15.5 -15.5 1.8982e-15
      vertex -6.19138 -12.9579 1.58689e-15
    endloop
  endfacet
  facet normal -3.49596e-23 1.22465e-16 1
    outer loop
      vertex -6.28075 -12.727 1.55861e-15
      vertex -15.5 -15.5 1.8982e-15
      vertex -6.24297 -12.8462 1.57321e-15
    endloop
  endfacet
  facet normal -5.22377e-23 1.22465e-16 1
    outer loop
      vertex 6.52936 11.8407 -1.45007e-15
      vertex 15.5 15.5 -1.8982e-15
      vertex 6.55682 11.9604 -1.46473e-15
    endloop
  endfacet
  facet normal 9.66593e-23 1.22464e-16 1
    outer loop
      vertex 6.48827 11.7242 -1.4358e-15
      vertex 15.5 15.5 -1.8982e-15
      vertex 6.52936 11.8407 -1.45007e-15
    endloop
  endfacet
  facet normal -2.81512e-25 1.22465e-16 1
    outer loop
      vertex 1.13588 -0.292557 3.58279e-17
      vertex 15.5 15.5 -1.8982e-15
      vertex 6.48827 11.7242 -1.4358e-15
    endloop
  endfacet
  facet normal 6.8456e-24 1.22465e-16 1
    outer loop
      vertex 15.5 -15.5 1.8982e-15
      vertex 1.13588 -0.292557 3.58279e-17
      vertex 6.58141 -12.4347 1.52281e-15
    endloop
  endfacet
  facet normal 1 0 0
    outer loop
      vertex 16.5 -7.15 15
      vertex 16.5 -16.5 15
      vertex 16.5 -7.15 13.3
    endloop
  endfacet
  facet normal 1 0 0
    outer loop
      vertex 16.5 7.15 13.3
      vertex 16.5 16.5 15
      vertex 16.5 7.15 15
    endloop
  endfacet
  facet normal 1 0 0
    outer loop
      vertex 16.5 16.5 15
      vertex 16.5 7.15 13.3
      vertex 16.5 16.5 -1
    endloop
  endfacet
  facet normal 1 -0 0
    outer loop
      vertex 16.5 -7.15 13.3
      vertex 16.5 16.5 -1
      vertex 16.5 7.15 13.3
    endloop
  endfacet
  facet normal 1 0 0
    outer loop
      vertex 16.5 -16.5 -1
      vertex 16.5 -7.15 13.3
      vertex 16.5 -16.5 15
    endloop
  endfacet
  facet normal 1 0 0
    outer loop
      vertex 16.5 -7.15 13.3
      vertex 16.5 -16.5 -1
      vertex 16.5 16.5 -1
    endloop
  endfacet
  facet normal 0 -1 0
    outer loop
      vertex -16.5 -16.5 15
      vertex -7.15 -16.5 13.3
      vertex -7.15 -16.5 15
    endloop
  endfacet
  facet normal 0 -1 -0
    outer loop
      vertex -7.15 -16.5 13.3
      vertex -16.5 -16.5 -1
      vertex 7.15 -16.5 13.3
    endloop
  endfacet
  facet normal 0 -1 0
    outer loop
      vertex -16.5 -16.5 -1
      vertex -7.15 -16.5 13.3
      vertex -16.5 -16.5 15
    endloop
  endfacet
  facet normal 0 -1 0
    outer loop
      vertex 7.15 -16.5 13.3
      vertex 16.5 -16.5 15
      vertex 7.15 -16.5 15
    endloop
  endfacet
  facet normal 0 -1 0
    outer loop
      vertex 16.5 -16.5 -1
      vertex 7.15 -16.5 13.3
      vertex -16.5 -16.5 -1
    endloop
  endfacet
  facet normal 0 -1 0
    outer loop
      vertex 7.15 -16.5 13.3
      vertex 16.5 -16.5 -1
      vertex 16.5 -16.5 15
    endloop
  endfacet
  facet normal 0 0 1
    outer loop
      vertex -15.5 -7.15 15
      vertex -16.5 -7.15 15
      vertex -15.5 -15.5 15
    endloop
  endfacet
  facet normal -0 0 1
    outer loop
      vertex -15.5 -15.5 15
      vertex -7.15 -16.5 15
      vertex -7.15 -15.5 15
    endloop
  endfacet
  facet normal 0 0 1
    outer loop
      vertex -15.5 -15.5 15
      vertex -16.5 -16.5 15
      vertex -7.15 -16.5 15
    endloop
  endfacet
  facet normal 0 0 1
    outer loop
      vertex -16.5 -16.5 15
      vertex -15.5 -15.5 15
      vertex -16.5 -7.15 15
    endloop
  endfacet
  facet normal 0 0 1
    outer loop
      vertex -7.15 16.5 15
      vertex -15.5 15.5 15
      vertex -7.15 15.5 15
    endloop
  endfacet
  facet normal -0 0 1
    outer loop
      vertex -16.5 16.5 15
      vertex -15.5 15.5 15
      vertex -7.15 16.5 15
    endloop
  endfacet
  facet normal 0 0 1
    outer loop
      vertex -16.5 7.15 15
      vertex -15.5 15.5 15
      vertex -16.5 16.5 15
    endloop
  endfacet
  facet normal 0 0 1
    outer loop
      vertex -15.5 15.5 15
      vertex -16.5 7.15 15
      vertex -15.5 7.15 15
    endloop
  endfacet
  facet normal 0 0 1
    outer loop
      vertex 16.5 16.5 15
      vertex 15.5 15.5 15
      vertex 16.5 7.15 15
    endloop
  endfacet
  facet normal -0 0 1
    outer loop
      vertex 7.15 16.5 15
      vertex 15.5 15.5 15
      vertex 16.5 16.5 15
    endloop
  endfacet
  facet normal 0 0 1
    outer loop
      vertex 15.5 15.5 15
      vertex 7.15 16.5 15
      vertex 7.15 15.5 15
    endloop
  endfacet
  facet normal 0 0 1
    outer loop
      vertex 16.5 7.15 15
      vertex 15.5 15.5 15
      vertex 15.5 7.15 15
    endloop
  endfacet
  facet normal 0 0 1
    outer loop
      vertex 15.5 -15.5 15
      vertex 16.5 -7.15 15
      vertex 15.5 -7.15 15
    endloop
  endfacet
  facet normal 0 0 1
    outer loop
      vertex 16.5 -7.15 15
      vertex 15.5 -15.5 15
      vertex 16.5 -16.5 15
    endloop
  endfacet
  facet normal 0 0 1
    outer loop
      vertex 7.15 -16.5 15
      vertex 15.5 -15.5 15
      vertex 7.15 -15.5 15
    endloop
  endfacet
  facet normal 0 0 1
    outer loop
      vertex 15.5 -15.5 15
      vertex 7.15 -16.5 15
      vertex 16.5 -16.5 15
    endloop
  endfacet
  facet normal 0 1 0
    outer loop
      vertex 16.5 16.5 15
      vertex 7.15 16.5 13.3
      vertex 7.15 16.5 15
    endloop
  endfacet
  facet normal 0 1 0
    outer loop
      vertex 7.15 16.5 13.3
      vertex 16.5 16.5 -1
      vertex -7.15 16.5 13.3
    endloop
  endfacet
  facet normal 0 1 -0
    outer loop
      vertex 16.5 16.5 -1
      vertex 7.15 16.5 13.3
      vertex 16.5 16.5 15
    endloop
  endfacet
  facet normal 0 1 -0
    outer loop
      vertex -7.15 16.5 13.3
      vertex -16.5 16.5 15
      vertex -7.15 16.5 15
    endloop
  endfacet
  facet normal 0 1 0
    outer loop
      vertex -16.5 16.5 -1
      vertex -7.15 16.5 13.3
      vertex 16.5 16.5 -1
    endloop
  endfacet
  facet normal 0 1 0
    outer loop
      vertex -7.15 16.5 13.3
      vertex -16.5 16.5 -1
      vertex -16.5 16.5 15
    endloop
  endfacet
  facet normal 1 0 0
    outer loop
      vertex -15.5 -7.15 15
      vertex -15.5 -15.5 15
      vertex -15.5 -7.15 13.3
    endloop
  endfacet
  facet normal 1 0 0
    outer loop
      vertex -15.5 7.15 13.3
      vertex -15.5 15.5 15
      vertex -15.5 7.15 15
    endloop
  endfacet
  facet normal 1 0 0
    outer loop
      vertex -15.5 15.5 15
      vertex -15.5 7.15 13.3
      vertex -15.5 15.5 -1.8982e-15
    endloop
  endfacet
  facet normal 1 -0 0
    outer loop
      vertex -15.5 -7.15 13.3
      vertex -15.5 15.5 -1.8982e-15
      vertex -15.5 7.15 13.3
    endloop
  endfacet
  facet normal 1 0 0
    outer loop
      vertex -15.5 -15.5 1.8982e-15
      vertex -15.5 -7.15 13.3
      vertex -15.5 -15.5 15
    endloop
  endfacet
  facet normal 1 0 0
    outer loop
      vertex -15.5 -7.15 13.3
      vertex -15.5 -15.5 1.8982e-15
      vertex -15.5 15.5 -1.8982e-15
    endloop
  endfacet
  facet normal -1 0 0
    outer loop
      vertex 15.5 15.5 -1.8982e-15
      vertex 15.5 7.15 13.3
      vertex 15.5 15.5 15
    endloop
  endfacet
  facet normal -1 0 0
    outer loop
      vertex 15.5 15.5 -1.8982e-15
      vertex 15.5 -7.15 13.3
      vertex 15.5 7.15 13.3
    endloop
  endfacet
  facet normal -1 0 0
    outer loop
      vertex 15.5 -15.5 1.8982e-15
      vertex 15.5 -7.15 13.3
      vertex 15.5 15.5 -1.8982e-15
    endloop
  endfacet
  facet normal -1 0 0
    outer loop
      vertex 15.5 -15.5 15
      vertex 15.5 -7.15 13.3
      vertex 15.5 -15.5 1.8982e-15
    endloop
  endfacet
  facet normal -1 0 0
    outer loop
      vertex 15.5 -7.15 13.3
      vertex 15.5 -15.5 15
      vertex 15.5 -7.15 15
    endloop
  endfacet
  facet normal -1 -0 0
    outer loop
      vertex 15.5 15.5 15
      vertex 15.5 7.15 13.3
      vertex 15.5 7.15 15
    endloop
  endfacet
  facet normal 0 1 0
    outer loop
      vertex 15.5 -15.5 15
      vertex 7.15 -15.5 13.3
      vertex 7.15 -15.5 15
    endloop
  endfacet
  facet normal 0 1 0
    outer loop
      vertex 7.15 -15.5 13.3
      vertex 15.5 -15.5 1.8982e-15
      vertex -7.15 -15.5 13.3
    endloop
  endfacet
  facet normal 0 1 -0
    outer loop
      vertex 15.5 -15.5 1.8982e-15
      vertex 7.15 -15.5 13.3
      vertex 15.5 -15.5 15
    endloop
  endfacet
  facet normal 0 1 -0
    outer loop
      vertex -7.15 -15.5 13.3
      vertex -15.5 -15.5 15
      vertex -7.15 -15.5 15
    endloop
  endfacet
  facet normal 0 1 0
    outer loop
      vertex -15.5 -15.5 1.8982e-15
      vertex -7.15 -15.5 13.3
      vertex 15.5 -15.5 1.8982e-15
    endloop
  endfacet
  facet normal 0 1 0
    outer loop
      vertex -7.15 -15.5 13.3
      vertex -15.5 -15.5 1.8982e-15
      vertex -15.5 -15.5 15
    endloop
  endfacet
  facet normal 0 -1 0
    outer loop
      vertex -15.5 15.5 15
      vertex -7.15 15.5 13.3
      vertex -7.15 15.5 15
    endloop
  endfacet
  facet normal 0 -1 -0
    outer loop
      vertex -7.15 15.5 13.3
      vertex -15.5 15.5 -1.8982e-15
      vertex 7.15 15.5 13.3
    endloop
  endfacet
  facet normal 0 -1 0
    outer loop
      vertex -15.5 15.5 -1.8982e-15
      vertex -7.15 15.5 13.3
      vertex -15.5 15.5 15
    endloop
  endfacet
  facet normal 0 -1 0
    outer loop
      vertex 7.15 15.5 13.3
      vertex 15.5 15.5 15
      vertex 7.15 15.5 15
    endloop
  endfacet
  facet normal 0 -1 0
    outer loop
      vertex 15.5 15.5 -1.8982e-15
      vertex 7.15 15.5 13.3
      vertex -15.5 15.5 -1.8982e-15
    endloop
  endfacet
  facet normal 0 -1 0
    outer loop
      vertex 7.15 15.5 13.3
      vertex 15.5 15.5 -1.8982e-15
      vertex 15.5 15.5 15
    endloop
  endfacet
  facet normal 0 0 -1
    outer loop
      vertex 16.5 16.5 -1
      vertex 6.55682 11.9604 -1
      vertex 6.56863 12.083 -1
    endloop
  endfacet
  facet normal 0 0 -1
    outer loop
      vertex 16.5 -16.5 -1
      vertex 6.52936 11.8407 -1
      vertex 6.55682 11.9604 -1
    endloop
  endfacet
  facet normal 0 0 -1
    outer loop
      vertex 16.5 -16.5 -1
      vertex 6.48827 11.7242 -1
      vertex 6.52936 11.8407 -1
    endloop
  endfacet
  facet normal 0 -0 -1
    outer loop
      vertex 6.48827 11.7242 -1
      vertex 6.58141 -12.4347 -1
      vertex 1.13588 -0.292557 -1
    endloop
  endfacet
  facet normal 0 0 -1
    outer loop
      vertex 6.63885 -12.6896 -1
      vertex 16.5 -16.5 -1
      vertex 6.63997 -12.8153 -1
    endloop
  endfacet
  facet normal 0 0 -1
    outer loop
      vertex 16.5 -16.5 -1
      vertex 6.62585 -12.916 -1
      vertex 6.63997 -12.8153 -1
    endloop
  endfacet
  facet normal 0 0 -1
    outer loop
      vertex 16.5 -16.5 -1
      vertex 6.59709 -13.0146 -1
      vertex 6.62585 -12.916 -1
    endloop
  endfacet
  facet normal 0 0 -1
    outer loop
      vertex 16.5 -16.5 -1
      vertex 6.55469 -13.1061 -1
      vertex 6.59709 -13.0146 -1
    endloop
  endfacet
  facet normal 0 0 -1
    outer loop
      vertex 16.5 -16.5 -1
      vertex 6.49683 -13.1921 -1
      vertex 6.55469 -13.1061 -1
    endloop
  endfacet
  facet normal 0 0 -1
    outer loop
      vertex 16.5 -16.5 -1
      vertex 6.42888 -13.2654 -1
      vertex 6.49683 -13.1921 -1
    endloop
  endfacet
  facet normal 0 0 -1
    outer loop
      vertex 16.5 -16.5 -1
      vertex 6.34979 -13.3281 -1
      vertex 6.42888 -13.2654 -1
    endloop
  endfacet
  facet normal 0 0 -1
    outer loop
      vertex 16.5 -16.5 -1
      vertex 6.26407 -13.378 -1
      vertex 6.34979 -13.3281 -1
    endloop
  endfacet
  facet normal 0 0 -1
    outer loop
      vertex 16.5 -16.5 -1
      vertex 6.16975 -13.4167 -1
      vertex 6.26407 -13.378 -1
    endloop
  endfacet
  facet normal 0 0 -1
    outer loop
      vertex 16.5 -16.5 -1
      vertex 6.05153 -13.4473 -1
      vertex 6.16975 -13.4167 -1
    endloop
  endfacet
  facet normal 0 0 -1
    outer loop
      vertex 16.5 -16.5 -1
      vertex 5.93478 -13.4618 -1
      vertex 6.05153 -13.4473 -1
    endloop
  endfacet
  facet normal 0 0 -1
    outer loop
      vertex 16.5 -16.5 -1
      vertex 5.86728 -13.464 -1
      vertex 5.93478 -13.4618 -1
    endloop
  endfacet
  facet normal 0 0 -1
    outer loop
      vertex 16.5 -16.5 -1
      vertex 3.30527 -13.4612 -1
      vertex 5.86728 -13.464 -1
    endloop
  endfacet
  facet normal 0 0 -1
    outer loop
      vertex -2.6937 -13.455 -1
      vertex 3.30527 -13.4612 -1
      vertex 16.5 -16.5 -1
    endloop
  endfacet
  facet normal 0 0 -1
    outer loop
      vertex 2.11862 -12.607 -1
      vertex -1.86551 -12.5389 -1
      vertex -1.86284 -3.68158 -1
    endloop
  endfacet
  facet normal 0 0 -1
    outer loop
      vertex -1.95425 -12.9003 -1
      vertex 2.11862 -12.607 -1
      vertex 2.17859 -12.7202 -1
    endloop
  endfacet
  facet normal 0 0 -1
    outer loop
      vertex -2.0114 -13.0085 -1
      vertex 2.17859 -12.7202 -1
      vertex 2.26537 -12.8512 -1
    endloop
  endfacet
  facet normal 0 0 -1
    outer loop
      vertex -2.08064 -13.1075 -1
      vertex 2.26537 -12.8512 -1
      vertex 2.36765 -12.9755 -1
    endloop
  endfacet
  facet normal 0 0 -1
    outer loop
      vertex -2.08064 -13.1075 -1
      vertex 2.36765 -12.9755 -1
      vertex 2.47629 -13.0833 -1
    endloop
  endfacet
  facet normal 0 0 -1
    outer loop
      vertex -2.16098 -13.1962 -1
      vertex 2.47629 -13.0833 -1
      vertex 2.61644 -13.1966 -1
    endloop
  endfacet
  facet normal 0 0 -1
    outer loop
      vertex -2.25136 -13.2738 -1
      vertex 2.61644 -13.1966 -1
      vertex 2.76596 -13.292 -1
    endloop
  endfacet
  facet normal 0 0 -1
    outer loop
      vertex -2.35062 -13.3393 -1
      vertex 2.76596 -13.292 -1
      vertex 2.90024 -13.3587 -1
    endloop
  endfacet
  facet normal 0 0 -1
    outer loop
      vertex -2.45761 -13.3918 -1
      vertex 2.90024 -13.3587 -1
      vertex 3.03729 -13.4097 -1
    endloop
  endfacet
  facet normal 0 0 -1
    outer loop
      vertex -2.5748 -13.4313 -1
      vertex 3.03729 -13.4097 -1
      vertex 3.18242 -13.4457 -1
    endloop
  endfacet
  facet normal 0 0 -1
    outer loop
      vertex 3.30527 -13.4612 -1
      vertex -2.6937 -13.455 -1
      vertex 3.18242 -13.4457 -1
    endloop
  endfacet
  facet normal -0 0 -1
    outer loop
      vertex 2.11862 -12.607 -1
      vertex -1.88091 -12.6643 -1
      vertex -1.86551 -12.5389 -1
    endloop
  endfacet
  facet normal 0 0 -1
    outer loop
      vertex 2.11862 -12.607 -1
      vertex -1.91147 -12.7875 -1
      vertex -1.88091 -12.6643 -1
    endloop
  endfacet
  facet normal 0 0 -1
    outer loop
      vertex 2.11862 -12.607 -1
      vertex -1.95425 -12.9003 -1
      vertex -1.91147 -12.7875 -1
    endloop
  endfacet
  facet normal 0 0 -1
    outer loop
      vertex 2.17859 -12.7202 -1
      vertex -2.0114 -13.0085 -1
      vertex -1.95425 -12.9003 -1
    endloop
  endfacet
  facet normal 0 0 -1
    outer loop
      vertex 2.26537 -12.8512 -1
      vertex -2.08064 -13.1075 -1
      vertex -2.0114 -13.0085 -1
    endloop
  endfacet
  facet normal 0 0 -1
    outer loop
      vertex 2.47629 -13.0833 -1
      vertex -2.16098 -13.1962 -1
      vertex -2.08064 -13.1075 -1
    endloop
  endfacet
  facet normal -0 0 -1
    outer loop
      vertex 2.61644 -13.1966 -1
      vertex -2.25136 -13.2738 -1
      vertex -2.16098 -13.1962 -1
    endloop
  endfacet
  facet normal -0 0 -1
    outer loop
      vertex 2.76596 -13.292 -1
      vertex -2.35062 -13.3393 -1
      vertex -2.25136 -13.2738 -1
    endloop
  endfacet
  facet normal -0 0 -1
    outer loop
      vertex 2.90024 -13.3587 -1
      vertex -2.45761 -13.3918 -1
      vertex -2.35062 -13.3393 -1
    endloop
  endfacet
  facet normal -0 0 -1
    outer loop
      vertex 3.03729 -13.4097 -1
      vertex -2.5748 -13.4313 -1
      vertex -2.45761 -13.3918 -1
    endloop
  endfacet
  facet normal -0 0 -1
    outer loop
      vertex 3.18242 -13.4457 -1
      vertex -2.6937 -13.455 -1
      vertex -2.5748 -13.4313 -1
    endloop
  endfacet
  facet normal 0 0 -1
    outer loop
      vertex 16.5 -16.5 -1
      vertex -2.80528 -13.4638 -1
      vertex -2.6937 -13.455 -1
    endloop
  endfacet
  facet normal 0 0 -1
    outer loop
      vertex -16.5 -16.5 -1
      vertex -2.80528 -13.4638 -1
      vertex 16.5 -16.5 -1
    endloop
  endfacet
  facet normal -0 0 -1
    outer loop
      vertex -2.80528 -13.4638 -1
      vertex -16.5 -16.5 -1
      vertex -5.38759 -13.4612 -1
    endloop
  endfacet
  facet normal -0 0 -1
    outer loop
      vertex -6.3037 -12.6054 -1
      vertex -16.5 -16.5 -1
      vertex -6.31247 -12.4861 -1
    endloop
  endfacet
  facet normal -0 0 -1
    outer loop
      vertex -6.28075 -12.727 -1
      vertex -16.5 -16.5 -1
      vertex -6.3037 -12.6054 -1
    endloop
  endfacet
  facet normal -0 0 -1
    outer loop
      vertex -6.24297 -12.8462 -1
      vertex -16.5 -16.5 -1
      vertex -6.28075 -12.727 -1
    endloop
  endfacet
  facet normal -0 0 -1
    outer loop
      vertex -6.19138 -12.9579 -1
      vertex -16.5 -16.5 -1
      vertex -6.24297 -12.8462 -1
    endloop
  endfacet
  facet normal -0 0 -1
    outer loop
      vertex -6.12674 -13.0612 -1
      vertex -16.5 -16.5 -1
      vertex -6.19138 -12.9579 -1
    endloop
  endfacet
  facet normal -0 0 -1
    outer loop
      vertex -6.04991 -13.1548 -1
      vertex -16.5 -16.5 -1
      vertex -6.12674 -13.0612 -1
    endloop
  endfacet
  facet normal -0 0 -1
    outer loop
      vertex -5.96254 -13.2372 -1
      vertex -16.5 -16.5 -1
      vertex -6.04991 -13.1548 -1
    endloop
  endfacet
  facet normal -0 0 -1
    outer loop
      vertex -5.86031 -13.3114 -1
      vertex -16.5 -16.5 -1
      vertex -5.96254 -13.2372 -1
    endloop
  endfacet
  facet normal -0 0 -1
    outer loop
      vertex -5.75237 -13.3698 -1
      vertex -16.5 -16.5 -1
      vertex -5.86031 -13.3114 -1
    endloop
  endfacet
  facet normal -0 0 -1
    outer loop
      vertex -5.63623 -13.4149 -1
      vertex -16.5 -16.5 -1
      vertex -5.75237 -13.3698 -1
    endloop
  endfacet
  facet normal -0 0 -1
    outer loop
      vertex -5.51302 -13.4457 -1
      vertex -16.5 -16.5 -1
      vertex -5.63623 -13.4149 -1
    endloop
  endfacet
  facet normal -0 0 -1
    outer loop
      vertex -5.38759 -13.4612 -1
      vertex -16.5 -16.5 -1
      vertex -5.51302 -13.4457 -1
    endloop
  endfacet
  facet normal 0 0 -1
    outer loop
      vertex 6.61896 -12.5624 -1
      vertex 16.5 -16.5 -1
      vertex 6.63885 -12.6896 -1
    endloop
  endfacet
  facet normal 0 0 -1
    outer loop
      vertex 6.58141 -12.4347 -1
      vertex 16.5 -16.5 -1
      vertex 6.61896 -12.5624 -1
    endloop
  endfacet
  facet normal 0 0 -1
    outer loop
      vertex 6.48827 11.7242 -1
      vertex 16.5 -16.5 -1
      vertex 6.58141 -12.4347 -1
    endloop
  endfacet
  facet normal 0 0 -1
    outer loop
      vertex 6.55682 11.9604 -1
      vertex 16.5 16.5 -1
      vertex 16.5 -16.5 -1
    endloop
  endfacet
  facet normal 0 0 -1
    outer loop
      vertex 6.56247 12.2037 -1
      vertex 16.5 16.5 -1
      vertex 6.56863 12.083 -1
    endloop
  endfacet
  facet normal 0 0 -1
    outer loop
      vertex 6.54163 12.3078 -1
      vertex 16.5 16.5 -1
      vertex 6.56247 12.2037 -1
    endloop
  endfacet
  facet normal 0 0 -1
    outer loop
      vertex 6.50882 12.3985 -1
      vertex 16.5 16.5 -1
      vertex 6.54163 12.3078 -1
    endloop
  endfacet
  facet normal 0 0 -1
    outer loop
      vertex 6.46205 12.4857 -1
      vertex 16.5 16.5 -1
      vertex 6.50882 12.3985 -1
    endloop
  endfacet
  facet normal 0 0 -1
    outer loop
      vertex 6.40292 12.5643 -1
      vertex 16.5 16.5 -1
      vertex 6.46205 12.4857 -1
    endloop
  endfacet
  facet normal 0 0 -1
    outer loop
      vertex 6.33232 12.6334 -1
      vertex 16.5 16.5 -1
      vertex 6.40292 12.5643 -1
    endloop
  endfacet
  facet normal 0 0 -1
    outer loop
      vertex 6.25121 12.6918 -1
      vertex 16.5 16.5 -1
      vertex 6.33232 12.6334 -1
    endloop
  endfacet
  facet normal 0 0 -1
    outer loop
      vertex 6.14363 12.7454 -1
      vertex 16.5 16.5 -1
      vertex 6.25121 12.6918 -1
    endloop
  endfacet
  facet normal 0 0 -1
    outer loop
      vertex 6.02454 12.782 -1
      vertex 16.5 16.5 -1
      vertex 6.14363 12.7454 -1
    endloop
  endfacet
  facet normal 0 0 -1
    outer loop
      vertex 5.89943 12.8002 -1
      vertex 16.5 16.5 -1
      vertex 6.02454 12.782 -1
    endloop
  endfacet
  facet normal 0 0 -1
    outer loop
      vertex 3.31807 12.8028 -1
      vertex 16.5 16.5 -1
      vertex 5.89943 12.8002 -1
    endloop
  endfacet
  facet normal 0 0 -1
    outer loop
      vertex 3.19884 12.7943 -1
      vertex 16.5 16.5 -1
      vertex 3.31807 12.8028 -1
    endloop
  endfacet
  facet normal 0 0 -1
    outer loop
      vertex -2.63248 12.7839 -1
      vertex 3.19884 12.7943 -1
      vertex 3.04904 12.767 -1
    endloop
  endfacet
  facet normal 0 0 -1
    outer loop
      vertex -1.86272 6.44482 -1
      vertex 2.1266 12.0486 -1
      vertex -1.10179 4.76633 -1
    endloop
  endfacet
  facet normal 0 0 -1
    outer loop
      vertex -1.86293 11.8261 -1
      vertex 2.1266 12.0486 -1
      vertex -1.86272 6.44482 -1
    endloop
  endfacet
  facet normal 0 0 -1
    outer loop
      vertex -1.87135 11.9416 -1
      vertex 2.1266 12.0486 -1
      vertex -1.86293 11.8261 -1
    endloop
  endfacet
  facet normal 0 0 -1
    outer loop
      vertex -1.89439 12.067 -1
      vertex 2.1266 12.0486 -1
      vertex -1.87135 11.9416 -1
    endloop
  endfacet
  facet normal 0 0 -1
    outer loop
      vertex -1.9305 12.1824 -1
      vertex 2.1266 12.0486 -1
      vertex -1.89439 12.067 -1
    endloop
  endfacet
  facet normal 0 0 -1
    outer loop
      vertex -1.98082 12.2943 -1
      vertex 2.1266 12.0486 -1
      vertex -1.9305 12.1824 -1
    endloop
  endfacet
  facet normal 0 0 -1
    outer loop
      vertex 2.1266 12.0486 -1
      vertex -1.98082 12.2943 -1
      vertex 2.19322 12.1631 -1
    endloop
  endfacet
  facet normal 0 0 -1
    outer loop
      vertex -2.04373 12.3976 -1
      vertex 2.19322 12.1631 -1
      vertex -1.98082 12.2943 -1
    endloop
  endfacet
  facet normal 0 0 -1
    outer loop
      vertex 2.19322 12.1631 -1
      vertex -2.04373 12.3976 -1
      vertex 2.27138 12.2706 -1
    endloop
  endfacet
  facet normal 0 0 -1
    outer loop
      vertex -2.1183 12.4914 -1
      vertex 2.27138 12.2706 -1
      vertex -2.04373 12.3976 -1
    endloop
  endfacet
  facet normal 0 0 -1
    outer loop
      vertex 2.27138 12.2706 -1
      vertex -2.1183 12.4914 -1
      vertex 2.37714 12.3878 -1
    endloop
  endfacet
  facet normal 0 0 -1
    outer loop
      vertex 2.37714 12.3878 -1
      vertex -2.1183 12.4914 -1
      vertex 2.49542 12.4928 -1
    endloop
  endfacet
  facet normal 0 0 -1
    outer loop
      vertex -2.20351 12.5746 -1
      vertex 2.49542 12.4928 -1
      vertex -2.1183 12.4914 -1
    endloop
  endfacet
  facet normal 0 0 -1
    outer loop
      vertex 2.49542 12.4928 -1
      vertex -2.20351 12.5746 -1
      vertex 2.62096 12.5826 -1
    endloop
  endfacet
  facet normal 0 0 -1
    outer loop
      vertex -2.29829 12.6463 -1
      vertex 2.62096 12.5826 -1
      vertex -2.20351 12.5746 -1
    endloop
  endfacet
  facet normal 0 0 -1
    outer loop
      vertex 2.62096 12.5826 -1
      vertex -2.29829 12.6463 -1
      vertex 2.75798 12.6601 -1
    endloop
  endfacet
  facet normal 0 0 -1
    outer loop
      vertex -2.40157 12.7055 -1
      vertex 2.75798 12.6601 -1
      vertex -2.29829 12.6463 -1
    endloop
  endfacet
  facet normal 0 0 -1
    outer loop
      vertex 2.75798 12.6601 -1
      vertex -2.40157 12.7055 -1
      vertex 2.8978 12.7208 -1
    endloop
  endfacet
  facet normal 0 0 -1
    outer loop
      vertex -2.51213 12.7513 -1
      vertex 2.8978 12.7208 -1
      vertex -2.40157 12.7055 -1
    endloop
  endfacet
  facet normal 0 0 -1
    outer loop
      vertex 2.8978 12.7208 -1
      vertex -2.51213 12.7513 -1
      vertex 3.04904 12.767 -1
    endloop
  endfacet
  facet normal 0 0 -1
    outer loop
      vertex -2.63248 12.7839 -1
      vertex 3.04904 12.767 -1
      vertex -2.51213 12.7513 -1
    endloop
  endfacet
  facet normal -0 0 -1
    outer loop
      vertex 3.19884 12.7943 -1
      vertex -2.63248 12.7839 -1
      vertex -2.75414 12.8002 -1
    endloop
  endfacet
  facet normal 0 0 -1
    outer loop
      vertex 3.19884 12.7943 -1
      vertex -2.75414 12.8002 -1
      vertex 16.5 16.5 -1
    endloop
  endfacet
  facet normal 0 0 -1
    outer loop
      vertex -16.5 16.5 -1
      vertex -2.75414 12.8002 -1
      vertex -5.35374 12.8021 -1
    endloop
  endfacet
  facet normal 0 0 -1
    outer loop
      vertex -16.5 16.5 -1
      vertex -5.35374 12.8021 -1
      vertex -5.45782 12.7937 -1
    endloop
  endfacet
  facet normal 0 0 -1
    outer loop
      vertex -16.5 -16.5 -1
      vertex -6.31181 11.845 -1
      vertex -6.31247 -12.4861 -1
    endloop
  endfacet
  facet normal 0 0 -1
    outer loop
      vertex -16.5 16.5 -1
      vertex -6.31181 11.845 -1
      vertex -16.5 -16.5 -1
    endloop
  endfacet
  facet normal 0 0 -1
    outer loop
      vertex -6.31181 11.845 -1
      vertex -16.5 16.5 -1
      vertex -6.29442 12.0043 -1
    endloop
  endfacet
  facet normal 0 0 -1
    outer loop
      vertex -2.75414 12.8002 -1
      vertex -16.5 16.5 -1
      vertex 16.5 16.5 -1
    endloop
  endfacet
  facet normal 0 0 -1
    outer loop
      vertex -5.57574 12.7711 -1
      vertex -16.5 16.5 -1
      vertex -5.45782 12.7937 -1
    endloop
  endfacet
  facet normal 0 0 -1
    outer loop
      vertex -5.69492 12.7334 -1
      vertex -16.5 16.5 -1
      vertex -5.57574 12.7711 -1
    endloop
  endfacet
  facet normal 0 0 -1
    outer loop
      vertex -5.80666 12.6819 -1
      vertex -16.5 16.5 -1
      vertex -5.69492 12.7334 -1
    endloop
  endfacet
  facet normal 0 0 -1
    outer loop
      vertex -5.90987 12.6174 -1
      vertex -16.5 16.5 -1
      vertex -5.80666 12.6819 -1
    endloop
  endfacet
  facet normal 0 0 -1
    outer loop
      vertex -6.00349 12.5407 -1
      vertex -16.5 16.5 -1
      vertex -5.90987 12.6174 -1
    endloop
  endfacet
  facet normal 0 0 -1
    outer loop
      vertex -6.08652 12.4527 -1
      vertex -16.5 16.5 -1
      vertex -6.00349 12.5407 -1
    endloop
  endfacet
  facet normal 0 0 -1
    outer loop
      vertex -6.16008 12.3513 -1
      vertex -16.5 16.5 -1
      vertex -6.08652 12.4527 -1
    endloop
  endfacet
  facet normal 0 0 -1
    outer loop
      vertex -6.21855 12.2435 -1
      vertex -16.5 16.5 -1
      vertex -6.16008 12.3513 -1
    endloop
  endfacet
  facet normal 0 0 -1
    outer loop
      vertex -6.2636 12.1274 -1
      vertex -16.5 16.5 -1
      vertex -6.21855 12.2435 -1
    endloop
  endfacet
  facet normal 0 0 -1
    outer loop
      vertex -6.29442 12.0043 -1
      vertex -16.5 16.5 -1
      vertex -6.2636 12.1274 -1
    endloop
  endfacet
  facet normal 0.179088 -0.983833 0
    outer loop
      vertex 3.04904 12.767 -1
      vertex 3.19884 12.7943 -1.56685e-15
      vertex 3.04904 12.767 -1.56351e-15
    endloop
  endfacet
  facet normal 0.179088 -0.983833 0
    outer loop
      vertex 3.19884 12.7943 -1.56685e-15
      vertex 3.04904 12.767 -1
      vertex 3.19884 12.7943 -1
    endloop
  endfacet
  facet normal 0.292336 -0.956316 0
    outer loop
      vertex 2.8978 12.7208 -1
      vertex 3.04904 12.767 -1.56351e-15
      vertex 2.8978 12.7208 -1.55785e-15
    endloop
  endfacet
  facet normal 0.292336 -0.956316 0
    outer loop
      vertex 3.04904 12.767 -1.56351e-15
      vertex 2.8978 12.7208 -1
      vertex 3.04904 12.767 -1
    endloop
  endfacet
  facet normal 0.398228 -0.917286 0
    outer loop
      vertex 2.75798 12.6601 -1
      vertex 2.8978 12.7208 -1.55785e-15
      vertex 2.75798 12.6601 -1.55042e-15
    endloop
  endfacet
  facet normal 0.398228 -0.917286 0
    outer loop
      vertex 2.8978 12.7208 -1.55785e-15
      vertex 2.75798 12.6601 -1
      vertex 2.8978 12.7208 -1
    endloop
  endfacet
  facet normal 0.492303 -0.870424 0
    outer loop
      vertex 2.62096 12.5826 -1
      vertex 2.75798 12.6601 -1.55042e-15
      vertex 2.62096 12.5826 -1.54093e-15
    endloop
  endfacet
  facet normal 0.492303 -0.870424 0
    outer loop
      vertex 2.75798 12.6601 -1.55042e-15
      vertex 2.62096 12.5826 -1
      vertex 2.75798 12.6601 -1
    endloop
  endfacet
  facet normal 0.581799 -0.813332 0
    outer loop
      vertex 2.49542 12.4928 -1
      vertex 2.62096 12.5826 -1.54093e-15
      vertex 2.49542 12.4928 -1.52993e-15
    endloop
  endfacet
  facet normal 0.581799 -0.813332 0
    outer loop
      vertex 2.62096 12.5826 -1.54093e-15
      vertex 2.49542 12.4928 -1
      vertex 2.62096 12.5826 -1
    endloop
  endfacet
  facet normal 0.663897 -0.747824 0
    outer loop
      vertex 2.37714 12.3878 -1
      vertex 2.49542 12.4928 -1.52993e-15
      vertex 2.37714 12.3878 -1.51707e-15
    endloop
  endfacet
  facet normal 0.663897 -0.747824 0
    outer loop
      vertex 2.49542 12.4928 -1.52993e-15
      vertex 2.37714 12.3878 -1
      vertex 2.49542 12.4928 -1
    endloop
  endfacet
  facet normal 0.742293 -0.670075 0
    outer loop
      vertex 2.27138 12.2706 -1.50272e-15
      vertex 2.37714 12.3878 -1
      vertex 2.37714 12.3878 -1.51707e-15
    endloop
  endfacet
  facet normal 0.742293 -0.670075 0
    outer loop
      vertex 2.37714 12.3878 -1
      vertex 2.27138 12.2706 -1.50272e-15
      vertex 2.27138 12.2706 -1
    endloop
  endfacet
  facet normal 0.808905 -0.58794 0
    outer loop
      vertex 2.19322 12.1631 -1.48955e-15
      vertex 2.27138 12.2706 -1
      vertex 2.27138 12.2706 -1.50272e-15
    endloop
  endfacet
  facet normal 0.808905 -0.58794 0
    outer loop
      vertex 2.27138 12.2706 -1
      vertex 2.19322 12.1631 -1.48955e-15
      vertex 2.19322 12.1631 -1
    endloop
  endfacet
  facet normal 0.864405 -0.502797 0
    outer loop
      vertex 2.1266 12.0486 -1.47553e-15
      vertex 2.19322 12.1631 -1
      vertex 2.19322 12.1631 -1.48955e-15
    endloop
  endfacet
  facet normal 0.864405 -0.502797 0
    outer loop
      vertex 2.19322 12.1631 -1
      vertex 2.1266 12.0486 -1.47553e-15
      vertex 2.1266 12.0486 -1
    endloop
  endfacet
  facet normal 0.914192 -0.405282 0
    outer loop
      vertex -1.10179 4.76633 -5.83707e-16
      vertex 2.1266 12.0486 -1
      vertex 2.1266 12.0486 -1.47553e-15
    endloop
  endfacet
  facet normal 0.914192 -0.405282 0
    outer loop
      vertex 2.1266 12.0486 -1
      vertex -1.10179 4.76633 -5.83707e-16
      vertex -1.10179 4.76633 -1
    endloop
  endfacet
  facet normal -0.910781 -0.412891 0
    outer loop
      vertex -1.10179 4.76633 -1
      vertex -1.86272 6.44482 -7.89263e-16
      vertex -1.86272 6.44482 -1
    endloop
  endfacet
  facet normal -0.910781 -0.412891 0
    outer loop
      vertex -1.86272 6.44482 -7.89263e-16
      vertex -1.10179 4.76633 -1
      vertex -1.10179 4.76633 -5.83707e-16
    endloop
  endfacet
  facet normal -1 -3.96975e-05 0
    outer loop
      vertex -1.86272 6.44482 -1
      vertex -1.86293 11.8261 -1.44828e-15
      vertex -1.86293 11.8261 -1
    endloop
  endfacet
  facet normal -1 -3.96975e-05 0
    outer loop
      vertex -1.86293 11.8261 -1.44828e-15
      vertex -1.86272 6.44482 -1
      vertex -1.86272 6.44482 -7.89263e-16
    endloop
  endfacet
  facet normal -0.997351 -0.0727454 0
    outer loop
      vertex -1.86293 11.8261 -1
      vertex -1.87135 11.9416 -1.46242e-15
      vertex -1.87135 11.9416 -1
    endloop
  endfacet
  facet normal -0.997351 -0.0727454 0
    outer loop
      vertex -1.87135 11.9416 -1.46242e-15
      vertex -1.86293 11.8261 -1
      vertex -1.86293 11.8261 -1.44828e-15
    endloop
  endfacet
  facet normal -0.983531 -0.180739 0
    outer loop
      vertex -1.87135 11.9416 -1
      vertex -1.89439 12.067 -1.47778e-15
      vertex -1.89439 12.067 -1
    endloop
  endfacet
  facet normal -0.983531 -0.180739 0
    outer loop
      vertex -1.89439 12.067 -1.47778e-15
      vertex -1.87135 11.9416 -1
      vertex -1.87135 11.9416 -1.46242e-15
    endloop
  endfacet
  facet normal -0.954455 -0.298354 0
    outer loop
      vertex -1.89439 12.067 -1
      vertex -1.9305 12.1824 -1.49192e-15
      vertex -1.9305 12.1824 -1
    endloop
  endfacet
  facet normal -0.954455 -0.298354 0
    outer loop
      vertex -1.9305 12.1824 -1.49192e-15
      vertex -1.89439 12.067 -1
      vertex -1.89439 12.067 -1.47778e-15
    endloop
  endfacet
  facet normal -0.911924 -0.41036 0
    outer loop
      vertex -1.9305 12.1824 -1
      vertex -1.98082 12.2943 -1.50562e-15
      vertex -1.98082 12.2943 -1
    endloop
  endfacet
  facet normal -0.911924 -0.41036 0
    outer loop
      vertex -1.98082 12.2943 -1.50562e-15
      vertex -1.9305 12.1824 -1
      vertex -1.9305 12.1824 -1.49192e-15
    endloop
  endfacet
  facet normal -0.854147 -0.520031 0
    outer loop
      vertex -1.98082 12.2943 -1
      vertex -2.04373 12.3976 -1.51827e-15
      vertex -2.04373 12.3976 -1
    endloop
  endfacet
  facet normal -0.854147 -0.520031 0
    outer loop
      vertex -2.04373 12.3976 -1.51827e-15
      vertex -1.98082 12.2943 -1
      vertex -1.98082 12.2943 -1.50562e-15
    endloop
  endfacet
  facet normal -0.782766 -0.622316 0
    outer loop
      vertex -2.04373 12.3976 -1
      vertex -2.1183 12.4914 -1.52976e-15
      vertex -2.1183 12.4914 -1
    endloop
  endfacet
  facet normal -0.782766 -0.622316 0
    outer loop
      vertex -2.1183 12.4914 -1.52976e-15
      vertex -2.04373 12.3976 -1
      vertex -2.04373 12.3976 -1.51827e-15
    endloop
  endfacet
  facet normal -0.69873 -0.715385 0
    outer loop
      vertex -2.20351 12.5746 -1
      vertex -2.1183 12.4914 -1.52976e-15
      vertex -2.20351 12.5746 -1.53995e-15
    endloop
  endfacet
  facet normal -0.69873 -0.715385 -0
    outer loop
      vertex -2.1183 12.4914 -1.52976e-15
      vertex -2.20351 12.5746 -1
      vertex -2.1183 12.4914 -1
    endloop
  endfacet
  facet normal -0.603037 -0.797714 0
    outer loop
      vertex -2.29829 12.6463 -1
      vertex -2.20351 12.5746 -1.53995e-15
      vertex -2.29829 12.6463 -1.54872e-15
    endloop
  endfacet
  facet normal -0.603037 -0.797714 -0
    outer loop
      vertex -2.20351 12.5746 -1.53995e-15
      vertex -2.29829 12.6463 -1
      vertex -2.20351 12.5746 -1
    endloop
  endfacet
  facet normal -0.49716 -0.867659 0
    outer loop
      vertex -2.40157 12.7055 -1
      vertex -2.29829 12.6463 -1.54872e-15
      vertex -2.40157 12.7055 -1.55597e-15
    endloop
  endfacet
  facet normal -0.49716 -0.867659 -0
    outer loop
      vertex -2.29829 12.6463 -1.54872e-15
      vertex -2.40157 12.7055 -1
      vertex -2.29829 12.6463 -1
    endloop
  endfacet
  facet normal -0.382967 -0.923762 0
    outer loop
      vertex -2.51213 12.7513 -1
      vertex -2.40157 12.7055 -1.55597e-15
      vertex -2.51213 12.7513 -1.56158e-15
    endloop
  endfacet
  facet normal -0.382967 -0.923762 -0
    outer loop
      vertex -2.40157 12.7055 -1.55597e-15
      vertex -2.51213 12.7513 -1
      vertex -2.40157 12.7055 -1
    endloop
  endfacet
  facet normal -0.261294 -0.965259 0
    outer loop
      vertex -2.63248 12.7839 -1
      vertex -2.51213 12.7513 -1.56158e-15
      vertex -2.63248 12.7839 -1.56557e-15
    endloop
  endfacet
  facet normal -0.261294 -0.965259 -0
    outer loop
      vertex -2.51213 12.7513 -1.56158e-15
      vertex -2.63248 12.7839 -1
      vertex -2.51213 12.7513 -1
    endloop
  endfacet
  facet normal -0.132888 -0.991131 0
    outer loop
      vertex -2.75414 12.8002 -1
      vertex -2.63248 12.7839 -1.56557e-15
      vertex -2.75414 12.8002 -1.56757e-15
    endloop
  endfacet
  facet normal -0.132888 -0.991131 -0
    outer loop
      vertex -2.63248 12.7839 -1.56557e-15
      vertex -2.75414 12.8002 -1
      vertex -2.63248 12.7839 -1
    endloop
  endfacet
  facet normal -0.000733706 -1 0
    outer loop
      vertex -5.35374 12.8021 -1
      vertex -2.75414 12.8002 -1.56757e-15
      vertex -5.35374 12.8021 -1.5678e-15
    endloop
  endfacet
  facet normal -0.000733706 -1 -0
    outer loop
      vertex -2.75414 12.8002 -1.56757e-15
      vertex -5.35374 12.8021 -1
      vertex -2.75414 12.8002 -1
    endloop
  endfacet
  facet normal 0.080808 -0.99673 0
    outer loop
      vertex -5.45782 12.7937 -1
      vertex -5.35374 12.8021 -1.5678e-15
      vertex -5.45782 12.7937 -1.56677e-15
    endloop
  endfacet
  facet normal 0.080808 -0.99673 0
    outer loop
      vertex -5.35374 12.8021 -1.5678e-15
      vertex -5.45782 12.7937 -1
      vertex -5.35374 12.8021 -1
    endloop
  endfacet
  facet normal 0.187725 -0.982222 0
    outer loop
      vertex -5.57574 12.7711 -1
      vertex -5.45782 12.7937 -1.56677e-15
      vertex -5.57574 12.7711 -1.56401e-15
    endloop
  endfacet
  facet normal 0.187725 -0.982222 0
    outer loop
      vertex -5.45782 12.7937 -1.56677e-15
      vertex -5.57574 12.7711 -1
      vertex -5.45782 12.7937 -1
    endloop
  endfacet
  facet normal 0.301651 -0.953418 0
    outer loop
      vertex -5.69492 12.7334 -1
      vertex -5.57574 12.7711 -1.56401e-15
      vertex -5.69492 12.7334 -1.55939e-15
    endloop
  endfacet
  facet normal 0.301651 -0.953418 0
    outer loop
      vertex -5.57574 12.7711 -1.56401e-15
      vertex -5.69492 12.7334 -1
      vertex -5.57574 12.7711 -1
    endloop
  endfacet
  facet normal 0.41846 -0.908235 0
    outer loop
      vertex -5.80666 12.6819 -1
      vertex -5.69492 12.7334 -1.55939e-15
      vertex -5.80666 12.6819 -1.55309e-15
    endloop
  endfacet
  facet normal 0.41846 -0.908235 0
    outer loop
      vertex -5.69492 12.7334 -1.55939e-15
      vertex -5.80666 12.6819 -1
      vertex -5.69492 12.7334 -1
    endloop
  endfacet
  facet normal 0.530134 -0.847914 0
    outer loop
      vertex -5.90987 12.6174 -1
      vertex -5.80666 12.6819 -1.55309e-15
      vertex -5.90987 12.6174 -1.54519e-15
    endloop
  endfacet
  facet normal 0.530134 -0.847914 0
    outer loop
      vertex -5.80666 12.6819 -1.55309e-15
      vertex -5.90987 12.6174 -1
      vertex -5.80666 12.6819 -1
    endloop
  endfacet
  facet normal 0.633739 -0.773547 0
    outer loop
      vertex -6.00349 12.5407 -1
      vertex -5.90987 12.6174 -1.54519e-15
      vertex -6.00349 12.5407 -1.53579e-15
    endloop
  endfacet
  facet normal 0.633739 -0.773547 0
    outer loop
      vertex -5.90987 12.6174 -1.54519e-15
      vertex -6.00349 12.5407 -1
      vertex -5.90987 12.6174 -1
    endloop
  endfacet
  facet normal 0.727307 -0.686312 0
    outer loop
      vertex -6.08652 12.4527 -1.52502e-15
      vertex -6.00349 12.5407 -1
      vertex -6.00349 12.5407 -1.53579e-15
    endloop
  endfacet
  facet normal 0.727307 -0.686312 0
    outer loop
      vertex -6.00349 12.5407 -1
      vertex -6.08652 12.4527 -1.52502e-15
      vertex -6.08652 12.4527 -1
    endloop
  endfacet
  facet normal 0.809415 -0.587237 0
    outer loop
      vertex -6.16008 12.3513 -1.5126e-15
      vertex -6.08652 12.4527 -1
      vertex -6.08652 12.4527 -1.52502e-15
    endloop
  endfacet
  facet normal 0.809415 -0.587237 0
    outer loop
      vertex -6.08652 12.4527 -1
      vertex -6.16008 12.3513 -1.5126e-15
      vertex -6.16008 12.3513 -1
    endloop
  endfacet
  facet normal 0.87911 -0.47662 0
    outer loop
      vertex -6.21855 12.2435 -1.49939e-15
      vertex -6.16008 12.3513 -1
      vertex -6.16008 12.3513 -1.5126e-15
    endloop
  endfacet
  facet normal 0.87911 -0.47662 0
    outer loop
      vertex -6.16008 12.3513 -1
      vertex -6.21855 12.2435 -1.49939e-15
      vertex -6.21855 12.2435 -1
    endloop
  endfacet
  facet normal 0.932232 -0.361861 0
    outer loop
      vertex -6.2636 12.1274 -1.48518e-15
      vertex -6.21855 12.2435 -1
      vertex -6.21855 12.2435 -1.49939e-15
    endloop
  endfacet
  facet normal 0.932232 -0.361861 0
    outer loop
      vertex -6.21855 12.2435 -1
      vertex -6.2636 12.1274 -1.48518e-15
      vertex -6.2636 12.1274 -1
    endloop
  endfacet
  facet normal 0.970079 -0.24279 0
    outer loop
      vertex -6.29442 12.0043 -1.4701e-15
      vertex -6.2636 12.1274 -1
      vertex -6.2636 12.1274 -1.48518e-15
    endloop
  endfacet
  facet normal 0.970079 -0.24279 0
    outer loop
      vertex -6.2636 12.1274 -1
      vertex -6.29442 12.0043 -1.4701e-15
      vertex -6.29442 12.0043 -1
    endloop
  endfacet
  facet normal 0.994086 -0.108591 0
    outer loop
      vertex -6.31181 11.845 -1.4506e-15
      vertex -6.29442 12.0043 -1
      vertex -6.29442 12.0043 -1.4701e-15
    endloop
  endfacet
  facet normal 0.994086 -0.108591 0
    outer loop
      vertex -6.29442 12.0043 -1
      vertex -6.31181 11.845 -1.4506e-15
      vertex -6.31181 11.845 -1
    endloop
  endfacet
  facet normal 1 -2.69666e-05 0
    outer loop
      vertex -6.31247 -12.4861 1.52911e-15
      vertex -6.31181 11.845 -1
      vertex -6.31181 11.845 -1.4506e-15
    endloop
  endfacet
  facet normal 1 -2.69666e-05 0
    outer loop
      vertex -6.31181 11.845 -1
      vertex -6.31247 -12.4861 1.52911e-15
      vertex -6.31247 -12.4861 -1
    endloop
  endfacet
  facet normal 0.997305 0.0733688 0
    outer loop
      vertex -6.3037 -12.6054 1.54371e-15
      vertex -6.31247 -12.4861 -1
      vertex -6.31247 -12.4861 1.52911e-15
    endloop
  endfacet
  facet normal 0.997305 0.0733688 0
    outer loop
      vertex -6.31247 -12.4861 -1
      vertex -6.3037 -12.6054 1.54371e-15
      vertex -6.3037 -12.6054 -1
    endloop
  endfacet
  facet normal 0.982674 0.185345 0
    outer loop
      vertex -6.28075 -12.727 1.55861e-15
      vertex -6.3037 -12.6054 -1
      vertex -6.3037 -12.6054 1.54371e-15
    endloop
  endfacet
  facet normal 0.982674 0.185345 0
    outer loop
      vertex -6.3037 -12.6054 -1
      vertex -6.28075 -12.727 1.55861e-15
      vertex -6.28075 -12.727 -1
    endloop
  endfacet
  facet normal 0.953243 0.302206 0
    outer loop
      vertex -6.24297 -12.8462 1.57321e-15
      vertex -6.28075 -12.727 -1
      vertex -6.28075 -12.727 1.55861e-15
    endloop
  endfacet
  facet normal 0.953243 0.302206 0
    outer loop
      vertex -6.28075 -12.727 -1
      vertex -6.24297 -12.8462 1.57321e-15
      vertex -6.24297 -12.8462 -1
    endloop
  endfacet
  facet normal 0.907905 0.419176 0
    outer loop
      vertex -6.19138 -12.9579 1.58689e-15
      vertex -6.24297 -12.8462 -1
      vertex -6.24297 -12.8462 1.57321e-15
    endloop
  endfacet
  facet normal 0.907905 0.419176 0
    outer loop
      vertex -6.24297 -12.8462 -1
      vertex -6.19138 -12.9579 1.58689e-15
      vertex -6.19138 -12.9579 -1
    endloop
  endfacet
  facet normal 0.847519 0.530765 0
    outer loop
      vertex -6.12674 -13.0612 1.59953e-15
      vertex -6.19138 -12.9579 -1
      vertex -6.19138 -12.9579 1.58689e-15
    endloop
  endfacet
  facet normal 0.847519 0.530765 0
    outer loop
      vertex -6.19138 -12.9579 -1
      vertex -6.12674 -13.0612 1.59953e-15
      vertex -6.12674 -13.0612 -1
    endloop
  endfacet
  facet normal 0.773053 0.634342 0
    outer loop
      vertex -6.04991 -13.1548 1.611e-15
      vertex -6.12674 -13.0612 -1
      vertex -6.12674 -13.0612 1.59953e-15
    endloop
  endfacet
  facet normal 0.773053 0.634342 0
    outer loop
      vertex -6.12674 -13.0612 -1
      vertex -6.04991 -13.1548 1.611e-15
      vertex -6.04991 -13.1548 -1
    endloop
  endfacet
  facet normal 0.685959 0.72764 -0
    outer loop
      vertex -5.96254 -13.2372 -1
      vertex -6.04991 -13.1548 1.611e-15
      vertex -5.96254 -13.2372 1.62108e-15
    endloop
  endfacet
  facet normal 0.685959 0.72764 0
    outer loop
      vertex -6.04991 -13.1548 1.611e-15
      vertex -5.96254 -13.2372 -1
      vertex -6.04991 -13.1548 -1
    endloop
  endfacet
  facet normal 0.587482 0.809237 -0
    outer loop
      vertex -5.86031 -13.3114 -1
      vertex -5.96254 -13.2372 1.62108e-15
      vertex -5.86031 -13.3114 1.63017e-15
    endloop
  endfacet
  facet normal 0.587482 0.809237 0
    outer loop
      vertex -5.96254 -13.2372 1.62108e-15
      vertex -5.86031 -13.3114 -1
      vertex -5.96254 -13.2372 -1
    endloop
  endfacet
  facet normal 0.476307 0.879279 -0
    outer loop
      vertex -5.75237 -13.3698 -1
      vertex -5.86031 -13.3114 1.63017e-15
      vertex -5.75237 -13.3698 1.63733e-15
    endloop
  endfacet
  facet normal 0.476307 0.879279 0
    outer loop
      vertex -5.86031 -13.3114 1.63017e-15
      vertex -5.75237 -13.3698 -1
      vertex -5.86031 -13.3114 -1
    endloop
  endfacet
  facet normal 0.361613 0.932328 -0
    outer loop
      vertex -5.63623 -13.4149 -1
      vertex -5.75237 -13.3698 1.63733e-15
      vertex -5.63623 -13.4149 1.64285e-15
    endloop
  endfacet
  facet normal 0.361613 0.932328 0
    outer loop
      vertex -5.75237 -13.3698 1.63733e-15
      vertex -5.63623 -13.4149 -1
      vertex -5.75237 -13.3698 -1
    endloop
  endfacet
  facet normal 0.242564 0.970135 -0
    outer loop
      vertex -5.51302 -13.4457 -1
      vertex -5.63623 -13.4149 1.64285e-15
      vertex -5.51302 -13.4457 1.64662e-15
    endloop
  endfacet
  facet normal 0.242564 0.970135 0
    outer loop
      vertex -5.63623 -13.4149 1.64285e-15
      vertex -5.51302 -13.4457 -1
      vertex -5.63623 -13.4149 -1
    endloop
  endfacet
  facet normal 0.122668 0.992448 -0
    outer loop
      vertex -5.38759 -13.4612 -1
      vertex -5.51302 -13.4457 1.64662e-15
      vertex -5.38759 -13.4612 1.64852e-15
    endloop
  endfacet
  facet normal 0.122668 0.992448 0
    outer loop
      vertex -5.51302 -13.4457 1.64662e-15
      vertex -5.38759 -13.4612 -1
      vertex -5.51302 -13.4457 -1
    endloop
  endfacet
  facet normal 0.000992708 1 -0
    outer loop
      vertex -2.80528 -13.4638 -1
      vertex -5.38759 -13.4612 1.64852e-15
      vertex -2.80528 -13.4638 1.64884e-15
    endloop
  endfacet
  facet normal 0.000992708 1 0
    outer loop
      vertex -5.38759 -13.4612 1.64852e-15
      vertex -2.80528 -13.4638 -1
      vertex -5.38759 -13.4612 -1
    endloop
  endfacet
  facet normal -0.0783852 0.996923 0
    outer loop
      vertex -2.6937 -13.455 -1
      vertex -2.80528 -13.4638 1.64884e-15
      vertex -2.6937 -13.455 1.64776e-15
    endloop
  endfacet
  facet normal -0.0783852 0.996923 0
    outer loop
      vertex -2.80528 -13.4638 1.64884e-15
      vertex -2.6937 -13.455 -1
      vertex -2.80528 -13.4638 -1
    endloop
  endfacet
  facet normal -0.195705 0.980663 0
    outer loop
      vertex -2.5748 -13.4313 -1
      vertex -2.6937 -13.455 1.64776e-15
      vertex -2.5748 -13.4313 1.64485e-15
    endloop
  endfacet
  facet normal -0.195705 0.980663 0
    outer loop
      vertex -2.6937 -13.455 1.64776e-15
      vertex -2.5748 -13.4313 -1
      vertex -2.6937 -13.455 -1
    endloop
  endfacet
  facet normal -0.319446 0.947604 0
    outer loop
      vertex -2.45761 -13.3918 -1
      vertex -2.5748 -13.4313 1.64485e-15
      vertex -2.45761 -13.3918 1.64002e-15
    endloop
  endfacet
  facet normal -0.319446 0.947604 0
    outer loop
      vertex -2.5748 -13.4313 1.64485e-15
      vertex -2.45761 -13.3918 -1
      vertex -2.5748 -13.4313 -1
    endloop
  endfacet
  facet normal -0.440337 0.897832 0
    outer loop
      vertex -2.35062 -13.3393 -1
      vertex -2.45761 -13.3918 1.64002e-15
      vertex -2.35062 -13.3393 1.63359e-15
    endloop
  endfacet
  facet normal -0.440337 0.897832 0
    outer loop
      vertex -2.45761 -13.3918 1.64002e-15
      vertex -2.35062 -13.3393 -1
      vertex -2.45761 -13.3918 -1
    endloop
  endfacet
  facet normal -0.550458 0.834863 0
    outer loop
      vertex -2.25136 -13.2738 -1
      vertex -2.35062 -13.3393 1.63359e-15
      vertex -2.25136 -13.2738 1.62558e-15
    endloop
  endfacet
  facet normal -0.550458 0.834863 0
    outer loop
      vertex -2.35062 -13.3393 1.63359e-15
      vertex -2.25136 -13.2738 -1
      vertex -2.35062 -13.3393 -1
    endloop
  endfacet
  facet normal -0.651392 0.758741 0
    outer loop
      vertex -2.16098 -13.1962 -1
      vertex -2.25136 -13.2738 1.62558e-15
      vertex -2.16098 -13.1962 1.61607e-15
    endloop
  endfacet
  facet normal -0.651392 0.758741 0
    outer loop
      vertex -2.25136 -13.2738 1.62558e-15
      vertex -2.16098 -13.1962 -1
      vertex -2.25136 -13.2738 -1
    endloop
  endfacet
  facet normal -0.741409 0.671053 0
    outer loop
      vertex -2.16098 -13.1962 -1
      vertex -2.08064 -13.1075 1.6052e-15
      vertex -2.08064 -13.1075 -1
    endloop
  endfacet
  facet normal -0.741409 0.671053 0
    outer loop
      vertex -2.08064 -13.1075 1.6052e-15
      vertex -2.16098 -13.1962 -1
      vertex -2.16098 -13.1962 1.61607e-15
    endloop
  endfacet
  facet normal -0.819445 0.573157 0
    outer loop
      vertex -2.08064 -13.1075 -1
      vertex -2.0114 -13.0085 1.59308e-15
      vertex -2.0114 -13.0085 -1
    endloop
  endfacet
  facet normal -0.819445 0.573157 0
    outer loop
      vertex -2.0114 -13.0085 1.59308e-15
      vertex -2.08064 -13.1075 -1
      vertex -2.08064 -13.1075 1.6052e-15
    endloop
  endfacet
  facet normal -0.884227 0.467057 0
    outer loop
      vertex -2.0114 -13.0085 -1
      vertex -1.95425 -12.9003 1.57983e-15
      vertex -1.95425 -12.9003 -1
    endloop
  endfacet
  facet normal -0.884227 0.467057 0
    outer loop
      vertex -1.95425 -12.9003 1.57983e-15
      vertex -2.0114 -13.0085 -1
      vertex -2.0114 -13.0085 1.59308e-15
    endloop
  endfacet
  facet normal -0.934976 0.354711 0
    outer loop
      vertex -1.95425 -12.9003 -1
      vertex -1.91147 -12.7875 1.56602e-15
      vertex -1.91147 -12.7875 -1
    endloop
  endfacet
  facet normal -0.934976 0.354711 0
    outer loop
      vertex -1.91147 -12.7875 1.56602e-15
      vertex -1.95425 -12.9003 -1
      vertex -1.95425 -12.9003 1.57983e-15
    endloop
  endfacet
  facet normal -0.970586 0.240753 0
    outer loop
      vertex -1.91147 -12.7875 -1
      vertex -1.88091 -12.6643 1.55093e-15
      vertex -1.88091 -12.6643 -1
    endloop
  endfacet
  facet normal -0.970586 0.240753 0
    outer loop
      vertex -1.88091 -12.6643 1.55093e-15
      vertex -1.91147 -12.7875 -1
      vertex -1.91147 -12.7875 1.56602e-15
    endloop
  endfacet
  facet normal -0.99255 0.121835 0
    outer loop
      vertex -1.88091 -12.6643 -1
      vertex -1.86551 -12.5389 1.53557e-15
      vertex -1.86551 -12.5389 -1
    endloop
  endfacet
  facet normal -0.99255 0.121835 0
    outer loop
      vertex -1.86551 -12.5389 1.53557e-15
      vertex -1.88091 -12.6643 -1
      vertex -1.88091 -12.6643 1.55093e-15
    endloop
  endfacet
  facet normal -1 0.000301479 0
    outer loop
      vertex -1.86551 -12.5389 -1
      vertex -1.86284 -3.68158 4.50863e-16
      vertex -1.86284 -3.68158 -1
    endloop
  endfacet
  facet normal -1 0.000301479 0
    outer loop
      vertex -1.86284 -3.68158 4.50863e-16
      vertex -1.86551 -12.5389 -1
      vertex -1.86551 -12.5389 1.53557e-15
    endloop
  endfacet
  facet normal 0.913255 0.407388 0
    outer loop
      vertex 2.11862 -12.607 1.54391e-15
      vertex -1.86284 -3.68158 -1
      vertex -1.86284 -3.68158 4.50863e-16
    endloop
  endfacet
  facet normal 0.913255 0.407388 0
    outer loop
      vertex -1.86284 -3.68158 -1
      vertex 2.11862 -12.607 1.54391e-15
      vertex 2.11862 -12.607 -1
    endloop
  endfacet
  facet normal 0.883753 0.467953 0
    outer loop
      vertex 2.17859 -12.7202 1.55778e-15
      vertex 2.11862 -12.607 -1
      vertex 2.11862 -12.607 1.54391e-15
    endloop
  endfacet
  facet normal 0.883753 0.467953 0
    outer loop
      vertex 2.11862 -12.607 -1
      vertex 2.17859 -12.7202 1.55778e-15
      vertex 2.17859 -12.7202 -1
    endloop
  endfacet
  facet normal 0.833646 0.5523 0
    outer loop
      vertex 2.26537 -12.8512 1.57382e-15
      vertex 2.17859 -12.7202 -1
      vertex 2.17859 -12.7202 1.55778e-15
    endloop
  endfacet
  facet normal 0.833646 0.5523 0
    outer loop
      vertex 2.17859 -12.7202 -1
      vertex 2.26537 -12.8512 1.57382e-15
      vertex 2.26537 -12.8512 -1
    endloop
  endfacet
  facet normal 0.772261 0.635305 0
    outer loop
      vertex 2.36765 -12.9755 1.58904e-15
      vertex 2.26537 -12.8512 -1
      vertex 2.26537 -12.8512 1.57382e-15
    endloop
  endfacet
  facet normal 0.772261 0.635305 0
    outer loop
      vertex 2.26537 -12.8512 -1
      vertex 2.36765 -12.9755 1.58904e-15
      vertex 2.36765 -12.9755 -1
    endloop
  endfacet
  facet normal 0.70436 0.709843 -0
    outer loop
      vertex 2.47629 -13.0833 -1
      vertex 2.36765 -12.9755 1.58904e-15
      vertex 2.47629 -13.0833 1.60225e-15
    endloop
  endfacet
  facet normal 0.70436 0.709843 0
    outer loop
      vertex 2.36765 -12.9755 1.58904e-15
      vertex 2.47629 -13.0833 -1
      vertex 2.36765 -12.9755 -1
    endloop
  endfacet
  facet normal 0.628457 0.777844 -0
    outer loop
      vertex 2.61644 -13.1966 -1
      vertex 2.47629 -13.0833 1.60225e-15
      vertex 2.61644 -13.1966 1.61611e-15
    endloop
  endfacet
  facet normal 0.628457 0.777844 0
    outer loop
      vertex 2.47629 -13.0833 1.60225e-15
      vertex 2.61644 -13.1966 -1
      vertex 2.47629 -13.0833 -1
    endloop
  endfacet
  facet normal 0.537872 0.843027 -0
    outer loop
      vertex 2.76596 -13.292 -1
      vertex 2.61644 -13.1966 1.61611e-15
      vertex 2.76596 -13.292 1.6278e-15
    endloop
  endfacet
  facet normal 0.537872 0.843027 0
    outer loop
      vertex 2.61644 -13.1966 1.61611e-15
      vertex 2.76596 -13.292 -1
      vertex 2.61644 -13.1966 -1
    endloop
  endfacet
  facet normal 0.444933 0.895564 -0
    outer loop
      vertex 2.90024 -13.3587 -1
      vertex 2.76596 -13.292 1.6278e-15
      vertex 2.90024 -13.3587 1.63597e-15
    endloop
  endfacet
  facet normal 0.444933 0.895564 0
    outer loop
      vertex 2.76596 -13.292 1.6278e-15
      vertex 2.90024 -13.3587 -1
      vertex 2.76596 -13.292 -1
    endloop
  endfacet
  facet normal 0.348813 0.937193 -0
    outer loop
      vertex 3.03729 -13.4097 -1
      vertex 2.90024 -13.3587 1.63597e-15
      vertex 3.03729 -13.4097 1.64221e-15
    endloop
  endfacet
  facet normal 0.348813 0.937193 0
    outer loop
      vertex 2.90024 -13.3587 1.63597e-15
      vertex 3.03729 -13.4097 -1
      vertex 2.90024 -13.3587 -1
    endloop
  endfacet
  facet normal 0.24083 0.970567 -0
    outer loop
      vertex 3.18242 -13.4457 -1
      vertex 3.03729 -13.4097 1.64221e-15
      vertex 3.18242 -13.4457 1.64662e-15
    endloop
  endfacet
  facet normal 0.24083 0.970567 0
    outer loop
      vertex 3.03729 -13.4097 1.64221e-15
      vertex 3.18242 -13.4457 -1
      vertex 3.03729 -13.4097 -1
    endloop
  endfacet
  facet normal 0.125202 0.992131 -0
    outer loop
      vertex 3.30527 -13.4612 -1
      vertex 3.18242 -13.4457 1.64662e-15
      vertex 3.30527 -13.4612 1.64852e-15
    endloop
  endfacet
  facet normal 0.125202 0.992131 0
    outer loop
      vertex 3.18242 -13.4457 1.64662e-15
      vertex 3.30527 -13.4612 -1
      vertex 3.18242 -13.4457 -1
    endloop
  endfacet
  facet normal 0.00108395 0.999999 -0
    outer loop
      vertex 5.86728 -13.464 -1
      vertex 3.30527 -13.4612 1.64852e-15
      vertex 5.86728 -13.464 1.64886e-15
    endloop
  endfacet
  facet normal 0.00108395 0.999999 0
    outer loop
      vertex 3.30527 -13.4612 1.64852e-15
      vertex 5.86728 -13.464 -1
      vertex 3.30527 -13.4612 -1
    endloop
  endfacet
  facet normal -0.0323068 0.999478 0
    outer loop
      vertex 5.93478 -13.4618 -1
      vertex 5.86728 -13.464 1.64886e-15
      vertex 5.93478 -13.4618 1.64859e-15
    endloop
  endfacet
  facet normal -0.0323068 0.999478 0
    outer loop
      vertex 5.86728 -13.464 1.64886e-15
      vertex 5.93478 -13.4618 -1
      vertex 5.86728 -13.464 -1
    endloop
  endfacet
  facet normal -0.123348 0.992363 0
    outer loop
      vertex 6.05153 -13.4473 -1
      vertex 5.93478 -13.4618 1.64859e-15
      vertex 6.05153 -13.4473 1.64682e-15
    endloop
  endfacet
  facet normal -0.123348 0.992363 0
    outer loop
      vertex 5.93478 -13.4618 1.64859e-15
      vertex 6.05153 -13.4473 -1
      vertex 5.93478 -13.4618 -1
    endloop
  endfacet
  facet normal -0.250641 0.96808 0
    outer loop
      vertex 6.16975 -13.4167 -1
      vertex 6.05153 -13.4473 1.64682e-15
      vertex 6.16975 -13.4167 1.64307e-15
    endloop
  endfacet
  facet normal -0.250641 0.96808 0
    outer loop
      vertex 6.05153 -13.4473 1.64682e-15
      vertex 6.16975 -13.4167 -1
      vertex 6.05153 -13.4473 -1
    endloop
  endfacet
  facet normal -0.379583 0.925158 0
    outer loop
      vertex 6.26407 -13.378 -1
      vertex 6.16975 -13.4167 1.64307e-15
      vertex 6.26407 -13.378 1.63833e-15
    endloop
  endfacet
  facet normal -0.379583 0.925158 0
    outer loop
      vertex 6.16975 -13.4167 1.64307e-15
      vertex 6.26407 -13.378 -1
      vertex 6.16975 -13.4167 -1
    endloop
  endfacet
  facet normal -0.502588 0.864526 0
    outer loop
      vertex 6.34979 -13.3281 -1
      vertex 6.26407 -13.378 1.63833e-15
      vertex 6.34979 -13.3281 1.63223e-15
    endloop
  endfacet
  facet normal -0.502588 0.864526 0
    outer loop
      vertex 6.26407 -13.378 1.63833e-15
      vertex 6.34979 -13.3281 -1
      vertex 6.26407 -13.378 -1
    endloop
  endfacet
  facet normal -0.621519 0.783399 0
    outer loop
      vertex 6.42888 -13.2654 -1
      vertex 6.34979 -13.3281 1.63223e-15
      vertex 6.42888 -13.2654 1.62454e-15
    endloop
  endfacet
  facet normal -0.621519 0.783399 0
    outer loop
      vertex 6.34979 -13.3281 1.63223e-15
      vertex 6.42888 -13.2654 -1
      vertex 6.34979 -13.3281 -1
    endloop
  endfacet
  facet normal -0.73325 0.679959 0
    outer loop
      vertex 6.42888 -13.2654 -1
      vertex 6.49683 -13.1921 1.61557e-15
      vertex 6.49683 -13.1921 -1
    endloop
  endfacet
  facet normal -0.73325 0.679959 0
    outer loop
      vertex 6.49683 -13.1921 1.61557e-15
      vertex 6.42888 -13.2654 -1
      vertex 6.42888 -13.2654 1.62454e-15
    endloop
  endfacet
  facet normal -0.829687 0.558228 0
    outer loop
      vertex 6.49683 -13.1921 -1
      vertex 6.55469 -13.1061 1.60504e-15
      vertex 6.55469 -13.1061 -1
    endloop
  endfacet
  facet normal -0.829687 0.558228 0
    outer loop
      vertex 6.55469 -13.1061 1.60504e-15
      vertex 6.49683 -13.1921 -1
      vertex 6.49683 -13.1921 1.61557e-15
    endloop
  endfacet
  facet normal -0.907263 0.420564 0
    outer loop
      vertex 6.55469 -13.1061 -1
      vertex 6.59709 -13.0146 1.59383e-15
      vertex 6.59709 -13.0146 -1
    endloop
  endfacet
  facet normal -0.907263 0.420564 0
    outer loop
      vertex 6.59709 -13.0146 1.59383e-15
      vertex 6.55469 -13.1061 -1
      vertex 6.55469 -13.1061 1.60504e-15
    endloop
  endfacet
  facet normal -0.960002 0.279994 0
    outer loop
      vertex 6.59709 -13.0146 -1
      vertex 6.62585 -12.916 1.58176e-15
      vertex 6.62585 -12.916 -1
    endloop
  endfacet
  facet normal -0.960002 0.279994 0
    outer loop
      vertex 6.62585 -12.916 1.58176e-15
      vertex 6.59709 -13.0146 -1
      vertex 6.59709 -13.0146 1.59383e-15
    endloop
  endfacet
  facet normal -0.990333 0.138713 0
    outer loop
      vertex 6.62585 -12.916 -1
      vertex 6.63997 -12.8153 1.56942e-15
      vertex 6.63997 -12.8153 -1
    endloop
  endfacet
  facet normal -0.990333 0.138713 0
    outer loop
      vertex 6.63997 -12.8153 1.56942e-15
      vertex 6.62585 -12.916 -1
      vertex 6.62585 -12.916 1.58176e-15
    endloop
  endfacet
  facet normal -0.999961 -0.00886425 0
    outer loop
      vertex 6.63997 -12.8153 -1
      vertex 6.63885 -12.6896 1.55403e-15
      vertex 6.63885 -12.6896 -1
    endloop
  endfacet
  facet normal -0.999961 -0.00886425 0
    outer loop
      vertex 6.63885 -12.6896 1.55403e-15
      vertex 6.63997 -12.8153 -1
      vertex 6.63997 -12.8153 1.56942e-15
    endloop
  endfacet
  facet normal -0.987993 -0.154496 0
    outer loop
      vertex 6.63885 -12.6896 -1
      vertex 6.61896 -12.5624 1.53845e-15
      vertex 6.61896 -12.5624 -1
    endloop
  endfacet
  facet normal -0.987993 -0.154496 0
    outer loop
      vertex 6.61896 -12.5624 1.53845e-15
      vertex 6.63885 -12.6896 -1
      vertex 6.63885 -12.6896 1.55403e-15
    endloop
  endfacet
  facet normal -0.959362 -0.282179 0
    outer loop
      vertex 6.61896 -12.5624 -1
      vertex 6.58141 -12.4347 1.52281e-15
      vertex 6.58141 -12.4347 -1
    endloop
  endfacet
  facet normal -0.959362 -0.282179 0
    outer loop
      vertex 6.58141 -12.4347 1.52281e-15
      vertex 6.61896 -12.5624 -1
      vertex 6.61896 -12.5624 1.53845e-15
    endloop
  endfacet
  facet normal -0.912439 -0.409212 0
    outer loop
      vertex 6.58141 -12.4347 -1
      vertex 1.13588 -0.292557 3.58279e-17
      vertex 1.13588 -0.292557 -1
    endloop
  endfacet
  facet normal -0.912439 -0.409212 0
    outer loop
      vertex 1.13588 -0.292557 3.58279e-17
      vertex 6.58141 -12.4347 -1
      vertex 6.58141 -12.4347 1.52281e-15
    endloop
  endfacet
  facet normal -0.913483 0.406876 0
    outer loop
      vertex 1.13588 -0.292557 -1
      vertex 6.48827 11.7242 -1.4358e-15
      vertex 6.48827 11.7242 -1
    endloop
  endfacet
  facet normal -0.913483 0.406876 0
    outer loop
      vertex 6.48827 11.7242 -1.4358e-15
      vertex 1.13588 -0.292557 -1
      vertex 1.13588 -0.292557 3.58279e-17
    endloop
  endfacet
  facet normal -0.943097 0.332517 0
    outer loop
      vertex 6.48827 11.7242 -1
      vertex 6.52936 11.8407 -1.45007e-15
      vertex 6.52936 11.8407 -1
    endloop
  endfacet
  facet normal -0.943097 0.332517 0
    outer loop
      vertex 6.52936 11.8407 -1.45007e-15
      vertex 6.48827 11.7242 -1
      vertex 6.48827 11.7242 -1.4358e-15
    endloop
  endfacet
  facet normal -0.974686 0.22358 0
    outer loop
      vertex 6.52936 11.8407 -1
      vertex 6.55682 11.9604 -1.46473e-15
      vertex 6.55682 11.9604 -1
    endloop
  endfacet
  facet normal -0.974686 0.22358 0
    outer loop
      vertex 6.55682 11.9604 -1.46473e-15
      vertex 6.52936 11.8407 -1
      vertex 6.52936 11.8407 -1.45007e-15
    endloop
  endfacet
  facet normal -0.99539 0.0959084 0
    outer loop
      vertex 6.55682 11.9604 -1
      vertex 6.56863 12.083 -1.47974e-15
      vertex 6.56863 12.083 -1
    endloop
  endfacet
  facet normal -0.99539 0.0959084 0
    outer loop
      vertex 6.56863 12.083 -1.47974e-15
      vertex 6.55682 11.9604 -1
      vertex 6.55682 11.9604 -1.46473e-15
    endloop
  endfacet
  facet normal -0.998699 -0.0510017 0
    outer loop
      vertex 6.56863 12.083 -1
      vertex 6.56247 12.2037 -1.49453e-15
      vertex 6.56247 12.2037 -1
    endloop
  endfacet
  facet normal -0.998699 -0.0510017 0
    outer loop
      vertex 6.56247 12.2037 -1.49453e-15
      vertex 6.56863 12.083 -1
      vertex 6.56863 12.083 -1.47974e-15
    endloop
  endfacet
  facet normal -0.980531 -0.196365 0
    outer loop
      vertex 6.56247 12.2037 -1
      vertex 6.54163 12.3078 -1.50727e-15
      vertex 6.54163 12.3078 -1
    endloop
  endfacet
  facet normal -0.980531 -0.196365 0
    outer loop
      vertex 6.54163 12.3078 -1.50727e-15
      vertex 6.56247 12.2037 -1
      vertex 6.56247 12.2037 -1.49453e-15
    endloop
  endfacet
  facet normal -0.940411 -0.340041 0
    outer loop
      vertex 6.54163 12.3078 -1
      vertex 6.50882 12.3985 -1.51838e-15
      vertex 6.50882 12.3985 -1
    endloop
  endfacet
  facet normal -0.940411 -0.340041 0
    outer loop
      vertex 6.50882 12.3985 -1.51838e-15
      vertex 6.54163 12.3078 -1
      vertex 6.54163 12.3078 -1.50727e-15
    endloop
  endfacet
  facet normal -0.88109 -0.472949 0
    outer loop
      vertex 6.50882 12.3985 -1
      vertex 6.46205 12.4857 -1.52905e-15
      vertex 6.46205 12.4857 -1
    endloop
  endfacet
  facet normal -0.88109 -0.472949 0
    outer loop
      vertex 6.46205 12.4857 -1.52905e-15
      vertex 6.50882 12.3985 -1
      vertex 6.50882 12.3985 -1.51838e-15
    endloop
  endfacet
  facet normal -0.799236 -0.601017 0
    outer loop
      vertex 6.46205 12.4857 -1
      vertex 6.40292 12.5643 -1.53868e-15
      vertex 6.40292 12.5643 -1
    endloop
  endfacet
  facet normal -0.799236 -0.601017 0
    outer loop
      vertex 6.40292 12.5643 -1.53868e-15
      vertex 6.46205 12.4857 -1
      vertex 6.46205 12.4857 -1.52905e-15
    endloop
  endfacet
  facet normal -0.699262 -0.714866 0
    outer loop
      vertex 6.33232 12.6334 -1
      vertex 6.40292 12.5643 -1.53868e-15
      vertex 6.33232 12.6334 -1.54714e-15
    endloop
  endfacet
  facet normal -0.699262 -0.714866 -0
    outer loop
      vertex 6.40292 12.5643 -1.53868e-15
      vertex 6.33232 12.6334 -1
      vertex 6.40292 12.5643 -1
    endloop
  endfacet
  facet normal -0.584252 -0.811572 0
    outer loop
      vertex 6.25121 12.6918 -1
      vertex 6.33232 12.6334 -1.54714e-15
      vertex 6.25121 12.6918 -1.55429e-15
    endloop
  endfacet
  facet normal -0.584252 -0.811572 -0
    outer loop
      vertex 6.33232 12.6334 -1.54714e-15
      vertex 6.25121 12.6918 -1
      vertex 6.33232 12.6334 -1
    endloop
  endfacet
  facet normal -0.446198 -0.894934 0
    outer loop
      vertex 6.14363 12.7454 -1
      vertex 6.25121 12.6918 -1.55429e-15
      vertex 6.14363 12.7454 -1.56086e-15
    endloop
  endfacet
  facet normal -0.446198 -0.894934 -0
    outer loop
      vertex 6.25121 12.6918 -1.55429e-15
      vertex 6.14363 12.7454 -1
      vertex 6.25121 12.6918 -1
    endloop
  endfacet
  facet normal -0.293802 -0.955866 0
    outer loop
      vertex 6.02454 12.782 -1
      vertex 6.14363 12.7454 -1.56086e-15
      vertex 6.02454 12.782 -1.56534e-15
    endloop
  endfacet
  facet normal -0.293802 -0.955866 -0
    outer loop
      vertex 6.14363 12.7454 -1.56086e-15
      vertex 6.02454 12.782 -1
      vertex 6.14363 12.7454 -1
    endloop
  endfacet
  facet normal -0.143871 -0.989596 0
    outer loop
      vertex 5.89943 12.8002 -1
      vertex 6.02454 12.782 -1.56534e-15
      vertex 5.89943 12.8002 -1.56757e-15
    endloop
  endfacet
  facet normal -0.143871 -0.989596 -0
    outer loop
      vertex 6.02454 12.782 -1.56534e-15
      vertex 5.89943 12.8002 -1
      vertex 6.02454 12.782 -1
    endloop
  endfacet
  facet normal -0.000998983 -1 0
    outer loop
      vertex 3.31807 12.8028 -1
      vertex 5.89943 12.8002 -1.56757e-15
      vertex 3.31807 12.8028 -1.56789e-15
    endloop
  endfacet
  facet normal -0.000998983 -1 -0
    outer loop
      vertex 5.89943 12.8002 -1.56757e-15
      vertex 3.31807 12.8028 -1
      vertex 5.89943 12.8002 -1
    endloop
  endfacet
  facet normal 0.0707209 -0.997496 0
    outer loop
      vertex 3.19884 12.7943 -1
      vertex 3.31807 12.8028 -1.56789e-15
      vertex 3.19884 12.7943 -1.56685e-15
    endloop
  endfacet
  facet normal 0.0707209 -0.997496 0
    outer loop
      vertex 3.31807 12.8028 -1.56789e-15
      vertex 3.19884 12.7943 -1
      vertex 3.31807 12.8028 -1
    endloop
  endfacet
  facet normal -0 0 1
    outer loop
      vertex -16.5 7.15 13.3
      vertex -15.5 -7.15 13.3
      vertex -15.5 7.15 13.3
    endloop
  endfacet
  facet normal 0 0 1
    outer loop
      vertex -15.5 -7.15 13.3
      vertex -16.5 7.15 13.3
      vertex -16.5 -7.15 13.3
    endloop
  endfacet
  facet normal 0 -1 0
    outer loop
      vertex -16.5 7.15 13.3
      vertex -15.5 7.15 15
      vertex -16.5 7.15 15
    endloop
  endfacet
  facet normal 0 -1 -0
    outer loop
      vertex -15.5 7.15 15
      vertex -16.5 7.15 13.3
      vertex -15.5 7.15 13.3
    endloop
  endfacet
  facet normal 0 1 -0
    outer loop
      vertex -15.5 -7.15 13.3
      vertex -16.5 -7.15 15
      vertex -15.5 -7.15 15
    endloop
  endfacet
  facet normal 0 1 0
    outer loop
      vertex -16.5 -7.15 15
      vertex -15.5 -7.15 13.3
      vertex -16.5 -7.15 13.3
    endloop
  endfacet
  facet normal -0 0 1
    outer loop
      vertex 15.5 7.15 13.3
      vertex 16.5 -7.15 13.3
      vertex 16.5 7.15 13.3
    endloop
  endfacet
  facet normal 0 0 1
    outer loop
      vertex 16.5 -7.15 13.3
      vertex 15.5 7.15 13.3
      vertex 15.5 -7.15 13.3
    endloop
  endfacet
  facet normal 0 -1 0
    outer loop
      vertex 15.5 7.15 13.3
      vertex 16.5 7.15 15
      vertex 15.5 7.15 15
    endloop
  endfacet
  facet normal 0 -1 -0
    outer loop
      vertex 16.5 7.15 15
      vertex 15.5 7.15 13.3
      vertex 16.5 7.15 13.3
    endloop
  endfacet
  facet normal 0 1 -0
    outer loop
      vertex 16.5 -7.15 13.3
      vertex 15.5 -7.15 15
      vertex 16.5 -7.15 15
    endloop
  endfacet
  facet normal 0 1 0
    outer loop
      vertex 15.5 -7.15 15
      vertex 16.5 -7.15 13.3
      vertex 15.5 -7.15 13.3
    endloop
  endfacet
  facet normal 1 -0 0
    outer loop
      vertex -7.15 -16.5 15
      vertex -7.15 -15.5 13.3
      vertex -7.15 -15.5 15
    endloop
  endfacet
  facet normal 1 0 0
    outer loop
      vertex -7.15 -15.5 13.3
      vertex -7.15 -16.5 15
      vertex -7.15 -16.5 13.3
    endloop
  endfacet
  facet normal -0 0 1
    outer loop
      vertex -7.15 -15.5 13.3
      vertex 7.15 -16.5 13.3
      vertex 7.15 -15.5 13.3
    endloop
  endfacet
  facet normal 0 0 1
    outer loop
      vertex 7.15 -16.5 13.3
      vertex -7.15 -15.5 13.3
      vertex -7.15 -16.5 13.3
    endloop
  endfacet
  facet normal -1 0 0
    outer loop
      vertex 7.15 -16.5 13.3
      vertex 7.15 -15.5 15
      vertex 7.15 -15.5 13.3
    endloop
  endfacet
  facet normal -1 -0 0
    outer loop
      vertex 7.15 -15.5 15
      vertex 7.15 -16.5 13.3
      vertex 7.15 -16.5 15
    endloop
  endfacet
  facet normal 1 -0 0
    outer loop
      vertex -7.15 15.5 15
      vertex -7.15 16.5 13.3
      vertex -7.15 16.5 15
    endloop
  endfacet
  facet normal 1 0 0
    outer loop
      vertex -7.15 16.5 13.3
      vertex -7.15 15.5 15
      vertex -7.15 15.5 13.3
    endloop
  endfacet
  facet normal -0 0 1
    outer loop
      vertex -7.15 16.5 13.3
      vertex 7.15 15.5 13.3
      vertex 7.15 16.5 13.3
    endloop
  endfacet
  facet normal 0 0 1
    outer loop
      vertex 7.15 15.5 13.3
      vertex -7.15 16.5 13.3
      vertex -7.15 15.5 13.3
    endloop
  endfacet
  facet normal -1 0 0
    outer loop
      vertex 7.15 15.5 13.3
      vertex 7.15 16.5 15
      vertex 7.15 16.5 13.3
    endloop
  endfacet
  facet normal -1 -0 0
    outer loop
      vertex 7.15 16.5 15
      vertex 7.15 15.5 13.3
      vertex 7.15 15.5 15
    endloop
  endfacet
endsolid OpenSCAD_Model
