solid OpenSCAD_Model
  facet normal -1 0 0
    outer loop
      vertex -14 -14 0.5
      vertex -14 14 1.5
      vertex -14 14 0.5
    endloop
  endfacet
  facet normal -1 -0 0
    outer loop
      vertex -14 14 1.5
      vertex -14 -14 0.5
      vertex -14 -14 1.5
    endloop
  endfacet
  facet normal 0 0 1
    outer loop
      vertex 6.81255 9.93835 1.5
      vertex 14 14 1.5
      vertex 6.81255 12.505 1.5
    endloop
  endfacet
  facet normal 0 0 1
    outer loop
      vertex 14 14 1.5
      vertex 6.80171 12.597 1.5
      vertex 6.81255 12.505 1.5
    endloop
  endfacet
  facet normal 0 0 1
    outer loop
      vertex 14 14 1.5
      vertex 6.77963 12.6841 1.5
      vertex 6.80171 12.597 1.5
    endloop
  endfacet
  facet normal 0 0 1
    outer loop
      vertex 14 14 1.5
      vertex 6.74719 12.7658 1.5
      vertex 6.77963 12.6841 1.5
    endloop
  endfacet
  facet normal 0 0 1
    outer loop
      vertex 14 14 1.5
      vertex 6.70528 12.8414 1.5
      vertex 6.74719 12.7658 1.5
    endloop
  endfacet
  facet normal 0 0 1
    outer loop
      vertex 14 14 1.5
      vertex 6.65475 12.9105 1.5
      vertex 6.70528 12.8414 1.5
    endloop
  endfacet
  facet normal 0 0 1
    outer loop
      vertex 14 14 1.5
      vertex 6.59651 12.9725 1.5
      vertex 6.65475 12.9105 1.5
    endloop
  endfacet
  facet normal 0 0 1
    outer loop
      vertex 14 14 1.5
      vertex 6.5314 13.0268 1.5
      vertex 6.59651 12.9725 1.5
    endloop
  endfacet
  facet normal 0 0 1
    outer loop
      vertex 14 14 1.5
      vertex 6.46034 13.0728 1.5
      vertex 6.5314 13.0268 1.5
    endloop
  endfacet
  facet normal 0 0 1
    outer loop
      vertex 14 14 1.5
      vertex 6.38419 13.1101 1.5
      vertex 6.46034 13.0728 1.5
    endloop
  endfacet
  facet normal 0 0 1
    outer loop
      vertex 14 14 1.5
      vertex 6.30382 13.1381 1.5
      vertex 6.38419 13.1101 1.5
    endloop
  endfacet
  facet normal 0 0 1
    outer loop
      vertex 14 14 1.5
      vertex 6.22012 13.1562 1.5
      vertex 6.30382 13.1381 1.5
    endloop
  endfacet
  facet normal 0 0 1
    outer loop
      vertex 14 14 1.5
      vertex 6.13397 13.1638 1.5
      vertex 6.22012 13.1562 1.5
    endloop
  endfacet
  facet normal 0 0 1
    outer loop
      vertex 14 14 1.5
      vertex -5.79829 13.1631 1.5
      vertex 6.13397 13.1638 1.5
    endloop
  endfacet
  facet normal 0 0 1
    outer loop
      vertex -6.45174 12.579 1.5
      vertex -14 14 1.5
      vertex -6.46021 12.4861 1.5
    endloop
  endfacet
  facet normal 0 0 1
    outer loop
      vertex -6.43184 12.6671 1.5
      vertex -14 14 1.5
      vertex -6.45174 12.579 1.5
    endloop
  endfacet
  facet normal 0 0 1
    outer loop
      vertex -6.4014 12.7499 1.5
      vertex -14 14 1.5
      vertex -6.43184 12.6671 1.5
    endloop
  endfacet
  facet normal 0 0 1
    outer loop
      vertex -6.36131 12.8268 1.5
      vertex -14 14 1.5
      vertex -6.4014 12.7499 1.5
    endloop
  endfacet
  facet normal 0 0 1
    outer loop
      vertex -6.31244 12.8972 1.5
      vertex -14 14 1.5
      vertex -6.36131 12.8268 1.5
    endloop
  endfacet
  facet normal 0 0 1
    outer loop
      vertex -6.25566 12.9607 1.5
      vertex -14 14 1.5
      vertex -6.31244 12.8972 1.5
    endloop
  endfacet
  facet normal 0 0 1
    outer loop
      vertex -6.19186 13.0166 1.5
      vertex -14 14 1.5
      vertex -6.25566 12.9607 1.5
    endloop
  endfacet
  facet normal 0 0 1
    outer loop
      vertex -6.12192 13.0643 1.5
      vertex -14 14 1.5
      vertex -6.19186 13.0166 1.5
    endloop
  endfacet
  facet normal 0 0 1
    outer loop
      vertex -6.04671 13.1034 1.5
      vertex -14 14 1.5
      vertex -6.12192 13.0643 1.5
    endloop
  endfacet
  facet normal 0 0 1
    outer loop
      vertex -5.96712 13.1333 1.5
      vertex -14 14 1.5
      vertex -6.04671 13.1034 1.5
    endloop
  endfacet
  facet normal 0 0 1
    outer loop
      vertex -5.88402 13.1534 1.5
      vertex -14 14 1.5
      vertex -5.96712 13.1333 1.5
    endloop
  endfacet
  facet normal 0 0 1
    outer loop
      vertex -5.79829 13.1631 1.5
      vertex -14 14 1.5
      vertex -5.88402 13.1534 1.5
    endloop
  endfacet
  facet normal -0 0 1
    outer loop
      vertex -14 14 1.5
      vertex -5.79829 13.1631 1.5
      vertex 14 14 1.5
    endloop
  endfacet
  facet normal 0 0 1
    outer loop
      vertex 6.80171 9.85396 1.5
      vertex 14 14 1.5
      vertex 6.81255 9.93835 1.5
    endloop
  endfacet
  facet normal 0 0 1
    outer loop
      vertex 6.77963 9.77322 1.5
      vertex 14 14 1.5
      vertex 6.80171 9.85396 1.5
    endloop
  endfacet
  facet normal 0 0 1
    outer loop
      vertex 6.74719 9.69679 1.5
      vertex 14 14 1.5
      vertex 6.77963 9.77322 1.5
    endloop
  endfacet
  facet normal 0 0 1
    outer loop
      vertex 6.70528 9.62535 1.5
      vertex 14 14 1.5
      vertex 6.74719 9.69679 1.5
    endloop
  endfacet
  facet normal 0 0 1
    outer loop
      vertex 6.65475 9.55957 1.5
      vertex 14 14 1.5
      vertex 6.70528 9.62535 1.5
    endloop
  endfacet
  facet normal 0 0 1
    outer loop
      vertex 14 14 1.5
      vertex 6.65475 9.55957 1.5
      vertex 14 -14 1.5
    endloop
  endfacet
  facet normal -0 0 1
    outer loop
      vertex 6.584 9.48901 1.5
      vertex 14 -14 1.5
      vertex 6.65475 9.55957 1.5
    endloop
  endfacet
  facet normal -0 0 1
    outer loop
      vertex 6.50365 9.42873 1.5
      vertex 14 -14 1.5
      vertex 6.584 9.48901 1.5
    endloop
  endfacet
  facet normal -0 0 1
    outer loop
      vertex 6.41521 9.37982 1.5
      vertex 14 -14 1.5
      vertex 6.50365 9.42873 1.5
    endloop
  endfacet
  facet normal -0 0 1
    outer loop
      vertex 6.32019 9.34346 1.5
      vertex 14 -14 1.5
      vertex 6.41521 9.37982 1.5
    endloop
  endfacet
  facet normal 0 0 1
    outer loop
      vertex 2.11928 -11.8261 1.5
      vertex 6.32019 9.34346 1.5
      vertex 6.23709 9.32358 1.5
    endloop
  endfacet
  facet normal 0 0 1
    outer loop
      vertex 2.11928 -11.8261 1.5
      vertex 6.23709 9.32358 1.5
      vertex 6.15135 9.31387 1.5
    endloop
  endfacet
  facet normal 0 0 1
    outer loop
      vertex 2.11928 -11.8261 1.5
      vertex 6.15135 9.31387 1.5
      vertex 2.11952 9.31299 1.5
    endloop
  endfacet
  facet normal 0 0 1
    outer loop
      vertex 6.32019 9.34346 1.5
      vertex 2.11928 -11.8261 1.5
      vertex 14 -14 1.5
    endloop
  endfacet
  facet normal -0 0 1
    outer loop
      vertex 2.11081 -11.919 1.5
      vertex 14 -14 1.5
      vertex 2.11928 -11.8261 1.5
    endloop
  endfacet
  facet normal -0 0 1
    outer loop
      vertex 2.09091 -12.007 1.5
      vertex 14 -14 1.5
      vertex 2.11081 -11.919 1.5
    endloop
  endfacet
  facet normal -0 0 1
    outer loop
      vertex 2.06049 -12.0898 1.5
      vertex 14 -14 1.5
      vertex 2.09091 -12.007 1.5
    endloop
  endfacet
  facet normal -0 0 1
    outer loop
      vertex 2.02042 -12.1665 1.5
      vertex 14 -14 1.5
      vertex 2.06049 -12.0898 1.5
    endloop
  endfacet
  facet normal -0 0 1
    outer loop
      vertex 1.97157 -12.2369 1.5
      vertex 14 -14 1.5
      vertex 2.02042 -12.1665 1.5
    endloop
  endfacet
  facet normal -0 0 1
    outer loop
      vertex 1.91486 -12.3002 1.5
      vertex 14 -14 1.5
      vertex 1.97157 -12.2369 1.5
    endloop
  endfacet
  facet normal -0 0 1
    outer loop
      vertex 1.85112 -12.3559 1.5
      vertex 14 -14 1.5
      vertex 1.91486 -12.3002 1.5
    endloop
  endfacet
  facet normal -0 0 1
    outer loop
      vertex 1.78127 -12.4036 1.5
      vertex 14 -14 1.5
      vertex 1.85112 -12.3559 1.5
    endloop
  endfacet
  facet normal -0 0 1
    outer loop
      vertex 1.70618 -12.4426 1.5
      vertex 14 -14 1.5
      vertex 1.78127 -12.4036 1.5
    endloop
  endfacet
  facet normal -0 0 1
    outer loop
      vertex 1.62672 -12.4724 1.5
      vertex 14 -14 1.5
      vertex 1.70618 -12.4426 1.5
    endloop
  endfacet
  facet normal -0 0 1
    outer loop
      vertex 1.54379 -12.4924 1.5
      vertex 14 -14 1.5
      vertex 1.62672 -12.4724 1.5
    endloop
  endfacet
  facet normal -0 0 1
    outer loop
      vertex 1.45827 -12.5021 1.5
      vertex 14 -14 1.5
      vertex 1.54379 -12.4924 1.5
    endloop
  endfacet
  facet normal -0 0 1
    outer loop
      vertex -1.10519 -12.5021 1.5
      vertex 14 -14 1.5
      vertex 1.45827 -12.5021 1.5
    endloop
  endfacet
  facet normal -0 0 1
    outer loop
      vertex -5.76346 9.31299 1.5
      vertex -1.76547 -11.845 1.5
      vertex -1.76646 9.31299 1.5
    endloop
  endfacet
  facet normal 0 0 1
    outer loop
      vertex -5.8156 9.31497 1.5
      vertex -1.76547 -11.845 1.5
      vertex -5.76346 9.31299 1.5
    endloop
  endfacet
  facet normal 0 0 1
    outer loop
      vertex -5.90088 9.32677 1.5
      vertex -1.76547 -11.845 1.5
      vertex -5.8156 9.31497 1.5
    endloop
  endfacet
  facet normal 0 0 1
    outer loop
      vertex -5.98335 9.3486 1.5
      vertex -1.76547 -11.845 1.5
      vertex -5.90088 9.32677 1.5
    endloop
  endfacet
  facet normal 0 0 1
    outer loop
      vertex -14 -14 1.5
      vertex -1.76547 -11.845 1.5
      vertex -5.98335 9.3486 1.5
    endloop
  endfacet
  facet normal 0 0 1
    outer loop
      vertex -14 -14 1.5
      vertex -5.98335 9.3486 1.5
      vertex -6.06213 9.37982 1.5
    endloop
  endfacet
  facet normal 0 0 1
    outer loop
      vertex -14 -14 1.5
      vertex -6.06213 9.37982 1.5
      vertex -6.15057 9.42873 1.5
    endloop
  endfacet
  facet normal 0 0 1
    outer loop
      vertex -14 -14 1.5
      vertex -6.15057 9.42873 1.5
      vertex -6.23094 9.48901 1.5
    endloop
  endfacet
  facet normal 0 0 1
    outer loop
      vertex -14 -14 1.5
      vertex -6.23094 9.48901 1.5
      vertex -6.30168 9.55957 1.5
    endloop
  endfacet
  facet normal 0 0 1
    outer loop
      vertex -14 14 1.5
      vertex -6.30168 9.55957 1.5
      vertex -6.3522 9.62535 1.5
    endloop
  endfacet
  facet normal 0 0 1
    outer loop
      vertex -14 14 1.5
      vertex -6.3522 9.62535 1.5
      vertex -6.39413 9.69679 1.5
    endloop
  endfacet
  facet normal 0 0 1
    outer loop
      vertex -14 14 1.5
      vertex -6.39413 9.69679 1.5
      vertex -6.42656 9.77322 1.5
    endloop
  endfacet
  facet normal 0 0 1
    outer loop
      vertex -14 14 1.5
      vertex -6.42656 9.77322 1.5
      vertex -6.44864 9.85396 1.5
    endloop
  endfacet
  facet normal 0 0 1
    outer loop
      vertex -14 14 1.5
      vertex -6.45947 9.93835 1.5
      vertex -6.46021 12.4861 1.5
    endloop
  endfacet
  facet normal 0 0 1
    outer loop
      vertex -14 14 1.5
      vertex -6.44864 9.85396 1.5
      vertex -6.45947 9.93835 1.5
    endloop
  endfacet
  facet normal 0 0 1
    outer loop
      vertex -6.30168 9.55957 1.5
      vertex -14 14 1.5
      vertex -14 -14 1.5
    endloop
  endfacet
  facet normal 0 0 1
    outer loop
      vertex -1.76547 -11.845 1.5
      vertex -14 -14 1.5
      vertex -1.75464 -11.937 1.5
    endloop
  endfacet
  facet normal 0 0 1
    outer loop
      vertex -1.75464 -11.937 1.5
      vertex -14 -14 1.5
      vertex -1.73257 -12.024 1.5
    endloop
  endfacet
  facet normal 0 0 1
    outer loop
      vertex -1.10519 -12.5021 1.5
      vertex -14 -14 1.5
      vertex 14 -14 1.5
    endloop
  endfacet
  facet normal 0 0 1
    outer loop
      vertex -1.1738 -12.4952 1.5
      vertex -14 -14 1.5
      vertex -1.10519 -12.5021 1.5
    endloop
  endfacet
  facet normal 0 0 1
    outer loop
      vertex -1.25731 -12.4772 1.5
      vertex -14 -14 1.5
      vertex -1.1738 -12.4952 1.5
    endloop
  endfacet
  facet normal 0 0 1
    outer loop
      vertex -1.33754 -12.4493 1.5
      vertex -14 -14 1.5
      vertex -1.25731 -12.4772 1.5
    endloop
  endfacet
  facet normal 0 0 1
    outer loop
      vertex -1.41357 -12.4121 1.5
      vertex -14 -14 1.5
      vertex -1.33754 -12.4493 1.5
    endloop
  endfacet
  facet normal 0 0 1
    outer loop
      vertex -1.48454 -12.3661 1.5
      vertex -14 -14 1.5
      vertex -1.41357 -12.4121 1.5
    endloop
  endfacet
  facet normal 0 0 1
    outer loop
      vertex -1.54956 -12.312 1.5
      vertex -14 -14 1.5
      vertex -1.48454 -12.3661 1.5
    endloop
  endfacet
  facet normal 0 0 1
    outer loop
      vertex -1.60776 -12.2501 1.5
      vertex -14 -14 1.5
      vertex -1.54956 -12.312 1.5
    endloop
  endfacet
  facet normal 0 0 1
    outer loop
      vertex -1.65825 -12.1812 1.5
      vertex -14 -14 1.5
      vertex -1.60776 -12.2501 1.5
    endloop
  endfacet
  facet normal 0 0 1
    outer loop
      vertex -1.70015 -12.1056 1.5
      vertex -14 -14 1.5
      vertex -1.65825 -12.1812 1.5
    endloop
  endfacet
  facet normal 0 0 1
    outer loop
      vertex -1.73257 -12.024 1.5
      vertex -14 -14 1.5
      vertex -1.70015 -12.1056 1.5
    endloop
  endfacet
  facet normal 1 -0 0
    outer loop
      vertex 14 -14 1.5
      vertex 14 14 0.5
      vertex 14 14 1.5
    endloop
  endfacet
  facet normal 1 0 0
    outer loop
      vertex 14 14 0.5
      vertex 14 -14 1.5
      vertex 14 -14 0.5
    endloop
  endfacet
  facet normal 0 1 -0
    outer loop
      vertex 14 14 0.5
      vertex -14 14 1.5
      vertex 14 14 1.5
    endloop
  endfacet
  facet normal 0 1 0
    outer loop
      vertex -14 14 1.5
      vertex 14 14 0.5
      vertex -14 14 0.5
    endloop
  endfacet
  facet normal 0 0 -1
    outer loop
      vertex -14 -14 0.5
      vertex 14 14 0.5
      vertex 14 -14 0.5
    endloop
  endfacet
  facet normal -0 0 -1
    outer loop
      vertex 14 14 0.5
      vertex -14 -14 0.5
      vertex -14 14 0.5
    endloop
  endfacet
  facet normal 0 -1 0
    outer loop
      vertex -14 -14 0.5
      vertex 14 -14 1.5
      vertex -14 -14 1.5
    endloop
  endfacet
  facet normal 0 -1 -0
    outer loop
      vertex 14 -14 1.5
      vertex -14 -14 0.5
      vertex 14 -14 0.5
    endloop
  endfacet
  facet normal 0 0 1
    outer loop
      vertex 6.13397 13.1638 3
      vertex 6.81255 12.505 3
      vertex 6.80171 12.597 3
    endloop
  endfacet
  facet normal 0 -0 1
    outer loop
      vertex 6.15135 9.31387 3
      vertex 6.81255 12.505 3
      vertex 6.13397 13.1638 3
    endloop
  endfacet
  facet normal 0 0 1
    outer loop
      vertex 6.13397 13.1638 3
      vertex 6.80171 12.597 3
      vertex 6.77963 12.6841 3
    endloop
  endfacet
  facet normal 0 0 1
    outer loop
      vertex 6.81255 12.505 3
      vertex 6.15135 9.31387 3
      vertex 6.81255 9.93835 3
    endloop
  endfacet
  facet normal 0 0 1
    outer loop
      vertex 6.13397 13.1638 3
      vertex 6.77963 12.6841 3
      vertex 6.74719 12.7658 3
    endloop
  endfacet
  facet normal 0 -0 1
    outer loop
      vertex 6.50365 9.42873 3
      vertex 6.81255 9.93835 3
      vertex 6.15135 9.31387 3
    endloop
  endfacet
  facet normal 0 0 1
    outer loop
      vertex 6.13397 13.1638 3
      vertex 6.74719 12.7658 3
      vertex 6.70528 12.8414 3
    endloop
  endfacet
  facet normal 0 -0 1
    outer loop
      vertex 6.584 9.48901 3
      vertex 6.81255 9.93835 3
      vertex 6.50365 9.42873 3
    endloop
  endfacet
  facet normal 0 0 1
    outer loop
      vertex 6.13397 13.1638 3
      vertex 6.70528 12.8414 3
      vertex 6.65475 12.9105 3
    endloop
  endfacet
  facet normal 0 0 1
    outer loop
      vertex 6.81255 9.93835 3
      vertex 6.65475 9.55957 3
      vertex 6.80171 9.85396 3
    endloop
  endfacet
  facet normal 0 0 1
    outer loop
      vertex 6.13397 13.1638 3
      vertex 6.65475 12.9105 3
      vertex 6.59651 12.9725 3
    endloop
  endfacet
  facet normal 0 0 1
    outer loop
      vertex 6.77963 9.77322 3
      vertex 6.70528 9.62535 3
      vertex 6.74719 9.69679 3
    endloop
  endfacet
  facet normal 0 0 1
    outer loop
      vertex 6.13397 13.1638 3
      vertex 6.59651 12.9725 3
      vertex 6.5314 13.0268 3
    endloop
  endfacet
  facet normal 0 0 1
    outer loop
      vertex 6.77963 9.77322 3
      vertex 6.65475 9.55957 3
      vertex 6.70528 9.62535 3
    endloop
  endfacet
  facet normal 0 0 1
    outer loop
      vertex 6.13397 13.1638 3
      vertex 6.5314 13.0268 3
      vertex 6.46034 13.0728 3
    endloop
  endfacet
  facet normal 0 0 1
    outer loop
      vertex 6.80171 9.85396 3
      vertex 6.65475 9.55957 3
      vertex 6.77963 9.77322 3
    endloop
  endfacet
  facet normal 0 0 1
    outer loop
      vertex 6.13397 13.1638 3
      vertex 6.46034 13.0728 3
      vertex 6.38419 13.1101 3
    endloop
  endfacet
  facet normal 0 -0 1
    outer loop
      vertex 6.65475 9.55957 3
      vertex 6.81255 9.93835 3
      vertex 6.584 9.48901 3
    endloop
  endfacet
  facet normal 0 0 1
    outer loop
      vertex 6.13397 13.1638 3
      vertex 6.38419 13.1101 3
      vertex 6.30382 13.1381 3
    endloop
  endfacet
  facet normal 0 0 1
    outer loop
      vertex 6.50365 9.42873 3
      vertex 6.15135 9.31387 3
      vertex 6.41521 9.37982 3
    endloop
  endfacet
  facet normal 0 0 1
    outer loop
      vertex 6.13397 13.1638 3
      vertex 6.30382 13.1381 3
      vertex 6.22012 13.1562 3
    endloop
  endfacet
  facet normal 0 0 1
    outer loop
      vertex 6.41521 9.37982 3
      vertex 6.15135 9.31387 3
      vertex 6.32019 9.34346 3
    endloop
  endfacet
  facet normal 0 0 1
    outer loop
      vertex 6.32019 9.34346 3
      vertex 6.15135 9.31387 3
      vertex 6.23709 9.32358 3
    endloop
  endfacet
  facet normal 0 0 1
    outer loop
      vertex 6.13397 13.1638 3
      vertex 2.11952 9.31299 3
      vertex 6.15135 9.31387 3
    endloop
  endfacet
  facet normal 0 0 1
    outer loop
      vertex -1.76547 -11.845 3
      vertex 2.11928 -11.8261 3
      vertex 2.11952 9.31299 3
    endloop
  endfacet
  facet normal 0 -0 1
    outer loop
      vertex 1.45827 -12.5021 3
      vertex 2.11928 -11.8261 3
      vertex -1.76547 -11.845 3
    endloop
  endfacet
  facet normal 0 0 1
    outer loop
      vertex 2.11928 -11.8261 3
      vertex 1.45827 -12.5021 3
      vertex 2.11081 -11.919 3
    endloop
  endfacet
  facet normal 0 0 1
    outer loop
      vertex 2.11081 -11.919 3
      vertex 1.45827 -12.5021 3
      vertex 2.09091 -12.007 3
    endloop
  endfacet
  facet normal 0 0 1
    outer loop
      vertex 2.09091 -12.007 3
      vertex 1.45827 -12.5021 3
      vertex 2.06049 -12.0898 3
    endloop
  endfacet
  facet normal 0 0 1
    outer loop
      vertex 2.06049 -12.0898 3
      vertex 1.45827 -12.5021 3
      vertex 2.02042 -12.1665 3
    endloop
  endfacet
  facet normal 0 0 1
    outer loop
      vertex 2.02042 -12.1665 3
      vertex 1.45827 -12.5021 3
      vertex 1.97157 -12.2369 3
    endloop
  endfacet
  facet normal 0 0 1
    outer loop
      vertex 1.97157 -12.2369 3
      vertex 1.45827 -12.5021 3
      vertex 1.91486 -12.3002 3
    endloop
  endfacet
  facet normal 0 0 1
    outer loop
      vertex 1.91486 -12.3002 3
      vertex 1.45827 -12.5021 3
      vertex 1.85112 -12.3559 3
    endloop
  endfacet
  facet normal 0 0 1
    outer loop
      vertex 1.85112 -12.3559 3
      vertex 1.45827 -12.5021 3
      vertex 1.78127 -12.4036 3
    endloop
  endfacet
  facet normal 0 0 1
    outer loop
      vertex 1.78127 -12.4036 3
      vertex 1.45827 -12.5021 3
      vertex 1.70618 -12.4426 3
    endloop
  endfacet
  facet normal 0 0 1
    outer loop
      vertex 1.70618 -12.4426 3
      vertex 1.45827 -12.5021 3
      vertex 1.62672 -12.4724 3
    endloop
  endfacet
  facet normal 0 0 1
    outer loop
      vertex 1.62672 -12.4724 3
      vertex 1.45827 -12.5021 3
      vertex 1.54379 -12.4924 3
    endloop
  endfacet
  facet normal 0 0 1
    outer loop
      vertex 1.45827 -12.5021 3
      vertex -1.76547 -11.845 3
      vertex -1.10519 -12.5021 3
    endloop
  endfacet
  facet normal 0 0 1
    outer loop
      vertex -1.10519 -12.5021 3
      vertex -1.76547 -11.845 3
      vertex -1.1738 -12.4952 3
    endloop
  endfacet
  facet normal 0 0 1
    outer loop
      vertex -1.1738 -12.4952 3
      vertex -1.76547 -11.845 3
      vertex -1.25731 -12.4772 3
    endloop
  endfacet
  facet normal 0 0 1
    outer loop
      vertex -1.25731 -12.4772 3
      vertex -1.76547 -11.845 3
      vertex -1.33754 -12.4493 3
    endloop
  endfacet
  facet normal 0 0 1
    outer loop
      vertex -1.33754 -12.4493 3
      vertex -1.76547 -11.845 3
      vertex -1.41357 -12.4121 3
    endloop
  endfacet
  facet normal 0 0 1
    outer loop
      vertex -1.41357 -12.4121 3
      vertex -1.76547 -11.845 3
      vertex -1.48454 -12.3661 3
    endloop
  endfacet
  facet normal 0 0 1
    outer loop
      vertex -1.48454 -12.3661 3
      vertex -1.76547 -11.845 3
      vertex -1.54956 -12.312 3
    endloop
  endfacet
  facet normal 0 0 1
    outer loop
      vertex -1.54956 -12.312 3
      vertex -1.76547 -11.845 3
      vertex -1.60776 -12.2501 3
    endloop
  endfacet
  facet normal 0 0 1
    outer loop
      vertex -1.60776 -12.2501 3
      vertex -1.76547 -11.845 3
      vertex -1.65825 -12.1812 3
    endloop
  endfacet
  facet normal 0 0 1
    outer loop
      vertex -1.65825 -12.1812 3
      vertex -1.76547 -11.845 3
      vertex -1.70015 -12.1056 3
    endloop
  endfacet
  facet normal 0 0 1
    outer loop
      vertex -1.70015 -12.1056 3
      vertex -1.76547 -11.845 3
      vertex -1.73257 -12.024 3
    endloop
  endfacet
  facet normal 0 0 1
    outer loop
      vertex -1.73257 -12.024 3
      vertex -1.76547 -11.845 3
      vertex -1.75464 -11.937 3
    endloop
  endfacet
  facet normal 0 0 1
    outer loop
      vertex 2.11952 9.31299 3
      vertex -1.76646 9.31299 3
      vertex -1.76547 -11.845 3
    endloop
  endfacet
  facet normal 0 0 1
    outer loop
      vertex 6.13397 13.1638 3
      vertex -1.76646 9.31299 3
      vertex 2.11952 9.31299 3
    endloop
  endfacet
  facet normal -0 0 1
    outer loop
      vertex -5.79829 13.1631 3
      vertex -1.76646 9.31299 3
      vertex 6.13397 13.1638 3
    endloop
  endfacet
  facet normal 0 0 1
    outer loop
      vertex -1.76646 9.31299 3
      vertex -5.79829 13.1631 3
      vertex -5.76346 9.31299 3
    endloop
  endfacet
  facet normal -0 0 1
    outer loop
      vertex -6.46021 12.4861 3
      vertex -5.76346 9.31299 3
      vertex -5.79829 13.1631 3
    endloop
  endfacet
  facet normal 0 0 1
    outer loop
      vertex -6.46021 12.4861 3
      vertex -5.79829 13.1631 3
      vertex -5.88402 13.1534 3
    endloop
  endfacet
  facet normal -0 -0 1
    outer loop
      vertex -6.45947 9.93835 3
      vertex -5.76346 9.31299 3
      vertex -6.46021 12.4861 3
    endloop
  endfacet
  facet normal 0 0 1
    outer loop
      vertex -6.46021 12.4861 3
      vertex -5.88402 13.1534 3
      vertex -5.96712 13.1333 3
    endloop
  endfacet
  facet normal 0 0 1
    outer loop
      vertex -5.76346 9.31299 3
      vertex -6.45947 9.93835 3
      vertex -5.8156 9.31497 3
    endloop
  endfacet
  facet normal 0 0 1
    outer loop
      vertex -6.46021 12.4861 3
      vertex -5.96712 13.1333 3
      vertex -6.04671 13.1034 3
    endloop
  endfacet
  facet normal 0 0 1
    outer loop
      vertex -5.8156 9.31497 3
      vertex -6.45947 9.93835 3
      vertex -5.90088 9.32677 3
    endloop
  endfacet
  facet normal 0 0 1
    outer loop
      vertex -6.46021 12.4861 3
      vertex -6.04671 13.1034 3
      vertex -6.12192 13.0643 3
    endloop
  endfacet
  facet normal 0 0 1
    outer loop
      vertex -5.90088 9.32677 3
      vertex -6.45947 9.93835 3
      vertex -5.98335 9.3486 3
    endloop
  endfacet
  facet normal 0 0 1
    outer loop
      vertex -6.46021 12.4861 3
      vertex -6.12192 13.0643 3
      vertex -6.19186 13.0166 3
    endloop
  endfacet
  facet normal 0 0 1
    outer loop
      vertex -5.98335 9.3486 3
      vertex -6.45947 9.93835 3
      vertex -6.06213 9.37982 3
    endloop
  endfacet
  facet normal 0 0 1
    outer loop
      vertex -6.46021 12.4861 3
      vertex -6.19186 13.0166 3
      vertex -6.25566 12.9607 3
    endloop
  endfacet
  facet normal 0 0 1
    outer loop
      vertex -6.06213 9.37982 3
      vertex -6.45947 9.93835 3
      vertex -6.15057 9.42873 3
    endloop
  endfacet
  facet normal 0 0 1
    outer loop
      vertex -6.46021 12.4861 3
      vertex -6.25566 12.9607 3
      vertex -6.31244 12.8972 3
    endloop
  endfacet
  facet normal 0 0 1
    outer loop
      vertex -6.15057 9.42873 3
      vertex -6.45947 9.93835 3
      vertex -6.23094 9.48901 3
    endloop
  endfacet
  facet normal 0 0 1
    outer loop
      vertex -6.46021 12.4861 3
      vertex -6.31244 12.8972 3
      vertex -6.36131 12.8268 3
    endloop
  endfacet
  facet normal 0 0 1
    outer loop
      vertex -6.23094 9.48901 3
      vertex -6.45947 9.93835 3
      vertex -6.30168 9.55957 3
    endloop
  endfacet
  facet normal 0 0 1
    outer loop
      vertex -6.46021 12.4861 3
      vertex -6.36131 12.8268 3
      vertex -6.4014 12.7499 3
    endloop
  endfacet
  facet normal 0 0 1
    outer loop
      vertex -6.30168 9.55957 3
      vertex -6.45947 9.93835 3
      vertex -6.3522 9.62535 3
    endloop
  endfacet
  facet normal 0 0 1
    outer loop
      vertex -6.46021 12.4861 3
      vertex -6.4014 12.7499 3
      vertex -6.43184 12.6671 3
    endloop
  endfacet
  facet normal 0 0 1
    outer loop
      vertex -6.3522 9.62535 3
      vertex -6.45947 9.93835 3
      vertex -6.39413 9.69679 3
    endloop
  endfacet
  facet normal 0 0 1
    outer loop
      vertex -6.46021 12.4861 3
      vertex -6.43184 12.6671 3
      vertex -6.45174 12.579 3
    endloop
  endfacet
  facet normal 0 0 1
    outer loop
      vertex -6.39413 9.69679 3
      vertex -6.45947 9.93835 3
      vertex -6.42656 9.77322 3
    endloop
  endfacet
  facet normal 0 0 1
    outer loop
      vertex -6.42656 9.77322 3
      vertex -6.45947 9.93835 3
      vertex -6.44864 9.85396 3
    endloop
  endfacet
  facet normal 0 -1 0
    outer loop
      vertex -1.10519 -12.5021 1.5
      vertex 1.45827 -12.5021 3
      vertex -1.10519 -12.5021 3
    endloop
  endfacet
  facet normal 0 -1 -0
    outer loop
      vertex 1.45827 -12.5021 3
      vertex -1.10519 -12.5021 1.5
      vertex 1.45827 -12.5021 1.5
    endloop
  endfacet
  facet normal 0.112922 -0.993604 0
    outer loop
      vertex 1.45827 -12.5021 1.5
      vertex 1.54379 -12.4924 3
      vertex 1.45827 -12.5021 3
    endloop
  endfacet
  facet normal 0.112922 -0.993604 0
    outer loop
      vertex 1.54379 -12.4924 3
      vertex 1.45827 -12.5021 1.5
      vertex 1.54379 -12.4924 1.5
    endloop
  endfacet
  facet normal 0.234658 -0.972078 0
    outer loop
      vertex 1.54379 -12.4924 1.5
      vertex 1.62672 -12.4724 3
      vertex 1.54379 -12.4924 3
    endloop
  endfacet
  facet normal 0.234658 -0.972078 0
    outer loop
      vertex 1.62672 -12.4724 3
      vertex 1.54379 -12.4924 1.5
      vertex 1.62672 -12.4724 1.5
    endloop
  endfacet
  facet normal 0.351025 -0.936366 0
    outer loop
      vertex 1.62672 -12.4724 1.5
      vertex 1.70618 -12.4426 3
      vertex 1.62672 -12.4724 3
    endloop
  endfacet
  facet normal 0.351025 -0.936366 0
    outer loop
      vertex 1.70618 -12.4426 3
      vertex 1.62672 -12.4724 1.5
      vertex 1.70618 -12.4426 1.5
    endloop
  endfacet
  facet normal 0.460796 -0.887506 0
    outer loop
      vertex 1.70618 -12.4426 1.5
      vertex 1.78127 -12.4036 3
      vertex 1.70618 -12.4426 3
    endloop
  endfacet
  facet normal 0.460796 -0.887506 0
    outer loop
      vertex 1.78127 -12.4036 3
      vertex 1.70618 -12.4426 1.5
      vertex 1.78127 -12.4036 1.5
    endloop
  endfacet
  facet normal 0.563538 -0.82609 0
    outer loop
      vertex 1.78127 -12.4036 1.5
      vertex 1.85112 -12.3559 3
      vertex 1.78127 -12.4036 3
    endloop
  endfacet
  facet normal 0.563538 -0.82609 0
    outer loop
      vertex 1.85112 -12.3559 3
      vertex 1.78127 -12.4036 1.5
      vertex 1.85112 -12.3559 1.5
    endloop
  endfacet
  facet normal 0.658415 -0.752655 0
    outer loop
      vertex 1.85112 -12.3559 1.5
      vertex 1.91486 -12.3002 3
      vertex 1.85112 -12.3559 3
    endloop
  endfacet
  facet normal 0.658415 -0.752655 0
    outer loop
      vertex 1.91486 -12.3002 3
      vertex 1.85112 -12.3559 1.5
      vertex 1.91486 -12.3002 1.5
    endloop
  endfacet
  facet normal 0.744819 -0.667267 0
    outer loop
      vertex 1.91486 -12.3002 3
      vertex 1.97157 -12.2369 1.5
      vertex 1.97157 -12.2369 3
    endloop
  endfacet
  facet normal 0.744819 -0.667267 0
    outer loop
      vertex 1.97157 -12.2369 1.5
      vertex 1.91486 -12.3002 3
      vertex 1.91486 -12.3002 1.5
    endloop
  endfacet
  facet normal 0.821344 -0.570433 0
    outer loop
      vertex 1.97157 -12.2369 3
      vertex 2.02042 -12.1665 1.5
      vertex 2.02042 -12.1665 3
    endloop
  endfacet
  facet normal 0.821344 -0.570433 0
    outer loop
      vertex 2.02042 -12.1665 1.5
      vertex 1.97157 -12.2369 3
      vertex 1.97157 -12.2369 1.5
    endloop
  endfacet
  facet normal 0.886579 -0.462578 0
    outer loop
      vertex 2.02042 -12.1665 3
      vertex 2.06049 -12.0898 1.5
      vertex 2.06049 -12.0898 3
    endloop
  endfacet
  facet normal 0.886579 -0.462578 0
    outer loop
      vertex 2.06049 -12.0898 1.5
      vertex 2.02042 -12.1665 3
      vertex 2.02042 -12.1665 1.5
    endloop
  endfacet
  facet normal 0.938503 -0.345272 0
    outer loop
      vertex 2.06049 -12.0898 3
      vertex 2.09091 -12.007 1.5
      vertex 2.09091 -12.007 3
    endloop
  endfacet
  facet normal 0.938503 -0.345272 0
    outer loop
      vertex 2.09091 -12.007 1.5
      vertex 2.06049 -12.0898 3
      vertex 2.06049 -12.0898 1.5
    endloop
  endfacet
  facet normal 0.975409 -0.220401 0
    outer loop
      vertex 2.09091 -12.007 3
      vertex 2.11081 -11.919 1.5
      vertex 2.11081 -11.919 3
    endloop
  endfacet
  facet normal 0.975409 -0.220401 0
    outer loop
      vertex 2.11081 -11.919 1.5
      vertex 2.09091 -12.007 3
      vertex 2.09091 -12.007 1.5
    endloop
  endfacet
  facet normal 0.99587 -0.0907865 0
    outer loop
      vertex 2.11081 -11.919 3
      vertex 2.11928 -11.8261 1.5
      vertex 2.11928 -11.8261 3
    endloop
  endfacet
  facet normal 0.99587 -0.0907865 0
    outer loop
      vertex 2.11928 -11.8261 1.5
      vertex 2.11081 -11.919 3
      vertex 2.11081 -11.919 1.5
    endloop
  endfacet
  facet normal 1 -1.15493e-05 0
    outer loop
      vertex 2.11928 -11.8261 3
      vertex 2.11952 9.31299 1.5
      vertex 2.11952 9.31299 3
    endloop
  endfacet
  facet normal 1 -1.15493e-05 0
    outer loop
      vertex 2.11952 9.31299 1.5
      vertex 2.11928 -11.8261 3
      vertex 2.11928 -11.8261 1.5
    endloop
  endfacet
  facet normal 0.000219506 -1 0
    outer loop
      vertex 2.11952 9.31299 1.5
      vertex 6.15135 9.31387 3
      vertex 2.11952 9.31299 3
    endloop
  endfacet
  facet normal 0.000219506 -1 0
    outer loop
      vertex 6.15135 9.31387 3
      vertex 2.11952 9.31299 1.5
      vertex 6.15135 9.31387 1.5
    endloop
  endfacet
  facet normal 0.112469 -0.993655 0
    outer loop
      vertex 6.15135 9.31387 1.5
      vertex 6.23709 9.32358 3
      vertex 6.15135 9.31387 3
    endloop
  endfacet
  facet normal 0.112469 -0.993655 0
    outer loop
      vertex 6.23709 9.32358 3
      vertex 6.15135 9.31387 1.5
      vertex 6.23709 9.32358 1.5
    endloop
  endfacet
  facet normal 0.232691 -0.972551 0
    outer loop
      vertex 6.23709 9.32358 1.5
      vertex 6.32019 9.34346 3
      vertex 6.23709 9.32358 3
    endloop
  endfacet
  facet normal 0.232691 -0.972551 0
    outer loop
      vertex 6.32019 9.34346 3
      vertex 6.23709 9.32358 1.5
      vertex 6.32019 9.34346 1.5
    endloop
  endfacet
  facet normal 0.357411 -0.933947 0
    outer loop
      vertex 6.32019 9.34346 1.5
      vertex 6.41521 9.37982 3
      vertex 6.32019 9.34346 3
    endloop
  endfacet
  facet normal 0.357411 -0.933947 0
    outer loop
      vertex 6.41521 9.37982 3
      vertex 6.32019 9.34346 1.5
      vertex 6.41521 9.37982 1.5
    endloop
  endfacet
  facet normal 0.483911 -0.875117 0
    outer loop
      vertex 6.41521 9.37982 1.5
      vertex 6.50365 9.42873 3
      vertex 6.41521 9.37982 3
    endloop
  endfacet
  facet normal 0.483911 -0.875117 0
    outer loop
      vertex 6.50365 9.42873 3
      vertex 6.41521 9.37982 1.5
      vertex 6.50365 9.42873 1.5
    endloop
  endfacet
  facet normal 0.600146 -0.799891 0
    outer loop
      vertex 6.50365 9.42873 1.5
      vertex 6.584 9.48901 3
      vertex 6.50365 9.42873 3
    endloop
  endfacet
  facet normal 0.600146 -0.799891 0
    outer loop
      vertex 6.584 9.48901 3
      vertex 6.50365 9.42873 1.5
      vertex 6.584 9.48901 1.5
    endloop
  endfacet
  facet normal 0.706113 -0.708099 0
    outer loop
      vertex 6.584 9.48901 1.5
      vertex 6.65475 9.55957 3
      vertex 6.584 9.48901 3
    endloop
  endfacet
  facet normal 0.706113 -0.708099 0
    outer loop
      vertex 6.65475 9.55957 3
      vertex 6.584 9.48901 1.5
      vertex 6.65475 9.55957 1.5
    endloop
  endfacet
  facet normal 0.793082 -0.609115 0
    outer loop
      vertex 6.65475 9.55957 3
      vertex 6.70528 9.62535 1.5
      vertex 6.70528 9.62535 3
    endloop
  endfacet
  facet normal 0.793082 -0.609115 0
    outer loop
      vertex 6.70528 9.62535 1.5
      vertex 6.65475 9.55957 3
      vertex 6.65475 9.55957 1.5
    endloop
  endfacet
  facet normal 0.862507 -0.506046 0
    outer loop
      vertex 6.70528 9.62535 3
      vertex 6.74719 9.69679 1.5
      vertex 6.74719 9.69679 3
    endloop
  endfacet
  facet normal 0.862507 -0.506046 0
    outer loop
      vertex 6.74719 9.69679 1.5
      vertex 6.70528 9.62535 3
      vertex 6.70528 9.62535 1.5
    endloop
  endfacet
  facet normal 0.920518 -0.390701 0
    outer loop
      vertex 6.74719 9.69679 3
      vertex 6.77963 9.77322 1.5
      vertex 6.77963 9.77322 3
    endloop
  endfacet
  facet normal 0.920518 -0.390701 0
    outer loop
      vertex 6.77963 9.77322 1.5
      vertex 6.74719 9.69679 3
      vertex 6.74719 9.69679 1.5
    endloop
  endfacet
  facet normal 0.964578 -0.263796 0
    outer loop
      vertex 6.77963 9.77322 3
      vertex 6.80171 9.85396 1.5
      vertex 6.80171 9.85396 3
    endloop
  endfacet
  facet normal 0.964578 -0.263796 0
    outer loop
      vertex 6.80171 9.85396 1.5
      vertex 6.77963 9.77322 3
      vertex 6.77963 9.77322 1.5
    endloop
  endfacet
  facet normal 0.991861 -0.127323 0
    outer loop
      vertex 6.80171 9.85396 3
      vertex 6.81255 9.93835 1.5
      vertex 6.81255 9.93835 3
    endloop
  endfacet
  facet normal 0.991861 -0.127323 0
    outer loop
      vertex 6.81255 9.93835 1.5
      vertex 6.80171 9.85396 3
      vertex 6.80171 9.85396 1.5
    endloop
  endfacet
  facet normal 1 -0 0
    outer loop
      vertex 6.81255 9.93835 3
      vertex 6.81255 12.505 1.5
      vertex 6.81255 12.505 3
    endloop
  endfacet
  facet normal 1 0 0
    outer loop
      vertex 6.81255 12.505 1.5
      vertex 6.81255 9.93835 3
      vertex 6.81255 9.93835 1.5
    endloop
  endfacet
  facet normal 0.993137 0.116956 0
    outer loop
      vertex 6.81255 12.505 3
      vertex 6.80171 12.597 1.5
      vertex 6.80171 12.597 3
    endloop
  endfacet
  facet normal 0.993137 0.116956 0
    outer loop
      vertex 6.80171 12.597 1.5
      vertex 6.81255 12.505 3
      vertex 6.81255 12.505 1.5
    endloop
  endfacet
  facet normal 0.969348 0.24569 0
    outer loop
      vertex 6.80171 12.597 3
      vertex 6.77963 12.6841 1.5
      vertex 6.77963 12.6841 3
    endloop
  endfacet
  facet normal 0.969348 0.24569 0
    outer loop
      vertex 6.77963 12.6841 1.5
      vertex 6.80171 12.597 3
      vertex 6.80171 12.597 1.5
    endloop
  endfacet
  facet normal 0.929337 0.369234 0
    outer loop
      vertex 6.77963 12.6841 3
      vertex 6.74719 12.7658 1.5
      vertex 6.74719 12.7658 3
    endloop
  endfacet
  facet normal 0.929337 0.369234 0
    outer loop
      vertex 6.74719 12.7658 1.5
      vertex 6.77963 12.6841 3
      vertex 6.77963 12.6841 1.5
    endloop
  endfacet
  facet normal 0.874673 0.484714 0
    outer loop
      vertex 6.74719 12.7658 3
      vertex 6.70528 12.8414 1.5
      vertex 6.70528 12.8414 3
    endloop
  endfacet
  facet normal 0.874673 0.484714 0
    outer loop
      vertex 6.70528 12.8414 1.5
      vertex 6.74719 12.7658 3
      vertex 6.74719 12.7658 1.5
    endloop
  endfacet
  facet normal 0.807153 0.590343 0
    outer loop
      vertex 6.70528 12.8414 3
      vertex 6.65475 12.9105 1.5
      vertex 6.65475 12.9105 3
    endloop
  endfacet
  facet normal 0.807153 0.590343 0
    outer loop
      vertex 6.65475 12.9105 1.5
      vertex 6.70528 12.8414 3
      vertex 6.70528 12.8414 1.5
    endloop
  endfacet
  facet normal 0.728658 0.684878 0
    outer loop
      vertex 6.65475 12.9105 3
      vertex 6.59651 12.9725 1.5
      vertex 6.59651 12.9725 3
    endloop
  endfacet
  facet normal 0.728658 0.684878 0
    outer loop
      vertex 6.59651 12.9725 1.5
      vertex 6.65475 12.9105 3
      vertex 6.65475 12.9105 1.5
    endloop
  endfacet
  facet normal 0.640521 0.767941 -0
    outer loop
      vertex 6.59651 12.9725 1.5
      vertex 6.5314 13.0268 3
      vertex 6.59651 12.9725 3
    endloop
  endfacet
  facet normal 0.640521 0.767941 0
    outer loop
      vertex 6.5314 13.0268 3
      vertex 6.59651 12.9725 1.5
      vertex 6.5314 13.0268 1.5
    endloop
  endfacet
  facet normal 0.543968 0.839106 -0
    outer loop
      vertex 6.5314 13.0268 1.5
      vertex 6.46034 13.0728 3
      vertex 6.5314 13.0268 3
    endloop
  endfacet
  facet normal 0.543968 0.839106 0
    outer loop
      vertex 6.46034 13.0728 3
      vertex 6.5314 13.0268 1.5
      vertex 6.46034 13.0728 1.5
    endloop
  endfacet
  facet normal 0.439785 0.898103 -0
    outer loop
      vertex 6.46034 13.0728 1.5
      vertex 6.38419 13.1101 3
      vertex 6.46034 13.0728 3
    endloop
  endfacet
  facet normal 0.439785 0.898103 0
    outer loop
      vertex 6.38419 13.1101 3
      vertex 6.46034 13.0728 1.5
      vertex 6.38419 13.1101 1.5
    endloop
  endfacet
  facet normal 0.328521 0.944497 -0
    outer loop
      vertex 6.38419 13.1101 1.5
      vertex 6.30382 13.1381 3
      vertex 6.38419 13.1101 3
    endloop
  endfacet
  facet normal 0.328521 0.944497 0
    outer loop
      vertex 6.30382 13.1381 3
      vertex 6.38419 13.1101 1.5
      vertex 6.30382 13.1381 1.5
    endloop
  endfacet
  facet normal 0.211001 0.977486 -0
    outer loop
      vertex 6.30382 13.1381 1.5
      vertex 6.22012 13.1562 3
      vertex 6.30382 13.1381 3
    endloop
  endfacet
  facet normal 0.211001 0.977486 0
    outer loop
      vertex 6.22012 13.1562 3
      vertex 6.30382 13.1381 1.5
      vertex 6.22012 13.1562 1.5
    endloop
  endfacet
  facet normal 0.088038 0.996117 -0
    outer loop
      vertex 6.22012 13.1562 1.5
      vertex 6.13397 13.1638 3
      vertex 6.22012 13.1562 3
    endloop
  endfacet
  facet normal 0.088038 0.996117 0
    outer loop
      vertex 6.13397 13.1638 3
      vertex 6.22012 13.1562 1.5
      vertex 6.13397 13.1638 1.5
    endloop
  endfacet
  facet normal -5.49877e-05 1 0
    outer loop
      vertex 6.13397 13.1638 1.5
      vertex -5.79829 13.1631 3
      vertex 6.13397 13.1638 3
    endloop
  endfacet
  facet normal -5.49877e-05 1 0
    outer loop
      vertex -5.79829 13.1631 3
      vertex 6.13397 13.1638 1.5
      vertex -5.79829 13.1631 1.5
    endloop
  endfacet
  facet normal -0.113187 0.993574 0
    outer loop
      vertex -5.79829 13.1631 1.5
      vertex -5.88402 13.1534 3
      vertex -5.79829 13.1631 3
    endloop
  endfacet
  facet normal -0.113187 0.993574 0
    outer loop
      vertex -5.88402 13.1534 3
      vertex -5.79829 13.1631 1.5
      vertex -5.88402 13.1534 1.5
    endloop
  endfacet
  facet normal -0.234885 0.972023 0
    outer loop
      vertex -5.88402 13.1534 1.5
      vertex -5.96712 13.1333 3
      vertex -5.88402 13.1534 3
    endloop
  endfacet
  facet normal -0.234885 0.972023 0
    outer loop
      vertex -5.96712 13.1333 3
      vertex -5.88402 13.1534 1.5
      vertex -5.96712 13.1333 1.5
    endloop
  endfacet
  facet normal -0.351281 0.93627 0
    outer loop
      vertex -5.96712 13.1333 1.5
      vertex -6.04671 13.1034 3
      vertex -5.96712 13.1333 3
    endloop
  endfacet
  facet normal -0.351281 0.93627 0
    outer loop
      vertex -6.04671 13.1034 3
      vertex -5.96712 13.1333 1.5
      vertex -6.04671 13.1034 1.5
    endloop
  endfacet
  facet normal -0.4612 0.887296 0
    outer loop
      vertex -6.04671 13.1034 1.5
      vertex -6.12192 13.0643 3
      vertex -6.04671 13.1034 3
    endloop
  endfacet
  facet normal -0.4612 0.887296 0
    outer loop
      vertex -6.12192 13.0643 3
      vertex -6.04671 13.1034 1.5
      vertex -6.12192 13.0643 1.5
    endloop
  endfacet
  facet normal -0.563896 0.825846 0
    outer loop
      vertex -6.12192 13.0643 1.5
      vertex -6.19186 13.0166 3
      vertex -6.12192 13.0643 3
    endloop
  endfacet
  facet normal -0.563896 0.825846 0
    outer loop
      vertex -6.19186 13.0166 3
      vertex -6.12192 13.0643 1.5
      vertex -6.19186 13.0166 1.5
    endloop
  endfacet
  facet normal -0.658874 0.752253 0
    outer loop
      vertex -6.19186 13.0166 1.5
      vertex -6.25566 12.9607 3
      vertex -6.19186 13.0166 3
    endloop
  endfacet
  facet normal -0.658874 0.752253 0
    outer loop
      vertex -6.25566 12.9607 3
      vertex -6.19186 13.0166 1.5
      vertex -6.25566 12.9607 1.5
    endloop
  endfacet
  facet normal -0.745101 0.666952 0
    outer loop
      vertex -6.31244 12.8972 1.5
      vertex -6.25566 12.9607 3
      vertex -6.25566 12.9607 1.5
    endloop
  endfacet
  facet normal -0.745101 0.666952 0
    outer loop
      vertex -6.25566 12.9607 3
      vertex -6.31244 12.8972 1.5
      vertex -6.31244 12.8972 3
    endloop
  endfacet
  facet normal -0.821583 0.570089 0
    outer loop
      vertex -6.36131 12.8268 1.5
      vertex -6.31244 12.8972 3
      vertex -6.31244 12.8972 1.5
    endloop
  endfacet
  facet normal -0.821583 0.570089 0
    outer loop
      vertex -6.31244 12.8972 3
      vertex -6.36131 12.8268 1.5
      vertex -6.36131 12.8268 3
    endloop
  endfacet
  facet normal -0.886732 0.462283 0
    outer loop
      vertex -6.4014 12.7499 1.5
      vertex -6.36131 12.8268 3
      vertex -6.36131 12.8268 1.5
    endloop
  endfacet
  facet normal -0.886732 0.462283 0
    outer loop
      vertex -6.36131 12.8268 3
      vertex -6.4014 12.7499 1.5
      vertex -6.4014 12.7499 3
    endloop
  endfacet
  facet normal -0.93857 0.345088 0
    outer loop
      vertex -6.43184 12.6671 1.5
      vertex -6.4014 12.7499 3
      vertex -6.4014 12.7499 1.5
    endloop
  endfacet
  facet normal -0.93857 0.345088 0
    outer loop
      vertex -6.4014 12.7499 3
      vertex -6.43184 12.6671 1.5
      vertex -6.43184 12.6671 3
    endloop
  endfacet
  facet normal -0.975442 0.220256 0
    outer loop
      vertex -6.45174 12.579 1.5
      vertex -6.43184 12.6671 3
      vertex -6.43184 12.6671 1.5
    endloop
  endfacet
  facet normal -0.975442 0.220256 0
    outer loop
      vertex -6.43184 12.6671 3
      vertex -6.45174 12.579 1.5
      vertex -6.45174 12.579 3
    endloop
  endfacet
  facet normal -0.995872 0.0907717 0
    outer loop
      vertex -6.46021 12.4861 1.5
      vertex -6.45174 12.579 3
      vertex -6.45174 12.579 1.5
    endloop
  endfacet
  facet normal -0.995872 0.0907717 0
    outer loop
      vertex -6.45174 12.579 3
      vertex -6.46021 12.4861 1.5
      vertex -6.46021 12.4861 3
    endloop
  endfacet
  facet normal -1 -0.000287479 0
    outer loop
      vertex -6.45947 9.93835 1.5
      vertex -6.46021 12.4861 3
      vertex -6.46021 12.4861 1.5
    endloop
  endfacet
  facet normal -1 -0.000287479 0
    outer loop
      vertex -6.46021 12.4861 3
      vertex -6.45947 9.93835 1.5
      vertex -6.45947 9.93835 3
    endloop
  endfacet
  facet normal -0.991861 -0.127323 0
    outer loop
      vertex -6.44864 9.85396 1.5
      vertex -6.45947 9.93835 3
      vertex -6.45947 9.93835 1.5
    endloop
  endfacet
  facet normal -0.991861 -0.127323 0
    outer loop
      vertex -6.45947 9.93835 3
      vertex -6.44864 9.85396 1.5
      vertex -6.44864 9.85396 3
    endloop
  endfacet
  facet normal -0.964578 -0.263796 0
    outer loop
      vertex -6.42656 9.77322 1.5
      vertex -6.44864 9.85396 3
      vertex -6.44864 9.85396 1.5
    endloop
  endfacet
  facet normal -0.964578 -0.263796 0
    outer loop
      vertex -6.44864 9.85396 3
      vertex -6.42656 9.77322 1.5
      vertex -6.42656 9.77322 3
    endloop
  endfacet
  facet normal -0.920584 -0.390545 0
    outer loop
      vertex -6.39413 9.69679 1.5
      vertex -6.42656 9.77322 3
      vertex -6.42656 9.77322 1.5
    endloop
  endfacet
  facet normal -0.920584 -0.390545 0
    outer loop
      vertex -6.42656 9.77322 3
      vertex -6.39413 9.69679 1.5
      vertex -6.39413 9.69679 3
    endloop
  endfacet
  facet normal -0.862426 -0.506183 0
    outer loop
      vertex -6.3522 9.62535 1.5
      vertex -6.39413 9.69679 3
      vertex -6.39413 9.69679 1.5
    endloop
  endfacet
  facet normal -0.862426 -0.506183 0
    outer loop
      vertex -6.39413 9.69679 3
      vertex -6.3522 9.62535 1.5
      vertex -6.3522 9.62535 3
    endloop
  endfacet
  facet normal -0.793082 -0.609115 0
    outer loop
      vertex -6.30168 9.55957 1.5
      vertex -6.3522 9.62535 3
      vertex -6.3522 9.62535 1.5
    endloop
  endfacet
  facet normal -0.793082 -0.609115 0
    outer loop
      vertex -6.3522 9.62535 3
      vertex -6.30168 9.55957 1.5
      vertex -6.30168 9.55957 3
    endloop
  endfacet
  facet normal -0.70619 -0.708023 0
    outer loop
      vertex -6.30168 9.55957 1.5
      vertex -6.23094 9.48901 3
      vertex -6.30168 9.55957 3
    endloop
  endfacet
  facet normal -0.70619 -0.708023 -0
    outer loop
      vertex -6.23094 9.48901 3
      vertex -6.30168 9.55957 1.5
      vertex -6.23094 9.48901 1.5
    endloop
  endfacet
  facet normal -0.600073 -0.799945 0
    outer loop
      vertex -6.23094 9.48901 1.5
      vertex -6.15057 9.42873 3
      vertex -6.23094 9.48901 3
    endloop
  endfacet
  facet normal -0.600073 -0.799945 -0
    outer loop
      vertex -6.15057 9.42873 3
      vertex -6.23094 9.48901 1.5
      vertex -6.15057 9.42873 1.5
    endloop
  endfacet
  facet normal -0.483911 -0.875117 0
    outer loop
      vertex -6.15057 9.42873 1.5
      vertex -6.06213 9.37982 3
      vertex -6.15057 9.42873 3
    endloop
  endfacet
  facet normal -0.483911 -0.875117 -0
    outer loop
      vertex -6.06213 9.37982 3
      vertex -6.15057 9.42873 1.5
      vertex -6.06213 9.37982 1.5
    endloop
  endfacet
  facet normal -0.368408 -0.929664 0
    outer loop
      vertex -6.06213 9.37982 1.5
      vertex -5.98335 9.3486 3
      vertex -6.06213 9.37982 3
    endloop
  endfacet
  facet normal -0.368408 -0.929664 -0
    outer loop
      vertex -5.98335 9.3486 3
      vertex -6.06213 9.37982 1.5
      vertex -5.98335 9.3486 1.5
    endloop
  endfacet
  facet normal -0.255937 -0.966694 0
    outer loop
      vertex -5.98335 9.3486 1.5
      vertex -5.90088 9.32677 3
      vertex -5.98335 9.3486 3
    endloop
  endfacet
  facet normal -0.255937 -0.966694 -0
    outer loop
      vertex -5.90088 9.32677 3
      vertex -5.98335 9.3486 1.5
      vertex -5.90088 9.32677 1.5
    endloop
  endfacet
  facet normal -0.137003 -0.990571 0
    outer loop
      vertex -5.90088 9.32677 1.5
      vertex -5.8156 9.31497 3
      vertex -5.90088 9.32677 3
    endloop
  endfacet
  facet normal -0.137003 -0.990571 -0
    outer loop
      vertex -5.8156 9.31497 3
      vertex -5.90088 9.32677 1.5
      vertex -5.8156 9.31497 1.5
    endloop
  endfacet
  facet normal -0.0380176 -0.999277 0
    outer loop
      vertex -5.8156 9.31497 1.5
      vertex -5.76346 9.31299 3
      vertex -5.8156 9.31497 3
    endloop
  endfacet
  facet normal -0.0380176 -0.999277 -0
    outer loop
      vertex -5.76346 9.31299 3
      vertex -5.8156 9.31497 1.5
      vertex -5.76346 9.31299 1.5
    endloop
  endfacet
  facet normal 0 -1 0
    outer loop
      vertex -5.76346 9.31299 1.5
      vertex -1.76646 9.31299 3
      vertex -5.76346 9.31299 3
    endloop
  endfacet
  facet normal 0 -1 -0
    outer loop
      vertex -1.76646 9.31299 3
      vertex -5.76346 9.31299 1.5
      vertex -1.76646 9.31299 1.5
    endloop
  endfacet
  facet normal -1 -4.68768e-05 0
    outer loop
      vertex -1.76547 -11.845 1.5
      vertex -1.76646 9.31299 3
      vertex -1.76646 9.31299 1.5
    endloop
  endfacet
  facet normal -1 -4.68768e-05 0
    outer loop
      vertex -1.76646 9.31299 3
      vertex -1.76547 -11.845 1.5
      vertex -1.76547 -11.845 3
    endloop
  endfacet
  facet normal -0.993133 -0.116994 0
    outer loop
      vertex -1.75464 -11.937 1.5
      vertex -1.76547 -11.845 3
      vertex -1.76547 -11.845 1.5
    endloop
  endfacet
  facet normal -0.993133 -0.116994 0
    outer loop
      vertex -1.76547 -11.845 3
      vertex -1.75464 -11.937 1.5
      vertex -1.75464 -11.937 3
    endloop
  endfacet
  facet normal -0.969348 -0.245693 0
    outer loop
      vertex -1.73257 -12.024 1.5
      vertex -1.75464 -11.937 3
      vertex -1.75464 -11.937 1.5
    endloop
  endfacet
  facet normal -0.969348 -0.245693 0
    outer loop
      vertex -1.75464 -11.937 3
      vertex -1.73257 -12.024 1.5
      vertex -1.73257 -12.024 3
    endloop
  endfacet
  facet normal -0.929254 -0.369441 0
    outer loop
      vertex -1.70015 -12.1056 1.5
      vertex -1.73257 -12.024 3
      vertex -1.73257 -12.024 1.5
    endloop
  endfacet
  facet normal -0.929254 -0.369441 0
    outer loop
      vertex -1.73257 -12.024 3
      vertex -1.70015 -12.1056 1.5
      vertex -1.70015 -12.1056 3
    endloop
  endfacet
  facet normal -0.874499 -0.485028 0
    outer loop
      vertex -1.65825 -12.1812 1.5
      vertex -1.70015 -12.1056 3
      vertex -1.70015 -12.1056 1.5
    endloop
  endfacet
  facet normal -0.874499 -0.485028 0
    outer loop
      vertex -1.70015 -12.1056 3
      vertex -1.65825 -12.1812 1.5
      vertex -1.65825 -12.1812 3
    endloop
  endfacet
  facet normal -0.806887 -0.590706 0
    outer loop
      vertex -1.60776 -12.2501 1.5
      vertex -1.65825 -12.1812 3
      vertex -1.65825 -12.1812 1.5
    endloop
  endfacet
  facet normal -0.806887 -0.590706 0
    outer loop
      vertex -1.65825 -12.1812 3
      vertex -1.60776 -12.2501 1.5
      vertex -1.60776 -12.2501 3
    endloop
  endfacet
  facet normal -0.728253 -0.685309 0
    outer loop
      vertex -1.54956 -12.312 1.5
      vertex -1.60776 -12.2501 3
      vertex -1.60776 -12.2501 1.5
    endloop
  endfacet
  facet normal -0.728253 -0.685309 0
    outer loop
      vertex -1.60776 -12.2501 3
      vertex -1.54956 -12.312 1.5
      vertex -1.54956 -12.312 3
    endloop
  endfacet
  facet normal -0.640202 -0.768207 0
    outer loop
      vertex -1.54956 -12.312 1.5
      vertex -1.48454 -12.3661 3
      vertex -1.54956 -12.312 3
    endloop
  endfacet
  facet normal -0.640202 -0.768207 -0
    outer loop
      vertex -1.48454 -12.3661 3
      vertex -1.54956 -12.312 1.5
      vertex -1.48454 -12.3661 1.5
    endloop
  endfacet
  facet normal -0.543573 -0.839362 0
    outer loop
      vertex -1.48454 -12.3661 1.5
      vertex -1.41357 -12.4121 3
      vertex -1.48454 -12.3661 3
    endloop
  endfacet
  facet normal -0.543573 -0.839362 -0
    outer loop
      vertex -1.41357 -12.4121 3
      vertex -1.48454 -12.3661 1.5
      vertex -1.41357 -12.4121 1.5
    endloop
  endfacet
  facet normal -0.439336 -0.898323 0
    outer loop
      vertex -1.41357 -12.4121 1.5
      vertex -1.33754 -12.4493 3
      vertex -1.41357 -12.4121 3
    endloop
  endfacet
  facet normal -0.439336 -0.898323 -0
    outer loop
      vertex -1.33754 -12.4493 3
      vertex -1.41357 -12.4121 1.5
      vertex -1.33754 -12.4493 1.5
    endloop
  endfacet
  facet normal -0.328221 -0.944601 0
    outer loop
      vertex -1.33754 -12.4493 1.5
      vertex -1.25731 -12.4772 3
      vertex -1.33754 -12.4493 3
    endloop
  endfacet
  facet normal -0.328221 -0.944601 -0
    outer loop
      vertex -1.25731 -12.4772 3
      vertex -1.33754 -12.4493 1.5
      vertex -1.25731 -12.4772 1.5
    endloop
  endfacet
  facet normal -0.210761 -0.977538 0
    outer loop
      vertex -1.25731 -12.4772 1.5
      vertex -1.1738 -12.4952 3
      vertex -1.25731 -12.4772 3
    endloop
  endfacet
  facet normal -0.210761 -0.977538 -0
    outer loop
      vertex -1.1738 -12.4952 3
      vertex -1.25731 -12.4772 1.5
      vertex -1.1738 -12.4952 1.5
    endloop
  endfacet
  facet normal -0.100468 -0.99494 0
    outer loop
      vertex -1.1738 -12.4952 1.5
      vertex -1.10519 -12.5021 3
      vertex -1.1738 -12.4952 3
    endloop
  endfacet
  facet normal -0.100468 -0.99494 -0
    outer loop
      vertex -1.10519 -12.5021 3
      vertex -1.1738 -12.4952 1.5
      vertex -1.10519 -12.5021 1.5
    endloop
  endfacet
endsolid OpenSCAD_Model
