solid OpenSCAD_Model
  facet normal -1 0 0
    outer loop
      vertex -16.5 16.5 -1
      vertex -16.5 7.15 13.3
      vertex -16.5 16.5 15
    endloop
  endfacet
  facet normal -1 0 0
    outer loop
      vertex -16.5 16.5 -1
      vertex -16.5 -7.15 13.3
      vertex -16.5 7.15 13.3
    endloop
  endfacet
  facet normal -1 0 0
    outer loop
      vertex -16.5 -16.5 -1
      vertex -16.5 -7.15 13.3
      vertex -16.5 16.5 -1
    endloop
  endfacet
  facet normal -1 0 0
    outer loop
      vertex -16.5 -16.5 15
      vertex -16.5 -7.15 13.3
      vertex -16.5 -16.5 -1
    endloop
  endfacet
  facet normal -1 0 0
    outer loop
      vertex -16.5 -7.15 13.3
      vertex -16.5 -16.5 15
      vertex -16.5 -7.15 15
    endloop
  endfacet
  facet normal -1 -0 0
    outer loop
      vertex -16.5 16.5 15
      vertex -16.5 7.15 13.3
      vertex -16.5 7.15 15
    endloop
  endfacet
  facet normal -1.74427e-22 1.22465e-16 1
    outer loop
      vertex 7.46568 11.7662 -1.44094e-15
      vertex 15.5 15.5 -1.8982e-15
      vertex 7.47238 11.9235 -1.4602e-15
    endloop
  endfacet
  facet normal 3.41253e-23 1.22465e-16 1
    outer loop
      vertex 15.5 15.5 -1.8982e-15
      vertex 7.46164 12.0456 -1.47516e-15
      vertex 7.47238 11.9235 -1.4602e-15
    endloop
  endfacet
  facet normal 6.24031e-23 1.22465e-16 1
    outer loop
      vertex 15.5 15.5 -1.8982e-15
      vertex 7.43636 12.1656 -1.48986e-15
      vertex 7.46164 12.0456 -1.47516e-15
    endloop
  endfacet
  facet normal -1.22964e-22 1.22465e-16 1
    outer loop
      vertex 15.5 15.5 -1.8982e-15
      vertex 7.39716 12.2786 -1.5037e-15
      vertex 7.43636 12.1656 -1.48986e-15
    endloop
  endfacet
  facet normal 4.24414e-23 1.22465e-16 1
    outer loop
      vertex 15.5 15.5 -1.8982e-15
      vertex 7.34296 12.3869 -1.51695e-15
      vertex 7.39716 12.2786 -1.5037e-15
    endloop
  endfacet
  facet normal 8.66535e-23 1.22464e-16 1
    outer loop
      vertex 15.5 15.5 -1.8982e-15
      vertex 7.27768 12.4823 -1.52864e-15
      vertex 7.34296 12.3869 -1.51695e-15
    endloop
  endfacet
  facet normal 1.1709e-22 1.22464e-16 1
    outer loop
      vertex 15.5 15.5 -1.8982e-15
      vertex 7.19832 12.5702 -1.53941e-15
      vertex 7.27768 12.4823 -1.52864e-15
    endloop
  endfacet
  facet normal -3.90885e-23 1.22465e-16 1
    outer loop
      vertex 15.5 15.5 -1.8982e-15
      vertex 7.10471 12.6484 -1.54899e-15
      vertex 7.19832 12.5702 -1.53941e-15
    endloop
  endfacet
  facet normal -1.79471e-23 1.22465e-16 1
    outer loop
      vertex 15.5 15.5 -1.8982e-15
      vertex 7.0036 12.7107 -1.55662e-15
      vertex 7.10471 12.6484 -1.54899e-15
    endloop
  endfacet
  facet normal 4.39494e-24 1.22465e-16 1
    outer loop
      vertex 15.5 15.5 -1.8982e-15
      vertex 6.8936 12.7589 -1.56251e-15
      vertex 7.0036 12.7107 -1.55662e-15
    endloop
  endfacet
  facet normal -1.31154e-22 1.22465e-16 1
    outer loop
      vertex 15.5 15.5 -1.8982e-15
      vertex 6.77599 12.792 -1.56656e-15
      vertex 6.8936 12.7589 -1.56251e-15
    endloop
  endfacet
  facet normal -1.51969e-22 1.22465e-16 1
    outer loop
      vertex 15.5 15.5 -1.8982e-15
      vertex 6.65205 12.8092 -1.56867e-15
      vertex 6.77599 12.792 -1.56656e-15
    endloop
  endfacet
  facet normal 5.16618e-24 1.22465e-16 1
    outer loop
      vertex 15.5 15.5 -1.8982e-15
      vertex 4.05153 12.8111 -1.56891e-15
      vertex 6.65205 12.8092 -1.56867e-15
    endloop
  endfacet
  facet normal 4.52302e-22 1.22463e-16 1
    outer loop
      vertex 15.5 15.5 -1.8982e-15
      vertex 3.92821 12.7999 -1.56753e-15
      vertex 4.05153 12.8111 -1.56891e-15
    endloop
  endfacet
  facet normal -6.2352e-24 1.22465e-16 1
    outer loop
      vertex -3.65152 12.8092 -1.56867e-15
      vertex 3.92821 12.7999 -1.56753e-15
      vertex 15.5 15.5 -1.8982e-15
    endloop
  endfacet
  facet normal 0 1.22465e-16 1
    outer loop
      vertex 2.99678 11.9088 -1.4584e-15
      vertex -2.17941 8.81499 -1.07952e-15
      vertex 2.51286 8.81499 -1.07952e-15
    endloop
  endfacet
  facet normal 1.50158e-24 1.22465e-16 1
    outer loop
      vertex -2.68094 12.0089 -1.47067e-15
      vertex 2.99678 11.9088 -1.4584e-15
      vertex 3.03108 12.0342 -1.47376e-15
    endloop
  endfacet
  facet normal -5.62371e-24 1.22464e-16 1
    outer loop
      vertex -2.72049 12.1288 -1.48535e-15
      vertex 3.03108 12.0342 -1.47376e-15
      vertex 3.07181 12.1394 -1.48665e-15
    endloop
  endfacet
  facet normal 3.07336e-24 1.22465e-16 1
    outer loop
      vertex -2.77542 12.2453 -1.49962e-15
      vertex 3.07181 12.1394 -1.48665e-15
      vertex 3.16222 12.3062 -1.50707e-15
    endloop
  endfacet
  facet normal 1.91865e-24 1.22464e-16 1
    outer loop
      vertex -2.84377 12.3538 -1.5129e-15
      vertex 3.16222 12.3062 -1.50707e-15
      vertex 3.25014 12.4237 -1.52146e-15
    endloop
  endfacet
  facet normal 1.74225e-24 1.22465e-16 1
    outer loop
      vertex -2.92178 12.4501 -1.5247e-15
      vertex 3.25014 12.4237 -1.52146e-15
      vertex 3.35464 12.5305 -1.53454e-15
    endloop
  endfacet
  facet normal 6.14424e-24 1.22465e-16 1
    outer loop
      vertex -3.0264 12.551 -1.53706e-15
      vertex 3.35464 12.5305 -1.53454e-15
      vertex 3.46552 12.6182 -1.54528e-15
    endloop
  endfacet
  facet normal 3.85147e-24 1.22465e-16 1
    outer loop
      vertex 2.99678 11.9088 -1.4584e-15
      vertex -2.65329 11.8573 -1.4521e-15
      vertex -2.17941 8.81499 -1.07952e-15
    endloop
  endfacet
  facet normal 1.79447e-24 1.22465e-16 1
    outer loop
      vertex -3.1459 12.6394 -1.54788e-15
      vertex 3.46552 12.6182 -1.54528e-15
      vertex 3.57091 12.6824 -1.55314e-15
    endloop
  endfacet
  facet normal 9.58867e-24 1.22464e-16 1
    outer loop
      vertex -3.27225 12.7092 -1.55642e-15
      vertex 3.57091 12.6824 -1.55314e-15
      vertex 3.68317 12.7345 -1.55952e-15
    endloop
  endfacet
  facet normal -3.1562e-24 1.22464e-16 1
    outer loop
      vertex -3.4095 12.763 -1.56301e-15
      vertex 3.68317 12.7345 -1.55952e-15
      vertex 3.80502 12.7745 -1.56443e-15
    endloop
  endfacet
  facet normal -4.73538e-24 1.22466e-16 1
    outer loop
      vertex -3.52748 12.7929 -1.56668e-15
      vertex 3.92821 12.7999 -1.56753e-15
      vertex -3.65152 12.8092 -1.56867e-15
    endloop
  endfacet
  facet normal 1.9018e-24 1.22465e-16 1
    outer loop
      vertex 2.99678 11.9088 -1.4584e-15
      vertex -2.66003 11.9095 -1.4585e-15
      vertex -2.65329 11.8573 -1.4521e-15
    endloop
  endfacet
  facet normal 1.95742e-24 1.22465e-16 1
    outer loop
      vertex 2.99678 11.9088 -1.4584e-15
      vertex -2.68094 12.0089 -1.47067e-15
      vertex -2.66003 11.9095 -1.4585e-15
    endloop
  endfacet
  facet normal 4.12205e-24 1.22465e-16 1
    outer loop
      vertex 3.03108 12.0342 -1.47376e-15
      vertex -2.72049 12.1288 -1.48535e-15
      vertex -2.68094 12.0089 -1.47067e-15
    endloop
  endfacet
  facet normal -6.34368e-24 1.22464e-16 1
    outer loop
      vertex 3.07181 12.1394 -1.48665e-15
      vertex -2.77542 12.2453 -1.49962e-15
      vertex -2.72049 12.1288 -1.48535e-15
    endloop
  endfacet
  facet normal 5.69471e-24 1.22465e-16 1
    outer loop
      vertex 3.16222 12.3062 -1.50707e-15
      vertex -2.84377 12.3538 -1.5129e-15
      vertex -2.77542 12.2453 -1.49962e-15
    endloop
  endfacet
  facet normal -1.39004e-25 1.22464e-16 1
    outer loop
      vertex 3.25014 12.4237 -1.52146e-15
      vertex -2.92178 12.4501 -1.5247e-15
      vertex -2.84377 12.3538 -1.5129e-15
    endloop
  endfacet
  facet normal 4.63431e-24 1.22465e-16 1
    outer loop
      vertex 3.35464 12.5305 -1.53454e-15
      vertex -3.0264 12.551 -1.53706e-15
      vertex -2.92178 12.4501 -1.5247e-15
    endloop
  endfacet
  facet normal 4.24398e-24 1.22465e-16 1
    outer loop
      vertex 3.46552 12.6182 -1.54528e-15
      vertex -3.1459 12.6394 -1.54788e-15
      vertex -3.0264 12.551 -1.53706e-15
    endloop
  endfacet
  facet normal 6.88856e-24 1.22464e-16 1
    outer loop
      vertex 3.57091 12.6824 -1.55314e-15
      vertex -3.27225 12.7092 -1.55642e-15
      vertex -3.1459 12.6394 -1.54788e-15
    endloop
  endfacet
  facet normal 4.71815e-24 1.22466e-16 1
    outer loop
      vertex 3.68317 12.7345 -1.55952e-15
      vertex -3.4095 12.763 -1.56301e-15
      vertex -3.27225 12.7092 -1.55642e-15
    endloop
  endfacet
  facet normal -4.04773e-24 1.22464e-16 1
    outer loop
      vertex 3.80502 12.7745 -1.56443e-15
      vertex -3.52748 12.7929 -1.56668e-15
      vertex -3.4095 12.763 -1.56301e-15
    endloop
  endfacet
  facet normal -3.49567e-24 1.22465e-16 1
    outer loop
      vertex 3.92821 12.7999 -1.56753e-15
      vertex -3.52748 12.7929 -1.56668e-15
      vertex 3.80502 12.7745 -1.56443e-15
    endloop
  endfacet
  facet normal -0 1.22465e-16 1
    outer loop
      vertex -15.5 15.5 -1.8982e-15
      vertex -3.65152 12.8092 -1.56867e-15
      vertex 15.5 15.5 -1.8982e-15
    endloop
  endfacet
  facet normal 5.2035e-24 1.22465e-16 1
    outer loop
      vertex -3.65152 12.8092 -1.56867e-15
      vertex -15.5 15.5 -1.8982e-15
      vertex -6.24802 12.8111 -1.56891e-15
    endloop
  endfacet
  facet normal -2.46819e-22 1.22464e-16 1
    outer loop
      vertex -7.10057 12.0754 -1.47881e-15
      vertex -15.5 15.5 -1.8982e-15
      vertex -7.11089 11.9641 -1.46518e-15
    endloop
  endfacet
  facet normal -7.61729e-23 1.22464e-16 1
    outer loop
      vertex -7.0715 12.2017 -1.49428e-15
      vertex -15.5 15.5 -1.8982e-15
      vertex -7.10057 12.0754 -1.47881e-15
    endloop
  endfacet
  facet normal 1.11623e-24 1.22465e-16 1
    outer loop
      vertex -7.02679 12.3165 -1.50833e-15
      vertex -15.5 15.5 -1.8982e-15
      vertex -7.0715 12.2017 -1.49428e-15
    endloop
  endfacet
  facet normal 1.68726e-22 1.22465e-16 1
    outer loop
      vertex -6.96466 12.425 -1.52163e-15
      vertex -15.5 15.5 -1.8982e-15
      vertex -7.02679 12.3165 -1.50833e-15
    endloop
  endfacet
  facet normal -1.68336e-24 1.22465e-16 1
    outer loop
      vertex -6.89046 12.5199 -1.53324e-15
      vertex -15.5 15.5 -1.8982e-15
      vertex -6.96466 12.425 -1.52163e-15
    endloop
  endfacet
  facet normal 6.10913e-23 1.22465e-16 1
    outer loop
      vertex -6.80077 12.6053 -1.54371e-15
      vertex -15.5 15.5 -1.8982e-15
      vertex -6.89046 12.5199 -1.53324e-15
    endloop
  endfacet
  facet normal -2.49823e-22 1.22464e-16 1
    outer loop
      vertex -6.70609 12.6736 -1.55207e-15
      vertex -15.5 15.5 -1.8982e-15
      vertex -6.80077 12.6053 -1.54371e-15
    endloop
  endfacet
  facet normal 2.96867e-22 1.22466e-16 1
    outer loop
      vertex -6.59892 12.7305 -1.55904e-15
      vertex -15.5 15.5 -1.8982e-15
      vertex -6.70609 12.6736 -1.55207e-15
    endloop
  endfacet
  facet normal -1.01002e-23 1.22465e-16 1
    outer loop
      vertex -6.48389 12.7728 -1.56422e-15
      vertex -15.5 15.5 -1.8982e-15
      vertex -6.59892 12.7305 -1.55904e-15
    endloop
  endfacet
  facet normal -2.7606e-22 1.22464e-16 1
    outer loop
      vertex -6.36633 12.7995 -1.56748e-15
      vertex -15.5 15.5 -1.8982e-15
      vertex -6.48389 12.7728 -1.56422e-15
    endloop
  endfacet
  facet normal 2.99652e-22 1.22466e-16 1
    outer loop
      vertex -6.24802 12.8111 -1.56891e-15
      vertex -15.5 15.5 -1.8982e-15
      vertex -6.36633 12.7995 -1.56748e-15
    endloop
  endfacet
  facet normal 4.4462e-25 1.22465e-16 1
    outer loop
      vertex 15.5 15.5 -1.8982e-15
      vertex 7.46568 11.7662 -1.44094e-15
      vertex 15.5 -15.5 1.8982e-15
    endloop
  endfacet
  facet normal 2.43512e-24 1.22465e-16 1
    outer loop
      vertex 3.55634 -12.6375 1.54765e-15
      vertex 15.5 -15.5 1.8982e-15
      vertex 7.46568 11.7662 -1.44094e-15
    endloop
  endfacet
  facet normal -1.01711e-22 1.22464e-16 1
    outer loop
      vertex 3.51686 -12.7621 1.56291e-15
      vertex 15.5 -15.5 1.8982e-15
      vertex 3.55634 -12.6375 1.54765e-15
    endloop
  endfacet
  facet normal 8.9092e-23 1.22465e-16 1
    outer loop
      vertex 3.46234 -12.8796 1.57729e-15
      vertex 15.5 -15.5 1.8982e-15
      vertex 3.51686 -12.7621 1.56291e-15
    endloop
  endfacet
  facet normal -1.53777e-23 1.22465e-16 1
    outer loop
      vertex 3.39397 -12.9887 1.59066e-15
      vertex 15.5 -15.5 1.8982e-15
      vertex 3.46234 -12.8796 1.57729e-15
    endloop
  endfacet
  facet normal -4.93578e-23 1.22464e-16 1
    outer loop
      vertex 3.31557 -13.0859 1.60256e-15
      vertex 15.5 -15.5 1.8982e-15
      vertex 3.39397 -12.9887 1.59066e-15
    endloop
  endfacet
  facet normal 1.23194e-22 1.22465e-16 1
    outer loop
      vertex 3.22638 -13.1735 1.61329e-15
      vertex 15.5 -15.5 1.8982e-15
      vertex 3.31557 -13.0859 1.60256e-15
    endloop
  endfacet
  facet normal -1.63695e-22 1.22464e-16 1
    outer loop
      vertex 3.12761 -13.2506 1.62274e-15
      vertex 15.5 -15.5 1.8982e-15
      vertex 3.22638 -13.1735 1.61329e-15
    endloop
  endfacet
  facet normal 3.8331e-23 1.22465e-16 1
    outer loop
      vertex 3.02049 -13.3165 1.6308e-15
      vertex 15.5 -15.5 1.8982e-15
      vertex 3.12761 -13.2506 1.62274e-15
    endloop
  endfacet
  facet normal 1.21695e-22 1.22465e-16 1
    outer loop
      vertex 2.90982 -13.3691 1.63724e-15
      vertex 15.5 -15.5 1.8982e-15
      vertex 3.02049 -13.3165 1.6308e-15
    endloop
  endfacet
  facet normal 2.17897e-23 1.22465e-16 1
    outer loop
      vertex 2.78992 -13.4107 1.64233e-15
      vertex 15.5 -15.5 1.8982e-15
      vertex 2.90982 -13.3691 1.63724e-15
    endloop
  endfacet
  facet normal -1.56478e-22 1.22464e-16 1
    outer loop
      vertex 2.66547 -13.4388 1.64578e-15
      vertex 15.5 -15.5 1.8982e-15
      vertex 2.78992 -13.4107 1.64233e-15
    endloop
  endfacet
  facet normal 2.54024e-22 1.22466e-16 1
    outer loop
      vertex 2.54529 -13.4528 1.64749e-15
      vertex 15.5 -15.5 1.8982e-15
      vertex 2.66547 -13.4388 1.64578e-15
    endloop
  endfacet
  facet normal -5.88289e-22 1.22461e-16 1
    outer loop
      vertex 2.47668 -13.455 1.64776e-15
      vertex 15.5 -15.5 1.8982e-15
      vertex 2.54529 -13.4528 1.64749e-15
    endloop
  endfacet
  facet normal -5.19726e-24 1.22465e-16 1
    outer loop
      vertex -2.21208 -13.4522 1.64742e-15
      vertex 15.5 -15.5 1.8982e-15
      vertex 2.47668 -13.455 1.64776e-15
    endloop
  endfacet
  facet normal 3.1003e-22 1.22465e-16 1
    outer loop
      vertex -15.5 15.5 -1.8982e-15
      vertex -7.10805 11.8606 -1.45251e-15
      vertex -7.11089 11.9641 -1.46518e-15
    endloop
  endfacet
  facet normal -2.16095e-24 1.22465e-16 1
    outer loop
      vertex -15.5 -15.5 1.8982e-15
      vertex -7.10805 11.8606 -1.45251e-15
      vertex -15.5 15.5 -1.8982e-15
    endloop
  endfacet
  facet normal -3.7072e-24 1.22465e-16 1
    outer loop
      vertex -7.10805 11.8606 -1.45251e-15
      vertex -15.5 -15.5 1.8982e-15
      vertex -3.24631 -12.5068 1.53164e-15
    endloop
  endfacet
  facet normal -5.19503e-24 1.22465e-16 1
    outer loop
      vertex -3.24631 -12.5068 1.53164e-15
      vertex -15.5 -15.5 1.8982e-15
      vertex -3.2188 -12.6229 1.54586e-15
    endloop
  endfacet
  facet normal 0 1.22465e-16 1
    outer loop
      vertex -2.21208 -13.4522 1.64742e-15
      vertex -15.5 -15.5 1.8982e-15
      vertex 15.5 -15.5 1.8982e-15
    endloop
  endfacet
  facet normal 3.70529e-22 1.22462e-16 1
    outer loop
      vertex -2.33614 -13.4359 1.64542e-15
      vertex -15.5 -15.5 1.8982e-15
      vertex -2.21208 -13.4522 1.64742e-15
    endloop
  endfacet
  facet normal -1.00082e-23 1.22465e-16 1
    outer loop
      vertex -2.47824 -13.3981 1.64079e-15
      vertex -15.5 -15.5 1.8982e-15
      vertex -2.33614 -13.4359 1.64542e-15
    endloop
  endfacet
  facet normal -1.1315e-22 1.22465e-16 1
    outer loop
      vertex -2.6116 -13.3429 1.63404e-15
      vertex -15.5 -15.5 1.8982e-15
      vertex -2.47824 -13.3981 1.64079e-15
    endloop
  endfacet
  facet normal -4.58429e-23 1.22465e-16 1
    outer loop
      vertex -2.73788 -13.2706 1.62519e-15
      vertex -15.5 -15.5 1.8982e-15
      vertex -2.6116 -13.3429 1.63404e-15
    endloop
  endfacet
  facet normal 7.67655e-23 1.22464e-16 1
    outer loop
      vertex -2.85503 -13.1825 1.6144e-15
      vertex -15.5 -15.5 1.8982e-15
      vertex -2.73788 -13.2706 1.62519e-15
    endloop
  endfacet
  facet normal -8.23116e-24 1.22465e-16 1
    outer loop
      vertex -2.96107 -13.0799 1.60183e-15
      vertex -15.5 -15.5 1.8982e-15
      vertex -2.85503 -13.1825 1.6144e-15
    endloop
  endfacet
  facet normal -3.77095e-23 1.22465e-16 1
    outer loop
      vertex -3.05211 -12.9673 1.58803e-15
      vertex -15.5 -15.5 1.8982e-15
      vertex -2.96107 -13.0799 1.60183e-15
    endloop
  endfacet
  facet normal 5.2502e-23 1.22464e-16 1
    outer loop
      vertex -3.11986 -12.8597 1.57486e-15
      vertex -15.5 -15.5 1.8982e-15
      vertex -3.05211 -12.9673 1.58803e-15
    endloop
  endfacet
  facet normal 3.50007e-23 1.22465e-16 1
    outer loop
      vertex -3.17577 -12.7446 1.56077e-15
      vertex -15.5 -15.5 1.8982e-15
      vertex -3.11986 -12.8597 1.57486e-15
    endloop
  endfacet
  facet normal -1.52755e-23 1.22465e-16 1
    outer loop
      vertex -3.2188 -12.6229 1.54586e-15
      vertex -15.5 -15.5 1.8982e-15
      vertex -3.17577 -12.7446 1.56077e-15
    endloop
  endfacet
  facet normal 1 0 0
    outer loop
      vertex 16.5 -7.15 15
      vertex 16.5 -16.5 15
      vertex 16.5 -7.15 13.3
    endloop
  endfacet
  facet normal 1 0 0
    outer loop
      vertex 16.5 7.15 13.3
      vertex 16.5 16.5 15
      vertex 16.5 7.15 15
    endloop
  endfacet
  facet normal 1 0 0
    outer loop
      vertex 16.5 16.5 15
      vertex 16.5 7.15 13.3
      vertex 16.5 16.5 -1
    endloop
  endfacet
  facet normal 1 -0 0
    outer loop
      vertex 16.5 -7.15 13.3
      vertex 16.5 16.5 -1
      vertex 16.5 7.15 13.3
    endloop
  endfacet
  facet normal 1 0 0
    outer loop
      vertex 16.5 -16.5 -1
      vertex 16.5 -7.15 13.3
      vertex 16.5 -16.5 15
    endloop
  endfacet
  facet normal 1 0 0
    outer loop
      vertex 16.5 -7.15 13.3
      vertex 16.5 -16.5 -1
      vertex 16.5 16.5 -1
    endloop
  endfacet
  facet normal 0 -1 0
    outer loop
      vertex -16.5 -16.5 15
      vertex -7.15 -16.5 13.3
      vertex -7.15 -16.5 15
    endloop
  endfacet
  facet normal 0 -1 -0
    outer loop
      vertex -7.15 -16.5 13.3
      vertex -16.5 -16.5 -1
      vertex 7.15 -16.5 13.3
    endloop
  endfacet
  facet normal 0 -1 0
    outer loop
      vertex -16.5 -16.5 -1
      vertex -7.15 -16.5 13.3
      vertex -16.5 -16.5 15
    endloop
  endfacet
  facet normal 0 -1 0
    outer loop
      vertex 7.15 -16.5 13.3
      vertex 16.5 -16.5 15
      vertex 7.15 -16.5 15
    endloop
  endfacet
  facet normal 0 -1 0
    outer loop
      vertex 16.5 -16.5 -1
      vertex 7.15 -16.5 13.3
      vertex -16.5 -16.5 -1
    endloop
  endfacet
  facet normal 0 -1 0
    outer loop
      vertex 7.15 -16.5 13.3
      vertex 16.5 -16.5 -1
      vertex 16.5 -16.5 15
    endloop
  endfacet
  facet normal 0 0 1
    outer loop
      vertex -15.5 -7.15 15
      vertex -16.5 -7.15 15
      vertex -15.5 -15.5 15
    endloop
  endfacet
  facet normal -0 0 1
    outer loop
      vertex -15.5 -15.5 15
      vertex -7.15 -16.5 15
      vertex -7.15 -15.5 15
    endloop
  endfacet
  facet normal 0 0 1
    outer loop
      vertex -15.5 -15.5 15
      vertex -16.5 -16.5 15
      vertex -7.15 -16.5 15
    endloop
  endfacet
  facet normal 0 0 1
    outer loop
      vertex -16.5 -16.5 15
      vertex -15.5 -15.5 15
      vertex -16.5 -7.15 15
    endloop
  endfacet
  facet normal 0 0 1
    outer loop
      vertex -7.15 16.5 15
      vertex -15.5 15.5 15
      vertex -7.15 15.5 15
    endloop
  endfacet
  facet normal -0 0 1
    outer loop
      vertex -16.5 16.5 15
      vertex -15.5 15.5 15
      vertex -7.15 16.5 15
    endloop
  endfacet
  facet normal 0 0 1
    outer loop
      vertex -16.5 7.15 15
      vertex -15.5 15.5 15
      vertex -16.5 16.5 15
    endloop
  endfacet
  facet normal 0 0 1
    outer loop
      vertex -15.5 15.5 15
      vertex -16.5 7.15 15
      vertex -15.5 7.15 15
    endloop
  endfacet
  facet normal 0 0 1
    outer loop
      vertex 16.5 16.5 15
      vertex 15.5 15.5 15
      vertex 16.5 7.15 15
    endloop
  endfacet
  facet normal -0 0 1
    outer loop
      vertex 7.15 16.5 15
      vertex 15.5 15.5 15
      vertex 16.5 16.5 15
    endloop
  endfacet
  facet normal 0 0 1
    outer loop
      vertex 15.5 15.5 15
      vertex 7.15 16.5 15
      vertex 7.15 15.5 15
    endloop
  endfacet
  facet normal 0 0 1
    outer loop
      vertex 16.5 7.15 15
      vertex 15.5 15.5 15
      vertex 15.5 7.15 15
    endloop
  endfacet
  facet normal 0 0 1
    outer loop
      vertex 15.5 -15.5 15
      vertex 16.5 -7.15 15
      vertex 15.5 -7.15 15
    endloop
  endfacet
  facet normal 0 0 1
    outer loop
      vertex 16.5 -7.15 15
      vertex 15.5 -15.5 15
      vertex 16.5 -16.5 15
    endloop
  endfacet
  facet normal 0 0 1
    outer loop
      vertex 7.15 -16.5 15
      vertex 15.5 -15.5 15
      vertex 7.15 -15.5 15
    endloop
  endfacet
  facet normal 0 0 1
    outer loop
      vertex 15.5 -15.5 15
      vertex 7.15 -16.5 15
      vertex 16.5 -16.5 15
    endloop
  endfacet
  facet normal 0 1 0
    outer loop
      vertex 16.5 16.5 15
      vertex 7.15 16.5 13.3
      vertex 7.15 16.5 15
    endloop
  endfacet
  facet normal 0 1 0
    outer loop
      vertex 7.15 16.5 13.3
      vertex 16.5 16.5 -1
      vertex -7.15 16.5 13.3
    endloop
  endfacet
  facet normal 0 1 -0
    outer loop
      vertex 16.5 16.5 -1
      vertex 7.15 16.5 13.3
      vertex 16.5 16.5 15
    endloop
  endfacet
  facet normal 0 1 -0
    outer loop
      vertex -7.15 16.5 13.3
      vertex -16.5 16.5 15
      vertex -7.15 16.5 15
    endloop
  endfacet
  facet normal 0 1 0
    outer loop
      vertex -16.5 16.5 -1
      vertex -7.15 16.5 13.3
      vertex 16.5 16.5 -1
    endloop
  endfacet
  facet normal 0 1 0
    outer loop
      vertex -7.15 16.5 13.3
      vertex -16.5 16.5 -1
      vertex -16.5 16.5 15
    endloop
  endfacet
  facet normal 1 0 0
    outer loop
      vertex -15.5 -7.15 15
      vertex -15.5 -15.5 15
      vertex -15.5 -7.15 13.3
    endloop
  endfacet
  facet normal 1 0 0
    outer loop
      vertex -15.5 7.15 13.3
      vertex -15.5 15.5 15
      vertex -15.5 7.15 15
    endloop
  endfacet
  facet normal 1 0 0
    outer loop
      vertex -15.5 15.5 15
      vertex -15.5 7.15 13.3
      vertex -15.5 15.5 -1.8982e-15
    endloop
  endfacet
  facet normal 1 -0 0
    outer loop
      vertex -15.5 -7.15 13.3
      vertex -15.5 15.5 -1.8982e-15
      vertex -15.5 7.15 13.3
    endloop
  endfacet
  facet normal 1 0 0
    outer loop
      vertex -15.5 -15.5 1.8982e-15
      vertex -15.5 -7.15 13.3
      vertex -15.5 -15.5 15
    endloop
  endfacet
  facet normal 1 0 0
    outer loop
      vertex -15.5 -7.15 13.3
      vertex -15.5 -15.5 1.8982e-15
      vertex -15.5 15.5 -1.8982e-15
    endloop
  endfacet
  facet normal -1 0 0
    outer loop
      vertex 15.5 15.5 -1.8982e-15
      vertex 15.5 7.15 13.3
      vertex 15.5 15.5 15
    endloop
  endfacet
  facet normal -1 0 0
    outer loop
      vertex 15.5 15.5 -1.8982e-15
      vertex 15.5 -7.15 13.3
      vertex 15.5 7.15 13.3
    endloop
  endfacet
  facet normal -1 0 0
    outer loop
      vertex 15.5 -15.5 1.8982e-15
      vertex 15.5 -7.15 13.3
      vertex 15.5 15.5 -1.8982e-15
    endloop
  endfacet
  facet normal -1 0 0
    outer loop
      vertex 15.5 -15.5 15
      vertex 15.5 -7.15 13.3
      vertex 15.5 -15.5 1.8982e-15
    endloop
  endfacet
  facet normal -1 0 0
    outer loop
      vertex 15.5 -7.15 13.3
      vertex 15.5 -15.5 15
      vertex 15.5 -7.15 15
    endloop
  endfacet
  facet normal -1 -0 0
    outer loop
      vertex 15.5 15.5 15
      vertex 15.5 7.15 13.3
      vertex 15.5 7.15 15
    endloop
  endfacet
  facet normal 0 1 0
    outer loop
      vertex 15.5 -15.5 15
      vertex 7.15 -15.5 13.3
      vertex 7.15 -15.5 15
    endloop
  endfacet
  facet normal 0 1 0
    outer loop
      vertex 7.15 -15.5 13.3
      vertex 15.5 -15.5 1.8982e-15
      vertex -7.15 -15.5 13.3
    endloop
  endfacet
  facet normal 0 1 -0
    outer loop
      vertex 15.5 -15.5 1.8982e-15
      vertex 7.15 -15.5 13.3
      vertex 15.5 -15.5 15
    endloop
  endfacet
  facet normal 0 1 -0
    outer loop
      vertex -7.15 -15.5 13.3
      vertex -15.5 -15.5 15
      vertex -7.15 -15.5 15
    endloop
  endfacet
  facet normal 0 1 0
    outer loop
      vertex -15.5 -15.5 1.8982e-15
      vertex -7.15 -15.5 13.3
      vertex 15.5 -15.5 1.8982e-15
    endloop
  endfacet
  facet normal 0 1 0
    outer loop
      vertex -7.15 -15.5 13.3
      vertex -15.5 -15.5 1.8982e-15
      vertex -15.5 -15.5 15
    endloop
  endfacet
  facet normal 0 -1 0
    outer loop
      vertex -15.5 15.5 15
      vertex -7.15 15.5 13.3
      vertex -7.15 15.5 15
    endloop
  endfacet
  facet normal 0 -1 -0
    outer loop
      vertex -7.15 15.5 13.3
      vertex -15.5 15.5 -1.8982e-15
      vertex 7.15 15.5 13.3
    endloop
  endfacet
  facet normal 0 -1 0
    outer loop
      vertex -15.5 15.5 -1.8982e-15
      vertex -7.15 15.5 13.3
      vertex -15.5 15.5 15
    endloop
  endfacet
  facet normal 0 -1 0
    outer loop
      vertex 7.15 15.5 13.3
      vertex 15.5 15.5 15
      vertex 7.15 15.5 15
    endloop
  endfacet
  facet normal 0 -1 0
    outer loop
      vertex 15.5 15.5 -1.8982e-15
      vertex 7.15 15.5 13.3
      vertex -15.5 15.5 -1.8982e-15
    endloop
  endfacet
  facet normal 0 -1 0
    outer loop
      vertex 7.15 15.5 13.3
      vertex 15.5 15.5 -1.8982e-15
      vertex 15.5 15.5 15
    endloop
  endfacet
  facet normal 0 1.22465e-16 1
    outer loop
      vertex 0.166687 -5.76993 7.06612e-16
      vertex 1.79445 4.328 -5.30027e-16
      vertex -1.46107 4.328 -5.30027e-16
    endloop
  endfacet
  facet normal 0 0 -1
    outer loop
      vertex 7.46568 11.7662 -1
      vertex 16.5 16.5 -1
      vertex 16.5 -16.5 -1
    endloop
  endfacet
  facet normal 0 0 -1
    outer loop
      vertex 16.5 16.5 -1
      vertex 7.46568 11.7662 -1
      vertex 7.47238 11.9235 -1
    endloop
  endfacet
  facet normal 0 0 -1
    outer loop
      vertex 16.5 -16.5 -1
      vertex 3.55634 -12.6375 -1
      vertex 7.46568 11.7662 -1
    endloop
  endfacet
  facet normal 0 0 -1
    outer loop
      vertex 16.5 -16.5 -1
      vertex 3.51686 -12.7621 -1
      vertex 3.55634 -12.6375 -1
    endloop
  endfacet
  facet normal 0 0 -1
    outer loop
      vertex 16.5 -16.5 -1
      vertex 3.46234 -12.8796 -1
      vertex 3.51686 -12.7621 -1
    endloop
  endfacet
  facet normal 0 0 -1
    outer loop
      vertex 16.5 -16.5 -1
      vertex 3.39397 -12.9887 -1
      vertex 3.46234 -12.8796 -1
    endloop
  endfacet
  facet normal 0 0 -1
    outer loop
      vertex 16.5 -16.5 -1
      vertex 3.31557 -13.0859 -1
      vertex 3.39397 -12.9887 -1
    endloop
  endfacet
  facet normal 0 0 -1
    outer loop
      vertex 16.5 -16.5 -1
      vertex 3.22638 -13.1735 -1
      vertex 3.31557 -13.0859 -1
    endloop
  endfacet
  facet normal 0 0 -1
    outer loop
      vertex 16.5 -16.5 -1
      vertex 3.12761 -13.2506 -1
      vertex 3.22638 -13.1735 -1
    endloop
  endfacet
  facet normal 0 0 -1
    outer loop
      vertex 16.5 -16.5 -1
      vertex 3.02049 -13.3165 -1
      vertex 3.12761 -13.2506 -1
    endloop
  endfacet
  facet normal 0 0 -1
    outer loop
      vertex 16.5 -16.5 -1
      vertex 2.90982 -13.3691 -1
      vertex 3.02049 -13.3165 -1
    endloop
  endfacet
  facet normal 0 0 -1
    outer loop
      vertex 16.5 -16.5 -1
      vertex 2.78992 -13.4107 -1
      vertex 2.90982 -13.3691 -1
    endloop
  endfacet
  facet normal 0 0 -1
    outer loop
      vertex 16.5 -16.5 -1
      vertex 2.66547 -13.4388 -1
      vertex 2.78992 -13.4107 -1
    endloop
  endfacet
  facet normal 0 0 -1
    outer loop
      vertex 16.5 -16.5 -1
      vertex 2.54529 -13.4528 -1
      vertex 2.66547 -13.4388 -1
    endloop
  endfacet
  facet normal 0 0 -1
    outer loop
      vertex 16.5 -16.5 -1
      vertex 2.47668 -13.455 -1
      vertex 2.54529 -13.4528 -1
    endloop
  endfacet
  facet normal 0 0 -1
    outer loop
      vertex 16.5 -16.5 -1
      vertex -2.21208 -13.4522 -1
      vertex 2.47668 -13.455 -1
    endloop
  endfacet
  facet normal 0 0 -1
    outer loop
      vertex -16.5 -16.5 -1
      vertex -2.21208 -13.4522 -1
      vertex 16.5 -16.5 -1
    endloop
  endfacet
  facet normal 0 0 -1
    outer loop
      vertex -16.5 16.5 -1
      vertex -7.10805 11.8606 -1
      vertex -16.5 -16.5 -1
    endloop
  endfacet
  facet normal -0 0 -1
    outer loop
      vertex -3.24631 -12.5068 -1
      vertex -16.5 -16.5 -1
      vertex -7.10805 11.8606 -1
    endloop
  endfacet
  facet normal -0 0 -1
    outer loop
      vertex -3.2188 -12.6229 -1
      vertex -16.5 -16.5 -1
      vertex -3.24631 -12.5068 -1
    endloop
  endfacet
  facet normal -0 0 -1
    outer loop
      vertex -3.17577 -12.7446 -1
      vertex -16.5 -16.5 -1
      vertex -3.2188 -12.6229 -1
    endloop
  endfacet
  facet normal -0 0 -1
    outer loop
      vertex -3.11986 -12.8597 -1
      vertex -16.5 -16.5 -1
      vertex -3.17577 -12.7446 -1
    endloop
  endfacet
  facet normal -0 0 -1
    outer loop
      vertex -3.05211 -12.9673 -1
      vertex -16.5 -16.5 -1
      vertex -3.11986 -12.8597 -1
    endloop
  endfacet
  facet normal -0 0 -1
    outer loop
      vertex -2.96107 -13.0799 -1
      vertex -16.5 -16.5 -1
      vertex -3.05211 -12.9673 -1
    endloop
  endfacet
  facet normal -0 0 -1
    outer loop
      vertex -2.85503 -13.1825 -1
      vertex -16.5 -16.5 -1
      vertex -2.96107 -13.0799 -1
    endloop
  endfacet
  facet normal -0 0 -1
    outer loop
      vertex -2.73788 -13.2706 -1
      vertex -16.5 -16.5 -1
      vertex -2.85503 -13.1825 -1
    endloop
  endfacet
  facet normal -0 0 -1
    outer loop
      vertex -2.6116 -13.3429 -1
      vertex -16.5 -16.5 -1
      vertex -2.73788 -13.2706 -1
    endloop
  endfacet
  facet normal -0 0 -1
    outer loop
      vertex -2.47824 -13.3981 -1
      vertex -16.5 -16.5 -1
      vertex -2.6116 -13.3429 -1
    endloop
  endfacet
  facet normal -0 0 -1
    outer loop
      vertex -2.33614 -13.4359 -1
      vertex -16.5 -16.5 -1
      vertex -2.47824 -13.3981 -1
    endloop
  endfacet
  facet normal -0 0 -1
    outer loop
      vertex -2.21208 -13.4522 -1
      vertex -16.5 -16.5 -1
      vertex -2.33614 -13.4359 -1
    endloop
  endfacet
  facet normal 0 0 -1
    outer loop
      vertex 7.46164 12.0456 -1
      vertex 16.5 16.5 -1
      vertex 7.47238 11.9235 -1
    endloop
  endfacet
  facet normal 0 0 -1
    outer loop
      vertex 7.43636 12.1656 -1
      vertex 16.5 16.5 -1
      vertex 7.46164 12.0456 -1
    endloop
  endfacet
  facet normal 0 0 -1
    outer loop
      vertex 7.39716 12.2786 -1
      vertex 16.5 16.5 -1
      vertex 7.43636 12.1656 -1
    endloop
  endfacet
  facet normal 0 0 -1
    outer loop
      vertex 7.34296 12.3869 -1
      vertex 16.5 16.5 -1
      vertex 7.39716 12.2786 -1
    endloop
  endfacet
  facet normal 0 0 -1
    outer loop
      vertex 7.27768 12.4823 -1
      vertex 16.5 16.5 -1
      vertex 7.34296 12.3869 -1
    endloop
  endfacet
  facet normal 0 0 -1
    outer loop
      vertex 7.19832 12.5702 -1
      vertex 16.5 16.5 -1
      vertex 7.27768 12.4823 -1
    endloop
  endfacet
  facet normal 0 0 -1
    outer loop
      vertex 7.10471 12.6484 -1
      vertex 16.5 16.5 -1
      vertex 7.19832 12.5702 -1
    endloop
  endfacet
  facet normal 0 0 -1
    outer loop
      vertex 7.0036 12.7107 -1
      vertex 16.5 16.5 -1
      vertex 7.10471 12.6484 -1
    endloop
  endfacet
  facet normal 0 0 -1
    outer loop
      vertex 6.8936 12.7589 -1
      vertex 16.5 16.5 -1
      vertex 7.0036 12.7107 -1
    endloop
  endfacet
  facet normal 0 0 -1
    outer loop
      vertex 6.77599 12.792 -1
      vertex 16.5 16.5 -1
      vertex 6.8936 12.7589 -1
    endloop
  endfacet
  facet normal 0 0 -1
    outer loop
      vertex 6.65205 12.8092 -1
      vertex 16.5 16.5 -1
      vertex 6.77599 12.792 -1
    endloop
  endfacet
  facet normal 0 0 -1
    outer loop
      vertex 4.05153 12.8111 -1
      vertex 16.5 16.5 -1
      vertex 6.65205 12.8092 -1
    endloop
  endfacet
  facet normal 0 0 -1
    outer loop
      vertex 3.92821 12.7999 -1
      vertex 16.5 16.5 -1
      vertex 4.05153 12.8111 -1
    endloop
  endfacet
  facet normal 0 0 -1
    outer loop
      vertex -3.52748 12.7929 -1
      vertex 3.92821 12.7999 -1
      vertex 3.80502 12.7745 -1
    endloop
  endfacet
  facet normal 0 0 -1
    outer loop
      vertex -2.17941 8.81499 -1
      vertex 2.99678 11.9088 -1
      vertex 2.51286 8.81499 -1
    endloop
  endfacet
  facet normal 0 0 -1
    outer loop
      vertex -2.65329 11.8573 -1
      vertex 2.99678 11.9088 -1
      vertex -2.17941 8.81499 -1
    endloop
  endfacet
  facet normal 0 0 -1
    outer loop
      vertex -2.66003 11.9095 -1
      vertex 2.99678 11.9088 -1
      vertex -2.65329 11.8573 -1
    endloop
  endfacet
  facet normal 0 0 -1
    outer loop
      vertex -2.68094 12.0089 -1
      vertex 2.99678 11.9088 -1
      vertex -2.66003 11.9095 -1
    endloop
  endfacet
  facet normal 0 0 -1
    outer loop
      vertex 2.99678 11.9088 -1
      vertex -2.68094 12.0089 -1
      vertex 3.03108 12.0342 -1
    endloop
  endfacet
  facet normal 0 0 -1
    outer loop
      vertex -2.72049 12.1288 -1
      vertex 3.03108 12.0342 -1
      vertex -2.68094 12.0089 -1
    endloop
  endfacet
  facet normal 0 0 -1
    outer loop
      vertex 3.03108 12.0342 -1
      vertex -2.72049 12.1288 -1
      vertex 3.07181 12.1394 -1
    endloop
  endfacet
  facet normal 0 0 -1
    outer loop
      vertex -2.77542 12.2453 -1
      vertex 3.07181 12.1394 -1
      vertex -2.72049 12.1288 -1
    endloop
  endfacet
  facet normal 0 0 -1
    outer loop
      vertex 3.07181 12.1394 -1
      vertex -2.77542 12.2453 -1
      vertex 3.16222 12.3062 -1
    endloop
  endfacet
  facet normal 0 0 -1
    outer loop
      vertex -2.84377 12.3538 -1
      vertex 3.16222 12.3062 -1
      vertex -2.77542 12.2453 -1
    endloop
  endfacet
  facet normal 0 0 -1
    outer loop
      vertex 3.16222 12.3062 -1
      vertex -2.84377 12.3538 -1
      vertex 3.25014 12.4237 -1
    endloop
  endfacet
  facet normal 0 0 -1
    outer loop
      vertex -2.92178 12.4501 -1
      vertex 3.25014 12.4237 -1
      vertex -2.84377 12.3538 -1
    endloop
  endfacet
  facet normal 0 0 -1
    outer loop
      vertex 3.25014 12.4237 -1
      vertex -2.92178 12.4501 -1
      vertex 3.35464 12.5305 -1
    endloop
  endfacet
  facet normal 0 0 -1
    outer loop
      vertex -3.0264 12.551 -1
      vertex 3.35464 12.5305 -1
      vertex -2.92178 12.4501 -1
    endloop
  endfacet
  facet normal 0 0 -1
    outer loop
      vertex 3.35464 12.5305 -1
      vertex -3.0264 12.551 -1
      vertex 3.46552 12.6182 -1
    endloop
  endfacet
  facet normal 0 0 -1
    outer loop
      vertex -3.1459 12.6394 -1
      vertex 3.46552 12.6182 -1
      vertex -3.0264 12.551 -1
    endloop
  endfacet
  facet normal 0 0 -1
    outer loop
      vertex 3.46552 12.6182 -1
      vertex -3.1459 12.6394 -1
      vertex 3.57091 12.6824 -1
    endloop
  endfacet
  facet normal 0 0 -1
    outer loop
      vertex -3.27225 12.7092 -1
      vertex 3.57091 12.6824 -1
      vertex -3.1459 12.6394 -1
    endloop
  endfacet
  facet normal 0 0 -1
    outer loop
      vertex 3.57091 12.6824 -1
      vertex -3.27225 12.7092 -1
      vertex 3.68317 12.7345 -1
    endloop
  endfacet
  facet normal 0 0 -1
    outer loop
      vertex -3.4095 12.763 -1
      vertex 3.68317 12.7345 -1
      vertex -3.27225 12.7092 -1
    endloop
  endfacet
  facet normal 0 0 -1
    outer loop
      vertex 3.68317 12.7345 -1
      vertex -3.4095 12.763 -1
      vertex 3.80502 12.7745 -1
    endloop
  endfacet
  facet normal 0 0 -1
    outer loop
      vertex -3.52748 12.7929 -1
      vertex 3.80502 12.7745 -1
      vertex -3.4095 12.763 -1
    endloop
  endfacet
  facet normal -0 0 -1
    outer loop
      vertex 3.92821 12.7999 -1
      vertex -3.52748 12.7929 -1
      vertex -3.65152 12.8092 -1
    endloop
  endfacet
  facet normal 0 0 -1
    outer loop
      vertex 3.92821 12.7999 -1
      vertex -3.65152 12.8092 -1
      vertex 16.5 16.5 -1
    endloop
  endfacet
  facet normal 0 0 -1
    outer loop
      vertex -16.5 16.5 -1
      vertex -3.65152 12.8092 -1
      vertex -6.24802 12.8111 -1
    endloop
  endfacet
  facet normal 0 0 -1
    outer loop
      vertex -16.5 16.5 -1
      vertex -6.24802 12.8111 -1
      vertex -6.36633 12.7995 -1
    endloop
  endfacet
  facet normal 0 0 -1
    outer loop
      vertex -7.10805 11.8606 -1
      vertex -16.5 16.5 -1
      vertex -7.11089 11.9641 -1
    endloop
  endfacet
  facet normal 0 0 -1
    outer loop
      vertex -7.11089 11.9641 -1
      vertex -16.5 16.5 -1
      vertex -7.10057 12.0754 -1
    endloop
  endfacet
  facet normal 0 0 -1
    outer loop
      vertex -3.65152 12.8092 -1
      vertex -16.5 16.5 -1
      vertex 16.5 16.5 -1
    endloop
  endfacet
  facet normal 0 0 -1
    outer loop
      vertex -6.48389 12.7728 -1
      vertex -16.5 16.5 -1
      vertex -6.36633 12.7995 -1
    endloop
  endfacet
  facet normal 0 0 -1
    outer loop
      vertex -6.59892 12.7305 -1
      vertex -16.5 16.5 -1
      vertex -6.48389 12.7728 -1
    endloop
  endfacet
  facet normal 0 0 -1
    outer loop
      vertex -6.70609 12.6736 -1
      vertex -16.5 16.5 -1
      vertex -6.59892 12.7305 -1
    endloop
  endfacet
  facet normal 0 0 -1
    outer loop
      vertex -6.80077 12.6053 -1
      vertex -16.5 16.5 -1
      vertex -6.70609 12.6736 -1
    endloop
  endfacet
  facet normal 0 0 -1
    outer loop
      vertex -6.89046 12.5199 -1
      vertex -16.5 16.5 -1
      vertex -6.80077 12.6053 -1
    endloop
  endfacet
  facet normal 0 0 -1
    outer loop
      vertex -6.96466 12.425 -1
      vertex -16.5 16.5 -1
      vertex -6.89046 12.5199 -1
    endloop
  endfacet
  facet normal 0 0 -1
    outer loop
      vertex -7.02679 12.3165 -1
      vertex -16.5 16.5 -1
      vertex -6.96466 12.425 -1
    endloop
  endfacet
  facet normal 0 0 -1
    outer loop
      vertex -7.0715 12.2017 -1
      vertex -16.5 16.5 -1
      vertex -7.02679 12.3165 -1
    endloop
  endfacet
  facet normal 0 0 -1
    outer loop
      vertex -7.10057 12.0754 -1
      vertex -16.5 16.5 -1
      vertex -7.0715 12.2017 -1
    endloop
  endfacet
  facet normal -0 0 -1
    outer loop
      vertex 1.79445 4.328 -1
      vertex 0.166687 -5.76993 -1
      vertex -1.46107 4.328 -1
    endloop
  endfacet
  facet normal 0.201526 -0.979483 0
    outer loop
      vertex 3.80502 12.7745 -1
      vertex 3.92821 12.7999 -1.56753e-15
      vertex 3.80502 12.7745 -1.56443e-15
    endloop
  endfacet
  facet normal 0.201526 -0.979483 0
    outer loop
      vertex 3.92821 12.7999 -1.56753e-15
      vertex 3.80502 12.7745 -1
      vertex 3.92821 12.7999 -1
    endloop
  endfacet
  facet normal 0.312371 -0.94996 0
    outer loop
      vertex 3.68317 12.7345 -1
      vertex 3.80502 12.7745 -1.56443e-15
      vertex 3.68317 12.7345 -1.55952e-15
    endloop
  endfacet
  facet normal 0.312371 -0.94996 0
    outer loop
      vertex 3.80502 12.7745 -1.56443e-15
      vertex 3.68317 12.7345 -1
      vertex 3.80502 12.7745 -1
    endloop
  endfacet
  facet normal 0.420832 -0.907138 0
    outer loop
      vertex 3.57091 12.6824 -1
      vertex 3.68317 12.7345 -1.55952e-15
      vertex 3.57091 12.6824 -1.55314e-15
    endloop
  endfacet
  facet normal 0.420832 -0.907138 0
    outer loop
      vertex 3.68317 12.7345 -1.55952e-15
      vertex 3.57091 12.6824 -1
      vertex 3.68317 12.7345 -1
    endloop
  endfacet
  facet normal 0.520284 -0.853993 0
    outer loop
      vertex 3.46552 12.6182 -1
      vertex 3.57091 12.6824 -1.55314e-15
      vertex 3.46552 12.6182 -1.54528e-15
    endloop
  endfacet
  facet normal 0.520284 -0.853993 0
    outer loop
      vertex 3.57091 12.6824 -1.55314e-15
      vertex 3.46552 12.6182 -1
      vertex 3.57091 12.6824 -1
    endloop
  endfacet
  facet normal 0.620222 -0.784427 0
    outer loop
      vertex 3.35464 12.5305 -1
      vertex 3.46552 12.6182 -1.54528e-15
      vertex 3.35464 12.5305 -1.53454e-15
    endloop
  endfacet
  facet normal 0.620222 -0.784427 0
    outer loop
      vertex 3.46552 12.6182 -1.54528e-15
      vertex 3.35464 12.5305 -1
      vertex 3.46552 12.6182 -1
    endloop
  endfacet
  facet normal 0.714824 -0.699304 0
    outer loop
      vertex 3.25014 12.4237 -1.52146e-15
      vertex 3.35464 12.5305 -1
      vertex 3.35464 12.5305 -1.53454e-15
    endloop
  endfacet
  facet normal 0.714824 -0.699304 0
    outer loop
      vertex 3.35464 12.5305 -1
      vertex 3.25014 12.4237 -1.52146e-15
      vertex 3.25014 12.4237 -1
    endloop
  endfacet
  facet normal 0.800648 -0.599135 0
    outer loop
      vertex 3.16222 12.3062 -1.50707e-15
      vertex 3.25014 12.4237 -1
      vertex 3.25014 12.4237 -1.52146e-15
    endloop
  endfacet
  facet normal 0.800648 -0.599135 0
    outer loop
      vertex 3.25014 12.4237 -1
      vertex 3.16222 12.3062 -1.50707e-15
      vertex 3.16222 12.3062 -1
    endloop
  endfacet
  facet normal 0.879101 -0.476636 0
    outer loop
      vertex 3.07181 12.1394 -1.48665e-15
      vertex 3.16222 12.3062 -1
      vertex 3.16222 12.3062 -1.50707e-15
    endloop
  endfacet
  facet normal 0.879101 -0.476636 0
    outer loop
      vertex 3.16222 12.3062 -1
      vertex 3.07181 12.1394 -1.48665e-15
      vertex 3.07181 12.1394 -1
    endloop
  endfacet
  facet normal 0.93264 -0.360808 0
    outer loop
      vertex 3.03108 12.0342 -1.47376e-15
      vertex 3.07181 12.1394 -1
      vertex 3.07181 12.1394 -1.48665e-15
    endloop
  endfacet
  facet normal 0.93264 -0.360808 0
    outer loop
      vertex 3.07181 12.1394 -1
      vertex 3.03108 12.0342 -1.47376e-15
      vertex 3.03108 12.0342 -1
    endloop
  endfacet
  facet normal 0.964571 -0.263822 0
    outer loop
      vertex 2.99678 11.9088 -1.4584e-15
      vertex 3.03108 12.0342 -1
      vertex 3.03108 12.0342 -1.47376e-15
    endloop
  endfacet
  facet normal 0.964571 -0.263822 0
    outer loop
      vertex 3.03108 12.0342 -1
      vertex 2.99678 11.9088 -1.4584e-15
      vertex 2.99678 11.9088 -1
    endloop
  endfacet
  facet normal 0.987987 -0.154538 0
    outer loop
      vertex 2.51286 8.81499 -1.07952e-15
      vertex 2.99678 11.9088 -1
      vertex 2.99678 11.9088 -1.4584e-15
    endloop
  endfacet
  facet normal 0.987987 -0.154538 0
    outer loop
      vertex 2.99678 11.9088 -1
      vertex 2.51286 8.81499 -1.07952e-15
      vertex 2.51286 8.81499 -1
    endloop
  endfacet
  facet normal 0 -1 0
    outer loop
      vertex -2.17941 8.81499 -1
      vertex 2.51286 8.81499 -1.07952e-15
      vertex -2.17941 8.81499 -1.07952e-15
    endloop
  endfacet
  facet normal 0 -1 -0
    outer loop
      vertex 2.51286 8.81499 -1.07952e-15
      vertex -2.17941 8.81499 -1
      vertex 2.51286 8.81499 -1
    endloop
  endfacet
  facet normal -0.988085 -0.153908 0
    outer loop
      vertex -2.17941 8.81499 -1
      vertex -2.65329 11.8573 -1.4521e-15
      vertex -2.65329 11.8573 -1
    endloop
  endfacet
  facet normal -0.988085 -0.153908 0
    outer loop
      vertex -2.65329 11.8573 -1.4521e-15
      vertex -2.17941 8.81499 -1
      vertex -2.17941 8.81499 -1.07952e-15
    endloop
  endfacet
  facet normal -0.991775 -0.12799 0
    outer loop
      vertex -2.65329 11.8573 -1
      vertex -2.66003 11.9095 -1.4585e-15
      vertex -2.66003 11.9095 -1
    endloop
  endfacet
  facet normal -0.991775 -0.12799 0
    outer loop
      vertex -2.66003 11.9095 -1.4585e-15
      vertex -2.65329 11.8573 -1
      vertex -2.65329 11.8573 -1.4521e-15
    endloop
  endfacet
  facet normal -0.978578 -0.205874 0
    outer loop
      vertex -2.66003 11.9095 -1
      vertex -2.68094 12.0089 -1.47067e-15
      vertex -2.68094 12.0089 -1
    endloop
  endfacet
  facet normal -0.978578 -0.205874 0
    outer loop
      vertex -2.68094 12.0089 -1.47067e-15
      vertex -2.66003 11.9095 -1
      vertex -2.66003 11.9095 -1.4585e-15
    endloop
  endfacet
  facet normal -0.94967 -0.313253 0
    outer loop
      vertex -2.68094 12.0089 -1
      vertex -2.72049 12.1288 -1.48535e-15
      vertex -2.72049 12.1288 -1
    endloop
  endfacet
  facet normal -0.94967 -0.313253 0
    outer loop
      vertex -2.72049 12.1288 -1.48535e-15
      vertex -2.68094 12.0089 -1
      vertex -2.68094 12.0089 -1.47067e-15
    endloop
  endfacet
  facet normal -0.904561 -0.426344 0
    outer loop
      vertex -2.72049 12.1288 -1
      vertex -2.77542 12.2453 -1.49962e-15
      vertex -2.77542 12.2453 -1
    endloop
  endfacet
  facet normal -0.904561 -0.426344 0
    outer loop
      vertex -2.77542 12.2453 -1.49962e-15
      vertex -2.72049 12.1288 -1
      vertex -2.72049 12.1288 -1.48535e-15
    endloop
  endfacet
  facet normal -0.845972 -0.533227 0
    outer loop
      vertex -2.77542 12.2453 -1
      vertex -2.84377 12.3538 -1.5129e-15
      vertex -2.84377 12.3538 -1
    endloop
  endfacet
  facet normal -0.845972 -0.533227 0
    outer loop
      vertex -2.84377 12.3538 -1.5129e-15
      vertex -2.77542 12.2453 -1
      vertex -2.77542 12.2453 -1.49962e-15
    endloop
  endfacet
  facet normal -0.777242 -0.629202 0
    outer loop
      vertex -2.84377 12.3538 -1
      vertex -2.92178 12.4501 -1.5247e-15
      vertex -2.92178 12.4501 -1
    endloop
  endfacet
  facet normal -0.777242 -0.629202 0
    outer loop
      vertex -2.92178 12.4501 -1.5247e-15
      vertex -2.84377 12.3538 -1
      vertex -2.84377 12.3538 -1.5129e-15
    endloop
  endfacet
  facet normal -0.694073 -0.719904 0
    outer loop
      vertex -3.0264 12.551 -1
      vertex -2.92178 12.4501 -1.5247e-15
      vertex -3.0264 12.551 -1.53706e-15
    endloop
  endfacet
  facet normal -0.694073 -0.719904 -0
    outer loop
      vertex -2.92178 12.4501 -1.5247e-15
      vertex -3.0264 12.551 -1
      vertex -2.92178 12.4501 -1
    endloop
  endfacet
  facet normal -0.594532 -0.804072 0
    outer loop
      vertex -3.1459 12.6394 -1
      vertex -3.0264 12.551 -1.53706e-15
      vertex -3.1459 12.6394 -1.54788e-15
    endloop
  endfacet
  facet normal -0.594532 -0.804072 -0
    outer loop
      vertex -3.0264 12.551 -1.53706e-15
      vertex -3.1459 12.6394 -1
      vertex -3.0264 12.551 -1
    endloop
  endfacet
  facet normal -0.483541 -0.875322 0
    outer loop
      vertex -3.27225 12.7092 -1
      vertex -3.1459 12.6394 -1.54788e-15
      vertex -3.27225 12.7092 -1.55642e-15
    endloop
  endfacet
  facet normal -0.483541 -0.875322 -0
    outer loop
      vertex -3.1459 12.6394 -1.54788e-15
      vertex -3.27225 12.7092 -1
      vertex -3.1459 12.6394 -1
    endloop
  endfacet
  facet normal -0.364957 -0.931024 0
    outer loop
      vertex -3.4095 12.763 -1
      vertex -3.27225 12.7092 -1.55642e-15
      vertex -3.4095 12.763 -1.56301e-15
    endloop
  endfacet
  facet normal -0.364957 -0.931024 -0
    outer loop
      vertex -3.27225 12.7092 -1.55642e-15
      vertex -3.4095 12.763 -1
      vertex -3.27225 12.7092 -1
    endloop
  endfacet
  facet normal -0.24572 -0.969341 0
    outer loop
      vertex -3.52748 12.7929 -1
      vertex -3.4095 12.763 -1.56301e-15
      vertex -3.52748 12.7929 -1.56668e-15
    endloop
  endfacet
  facet normal -0.24572 -0.969341 -0
    outer loop
      vertex -3.4095 12.763 -1.56301e-15
      vertex -3.52748 12.7929 -1
      vertex -3.4095 12.763 -1
    endloop
  endfacet
  facet normal -0.130382 -0.991464 0
    outer loop
      vertex -3.65152 12.8092 -1
      vertex -3.52748 12.7929 -1.56668e-15
      vertex -3.65152 12.8092 -1.56867e-15
    endloop
  endfacet
  facet normal -0.130382 -0.991464 -0
    outer loop
      vertex -3.52748 12.7929 -1.56668e-15
      vertex -3.65152 12.8092 -1
      vertex -3.52748 12.7929 -1
    endloop
  endfacet
  facet normal -0.000734585 -1 0
    outer loop
      vertex -6.24802 12.8111 -1
      vertex -3.65152 12.8092 -1.56867e-15
      vertex -6.24802 12.8111 -1.56891e-15
    endloop
  endfacet
  facet normal -0.000734585 -1 -0
    outer loop
      vertex -3.65152 12.8092 -1.56867e-15
      vertex -6.24802 12.8111 -1
      vertex -3.65152 12.8092 -1
    endloop
  endfacet
  facet normal 0.0978007 -0.995206 0
    outer loop
      vertex -6.36633 12.7995 -1
      vertex -6.24802 12.8111 -1.56891e-15
      vertex -6.36633 12.7995 -1.56748e-15
    endloop
  endfacet
  facet normal 0.0978007 -0.995206 0
    outer loop
      vertex -6.24802 12.8111 -1.56891e-15
      vertex -6.36633 12.7995 -1
      vertex -6.24802 12.8111 -1
    endloop
  endfacet
  facet normal 0.22091 -0.975294 0
    outer loop
      vertex -6.48389 12.7728 -1
      vertex -6.36633 12.7995 -1.56748e-15
      vertex -6.48389 12.7728 -1.56422e-15
    endloop
  endfacet
  facet normal 0.22091 -0.975294 0
    outer loop
      vertex -6.36633 12.7995 -1.56748e-15
      vertex -6.48389 12.7728 -1
      vertex -6.36633 12.7995 -1
    endloop
  endfacet
  facet normal 0.345428 -0.938445 0
    outer loop
      vertex -6.59892 12.7305 -1
      vertex -6.48389 12.7728 -1.56422e-15
      vertex -6.59892 12.7305 -1.55904e-15
    endloop
  endfacet
  facet normal 0.345428 -0.938445 0
    outer loop
      vertex -6.48389 12.7728 -1.56422e-15
      vertex -6.59892 12.7305 -1
      vertex -6.48389 12.7728 -1
    endloop
  endfacet
  facet normal 0.468962 -0.883218 0
    outer loop
      vertex -6.70609 12.6736 -1
      vertex -6.59892 12.7305 -1.55904e-15
      vertex -6.70609 12.6736 -1.55207e-15
    endloop
  endfacet
  facet normal 0.468962 -0.883218 0
    outer loop
      vertex -6.59892 12.7305 -1.55904e-15
      vertex -6.70609 12.6736 -1
      vertex -6.59892 12.7305 -1
    endloop
  endfacet
  facet normal 0.584856 -0.811137 0
    outer loop
      vertex -6.80077 12.6053 -1
      vertex -6.70609 12.6736 -1.55207e-15
      vertex -6.80077 12.6053 -1.54371e-15
    endloop
  endfacet
  facet normal 0.584856 -0.811137 0
    outer loop
      vertex -6.70609 12.6736 -1.55207e-15
      vertex -6.80077 12.6053 -1
      vertex -6.70609 12.6736 -1
    endloop
  endfacet
  facet normal 0.689907 -0.723898 0
    outer loop
      vertex -6.89046 12.5199 -1
      vertex -6.80077 12.6053 -1.54371e-15
      vertex -6.89046 12.5199 -1.53324e-15
    endloop
  endfacet
  facet normal 0.689907 -0.723898 0
    outer loop
      vertex -6.80077 12.6053 -1.54371e-15
      vertex -6.89046 12.5199 -1
      vertex -6.80077 12.6053 -1
    endloop
  endfacet
  facet normal 0.787513 -0.616298 0
    outer loop
      vertex -6.96466 12.425 -1.52163e-15
      vertex -6.89046 12.5199 -1
      vertex -6.89046 12.5199 -1.53324e-15
    endloop
  endfacet
  facet normal 0.787513 -0.616298 0
    outer loop
      vertex -6.89046 12.5199 -1
      vertex -6.96466 12.425 -1.52163e-15
      vertex -6.96466 12.425 -1
    endloop
  endfacet
  facet normal 0.867943 -0.496664 0
    outer loop
      vertex -7.02679 12.3165 -1.50833e-15
      vertex -6.96466 12.425 -1
      vertex -6.96466 12.425 -1.52163e-15
    endloop
  endfacet
  facet normal 0.867943 -0.496664 0
    outer loop
      vertex -6.96466 12.425 -1
      vertex -7.02679 12.3165 -1.50833e-15
      vertex -7.02679 12.3165 -1
    endloop
  endfacet
  facet normal 0.931756 -0.363086 0
    outer loop
      vertex -7.0715 12.2017 -1.49428e-15
      vertex -7.02679 12.3165 -1
      vertex -7.02679 12.3165 -1.50833e-15
    endloop
  endfacet
  facet normal 0.931756 -0.363086 0
    outer loop
      vertex -7.02679 12.3165 -1
      vertex -7.0715 12.2017 -1.49428e-15
      vertex -7.0715 12.2017 -1
    endloop
  endfacet
  facet normal 0.974534 -0.22424 0
    outer loop
      vertex -7.10057 12.0754 -1.47881e-15
      vertex -7.0715 12.2017 -1
      vertex -7.0715 12.2017 -1.49428e-15
    endloop
  endfacet
  facet normal 0.974534 -0.22424 0
    outer loop
      vertex -7.0715 12.2017 -1
      vertex -7.10057 12.0754 -1.47881e-15
      vertex -7.10057 12.0754 -1
    endloop
  endfacet
  facet normal 0.99573 -0.0923085 0
    outer loop
      vertex -7.11089 11.9641 -1.46518e-15
      vertex -7.10057 12.0754 -1
      vertex -7.10057 12.0754 -1.47881e-15
    endloop
  endfacet
  facet normal 0.99573 -0.0923085 0
    outer loop
      vertex -7.10057 12.0754 -1
      vertex -7.11089 11.9641 -1.46518e-15
      vertex -7.11089 11.9641 -1
    endloop
  endfacet
  facet normal 0.999624 0.0274112 0
    outer loop
      vertex -7.10805 11.8606 -1.45251e-15
      vertex -7.11089 11.9641 -1
      vertex -7.11089 11.9641 -1.46518e-15
    endloop
  endfacet
  facet normal 0.999624 0.0274112 0
    outer loop
      vertex -7.11089 11.9641 -1
      vertex -7.10805 11.8606 -1.45251e-15
      vertex -7.10805 11.8606 -1
    endloop
  endfacet
  facet normal 0.987674 0.156526 0
    outer loop
      vertex -3.24631 -12.5068 1.53164e-15
      vertex -7.10805 11.8606 -1
      vertex -7.10805 11.8606 -1.45251e-15
    endloop
  endfacet
  facet normal 0.987674 0.156526 0
    outer loop
      vertex -7.10805 11.8606 -1
      vertex -3.24631 -12.5068 1.53164e-15
      vertex -3.24631 -12.5068 -1
    endloop
  endfacet
  facet normal 0.973083 0.230457 0
    outer loop
      vertex -3.2188 -12.6229 1.54586e-15
      vertex -3.24631 -12.5068 -1
      vertex -3.24631 -12.5068 1.53164e-15
    endloop
  endfacet
  facet normal 0.973083 0.230457 0
    outer loop
      vertex -3.24631 -12.5068 -1
      vertex -3.2188 -12.6229 1.54586e-15
      vertex -3.2188 -12.6229 -1
    endloop
  endfacet
  facet normal 0.942794 0.333377 0
    outer loop
      vertex -3.17577 -12.7446 1.56077e-15
      vertex -3.2188 -12.6229 -1
      vertex -3.2188 -12.6229 1.54586e-15
    endloop
  endfacet
  facet normal 0.942794 0.333377 0
    outer loop
      vertex -3.2188 -12.6229 -1
      vertex -3.17577 -12.7446 1.56077e-15
      vertex -3.17577 -12.7446 -1
    endloop
  endfacet
  facet normal 0.899519 0.436882 0
    outer loop
      vertex -3.11986 -12.8597 1.57486e-15
      vertex -3.17577 -12.7446 -1
      vertex -3.17577 -12.7446 1.56077e-15
    endloop
  endfacet
  facet normal 0.899519 0.436882 0
    outer loop
      vertex -3.17577 -12.7446 -1
      vertex -3.11986 -12.8597 1.57486e-15
      vertex -3.11986 -12.8597 -1
    endloop
  endfacet
  facet normal 0.846105 0.533017 0
    outer loop
      vertex -3.05211 -12.9673 1.58803e-15
      vertex -3.11986 -12.8597 -1
      vertex -3.11986 -12.8597 1.57486e-15
    endloop
  endfacet
  facet normal 0.846105 0.533017 0
    outer loop
      vertex -3.11986 -12.8597 -1
      vertex -3.05211 -12.9673 1.58803e-15
      vertex -3.05211 -12.9673 -1
    endloop
  endfacet
  facet normal 0.777672 0.628671 0
    outer loop
      vertex -2.96107 -13.0799 1.60183e-15
      vertex -3.05211 -12.9673 -1
      vertex -3.05211 -12.9673 1.58803e-15
    endloop
  endfacet
  facet normal 0.777672 0.628671 0
    outer loop
      vertex -3.05211 -12.9673 -1
      vertex -2.96107 -13.0799 1.60183e-15
      vertex -2.96107 -13.0799 -1
    endloop
  endfacet
  facet normal 0.695485 0.71854 -0
    outer loop
      vertex -2.85503 -13.1825 -1
      vertex -2.96107 -13.0799 1.60183e-15
      vertex -2.85503 -13.1825 1.6144e-15
    endloop
  endfacet
  facet normal 0.695485 0.71854 0
    outer loop
      vertex -2.96107 -13.0799 1.60183e-15
      vertex -2.85503 -13.1825 -1
      vertex -2.96107 -13.0799 -1
    endloop
  endfacet
  facet normal 0.601082 0.799187 -0
    outer loop
      vertex -2.73788 -13.2706 -1
      vertex -2.85503 -13.1825 1.6144e-15
      vertex -2.73788 -13.2706 1.62519e-15
    endloop
  endfacet
  facet normal 0.601082 0.799187 0
    outer loop
      vertex -2.85503 -13.1825 1.6144e-15
      vertex -2.73788 -13.2706 -1
      vertex -2.85503 -13.1825 -1
    endloop
  endfacet
  facet normal 0.496681 0.867933 -0
    outer loop
      vertex -2.6116 -13.3429 -1
      vertex -2.73788 -13.2706 1.62519e-15
      vertex -2.6116 -13.3429 1.63404e-15
    endloop
  endfacet
  facet normal 0.496681 0.867933 0
    outer loop
      vertex -2.73788 -13.2706 1.62519e-15
      vertex -2.6116 -13.3429 -1
      vertex -2.73788 -13.2706 -1
    endloop
  endfacet
  facet normal 0.382392 0.924 -0
    outer loop
      vertex -2.47824 -13.3981 -1
      vertex -2.6116 -13.3429 1.63404e-15
      vertex -2.47824 -13.3981 1.64079e-15
    endloop
  endfacet
  facet normal 0.382392 0.924 0
    outer loop
      vertex -2.6116 -13.3429 1.63404e-15
      vertex -2.47824 -13.3981 -1
      vertex -2.6116 -13.3429 -1
    endloop
  endfacet
  facet normal 0.256939 0.966428 -0
    outer loop
      vertex -2.33614 -13.4359 -1
      vertex -2.47824 -13.3981 1.64079e-15
      vertex -2.33614 -13.4359 1.64542e-15
    endloop
  endfacet
  facet normal 0.256939 0.966428 0
    outer loop
      vertex -2.47824 -13.3981 1.64079e-15
      vertex -2.33614 -13.4359 -1
      vertex -2.47824 -13.3981 -1
    endloop
  endfacet
  facet normal 0.130366 0.991466 -0
    outer loop
      vertex -2.21208 -13.4522 -1
      vertex -2.33614 -13.4359 1.64542e-15
      vertex -2.21208 -13.4522 1.64742e-15
    endloop
  endfacet
  facet normal 0.130366 0.991466 0
    outer loop
      vertex -2.33614 -13.4359 1.64542e-15
      vertex -2.21208 -13.4522 -1
      vertex -2.33614 -13.4359 -1
    endloop
  endfacet
  facet normal 0.000595542 1 -0
    outer loop
      vertex 2.47668 -13.455 -1
      vertex -2.21208 -13.4522 1.64742e-15
      vertex 2.47668 -13.455 1.64776e-15
    endloop
  endfacet
  facet normal 0.000595542 1 0
    outer loop
      vertex -2.21208 -13.4522 1.64742e-15
      vertex 2.47668 -13.455 -1
      vertex -2.21208 -13.4522 -1
    endloop
  endfacet
  facet normal -0.0320121 0.999487 0
    outer loop
      vertex 2.54529 -13.4528 -1
      vertex 2.47668 -13.455 1.64776e-15
      vertex 2.54529 -13.4528 1.64749e-15
    endloop
  endfacet
  facet normal -0.0320121 0.999487 0
    outer loop
      vertex 2.47668 -13.455 1.64776e-15
      vertex 2.54529 -13.4528 -1
      vertex 2.47668 -13.455 -1
    endloop
  endfacet
  facet normal -0.115524 0.993305 0
    outer loop
      vertex 2.66547 -13.4388 -1
      vertex 2.54529 -13.4528 1.64749e-15
      vertex 2.66547 -13.4388 1.64578e-15
    endloop
  endfacet
  facet normal -0.115524 0.993305 0
    outer loop
      vertex 2.54529 -13.4528 1.64749e-15
      vertex 2.66547 -13.4388 -1
      vertex 2.54529 -13.4528 -1
    endloop
  endfacet
  facet normal -0.220639 0.975356 0
    outer loop
      vertex 2.78992 -13.4107 -1
      vertex 2.66547 -13.4388 1.64578e-15
      vertex 2.78992 -13.4107 1.64233e-15
    endloop
  endfacet
  facet normal -0.220639 0.975356 0
    outer loop
      vertex 2.66547 -13.4388 1.64578e-15
      vertex 2.78992 -13.4107 -1
      vertex 2.66547 -13.4388 -1
    endloop
  endfacet
  facet normal -0.327532 0.94484 0
    outer loop
      vertex 2.90982 -13.3691 -1
      vertex 2.78992 -13.4107 1.64233e-15
      vertex 2.90982 -13.3691 1.63724e-15
    endloop
  endfacet
  facet normal -0.327532 0.94484 0
    outer loop
      vertex 2.78992 -13.4107 1.64233e-15
      vertex 2.90982 -13.3691 -1
      vertex 2.78992 -13.4107 -1
    endloop
  endfacet
  facet normal -0.429141 0.903238 0
    outer loop
      vertex 3.02049 -13.3165 -1
      vertex 2.90982 -13.3691 1.63724e-15
      vertex 3.02049 -13.3165 1.6308e-15
    endloop
  endfacet
  facet normal -0.429141 0.903238 0
    outer loop
      vertex 2.90982 -13.3691 1.63724e-15
      vertex 3.02049 -13.3165 -1
      vertex 2.90982 -13.3691 -1
    endloop
  endfacet
  facet normal -0.523833 0.851821 0
    outer loop
      vertex 3.12761 -13.2506 -1
      vertex 3.02049 -13.3165 1.6308e-15
      vertex 3.12761 -13.2506 1.62274e-15
    endloop
  endfacet
  facet normal -0.523833 0.851821 0
    outer loop
      vertex 3.02049 -13.3165 1.6308e-15
      vertex 3.12761 -13.2506 -1
      vertex 3.02049 -13.3165 -1
    endloop
  endfacet
  facet normal -0.61549 0.788144 0
    outer loop
      vertex 3.22638 -13.1735 -1
      vertex 3.12761 -13.2506 1.62274e-15
      vertex 3.22638 -13.1735 1.61329e-15
    endloop
  endfacet
  facet normal -0.61549 0.788144 0
    outer loop
      vertex 3.12761 -13.2506 1.62274e-15
      vertex 3.22638 -13.1735 -1
      vertex 3.12761 -13.2506 -1
    endloop
  endfacet
  facet normal -0.700669 0.713486 0
    outer loop
      vertex 3.31557 -13.0859 -1
      vertex 3.22638 -13.1735 1.61329e-15
      vertex 3.31557 -13.0859 1.60256e-15
    endloop
  endfacet
  facet normal -0.700669 0.713486 0
    outer loop
      vertex 3.22638 -13.1735 1.61329e-15
      vertex 3.31557 -13.0859 -1
      vertex 3.22638 -13.1735 -1
    endloop
  endfacet
  facet normal -0.778359 0.627819 0
    outer loop
      vertex 3.31557 -13.0859 -1
      vertex 3.39397 -12.9887 1.59066e-15
      vertex 3.39397 -12.9887 -1
    endloop
  endfacet
  facet normal -0.778359 0.627819 0
    outer loop
      vertex 3.39397 -12.9887 1.59066e-15
      vertex 3.31557 -13.0859 -1
      vertex 3.31557 -13.0859 1.60256e-15
    endloop
  endfacet
  facet normal -0.847479 0.530829 0
    outer loop
      vertex 3.39397 -12.9887 -1
      vertex 3.46234 -12.8796 1.57729e-15
      vertex 3.46234 -12.8796 -1
    endloop
  endfacet
  facet normal -0.847479 0.530829 0
    outer loop
      vertex 3.46234 -12.8796 1.57729e-15
      vertex 3.39397 -12.9887 -1
      vertex 3.39397 -12.9887 1.59066e-15
    endloop
  endfacet
  facet normal -0.907036 0.421052 0
    outer loop
      vertex 3.46234 -12.8796 -1
      vertex 3.51686 -12.7621 1.56291e-15
      vertex 3.51686 -12.7621 -1
    endloop
  endfacet
  facet normal -0.907036 0.421052 0
    outer loop
      vertex 3.51686 -12.7621 1.56291e-15
      vertex 3.46234 -12.8796 -1
      vertex 3.46234 -12.8796 1.57729e-15
    endloop
  endfacet
  facet normal -0.953316 0.301975 0
    outer loop
      vertex 3.51686 -12.7621 -1
      vertex 3.55634 -12.6375 1.54765e-15
      vertex 3.55634 -12.6375 -1
    endloop
  endfacet
  facet normal -0.953316 0.301975 0
    outer loop
      vertex 3.55634 -12.6375 1.54765e-15
      vertex 3.51686 -12.7621 -1
      vertex 3.51686 -12.7621 1.56291e-15
    endloop
  endfacet
  facet normal -0.987411 0.158178 0
    outer loop
      vertex 3.55634 -12.6375 -1
      vertex 7.46568 11.7662 -1.44094e-15
      vertex 7.46568 11.7662 -1
    endloop
  endfacet
  facet normal -0.987411 0.158178 0
    outer loop
      vertex 7.46568 11.7662 -1.44094e-15
      vertex 3.55634 -12.6375 -1
      vertex 3.55634 -12.6375 1.54765e-15
    endloop
  endfacet
  facet normal -0.999094 0.0425538 0
    outer loop
      vertex 7.46568 11.7662 -1
      vertex 7.47238 11.9235 -1.4602e-15
      vertex 7.47238 11.9235 -1
    endloop
  endfacet
  facet normal -0.999094 0.0425538 0
    outer loop
      vertex 7.47238 11.9235 -1.4602e-15
      vertex 7.46568 11.7662 -1
      vertex 7.46568 11.7662 -1.44094e-15
    endloop
  endfacet
  facet normal -0.996153 -0.0876286 0
    outer loop
      vertex 7.47238 11.9235 -1
      vertex 7.46164 12.0456 -1.47516e-15
      vertex 7.46164 12.0456 -1
    endloop
  endfacet
  facet normal -0.996153 -0.0876286 0
    outer loop
      vertex 7.46164 12.0456 -1.47516e-15
      vertex 7.47238 11.9235 -1
      vertex 7.47238 11.9235 -1.4602e-15
    endloop
  endfacet
  facet normal -0.978525 -0.20613 0
    outer loop
      vertex 7.46164 12.0456 -1
      vertex 7.43636 12.1656 -1.48986e-15
      vertex 7.43636 12.1656 -1
    endloop
  endfacet
  facet normal -0.978525 -0.20613 0
    outer loop
      vertex 7.43636 12.1656 -1.48986e-15
      vertex 7.46164 12.0456 -1
      vertex 7.46164 12.0456 -1.47516e-15
    endloop
  endfacet
  facet normal -0.944774 -0.327724 0
    outer loop
      vertex 7.43636 12.1656 -1
      vertex 7.39716 12.2786 -1.5037e-15
      vertex 7.39716 12.2786 -1
    endloop
  endfacet
  facet normal -0.944774 -0.327724 0
    outer loop
      vertex 7.39716 12.2786 -1.5037e-15
      vertex 7.43636 12.1656 -1
      vertex 7.43636 12.1656 -1.48986e-15
    endloop
  endfacet
  facet normal -0.894175 -0.447718 0
    outer loop
      vertex 7.39716 12.2786 -1
      vertex 7.34296 12.3869 -1.51695e-15
      vertex 7.34296 12.3869 -1
    endloop
  endfacet
  facet normal -0.894175 -0.447718 0
    outer loop
      vertex 7.34296 12.3869 -1.51695e-15
      vertex 7.39716 12.2786 -1
      vertex 7.39716 12.2786 -1.5037e-15
    endloop
  endfacet
  facet normal -0.825456 -0.564466 0
    outer loop
      vertex 7.34296 12.3869 -1
      vertex 7.27768 12.4823 -1.52864e-15
      vertex 7.27768 12.4823 -1
    endloop
  endfacet
  facet normal -0.825456 -0.564466 0
    outer loop
      vertex 7.27768 12.4823 -1.52864e-15
      vertex 7.34296 12.3869 -1
      vertex 7.34296 12.3869 -1.51695e-15
    endloop
  endfacet
  facet normal -0.742204 -0.670174 0
    outer loop
      vertex 7.27768 12.4823 -1
      vertex 7.19832 12.5702 -1.53941e-15
      vertex 7.19832 12.5702 -1
    endloop
  endfacet
  facet normal -0.742204 -0.670174 0
    outer loop
      vertex 7.19832 12.5702 -1.53941e-15
      vertex 7.27768 12.4823 -1
      vertex 7.27768 12.4823 -1.52864e-15
    endloop
  endfacet
  facet normal -0.64118 -0.76739 0
    outer loop
      vertex 7.10471 12.6484 -1
      vertex 7.19832 12.5702 -1.53941e-15
      vertex 7.10471 12.6484 -1.54899e-15
    endloop
  endfacet
  facet normal -0.64118 -0.76739 -0
    outer loop
      vertex 7.19832 12.5702 -1.53941e-15
      vertex 7.10471 12.6484 -1
      vertex 7.19832 12.5702 -1
    endloop
  endfacet
  facet normal -0.524606 -0.851345 0
    outer loop
      vertex 7.0036 12.7107 -1
      vertex 7.10471 12.6484 -1.54899e-15
      vertex 7.0036 12.7107 -1.55662e-15
    endloop
  endfacet
  facet normal -0.524606 -0.851345 -0
    outer loop
      vertex 7.10471 12.6484 -1.54899e-15
      vertex 7.0036 12.7107 -1
      vertex 7.10471 12.6484 -1
    endloop
  endfacet
  facet normal -0.400826 -0.916154 0
    outer loop
      vertex 6.8936 12.7589 -1
      vertex 7.0036 12.7107 -1.55662e-15
      vertex 6.8936 12.7589 -1.56251e-15
    endloop
  endfacet
  facet normal -0.400826 -0.916154 -0
    outer loop
      vertex 7.0036 12.7107 -1.55662e-15
      vertex 6.8936 12.7589 -1
      vertex 7.0036 12.7107 -1
    endloop
  endfacet
  facet normal -0.270876 -0.962614 0
    outer loop
      vertex 6.77599 12.792 -1
      vertex 6.8936 12.7589 -1.56251e-15
      vertex 6.77599 12.792 -1.56656e-15
    endloop
  endfacet
  facet normal -0.270876 -0.962614 -0
    outer loop
      vertex 6.8936 12.7589 -1.56251e-15
      vertex 6.77599 12.792 -1
      vertex 6.8936 12.7589 -1
    endloop
  endfacet
  facet normal -0.137681 -0.990477 0
    outer loop
      vertex 6.65205 12.8092 -1
      vertex 6.77599 12.792 -1.56656e-15
      vertex 6.65205 12.8092 -1.56867e-15
    endloop
  endfacet
  facet normal -0.137681 -0.990477 -0
    outer loop
      vertex 6.77599 12.792 -1.56656e-15
      vertex 6.65205 12.8092 -1
      vertex 6.77599 12.792 -1
    endloop
  endfacet
  facet normal -0.000733447 -1 0
    outer loop
      vertex 4.05153 12.8111 -1
      vertex 6.65205 12.8092 -1.56867e-15
      vertex 4.05153 12.8111 -1.56891e-15
    endloop
  endfacet
  facet normal -0.000733447 -1 -0
    outer loop
      vertex 6.65205 12.8092 -1.56867e-15
      vertex 4.05153 12.8111 -1
      vertex 6.65205 12.8092 -1
    endloop
  endfacet
  facet normal 0.0906913 -0.995879 0
    outer loop
      vertex 3.92821 12.7999 -1
      vertex 4.05153 12.8111 -1.56891e-15
      vertex 3.92821 12.7999 -1.56753e-15
    endloop
  endfacet
  facet normal 0.0906913 -0.995879 0
    outer loop
      vertex 4.05153 12.8111 -1.56891e-15
      vertex 3.92821 12.7999 -1
      vertex 4.05153 12.8111 -1
    endloop
  endfacet
  facet normal -0.987256 -0.159143 0
    outer loop
      vertex 0.166687 -5.76993 -1
      vertex -1.46107 4.328 -5.30027e-16
      vertex -1.46107 4.328 -1
    endloop
  endfacet
  facet normal -0.987256 -0.159143 0
    outer loop
      vertex -1.46107 4.328 -5.30027e-16
      vertex 0.166687 -5.76993 -1
      vertex 0.166687 -5.76993 7.06612e-16
    endloop
  endfacet
  facet normal 0 1 -0
    outer loop
      vertex 1.79445 4.328 -1
      vertex -1.46107 4.328 -5.30027e-16
      vertex 1.79445 4.328 -5.30027e-16
    endloop
  endfacet
  facet normal 0 1 0
    outer loop
      vertex -1.46107 4.328 -5.30027e-16
      vertex 1.79445 4.328 -1
      vertex -1.46107 4.328 -1
    endloop
  endfacet
  facet normal 0.987256 -0.159143 0
    outer loop
      vertex 0.166687 -5.76993 7.06612e-16
      vertex 1.79445 4.328 -1
      vertex 1.79445 4.328 -5.30027e-16
    endloop
  endfacet
  facet normal 0.987256 -0.159143 0
    outer loop
      vertex 1.79445 4.328 -1
      vertex 0.166687 -5.76993 7.06612e-16
      vertex 0.166687 -5.76993 -1
    endloop
  endfacet
  facet normal -0 0 1
    outer loop
      vertex -16.5 7.15 13.3
      vertex -15.5 -7.15 13.3
      vertex -15.5 7.15 13.3
    endloop
  endfacet
  facet normal 0 0 1
    outer loop
      vertex -15.5 -7.15 13.3
      vertex -16.5 7.15 13.3
      vertex -16.5 -7.15 13.3
    endloop
  endfacet
  facet normal 0 1 -0
    outer loop
      vertex -15.5 -7.15 13.3
      vertex -16.5 -7.15 15
      vertex -15.5 -7.15 15
    endloop
  endfacet
  facet normal 0 1 0
    outer loop
      vertex -16.5 -7.15 15
      vertex -15.5 -7.15 13.3
      vertex -16.5 -7.15 13.3
    endloop
  endfacet
  facet normal 0 -1 0
    outer loop
      vertex -16.5 7.15 13.3
      vertex -15.5 7.15 15
      vertex -16.5 7.15 15
    endloop
  endfacet
  facet normal 0 -1 -0
    outer loop
      vertex -15.5 7.15 15
      vertex -16.5 7.15 13.3
      vertex -15.5 7.15 13.3
    endloop
  endfacet
  facet normal -0 0 1
    outer loop
      vertex 15.5 7.15 13.3
      vertex 16.5 -7.15 13.3
      vertex 16.5 7.15 13.3
    endloop
  endfacet
  facet normal 0 0 1
    outer loop
      vertex 16.5 -7.15 13.3
      vertex 15.5 7.15 13.3
      vertex 15.5 -7.15 13.3
    endloop
  endfacet
  facet normal 0 -1 0
    outer loop
      vertex 15.5 7.15 13.3
      vertex 16.5 7.15 15
      vertex 15.5 7.15 15
    endloop
  endfacet
  facet normal 0 -1 -0
    outer loop
      vertex 16.5 7.15 15
      vertex 15.5 7.15 13.3
      vertex 16.5 7.15 13.3
    endloop
  endfacet
  facet normal 0 1 -0
    outer loop
      vertex 16.5 -7.15 13.3
      vertex 15.5 -7.15 15
      vertex 16.5 -7.15 15
    endloop
  endfacet
  facet normal 0 1 0
    outer loop
      vertex 15.5 -7.15 15
      vertex 16.5 -7.15 13.3
      vertex 15.5 -7.15 13.3
    endloop
  endfacet
  facet normal 1 -0 0
    outer loop
      vertex -7.15 -16.5 15
      vertex -7.15 -15.5 13.3
      vertex -7.15 -15.5 15
    endloop
  endfacet
  facet normal 1 0 0
    outer loop
      vertex -7.15 -15.5 13.3
      vertex -7.15 -16.5 15
      vertex -7.15 -16.5 13.3
    endloop
  endfacet
  facet normal -0 0 1
    outer loop
      vertex -7.15 -15.5 13.3
      vertex 7.15 -16.5 13.3
      vertex 7.15 -15.5 13.3
    endloop
  endfacet
  facet normal 0 0 1
    outer loop
      vertex 7.15 -16.5 13.3
      vertex -7.15 -15.5 13.3
      vertex -7.15 -16.5 13.3
    endloop
  endfacet
  facet normal -1 0 0
    outer loop
      vertex 7.15 -16.5 13.3
      vertex 7.15 -15.5 15
      vertex 7.15 -15.5 13.3
    endloop
  endfacet
  facet normal -1 -0 0
    outer loop
      vertex 7.15 -15.5 15
      vertex 7.15 -16.5 13.3
      vertex 7.15 -16.5 15
    endloop
  endfacet
  facet normal 1 -0 0
    outer loop
      vertex -7.15 15.5 15
      vertex -7.15 16.5 13.3
      vertex -7.15 16.5 15
    endloop
  endfacet
  facet normal 1 0 0
    outer loop
      vertex -7.15 16.5 13.3
      vertex -7.15 15.5 15
      vertex -7.15 15.5 13.3
    endloop
  endfacet
  facet normal -0 0 1
    outer loop
      vertex -7.15 16.5 13.3
      vertex 7.15 15.5 13.3
      vertex 7.15 16.5 13.3
    endloop
  endfacet
  facet normal 0 0 1
    outer loop
      vertex 7.15 15.5 13.3
      vertex -7.15 16.5 13.3
      vertex -7.15 15.5 13.3
    endloop
  endfacet
  facet normal -1 0 0
    outer loop
      vertex 7.15 15.5 13.3
      vertex 7.15 16.5 15
      vertex 7.15 16.5 13.3
    endloop
  endfacet
  facet normal -1 -0 0
    outer loop
      vertex 7.15 16.5 15
      vertex 7.15 15.5 13.3
      vertex 7.15 15.5 15
    endloop
  endfacet
endsolid OpenSCAD_Model
